<svg width="66" height="37" viewBox="0 0 66 37" fill="none" xmlns="http://www.w3.org/2000/svg">
<path d="M65.3931 24.5027C64.6809 23.0351 63.5811 21.9634 62.1247 21.3164C61.0367 20.8322 59.7977 20.597 58.2363 20.5821C58.5019 19.9232 58.4944 19.179 58.1678 18.5003L55.5183 13.0089C55.2538 12.4602 54.8051 12.0146 54.2493 11.7289L52.6612 8.42453C52.6558 8.41362 52.6505 8.40369 52.6451 8.39476C52.6355 8.37393 52.6237 8.35409 52.6141 8.33226C52.5959 8.29852 52.5766 8.26476 52.5562 8.23003C52.5455 8.21018 52.5337 8.19134 52.522 8.17249C52.4984 8.13379 52.4727 8.0951 52.447 8.05839C52.4384 8.04549 52.4299 8.03356 52.4213 8.02165C52.386 7.97204 52.3495 7.92442 52.311 7.87778C52.3013 7.86488 52.2906 7.85396 52.2799 7.84205C52.251 7.80732 52.22 7.77358 52.19 7.73985C52.175 7.72397 52.1611 7.7091 52.1461 7.69421C52.1172 7.66444 52.0861 7.63465 52.0561 7.60588C52.0411 7.59199 52.0272 7.5781 52.0111 7.56421C51.9736 7.53146 51.9362 7.49972 51.8976 7.46797C51.888 7.46003 51.8794 7.45208 51.8698 7.44514C51.8216 7.40743 51.7723 7.3717 51.7209 7.33697C51.7059 7.32605 51.6909 7.31713 51.6759 7.3082C51.6385 7.28339 51.601 7.25959 51.5635 7.23677C51.5442 7.22486 51.5249 7.21394 51.5046 7.20203C51.4682 7.18119 51.4318 7.16135 51.3932 7.1425C51.3739 7.13158 51.3547 7.12166 51.3343 7.11273C51.2872 7.08991 51.239 7.06807 51.1908 7.04723C51.1812 7.04326 51.1715 7.0383 51.1619 7.03433C51.1041 7.01051 51.0452 6.9887 50.9852 6.96786C50.966 6.9619 50.9467 6.95594 50.9274 6.94899C50.8846 6.9351 50.8417 6.92319 50.7978 6.91029C50.7753 6.90434 50.7539 6.89838 50.7314 6.89242C50.7143 6.88846 50.6982 6.88349 50.6821 6.87952C50.6564 6.87357 50.6308 6.86861 50.6051 6.86266C50.5879 6.85968 50.5719 6.85473 50.5558 6.85176L25.7313 2.07086C25.531 2.03216 25.3297 2.01333 25.1284 2.01333C24.504 2.01333 23.8893 2.19691 23.3775 2.54421L5.38741 14.7554C5.38313 14.7583 5.37884 14.7623 5.37349 14.7653C5.32208 14.801 5.27176 14.8377 5.2225 14.8754C5.21393 14.8834 5.20535 14.8903 5.19678 14.8963C5.15609 14.929 5.11755 14.9618 5.079 14.9975C5.06615 15.0094 5.05328 15.0203 5.04043 15.0322C4.99653 15.0729 4.9537 15.1146 4.91193 15.1572C4.90658 15.1632 4.90228 15.1691 4.89693 15.1741C4.86052 15.2128 4.82626 15.2535 4.79199 15.2942C4.78021 15.3081 4.76844 15.321 4.75666 15.3368C4.72561 15.3755 4.6956 15.4152 4.66669 15.4549C4.66134 15.4638 4.65491 15.4718 4.64849 15.4797C4.61529 15.5274 4.58315 15.577 4.55423 15.6256C4.54567 15.6395 4.53819 15.6534 4.52963 15.6673C4.50607 15.708 4.48356 15.7487 4.46214 15.7913C4.45571 15.8032 4.44929 15.8141 4.44394 15.827C4.41823 15.8796 4.39361 15.9322 4.37112 15.9858C4.36684 15.9977 4.36256 16.0076 4.35828 16.0195C4.34114 16.0642 4.32402 16.1089 4.30903 16.1545C4.30474 16.1694 4.29938 16.1843 4.29403 16.2001C4.27689 16.2557 4.26082 16.3103 4.2469 16.3678C4.24583 16.3718 4.24585 16.3748 4.24478 16.3787C4.23407 16.4204 4.22547 16.4621 4.21798 16.5038L3.47801 20.4859C3.03144 20.8848 2.72837 21.4067 2.61807 21.9783L1.43367 28.1166C1.14666 29.603 2.20792 31.026 3.80998 31.3008L34.6294 36.5977C34.6304 36.5977 34.6315 36.5977 34.6337 36.5997C34.6658 36.6037 34.6979 36.6096 34.73 36.6136C34.7429 36.6156 34.7547 36.6176 34.7675 36.6195C34.8007 36.6235 34.835 36.6275 34.8682 36.6295C34.88 36.6315 34.8907 36.6334 34.9025 36.6334C34.9357 36.6374 34.9699 36.6394 35.0042 36.6394C35.0149 36.6414 35.0256 36.6414 35.0363 36.6433C35.0695 36.6433 35.1027 36.6434 35.1359 36.6453C35.1477 36.6453 35.1595 36.6453 35.1713 36.6453C35.243 36.6453 35.3148 36.6414 35.3865 36.6374C35.4004 36.6354 35.4133 36.6354 35.4272 36.6334C35.4968 36.6275 35.5653 36.6215 35.6339 36.6106C35.6456 36.6086 35.6575 36.6066 35.6692 36.6046C35.7346 36.5947 35.7999 36.5838 35.8652 36.5679C35.8716 36.5679 35.8791 36.566 35.8866 36.564C35.9541 36.5481 36.0215 36.5293 36.0879 36.5094C36.1029 36.5054 36.1169 36.5015 36.1308 36.4955C36.1972 36.4757 36.2614 36.4529 36.3257 36.428C36.3364 36.4241 36.346 36.4201 36.3567 36.4161C36.4167 36.3913 36.4767 36.3635 36.5356 36.3367C36.5441 36.3328 36.5527 36.3288 36.5613 36.3248C36.6244 36.2941 36.6855 36.2613 36.7455 36.2256C36.7583 36.2177 36.769 36.2097 36.7819 36.2048C36.8419 36.1681 36.9007 36.1294 36.9586 36.0907C36.9607 36.0887 36.9629 36.0867 36.965 36.0847L45.3084 30.2143C45.423 30.1944 45.5365 30.1796 45.6479 30.1696C45.7785 30.1577 45.9017 30.1518 46.0227 30.1518C46.9854 30.1518 47.8229 30.5467 49.622 31.4408C50.8342 32.0411 52.3442 32.7913 54.3318 33.5514C55.5644 34.0227 56.8088 34.2609 58.0285 34.2609C60.785 34.2609 63.3059 33.0066 64.772 30.9039C66.1513 28.9303 66.3837 26.5349 65.3931 24.5027Z" fill="#E0C380"/>
<path d="M64.0106 22.4883C63.2974 21.0207 62.1986 19.9491 60.7422 19.3021C59.6541 18.8178 58.414 18.5826 56.8537 18.5678C57.1193 17.9089 57.1118 17.1637 56.7852 16.4869L54.1358 10.9956C53.8713 10.4469 53.4226 10.0003 52.8668 9.71553L51.2786 6.4112C51.2733 6.40029 51.268 6.39037 51.2626 6.38144C51.2519 6.3606 51.2412 6.34073 51.2305 6.3189C51.2123 6.28517 51.193 6.25143 51.1737 6.2167C51.1619 6.19685 51.1512 6.17802 51.1394 6.15916C51.1159 6.12046 51.0902 6.08174 51.0644 6.04503C51.0559 6.03213 51.0473 6.02023 51.0388 6.00833C51.0034 5.95871 50.967 5.91109 50.9285 5.86446C50.9178 5.85156 50.9071 5.84062 50.8974 5.82772C50.8685 5.79399 50.8374 5.76025 50.8064 5.72552C50.7924 5.71064 50.7785 5.69574 50.7636 5.68085C50.7346 5.65108 50.7036 5.62133 50.6725 5.59255C50.6575 5.57866 50.6436 5.56477 50.6275 5.55088C50.5901 5.51814 50.5526 5.48637 50.514 5.45461C50.5055 5.44668 50.4958 5.43876 50.4862 5.43181C50.438 5.3941 50.3887 5.35837 50.3373 5.32364C50.3223 5.31273 50.3073 5.3038 50.2924 5.29487C50.2549 5.27007 50.2174 5.24623 50.1799 5.22341C50.1606 5.2115 50.1403 5.20061 50.121 5.1887C50.0846 5.16787 50.0482 5.14799 50.0107 5.12914C49.9904 5.11822 49.9722 5.1083 49.9518 5.09937C49.9047 5.07655 49.8565 5.05474 49.8072 5.0339C49.7976 5.02993 49.788 5.02497 49.7794 5.021C49.7216 4.99719 49.6627 4.97534 49.6027 4.9545C49.5834 4.94855 49.5641 4.94261 49.5449 4.93566C49.502 4.92177 49.4592 4.90986 49.4153 4.89696C49.3928 4.89101 49.3714 4.88505 49.3489 4.8791C49.3317 4.87513 49.3157 4.87017 49.2986 4.8662C49.2729 4.85925 49.2472 4.85528 49.2215 4.84933C49.2043 4.84635 49.1882 4.84137 49.1722 4.8384L24.3477 0.0575365C24.1474 0.0188371 23.9461 0 23.7448 0C23.1204 0 22.5057 0.183578 21.9928 0.53088L4.00274 12.742C3.99739 12.745 3.99311 12.749 3.98882 12.7519C3.93742 12.7877 3.8871 12.8244 3.83783 12.8621C3.82927 12.87 3.82068 12.877 3.81211 12.8829C3.77142 12.9157 3.73288 12.9484 3.69433 12.9831C3.68148 12.996 3.66862 13.007 3.65577 13.0189C3.61186 13.0596 3.56904 13.1003 3.52834 13.1439C3.52299 13.1499 3.51763 13.1558 3.51334 13.1608C3.47693 13.1995 3.44267 13.2402 3.4084 13.2809C3.39662 13.2947 3.38482 13.3076 3.37304 13.3235C3.34199 13.3622 3.31202 13.4019 3.2831 13.4416C3.27668 13.4505 3.27025 13.4585 3.2649 13.4664C3.2317 13.514 3.19955 13.5636 3.16957 13.6123C3.161 13.6262 3.15353 13.64 3.14496 13.6539C3.1214 13.6946 3.09889 13.7353 3.07747 13.778C3.07105 13.7899 3.06465 13.8008 3.05822 13.8137C3.03252 13.8663 3.00787 13.9189 2.98646 13.9725C2.98217 13.9844 2.97789 13.9943 2.97253 14.0062C2.9554 14.0509 2.93935 14.0955 2.92328 14.1411C2.919 14.156 2.91364 14.1709 2.90828 14.1868C2.89008 14.2424 2.87401 14.297 2.86116 14.3545C2.86116 14.3575 2.8601 14.3614 2.85903 14.3654C2.84939 14.4071 2.83976 14.4488 2.83227 14.4905L2.09226 18.4725C1.64677 18.8714 1.3437 19.3934 1.23232 19.9649L0.0468434 26.1033C-0.240158 27.5897 0.821097 29.0126 2.42316 29.2875L33.2425 34.5844C33.2436 34.5844 33.2458 34.5844 33.2468 34.5864C33.279 34.5903 33.3111 34.5963 33.3432 34.6003C33.3561 34.6022 33.3678 34.6042 33.3807 34.6062C33.4139 34.6102 33.4482 34.6141 33.4814 34.6161C33.4921 34.6181 33.5038 34.6201 33.5146 34.6201C33.5488 34.6241 33.5831 34.6261 33.6174 34.6261C33.6281 34.628 33.6399 34.628 33.6495 34.63C33.6827 34.63 33.7159 34.63 33.7491 34.632C33.7609 34.632 33.7716 34.632 33.7834 34.632C33.8551 34.632 33.9269 34.628 33.9986 34.6241C34.0126 34.6221 34.0254 34.6221 34.0393 34.6201C34.1089 34.6141 34.1775 34.6082 34.2471 34.5973C34.2589 34.5953 34.2696 34.5933 34.2824 34.5913C34.3477 34.5814 34.4131 34.5705 34.4784 34.5546C34.4848 34.5546 34.4923 34.5526 34.4998 34.5507C34.5673 34.5348 34.6347 34.5159 34.7011 34.4961C34.7161 34.4921 34.73 34.4881 34.744 34.4822C34.8104 34.4623 34.8746 34.4395 34.9389 34.4147C34.9496 34.4107 34.9592 34.4068 34.9699 34.4028C35.0299 34.378 35.0899 34.3502 35.1488 34.3234C35.1573 34.3194 35.1659 34.3155 35.1745 34.3115C35.2377 34.2808 35.2976 34.248 35.3587 34.2123C35.3704 34.2043 35.3822 34.1964 35.3951 34.1914C35.455 34.1547 35.514 34.116 35.5729 34.0773C35.575 34.0753 35.5771 34.0734 35.5793 34.0714L43.9227 28.201C44.0372 28.1811 44.1507 28.1662 44.2621 28.1563C44.3928 28.1444 44.5159 28.1384 44.638 28.1384C45.6007 28.1384 46.4371 28.5334 48.2373 29.4274C49.4496 30.0278 50.9595 30.7779 52.9471 31.538C54.1808 32.0094 55.4241 32.2475 56.6449 32.2475C59.4014 32.2475 61.9223 30.9933 63.3873 28.8906C64.7677 26.9169 65.0001 24.5215 64.0106 22.4883Z" fill="white"/>
<path d="M49.4752 13.4903C51.1748 15.3885 49.3628 16.8531 48.0145 18.6194C47.0957 19.8211 47.0593 20.986 48.5735 21.4822C49.2814 21.7144 50.3266 21.8017 51.7798 21.6776C56.3386 21.2897 59.8212 20.5573 61.3097 23.6156C62.7972 26.6738 59.2643 30.9824 54.0801 28.9998C48.8969 27.0192 47.2242 25.1239 43.9708 25.4236C43.5071 25.4662 43.068 25.5476 42.6504 25.6508C40.1241 26.273 38.3004 27.7267 36.0686 26.8038C35.0106 26.3662 34.2288 25.4682 33.8615 24.47C33.3229 23.0123 33.6688 21.3363 35.3244 20.5494C38.113 19.2217 40.7174 17.8434 43.2737 14.9578C45.1799 12.8055 47.7747 11.592 49.4752 13.4903Z" fill="#FFBA1E"/>
<path d="M51.4307 12.1159L54.0801 17.6093L48.5735 21.4832C47.0593 20.987 47.0957 19.8221 48.0145 18.6204C49.3628 16.8531 51.1748 15.3895 49.4753 13.4912L50.9424 12.4593L51.4307 12.1159Z" fill="#7B2623"/>
<path d="M36.0665 26.8049C38.2994 27.7277 40.122 26.274 42.6483 25.6518L33.7887 31.8864L32.3933 25.3839L33.7887 24.5216L33.8594 24.471C34.2267 25.4692 35.0085 26.3663 36.0665 26.8049Z" fill="#7B2623"/>
<path d="M32.3933 25.3839L33.7887 31.8864L2.96932 26.5895L4.1548 20.4502L4.71809 20.5504L32.3248 25.4245L32.3933 25.3839Z" fill="#7B2623"/>
<path d="M48.5725 7.52852L50.9424 12.4592L49.4752 13.4912C47.7747 11.593 45.1799 12.8065 43.2726 14.9588C40.7164 17.8454 38.1119 19.2227 35.3233 20.5504C33.6677 21.3373 33.3218 23.0133 33.8605 24.4709L33.7898 24.5215L32.3944 25.3839L31.21 19.8677L48.5725 7.52852Z" fill="#A0382B"/>
<path d="M32.3933 25.3839L32.3248 25.4246L4.7181 20.5505L5.75795 14.9589L31.2089 19.8688L32.3933 25.3839Z" fill="#A0382B"/>
<path d="M48.5725 7.52855L31.2089 19.8687L5.75794 14.9588L23.7479 2.74769L48.5725 7.52855Z" fill="#CF6A34"/>
<path d="M61.3365 23.9708C61.072 25.2151 60.0268 26.2461 58.7717 26.7522C57.5166 27.2583 56.0816 27.2831 54.7419 27.0201C53.4033 26.7582 52.145 26.2233 50.9306 25.6379C49.3532 24.8778 47.7683 24.0075 45.9991 23.8448C42.3377 23.5074 39.0447 26.264 35.364 26.2342C35.6671 27.0946 36.4799 27.3853 37.4565 27.3873C38.4332 27.3912 39.3585 26.9993 40.2109 26.5577C41.0634 26.1181 41.8944 25.614 42.8314 25.36C44.7836 24.8311 46.8891 25.4642 48.6775 26.3622C50.4659 27.2603 52.1086 28.4302 54.0094 29.099C55.9103 29.7678 58.2384 29.8412 59.8137 28.6495C61.2626 27.555 61.7317 25.6607 61.3365 23.9708Z" fill="#FFCC59"/>
<path d="M49.4752 13.4903C49.4752 13.4903 49.6359 14.8944 47.9139 16.4304C46.1919 17.9665 45.59 20.3172 47.6376 21.4822C49.6851 22.6491 54.6306 21.5576 57.9835 22.7633C61.3365 23.9709 61.1041 22.7633 61.1041 22.7633C61.1041 22.7633 59.1401 20.8541 55.861 21.4822C52.583 22.1123 46.6491 22.1738 47.6365 19.8677C48.6239 17.5617 51.0623 14.9073 49.4752 13.4903Z" fill="#CE9115"/>
<path d="M61.8045 23.4092C60.3192 20.3569 57.0176 20.6744 53.1934 21.0406C52.7201 21.0872 52.2296 21.1339 51.7284 21.1765C51.0152 21.2371 50.393 21.246 49.8629 21.2073L54.4078 18.0091C54.6091 17.8672 54.6788 17.6162 54.5749 17.4008L51.9255 11.9095C51.858 11.7686 51.7241 11.6654 51.5635 11.6267C51.4264 11.5949 51.2819 11.6128 51.1598 11.6773L49.0662 7.32213C49.0651 7.31816 49.0619 7.31517 49.0598 7.3112C49.0544 7.30028 49.049 7.29035 49.0426 7.28043C49.0394 7.27448 49.0351 7.26855 49.0308 7.26259C49.0244 7.25267 49.018 7.24372 49.0105 7.23479C49.0062 7.22884 49.0019 7.22389 48.9976 7.21893C48.9891 7.20801 48.9805 7.19909 48.9719 7.19016C48.9687 7.18619 48.9644 7.1822 48.9612 7.17823C48.9344 7.15342 48.9045 7.1296 48.8723 7.10976C48.8691 7.10678 48.8649 7.1058 48.8616 7.10282C48.8488 7.09588 48.8359 7.08893 48.8231 7.08199C48.8177 7.07901 48.8113 7.07703 48.806 7.07406C48.7942 7.06909 48.7824 7.06313 48.7695 7.05916C48.7631 7.05618 48.7556 7.05321 48.7492 7.05122C48.7374 7.04725 48.7267 7.04427 48.7149 7.04129C48.7106 7.0403 48.7063 7.03831 48.7021 7.03732C48.6988 7.03633 48.6946 7.03635 48.6914 7.03535C48.6871 7.03436 48.6828 7.03335 48.6785 7.03236L23.8551 2.2515C23.7041 2.22272 23.5467 2.25349 23.4235 2.33783L5.43347 14.549C5.42061 14.5579 5.41096 14.5688 5.39918 14.5778C5.38526 14.5887 5.37242 14.5986 5.35957 14.6105C5.34565 14.6244 5.33387 14.6393 5.32209 14.6552C5.31245 14.6671 5.30281 14.676 5.29424 14.6889C5.28353 14.7058 5.27389 14.7236 5.26532 14.7415C5.2589 14.7544 5.25143 14.7653 5.24607 14.7782C5.23858 14.798 5.23322 14.8179 5.22787 14.8378C5.22573 14.8487 5.22037 14.8586 5.21823 14.8705L4.2726 19.956L4.25227 19.952C4.10984 19.9272 3.96206 19.956 3.84212 20.0314C3.72218 20.1088 3.64078 20.2249 3.61508 20.3589L2.4296 26.4972C2.37713 26.7681 2.57201 27.03 2.86544 27.0807L33.6849 32.3795C33.6859 32.3795 33.6859 32.3795 33.687 32.3795C33.718 32.3854 33.7512 32.3874 33.7834 32.3874C33.7844 32.3874 33.7845 32.3874 33.7855 32.3874C33.8177 32.3874 33.8498 32.3835 33.8819 32.3775C33.884 32.3775 33.8872 32.3775 33.8894 32.3775C33.9108 32.3736 33.9322 32.3676 33.9515 32.3616C33.9558 32.3616 33.9601 32.3596 33.9644 32.3577C33.9879 32.3497 34.0115 32.3398 34.034 32.3309C34.035 32.3289 34.0372 32.3289 34.0382 32.3289C34.0618 32.317 34.0843 32.3041 34.1057 32.2882C34.1078 32.2862 34.11 32.2862 34.1111 32.2843L42.8806 26.1132C43.2737 26.0199 43.6463 25.9584 44.0169 25.9237C45.9445 25.745 47.3088 26.4238 49.3746 27.4488C50.5397 28.0263 51.9887 28.7457 53.8649 29.4621C54.8105 29.8243 55.7518 30.003 56.6492 30.003C58.1977 30.003 59.6124 29.4741 60.6843 28.4471C62.1483 27.0588 62.5948 25.0336 61.8045 23.4092ZM53.4076 17.4475L48.4954 20.9046C48.2062 20.7707 48.0242 20.598 47.9535 20.3906C47.8282 20.0264 48.007 19.5015 48.4579 18.9101C48.6624 18.6422 48.882 18.3772 49.0951 18.1192C50.1842 16.8015 51.405 15.321 50.2281 13.5934L51.2144 12.8998L53.4076 17.4475ZM34.1528 30.9982L32.9973 25.616L33.6163 25.232C34.1089 26.1469 34.895 26.8693 35.8449 27.2632C37.1342 27.7961 38.2854 27.6393 39.4345 27.2811L34.1528 30.9982ZM6.19808 15.5581L30.7452 20.2944L31.7133 24.8043L5.34457 20.1475L6.19808 15.5581ZM33.2479 22.1142C33.0337 22.7771 33.0284 23.5253 33.2265 24.2596L32.7671 24.5444L31.8076 20.0771L48.3551 8.31639L50.2699 12.2995L49.5331 12.8164C48.9355 12.3074 48.2202 12.0415 47.4395 12.0435C45.9831 12.0474 44.3103 12.9931 42.8528 14.6383C40.3576 17.4544 37.8549 18.7781 35.0759 20.1019C34.1657 20.5345 33.5338 21.2311 33.2479 22.1142ZM23.8743 3.28646L47.2992 7.79744L31.0762 19.3279L7.0655 14.6968L23.8743 3.28646ZM4.59281 21.0406L31.9436 25.8701L33.1001 31.2542L3.60116 26.1846L4.59281 21.0406ZM59.9112 27.7505C58.5394 29.0623 56.4361 29.357 54.2879 28.5354C52.462 27.8378 51.0988 27.159 49.8961 26.5627C47.9739 25.6091 46.526 24.8897 44.6401 24.8897C44.4067 24.8897 44.1657 24.9016 43.9162 24.9244C43.4589 24.9651 43.0017 25.0445 42.5176 25.1626C42.5166 25.1626 42.5155 25.1626 42.5133 25.1626C42.5123 25.1626 42.5112 25.1645 42.5101 25.1645C41.7134 25.36 41.0023 25.6279 40.3159 25.8879C38.8187 26.4535 37.6365 26.9001 36.2903 26.3434C35.4293 25.9872 34.714 25.227 34.3767 24.3082C33.9794 23.2325 34.0543 21.7213 35.5739 20.9979C38.3561 19.6742 41.0708 18.2403 43.6945 15.2783C44.9271 13.8871 46.329 13.0546 47.4438 13.0516C48.067 13.0486 48.5982 13.2987 49.0576 13.8127C50.1628 15.0461 49.4999 15.9749 48.2319 17.508C48.0135 17.7739 47.7864 18.0468 47.5712 18.3296C46.9094 19.1959 46.6834 20.0135 46.918 20.6982C47.054 21.0971 47.4213 21.6379 48.3926 21.9584C48.3936 21.9584 48.3947 21.9604 48.3968 21.9604C49.2225 22.2293 50.3791 22.3038 51.8312 22.1817C52.3388 22.1371 52.8314 22.0904 53.3091 22.0438C57.129 21.6776 59.6531 21.4355 60.8161 23.8249C61.4211 25.0742 61.0581 26.652 59.9112 27.7505Z" fill="#542125"/>
</svg>
