<svg width="53" height="44" viewBox="0 0 53 44" fill="none" xmlns="http://www.w3.org/2000/svg">
<path d="M52.1444 26.5626C52.1444 25.6235 51.6599 24.7887 50.9092 24.2625C51.344 23.8776 51.7204 23.4427 52.0276 22.9636C52.8669 21.6507 53.1309 20.2126 52.8085 18.6892C52.5771 17.5908 52.0741 16.5836 51.5874 15.6084C50.5058 13.4427 49.3874 11.2027 50.7254 7.23598C50.8281 6.96037 50.8855 6.6667 50.893 6.36103C50.893 6.32595 50.8941 6.2909 50.893 6.25582C50.8703 4.71743 49.5475 3.46965 47.8959 3.41453C47.8581 3.41353 47.8202 3.41255 47.7823 3.41255C47.7585 3.41255 47.7337 3.41255 47.7099 3.41355C46.9355 3.42959 46.2324 3.70719 45.6981 4.15518C42.4522 6.84511 39.5654 7.1999 37.0183 7.5136C35.7939 7.66393 34.6376 7.80623 33.5203 8.17705C31.9596 8.69419 30.7623 9.59016 29.964 10.8379C29.6461 11.335 29.4103 11.8692 29.2556 12.4324C29.0966 11.9654 28.9495 11.4703 28.8186 10.9441C28.5007 9.67734 27.3087 8.76435 25.9059 8.71424C25.8658 8.71324 25.8258 8.71222 25.7858 8.71222C25.2093 8.71222 24.6599 8.86156 24.1861 9.12414C23.6626 8.2893 22.9066 7.63084 21.9299 7.16181C21.0679 6.7489 20.1821 6.55046 19.3254 6.35904C17.5419 5.95916 16.0006 5.61339 14.3782 3.38548C13.7887 2.57369 12.811 2.11369 11.7975 2.11369C11.4644 2.11369 11.128 2.16278 10.7992 2.26601C9.46989 2.68292 8.60676 3.87256 8.69113 5.17042C8.86094 7.80122 7.91022 9.27646 6.99086 10.7026C6.53443 11.4112 6.06284 12.1438 5.75891 12.9716C5.31113 14.1983 5.3241 15.404 5.8 16.5565C6.79183 18.9598 9.63538 20.4541 13.2198 20.4541C13.8936 20.4541 14.5826 20.399 15.2694 20.2927C15.1872 20.3539 15.1039 20.415 15.0206 20.4752C13.7779 21.3832 12.6033 22.24 11.6655 23.2884C10.4001 24.7045 9.7857 26.2298 9.7857 27.9536C9.7857 28.7414 9.93174 29.5221 10.213 30.2808C10.1838 30.2868 10.1524 30.2928 10.1221 30.2978C9.57263 30.401 9.05561 30.4972 8.53536 30.4972C8.05621 30.4972 7.28936 30.4251 6.16774 29.8007C5.67129 29.5241 5.11536 29.3888 4.56591 29.3888C3.78391 29.3888 3.00947 29.6604 2.41459 30.1876C1.40005 31.0856 1.15994 32.5027 1.82837 33.6452C2.75855 35.2377 2.63634 36.3361 2.49681 37.6059C2.34863 38.9409 2.12583 40.9603 3.93318 42.5819C4.91203 43.4608 6.28563 43.9439 7.79879 43.9439C10.0702 43.9439 12.5373 42.8796 14.4009 41.0966C15.7702 39.7867 16.7242 38.1752 17.0941 36.5526C19.6824 37.643 22.6925 38.2313 25.788 38.2313C27.3314 38.2313 28.8511 38.085 30.3102 37.8034C30.4627 38.7444 30.9094 39.6915 31.6351 40.5654C32.6778 41.8182 34.2212 42.8354 35.9832 43.4267C37.1134 43.8066 38.2718 44 39.4291 44C40.6903 44 41.8865 43.7605 42.8892 43.3085C44.2001 42.7172 45.1703 41.7581 45.6213 40.6085C46.0323 39.5572 46.0107 38.4498 45.5575 37.4005C45.4158 37.0717 45.2438 36.7731 45.061 36.4985C45.6538 36.6388 46.2497 36.712 46.8338 36.712C48.4356 36.712 49.8363 36.1597 50.7773 35.1565C52.4062 33.4187 51.8697 31.5025 51.582 30.4732C51.3289 29.5662 51.1731 29.013 51.7626 27.9587C52.0038 27.5447 52.1444 27.0687 52.1444 26.5626Z" fill="#E0C380"/>
<path d="M50.6918 24.4479C50.6918 23.5088 50.2073 22.674 49.4567 22.1478C49.8915 21.763 50.2679 21.329 50.575 20.849C51.4144 19.5361 51.6772 18.0989 51.3559 16.5745C51.1234 15.4761 50.6204 14.4689 50.1348 13.4947C49.0532 11.328 47.9348 9.08902 49.2728 5.12127C49.3744 4.84667 49.4329 4.55203 49.4394 4.24636C49.4415 4.21128 49.4415 4.1762 49.4404 4.14213C49.4177 2.60273 48.0949 1.35599 46.4433 1.30087C46.4055 1.29987 46.3676 1.29885 46.3298 1.29885C46.306 1.29885 46.2811 1.29886 46.2573 1.29986C45.4839 1.3169 44.7809 1.5935 44.2455 2.04149C40.9996 4.73142 38.1128 5.0862 35.5656 5.39889C34.3413 5.54923 33.1861 5.69156 32.0667 6.06237C30.5059 6.57951 29.3097 7.47549 28.5115 8.72324C28.1935 9.22033 27.9577 9.75448 27.803 10.3177C27.644 9.8507 27.4969 9.35563 27.3649 8.83047C27.048 7.56368 25.8551 6.65066 24.4544 6.60055C24.4133 6.59955 24.3733 6.59853 24.3332 6.59853C23.7557 6.59853 23.2062 6.74787 22.7336 7.01045C22.2101 6.17561 21.454 5.51715 20.4762 5.04811C19.6142 4.6352 18.7294 4.43677 17.8728 4.24535C16.0893 3.84547 14.5469 3.4997 12.9267 1.27179C12.335 0.459996 11.3594 0 10.3449 0C10.0107 0 9.67537 0.0491163 9.34657 0.152344C8.01728 0.569263 7.15419 1.75886 7.23855 3.05673C7.40837 5.68752 6.45761 7.1628 5.53825 8.58894C5.08182 9.2975 4.61023 10.0301 4.3063 10.8579C3.85744 12.0846 3.87261 13.2903 4.34743 14.4428C5.33926 16.8461 8.18169 18.3404 11.7672 18.3404C12.4421 18.3404 13.13 18.2853 13.8179 18.1791C13.7335 18.2402 13.6514 18.3013 13.5681 18.3615C12.3253 19.2695 11.1507 20.1264 10.213 21.1747C8.94748 22.5908 8.33313 24.1161 8.33313 25.8399C8.33313 26.6277 8.47913 27.4084 8.76035 28.1671C8.73006 28.1731 8.69979 28.1791 8.66951 28.1841C8.12006 28.2874 7.60196 28.3835 7.08279 28.3835C6.60364 28.3835 5.83571 28.3114 4.71517 27.687C4.21763 27.4104 3.66384 27.2741 3.1133 27.2741C2.3313 27.2741 1.5569 27.5467 0.962015 28.0729C-0.0525261 28.9708 -0.292633 30.388 0.375796 31.5305C1.30489 33.123 1.18481 34.2204 1.04312 35.4912C0.896018 36.8272 0.673227 38.8456 2.48166 40.4662C3.45943 41.3451 4.83306 41.8302 6.34622 41.8302C8.61758 41.8302 11.0847 40.7649 12.9483 38.9819C14.3176 37.672 15.2705 36.0595 15.6404 34.4379C18.2298 35.5283 21.2388 36.1166 24.3354 36.1166C25.8778 36.1166 27.3985 35.9703 28.8565 35.6887C29.0101 36.6297 29.4568 37.5768 30.1836 38.4508C31.2252 39.7045 32.7686 40.7208 34.5306 41.3121C35.6597 41.6929 36.8192 41.8853 37.9755 41.8853C39.2377 41.8853 40.4339 41.6458 41.4366 41.1938C42.7475 40.6025 43.7166 39.6434 44.1687 38.4938C44.5797 37.4435 44.557 36.3351 44.1049 35.2858C43.9632 34.9561 43.7901 34.6584 43.6084 34.3838C44.2011 34.5241 44.7971 34.5973 45.3812 34.5973C46.983 34.5973 48.3837 34.045 49.3247 33.0428C50.9536 31.304 50.4182 29.3888 50.1294 28.3595C49.8753 27.4515 49.7206 26.8993 50.31 25.845C50.5512 25.43 50.6918 24.954 50.6918 24.4479Z" fill="white"/>
<path d="M47.579 24.4478C45.5153 28.0598 48.2712 29.7595 46.969 31.1496C46.0777 32.1007 43.7858 31.8391 42.0001 30.403C40.2144 28.9668 39.613 26.9012 40.5053 25.9492C41.7124 24.6613 44.0162 26.4753 47.579 24.4478Z" fill="#A0382B"/>
<path d="M38.9175 30.1003C38.3107 34.7526 42.0142 35.5222 41.2376 37.5076C40.7054 38.8656 38.1344 39.4589 35.5862 38.601C33.0401 37.7451 31.4772 35.7618 32.0093 34.4038C32.7308 32.5637 36.0026 33.6281 38.9175 30.1003Z" fill="#A0382B"/>
<path d="M12.0419 31.312C13.2576 32.4014 12.7514 35.0202 10.7083 36.9745C8.66406 38.9308 5.85622 39.483 4.64267 38.3926C2.99755 36.9174 5.58366 34.3908 3.10896 30.1555C7.80527 32.7732 10.2681 29.7195 12.0419 31.312Z" fill="#A0382B"/>
<path d="M20.2242 8.81636C21.0127 10.7266 18.8549 13.5658 15.2737 14.8336C11.6904 16.1034 8.04001 15.3207 7.25152 13.4105C6.18506 10.8248 10.7483 9.15712 10.3416 2.88229C14.3425 8.38041 19.0745 6.02621 20.2242 8.81636Z" fill="#A0382B"/>
<path d="M37.2205 25.8369C37.2205 29.6333 31.4502 33.2312 24.3311 33.2312C17.212 33.2312 11.4427 29.6333 11.4427 25.8369C11.4427 20.6996 20.5476 20.6094 24.3311 9.48087C27.3347 21.4683 37.2205 20.2937 37.2205 25.8369Z" fill="#A0382B"/>
<path d="M46.3287 4.18217C43.3013 13.0237 50.1986 15.7827 47.8981 19.3766C46.3222 21.8381 41.0894 22.1147 36.4742 19.5791C31.859 17.0435 29.6114 12.6558 31.1852 10.1934C33.317 6.86306 39.2582 10.0491 46.3287 4.18217Z" fill="#A0382B"/>
<path d="M20.142 9.23925C20.023 8.60886 19.611 8.02958 19.0323 7.67981C18.4536 7.32904 17.6165 7.11257 16.9459 7.2659C17.5105 7.67982 17.756 8.39137 17.7008 9.05684C17.6446 9.72231 17.3255 10.3467 16.9297 10.9049C16.0071 12.2068 14.6367 13.23 13.0673 13.7883C11.4989 14.3475 9.74027 14.4367 8.11354 14.0418C8.64461 14.7203 9.29032 14.9608 10.1643 15.1773C11.9045 15.6103 13.7963 15.5 15.4652 14.8707C17.1341 14.2413 18.5694 13.0958 19.4898 11.6596C19.9571 10.93 20.2989 10.0771 20.142 9.23925Z" fill="#7B2623"/>
<path d="M36.8019 24.8577C36.4893 23.8715 35.7441 23.0447 34.895 22.3823C34.0471 21.7188 33.0866 21.1926 32.1802 20.5993C28.6099 18.2601 25.788 15.1353 24.4652 11.2748C24.2618 15.1112 26.2011 18.9918 29.4892 21.3329C30.2496 21.8751 31.0878 22.3472 31.6892 23.0397C32.8357 24.3566 32.9016 26.3009 32.1445 27.8403C31.3885 29.3787 29.9208 30.5422 28.3016 31.3219C26.6814 32.1027 24.9 32.5396 23.1359 32.9716C24.1948 33.3785 25.3391 33.4797 26.4683 33.2973C27.5986 33.1139 28.678 32.7351 29.7499 32.3572C31.5983 31.7048 33.4911 31.0203 34.9513 29.7835C36.4114 28.5468 37.36 26.6156 36.8019 24.8577Z" fill="#7B2623"/>
<path d="M47.7369 15.5942C47.0241 14.2603 46.3135 12.8261 45.5986 11.4922C45.1876 12.3912 45.4742 13.4164 45.7132 14.3685C45.9523 15.3206 46.1134 16.402 45.511 17.2038C45.101 17.752 44.4077 18.0547 43.7242 18.2651C41.2657 19.0198 38.4914 18.8504 36.1616 17.8041C33.8308 16.7568 31.9682 14.8446 31.0857 12.5886C31.9769 15.6674 34.1358 18.4766 37.1188 20.0651C38.5314 20.8167 40.1073 21.3239 41.7308 21.4421C43.3543 21.5614 45.0243 21.2808 46.4498 20.5532C47.4049 20.0651 48.2918 19.3024 48.4821 18.3072C48.6606 17.3712 48.1923 16.4451 47.7369 15.5942Z" fill="#7B2623"/>
<path d="M46.8013 28.8926C46.3157 29.6443 45.2849 29.9991 44.3461 29.8858C43.4073 29.7726 42.5701 29.2595 41.9298 28.616C41.2873 27.9726 40.8168 27.2029 40.3518 26.4402C40.1895 28.2723 41.2809 30.0111 42.9584 30.9923C43.5544 31.341 44.2433 31.5846 44.9475 31.5715C45.6516 31.5585 46.3708 31.2589 46.7548 30.7106C47.1377 30.1634 47.3043 29.3507 46.8013 28.8926Z" fill="#7B2623"/>
<path d="M40.9899 36.2648C40.8103 35.7928 40.4988 35.3769 40.1917 34.968C39.7168 34.3366 39.4227 33.6721 38.9489 33.0407C38.6536 33.4155 38.711 33.9447 38.9121 34.3707C39.1122 34.7966 39.4324 35.1644 39.6541 35.5813C39.8758 35.9992 39.9872 36.5104 39.7493 36.9193C39.4756 37.3903 38.844 37.5657 38.2696 37.6228C35.9042 37.8614 33.4392 36.7609 32.1662 34.8978C32.482 36.4152 33.1959 37.3673 34.6257 38.163C36.0556 38.9578 37.8543 39.1602 39.4486 38.7052C40.0511 38.5328 40.6611 38.2392 40.952 37.7211C41.1997 37.2771 41.1673 36.7359 40.9899 36.2648Z" fill="#7B2623"/>
<path d="M12.0928 31.7218C11.6006 31.1225 10.7646 30.8198 9.95987 30.919C10.664 31.4131 10.9842 32.287 10.903 33.1018C10.8208 33.9166 10.3828 34.6733 9.8117 35.2987C9.24061 35.9241 8.54081 36.4352 7.8475 36.9403C7.39215 37.2721 6.92707 37.6088 6.38519 37.7982C5.8433 37.9876 5.2019 38.0107 4.70977 37.729C4.59729 38.1209 4.72382 38.2602 5.10346 38.4597C5.4831 38.6591 5.94172 38.6832 6.37977 38.6631C8.48889 38.5689 10.5266 37.5286 11.7402 35.9281C12.2074 35.3117 12.56 34.6082 12.6585 33.8605C12.759 33.1139 12.5849 32.3201 12.0928 31.7218Z" fill="#7B2623"/>
<path d="M10.9149 4.42365C11.3335 6.40201 10.8078 8.53571 9.50555 10.1513C9.08697 10.6704 8.59268 11.1385 8.22818 11.6907C7.86368 12.2429 7.63437 12.9164 7.81717 13.5407C7.16388 12.5636 7.42132 11.3509 7.97834 10.3247C8.53753 9.29839 9.36927 8.41746 9.92953 7.3922C10.4282 6.48119 10.8943 5.4439 10.9149 4.42365Z" fill="#CF6A34"/>
<path d="M23.9027 11.7488C23.7102 11.6446 23.5523 12.0835 23.4733 12.2118C22.8352 13.2421 22.13 14.2373 21.3631 15.1904C19.8316 17.0966 18.0545 18.8344 16.0806 20.3528C14.9092 21.2537 13.6578 22.0886 12.7038 23.188C11.7499 24.2874 11.1171 25.7286 11.4319 27.1077C11.7931 28.6922 13.2901 29.8296 14.8141 30.6214C13.9499 29.9349 13.3647 28.9537 13.1981 27.9114C13.0305 26.8681 13.2814 25.7717 13.8925 24.8828C13.9758 25.6424 14.6291 26.3069 15.4273 26.4993C16.2244 26.6908 17.1178 26.4232 17.6792 25.8629C18.2416 25.3037 18.4666 24.4849 18.3119 23.7342C18.2232 23.3053 18.0048 22.8823 17.6208 22.6278C17.2379 22.3742 16.6733 22.3321 16.3034 22.6047C22.8666 16.9683 24.0812 11.845 23.9027 11.7488Z" fill="#CF6A34"/>
<path d="M4.37987 31.2378C4.23493 31.4924 4.18193 31.6036 4.24358 31.8852C4.62646 33.6271 4.66324 35.4351 4.33227 37.1859C5.6118 35.4491 5.63236 32.9927 4.37987 31.2378Z" fill="#CF6A34"/>
<path d="M34.2169 33.0769C33.7442 33.2643 33.2629 33.4557 32.8757 33.7674C32.4885 34.0801 32.1164 34.5822 32.1543 35.0573C32.3446 34.6002 32.8519 34.3196 33.3624 34.1974C33.874 34.0741 34.4083 34.0751 34.9286 33.9919C36.3974 33.7554 37.7083 32.7963 38.2956 31.5255C36.9112 32.0747 35.6003 32.5277 34.2169 33.0769Z" fill="#CF6A34"/>
<path d="M42.3289 25.6695C42.0055 25.6906 41.6756 25.7116 41.3717 25.8159C41.0667 25.9201 40.739 26.1195 40.6221 26.4001C41.0364 26.1837 41.5415 26.1746 42.012 26.2398C42.4825 26.3039 42.94 26.4372 43.4127 26.4873C44.4791 26.6016 45.5932 26.2668 46.3838 25.5944C44.9129 25.6896 43.801 25.5753 42.3289 25.6695Z" fill="#CF6A34"/>
<path d="M37.7916 25.8369C37.7916 23.1971 35.7852 21.9183 33.4598 20.438C30.3859 18.4797 26.5613 16.0434 24.8859 9.36163C24.8286 9.12911 24.609 8.96173 24.3516 8.95271C24.0974 8.94369 23.8638 9.09504 23.7859 9.32254C21.7179 15.4059 18.0697 18.0698 15.1375 20.2095C12.7536 21.9494 10.8705 23.3244 10.8705 25.8379C10.8705 27.8634 12.3437 29.8929 14.9103 31.4052C17.4899 32.9246 20.8353 33.7614 24.3311 33.7614C27.8268 33.7614 31.1722 32.9246 33.7518 31.4052C36.3195 29.8919 37.7916 27.8634 37.7916 25.8369ZM24.3311 32.7021C21.0506 32.7021 17.9215 31.9244 15.5236 30.5112C13.2922 29.1963 12.0127 27.4936 12.0127 25.8369C12.0127 23.8365 13.62 22.6639 15.8448 21.0404C18.4818 19.1151 22.0078 16.5404 24.2575 11.2568C26.2293 17.1167 29.9987 19.518 32.8119 21.31C35.04 22.7291 36.6483 23.7533 36.6483 25.8369C36.6483 27.4936 35.3688 29.1973 33.1385 30.5112C30.7406 31.9244 27.6126 32.7021 24.3311 32.7021Z" fill="#542125"/>
<path d="M47.8277 14.4828C46.6574 12.1397 45.2016 9.22224 46.8727 4.34249C46.9506 4.11499 46.8543 3.86744 46.638 3.73816C46.4217 3.60887 46.1383 3.6289 45.9469 3.78826C42.1126 6.96927 38.6677 7.39321 35.8977 7.73296C33.6836 8.00455 31.7725 8.24008 30.6941 9.92379C29.8277 11.2768 29.9391 13.1619 30.998 15.0982C32.0526 17.0234 33.8924 18.7763 36.1811 20.0351C38.3648 21.2337 40.7768 21.8861 43.0157 21.8861C43.1249 21.8861 43.2331 21.8851 43.3413 21.8821C45.6819 21.815 47.5217 21.0012 48.388 19.6482C49.5226 17.8763 48.7374 16.3038 47.8277 14.4828ZM47.4081 19.107C46.7451 20.1413 45.2514 20.7667 43.3088 20.8228C41.1932 20.885 38.8699 20.2796 36.7662 19.1241C34.6614 17.9675 32.9752 16.368 32.018 14.6191C31.1386 13.0126 31.0153 11.4983 31.6784 10.464C32.4355 9.27937 33.7659 9.06288 36.0491 8.78227C38.5044 8.4806 41.7621 8.08072 45.3228 5.62932C44.318 9.97289 45.7305 12.8021 46.7905 14.9278C47.659 16.6666 48.2333 17.8152 47.4081 19.107Z" fill="#542125"/>
<path d="M11.7433 15.9872C12.9309 15.9872 14.2159 15.7757 15.477 15.3287C17.2822 14.6903 18.8343 13.6431 19.8456 12.3823C20.8785 11.0954 21.2106 9.72641 20.7574 8.62799C20.1604 7.1798 18.7575 6.8651 17.2725 6.53237C15.3624 6.10443 12.9883 5.57224 10.8143 2.58666C10.6704 2.38923 10.4022 2.30405 10.1588 2.38122C9.91436 2.45739 9.75644 2.67585 9.77159 2.91438C9.98899 6.26978 8.72893 8.22508 7.71655 9.79555C6.87723 11.0994 6.15147 12.2249 6.71823 13.6C7.3488 15.1273 9.34868 15.9872 11.7433 15.9872ZM8.69758 10.3378C9.57584 8.97676 10.7266 7.18881 10.9138 4.43574C13.0478 6.67367 15.2975 7.17779 17.0054 7.56064C18.5185 7.89938 19.3254 8.11785 19.691 9.0048C20.0025 9.75846 19.7245 10.7587 18.9295 11.7499C18.0458 12.8523 16.6755 13.7713 15.0704 14.3396C13.9228 14.7465 12.7936 14.9249 11.7758 14.9249C9.77158 14.9249 8.20219 14.2313 7.78577 13.2211C7.43209 12.3662 7.85501 11.6446 8.69758 10.3378Z" fill="#542125"/>
<path d="M9.1681 30.4902C7.71551 30.7618 5.90813 31.0995 3.40206 29.7034C3.18142 29.5802 2.89913 29.6092 2.71309 29.7746C2.52597 29.9399 2.4827 30.1995 2.60492 30.409C3.90825 32.6399 3.7179 34.3537 3.56648 35.7307C3.44101 36.8713 3.32095 37.9476 4.24248 38.7744C4.75624 39.2344 5.49173 39.474 6.3462 39.474C6.70962 39.474 7.09573 39.4299 7.49593 39.3417C8.78303 39.0561 10.0702 38.3465 11.1172 37.3433C12.1652 36.3411 12.8899 35.1284 13.1559 33.9257C13.4328 32.68 13.1722 31.5886 12.4399 30.9321C11.4676 30.0602 10.3503 30.2687 9.1681 30.4902ZM12.0376 33.7123C11.8169 34.7055 11.1831 35.7608 10.2984 36.6077C9.41361 37.4555 8.29415 38.0769 7.23094 38.3124C6.28346 38.5229 5.48523 38.4146 5.03962 38.0127C4.53992 37.5648 4.57994 36.9594 4.70432 35.839C4.83303 34.6724 4.99961 33.1581 4.28143 31.2889C6.4403 32.0807 8.11245 31.768 9.39523 31.5275C10.5493 31.312 11.129 31.2288 11.6449 31.6918C12.0895 32.0917 12.2333 32.8283 12.0376 33.7123Z" fill="#542125"/>
<path d="M39.4854 30.1645C39.5157 29.928 39.3729 29.7015 39.1339 29.6113C38.8959 29.5221 38.6212 29.5902 38.4654 29.7797C36.9382 31.6277 35.3169 32.1238 34.0136 32.5227C32.919 32.8574 31.8861 33.1731 31.474 34.2225C31.1484 35.0553 31.4091 36.0725 32.1922 37.0136C32.9417 37.9166 34.0785 38.6572 35.3926 39.0992C36.2655 39.3929 37.1491 39.5312 37.9744 39.5312C39.7904 39.5312 41.3165 38.8597 41.7762 37.6881C42.2089 36.5817 41.5913 35.7799 40.938 34.932C40.1463 33.9068 39.1631 32.6319 39.4854 30.1645ZM40.7011 37.3263C40.3031 38.3405 38.1139 38.8887 35.782 38.103C34.6863 37.7342 33.7075 37.1018 33.0964 36.3672C32.5577 35.7187 32.3577 35.0683 32.5469 34.5832C32.76 34.041 33.3192 33.8486 34.3716 33.5269C35.4662 33.1922 36.882 32.7582 38.2935 31.5335C38.4103 33.4748 39.3134 34.6454 40.0078 35.5464C40.6297 36.3541 40.9196 36.7671 40.7011 37.3263Z" fill="#542125"/>
<path d="M47.2805 23.9968C45.4331 25.0481 43.9578 24.983 42.7724 24.9309C41.7513 24.8858 40.7855 24.8427 40.0748 25.6024C39.5113 26.2037 39.375 27.1307 39.7017 28.146C40.011 29.1111 40.6946 30.0542 41.6248 30.8028C42.794 31.7429 44.1925 32.241 45.3779 32.241C46.2065 32.241 46.93 31.9985 47.4005 31.4964C48.1512 30.6946 47.9035 29.8066 47.6634 28.9488C47.354 27.8423 47.0025 26.5885 48.0841 24.6954C48.2042 24.4849 48.1577 24.2253 47.9705 24.062C47.7823 23.8986 47.5001 23.8716 47.2805 23.9968ZM46.5374 30.8018C45.7695 31.6206 43.669 31.0454 42.3732 30.0041C41.6161 29.3947 41.0407 28.607 40.7952 27.8433C40.5865 27.1919 40.6384 26.6136 40.9369 26.2969C41.1824 26.0353 41.5047 25.9682 42.0445 25.9682C42.2381 25.9682 42.4608 25.9762 42.7172 25.9882C43.6971 26.0313 44.9583 26.0874 46.4693 25.5493C45.9685 27.1137 46.3005 28.2973 46.5569 29.2143C46.7862 30.0291 46.8803 30.437 46.5374 30.8018Z" fill="#542125"/>
</svg>
