<svg width="77" height="72" viewBox="0 0 77 72" fill="none" xmlns="http://www.w3.org/2000/svg">
<path d="M61.3986 37.0136L61.3919 37.0295C61.3919 37.0295 61.3919 37.0304 61.3919 37.0313L61.3986 37.0136ZM61.3997 35.9868C61.3425 35.9868 61.2883 35.9905 61.2331 35.9989C61.0781 36.0222 60.9328 36.0782 60.8079 36.1584C60.681 36.2395 60.5715 36.3477 60.4882 36.4792C60.4543 36.5314 60.4272 36.5865 60.404 36.6443L60.4031 36.6452C60.1822 37.1694 60.4428 37.7662 60.9861 37.9808C61.1188 38.0339 61.2563 38.0582 61.3919 38.0582C61.8064 38.0582 62.2006 37.8241 62.373 37.4352C62.4195 37.3363 62.4505 37.229 62.4621 37.1171C62.4679 37.0612 62.4679 37.0043 62.4641 36.9493C62.4505 36.7161 62.3536 36.5035 62.2025 36.3384C62.156 36.2862 62.1018 36.2386 62.0437 36.1957C61.9091 36.0978 61.7493 36.0297 61.5749 36.0017C61.5168 35.9914 61.4568 35.9868 61.3997 35.9868Z" fill="#51332A"/>
<path d="M45.7494 1.02683C46.56 1.02683 47.3281 1.40455 47.8026 2.0518C47.9043 2.1917 50.3227 5.53427 51.6244 11.3884C52.189 13.7676 52.4089 15.8716 52.4796 17.4459C53.2544 18.262 53.7842 19.272 53.9982 20.352C55.0336 21.6717 55.8055 23.0968 56.2926 24.5927L56.3013 24.6161C56.312 24.6506 56.3236 24.6851 56.3333 24.7168C56.3372 24.7289 56.3411 24.742 56.345 24.755C57.1372 27.3002 57.0907 29.9657 56.2065 32.6787C55.973 33.3978 55.6786 34.1122 55.3338 34.7995C54.5348 36.3953 53.4549 37.8791 52.1251 39.2081C51.8084 39.5252 51.4752 39.8348 51.1372 40.1286C50.4312 40.7395 49.7028 41.3336 48.9542 41.9044C50.251 42.4947 51.7455 42.809 53.3396 42.8118C56.1687 42.8174 58.5851 43.764 60.4098 45.5687C60.4059 45.2283 60.3924 44.8795 60.3808 44.5232C60.3691 44.2192 60.3585 43.9049 60.3527 43.5878C60.3188 41.9836 60.3788 39.584 61.2892 37.2775C61.295 37.2645 61.3009 37.2505 61.3067 37.2365C61.3328 37.1712 61.3599 37.1069 61.3861 37.0425L61.3919 37.0295C61.4181 36.966 61.4471 36.9026 61.4742 36.8401C61.4781 36.8317 61.481 36.8233 61.4858 36.815C61.512 36.7562 61.5401 36.6974 61.5672 36.6387L61.5778 36.6191C61.6059 36.5594 61.635 36.4997 61.6631 36.4419C61.6689 36.4316 61.6747 36.4214 61.6796 36.4111C61.7086 36.3542 61.7376 36.2973 61.7667 36.2414C61.7715 36.233 61.7754 36.2237 61.7812 36.2153C61.8113 36.1584 61.8423 36.1006 61.8742 36.0437C61.8742 36.0418 61.8762 36.0409 61.8762 36.039L61.8829 36.0278C61.9158 35.9672 61.9497 35.9075 61.9836 35.8478C61.9875 35.8422 61.9914 35.8366 61.9943 35.831C62.0291 35.7713 62.065 35.7116 62.1009 35.6529C62.4224 35.1259 62.7875 34.6307 63.1904 34.1821C63.1924 34.1784 63.1963 34.1747 63.2001 34.1709C63.2495 34.1168 63.2989 34.0627 63.3473 34.0105C63.356 34.0012 63.3647 33.9919 63.3735 33.9825C63.418 33.9359 63.4626 33.8902 63.5081 33.8445C63.5246 33.8277 63.54 33.8119 63.5575 33.796L63.5594 33.7932L63.5691 33.7839C63.604 33.7484 63.6388 33.7139 63.6727 33.6822C63.7008 33.6542 63.7308 33.6263 63.7599 33.5992L63.7754 33.5843L63.7841 33.5768C63.8045 33.5572 63.8248 33.5386 63.8442 33.5209C64.588 32.8391 65.4199 32.3001 66.3168 31.9205C66.3187 31.9205 66.3207 31.9195 66.3226 31.9186C67.2815 31.5157 68.3507 31.3021 69.4131 31.3021C71.3637 31.3021 73.14 31.9848 74.4146 33.2262C74.4175 33.229 74.4204 33.2318 74.4243 33.2355C74.8746 33.6785 75.231 34.1644 75.4838 34.6773C75.7163 35.1455 75.8625 35.6342 75.9148 36.1276C75.9845 36.786 75.8838 37.4575 75.6204 38.0712C75.2911 38.8416 74.74 39.4608 74.0223 39.8647C73.9894 39.8843 73.9555 39.9029 73.9216 39.9206C73.3492 40.2219 72.7148 40.3748 72.0378 40.3748C71.294 40.3748 70.6587 40.193 70.1492 40.0456C69.9739 39.9952 69.7928 39.943 69.6737 39.9188C69.6262 39.9468 69.5507 40.0036 69.4829 40.0904C69.388 40.2107 69.2998 40.373 69.2214 40.5726C69.1255 40.8113 69.0432 41.107 68.9667 41.4735C68.9541 41.5472 68.9395 41.6199 68.9211 41.6917C68.7352 42.6663 68.6587 43.695 68.5792 44.7825C68.5269 45.4792 68.4756 46.2001 68.3894 46.9294C68.1841 48.6958 67.7115 51.2923 65.9953 53.4504C65.2078 54.439 64.1793 55.2467 63.0451 55.7867C62.3459 58.2302 60.7885 60.4163 58.6307 61.929C55.9789 63.7896 52.9367 65.2586 49.5886 66.2966C48.6356 66.5922 47.6612 66.8002 46.6753 66.9177C46.4845 67.3738 46.224 67.8149 45.8985 68.2318C45.3503 68.9332 44.6268 69.5496 43.8036 70.0122C42.9678 70.4832 42.0477 70.7872 41.1421 70.8898C40.8923 70.9178 40.6405 70.9327 40.3896 70.9327C39.0066 70.9327 37.6874 70.4981 36.6753 69.71C35.2226 68.5787 34.4913 66.7489 34.8138 65.0468C34.8875 64.6561 35.0172 64.2802 35.1916 63.9286C34.1901 63.1965 33.2768 62.3525 32.4855 61.4189C30.9369 59.5918 29.8744 57.4915 29.3262 55.1739C28.9127 53.4252 28.5969 51.5684 28.3848 49.6266C27.3514 49.6956 26.3044 49.7301 25.2652 49.7301C25.0338 49.7301 24.8003 49.7283 24.5698 49.7245C24.1863 49.7189 23.797 49.7021 23.4192 49.6742C21.0076 49.4998 18.7471 48.8973 16.7035 47.8854C16.35 47.71 15.9994 47.5207 15.6634 47.3221C14.259 46.4939 13.0445 45.4959 12.0556 44.3563L12.0392 44.3385C12.014 44.3087 11.9859 44.2789 11.9588 44.2471C11.9452 44.2294 11.9307 44.2117 11.9152 44.1931C10.1506 42.0918 9.11811 39.4926 8.90891 36.6359C8.33265 35.6855 8.04209 34.5897 8.06921 33.4845C7.04742 32.2544 5.77479 30.5308 4.57577 28.3792C1.56078 23.1443 1.09882 19.0958 1.08139 18.926C0.986474 18.0475 1.39707 17.1895 2.15058 16.6868C7.1859 13.3293 13.306 12.6251 17.552 12.6251C17.8561 12.6251 18.1612 12.6289 18.4653 12.6354C21.1539 10.883 23.549 10.0613 24.195 9.85705C24.8207 9.60151 27.1867 8.70431 30.409 8.32193C31.7485 7.14028 33.6555 5.63407 35.9538 4.30785C39.1131 2.48268 42.3131 1.38403 45.4685 1.04269C45.5615 1.0315 45.6554 1.02683 45.7494 1.02683ZM19.2197 15.0845C18.7161 15.0612 18.1563 15.0453 17.551 15.0453C13.735 15.0453 8.10891 15.6571 3.58012 18.677C3.58012 18.677 3.97434 22.3497 6.78207 27.219C8.14961 29.6756 9.61789 31.5362 10.6939 32.7421C10.4159 33.8007 10.6445 34.9646 11.3864 35.8413C11.4319 37.7905 11.9413 40.3795 13.8755 42.6775C13.8851 42.6896 13.8948 42.7027 13.9055 42.7148C13.9297 42.7437 13.9568 42.7726 13.981 42.8016C14.7471 43.6829 15.7254 44.5185 16.9738 45.2544C17.2614 45.4241 17.5539 45.5817 17.8512 45.7291C19.6333 46.6123 21.5984 47.1122 23.6033 47.2577C23.9364 47.282 24.2706 47.2969 24.6057 47.3015C24.8159 47.3043 25.0338 47.3062 25.2623 47.3062C26.2057 47.3062 27.2972 47.2764 28.4894 47.1896C29.1877 47.1393 29.9199 47.0693 30.6744 46.9751C30.8071 49.0605 31.1054 51.8099 31.7736 54.6339C32.7199 58.6303 35.4947 61.735 39.0249 63.3588C39.083 63.4987 39.1392 63.6367 39.1983 63.771C38.2831 63.8111 37.4482 64.6094 37.2836 65.4787C37.1189 66.3469 37.5392 67.2684 38.2521 67.8242C38.8477 68.2878 39.6187 68.5079 40.3857 68.5079C40.5387 68.5079 40.6918 68.4995 40.8419 68.4818C42.807 68.257 44.8409 66.4784 44.5213 64.6057C44.5939 64.6066 44.6666 64.6076 44.7392 64.6076C46.0864 64.6076 47.4578 64.4099 48.8147 63.9883C51.5227 63.1489 54.4205 61.8805 57.1469 59.9677C59.2447 58.496 60.5415 56.2968 60.8611 53.9886C62.0844 53.7041 63.2214 52.9468 63.9962 51.9731C65.1943 50.4669 65.6679 48.5401 65.8877 46.6543C66.1037 44.8049 66.1056 42.9284 66.4727 41.1023C66.4737 41.1023 66.4756 41.1023 66.4776 41.1014C66.4814 41.0641 66.4873 41.0305 66.497 40.995C66.588 40.5576 66.7032 40.1193 66.8679 39.7024C67.019 39.32 67.2136 38.9563 67.4693 38.6299C67.9294 38.0414 68.6209 37.5862 69.3705 37.4995C69.4577 37.4893 69.5468 37.4837 69.6349 37.4837C69.6688 37.4837 69.7027 37.4837 69.7357 37.4865C69.8393 37.4911 69.9449 37.5032 70.0485 37.52C70.7206 37.6301 71.4015 37.949 72.033 37.949C72.2674 37.949 72.4949 37.9052 72.7129 37.7905C72.7196 37.7877 72.7255 37.783 72.7332 37.7793C72.9908 37.6394 73.1787 37.41 73.2911 37.1451C73.3947 36.9036 73.4373 36.6322 73.4092 36.371C73.385 36.1416 73.3134 35.9215 73.2117 35.7135C73.0674 35.4216 72.8591 35.1539 72.6238 34.9226C71.788 34.1094 70.6054 33.7177 69.4102 33.7177C68.6955 33.7177 67.9778 33.8576 67.326 34.1318C66.6742 34.4078 66.0892 34.7986 65.5758 35.2696C65.5584 35.2854 65.542 35.3013 65.5245 35.3162C65.5003 35.3395 65.4752 35.3628 65.4509 35.3862C65.4229 35.4132 65.3938 35.4412 65.3667 35.4692C65.3531 35.4822 65.3415 35.4943 65.3279 35.5074C65.2931 35.5438 65.2582 35.5801 65.2243 35.6165C65.2195 35.6221 65.2146 35.6268 65.2088 35.6324C65.1691 35.6734 65.1313 35.7154 65.0935 35.7583L65.0926 35.7592C64.7836 36.1043 64.5076 36.4792 64.2664 36.8756C64.2374 36.9231 64.2084 36.9707 64.1812 37.0192C64.1793 37.0211 64.1783 37.0229 64.1773 37.0257C64.1502 37.0724 64.1231 37.1199 64.0969 37.1675C64.095 37.1703 64.094 37.174 64.0921 37.1768C64.0659 37.2225 64.0408 37.2692 64.0165 37.3158C64.0146 37.3204 64.0107 37.3251 64.0088 37.3298C63.9856 37.3755 63.9613 37.4221 63.9381 37.4678C63.9352 37.4734 63.9333 37.4781 63.9304 37.4837C63.9071 37.5303 63.8839 37.5769 63.8626 37.6226C63.8597 37.6273 63.8577 37.6338 63.8548 37.6394C63.8335 37.687 63.8102 37.7345 63.7899 37.7821C63.788 37.7858 63.7861 37.7905 63.7832 37.7952C63.7619 37.8446 63.7405 37.894 63.7183 37.9444C63.7183 37.9472 63.7163 37.95 63.7154 37.9528C63.6941 38.005 63.6717 38.0572 63.6514 38.1095H63.6505C63.6485 38.1169 63.6446 38.1244 63.6408 38.1328C62.9667 39.8423 62.8282 41.7066 62.866 43.5365C62.895 44.956 63.0258 46.3876 62.7807 47.7874C62.5463 49.122 61.91 50.4585 60.773 51.2391C60.5425 50.1368 60.0718 49.0652 59.3405 48.0943C58.1163 46.4678 56.2326 45.2367 53.3367 45.2311C50.2297 45.2255 47.1779 44.2313 44.9493 42.1468C44.8631 42.0666 44.7789 41.9846 44.6946 41.9016C45.1624 41.6003 45.6109 41.2981 46.038 40.9969C47.4065 40.0363 48.5629 39.1009 49.4549 38.3277C49.7503 38.0712 50.038 37.8036 50.3121 37.5284C51.4317 36.4102 52.3721 35.1381 53.0684 33.7466C53.359 33.1683 53.6069 32.5696 53.8084 31.9522C54.6297 29.4331 54.4999 27.2498 53.9333 25.4358C53.9314 25.4302 53.9295 25.4256 53.9275 25.42C53.9169 25.3845 53.9053 25.351 53.8936 25.3174C53.4026 23.8093 52.6123 22.5624 51.8219 21.5999C51.7445 21.5038 51.667 21.4124 51.5895 21.3229C51.5488 20.1925 50.9271 19.1704 49.9953 18.5492C49.9827 16.9591 49.8172 14.6275 49.1692 11.9107C47.9595 6.46505 45.7484 3.44796 45.7484 3.44796C39.4056 4.13438 34.1621 8.18949 31.5141 10.6442C27.7379 10.9576 25.0783 12.1262 25.0783 12.1262C25.0783 12.1262 22.2783 12.9292 19.2197 15.0845ZM45.7494 0C45.6157 0 45.4821 0.00652913 45.3484 0.0214513C42.0419 0.379584 38.6947 1.52486 35.4037 3.42651C33.1083 4.75272 31.2023 6.25147 29.9403 7.34546C26.8284 7.75395 24.5272 8.60825 23.8202 8.89457C23.0919 9.12773 20.7742 9.94099 18.1515 11.603C17.9501 11.6002 17.7495 11.5983 17.551 11.5983C13.151 11.5983 6.80334 12.3351 1.54236 15.8427C0.468271 16.559 -0.114775 17.7807 0.0188808 19.0314C0.0382512 19.2095 0.522509 23.4586 3.63823 28.8717C4.61837 30.6269 5.74963 32.2982 7.00386 33.8445C7.03873 34.931 7.33316 35.9905 7.8639 36.9409C8.12637 39.9104 9.23628 42.6346 11.0803 44.8338C11.0997 44.8562 11.1152 44.8767 11.1336 44.8972C11.1646 44.9345 11.1956 44.9699 11.2266 45.0044L11.2392 45.0175C12.3026 46.2421 13.6033 47.3109 15.1064 48.1969C15.4658 48.4086 15.8387 48.61 16.2154 48.7966C18.3868 49.8728 20.7839 50.5126 23.3388 50.6973C23.7388 50.7262 24.1476 50.7448 24.5534 50.7504C24.7878 50.7542 25.028 50.756 25.2643 50.756C25.9858 50.756 26.7131 50.7392 27.4376 50.7075C27.6487 52.3387 27.9325 53.9139 28.285 55.4015C28.87 57.8749 30.0042 60.1169 31.6574 62.068C32.3296 62.8617 33.087 63.5975 33.9131 64.2625C33.8521 64.4602 33.8008 64.6607 33.763 64.8622C33.3717 66.928 34.2511 69.1439 36.0032 70.5084C37.2041 71.4438 38.7625 71.9586 40.3877 71.9586C40.6811 71.9586 40.9756 71.9418 41.2651 71.9092C42.316 71.7889 43.3804 71.4391 44.3411 70.8973C45.2845 70.3666 46.1174 69.6578 46.7489 68.8483C46.9968 68.5312 47.2138 68.1982 47.3988 67.855C48.2482 67.7235 49.0917 67.5286 49.914 67.274C53.3697 66.2015 56.5125 64.6831 59.2563 62.7591C61.4674 61.2081 63.1149 58.9959 63.9372 56.4918C65.0597 55.8865 66.0563 55.0574 66.8379 54.0734C68.7158 51.712 69.2272 48.929 69.4461 47.0413C69.5332 46.2906 69.5874 45.5603 69.6388 44.8534C69.7163 43.8041 69.7899 42.8128 69.9604 41.9016C69.9807 41.8195 69.9981 41.7356 70.0136 41.6516C70.0572 41.4446 70.1027 41.2646 70.1502 41.1144C70.6577 41.2534 71.2959 41.3989 72.034 41.3989C72.893 41.3989 73.6988 41.204 74.431 40.8188C74.4765 40.7945 74.5201 40.7703 74.5657 40.7442C75.4829 40.2256 76.1869 39.4357 76.6044 38.4583C76.9337 37.6888 77.0615 36.8448 76.9724 36.0175C76.9075 35.4067 76.7293 34.806 76.4446 34.2306C76.1414 33.6151 75.7163 33.0359 75.1836 32.5127L75.1777 32.508L75.17 32.5006C73.693 31.0634 71.6475 30.2716 69.4102 30.2716C68.2015 30.2716 66.9851 30.515 65.8916 30.9738L65.8839 30.9776C64.8737 31.4047 63.9391 32.0091 63.1061 32.7738C63.0829 32.7953 63.0577 32.8177 63.0345 32.841L63.0296 32.8456L63.0151 32.8587C62.9822 32.8895 62.9483 32.9212 62.9144 32.9538C62.8785 32.9893 62.8389 33.0284 62.7992 33.0676L62.7953 33.0713C62.7953 33.0713 62.7943 33.0723 62.7933 33.0723C62.773 33.0928 62.7536 33.1124 62.7323 33.1329C62.6839 33.1823 62.6355 33.2327 62.588 33.284C62.5754 33.2952 62.5667 33.3064 62.5551 33.3185C62.4989 33.3773 62.4446 33.4369 62.3904 33.4966L62.3808 33.5088C61.9381 34.0031 61.5333 34.5477 61.1817 35.1278C61.1798 35.1287 61.1788 35.1297 61.1779 35.1306C61.1391 35.195 61.1004 35.2612 61.0626 35.3265L61.049 35.347C61.0132 35.4085 60.9774 35.4738 60.9415 35.5391L60.9357 35.5484C60.9348 35.5503 60.9318 35.555 60.9299 35.5578C60.895 35.6221 60.8611 35.6855 60.8282 35.748L60.8127 35.776C60.7817 35.8366 60.7507 35.8972 60.7197 35.9588C60.712 35.9719 60.7062 35.984 60.6994 35.997C60.6684 36.0586 60.6374 36.1239 60.6055 36.1892C60.6055 36.1901 60.6055 36.1901 60.6055 36.191L60.5977 36.2069C60.5958 36.2087 60.5957 36.2106 60.5938 36.2125C60.5638 36.2768 60.5338 36.3412 60.5047 36.4065L60.4931 36.4344C60.4611 36.5035 60.4311 36.5715 60.402 36.6415L60.3982 36.6508C60.3963 36.6527 60.3963 36.6545 60.3963 36.6564C60.3672 36.7245 60.3372 36.7944 60.3101 36.8644C60.3033 36.8821 60.2955 36.898 60.2897 36.9147C59.359 39.2734 59.2563 41.6871 59.2795 43.3714C57.5701 42.3315 55.5546 41.7887 53.3396 41.7841C52.5638 41.7831 51.8065 41.6983 51.0888 41.535C51.3464 41.3224 51.5992 41.107 51.8481 40.8906C52.2046 40.5809 52.5551 40.2536 52.8912 39.9188C54.2985 38.5114 55.4433 36.939 56.2926 35.2444C56.6597 34.5113 56.9716 33.7512 57.2214 32.9846C58.1696 30.0748 58.2181 27.2088 57.3648 24.465C57.3609 24.4491 57.3551 24.4333 57.3503 24.4174C57.3377 24.382 57.3261 24.3409 57.3115 24.3008L57.3057 24.2812C56.804 22.7452 56.0253 21.2791 54.99 19.9193C54.7401 18.8663 54.2384 17.8815 53.5217 17.0412C53.4123 15.0826 53.1227 13.1082 52.6607 11.1655C51.3116 5.11365 48.775 1.606 48.6675 1.45958C48.0041 0.544661 46.9097 0 45.7494 0ZM19.2197 16.1123C19.4444 16.1123 19.6663 16.0432 19.8493 15.9136C22.7074 13.9 25.3582 13.1176 25.3853 13.111C25.4309 13.097 25.4783 13.0812 25.5219 13.0616C25.5451 13.0513 28.0769 11.962 31.6052 11.6682C31.8483 11.6487 32.0768 11.5479 32.2531 11.3847C34.6453 9.16783 39.4395 5.41117 45.2089 4.55314C45.8472 5.60049 47.2593 8.22027 48.1261 12.1252C48.128 12.1299 48.13 12.1346 48.13 12.1402C48.7692 14.8243 48.9174 17.1111 48.928 18.5567C48.93 18.8906 49.1024 19.2039 49.3881 19.3933C50.0709 19.8484 50.496 20.5824 50.5232 21.3574C50.5319 21.5859 50.6191 21.8041 50.7701 21.9795C50.8467 22.0672 50.9164 22.1511 50.9852 22.235C51.853 23.2936 52.4892 24.4333 52.8767 25.6242L52.8931 25.6718C52.898 25.6849 52.9019 25.6988 52.9077 25.7119C52.9096 25.7194 52.9115 25.7268 52.9135 25.7333C53.4994 27.608 53.4588 29.5973 52.7924 31.6444C52.6103 32.204 52.3798 32.7608 52.1106 33.2989C51.4772 34.5654 50.6132 35.748 49.5469 36.815C49.2893 37.0742 49.0191 37.326 48.7431 37.5639C47.6855 38.4825 46.5639 39.3583 45.4123 40.1669C44.9784 40.4718 44.5387 40.7684 44.1048 41.0473C43.8414 41.217 43.6699 41.4903 43.638 41.7943C43.605 42.0974 43.7135 42.3996 43.9344 42.6178C44.037 42.7195 44.1242 42.8044 44.2094 42.8836C46.529 45.0529 49.7707 46.2514 53.3367 46.2588C55.5672 46.2635 57.2486 47.0609 58.4825 48.6977C59.1033 49.5231 59.5226 50.4464 59.7309 51.4415C59.8006 51.7829 60.0466 52.0664 60.3837 52.1942C60.5105 52.2427 60.6432 52.2669 60.7769 52.2669C60.9948 52.2669 61.2108 52.2025 61.3948 52.0766C62.6548 51.213 63.5217 49.7506 63.8364 47.959C64.0485 46.7522 64.0059 45.5575 63.9642 44.4029C63.9536 44.111 63.943 43.8097 63.9372 43.5169C63.8936 41.4241 64.1183 39.8292 64.6432 38.4993L64.6461 38.4928C64.648 38.4872 64.65 38.4816 64.6519 38.476C64.6713 38.4303 64.6887 38.3855 64.7081 38.3398L64.711 38.3324C64.7304 38.2885 64.7487 38.2447 64.7681 38.2018L64.7749 38.1887C64.7933 38.1477 64.8117 38.1067 64.8321 38.0656L64.8388 38.0488C64.8592 38.0078 64.8785 37.9677 64.8998 37.9276L64.9076 37.9099C64.928 37.8716 64.9473 37.8325 64.9686 37.7924L64.9783 37.7756C64.9977 37.7373 65.019 37.6982 65.0403 37.659L65.0461 37.6469C65.0683 37.6077 65.0916 37.5676 65.1139 37.5275C65.1158 37.5247 65.1178 37.5219 65.1187 37.52C65.1439 37.4762 65.1691 37.4352 65.1933 37.3932C65.4054 37.0463 65.6437 36.7236 65.9032 36.4326C65.9042 36.4307 65.9061 36.4298 65.9081 36.427C65.94 36.3915 65.972 36.357 66.005 36.3216L66.0185 36.3076C66.0485 36.275 66.0795 36.2442 66.1095 36.2143L66.1202 36.2031L66.1424 36.1808L66.1531 36.1714C66.1725 36.1518 66.1928 36.1313 66.2132 36.1117C66.2286 36.0968 66.2422 36.0838 66.2577 36.0698L66.2771 36.0511L66.3013 36.0297C66.3071 36.0241 66.3129 36.0175 66.3187 36.012C66.7623 35.6053 67.2485 35.2892 67.7638 35.07C68.2713 34.8564 68.8446 34.7426 69.4189 34.7426C70.3904 34.7426 71.2843 35.0709 71.8722 35.6417C72.0407 35.8077 72.1753 35.9849 72.2567 36.1528C72.3129 36.2666 72.3468 36.3738 72.3574 36.4745C72.3671 36.5641 72.3507 36.6639 72.3138 36.7487C72.2819 36.8261 72.2422 36.8681 72.2151 36.8821C72.2131 36.883 72.2121 36.884 72.2092 36.8849C72.2053 36.8868 72.2015 36.8886 72.1976 36.8914C72.1657 36.9054 72.1221 36.9175 72.0407 36.9175C71.8209 36.9175 71.508 36.828 71.1768 36.732C70.893 36.6508 70.5705 36.5575 70.2345 36.5025C70.0776 36.4773 69.9342 36.4624 69.7928 36.455C69.7424 36.4531 69.6921 36.4512 69.6417 36.4512C69.5129 36.4512 69.3821 36.4596 69.2504 36.4745C68.2499 36.5911 67.2931 37.1507 66.6229 38.0078C66.3236 38.3911 66.0795 38.8239 65.878 39.3303C65.7105 39.7528 65.5788 40.2079 65.4626 40.7647C65.4539 40.7955 65.447 40.8262 65.4422 40.8589C65.4383 40.8729 65.4345 40.8878 65.4326 40.9018C65.1875 42.117 65.0974 43.3425 65.0103 44.5279C64.9609 45.19 64.9095 45.8755 64.833 46.5349C64.5822 48.6921 64.0485 50.2198 63.1546 51.3436C62.5115 52.1513 61.5633 52.7649 60.6161 52.985C60.189 53.0848 59.8694 53.428 59.8103 53.8477C59.5188 55.9462 58.3217 57.873 56.5241 59.133C54.1813 60.7772 51.4791 62.0801 48.4941 63.0053C47.2738 63.383 46.0128 63.5751 44.745 63.5751C44.6791 63.5751 44.6123 63.5751 44.5465 63.5742C44.5397 63.5742 44.5339 63.5742 44.5271 63.5742C44.2191 63.5742 43.9237 63.7038 43.7213 63.9295C43.5141 64.1599 43.424 64.4667 43.4753 64.767C43.5712 65.3276 43.2923 65.8275 43.0404 66.1492C42.4961 66.845 41.5867 67.3579 40.7228 67.4568C40.6133 67.4689 40.5019 67.4764 40.3915 67.4764C39.8259 67.4764 39.3058 67.3141 38.929 67.0203C38.4942 66.6818 38.2502 66.1212 38.3393 65.6577C38.4206 65.2296 38.8632 64.809 39.2526 64.7922C39.6022 64.7773 39.9199 64.5982 40.1078 64.3138C40.2927 64.0293 40.3238 63.674 40.1853 63.3653C40.1378 63.2543 40.0865 63.1321 40.0245 62.981C39.9257 62.7376 39.7349 62.539 39.4898 62.4271C36.0875 60.863 33.6565 57.9383 32.8187 54.4017C32.2734 52.0981 31.9122 49.5772 31.7446 46.9089C31.7272 46.6244 31.5877 46.3605 31.3601 46.1796C31.1684 46.0266 30.9282 45.9445 30.6802 45.9445C30.6357 45.9445 30.5892 45.9473 30.5437 45.9529C29.8434 46.0397 29.1267 46.1106 28.4158 46.1619C27.3756 46.2374 26.3161 46.2756 25.2681 46.2756C25.0551 46.2756 24.841 46.2738 24.6289 46.271C24.3161 46.2663 24.0004 46.2523 23.6904 46.2299C21.7592 46.091 19.9597 45.6135 18.3442 44.8123C18.0682 44.6762 17.798 44.5288 17.5365 44.3749C16.4634 43.7426 15.5442 42.99 14.8053 42.1394C14.7917 42.1245 14.7801 42.1105 14.7675 42.0956C14.7578 42.0844 14.7471 42.0741 14.7375 42.062L14.7336 42.0582C14.7258 42.0471 14.7161 42.0368 14.7084 42.0265C12.9176 39.8992 12.4963 37.4743 12.4585 35.8142C12.4527 35.5857 12.3685 35.3656 12.2193 35.1894C11.7118 34.5878 11.5297 33.7652 11.7341 32.9902C11.8193 32.6656 11.7351 32.3215 11.5084 32.0688C10.5293 30.9729 9.07938 29.1561 7.7283 26.7294C7.72539 26.7247 7.72346 26.7201 7.72055 26.7154C5.70798 23.2255 4.98255 20.3586 4.7472 19.1638C8.92441 16.6168 13.9801 16.0684 17.5578 16.0684C18.0972 16.0684 18.6396 16.0815 19.1733 16.1067C19.1849 16.1113 19.2033 16.1123 19.2197 16.1123Z" fill="#51332A"/>
<path d="M60.6035 51.352C61.85 50.5919 62.5357 49.1892 62.7817 47.7893C63.0267 46.3894 62.8959 44.9578 62.8669 43.5384C62.8291 41.7085 62.9677 39.8451 63.6418 38.1347C64.3168 36.4242 65.5865 34.8704 67.327 34.1355C69.0674 33.3996 71.2882 33.6253 72.6247 34.9264C73.0296 35.3209 73.3521 35.8198 73.4121 36.372C73.4722 36.9241 73.2213 37.5247 72.7157 37.7905C71.8179 38.2624 70.7584 37.534 69.7376 37.4855C68.8504 37.4436 68.0049 37.9472 67.4713 38.6308C66.9366 39.3135 66.6722 40.1566 66.4969 40.9951C66.1076 42.8557 66.1095 44.7685 65.8897 46.6543C65.6698 48.5401 65.1962 50.4669 63.9982 51.9731C62.7991 53.4793 60.7352 54.4679 58.8272 53.9904" fill="white"/>
<path d="M59.8374 54.6227C59.4606 54.6227 59.0791 54.578 58.6936 54.4819C58.4127 54.411 58.2432 54.134 58.3159 53.8636C58.3895 53.5931 58.6772 53.4308 58.958 53.5008C60.5106 53.8897 62.4089 53.1343 63.5788 51.6663C64.5338 50.4641 65.1023 48.8534 65.3648 46.5983C65.4432 45.9268 65.4945 45.2367 65.5439 44.567C65.6321 43.3621 65.7251 42.1142 65.9798 40.8943C66.1386 40.1314 66.405 39.1484 67.049 38.3249C67.7357 37.4482 68.7739 36.9325 69.7638 36.9791C70.2015 36.9996 70.617 37.119 71.018 37.2346C71.5923 37.3997 72.0872 37.5433 72.463 37.3456C72.7507 37.1945 72.9299 36.8066 72.8882 36.4232C72.8369 35.9429 72.5124 35.5372 72.2509 35.2817C71.141 34.1998 69.1594 33.9126 67.5381 34.5981C66.0611 35.222 64.8204 36.5762 64.1347 38.3128C63.5836 39.708 63.3483 41.3644 63.3938 43.5262C63.3996 43.8219 63.4113 44.1259 63.42 44.4197C63.4616 45.5491 63.5033 46.7168 63.2999 47.8723C63.1207 48.8898 62.5706 50.7504 60.8854 51.7782C60.6394 51.9283 60.3149 51.8575 60.159 51.6215C60.004 51.3856 60.0776 51.0722 60.3227 50.922C61.3018 50.3251 62.0079 49.1528 62.2626 47.7026C62.4476 46.6496 62.4098 45.5836 62.3691 44.4542C62.3585 44.1576 62.3478 43.8498 62.3401 43.5467C62.311 42.1021 62.3614 39.9505 63.1498 37.9528C63.9362 35.9644 65.3803 34.4032 67.1149 33.6701C69.1526 32.8093 71.572 33.1786 72.9976 34.5692C73.5439 35.1026 73.8683 35.707 73.9342 36.3188C74.0204 37.1153 73.631 37.8856 72.9676 38.2344C72.2073 38.6345 71.4141 38.407 70.7158 38.2046C70.3594 38.102 70.0224 38.005 69.7105 37.9901C69.0655 37.9593 68.3691 38.3212 67.8906 38.9339C67.4877 39.4497 67.2166 40.1165 67.0113 41.0939C66.7691 42.2494 66.68 43.4637 66.5938 44.6379C66.5434 45.3169 66.4921 46.0182 66.4117 46.7102C66.1279 49.1565 65.4926 50.9267 64.4146 52.2809C63.4161 53.5362 61.7018 54.6227 59.8374 54.6227Z" fill="#51332A"/>
<path d="M30.5882 43.2772C30.5882 43.2772 30.3935 48.7947 31.7746 54.6349C33.5093 61.9608 41.3881 66.2929 48.8157 63.9902C51.5236 63.1508 54.4215 61.8824 57.1478 59.9696C61.0829 57.2108 62.1987 51.8911 59.3425 48.0962C58.1183 46.4696 56.2345 45.2386 53.3387 45.233C50.2317 45.2274 47.1799 44.2332 44.9513 42.1487C43.975 41.2357 43.116 40.1566 42.6375 38.9265L30.5882 43.2772Z" fill="white"/>
<path d="M44.7527 65.1084C42.375 65.1084 40.0109 64.5199 37.9092 63.3681C34.5455 61.5233 32.1223 58.3813 31.2623 54.7459C29.8812 48.9094 30.0613 43.3145 30.0632 43.2586C30.071 43.0534 30.2047 42.8734 30.4042 42.8016L42.4525 38.4499C42.7237 38.3519 43.0288 38.4844 43.1295 38.7465C43.5324 39.7808 44.2685 40.8029 45.3174 41.7831C47.3387 43.6736 50.1871 44.7181 53.3377 44.7247C56.0747 44.7303 58.2374 45.7636 59.7677 47.7977C62.7449 51.753 61.7086 57.3964 57.4578 60.3781C54.9774 62.1174 52.1241 63.4949 48.9774 64.4705C47.6021 64.8986 46.1755 65.1084 44.7527 65.1084ZM31.1073 43.6307C31.0937 44.9084 31.1306 49.6294 32.2899 54.522C33.084 57.8805 35.3223 60.7838 38.4303 62.4886C41.5334 64.1888 45.2593 64.5609 48.6549 63.508C51.6961 62.5651 54.4486 61.237 56.8379 59.5611C60.6209 56.9077 61.5536 51.8985 58.9163 48.3937C57.5943 46.6375 55.7163 45.744 53.3357 45.7394C49.9101 45.7328 46.8021 44.5866 44.5832 42.5124C43.577 41.5705 42.8273 40.5847 42.346 39.5728L31.1073 43.6307Z" fill="#51332A"/>
<path d="M44.7527 65.1159C42.374 65.1159 40.008 64.5274 37.9053 63.3746C34.5397 61.5289 32.1165 58.385 31.2545 54.7487C29.8734 48.9113 30.0535 43.3154 30.0555 43.2595L30.0681 42.9163L42.9493 38.2643L43.1372 38.7446C43.5392 39.7779 44.2752 40.7992 45.3222 41.7785C47.3425 43.668 50.189 44.7125 53.3377 44.7181C56.0766 44.7237 58.2422 45.758 59.7744 47.794C62.7536 51.7521 61.7163 57.4001 57.4616 60.3846C54.9803 62.1249 52.127 63.5024 48.9793 64.4789C47.6031 64.9051 46.1755 65.1159 44.7527 65.1159ZM31.1141 43.6353C31.1005 44.9186 31.1383 49.6341 32.2947 54.5202C33.0898 57.8767 35.3271 60.7791 38.4332 62.4821C41.5334 64.1814 45.2583 64.5535 48.652 63.5005C51.6921 62.5576 54.4437 61.2305 56.833 59.5545C60.6122 56.9031 61.5439 51.8985 58.9105 48.3974C57.5904 46.6431 55.7134 45.7506 53.3357 45.7468C49.9081 45.7403 46.7983 44.5932 44.5794 42.5171C43.5741 41.577 42.8234 40.5921 42.3431 39.5812L31.1141 43.6353Z" fill="#51332A"/>
<path d="M29.6545 12.5328C29.6545 12.5328 36.315 4.81895 45.7484 3.44797C45.7484 3.44797 50.4263 9.82721 49.8965 20.782C49.8965 20.7829 39.7077 22.4551 29.6545 12.5328Z" fill="#FB8103"/>
<path d="M49.8965 20.7829C49.8965 20.7829 51.0122 12.3099 45.7483 3.4489C45.7483 3.4489 42.0796 8.70059 42.4321 14.0623C42.4321 14.0614 46.9735 16.6765 49.8965 20.7829Z" fill="white"/>
<path d="M49.8965 21.2884C49.7251 21.2884 49.5614 21.2082 49.4617 21.0683C46.6433 17.1064 42.2065 14.5221 42.1619 14.4969C42.0128 14.4111 41.9179 14.2609 41.9063 14.094C41.547 8.62315 45.1576 3.38545 45.3116 3.16535C45.4133 3.01986 45.5866 2.93406 45.7687 2.94152C45.9498 2.94805 46.1154 3.04411 46.2055 3.19613C48.9687 7.84813 49.9682 12.3891 50.3198 15.3801C50.7014 18.6285 50.4302 20.7558 50.4195 20.8444C50.3924 21.0533 50.2326 21.224 50.0205 21.2735C49.9779 21.2846 49.9382 21.2884 49.8965 21.2884ZM42.9426 13.7713C43.8336 14.316 46.9503 16.3361 49.4598 19.3653C49.484 18.442 49.4636 17.0915 49.2689 15.4612C48.9464 12.737 48.066 8.67911 45.7261 4.45799C44.7953 6.01922 42.7838 9.87195 42.9426 13.7713Z" fill="#51332A"/>
<path d="M30.0661 12.8592L29.241 12.2073C29.3117 12.1234 31.0357 10.1154 33.9228 7.9582C36.5979 5.95863 40.8109 3.46568 45.6883 2.93688L45.8075 3.95812C36.9233 4.9206 30.1329 12.7799 30.0661 12.8592Z" fill="#51332A"/>
<path d="M21.9103 15.3298C21.9103 15.3298 11.6246 13.7368 3.58011 18.677C3.58011 18.677 4.41207 26.4459 12.2939 34.3621C12.2948 34.3621 21.1113 29.1711 21.9103 15.3298Z" fill="#FB8103"/>
<path d="M12.2948 34.3621C12.2948 34.3621 5.66631 28.6861 3.58109 18.677C3.58109 18.677 9.93262 20.3101 13.3273 24.5732C13.3273 24.5722 11.6914 29.4182 12.2948 34.3621Z" fill="white"/>
<path d="M12.2948 34.8695C12.1679 34.8695 12.043 34.8256 11.9452 34.7417C11.8755 34.682 10.2183 33.2514 8.28806 30.5616C6.50987 28.0864 4.16022 24.0322 3.06579 18.7768C3.02996 18.6052 3.0881 18.4271 3.22079 18.3077C3.35347 18.1883 3.54133 18.1426 3.71663 18.1874C3.98297 18.2564 10.2803 19.9156 13.7457 24.2645C13.8512 24.3969 13.8832 24.5704 13.829 24.7298C13.8125 24.7765 12.2357 29.5329 12.8168 34.3034C12.842 34.5123 12.7306 34.7147 12.5369 34.8117C12.4594 34.8508 12.3761 34.8695 12.2948 34.8695ZM4.28613 19.4231C5.95586 26.3703 9.82605 31.0914 11.6536 33.0145C11.4764 29.1449 12.445 25.6504 12.7442 24.6767C10.2009 21.6391 6.05464 20.0107 4.28613 19.4231Z" fill="#51332A"/>
<path d="M3.88425 19.0986L3.27698 18.2545C7.31182 15.5648 12.1883 14.7749 15.5694 14.5865C19.2188 14.3831 21.8861 14.8047 21.9984 14.8224L21.8221 15.8353C21.796 15.8315 19.1394 15.4128 15.6043 15.6133C12.3685 15.797 7.70795 16.5497 3.88425 19.0986Z" fill="#51332A"/>
<path d="M53.8064 31.9559C53.0026 34.4218 51.4529 36.5995 49.4559 38.3268C47.1266 40.3487 42.9997 43.4684 37.9905 45.2777C32.9794 47.087 27.7427 47.35 24.6066 47.3015C21.9219 47.2652 19.2672 46.6058 16.9776 45.2581C9.46676 40.8328 11.6914 32.8167 11.6914 32.8167C10.6319 25.1187 13.5956 20.0694 16.9999 16.8845C18.104 15.8577 19.2536 15.0239 20.3239 14.3589C21.3989 13.6911 22.4023 13.195 23.2062 12.8406C24.3422 12.3435 25.0803 12.129 25.0803 12.129C25.0803 12.129 25.7834 11.8231 26.9776 11.4789C27.826 11.2364 28.9194 10.9753 30.1862 10.7981C31.4473 10.6218 32.8826 10.522 34.4148 10.5976C39.1557 10.8401 44.836 12.7678 49.2941 19.2375C49.2932 19.2347 56.4437 23.8662 53.8064 31.9559Z" fill="white"/>
<path d="M25.3001 47.8126C25.0589 47.8126 24.8255 47.8108 24.5969 47.807C21.7175 47.7679 18.9882 47.0348 16.7025 45.689C12.6474 43.3005 11.3612 39.8889 10.9961 37.4482C10.6464 35.1148 11.0435 33.2392 11.1549 32.786C10.6774 29.2112 11.0222 25.9115 12.1786 22.9765C13.1277 20.5675 14.627 18.3954 16.6338 16.5198C17.6478 15.576 18.7926 14.7058 20.0382 13.9318C20.9718 13.3517 21.9635 12.8294 22.9863 12.378C24.0206 11.9247 24.7345 11.6999 24.8943 11.6524C25.0483 11.5871 25.7388 11.3054 26.8265 10.9921C27.9064 10.6834 29.0105 10.4493 30.1097 10.2945C31.577 10.0893 33.0347 10.0212 34.4409 10.0893C37.2351 10.232 39.8472 10.9203 42.2085 12.1327C45.084 13.6109 47.5963 15.8791 49.6767 18.8747C50.0699 19.1461 51.6515 20.3073 52.9813 22.2863C54.374 24.3568 55.7338 27.7413 54.3101 32.1079C53.5081 34.5692 51.9507 36.8504 49.8093 38.7036C47.2467 40.927 43.1488 43.9562 38.1774 45.7515C33.5305 47.4284 28.7257 47.8126 25.3001 47.8126ZM33.3804 11.076C32.3567 11.076 31.3126 11.1506 30.2598 11.2971C29.2109 11.4444 28.1562 11.6682 27.1267 11.963C25.9868 12.2912 25.302 12.586 25.2952 12.5897C25.2749 12.5981 25.2517 12.6065 25.2313 12.613C25.2236 12.6149 24.5069 12.8256 23.4231 13.3004C22.4468 13.7303 21.4996 14.2302 20.6086 14.7833C19.4212 15.5219 18.3297 16.351 17.366 17.2482C13.0822 21.253 11.3486 26.4692 12.2125 32.7487C12.2222 32.8149 12.2173 32.882 12.198 32.9464C12.1931 32.965 11.6711 34.9096 12.044 37.3419C12.537 40.5623 14.288 43.0795 17.2527 44.8245C19.3766 46.0761 21.9219 46.7578 24.6144 46.7942C27.9732 46.8455 32.9882 46.5424 37.8056 44.8021C42.623 43.0618 46.6094 40.1156 49.1033 37.95C51.1062 36.2171 52.559 34.0926 53.3047 31.8039C54.3498 28.5994 53.943 25.5832 52.097 22.8366C50.7139 20.7783 49.0171 19.6665 49.0007 19.6554C48.9426 19.618 48.8931 19.5705 48.8554 19.5145C45.2176 14.2367 40.3508 11.4062 34.3877 11.1012C34.0545 11.0844 33.7175 11.076 33.3804 11.076Z" fill="#51332A"/>
<path d="M26.9766 11.477L30.2202 19.8055C30.6115 20.81 30.0856 21.9245 29.0425 22.3022C27.9994 22.679 26.842 22.1716 26.4497 21.1672L23.2052 12.8387C24.3412 12.3416 25.0792 12.1271 25.0792 12.1271C25.0792 12.1271 25.7824 11.8212 26.9766 11.477Z" fill="#FB8103"/>
<path d="M34.4138 10.5948L36.1484 15.0463C36.5397 16.0507 36.0071 17.168 34.9698 17.5429C33.9267 17.9197 32.7625 17.4152 32.3712 16.4107L30.1843 10.7953C31.4453 10.62 32.8816 10.5202 34.4138 10.5948Z" fill="#FB8103"/>
<path d="M20.3239 14.357L22.5098 19.9715C22.9011 20.9769 22.3704 22.0933 21.3321 22.4682C20.289 22.845 19.1258 22.3404 18.7335 21.336L16.9999 16.8835C18.104 15.8567 19.2537 15.0229 20.3239 14.357Z" fill="#FB8103"/>
<path d="M42.0951 28.2132C43.915 27.5567 44.837 25.6028 44.1542 23.8504L43.7164 22.7256C43.0336 20.9732 41.0046 20.0853 39.1847 20.7428C37.3639 21.4003 36.4428 23.3533 37.1256 25.1057L37.5634 26.2304C38.2462 27.9838 40.2743 28.8707 42.0951 28.2132Z" fill="#51332A"/>
<path d="M36.2744 25.4554C37.7876 25.4554 39.0143 24.2742 39.0143 22.817C39.0143 21.3598 37.7876 20.1786 36.2744 20.1786C34.7611 20.1786 33.5345 21.3598 33.5345 22.817C33.5345 24.2742 34.7611 25.4554 36.2744 25.4554Z" fill="white"/>
<path d="M23.2449 35.0215C21.4251 35.679 19.397 34.7911 18.7142 33.0387L18.2755 31.9139C17.5936 30.1615 18.5156 28.2076 20.3355 27.5501C22.1553 26.8926 24.1844 27.7805 24.8672 29.5329L25.304 30.6577C25.9868 32.4101 25.0648 34.364 23.2449 35.0215Z" fill="#51332A"/>
<path d="M23.9452 29.9078C25.4584 29.9078 26.6851 28.7266 26.6851 27.2694C26.6851 25.8122 25.4584 24.631 23.9452 24.631C22.4319 24.631 21.2052 25.8122 21.2052 27.2694C21.2052 28.7266 22.4319 29.9078 23.9452 29.9078Z" fill="white"/>
<path d="M32.6696 31.6174C32.6696 31.6174 33.0163 31.4271 33.4996 31.3292C34.411 31.1454 35.2313 31.9624 35.0008 32.8307C34.8526 33.3903 34.4981 33.9797 33.703 34.2679C32.9059 34.5552 32.2357 34.3341 31.7437 34.0077C30.9766 33.4985 31.0367 32.3644 31.8483 31.9261C32.2793 31.6938 32.6696 31.6174 32.6696 31.6174Z" fill="#51332A"/>
<path d="M39.5683 37.8064C39.3629 37.8064 39.1566 37.7765 38.959 37.714C38.6791 37.6264 38.5261 37.3363 38.6172 37.0668C38.7092 36.7963 39.0094 36.6499 39.2893 36.7375C39.6971 36.8653 40.2133 36.6844 40.44 36.3328C40.6666 35.9812 40.6055 35.4561 40.3053 35.1614C40.099 34.959 40.1009 34.6335 40.3111 34.4349C40.5213 34.2362 40.8593 34.239 41.0656 34.4414C41.7106 35.0747 41.8317 36.1201 41.3465 36.8737C40.9716 37.4585 40.2714 37.8064 39.5683 37.8064Z" fill="#51332A"/>
<path d="M25.2836 47.821C25.0483 47.821 24.8207 47.8192 24.5998 47.8164C21.7117 47.7725 18.9776 47.0395 16.6968 45.6937C12.6426 43.3043 11.3554 39.8917 10.9902 37.4491C10.6416 35.1176 11.0368 33.2411 11.1481 32.785C10.6464 29.0349 11.0483 25.5925 12.3452 22.5484C13.3931 20.0881 15.0241 17.8889 17.1897 16.0106C20.7209 12.9469 24.4613 11.7727 24.8904 11.6449C25.301 11.4696 28.9214 9.98576 33.6739 10.0566C36.5882 10.1005 39.3184 10.7253 41.7881 11.9154C44.8428 13.3871 47.4975 15.7252 49.6796 18.8691C50.0748 19.1424 51.6544 20.3045 52.9842 22.2826C54.3769 24.3549 55.7386 27.7404 54.3159 32.1079C53.5149 34.5664 51.9566 36.8495 49.8123 38.711C47.2476 40.9344 43.1469 43.9627 38.1765 45.758C33.5257 47.4368 28.7102 47.821 25.2836 47.821ZM12.2057 32.9464C12.1941 32.9902 11.6818 34.9254 12.0508 37.34C12.5447 40.5576 14.2939 43.073 17.2527 44.8179C19.3718 46.0667 21.919 46.7485 24.6173 46.7886C27.9751 46.8389 32.9901 46.534 37.8036 44.7955C42.6181 43.0562 46.6036 40.1118 49.0985 37.9472C51.1033 36.2087 52.5561 34.0823 53.2999 31.7992C54.342 28.5993 53.9353 25.5841 52.0912 22.8403C50.7082 20.7829 49.0123 19.6712 48.9958 19.66L48.9077 19.6031L48.8486 19.5182C45.0597 14.0166 39.9499 11.1795 33.6574 11.0844C28.9494 11.0135 25.3359 12.5785 25.3001 12.5943L25.2662 12.6093L25.2314 12.6195C25.1936 12.6307 21.3689 13.7564 17.8735 16.7996C13.2207 20.8519 11.3176 26.2174 12.2183 32.7468L12.2329 32.8475L12.2057 32.9464Z" fill="#51332A"/>
<path d="M47.5334 17.9449C39.702 18.7591 29.5006 22.747 29.2497 22.8375C28.9989 22.928 18.5912 26.3834 12.1351 30.7286C10.0615 32.1257 10.0547 35.1334 12.1408 36.5119C14.6135 38.1458 18.4779 39.4534 23.6972 37.5676C23.6972 37.5676 29.2526 35.5456 28.5844 29.7596C28.5844 29.7596 28.2086 27.4308 30.6909 26.5345C33.1732 25.6382 34.4797 27.6303 34.4797 27.6303C37.9286 32.412 43.4947 30.418 43.4947 30.418C48.715 28.5331 50.7324 25.101 51.4782 22.305C52.1087 19.9454 50.0496 17.6838 47.5334 17.9449Z" fill="#51332A"/>
<path d="M37.4094 51.7791C36.9707 55.0359 37.7155 60.4042 39.1993 63.7719C38.284 63.812 37.4491 64.6104 37.2845 65.4796C37.1198 66.3488 37.5401 67.2703 38.253 67.8252C38.9658 68.3801 39.9324 68.5871 40.8428 68.4836C42.8273 68.257 44.8796 66.4477 44.5154 64.5572C43.4762 59.1684 42.9232 56.7697 43.6205 52.8172" fill="white"/>
<path d="M40.3838 69.0152C39.4627 69.0152 38.5882 68.7354 37.9228 68.2188C37.0279 67.5211 36.5736 66.4104 36.7673 65.3882C36.9387 64.4863 37.6361 63.7141 38.4825 63.4063C37.1625 60.0451 36.4525 54.9538 36.8884 51.7139C36.9242 51.4369 37.1876 51.241 37.4762 51.2765C37.7639 51.3128 37.9683 51.5665 37.9305 51.8435C37.4918 55.1189 38.2772 60.3809 39.6845 63.5733C39.7523 63.7262 39.7378 63.9016 39.6467 64.0405C39.5537 64.1814 39.3969 64.27 39.2245 64.2765C38.5814 64.3045 37.9305 64.8967 37.8036 65.5691C37.6796 66.222 37.9935 66.969 38.5852 67.4298C39.1547 67.8728 39.9547 68.0723 40.7838 67.9781C41.8017 67.8616 42.8642 67.2572 43.4918 66.4374C43.8017 66.0308 44.1436 65.391 43.9993 64.6477C43.9402 64.3455 43.884 64.0527 43.8288 63.7682C42.8971 58.9623 42.4302 56.5505 43.1024 52.7304C43.1518 52.4544 43.423 52.2688 43.7097 52.3154C43.9963 52.362 44.1891 52.6241 44.1407 52.9002C43.4985 56.5421 43.9256 58.7488 44.8622 63.5826C44.9184 63.8671 44.9745 64.1609 45.0336 64.463C45.1983 65.322 44.9523 66.236 44.3382 67.039C43.5353 68.0891 42.2201 68.8352 40.9058 68.9854C40.7314 69.0059 40.5561 69.0152 40.3838 69.0152Z" fill="#51332A"/>
<path d="M73.4083 36.3729C73.4683 36.9231 73.2214 37.5266 72.7148 37.7905C71.818 38.2633 70.7565 37.534 69.7366 37.4874C68.8485 37.4426 68.001 37.9472 67.4674 38.6317C66.9328 39.3163 66.6713 40.1585 66.497 40.9969C66.4873 41.0324 66.4815 41.0659 66.4776 41.1032C66.0011 41.2394 65.479 41.2207 65.0209 41.0435C64.3914 40.8067 63.8839 40.2778 63.6892 39.6539C63.5362 39.154 63.5701 38.628 63.6495 38.1123C64.3265 36.4121 65.5933 34.8676 67.325 34.1346C69.0664 33.4015 71.2901 33.6272 72.6238 34.9254C73.0277 35.3199 73.3531 35.8208 73.4083 36.3729Z" fill="#FB8103"/>
<path d="M65.8354 41.7057C65.4897 41.7057 65.1439 41.6432 64.8233 41.5192C64.0408 41.2254 63.4257 40.5828 63.1797 39.8013C62.9851 39.1671 63.0471 38.5245 63.1226 38.0358L63.1323 37.9798L63.1527 37.9276C63.9401 35.9495 65.3832 34.3957 67.11 33.6636C69.1526 32.8046 71.5759 33.1749 73.0044 34.5636C73.5536 35.1054 73.8761 35.7117 73.939 36.3207C74.0262 37.1218 73.6359 37.895 72.9695 38.2419C72.2083 38.6429 71.416 38.4144 70.7158 38.213C70.3584 38.1104 70.0214 38.0134 69.7114 37.9994C69.0645 37.9677 68.371 38.3277 67.8935 38.9386C67.3812 39.597 67.1575 40.4373 67.0199 41.0967L67.0131 41.1275C67.0122 41.1293 67.0102 41.1359 67.0083 41.1564L66.9705 41.4968L66.6296 41.5938C66.371 41.6693 66.1018 41.7057 65.8354 41.7057ZM64.1705 38.2428C64.1115 38.6383 64.0737 39.0925 64.2006 39.5075C64.3478 39.9775 64.7381 40.3842 65.2156 40.5632C65.4665 40.6602 65.7502 40.6957 66.0233 40.6677C66.188 39.9412 66.4611 39.0654 67.0412 38.3221C67.7289 37.4408 68.7729 36.9241 69.7647 36.9744C70.2015 36.994 70.618 37.1134 71.0209 37.2291C71.5942 37.3932 72.0882 37.5359 72.4601 37.34C72.7439 37.1917 72.9202 36.8075 72.8785 36.4261V36.4233C72.8301 35.9504 72.5075 35.5438 72.2441 35.2845C71.14 34.2101 69.1604 33.9238 67.541 34.6046C66.0873 35.2201 64.8601 36.5445 64.1705 38.2428Z" fill="#51332A"/>
</svg>
