<svg width="75" height="56" viewBox="0 0 75 56" fill="none" xmlns="http://www.w3.org/2000/svg">
<path d="M74.6795 18.1539C74.3618 16.4883 73.1213 14.1319 71.4473 13.046C71.4412 13.0429 71.4351 13.0389 71.429 13.0349C70.8757 12.681 70.2372 12.4097 69.5357 12.2282C69.5103 12.2212 69.4839 12.2151 69.4585 12.2091C68.5743 11.9893 67.5419 11.9056 66.5765 11.9721C66.0019 12.0114 65.4121 12.1002 64.8263 12.2353C62.3991 12.7949 60.1667 14.1137 58.7018 15.849C57.6999 17.0337 56.9486 18.5038 56.4928 20.1655C56.1781 18.1983 55.8512 16.2382 55.5112 14.2922C55.7538 13.6479 55.7822 12.926 55.5589 12.2353C54.5457 9.09851 51.55 7.19486 46.6528 6.57678C46.2508 6.52637 45.8265 6.47999 45.3798 6.43764C45.0844 5.95568 44.7128 5.52715 44.2743 5.1682C42.9667 4.09942 41.175 3.73947 39.3609 4.17908C38.1153 4.47955 37.0351 5.25492 36.3397 6.30152C33.8292 6.57275 28.9717 7.61431 26.4977 11.595C25.9627 12.4561 25.848 13.5017 26.184 14.4636C26.186 14.4717 26.1891 14.4797 26.1921 14.4868C26.186 14.5261 26.1789 14.5644 26.1728 14.6038C26.0936 14.6189 26.0145 14.634 25.9353 14.6512C24.9962 14.8518 24.0765 15.2259 23.2359 15.7421C23.2431 15.2128 23.1476 14.7046 22.9497 14.2246C22.9436 14.2105 22.9375 14.1964 22.9314 14.1823C22.6147 13.4523 22.0502 12.8826 21.3417 12.5781C20.3478 12.1506 18.8535 12.1839 17.6414 13.5602C17.6302 13.5733 17.6201 13.5854 17.6099 13.5985C17.5267 13.6963 17.4464 13.7961 17.3713 13.897C17.3064 13.4009 17.1338 12.9502 16.8526 12.5499C16.48 12.0155 15.9633 11.6051 15.3593 11.3651L15.3034 11.343C14.6619 11.0869 13.9634 11.0516 13.2812 11.2411C13.2294 11.2552 13.1777 11.2714 13.1279 11.2885C13.0853 10.5494 12.8254 9.98883 12.5655 9.60468C12.4914 9.49578 12.4092 9.39192 12.3199 9.29311C12.1168 9.07129 11.7869 8.75065 11.2661 8.52983C10.4286 8.17491 9.46928 8.21627 8.63177 8.64479C8.19017 8.87165 7.82165 9.16304 7.53537 9.50989C7.2562 9.84665 6.97603 10.2964 6.65829 10.9205C6.38724 11.4518 6.12632 12.0306 5.88167 12.6386C5.86847 12.6689 5.85832 12.6991 5.84716 12.7294C5.81365 12.8231 5.77813 12.9159 5.73854 13.0147C5.6756 13.174 5.61571 13.3343 5.55987 13.4977C5.33451 14.151 5.15684 14.7792 5.02893 15.368C4.86549 16.1243 4.74874 17.0156 5.12029 17.8968C5.1274 17.914 5.13552 17.9301 5.14263 17.9472C4.97411 18.0723 4.81372 18.2064 4.66144 18.3546C4.00564 19.0019 3.60058 19.861 3.49196 20.84C3.40973 21.5872 3.5082 22.2637 3.78535 22.8505C4.06147 23.4384 4.4858 23.9284 5.01369 24.2672C5.13652 24.3468 5.26443 24.4184 5.39438 24.483C5.68877 24.7733 5.99028 25.0557 6.29585 25.3299C6.0654 25.4882 5.84208 25.6475 5.62788 25.8089C5.24516 26.0942 4.88882 26.3826 4.56701 26.6679C4.15485 27.0349 3.85845 27.3525 3.63816 27.6591C3.22397 28.2348 2.99148 28.9285 2.93159 29.7795C2.88286 30.453 2.95292 31.0852 3.13971 31.6589C3.33666 32.2881 3.65034 32.7439 3.96605 33.0716C3.92545 33.1492 3.88279 33.2268 3.84523 33.3065C3.5955 33.8419 3.40972 34.4569 3.294 35.1345C3.27674 35.2323 3.2666 35.3301 3.26051 35.4289C3.24731 35.6437 3.23918 35.8322 3.23817 35.9946C3.22599 36.0279 3.21483 36.0631 3.20062 36.1025C2.93972 36.8153 2.86358 37.5967 2.9722 38.4245C3.12245 39.5568 3.46759 40.544 3.99852 41.3607C4.14268 41.5825 4.29802 41.7912 4.46146 41.9888C4.20259 42.2308 3.98533 42.495 3.81174 42.7814C3.7955 42.8076 3.78027 42.8358 3.76403 42.863C3.45847 43.4105 3.29603 44.0185 3.2808 44.6759C3.27065 45.1438 3.32954 45.6096 3.45339 46.0603C3.61277 46.636 3.8686 47.1503 4.21579 47.5899C4.86854 48.4126 5.80452 48.8633 6.79633 48.8442C6.55066 49.3594 6.45931 49.9442 6.52225 50.5875C6.56286 50.9949 6.66436 51.3982 6.82273 51.7864C7.02982 52.2925 7.32118 52.7442 7.69374 53.1314C8.32822 53.7908 9.17183 54.1528 10.0479 54.1528C10.1525 54.1528 10.257 54.1478 10.3616 54.1377C10.8397 54.0923 11.3605 53.9804 11.9524 53.7949C12.4011 53.6537 12.8691 53.4924 13.3442 53.3129C13.801 53.1405 14.2487 52.961 14.675 52.7785L18.7723 51.0181C18.8748 50.9737 19.0118 50.9112 19.1804 50.8285C19.3062 50.769 19.4453 50.7025 19.5945 50.6339L20.0829 50.404C20.2301 50.3355 20.3762 50.2699 20.5204 50.2084C20.6777 50.1419 20.8199 50.0834 20.9447 50.035C21.0808 49.9815 21.1356 49.9644 21.1386 49.9644C21.234 49.9352 21.3274 49.9009 21.4188 49.8605L21.501 49.8253C22.3294 49.4683 22.9801 48.8139 23.3303 47.9831C23.4948 47.5929 23.5902 47.1775 23.6166 46.754C23.6258 46.7611 23.6359 46.7691 23.6441 46.7752C23.8298 48.5669 24.3729 50.7004 25.984 52.4609C27.0997 53.6769 28.5503 54.5339 30.4071 55.0764C31.0872 55.2791 31.8273 55.4384 32.6577 55.5644C32.8486 55.5937 33.0425 55.6219 33.2384 55.6471C35.0545 55.8841 36.9153 56 38.9274 56C43.9646 56 48.8842 55.268 53.6362 54.5602C54.5569 54.4251 56.2715 54.172 57.5628 52.7987C58.4277 51.8882 58.7709 50.8245 58.9759 49.9977C59.118 49.4169 59.2307 48.82 59.316 48.1989C60.4449 47.5778 61.4946 46.7459 62.4042 45.7417C62.4285 45.7145 62.4539 45.6862 62.4772 45.658C63.2762 44.7637 63.9523 43.7644 64.4863 42.6886C64.8832 41.892 65.2202 41.031 65.4892 40.1306C66.0689 38.1936 66.3602 36.051 66.4069 33.3932C66.4283 32.3053 66.408 31.2264 66.3887 30.1798C66.3613 28.5867 66.3318 26.9402 66.4567 25.3894C66.4689 25.2351 66.4841 25.0819 66.5054 24.9266C66.5074 24.9155 66.5085 24.9034 66.5105 24.8893C66.6425 23.9213 66.9186 23.147 67.3186 22.6428C67.615 22.2657 68.0261 22.0076 68.5733 21.8554C68.7063 21.8191 68.9073 21.7767 69.2921 21.7767C69.555 21.7767 69.8423 21.7949 70.1753 21.815C70.5702 21.8392 71.0178 21.8665 71.5122 21.8665H71.5975C72.5365 21.8594 73.4157 21.443 74.0116 20.7231C74.6075 20.0031 74.8541 19.0685 74.6795 18.1539Z" fill="#CADBE3"/>
<path d="M71.763 14.1571C71.4452 12.4914 70.2047 10.135 68.5307 9.04909C68.5246 9.04506 68.5185 9.04102 68.5124 9.038C67.9581 8.68409 67.3206 8.41286 66.6191 8.23137C66.5937 8.22431 66.5673 8.21826 66.5419 8.21221C65.6567 7.99341 64.6253 7.90872 63.6599 7.97526C63.0853 8.01459 62.4955 8.10331 61.9098 8.23943C59.4825 8.79903 57.2501 10.1179 55.7852 11.8531C54.7833 13.0369 54.032 14.508 53.5762 16.1696C53.2615 14.2014 52.9347 12.2423 52.5946 10.2953C52.8372 9.65103 52.8656 8.92911 52.6423 8.23843C51.6292 5.10165 48.6334 3.19799 43.7362 2.58092C43.3342 2.53051 42.9099 2.48413 42.4632 2.44178C42.1678 1.95982 41.7963 1.53129 41.3577 1.17234C40.0502 0.103557 38.2584 -0.256405 36.4433 0.183208C35.1987 0.483678 34.1185 1.25905 33.4231 2.30465C30.9126 2.57588 26.0551 3.61845 23.5811 7.59816C23.0461 8.45923 22.9314 9.50584 23.2664 10.4678C23.2694 10.4748 23.2725 10.4839 23.2755 10.4909C23.2684 10.5303 23.2623 10.5696 23.2562 10.6089C23.177 10.623 23.0979 10.6392 23.0187 10.6563C22.0797 10.8569 21.1599 11.231 20.3194 11.7473C20.3265 11.2179 20.231 10.7097 20.0331 10.2308C20.027 10.2167 20.0209 10.2026 20.0148 10.1884C19.6981 9.45845 19.1336 8.88876 18.425 8.58426C17.4312 8.15674 15.9369 8.19002 14.7248 9.56633C14.7136 9.57843 14.7034 9.59154 14.6933 9.60364C14.6101 9.70245 14.5299 9.80127 14.4547 9.9021C14.3898 9.40602 14.2162 8.95632 13.936 8.55503C13.5634 8.02063 13.0467 7.61026 12.4427 7.37029L12.3868 7.3481C11.7452 7.092 11.0468 7.0557 10.3646 7.24627C10.3129 7.26038 10.2611 7.27651 10.2114 7.29365C10.1687 6.55458 9.90882 5.99397 9.64894 5.60981C9.57483 5.50092 9.4926 5.39607 9.40326 5.29826C9.20023 5.07644 8.8703 4.7558 8.3485 4.53499C7.512 4.18007 6.55268 4.22141 5.71517 4.64993C5.27357 4.87679 4.90508 5.16819 4.6188 5.51504C4.33963 5.85181 4.05943 6.30151 3.74168 6.92564C3.47063 7.457 3.20974 8.03576 2.96407 8.64375C2.95189 8.67299 2.94172 8.70425 2.93055 8.73349C2.89705 8.82727 2.86152 8.92103 2.82193 9.01984C2.75899 9.17915 2.6991 9.33948 2.64327 9.50282C2.4179 10.1562 2.24024 10.7843 2.11233 11.3722C1.94888 12.1284 1.83217 13.0207 2.20372 13.901C2.21082 13.9181 2.21894 13.9342 2.22503 13.9514C2.05753 14.0764 1.89711 14.2115 1.74484 14.3597C1.08904 15.0071 0.684009 15.8661 0.575387 16.8452C0.493158 17.5923 0.591623 18.2689 0.867749 18.8557C1.14489 19.4435 1.56923 19.9335 2.09711 20.2723C2.21995 20.352 2.34685 20.4236 2.4778 20.4881C2.7722 20.7785 3.07371 21.0608 3.37927 21.3361C3.14883 21.4944 2.9255 21.6537 2.7113 21.815C2.32858 22.1004 1.97225 22.3877 1.65044 22.6741C1.23828 23.0411 0.941844 23.3577 0.721552 23.6652C0.307364 24.2409 0.0749072 24.9347 0.0150123 25.7856C-0.0337157 26.4592 0.0363172 27.0914 0.223108 27.6651C0.42005 28.2953 0.733732 28.751 1.04945 29.0777C1.00884 29.1564 0.966218 29.234 0.928656 29.3136C0.678925 29.849 0.493151 30.4641 0.377421 31.1417C0.360164 31.2385 0.349 31.3363 0.342909 31.4351C0.329712 31.6498 0.32261 31.8394 0.321595 32.0017C0.309413 32.034 0.298228 32.0703 0.284015 32.1096C0.0231175 32.8235 -0.0530262 33.6029 0.0555967 34.4317C0.205841 35.563 0.551015 36.5521 1.08195 37.3668C1.2261 37.5897 1.38142 37.7984 1.54486 37.995C1.28599 38.237 1.06876 38.5012 0.895167 38.7885C0.878924 38.8147 0.863699 38.843 0.847457 38.8692C0.541891 39.4177 0.379451 40.0247 0.364224 40.6831C0.354072 41.1509 0.412965 41.6168 0.536816 42.0675C0.696197 42.6432 0.951995 43.1564 1.29918 43.597C1.95193 44.4198 2.88794 44.8705 3.87976 44.8523C3.63409 45.3666 3.5427 45.9514 3.60565 46.5947C3.64625 47.001 3.74776 47.4053 3.90612 47.7935C4.11322 48.3007 4.4046 48.7514 4.77615 49.1386C5.41164 49.797 6.25522 50.16 7.13131 50.16C7.23587 50.16 7.34046 50.1549 7.44502 50.1438C7.92316 50.1005 8.44393 49.9886 9.03577 49.802C9.48448 49.6609 9.95247 49.4995 10.4276 49.3201C10.8844 49.1487 11.3321 48.9682 11.7585 48.7857L15.8557 47.0242C15.9582 46.9808 16.0952 46.9183 16.2638 46.8367C16.3896 46.7752 16.5287 46.7106 16.6769 46.64L17.1662 46.4112C17.3134 46.3426 17.4596 46.2771 17.6038 46.2156C17.7611 46.149 17.9033 46.0905 18.0281 46.0411C18.1642 45.9887 18.219 45.9726 18.221 45.9715C18.3175 45.9423 18.4108 45.908 18.5012 45.8677L18.5844 45.8324C19.4128 45.4755 20.0635 44.8201 20.4128 43.9903C20.5782 43.6001 20.6737 43.1846 20.7001 42.7602C20.7092 42.7682 20.7183 42.7763 20.7275 42.7823C20.9122 44.5731 21.4563 46.7076 23.0674 48.4691C24.1821 49.6841 25.6338 50.5411 27.4905 51.0826C28.1707 51.2852 28.9107 51.4455 29.7411 51.5706C29.932 51.5998 30.1259 51.629 30.3218 51.6543C32.1379 51.8912 33.9987 52.0072 36.0098 52.0072C41.0481 52.0072 45.9676 51.2751 50.7185 50.5683C51.6393 50.4322 53.3549 50.1791 54.6462 48.8058C55.5112 47.8944 55.8533 46.8326 56.0593 46.0038C56.2015 45.423 56.3141 44.8272 56.3994 44.206C57.5283 43.5839 58.578 42.7531 59.4875 41.7478C59.5119 41.7216 59.5373 41.6934 59.5607 41.6652C60.3596 40.7708 61.0357 39.7716 61.5696 38.6958C61.9666 37.8992 62.3036 37.0371 62.5726 36.1377C63.1523 34.1998 63.4436 32.0592 63.4903 29.4003C63.5117 28.3114 63.4914 27.2335 63.4721 26.1869C63.4447 24.5938 63.4142 22.9473 63.5401 21.3966C63.5523 21.2423 63.5675 21.089 63.5888 20.9338C63.5909 20.9227 63.5919 20.9106 63.5939 20.8965C63.7249 19.9275 64.002 19.1531 64.402 18.65C64.6984 18.2729 65.1095 18.0158 65.6567 17.8625C65.7887 17.8262 65.9907 17.7839 66.3755 17.7839C66.6384 17.7839 66.9257 17.802 67.2586 17.8222C67.6535 17.8454 68.1012 17.8736 68.5956 17.8736H68.6809C69.6189 17.8666 70.4991 17.4501 71.095 16.7302C71.6909 16.0103 71.9376 15.0716 71.763 14.1571Z" fill="white"/>
<path d="M52.5835 42.4819C52.5287 42.4819 52.4769 42.4607 52.4373 42.4204L51.4912 41.4615C51.4536 41.4242 51.4323 41.3728 51.4323 41.3193V37.5312C51.4282 36.9867 51.411 36.4402 51.3856 35.8948C51.3491 35.1748 51.2963 34.4539 51.2252 33.736C51.2161 33.6422 51.2719 33.5565 51.3602 33.5263C51.7917 33.374 52.2221 33.1704 52.6404 32.9213C53.9601 32.1308 55.03 30.9269 55.6534 29.5314C55.8341 29.1251 55.9741 28.7097 56.0726 28.2973C56.2208 27.6782 56.298 26.9946 56.3071 26.2081C56.3061 26.194 56.3061 26.1809 56.3071 26.1678C56.3132 25.3108 56.2371 24.4335 56.164 23.5836L56.1224 23.0956C55.9934 21.5367 55.9072 19.867 56.1498 18.2346C56.4198 16.4378 57.0736 14.882 58.0431 13.7366C59.108 12.4753 60.7596 11.5113 62.5758 11.0929C63.0072 10.9921 63.4407 10.9265 63.862 10.8983C64.0102 10.8882 64.1645 10.8822 64.3239 10.8822C64.8711 10.8822 65.4051 10.9457 65.871 11.0657C66.273 11.1695 66.6222 11.3147 66.9126 11.5003C67.7866 12.0679 68.6627 13.659 68.8607 14.7016C68.8729 14.76 68.8566 14.8205 68.8181 14.8679C68.7805 14.9133 68.7226 14.9405 68.6627 14.9415C68.6597 14.9415 68.6566 14.9415 68.6536 14.9415C68.1917 14.9415 67.8151 14.9183 67.4435 14.8962C67.0862 14.875 66.7349 14.8528 66.3796 14.8528C65.8071 14.8528 65.3259 14.9123 64.865 15.0414C63.7057 15.364 62.7687 15.97 62.0804 16.8452C61.3434 17.7748 60.8683 19.0201 60.6663 20.5476C60.6389 20.7573 60.6165 20.965 60.6003 21.1758C60.4643 22.8586 60.4947 24.5797 60.5252 26.2434C60.5434 27.2608 60.5617 28.3124 60.5434 29.3479C60.5008 31.7356 60.248 33.6281 59.7475 35.3029C59.5242 36.046 59.2481 36.7518 58.9263 37.3991C58.4938 38.2683 57.9466 39.0698 57.3 39.7817C56.2036 40.9927 54.8839 41.8557 53.485 42.2752C53.2078 42.3619 52.9134 42.4315 52.616 42.4819C52.6058 42.4819 52.5947 42.4819 52.5835 42.4819Z" fill="#F6CD6C"/>
<path d="M64.3259 11.0858C64.8091 11.0858 65.3349 11.1373 65.8222 11.2623H65.8242C66.1846 11.3561 66.5207 11.4892 66.8059 11.6706C67.6526 12.2202 68.4809 13.779 68.6637 14.7389C68.6403 14.7389 68.6159 14.7389 68.5926 14.7389C67.8272 14.7389 67.1105 14.6491 66.3816 14.6491C65.871 14.6491 65.3552 14.6935 64.8131 14.8437C63.5432 15.1976 62.6001 15.8561 61.9219 16.7171C61.0997 17.7547 60.656 19.0826 60.4672 20.5184V20.5204C60.4388 20.7301 60.4154 20.9429 60.4002 21.1576C60.1799 23.879 60.3911 26.6135 60.3403 29.3409C60.3058 31.3282 60.12 33.3448 59.5536 35.2414C59.3414 35.9492 59.0764 36.6389 58.7455 37.3063C58.3283 38.1473 57.7892 38.9418 57.1517 39.6426V39.6446C56.1314 40.7688 54.8615 41.648 53.4291 42.0786C53.1539 42.1633 52.8707 42.2298 52.5844 42.2792L51.6373 41.3183V37.5292C51.6332 36.9817 51.617 36.4322 51.5906 35.8837C51.554 35.1597 51.5002 34.4358 51.4302 33.7148C51.8891 33.5535 52.3296 33.3428 52.7469 33.0947C54.1001 32.2841 55.1995 31.0489 55.8411 29.6131C56.0228 29.2048 56.168 28.7803 56.2725 28.3437C56.4411 27.6379 56.505 26.919 56.5121 26.193C56.5101 26.191 56.5101 26.191 56.5121 26.191C56.5212 25.1565 56.4126 24.1129 56.3264 23.0804C56.1944 21.4772 56.1172 19.8559 56.3527 18.2649C56.5903 16.6738 57.1588 15.0988 58.2003 13.8677C59.2754 12.5942 60.9403 11.6777 62.6234 11.2895C63.0427 11.1927 63.464 11.1282 63.8772 11.1C64.0213 11.0909 64.1716 11.0858 64.3259 11.0858ZM64.3259 10.6815C64.1614 10.6815 64.002 10.6876 63.8497 10.6977C63.4203 10.7269 62.9777 10.7944 62.532 10.8973C60.6743 11.3258 58.982 12.3139 57.8897 13.6086C56.8958 14.7832 56.2248 16.3723 55.9507 18.2064C55.7051 19.8599 55.7913 21.5428 55.9213 23.1147L55.9629 23.6067C56.035 24.4466 56.1111 25.3158 56.106 26.1587C56.104 26.1789 56.104 26.198 56.105 26.2172C56.0949 26.9865 56.0208 27.652 55.8756 28.2519C55.7802 28.6532 55.6431 29.0565 55.4685 29.4518C54.8615 30.8099 53.8209 31.9816 52.5367 32.7499C52.1337 32.9899 51.7144 33.1885 51.2931 33.3357C51.1175 33.3982 51.0058 33.5706 51.0241 33.7562C51.0921 34.4529 51.1459 35.1758 51.1835 35.9068C51.2099 36.4584 51.2251 37.0069 51.2302 37.5352V41.3203C51.2302 41.4262 51.2718 41.527 51.3459 41.6027L52.2921 42.5625C52.3692 42.6412 52.4748 42.6846 52.5834 42.6846C52.6058 42.6846 52.6291 42.6825 52.6515 42.6785C52.958 42.6271 53.2595 42.5555 53.5488 42.4658C54.9782 42.0362 56.3294 41.154 57.4532 39.9168C57.4613 39.9077 57.4684 39.8997 57.4745 39.8916C58.1262 39.1707 58.6765 38.361 59.1099 37.4858C59.4368 36.8284 59.718 36.1125 59.9424 35.3593C60.4499 33.6654 60.7047 31.7557 60.7474 29.3499C60.7667 28.3114 60.7474 27.2578 60.7291 26.2384C60.6997 24.5787 60.6692 22.8636 60.8042 21.1919C60.8205 20.9842 60.8418 20.7795 60.8692 20.5769C60.8692 20.5718 60.8702 20.5668 60.8702 20.5607C61.0672 19.0755 61.5281 17.8676 62.2407 16.9702C62.9016 16.1303 63.8041 15.5465 64.9218 15.2359C65.3633 15.1129 65.8273 15.0555 66.3806 15.0555C66.7277 15.0555 67.0709 15.0766 67.4333 15.0988C67.8048 15.122 68.1906 15.1452 68.5916 15.1452H68.6667C68.7865 15.1452 68.9002 15.0908 68.9784 14.998C69.0545 14.9052 69.085 14.7842 69.0636 14.6653C68.8566 13.5803 67.9703 11.9449 67.0282 11.3329C66.7176 11.1353 66.3491 10.981 65.9258 10.8721C65.9197 10.8701 65.9126 10.8691 65.9055 10.867C65.4283 10.745 64.8832 10.6815 64.3259 10.6815Z" fill="#243645"/>
<path d="M59.5535 35.2424C59.3414 35.9502 59.0764 36.6399 58.7455 37.3064C58.3282 38.1483 57.7892 38.9428 57.1517 39.6436C56.9466 39.459 56.7385 39.2443 56.5781 39.0567C56.0543 38.4568 55.6076 38.0444 55.4766 37.2539C55.4178 36.898 55.4299 36.5189 55.5863 36.1932C55.7446 35.8675 56.0725 35.6084 56.437 35.6023C56.9913 35.5923 57.3862 36.1206 57.6521 36.6026C57.8359 36.1277 58.0694 35.6427 58.4907 35.3583C58.7983 35.1506 59.2317 35.0911 59.5535 35.2424Z" fill="white"/>
<path d="M58.1932 27.8879C57.7719 28.6583 57.2593 29.3984 56.6238 30.0104C56.4979 30.1314 56.17 29.9136 55.8411 29.6141C56.0218 29.2058 56.168 28.7813 56.2725 28.3447C56.441 27.6389 56.505 26.92 56.5121 26.194C56.5101 26.192 56.5101 26.192 56.5121 26.192C56.6705 25.8552 56.8786 25.5396 57.1842 25.3329C57.642 25.0214 58.3851 25.0436 58.6105 25.6042C58.9414 26.4269 58.5902 27.169 58.1932 27.8879Z" fill="white"/>
<path d="M61.922 16.7191C61.0997 17.7567 60.656 19.0846 60.4662 20.5204C60.4693 20.5224 60.4662 20.5224 60.4662 20.5224C60.2977 20.7271 60.118 20.9207 59.9292 21.1052C59.7261 21.3008 58.9932 20.6081 58.576 20.1282C58.0521 19.5262 57.6054 19.1138 57.4745 18.3253C57.4176 17.9674 57.4278 17.5873 57.5841 17.2616C57.7425 16.9359 58.0704 16.6768 58.4349 16.6718C58.9891 16.6617 59.3861 17.189 59.65 17.673C59.8337 17.1991 60.0673 16.7121 60.4885 16.4277C60.9464 16.1162 61.6895 16.1404 61.9128 16.701C61.9159 16.705 61.9199 16.7131 61.922 16.7191Z" fill="white"/>
<path d="M65.8222 11.2623C65.4608 11.8592 65.0355 12.4228 64.5319 12.9078C64.3279 13.1034 63.597 12.4107 63.1797 11.9318C62.9787 11.7009 62.7889 11.4992 62.6244 11.2905C63.0437 11.1937 63.465 11.1292 63.8772 11.101C64.467 11.0606 65.1786 11.0969 65.8222 11.2623Z" fill="white"/>
<path d="M59.5241 21.9159C58.8987 25.3229 59.6733 28.8065 59.186 32.2216C59.0003 33.5192 58.2805 35.443 56.5984 34.9248C55.9142 34.714 55.3335 34.218 54.8533 33.7068C54.4584 33.2853 54.1092 32.8205 53.8026 32.3305C53.4727 32.6138 53.1204 32.8729 52.7468 33.0968C52.3296 33.3448 51.89 33.5555 51.4302 33.7169C51.5002 34.4388 51.554 35.1627 51.5906 35.8857C51.6159 36.4342 51.6332 36.9837 51.6372 37.5312V41.3204L52.5844 42.2813C52.8707 42.2318 53.1549 42.1653 53.429 42.0806C54.8614 41.6501 56.1314 40.7708 57.1516 39.6466V39.6446C57.7892 38.9438 58.3282 38.1493 58.7455 37.3074C59.0764 36.6409 59.3414 35.9512 59.5535 35.2434C60.121 33.3468 60.3058 31.3302 60.3403 29.3429C60.391 26.6155 60.1799 23.881 60.4002 21.1596C60.4164 20.9459 60.4388 20.7331 60.4662 20.5224V20.5204C60.5525 19.866 60.6956 19.2368 60.8997 18.644C60.1718 19.5756 59.7444 20.718 59.5241 21.9159Z" fill="#EEE4D1"/>
<path d="M25.2014 41.765C24.6897 41.641 24.1842 41.4534 23.6989 41.2044C22.3528 40.5178 21.1498 39.3653 20.1276 37.7762C19.9103 37.4374 19.6971 37.0916 19.4921 36.7417C18.9855 35.8665 18.5804 35.0518 18.2535 34.2492C18.2515 34.2432 18.2495 34.2381 18.2475 34.2311C17.884 33.3438 17.6231 32.4968 17.4495 31.6448C17.0993 29.9428 17.0902 28.1582 17.1287 26.6387C17.1765 24.7411 17.3196 22.2667 18.0008 19.9537C18.3936 18.6248 18.9672 17.3947 19.6596 16.3955C20.1763 15.6554 20.762 15.0373 21.3996 14.5594C22.0777 14.0482 22.8533 13.6903 23.6421 13.5219C23.9953 13.4462 24.3517 13.4069 24.7009 13.4069C25.1567 13.4069 25.6024 13.4715 26.0237 13.6005C26.3739 13.7064 26.7068 13.8546 27.0144 14.0401C27.0672 14.0714 27.1018 14.1238 27.1109 14.1833L27.1921 14.7389L26.8114 19.9981C26.8064 20.0566 26.7779 20.109 26.7322 20.1443C26.6967 20.1715 26.6531 20.1866 26.6084 20.1866C26.5952 20.1866 26.583 20.1856 26.5698 20.1826C26.1891 20.11 25.8064 19.99 25.4359 19.8731L25.1445 19.7823C24.6329 19.624 24.2075 19.5182 23.7893 19.5182C23.5192 19.5182 23.2766 19.5625 23.0482 19.6563C22.1782 20.0062 21.565 20.9166 21.1722 22.4402C20.96 23.2629 20.8544 24.1028 20.7692 24.7764C20.694 25.3763 20.6473 25.9611 20.627 26.558C20.5712 28.1814 20.7143 29.8591 21.0503 31.543C21.5011 33.8116 22.7203 36.2971 24.0136 37.5897C24.1293 37.7067 24.2461 37.8135 24.3669 37.9113L24.44 37.9738C24.7232 38.2118 25.0775 38.5072 25.3638 38.5072C25.4024 38.5072 25.4379 38.5022 25.4724 38.4901C25.4937 38.483 25.515 38.48 25.5364 38.48C25.5821 38.48 25.6277 38.4951 25.6633 38.5244C25.7181 38.5667 25.7455 38.6333 25.7384 38.7018L25.4541 41.5875C25.4481 41.646 25.4176 41.6984 25.3689 41.7337C25.3343 41.7579 25.2937 41.771 25.2511 41.771C25.2328 41.771 25.2176 41.769 25.2014 41.765Z" fill="#F6CD6C"/>
<path d="M24.7018 13.6086C25.1292 13.6086 25.5546 13.6691 25.9647 13.7941C26.2906 13.8929 26.6063 14.03 26.9098 14.2125L26.9911 14.7681C26.8672 16.5064 26.7342 18.2457 26.6083 19.984C26.1424 19.8952 25.6713 19.7319 25.2033 19.5877C24.7272 19.4405 24.2542 19.3155 23.7892 19.3155C23.5131 19.3155 23.24 19.3588 22.97 19.4687C21.8685 19.9114 21.299 21.1264 20.9731 22.3897C20.7528 23.2428 20.6453 24.1159 20.56 24.7935C20.4869 25.3753 20.4422 25.9621 20.4209 26.5499C20.364 28.2358 20.5193 29.9307 20.8493 31.5813C21.2675 33.6927 22.4208 36.286 23.8674 37.7318C23.9872 37.8528 24.11 37.9638 24.2339 38.0676C24.5557 38.3348 24.9719 38.7089 25.3607 38.7089C25.4196 38.7089 25.4764 38.7008 25.5343 38.6827C25.4054 39.9783 25.378 40.2727 25.249 41.5684C24.7384 41.4464 24.2542 41.2609 23.7912 41.0249C22.4096 40.3221 21.2493 39.1455 20.2991 37.6673C20.0838 37.3326 19.8717 36.9877 19.6686 36.6399V36.6379C19.2108 35.8494 18.7915 35.0307 18.4433 34.1736C18.4413 34.1716 18.4413 34.1716 18.4433 34.1716C18.1053 33.3488 17.8302 32.4938 17.6495 31.6045C17.3175 29.9882 17.2911 28.3054 17.3317 26.6437C17.3886 24.3973 17.5713 22.1296 18.1967 20.0102C18.5692 18.7488 19.1144 17.5379 19.827 16.5104C20.3133 15.8137 20.8787 15.2027 21.5224 14.7197C22.1782 14.2267 22.9192 13.8828 23.6836 13.7195C24.0217 13.6459 24.3628 13.6086 24.7018 13.6086ZM25.5353 38.6817H25.5394H25.5353ZM24.7018 13.2042C24.3384 13.2042 23.9658 13.2446 23.5984 13.3232C22.7811 13.4977 21.9782 13.8697 21.2777 14.397C20.6219 14.8901 20.0209 15.5233 19.493 16.2805C18.7885 17.2969 18.2048 18.5472 17.8068 19.8963C17.1175 22.2314 16.9744 24.7239 16.9257 26.6326C16.8881 28.1642 16.8983 29.962 17.2515 31.6852C17.4272 32.5472 17.6911 33.4033 18.0566 34.2996C18.0606 34.3117 18.0657 34.3228 18.0708 34.3359C18.3966 35.1365 18.7997 35.9482 19.3042 36.8163C19.3083 36.8264 19.3133 36.8355 19.3184 36.8435C19.5245 37.1964 19.7387 37.5443 19.958 37.8841C20.9995 39.5034 22.2279 40.6811 23.6085 41.3849C24.107 41.64 24.6288 41.8336 25.1546 41.9616C25.1871 41.9697 25.2186 41.9727 25.251 41.9727C25.3353 41.9727 25.4176 41.9475 25.4866 41.8991C25.583 41.8305 25.6449 41.7247 25.6561 41.6087L25.7881 40.2727L25.9373 38.7623C25.9424 38.7371 25.9444 38.7089 25.9444 38.6827C25.9444 38.4588 25.7647 38.2783 25.5404 38.2783H25.5384C25.5384 38.2783 25.5373 38.2783 25.5363 38.2783C25.5292 38.2783 25.5211 38.2783 25.515 38.2793C25.4774 38.2814 25.4409 38.2884 25.4064 38.3005C25.3932 38.3045 25.38 38.3066 25.3637 38.3066C25.1526 38.3066 24.8034 38.0142 24.5729 37.8216L24.4978 37.7591C24.3841 37.6633 24.2704 37.5614 24.1608 37.4495C22.8908 36.1801 21.6949 33.737 21.2523 31.5047C20.9183 29.8349 20.7772 28.1733 20.832 26.5651C20.8523 25.9752 20.897 25.3965 20.9671 24.8449C21.0574 24.1371 21.1609 23.3032 21.3701 22.4916C21.7457 21.0346 22.3213 20.1685 23.1253 19.8448C23.3303 19.7611 23.5486 19.7208 23.7912 19.7208C24.1841 19.7208 24.5922 19.8227 25.0836 19.9749L25.3759 20.0666C25.7515 20.1846 26.1403 20.3076 26.5322 20.3822C26.5576 20.3863 26.584 20.3893 26.6093 20.3893C26.6987 20.3893 26.785 20.3611 26.857 20.3056C26.9494 20.236 27.0063 20.1292 27.0144 20.0142L27.1768 17.8101C27.2509 16.8059 27.325 15.8016 27.3971 14.7973C27.3991 14.7681 27.3981 14.7389 27.3941 14.7106L27.3128 14.1551C27.2946 14.0351 27.2245 13.9292 27.121 13.8667C26.7982 13.6731 26.4489 13.5178 26.0845 13.4069C25.6429 13.2728 25.178 13.2042 24.7018 13.2042Z" fill="#243645"/>
<path d="M8.85713 40.6992C7.52218 41.0894 6.18623 41.4786 4.85027 41.8688C4.77718 41.8749 4.69595 41.89 4.60763 41.9172C4.5183 41.9425 4.4239 41.9707 4.32543 41.9989C4.2361 42.0251 4.14979 42.0503 4.06554 42.0745C3.98128 42.0987 3.90311 42.1149 3.83002 42.1209C3.70313 42.127 3.57927 42.0564 3.46151 41.9072C3.34375 41.7579 3.25238 41.5694 3.18944 41.3425C3.13462 41.1449 3.11025 40.9422 3.11431 40.7355C3.11837 40.5309 3.1651 40.3484 3.25341 40.1921C3.40264 39.944 3.73967 39.7061 4.26248 39.4762C4.78529 39.2473 5.39237 39.0315 6.08472 38.8248C6.19232 38.7855 6.29585 38.7532 6.39635 38.729C6.49787 38.7058 6.60244 38.6806 6.71309 38.6554C7.40544 38.4911 8.1181 38.358 8.85003 38.2501C9.58197 38.1422 10.3281 37.993 11.0905 37.8095C11.8925 37.6169 12.6853 37.4445 13.4711 37.2902C14.2558 37.1359 14.9938 36.9736 15.6852 36.8052C15.8557 36.7639 16.0252 36.7226 16.1958 36.6812C16.3663 36.6399 16.5298 36.5945 16.6871 36.5441C16.7328 36.534 16.7775 36.5229 16.8232 36.5118C16.9429 36.4836 17.0566 36.4715 17.1652 36.4785C17.2901 36.4695 17.3754 36.4816 17.4211 36.5128C17.4657 36.5461 17.5257 36.6661 17.6018 36.8758C17.6353 37.1067 17.6708 37.3376 17.7094 37.5695C17.7023 37.7359 17.68 37.872 17.6414 37.9769C17.6018 38.0817 17.549 38.1664 17.483 38.232C17.416 38.2955 17.3297 38.3489 17.2241 38.3913C17.1186 38.4336 16.9917 38.477 16.8424 38.5213C16.814 38.5294 16.7835 38.5395 16.7541 38.5465C16.6851 38.5677 16.615 38.5879 16.546 38.609C16.344 38.6695 16.142 38.728 15.9379 38.7895C15.6212 38.8823 15.3095 38.9791 14.9989 39.0749C14.6892 39.1737 14.3766 39.2685 14.0599 39.3622C13.8426 39.4268 13.6264 39.4883 13.4122 39.5457C13.198 39.6032 12.9756 39.6587 12.7452 39.7151C12.7056 39.7262 12.666 39.7373 12.6265 39.7494C12.5869 39.7615 12.5127 39.7797 12.4011 39.8069C12.2914 39.8331 12.1666 39.8674 12.0275 39.9077C11.8894 39.9481 11.7453 39.9874 11.595 40.0257C11.4448 40.064 11.3108 40.0993 11.192 40.1346C11.1037 40.1598 11.0215 40.184 10.9484 40.2062C10.8743 40.2274 10.8235 40.2495 10.7981 40.2697C10.7636 40.3332 10.7778 40.5016 10.8489 40.7789C10.9179 41.0552 11.0103 41.3687 11.127 41.7186C11.256 42.1038 11.4011 42.4879 11.5626 42.8681C11.723 43.2492 11.8509 43.5234 11.9392 43.6949C12.06 43.6344 12.1849 43.5809 12.3148 43.5305C12.4447 43.4811 12.5777 43.4307 12.7127 43.3793C12.9046 43.3057 13.0975 43.2321 13.2893 43.1585C13.5299 43.0667 13.7675 42.9719 14.001 42.8771C14.2345 42.7824 14.4416 42.6805 14.6202 42.5736C15.5552 42.2177 16.4891 41.8638 17.4231 41.5079C17.5317 41.5623 17.6211 41.6339 17.6911 41.7257C17.7612 41.8174 17.818 41.9183 17.8627 42.0322C17.884 42.0836 17.9033 42.132 17.9226 42.1784C17.9418 42.2248 17.952 42.2772 17.954 42.3347C17.9865 42.5494 17.9642 42.7471 17.887 42.9316C17.8089 43.1171 17.681 43.2482 17.5013 43.3258C17.4729 43.3379 17.4444 43.349 17.416 43.3621C17.3165 43.3924 17.1896 43.4377 17.0363 43.4972C16.883 43.5567 16.7115 43.6273 16.5216 43.708C16.3511 43.7806 16.1795 43.8572 16.0059 43.9389C15.8333 44.0195 15.6679 44.0962 15.5095 44.1708C15.3512 44.2454 15.207 44.3149 15.076 44.3765C14.9461 44.439 14.8436 44.4853 14.7674 44.5196C13.7066 44.9744 12.6467 45.4301 11.5869 45.8859C11.3595 45.9837 11.0549 46.1147 10.6712 46.2801C10.2885 46.4445 9.88447 46.6068 9.46013 46.7661C9.03477 46.9264 8.6206 47.0696 8.21453 47.1976C7.80948 47.3237 7.46634 47.4003 7.18514 47.4265C7.03591 47.4427 6.89583 47.3842 6.76588 47.2491C6.63696 47.115 6.53339 46.9547 6.45726 46.7661C6.39635 46.6189 6.35879 46.4707 6.34458 46.3214C6.32935 46.1732 6.33849 46.0684 6.37098 46.0099C6.40346 45.9504 6.48165 45.8899 6.6055 45.8264C6.73036 45.7629 6.88364 45.6963 7.06739 45.6257C7.25925 45.5531 7.4755 45.4775 7.71711 45.3989C7.95872 45.3202 8.2054 45.2416 8.4602 45.1579C8.71501 45.0742 8.96779 44.9915 9.21752 44.9088C9.46725 44.8282 9.69869 44.7455 9.90984 44.6638C10.1606 44.566 10.3717 44.4722 10.5443 44.3765C10.7179 44.2807 10.8205 44.1919 10.856 44.1093C10.9047 44.0064 10.8966 43.8713 10.8327 43.7009C10.7717 43.5436 10.7139 43.3853 10.656 43.226C10.5403 42.9104 10.4337 42.623 10.3362 42.369C10.2388 42.1149 10.1505 41.8709 10.0743 41.6369C10.051 41.5623 10.0266 41.4887 10.0032 41.4141C9.96772 41.3042 9.92812 41.16 9.88447 40.9836C9.84082 40.8071 9.80529 40.67 9.77585 40.5712C9.76773 40.547 9.76062 40.5218 9.75351 40.4976C9.45302 40.5671 9.15559 40.6327 8.85713 40.6992Z" fill="#243645"/>
<path d="M13.404 35.8615C12.8731 36.043 12.328 36.2315 11.7706 36.4302C11.2133 36.6288 10.6458 36.8113 10.0682 36.9736C9.70171 37.0795 9.28348 37.1834 8.81549 37.2852C8.34649 37.388 7.86225 37.4606 7.35771 37.501C6.8552 37.5413 6.35675 37.5272 5.86135 37.4566C5.36697 37.385 4.90708 37.2247 4.48477 36.9706C4.06246 36.7165 3.69599 36.3555 3.39144 35.8877C3.08689 35.4188 2.87879 34.8129 2.78032 34.0748C2.72753 33.6775 2.75899 33.3287 2.87066 33.0302C2.93461 32.8507 2.97928 32.7166 3.00669 32.6299C3.03309 32.5412 3.05135 32.4575 3.05846 32.3789C3.06658 32.3002 3.06964 32.2034 3.06964 32.0895C3.06964 31.9776 3.07469 31.8132 3.08789 31.5994C3.16403 31.1538 3.27774 30.7757 3.42291 30.4641C3.5691 30.1536 3.75488 29.8672 3.98025 29.6081C4.17516 29.3772 4.44418 29.1806 4.78426 29.0193C5.12434 28.8579 5.50704 28.7319 5.93239 28.6401C6.35876 28.5484 6.81561 28.4849 7.30492 28.4465C7.79423 28.4082 8.29166 28.3901 8.79721 28.3901C9.21039 28.3921 9.66415 28.4002 10.1595 28.4112C10.6549 28.4233 11.1524 28.4637 11.6488 28.5312C12.1462 28.5988 12.6325 28.7016 13.1076 28.8378C13.5827 28.9739 14.0081 29.1624 14.3877 29.4014C14.7674 29.6414 15.0872 29.9398 15.3531 30.2978C15.6191 30.6557 15.7877 31.0953 15.8689 31.6226C15.9409 32.0764 15.9318 32.518 15.8394 32.9546C15.748 33.3912 15.5937 33.7965 15.3724 34.1746C15.1511 34.5517 14.875 34.8875 14.539 35.1829C14.1999 35.4743 13.8243 35.7032 13.404 35.8615ZM3.75487 33.3952C3.72543 33.7521 3.78024 34.0466 3.91628 34.2744C4.05231 34.5023 4.24724 34.6798 4.50103 34.8028C4.75381 34.9258 5.04617 35.0054 5.37508 35.0438C5.70501 35.0821 6.04812 35.0881 6.40546 35.0649C6.7628 35.0417 7.11608 35.0034 7.46834 34.954C7.82162 34.9036 8.14244 34.8451 8.4348 34.7776C8.72717 34.71 8.9779 34.6515 9.18905 34.5981C9.39919 34.5447 9.53624 34.5134 9.59614 34.5033C9.69867 34.4872 9.90273 34.4448 10.2103 34.3773C10.5179 34.3097 10.8692 34.223 11.2651 34.1172C11.661 34.0123 12.0731 33.8852 12.5046 33.737C12.936 33.5888 13.3208 33.4255 13.6598 33.251C13.9989 33.0766 14.2679 32.882 14.4679 32.6702C14.6679 32.4585 14.7329 32.2326 14.6608 31.9856C14.5847 31.6952 14.4141 31.4512 14.1441 31.2486C13.8751 31.0459 13.5553 30.8795 13.1827 30.7505C12.8091 30.6224 12.4031 30.5236 11.9645 30.4571C11.5239 30.3905 11.0996 30.3401 10.6895 30.3078C10.2783 30.2766 9.89765 30.2584 9.54539 30.2564C9.19414 30.2554 8.92104 30.2544 8.7241 30.2544C8.30078 30.2705 7.88457 30.2998 7.47444 30.3451C7.06431 30.3915 6.68362 30.45 6.33136 30.5196C5.97909 30.5891 5.65931 30.6749 5.37202 30.7767C5.08574 30.8785 4.85227 30.9844 4.67462 31.0933C4.53554 31.1729 4.46853 31.2647 4.47157 31.3665C4.47462 31.4704 4.45329 31.6206 4.40964 31.8172C4.29594 32.0491 4.19342 32.2669 4.10002 32.4716C4.0249 32.6471 3.9508 32.8235 3.87771 32.999C3.80664 33.1774 3.76502 33.3095 3.75487 33.3952Z" fill="#243645"/>
<path d="M8.08964 21.7243C7.42065 21.1546 6.75675 20.598 6.09689 20.0606C5.43805 19.5222 4.78124 18.9273 4.13357 18.2709C4.07266 18.2033 3.98939 18.1519 3.88585 18.1197C3.78128 18.0864 3.68384 18.04 3.58943 17.9795C3.49603 17.919 3.41888 17.8262 3.35797 17.6982C3.29706 17.5711 3.2808 17.3856 3.30719 17.1426C3.34679 16.7857 3.47267 16.5024 3.67977 16.2987C3.88787 16.094 4.14065 15.9458 4.43708 15.853C4.7995 15.7471 5.2736 15.7018 5.85732 15.7189C6.44104 15.7361 7.08667 15.7966 7.79425 15.8984C8.5008 16.0002 9.23983 16.1273 10.0103 16.2765C10.7809 16.4257 11.529 16.578 12.2559 16.7323C12.9218 16.8714 13.5431 17.0015 14.1187 17.1204C14.6943 17.2394 15.1877 17.3332 15.5948 17.4007C15.6882 17.4128 15.7917 17.43 15.9095 17.4542C16.0252 17.4774 16.1328 17.5167 16.2303 17.5691C16.3277 17.6216 16.414 17.6881 16.4841 17.7668C16.5541 17.8454 16.5958 17.9472 16.6079 18.0713C16.613 18.1388 16.6018 18.2366 16.5785 18.3627C16.5541 18.4897 16.5155 18.6188 16.4658 18.7508C16.415 18.8829 16.3572 19.0049 16.2902 19.1179C16.2252 19.2308 16.1491 19.3114 16.0648 19.3609C15.7877 19.5363 15.4882 19.6422 15.1664 19.6765C14.8446 19.7107 14.5177 19.7067 14.1847 19.6623C13.8527 19.618 13.5208 19.5565 13.1899 19.4768C12.8579 19.3972 12.5452 19.3296 12.2518 19.2752C11.7148 19.1753 11.1666 19.0755 10.6083 18.9777C10.0489 18.8799 9.50986 18.7892 8.99111 18.7055C8.47135 18.6218 7.98407 18.5542 7.52623 18.5028C7.06941 18.4514 6.67351 18.4231 6.33851 18.4171C6.52327 18.5603 6.72325 18.7246 6.94151 18.9102C7.15977 19.0967 7.37295 19.2762 7.57903 19.4486C7.7851 19.622 7.97799 19.7773 8.1526 19.9154C8.32924 20.0546 8.46121 20.1483 8.54648 20.2008C8.64394 20.2542 8.73733 20.3167 8.83073 20.3883C8.92514 20.4599 9.02158 20.5224 9.12411 20.5748C9.22563 20.6273 9.33729 20.6626 9.46013 20.6807C9.58195 20.6989 9.72001 20.6868 9.87127 20.6464C10.0753 20.6021 10.2307 20.6192 10.3332 20.6958C10.4367 20.7735 10.5058 20.8854 10.5423 21.0316C10.5778 21.1788 10.5788 21.3411 10.5453 21.5206C10.5118 21.7001 10.4591 21.8715 10.388 22.0348C10.2784 22.2678 10.1149 22.4926 9.90172 22.7114C9.68752 22.9312 9.44693 23.148 9.17994 23.3628C8.75864 23.6894 8.31401 23.999 7.84704 24.2904C7.37803 24.5818 6.98923 24.855 6.6796 25.1031C6.85522 25.1111 7.08669 25.1182 7.37601 25.1242C7.66533 25.1303 7.98205 25.1383 8.3272 25.1474C8.67337 25.1565 9.03681 25.1696 9.4175 25.1878C9.79818 25.2059 10.1738 25.222 10.5453 25.2392C10.7199 25.2472 10.9494 25.2513 11.2336 25.2523C11.5179 25.2533 11.8224 25.2523 12.1473 25.2503C12.4721 25.2482 12.8051 25.2503 13.1452 25.2543C13.4863 25.2593 13.801 25.2745 14.0883 25.2987C14.2528 25.3067 14.3979 25.3138 14.5208 25.3198C14.6446 25.3259 14.7502 25.3501 14.8355 25.3924C14.9217 25.4348 14.9806 25.5023 15.0121 25.5961C15.0446 25.6899 15.0466 25.828 15.0202 26.0115C15.006 26.1305 14.8801 26.2263 14.6415 26.3029C14.403 26.3796 14.1076 26.4431 13.7553 26.4925C13.4548 26.5429 13.135 26.5852 12.7939 26.6205C12.4528 26.6548 12.128 26.683 11.8184 26.7022C11.5077 26.7224 11.2326 26.7385 10.99 26.7536C10.7484 26.7687 10.5748 26.7819 10.4712 26.7929C9.57281 26.8797 8.59725 26.9754 7.54554 27.0813C6.49281 27.1862 5.48778 27.2578 4.52844 27.285C4.22897 27.285 3.92949 27.285 3.63103 27.286C3.41379 27.3556 3.24426 27.3495 3.12041 27.2648C2.99656 27.1801 2.90418 27.039 2.84428 26.8413C2.76307 26.6004 2.73465 26.313 2.75698 25.9803C2.78135 25.6485 2.84936 25.4066 2.95798 25.2553C3.05645 25.1182 3.23311 24.9347 3.48589 24.7088C3.7407 24.483 4.03305 24.246 4.364 23.998C4.69494 23.7499 5.05227 23.5029 5.43397 23.2569C5.81669 23.0098 6.1842 22.786 6.53545 22.5813C6.88771 22.3766 7.20443 22.2002 7.48664 22.0479C7.76581 21.8927 7.96782 21.7878 8.08964 21.7243Z" fill="#243645"/>
<path d="M15.0374 16.0849C14.7958 15.9942 14.5299 15.9014 14.2405 15.8077C13.9512 15.7149 13.6375 15.6201 13.2995 15.5253C13.002 15.4417 12.6914 15.357 12.3675 15.2723C12.0437 15.1876 11.7107 15.1039 11.3707 15.0202C10.8671 14.9053 10.3636 14.7842 9.85906 14.6562C9.35452 14.5292 8.86216 14.4021 8.38402 14.2751C7.90486 14.149 7.45412 14.03 7.03079 13.9191C6.60645 13.8082 6.22579 13.7064 5.88774 13.6116C5.62989 13.54 5.46136 13.4826 5.38319 13.4382C5.30401 13.3948 5.26239 13.3535 5.25732 13.3152C5.25123 13.2769 5.25021 13.2436 5.25326 13.2144C5.2563 13.1861 5.20657 13.1428 5.10505 13.0843C5.06952 13.0601 5.0167 13.0369 4.94767 13.0177C4.89792 13.0036 4.85937 12.9895 4.83196 12.9734C4.80455 12.9583 4.77307 12.9159 4.73957 12.8473C4.68272 12.7122 4.69999 12.4107 4.8015 11.9449C4.90302 11.4791 5.04818 10.9578 5.24613 10.3841C5.28877 10.2611 5.33446 10.1391 5.38217 10.0191C5.4309 9.89809 5.47657 9.77609 5.52124 9.65409C5.74255 9.10356 5.96894 8.60447 6.19736 8.15779C6.42577 7.71112 6.61154 7.40763 6.74757 7.2453C6.79528 7.18681 6.87245 7.12933 6.98107 7.07387C7.08969 7.01842 7.18816 7.00934 7.27445 7.04564C7.29374 7.05371 7.32723 7.08295 7.37291 7.13337C7.49168 7.3078 7.50388 7.56391 7.41455 7.90371C7.32521 8.24249 7.20338 8.60949 7.05009 9.00575C6.97903 9.19128 6.90898 9.36874 6.83995 9.53914C6.77092 9.70954 6.7019 9.88802 6.63592 10.0745C6.58008 10.2268 6.52627 10.3801 6.47246 10.5333C6.40749 10.7209 6.35572 10.8892 6.31511 11.0385C6.27552 11.1887 6.25929 11.3168 6.26843 11.4236C6.32731 11.4428 6.38514 11.4619 6.44402 11.4811C6.58209 11.5255 6.76686 11.5789 7.00136 11.6404C7.23587 11.7029 7.48863 11.7634 7.76171 11.8239C8.01957 11.8653 8.27337 11.9167 8.52411 11.9772C8.77486 12.0377 9.00125 12.0921 9.20326 12.1375C9.40427 12.1829 9.63675 12.2363 9.89967 12.2958C9.97886 12.2534 10.057 12.1153 10.1382 11.8804C10.1951 11.7211 10.2479 11.5456 10.2996 11.3561C10.3524 11.1665 10.4144 10.9739 10.4885 10.7773C10.5301 10.6674 10.5758 10.5625 10.6255 10.4617C10.6753 10.3619 10.7291 10.2661 10.7859 10.1764C10.9098 9.99993 11.0194 9.90011 11.1128 9.87389C11.2072 9.84768 11.2925 9.85071 11.3686 9.88096C11.3879 9.88801 11.4062 9.89608 11.4255 9.90314C11.531 9.94549 11.6163 10.014 11.6833 10.1098C11.7503 10.2056 11.7595 10.3821 11.7148 10.6382C11.6833 10.8045 11.6447 10.984 11.599 11.1786C11.5534 11.3732 11.5057 11.5618 11.4549 11.7463C11.4051 11.9308 11.3534 12.1042 11.3036 12.2686C11.2519 12.4319 11.2072 12.568 11.1717 12.6759C11.3321 12.7294 11.4935 12.7828 11.6549 12.8372C11.8498 12.9018 12.0437 12.9663 12.2335 13.0298C12.4234 13.0934 12.6183 13.1518 12.8173 13.2053C13.003 13.2678 13.1837 13.3253 13.3624 13.3767C13.54 13.4301 13.7218 13.4876 13.9065 13.5491C14.0923 13.6116 14.271 13.6751 14.4446 13.7387C14.6192 13.8032 14.7989 13.8657 14.9836 13.9272C15.0902 13.9635 15.1978 13.9988 15.3054 14.0351C15.412 14.0714 15.4912 14.0815 15.5379 14.0674C15.5866 14.0532 15.6364 13.9887 15.6861 13.8738C15.7714 13.6257 15.8465 13.3918 15.9115 13.171C15.9754 12.9512 16.0485 12.7334 16.1308 12.5196C16.213 12.3059 16.3064 12.1052 16.4089 11.9177C16.5135 11.7301 16.6414 11.5446 16.7977 11.3611C17.0139 11.1161 17.1946 11.0264 17.3358 11.0879C17.4017 11.1161 17.4545 11.1756 17.4931 11.2663C17.5926 11.5053 17.5997 11.7876 17.5205 12.1173C17.4413 12.447 17.3419 12.7667 17.2231 13.0782C17.1754 13.2033 17.1276 13.3243 17.0779 13.4422C17.0292 13.5612 16.9876 13.6671 16.9541 13.7608C16.9145 13.8707 16.8759 13.9807 16.8373 14.0906C16.7673 14.2892 16.7185 14.4485 16.6891 14.5675C16.6607 14.6864 16.6363 14.7893 16.6191 14.877C16.6018 14.9647 16.5886 15.0474 16.5795 15.1261C16.5703 15.2047 16.55 15.2955 16.5165 15.4013C16.4638 15.5697 16.4089 15.6796 16.35 15.732C16.2912 15.7845 16.216 15.854 16.1257 15.9428C15.9572 16.1132 15.8059 16.213 15.6699 16.2372C15.5338 16.2634 15.4161 16.2624 15.3166 16.2352C15.2374 16.213 15.1745 16.1868 15.1298 16.1565C15.0841 16.1253 15.0537 16.1021 15.0374 16.0849Z" fill="#243645"/>
<path d="M36.014 49.0751C34.1318 49.0751 32.3969 48.9682 30.7107 48.7484C30.5402 48.7262 30.3686 48.701 30.1991 48.6748C29.4905 48.5679 28.8824 48.4368 28.3393 48.2745C27.0033 47.8843 25.9922 47.3025 25.2511 46.4949C23.8228 44.931 23.6116 42.7521 23.5883 41.0269C23.5802 40.544 23.5883 40.06 23.6035 39.5851C23.6218 38.961 23.6421 38.3388 23.6645 37.7238C23.7386 35.6084 23.833 33.5959 23.9538 31.5712C24.0248 30.3582 24.106 29.1533 24.1974 27.9555C24.4096 25.1202 24.6725 22.3756 25.0004 19.5645C25.2217 17.6589 25.4785 15.7068 25.7628 13.7639C25.9699 12.3301 26.1983 10.8771 26.443 9.39596C26.4582 9.30219 26.5374 9.23161 26.6328 9.22656L29.8813 9.04103C34.0395 9.04103 38.2463 8.65486 42.3161 8.28079C43.9485 8.13055 45.5819 7.98032 47.2143 7.85328C47.3737 7.84017 47.5391 7.82908 47.7036 7.82908C48.0031 7.82908 48.4436 7.86033 48.801 8.1356C49.2791 8.50161 49.3959 9.15397 49.473 9.58552C50.8476 17.312 52.0171 25.214 52.948 33.0726C53.0657 34.0697 53.1804 35.069 53.2921 36.0662C53.5195 38.117 53.7154 40.1205 53.6311 42.0887C53.5824 43.2522 53.4403 44.3059 53.1936 45.3101C53.0627 45.8395 52.888 46.387 52.4982 46.7994C51.95 47.3801 51.14 47.5425 50.2872 47.6685C45.6367 48.3602 40.8269 49.0751 36.014 49.0751Z" fill="#F6CD6C"/>
<path d="M47.7055 8.03073C48.0578 8.03073 48.404 8.08519 48.6781 8.29491C49.073 8.5974 49.1867 9.1338 49.274 9.6208C50.6597 17.4108 51.817 25.2402 52.7469 33.0958C52.8646 34.0919 52.9793 35.0912 53.091 36.0873C53.3113 38.0757 53.5143 40.0912 53.4291 42.0796C53.3844 43.1514 53.2534 44.2141 52.9976 45.2617C52.8727 45.7649 52.7103 46.2801 52.352 46.6582C51.8302 47.2128 51.015 47.356 50.2587 47.4679C45.5412 48.1686 40.7669 48.8734 36.0128 48.8734C34.2515 48.8734 32.4912 48.7756 30.7381 48.5478C30.5685 48.5266 30.4 48.5014 30.2305 48.4752C29.6143 48.3824 28.995 48.2584 28.3991 48.0809C27.257 47.7472 26.1962 47.2229 25.4023 46.3578C24.111 44.9451 23.8187 42.976 23.7923 41.0249C23.7841 40.544 23.7923 40.063 23.8075 39.5911C23.8258 38.967 23.8461 38.3469 23.8684 37.7319C23.9415 35.6356 24.0379 33.5949 24.1577 31.5833C24.2288 30.3704 24.31 29.1675 24.4014 27.9706C24.6115 25.1646 24.8765 22.3928 25.2033 19.5867C25.4257 17.678 25.6784 15.7542 25.9647 13.7931C26.1718 12.3593 26.4002 10.9084 26.6449 9.42822L29.8934 9.24169C35.686 9.24169 41.4541 8.50261 47.2304 8.05292C47.3857 8.04183 47.5462 8.03073 47.7055 8.03073ZM47.7055 7.62641C47.535 7.62641 47.3634 7.63751 47.198 7.65163C45.5656 7.77766 43.9068 7.93091 42.3028 8.07812C38.2371 8.45219 34.0323 8.83837 29.8934 8.83837L26.6205 9.02491C26.4297 9.036 26.2733 9.17615 26.2429 9.3637C25.9789 10.9568 25.7566 12.3865 25.5617 13.7356C25.2785 15.6725 25.0216 17.6256 24.7983 19.5403C24.4704 22.3535 24.2075 25.102 23.9953 27.9404C23.9029 29.1382 23.8207 30.3562 23.7506 31.5591C23.6308 33.5737 23.5354 35.5872 23.4613 37.7167C23.439 38.3308 23.4187 38.9529 23.3994 39.578C23.3821 40.1437 23.3781 40.6055 23.3852 41.031C23.4085 42.7884 23.6258 45.0147 25.1008 46.628C25.8673 47.4638 26.9078 48.0658 28.2833 48.4671C28.8366 48.6325 29.4539 48.7645 30.1685 48.8724C30.3381 48.8986 30.5106 48.9238 30.6832 48.946C32.3785 49.1679 34.1226 49.2757 36.0118 49.2757C40.846 49.2757 45.661 48.5588 50.3186 47.8661C51.2069 47.7351 52.0535 47.5647 52.6484 46.9325C53.0687 46.4898 53.2545 45.9121 53.3905 45.3565C53.6392 44.3402 53.7844 43.2734 53.8341 42.0947C53.9194 40.1134 53.7224 38.1009 53.494 36.042C53.3824 35.0438 53.2677 34.0445 53.1499 33.0463C52.219 25.1827 51.0495 17.2767 49.6739 9.54821C49.5907 9.08541 49.4648 8.38666 48.9258 7.97225C48.5207 7.66271 48.0355 7.62641 47.7055 7.62641Z" fill="#243645"/>
<path d="M32.4598 13.7528C32.4232 13.6398 32.3613 13.5461 32.2689 13.4876C31.9197 13.2718 31.3421 13.6005 31.0832 13.8254C30.9045 13.9807 30.4274 14.5624 30.5868 14.8347C30.3929 14.5019 30.1878 14.1591 29.8711 13.9373C29.5544 13.7155 29.0914 13.6499 28.7899 13.8899C28.4752 14.14 28.4478 14.6048 28.5097 15C28.6641 15.9992 29.266 16.9027 30 17.5812C30.5167 18.0582 30.6964 17.8081 31.0862 17.2949C31.4162 16.8623 31.673 16.3804 31.9268 15.9014C32.1237 15.5314 32.3237 15.1563 32.4283 14.749C32.4902 14.506 32.5613 14.0593 32.4598 13.7528Z" fill="white"/>
<path d="M30.9665 23.0038C31.004 22.8909 31.065 22.7971 31.1573 22.7386C31.5066 22.5228 32.0842 22.8525 32.3431 23.0764C32.5217 23.2316 32.9988 23.8134 32.8395 24.0857C33.0334 23.7529 33.2384 23.4091 33.5552 23.1873C33.8719 22.9655 34.3348 22.8999 34.6363 23.1409C34.952 23.391 34.9784 23.8548 34.9165 24.251C34.7622 25.2502 34.1602 26.1537 33.4262 26.8322C32.9095 27.3092 32.7298 27.0591 32.34 26.5459C32.0101 26.1133 31.7532 25.6314 31.4995 25.1535C31.3025 24.7824 31.1025 24.4073 30.9979 24.001C30.936 23.757 30.8639 23.3103 30.9665 23.0038Z" fill="white"/>
<path d="M36.3123 18.1348C36.2768 17.7758 36.3113 17.3977 36.49 17.0831C36.6697 16.7675 37.0128 16.5306 37.3752 16.5467C37.9295 16.5719 38.2909 17.1225 38.5254 17.6216C38.7386 17.1598 39.0025 16.6899 39.4411 16.4308C39.9182 16.1495 40.6572 16.22 40.8471 16.7927C41.1232 17.6326 40.7263 18.3515 40.2857 19.0453C39.8147 19.7863 39.2553 20.4932 38.5822 21.0649C38.367 21.2474 37.6808 20.5093 37.295 20.0041C36.8118 19.3709 36.3915 18.9313 36.3123 18.1348Z" fill="white"/>
<path d="M39.705 42.9286C39.6695 42.5686 39.704 42.1915 39.8827 41.8759C40.0613 41.5613 40.4045 41.3234 40.7679 41.3395C41.3222 41.3647 41.6825 41.9152 41.9181 42.4143C42.1312 41.9535 42.3952 41.4827 42.8338 41.2246C43.3109 40.9422 44.0499 41.0128 44.2387 41.5855C44.5159 42.4254 44.119 43.1443 43.6784 43.837C43.2063 44.5791 42.648 45.2859 41.9749 45.8566C41.7597 46.0391 41.0735 45.3011 40.6877 44.7959C40.2055 44.1657 39.7842 43.7241 39.705 42.9286Z" fill="white"/>
<path d="M26.9352 30.3623C26.4652 31.1044 25.9048 31.8122 25.2338 32.3819C25.0521 32.5331 24.5435 32.0421 24.1567 31.5833C24.2278 30.3704 24.309 29.1675 24.4004 27.9706C24.7486 28.1582 24.9973 28.5625 25.1739 28.9386C25.3881 28.4778 25.6531 28.0059 26.0896 27.7478C26.5688 27.4665 27.3068 27.5381 27.4966 28.1098C27.7737 28.9517 27.3779 29.6696 26.9352 30.3623Z" fill="white"/>
<path d="M48.9572 25.1383C48.9928 24.7784 48.9582 24.4013 48.7796 24.0857C48.6009 23.7701 48.2578 23.5331 47.8944 23.5493C47.3401 23.5745 46.9797 24.125 46.7442 24.6241C46.531 24.1633 46.2671 23.6934 45.8285 23.4333C45.3514 23.152 44.6123 23.2226 44.4235 23.7953C44.1464 24.6362 44.5433 25.3541 44.9839 26.0478C45.4559 26.7889 46.0143 27.4967 46.6873 28.0674C46.9026 28.2499 47.5888 27.5118 47.9745 27.0067C48.4568 26.3745 48.877 25.9339 48.9572 25.1383Z" fill="white"/>
<path d="M31.6182 46.1228C31.538 46.9194 31.1187 47.361 30.6345 47.9932C30.5208 48.1424 30.3797 48.3118 30.2314 48.4742C29.6152 48.3814 28.996 48.2574 28.4001 48.0799C28.125 47.7462 27.8742 47.3943 27.6448 47.0343C27.2042 46.3406 26.8063 45.6217 27.0844 44.7808C27.2722 44.2091 28.0103 44.1375 28.4894 44.4198C28.929 44.68 29.1909 45.1498 29.4051 45.6106C29.6386 45.1115 30.001 44.561 30.5553 44.5368C30.9187 44.5186 31.2608 44.7576 31.4405 45.0732C31.6192 45.3858 31.6537 45.7639 31.6182 46.1228Z" fill="white"/>
<path d="M42.6267 32.2004C42.6632 31.8404 42.6287 31.4623 42.449 31.1467C42.2703 30.8321 41.9272 30.5942 41.5638 30.6113C41.0105 30.6365 40.6491 31.187 40.4136 31.6861C40.2014 31.2254 39.9365 30.7545 39.4979 30.4954C39.0208 30.214 38.2828 30.2836 38.0929 30.8563C37.8168 31.6972 38.2127 32.4162 38.6543 33.1089C39.1253 33.8499 39.6837 34.5567 40.3567 35.1284C40.572 35.3109 41.2592 34.5719 41.645 34.0677C42.1272 33.4355 42.5475 32.9959 42.6267 32.2004Z" fill="white"/>
<path d="M33.143 37.9123C33.2211 37.5594 33.2313 37.1803 33.0912 36.8466C32.9511 36.5128 32.6384 36.2376 32.275 36.2103C31.7217 36.171 31.2974 36.6752 31.006 37.143C30.8497 36.66 30.6426 36.163 30.2375 35.8554C29.796 35.5197 29.0539 35.5025 28.7991 36.05C28.4245 36.8526 28.7341 37.6119 29.0894 38.3519C29.4691 39.1435 29.9401 39.9097 30.5411 40.556C30.733 40.7627 31.5014 40.1114 31.9451 39.6536C32.5014 39.0819 32.9704 38.6937 33.143 37.9123Z" fill="white"/>
<path d="M47.3036 37.749C47.2447 37.3921 47.2548 37.014 47.4132 36.6873C47.5705 36.3616 47.8984 36.1025 48.2619 36.0964C48.8172 36.0863 49.2131 36.6137 49.478 37.0956C49.6618 36.6227 49.8942 36.1367 50.3166 35.8514C50.7744 35.5398 51.5165 35.564 51.7418 36.1236C52.0718 36.9444 51.7206 37.6875 51.3257 38.4074C50.9033 39.1777 50.3907 39.9178 49.7552 40.5299C49.5531 40.7255 48.8202 40.0328 48.403 39.5518C47.8812 38.9509 47.4335 38.5385 47.3036 37.749Z" fill="white"/>
<path d="M23.2421 15.9266C22.8187 16.697 22.3081 17.437 21.6726 18.0491C21.4695 18.2457 20.7366 17.552 20.3194 17.0731C20.1438 16.8734 19.9773 16.6909 19.8291 16.5104C20.3153 15.8137 20.8808 15.2027 21.5244 14.7197C22.1802 14.2267 22.9212 13.8828 23.6867 13.7195C23.9659 14.511 23.6248 15.2289 23.2421 15.9266Z" fill="white"/>
<path d="M20.9742 22.3897C20.7539 23.2428 20.6463 24.1159 20.561 24.7935C20.4879 25.3753 20.4433 25.9621 20.4219 26.5499C20.1235 26.3523 19.7407 25.9722 19.4798 25.6727C18.9581 25.0718 18.5114 24.6574 18.3804 23.8689C18.3216 23.511 18.3317 23.1329 18.4901 22.8072C18.6464 22.4815 18.9753 22.2234 19.3388 22.2153C19.893 22.2073 20.29 22.7336 20.5539 23.2165C20.6666 22.9292 20.7945 22.6378 20.9742 22.3897Z" fill="white"/>
<path d="M20.1011 35.9179C19.9661 36.1619 19.825 36.4029 19.6697 36.6379C19.2118 35.8494 18.7926 35.0307 18.4444 34.1736C18.4423 34.1716 18.4423 34.1716 18.4444 34.1716C18.6007 33.853 18.8007 33.5596 19.092 33.3629C19.5519 33.0514 20.293 33.0746 20.5184 33.6342C20.8473 34.4569 20.497 35.198 20.1011 35.9179Z" fill="white"/>
<path d="M44.0235 14.7641C43.9443 14.4112 43.9321 14.0321 44.0722 13.6983C44.2113 13.3646 44.5219 13.0873 44.8854 13.0601C45.4386 13.0187 45.865 13.5219 46.1584 13.9887C46.3127 13.5057 46.5178 13.0076 46.9228 12.6981C47.3624 12.3613 48.1045 12.3422 48.3613 12.8887C48.739 13.6903 48.4314 14.4505 48.0791 15.1916C47.7014 15.9841 47.2325 16.7524 46.6335 17.4007C46.4427 17.6074 45.6711 16.9571 45.2265 16.5024C44.6702 15.9317 44.1991 15.5455 44.0235 14.7641Z" fill="white"/>
<path d="M53.091 36.0873C52.9793 35.0911 52.8646 34.0919 52.7468 33.0957C51.817 25.2392 50.6607 17.4098 49.2739 9.62079C49.1866 9.13378 49.073 8.59739 48.6781 8.2949C48.2801 7.98939 47.7289 8.01459 47.2304 8.05492C46.7837 8.0892 46.3361 8.12651 45.8894 8.16382C46.7025 11.6646 47.2873 15.2259 47.534 18.8113C47.7918 22.5642 47.6822 26.3785 46.8843 30.0658C46.1432 33.4991 44.7687 36.9928 42.3465 39.6093C40.0989 42.0352 37.0341 43.469 33.8028 44.076C30.6406 44.6689 27.387 44.568 24.2034 44.1788C24.447 44.9824 24.8237 45.7265 25.4023 46.3587C26.1962 47.2239 27.257 47.7482 28.3991 48.0819C28.995 48.2594 29.6132 48.3834 30.2304 48.4762C30.4 48.5024 30.5685 48.5276 30.738 48.5487C37.2229 49.3957 43.792 48.4318 50.2587 47.4699C51.0139 47.359 51.8301 47.2148 52.3519 46.6602C52.7103 46.2821 52.8727 45.7669 52.9976 45.2637C53.2534 44.2161 53.3844 43.1524 53.429 42.0816C53.5143 40.0912 53.3113 38.0757 53.091 36.0873Z" fill="#EEE4D1"/>
<path d="M38.5133 11.7685C32.2253 11.7685 27.6307 10.2812 26.3719 9.82548C26.2237 9.77205 26.1059 9.65206 26.0551 9.50586C26.0105 9.37881 26.0247 9.24875 26.0917 9.13884C28.2327 5.69453 33.1623 5.21559 34.6222 5.15106C35.2648 5.12283 35.9601 5.10872 36.6839 5.10872C38.9823 5.10872 41.4786 5.25089 43.3627 5.48885C47.0742 5.95669 49.1898 7.1495 49.8314 9.13381C49.8578 9.2175 49.8273 9.30824 49.7563 9.35967C47.0833 11.2805 43.3282 11.6455 39.6675 11.7523C39.2777 11.7624 38.8929 11.7685 38.5133 11.7685Z" fill="#F27C88"/>
<path d="M36.6818 5.31038C38.903 5.31038 41.3861 5.44247 43.3403 5.68849C46.1046 6.03736 48.8913 6.87221 49.6405 9.19531C46.9675 11.1171 43.1799 11.4468 39.6644 11.5497C39.2746 11.5608 38.8919 11.5668 38.5142 11.5668C32.2029 11.5668 27.5849 10.0493 26.4439 9.63493C26.2845 9.57745 26.1779 9.3879 26.2672 9.24473C27.9108 6.601 31.5552 5.48885 34.6332 5.35274C35.2708 5.3235 35.9631 5.31038 36.6818 5.31038ZM36.6818 4.90606C35.9469 4.90606 35.2525 4.92018 34.616 4.94841C33.1308 5.01395 28.1159 5.50296 25.9221 9.03196C25.8216 9.19228 25.8013 9.3889 25.8652 9.57342C25.9353 9.77608 26.0998 9.94144 26.3048 10.015C27.5697 10.4738 32.1907 11.9701 38.5142 11.9701C38.8959 11.9701 39.2827 11.9651 39.6766 11.953C43.3708 11.8451 47.1635 11.4751 49.88 9.522C50.0232 9.41915 50.0821 9.23765 50.0283 9.07129C49.3613 7.0043 47.1898 5.76714 43.3911 5.28719C41.4968 5.04924 38.9883 4.90606 36.6818 4.90606Z" fill="#243645"/>
<g opacity="0.3">
<path opacity="0.3" d="M27.6438 9.36872C27.8712 8.78795 28.3727 8.35641 28.8742 8.00754C29.8426 7.33401 30.9928 6.8712 32.1146 6.51931C34.015 5.92341 36.022 5.74193 38.0056 5.73083C38.9995 5.72579 39.9912 5.77721 40.9861 5.80242C41.981 5.82763 42.9779 5.86493 43.9697 5.94963C44.6123 6.00508 45.2508 6.08474 45.8843 6.19061C45.0762 5.95467 44.2073 5.79737 43.3393 5.68746C40.7526 5.36078 37.2402 5.23576 34.6332 5.35171C31.5552 5.48783 27.9108 6.60098 26.2672 9.2437C26.1779 9.38688 26.2845 9.57643 26.4439 9.6339C26.6763 9.71759 27.0519 9.84767 27.5555 10.0009C27.5362 9.79625 27.5606 9.58349 27.6438 9.36872Z" fill="#BBBDBF"/>
</g>
<path d="M36.023 6.35899C35.5783 5.81956 35.4352 5.04923 35.6575 4.38679C35.8808 3.72535 36.4615 3.195 37.1437 3.02964C39.0299 2.57289 40.4014 3.69107 40.3171 5.55842C40.2978 5.97484 40.2369 6.42655 39.9375 6.71795" fill="#F27C88"/>
<path d="M36.023 6.35899C35.5783 5.81956 35.4352 5.04923 35.6575 4.38679C35.8808 3.72535 36.4615 3.195 37.1437 3.02964C39.0299 2.57289 40.4014 3.69107 40.3171 5.55842C40.2978 5.97484 40.2369 6.42655 39.9375 6.71795" stroke="#243645" stroke-width="0.401" stroke-miterlimit="10" stroke-linecap="round" stroke-linejoin="round"/>
</svg>
