<svg width="200" height="195" viewBox="0 0 200 195" fill="none" xmlns="http://www.w3.org/2000/svg">
<path d="M149.47 59.2757C149.47 59.0336 149.263 58.8206 149.016 58.8255C148.749 58.8303 148.497 58.9542 148.364 59.1905C148.3 59.3037 148.261 59.4441 148.26 59.5748C148.259 59.8207 148.468 60.026 148.714 60.026C148.917 60.026 149.091 59.8885 149.147 59.7036C149.332 59.6465 149.47 59.479 149.47 59.2757Z" fill="#333333"/>
<path d="M160.514 40.2165C159.928 40.2165 159.928 41.1178 160.514 41.1178C161.1 41.1178 161.099 40.2165 160.514 40.2165Z" fill="#333333"/>
<path d="M156.052 83.2493C155.839 83.1457 155.603 83.137 155.37 83.136C155.123 83.136 154.916 83.3413 154.916 83.5872C154.916 83.8321 155.123 84.0364 155.37 84.0374C155.426 84.0374 155.481 84.0374 155.537 84.0393C155.542 84.0393 155.548 84.0403 155.554 84.0403C155.617 84.2117 155.777 84.3375 155.976 84.3375C156.216 84.3375 156.44 84.1332 156.43 83.8873C156.42 83.6211 156.3 83.3703 156.052 83.2493Z" fill="#333333"/>
<path d="M190.79 86.269C190.545 86.0347 190.214 85.8421 189.864 85.8372C189.617 85.8343 189.41 86.0444 189.41 86.2884C189.41 86.5314 189.609 86.7279 189.85 86.7376C189.874 86.7424 189.898 86.7492 189.918 86.756C189.926 86.7579 189.938 86.7628 189.948 86.7666C189.968 86.7773 189.99 86.787 190.009 86.7996C190.041 86.818 190.074 86.8402 190.105 86.8625C190.03 86.8073 190.143 86.9032 190.148 86.907C190.325 87.0765 190.612 87.0833 190.789 86.907C190.963 86.7347 190.969 86.4394 190.79 86.269Z" fill="#333333"/>
<path d="M94.8554 52.8229C94.2698 52.8229 94.2698 53.7233 94.8554 53.7233C95.441 53.7233 95.441 52.8229 94.8554 52.8229Z" fill="#333333"/>
<path d="M78.5163 8.40363C77.9307 8.40363 77.9307 9.30402 78.5163 9.30402C79.102 9.30402 79.101 8.40363 78.5163 8.40363Z" fill="#333333"/>
<path d="M19.5144 3.00128H18.9092C18.6622 3.00128 18.4553 3.20556 18.4553 3.45147C18.4553 3.69739 18.6622 3.90168 18.9092 3.90168H19.5144C19.7623 3.90168 19.9682 3.69739 19.9682 3.45147C19.9682 3.20556 19.7623 3.00128 19.5144 3.00128Z" fill="#333333"/>
<path d="M1.0758 51.1538C0.901093 50.9795 0.608296 50.9795 0.434559 51.1538L0.131034 51.4539C-0.0436781 51.6282 -0.0436781 51.9177 0.131034 52.091C0.305747 52.2643 0.59852 52.2643 0.773233 52.091L1.0758 51.7899C1.25149 51.6175 1.25149 51.3271 1.0758 51.1538Z" fill="#333333"/>
<path d="M28.5955 72.7602C30.0761 71.0166 31.7159 69.0735 30.8443 66.6589C30.777 66.4701 30.6208 66.3258 30.407 66.3287C29.4456 66.3394 28.4891 66.5698 27.7805 67.2485C27.4721 67.5438 27.2593 67.9088 27.1227 68.3038C26.3848 67.9504 25.6215 67.6503 24.8875 67.2901C24.6727 67.1856 24.3897 67.2253 24.2667 67.4518C23.9495 68.0366 23.7309 68.6843 23.8187 69.3552C23.9017 69.9894 24.2199 70.5228 24.6435 70.9933C25.5775 72.037 26.9265 72.6721 28.0606 73.4699C28.5086 73.7855 28.9351 73.1185 28.5955 72.7602ZM24.7587 69.4637C24.6415 69.0638 24.7196 68.6552 24.8729 68.2757C25.3365 68.4868 25.8069 68.6843 26.2696 68.8953C26.4931 68.998 26.7147 69.1016 26.9343 69.2119C26.9333 69.2323 26.9342 69.2526 26.9362 69.2729C26.9323 69.3417 26.9294 69.4104 26.9284 69.4791C26.9216 70.0058 27.6692 70.0542 27.8117 69.6244C28.0762 69.576 28.2842 69.4249 28.1846 69.0648C28.1475 68.9302 28.0538 68.8237 27.9367 68.7346C28.0274 68.4219 28.1807 68.1315 28.4218 67.8836C28.8493 67.4441 29.4701 67.2853 30.0733 67.2407C30.5632 69.208 29.0796 70.8065 27.8498 72.2462C27.0748 71.7475 26.2774 71.2761 25.5922 70.6623C25.2233 70.3321 24.8992 69.9448 24.7587 69.4637Z" fill="#333333"/>
<path d="M138.72 101.883C140.2 100.141 141.84 98.1977 140.97 95.7831C140.902 95.5943 140.745 95.45 140.532 95.452C139.569 95.4626 138.614 95.6921 137.904 96.3707C137.595 96.667 137.383 97.033 137.248 97.426C136.509 97.0746 135.747 96.7735 135.012 96.4133C134.796 96.3078 134.515 96.3494 134.391 96.575C134.073 97.1598 133.855 97.8065 133.943 98.4794C134.027 99.1136 134.344 99.646 134.768 100.118C135.703 101.16 137.052 101.795 138.185 102.593C138.634 102.91 139.061 102.242 138.72 101.883ZM134.884 98.5878C134.766 98.187 134.844 97.7775 134.997 97.3999C135.461 97.6109 135.931 97.8065 136.395 98.0195C136.617 98.1212 136.839 98.2248 137.059 98.3342C137.058 98.3555 137.059 98.3768 137.062 98.3961C137.057 98.4649 137.055 98.5346 137.053 98.6023C137.047 99.129 137.795 99.1784 137.937 98.7485C138.202 98.6992 138.409 98.5481 138.309 98.187C138.272 98.0534 138.178 97.9469 138.062 97.8579C138.151 97.5451 138.306 97.2537 138.545 97.0068C138.975 96.5673 139.595 96.4085 140.198 96.3649C140.687 98.3313 139.204 99.9307 137.974 101.369C137.199 100.871 136.402 100.4 135.717 99.7855C135.348 99.4563 135.024 99.0681 134.884 98.5878Z" fill="#333333"/>
<path d="M184.796 28.1502C186.277 26.4066 187.917 24.4635 187.046 22.0489C186.978 21.8601 186.821 21.7158 186.608 21.7178C185.645 21.7284 184.69 21.9579 183.98 22.6385C183.673 22.9328 183.459 23.2988 183.324 23.6938C182.585 23.3404 181.823 23.0403 181.088 22.6801C180.872 22.5755 180.591 22.6153 180.467 22.8408C180.149 23.4256 179.931 24.0743 180.019 24.7452C180.102 25.3794 180.421 25.9118 180.843 26.3833C181.778 27.427 183.128 28.0621 184.261 28.8599C184.711 29.1765 185.136 28.5094 184.796 28.1502ZM180.96 24.8546C180.842 24.4547 180.92 24.0443 181.073 23.6667C181.537 23.8777 182.008 24.0752 182.47 24.2863C182.694 24.388 182.915 24.4925 183.136 24.6029C183.134 24.6232 183.136 24.6435 183.138 24.6639C183.133 24.7316 183.131 24.8014 183.128 24.8691C183.123 25.3968 183.87 25.4452 184.012 25.0153C184.278 24.9669 184.485 24.8149 184.386 24.4538C184.348 24.3202 184.254 24.2146 184.138 24.1256C184.227 23.8119 184.382 23.5224 184.622 23.2746C185.05 22.8341 185.672 22.6753 186.274 22.6317C186.763 24.599 185.28 26.1975 184.051 27.6361C183.275 27.1385 182.478 26.667 181.794 26.0532C181.424 25.723 181.099 25.3358 180.96 24.8546Z" fill="#333333"/>
<path d="M54.6315 136.391C54.5388 136.315 54.4481 136.241 54.3553 136.166C55.1625 134.572 55.5764 132.434 54.3309 130.984C53.8966 130.476 53.2417 130.296 52.6248 130.556C52.1153 130.77 51.8205 131.297 51.6448 131.842C51.311 131.549 50.9079 131.326 50.5458 131.2C50.0695 131.035 49.5288 131.074 49.0964 131.335C48.5205 131.68 48.258 132.367 48.1252 132.988C48.0862 133.169 48.1428 133.414 48.3341 133.496C50.1047 134.256 51.7317 135.268 53.2495 136.437C53.27 136.688 53.5286 136.874 53.7736 136.852C53.8468 136.911 53.9181 136.968 53.9913 137.028C54.4373 137.395 55.0825 136.762 54.6315 136.391ZM50.3604 132.088C50.6424 132.187 50.8953 132.386 51.1041 132.593C51.2174 132.704 51.2788 132.784 51.3598 132.917C51.3676 132.93 51.4096 133.021 51.4174 133.031C51.4233 133.05 51.4291 133.066 51.434 133.085C51.435 133.089 51.436 133.091 51.437 133.095C51.437 133.099 51.437 133.103 51.437 133.108C51.4575 133.687 52.3662 133.69 52.3447 133.108C52.3437 133.05 52.3369 132.992 52.3271 132.936C52.3271 132.932 52.3281 132.93 52.3291 132.928C52.4081 132.41 52.5516 131.651 53.0006 131.375C53.1236 131.3 53.1646 131.298 53.3285 131.347C53.433 131.378 53.6077 131.507 53.7248 131.661C54.574 132.778 54.2118 134.378 53.6272 135.595C52.2178 134.525 50.7205 133.584 49.0993 132.854C49.2984 132.256 49.6625 131.847 50.3604 132.088Z" fill="#333333"/>
<path d="M126.716 153.89C126.649 153.752 126.473 153.666 126.324 153.667C125.72 153.674 125.125 153.76 124.667 154.183C124.519 154.32 124.401 154.486 124.299 154.663C123.819 154.069 123.153 153.642 122.348 153.662C121.524 153.681 120.789 154.184 120.36 154.861C119.876 155.626 119.898 156.567 120.283 157.363C120.829 158.491 122.072 159.146 123.219 159.562C122.898 159.937 123.499 160.487 123.923 160.138C124.889 159.338 125.87 158.515 126.546 157.445C127.246 156.329 127.285 155.065 126.716 153.89ZM123.946 158.945C123.897 158.876 123.821 158.818 123.721 158.784C122.755 158.458 121.703 157.97 121.155 157.07C120.816 156.516 120.821 155.903 121.093 155.398C121.346 154.93 121.834 154.599 122.3 154.563C122.593 154.54 122.811 154.598 123.069 154.745C123.388 154.927 123.624 155.23 123.814 155.543C123.827 155.564 123.841 155.584 123.855 155.603C123.842 155.632 123.828 155.661 123.814 155.69C123.554 156.208 124.339 156.664 124.598 156.144C124.801 155.736 124.961 155.295 125.219 154.916C125.396 154.656 125.724 154.591 126.031 154.573C126.715 156.343 125.282 157.807 123.946 158.945Z" fill="#333333"/>
<path d="M45.0116 4.29963C44.9443 4.16118 44.7685 4.07598 44.6192 4.07791C44.015 4.08372 43.4197 4.17086 42.9629 4.59297C42.8165 4.72948 42.6984 4.89505 42.5949 5.07222C42.1147 4.47971 41.449 4.05371 40.6438 4.07113C39.819 4.0905 39.0841 4.59298 38.6556 5.27166C38.1724 6.03651 38.1939 6.97756 38.5785 7.77339C39.1241 8.9013 40.3666 9.55674 41.5144 9.97208C41.1943 10.3477 41.7946 10.8986 42.2182 10.5491C43.1854 9.74941 44.1663 8.92647 44.8418 7.85665C45.5435 6.73939 45.5806 5.47594 45.0116 4.29963ZM42.2425 9.35439C42.1908 9.28565 42.1176 9.22854 42.0171 9.19465C41.0498 8.86838 40.0006 8.3814 39.4501 7.48004C39.1124 6.92625 39.1173 6.31534 39.3886 5.809C39.6424 5.34234 40.1304 5.01026 40.595 4.97347C40.8888 4.95217 41.1074 5.01025 41.3651 5.15644C41.6842 5.33846 41.9205 5.6415 42.1088 5.95421C42.1225 5.97455 42.1361 5.99585 42.1508 6.01328C42.1371 6.04232 42.1235 6.07233 42.1088 6.10041C41.8502 6.61934 42.6339 7.07632 42.8926 6.55544C43.0966 6.14591 43.2567 5.70636 43.5153 5.32781C43.6929 5.06641 44.019 5.0025 44.3274 4.98508C45.0097 6.75391 43.5768 8.21971 42.2425 9.35439Z" fill="#333333"/>
<path d="M28.1631 185.705C28.1533 184.623 27.5911 183.642 26.5331 183.286C25.7034 183.009 24.8211 183.242 24.0774 183.668C23.0232 183.363 21.8939 183.425 20.8447 183.096C20.6514 183.035 20.4318 183.133 20.3332 183.303C19.9418 183.966 19.7183 184.675 19.854 185.443C19.9652 186.077 20.4074 186.624 20.8632 187.055C21.7778 187.923 22.9188 188.516 23.8499 189.361C23.7835 189.439 23.7201 189.521 23.6615 189.606C23.3268 190.084 24.1144 190.533 24.4463 190.06C24.4658 190.033 24.4882 190.004 24.5107 189.975C24.8162 190.089 25.1588 189.755 25.0875 189.424C25.1812 189.346 25.273 189.273 25.3589 189.201C25.801 188.837 26.2569 188.487 26.698 188.12C27.0933 187.791 27.4818 187.45 27.7981 187.044C28.1153 186.633 28.167 186.212 28.1631 185.705ZM27.2534 185.907C27.2505 185.979 27.2475 186.049 27.2407 186.121C27.2436 186.079 27.2182 186.255 27.2202 186.265C27.1548 186.464 26.8747 186.74 26.6932 186.917C26.3379 187.264 25.9455 187.576 25.559 187.887C25.2164 188.162 24.8445 188.432 24.497 188.725C23.6674 187.964 22.6738 187.395 21.8031 186.681C21.402 186.351 20.9833 185.961 20.7998 185.463C20.6221 184.983 20.7402 184.5 20.954 184.059C21.7231 184.241 22.5244 184.261 23.3004 184.41C23.3004 184.455 23.3063 184.502 23.318 184.547C23.3209 184.558 23.3238 184.567 23.3267 184.578C23.3297 184.586 23.3316 184.592 23.3336 184.598C23.3414 184.618 23.3492 184.637 23.359 184.657C23.4488 184.836 23.5385 185.014 23.6264 185.192C23.8899 185.711 24.6717 185.255 24.4111 184.738C24.3828 184.679 24.3526 184.622 24.3233 184.563C24.9138 184.168 25.7064 183.899 26.3779 184.183C26.7215 184.327 26.944 184.586 27.1011 184.913C27.188 185.094 27.2251 185.315 27.2436 185.511C27.2582 185.642 27.2563 185.777 27.2534 185.907Z" fill="#333333"/>
<path d="M192.488 179.042C192.156 178.392 191.504 178.032 190.775 178.111C190.254 178.168 189.804 178.466 189.431 178.848C189.046 177.84 188.367 176.972 187.303 176.563C187.103 176.486 186.907 176.587 186.783 176.739C184.676 179.283 187.425 182.78 189.392 184.45C189.455 184.503 189.52 184.533 189.583 184.547C189.734 184.696 189.978 184.757 190.193 184.585C191.695 183.383 193.532 181.075 192.488 179.042ZM187.314 177.557C188.112 178.001 188.546 178.857 188.759 179.73C188.738 179.761 188.718 179.794 188.699 179.827C188.404 180.324 189.155 180.829 189.453 180.329C189.49 180.266 189.528 180.204 189.568 180.142C189.618 180.097 189.658 180.041 189.679 179.974C189.831 179.755 190 179.55 190.202 179.37C190.424 179.174 190.654 179.047 190.906 179.002C190.991 178.986 191.025 178.988 191.167 179.008C191.069 178.995 191.226 179.028 191.245 179.034C191.282 179.048 191.297 179.052 191.301 179.052C191.301 179.054 191.311 179.062 191.35 179.086C191.533 179.193 191.629 179.331 191.732 179.56C191.971 180.094 191.84 180.831 191.617 181.415C191.271 182.312 190.603 183.057 189.873 183.679C188.859 182.813 187.977 181.745 187.405 180.543C186.943 179.575 186.766 178.476 187.314 177.557Z" fill="#333333"/>
<path d="M183.27 9.00388H182.842C182.595 9.00388 182.388 9.20817 182.388 9.45408C182.388 9.7 182.595 9.90427 182.842 9.90427H183.27C183.518 9.90427 183.723 9.7 183.723 9.45408C183.723 9.20817 183.518 9.00388 183.27 9.00388Z" fill="#333333"/>
<path d="M195.006 42.9176C194.422 42.9176 194.422 43.819 195.006 43.819C195.592 43.819 195.592 42.9176 195.006 42.9176Z" fill="#333333"/>
<path d="M192.888 139.56C192.304 139.56 192.304 140.461 192.888 140.461C193.474 140.46 193.474 139.56 192.888 139.56Z" fill="#333333"/>
<path d="M144.779 130.255C144.532 130.255 144.325 130.461 144.325 130.706V131.306C144.325 131.552 144.532 131.756 144.779 131.756C145.027 131.756 145.234 131.552 145.234 131.306V130.706C145.234 130.461 145.027 130.255 144.779 130.255Z" fill="#333333"/>
<path d="M122.844 186.23C122.844 185.988 122.637 185.778 122.39 185.78C122.093 185.783 121.786 185.894 121.555 186.079C121.331 186.259 121.324 186.599 121.516 186.803C121.661 186.956 121.889 186.98 122.087 186.981C122.289 186.982 122.465 186.845 122.52 186.662C122.706 186.603 122.844 186.433 122.844 186.23Z" fill="#333333"/>
<path d="M171.104 191.782C170.519 191.782 170.519 192.682 171.104 192.682C171.689 192.682 171.689 191.782 171.104 191.782Z" fill="#333333"/>
<path d="M191.395 164.003C191.295 163.903 191.193 163.802 191.093 163.703C190.917 163.528 190.625 163.528 190.45 163.703C190.276 163.876 190.276 164.166 190.45 164.339C190.552 164.439 190.651 164.539 190.754 164.64C190.929 164.813 191.22 164.813 191.395 164.64C191.571 164.465 191.571 164.177 191.395 164.003Z" fill="#333333"/>
<path d="M194.402 193.584C193.817 193.584 193.817 194.484 194.402 194.484C194.987 194.483 194.987 193.584 194.402 193.584Z" fill="#333333"/>
<path d="M108.471 150.064C107.886 150.064 107.886 150.964 108.471 150.964C109.056 150.964 109.056 150.064 108.471 150.064Z" fill="#333333"/>
<path d="M146.917 191.615C146.746 191.444 146.446 191.437 146.275 191.615C146.141 191.754 146.05 191.914 145.97 192.085C145.862 192.089 145.753 192.132 145.67 192.215C145.498 192.384 145.491 192.682 145.67 192.851C145.798 192.972 145.966 193.077 146.151 193.063C146.37 193.047 146.518 192.935 146.641 192.762C146.7 192.68 146.734 192.579 146.777 192.489C146.802 192.435 146.829 192.381 146.86 192.329C146.867 192.317 146.877 192.304 146.885 192.29C146.894 192.279 146.909 192.26 146.917 192.251C147.088 192.074 147.094 191.791 146.917 191.615Z" fill="#333333"/>
<path d="M97.276 193.883H96.0666C95.481 193.883 95.481 194.783 96.0666 194.783H97.276C97.8606 194.783 97.8606 193.883 97.276 193.883Z" fill="#333333"/>
<path d="M4.16601 180.56C4.04303 180.258 3.80876 180.091 3.47788 180.077C3.23094 180.068 3.02406 180.289 3.02406 180.527C3.02406 180.726 3.14995 180.883 3.32466 180.947C3.32759 181.008 3.32663 181.069 3.32663 181.129C3.3276 181.374 3.53352 181.579 3.78046 181.579C4.02837 181.579 4.2353 181.374 4.2353 181.129C4.23432 180.942 4.23824 180.735 4.16601 180.56Z" fill="#333333"/>
<path d="M16.7912 167.171C16.2055 167.171 16.2055 168.072 16.7912 168.072C17.3768 168.072 17.3768 167.171 16.7912 167.171Z" fill="#333333"/>
<path d="M47.0486 193.283H46.746C46.4991 193.283 46.2922 193.488 46.2922 193.733C46.2922 193.98 46.4991 194.184 46.746 194.184H47.0486C47.2965 194.184 47.5025 193.98 47.5025 193.733C47.5015 193.488 47.2956 193.283 47.0486 193.283Z" fill="#333333"/>
<path d="M42.8126 179.178C42.4769 179.178 42.143 179.217 41.9244 179.009C41.4998 178.609 40.8576 179.245 41.2822 179.646C41.7155 180.055 42.2446 180.077 42.8126 180.077C43.3982 180.078 43.3982 179.179 42.8126 179.178Z" fill="#333333"/>
<path d="M53.5461 152.19C53.5266 152.156 53.509 152.122 53.4925 152.089C53.3812 151.871 53.0737 151.81 52.8717 151.928C52.6482 152.058 52.5974 152.324 52.7087 152.544C52.7604 152.648 52.8171 152.752 52.8864 152.846C52.9234 152.896 52.9615 152.951 53.0093 152.996C53.1108 153.096 53.2241 153.137 53.3666 153.152C53.5384 153.168 53.6945 153.048 53.7834 152.915C53.839 152.832 53.8546 152.714 53.8566 152.616C53.8585 152.42 53.7247 152.251 53.5461 152.19Z" fill="#333333"/>
<path d="M37.0637 130.556C36.478 130.556 36.478 131.457 37.0637 131.457C37.6493 131.457 37.6493 130.556 37.0637 130.556Z" fill="#333333"/>
<path d="M61.8748 108.347C61.6278 108.347 61.4209 108.552 61.4209 108.797V109.097C61.4209 109.344 61.6278 109.548 61.8748 109.548C62.1217 109.548 62.3286 109.344 62.3286 109.097V108.797C62.3286 108.551 62.1217 108.347 61.8748 108.347Z" fill="#333333"/>
<path d="M73.6752 147.064C73.0895 147.064 73.0895 147.964 73.6752 147.964C74.2608 147.964 74.2598 147.064 73.6752 147.064Z" fill="#333333"/>
<path d="M2.89132 153.498C2.71563 153.324 2.42375 153.324 2.25001 153.498C2.04797 153.699 1.84593 153.898 1.64487 154.098C1.46918 154.272 1.46918 154.562 1.64487 154.734C1.81958 154.909 2.11146 154.909 2.28617 154.734C2.48724 154.534 2.68927 154.335 2.89132 154.134C3.06603 153.962 3.06603 153.671 2.89132 153.498Z" fill="#333333"/>
<path d="M10.7387 118.551H10.4361C10.1892 118.551 9.98225 118.757 9.98225 119.002C9.98225 119.247 10.1892 119.452 10.4361 119.452H10.7387C10.9866 119.452 11.1936 119.247 11.1936 119.002C11.1936 118.756 10.9866 118.551 10.7387 118.551Z" fill="#333333"/>
<path d="M6.80624 83.4361C6.5593 83.4361 6.35235 83.6404 6.35235 83.8863V84.1864C6.35235 84.4324 6.5593 84.6376 6.80624 84.6376C7.05415 84.6376 7.26006 84.4324 7.26006 84.1864V83.8863C7.26006 83.6404 7.05415 83.4361 6.80624 83.4361Z" fill="#333333"/>
<path d="M48.5605 64.8281C47.9758 64.8281 47.9758 65.7285 48.5605 65.7285C49.1471 65.7285 49.1471 64.8281 48.5605 64.8281Z" fill="#333333"/>
<path d="M55.2181 80.4339H54.9155C54.6686 80.4339 54.4617 80.6391 54.4617 80.885C54.4617 81.13 54.6686 81.3352 54.9155 81.3352H55.2181C55.4651 81.3352 55.672 81.13 55.672 80.885C55.672 80.6391 55.4651 80.4339 55.2181 80.4339Z" fill="#333333"/>
<path d="M82.1472 56.4244C81.5626 56.4244 81.5626 57.3258 82.1472 57.3258C82.7319 57.3248 82.7319 56.4244 82.1472 56.4244Z" fill="#333333"/>
<path d="M93.6451 35.4144H93.3425C93.0946 35.4144 92.8876 35.6196 92.8876 35.8655C92.8876 36.1105 93.0946 36.3157 93.3425 36.3157H93.6451C93.892 36.3157 94.099 36.1105 94.099 35.8655C94.099 35.6196 93.892 35.4144 93.6451 35.4144Z" fill="#333333"/>
<path d="M115.128 48.621C114.542 48.621 114.542 49.5214 115.128 49.5214C115.713 49.5214 115.712 48.621 115.128 48.621Z" fill="#333333"/>
<path d="M9.67969 22.96C9.67969 22.714 9.47377 22.5088 9.22586 22.5098C9.01015 22.5098 8.8071 22.5253 8.64019 22.6792C8.47719 22.8283 8.4694 23.0568 8.4694 23.2601C8.4694 23.506 8.67635 23.7103 8.92329 23.7103C9.12533 23.7103 9.30001 23.5738 9.35662 23.3908C9.54402 23.3337 9.67969 23.1594 9.67969 22.96Z" fill="#333333"/>
<path d="M61.5712 3.30139C60.9866 3.30139 60.9866 4.20275 61.5712 4.20275C62.1568 4.20178 62.1568 3.30139 61.5712 3.30139Z" fill="#333333"/>
<path d="M41.9049 16.8073C41.3192 16.8073 41.3192 17.7077 41.9049 17.7077C42.4905 17.7077 42.4905 16.8073 41.9049 16.8073Z" fill="#333333"/>
<path d="M131.788 1.33217C131.687 1.23148 131.586 1.13176 131.485 1.03107C131.31 0.857767 131.018 0.857767 130.844 1.03107C130.668 1.20534 130.668 1.49482 130.844 1.66812C130.945 1.76784 131.044 1.86853 131.147 1.96825C131.322 2.14252 131.614 2.14252 131.788 1.96825C131.964 1.79592 131.964 1.50547 131.788 1.33217Z" fill="#333333"/>
<path d="M169.894 0C169.647 0 169.44 0.204278 169.44 0.450191V0.750319C169.44 0.996232 169.647 1.20051 169.894 1.20051C170.141 1.20051 170.348 0.996232 170.348 0.750319V0.450191C170.348 0.204278 170.141 0 169.894 0Z" fill="#333333"/>
<path d="M199.546 3.00128H198.941C198.694 3.00128 198.487 3.20556 198.487 3.45147C198.487 3.69739 198.694 3.90168 198.941 3.90168H199.546C199.793 3.90168 200 3.69739 200 3.45147C200 3.20556 199.793 3.00128 199.546 3.00128Z" fill="#333333"/>
<path d="M176.853 34.8151C176.267 34.8151 176.267 35.7155 176.853 35.7155C177.439 35.7155 177.438 34.8151 176.853 34.8151Z" fill="#333333"/>
<path d="M121.179 95.7415C120.594 95.7415 120.594 96.6419 121.179 96.6419C121.765 96.6419 121.764 95.7415 121.179 95.7415Z" fill="#333333"/>
<path d="M155.655 97.1666C155.636 97.0195 155.647 97.0631 155.59 96.9275C155.572 96.8888 155.525 96.8394 155.51 96.821C155.412 96.698 155.22 96.6429 155.068 96.6419C154.821 96.64 154.614 96.8481 154.614 97.0921C154.614 97.1463 154.625 97.1967 154.642 97.2451C154.588 97.4038 154.622 97.5858 154.747 97.7098C154.919 97.8831 155.214 97.885 155.389 97.7098C155.444 97.6536 155.492 97.5926 155.538 97.5297C155.581 97.4716 155.603 97.4096 155.631 97.3428C155.652 97.2896 155.662 97.2247 155.655 97.1666Z" fill="#333333"/>
<path d="M172.92 85.8372C172.335 85.8372 172.335 86.7385 172.92 86.7385C173.504 86.7376 173.504 85.8372 172.92 85.8372Z" fill="#333333"/>
<path d="M197.73 100.544C197.145 100.544 197.145 101.444 197.73 101.444C198.315 101.444 198.315 100.544 197.73 100.544Z" fill="#333333"/>
<path d="M181.997 144.962C181.411 144.962 181.411 145.863 181.997 145.863C182.581 145.863 182.581 144.962 181.997 144.962Z" fill="#333333"/>
</svg>
