<svg width="37" height="60" viewBox="0 0 37 60" fill="none" xmlns="http://www.w3.org/2000/svg">
<path d="M9.05345 38.6631C9.01168 38.8693 8.98957 39.0826 8.98957 39.2993C8.98957 41.1098 10.5337 42.5827 12.4316 42.5827H13.3664C13.4242 42.66 13.4856 42.735 13.5495 42.8065V48.5892H14.7202L13.1465 59.3416H14.0912L14.02 59.9438H24.1458L24.0549 59.3416H25.0512L22.996 48.5892H24.2171V42.8065C24.2822 42.735 24.3436 42.66 24.4013 42.5815H25.3362C27.2341 42.5815 28.7782 41.1086 28.7782 39.2982C28.7782 39.0814 28.7561 38.8681 28.7143 38.6619C33.8147 35.7219 37 30.6281 37 25.1535C37 21.8303 35.8649 18.6384 33.7177 15.9234C32.3357 14.1763 30.6024 12.7068 28.6087 11.5796C28.7192 11.2585 28.7782 10.9163 28.7782 10.5601C28.7782 8.75089 27.2341 7.27796 25.3362 7.27796H24.4689C24.1839 6.84908 23.7736 6.50224 23.2884 6.28546C23.3265 5.13476 23.0353 4.00868 22.4248 3.10406C21.5944 1.87603 20.2321 1.17179 18.6867 1.17179C18.2261 1.17179 17.7457 1.23273 17.2605 1.35459C16.0862 1.64754 15.2029 2.3342 14.7742 3.29037C14.3627 4.20905 14.4192 5.20272 14.7152 6.19405C14.1268 6.3956 13.6293 6.78112 13.2989 7.27796H12.4316C10.5337 7.27796 8.98957 8.75089 8.98957 10.5601C8.98957 10.9163 9.04854 11.2585 9.15909 11.5796C7.16537 12.7068 5.43207 14.1763 4.05009 15.9234C1.90159 18.6384 0.76776 21.8303 0.76776 25.1535C0.766531 30.6281 3.95305 35.7231 9.05345 38.6631ZM19.5356 56.1355H18.4889L18.5602 55.5333H17.7335L18.8304 48.0397L20.2628 55.5333H19.4434L19.5356 56.1355ZM17.9558 44.7821L18.3956 43.765C18.4423 43.6561 18.5307 43.5646 18.6425 43.5084L18.8833 43.3877L19.1228 43.5084C19.2346 43.5646 19.323 43.6561 19.3697 43.765L19.8095 44.7821H18.2064H17.9558ZM19.5368 9.84651L19.3709 10.0363H18.3956L18.2297 9.84651H19.5368ZM13.7018 13.731L18.8833 11.9452L24.0647 13.731C29.4968 15.6023 33.0064 20.0867 33.0064 25.1547C33.0064 29.8501 29.8481 34.1997 24.9603 36.2375L20.0306 38.2916L21.673 38.7744H19.2813L19.9938 39.918H17.7715L18.484 38.7744H16.0948L17.7359 38.2928L12.8038 36.2375C7.91594 34.2009 4.75766 29.8501 4.75766 25.1547C4.75889 20.1653 8.35325 15.5742 13.7018 13.731Z" fill="#6B5951"/>
<path d="M8.28569 37.4913C8.24393 37.6975 8.22181 37.9108 8.22181 38.1276C8.22181 39.938 9.76594 41.4109 11.6638 41.4109H12.5987C12.6564 41.4882 12.7178 41.5632 12.7817 41.6347V47.4175H13.9524L12.3788 58.1698H13.3234L13.2522 58.7721H23.3781L23.2872 58.1698H24.2834L22.2283 47.4175H23.4493V41.6347C23.5144 41.5632 23.5758 41.4882 23.6336 41.4097H24.5684C26.4663 41.4097 28.0104 39.9368 28.0104 38.1264C28.0104 37.9096 27.9883 37.6963 27.9466 37.4901C33.047 34.5501 36.2322 29.4563 36.2322 23.9817C36.2322 20.6586 35.0972 17.4666 32.9499 14.7516C31.5679 13.0045 29.8346 11.5351 27.8409 10.4078C27.9515 10.0867 28.0104 9.74456 28.0104 9.38834C28.0104 7.5791 26.4663 6.10617 24.5684 6.10617H23.7011C23.4161 5.6773 23.0058 5.33045 22.5206 5.11367C22.5587 3.96298 22.2676 2.8369 21.657 1.93228C20.8266 0.704246 19.4643 0 17.919 0C17.4583 0 16.978 0.0609397 16.4928 0.182805C15.3184 0.475752 14.4352 1.16241 14.0064 2.11859C13.5949 3.03727 13.6514 4.03094 13.9475 5.02227C13.3591 5.22381 12.8616 5.60934 12.5311 6.10617H11.6638C9.76594 6.10617 8.22181 7.5791 8.22181 9.38834C8.22181 9.74456 8.28078 10.0867 8.39133 10.4078C6.39761 11.5351 4.66431 13.0045 3.28233 14.7516C1.13383 17.4666 3.55044e-07 20.6586 3.55044e-07 23.9817C-0.00122806 29.4563 3.18529 34.5513 8.28569 37.4913ZM18.7678 54.9638H17.7212L17.7924 54.3615H16.9657L18.0627 46.8679L19.495 54.3615H18.6757L18.7678 54.9638ZM17.188 43.6103L17.6278 42.5932C17.6745 42.4843 17.7629 42.3928 17.8747 42.3366L18.1155 42.2159L18.3551 42.3366C18.4668 42.3928 18.5553 42.4843 18.602 42.5932L19.0417 43.6103H17.4386H17.188ZM18.769 8.67473L18.6032 8.86456H17.6278L17.462 8.67473H18.769ZM12.934 12.5592L18.1155 10.7734L23.297 12.5592C28.7291 14.4305 32.2386 18.915 32.2386 23.9829C32.2386 28.6783 29.0804 33.0279 24.1925 35.0657L19.2629 37.1198L20.9052 37.6026H18.5135L19.226 38.7462H17.0038L17.7163 37.6026H15.327L16.9682 37.121L12.0361 35.0657C7.14818 33.0291 3.9899 28.6783 3.9899 23.9829C3.99113 18.9935 7.58549 14.4024 12.934 12.5592Z" fill="white"/>
<path d="M21.7166 56.1287H14.8386L16.4602 45.0506H19.5988L21.7166 56.1287Z" fill="#C52831"/>
<path d="M21.8892 56.2655H14.6722L16.3343 44.912H19.7186L21.8892 56.2655ZM15.0051 55.9901H21.5428L19.4778 45.1862H16.5861L15.0051 55.9901Z" fill="#231F20"/>
<path d="M20.907 56.7309H15.6493L17.0362 45.0506H19.1393L20.907 56.7309Z" fill="#AF1524"/>
<path d="M19.3481 56.7309H15.6493L17.0362 45.0506H18.1013L19.3481 56.7309Z" fill="#C52831"/>
<path d="M21.0735 56.8679H15.4867L16.9067 44.911H19.2641L21.0735 56.8679ZM15.811 56.5937H20.7406L19.0147 45.1876H17.1659L15.811 56.5937Z" fill="#231F20"/>
<path d="M18.1147 38.0304C26.9378 38.0304 34.0903 31.7412 34.0903 23.983C34.0903 16.2249 26.9378 9.93568 18.1147 9.93568C9.29167 9.93568 2.13914 16.2249 2.13914 23.983C2.13914 31.7412 9.29167 38.0304 18.1147 38.0304Z" fill="#AF1524"/>
<path d="M17.8809 37.0284C26.0751 37.0284 32.7177 31.1877 32.7177 23.9829C32.7177 16.7781 26.0751 10.9374 17.8809 10.9374C9.68672 10.9374 3.04403 16.7781 3.04403 23.9829C3.04403 31.1877 9.68672 37.0284 17.8809 37.0284Z" fill="#C52831"/>
<path d="M6.87425 17.0799C6.87425 17.0799 1.87459 24.9754 8.1727 32.6553C5.4628 31.1226 1.0626 23.3924 6.87425 17.0799Z" fill="#F4606E"/>
<path d="M18.1155 38.1674C9.22665 38.1674 1.99493 31.8034 1.99493 23.9829C1.99493 16.1624 9.22665 9.79847 18.1155 9.79847C27.0031 9.79847 34.2348 16.1624 34.2348 23.9829C34.2348 31.8034 27.0031 38.1674 18.1155 38.1674ZM18.1155 10.0738C9.38634 10.0738 2.28361 16.3136 2.28361 23.9829C2.28361 31.6523 9.38511 37.8932 18.1155 37.8932C26.8434 37.8932 33.9461 31.6534 33.9461 23.9829C33.9461 16.3124 26.8434 10.0738 18.1155 10.0738Z" fill="#231F20"/>
<path d="M18.1147 38.0304C24.0348 38.0304 28.8339 31.7412 28.8339 23.983C28.8339 16.2249 24.0348 9.93568 18.1147 9.93568C12.1947 9.93568 7.39551 16.2249 7.39551 23.983C7.39551 31.7412 12.1947 38.0304 18.1147 38.0304Z" fill="#AF1524"/>
<path d="M18.2445 37.0284C23.4122 37.0284 27.6014 31.1888 27.6014 23.9853C27.6014 16.7818 23.4122 10.9421 18.2445 10.9421C13.0768 10.9421 8.88762 16.7818 8.88762 23.9853C8.88762 31.1888 13.0768 37.0284 18.2445 37.0284Z" fill="#C52831"/>
<path d="M18.1155 38.1674C12.1245 38.1674 7.25133 31.8034 7.25133 23.9829C7.25133 16.1624 12.1245 9.79847 18.1155 9.79847C24.1053 9.79847 28.9784 16.1624 28.9784 23.9829C28.9784 31.8034 24.1053 38.1674 18.1155 38.1674ZM18.1155 10.0738C12.2842 10.0738 7.54001 16.3136 7.54001 23.9829C7.54001 31.6523 12.2842 37.8932 18.1155 37.8932C23.9468 37.8932 28.6897 31.6534 28.6897 23.9829C28.6897 16.3124 23.9468 10.0738 18.1155 10.0738Z" fill="#231F20"/>
<path d="M18.1147 38.0304C20.3278 38.0304 22.1218 31.7412 22.1218 23.983C22.1218 16.2249 20.3278 9.93568 18.1147 9.93568C15.9017 9.93568 14.1076 16.2249 14.1076 23.983C14.1076 31.7412 15.9017 38.0304 18.1147 38.0304Z" fill="#AF1524"/>
<path d="M18.0528 38.0309C19.4803 38.0309 20.6374 31.7416 20.6374 23.9835C20.6374 16.2253 19.4803 9.93613 18.0528 9.93613C16.6254 9.93613 15.4682 16.2253 15.4682 23.9835C15.4682 31.7416 16.6254 38.0309 18.0528 38.0309Z" fill="#C52831"/>
<path d="M18.1155 38.1674C15.7864 38.1674 13.9634 31.937 13.9634 23.9829C13.9634 16.0288 15.7877 9.79847 18.1155 9.79847C20.4434 9.79847 22.2663 16.0288 22.2663 23.9829C22.2663 31.937 20.4434 38.1674 18.1155 38.1674ZM18.1155 10.0738C16.0211 10.0738 14.2521 16.4437 14.2521 23.9829C14.2521 31.5222 16.0198 37.8932 18.1155 37.8932C20.2087 37.8932 21.9777 31.5222 21.9777 23.9829C21.9777 16.4425 20.2087 10.0738 18.1155 10.0738Z" fill="#231F20"/>
<path d="M16.994 2.02602C14.0875 2.75018 16.9129 6.64051 17.6217 7.94822C17.8686 8.40405 18.5872 8.00095 18.3403 7.54864C17.7949 6.54325 15.7827 4.13172 16.79 3.02321C17.1426 2.63417 17.9656 2.64472 18.4398 2.71737C19.0958 2.81697 19.425 3.38879 19.5921 3.93836C19.8992 4.94961 19.613 6.21164 18.9754 7.05181C18.6597 7.46662 19.382 7.86268 19.694 7.45255C21.3782 5.23554 20.5048 1.15187 16.994 2.02602Z" fill="#231F20"/>
<path d="M21.9916 7.52884C21.9916 7.871 21.7005 8.14988 21.3418 8.14988H14.8901C14.5302 8.14988 14.239 7.87217 14.239 7.52884C14.239 7.18668 14.5302 6.90896 14.8901 6.90896H21.3418C21.7005 6.90779 21.9916 7.18551 21.9916 7.52884Z" fill="#AF1524"/>
<path d="M20.6903 7.73613C20.6903 7.96346 20.4974 8.14859 20.2579 8.14859H15.9707C15.7324 8.14859 15.5383 7.96346 15.5383 7.73613C15.5383 7.5088 15.7324 7.32366 15.9707 7.32366H20.2579C20.4974 7.32483 20.6903 7.5088 20.6903 7.73613Z" fill="#C52831"/>
<path d="M21.3413 8.28569H14.8897C14.4511 8.28569 14.0949 7.94587 14.0949 7.52754C14.0949 7.11039 14.4523 6.7694 14.8897 6.7694H21.3413C21.7799 6.7694 22.1361 7.11039 22.1361 7.52754C22.1361 7.94587 21.7799 8.28569 21.3413 8.28569ZM14.8897 7.04477C14.6096 7.04477 14.3835 7.26155 14.3835 7.52754C14.3835 7.79354 14.6108 8.01032 14.8897 8.01032H21.3413C21.6202 8.01032 21.8474 7.79354 21.8474 7.52754C21.8474 7.26155 21.6202 7.04477 21.3413 7.04477H14.8897Z" fill="#231F20"/>
<path d="M21.9916 39.8912C21.9916 40.2345 21.7005 40.5123 21.3418 40.5123H14.8901C14.5302 40.5123 14.239 40.2345 14.239 39.8912C14.239 39.549 14.5302 39.2713 14.8901 39.2713H21.3418C21.7005 39.2713 21.9916 39.549 21.9916 39.8912Z" fill="#AF1524"/>
<path d="M20.5293 39.6585C20.5293 39.8717 20.3488 40.0452 20.124 40.0452H16.1058C15.881 40.0452 15.7004 39.8717 15.7004 39.6585C15.7004 39.444 15.881 39.2718 16.1058 39.2718H20.124C20.3475 39.2718 20.5293 39.444 20.5293 39.6585Z" fill="#C52831"/>
<path d="M21.3413 40.6504H14.8897C14.4511 40.6504 14.0949 40.3094 14.0949 39.8923C14.0949 39.4751 14.4523 39.1353 14.8897 39.1353H21.3413C21.7799 39.1353 22.1361 39.4751 22.1361 39.8923C22.1361 40.3094 21.7799 40.6504 21.3413 40.6504ZM14.8897 39.4095C14.6096 39.4095 14.3835 39.6263 14.3835 39.8923C14.3835 40.1594 14.6108 40.3751 14.8897 40.3751H21.3413C21.6202 40.3751 21.8474 40.1582 21.8474 39.8923C21.8474 39.6263 21.6202 39.4095 21.3413 39.4095H14.8897Z" fill="#231F20"/>
<path d="M18.1147 45.0506C19.4289 45.0506 20.4942 44.0344 20.4942 42.7808C20.4942 41.5273 19.4289 40.5111 18.1147 40.5111C16.8006 40.5111 15.7353 41.5273 15.7353 42.7808C15.7353 44.0344 16.8006 45.0506 18.1147 45.0506Z" fill="#C52831"/>
<path d="M18.1155 45.1876C16.7237 45.1876 15.5923 44.1083 15.5923 42.7807C15.5923 41.4531 16.7237 40.3739 18.1155 40.3739C19.5061 40.3739 20.6387 41.4531 20.6387 42.7807C20.6387 44.1083 19.5061 45.1876 18.1155 45.1876ZM18.1155 40.6504C16.8834 40.6504 15.881 41.6054 15.881 42.7807C15.881 43.9548 16.8822 44.911 18.1155 44.911C19.3464 44.911 20.35 43.9548 20.35 42.7807C20.35 41.6054 19.3464 40.6504 18.1155 40.6504Z" fill="#231F20"/>
<path d="M21.3086 42.0039H14.9233V45.3764H21.3086V42.0039Z" fill="#AF1524"/>
<path d="M20.251 42.0039H14.9233V45.3764H20.251V42.0039Z" fill="#C52831"/>
<path d="M21.4519 45.5145H14.7779V41.8667H21.4519V45.5145ZM15.0666 45.2391H21.1632V42.1421H15.0666V45.2391Z" fill="#231F20"/>
<path d="M17.4976 46.0969L16.9817 56.2539H16.1169L17.4976 46.0969Z" fill="#F4606E"/>
<path d="M25.8685 38.1277C25.8685 38.8132 25.2862 39.3697 24.5676 39.3697H11.663C10.9456 39.3697 10.3609 38.8132 10.3609 38.1277C10.3609 37.4433 10.9444 36.8867 11.663 36.8867H24.5676C25.2862 36.8879 25.8685 37.4433 25.8685 38.1277Z" fill="#F9681E"/>
<path d="M24.1274 37.8492C24.1274 38.3812 23.6765 38.8124 23.1188 38.8124H13.1109C12.5532 38.8124 12.1011 38.3812 12.1011 37.8492C12.1011 37.3172 12.5532 36.8872 13.1109 36.8872H23.1188C23.6765 36.8884 24.1274 37.3184 24.1274 37.8492Z" fill="#FB921D"/>
<path d="M24.5671 39.5067H11.6626C10.8653 39.5067 10.2167 38.888 10.2167 38.1276C10.2167 37.3682 10.8641 36.7495 11.6626 36.7495H24.5671C25.3644 36.7495 26.013 37.3682 26.013 38.1276C26.013 38.888 25.3644 39.5067 24.5671 39.5067ZM11.6626 37.0249C11.0238 37.0249 10.5054 37.5194 10.5054 38.1276C10.5054 38.7369 11.0238 39.2314 11.6626 39.2314H24.5671C25.2047 39.2314 25.7243 38.7369 25.7243 38.1276C25.7243 37.5194 25.2047 37.0249 24.5671 37.0249H11.6626Z" fill="#874A0E"/>
<path d="M14.4388 38.5365C15.3174 38.5365 16.0296 38.3015 16.0296 38.0116C16.0296 37.7216 15.3174 37.4866 14.4388 37.4866C13.5603 37.4866 12.848 37.7216 12.848 38.0116C12.848 38.3015 13.5603 38.5365 14.4388 38.5365Z" fill="#F4C790"/>
<path d="M25.8685 9.38963C25.8685 10.0751 25.2862 10.6306 24.5676 10.6306H11.663C10.9456 10.6306 10.3609 10.0751 10.3609 9.38963C10.3609 8.70531 10.9444 8.1487 11.663 8.1487H24.5676C25.2862 8.1487 25.8685 8.70414 25.8685 9.38963Z" fill="#F9681E"/>
<path d="M24.1274 9.11118C24.1274 9.64318 23.6765 10.0744 23.1188 10.0744H13.1109C12.5532 10.0744 12.1011 9.64318 12.1011 9.11118C12.1011 8.57919 12.5532 8.14915 13.1109 8.14915H23.1188C23.6765 8.14915 24.1274 8.57919 24.1274 9.11118Z" fill="#FB921D"/>
<path d="M24.5671 10.7687H11.6626C10.8653 10.7687 10.2167 10.15 10.2167 9.38951C10.2167 8.63019 10.8641 8.01149 11.6626 8.01149H24.5671C25.3644 8.01149 26.013 8.63019 26.013 9.38951C26.013 10.15 25.3644 10.7687 24.5671 10.7687ZM11.6626 8.28568C11.0238 8.28568 10.5054 8.78017 10.5054 9.38833C10.5054 9.99765 11.0238 10.4921 11.6626 10.4921H24.5671C25.2047 10.4921 25.7243 9.99765 25.7243 9.38833C25.7243 8.78017 25.2047 8.28568 24.5671 8.28568H11.6626Z" fill="#874A0E"/>
<path d="M14.4388 9.79845C15.3174 9.79845 16.0296 9.56342 16.0296 9.2735C16.0296 8.98357 15.3174 8.74854 14.4388 8.74854C13.5603 8.74854 12.848 8.98357 12.848 9.2735C12.848 9.56342 13.5603 9.79845 14.4388 9.79845Z" fill="#F4C790"/>
<path d="M15.9215 42.6495H15.2938V44.9122H15.9215V42.6495Z" fill="#F4606E"/>
</svg>
