<svg width="59" height="74" viewBox="0 0 59 74" fill="none" xmlns="http://www.w3.org/2000/svg">
<path d="M1.7351 13.3802C1.87991 13.8205 2.102 14.2369 2.3965 14.6077C2.76535 15.0698 3.08627 15.5267 3.3612 15.9806C3.2389 16.208 3.13617 16.451 3.05692 16.7065C2.56185 18.3151 3.09605 20.0774 4.38167 21.0764C4.60181 21.2477 5.06067 21.605 5.13308 21.7379C5.47062 22.3652 5.61542 23.3631 5.71229 24.2562C5.73675 24.4806 5.76023 24.7111 5.78273 24.9468C5.90797 26.193 6.0694 27.8006 6.53414 29.4103C6.41478 29.6273 6.314 29.8599 6.23475 30.104C6.03418 30.7208 5.98722 31.3574 6.07527 31.966C5.31995 32.5569 4.63801 33.2807 4.06662 34.1135C1.29482 38.1533 1.76348 43.2999 2.28986 46.0062C2.65578 47.8932 3.2751 49.7012 4.13022 51.3773C4.54213 52.1842 5.00491 52.907 5.4129 53.5436C5.84143 54.2124 6.24649 54.8448 6.48033 55.4035C6.49794 55.443 6.51164 55.4804 6.52436 55.5157C5.15069 56.2333 4.33568 57.7816 4.48538 59.4058C4.63899 61.0632 5.7661 62.4361 7.29142 62.8245C7.84128 62.9637 8.49876 63.132 9.26485 63.1901C9.15722 63.3552 9.03982 63.5161 8.91262 63.6761C8.00858 64.8143 7.79236 66.399 8.35494 67.7636C8.77369 68.7782 9.56913 69.5404 10.527 69.8914C10.528 69.8924 10.528 69.8945 10.5289 69.8956C11.069 71.3474 12.112 72.4855 13.4651 73.0982C14.1236 73.3973 14.8075 73.549 15.4963 73.549C16.1087 73.549 16.8102 73.4357 17.5294 73.0931C18.2465 73.4503 19.0341 73.6435 19.8599 73.6435L19.946 73.6424C21.0526 73.6237 22.0926 73.2634 22.9849 72.6361C23.2765 72.6974 23.5749 72.7275 23.8782 72.7275C24.7656 72.7275 25.6295 72.4461 26.377 71.9144C27.2625 71.285 27.9033 70.3847 28.2741 69.2953C28.2751 69.2953 28.2761 69.2943 28.2771 69.2943C28.4825 69.4023 28.6988 69.4895 28.9228 69.5539C29.6292 69.7606 30.3131 69.9133 30.9833 70.0109C31.4569 70.9715 32.0928 71.5675 32.5801 71.9144C33.3275 72.4461 34.1905 72.7275 35.0799 72.7275C35.3841 72.7275 35.6816 72.6974 35.9731 72.6361C36.8654 73.2634 37.9055 73.6247 39.012 73.6424L39.0972 73.6435C39.9161 73.6435 40.6968 73.4534 41.4081 73.1024C42.0372 73.3984 42.7162 73.548 43.4481 73.548C43.7044 73.548 43.9637 73.5261 44.2191 73.4846C45.7072 73.2447 46.9909 72.3838 47.8333 71.0639C47.9223 70.9258 48.0045 70.7835 48.0818 70.637C49.1619 70.34 50.0738 69.5321 50.5317 68.4189C51.0943 67.0553 50.878 65.4706 49.974 64.3324C49.8468 64.1715 49.7284 64.0074 49.6188 63.8402C50.3429 63.7872 50.9886 63.6356 51.5962 63.4809C53.1225 63.0914 54.2486 61.7196 54.4012 60.0612C54.5519 58.438 53.7359 56.8886 52.3632 56.173C52.376 56.1367 52.3897 56.0993 52.4073 56.0598C52.6411 55.5001 53.0452 54.8697 53.4747 54.1999C53.8827 53.5633 54.3455 52.8405 54.7574 52.0336C55.6634 50.2568 56.3032 48.3377 56.6584 46.3323C57.1456 43.5856 57.5262 38.39 54.5891 34.4479C54.0187 33.6826 53.3544 33.021 52.6264 32.481C52.8368 31.724 52.8319 30.8974 52.5746 30.104C52.4953 29.8589 52.3936 29.6273 52.2752 29.4103C52.7399 27.8006 52.9014 26.193 53.0266 24.9468C53.0491 24.7101 53.0726 24.4806 53.097 24.2562C53.19 23.4047 53.326 22.4472 53.642 21.8064C53.7193 21.6476 54.0128 21.3994 54.4277 21.0774C55.7133 20.0784 56.2475 18.3161 55.7524 16.7075C55.6732 16.452 55.5704 16.209 55.4481 15.9816C55.7231 15.5267 56.044 15.0708 56.4128 14.6087C56.7073 14.239 56.9284 13.8215 57.0752 13.3812C57.2826 13.1133 57.4861 12.8443 57.6906 12.5743C58.6348 11.3219 58.7629 9.58453 58.0125 8.19193C57.7033 7.6166 57.2689 7.14825 56.7611 6.81281C56.675 6.28526 56.4872 5.77225 56.1947 5.30909C55.5019 4.20622 54.3435 3.56961 53.1323 3.56961C52.8554 3.56961 52.5765 3.60286 52.2977 3.6714C51.5747 3.85002 50.9005 3.93619 50.2382 3.93619C49.7725 3.93619 49.3097 3.89467 48.8234 3.80952C47.9996 3.66413 47.1445 3.4419 46.2395 3.20617C44.8854 2.85308 43.4853 2.48961 41.9482 2.31514C41.3847 2.25076 40.8319 2.21855 40.3065 2.21855C40.1979 2.21855 40.0883 2.21958 39.9797 2.2227C38.8124 1.59961 37.5484 1.13543 36.2197 0.838421C34.7286 0.505067 33.1583 0.356543 31.1311 0.356543C30.5284 0.356543 29.9286 0.368999 29.41 0.382499C28.8641 0.36796 28.281 0.356543 27.6822 0.356543C25.7861 0.356543 24.3116 0.484288 22.9047 0.769871C21.4997 1.05545 20.1838 1.5155 18.9921 2.13444C18.9373 2.16351 18.8825 2.19257 18.8277 2.22165C18.7191 2.21957 18.6105 2.2175 18.5029 2.2175C17.9716 2.2175 17.4198 2.24971 16.8601 2.3141C15.3231 2.48856 13.921 2.85307 12.566 3.20512C11.7373 3.42112 10.9555 3.62467 10.1973 3.76902C9.62784 3.87806 9.09265 3.93103 8.55942 3.93103C7.88922 3.93103 7.21902 3.84586 6.50968 3.67036C6.23182 3.60286 5.95297 3.5686 5.67511 3.5686C4.46385 3.5686 3.30543 4.20517 2.61272 5.30804C2.32018 5.77121 2.13233 6.28422 2.04623 6.81177C1.53845 7.1472 1.10404 7.61556 0.794865 8.19088C0.0444338 9.58349 0.172603 11.3198 1.11578 12.5733C1.3232 12.8433 1.5267 13.1123 1.7351 13.3802Z" fill="#B6E1E6" stroke="#3E6060" stroke-width="0.7087" stroke-miterlimit="10" stroke-linecap="round" stroke-linejoin="round" stroke-dasharray="4.25 2.83"/>
<path d="M45.6857 56.7256C44.0792 59.7953 44.4539 63.9004 46.5858 66.586C43.907 66.7147 41.232 64.9514 40.1548 62.3448C37.8546 65.3003 33.8647 66.6379 30.3836 65.6202C36.705 57.5439 40.2067 47.0355 40.0726 36.5343C40.0668 36.094 40.0795 35.5914 40.3916 35.3006C40.8915 34.8353 41.639 35.2798 42.2623 35.5249C44.1878 36.2819 46.2962 34.8509 48.3371 35.0856C49.8047 35.2549 51.0972 36.3068 51.8701 37.6413C52.6421 38.9768 52.9444 40.5657 53.0041 42.1307C53.1195 45.1298 52.3779 48.1591 50.9015 50.7179C50.0611 52.1718 48.976 53.5094 48.5084 55.1419C48.0407 56.7744 48.4369 58.8784 49.8977 59.5908C48.0867 60.0529 46.0477 58.6654 45.6857 56.7256Z" fill="#80CECC"/>
<path d="M46.3089 66.885C43.7582 66.885 41.2614 65.2557 40.0893 62.8723C38.2724 64.996 35.5691 66.2505 32.7718 66.2505C31.9284 66.2505 31.0997 66.1342 30.3092 65.9027L29.8973 65.7832L30.1703 65.4343C36.4193 57.4504 39.9288 46.9181 39.7967 36.5395C39.7918 36.1428 39.783 35.4792 40.2096 35.0825C40.4063 34.8987 40.6479 34.8062 40.9287 34.8062C41.3103 34.8062 41.6968 34.9713 42.0705 35.1313C42.1683 35.1738 42.2642 35.2144 42.3582 35.2518C42.7074 35.3899 43.0861 35.4563 43.5136 35.4563C44.1858 35.4563 44.8707 35.2943 45.5966 35.123C46.3344 34.9485 47.0975 34.7678 47.8607 34.7678C48.0338 34.7678 48.2051 34.7772 48.3675 34.7948C49.8292 34.9641 51.2273 35.9714 52.104 37.4897C52.8133 38.714 53.2086 40.2718 53.279 42.1203C53.3974 45.1652 52.6362 48.2723 51.1354 50.8706C50.8937 51.2901 50.6276 51.7044 50.3722 52.1043C49.7157 53.1313 49.0944 54.1013 48.7715 55.227C48.3401 56.7318 48.6854 58.6769 50.0122 59.3259L50.7342 59.679L49.9613 59.8753C49.7079 59.9397 49.4457 59.9729 49.1795 59.9729C47.6503 59.9729 46.2121 58.9344 45.6289 57.5044C44.4441 60.3706 44.8951 64.0011 46.7962 66.3969L47.1562 66.8518L46.5985 66.8778C46.5026 66.8819 46.4058 66.885 46.3089 66.885ZM40.2272 61.7912L40.4072 62.2275C41.3612 64.5329 43.6399 66.1695 46.0203 66.2921C44.1163 63.509 43.8639 59.6052 45.445 56.5822L45.8109 55.8844L45.9557 56.6684C46.2307 58.1462 47.6395 59.3529 49.115 59.3872C48.0681 58.3746 47.8235 56.5282 48.2442 55.0567C48.5915 53.8458 49.2656 52.7928 49.9163 51.7761C50.1687 51.3815 50.4299 50.9744 50.6667 50.5652C52.1108 48.0656 52.8427 45.0737 52.7292 42.1441C52.6617 40.3964 52.2938 38.9342 51.6353 37.795C50.8458 36.4315 49.6022 35.5259 48.3078 35.3774C48.1649 35.3597 48.0152 35.3525 47.8616 35.3525C47.1592 35.3525 46.4253 35.527 45.717 35.6942C44.9949 35.8645 44.2465 36.042 43.5146 36.042C43.0205 36.042 42.5803 35.9631 42.1674 35.8011C42.0685 35.7627 41.9678 35.7191 41.865 35.6755C41.5402 35.5353 41.2036 35.3919 40.9297 35.3919C40.7829 35.3919 40.6685 35.4335 40.5736 35.5217C40.3564 35.7243 40.3436 36.1324 40.3495 36.5322C40.4806 46.8952 37.0318 57.4057 30.8737 65.4498C31.4891 65.5942 32.1251 65.6669 32.7718 65.6669C35.5534 65.6669 38.2332 64.3553 39.9425 62.16L40.2272 61.7912Z" fill="#202B2B"/>
<path d="M13.198 56.0692C14.8055 59.1379 14.4308 63.2441 12.2979 65.9286C14.9777 66.0584 17.6517 64.2961 18.7289 61.6875C21.0291 64.643 25.019 65.9816 28.5011 64.9649C22.1787 56.8876 18.678 46.3781 18.8111 35.878C18.8169 35.4366 18.8052 34.9361 18.4931 34.6443C17.9931 34.179 17.2446 34.6225 16.6214 34.8686C14.6959 35.6256 12.5875 34.1936 10.5465 34.4293C9.07992 34.5986 7.78648 35.6506 7.01452 36.985C6.24257 38.3205 5.94024 39.9094 5.88056 41.4744C5.76413 44.4725 6.50674 47.5028 7.98314 50.0606C8.8226 51.5166 9.90765 52.852 10.3753 54.4845C10.844 56.117 10.4467 58.221 8.98697 58.9344C10.799 59.3966 12.8379 58.0081 13.198 56.0692Z" fill="#80CECC"/>
<path d="M12.5758 66.2287C12.4799 66.2287 12.383 66.2266 12.2861 66.2214L11.7285 66.1944L12.0885 65.7407C13.9895 63.3459 14.4396 59.7143 13.2557 56.8492C12.6726 58.2781 11.2353 59.3156 9.70513 59.3156C9.43998 59.3156 9.17582 59.2834 8.92339 59.2179L8.14948 59.0217L8.87154 58.6686C10.1973 58.0206 10.5436 56.0755 10.1121 54.5707C9.78927 53.4439 9.16897 52.474 8.51148 51.448C8.25514 51.0472 7.99098 50.6338 7.74834 50.2142C6.24845 47.6149 5.48628 44.5078 5.60565 41.4619C5.67609 39.6144 6.07234 38.0567 6.77972 36.8313C7.65735 35.3141 9.0545 34.3067 10.5172 34.1375C10.6796 34.1188 10.8499 34.1095 11.024 34.1095C11.7862 34.1095 12.5503 34.2901 13.288 34.4646C14.013 34.637 14.6989 34.799 15.3701 34.799C15.7986 34.799 16.1753 34.7325 16.5265 34.5944C16.6204 34.5581 16.7153 34.5165 16.8142 34.475C17.1879 34.314 17.5734 34.1489 17.956 34.1489C18.2368 34.1489 18.4784 34.2413 18.6751 34.4251C19.1017 34.8229 19.0929 35.4854 19.088 35.8821C18.9559 46.2618 22.4644 56.7931 28.7144 64.7769L28.9864 65.1259L28.5745 65.2463C27.7849 65.4769 26.9572 65.5932 26.1129 65.5932C23.3166 65.5932 20.6133 64.3377 18.7954 62.215C17.6243 64.5983 15.1274 66.2287 12.5758 66.2287ZM13.0738 55.2291L13.4387 55.928C15.0208 58.949 14.7683 62.8537 12.8644 65.6379C15.2458 65.5143 17.5245 63.8776 18.4765 61.5711L18.6565 61.137L18.9422 61.5036C20.6505 63.699 23.3313 65.0106 26.1129 65.0106C26.7596 65.0106 27.3965 64.939 28.0109 64.7946C21.8529 56.7495 18.405 46.2379 18.5352 35.8759C18.5401 35.475 18.5273 35.069 18.3101 34.8665C18.2143 34.7772 18.1017 34.7346 17.955 34.7346C17.68 34.7346 17.3445 34.88 17.0196 35.0181C16.9169 35.0628 16.8151 35.1054 16.7173 35.1438C16.3044 35.3058 15.8632 35.3847 15.3691 35.3847C14.6372 35.3847 13.8897 35.2082 13.1667 35.0378C12.4574 34.8696 11.7245 34.6962 11.023 34.6962C10.8694 34.6962 10.7187 34.7055 10.5769 34.7211C9.28246 34.8707 8.03794 35.7741 7.24936 37.1387C6.59089 38.2779 6.22204 39.7412 6.15551 41.4879C6.04201 44.4185 6.77483 47.4083 8.21797 49.909C8.45376 50.3171 8.71499 50.7252 8.96742 51.1198C9.61903 52.1365 10.2922 53.1895 10.6395 54.4004C11.0622 55.8719 10.8176 57.7184 9.76971 58.7309C11.2451 58.6966 12.653 57.4899 12.928 56.0121L13.0738 55.2291Z" fill="#202B2B"/>
<path d="M21.7306 64.67C22.346 63.5671 22.7413 62.3282 22.8842 61.056C23.0965 62.5878 24.2079 63.9337 25.609 64.3595C23.0466 58.8763 23.1532 52.2476 20.2259 46.9753C18.1546 43.2461 14.6715 40.411 13.3076 36.3318C11.1297 36.3401 9.45272 38.6746 9.30009 40.9801C9.14942 43.2855 10.1356 45.4964 11.2412 47.4872C11.7021 48.317 12.1932 49.1436 12.4427 50.0678C12.6922 50.9942 12.6658 52.0555 12.1423 52.8427C13.5082 51.6785 14.1344 49.6213 13.6686 47.8309C13.7694 49.5527 14.5482 51.1354 15.0276 52.7845C15.6695 55.0017 15.7663 57.3933 15.3035 59.6593C16.1616 58.7724 16.7956 57.6436 17.1214 56.4202C17.9618 58.0912 18.0567 60.165 17.3709 61.9149C18.5 61.0955 19.3463 59.8462 19.7161 58.4484C20.9323 60.2575 21.6406 62.4466 21.7306 64.67Z" fill="#3E9176"/>
<path d="M37.7147 64.67C37.0993 63.5671 36.704 62.3282 36.5611 61.056C36.3488 62.5878 35.2374 63.9337 33.8363 64.3595C36.3987 58.8763 36.2921 52.2476 39.2194 46.9753C41.2907 43.2461 44.7738 40.411 46.1377 36.3318C48.3156 36.3401 49.9926 38.6746 50.1452 40.9801C50.2959 43.2855 49.3097 45.4964 48.2041 47.4872C47.7432 48.317 47.2521 49.1436 47.0026 50.0678C46.7531 50.9942 46.7785 52.0555 47.303 52.8427C45.9371 51.6785 45.3109 49.6213 45.7767 47.8309C45.6759 49.5527 44.8971 51.1354 44.4177 52.7845C43.7758 55.0017 43.679 57.3933 44.1408 59.6593C43.2837 58.7724 42.6497 57.6436 42.3239 56.4202C41.4835 58.0912 41.3886 60.165 42.0744 61.9149C40.9453 61.0955 40.099 59.8462 39.7292 58.4484C38.513 60.2575 37.8047 62.4466 37.7147 64.67Z" fill="#3E9176"/>
<path d="M39.7997 36.5945C38.9005 33.0823 36.7451 30.0656 34.03 29.0966C33.6328 28.4227 33.127 28.2669 32.4803 28.2087C31.8335 28.1506 31.1888 28.3084 30.544 28.3977C30.3483 28.4237 30.1497 28.4434 29.9511 28.4486V28.1745C29.7388 28.2897 29.5167 28.3624 29.2897 28.404C29.0627 28.3624 28.8396 28.2908 28.6273 28.1745L28.6283 28.4486C28.4297 28.4434 28.2301 28.4247 28.0344 28.3977C27.3897 28.3084 26.7449 28.1506 26.0982 28.2087C25.4515 28.2669 24.9456 28.4227 24.5484 29.0966C21.8333 30.0656 19.677 33.0823 18.7788 36.5945C17.8806 40.1066 18.1507 44.0269 19.1878 47.4716C20.2249 50.9173 21.984 53.9206 24.0064 56.4971C25.336 58.195 26.8731 59.7786 28.6939 60.2179C28.8866 60.2647 29.0921 60.2896 29.2907 60.274C29.4883 60.2906 29.6938 60.2647 29.8865 60.2179C31.7073 59.7786 33.2444 58.195 34.575 56.4971C36.5954 53.9206 38.3555 50.9173 39.3926 47.4716C40.4268 44.028 40.6988 40.1066 39.7997 36.5945Z" fill="#DB84B6"/>
<path d="M29.413 60.572C29.3709 60.572 29.3298 60.57 29.2887 60.5669C29.0833 60.5815 28.8651 60.5596 28.6303 60.5025C26.6148 60.0165 24.9857 58.2064 23.7921 56.684C21.5066 53.77 19.8677 50.6992 18.9226 47.5599C17.7945 43.8099 17.6468 39.8875 18.5107 36.5177C19.4686 32.775 21.7081 29.8485 24.3664 28.8526C24.8067 28.1662 25.3693 27.9792 26.0727 27.9159C26.5913 27.8691 27.1108 27.9533 27.6059 28.0343C27.7595 28.0592 27.9131 28.0852 28.0677 28.1059C28.1646 28.1194 28.2575 28.1298 28.3495 28.1381L28.3485 27.6916L28.7516 27.9128C28.913 28 29.0891 28.0633 29.2878 28.1049C29.4854 28.0633 29.6615 28 29.8239 27.9117L30.226 27.6916L30.2251 28.1381C30.317 28.1298 30.411 28.1184 30.5068 28.1059C30.6604 28.0841 30.8141 28.0592 30.9686 28.0343C31.4657 27.9543 31.9842 27.8691 32.5028 27.9159C33.2062 27.9803 33.7678 28.1662 34.2081 28.8526C36.8684 29.8485 39.107 32.7739 40.0648 36.5177C40.9277 39.8875 40.78 43.8089 39.6519 47.5599C38.7068 50.6992 37.0689 53.77 34.7824 56.684C33.5888 58.2064 31.9598 60.0165 29.9443 60.5025C29.7584 60.5492 29.5793 60.572 29.413 60.572ZM29.2887 59.9802L29.3103 59.9822C29.4668 59.9967 29.6361 59.978 29.8229 59.9334C31.678 59.4858 33.2219 57.763 34.3607 56.3112C36.6003 53.4553 38.2049 50.451 39.1275 47.3833C40.2253 43.7383 40.3691 39.9343 39.5335 36.6724C38.6119 33.073 36.4692 30.2763 33.941 29.376L33.8481 29.3428L33.7952 29.2545C33.4645 28.6927 33.0693 28.5566 32.4558 28.5016C31.994 28.459 31.539 28.5348 31.0518 28.6137C30.8943 28.6397 30.7358 28.6657 30.5773 28.6875C30.3601 28.7176 30.1517 28.7352 29.956 28.7415L29.6713 28.7498L29.6723 28.6075C29.5646 28.6418 29.4521 28.6698 29.3337 28.6916L29.2868 28.701L29.2388 28.6916C29.1214 28.6698 29.0089 28.6418 28.9003 28.6075L28.9013 28.7498L28.6176 28.7415C28.4219 28.7352 28.2125 28.7186 27.9953 28.6875C27.8368 28.6657 27.6783 28.6397 27.5208 28.6137C27.0335 28.5348 26.5796 28.459 26.1168 28.5016C25.5033 28.5566 25.109 28.6927 24.7773 29.2545L24.7255 29.3428L24.6316 29.376C22.1034 30.2763 19.9617 33.074 19.039 36.6724C18.2035 39.9353 18.3483 43.7393 19.4451 47.3833C20.3677 50.451 21.9723 53.4553 24.2118 56.3112C25.3507 57.763 26.8946 59.4868 28.7496 59.9334C28.9375 59.978 29.1068 59.9967 29.2623 59.9822L29.2887 59.9802Z" fill="#202B2B"/>
<path d="M43.4139 31.3066C40.0609 26.3801 34.7776 25.6967 29.3269 25.8712C23.8763 25.6967 18.5685 26.3624 15.24 31.3066C13.4182 34.016 12.5533 37.5396 12.8781 40.9344C12.9466 40.0808 13.3282 39.2656 13.9113 38.7245C14.0639 44.6616 15.8749 50.5279 19.0176 55.2624C20.4724 57.4557 22.2345 59.435 24.3674 60.7155C25.8908 61.6293 27.6167 62.1631 29.3279 62.1393C31.0391 62.1621 32.766 61.6293 34.2884 60.7155C36.4213 59.435 38.1824 57.4557 39.6383 55.2624C42.7809 50.5279 44.5919 44.6616 44.7445 38.7245C45.3276 39.2656 45.7082 40.0808 45.7777 40.9344C46.1182 37.5272 45.2494 34.0057 43.4139 31.3066Z" fill="#D764A5"/>
<path d="M29.4316 62.432H29.323H29.2212C27.5501 62.432 25.8233 61.9273 24.2295 60.9699C22.2834 59.8005 20.4528 57.9374 18.7896 55.4305C15.7467 50.8456 13.9377 45.2005 13.6608 39.4597C13.3771 39.8959 13.1941 40.4224 13.1511 40.9582L12.6022 40.9634C12.2695 37.4897 13.1491 33.909 15.0149 31.1362C18.3444 26.1879 23.6444 25.5533 27.8906 25.5533C28.3505 25.5533 28.822 25.5617 29.3347 25.5772C29.822 25.5606 30.2877 25.5533 30.7417 25.5533C34.9771 25.5533 40.2713 26.1878 43.6369 31.1352C45.5204 33.9017 46.399 37.4834 46.0506 40.9644L45.5018 40.9582C45.4577 40.4213 45.2758 39.8959 44.992 39.4597C44.7151 45.2005 42.9061 50.8456 39.8633 55.4305C38.201 57.9374 36.3704 59.8005 34.4234 60.9699C32.8296 61.9273 31.1027 62.432 29.4316 62.432ZM29.323 61.8473L29.4316 61.8484C31.0078 61.8484 32.6398 61.3675 34.1504 60.4609C36.027 59.3342 37.7969 57.5293 39.4122 55.0941C42.5216 50.4084 44.3169 44.5929 44.4676 38.7161L44.4842 38.0941L44.9245 38.5043C45.1799 38.7421 45.3981 39.0225 45.5732 39.3351C45.5507 36.5104 44.7122 33.7158 43.1898 31.4789C39.9699 26.7455 34.846 26.139 30.7407 26.139C30.2916 26.139 29.8318 26.1463 29.3337 26.1619C28.8103 26.1453 28.3436 26.138 27.8896 26.138C23.7765 26.138 18.6457 26.7455 15.462 31.4769C13.9553 33.7158 13.1197 36.5073 13.0845 39.3247C13.2587 39.0163 13.4739 38.739 13.7264 38.5053L14.1666 38.0951L14.1833 38.7172C14.3339 44.5929 16.1293 50.4095 19.2386 55.0951C20.854 57.5303 22.6249 59.3353 24.5005 60.462C26.0111 61.3686 27.6431 61.8494 29.2193 61.8494L29.323 61.8473Z" fill="#202B2B"/>
<path d="M29.1371 60.406C36.0806 60.406 41.7095 52.7418 41.7095 43.2876C41.7095 33.8333 36.0806 26.1692 29.1371 26.1692C22.1935 26.1692 16.5647 33.8333 16.5647 43.2876C16.5647 52.7418 22.1935 60.406 29.1371 60.406Z" fill="#DB84B6"/>
<path d="M53.008 12.3729C49.931 12.3573 46.9107 11.4943 43.861 11.0094C40.8113 10.5244 37.5944 10.4424 34.7834 11.9025C32.448 13.1154 30.5597 15.3596 29.4042 18.0264C28.2487 15.3596 26.3604 13.1154 24.025 11.9025C21.214 10.4424 17.9961 10.5233 14.9474 11.0094C11.8987 11.4954 8.87743 12.3584 5.80037 12.3729C7.09968 14.0044 8.02231 16.0419 8.44498 18.2154C8.09765 18.2154 7.74836 18.2154 7.40103 18.2154C8.63674 19.175 9.23161 20.9331 9.49871 22.6373C9.76582 24.3414 9.77854 26.1017 10.1973 27.7643C10.6151 29.4269 11.5622 31.0532 12.9906 31.5194C12.5073 31.9068 11.8968 32.0688 11.3176 31.9639C13.744 33.3576 16.6283 33.6297 19.2152 32.7127C18.8659 33.5881 18.2573 34.3202 17.5186 34.7554C19.2504 34.9236 20.8696 33.8488 22.3734 32.8331C23.8772 31.8175 25.5356 30.7925 27.2566 31.0708C27.9816 31.1871 28.7839 31.5143 29.4042 31.0978C30.0255 31.5132 30.8268 31.1871 31.5518 31.0708C33.2728 30.7925 34.9312 31.8185 36.435 32.8331C37.9388 33.8477 39.558 34.9236 41.2898 34.7554C40.5501 34.3202 39.9425 33.5881 39.5932 32.7127C42.1811 33.6307 45.0644 33.3576 47.4909 31.9639C46.9117 32.0698 46.3011 31.9068 45.8178 31.5194C47.2472 31.0532 48.1943 29.4259 48.6111 27.7643C49.0299 26.1017 49.0416 24.3414 49.3097 22.6373C49.5758 20.9331 50.1717 19.175 51.4074 18.2154C51.0591 18.2154 50.7108 18.2154 50.3625 18.2154C50.7851 16.0419 51.7087 14.0044 53.008 12.3729Z" fill="#80CECC"/>
<path d="M40.9268 35.0648C39.2283 35.0648 37.6658 34.0097 36.2872 33.0792C34.9644 32.1882 33.5555 31.3169 32.1329 31.3169C31.95 31.3169 31.769 31.3315 31.5929 31.3595C31.4422 31.3834 31.2876 31.4187 31.132 31.4519C30.8092 31.5225 30.4745 31.5952 30.1458 31.5952C29.864 31.5952 29.6194 31.5423 29.4032 31.4322C29.186 31.5423 28.9424 31.5952 28.6606 31.5952C28.3309 31.5952 27.9972 31.5236 27.6744 31.4519C27.5188 31.4187 27.3652 31.3844 27.2135 31.3595C27.0374 31.3315 26.8555 31.3169 26.6735 31.3169C25.2509 31.3169 23.84 32.1882 22.5192 33.0792C21.035 34.0814 19.3355 35.2268 17.4912 35.0472L16.6009 34.9599L17.3826 34.4999C17.8972 34.1966 18.3405 33.7428 18.6682 33.1893C17.8327 33.423 16.9707 33.5403 16.095 33.5403C14.3848 33.5403 12.6863 33.0844 11.1835 32.2214L9.71393 31.3782L11.3606 31.6752C11.6913 31.7344 12.0435 31.6928 12.3624 31.5589C11.2588 30.9399 10.3695 29.5962 9.92722 27.8391C9.66403 26.7943 9.55738 25.7039 9.45465 24.6509C9.39106 24.0029 9.3255 23.332 9.22473 22.6861C9.00557 21.2883 8.48311 19.4201 7.23663 18.4511L6.55566 17.9215L8.10055 17.9226C7.65832 15.9224 6.79341 14.076 5.589 12.5629L5.20743 12.0842L5.79838 12.0811C7.90096 12.0697 10.0251 11.6501 12.0797 11.242C13.0043 11.0592 13.9602 10.8702 14.9053 10.7196C16.2555 10.5036 17.4452 10.3998 18.542 10.3998C20.7072 10.3998 22.5407 10.8058 24.1463 11.6387C26.3203 12.7675 28.1704 14.7843 29.4042 17.3545C30.6379 14.7843 32.4881 12.7675 34.6621 11.6387C36.2676 10.8048 38.1011 10.3998 40.2663 10.3998C41.3631 10.3998 42.5529 10.5036 43.903 10.7196C44.8482 10.8702 45.8031 11.0592 46.7287 11.242C48.7833 11.6501 50.9074 12.0697 53.01 12.0811L53.6009 12.0842L53.2193 12.5629C52.014 14.076 51.149 15.9224 50.7068 17.9226L52.2517 17.9215L51.5717 18.4511C50.3252 19.4211 49.8018 21.2883 49.5836 22.6861C49.4819 23.332 49.4163 24.0029 49.3537 24.6509C49.251 25.705 49.1433 26.7943 48.8811 27.8391C48.4389 29.5962 47.5495 30.9399 46.4459 31.5589C46.7649 31.6928 47.1181 31.7355 47.4468 31.6752L49.0944 31.3782L47.6249 32.2214C46.123 33.0834 44.4245 33.5403 42.7133 33.5403C41.8376 33.5403 40.9757 33.423 40.1401 33.1893C40.4679 33.7418 40.9111 34.1966 41.4257 34.4999L42.2075 34.9599L41.3171 35.0472C41.1851 35.0586 41.0559 35.0648 40.9268 35.0648ZM32.1329 30.7312C33.7033 30.7312 35.1924 31.6472 36.5837 32.586C37.7519 33.3752 39.059 34.2569 40.4141 34.4438C39.9591 34.0056 39.5893 33.4521 39.3388 32.8248L39.1011 32.2277L39.6803 32.4333C41.8474 33.2018 44.2983 33.1031 46.4312 32.1726C46.1524 32.0823 45.8872 31.94 45.6514 31.752L45.2219 31.4073L45.7375 31.239C46.9067 30.8579 47.8812 29.5297 48.3459 27.6874C48.5974 26.6874 48.7011 25.6208 48.8029 24.5907C48.8674 23.9333 48.934 23.2542 49.0377 22.5885C49.3195 20.7909 49.8722 19.4221 50.6824 18.5072H50.0239L50.0924 18.1562C50.4867 16.1301 51.2948 14.2401 52.4405 12.6533C50.4769 12.5806 48.5221 12.1932 46.6259 11.8173C45.7062 11.6345 44.7552 11.4466 43.8199 11.297C42.4971 11.0872 41.3348 10.9834 40.2654 10.9834C38.1853 10.9834 36.432 11.3697 34.9047 12.1641C32.6916 13.3127 30.8277 15.4375 29.6546 18.1479L29.4042 18.7263L29.1537 18.1479C27.9806 15.4385 26.1158 13.3137 23.9036 12.1641C22.3754 11.3697 20.6221 10.9834 18.543 10.9834C17.4736 10.9834 16.3113 11.0872 14.9885 11.297C14.0531 11.4466 13.1011 11.6345 12.1824 11.8173C10.2863 12.1922 8.33047 12.5795 6.36781 12.6533C7.51351 14.239 8.32167 16.1291 8.71596 18.1562L8.78445 18.5072H8.12599C8.9361 19.4221 9.4889 20.7898 9.77068 22.5885C9.87341 23.2542 9.94092 23.9333 10.0055 24.5907C10.1063 25.6208 10.211 26.6884 10.4624 27.6874C10.9271 29.5297 11.9016 30.8579 13.0708 31.239L13.5864 31.4073L13.1559 31.752C12.9211 31.9411 12.656 32.0823 12.3771 32.1726C14.511 33.1031 16.9619 33.2018 19.1281 32.4333L19.7073 32.2277L19.4685 32.8248C19.2191 33.4521 18.8482 34.0056 18.3943 34.4438C19.7493 34.2569 21.0565 33.3752 22.2247 32.586C23.615 31.6472 25.1041 30.7312 26.6754 30.7312C26.8848 30.7312 27.0952 30.7489 27.2987 30.7811C27.4581 30.807 27.6225 30.8423 27.7869 30.8787C28.0833 30.9441 28.3886 31.0106 28.6625 31.0106C28.9062 31.0106 29.095 30.9597 29.2574 30.8507L29.4042 30.752L29.5509 30.8507C29.7133 30.9597 29.9022 31.0106 30.1458 31.0106C30.4188 31.0106 30.725 30.9441 31.0215 30.8787C31.1858 30.8423 31.3502 30.8081 31.5097 30.7811C31.7132 30.7478 31.9226 30.7312 32.1329 30.7312Z" fill="#202B2B"/>
<path d="M49.2304 10.1765C50.5004 9.93354 51.6833 9.11833 52.4797 7.93861C50.5806 8.40697 48.6043 8.09855 46.7032 7.64058C44.8022 7.18364 42.9158 6.57509 40.9767 6.44113C39.0394 6.30613 36.9975 6.69555 35.4419 8.05181C35.437 7.42249 35.7119 6.79732 36.1551 6.43593C33.6172 6.62701 31.3982 8.73618 30.1673 11.3334C29.8631 11.9731 29.6126 12.6409 29.4042 13.3263C29.1948 12.6409 28.9434 11.9731 28.641 11.3334C27.4102 8.73618 25.1912 6.62701 22.6532 6.43593C23.0955 6.79732 23.3704 7.42145 23.3665 8.05181C21.8108 6.69555 19.7689 6.30613 17.8317 6.44113C15.8935 6.57509 14.0062 7.18364 12.1051 7.64058C10.2041 8.09855 8.22775 8.40697 6.32868 7.93861C7.1251 9.11937 8.30798 9.93354 9.57794 10.1765C7.97141 10.6563 6.28857 10.7747 4.64486 10.5245C6.58306 13.0978 9.16799 15.3222 12.1012 15.4188C13.9856 15.4822 15.7947 14.6628 17.6135 14.0833C19.4304 13.5018 21.4508 13.1757 23.1385 14.1529C24.61 15.0065 25.5747 16.7149 26.2841 18.446C27.15 20.5583 27.7399 22.8232 28.0315 25.1391C28.0951 25.6562 28.1509 26.1869 28.2565 26.6936C28.2174 27.4019 28.1616 28.107 28.0794 28.8111C28.5031 29.0541 28.9874 28.968 29.4042 28.6979C29.821 28.969 30.3053 29.0552 30.728 28.8111C30.6458 28.107 30.591 27.4019 30.5509 26.6936C30.6575 26.1869 30.7123 25.6562 30.7769 25.1391C31.0675 22.8232 31.6584 20.5583 32.5233 18.446C33.2326 16.7149 34.1974 15.0065 35.6698 14.1529C37.3586 13.1757 39.378 13.5018 41.1948 14.0833C43.0127 14.6639 44.8227 15.4822 46.7062 15.4188C49.6404 15.3222 52.2253 13.0978 54.1635 10.5245C52.5208 10.7747 50.836 10.6563 49.2304 10.1765Z" fill="#3E9176"/>
<path d="M30.1908 29.2472C29.9315 29.2472 29.6625 29.1735 29.4032 29.0323C28.9081 29.3023 28.3798 29.3158 27.9483 29.0686L27.783 28.9731L27.8055 28.7758C27.8788 28.1485 27.9356 27.4735 27.9786 26.7164C27.8935 26.2979 27.8407 25.867 27.7898 25.4485L27.7575 25.1774C27.4689 22.8813 26.8877 20.6559 26.0307 18.5623C25.1521 16.4168 24.1903 15.0979 23.0045 14.4104C21.6787 13.6419 20.039 13.6128 17.6908 14.3626C17.3112 14.4831 16.9335 14.615 16.5539 14.7469C15.1157 15.2453 13.6295 15.7594 12.0905 15.7106C8.79228 15.6026 6.10266 12.9295 4.42765 10.7082L3.99226 10.1308L4.68203 10.2357C5.94416 10.4278 7.24543 10.3956 8.50169 10.1443C7.56341 9.73309 6.72101 9.02586 6.10266 8.10887L5.67608 7.47852L6.38836 7.65403C7.00475 7.80565 7.64657 7.88041 8.35102 7.88041C9.69534 7.88041 11.0289 7.60001 12.0415 7.35597C12.4965 7.24693 12.9514 7.12752 13.4054 7.01017C14.8358 6.63736 16.3152 6.25311 17.8111 6.14926C19.8051 6.01218 21.6015 6.44213 22.9732 7.38715C22.8695 7.09949 22.6992 6.844 22.483 6.66746L21.759 6.07554L22.6718 6.14406C25.1139 6.32891 27.4953 8.26568 28.8856 11.2015C29.0725 11.5961 29.2457 12.0125 29.4032 12.4477C29.5607 12.0125 29.7339 11.5961 29.9198 11.2015C31.3111 8.26568 33.6915 6.32891 36.1346 6.14406L37.0464 6.07554L36.3224 6.66746C36.1072 6.844 35.9369 7.09949 35.8332 7.38715C37.2049 6.44213 39.0003 6.01114 40.9952 6.14926C42.4912 6.25311 43.9706 6.63736 45.4 7.01017C45.8549 7.12752 46.3099 7.24693 46.7649 7.35597C47.7775 7.60001 49.1111 7.88041 50.4554 7.88041C51.1598 7.88041 51.8016 7.80669 52.418 7.65403L53.1303 7.47852L52.7037 8.10887C52.0854 9.02586 51.243 9.73309 50.3047 10.1443C51.561 10.3956 52.8622 10.4268 54.1244 10.2357L54.8132 10.1308L54.3787 10.7082C52.7037 12.9306 50.0141 15.6036 46.715 15.7106C45.1828 15.7604 43.6907 15.2464 42.2525 14.7469C41.8729 14.615 41.4952 14.4831 41.1156 14.3626C38.7684 13.6128 37.1286 13.6419 35.8009 14.4104C34.6161 15.0979 33.6543 16.4168 32.7757 18.5623C31.9187 20.6559 31.3375 22.8813 31.0489 25.1774L31.0156 25.4485C30.9647 25.8659 30.9129 26.2969 30.8277 26.7164C30.8708 27.4735 30.9275 28.1475 31.0009 28.7758L31.0234 28.9731L30.8581 29.0686C30.6526 29.187 30.4286 29.2472 30.1908 29.2472ZM29.4042 28.3552L29.548 28.4486C29.8484 28.6439 30.1605 28.7083 30.4286 28.6273C30.365 28.0395 30.3141 27.4091 30.2759 26.7112L30.273 26.6697L30.2818 26.6303C30.3669 26.2242 30.4197 25.7912 30.4696 25.3737L30.5029 25.1006C30.7984 22.7505 31.3923 20.4731 32.2709 18.3286C33.2004 16.0574 34.2394 14.6492 35.5377 13.8963C36.2921 13.4581 37.1746 13.2359 38.1579 13.2359C39.0639 13.2359 40.0834 13.4207 41.2751 13.8008C41.6586 13.9234 42.0412 14.0563 42.4247 14.1892C43.8179 14.6731 45.2581 15.1737 46.6983 15.1249C49.523 15.0314 51.9024 12.888 53.5158 10.8962C52.0502 11.0302 50.5718 10.8785 49.157 10.4569L48.0055 10.1132L49.1825 9.88781C50.1511 9.70089 51.0688 9.16087 51.784 8.37059C51.3594 8.43186 50.9201 8.46196 50.4563 8.46196C49.0572 8.46196 47.6836 8.17536 46.6445 7.92405C46.1856 7.81397 45.7277 7.69454 45.2708 7.57512C43.8639 7.20853 42.409 6.82946 40.961 6.72976C40.7291 6.71315 40.4953 6.7059 40.2683 6.7059C38.4054 6.7059 36.7969 7.24902 35.619 8.27608L35.1738 8.66447L35.1689 8.05281C35.165 7.6208 35.2755 7.19503 35.4741 6.83156C33.4763 7.28434 31.5831 8.99782 30.4158 11.4621C30.1311 12.0624 29.8797 12.7187 29.6674 13.4135L29.4052 14.2744L29.142 13.4135C28.9306 12.7197 28.6792 12.0624 28.3945 11.4621C27.2272 8.99782 25.334 7.28434 23.3362 6.83156C23.5338 7.19503 23.6443 7.6208 23.6414 8.05281L23.6365 8.66447L23.1914 8.27608C22.0134 7.25006 20.4049 6.7059 18.542 6.7059C18.315 6.7059 18.0812 6.71419 17.8483 6.72976C16.4013 6.8305 14.9454 7.20957 13.5395 7.57512C13.0816 7.69454 12.6237 7.81293 12.1658 7.92405C11.1258 8.17432 9.75208 8.46196 8.35395 8.46196C7.88922 8.46196 7.44992 8.43186 7.02627 8.37059C7.74148 9.16087 8.65922 9.70089 9.62783 9.88781L10.8048 10.1132L9.65327 10.4569C8.23948 10.8785 6.76112 11.0302 5.29451 10.8962C6.90691 12.888 9.28735 15.0314 12.111 15.1249C13.5551 15.1737 14.9924 14.6721 16.3856 14.1892C16.7691 14.0563 17.1517 13.9234 17.5352 13.8008C18.7269 13.4207 19.7464 13.2359 20.6524 13.2359C21.6357 13.2359 22.5172 13.4581 23.2726 13.8963C24.5709 14.6492 25.6099 16.0574 26.5394 18.3286C27.417 20.472 28.0119 22.7505 28.3064 25.1006L28.3407 25.3737C28.3915 25.7912 28.4434 26.2242 28.5285 26.6303L28.5373 26.6697L28.5344 26.7102C28.4952 27.4091 28.4453 28.0384 28.3817 28.6273C28.6488 28.7093 28.9629 28.6449 29.2623 28.4486L29.4042 28.3552Z" fill="#202B2B"/>
<path d="M41.7251 8.18159C40.3378 7.35703 39.0492 6.33619 37.5875 5.66948C35.0407 4.50742 32.1828 4.51158 29.4042 4.58324C26.6246 4.51158 23.7667 4.50742 21.2209 5.66948C19.7601 6.33619 18.4706 7.35703 17.0832 8.18159C15.6959 9.0051 14.1236 9.64378 12.5454 9.43089C14.8065 10.2991 17.5852 10.6158 19.9734 10.9076C22.3617 11.1994 24.8625 11.8693 26.5248 13.7105C27.192 14.4488 27.7566 15.3814 28.4747 16.0263C28.7311 16.2558 29.0637 16.3659 29.3983 16.3659H29.4081C29.7437 16.3659 30.0764 16.2558 30.3317 16.0263C31.0499 15.3814 31.6154 14.4478 32.2807 13.7105C33.944 11.8693 36.4447 11.1994 38.832 10.9076C41.2203 10.6158 43.9999 10.2991 46.261 9.43089C44.6848 9.64378 43.1125 9.0051 41.7251 8.18159Z" fill="#D764A5"/>
<path d="M29.4091 16.6598H29.3993C28.9835 16.6598 28.5921 16.5133 28.2976 16.2496C27.8475 15.8456 27.4572 15.3367 27.0805 14.8445C26.8368 14.5267 26.5864 14.1996 26.3261 13.913C24.9877 12.43 22.9595 11.567 19.9421 11.1973L19.6681 11.1651C17.32 10.8775 14.6568 10.5524 12.4524 9.70709L10.1151 8.80986L12.5806 9.14113C13.8565 9.31144 15.2761 8.91785 16.9492 7.92609C17.4433 7.63324 17.9344 7.30714 18.4099 6.99352C19.2689 6.42443 20.1573 5.83666 21.1122 5.40154C23.3068 4.3994 25.6853 4.26544 27.7223 4.26544C28.3162 4.26544 28.9101 4.27789 29.412 4.29035C29.9002 4.27685 30.4921 4.26544 31.088 4.26544C33.125 4.26544 35.5035 4.3994 37.698 5.40154C38.653 5.83666 39.5413 6.42443 40.4004 6.99352C40.8759 7.30818 41.367 7.63324 41.8611 7.92609C43.5332 8.91888 44.9558 9.31248 46.2297 9.14113L48.6952 8.80986L46.3578 9.70709C44.1535 10.5524 41.4903 10.8775 39.1412 11.1651L38.8682 11.1973C35.8508 11.567 33.8226 12.4311 32.4842 13.913C32.2239 14.1996 31.9744 14.5278 31.7298 14.8445C31.3531 15.3367 30.9628 15.8456 30.5127 16.2496C30.2153 16.5133 29.8239 16.6598 29.4091 16.6598ZM14.2253 9.66038C16.005 10.1287 17.9579 10.3676 19.7308 10.5836L20.0047 10.6179C21.9879 10.8598 24.8419 11.4248 26.7243 13.509C26.9983 13.8133 27.2576 14.1508 27.507 14.4769C27.8681 14.9483 28.2418 15.4354 28.6528 15.803C28.8484 15.9785 29.1136 16.0741 29.3993 16.0741H29.4091C29.6947 16.0741 29.9599 15.9785 30.1556 15.803C30.5665 15.4354 30.9402 14.9473 31.3013 14.4769C31.5508 14.1518 31.81 13.8133 32.084 13.509C33.9664 11.4248 36.8204 10.8598 38.8026 10.6179L39.0766 10.5836C40.8504 10.3676 42.8033 10.1287 44.582 9.66038C43.6604 9.4828 42.6722 9.07777 41.5901 8.43599C41.0852 8.1369 40.5882 7.80772 40.1068 7.48995C39.2654 6.93228 38.3947 6.3559 37.4779 5.93843C35.3753 4.97887 33.0663 4.84908 31.086 4.84908C30.497 4.84908 29.908 4.86257 29.41 4.87504C28.8993 4.86154 28.3093 4.84908 27.7203 4.84908C25.7401 4.84908 23.431 4.97887 21.3275 5.93843C20.4117 6.3559 19.5419 6.93228 18.6995 7.48995C18.2191 7.80772 17.7211 8.1369 17.2163 8.43599C16.1361 9.07777 15.1479 9.4828 14.2253 9.66038Z" fill="#202B2B"/>
<path d="M35.2129 8.41727C34.5593 7.74225 33.9518 6.90422 33.263 6.35694C32.0615 5.40361 30.7142 5.40774 29.4042 5.46693C28.0931 5.40774 26.7459 5.40361 25.5454 6.35694C24.8566 6.90422 24.249 7.74225 23.5944 8.41727C22.9409 9.09228 22.1983 9.61673 21.4547 9.4433C22.5211 10.1547 23.8322 10.4143 24.9573 10.6542C26.0825 10.893 27.2625 11.4434 28.0461 12.9544C28.3191 13.4799 28.5559 14.1279 28.8367 14.6357C28.9521 14.8465 29.1703 14.9722 29.4002 14.9722H29.4081C29.638 14.9722 29.8552 14.8465 29.9716 14.6357C30.2515 14.1279 30.4882 13.4799 30.7612 12.9544C31.5459 11.4434 32.7248 10.8941 33.851 10.6542C34.9761 10.4143 36.2872 10.1547 37.3536 9.4433C36.6091 9.61673 35.8675 9.09228 35.2129 8.41727Z" fill="#DB84B6"/>
<path d="M18.8326 29.1226C23.7839 29.1226 27.7977 24.8624 27.7977 19.607C27.7977 14.3517 23.7839 10.0914 18.8326 10.0914C13.8813 10.0914 9.86755 14.3517 9.86755 19.607C9.86755 24.8624 13.8813 29.1226 18.8326 29.1226Z" fill="#DB84B6"/>
<path d="M18.8326 29.4155C13.7371 29.4155 9.59164 25.0154 9.59164 19.607C9.59164 14.1986 13.7371 9.79849 18.8326 9.79849C23.9281 9.79849 28.0736 14.1986 28.0736 19.607C28.0736 25.0154 23.9281 29.4155 18.8326 29.4155ZM18.8326 10.3842C14.0414 10.3842 10.1425 14.5205 10.1425 19.607C10.1425 24.6935 14.0404 28.8308 18.8326 28.8308C23.6248 28.8308 27.5227 24.6935 27.5227 19.607C27.5227 14.5205 23.6248 10.3842 18.8326 10.3842Z" fill="#202B2B"/>
<path d="M18.8326 27.7009C23.0442 27.7009 26.4583 24.0772 26.4583 19.607C26.4583 15.1368 23.0442 11.513 18.8326 11.513C14.6211 11.513 11.207 15.1368 11.207 19.607C11.207 24.0772 14.6211 27.7009 18.8326 27.7009Z" fill="#F6E00C"/>
<path d="M18.8326 27.9938C14.4758 27.9938 10.9311 24.2314 10.9311 19.607C10.9311 14.9826 14.4758 11.2202 18.8326 11.2202C23.1894 11.2202 26.7332 14.9826 26.7332 19.607C26.7332 24.2314 23.1894 27.9938 18.8326 27.9938ZM18.8326 11.8059C14.7791 11.8059 11.4819 15.3046 11.4819 19.607C11.4819 23.9095 14.7791 27.4091 18.8326 27.4091C22.8861 27.4091 26.1833 23.9095 26.1833 19.607C26.1833 15.3046 22.8861 11.8059 18.8326 11.8059Z" fill="#202B2B"/>
<path d="M18.8326 22.6144C20.3975 22.6144 21.666 21.2679 21.666 19.6069C21.666 17.946 20.3975 16.5995 18.8326 16.5995C17.2677 16.5995 15.9992 17.946 15.9992 19.6069C15.9992 21.2679 17.2677 22.6144 18.8326 22.6144Z" fill="#202B2B"/>
<path d="M24.0083 20.6423C24.1864 20.6756 24.4075 20.8916 24.565 21.1242C24.7284 21.3548 24.84 21.5967 24.84 21.5967C24.84 21.5967 24.6179 21.7297 24.3605 21.821C24.1071 21.9176 23.8078 21.9602 23.6444 21.8813C23.3332 21.7255 23.1542 21.362 23.254 21.0733C23.3254 20.7742 23.6688 20.5821 24.0083 20.6423Z" fill="#3E9176"/>
<path d="M23.1649 22.7869C23.3107 22.8928 23.4271 23.1825 23.4888 23.4681C23.5583 23.7558 23.5534 24.0133 23.5534 24.0133C23.5534 24.0133 23.3029 24.0414 23.0377 24.0175C22.7638 23.9894 22.4703 23.898 22.3548 23.7578C22.1229 23.4733 22.1181 23.0849 22.3059 22.8471C22.5016 22.6207 22.8646 22.575 23.1649 22.7869Z" fill="#3E9176"/>
<path d="M21.5701 24.3798C21.6621 24.5377 21.6631 24.8638 21.6093 25.1483C21.5545 25.4267 21.4576 25.6738 21.4576 25.6738C21.4576 25.6738 21.2238 25.6042 20.9831 25.4505C20.7434 25.3041 20.5145 25.1037 20.4616 24.9251C20.3569 24.5585 20.5027 24.2033 20.764 24.0694C21.0281 23.9468 21.3794 24.0631 21.5701 24.3798Z" fill="#3E9176"/>
<path d="M19.5048 25.1504C19.5282 25.3363 19.404 25.6354 19.2445 25.8628C19.088 26.0975 18.905 26.2834 18.905 26.2834C18.905 26.2834 18.859 26.245 18.7925 26.1681C18.726 26.0923 18.6389 25.9874 18.5577 25.8711C18.3943 25.6354 18.2612 25.3602 18.2818 25.1701C18.3258 24.7984 18.5968 24.5128 18.8864 24.519C19.0351 24.5096 19.1721 24.5792 19.2846 24.6966C19.3962 24.8119 19.4813 24.9614 19.5048 25.1504Z" fill="#3E9176"/>
<path d="M17.321 24.9635C17.2701 25.1494 17.047 25.355 16.8112 25.5015C16.6938 25.5741 16.5764 25.6364 16.4864 25.678C16.3964 25.7226 16.3396 25.7403 16.3396 25.7403C16.3396 25.7403 16.2388 25.4931 16.1801 25.2127C16.1156 24.9365 16.1107 24.6094 16.2007 24.4484C16.2897 24.2854 16.4247 24.1795 16.5686 24.1213C16.7143 24.059 16.867 24.0528 16.9991 24.1213C17.2691 24.2293 17.4129 24.6104 17.321 24.9635Z" fill="#3E9176"/>
<path d="M15.4013 23.8461C15.2869 23.9904 15.0022 24.0828 14.7272 24.1202C14.5873 24.142 14.4621 24.142 14.3672 24.1389C14.2703 24.1337 14.2106 24.1306 14.2106 24.1306C14.2106 24.1306 14.2077 23.8658 14.2596 23.5865C14.3192 23.2967 14.4308 23.0018 14.5736 22.8917C14.8681 22.6747 15.2272 22.7152 15.4327 22.9343C15.5285 23.0558 15.5755 23.2053 15.5755 23.3663C15.5706 23.5273 15.5158 23.7038 15.4013 23.8461Z" fill="#3E9176"/>
<path d="M14.0746 21.9986C13.9191 22.0786 13.607 22.0474 13.3516 21.9581C13.0963 21.8719 12.8742 21.7442 12.8742 21.7442C12.8742 21.7442 12.9681 21.5043 13.1344 21.2665C13.2958 21.0276 13.5072 20.8085 13.6804 20.7701C14.0316 20.6984 14.3574 20.8884 14.4504 21.1792C14.5042 21.3257 14.4758 21.4897 14.4122 21.6351C14.3486 21.7815 14.2331 21.9176 14.0746 21.9986Z" fill="#3E9176"/>
<path d="M13.5688 19.7368C13.3907 19.743 13.1256 19.581 12.9289 19.3879C12.7254 19.1989 12.5689 18.987 12.5689 18.987C12.5689 18.987 12.61 18.9413 12.6902 18.879C12.7675 18.8157 12.8741 18.7347 12.9925 18.662C13.2283 18.5124 13.5023 18.4013 13.6794 18.4439C14.0179 18.5269 14.2635 18.8437 14.2253 19.149C14.2185 19.3058 14.1402 19.4439 14.0189 19.5519C13.8956 19.6579 13.7488 19.7327 13.5688 19.7368Z" fill="#3E9176"/>
<path d="M13.969 17.4511C13.8017 17.3794 13.6373 17.124 13.5219 16.8581C13.4632 16.7273 13.4191 16.5954 13.3878 16.4957C13.3595 16.3981 13.3477 16.3357 13.3477 16.3357C13.3477 16.3357 13.5894 16.2547 13.8575 16.2215C14.1206 16.1821 14.4347 16.2142 14.5727 16.3243C14.7155 16.4344 14.8045 16.5923 14.8388 16.746C14.8818 16.9059 14.874 17.0689 14.7967 17.2018C14.6617 17.4729 14.2968 17.5892 13.969 17.4511Z" fill="#3E9176"/>
<path d="M15.2204 15.5424C15.0981 15.4073 15.0393 15.0958 15.0335 14.7998C15.0276 14.5122 15.0785 14.2546 15.0785 14.2546C15.0785 14.2546 15.3241 14.2754 15.5853 14.3647C15.8504 14.4561 16.1136 14.6025 16.2017 14.7676C16.2897 14.9296 16.3122 15.1134 16.2878 15.2723C16.2751 15.3533 16.2496 15.426 16.2124 15.4915C16.1792 15.561 16.1332 15.6223 16.0725 15.6701C15.9522 15.7615 15.8015 15.7895 15.6528 15.775C15.5011 15.7552 15.3417 15.6784 15.2204 15.5424Z" fill="#3E9176"/>
<path d="M17.0901 14.3336C17.0304 14.1622 17.0911 13.833 17.2036 13.5765C17.3102 13.3148 17.454 13.0926 17.454 13.0926C17.454 13.0926 17.5059 13.1248 17.5871 13.1777C17.6673 13.2379 17.773 13.3221 17.8748 13.4176C18.0812 13.6128 18.2651 13.8569 18.2818 14.0438C18.3111 14.4218 18.0998 14.752 17.817 14.8144C17.6742 14.8549 17.5255 14.8154 17.3924 14.725C17.2642 14.6461 17.1478 14.5101 17.0901 14.3336Z" fill="#3E9176"/>
<path d="M19.2621 14.0376C19.2748 13.8466 19.4539 13.5859 19.6544 13.3979C19.853 13.2027 20.0683 13.0584 20.0683 13.0584C20.0683 13.0584 20.1064 13.1092 20.1573 13.2006C20.2082 13.2879 20.2718 13.4094 20.3285 13.5412C20.445 13.8029 20.5184 14.1072 20.4616 14.29C20.3481 14.6358 20.0252 14.8643 19.7444 14.7895C19.4568 14.7407 19.2415 14.4021 19.2621 14.0376Z" fill="#3E9176"/>
<path d="M21.3608 14.6981C21.444 14.534 21.7032 14.3824 21.9635 14.2879C22.2257 14.1861 22.4703 14.1612 22.4703 14.1612C22.4703 14.1612 22.5221 14.4239 22.5261 14.7074C22.5329 14.993 22.4722 15.3181 22.3548 15.4541C22.2365 15.5933 22.0799 15.6712 21.9302 15.693C21.7805 15.7148 21.624 15.6961 21.5066 15.5995C21.2708 15.423 21.1945 15.0366 21.3608 14.6981Z" fill="#3E9176"/>
<path d="M23.0182 16.2184C23.1581 16.1042 23.4555 16.073 23.7344 16.0958C23.9995 16.1249 24.2402 16.2028 24.2402 16.2028C24.2402 16.2028 24.2255 16.2662 24.204 16.3648C24.1815 16.4614 24.1423 16.5912 24.0827 16.7262C23.9711 16.9962 23.8058 17.2589 23.6443 17.3337C23.4829 17.4095 23.3078 17.4147 23.16 17.3721C23.0133 17.3285 22.8939 17.2361 22.8117 17.1042C22.6708 16.8342 22.7384 16.4552 23.0182 16.2184Z" fill="#3E9176"/>
<path d="M23.9555 18.3183C24.1257 18.2747 24.4231 18.3744 24.6521 18.5177C24.8859 18.66 25.0806 18.8334 25.0806 18.8334C25.0806 18.8334 25.0483 18.8874 24.9847 18.9653C24.9211 19.0432 24.8311 19.146 24.7294 19.2436C24.5268 19.4409 24.2783 19.6102 24.1012 19.6081C23.7451 19.6008 23.4545 19.3433 23.4281 19.0369C23.4056 18.8822 23.4555 18.7295 23.5553 18.5976C23.6473 18.4689 23.7833 18.3619 23.9555 18.3183Z" fill="#3E9176"/>
<path d="M39.9748 29.1226C44.9261 29.1226 48.9399 24.8624 48.9399 19.607C48.9399 14.3517 44.9261 10.0914 39.9748 10.0914C35.0235 10.0914 31.0097 14.3517 31.0097 19.607C31.0097 24.8624 35.0235 29.1226 39.9748 29.1226Z" fill="#DB84B6"/>
<path d="M39.9748 29.4155C34.8793 29.4155 30.7338 25.0154 30.7338 19.607C30.7338 14.1986 34.8793 9.79849 39.9748 9.79849C45.0703 9.79849 49.2158 14.1986 49.2158 19.607C49.2158 25.0154 45.0713 29.4155 39.9748 29.4155ZM39.9748 10.3842C35.1836 10.3842 31.2847 14.5205 31.2847 19.607C31.2847 24.6935 35.1826 28.8308 39.9748 28.8308C44.767 28.8308 48.6649 24.6935 48.6649 19.607C48.6649 14.5205 44.767 10.3842 39.9748 10.3842Z" fill="#202B2B"/>
<path d="M39.9748 27.7009C44.1863 27.7009 47.6004 24.0772 47.6004 19.607C47.6004 15.1368 44.1863 11.513 39.9748 11.513C35.7632 11.513 32.3491 15.1368 32.3491 19.607C32.3491 24.0772 35.7632 27.7009 39.9748 27.7009Z" fill="#F6E00C"/>
<path d="M39.9748 27.9938C35.618 27.9938 32.0733 24.2314 32.0733 19.607C32.0733 14.9826 35.618 11.2202 39.9748 11.2202C44.3316 11.2202 47.8763 14.9826 47.8763 19.607C47.8763 24.2314 44.3326 27.9938 39.9748 27.9938ZM39.9748 11.8059C35.9213 11.8059 32.6241 15.3046 32.6241 19.607C32.6241 23.9095 35.9213 27.4091 39.9748 27.4091C44.0283 27.4091 47.3255 23.9095 47.3255 19.607C47.3255 15.3046 44.0283 11.8059 39.9748 11.8059Z" fill="#202B2B"/>
<path d="M45.217 20.6423C45.3951 20.6756 45.6162 20.8916 45.7737 21.1242C45.9371 21.3548 46.0487 21.5967 46.0487 21.5967C46.0487 21.5967 45.8256 21.7297 45.5693 21.821C45.3158 21.9176 45.0165 21.9602 44.8531 21.8813C44.5419 21.7255 44.3629 21.362 44.4627 21.0733C44.5341 20.7742 44.8765 20.5821 45.217 20.6423Z" fill="#3E9176"/>
<path d="M44.3736 22.7869C44.5194 22.8928 44.6359 23.1825 44.6975 23.4681C44.766 23.7558 44.7621 24.0133 44.7621 24.0133C44.7621 24.0133 44.5116 24.0414 44.2465 24.0175C43.9715 23.9894 43.679 23.898 43.5635 23.7578C43.3317 23.4733 43.3268 23.0849 43.5146 22.8471C43.7103 22.6207 44.0733 22.575 44.3736 22.7869Z" fill="#3E9176"/>
<path d="M42.7789 24.3798C42.8708 24.5377 42.8718 24.8638 42.817 25.1483C42.7622 25.4267 42.6663 25.6738 42.6663 25.6738C42.6663 25.6738 42.4325 25.6042 42.1918 25.4505C41.9521 25.3041 41.7232 25.1037 41.6703 24.9251C41.5656 24.5585 41.7114 24.2033 41.9727 24.0694C42.2368 23.9468 42.5871 24.0631 42.7789 24.3798Z" fill="#3E9176"/>
<path d="M40.7125 25.1504C40.736 25.3363 40.6117 25.6354 40.4522 25.8628C40.2957 26.0975 40.1127 26.2834 40.1127 26.2834C40.1127 26.2834 40.0667 26.245 40.0002 26.1681C39.9337 26.0923 39.8466 25.9874 39.7654 25.8711C39.602 25.6354 39.4689 25.3602 39.4895 25.1701C39.5335 24.7984 39.8035 24.5128 40.0941 24.519C40.2428 24.5096 40.3798 24.5792 40.4923 24.6966C40.6049 24.8119 40.69 24.9614 40.7125 25.1504Z" fill="#3E9176"/>
<path d="M38.5297 24.9635C38.4788 25.1494 38.2557 25.355 38.0199 25.5015C37.9025 25.5741 37.7851 25.6364 37.6951 25.678C37.6051 25.7226 37.5483 25.7403 37.5483 25.7403C37.5483 25.7403 37.4466 25.4931 37.3888 25.2127C37.3243 24.9365 37.3194 24.6094 37.4094 24.4484C37.4984 24.2854 37.6334 24.1795 37.7773 24.1213C37.9231 24.059 38.0757 24.0528 38.2078 24.1213C38.4778 24.2293 38.6216 24.6104 38.5297 24.9635Z" fill="#3E9176"/>
<path d="M36.6101 23.8461C36.4956 23.9904 36.2109 24.0828 35.936 24.1202C35.7961 24.142 35.6708 24.142 35.5759 24.1389C35.4791 24.1337 35.4194 24.1306 35.4194 24.1306C35.4194 24.1306 35.4164 23.8658 35.4683 23.5865C35.528 23.2967 35.6395 23.0018 35.7824 22.8917C36.0769 22.6747 36.4359 22.7152 36.6414 22.9343C36.7373 23.0558 36.7842 23.2053 36.7842 23.3663C36.7794 23.5273 36.7246 23.7038 36.6101 23.8461Z" fill="#3E9176"/>
<path d="M35.2824 21.9986C35.1278 22.0786 34.8147 22.0474 34.5603 21.9581C34.304 21.8719 34.0829 21.7442 34.0829 21.7442C34.0829 21.7442 34.1758 21.5043 34.3431 21.2665C34.5046 21.0276 34.7149 20.8085 34.8881 20.7701C35.2403 20.6984 35.5661 20.8884 35.6591 21.1792C35.7129 21.3257 35.6845 21.4897 35.6209 21.6351C35.5573 21.7815 35.4419 21.9176 35.2824 21.9986Z" fill="#3E9176"/>
<path d="M34.7775 19.7368C34.5995 19.743 34.3343 19.581 34.1377 19.3879C33.9342 19.1989 33.7776 18.987 33.7776 18.987C33.7776 18.987 33.8187 18.9413 33.8989 18.879C33.9762 18.8157 34.0829 18.7347 34.2013 18.662C34.4371 18.5124 34.711 18.4013 34.8871 18.4439C35.2266 18.5269 35.4722 18.8437 35.434 19.149C35.4272 19.3058 35.3489 19.4439 35.2276 19.5519C35.1043 19.6579 34.9576 19.7327 34.7775 19.7368Z" fill="#3E9176"/>
<path d="M35.1777 17.4511C35.0104 17.3794 34.846 17.124 34.7306 16.8581C34.6719 16.7273 34.6278 16.5954 34.5965 16.4957C34.5682 16.3981 34.5564 16.3357 34.5564 16.3357C34.5564 16.3357 34.7981 16.2547 35.0662 16.2215C35.3294 16.1821 35.6434 16.2142 35.7814 16.3243C35.9242 16.4344 36.0133 16.5923 36.0475 16.746C36.0906 16.9059 36.0827 17.0689 36.0054 17.2018C35.8694 17.4729 35.5055 17.5892 35.1777 17.4511Z" fill="#3E9176"/>
<path d="M36.4281 15.5424C36.3058 15.4073 36.2471 15.0958 36.2402 14.7998C36.2353 14.5122 36.2862 14.2546 36.2862 14.2546C36.2862 14.2546 36.5308 14.2754 36.792 14.3647C37.0572 14.4561 37.3214 14.6025 37.4094 14.7676C37.4975 14.9296 37.52 15.1134 37.4955 15.2723C37.4828 15.3533 37.4574 15.426 37.4202 15.4915C37.3869 15.561 37.3409 15.6223 37.2803 15.6701C37.1599 15.7615 37.0092 15.7895 36.8605 15.775C36.7089 15.7552 36.5504 15.6784 36.4281 15.5424Z" fill="#3E9176"/>
<path d="M38.2978 14.3336C38.2391 14.1622 38.2997 13.833 38.4123 13.5765C38.5189 13.3148 38.6627 13.0926 38.6627 13.0926C38.6627 13.0926 38.7146 13.1248 38.7958 13.1777C38.876 13.2379 38.9817 13.3221 39.0834 13.4176C39.2899 13.6128 39.4728 13.8569 39.4905 14.0438C39.5198 14.4218 39.3085 14.752 39.0257 14.8144C38.8829 14.8549 38.7342 14.8154 38.6011 14.725C38.4719 14.6461 38.3565 14.5101 38.2978 14.3336Z" fill="#3E9176"/>
<path d="M40.4689 14.0376C40.4826 13.8466 40.6616 13.5859 40.8622 13.3979C41.0608 13.2027 41.2761 13.0584 41.2761 13.0584C41.2761 13.0584 41.3132 13.1092 41.3641 13.2006C41.416 13.2879 41.4796 13.4094 41.5363 13.5412C41.6518 13.8029 41.7261 14.1072 41.6694 14.29C41.5559 14.6358 41.233 14.8643 40.9522 14.7895C40.6655 14.7407 40.4503 14.4021 40.4689 14.0376Z" fill="#3E9176"/>
<path d="M42.5686 14.6981C42.6527 14.534 42.912 14.3824 43.1722 14.2879C43.4344 14.1861 43.679 14.1612 43.679 14.1612C43.679 14.1612 43.7309 14.4239 43.7348 14.7074C43.7417 14.993 43.68 15.3181 43.5636 15.4541C43.4452 15.5933 43.2887 15.6712 43.139 15.693C42.9893 15.7148 42.8327 15.6961 42.7153 15.5995C42.4795 15.423 42.4032 15.0366 42.5686 14.6981Z" fill="#3E9176"/>
<path d="M44.2269 16.2184C44.3658 16.1042 44.6642 16.073 44.9431 16.0958C45.2082 16.1249 45.4489 16.2028 45.4489 16.2028C45.4489 16.2028 45.4342 16.2662 45.4127 16.3648C45.3902 16.4614 45.3511 16.5912 45.2914 16.7262C45.1798 16.9962 45.0145 17.2589 44.8531 17.3337C44.6916 17.4095 44.5165 17.4147 44.3687 17.3721C44.222 17.3285 44.1026 17.2361 44.0204 17.1042C43.8795 16.8342 43.9471 16.4552 44.2269 16.2184Z" fill="#3E9176"/>
<path d="M45.1642 18.3183C45.3344 18.2747 45.6319 18.3744 45.8598 18.5177C46.0946 18.66 46.2884 18.8334 46.2884 18.8334C46.2884 18.8334 46.2561 18.8874 46.1925 18.9653C46.1289 19.0432 46.0389 19.146 45.9371 19.2436C45.7346 19.4409 45.4861 19.6102 45.309 19.6081C44.9529 19.6008 44.6623 19.3433 44.6359 19.0369C44.6134 18.8822 44.6632 18.7295 44.763 18.5976C44.856 18.4689 44.991 18.3619 45.1642 18.3183Z" fill="#3E9176"/>
<path d="M39.9748 22.6144C41.5397 22.6144 42.8082 21.2679 42.8082 19.6069C42.8082 17.946 41.5397 16.5995 39.9748 16.5995C38.4099 16.5995 37.1414 17.946 37.1414 19.6069C37.1414 21.2679 38.4099 22.6144 39.9748 22.6144Z" fill="#202B2B"/>
<path d="M28.0237 36.7908C28.0247 36.7928 28.0256 36.7939 28.0266 36.7949C28.191 37.0587 28.4816 37.2041 28.781 37.2041H28.9532C29.2516 37.2041 29.5421 37.0587 29.7075 36.7949C29.7085 36.7939 29.7095 36.7928 29.7104 36.7908C29.9638 36.3826 30.0773 35.9008 30.2309 35.4407C31.0577 32.9816 33.1896 31.3003 35.6229 30.9109C34.8421 29.6543 33.6886 28.7228 32.5576 27.8162C32.0106 27.3779 31.4569 26.9345 30.819 26.6728C30.1947 26.4163 29.4717 26.354 28.868 26.6551C28.2644 26.354 27.5413 26.4163 26.9171 26.6728C26.2792 26.9345 25.7235 27.3779 25.1785 27.8162C24.0475 28.7228 22.8939 29.6553 22.1132 30.9109C24.5455 31.3003 26.6784 32.9816 27.5041 35.4407C27.6568 35.8997 27.7703 36.3826 28.0237 36.7908Z" fill="#F6E00C"/>
<path d="M28.9522 37.497H28.78C28.3749 37.497 28.007 37.2955 27.7957 36.9569C27.5765 36.6038 27.4572 36.2207 27.3408 35.8489C27.3085 35.745 27.2772 35.6412 27.2419 35.5394C26.4739 33.2516 24.4907 31.588 22.0691 31.1996L21.6426 31.1321L21.8793 30.7499C22.6943 29.4373 23.9242 28.4518 25.0083 27.5826C25.562 27.1381 26.1344 26.6791 26.8144 26.3997C27.5208 26.11 28.2712 26.085 28.8651 26.3364C29.458 26.085 30.2094 26.1089 30.9158 26.3997C31.5938 26.678 32.1662 27.1381 32.7219 27.5826C33.806 28.4518 35.0349 29.4373 35.8509 30.7499L36.0876 31.1321L35.661 31.1996C33.2376 31.588 31.2563 33.2516 30.4883 35.5394C30.454 35.6412 30.4217 35.745 30.3885 35.8489C30.273 36.2207 30.1527 36.6049 29.9374 36.9517L29.9188 36.9777C29.7241 37.2945 29.3572 37.497 28.9522 37.497ZM22.5867 30.7042C25.0122 31.2453 26.9709 32.9889 27.7615 35.3421C27.7977 35.4491 27.8309 35.556 27.8642 35.6651C27.9738 36.0161 28.0775 36.3473 28.2516 36.6298C28.3612 36.8053 28.5618 36.9112 28.779 36.9112H28.9512C29.1684 36.9112 29.369 36.8043 29.4756 36.6329C29.6537 36.3473 29.7564 36.015 29.866 35.664C29.8993 35.556 29.9325 35.448 29.9687 35.3411C30.7583 32.9879 32.719 31.2443 35.1435 30.7032C34.393 29.6554 33.3755 28.8391 32.3883 28.0467C31.8639 27.6272 31.3219 27.1931 30.7162 26.9429C30.1037 26.6915 29.4609 26.6791 28.9815 26.9179L28.8651 26.9771L28.7477 26.9179C28.2693 26.6801 27.6264 26.6915 27.014 26.9429C26.4074 27.1921 25.8653 27.6262 25.3419 28.0467C24.3547 28.8412 23.3362 29.6574 22.5867 30.7042Z" fill="#202B2B"/>
<path d="M41.1704 39.2936C41.2183 39.5272 41.0823 39.9125 40.9268 40.2417C40.7712 40.5657 40.5961 40.8254 40.5961 40.8254C40.5961 40.8254 40.3456 40.6405 40.0922 40.3965C39.8378 40.1524 39.5834 39.8481 39.5502 39.6124C39.4846 39.1399 39.7821 38.6923 40.2165 38.6134C40.6538 38.5428 41.0735 38.8221 41.1704 39.2936Z" fill="#FAE8C7"/>
<path d="M38.7332 39.7298C38.7625 39.9665 38.5982 40.3383 38.4201 40.6509C38.242 40.9676 38.0522 41.2096 38.0522 41.2096C38.0522 41.2096 37.8174 41.006 37.5826 40.7433C37.3468 40.4805 37.112 40.1586 37.0914 39.9198C37.0543 39.4442 37.384 39.0205 37.8282 38.9758C38.2714 38.9312 38.6725 39.2521 38.7332 39.7298Z" fill="#FAE8C7"/>
<path d="M36.2657 39.9873C36.2823 40.2251 36.0984 40.5854 35.9066 40.8865C35.7139 41.1898 35.5162 41.4266 35.5162 41.4266C35.5162 41.4266 34.6318 40.5677 34.6132 40.0911C34.5926 39.6144 34.9429 39.2063 35.3939 39.1824C35.844 39.1554 36.2324 39.5085 36.2657 39.9873Z" fill="#FAE8C7"/>
<path d="M33.7845 40.1285C33.805 40.6051 32.9988 41.5429 32.9988 41.5429C32.9988 41.5429 32.1388 40.6654 32.1251 40.1877C32.1114 39.711 32.4715 39.3112 32.9274 39.2977C33.3843 39.279 33.7669 39.6508 33.7845 40.1285Z" fill="#FAE8C7"/>
<path d="M31.2954 40.2157C31.3091 40.6934 30.5039 41.6239 30.5039 41.6239C30.5039 41.6239 29.6478 40.7453 29.6331 40.2676C29.6194 39.7899 29.9804 39.3922 30.4393 39.3776C30.8982 39.3631 31.2827 39.738 31.2954 40.2157Z" fill="#FAE8C7"/>
<path d="M28.8044 40.2945C28.8181 40.7722 28.0129 41.7028 28.0129 41.7028C28.0129 41.7028 27.1568 40.8242 27.1421 40.3465C27.1284 39.8699 27.4895 39.4711 27.9483 39.4565C28.4072 39.443 28.7907 39.8168 28.8044 40.2945Z" fill="#FAE8C7"/>
<path d="M26.3124 40.3736C26.3281 40.8513 25.517 41.7797 25.517 41.7797C25.517 41.7797 24.6599 40.8969 24.6541 40.4161C24.6472 39.9394 25.0053 39.548 25.4622 39.5324C25.9172 39.521 26.2978 39.8969 26.3124 40.3736Z" fill="#FAE8C7"/>
<path d="M23.8263 40.4307C23.8273 40.6706 23.6218 41.0154 23.4095 41.2989C23.1982 41.5824 22.981 41.8067 22.981 41.8067C22.981 41.8067 22.7706 41.5771 22.5661 41.2895C22.3607 40.9998 22.165 40.6394 22.1748 40.4026C22.1944 39.926 22.5642 39.5605 23.0103 39.5594C23.4565 39.5646 23.8214 39.9571 23.8263 40.4307Z" fill="#FAE8C7"/>
<path d="M21.352 40.361C21.3363 40.602 21.1084 40.9281 20.8735 41.1908C20.6387 41.4546 20.4 41.6581 20.4 41.6581C20.4 41.6581 20.2043 41.411 20.0253 41.1046C19.8443 40.7931 19.6858 40.4109 19.719 40.1762C19.7875 39.7037 20.1828 39.388 20.6172 39.4212C21.0496 39.4649 21.3774 39.8916 21.352 40.361Z" fill="#FAE8C7"/>
<path d="M18.9089 40.0412C18.8659 40.2811 18.6027 40.5678 18.3336 40.7952C18.0675 41.0237 17.7974 41.1887 17.7974 41.1887C17.7974 41.1887 17.6321 40.9146 17.4941 40.5864C17.3581 40.2416 17.2574 39.8408 17.3249 39.6134C17.4658 39.1565 17.8904 38.9186 18.3072 39.0069C18.7201 39.1066 18.9872 39.577 18.9089 40.0412Z" fill="#FAE8C7"/>
<path d="M39.9748 46.0323C40.0472 46.2576 39.9621 46.6522 39.8281 46.9949C39.694 47.321 39.5218 47.5973 39.5218 47.5973C39.5218 47.5973 39.2567 47.4342 39.0072 47.1829C38.7528 46.9378 38.515 46.6305 38.4857 46.3906C38.4299 45.9149 38.7009 45.4891 39.0659 45.4029C39.4318 45.324 39.8212 45.5795 39.9748 46.0323Z" fill="#FAE8C7"/>
<path d="M37.7147 46.4736C37.7343 46.7114 37.5621 47.0718 37.3722 47.3719C37.1873 47.6679 36.9897 47.9036 36.9897 47.9036C36.9897 47.9036 36.7754 47.6876 36.57 47.4062C36.3625 47.1247 36.1581 46.7852 36.1532 46.5463C36.1424 46.0696 36.4858 45.6761 36.9036 45.6584C37.3224 45.6428 37.6755 45.9969 37.7147 46.4736Z" fill="#FAE8C7"/>
<path d="M35.3675 46.5545C35.3773 47.0323 34.5995 47.9461 34.5995 47.9461C34.5995 47.9461 33.7972 47.0489 33.7943 46.5712C33.7894 46.0945 34.1367 45.7041 34.5691 45.6989C35.0006 45.6947 35.3587 46.0779 35.3675 46.5545Z" fill="#FAE8C7"/>
<path d="M33.0057 46.5795C33.0096 47.0572 32.222 47.9711 32.222 47.9711C32.222 47.9711 31.4295 47.0749 31.4314 46.5962C31.4324 46.1195 31.7827 45.729 32.2161 45.7238C32.6495 45.7186 33.0027 46.1028 33.0057 46.5795Z" fill="#FAE8C7"/>
<path d="M30.6448 46.5899C30.6428 47.0676 29.8484 47.9628 29.8484 47.9628C29.8484 47.9628 29.0647 47.0469 29.0705 46.5692C29.0754 46.0915 29.4306 45.7103 29.864 45.7155C30.2974 45.7207 30.6467 46.1122 30.6448 46.5899Z" fill="#FAE8C7"/>
<path d="M28.2829 46.5609C28.278 47.0376 27.4748 47.9327 27.4748 47.9327C27.4748 47.9327 26.6989 47.0168 26.7087 46.5401C26.7175 46.0624 27.0756 45.6802 27.508 45.6864C27.9424 45.6916 28.2888 46.0832 28.2829 46.5609Z" fill="#FAE8C7"/>
<path d="M25.9211 46.5245C25.9113 47.0011 25.1031 47.8859 25.1031 47.8859C25.1031 47.8859 24.3351 46.9576 24.3468 46.4799C24.3576 46.0032 24.7186 45.6262 25.1521 45.6376C25.5855 45.649 25.9309 46.0478 25.9211 46.5245Z" fill="#FAE8C7"/>
<path d="M23.5592 46.458C23.5475 46.9357 22.7344 47.8184 22.7344 47.8184C22.7344 47.8184 21.9703 46.891 21.984 46.4144C21.9977 45.9367 22.3597 45.5597 22.7941 45.5712C23.2285 45.5847 23.571 45.9803 23.5592 46.458Z" fill="#FAE8C7"/>
<path d="M21.2003 46.3906C21.1846 46.8683 20.3687 47.7458 20.3687 47.7458C20.3687 47.7458 19.6094 46.8132 19.6241 46.3355C19.6388 45.8578 20.0047 45.485 20.4391 45.4995C20.8735 45.5141 21.215 45.9139 21.2003 46.3906Z" fill="#FAE8C7"/>
<path d="M18.8355 46.3068C18.8199 46.7845 18.0039 47.661 18.0039 47.661C18.0039 47.661 17.2447 46.7285 17.2593 46.2518C17.274 45.7751 17.6399 45.4003 18.0743 45.4158C18.5097 45.4304 18.8512 45.8302 18.8355 46.3068Z" fill="#FAE8C7"/>
<path d="M36.4359 52.7751C36.4565 53.2518 35.6522 54.1865 35.6522 54.1865C35.6522 54.1865 34.7844 53.3121 34.7717 52.8354C34.756 52.3588 35.1161 51.9568 35.573 51.9413C36.0299 51.9257 36.4174 52.2985 36.4359 52.7751Z" fill="#FAE8C7"/>
<path d="M33.939 52.8666C33.9547 53.3432 33.1407 54.28 33.1407 54.28C33.1407 54.28 32.9254 54.0608 32.7102 53.7825C32.4949 53.499 32.2797 53.1553 32.2758 52.9164C32.266 52.4377 32.63 52.0524 33.0878 52.0316C33.5428 52.0171 33.9253 52.3899 33.939 52.8666Z" fill="#FAE8C7"/>
<path d="M31.4412 52.9288C31.45 53.4065 30.6252 54.3225 30.6252 54.3225C30.6252 54.3225 29.7779 53.4273 29.775 52.9506C29.772 52.4729 30.1399 52.0804 30.5978 52.0752C31.0547 52.069 31.4324 52.4511 31.4412 52.9288Z" fill="#FAE8C7"/>
<path d="M28.9424 52.96C28.9453 53.4367 28.1098 54.3537 28.1098 54.3537C28.1098 54.3537 27.2732 53.4387 27.2752 52.961C27.2772 52.4833 27.6499 52.1012 28.1078 52.1064C28.5667 52.1001 28.9395 52.4823 28.9424 52.96Z" fill="#FAE8C7"/>
<path d="M26.4426 52.9517C26.4407 53.4283 25.5953 54.3245 25.5953 54.3245C25.5953 54.3245 24.7686 53.4096 24.7774 52.9319C24.7852 52.4542 25.1619 52.072 25.6198 52.0772C26.0777 52.0824 26.4465 52.474 26.4426 52.9517Z" fill="#FAE8C7"/>
<path d="M23.9447 52.9237C23.9398 53.1615 23.7246 53.5052 23.5103 53.7888C23.2951 54.0681 23.0818 54.2862 23.0818 54.2862C23.0818 54.2862 22.2668 53.3516 22.2805 52.8739C22.2942 52.3962 22.6748 52.0233 23.1327 52.0389C23.5886 52.0597 23.9535 52.4439 23.9447 52.9237Z" fill="#FAE8C7"/>
<path d="M21.4469 52.845C21.4332 53.3217 20.5673 54.1982 20.5673 54.1982C20.5673 54.1982 19.763 53.2636 19.7816 52.7869C19.8002 52.3102 20.1867 51.9364 20.6446 51.9519C21.1025 51.9675 21.4615 52.3684 21.4469 52.845Z" fill="#FAE8C7"/>
<path d="M33.1603 58.1202C33.1974 58.5958 32.4744 59.5688 32.4744 59.5688C32.4744 59.5688 31.6115 58.735 31.5753 58.2583C31.5381 57.7827 31.8629 57.3663 32.3012 57.3278C32.7386 57.2894 33.1241 57.6446 33.1603 58.1202Z" fill="#FAE8C7"/>
<path d="M30.7818 58.3269C30.818 58.8036 30.096 59.7756 30.096 59.7756C30.096 59.7756 29.232 58.9427 29.1968 58.464C29.1616 57.9894 29.4835 57.5751 29.9218 57.5356C30.3601 57.4961 30.7446 57.8523 30.7818 58.3269Z" fill="#FAE8C7"/>
<path d="M28.4072 58.5242C28.4219 58.7621 28.2438 59.1224 28.0589 59.4236C27.9659 59.5742 27.872 59.7092 27.7996 59.8078C27.7292 59.9055 27.6763 59.9595 27.6763 59.9595C27.6763 59.9595 27.4552 59.7351 27.2449 59.4516C27.0316 59.1681 26.833 58.8243 26.8339 58.5845C26.8369 58.1078 27.1715 57.7163 27.5814 57.7143C28.0021 57.6945 28.3788 58.0455 28.4072 58.5242Z" fill="#FAE8C7"/>
<path d="M39.9347 8.50976C39.8271 8.7185 39.4983 8.921 39.2058 9.07781C38.9162 9.22839 38.6491 9.35404 38.6491 9.35404C38.6491 9.35404 38.5737 9.06846 38.5121 8.72368C38.4505 8.37891 38.4035 7.97493 38.4925 7.75581C38.6726 7.31757 39.1598 7.12962 39.5815 7.33732C40.0032 7.54709 40.149 8.09852 39.9347 8.50976Z" fill="#FAE8C7"/>
<path d="M37.7519 7.42555C37.6687 7.64779 37.3634 7.89389 37.0885 8.09017C36.8136 8.2854 36.568 8.42873 36.568 8.42873C36.568 8.42873 36.4663 8.139 36.3635 7.81188C36.2627 7.48164 36.1698 7.09012 36.2353 6.86166C36.3635 6.40991 36.8341 6.1368 37.2705 6.30815C37.7049 6.48262 37.9201 6.9842 37.7519 7.42555Z" fill="#FAE8C7"/>
<path d="M35.4673 6.61442C35.4077 6.84496 35.1308 7.13055 34.8784 7.36213C34.625 7.59371 34.395 7.77026 34.395 7.77026C34.395 7.77026 34.259 7.50335 34.126 7.17727C33.9949 6.84599 33.8589 6.47837 33.9 6.24264C33.942 6.00794 34.0692 5.80961 34.2453 5.68603C34.4195 5.56868 34.6416 5.524 34.8666 5.57904C35.3177 5.69016 35.5867 6.15437 35.4673 6.61442Z" fill="#FAE8C7"/>
<path d="M33.1074 6.10259C33.0732 6.33833 32.8286 6.6457 32.6036 6.89597C32.3756 7.15975 32.1643 7.36536 32.1643 7.36536C32.1643 7.36536 32.0009 7.12132 31.8345 6.81497C31.6682 6.51069 31.495 6.14411 31.5126 5.90629C31.544 5.43067 31.9422 5.08278 32.403 5.13263C32.8658 5.17105 33.1769 5.63424 33.1074 6.10259Z" fill="#FAE8C7"/>
<path d="M30.7114 5.86264C30.7016 6.10046 30.4893 6.44004 30.2916 6.71732C30.092 6.99667 29.9042 7.21475 29.9042 7.21475C29.9042 7.21475 29.7173 6.99461 29.5187 6.71525C29.322 6.43383 29.1136 6.09421 29.1048 5.8564C29.0872 5.3787 29.4492 4.98098 29.911 4.96852C30.3738 4.98513 30.7319 5.38598 30.7114 5.86264Z" fill="#FAE8C7"/>
<path d="M28.3035 5.89373C28.3192 6.13154 28.144 6.49606 27.9758 6.80034C27.8055 7.10358 27.6411 7.34658 27.6411 7.34658C27.6411 7.34658 27.4308 7.13991 27.2058 6.8751C26.9817 6.62275 26.7391 6.31327 26.7068 6.07649C26.6412 5.60918 26.9553 5.14603 27.4181 5.11176C27.8789 5.0671 28.2751 5.41706 28.3035 5.89373Z" fill="#FAE8C7"/>
<path d="M25.9133 6.21056C25.9534 6.44733 25.8135 6.81289 25.6804 7.14313C25.5444 7.46921 25.4084 7.73403 25.4084 7.73403C25.4084 7.73403 25.1795 7.55645 24.9271 7.32279C24.6766 7.08913 24.4017 6.80146 24.3439 6.56988C24.2285 6.1088 24.5005 5.64564 24.9525 5.53764C25.1766 5.48468 25.3996 5.53141 25.5728 5.6498C25.7479 5.77649 25.8732 5.9769 25.9133 6.21056Z" fill="#FAE8C7"/>
<path d="M23.5739 6.81285C23.6375 7.04235 23.5416 7.43283 23.4389 7.76202C23.3352 8.08707 23.2305 8.37679 23.2305 8.37679C23.2305 8.37679 22.9849 8.23141 22.7119 8.0341C22.4399 7.83783 22.1357 7.58756 22.0535 7.36429C21.8881 6.92086 22.1073 6.42132 22.5427 6.25101C22.979 6.08278 23.4487 6.36007 23.5739 6.81285Z" fill="#FAE8C7"/>
<path d="M21.3099 7.68826C21.399 7.90738 21.3481 8.31136 21.2855 8.65614C21.2219 8.99988 21.1426 9.28443 21.1426 9.28443C21.1426 9.28443 20.8775 9.15668 20.5889 9.00402C20.2973 8.84617 19.9695 8.64057 19.8639 8.42976C19.6516 8.01645 19.8022 7.46603 20.2239 7.25938C20.6485 7.05791 21.1348 7.24898 21.3099 7.68826Z" fill="#FAE8C7"/>
<path d="M34.5564 9.84108C34.4742 10.0644 34.1631 10.3115 33.8931 10.5109C33.7561 10.6106 33.6279 10.703 33.534 10.7705C33.4401 10.836 33.3804 10.8775 33.3804 10.8775C33.3804 10.8775 33.2649 10.6002 33.1426 10.271C33.0203 9.94597 32.8912 9.5576 32.9391 9.32498C33.0321 8.86597 33.5076 8.56166 33.9899 8.72574C34.1103 8.76313 34.2169 8.82338 34.3069 8.89815C34.396 8.97811 34.4674 9.07366 34.5183 9.17751C34.621 9.38106 34.6376 9.61885 34.5564 9.84108Z" fill="#FAE8C7"/>
<path d="M32.1114 9.15362C32.0752 9.38727 31.8199 9.70091 31.5899 9.95637C31.4745 10.0841 31.3649 10.1973 31.2837 10.2814C31.2005 10.3645 31.1477 10.4185 31.1477 10.4185C31.1477 10.4185 30.9784 10.1765 30.7994 9.87223C30.6213 9.56796 30.4296 9.21905 30.4393 8.9802C30.4569 8.50145 30.8669 8.13071 31.3571 8.18263C31.8492 8.2356 32.1877 8.68318 32.1114 9.15362Z" fill="#FAE8C7"/>
<path d="M29.6009 8.95632C29.5999 9.19621 29.3934 9.53682 29.1987 9.83175C29.0031 10.1236 28.8152 10.3562 28.8152 10.3562C28.8152 10.3562 28.6107 10.1392 28.3925 9.86604C28.1763 9.59188 27.9454 9.26164 27.9278 9.02487C27.8906 8.54613 28.2487 8.13487 28.7291 8.10891C29.2124 8.09125 29.6038 8.4755 29.6009 8.95632Z" fill="#FAE8C7"/>
<path d="M27.0971 9.10892C27.1196 9.34673 26.9494 9.71332 26.7811 10.0217C26.6118 10.3323 26.4416 10.5856 26.4416 10.5856C26.4416 10.5856 26.2156 10.3873 25.9739 10.136C25.7342 9.88569 25.4788 9.57727 25.4436 9.3405C25.3741 8.87214 25.6902 8.42041 26.1598 8.35811C26.6294 8.28749 27.0521 8.63537 27.0971 9.10892Z" fill="#FAE8C7"/>
<path d="M9.0711 48.6441C9.39202 47.5828 8.75117 46.5006 8.33535 45.4757C7.31586 42.9573 7.6945 39.8637 9.28733 37.7057C9.47127 37.4586 9.67477 37.2062 9.7276 36.8957C9.77946 36.5842 9.59846 36.2051 9.302 36.1937C9.06817 36.1843 8.88325 36.3931 8.74138 36.5904C6.34431 39.9011 6.23081 44.8692 8.4733 48.2993C8.61321 48.5143 8.84411 48.749 9.0711 48.6441Z" fill="white"/>
<path d="M12.1237 56.5396C12.3077 56.065 12.4701 55.5385 12.3282 55.0484C12.1854 54.5572 11.6032 54.1926 11.2021 54.4761C11.7069 55.3827 11.4173 56.5458 11.0005 57.5023C11.2549 57.5833 11.5357 57.4608 11.7236 57.2635C11.9114 57.0651 12.0229 56.8003 12.1237 56.5396Z" fill="white"/>
<path d="M49.747 48.6441C49.4251 47.5828 50.067 46.5006 50.4818 45.4757C51.5023 42.9573 51.1227 39.8637 49.5308 37.7057C49.3469 37.4586 49.1424 37.2062 49.0905 36.8957C49.0377 36.5842 49.2187 36.2051 49.5161 36.1937C49.75 36.1843 49.9349 36.3931 50.0767 36.5904C52.4738 39.9011 52.5873 44.8692 50.3448 48.2993C50.2039 48.5143 49.9721 48.749 49.747 48.6441Z" fill="white"/>
<path d="M46.6934 56.5396C46.5095 56.065 46.3471 55.5385 46.4899 55.0484C46.6328 54.5572 47.2139 54.1926 47.616 54.4761C47.1102 55.3827 47.3998 56.5458 47.8176 57.5023C47.5632 57.5833 47.2814 57.4608 47.0946 57.2635C46.9057 57.0651 46.7942 56.8003 46.6934 56.5396Z" fill="white"/>
<path d="M29.0353 35.6713C29.3592 34.2735 29.684 32.8643 29.729 31.426C29.774 29.9877 29.5177 28.5006 28.7634 27.3042C27.509 29.8973 27.6157 33.1758 29.0353 35.6713Z" fill="white"/>
<path d="M17.8415 19.3027C18.2867 19.3027 18.6477 18.9196 18.6477 18.447C18.6477 17.9744 18.2867 17.5913 17.8415 17.5913C17.3962 17.5913 17.0353 17.9744 17.0353 18.447C17.0353 18.9196 17.3962 19.3027 17.8415 19.3027Z" fill="white"/>
<path d="M20.1006 21.3018C20.3508 21.3018 20.5536 21.0865 20.5536 20.821C20.5536 20.5554 20.3508 20.3402 20.1006 20.3402C19.8504 20.3402 19.6476 20.5554 19.6476 20.821C19.6476 21.0865 19.8504 21.3018 20.1006 21.3018Z" fill="white"/>
<path d="M38.8242 19.3027C39.2695 19.3027 39.6304 18.9196 39.6304 18.447C39.6304 17.9744 39.2695 17.5913 38.8242 17.5913C38.379 17.5913 38.018 17.9744 38.018 18.447C38.018 18.9196 38.379 19.3027 38.8242 19.3027Z" fill="white"/>
<path d="M41.0833 21.3018C41.3335 21.3018 41.5363 21.0865 41.5363 20.821C41.5363 20.5554 41.3335 20.3402 41.0833 20.3402C40.8332 20.3402 40.6303 20.5554 40.6303 20.821C40.6303 21.0865 40.8332 21.3018 41.0833 21.3018Z" fill="white"/>
<path d="M21.2659 64.4986C21.3569 65.8975 21.9419 67.2527 22.8802 68.2393C23.2197 68.5965 23.6943 68.9247 24.1463 68.7595C24.5308 68.6194 24.7343 68.1769 24.8321 67.7605C25.0885 66.6794 24.9075 65.5226 24.5073 64.4924C24.1081 63.4622 23.5005 62.539 22.8792 61.6418C22.3039 61.7082 21.8079 62.1548 21.5457 62.7021C21.2825 63.2493 21.2258 63.8869 21.2659 64.4986Z" fill="#E4C799" stroke="#202B2B" stroke-width="0.5" stroke-miterlimit="10" stroke-linecap="round"/>
<path d="M22.2961 63.3126C22.7413 64.0147 23.1884 64.7187 23.5299 65.483C23.8723 66.2474 24.1072 67.0792 24.1023 67.9266C23.5123 67.8716 23.0485 67.37 22.7227 66.8466C22.1259 65.8871 21.7991 64.7395 21.7972 63.5889C21.7972 63.4809 21.8011 63.3697 21.8461 63.2732C21.8921 63.1766 21.9909 63.1018 22.0907 63.1215C22.1827 63.1402 22.2443 63.2296 22.2961 63.3126Z" fill="white"/>
<path d="M15.8818 69.5778C16.4404 69.3992 16.8259 68.8623 17.1194 68.3244C17.4844 67.6566 17.7701 66.9401 17.9677 66.1965C18.179 65.3989 18.2886 64.5516 18.1154 63.7447C17.9413 62.9378 17.4472 62.1765 16.7251 61.866C16.1782 62.6802 15.6332 63.4944 15.0873 64.3106C14.6568 64.9524 14.2214 65.6046 13.9719 66.3471C13.7224 67.0896 13.6794 67.9453 14.0257 68.6432C14.3731 69.34 15.1714 69.8063 15.8818 69.5778Z" fill="#E4C799" stroke="#202B2B" stroke-width="0.5" stroke-miterlimit="10" stroke-linecap="round"/>
<path d="M14.6559 67.3835C14.6285 67.6971 14.6402 68.0243 14.7664 68.3099C14.8926 68.5955 15.1499 68.8291 15.4454 68.8467C15.1734 68.0149 15.4767 67.1041 15.8094 66.2972C16.142 65.4903 16.5168 64.6357 16.3817 63.7654C15.5941 64.8517 14.7762 66.0179 14.6559 67.3835Z" fill="white"/>
<path d="M17.6233 63.2992C17.4022 64.3864 17.3591 65.5132 17.4942 66.616C17.5793 67.3077 17.7407 68.0056 18.0959 68.5923C18.4501 69.179 19.0254 69.6484 19.6789 69.7211C20.5145 69.8166 21.3275 69.2444 21.7541 68.477C22.1817 67.7106 22.2815 66.7843 22.2531 65.8943C22.2179 64.7634 21.9899 63.6398 21.5858 62.593C21.2727 61.7788 20.7424 60.9273 19.9225 60.7974C19.3238 60.7019 18.7162 61.0425 18.3307 61.5399C17.9462 62.0374 17.7515 62.6698 17.6233 63.2992Z" fill="#E4C799" stroke="#202B2B" stroke-width="0.5" stroke-miterlimit="10" stroke-linecap="round"/>
<path d="M19.0792 62.2264C18.4863 63.1621 18.2006 64.3148 18.2818 65.4405C18.363 66.5662 18.8121 67.6587 19.5331 68.4874C18.9158 66.479 18.7592 64.3117 19.0792 62.2264Z" fill="white"/>
<path d="M37.6883 64.4986C37.5973 65.8975 37.0122 67.2527 36.074 68.2393C35.7345 68.5965 35.2599 68.9247 34.8079 68.7595C34.4244 68.6194 34.2209 68.1769 34.1221 67.7605C33.8657 66.6794 34.0477 65.5226 34.4469 64.4924C34.8461 63.4622 35.4537 62.539 36.0749 61.6418C36.6512 61.7082 37.1463 62.1548 37.4095 62.7021C37.6717 63.2493 37.7284 63.8869 37.6883 64.4986Z" fill="#E4C799" stroke="#202B2B" stroke-width="0.5" stroke-miterlimit="10" stroke-linecap="round"/>
<path d="M36.658 63.3126C36.2129 64.0147 35.7667 64.7187 35.4243 65.483C35.0818 66.2474 34.848 67.0792 34.8519 67.9266C35.4419 67.8716 35.9056 67.37 36.2324 66.8466C36.8292 65.8871 37.1551 64.7395 37.157 63.5889C37.157 63.4809 37.1541 63.3697 37.1081 63.2732C37.0621 63.1766 36.9633 63.1018 36.8635 63.1215C36.7725 63.1402 36.7109 63.2296 36.658 63.3126Z" fill="white"/>
<path d="M43.0734 69.5778C42.5138 69.3992 42.1283 68.8623 41.8347 68.3244C41.4698 67.6566 41.1841 66.9401 40.9874 66.1965C40.7751 65.3989 40.6656 64.5516 40.8397 63.7447C41.0129 62.9378 41.507 62.1765 42.23 61.866C42.776 62.6802 43.3209 63.4944 43.8679 64.3106C44.2974 64.9524 44.7337 65.6046 44.9822 66.3471C45.2317 67.0896 45.2748 67.9453 44.9284 68.6432C44.5821 69.34 43.7827 69.8063 43.0734 69.5778Z" fill="#E4C799" stroke="#202B2B" stroke-width="0.5" stroke-miterlimit="10" stroke-linecap="round"/>
<path d="M44.2993 67.3835C44.3267 67.6971 44.314 68.0243 44.1878 68.3099C44.0625 68.5944 43.8042 68.8291 43.5088 68.8467C43.7808 68.0149 43.4784 67.1041 43.1448 66.2972C42.8121 65.4903 42.4384 64.6357 42.5734 63.7654C43.36 64.8517 44.179 66.0179 44.2993 67.3835Z" fill="white"/>
<path d="M41.3309 63.2992C41.552 64.3864 41.596 65.5132 41.46 66.616C41.3749 67.3077 41.2145 68.0056 40.8593 68.5923C40.5041 69.179 39.9298 69.6484 39.2753 69.7211C38.4397 69.8166 37.6276 69.2444 37.2001 68.477C36.7725 67.7106 36.6737 66.7843 36.7011 65.8943C36.7363 64.7634 36.9643 63.6398 37.3684 62.593C37.6824 61.7788 38.2127 60.9273 39.0316 60.7974C39.6314 60.7019 40.239 61.0425 40.6245 61.5399C41.009 62.0374 41.2027 62.6698 41.3309 63.2992Z" fill="#E4C799" stroke="#202B2B" stroke-width="0.5" stroke-miterlimit="10" stroke-linecap="round"/>
<path d="M39.875 62.2264C40.4679 63.1621 40.7536 64.3148 40.6724 65.4405C40.5912 66.5662 40.1421 67.6587 39.421 68.4874C40.0384 66.479 40.1959 64.3117 39.875 62.2264Z" fill="white"/>
</svg>
