<svg width="12" height="12" viewBox="0 0 12 12" fill="none" xmlns="http://www.w3.org/2000/svg">
<path d="M6.46028 0.599223C6.08581 0.746292 5.74141 0.963699 5.43775 1.24611C5.2693 1.40384 5.11155 1.58182 4.97313 1.77471L4.96135 1.7907L4.9581 1.79603C4.92055 1.84825 4.88514 1.90153 4.85188 1.95269C4.84544 1.96228 4.84008 1.97187 4.83364 1.98146C4.7993 2.03581 4.76926 2.08697 4.74137 2.13706C4.73385 2.14984 4.72743 2.1637 4.71992 2.17649C4.69738 2.21698 4.67054 2.26814 4.64264 2.32569C4.63405 2.34274 4.6255 2.36086 4.61906 2.37897C4.59868 2.4216 4.57719 2.46743 4.55465 2.51965C4.54607 2.54096 4.53751 2.56228 4.53 2.58466L4.52892 2.58786L4.52571 2.59532C4.50854 2.63581 4.49351 2.67738 4.47849 2.71787C4.46883 2.74345 4.46026 2.77009 4.45275 2.79567L4.44951 2.8042L4.44414 2.81912C4.43341 2.85322 4.42161 2.88626 4.41195 2.92036C4.40229 2.9534 4.39264 2.9875 4.38513 3.0216L4.38084 3.03652L4.37871 3.04292C4.3712 3.07063 4.36367 3.09833 4.35723 3.12604C4.34006 3.19531 4.32612 3.26565 4.31218 3.33492C4.29393 3.43617 4.27999 3.54274 4.26712 3.6621C4.26497 3.67702 4.26389 3.693 4.26175 3.70792C4.25316 3.80704 4.24674 3.90935 4.24459 4.01485C4.24352 4.02764 4.24351 4.04043 4.24351 4.05322C4.2199 4.05215 4.19629 4.05109 4.17268 4.05109C4.13298 4.05002 4.09329 4.05109 4.05359 4.05215H4.03856H4.03427C4.00208 4.05215 3.96881 4.05322 3.93662 4.05428C3.8819 4.05748 3.83575 4.06174 3.80571 4.06494L3.795 4.06601H3.79284C3.75958 4.06814 3.72633 4.07134 3.69306 4.0756C3.62976 4.08412 3.57825 4.09371 3.53962 4.10011H3.53746C3.516 4.10331 3.48381 4.10864 3.44518 4.1161C3.36042 4.13421 3.27672 4.15553 3.19518 4.17897C2.75847 4.30899 2.3647 4.53492 2.02349 4.85144C1.95482 4.91645 1.88721 4.98466 1.82283 5.05606C1.77991 5.10295 1.73806 5.15411 1.693 5.21166C1.60394 5.32569 1.52025 5.44824 1.44407 5.57613C1.43119 5.59851 1.4183 5.62089 1.40543 5.64327C1.31422 5.80526 1.23589 5.9779 1.16937 6.15588C1.13825 6.2422 1.10822 6.33172 1.08354 6.42124C1.05779 6.51183 1.03634 6.59602 1.01917 6.67808C1.00736 6.73137 0.997699 6.78466 0.990188 6.83794C0.945123 7.10864 0.931165 7.38359 0.94726 7.65428C0.953697 7.76512 0.965514 7.87595 0.981609 7.98466C1.00629 8.15197 1.04492 8.31822 1.0932 8.47808C1.11037 8.53243 1.12753 8.58785 1.14792 8.64114C1.16616 8.69123 1.18441 8.74238 1.2048 8.79141C1.49343 9.5129 1.93658 10.1225 2.52243 10.6021L2.54925 10.6244C3.08467 11.0571 3.7424 11.3832 4.50423 11.5953C6.27037 12.0855 8.33054 11.8863 9.83594 11.7413L9.98722 11.7264C10.0548 11.72 10.1213 11.7136 10.1879 11.7072H10.1954H10.1997C10.5076 11.6784 10.7941 11.5495 11.0248 11.3342C11.1729 11.1967 11.2909 11.0315 11.3864 10.8291C11.4025 10.7971 11.4165 10.764 11.4315 10.7278C11.4486 10.6863 11.4647 10.6426 11.4808 10.5989C11.5592 10.374 11.6278 10.0873 11.689 9.72178C11.7019 9.64504 11.7126 9.56618 11.7255 9.48838C11.7308 9.45002 11.7362 9.41059 11.7416 9.37222C11.7502 9.31254 11.7587 9.25499 11.7651 9.19638C11.7694 9.16227 11.7738 9.12924 11.7781 9.09514C11.8178 8.77542 11.8456 8.48341 11.8628 8.30863C11.8682 8.25002 11.8725 8.20739 11.8757 8.18394C11.9304 7.72781 11.9658 7.32178 11.984 6.94345C11.9916 6.79744 11.9969 6.64398 11.9991 6.48732C12.0044 6.08021 11.9862 5.68057 11.9476 5.29798C11.9379 5.21378 11.9283 5.13599 11.9208 5.06992L11.9175 5.04327C11.9057 4.95588 11.8939 4.85677 11.8757 4.75233V4.74913L11.8746 4.747C11.865 4.68732 11.8542 4.62871 11.8435 4.56903C11.8403 4.55411 11.8371 4.53812 11.8338 4.5232L11.8317 4.51148C11.8231 4.46778 11.8135 4.42409 11.8049 4.37933L11.8038 4.37613C11.7995 4.35588 11.7952 4.3367 11.7909 4.31645C11.7791 4.26743 11.7684 4.21734 11.7566 4.16832L11.7555 4.16299C11.7523 4.1502 11.7491 4.13954 11.7459 4.12675C11.7308 4.06601 11.7158 4.00633 11.6986 3.94665C11.6944 3.92853 11.689 3.91041 11.6836 3.89336L11.6793 3.87737C11.6675 3.83794 11.6568 3.79958 11.645 3.76014C11.6375 3.7335 11.6289 3.70686 11.6214 3.67915C11.6096 3.64185 11.5978 3.60562 11.586 3.56938L11.5806 3.55233C11.5731 3.53102 11.5667 3.5097 11.5592 3.48839C11.5388 3.4319 11.5205 3.37649 11.4991 3.32107C11.4894 3.29549 11.4787 3.26778 11.469 3.24114L11.4626 3.22409C11.4519 3.19638 11.4411 3.16761 11.4304 3.14096C11.4164 3.10579 11.4025 3.07062 11.3875 3.03439C11.3767 3.01094 11.3671 2.9875 11.3574 2.96512C11.3413 2.92675 11.3253 2.88945 11.307 2.85109L11.3027 2.8415L11.3006 2.8383C11.2619 2.75197 11.2169 2.66032 11.1686 2.56761L11.1664 2.56228C11.1611 2.55269 11.1557 2.54203 11.1503 2.53244C11.1278 2.48874 11.1042 2.44611 11.0806 2.40349L11.0602 2.36832C10.9454 2.16583 10.8188 1.97294 10.6857 1.79709L10.6782 1.7875C9.62131 0.395671 8.08265 -0.0370108 6.46028 0.599223Z" fill="#CADBE3"/>
<path d="M5.51931 0.286984C5.14483 0.434053 4.80148 0.65146 4.49782 0.933875C4.32829 1.0916 4.17161 1.26958 4.03212 1.46354L4.02141 1.47952L4.01712 1.48485C3.97957 1.53707 3.94524 1.59036 3.9109 1.64258C3.90554 1.65217 3.8991 1.66176 3.89266 1.67029C3.8594 1.7257 3.82826 1.77686 3.80143 1.82588C3.79392 1.83867 3.78642 1.85146 3.7789 1.86531C3.75744 1.90581 3.72956 1.95696 3.70274 2.01451C3.69416 2.03157 3.68556 2.04968 3.67805 2.06673C3.65766 2.11043 3.63729 2.15519 3.61475 2.20741C3.6051 2.22872 3.59649 2.25004 3.58898 2.27242L3.58794 2.27561L3.58469 2.28307C3.5686 2.32357 3.5525 2.36407 3.53748 2.40563C3.52782 2.43121 3.51925 2.45785 3.51174 2.48343L3.50958 2.49196L3.50424 2.50688C3.49244 2.53991 3.48171 2.57402 3.47205 2.60812C3.46132 2.64116 3.45274 2.67526 3.44415 2.70936L3.44091 2.72428L3.43878 2.73174C3.4302 2.75945 3.42269 2.78716 3.41625 2.81487C3.39909 2.88414 3.38512 2.95448 3.37224 3.02375C3.35293 3.12499 3.33898 3.23156 3.32611 3.35092C3.32503 3.36584 3.32289 3.38076 3.32182 3.39675C3.31216 3.49586 3.30572 3.59817 3.30358 3.70368C3.30358 3.71647 3.30357 3.72925 3.3025 3.74204C3.27996 3.74098 3.25531 3.73991 3.2317 3.73991C3.192 3.73885 3.15228 3.73991 3.11258 3.74098H3.09758H3.09326C3.06107 3.74098 3.02783 3.74204 2.99564 3.74417C2.94199 3.74737 2.89585 3.75163 2.86581 3.75483L2.85399 3.7559H2.85186C2.81967 3.75909 2.78532 3.76229 2.75313 3.76655C2.68983 3.77401 2.63831 3.78361 2.59861 3.79H2.59756C2.57503 3.7932 2.54391 3.79853 2.50529 3.80705C2.42052 3.82517 2.33682 3.84648 2.25528 3.86993C1.8175 3.99995 1.4237 4.22588 1.08356 4.5424C1.01489 4.60741 0.94623 4.67561 0.88185 4.74702C0.840003 4.79391 0.797056 4.84506 0.753064 4.90261C0.662933 5.01664 0.579245 5.1392 0.504136 5.26709C0.490187 5.28947 0.478405 5.31185 0.465529 5.33423C0.374325 5.49621 0.294915 5.66886 0.22839 5.84684C0.197273 5.93316 0.167211 6.02268 0.142532 6.1122C0.11678 6.20279 0.096396 6.28698 0.0781552 6.36904C0.0674253 6.42126 0.0567195 6.47561 0.0492086 6.5289C0.00521595 6.79959 -0.00981508 7.07348 0.00627977 7.34524C0.0127177 7.45607 0.0256075 7.56691 0.0406294 7.67561C0.0663811 7.84293 0.103907 8.00918 0.152192 8.16904C0.16936 8.22339 0.186555 8.27881 0.206942 8.33209C0.225182 8.38218 0.244473 8.43334 0.263787 8.48236C0.552421 9.20385 0.995571 9.81344 1.5825 10.293L1.60827 10.3143C2.14369 10.747 2.80142 11.0742 3.56325 11.2852C5.32939 11.7754 7.3906 11.5761 8.89601 11.4301L9.04729 11.4163C9.11489 11.4099 9.18142 11.4035 9.24687 11.3971H9.25545H9.25974C9.56769 11.3683 9.85312 11.2394 10.0849 11.0241C10.2319 10.8877 10.3499 10.7225 10.4465 10.5189C10.4615 10.487 10.4754 10.4539 10.4905 10.4177C10.5087 10.3761 10.5237 10.3324 10.5398 10.2888C10.6192 10.0639 10.6868 9.77721 10.748 9.4106C10.7608 9.33387 10.7726 9.25607 10.7844 9.17721C10.7898 9.13884 10.7963 9.10048 10.8016 9.06211C10.8102 9.00243 10.8177 8.94381 10.8242 8.8852C10.8295 8.8511 10.8338 8.81806 10.8381 8.78396C10.8767 8.46424 10.9057 8.17117 10.9218 7.99746C10.9283 7.93884 10.9325 7.89621 10.9347 7.87277C10.9894 7.41664 11.0248 7.0106 11.0441 6.63227C11.0516 6.48627 11.0559 6.3328 11.0581 6.17614C11.0634 5.76904 11.0463 5.36939 11.0066 4.9868C10.998 4.90261 10.9873 4.82481 10.9797 4.75874L10.9765 4.7321C10.9647 4.64471 10.9529 4.54559 10.9358 4.44115L10.9347 4.43796V4.43583C10.924 4.37721 10.9132 4.31753 10.9025 4.25785C10.8993 4.24293 10.8961 4.22695 10.8928 4.21203L10.8907 4.2003C10.8821 4.15661 10.8724 4.11185 10.8639 4.06815V4.06496C10.8585 4.04577 10.8542 4.02552 10.8499 4.00634C10.8392 3.95732 10.8274 3.90723 10.8156 3.85821L10.8145 3.85288C10.8113 3.84115 10.8091 3.82943 10.8059 3.81664C10.7909 3.7559 10.7748 3.69622 10.7587 3.63654C10.7533 3.61842 10.748 3.6003 10.7426 3.58325L10.7383 3.56726C10.7265 3.52783 10.7158 3.48947 10.7051 3.45004C10.6965 3.42339 10.6879 3.39675 10.6804 3.36904C10.6686 3.33174 10.6578 3.29551 10.646 3.25927L10.6396 3.24329C10.6332 3.22197 10.6256 3.20066 10.6181 3.17828C10.5988 3.12179 10.5795 3.06744 10.5591 3.01203C10.5484 2.98538 10.5388 2.95874 10.5291 2.9321L10.5227 2.91505C10.5108 2.88734 10.5001 2.85856 10.4894 2.83085C10.4754 2.79568 10.4615 2.76052 10.4465 2.72535C10.4368 2.7019 10.4261 2.67846 10.4175 2.65501C10.4003 2.61771 10.3842 2.57934 10.3671 2.54098L10.3617 2.53032L10.3606 2.52712C10.3209 2.4408 10.2759 2.34915 10.2287 2.25643L10.2254 2.2511C10.2201 2.24151 10.2147 2.23085 10.2093 2.2202C10.1868 2.17757 10.1632 2.13387 10.1396 2.09124L10.1192 2.05608C10.0055 1.85359 9.87778 1.6607 9.74473 1.48485L9.73723 1.47526C8.68033 0.0834312 7.14167 -0.34925 5.51931 0.286984Z" fill="white"/>
<path d="M6.20842 10.3743C5.30067 10.3743 4.54422 10.2869 3.89613 10.1068C2.61498 9.75086 1.7641 9.01445 1.3671 7.91676C1.14821 7.31357 1.19756 6.6006 1.49585 6.01126C1.74371 5.52423 2.13856 5.17893 2.60853 5.03932C2.78772 4.9871 2.97872 4.96046 3.17829 4.96046C3.73947 4.96046 4.29634 5.16401 4.83713 5.37183C4.55278 4.59172 4.46695 3.87556 4.58391 3.23932C4.73735 2.39421 5.26847 1.69829 5.9702 1.42334C6.30927 1.29012 6.63867 1.22298 6.94984 1.22298C8.57542 1.22298 9.45849 3.06348 9.7203 4.63861C9.90807 5.75975 9.81474 6.87875 9.7128 7.72813L9.69777 7.8784C9.50463 9.87236 9.31793 10.1622 9.14304 10.1782L8.77714 10.2134C7.99708 10.288 7.11188 10.3743 6.20842 10.3743Z" fill="#F27C88"/>
<path d="M6.94963 1.29944C8.54087 1.29944 9.38746 3.1069 9.64605 4.65113C9.81558 5.67102 9.75976 6.69625 9.63744 7.71827C9.61062 7.95166 9.44433 10.0724 9.13746 10.1012C8.29623 10.1801 7.2565 10.2973 6.20926 10.2973C5.42383 10.2973 4.63195 10.2312 3.91733 10.033C2.8025 9.72395 1.87544 9.09305 1.43873 7.89091C1.0546 6.83052 1.5439 5.4355 2.62977 5.11258C2.8111 5.0593 2.99349 5.03585 3.17805 5.03585C3.78107 5.03585 4.39376 5.28203 4.96996 5.50477C4.68669 4.79074 4.52036 4.0085 4.65878 3.25291C4.79612 2.49838 5.27895 1.77689 5.99786 1.49447C6.34121 1.36019 6.65777 1.29944 6.94963 1.29944ZM6.95067 1.14705C6.62985 1.14705 6.29079 1.21632 5.94314 1.35273C5.21673 1.63728 4.66735 2.35451 4.50855 3.22626C4.39803 3.83266 4.46673 4.50939 4.71137 5.24154C4.21243 5.05291 3.7006 4.88345 3.17913 4.88345C2.97204 4.88345 2.77246 4.91117 2.58684 4.96658C2.09648 5.11259 1.68447 5.47067 1.42802 5.97582C1.119 6.58434 1.06962 7.31969 1.29494 7.94207C1.70161 9.06427 2.56966 9.81667 3.87549 10.1801C4.53001 10.3612 5.294 10.4497 6.20926 10.4497C7.11701 10.4497 8.00329 10.3644 8.78443 10.2888L9.1514 10.2536C9.40892 10.2291 9.58489 9.84544 9.77481 7.88452L9.78983 7.73638C9.89284 6.88168 9.98511 5.75628 9.79733 4.62555C9.52909 3.02165 8.62239 1.14705 6.95067 1.14705Z" fill="#243645"/>
<path d="M7.38954 1.34951C7.89492 1.89089 8.28762 2.53565 8.56123 3.22091C8.87347 4.00208 9.0473 4.83654 9.06233 5.67739C9.0752 6.42233 8.9282 7.14382 8.64172 7.83227C8.2608 8.75092 7.63846 9.68875 6.79938 10.2834C7.6406 10.2525 8.45395 10.1641 9.13744 10.1001C9.44432 10.0713 9.60953 7.95057 9.63743 7.71717C9.75975 6.69515 9.81557 5.66993 9.64604 4.65004C9.4132 3.25608 8.69859 1.64791 7.38954 1.34951Z" fill="#EBCBD1"/>
<g opacity="0.3">
<path opacity="0.3" d="M3.22025 9.4532C2.75458 9.03117 2.35865 8.54094 2.12473 7.95586C1.91228 7.42727 1.78567 6.82513 1.93481 6.2635C2.09147 5.67309 2.61186 5.24041 3.20951 5.12531C3.4048 5.08801 3.59795 5.08908 3.79002 5.11039C3.40267 5.023 3.01101 4.99955 2.63117 5.11252C1.54423 5.43543 1.05496 6.83046 1.44017 7.88979C1.8758 9.09192 2.80393 9.72282 3.91877 10.0319C3.95847 10.0436 3.99925 10.0521 4.03895 10.0617C3.74602 9.88801 3.47241 9.68233 3.22025 9.4532Z" fill="#BBBDBF"/>
</g>
<g opacity="0.3">
<path opacity="0.3" d="M5.95168 1.51468C5.25853 1.80882 4.79395 2.51432 4.65983 3.2518C4.53965 3.91361 4.65123 4.59567 4.87119 5.2351C4.6008 3.9264 4.9978 2.4621 5.95168 1.51468Z" fill="#BBBDBF"/>
</g>
</svg>
