<svg width="128" height="75" viewBox="0 0 128 75" fill="none" xmlns="http://www.w3.org/2000/svg">
<path d="M127.046 17.7669L124.434 15.9256C124.207 15.7673 118.782 11.9805 109.127 8.17169C100.257 4.67342 85.9775 0.501933 68.3146 0.501933C48.6383 0.501933 28.8433 5.566 9.45667 15.5539L7.21769 11.9475L2.34435 17.299L3.93188 19.9188L0.973315 22.6616L4.21136 23.6885C4.31604 23.7216 5.24395 24.0051 6.41781 24.0191L15.4866 38.9839L12.8177 41.4584L16.0557 42.4852C16.1452 42.5132 16.8505 42.7306 17.7987 42.7977L20.4636 47.1946C19.8223 47.7596 19.1251 48.4238 18.3221 49.2293C17.9146 49.637 17.63 50.1189 17.4796 50.6528C16.691 51.4583 15.4632 53.0361 15.6075 54.9465C15.6746 55.8331 16.0588 57.0373 17.4013 58.1202C17.6158 59.4746 18.3791 61.1466 20.2755 62.1054C20.3863 62.468 20.553 62.8657 20.801 63.2694C21.4169 64.2762 22.6375 65.4834 25.0147 65.8822C25.8827 66.8679 27.4143 67.8837 29.6776 67.8837C29.7976 67.8837 29.9196 67.8817 30.0436 67.8747C30.88 67.8366 31.8719 67.7715 32.8446 67.6233L36.6771 73.9456L43.4846 70.3512L40.4152 65.4083C40.5961 65.3462 40.7801 65.2841 40.9681 65.22C45.7205 63.578 47.1068 60.0927 47.2186 57.449C49.2187 57.1435 51.7605 56.9892 54.8055 56.9892C61.7033 56.9892 68.8624 57.8017 68.9325 57.8087L71.2823 58.0712V56.7397C79.413 57.5883 90.0133 59.9405 90.1282 59.9665L90.5591 60.0767L91.0165 59.9485C94.7566 58.9587 96.5209 54.5849 96.711 54.089L96.7252 54.0299C99.5537 45.9153 96.7333 40.3013 96.6124 40.0668L96.1764 39.2234L95.342 39.028C87.1198 37.3169 76.3629 36.754 71.2813 36.5716V31.75L68.9986 31.9323C52.2494 33.3238 32.4268 40.678 31.5934 40.9915L31.4562 41.0326L31.3353 41.0877C30.2062 41.6718 28.4804 42.9641 27.5881 43.6583C27.3757 43.6693 27.1602 43.6894 26.9488 43.7184L23.8703 38.7635C29.7417 36.0767 49.0012 28.2727 74.5133 28.2727C88.8731 28.2727 102.851 30.7892 116.063 35.7521L119.919 37.1997L115.706 23.8317L127.046 17.7669ZM15.5943 24.0121C17.4257 25.9025 18.6077 28.2898 19.1332 31.1399L13.711 22.4072C14.3483 22.856 14.9886 23.386 15.5943 24.0121Z" fill="#FCFAFA" stroke="black" stroke-miterlimit="10"/>
<path d="M94.8186 53.3888C94.8186 53.3888 93.3215 57.2828 90.4666 58.0381C90.4666 58.0381 76.5947 54.9065 67.7536 54.5048L66.3927 38.4721C66.3927 38.4721 82.5788 38.4179 94.8186 40.9645C94.8186 40.9645 97.4031 45.9735 94.8186 53.3888Z" fill="#FFD1B6"/>
<path d="M32.0915 42.8409C32.0915 42.8409 52.4761 35.2883 68.7374 33.9029V55.8442C68.7374 55.8442 52.8095 53.9678 44.9207 55.8442C44.9207 55.8442 46.306 61.2489 40.2201 63.3517C34.1353 65.4544 33.9097 65.0427 33.9097 65.0427C33.9097 65.0427 16.5141 53.8346 19.7298 50.6168C22.9435 47.399 25.344 45.4986 28.1999 45.6319C28.2009 45.6319 30.7336 43.5412 32.0915 42.8409Z" fill="#F9C000"/>
<path d="M4.82526 17.5366L37.413 71.3099L40.6582 69.5959L6.91078 15.2444L4.82526 17.5366Z" fill="#29ABE2"/>
<path d="M19.3487 51.6317C19.3487 51.6317 15.4165 54.7723 19.3487 57.0514C19.3487 57.0514 19.0651 59.8665 22.0572 60.6699C22.0572 60.6699 21.921 63.7534 26.1367 64.0219C26.1367 64.0219 27.0891 66.0325 29.945 65.8983C32.8009 65.764 36.3367 65.3633 35.794 63.0822C35.2492 60.8041 32.9371 60.9384 32.9371 60.9384C32.9371 60.9384 33.5225 58.3658 31.1687 57.5864C31.1687 57.5864 30.8973 53.5641 27.6328 53.2957C24.3684 53.0302 19.3487 51.6317 19.3487 51.6317Z" fill="#F9C000"/>
<path d="M32.5011 45.2763C32.5011 45.2763 25.6063 46.1959 25.712 48.0352C25.8167 49.8765 29.3443 58.6482 31.7398 58.0041C34.1353 57.3599 34.5226 55.0949 32.5011 51.6567C30.4806 48.2196 32.5011 45.2763 32.5011 45.2763Z" fill="#F9C000"/>
<path d="M94.8186 53.3888C94.8186 53.3888 93.3215 57.2828 90.4666 58.0381C86.9308 45.3514 94.8186 40.9645 94.8186 40.9645C94.8186 40.9645 97.4031 45.9735 94.8186 53.3888Z" fill="#29ABE2"/>
<path d="M92.585 51.9261C93.075 51.9828 93.6036 50.9258 93.7656 49.5652C93.9277 48.2046 93.6618 47.0557 93.1718 46.9989C92.6818 46.9422 92.1531 47.9993 91.9911 49.3599C91.829 50.7205 92.0949 51.8694 92.585 51.9261Z" fill="#F2F2F2"/>
<path d="M8.76558 18.1537C8.76558 18.1537 23.1518 20.3607 21.2919 37.7939C21.2919 37.7939 65.785 14.7486 116.777 33.9019L113.299 22.8662L123.266 17.5356C123.266 17.5366 74.5905 -16.7509 8.76558 18.1537Z" fill="#ED1C24"/>
<path d="M32.8649 19.1454C31.1626 19.6303 30.3149 19.8857 28.6258 20.4327C29.1167 21.9074 29.3606 22.6457 29.8515 24.1203C31.6809 23.5283 32.6017 23.2518 34.4473 22.7338C34.5764 23.1816 34.6425 23.408 34.7716 23.8558C32.3923 24.522 31.2093 24.8857 28.8585 25.6771C27.4468 21.6038 26.7405 19.5651 25.3288 15.4918C27.7944 14.6624 29.0353 14.2777 31.5304 13.5734C31.6605 14.0212 31.7256 14.2476 31.8557 14.6954C29.9795 15.2244 29.0455 15.5059 27.1866 16.1069C27.6166 17.3992 27.832 18.0484 28.2619 19.3417C29.9673 18.7897 30.8231 18.5283 32.5417 18.0394C32.6718 18.4802 32.7359 18.7036 32.8649 19.1454Z" fill="white"/>
<path d="M43.2356 21.8122C42.4886 20.9927 42.1105 20.587 41.3422 19.7785C40.5799 19.0102 40.1032 18.5113 39.6164 17.9823C39.6032 17.9853 39.5961 17.9863 39.5829 17.9893C39.4132 18.6675 39.218 19.3027 38.8938 20.3476C38.597 21.3904 38.4538 21.9104 38.1773 22.9542C37.5472 23.1105 37.2341 23.1916 36.606 23.3569C37.3297 20.9126 37.725 19.6904 38.5767 17.253C36.7707 15.4889 35.8397 14.6223 33.927 12.9223C34.6201 12.7399 34.9657 12.6518 35.6609 12.4805C36.5217 13.3079 36.9485 13.7257 37.787 14.5662C38.3744 15.1512 38.8176 15.6071 39.2485 16.0999C39.2688 16.0949 39.278 16.0939 39.2983 16.0889C39.4711 15.3947 39.6439 14.8487 39.9183 14.0863C40.3157 12.9663 40.522 12.4073 40.9448 11.2903C41.644 11.1471 41.9946 11.0769 42.6959 10.9437C41.6745 13.2709 41.1928 14.44 40.2943 16.7822C42.1715 18.6355 43.0811 19.5792 44.8383 21.4976C44.197 21.6188 43.8759 21.6819 43.2356 21.8122Z" fill="white"/>
<path d="M54.275 19.7595C53.8044 20.0681 52.7932 20.4398 51.4831 20.6121C48.4473 21.0118 45.8486 19.5441 45.2113 16.0549C44.6025 12.7239 46.681 10.0231 50.3388 9.55125C51.7911 9.36291 52.7719 9.54823 53.1947 9.6965C53.09 10.1643 53.0391 10.3977 52.9385 10.8656C52.3562 10.6732 51.5167 10.5741 50.5451 10.6993C47.805 11.0519 46.2622 12.9563 46.7348 15.7443C47.179 18.359 48.984 19.7425 51.6153 19.4029C52.4863 19.2907 53.337 19.0132 53.8746 18.6806C54.0352 19.1124 54.1165 19.3267 54.275 19.7595Z" fill="white"/>
<path d="M62.3538 14.4555C60.6016 14.5226 59.7266 14.5717 57.9775 14.6999C58.0944 16.2477 58.1523 17.0221 58.2692 18.5699C60.1636 18.4306 61.1118 18.3775 63.0104 18.3124C63.0266 18.7783 63.0358 19.0137 63.052 19.4795C60.6067 19.5627 59.3831 19.6368 56.9429 19.8442C56.5668 15.5545 56.3788 13.4066 56.0038 9.11693C58.5639 8.89854 59.8455 8.82443 62.4108 8.73126C62.428 9.1971 62.4371 9.43149 62.4544 9.89732C60.5254 9.96645 59.5609 10.0195 57.635 10.1608C57.7376 11.5172 57.7875 12.1965 57.8901 13.5539C59.6565 13.4247 60.5396 13.3746 62.3091 13.3075C62.3274 13.7673 62.3365 13.9957 62.3538 14.4555Z" fill="white"/>
<path d="M65.6102 8.65762C66.2291 8.65061 66.5391 8.64561 67.157 8.64561C67.155 12.4845 67.154 14.4029 67.154 18.2418C69.0261 18.2418 69.9621 18.2619 71.8332 18.334C71.8149 18.7998 71.8077 19.0332 71.7894 19.4991C69.3706 19.4049 68.1601 19.3889 65.7392 19.4169C65.6874 15.1122 65.661 12.9633 65.6102 8.65762Z" fill="white"/>
<path d="M74.871 8.87598C75.4889 8.91205 75.7969 8.93307 76.4148 8.97715C76.1343 12.806 75.9951 14.7184 75.7156 18.5473C77.5836 18.6795 78.5156 18.7637 80.3785 18.9681C80.3267 19.4319 80.3013 19.6623 80.2494 20.1262C77.8407 19.8617 76.6333 19.7595 74.2164 19.6172C74.4766 15.3195 74.6088 13.1727 74.871 8.87598Z" fill="white"/>
<path d="M89.1383 16.3073C87.4075 15.9977 86.5405 15.8605 84.8026 15.6131C84.577 17.1488 84.4642 17.9182 84.2385 19.4539C86.1218 19.7224 87.0609 19.8727 88.934 20.2153C88.8486 20.6741 88.8069 20.9045 88.7206 21.3634C86.3068 20.9226 85.0933 20.7322 82.6642 20.4156C83.2364 16.148 83.523 14.0142 84.0962 9.74855C86.6452 10.0801 87.9156 10.2765 90.4483 10.7333C90.363 11.1921 90.3203 11.4215 90.2349 11.8804C88.3303 11.5367 87.376 11.3835 85.4612 11.11C85.264 12.4564 85.1655 13.1296 84.9683 14.475C86.7235 14.7245 87.5986 14.8667 89.3456 15.1783C89.2633 15.6301 89.2216 15.8545 89.1383 16.3073Z" fill="white"/>
<path d="M91.3834 21.8782C92.2768 17.6647 92.726 15.5609 93.6203 11.3474C94.284 11.4846 94.6143 11.5527 95.2759 11.699C96.278 14.1494 96.7466 15.3806 97.6145 17.845C98.1034 19.2695 98.4551 20.5188 98.6512 21.73C98.6726 21.7289 98.6827 21.7269 98.703 21.7259C98.9581 20.3044 99.2722 19.0311 99.7133 17.4282C100.193 15.6841 100.432 14.8136 100.91 13.0684C101.472 13.2177 101.75 13.2928 102.31 13.4481C101.123 17.5905 100.527 19.6653 99.3403 23.8087C98.7904 23.6554 98.515 23.5783 97.9641 23.431C97.2009 20.9656 96.7852 19.7354 95.8888 17.279C95.3959 15.9326 94.9182 14.5621 94.6112 13.3018C94.5899 13.3039 94.5777 13.3049 94.5554 13.3069C94.344 14.6513 94.0787 15.9155 93.6874 17.6627C93.2849 19.4589 93.0827 20.3585 92.6812 22.1547C92.1619 22.0425 91.9028 21.9844 91.3834 21.8782Z" fill="white"/>
<path d="M107.615 16.2953C106.244 15.8455 105.558 15.6291 104.178 15.2183C104.317 14.7655 104.384 14.5411 104.524 14.0883C107.914 15.0981 109.597 15.6601 112.928 16.9034C112.758 17.3452 112.674 17.5686 112.504 18.0104C111.142 17.5014 110.456 17.256 109.084 16.7872C107.811 20.4066 107.174 22.2169 105.903 25.8374C105.361 25.652 105.089 25.5619 104.545 25.3836C105.773 21.748 106.387 19.9308 107.615 16.2953Z" fill="white"/>
<path d="M22.0571 60.6708C22.0571 60.6708 29.7356 62.7846 32.937 60.9403" stroke="black" stroke-width="0.395" stroke-miterlimit="10"/>
<path d="M31.7398 58.0051C31.7398 58.0051 33.6962 58.3107 32.81 49.5019C32.81 49.5019 34.5316 54.7483 38.9486 52.5684" stroke="black" stroke-width="0.395" stroke-miterlimit="10"/>
<path d="M22.0572 52.5673C22.0572 52.5673 32.0711 53.8235 31.0934 57.0523C30.1167 60.2811 19.3487 57.0523 19.3487 57.0523" stroke="black" stroke-width="0.395" stroke-miterlimit="10"/>
<path d="M66.3927 34.1724L67.3837 55.6699" stroke="black" stroke-width="0.395" stroke-miterlimit="10"/>
<path d="M8.76558 18.1536L4.82526 21.8061C4.82526 21.8061 8.61823 23.0103 9.85104 19.9798C11.0839 16.9494 4.82526 17.5375 4.82526 17.5375" stroke="black" stroke-width="0.395" stroke-miterlimit="10"/>
<path d="M20.6079 36.9493L16.6676 40.6019C16.6676 40.6019 20.4605 41.805 21.6933 38.7756C22.9262 35.7462 16.6676 36.3332 16.6676 36.3332" stroke="black" stroke-width="0.395" stroke-miterlimit="10"/>
</svg>
