<svg width="67" height="74" viewBox="0 0 67 74" fill="none" xmlns="http://www.w3.org/2000/svg">
<path d="M65.7072 8.77175C65.104 8.06433 64.2933 7.63202 63.4368 7.51929C63.2672 7.10249 63.0275 6.71362 62.7216 6.37439C62.0171 5.59457 61.0544 5.17261 60.0702 5.17261C59.6912 5.17261 59.3073 5.23567 58.936 5.36495C58.0133 5.6835 57.1548 5.8376 56.3139 5.8376C56.0567 5.8376 55.7946 5.82314 55.5334 5.79521C54.0562 5.63387 52.62 5.08262 50.9586 4.44449C50.5552 4.29039 50.1518 4.13525 49.7445 3.98529L49.3489 3.83843C45.2077 2.30671 40.5131 0.570234 35.6216 0.367522C35.4442 0.360283 35.2678 0.356128 35.0905 0.356128C34.5897 0.356128 34.1278 0.38715 33.6747 0.453341C33.5431 0.472992 33.4214 0.495748 33.3093 0.520569C32.7441 0.409905 32.1468 0.355087 31.5047 0.355087C30.922 0.355087 30.3842 0.399584 29.9808 0.438885C27.726 0.657111 25.326 1.15869 22.6464 1.97264C20.3166 2.68213 18.0219 3.52712 16.0868 4.26143C15.546 4.46724 15.0627 4.69891 14.6388 4.90266C14.214 5.10537 13.8145 5.29775 13.527 5.37739C12.5487 5.65146 11.6922 5.80037 10.9078 5.8376C10.8104 5.84277 10.7139 5.84486 10.6165 5.84486C9.82429 5.84486 9.01261 5.6918 8.06257 5.36394C7.69133 5.23466 7.30744 5.17157 6.9284 5.17157C5.94425 5.17157 4.98154 5.59353 4.27705 6.37335C3.97108 6.71258 3.7304 7.10145 3.56183 7.51825C2.70533 7.63098 1.89464 8.0633 1.29149 8.77175C0.319036 9.91459 0.0715196 11.5601 0.662981 12.9677C1.11023 14.033 1.68123 14.972 2.34772 15.7632C2.25613 16.1076 2.20645 16.4696 2.20645 16.8409C2.21034 18.5174 3.22469 20.0047 4.72624 20.5301L4.78569 20.5518C5.55254 20.8207 6.48309 21.1465 7.60755 21.2251C7.55785 23.3732 7.68744 25.5286 7.99341 27.6757C8.28475 29.7079 8.73981 31.7299 9.34296 33.6846C9.50666 34.2172 9.68593 34.7499 9.87399 35.2794C8.5186 36.0716 7.41754 37.0893 6.54545 38.3449C4.91236 40.6947 4.23904 43.6826 4.48654 47.4793C4.56254 48.6501 4.71454 49.7567 4.86363 50.8261C5.04486 52.1437 5.21539 53.39 5.20955 54.5463C5.2037 55.7502 4.92794 56.652 4.25463 57.6594C3.39618 58.947 3.35427 60.6566 4.14841 61.9908C4.82756 63.1326 6.00369 63.8038 7.24702 63.8038C7.45847 63.8038 7.66991 63.7841 7.88038 63.7459C8.18147 63.689 8.47573 63.6249 8.76123 63.5515C9.47449 65.2383 10.7977 66.5218 12.3373 67.0885C12.8547 68.1073 13.5777 68.9347 14.4576 69.5108C14.7489 70.1303 15.1348 70.6908 15.6035 71.1686C16.6441 72.2318 18.0492 72.8421 19.4533 72.8421C19.9668 72.8421 20.4735 72.7635 20.9607 72.6063C21.1225 72.5545 21.2823 72.4946 21.4382 72.4253C21.6038 72.5028 21.7714 72.5721 21.9429 72.6311C22.5198 72.8327 23.1171 72.9362 23.7183 72.9362C24.8408 72.9362 25.9185 72.5825 26.8529 71.9547C27.1501 72.0105 27.4278 72.0312 27.6773 72.0312C28.6858 72.0312 29.6543 71.6868 30.4767 71.0332C31.0857 70.5502 31.5729 69.941 31.9305 69.2315C32.1361 69.2377 32.3417 69.2419 32.5493 69.2419C33.1339 69.2419 33.7137 69.2119 34.2905 69.1529C34.5439 69.67 34.8635 70.1386 35.2493 70.5502C36.1458 71.5048 37.3199 72.0302 38.5574 72.0302C38.8351 72.0302 39.1128 72.0033 39.3896 71.9506C40.324 72.5815 41.4027 72.9382 42.5262 72.9382C42.9237 72.9382 43.3252 72.8927 43.7178 72.8038C44.1008 72.7169 44.473 72.5876 44.8316 72.4201C45.4542 72.6838 46.1217 72.8224 46.7999 72.8224C49.268 72.8224 51.4858 71.0269 52.1854 68.4568C52.2633 68.1766 52.3228 67.8891 52.3627 67.5985C52.4163 67.5157 52.467 67.4288 52.5186 67.3357C52.5683 67.2489 52.6141 67.1599 52.6599 67.071C54.179 66.4939 55.4789 65.2197 56.1843 63.5525C56.4718 63.6249 56.7651 63.6901 57.0671 63.747C57.2786 63.7852 57.49 63.8048 57.6985 63.8048C58.9409 63.8048 60.117 63.1336 60.7972 61.9918C61.5923 60.6587 61.5484 58.9491 60.6909 57.6614C60.0576 56.713 59.7828 55.9136 59.7428 54.9031C59.6932 53.66 59.8822 52.2968 60.08 50.8541C60.192 50.0412 60.308 49.2003 60.3899 48.3264C60.5955 46.1534 60.7055 42.9194 59.3112 39.9325C58.6223 38.4566 57.6284 37.1989 56.3685 36.1905C56.616 35.5483 56.8479 34.8978 57.0594 34.2452C57.7307 32.1829 58.2335 30.0451 58.5531 27.8939C58.8824 25.6754 59.0228 23.4518 58.9721 21.2354C60.2378 21.2096 61.298 20.8734 62.2763 20.5301C63.7778 20.0047 64.7922 18.5185 64.7961 16.842C64.7961 16.4707 64.7464 16.1087 64.6548 15.7643C65.3213 14.9721 65.8923 14.034 66.3395 12.9677C66.9271 11.5601 66.6796 9.91459 65.7072 8.77175Z" fill="#B6E1E6" stroke="#3E6060" stroke-width="0.7087" stroke-miterlimit="10" stroke-linecap="round" stroke-linejoin="round" stroke-dasharray="4.25 2.83"/>
<path d="M7.41267 9.55887C7.95151 11.0854 9.44528 12.1703 10.9809 12.1548C10.0241 12.7474 8.86453 12.884 7.76249 12.7588C6.66044 12.6337 5.59835 12.2634 4.54599 11.8962C5.37034 13.8572 7.68649 14.9504 9.61191 14.2864C9.02727 15.4737 7.99633 16.4076 6.79879 16.8316C8.38414 17.387 10.1634 16.7841 11.5013 15.7271C12.8411 14.6701 13.8359 13.2066 14.8512 11.8001C15.8666 10.3935 16.9579 8.9859 18.4117 8.11403C16.6363 8.78215 14.8532 9.45336 12.9989 9.80604C11.1446 10.1587 9.20362 10.1774 7.41267 9.55887Z" fill="#80CECC"/>
<path d="M8.06553 17.3529C7.59392 17.3529 7.13692 17.2763 6.70818 17.1264L5.87506 16.8337L6.7072 16.5389C7.62411 16.2142 8.43191 15.5771 8.99901 14.7507C8.8129 14.7766 8.62386 14.791 8.43191 14.791C6.67311 14.791 4.96596 13.6513 4.28095 12.0213L4.013 11.3832L4.63951 11.6015C5.66361 11.9593 6.71986 12.3285 7.79463 12.4516C8.54979 12.5374 9.26403 12.4867 9.88277 12.3068C8.65113 11.9386 7.59684 10.954 7.1418 9.66638L6.92841 9.06445L7.50523 9.26301C9.0711 9.80392 10.9234 9.88459 12.9502 9.49882C14.785 9.15028 16.5798 8.47491 18.3152 7.82127L18.5569 8.38289C17.1372 9.23407 16.0634 10.6303 15.0851 11.9862L14.821 12.3554C13.8924 13.6461 12.9346 14.9824 11.6786 15.9732C10.5522 16.8637 9.26989 17.3529 8.06553 17.3529ZM7.75859 16.7199C8.91618 16.813 10.2063 16.3641 11.3288 15.4778C12.5185 14.5387 13.451 13.2386 14.3543 11.981L14.6203 11.6107C15.2517 10.7327 15.926 9.83807 16.7104 9.06859C15.5167 9.49159 14.2968 9.87218 13.0506 10.1101C11.1953 10.4627 9.47451 10.442 7.96127 10.047C8.58781 11.1184 9.7561 11.8455 10.9458 11.8455L12.0781 11.8331L11.1261 12.4226C10.3875 12.8787 9.50277 13.1104 8.49816 13.1104C8.24676 13.1104 7.99048 13.0949 7.73129 13.067C6.85433 12.9656 6.00565 12.7174 5.18131 12.4402C5.90626 13.4858 7.15056 14.1705 8.42995 14.1705C8.80899 14.1705 9.17632 14.1105 9.52029 13.9916L10.1995 13.7558L9.87011 14.428C9.39557 15.394 8.65114 16.1945 7.75859 16.7199Z" fill="#202B2B"/>
<path d="M59.585 9.55887C59.0461 11.0854 57.5524 12.1703 56.0167 12.1548C56.9736 12.7474 58.1332 12.884 59.2352 12.7588C60.3373 12.6337 61.3993 12.2634 62.4517 11.8962C61.6274 13.8572 59.3112 14.9504 57.3858 14.2864C57.9704 15.4737 59.0013 16.4076 60.1989 16.8316C58.6135 17.387 56.8362 16.7841 55.4964 15.7271C54.1566 14.6701 53.1617 13.2066 52.1464 11.8001C51.1311 10.3935 50.0398 8.9859 48.586 8.11403C50.3613 8.78215 52.1445 9.45336 53.9988 9.80604C55.853 10.1587 57.794 10.1774 59.585 9.55887Z" fill="#80CECC"/>
<path d="M58.9322 17.3532C57.7278 17.3532 56.4445 16.864 55.3201 15.9755C54.064 14.9847 53.1072 13.6485 52.1776 12.3578L51.9135 11.9886C50.9352 10.6327 49.8624 9.23746 48.4417 8.38525L48.6834 7.82365C50.4188 8.47729 52.2136 9.15266 54.0484 9.5012C54.8913 9.66151 55.7098 9.74218 56.4805 9.74218C57.565 9.74218 58.5775 9.58188 59.4934 9.2654L60.0703 9.06681L59.8569 9.66874C59.4018 10.9564 58.3475 11.9399 57.1159 12.3092C57.7346 12.4891 58.4479 12.5388 59.204 12.4539C60.2797 12.3309 61.336 11.9606 62.3591 11.6038L62.9857 11.3856L62.7177 12.0237C62.0327 13.6537 60.3255 14.7934 58.5668 14.7934C58.3748 14.7934 58.1858 14.7789 57.9997 14.7531C58.5668 15.5795 59.3735 16.2155 60.2914 16.5413L61.1236 16.836L60.2905 17.1287C59.8607 17.2756 59.4038 17.3532 58.9322 17.3532ZM50.2863 9.06889C51.0707 9.83837 51.744 10.733 52.3773 11.6121L52.6414 11.9813C53.5456 13.2389 54.4782 14.539 55.6669 15.4781C56.7894 16.3644 58.0805 16.8143 59.2371 16.7202C58.3446 16.1948 57.6001 15.3943 57.1246 14.4294L56.7953 13.7571L57.4744 13.9929C57.8194 14.1118 58.1858 14.1729 58.5648 14.1718C59.8442 14.1718 61.0885 13.4872 61.8135 12.4415C60.9891 12.7198 60.1404 12.968 59.2634 13.0683C59.0043 13.0962 58.748 13.1117 58.4966 13.1117C57.492 13.1117 56.6072 12.8801 55.8686 12.424L54.9166 11.8344L56.0489 11.8469C57.2386 11.8469 58.407 11.1188 59.0335 10.0483C58.2364 10.2562 57.3799 10.3627 56.4796 10.3627C55.6747 10.3627 54.8221 10.2779 53.9442 10.1114C52.6989 9.87249 51.4789 9.4919 50.2863 9.06889Z" fill="#202B2B"/>
<path d="M18.0755 37.3312C15.0744 37.6498 11.738 38.1524 9.86135 40.6574C7.95834 43.1995 8.28964 46.8266 8.75735 50.0349C9.22507 53.2431 9.6616 56.8257 7.89307 59.4754C9.74833 59.132 11.3892 57.6903 12.0567 55.8204C12.3802 56.6137 12.3539 57.5155 12.2662 58.375C12.1804 59.2344 12.0382 60.1011 12.1463 60.9585C12.2545 61.8148 12.6735 62.6857 13.4121 63.0508C14.1487 63.4158 15.2011 63.0549 15.4028 62.2161C15.3648 63.3155 15.3531 64.507 15.9582 65.4016C16.5633 66.2962 18.0405 66.563 18.5783 65.6229C18.7459 66.8154 20.0438 67.3977 21.1683 67.5642C22.0228 67.6904 22.9514 67.6893 23.6705 67.1846C24.3877 66.6789 24.7385 65.5153 24.1802 64.8183L24.3663 37.7346C22.1369 37.8298 20.2981 37.0954 18.0755 37.3312Z" fill="#80CECC"/>
<path d="M22.0365 67.9448C21.7588 67.9448 21.4616 67.921 21.1303 67.8724C20.0643 67.7152 18.8882 67.2002 18.4487 66.2187C18.1876 66.4152 17.8592 66.5238 17.4938 66.5238C16.8049 66.5238 16.1082 66.1546 15.7224 65.5837C15.2371 64.8649 15.1172 63.9754 15.0978 63.1646C14.8084 63.3786 14.4391 63.5028 14.0396 63.5028C13.7755 63.5028 13.5163 63.4428 13.2893 63.3322C12.5322 62.9567 11.9972 62.0848 11.8579 60.9989C11.7624 60.2563 11.8462 59.5147 11.928 58.798C11.9456 58.646 11.9621 58.494 11.9777 58.3419C12.0294 57.8248 12.0654 57.2539 11.9894 56.7089C11.1544 58.2964 9.63723 59.4682 7.94373 59.7816L7.24703 59.9108L7.65627 59.2976C9.29326 56.8444 8.9756 53.54 8.47086 50.0835C7.99341 46.8194 7.65041 43.1147 9.63332 40.465C11.55 37.9084 14.8405 37.3633 18.0473 37.0241C18.3532 36.9921 18.6602 36.9755 18.9856 36.9755C19.8499 36.9755 20.6791 37.0923 21.4791 37.2061C22.398 37.3354 23.35 37.4689 24.3585 37.4275L24.6635 37.414L24.6615 37.7388L24.4773 64.7139C24.7015 65.0469 24.7931 65.4699 24.7346 65.9219C24.6527 66.5269 24.3078 67.1092 23.8342 67.4432C23.3529 67.7794 22.7673 67.9448 22.0365 67.9448ZM18.7498 64.7315L18.8677 65.5775C19.01 66.5817 20.1715 67.104 21.2102 67.2581C22.2547 67.4112 22.9748 67.3047 23.5107 66.9261C23.844 66.6914 24.0973 66.2622 24.1538 65.834C24.184 65.6096 24.1743 65.2869 23.9599 65.018L23.8898 64.9311L24.0739 38.0532C23.1317 38.0604 22.2528 37.9394 21.4021 37.8184C20.5836 37.7036 19.811 37.5939 18.9856 37.5939C18.6797 37.5939 18.3922 37.6085 18.1048 37.6384C15.0218 37.9642 11.8647 38.4803 10.0903 40.8487C8.25359 43.302 8.58878 46.8515 9.04772 49.9863C9.43553 52.6422 9.95586 56.2062 8.52251 58.9893C9.99581 58.4805 11.2343 57.2518 11.7848 55.7087L12.0401 54.9951L12.3256 55.6963C12.6851 56.5755 12.6452 57.5601 12.5595 58.4061C12.5439 58.5612 12.5253 58.7163 12.5078 58.8704C12.4279 59.5799 12.3519 60.2501 12.4377 60.9151C12.5234 61.5915 12.8586 62.4334 13.5358 62.7695C13.6859 62.843 13.8593 62.8823 14.0405 62.8823C14.4897 62.8823 15.0052 62.6268 15.1212 62.1387L15.7915 59.3493L15.6961 62.2265C15.6561 63.4014 15.6678 64.4367 16.1969 65.2207C16.4727 65.6292 16.994 65.9022 17.4948 65.9022C17.714 65.9022 18.1116 65.8453 18.3318 65.4616L18.7498 64.7315Z" fill="#202B2B"/>
<path d="M17.678 37.928C15.8549 38.7244 14.0678 39.7163 12.6803 41.2046C11.2947 42.6928 10.3485 44.7438 10.484 46.8298C10.4996 47.0429 10.5395 47.2828 10.7071 47.3976C10.9108 47.5372 11.1904 47.4141 11.3561 47.2269C11.5198 47.0398 11.6221 46.7977 11.7936 46.6157C11.0014 48.5094 10.7529 50.6534 11.0852 52.694C11.1329 52.9825 11.2226 53.3114 11.4749 53.4251C11.7185 53.5337 12.0118 53.3776 12.158 53.1439C12.3042 52.9101 12.3422 52.6195 12.3772 52.3413C12.6033 54.085 13.1236 55.7832 13.9051 57.3346C13.9489 57.4215 14.0026 57.5167 14.0932 57.5384C14.2773 57.587 14.3806 57.3212 14.4011 57.1216C14.4508 56.6655 14.4985 56.2083 14.5472 55.7522C15.2118 56.7171 15.3238 58.1423 16.2807 58.7732C16.4005 58.8508 16.5701 58.9077 16.6685 58.8011C16.7143 58.7505 16.7299 58.6781 16.7426 58.6088C16.8283 58.1506 16.916 57.6914 17.0037 57.2343C17.3769 58.2324 17.8982 59.1673 18.5432 59.9947C18.9428 60.5098 19.4163 60.9989 20.0146 61.2037C20.6139 61.4085 21.3602 61.2513 21.7003 60.6897C21.8065 60.5118 21.8679 60.308 21.9176 60.1043C22.3366 58.374 21.9878 56.5217 21.333 54.8752C20.6782 53.2287 19.7301 51.7362 18.8872 50.19C18.0424 48.6449 17.2863 46.9984 17.0758 45.2247C16.99 44.508 16.9979 43.7654 17.2015 43.0755C17.4851 42.1106 18.1321 41.309 18.8667 40.6678C19.6034 40.0276 20.4326 39.5239 21.2228 38.9613C21.4421 38.8061 21.6642 38.6376 21.7977 38.3976C21.9332 38.1577 21.9575 37.8236 21.7841 37.6126C21.6847 37.4916 21.5386 37.4265 21.3963 37.3768C20.1802 36.9642 18.8619 37.412 17.678 37.928Z" fill="#42AEA9"/>
<path d="M46.8642 37.3312C49.8653 37.6498 53.2017 38.1524 55.0784 40.6574C56.9814 43.1995 56.6501 46.8266 56.1824 50.0349C55.7147 53.2431 55.2782 56.8257 57.0467 59.4754C55.1914 59.132 53.5505 57.6903 52.885 55.8204C52.5596 56.6137 52.5859 57.5155 52.6736 58.375C52.7613 59.2344 52.9035 60.1011 52.7934 60.9585C52.6853 61.8148 52.2663 62.6857 51.5296 63.0508C50.791 63.4158 49.7387 63.0549 49.537 62.2161C49.575 63.3155 49.5867 64.507 48.9816 65.4016C48.3765 66.2962 46.9012 66.563 46.3624 65.6229C46.1928 66.8154 44.8949 67.3977 43.7705 67.5642C42.9179 67.6904 41.9873 67.6893 41.2682 67.1846C40.551 66.6789 40.2003 65.5153 40.7586 64.8183L40.5725 37.7346C42.8029 37.8298 44.6416 37.0954 46.8642 37.3312Z" fill="#80CECC"/>
<path d="M42.9042 67.9448C42.1754 67.9448 41.5869 67.7804 41.1074 67.4432C40.6339 67.1102 40.289 66.5269 40.2091 65.9219C40.1477 65.4699 40.2393 65.0469 40.4643 64.7139L40.2782 37.414L40.5842 37.4275C40.7157 37.4327 40.8473 37.4358 40.9779 37.4358C41.8383 37.4358 42.6626 37.3199 43.4616 37.2061C44.2625 37.0934 45.0908 36.9755 45.9551 36.9755C46.2805 36.9755 46.5865 36.9921 46.8954 37.0241C50.1002 37.3633 53.3907 37.9084 55.3074 40.465C57.2903 43.1147 56.9483 46.8194 56.4718 50.0835C55.9651 53.54 55.6474 56.8444 57.2844 59.2976L57.6937 59.9108L56.997 59.7816C55.3035 59.4682 53.7863 58.2964 52.9532 56.7089C52.8753 57.2539 52.9113 57.8248 52.963 58.3419C52.9786 58.494 52.9951 58.646 53.0127 58.798C53.0945 59.5147 53.1783 60.2563 53.0828 60.9989C52.9435 62.0848 52.4095 62.9567 51.6514 63.3322C51.4273 63.4428 51.1662 63.5028 50.9011 63.5028C50.5016 63.5028 50.1323 63.3786 49.8429 63.1646C49.8254 63.9754 49.7036 64.8649 49.2183 65.5837C48.8325 66.1546 48.1377 66.5238 47.4469 66.5238C47.0815 66.5238 46.7522 66.4162 46.492 66.2187C46.0525 67.1991 44.8764 67.7132 43.8104 67.8724C43.4782 67.92 43.1839 67.9448 42.9042 67.9448ZM40.8658 38.0532L41.0499 64.9311L40.9798 65.018C40.7644 65.2869 40.7557 65.6096 40.7859 65.834C40.8434 66.2622 41.0957 66.6914 41.429 66.9261C41.9678 67.3047 42.685 67.4122 43.7295 67.2581C44.7683 67.104 45.9298 66.5817 46.072 65.5775L46.1919 64.7315L46.6108 65.4627C46.8301 65.8464 47.2296 65.9032 47.4459 65.9032C47.9468 65.9032 48.468 65.6292 48.7438 65.2217C49.2729 64.4377 49.2846 63.4025 49.2447 62.2276L49.1492 59.3503L49.8195 62.1397C49.9374 62.6278 50.451 62.8833 50.9002 62.8833C51.0814 62.8833 51.2539 62.844 51.4049 62.7705C52.0821 62.4344 52.4173 61.5926 52.503 60.9162C52.5888 60.2512 52.5128 59.5809 52.4329 58.8714C52.4154 58.7173 52.3988 58.5622 52.3812 58.4081C52.2955 57.561 52.2556 56.5765 52.6151 55.6974L52.9006 54.9962L53.1559 55.7098C53.7055 57.2529 54.9468 58.4816 56.4182 58.9904C54.9848 56.2073 55.5062 52.6432 55.8949 49.9873C56.3519 46.8525 56.6871 43.303 54.8504 40.8498C53.077 38.4813 49.9189 37.9652 46.8359 37.6395C46.5485 37.6095 46.261 37.595 45.9551 37.595C45.1288 37.595 44.3561 37.7036 43.5386 37.8194C42.722 37.9342 41.8772 38.0542 40.9788 38.0542C40.9398 38.0532 40.9038 38.0532 40.8658 38.0532Z" fill="#202B2B"/>
<path d="M47.5326 37.928C49.3557 38.7244 51.1447 39.7163 52.5303 41.2046C53.9159 42.6928 54.864 44.7438 54.7266 46.8298C54.713 47.0429 54.6711 47.2828 54.5035 47.3976C54.2998 47.5372 54.0221 47.4141 53.8565 47.2269C53.6908 47.0398 53.5885 46.7977 53.417 46.6157C54.2092 48.5094 54.4577 50.6534 54.1254 52.694C54.0796 52.9825 53.99 53.3114 53.7357 53.4251C53.4921 53.5337 53.2007 53.3776 53.0526 53.1439C52.9065 52.9101 52.8685 52.6195 52.8334 52.3413C52.6093 54.085 52.087 55.7832 51.3055 57.3346C51.2617 57.4215 51.2081 57.5167 51.1174 57.5384C50.9343 57.587 50.832 57.3212 50.8096 57.1216C50.7618 56.6655 50.7121 56.2083 50.6634 55.7522C49.9988 56.7171 49.8868 58.1423 48.9299 58.7732C48.812 58.8508 48.6405 58.9077 48.5441 58.8011C48.4963 58.7505 48.4817 58.6781 48.4681 58.6088C48.3823 58.1506 48.2946 57.6914 48.2089 57.2343C47.8337 58.2324 47.3124 59.1673 46.6674 59.9947C46.2679 60.5098 45.7943 60.9989 45.196 61.2037C44.5968 61.4085 43.8504 61.2513 43.5103 60.6897C43.4041 60.5118 43.3427 60.308 43.293 60.1043C42.874 58.374 43.2229 56.5217 43.8777 54.8752C44.5324 53.2287 45.4805 51.7362 46.3234 50.19C47.1682 48.6449 47.9243 46.9984 48.1348 45.2247C48.2205 44.508 48.2127 43.7654 48.0091 43.0755C47.7255 42.1106 47.0786 41.309 46.3439 40.6678C45.6092 40.0276 44.778 39.5239 43.9878 38.9613C43.7685 38.8061 43.5464 38.6376 43.4129 38.3976C43.2774 38.1577 43.255 37.8236 43.4265 37.6126C43.5259 37.4916 43.6721 37.4265 43.8143 37.3768C45.0313 36.9642 46.3487 37.412 47.5326 37.928Z" fill="#42AEA9"/>
<path d="M48.8773 41.1849C47.0328 38.9788 45.1317 38.2321 42.4443 37.5857C39.2015 36.8069 35.8632 36.4749 32.5425 36.5959C29.2636 36.477 25.9692 36.7976 22.7682 37.5557C20.3722 38.1225 17.8807 38.8702 16.2709 40.978C14.442 43.3702 13.2279 46.2971 13.3594 49.4195C13.605 48.6562 14.1126 47.9653 14.7928 47.4699C14.3319 50.219 14.7811 53.0911 16.0663 55.6074C16.2778 54.6528 16.7611 53.7499 17.4539 53.0155C17.8251 55.3333 18.8794 57.5559 20.4765 59.3793C20.5301 58.828 20.5827 58.2778 20.6382 57.7255C21.1897 59.8209 22.3697 61.7725 24.0165 63.3063C23.996 62.6692 23.9765 62.031 23.9551 61.3919C25.9653 63.7665 29.2821 65.139 32.5434 64.9704C35.8038 65.139 39.1206 63.7665 41.1308 61.3919C41.1113 62.03 41.0909 62.6681 41.0714 63.3063C42.7162 61.7725 43.8972 59.8209 44.4496 57.7255C44.5032 58.2768 44.5558 58.827 44.6114 59.3793C46.2084 57.5549 47.2627 55.3333 47.632 53.0155C48.3268 53.7499 48.8101 54.6528 49.0196 55.6074C50.3038 53.0901 50.753 50.219 50.2931 47.4699C50.9723 47.9653 51.4809 48.6552 51.7265 49.4195C51.8502 46.4812 50.8232 43.514 48.8773 41.1849Z" fill="#FAE8C7"/>
<path d="M33.0813 65.2941C32.902 65.2941 32.7217 65.29 32.5425 65.2807C29.4711 65.4337 26.3404 64.2351 24.2717 62.1769L24.3292 64.0106L23.8225 63.539C22.4769 62.2844 21.446 60.7817 20.7912 59.1342L20.6976 60.0887L20.2601 59.5892C18.7586 57.8734 17.7364 55.8422 17.2794 53.6817C16.8263 54.2795 16.5068 54.9599 16.3489 55.6767L16.1735 56.47L15.8081 55.7543C14.6222 53.4303 14.1311 50.7868 14.3962 48.227C14.0503 48.6045 13.7872 49.0472 13.6352 49.5198L13.1382 51.0692L13.0681 49.433C12.9102 45.7066 14.5998 42.6721 16.0449 40.7825C17.7277 38.5817 20.3654 37.806 22.7039 37.2537C25.9204 36.4936 29.2509 36.1678 32.5522 36.2867C32.977 36.2702 33.4272 36.2629 33.8725 36.2629C36.7801 36.2629 39.6868 36.6063 42.5086 37.2848C45.3461 37.9653 47.2384 38.7575 49.0936 40.9791C51.0785 43.3547 52.1425 46.4347 52.0149 49.433L51.9467 51.0692L51.4478 49.5198C51.2958 49.0472 51.0346 48.6045 50.6868 48.227C50.9528 50.7878 50.4607 53.4303 49.2749 55.7543L48.9095 56.47L48.7341 55.6757C48.5762 54.961 48.2585 54.2795 47.8035 53.6817C47.3485 55.8422 46.3244 57.8734 44.8228 59.5892L44.3853 60.0887L44.2918 59.1342C43.637 60.7817 42.6061 62.2844 41.2624 63.539L40.7557 64.0106L40.8132 62.1769C38.8653 64.1151 35.9743 65.2941 33.0813 65.2941ZM32.5434 64.6612L32.5571 64.6622C35.7433 64.8246 38.9881 63.4635 40.9135 61.1861L41.4485 60.5542L41.3861 62.573C42.7317 61.1623 43.6867 59.4703 44.168 57.6428L44.5812 56.0739L44.8326 58.6429C46.1529 56.9664 47.0172 55.0148 47.3446 52.9629L47.4381 52.3723L47.8376 52.7953C48.3891 53.3775 48.8101 54.056 49.0819 54.7852C50.0846 52.5026 50.412 49.9511 50.0047 47.5237L49.8829 46.7977L50.4558 47.2145C50.829 47.4834 51.1525 47.8092 51.4166 48.1732C51.2431 45.7376 50.2707 43.3206 48.659 41.3907C46.9061 39.2922 45.1005 38.5404 42.381 37.8878C39.1762 37.1172 35.8515 36.7852 32.5532 36.9041C32.0942 36.8886 31.6509 36.8814 31.2114 36.8814C28.3905 36.8814 25.5726 37.2092 22.8316 37.8577C20.4852 38.411 18.0619 39.1247 16.498 41.1725C15.2819 42.7631 13.8827 45.2009 13.6702 48.1722C13.9343 47.8092 14.2588 47.4834 14.6291 47.2145L15.202 46.7977L15.0802 47.5237C14.6749 49.9521 15.0023 52.5026 16.003 54.7852C16.2748 54.056 16.6977 53.3786 17.2473 52.7953L17.6468 52.3723L17.7403 52.9629C18.0677 55.0148 18.934 56.9664 20.2523 58.6429L20.5037 56.0739L20.9169 57.6428C21.3982 59.4703 22.3561 61.1613 23.6988 62.573L23.6364 60.5542L24.1733 61.1861C26.0997 63.4635 29.3503 64.8256 32.5278 64.6622L32.5434 64.6612Z" fill="#202B2B"/>
<path d="M40.742 36.1264C38.652 35.4965 36.4566 35.4272 34.2847 35.3631C30.4806 35.2504 26.5333 35.1656 23.0469 36.7811C22.7371 36.9248 22.4204 37.0913 22.2206 37.3789C21.7257 38.0853 22.171 39.1081 22.7702 39.7162C23.693 40.6532 24.9285 41.16 26.1562 41.5365C30.9639 43.0061 36.2198 42.7724 40.894 40.8797C41.9425 40.4557 43.1205 39.71 43.142 38.5196C43.1644 37.264 41.8821 36.4698 40.742 36.1264Z" fill="#C7A46E"/>
<path d="M53.9442 13.5675C53.6129 12.283 53.1812 10.9664 52.2487 9.9994C51.3104 9.02618 49.9784 8.52042 48.6922 8.04467C44.5627 6.51812 40.3679 4.97609 35.9636 4.59756C35.073 4.52103 34.0869 4.53032 33.2879 4.85921C32.4889 4.53032 31.5028 4.52103 30.6122 4.59756C26.2079 4.97609 22.0141 6.51812 17.8836 8.04467C16.5993 8.52042 15.2663 9.02514 14.327 9.9994C13.3945 10.9675 12.9629 12.283 12.6335 13.5675C10.7305 20.9645 11.3775 28.957 14.443 35.9754C14.7207 36.6135 15.05 37.2807 15.6551 37.6489C16.3343 38.0605 17.1966 38.0046 17.9937 37.956C22.3824 37.6892 26.8149 38.1112 31.0662 39.2002C31.7951 39.3864 32.5357 39.5922 33.2869 39.5881C34.0401 39.5922 34.7787 39.3864 35.5076 39.2002C39.7589 38.1112 44.1914 37.6892 48.5801 37.956C49.3791 38.0046 50.2395 38.0615 50.9187 37.6489C51.5238 37.2807 51.8531 36.6135 52.1308 35.9754C55.2002 28.957 55.8452 20.9655 53.9442 13.5675Z" fill="#58C8E6"/>
<path d="M33.3103 39.8973H33.286C32.5376 39.8973 31.8341 39.7163 31.153 39.5404L30.999 39.5012C27.5964 38.6293 24.0808 38.1877 20.5525 38.1877C19.7077 38.1877 18.8531 38.2135 18.0122 38.2642C17.7228 38.2817 17.451 38.2983 17.1772 38.2983C16.46 38.2983 15.9455 38.1804 15.5119 37.9167C14.8308 37.503 14.4674 36.7645 14.1799 36.1047C11.0755 29.0035 10.4285 20.9696 12.3529 13.4848C12.692 12.162 13.1431 10.7957 14.1244 9.77701C15.129 8.7345 16.5409 8.2122 17.7881 7.75196C21.8835 6.23783 26.1183 4.67302 30.5888 4.28828C31.7425 4.18899 32.5931 4.26655 33.2889 4.52718C33.9875 4.26655 34.8382 4.19003 35.9889 4.28828C40.4595 4.67302 44.6942 6.23783 48.7897 7.75196C50.0359 8.2122 51.4488 8.7345 52.4534 9.77701C53.4356 10.7968 53.8867 12.162 54.2248 13.4848C56.1493 20.9696 55.5023 29.0035 52.3998 36.1047C52.1104 36.7645 51.747 37.503 51.0658 37.9167C50.6322 38.1804 50.1177 38.2983 49.4006 38.2983C49.1268 38.2983 48.8539 38.2807 48.5899 38.2663C47.7236 38.2135 46.8691 38.1877 46.0243 38.1877C42.496 38.1877 38.9823 38.6293 35.5777 39.5012L35.4238 39.5404C34.7417 39.7173 34.0372 39.8973 33.3103 39.8973ZM20.5515 37.5681C24.1256 37.5681 27.6861 38.017 31.1345 38.8992L31.2884 38.9385C31.9374 39.105 32.6078 39.2778 33.2635 39.2778H33.3093C33.9661 39.2778 34.6355 39.105 35.2844 38.9385L35.4404 38.8992C38.8868 38.016 42.4473 37.5681 46.0214 37.5681C46.8779 37.5681 47.7441 37.594 48.5948 37.6467C48.8764 37.6633 49.1414 37.6788 49.3977 37.6788C50.0067 37.6788 50.4315 37.5868 50.7716 37.3799C51.3046 37.0562 51.6047 36.4439 51.8678 35.8451C54.9108 28.8764 55.5481 20.9934 53.6607 13.6492C53.3411 12.4102 52.926 11.137 52.0432 10.2217C51.1311 9.2754 49.7845 8.77791 48.5948 8.33836C44.5354 6.83767 40.3348 5.28529 35.9392 4.90779C34.8235 4.81161 34.0187 4.89021 33.3931 5.14877L33.2869 5.1922L33.1827 5.14877C32.5542 4.89021 31.7513 4.81161 30.6346 4.90779C26.2381 5.28529 22.0384 6.83767 17.9791 8.33836C16.7893 8.77791 15.4417 9.2754 14.5307 10.2217C13.6498 11.137 13.2328 12.4102 12.9132 13.6492C11.0248 20.9934 11.663 28.8764 14.708 35.8451C14.9692 36.4439 15.2693 37.0562 15.8023 37.3799C16.1433 37.5868 16.5672 37.6788 17.1762 37.6788C17.4334 37.6788 17.6975 37.6622 17.9528 37.6477C18.8298 37.595 19.695 37.5681 20.5515 37.5681Z" fill="#202B2B"/>
<path d="M53.1238 14.5749C52.8042 13.4165 52.3929 12.2499 51.63 11.3563C51.0707 10.7027 50.3506 10.23 49.6149 9.82044C47.5219 8.65692 45.158 7.93191 42.7659 7.60923C41.5235 7.44168 40.2704 7.38169 39.0476 7.42616C36.7772 7.50787 34.8245 8.62588 33.5948 10.715C33.5208 10.8423 33.4467 10.9684 33.3707 11.0957C33.2967 10.9684 33.2226 10.8423 33.1476 10.715C31.9179 8.62588 29.9652 7.50787 27.6948 7.42616C26.471 7.38169 25.2189 7.44168 23.9765 7.60923C21.5843 7.93191 19.2205 8.65692 17.1274 9.82044C16.3908 10.23 15.6717 10.7037 15.1124 11.3563C14.3494 12.2499 13.9383 13.4165 13.6186 14.5749C12.0674 20.1867 12.3012 26.3373 14.2754 31.7971C14.9019 33.5315 15.8247 35.329 17.4383 36.0458C18.1252 36.3509 18.8794 36.4304 19.619 36.5059C21.0231 36.6507 22.4263 36.7935 23.8284 36.9383C25.3582 37.0955 26.9056 37.2568 28.3633 37.776C29.8872 38.3169 31.3625 39.2508 32.9254 39.4225C32.9254 39.4266 32.9254 39.4298 32.9254 39.4329C33.0755 39.4484 33.2246 39.4515 33.3707 39.4505C33.5188 39.4515 33.6679 39.4484 33.818 39.4329C33.818 39.4298 33.816 39.4266 33.816 39.4225C35.3799 39.2508 36.8552 38.318 38.3801 37.776C39.8378 37.2568 41.3851 37.0965 42.915 36.9383C44.3171 36.7935 45.7203 36.6507 47.1244 36.5059C47.8649 36.4304 48.6181 36.3509 49.3051 36.0458C50.9187 35.329 51.8424 33.5304 52.468 31.7971C54.4382 26.3373 54.675 20.1867 53.1238 14.5749Z" fill="#348FA5"/>
<path d="M53.2592 21.6108C52.8002 16.7406 50.4179 12.2209 47.0552 10.0459C43.6925 7.87091 39.448 8.16361 36.3329 10.895C35.947 11.2332 34.7076 12.9459 33.4574 12.9501C32.1712 12.9553 30.8733 11.2436 30.4748 10.895C27.3596 8.16258 23.1132 7.87091 19.7525 10.0459C16.3898 12.2209 14.0074 16.7406 13.5465 21.6108C13.3049 24.1882 13.5982 26.933 14.7187 29.0739C16.3119 32.1125 19.2292 33.4115 21.9926 34.1148C24.758 34.8181 27.6636 35.1594 30.0957 37.018C31.114 37.7957 32.0903 38.8496 33.2323 39.0781C33.2362 39.0926 33.2382 39.1082 33.2401 39.1226C33.2957 39.1206 33.3483 39.1123 33.4038 39.1061C33.4574 39.1123 33.51 39.1206 33.5656 39.1226C33.5695 39.1082 33.5714 39.0926 33.5753 39.0781C34.7173 38.8496 35.6937 37.7957 36.71 37.018C39.1421 35.1594 42.0497 34.8181 44.8131 34.1148C47.5784 33.4115 50.4958 32.1125 52.087 29.0739C53.2095 26.932 53.5028 24.1882 53.2592 21.6108Z" fill="#FAE8C7"/>
<path d="M33.0111 39.4442L32.9887 39.3367C32.1322 39.1019 31.3829 38.4721 30.655 37.8619C30.4153 37.6623 30.1678 37.4534 29.9262 37.2693C28.0173 35.812 25.7528 35.299 23.5624 34.8026C23.0235 34.6805 22.4681 34.5544 21.9234 34.4158C19.5771 33.819 16.2485 32.6307 14.4634 29.2239C13.4111 27.2133 12.9814 24.4984 13.2571 21.5798C13.7268 16.6009 16.2164 11.9696 19.6005 9.78116C21.102 8.81 22.815 8.29598 24.5524 8.29598C26.7545 8.29598 28.9235 9.13476 30.6619 10.6551C30.7476 10.7316 30.8597 10.8506 31.001 11.0026C31.5378 11.5756 32.5347 12.6408 33.4525 12.6408C34.3314 12.6367 35.2815 11.589 35.7931 11.0264C35.9392 10.863 36.0562 10.7347 36.1468 10.6551C37.8841 9.13372 40.0541 8.29598 42.2563 8.29598C43.9936 8.29598 45.7047 8.80897 47.2082 9.78116C50.5922 11.9696 53.0809 16.6009 53.5515 21.5798C53.8253 24.4974 53.3975 27.2123 52.3432 29.2239C50.5581 32.6307 47.2316 33.818 44.8833 34.4158C44.3405 34.5544 43.7831 34.6805 43.2462 34.8026C41.0538 35.298 38.7893 35.812 36.8824 37.2693C36.6388 37.4554 36.3933 37.6623 36.1536 37.8619C35.4267 38.4731 34.6744 39.1019 33.8199 39.3367L33.7975 39.4442L33.5539 39.4308C33.5022 39.4287 33.4545 39.4225 33.4058 39.4163C33.3463 39.4246 33.3035 39.4287 33.2577 39.4308L33.0111 39.4442ZM24.5524 8.91549C22.9212 8.91549 21.3154 9.39745 19.9035 10.3107C16.6724 12.4009 14.289 16.8492 13.8379 21.6418C13.5748 24.4353 13.9792 27.0209 14.974 28.9229C16.2476 31.3534 18.5004 32.9079 22.0608 33.8139C22.5977 33.9504 23.1492 34.0755 23.6842 34.1965C25.9341 34.7064 28.259 35.2328 30.2672 36.7666C30.5206 36.96 30.7739 37.171 31.0175 37.3758C31.7425 37.9849 32.4928 38.6138 33.2859 38.773L33.4038 38.7968L33.5198 38.773C34.3129 38.6148 35.0652 37.985 35.7901 37.3768C36.0337 37.172 36.2871 36.96 36.5404 36.7666C38.5467 35.2328 40.8716 34.7064 43.1215 34.1965C43.6565 34.0755 44.2099 33.9504 44.7468 33.8139C48.3073 32.9079 50.5591 31.3534 51.8317 28.9229C52.8285 27.0209 53.2329 24.4353 52.9698 21.6418C52.5167 16.8492 50.1362 12.4009 46.9022 10.3107C45.4922 9.39745 43.8835 8.91549 42.2543 8.91549C40.1876 8.91549 38.1492 9.70357 36.5161 11.1339C36.4518 11.1918 36.3407 11.3149 36.2111 11.4577C35.6401 12.0865 34.578 13.2562 33.4574 13.2614C32.2891 13.2614 31.1812 12.0761 30.5859 11.4401C30.4602 11.3067 30.352 11.1908 30.2867 11.1339C28.6565 9.70357 26.6191 8.91549 24.5524 8.91549Z" fill="#202B2B"/>
<path d="M20.7415 14.2966C16.271 15.7528 15.8871 22.9543 18.7508 26.1822C21.3827 29.1484 26.0549 27.7707 28.6283 30.8631C29.5072 31.9201 29.8999 33.4156 29.6602 34.8036C30.4728 34.7726 31.1023 34.0682 31.6372 33.4156C31.9832 32.9926 32.3379 32.5572 32.5259 32.0328C32.7033 31.5354 32.7198 30.9903 32.7256 30.4598C32.7481 27.6994 32.5045 24.9111 31.685 22.2913C30.8684 19.6778 29.5686 17.0281 27.3323 15.4912C25.4556 14.2004 22.9193 13.5871 20.7415 14.2966Z" fill="#EACEA1"/>
<path d="M46.2269 14.2966C50.6975 15.7528 51.0814 22.9543 48.2176 26.1822C45.5858 29.1484 40.9135 27.7707 38.3402 30.8631C37.4612 31.9201 37.0685 33.4156 37.3082 34.8036C36.4956 34.7726 35.8661 34.0682 35.3312 33.4156C34.9853 32.9926 34.6306 32.5572 34.4426 32.0328C34.2652 31.5354 34.2486 30.9903 34.2447 30.4598C34.2204 27.6994 34.464 24.9111 35.2834 22.2913C36.1 19.6778 37.3998 17.0281 39.6361 15.4912C41.5128 14.2004 44.0492 13.5871 46.2269 14.2966Z" fill="#EACEA1"/>
<path d="M27.3421 26.0043C26.5255 26.7665 25.3173 26.9837 24.2766 26.6465C23.2379 26.3094 22.3756 25.4603 21.8864 24.4271C21.4031 23.4021 21.2696 22.2355 20.952 21.1392C20.6343 20.0419 20.0438 18.927 19.0373 18.5112C20.647 18.3799 22.282 18.2506 23.8654 18.5939C25.4488 18.9363 27.0001 19.8185 27.8254 21.2912C28.6536 22.7661 28.5562 24.8728 27.3421 26.0043Z" fill="#683F23"/>
<path d="M39.6556 26.0043C40.4721 26.7665 41.6804 26.9837 42.7211 26.6465C43.7598 26.3094 44.6221 25.4603 45.1113 24.4271C45.5965 23.4021 45.7281 22.2355 46.0457 21.1392C46.3634 20.0419 46.9539 18.927 47.9604 18.5112C46.3507 18.3799 44.7157 18.2506 43.1323 18.5939C41.5489 18.9363 39.9976 19.8185 39.1723 21.2912C38.344 22.7661 38.4405 24.8728 39.6556 26.0043Z" fill="#683F23"/>
<path d="M37.3998 33.3122C36.8785 32.6213 36.2423 32.0267 35.5329 31.5643C35.1616 31.3244 34.6579 31.1269 34.3227 31.4196C34.0995 31.614 32.8971 31.614 32.675 31.4196C32.3398 31.1269 31.836 31.3234 31.4648 31.5643C30.7544 32.0267 30.1191 32.6213 29.5978 33.3122C29.3523 33.637 29.1204 34.0372 29.2081 34.4437C29.3143 34.9484 29.8375 35.1925 30.2867 35.3962C31.4404 35.9226 33.6036 37.6799 33.5948 37.6054C34.4971 36.6777 35.5592 35.9226 36.7119 35.3962C37.1611 35.1925 37.6844 34.9484 37.7906 34.4437C37.8773 34.0372 37.6454 33.638 37.3998 33.3122Z" fill="#DB84B6"/>
<path d="M33.5919 37.9157C33.4759 37.9157 33.4642 37.9074 32.8952 37.4854C32.2121 36.9766 30.9366 36.0292 30.1698 35.6797C29.7031 35.4677 29.0619 35.176 28.9216 34.512C28.8037 33.9514 29.1194 33.4488 29.3688 33.1178C29.9155 32.3949 30.5673 31.7837 31.3118 31.2996C31.5476 31.1466 31.9052 30.9625 32.2638 30.9625C32.4937 30.9625 32.6935 31.0359 32.8592 31.1807C32.8933 31.1993 33.1125 31.2552 33.4983 31.2552C33.8842 31.2552 34.1035 31.1983 34.1473 31.1724C34.3032 31.0359 34.5029 30.9625 34.7339 30.9625C35.0915 30.9625 35.4491 31.1466 35.6859 31.2996C36.4303 31.7837 37.0832 32.3949 37.6288 33.1178C37.8783 33.4478 38.194 33.9514 38.0761 34.512C37.9348 35.176 37.2936 35.4677 36.8279 35.6797C35.7112 36.1885 34.6959 36.9063 33.8131 37.8112V37.8122L33.7254 37.9167H33.5919V37.9157ZM32.2638 31.583C32.0903 31.583 31.8604 31.6699 31.6187 31.8271C30.9318 32.2739 30.3286 32.8396 29.8239 33.5057C29.5481 33.8718 29.4429 34.1469 29.4906 34.3755C29.5667 34.7313 30.0295 34.9422 30.4007 35.1108C31.2231 35.4852 32.4791 36.4192 33.2304 36.9777C33.3463 37.0635 33.4642 37.1514 33.5539 37.2165C34.4542 36.3302 35.4764 35.6207 36.5969 35.1108C36.9682 34.9422 37.4301 34.7313 37.507 34.3755C37.5548 34.1469 37.4495 33.8718 37.1738 33.5057C36.669 32.8386 36.0659 32.2739 35.3789 31.8271C35.0077 31.5851 34.6764 31.5106 34.5088 31.6585C34.3032 31.8374 33.8462 31.8747 33.4983 31.8747C33.1505 31.8747 32.6935 31.8374 32.4879 31.6585C32.4294 31.6078 32.3563 31.583 32.2638 31.583Z" fill="#202B2B"/>
<path d="M25.0863 63.63C25.176 64.9983 25.749 66.3253 26.6678 67.2902C27.0011 67.6398 27.4649 67.9604 27.9063 67.8001C28.2814 67.6626 28.4812 67.2292 28.5776 66.8217C28.829 65.7647 28.6517 64.6312 28.26 63.6228C27.8683 62.6144 27.2739 61.7105 26.6668 60.8324C26.1036 60.8986 25.6184 61.334 25.3592 61.8718C25.1039 62.4065 25.0483 63.0302 25.0863 63.63Z" fill="#E4C799"/>
<path d="M27.6637 68.1331C27.1823 68.1331 26.7516 67.7877 26.4758 67.4971C25.5131 66.4856 24.908 65.0832 24.8145 63.6497C24.7648 62.901 24.8681 62.2587 25.1175 61.7374C25.4371 61.0724 26.0198 60.6142 26.6386 60.5418L26.7964 60.5232L26.89 60.6587C27.4892 61.5254 28.108 62.4583 28.5153 63.5111C28.8368 64.3375 29.1525 65.5941 28.8466 66.892C28.6985 67.5167 28.4052 67.9274 27.9979 68.0753C27.8897 68.1146 27.7777 68.1331 27.6637 68.1331ZM26.546 61.1499C26.165 61.2534 25.8152 61.5678 25.6057 62.0022C25.4021 62.4273 25.3183 62.9682 25.3602 63.6104C25.4459 64.9043 25.9916 66.1702 26.8617 67.0824C27.1472 67.3844 27.4327 67.5509 27.6627 67.5509C27.7182 67.5509 27.7669 67.5416 27.8166 67.524C28.1138 67.4164 28.2541 66.9913 28.3116 66.7493C28.5835 65.6065 28.296 64.4792 28.0066 63.7335C27.6442 62.7996 27.0946 61.9463 26.546 61.1499Z" fill="#202B2B"/>
<path d="M26.0958 62.4676C26.5314 63.1544 26.9689 63.8452 27.3041 64.593C27.6373 65.3418 27.8673 66.1568 27.8634 66.9842C27.2866 66.9304 26.8315 66.4401 26.5119 65.9272C25.9273 64.9881 25.6077 63.8659 25.6057 62.7396C25.6057 62.6342 25.6096 62.5255 25.6535 62.4304C25.6993 62.3373 25.7957 62.2628 25.8932 62.2825C25.9848 62.3001 26.0461 62.387 26.0958 62.4676Z" fill="white"/>
<path d="M19.8168 68.6006C20.3654 68.4248 20.7415 67.8984 21.0289 67.373C21.3865 66.7193 21.6643 66.0171 21.8592 65.29C22.0667 64.5102 22.1729 63.6797 22.0033 62.8906C21.8338 62.1015 21.3505 61.3568 20.6431 61.0517C20.1081 61.8491 19.5752 62.6465 19.0402 63.4439C18.6193 64.0717 18.1934 64.7109 17.9498 65.4379C17.7062 66.164 17.6624 67.0027 18.0015 67.6843C18.3406 68.368 19.1221 68.824 19.8168 68.6006Z" fill="#E4C799"/>
<path d="M19.4494 68.9492C18.7742 68.9492 18.0941 68.4962 17.7598 67.8208C17.4169 67.132 17.3925 66.2281 17.6916 65.3407C17.9508 64.5702 18.3903 63.9124 18.818 63.2764L20.5456 60.6959L20.7454 60.7828C21.484 61.1003 22.0676 61.8832 22.2713 62.8275C22.4291 63.5659 22.3814 64.3985 22.1232 65.3707C21.9235 66.1237 21.6341 66.8466 21.2667 67.5209C21.0036 68.0008 20.5778 68.6627 19.8967 68.8799C19.7544 68.9264 19.6024 68.9492 19.4494 68.9492ZM20.7327 61.4219L19.2633 63.6135C18.8599 64.2175 18.4409 64.8422 18.209 65.5352C17.9615 66.2705 17.9752 67.0048 18.2451 67.5488C18.5345 68.1311 19.2097 68.492 19.7388 68.3214C20.2338 68.1631 20.5759 67.6212 20.7912 67.2272C21.1371 66.5942 21.408 65.9157 21.5941 65.2114C21.828 64.3344 21.8738 63.596 21.7364 62.9547C21.5912 62.2825 21.216 61.7146 20.7327 61.4219Z" fill="#202B2B"/>
<path d="M18.6164 66.4525C18.59 66.7596 18.6027 67.0793 18.7264 67.3585C18.8482 67.6378 19.1016 67.8663 19.391 67.8828C19.125 67.0689 19.4212 66.1784 19.7467 65.3883C20.0721 64.5981 20.4394 63.7624 20.3059 62.9112C19.5352 63.9755 18.7343 65.1162 18.6164 66.4525Z" fill="white"/>
<path d="M21.522 62.4552C21.3066 63.5194 21.2628 64.6229 21.3963 65.7016C21.4781 66.3801 21.636 67.0617 21.9848 67.6367C22.3327 68.2128 22.8949 68.6689 23.5341 68.7413C24.3526 68.8344 25.1477 68.2749 25.5667 67.523C25.9857 66.7721 26.0822 65.8661 26.0539 64.9942C26.0198 63.8886 25.7967 62.7882 25.4011 61.7643C25.0951 60.9669 24.5748 60.1343 23.7738 60.0071C23.1853 59.913 22.5919 60.2471 22.2148 60.7342C21.8377 61.2203 21.6477 61.8388 21.522 62.4552Z" fill="#E4C799"/>
<path d="M23.7124 69.0422C23.6442 69.0422 23.5731 69.0392 23.5049 69.0309C22.8297 68.9544 22.1748 68.492 21.752 67.7939C21.4304 67.2602 21.2307 66.6076 21.1235 65.7399C20.9861 64.6219 21.0299 63.4956 21.2531 62.3941C21.3554 61.8832 21.5483 61.1354 22.0014 60.549C22.4711 59.9429 23.16 59.6151 23.8128 59.7185C24.5758 59.8395 25.214 60.5097 25.6554 61.6536C26.0647 62.7168 26.2907 63.8379 26.3268 64.9859C26.3628 66.0957 26.1894 66.9748 25.8016 67.6729C25.3378 68.5054 24.5173 69.0422 23.7124 69.0422ZM23.5741 60.2812C23.1707 60.2812 22.7312 60.5252 22.4263 60.9172C22.0472 61.4074 21.8816 62.0642 21.7909 62.5151C21.5814 63.5525 21.5395 64.6116 21.6691 65.6644C21.7646 66.4432 21.9371 67.0203 22.2158 67.4784C22.549 68.0297 23.0528 68.3937 23.5653 68.4516C24.2298 68.5271 24.9334 68.0866 25.3319 67.375C25.6652 66.7752 25.8133 65.9995 25.7811 65.0035C25.747 63.9248 25.5336 62.8719 25.1497 61.8739C24.8944 61.2151 24.4432 60.4063 23.7339 60.2935C23.6783 60.2853 23.6247 60.2812 23.5741 60.2812Z" fill="#202B2B"/>
<path d="M22.9475 61.4044C22.3668 62.3218 22.0872 63.4491 22.1651 64.5506C22.245 65.652 22.6845 66.7214 23.3909 67.5333C22.7877 65.5672 22.6338 63.446 22.9475 61.4044Z" fill="white"/>
<path d="M41.161 63.63C41.0714 64.9983 40.4984 66.3252 39.5815 67.2901C39.2483 67.6397 38.7845 67.9604 38.3431 67.8001C37.966 67.6625 37.7682 67.2291 37.6717 66.8216C37.4203 65.7646 37.5976 64.6311 37.9894 63.6228C38.3791 62.6144 38.9755 61.7104 39.5825 60.8324C40.1457 60.8986 40.6309 61.3339 40.8901 61.8717C41.1454 62.4064 41.201 63.0301 41.161 63.63Z" fill="#E4C799"/>
<path d="M38.5857 68.1331C38.4717 68.1331 38.3596 68.1134 38.2524 68.0741C37.8451 67.9262 37.5518 67.5166 37.4037 66.892C37.0958 65.594 37.4135 64.3364 37.735 63.51C38.1423 62.4551 38.7611 61.5232 39.3603 60.6576L39.4539 60.5221L39.6117 60.5407C40.2305 60.6131 40.8122 61.0723 41.1328 61.7363C41.3822 62.2575 41.4845 62.8998 41.4358 63.6486C41.3423 65.082 40.7372 66.4845 39.7745 67.496C39.4968 67.7877 39.067 68.1331 38.5857 68.1331ZM39.7004 61.1498C39.1538 61.9452 38.6042 62.7985 38.2407 63.7334C37.9513 64.4791 37.6639 65.6064 37.9358 66.7492C37.9933 66.9912 38.1336 67.4163 38.4288 67.5239C38.6919 67.6201 39.032 67.4556 39.3857 67.0823C40.2558 66.169 40.8015 64.9042 40.8853 63.6103C40.9272 62.9681 40.8453 62.4272 40.6417 62.0021C40.4332 61.5687 40.0834 61.2533 39.7004 61.1498Z" fill="#202B2B"/>
<path d="M40.1515 62.4675C39.716 63.1543 39.2794 63.8451 38.9452 64.5929C38.61 65.3417 38.382 66.1567 38.3859 66.9841C38.9628 66.9303 39.4178 66.44 39.7374 65.927C40.3221 64.9879 40.6397 63.8658 40.6417 62.7395C40.6436 62.634 40.6397 62.5254 40.5939 62.4303C40.5501 62.3372 40.4526 62.2627 40.3562 62.2824C40.2646 62.3 40.2032 62.3869 40.1515 62.4675Z" fill="white"/>
<path d="M46.4306 68.6006C45.8839 68.4248 45.5078 67.8983 45.2204 67.3729C44.8628 66.7193 44.5831 66.0171 44.3902 65.29C44.1826 64.5102 44.0745 63.6797 44.246 62.8905C44.4155 62.1004 44.8988 61.3567 45.6063 61.0516C46.1393 61.849 46.6742 62.6464 47.2091 63.4438C47.6301 64.0716 48.0559 64.7108 48.2995 65.4379C48.5431 66.1639 48.585 67.0027 48.2459 67.6843C47.9068 68.3679 47.1273 68.824 46.4306 68.6006Z" fill="#E4C799"/>
<path d="M46.7999 68.9491C46.6459 68.9491 46.4949 68.9263 46.3527 68.8798C45.6716 68.6616 45.2448 67.9997 44.9826 67.5208C44.6133 66.8455 44.3259 66.1215 44.1262 65.3707C43.867 64.3985 43.8202 63.5659 43.978 62.8274C44.1817 61.8842 44.7663 61.1002 45.502 60.7827L45.7037 60.6959L47.4313 63.2763C47.8591 63.9124 48.2995 64.5701 48.5577 65.3406C48.8569 66.228 48.8315 67.133 48.4895 67.8197C48.1543 68.4961 47.4752 68.9491 46.7999 68.9491ZM45.5166 61.4219C45.0333 61.7146 44.6562 62.2824 44.512 62.9557C44.3746 63.5969 44.4204 64.3354 44.6543 65.2124C44.8404 65.9167 45.1113 66.5941 45.4572 67.2281C45.6725 67.6222 46.0145 68.1631 46.5095 68.3223C47.0386 68.4909 47.7139 68.1321 48.0033 67.5498C48.2732 67.0058 48.2868 66.2715 48.0393 65.5361C47.8074 64.8432 47.3884 64.2185 46.9831 63.6145L45.5166 61.4219Z" fill="#202B2B"/>
<path d="M47.631 66.4524C47.6593 66.7596 47.6466 67.0792 47.5229 67.3585C47.3991 67.6377 47.1477 67.8662 46.8583 67.8828C47.1243 67.0688 46.8281 66.1784 46.5027 65.3882C46.1772 64.598 45.8099 63.7623 45.9414 62.9112C46.7141 63.9754 47.5151 65.1162 47.631 66.4524Z" fill="white"/>
<path d="M44.7273 62.4551C44.9427 63.5193 44.9865 64.6228 44.853 65.7016C44.7692 66.38 44.6133 67.0616 44.2645 67.6367C43.9166 68.2127 43.3544 68.6688 42.7132 68.7412C41.8967 68.8343 41.1016 68.2748 40.6826 67.5229C40.2636 66.7721 40.1672 65.866 40.1954 64.9942C40.2295 63.8886 40.4526 62.7882 40.8482 61.7643C41.1542 60.9669 41.6745 60.1343 42.4755 60.007C43.0621 59.9129 43.6575 60.247 44.0345 60.7341C44.4107 61.2202 44.6016 61.8387 44.7273 62.4551Z" fill="#E4C799"/>
<path d="M42.5369 69.0422C41.732 69.0422 40.9116 68.5044 40.4468 67.6718C40.059 66.9737 39.8855 66.0956 39.9196 64.9848C39.9557 63.8368 40.1827 62.7168 40.593 61.6525C41.0344 60.5086 41.6716 59.8385 42.4356 59.7175C43.0865 59.613 43.7773 59.9419 44.245 60.548C44.7001 61.1344 44.8901 61.8821 44.9953 62.393C45.2185 63.4945 45.2613 64.6208 45.1249 65.7388C45.0187 66.6065 44.8189 67.2602 44.4954 67.7928C44.0745 68.4909 43.4187 68.9532 42.7445 69.0298C42.6733 69.0391 42.6051 69.0422 42.5369 69.0422ZM42.6753 60.2811C42.6217 60.2811 42.569 60.2852 42.5155 60.2935C41.8071 60.4062 41.3569 61.2161 41.1016 61.8738C40.7157 62.8729 40.5043 63.9258 40.4702 65.0035C40.438 65.9994 40.5861 66.7751 40.9194 67.375C41.3169 68.0866 42.0214 68.5271 42.686 68.4516C43.1976 68.3927 43.7004 68.0297 44.0355 67.4784C44.3113 67.0202 44.4867 66.4431 44.5822 65.6633C44.7118 64.6115 44.6699 63.5524 44.4604 62.5151C44.3688 62.0641 44.2031 61.4074 43.8251 60.9172C43.5181 60.5262 43.0787 60.2811 42.6753 60.2811Z" fill="#202B2B"/>
<path d="M43.3018 61.4043C43.8825 62.3217 44.1622 63.449 44.0823 64.5505C44.0024 65.652 43.5649 66.7213 42.8584 67.5332C43.4616 65.5671 43.6155 63.4459 43.3018 61.4043Z" fill="white"/>
<path d="M47.521 43.8387C47.521 43.8387 47.5804 44.1025 47.6749 44.6123C47.7168 44.8678 47.7724 45.1843 47.7987 45.5659C47.823 45.9465 47.8347 46.3964 47.7343 46.8929C47.632 47.3872 47.4109 47.9333 46.988 48.3843C46.872 48.4867 46.7726 48.6149 46.6323 48.6966C46.566 48.7411 46.4969 48.7876 46.4287 48.8342C46.3546 48.8704 46.2766 48.9003 46.2006 48.9355C46.0486 49.0161 45.8713 49.0234 45.6979 49.0607C45.5225 49.07 45.3422 49.0668 45.1629 49.0244C44.8053 48.9479 44.4623 48.768 44.1602 48.5218C44.0082 48.3998 43.8689 48.2571 43.7373 48.1009C43.6077 47.9551 43.4821 47.7348 43.4363 47.6655C43.3164 47.4783 43.2346 47.2817 43.1644 47.0976C43.1284 47.0066 43.102 46.9157 43.0709 46.8298L43.0592 46.7988C43.0572 46.7936 43.0533 46.7843 43.0533 46.7843L43.0553 46.8081L43.0611 46.9021C43.0631 46.9642 43.0689 47.0263 43.0689 47.0863C43.067 47.2849 43.0533 47.4731 43.0192 47.6448L42.9948 47.7709C42.9909 47.7927 42.9831 47.8123 42.9773 47.832L42.9715 47.8578L42.9471 47.9302C42.913 48.0285 42.8848 48.1267 42.8458 48.2239L42.7181 48.5105C42.6421 48.7059 42.5242 48.8838 42.4209 49.072C42.3108 49.254 42.1812 49.4247 42.0516 49.6026C41.9094 49.7763 41.7486 49.947 41.542 50.0907C41.3384 50.2345 41.0743 50.3535 40.7752 50.3555C40.4819 50.3576 40.1837 50.2407 39.9703 50.0649C39.7569 49.8891 39.5991 49.6853 39.4636 49.4795C39.3282 49.2716 39.2278 49.0617 39.1343 48.859C39.0368 48.6542 38.9365 48.4494 38.8429 48.2374L38.7153 47.9137L38.689 47.8537L38.6734 47.8175C38.651 47.772 38.6373 47.7265 38.6198 47.6872C38.6042 47.6468 38.5896 47.6096 38.5798 47.5744L38.5643 47.5248L38.5565 47.502L38.5526 47.4917L38.5506 47.5134C38.5409 47.6509 38.5243 47.7637 38.5068 47.8537L38.5009 47.8868L38.497 47.9033C38.4931 47.9157 38.5009 47.893 38.4853 47.9467C38.4395 48.0988 38.3937 48.2529 38.3353 48.4008C38.2797 48.5518 38.2252 48.7007 38.1696 48.8528C38.1053 49.0007 38.04 49.1475 37.9777 49.2964C37.8481 49.5933 37.6941 49.8798 37.5402 50.1673C37.3726 50.4486 37.2206 50.731 37.0072 51.0185C36.7938 51.3019 36.5239 51.5997 36.1448 51.8045C35.7677 52.0207 35.2747 52.0579 34.8752 51.9462C34.4659 51.8376 34.1161 51.6131 33.8267 51.3297C33.6806 51.1891 33.5549 51.0226 33.4409 50.852L33.2927 50.5944L33.167 50.3286C32.8679 49.6088 32.7792 48.8972 32.6604 48.2446L32.5883 47.8237L32.5844 47.8206C32.5844 47.8185 32.5824 47.8206 32.5824 47.8206C32.5804 47.8216 32.5805 47.8268 32.5805 47.8257L32.4606 48.0957C32.3544 48.3563 32.2073 48.5922 32.0796 48.8393C31.9461 49.0813 31.8224 49.3316 31.6801 49.5653C31.532 49.797 31.3829 50.0266 31.2368 50.2573L31.0156 50.6007C30.9298 50.7206 30.8421 50.8395 30.7457 50.9543C30.5576 51.1839 30.3384 51.4022 30.0743 51.5915C29.8064 51.7745 29.4712 51.942 29.0697 51.9462C28.6741 51.9648 28.2794 51.7745 28.0134 51.5335C27.7494 51.2925 27.5837 51.0257 27.4385 50.7806C27.3148 50.5334 27.1794 50.2945 27.0692 50.0432C26.8539 49.5395 26.6678 49.0255 26.5538 48.4959C26.3063 47.4431 26.2527 46.3623 26.3901 45.3281C26.738 45.386 27.077 45.4408 27.4181 45.4967C27.1501 46.8546 26.7175 48.1298 26.1358 49.2737C25.9916 49.5591 25.8142 49.8239 25.6564 50.0959C25.4946 50.3669 25.3484 50.6306 25.1273 50.8944C25.0259 51.0278 24.8915 51.1571 24.7521 51.275C24.6742 51.3298 24.5962 51.3825 24.5163 51.4332C24.4345 51.4818 24.339 51.5128 24.2523 51.5501C23.8849 51.67 23.5117 51.6431 23.1882 51.5397C22.8608 51.4342 22.5675 51.2512 22.3278 51.0164C22.092 50.7858 21.9088 50.5179 21.7685 50.2449C21.6272 49.9708 21.521 49.6936 21.4314 49.4185C21.3417 49.1455 21.294 48.8693 21.2258 48.6004C21.1956 48.4649 21.1595 48.3315 21.1361 48.196C21.1186 48.0605 21.102 47.925 21.0845 47.7896L21.0601 47.5889L21.0504 47.5031C21.0426 47.4462 21.0406 47.3883 21.0426 47.3272C21.0426 47.199 21.0426 47.0728 21.0445 46.9487C21.0523 46.8174 21.0669 46.6809 21.0786 46.5392L21.0962 46.355L21.0319 46.4678C20.9861 46.5485 20.9403 46.6292 20.8964 46.7088C20.7941 46.8919 20.6947 47.0687 20.5992 47.2414C20.5369 47.3562 20.4735 47.471 20.4131 47.5827C20.3293 47.7399 20.2455 47.8961 20.1637 48.0471C20.0838 48.2002 20.0019 48.3501 19.924 48.499C19.8226 48.6945 19.7086 48.8848 19.5508 48.9944C19.3949 49.1092 19.1854 49.1362 19.0178 49.0545C18.8502 48.9738 18.7284 48.8187 18.6407 48.6532C18.4526 48.2871 18.4653 47.9913 18.4351 47.7079C18.401 47.4235 18.4195 47.1473 18.4107 46.8877C18.4302 46.6281 18.4331 46.3809 18.4663 46.1482C18.5822 45.2216 18.8054 44.5317 18.9876 44.0859C19.0714 43.8574 19.163 43.6981 19.2107 43.5854C19.2643 43.4747 19.2906 43.4178 19.2906 43.4178C19.2906 43.4178 19.2682 43.4767 19.2244 43.5915C19.1825 43.7084 19.1026 43.8729 19.0363 44.1046C18.8823 44.5586 18.7069 45.2556 18.6485 46.1668C18.6309 46.3943 18.6407 46.6353 18.6368 46.8877C18.6592 47.138 18.6563 47.4048 18.705 47.6768C18.7255 47.8113 18.7411 47.9571 18.7664 48.0885C18.78 48.1505 18.8005 48.2208 18.8219 48.2756C18.8414 48.3273 18.8638 48.377 18.8882 48.4256C18.9437 48.5187 19.0119 48.6087 19.1094 48.6542C19.2068 48.6997 19.3267 48.6728 19.4046 48.5911C19.4865 48.5125 19.5303 48.4049 19.5781 48.3036C19.6502 48.1516 19.7223 47.9964 19.7973 47.8403C19.9669 47.4803 20.1422 47.1111 20.3225 46.7305C20.5544 46.2444 20.7941 45.7459 21.0416 45.2329C21.1712 44.964 21.3028 44.6941 21.4333 44.4179C21.5015 44.2773 21.5707 44.1376 21.6389 43.9949C21.673 43.967 21.7091 43.9339 21.7451 43.8987C21.7247 44.3 21.7032 44.7054 21.6828 45.1181C21.6769 45.5763 21.6691 46.0417 21.6633 46.5112L21.6555 46.8763C21.6613 46.987 21.6711 47.0863 21.6779 47.1939C21.6896 47.2942 21.7101 47.4028 21.7237 47.4927L21.7539 47.6768C21.7744 47.7999 21.7958 47.924 21.8153 48.0481C21.8435 48.1712 21.8815 48.2922 21.9147 48.4153C21.9887 48.6573 22.0404 48.9138 22.132 49.1527C22.2197 49.3926 22.3181 49.6232 22.4379 49.8353C22.5578 50.0462 22.6991 50.2355 22.8657 50.3834C23.0255 50.5282 23.2155 50.6348 23.4152 50.6896C23.6131 50.7465 23.8167 50.7444 23.9843 50.6813C24.148 50.6234 24.2961 50.4838 24.4491 50.2852C24.603 50.0928 24.7443 49.827 24.8827 49.5736C25.0201 49.3171 25.1779 49.0689 25.3036 48.8021C25.8103 47.7285 26.1757 46.5474 26.394 45.3022L27.422 45.4708C27.3265 46.3644 27.3898 47.2993 27.6178 48.2022C27.724 48.6562 27.8936 49.0948 28.0826 49.523C28.1801 49.7371 28.2999 49.9377 28.4061 50.1476C28.5201 50.341 28.64 50.5055 28.7511 50.6017C28.8631 50.6906 28.9489 50.7289 29.0522 50.7227C29.1515 50.7247 29.2899 50.6678 29.437 50.5644C29.5851 50.4569 29.7362 50.31 29.8745 50.1373C29.9467 50.0525 30.012 49.9594 30.0782 49.8653L30.2818 49.5426C30.4173 49.3285 30.5537 49.1134 30.6911 48.8983C30.8227 48.679 30.9347 48.4463 31.0604 48.2218C31.1764 47.9912 31.3157 47.772 31.4122 47.53L31.6236 47.0552C31.7337 46.8101 31.8448 46.5753 31.9451 46.2744L32.1391 45.7345L32.3203 45.2712C32.4402 44.9619 32.56 44.6527 32.6798 44.3445C32.7977 44.0363 32.9176 43.7291 33.0375 43.423C33.0969 43.7291 33.1515 44.0921 33.2089 44.4241C33.4106 45.6331 33.6104 46.8339 33.8102 48.0233C33.9203 48.6956 34.0119 49.3296 34.2175 49.8301L34.2993 50.0111L34.3928 50.1787C34.4591 50.2759 34.5264 50.369 34.6101 50.4507C34.7719 50.6151 34.9658 50.7361 35.1509 50.7889C35.3409 50.8385 35.4988 50.8365 35.6625 50.7486C35.8262 50.6648 35.9996 50.5034 36.1614 50.2945C36.3251 50.0866 36.4751 49.8208 36.6291 49.5747C36.7714 49.3203 36.9165 49.0658 37.0364 48.801L37.2196 48.406L37.3794 48.0026C37.4349 47.8692 37.4788 47.7327 37.5216 47.5951L37.5772 47.4234C37.5976 47.3562 37.623 47.2931 37.6395 47.2218C37.6756 47.078 37.7156 46.9519 37.7419 46.7812C37.9835 45.626 38.1891 43.9153 38.347 42.8035L38.385 42.9472L38.4249 43.1282L38.5068 43.4902C38.5604 43.7291 38.6149 43.968 38.6685 44.2049C38.7221 44.4417 38.7747 44.6786 38.8303 44.9154C38.8878 45.1574 38.9462 45.4005 39.0057 45.6404C39.0631 45.8783 39.1197 46.1172 39.1771 46.353L39.2629 46.7015L39.3565 47.0077C39.3847 47.1132 39.4188 47.2052 39.4539 47.2983L39.5474 47.5527L39.6575 47.8578C39.7374 48.0574 39.8271 48.2508 39.9109 48.4452C39.9947 48.6428 40.0785 48.8289 40.172 48.9841C40.2675 49.1413 40.3698 49.2768 40.475 49.3709C40.5793 49.463 40.6787 49.495 40.781 49.5054C40.9847 49.5229 41.2682 49.3337 41.4943 49.0668C41.6044 48.9251 41.7223 48.7845 41.8217 48.6346C41.9152 48.4774 42.0234 48.3315 42.0935 48.166L42.2134 47.925C42.2494 47.8433 42.2777 47.7586 42.3108 47.6758L42.3751 47.5031C42.3956 47.4297 42.419 47.3593 42.4287 47.2693C42.457 47.0997 42.4843 46.9322 42.5106 46.7657L42.5525 46.5195C42.5564 46.504 42.5564 46.472 42.5564 46.4337L42.5544 46.3292L42.5525 46.1214C42.5505 45.8493 42.5505 45.5794 42.5486 45.3094C42.5505 45.0726 42.5388 44.7106 42.531 44.4014C42.5233 44.088 42.5174 43.7767 42.5106 43.4674L42.5447 43.5636L42.5564 43.5895L42.5807 43.6402L42.6265 43.7364L42.6704 43.8274L42.6821 43.8491L42.7025 43.9194L42.7444 44.0652C42.8604 44.4593 42.9559 44.8099 43.0796 45.207C43.1956 45.5897 43.3037 45.9744 43.4226 46.3064C43.5405 46.6436 43.6458 46.9932 43.7783 47.2404C43.9303 47.5134 43.9878 47.6323 44.0998 47.7771C44.2041 47.9147 44.3191 48.044 44.4428 48.1536C44.6884 48.377 44.9661 48.5404 45.2516 48.619C45.8304 48.7948 46.4014 48.5342 46.7931 48.165C47.1926 47.7875 47.4284 47.2952 47.5502 46.8422C47.6739 46.3799 47.6895 45.9434 47.6876 45.5701C47.6856 45.1947 47.6496 44.8751 47.6252 44.6186C47.557 44.1077 47.521 43.8387 47.521 43.8387Z" fill="#998679"/>
<path d="M43.941 52.6723C43.941 52.6723 43.9274 52.7291 43.903 52.8377C43.8747 52.9453 43.8475 53.1138 43.7812 53.3228C43.6594 53.7427 43.4382 54.357 43.0183 55.0727C42.8107 55.4316 42.5408 55.805 42.2134 56.1845C42.0399 56.3666 41.8723 56.5631 41.656 56.7441C41.4465 56.9261 41.1591 57.0998 40.8171 57.1195C40.476 57.1443 40.1321 57.0088 39.8622 56.7864C39.5883 56.5641 39.3691 56.2611 39.2395 55.8929C38.9842 55.17 39.0739 54.385 39.1674 53.6662C39.3789 53.7086 39.6225 53.7572 39.868 53.8068C39.7959 54.1771 39.7218 54.5587 39.6468 54.9486C39.5689 55.3375 39.4607 55.7295 39.3652 56.1328C39.2678 56.5279 39.1655 56.9623 38.918 57.4163C38.8683 57.5311 38.7806 57.6387 38.6968 57.7452C38.6529 57.7979 38.6149 57.8528 38.5652 57.9024L38.4074 58.0441C38.1843 58.2178 37.9221 58.3357 37.6561 58.3916C37.1173 58.5054 36.5882 58.3833 36.1185 58.1496C35.8847 58.0296 35.6635 57.8704 35.4637 57.679C35.3624 57.586 35.2679 57.4732 35.1841 57.3636L34.958 57.0285C34.8284 56.7927 34.7086 56.5507 34.6189 56.3004L34.5829 56.2063C34.5965 56.2445 34.5868 56.2176 34.5887 56.2249L34.5868 56.2207L34.5809 56.2073L34.5692 56.1845C34.5575 56.1608 34.5517 56.138 34.5487 56.1442L34.5332 56.2228L34.5312 56.2352V56.2393V56.2414C34.5332 56.2373 34.5234 56.2569 34.541 56.2238C34.4289 56.4286 34.3169 56.6448 34.198 56.8527C34.0664 57.0523 33.9368 57.257 33.8004 57.4546C33.6523 57.6449 33.5071 57.8393 33.3512 58.0245C33.1856 58.2003 33.0277 58.3854 32.8523 58.554L32.5824 58.8001L32.447 58.9222C32.4226 58.9439 32.4109 58.9594 32.3632 58.9936L32.2277 59.0928C32.0241 59.2428 31.7902 59.2945 31.5573 59.3048C31.3459 59.281 31.1422 59.1973 30.9785 59.0463C30.8986 58.9697 30.8246 58.8839 30.7574 58.7888C30.7252 58.7433 30.696 58.6967 30.6677 58.6481L30.6102 58.5468C30.5021 58.3389 30.3929 58.1331 30.2848 57.9262C30.0694 57.5167 29.857 57.1112 29.6456 56.7089C29.5413 56.5083 29.4361 56.3065 29.3338 56.108L29.1779 55.8101L29.1623 55.7791L29.1603 55.7781V55.775L29.1584 55.7687C29.1545 55.7532 29.1447 55.7212 29.134 55.6943C29.1282 55.7036 29.1204 55.717 29.1116 55.7388L29.1038 55.7574L29.0999 55.7667L29.098 55.7677L29.0804 55.8246C29.0288 55.9994 28.9703 56.1721 28.8972 56.3438C28.6234 57.0316 28.2463 57.6883 27.6354 58.1724C27.0322 58.6254 26.316 58.8404 25.5989 58.7556C25.2413 58.7112 24.8798 58.5736 24.5826 58.3378C24.2815 58.101 24.0671 57.7762 23.9336 57.4505C23.6784 56.7865 23.6764 56.1752 23.6179 55.6395C23.6101 55.5629 23.6043 55.4885 23.5975 55.413C23.5916 55.3571 23.5819 55.3013 23.5712 55.2433C23.5487 55.1275 23.5049 55.0086 23.4357 54.899C23.3958 54.8007 23.3782 54.8938 23.3539 54.93L23.2818 55.0717C23.2262 55.1793 23.1736 55.2837 23.122 55.3851C23.0265 55.5878 22.9339 55.7874 22.8423 55.9808C22.741 56.1887 22.6591 56.3779 22.551 56.5899C22.4389 56.7999 22.321 56.9892 22.1232 57.164C21.9235 57.345 21.6535 57.4132 21.4246 57.3264C21.2004 57.2488 21.027 57.0202 20.9432 56.863C20.8555 56.6924 20.7717 56.53 20.7035 56.3676C20.4443 55.7067 20.3722 55.0944 20.3917 54.6073C20.4122 54.1191 20.494 53.753 20.5671 53.5131C20.6489 53.2773 20.6908 53.1542 20.6908 53.1542C20.6908 53.1542 20.6606 53.2804 20.6031 53.5224C20.5554 53.7654 20.5076 54.1336 20.531 54.6042C20.5515 55.0738 20.6733 55.6488 20.9627 56.2352C21.1244 56.5062 21.2881 56.8806 21.52 56.9364C21.6457 56.9737 21.7773 56.9147 21.865 56.8185C21.9605 56.7172 22.0667 56.5445 22.1408 56.3676C22.3006 55.956 22.4701 55.5236 22.6474 55.0706C22.7117 54.9062 22.779 54.7397 22.8472 54.5711L22.9515 54.3126L23.0031 54.1802L23.0567 54.0881C23.1288 53.965 23.2009 53.8409 23.2759 53.7148C23.3519 53.6134 23.4152 53.3549 23.5312 53.5938C23.6413 53.723 23.7271 53.8409 23.8187 53.9692L23.9482 54.1637L24.0642 54.3963C24.1305 54.5649 24.2035 54.7418 24.2474 54.9538C24.2718 55.0572 24.299 55.1606 24.3156 55.2713L24.3575 55.5361C24.4433 56.0977 24.4988 56.6572 24.6966 57.0853C24.8924 57.5094 25.2354 57.7545 25.6934 57.7907C26.1465 57.8248 26.66 57.65 27.0449 57.3305C27.1423 57.2467 27.2281 57.1671 27.309 57.0595C27.385 56.9447 27.4824 56.8496 27.5467 56.7224C27.6909 56.4824 27.8186 56.2197 27.918 55.9281C27.9716 55.7864 28.0193 55.6395 28.0592 55.4844L28.1129 55.2951C28.1333 55.2144 28.1528 55.1337 28.1703 55.0489L28.2765 54.5442C28.3506 54.2112 28.412 53.8482 28.4802 53.4935C28.5464 53.1397 28.6137 52.786 28.68 52.4302C29.6319 54.2009 30.6365 56.0677 31.6674 57.9872V57.9862L32.0572 57.6335C32.2053 57.4898 32.3408 57.3315 32.485 57.1826C32.6185 57.0253 32.7422 56.8588 32.8708 56.6975C32.9868 56.5248 33.1027 56.3541 33.2167 56.1835C33.319 56.0025 33.4204 55.8225 33.5217 55.6446C33.5636 55.564 33.5734 55.5205 33.5977 55.4606L33.6601 55.2909L33.7877 54.9538C33.8735 54.7294 33.9573 54.507 34.0411 54.2846C34.3383 53.1966 34.6306 52.1189 34.9219 51.0537C34.9882 51.6308 35.0554 52.2027 35.1197 52.7726C35.1899 53.3486 35.2552 53.993 35.3312 54.5184L35.3887 54.9279C35.4062 55.0675 35.4384 55.1668 35.4628 55.2889L35.5446 55.6374L35.5641 55.7233C35.5738 55.7595 35.5719 55.7626 35.5923 55.8309L35.6187 55.9022C35.681 56.0997 35.7648 56.2766 35.8505 56.4493L36.0006 56.6892C36.0542 56.7616 36.102 56.8258 36.1643 56.8868C36.2822 57.0078 36.4196 57.1185 36.5677 57.2022C36.8649 57.3657 37.203 57.4504 37.4866 57.3998C37.6279 57.378 37.7545 57.3263 37.8656 57.2498L37.9455 57.1846C37.9699 57.1619 37.9913 57.1277 38.0157 57.1019C38.0634 57.045 38.117 56.9974 38.155 56.9178C38.3246 56.6427 38.4503 56.2642 38.5623 55.8743C38.6724 55.4895 38.7981 55.1182 38.8936 54.7448C38.9872 54.3725 39.0778 54.0075 39.1694 53.6527L39.868 53.7924C39.7326 54.4998 39.6381 55.1492 39.792 55.6932C39.9333 56.2124 40.3815 56.6324 40.8005 56.6313C41.2283 56.6489 41.6307 56.2362 41.9727 55.927C42.3099 55.594 42.5992 55.2599 42.8273 54.9331C43.2901 54.2815 43.562 53.7023 43.7198 53.299C43.8036 53.1004 43.8455 52.9381 43.8855 52.8336C43.9215 52.7271 43.941 52.6723 43.941 52.6723Z" fill="#998679"/>
<path d="M37.0539 59.7671C37.0539 59.7671 37.0423 60.0008 37.0257 60.4197C37.0121 60.6307 36.9994 60.8841 36.974 61.185C36.9458 61.485 36.9097 61.847 36.7499 62.24C36.4362 63.0312 35.5797 63.782 34.4435 63.8451C33.8745 63.8751 33.2772 63.6941 32.7666 63.3435C32.6448 63.2484 32.5113 63.1646 32.4012 63.0519L32.2297 62.8843L32.1517 62.8047L32.1381 62.7892C32.0884 62.7312 32.1079 62.7602 32.104 62.755L32.102 62.753C32.102 62.7499 32.102 62.7447 32.0942 62.7447L32.0923 62.7467L32.0309 62.8274C31.9851 62.8936 31.9296 62.9464 31.8769 63.0053C31.7746 63.1222 31.6616 63.2215 31.5495 63.3146C31.3254 63.5038 31.0906 63.6497 30.8509 63.7769C30.6151 63.8979 30.2916 64.0334 29.9369 64.0024C29.5939 63.9755 29.3074 63.8172 29.0921 63.629C28.8748 63.4376 28.717 63.2122 28.6088 62.9691C28.413 62.4903 28.3915 62.0487 28.3896 61.6732C28.3954 61.2988 28.4373 60.9751 28.4636 60.6886C28.486 60.4021 28.526 60.157 28.565 59.9595C28.6371 59.5654 28.677 59.3472 28.677 59.3472C28.677 59.3472 28.6994 59.5675 28.7394 59.9667C28.755 60.1643 28.7774 60.4063 28.8212 60.6855C28.8612 60.9637 28.8914 61.2843 28.9547 61.6205C29.021 61.9504 29.1184 62.2938 29.2899 62.5668C29.4575 62.8151 29.7576 63.0043 29.9671 62.9732C30.0646 62.965 30.1825 62.9081 30.353 62.7964C30.5206 62.6827 30.6921 62.5544 30.8382 62.4086C30.9123 62.3362 30.9844 62.2628 31.0458 62.1821C31.076 62.1428 31.114 62.1066 31.1393 62.0632L31.191 61.9856C31.2309 61.9359 31.2611 61.877 31.2923 61.8139C31.3079 61.7808 31.3264 61.7611 31.3381 61.7146L31.3683 61.577L31.4307 61.2988C31.4726 61.1054 31.5145 60.9513 31.5583 60.6959C31.6382 60.2687 31.7181 59.8385 31.8 59.4052C31.8877 59.611 31.9832 59.8323 32.0777 60.0546C32.2151 60.3763 32.3515 60.6938 32.4869 61.0113C32.6282 61.3888 32.7646 61.5646 32.9001 61.7942L33.0014 61.9607C33.0277 61.9969 33.0414 62.0031 33.0609 62.0269L33.169 62.1438C33.2372 62.2244 33.3249 62.2803 33.4009 62.3517C33.7205 62.6072 34.0918 62.7602 34.4494 62.7882C35.186 62.8481 35.8905 62.4572 36.2306 61.9401C36.4079 61.6815 36.5161 61.3753 36.6096 61.1013C36.7012 60.821 36.7792 60.579 36.8435 60.3814C36.9789 59.9864 37.0539 59.7671 37.0539 59.7671Z" fill="#998679"/>
<path d="M25.2578 25.573C26.5042 25.573 27.5145 24.5006 27.5145 23.1777C27.5145 21.8549 26.5042 20.7824 25.2578 20.7824C24.0115 20.7824 23.0011 21.8549 23.0011 23.1777C23.0011 24.5006 24.0115 25.573 25.2578 25.573Z" fill="#202B2B"/>
<path d="M41.7817 25.5741C43.0286 25.5741 44.0394 24.5012 44.0394 23.1777C44.0394 21.8543 43.0286 20.7814 41.7817 20.7814C40.5348 20.7814 39.524 21.8543 39.524 23.1777C39.524 24.5012 40.5348 25.5741 41.7817 25.5741Z" fill="#202B2B"/>
<path d="M24.4627 23.3411C24.8168 23.3411 25.1039 23.0364 25.1039 22.6606C25.1039 22.2847 24.8168 21.98 24.4627 21.98C24.1086 21.98 23.8216 22.2847 23.8216 22.6606C23.8216 23.0364 24.1086 23.3411 24.4627 23.3411Z" fill="white"/>
<path d="M40.9603 23.3411C41.3144 23.3411 41.6015 23.0364 41.6015 22.6606C41.6015 22.2847 41.3144 21.98 40.9603 21.98C40.6062 21.98 40.3191 22.2847 40.3191 22.6606C40.3191 23.0364 40.6062 23.3411 40.9603 23.3411Z" fill="white"/>
<path d="M31.8867 34.7922C32.0104 34.7829 32.1079 34.6784 32.18 34.5709C32.5551 34.0196 32.5853 33.2284 32.254 32.6461C32.1586 32.4776 32.0182 32.3152 31.8331 32.2883C31.6655 32.2655 31.5038 32.3607 31.3664 32.4683C31.1091 32.6699 30.887 32.9254 30.7194 33.215C30.6131 33.398 30.5255 33.6204 30.5898 33.8231C30.6473 34.001 30.8032 34.1168 30.9513 34.2213C31.1666 34.3723 31.381 34.5233 31.5983 34.6743C31.6869 34.7353 31.7824 34.7994 31.8867 34.7922Z" fill="#F3D6E7"/>
<path d="M32.2677 35.1521C32.294 35.3641 32.4255 35.5596 32.6048 35.6547C32.711 35.7106 32.8445 35.7313 32.9459 35.6661C33.0482 35.5989 33.0901 35.4634 33.1096 35.3362C33.1592 34.9887 33.0891 34.6236 32.9137 34.3247C32.8621 34.2378 32.7802 34.1458 32.6857 34.1685C32.6194 34.184 32.5756 34.2513 32.5395 34.3133C32.3875 34.5688 32.2306 34.8532 32.2677 35.1521Z" fill="#F3D6E7"/>
<path d="M33.9631 35.8533C34.1249 35.9547 34.3285 35.8647 34.4922 35.7685C34.9171 35.5182 35.3166 35.2245 35.7161 34.9297C35.9519 34.756 36.2033 34.5636 36.2988 34.2771C36.4488 33.8345 36.1828 33.366 35.9275 32.9812C35.7736 32.7496 35.6177 32.5158 35.4023 32.3483C35.187 32.1828 34.9015 32.0928 34.652 32.188C34.311 32.3172 34.1492 32.7227 34.0528 33.0919C33.8627 33.8169 33.7692 34.5708 33.775 35.3238C33.776 35.5223 33.8033 35.755 33.9631 35.8533Z" fill="#D163A5"/>
</svg>
