<svg width="54" height="43" viewBox="0 0 54 43" fill="none" xmlns="http://www.w3.org/2000/svg">
<path d="M24.3751 42.3006L24.3945 42.3036C32.6435 43.8707 38.9735 42.6132 42.6234 40.3195C42.6316 40.3318 42.6387 40.3431 42.6449 40.3564C43.0577 41.0195 43.7342 41.492 44.5005 41.6508C45.2188 41.7974 45.9576 41.6652 46.586 41.2747C47.6068 40.6362 48.088 39.4514 47.8867 38.3302C48.9075 38.5362 49.96 38.1714 50.6313 37.3791C51.1279 36.796 51.369 36.054 51.3077 35.2894C51.2474 34.5248 50.8939 33.832 50.3115 33.3329C50.0642 33.1218 49.8087 32.9158 49.5492 32.7149C50.4882 32.5509 51.3159 31.9206 51.6991 30.9972C51.9954 30.2911 51.9985 29.5101 51.7083 28.8009C51.4202 28.0907 50.8704 27.5362 50.1633 27.24C50.0836 27.2062 50.0039 27.1744 49.9221 27.1406C50.619 26.8475 51.3169 26.4068 51.9116 25.7488C52.6657 24.9156 53.5016 23.4593 53.2012 21.2394C53.0877 20.4103 52.7822 19.6119 52.304 18.8914C53.4034 15.374 52.9733 12.4972 52.9518 12.3609C52.7699 11.1976 51.9739 10.222 50.8745 9.81307C49.9988 9.48818 49.1099 9.23298 48.2332 9.05261C46.5584 8.70927 44.8949 8.63034 43.2672 8.81584C42.511 8.07896 41.6067 7.57268 40.633 7.34208C40.5614 7.32466 40.4889 7.30926 40.4194 7.29492C38.3523 6.87062 36.8932 7.54702 36.0329 8.18962C35.991 8.21934 35.949 8.25315 35.9071 8.28595C34.2252 7.60543 32.7774 7.24678 31.9395 7.0746C31.7688 7.03873 31.636 7.0141 31.5451 6.99873C31.4552 6.9772 31.3223 6.94852 31.1507 6.91265C29.9061 6.65848 26.8959 6.18399 23.4391 6.67695C21.743 4.92954 19.1506 3.08781 15.3914 2.3171C14.5157 2.13672 13.5982 2.02299 12.6653 1.97687C11.4922 1.91948 10.3774 2.50361 9.75516 3.50286C9.57328 3.79598 5.56883 10.3942 9.24731 18.0285C9.17579 18.1842 9.10325 18.3431 9.03377 18.5009C8.17444 18.3646 7.32431 18.2908 6.49461 18.2847C5.7303 18.2785 5.00891 18.5727 4.46429 19.1118C3.92069 19.6498 3.61823 20.3693 3.61312 21.1349C3.60597 22.1351 4.11993 23.0411 4.92 23.5638C4.60018 23.6438 4.2865 23.734 3.97485 23.8303C2.46871 24.3028 1.62676 25.9159 2.09577 27.4224C2.40537 28.4196 3.22996 29.1689 4.24869 29.379C3.6254 30.3342 3.60496 31.6142 4.29672 32.6063C4.71872 33.2089 5.34609 33.6199 6.06441 33.7685C6.83076 33.9263 7.63595 33.7582 8.2807 33.3073C8.29092 33.3001 8.30217 33.2919 8.31239 33.2847C10.7708 36.8308 16.0995 40.4804 24.2995 42.2883L24.3751 42.3006Z" fill="#10181E"/>
<path d="M48.3445 31.361C48.0972 31.1488 47.8438 30.9428 47.5822 30.7419C48.5223 30.578 49.3489 29.9476 49.7331 29.0263C50.0284 28.3181 50.0325 27.5372 49.7433 26.828C49.4542 26.1177 48.9055 25.5633 48.1974 25.2671C48.1166 25.2343 48.037 25.2015 47.9563 25.1687C48.6531 24.8745 49.35 24.4349 49.9447 23.7769C50.6987 22.9447 51.5356 21.4884 51.2341 19.2664C51.1228 18.4383 50.8152 17.64 50.3381 16.9205C51.4375 13.4031 51.0063 10.5252 50.9859 10.3889C50.805 9.22569 50.009 8.24902 48.9075 7.84112C48.0318 7.51521 47.1429 7.26104 46.2672 7.08066C44.5925 6.7363 42.929 6.65842 41.3023 6.8429C40.5451 6.10806 39.6418 5.59973 38.666 5.36914C38.5945 5.35171 38.524 5.33634 38.4525 5.32097C36.3874 4.89872 34.9262 5.57512 34.0658 6.21567C34.0239 6.24744 33.9821 6.28025 33.9422 6.31407C32.2583 5.63253 30.8125 5.27277 29.9736 5.10059C29.8029 5.06677 29.669 5.0422 29.5791 5.02478C29.4882 5.00428 29.3564 4.97453 29.1847 4.94071C27.9391 4.68449 24.9299 4.21203 21.4732 4.70294C19.777 2.95655 17.1847 1.11586 13.4255 0.345157C12.5498 0.162729 11.6322 0.0510094 10.6993 0.00386512C9.52629 -0.0535279 8.41148 0.53169 7.7892 1.52992C7.60732 1.82201 3.60294 8.42119 7.28142 16.0565C7.2099 16.2113 7.13733 16.3701 7.06682 16.529C6.20851 16.3906 5.35836 16.3189 4.52866 16.3107C3.76333 16.3045 3.04296 16.5987 2.49834 17.1378C1.95372 17.6779 1.65228 18.3973 1.64717 19.1619C1.64002 20.1632 2.154 21.0692 2.95305 21.5898C2.63425 21.6718 2.32054 21.761 2.0089 21.8583C0.502761 22.3308 -0.339192 23.9419 0.129814 25.4495C0.438398 26.4467 1.26299 27.1969 2.28274 27.407C1.65944 28.3612 1.63901 29.6413 2.33076 30.6333C2.75277 31.236 3.38013 31.6479 4.09846 31.7955C4.86379 31.9523 5.67 31.7842 6.31475 31.3343C6.32497 31.3261 6.33622 31.3179 6.34643 31.3128C8.80489 34.8578 14.1336 38.5085 22.3335 40.3143L22.4051 40.3307L22.4255 40.3338C30.6735 41.9008 37.0035 40.6433 40.6534 38.3506C40.6616 38.3609 40.6698 38.3742 40.6759 38.3865C41.0898 39.0507 41.7651 39.5231 42.5304 39.6799C43.2488 39.8275 43.9886 39.6963 44.617 39.3048C45.6378 38.6653 46.119 37.4826 45.9177 36.3593C46.9385 36.5674 47.9899 36.2015 48.6633 35.4092C49.1589 34.8261 49.399 34.0831 49.3377 33.3185C49.2805 32.5529 48.9269 31.8591 48.3445 31.361Z" fill="white"/>
<path d="M47.7815 10.8901C42.7645 9.02786 38.9337 10.475 36.9085 11.6741C33.228 8.86902 28.9262 8.21414 28.9262 8.21414C28.9262 8.21414 24.7164 7.12262 20.2327 8.25305C18.84 6.35293 15.8829 3.51507 10.5389 3.25065C10.5389 3.25065 6.76642 9.30355 10.9435 15.9878C8.49735 20.4511 7.59915 25.5642 8.08451 27.5515C8.79364 30.4498 13.4919 35.0351 23.0294 37.1361C32.6231 38.9594 38.7386 36.594 40.5257 34.207C41.7508 32.5703 42.9259 27.5146 42.4222 22.4456C48.883 17.9433 47.7815 10.8901 47.7815 10.8901Z" fill="#F3D2D9"/>
<path d="M28.9242 12.8743C29.2787 12.7779 29.4596 12.3936 29.5965 12.0523C30.043 10.9362 30.4885 9.81705 30.9361 8.69994C29.7293 8.33611 28.9272 8.21308 28.9272 8.21308C28.9272 8.21308 28.7515 8.16696 28.4378 8.10649C28.1833 9.2605 27.8369 10.4043 27.8788 11.5818C27.8911 11.9006 27.9361 12.2327 28.1098 12.5012C28.2835 12.7687 28.6156 12.9573 28.9242 12.8743Z" fill="white"/>
<path d="M24.7225 7.7427C24.6203 8.69071 24.5366 9.64074 24.461 10.5918C24.4211 11.0991 24.4773 11.7571 24.9616 11.9037C25.2784 12 25.6217 11.792 25.7974 11.5112C25.9732 11.2304 26.0233 10.8911 26.0825 10.5642C26.2511 9.63769 26.5393 8.73272 26.9245 7.87388C26.2971 7.80316 25.5492 7.74783 24.7225 7.7427Z" fill="white"/>
<path d="M32.7764 13.2853C32.9624 13.1675 33.0655 12.9573 33.1575 12.7565C33.5652 11.8597 33.9055 10.9332 34.1854 9.98827C33.5029 9.64597 32.8418 9.36622 32.2297 9.13767C32.2236 9.15817 32.2195 9.18071 32.2154 9.20223C32.0489 9.94731 31.8823 10.6903 31.7168 11.4344C31.6156 11.8833 31.5186 12.3619 31.6831 12.7893C31.8476 13.2167 32.3891 13.5293 32.7764 13.2853Z" fill="white"/>
<path d="M13.3039 13.2915C13.3039 13.2915 16.6257 11.1393 17.1499 10.0088C17.6751 8.87738 13.2487 5.4922 12.2616 6.2916C11.2736 7.09203 11.3982 12.2502 13.3039 13.2915Z" fill="white"/>
<path d="M41.198 19.0133C41.198 19.0133 38.9848 15.7275 38.945 14.4802C38.9051 13.2319 44.3023 11.8617 44.897 12.987C45.4906 14.1113 43.3571 18.8073 41.198 19.0133Z" fill="white"/>
<path d="M12.4344 19.7482C12.7573 19.4243 12.9545 18.9313 12.8053 18.4968C11.8438 18.1668 10.8189 18.2139 9.80321 18.3728C9.38019 19.3885 9.03279 20.401 8.7569 21.3726C9.59887 21.0867 10.4357 20.7792 11.2573 20.4389C11.6803 20.2637 12.1105 20.0731 12.4344 19.7482Z" fill="white"/>
<path d="M13.0883 27.4111C13.5062 27.0903 13.6891 26.3965 13.3019 26.0368C13.0709 25.8226 12.7276 25.798 12.415 25.8134C10.8955 25.8995 9.47422 26.7224 7.99772 26.9879C8.01918 27.1929 8.04674 27.3865 8.08659 27.5505C8.17447 27.9071 8.32161 28.2884 8.53107 28.6871C9.51916 28.3048 10.5481 28.025 11.5955 27.8703C12.1166 27.7934 12.6694 27.7329 13.0883 27.4111Z" fill="white"/>
<path d="M8.0498 24.8191C8.40539 24.6264 8.78964 24.483 9.17588 24.363C10.0097 24.1038 13.0158 24.0146 13.1977 22.9395C13.4766 21.2874 10.543 22.0571 9.84513 22.2672C9.3516 22.4158 8.90508 22.6966 8.41564 22.8575C8.4044 22.8616 8.39416 22.8647 8.3819 22.8678C8.23067 23.5596 8.11929 24.2165 8.0498 24.8191Z" fill="white"/>
<path d="M39.7307 24.0198C39.4242 24.36 39.4109 24.8929 39.5826 25.3183C39.7522 25.7436 40.0741 26.089 40.3949 26.4159C41.0162 27.0534 41.666 27.6632 42.3292 28.2597C42.4559 27.2563 42.5325 26.1894 42.5397 25.0887C41.6691 24.5424 40.7444 24.0966 39.7307 24.0198Z" fill="white"/>
<path d="M40.5267 34.2061C40.6289 34.0708 40.7281 33.9027 40.8282 33.7223C39.5744 32.8973 38.5914 31.5803 37.2263 30.9039C36.9453 30.7635 36.6173 30.6538 36.322 30.7584C35.8275 30.9367 35.7222 31.6459 35.9817 32.1081C36.2403 32.5663 36.7267 32.8409 37.1752 33.1166C38.0785 33.6731 38.9143 34.3341 39.6725 35.0741C40.0219 34.7912 40.3081 34.4992 40.5267 34.2061Z" fill="white"/>
<path d="M40.9784 28.6532C40.4174 28.1859 38.0224 26.3227 37.632 27.9512C37.3786 29.0099 40.1089 30.2776 40.7751 30.8434C41.0826 31.1057 41.38 31.3897 41.6303 31.7063C41.803 31.1263 41.9583 30.4775 42.0901 29.7826C42.0809 29.7744 42.0717 29.7683 42.0626 29.7601C41.6753 29.4188 41.3759 28.9843 40.9784 28.6532Z" fill="white"/>
<path d="M22.916 37.6977C22.9129 37.6977 22.9099 37.6977 22.9078 37.6957C13.5185 35.6275 8.35534 31.0576 7.53074 27.6878C6.99839 25.513 7.98137 20.3548 10.2845 16.0052C6.24737 9.20825 10.0147 3.0098 10.0536 2.94626C10.1629 2.76998 10.3601 2.66849 10.5665 2.67772C11.3625 2.71666 12.1452 2.81403 12.8901 2.96571C16.7259 3.75384 19.1006 5.862 20.4627 7.60737C24.0492 6.79054 27.3608 7.29789 28.6483 7.56333C28.8516 7.6033 28.9855 7.63505 29.0417 7.6494C29.0979 7.65965 29.2338 7.6812 29.4382 7.72322C30.7256 7.98763 33.9709 8.82493 36.9484 10.9884C38.8847 9.9195 41.894 8.91515 45.7318 9.70328C46.4767 9.85496 47.2329 10.0733 47.9808 10.352C48.1739 10.4238 48.3159 10.5949 48.3466 10.8009C48.3588 10.8737 49.397 18.0591 43.023 22.7202C43.4399 27.6273 42.3251 32.7588 40.9835 34.5503C38.9062 37.3247 32.3677 39.4923 22.9232 37.6988C22.9222 37.6998 22.9191 37.6997 22.916 37.6977ZM10.8608 3.84509C10.1956 5.09851 7.95483 10.1245 11.43 15.6824C11.5403 15.8597 11.5454 16.082 11.4473 16.2634C8.98477 20.7575 8.22558 25.7098 8.64248 27.4152C9.26169 29.9476 13.6371 34.4776 23.1459 36.5745C32.712 38.3906 38.5077 35.9472 40.07 33.8616C41.1194 32.4586 42.3609 27.6047 41.8541 22.5029C41.8336 22.2959 41.9256 22.094 42.0973 21.9741C47.4137 18.2702 47.3575 12.7133 47.2502 11.3103C46.6657 11.1104 46.0792 10.9475 45.5019 10.8296C44.1255 10.5457 42.7042 10.4893 41.3125 10.6994C40.1068 10.8819 39.0891 10.7999 39.1156 12.3392C39.1259 12.9214 39.2843 13.4881 39.3619 14.0672C39.4488 14.7129 39.4304 15.3688 39.4151 16.0196C38.0305 11.8832 33.1821 9.66533 29.2083 8.85055C28.9794 8.80341 28.8486 8.78293 28.8414 8.78293C28.822 8.78088 28.8037 8.77573 28.7842 8.77061C28.7771 8.76856 28.6494 8.73677 28.4205 8.6886C25.3111 8.05216 21.6275 8.02448 18.7522 9.5003C18.2648 9.75139 17.806 10.0497 17.3462 10.3479C16.8291 10.6841 16.3121 11.0202 15.7951 11.3564C16.0628 10.436 16.6882 9.67046 17.1909 8.85568C17.522 8.31865 18.0747 7.36754 17.8928 6.70034C17.7579 6.21148 17.2123 6.02398 16.8108 5.78006C15.511 4.98885 14.1571 4.39949 12.6602 4.09305C12.0829 3.97314 11.479 3.88916 10.8608 3.84509Z" fill="#E592AA"/>
<path d="M26.7774 31.3917C26.7539 31.3866 26.7283 31.3805 26.7028 31.3753C25.4715 31.0884 24.8615 30.2172 24.5999 29.4373C24.0543 30.0532 23.1521 30.6128 21.9065 30.3914C21.882 30.3873 21.8564 30.3812 21.8329 30.3771C20.4044 30.084 20.0294 28.8562 20.0315 28.2361C20.0315 28.0373 20.1939 27.8764 20.3932 27.8764C20.5883 27.8785 20.7508 28.0394 20.7508 28.2392C20.7508 28.3602 20.7937 29.4281 21.977 29.67C21.9953 29.6751 22.0137 29.6781 22.0331 29.6822C23.7293 29.9835 24.4354 28.4145 24.464 28.3468C24.5305 28.191 24.698 28.105 24.8656 28.1378H24.8666C25.0332 28.1726 25.1527 28.3191 25.1527 28.4893C25.1527 28.561 25.1875 30.2818 26.8663 30.6733C26.8857 30.6774 26.9041 30.6815 26.9225 30.6856C28.1405 30.9356 28.5921 29.8964 28.6105 29.8524C28.6871 29.6679 28.8986 29.5818 29.0815 29.6597C29.2634 29.7355 29.3503 29.9477 29.2726 30.1322C29.0315 30.703 28.2048 31.6849 26.7774 31.3917Z" fill="#3B3432"/>
<path d="M27.1483 25.4609C26.2379 24.6307 24.9759 24.3714 23.8142 24.7762C23.2808 24.9638 22.8342 25.2753 22.825 25.798C22.8138 26.4837 23.3523 27.2052 23.8662 27.7381C24.4149 28.3069 25.214 28.4709 25.9415 28.1644C26.622 27.8785 27.3996 27.4245 27.6581 26.7891C27.8543 26.3043 27.5652 25.8411 27.1483 25.4609Z" fill="#3B3432"/>
<path d="M15.6173 23.6076C15.5887 23.6014 15.558 23.5871 15.5345 23.5676C15.4844 23.5266 10.4163 19.4159 4.50724 19.3718C4.39995 19.3687 4.31619 19.2837 4.31722 19.1781C4.31824 19.0726 4.40406 18.9875 4.5093 18.9885C10.5604 19.0357 15.7256 23.2305 15.7767 23.2725C15.8574 23.3391 15.8697 23.4601 15.8022 23.542C15.7563 23.5974 15.6837 23.6219 15.6173 23.6076Z" fill="#3B3432"/>
<path d="M2.82437 24.7833C2.75897 24.769 2.7017 24.7208 2.68024 24.6521C2.64856 24.5507 2.70375 24.4451 2.80491 24.4133C9.50281 22.3174 15.9105 25.2209 15.9759 25.2496C16.071 25.2947 16.1129 25.4075 16.0689 25.5038C16.025 25.5991 15.9167 25.6421 15.8155 25.5981C15.7532 25.5684 9.47218 22.7274 2.91835 24.7771C2.8877 24.7863 2.854 24.7884 2.82437 24.7833Z" fill="#3B3432"/>
<path d="M4.63496 29.1707C4.58897 29.1605 4.54607 29.1338 4.51746 29.0928C4.45615 29.0067 4.47763 28.8868 4.56448 28.8253C9.00012 25.7056 14.3952 26.6587 14.4483 26.668C14.5536 26.6792 14.62 26.7869 14.6016 26.8914C14.5822 26.9959 14.4831 27.0635 14.3799 27.0451C14.3257 27.0348 9.08386 26.1145 4.78208 29.1389C4.73712 29.1707 4.684 29.181 4.63496 29.1707Z" fill="#3B3432"/>
<path d="M35.1449 27.613C35.1746 27.6192 35.2062 27.6191 35.2369 27.6089C35.3002 27.5905 41.569 25.8072 47.0213 28.0927C47.1214 28.1337 47.2308 28.0875 47.2716 27.9892C47.3125 27.8908 47.2665 27.779 47.1684 27.7391C41.5853 25.4013 35.1919 27.2236 35.1296 27.242C35.0284 27.2707 34.9702 27.3784 35.0009 27.4788C35.0213 27.5505 35.0775 27.5997 35.1449 27.613Z" fill="#3B3432"/>
<path d="M46.4502 33.7304C46.5156 33.7447 46.5871 33.7232 46.6341 33.6679C46.7015 33.5879 46.6944 33.468 46.6126 33.3973C41.2727 28.8335 34.2417 28.9791 34.1712 28.9811C34.0659 28.9832 33.9831 29.0723 33.9862 29.1769C33.9892 29.2814 34.0731 29.3654 34.1814 29.3634C34.2509 29.3613 41.1408 29.2209 46.3643 33.6894C46.3909 33.7119 46.4205 33.7252 46.4502 33.7304Z" fill="#3B3432"/>
<path d="M43.0679 37.053C43.1139 37.0632 43.164 37.055 43.2079 37.0294C43.2968 36.973 43.3234 36.8551 43.2692 36.766C40.4102 32.151 35.0764 30.8996 35.0233 30.8883C34.9232 30.8576 34.8189 30.9303 34.7944 31.0328C34.773 31.1374 34.8363 31.2389 34.9395 31.2635C34.9927 31.2747 40.1732 32.4923 42.9453 36.9679C42.9729 37.013 43.0178 37.0427 43.0679 37.053Z" fill="#3B3432"/>
<path d="M16.9292 20.3047C16.9118 20.3006 16.8945 20.2964 16.8771 20.2882C16.6789 20.2185 16.5747 19.9982 16.6452 19.7993C16.9333 18.9907 18.0675 17.5467 20.2859 17.8716C22.2794 18.1616 22.8741 19.9008 22.9098 20.7791C22.919 20.9902 22.7545 21.1686 22.544 21.1768C22.3335 21.185 22.1557 21.021 22.1475 20.8099C22.1445 20.7351 22.0464 18.9047 20.1745 18.629C18.0134 18.3123 17.3891 19.9859 17.3635 20.0586C17.2992 20.2411 17.1111 20.3436 16.9292 20.3047Z" fill="#3B3432"/>
<path d="M35.2308 24.0587C35.0489 24.0218 34.9171 23.8547 34.9273 23.6641C34.9314 23.5883 34.9948 21.7968 32.9011 21.2403C31.0782 20.7555 30.2679 22.4015 30.2331 22.4712C30.1412 22.6608 29.9133 22.7418 29.7243 22.6516C29.5353 22.5593 29.4545 22.3328 29.5444 22.1422C29.9205 21.3489 31.1579 19.9869 33.0962 20.4994C35.2635 21.0764 35.7406 22.8493 35.6906 23.7072C35.6773 23.9183 35.4975 24.0782 35.286 24.0669C35.2665 24.0638 35.2481 24.0618 35.2308 24.0587Z" fill="#3B3432"/>
<path d="M40.962 15.2057C40.962 15.2057 40.7526 9.20616 37.9171 8.53179C35.0816 7.85742 34.8834 11.2272 34.8834 11.2272C34.8834 11.2272 31.5206 11.097 31.914 13.9933C32.3074 16.8917 38.24 17.6829 38.24 17.6829L39.6326 16.4797L40.962 15.2057Z" fill="#E5A9CC"/>
<path d="M32.149 15.7202C31.6964 15.2201 31.4266 14.6666 31.3469 14.0712C31.2151 13.1129 31.4246 12.3228 31.9651 11.7242C32.665 10.9515 33.743 10.7352 34.3827 10.6758C34.5032 10.0434 34.8251 8.98882 35.6589 8.36467C36.3057 7.88298 37.1099 7.75076 38.0479 7.97521C38.6303 8.11255 39.1545 8.43537 39.6051 8.93653C41.3636 10.8797 41.5271 15.012 41.5333 15.1883C41.5384 15.3523 41.474 15.5101 41.3565 15.6228L40.0271 16.8957L38.6119 18.1184C38.4883 18.2261 38.3248 18.2742 38.1633 18.2527C37.9906 18.2291 33.9065 17.6623 32.149 15.7202ZM38.759 9.70625C38.4617 9.37727 38.1419 9.17533 37.7853 9.09129C37.1844 8.94678 36.7134 9.00929 36.3466 9.28396C35.5537 9.87223 35.4566 11.2497 35.4556 11.264C35.4341 11.5746 35.1726 11.8144 34.8619 11.8021C34.8497 11.8011 33.4733 11.7642 32.8112 12.499C32.5056 12.8382 32.3973 13.3015 32.4811 13.9175C32.5312 14.2823 32.6998 14.6215 32.9971 14.9495C34.2529 16.3382 37.1926 16.9275 38.0673 17.0751L39.2597 16.0461L40.3766 14.9751C40.3132 14.0876 40.0148 11.095 38.759 9.70625Z" fill="#EC5486"/>
<path d="M41.6967 16.0174C41.6967 16.0174 47.6303 16.8097 48.0226 19.707C48.415 22.6033 45.0513 22.4731 45.0513 22.4731C45.0513 22.4731 44.8551 25.8419 42.0186 25.1685C39.182 24.4952 38.9736 18.4945 38.9736 18.4945L40.304 17.2206L41.6967 16.0174Z" fill="#E5A9CC"/>
<path d="M40.3295 24.7668C38.571 22.8216 38.4076 18.6893 38.4014 18.513C38.3953 18.3511 38.4597 18.1922 38.5772 18.0785L39.9086 16.8056L41.3228 15.5829C41.4464 15.4763 41.6088 15.4271 41.7713 15.4486C41.944 15.4712 46.0292 16.0369 47.7877 17.9801C48.2383 18.4802 48.508 19.0357 48.5888 19.6291C48.7196 20.5894 48.5101 21.3775 47.9696 21.9761C47.2707 22.7488 46.1916 22.9651 45.553 23.0245C45.4314 23.6569 45.1105 24.7125 44.2757 25.3356C43.63 25.8173 42.8269 25.9495 41.8868 25.7271C41.3054 25.5887 40.7812 25.2649 40.3295 24.7668ZM39.5601 18.7252C39.6214 19.6117 39.9208 22.6043 41.1756 23.994C41.474 24.323 41.7928 24.5249 42.1504 24.611C42.7543 24.7535 43.2253 24.691 43.5921 24.4173C44.3789 23.8291 44.4801 22.4536 44.4801 22.4393C44.4985 22.1267 44.7621 21.8869 45.0728 21.9002C45.0871 21.9002 46.4624 21.9371 47.1245 21.2023C47.4301 20.863 47.5373 20.3998 47.4546 19.7839C47.4055 19.4201 47.2359 19.0818 46.9386 18.7518C45.6797 17.36 42.7421 16.7717 41.8684 16.6262L40.676 17.6552L39.5601 18.7252Z" fill="#EC5486"/>
<path d="M38.7927 19.3422L37.3796 17.7813C37.1998 17.5835 37.215 17.276 37.4133 17.0946L40.4583 14.3244C40.6555 14.144 40.962 14.1604 41.1419 14.3582L42.554 15.919C42.7348 16.1168 42.7195 16.4244 42.5213 16.6058L39.4763 19.376C39.2781 19.5564 38.9726 19.54 38.7927 19.3422Z" fill="#E5A9CC"/>
<path d="M38.0008 19.3207L37.3254 18.5736C36.7307 17.9166 36.7808 16.8969 37.4358 16.2994L39.6694 14.2681C40.3244 13.6737 41.3421 13.7218 41.9358 14.3788L42.6112 15.1259C43.2059 15.7828 43.1558 16.8036 42.5008 17.4001L40.2682 19.4314C39.6112 20.0268 38.5955 19.9787 38.0008 19.3207ZM41.0877 15.1505C40.9171 14.9619 40.6249 14.9486 40.4368 15.1188L38.2032 17.1501C38.0151 17.3212 38.0008 17.6143 38.1715 17.8029L38.8469 18.55C39.0175 18.7386 39.3087 18.7519 39.4988 18.5818L41.7304 16.5505C41.9205 16.3793 41.9338 16.0862 41.7621 15.8976L41.0877 15.1505Z" fill="#EC5486"/>
</svg>
