<svg width="71" height="63" viewBox="0 0 71 63" fill="none" xmlns="http://www.w3.org/2000/svg">
<path opacity="0.66" d="M5.40162 48.2996C5.29338 48.4424 5.18617 48.5863 5.08201 48.7332C4.30797 49.8154 4.0047 51.1317 4.23038 52.4398C4.45503 53.749 5.17901 54.892 6.26859 55.6591C7.25708 56.3542 8.46305 56.6693 9.66802 56.5487C10.9659 56.418 12.1546 55.7928 12.9837 54.817C12.7101 55.5152 12.4946 56.2194 12.3333 56.9277C11.7288 59.6007 13.429 62.2626 16.1136 62.8595C16.6416 62.978 17.1828 63.0105 17.722 62.9567C19.8705 62.7409 21.631 61.1916 22.1017 59.1032C22.2059 58.6421 22.4009 58.1528 22.6797 57.6451C26.9257 59.7152 31.9652 60.7538 37.7133 60.7386C37.8797 60.7386 38.0441 60.7295 38.2085 60.7133C38.374 60.6971 38.5374 60.6718 38.6946 60.6414C44.3335 59.5136 49.0625 57.4941 52.804 54.6215C53.1808 55.0643 53.4688 55.503 53.6639 55.9327C54.5472 57.8883 56.5854 59.0566 58.735 58.8408C59.2741 58.7861 59.797 58.6472 60.283 58.4294C62.8012 57.3077 63.9286 54.361 62.7971 51.8613C62.4969 51.1996 62.1415 50.5531 61.7341 49.9228C62.7471 50.7162 64.0368 51.0922 65.3327 50.9615C66.5377 50.8409 67.6548 50.2907 68.4819 49.4152C69.3969 48.4465 69.8748 47.1819 69.8309 45.8555C69.787 44.5292 69.2243 43.3 68.2491 42.3941C68.1174 42.2715 67.9836 42.151 67.8478 42.0324C69.3162 41.4498 70.4548 40.1943 70.848 38.6268C71.1727 37.3389 70.9736 36.0034 70.2853 34.8644C69.596 33.7265 68.5024 32.923 67.2055 32.6018C65.7575 32.2431 64.3217 31.9786 62.9074 31.8094C62.8952 28.3855 62.4796 25.4561 62.2212 23.6433C60.5955 12.2074 58.6553 5.19851 58.5705 4.89656C58.1131 3.27327 56.8723 2.00366 55.2569 1.49803C54.6033 1.29335 53.9263 1.22343 53.2451 1.29233C52.2587 1.39163 51.3335 1.77466 50.5697 2.39782C46.3084 5.87541 43.7943 10.4149 42.3871 13.8398C39.4298 13.3463 36.4205 13.2491 33.3988 13.553C30.3772 13.857 27.4485 14.5491 24.6516 15.6201C22.5827 12.5448 19.2047 8.5981 14.3307 6.03956C13.4545 5.57852 12.4701 5.386 11.4816 5.4853C10.8025 5.5542 10.1551 5.75582 9.55571 6.08514C8.07094 6.90286 7.1121 8.39444 6.99058 10.0846C6.96914 10.3876 6.48199 17.6305 7.19782 29.1677C7.31117 30.9947 7.49399 33.9454 8.17511 37.3044C6.82411 37.7503 5.47104 38.2954 4.12617 38.9328C2.91915 39.5053 2.01032 40.5105 1.5651 41.7608C1.11885 43.0133 1.19238 44.3629 1.76934 45.5566C2.47496 47.0157 3.84537 48.0209 5.40162 48.2996Z" fill="#075C54"/>
<path d="M4.12517 47.033C4.01693 47.1758 3.90972 47.3197 3.80556 47.4666C3.03152 48.5488 2.72825 49.8651 2.95393 51.1732C3.17858 52.4824 3.90256 53.6254 4.99214 54.3924C5.98063 55.0875 7.1866 55.4027 8.39157 55.2821C9.68947 55.1514 10.8781 54.5262 11.7073 53.5504C11.4336 54.2486 11.2182 54.9528 11.0569 55.6611C10.4523 58.3341 12.1525 60.996 14.8372 61.5928C15.3651 61.7114 15.9063 61.7438 16.4455 61.6901C18.594 61.4743 20.3545 59.9249 20.8253 57.8366C20.9294 57.3755 21.1245 56.8861 21.4032 56.3785C25.6492 58.4486 30.6887 59.4872 36.4368 59.472C36.6033 59.472 36.7677 59.4629 36.9321 59.4467C37.0975 59.4305 37.2609 59.4051 37.4182 59.3747C43.057 58.247 47.786 56.2275 51.5275 53.3548C51.9044 53.7976 52.1924 54.2364 52.3874 54.666C53.2707 56.6217 55.309 57.79 57.4585 57.5742C57.9977 57.5194 58.5205 57.3806 59.0066 57.1628C61.5248 56.0411 62.6521 53.0944 61.5207 50.5947C61.2204 49.933 60.8651 49.2865 60.4576 48.6562C61.4706 49.4496 62.7604 49.8256 64.0562 49.6949C65.2612 49.5743 66.3783 49.0241 67.2055 48.1486C68.1204 47.1799 68.5983 45.9153 68.5544 44.5889C68.5105 43.2625 67.9478 42.0334 66.9726 41.1275C66.8409 41.0049 66.7071 40.8844 66.5713 40.7658C68.0397 40.1832 69.1784 38.9277 69.5715 37.3602C69.8963 36.0723 69.6971 34.7368 69.0088 33.5978C68.3196 32.4599 67.2259 31.6564 65.929 31.3352C64.481 30.9765 63.0453 30.712 61.631 30.5428C61.6187 27.1189 61.2031 24.1895 60.9448 22.3767C59.3191 10.9408 57.3788 3.9319 57.2941 3.62994C56.8366 2.00666 55.5959 0.73704 53.9804 0.231412C53.3269 0.0267282 52.6498 -0.0431913 51.9687 0.025712C50.9822 0.125014 50.0571 0.508039 49.2933 1.13121C45.0319 4.6088 42.5178 9.1483 41.1107 12.5732C38.1534 12.0797 35.144 11.9824 32.1224 12.2864C29.1008 12.5904 26.1721 13.2825 23.3751 14.3535C21.3063 11.2782 17.9283 7.33149 13.0542 4.77294C12.1781 4.3119 11.1936 4.11938 10.2052 4.21868C9.52608 4.28758 8.87868 4.48921 8.27926 4.81852C6.79449 5.63624 5.83565 7.12782 5.71413 8.81798C5.69269 9.12095 5.20554 16.3639 5.92137 27.9011C6.03472 29.7281 6.21754 32.6788 6.89866 36.0378C5.54766 36.4836 4.19459 37.0288 2.84972 37.6672C1.6427 38.2387 0.733871 39.2438 0.288644 40.4942C-0.157604 41.7466 -0.0840677 43.0963 0.492889 44.29C1.19851 45.7491 2.56892 46.7543 4.12517 47.033Z" fill="white"/>
<path d="M55.9911 23.0689C54.3817 11.7464 52.4752 4.96555 52.4752 4.96555C46.1706 10.11 44.4448 18.4868 44.4448 18.4868C44.1824 18.4007 43.921 18.3206 43.6595 18.2446C36.4593 16.1339 28.6566 16.9172 22.0293 20.4161C21.7883 20.5427 21.5473 20.6745 21.3083 20.8103C21.3083 20.8103 17.9262 12.9472 10.7106 9.16052C10.7106 9.16052 10.2124 16.1836 10.9211 27.5952C11.6226 38.9004 15.0067 54.5648 36.4297 54.506C57.4319 50.3039 57.5851 34.2849 55.9911 23.0689Z" fill="#FFEBBD"/>
<path d="M36.5185 55.3765C36.4909 55.3795 36.4613 55.3815 36.4327 55.3815C11.7655 55.4484 10.4655 34.5241 10.0377 27.6479C9.33407 16.3093 9.82325 9.16868 9.82836 9.09775C9.8498 8.80187 10.0203 8.53638 10.2807 8.39249C10.5421 8.24962 10.8587 8.24557 11.1221 8.38439C17.1715 11.559 20.5802 17.3834 21.7024 19.5943C25.0774 17.8272 28.7229 16.7379 32.538 16.3549C36.354 15.9719 40.1457 16.3153 43.8086 17.3752C44.4631 14.9869 46.627 8.60325 51.9125 4.2897C52.1443 4.10021 52.4527 4.04146 52.7396 4.13063C53.0235 4.2198 53.2441 4.44677 53.3248 4.73251C53.3442 4.79939 55.264 11.6988 56.8641 22.9483C57.8342 29.7697 60.7864 50.5289 36.6032 55.3653C36.5767 55.3694 36.5481 55.3734 36.5185 55.3765ZM11.5204 10.639C11.4163 13.233 11.2866 19.2427 11.8023 27.5405C12.4987 38.7515 15.8011 53.6437 36.3408 53.6285C56.4679 49.5602 56.6977 34.3133 55.1149 23.1925C53.9446 14.9606 52.6048 9.09773 51.9799 6.57871C46.8516 11.484 45.325 18.5881 45.3097 18.6641C45.2586 18.9083 45.1055 19.1201 44.888 19.2448C44.6694 19.3704 44.408 19.3978 44.1701 19.3197C43.9158 19.2387 43.6615 19.1597 43.4083 19.0857C39.9363 18.0673 36.3398 17.737 32.7177 18.0997C29.0967 18.4625 25.6401 19.5032 22.4438 21.1903C22.21 21.3129 21.9771 21.4416 21.7453 21.5723C21.5268 21.6949 21.2644 21.7202 21.0264 21.6412C20.7885 21.5611 20.5945 21.3838 20.4944 21.1548C20.4658 21.0818 17.5361 14.4256 11.5204 10.639Z" fill="#111D32"/>
<path d="M5.10041 43.0194C4.74096 43.0549 4.38049 42.8685 4.21506 42.526C4.00368 42.0882 4.19155 41.5654 4.63065 41.3566C13.9917 36.9104 20.2933 39.1933 20.5567 39.2926C21.0122 39.4648 21.2419 39.9704 21.0694 40.4224C20.8968 40.8743 20.3882 41.1023 19.9328 40.9331C19.8746 40.9118 14.0233 38.8396 5.39447 42.9383C5.29746 42.9819 5.19946 43.0083 5.10041 43.0194Z" fill="#111D32"/>
<path d="M7.97594 51.2129C7.77171 51.2341 7.55828 51.1845 7.37754 51.0558C6.97826 50.7771 6.88532 50.229 7.16818 49.8348C11.9523 43.135 21.6126 42.983 22.021 42.9799C22.5092 42.9769 22.9064 43.365 22.9104 43.8493C22.9145 44.3327 22.5132 44.7279 22.0363 44.7329C21.9434 44.7349 12.8653 44.8879 8.60905 50.847C8.45588 51.0629 8.22102 51.1875 7.97594 51.2129Z" fill="#111D32"/>
<path d="M16.0319 57.622C15.939 57.6311 15.844 57.626 15.7491 57.6037C15.2722 57.4983 14.974 57.0292 15.0812 56.557C16.467 50.4327 23.5967 46.0928 23.899 45.9114C24.3167 45.6622 24.8589 45.7929 25.1121 46.2073C25.3654 46.6207 25.2316 47.1598 24.815 47.4111C24.7476 47.4516 18.0263 51.5503 16.805 56.94C16.7192 57.319 16.3985 57.5845 16.0319 57.622Z" fill="#111D32"/>
<path d="M64.8068 37.0249C64.7077 37.035 64.6066 37.0279 64.5035 37.0026C55.1609 34.6892 49.909 37.8943 49.8569 37.9267C49.4444 38.1851 48.8991 38.0645 48.6377 37.6541C48.3773 37.2458 48.4998 36.7037 48.9124 36.4453C49.1503 36.2963 54.8647 32.8066 64.9324 35.3023C65.4052 35.4188 65.6942 35.8951 65.5747 36.3652C65.4828 36.732 65.1662 36.9874 64.8068 37.0249Z" fill="#111D32"/>
<path d="M63.6426 45.6235C63.3965 45.6478 63.1433 45.5708 62.9493 45.3914C57.5616 40.3868 48.6499 42.0506 48.5611 42.0709C48.074 42.1621 47.6176 41.855 47.5236 41.3788C47.4297 40.9036 47.7411 40.4425 48.2201 40.3493C48.6214 40.2713 58.1161 38.4991 64.1553 44.1127C64.5127 44.443 64.5301 44.9973 64.1972 45.3519C64.046 45.512 63.8469 45.6022 63.6426 45.6235Z" fill="#111D32"/>
<path d="M57.0449 53.5028C56.6773 53.5393 56.3097 53.3427 56.1504 52.9901C53.8671 47.951 46.4544 45.2719 46.3799 45.2445C45.9214 45.0824 45.6804 44.5809 45.8458 44.1259C46.0092 43.6689 46.5147 43.4318 46.9742 43.5939C47.3061 43.7125 55.167 46.5466 57.7618 52.2707C57.9609 52.7125 57.7638 53.2312 57.3176 53.4298C57.2297 53.4694 57.1378 53.4927 57.0449 53.5028Z" fill="#111D32"/>
<path d="M25.639 35.6244C22.3355 35.9557 19.3752 33.5583 19.0413 30.2813C18.9923 29.798 19.3466 29.3694 19.8306 29.3208C20.3167 29.2721 20.7497 29.6227 20.7987 30.104C21.0346 32.4204 23.1259 34.1146 25.4603 33.8805C27.7937 33.6465 29.5011 31.5713 29.2652 29.2549C29.2162 28.7726 29.5705 28.344 30.0556 28.2953C30.5406 28.2457 30.9736 28.5973 31.0226 29.0786C31.3586 32.3545 28.9425 35.292 25.639 35.6244Z" fill="#111D32"/>
<path d="M43.1928 33.8602C39.8883 34.1926 36.928 31.7961 36.5951 28.5172C36.545 28.0358 36.8994 27.6062 37.3844 27.5576C37.8695 27.5089 38.3025 27.8606 38.3515 28.3409C38.5874 30.6572 40.6787 32.3514 43.013 32.1174C45.3474 31.8833 47.0548 29.8081 46.8179 27.4917C46.7699 27.0094 47.1232 26.5808 47.6083 26.5311C48.0943 26.4835 48.5264 26.8341 48.5764 27.3154C48.9103 30.5934 46.4952 33.5299 43.1928 33.8602Z" fill="#111D32"/>
<path d="M39.4145 46.2245C37.5631 46.411 36.251 45.5395 35.4095 44.4938C34.7733 45.728 33.6082 46.878 31.6363 47.0027C27.5915 47.256 26.9492 44.6742 26.9247 44.5647C26.8165 44.0926 27.1136 43.6224 27.5884 43.514C28.0602 43.4056 28.5381 43.7024 28.6464 44.1726C28.6556 44.2 29.0426 45.4078 31.524 45.2518C34.0534 45.1099 34.2822 42.2383 34.2914 42.1167C34.323 41.6921 34.6569 41.3506 35.0827 41.3081C35.0838 41.3081 35.0858 41.3081 35.0868 41.3081C35.5147 41.2665 35.9099 41.535 36.0232 41.9454C36.0569 42.0599 36.879 44.8282 39.3676 44.4644C41.8306 44.123 41.9664 42.8634 41.9705 42.8097C42.0113 42.3365 42.4188 41.9707 42.8998 41.993C43.3766 42.0184 43.7463 42.4014 43.7351 42.8746C43.733 42.9871 43.6237 45.6439 39.6116 46.1992C39.5462 46.2103 39.4809 46.2185 39.4145 46.2245Z" fill="#111D32"/>
<path d="M34.7733 38.253C34.7733 38.253 31.6884 38.484 31.8896 40.4569C32.0387 41.9231 33.8287 42.6517 34.7396 42.9293C35.0827 43.0347 35.435 42.9992 35.7506 42.828C36.5859 42.374 38.1922 41.304 38.0421 39.8388C37.8409 37.8659 34.7733 38.253 34.7733 38.253Z" fill="#111D32"/>
<path d="M12.8745 23.8256C13.0011 24.8885 13.9926 25.6211 15.0557 25.4387C16.9703 25.1094 19.6979 24.2958 19.1546 22.3563C18.3306 19.4219 13.5076 14.2855 13.2482 14.8317C13.0369 15.2776 12.4885 20.579 12.8745 23.8256Z" fill="#DFB96D"/>
<path d="M53.3166 19.7655C53.4065 20.8324 52.5834 21.7464 51.5061 21.7789C49.5638 21.8376 46.726 21.5813 46.868 19.5729C47.0824 16.5331 50.7709 10.5446 51.1354 11.0269C51.4306 11.4221 53.0389 16.5077 53.3166 19.7655Z" fill="#DFB96D"/>
</svg>
