<svg width="48" height="46" viewBox="0 0 48 46" fill="none" xmlns="http://www.w3.org/2000/svg">
<path d="M0.766125 31.5111C0.766125 33.2728 2.26901 34.7064 4.1158 34.7064C4.5625 34.7064 4.99208 34.6223 5.38738 34.4682L12.7011 41.4436C12.4967 41.8568 12.3841 42.3191 12.3841 42.8048C12.3841 44.5664 13.887 46 15.7338 46C17.211 46 18.4679 45.0824 18.9121 43.8134H29.2488C29.764 44.9447 30.9487 45.7385 32.3218 45.7385C34.1686 45.7385 35.6715 44.3049 35.6715 42.5444C35.6715 42.1393 35.5932 41.7494 35.4475 41.391L42.7576 34.4168C43.1835 34.6036 43.6534 34.7075 44.1442 34.7075C45.991 34.7075 47.4939 33.2739 47.4939 31.5123C47.4939 30.1884 46.6445 29.0502 45.439 28.5657V18.3402C46.6445 17.8557 47.4939 16.7175 47.4939 15.3937C47.4939 13.632 45.991 12.1996 44.1442 12.1996C43.6791 12.1996 43.2312 12.293 42.8237 12.4611L35.4708 5.44601C35.6005 5.10396 35.6715 4.73856 35.6715 4.36265C35.6715 2.60101 34.1686 1.16741 32.3218 1.16741C30.9854 1.16741 29.8289 1.91805 29.2916 3.00026H18.7738C18.2378 1.91805 17.0812 1.16741 15.7436 1.16741C13.8968 1.16741 12.3951 2.60101 12.3951 4.36265C12.3951 4.74557 12.4673 5.1168 12.6007 5.46352L5.31762 12.4109C4.9419 12.2731 4.53558 12.1996 4.11457 12.1996C2.26779 12.1996 0.764902 13.6332 0.764902 15.3937C0.764902 16.6556 1.53593 17.7484 2.65085 18.2679V28.6392C1.53715 29.1576 0.766125 30.2503 0.766125 31.5111ZM6.62958 16.5249L16.8316 6.79323H31.2595L41.4603 16.5249V30.2888L31.2595 40.0193H16.8316L6.62958 30.2888V16.5249Z" fill="#6B5951"/>
<path d="M0.00122318 30.3437C0.00122318 32.1054 1.50411 33.5389 3.3509 33.5389C3.7976 33.5389 4.22717 33.4549 4.62248 33.3008L11.9362 40.2762C11.7318 40.6894 11.6192 41.1517 11.6192 41.6374C11.6192 43.399 13.1221 44.8326 14.9689 44.8326C16.4461 44.8326 17.703 43.915 18.1472 42.646H28.4839C28.9991 43.7773 30.1838 44.5711 31.5569 44.5711C33.4037 44.5711 34.9066 43.1375 34.9066 41.377C34.9066 40.9719 34.8283 40.582 34.6826 40.2236L41.9927 33.2494C42.4186 33.4362 42.8885 33.5401 43.3793 33.5401C45.2261 33.5401 46.729 32.1065 46.729 30.3449C46.729 29.021 45.8796 27.8828 44.6741 27.3983V17.1728C45.8796 16.6883 46.729 15.5501 46.729 14.2262C46.729 12.4646 45.2261 11.0322 43.3793 11.0322C42.9142 11.0322 42.4663 11.1256 42.0588 11.2937L34.7059 4.2786C34.8356 3.93655 34.9066 3.57115 34.9066 3.19524C34.9066 1.4336 33.4037 0 31.5569 0C30.2205 0 29.064 0.750645 28.5267 1.83285H18.0089C17.4729 0.750645 16.3163 0 14.9787 0C13.1319 0 11.6302 1.4336 11.6302 3.19524C11.6302 3.57816 11.7024 3.94939 11.8358 4.29611L4.55272 11.2435C4.177 11.1057 3.77068 11.0322 3.34967 11.0322C1.50289 11.0322 0 12.4658 0 14.2262C0 15.4882 0.771025 16.5809 1.88595 17.1004V27.4718C0.772249 27.9902 0.00122318 29.0829 0.00122318 30.3437ZM5.86468 15.3575L16.0667 5.62582H30.4946L40.6954 15.3575V29.1214L30.4946 38.8519H16.0667L5.86468 29.1214V15.3575Z" fill="white"/>
<path d="M15.3072 40.6031L4.02941 29.8465V14.6314L15.3072 3.8748H31.2564L42.5341 14.6314V29.8465L31.2564 40.6031H15.3072Z" fill="#E59CA7"/>
<path d="M16.4179 39.8547L5.60034 29.5358V14.9419L16.4179 4.62298H31.716L42.5336 14.9419V29.5358L31.716 39.8547H16.4179Z" fill="#CE656F"/>
<path d="M31.3195 40.749H15.2443L3.87718 29.9059V14.5718L15.2443 3.72876H31.3195L42.6866 14.5718V29.9059L31.3195 40.749ZM15.3703 40.4583H31.1935L42.3819 29.7857V14.692L31.1935 4.01944H15.3703L4.18192 14.692V29.7857L15.3703 40.4583Z" fill="#231F20"/>
<path d="M17.0475 36.8534L7.96164 28.1853V15.9285L17.0475 7.26152H29.8979L38.9825 15.9285V28.1853L29.8979 36.8534H17.0475Z" fill="#C52831"/>
<path d="M29.9598 36.998H16.9834L7.80818 28.2459V15.8677L16.9834 7.11546H29.9598L39.135 15.8677V28.2459L29.9598 36.998ZM17.1094 36.7073H29.8325L38.8291 28.1256V15.989L29.8325 7.40732H17.1094L8.11292 15.989V28.1256L17.1094 36.7073Z" fill="#231F20"/>
<path d="M18.1808 34.0714L10.8781 27.1053V17.2523L18.1808 10.2851H28.5088L35.8128 17.2523V27.1053L28.5088 34.0714H18.1808Z" fill="#C52831"/>
<path d="M28.572 34.216H18.1179L10.7246 27.1648V17.1915L18.1179 10.1402H28.572L35.964 17.1915V27.1648L28.572 34.216ZM18.2439 33.9253H28.4459L35.6605 27.0445V17.3117L28.4459 10.4309H18.2439L11.0306 17.3117V27.0445L18.2439 33.9253Z" fill="#231F20"/>
<path d="M42.5926 29.7203L4.08732 14.5059L3.97068 14.7745L42.476 29.9889L42.5926 29.7203Z" fill="#231F20"/>
<path d="M42.6039 14.7683L42.4876 14.4997L3.96977 29.6783L4.08612 29.947L42.6039 14.7683Z" fill="#231F20"/>
<path d="M31.4352 3.95782L31.1539 3.84614L15.1416 40.5524L15.4229 40.6641L31.4352 3.95782Z" fill="#231F20"/>
<path d="M31.391 40.5545L15.4412 3.82442L15.1596 3.93568L31.1094 40.6658L31.391 40.5545Z" fill="#231F20"/>
<g opacity="0.6">
<path opacity="0.6" d="M42.5337 29.847V14.6319L31.2559 3.87529H31.1311L24.5407 18.9596L26.2296 29.0461L31.2535 40.6036H31.2559L42.5337 29.847Z" fill="#727272"/>
</g>
<path d="M23.2818 30.6497C28.1517 30.6497 32.0996 26.8838 32.0996 22.2384C32.0996 17.593 28.1517 13.8271 23.2818 13.8271C18.4118 13.8271 14.4639 17.593 14.4639 22.2384C14.4639 26.8838 18.4118 30.6497 23.2818 30.6497Z" fill="#C52831"/>
<path d="M23.2813 30.7955C18.3345 30.7955 14.3105 26.9558 14.3105 22.2383C14.3105 17.5207 18.3357 13.681 23.2813 13.681C28.2268 13.681 32.2521 17.5196 32.2521 22.2383C32.2521 26.957 28.2281 30.7955 23.2813 30.7955ZM23.2813 13.9729C18.5034 13.9729 14.6152 17.6806 14.6152 22.2394C14.6152 26.7982 18.5021 30.506 23.2813 30.506C28.0604 30.506 31.9474 26.7982 31.9474 22.2394C31.9474 17.6806 28.0604 13.9729 23.2813 13.9729Z" fill="#231F20"/>
<path d="M23.6411 22.5138C19.5008 22.2231 15.8109 19.6536 17.6271 15.7871C15.6934 17.3293 14.4634 19.6466 14.4634 22.2394C14.4634 26.8846 18.4116 30.6507 23.2825 30.6507C23.5309 30.6507 23.7745 30.6391 24.018 30.6192C28.8278 28.2167 27.2355 22.7648 23.6411 22.5138Z" fill="#110002"/>
<path d="M23.2813 30.7955C18.3345 30.7955 14.3105 26.9558 14.3105 22.2383C14.3105 19.6991 15.4829 17.3059 17.528 15.6738L18.0359 15.2676L17.7654 15.8443C17.1314 17.1962 17.1547 18.4838 17.8364 19.5707C18.8008 21.1117 21.0294 22.1834 23.6521 22.3667C25.3276 22.4846 26.7044 23.7221 27.0789 25.4487C27.4399 27.1076 26.8427 29.3701 24.0878 30.7465L24.0291 30.7628C23.7574 30.7861 23.5126 30.7955 23.2813 30.7955ZM17.2538 16.3019C15.5698 17.8569 14.6164 19.9887 14.6164 22.2383C14.6164 26.7959 18.5034 30.5048 23.2825 30.5048C23.4967 30.5048 23.7231 30.4955 23.974 30.4768C26.5563 29.1751 27.118 27.0597 26.7803 25.5105C26.4327 23.9123 25.1672 22.7671 23.6289 22.6597C20.9095 22.4694 18.5891 21.344 17.5745 19.7225C16.9393 18.7057 16.8316 17.5335 17.2538 16.3019Z" fill="#231F20"/>
<path d="M32.0996 22.2384C32.0996 17.5932 28.1514 13.8271 23.2817 13.8271C21.129 13.8271 19.1574 14.5637 17.6263 15.786C15.8101 19.6537 19.5001 22.2232 23.6403 22.5127C27.2348 22.7637 28.827 28.2168 24.0173 30.6181C28.5431 30.2621 32.0996 26.6478 32.0996 22.2384Z" fill="white"/>
<path d="M23.2788 30.8235L23.9458 30.4896C26.5514 29.1891 27.118 27.0644 26.7803 25.5094C26.4327 23.9112 25.1672 22.7659 23.6288 22.6585C20.9095 22.4682 18.589 21.3429 17.5745 19.7213C16.8402 18.5492 16.8108 17.167 17.4864 15.7264L17.501 15.696L17.528 15.675C19.1373 14.3897 21.1799 13.6822 23.2813 13.6822C28.2281 13.6822 32.2521 17.5207 32.2521 22.2394C32.2521 26.657 28.6405 30.4009 24.029 30.7651L23.2788 30.8235ZM17.7519 15.8758C17.1327 17.216 17.162 18.4931 17.8364 19.5718C18.8008 21.1128 21.0294 22.1846 23.6521 22.3679C25.3275 22.4858 26.7044 23.7232 27.0789 25.4498C27.4105 26.971 26.9357 28.9988 24.7315 30.3857C28.8327 29.7214 31.9474 26.2694 31.9474 22.2383C31.9474 17.6807 28.0604 13.9717 23.2813 13.9717C21.2644 13.9729 19.3025 14.6488 17.7519 15.8758Z" fill="#231F20"/>
<path d="M23.2911 19.8894C24.184 19.8894 24.9078 19.199 24.9078 18.3473C24.9078 17.4955 24.184 16.8051 23.2911 16.8051C22.3982 16.8051 21.6744 17.4955 21.6744 18.3473C21.6744 19.199 22.3982 19.8894 23.2911 19.8894Z" fill="#231F20"/>
<path d="M23.0083 28.3708C23.9012 28.3708 24.6251 27.6803 24.6251 26.8286C24.6251 25.9769 23.9012 25.2864 23.0083 25.2864C22.1155 25.2864 21.3916 25.9769 21.3916 26.8286C21.3916 27.6803 22.1155 28.3708 23.0083 28.3708Z" fill="white"/>
<path d="M14.9694 42.7897C15.6365 42.7897 16.1774 42.2738 16.1774 41.6374C16.1774 41.0011 15.6365 40.4852 14.9694 40.4852C14.3023 40.4852 13.7615 41.0011 13.7615 41.6374C13.7615 42.2738 14.3023 42.7897 14.9694 42.7897Z" fill="#C52831"/>
<path d="M14.9689 42.9355C14.2187 42.9355 13.608 42.353 13.608 41.6374C13.608 40.9217 14.2187 40.3392 14.9689 40.3392C15.7191 40.3392 16.3286 40.9217 16.3286 41.6374C16.3286 42.353 15.7191 42.9355 14.9689 42.9355ZM14.9689 40.631C14.3864 40.631 13.9127 41.0828 13.9127 41.6374C13.9127 42.1919 14.3864 42.6437 14.9689 42.6437C15.5515 42.6437 16.0239 42.1919 16.0239 41.6374C16.0239 41.0828 15.5503 40.631 14.9689 40.631Z" fill="#231F20"/>
<path d="M31.5586 42.5282C32.2258 42.5282 32.7666 42.0123 32.7666 41.376C32.7666 40.7396 32.2258 40.2237 31.5586 40.2237C30.8915 40.2237 30.3507 40.7396 30.3507 41.376C30.3507 42.0123 30.8915 42.5282 31.5586 42.5282Z" fill="#C52831"/>
<path d="M31.5582 42.674C30.8079 42.674 30.1972 42.0915 30.1972 41.377C30.1972 40.6614 30.8079 40.0788 31.5582 40.0788C32.3084 40.0788 32.9191 40.6614 32.9191 41.377C32.9179 42.0915 32.3072 42.674 31.5582 42.674ZM31.5582 40.3695C30.9756 40.3695 30.502 40.8213 30.502 41.377C30.502 41.9315 30.9756 42.3833 31.5582 42.3833C32.1407 42.3833 32.6143 41.9315 32.6143 41.377C32.6131 40.8213 32.1395 40.3695 31.5582 40.3695Z" fill="#231F20"/>
<path d="M43.3798 31.4961C44.0469 31.4961 44.5877 30.9802 44.5877 30.3438C44.5877 29.7075 44.0469 29.1916 43.3798 29.1916C42.7127 29.1916 42.1719 29.7075 42.1719 30.3438C42.1719 30.9802 42.7127 31.4961 43.3798 31.4961Z" fill="#C52831"/>
<path d="M43.3805 31.6419C42.6303 31.6419 42.0196 31.0593 42.0196 30.3437C42.0196 29.6281 42.6303 29.0455 43.3805 29.0455C44.1308 29.0455 44.7415 29.6281 44.7415 30.3437C44.7415 31.0593 44.1295 31.6419 43.3805 31.6419ZM43.3805 29.3374C42.798 29.3374 42.3256 29.7892 42.3256 30.3437C42.3256 30.8982 42.7992 31.35 43.3805 31.35C43.9619 31.35 44.4355 30.8982 44.4355 30.3437C44.4355 29.7892 43.9619 29.3374 43.3805 29.3374Z" fill="#231F20"/>
<path d="M43.3798 15.3774C44.0469 15.3774 44.5877 14.8615 44.5877 14.2252C44.5877 13.5888 44.0469 13.0729 43.3798 13.0729C42.7127 13.0729 42.1719 13.5888 42.1719 14.2252C42.1719 14.8615 42.7127 15.3774 43.3798 15.3774Z" fill="#C52831"/>
<path d="M43.3805 15.5232C42.6303 15.5232 42.0196 14.9407 42.0196 14.2251C42.0196 13.5094 42.6303 12.9281 43.3805 12.9281C44.1308 12.9281 44.7415 13.5106 44.7415 14.2251C44.7415 14.9407 44.1295 15.5232 43.3805 15.5232ZM43.3805 13.2176C42.798 13.2176 42.3256 13.6694 42.3256 14.2239C42.3256 14.7796 42.7992 15.2314 43.3805 15.2314C43.9619 15.2314 44.4355 14.7796 44.4355 14.2239C44.4355 13.6694 43.9619 13.2176 43.3805 13.2176Z" fill="#231F20"/>
<path d="M31.5586 4.34529C32.2258 4.34529 32.7666 3.82941 32.7666 3.19304C32.7666 2.55667 32.2258 2.0408 31.5586 2.0408C30.8915 2.0408 30.3507 2.55667 30.3507 3.19304C30.3507 3.82941 30.8915 4.34529 31.5586 4.34529Z" fill="#C52831"/>
<path d="M31.5582 4.49109C30.8079 4.49109 30.1972 3.90855 30.1972 3.19291C30.1972 2.47728 30.8079 1.89474 31.5582 1.89474C32.3084 1.89474 32.9191 2.47728 32.9191 3.19291C32.9179 3.90855 32.3072 4.49109 31.5582 4.49109ZM31.5582 2.1866C30.9756 2.1866 30.502 2.63838 30.502 3.19407C30.502 3.7486 30.9756 4.20039 31.5582 4.20039C32.1407 4.20039 32.6143 3.7486 32.6143 3.19407C32.6131 2.63838 32.1395 2.1866 31.5582 2.1866Z" fill="#231F20"/>
<path d="M14.9816 4.34529C15.6487 4.34529 16.1895 3.82941 16.1895 3.19304C16.1895 2.55667 15.6487 2.0408 14.9816 2.0408C14.3145 2.0408 13.7737 2.55667 13.7737 3.19304C13.7737 3.82941 14.3145 4.34529 14.9816 4.34529Z" fill="#C52831"/>
<path d="M14.9811 4.49109C14.2309 4.49109 13.6214 3.90855 13.6214 3.19291C13.6214 2.47728 14.2321 1.89474 14.9811 1.89474C15.7313 1.89474 16.342 2.47728 16.342 3.19291C16.3408 3.90855 15.7313 4.49109 14.9811 4.49109ZM14.9811 2.1866C14.3998 2.1866 13.9262 2.63838 13.9262 3.19407C13.9262 3.7486 14.3998 4.20039 14.9811 4.20039C15.5637 4.20039 16.0373 3.7486 16.0373 3.19407C16.0361 2.63838 15.5637 2.1866 14.9811 2.1866Z" fill="#231F20"/>
<path d="M3.35134 15.3774C4.01846 15.3774 4.55928 14.8615 4.55928 14.2252C4.55928 13.5888 4.01846 13.0729 3.35134 13.0729C2.68421 13.0729 2.1434 13.5888 2.1434 14.2252C2.1434 14.8615 2.68421 15.3774 3.35134 15.3774Z" fill="#C52831"/>
<path d="M3.35212 15.5232C2.6019 15.5232 1.9912 14.9407 1.9912 14.2251C1.9912 13.5094 2.60313 12.9281 3.35212 12.9281C4.10112 12.9281 4.71182 13.5106 4.71182 14.2251C4.71182 14.9407 4.10112 15.5232 3.35212 15.5232ZM3.35212 13.2176C2.76957 13.2176 2.29594 13.6694 2.29594 14.2239C2.29594 14.7796 2.76957 15.2314 3.35212 15.2314C3.93467 15.2314 4.40708 14.7796 4.40708 14.2239C4.40708 13.6694 3.93345 13.2176 3.35212 13.2176Z" fill="#231F20"/>
<path d="M3.35134 31.4961C4.01846 31.4961 4.55928 30.9802 4.55928 30.3438C4.55928 29.7075 4.01846 29.1916 3.35134 29.1916C2.68421 29.1916 2.1434 29.7075 2.1434 30.3438C2.1434 30.9802 2.68421 31.4961 3.35134 31.4961Z" fill="#C52831"/>
<path d="M3.35212 31.6419C2.6019 31.6419 1.9912 31.0593 1.9912 30.3437C1.9912 29.6281 2.60313 29.0455 3.35212 29.0455C4.10112 29.0455 4.71182 29.6281 4.71182 30.3437C4.71182 31.0593 4.10112 31.6419 3.35212 31.6419ZM3.35212 29.3374C2.76957 29.3374 2.29594 29.7892 2.29594 30.3437C2.29594 30.8982 2.76957 31.35 3.35212 31.35C3.93467 31.35 4.40708 30.8982 4.40708 30.3437C4.40708 29.7892 3.93345 29.3374 3.35212 29.3374Z" fill="#231F20"/>
</svg>
