<svg width="95" height="50" viewBox="0 0 95 50" fill="none" xmlns="http://www.w3.org/2000/svg">
<path d="M91.5054 3.4544C91.1505 2.82353 90.5788 2.35689 89.8549 2.10854C89.622 2.02743 89.4093 1.96935 89.1986 1.92729C88.9939 1.88824 88.7913 1.8632 88.5917 1.85319C88.267 1.83816 87.9403 1.87422 87.6187 1.96134L87.2567 2.06047C86.6115 2.23672 86.0893 2.69436 85.8271 3.29619C85.5952 3.19104 85.3935 3.11193 85.207 3.05385C84.5376 2.84757 83.8328 2.89964 83.2218 3.20106C83.1866 3.21908 83.1513 3.2371 83.117 3.25613C82.746 3.46441 82.4364 3.72177 82.2005 4.02018C82.0311 4.23448 81.8961 4.4658 81.7983 4.71114C81.1832 4.56794 80.665 4.65807 80.299 4.78325C80.0036 4.88238 79.7556 5.00855 79.5469 5.14975C79.3271 4.96449 79.1003 4.80326 78.8633 4.66907C78.0638 4.21445 77.1544 4.1053 76.2954 4.36366C75.7691 4.51287 75.2862 4.78824 74.8607 5.18078C74.5411 5.47519 74.2568 5.82268 74.0158 6.21422C73.9322 6.34941 73.8555 6.4886 73.7829 6.63179C73.3282 6.28632 72.7788 6.04799 72.1376 5.92482C71.4449 5.79264 70.7623 5.81566 70.106 5.99491C69.6805 6.11007 69.3024 6.28331 68.9738 6.51463C67.8042 7.33576 67.3102 8.55845 66.3988 9.61591C66.2596 9.77614 66.0973 9.94336 65.8856 9.9674C65.6809 9.99043 65.4893 9.87227 65.3179 9.75912C64.0869 8.94599 62.5797 7.90957 61.0552 8.62055C60.663 8.8048 60.3122 9.07016 60.0097 9.41063C59.7778 9.67299 59.5772 9.97041 59.4169 10.2949C59.3997 10.3279 59.3846 10.3609 59.3695 10.395C58.9975 10.1687 58.6073 10.0285 58.204 9.97641C57.2795 9.85825 56.3892 10.2137 55.8236 10.9277C55.6895 11.096 55.5816 11.2772 55.4949 11.4675C55.2802 11.4114 55.0603 11.3653 54.8315 11.3363C54.7115 11.3213 54.5916 11.3153 54.4706 11.3193C54.401 11.3223 54.3365 11.3253 54.277 11.3283C53.6126 11.0639 52.8897 11.0259 52.1779 11.2201C51.2433 11.4745 50.4821 11.9501 49.9145 12.6351C49.8832 12.6731 49.8529 12.7132 49.8227 12.7513C49.2914 12.552 48.7197 12.5209 48.1612 12.6721C47.2437 12.9225 46.5541 13.5864 46.2203 14.5227C45.6436 14.2653 45.0004 14.2133 44.3965 14.3775C44.2261 14.4236 44.0618 14.4876 43.9045 14.5668C43.7099 14.2563 43.5113 13.9639 43.3278 13.6936L43.2693 13.6094C42.9003 13.0687 42.3145 12.7042 41.6572 12.6081C41.0079 12.5159 40.3435 12.6992 39.8323 13.1128C39.4713 13.4062 39.1053 13.6966 38.7393 13.989C37.7352 14.7881 36.6967 15.6142 35.7197 16.5195C35.6391 16.5946 35.5474 16.6797 35.4476 16.7738C35.2368 16.3022 35.0281 15.8575 34.8244 15.448C33.7335 13.2539 32.3755 10.9387 30.0667 11.2462C29.859 11.2742 29.6503 11.3163 29.4456 11.3713C28.2378 11.7008 27.3627 12.4178 26.5682 13.1258L26.4422 13.2379C26.3181 13.3491 26.1941 13.4592 26.06 13.5774C25.5519 14.031 25.0437 14.4806 24.5376 14.9293L24.1676 15.2567C23.9266 15.47 23.6847 15.6833 23.4488 15.8936C23.1725 16.1389 22.8942 16.3843 22.6189 16.6286C18.8674 19.9562 15.1955 23.2468 11.5478 26.8708C10.5678 27.1962 9.46981 27.5187 8.39506 27.8341C7.18318 28.1896 5.92994 28.5581 4.78864 28.9456C3.91351 29.2441 3.26221 29.8499 2.95571 30.656C2.66131 31.4261 2.80349 32.097 2.84986 32.3173C3.44673 35.1462 4.28053 37.5906 5.16272 40.1771L5.44905 41.0193C5.87552 42.2781 7.09344 43.0872 8.38496 43.0601C9.10181 44.7425 10.2331 46.586 12.0095 47.994C13.5692 49.2297 15.4334 49.9417 17.2573 49.9977C17.6454 50.0107 18.0235 49.9677 18.3794 49.8706C19.06 49.6843 19.6639 49.3018 20.1257 48.762C21.4797 47.1798 21.147 44.8326 21.0129 44.1517C20.6943 42.5314 19.8847 41.8374 18.7676 41.2957C18.5549 41.1916 18.3633 41.0934 18.1879 40.9983C19.2203 41.0564 20.4462 41.1205 21.7287 41.1886L21.761 41.1906C24.213 41.3217 26.7486 41.4569 28.4757 41.5631C28.9042 41.5891 29.3337 41.6152 29.7642 41.6382C30.1282 41.6582 30.4921 41.6772 30.849 41.6933C31.3189 41.7153 31.8109 41.7343 32.313 41.7483C33.0218 41.7683 33.7164 41.7734 34.3718 41.7684C34.6087 41.7664 34.8688 41.7623 35.1693 41.7553C35.3175 41.7513 35.4788 41.7523 35.6542 41.7533C36.37 41.7573 37.2613 41.7623 38.1415 41.522C40.0712 40.9973 41.1913 39.4972 41.1369 37.5005C41.1288 37.2581 41.1067 37.0268 41.0694 36.7945C40.9706 36.1586 40.8747 35.5367 40.7739 34.9179C42.2651 35.5227 44.225 36.1406 45.4218 35.8151C45.5035 35.7931 45.5861 35.7661 45.6738 35.733C46.7244 35.3305 47.2759 34.4022 47.4594 33.3397C47.6187 32.4204 47.2951 31.2478 48.2872 30.7071C48.9768 30.3306 49.3135 30.663 49.8801 30.9304C50.4961 31.2198 51.0023 31.3249 51.707 31.1327C52.7828 30.8392 53.5309 29.971 53.668 28.8835C53.7164 28.9146 53.7618 28.9496 53.8102 28.9797C54.4262 29.3542 55.0926 29.6005 55.7923 29.7107C56.4688 29.8178 57.1423 29.7828 57.7987 29.6045C57.8823 29.5825 57.966 29.5565 58.0507 29.5294C58.949 29.236 59.675 28.7293 60.2094 28.0224C60.3918 27.782 60.5511 27.5247 60.6903 27.2543C60.8687 27.4235 61.0502 27.5808 61.2357 27.7199C61.8446 28.1716 62.5212 28.4369 63.2451 28.506C65.1869 28.6953 67.3142 27.8061 68.2579 26.1608C68.7993 25.2155 68.9092 24.123 69.0282 22.9784C70.237 23.9597 71.7252 24.4414 73.2808 24.4354C74.7236 24.4304 76.621 24.1921 77.7321 23.2047C78.3269 23.2247 78.9319 23.0305 79.4612 22.6299C79.5721 22.5488 79.677 22.4597 79.7738 22.3635C80.1518 22.8252 80.6076 23.1306 81.1359 23.2728C81.5966 23.397 82.0957 23.432 82.622 23.3769C82.7873 23.3589 82.9476 23.3299 83.1019 23.2868C83.8853 23.0735 84.5174 22.5558 84.8824 21.8138C84.9963 21.5905 85.1183 21.3151 85.1839 20.9946C85.6527 20.9246 86.0862 20.7453 86.4542 20.4629C86.4804 20.4889 86.5097 20.514 86.5369 20.539C87.0138 20.9536 87.8606 21.4192 89.1925 21.275C89.2016 21.274 89.2117 21.273 89.2198 21.272C89.4022 21.25 89.5696 21.216 89.7249 21.1739C90.3923 20.9916 90.8238 20.6482 91.084 20.3598C91.3431 20.3798 91.6042 20.3708 91.8623 20.3297C91.9661 20.3137 92.0669 20.2917 92.1667 20.2646C92.9017 20.0644 93.5268 19.5747 93.913 18.8857C94.0168 18.7085 94.0925 18.5503 94.1509 18.385C94.2679 18.0626 94.2981 17.7552 94.3082 17.3947C94.3082 17.3536 94.3082 17.3126 94.3072 17.2715C94.283 16.4694 93.9775 15.7584 93.4462 15.2287C93.5641 14.8552 93.6055 14.4506 93.5672 14.015C93.543 13.7416 93.4946 13.4312 93.42 13.0667C93.416 13.0507 93.4129 13.0356 93.4089 13.0196C93.2798 12.4508 93.1629 11.826 93.059 11.1621C92.9491 10.4491 92.8383 9.72606 92.7274 8.99405C92.6154 8.25103 92.4985 7.51702 92.3815 6.81405C92.2595 6.08204 92.1234 5.3981 91.9762 4.78325C91.8522 4.22948 91.703 3.80789 91.5054 3.4544Z" fill="#CADBE3"/>
<path d="M88.7317 1.60485C88.3768 0.973978 87.8062 0.507339 87.0813 0.258996C86.8484 0.177884 86.6357 0.119804 86.4239 0.0777455C86.2203 0.0376901 86.0186 0.0136518 85.817 0.00363795C85.4944 -0.0123842 85.1667 0.0246687 84.8461 0.111789L84.4831 0.210925C83.8379 0.386167 83.3166 0.844803 83.0545 1.44563C82.8216 1.34049 82.6199 1.26138 82.4334 1.2043C81.7639 0.998017 81.0582 1.05009 80.4472 1.35151C80.412 1.36953 80.3777 1.38755 80.3424 1.40658C79.9714 1.61487 79.6629 1.87323 79.4259 2.17164C79.2555 2.38594 79.1214 2.61625 79.0236 2.86159C78.4096 2.71739 77.8894 2.80752 77.5254 2.9337C77.23 3.03283 76.982 3.16001 76.7713 3.3002C76.5525 3.11495 76.3246 2.95371 76.0877 2.81953C75.2902 2.3649 74.3788 2.25575 73.5208 2.51411C72.9945 2.66432 72.5115 2.93869 72.0861 3.33124C71.7675 3.62564 71.4821 3.97414 71.2412 4.36468C71.1585 4.49886 71.0819 4.64005 71.0083 4.78225C70.5536 4.43677 70.0031 4.19845 69.3629 4.07528C68.6713 3.94309 67.9877 3.96612 67.3303 4.14536C66.9059 4.26052 66.5288 4.43376 66.1991 4.66508C65.0286 5.48621 64.5345 6.70991 63.6241 7.76537C63.486 7.9266 63.3227 8.09282 63.1119 8.11686C62.9063 8.13989 62.7147 8.02172 62.5433 7.90856C61.3123 7.09544 59.806 6.05801 58.2806 6.76999C57.8884 6.95425 57.5375 7.21962 57.236 7.56009C57.0031 7.82245 56.8025 8.11986 56.6422 8.4443C56.6251 8.47735 56.61 8.51039 56.5938 8.54344C56.2228 8.31713 55.8326 8.17694 55.4293 8.12486C54.5048 8.0067 53.6145 8.36219 53.0489 9.07617C52.9158 9.24441 52.808 9.42566 52.7213 9.61592C52.5065 9.56085 52.2857 9.51378 52.0569 9.48474C51.9379 9.46872 51.8169 9.46372 51.6959 9.46772C51.6273 9.46973 51.5618 9.47273 51.5013 9.47674C50.8379 9.21237 50.115 9.17432 49.4042 9.36859C48.4686 9.62294 47.7074 10.0986 47.1398 10.7835C47.1085 10.8216 47.0783 10.8616 47.048 10.9007C46.5167 10.7014 45.945 10.6694 45.3875 10.8216C44.469 11.0719 43.7794 11.7359 43.4457 12.6721C42.869 12.4148 42.2258 12.3627 41.6228 12.5269C41.4514 12.573 41.2871 12.6371 41.1298 12.7162C40.9352 12.4058 40.7366 12.1134 40.5531 11.843L40.4946 11.7589C40.1256 11.2181 39.5398 10.8536 38.8825 10.7575C38.2332 10.6644 37.5688 10.8476 37.0576 11.2622C36.6967 11.5556 36.3307 11.846 35.9647 12.1384C34.9605 12.9375 33.922 13.7637 32.9451 14.6699C32.8644 14.744 32.7727 14.8301 32.6729 14.9243C32.4622 14.4526 32.2534 14.008 32.0498 13.5994C30.9589 11.4054 29.6008 9.09019 27.292 9.39762C27.0843 9.42566 26.8756 9.46772 26.671 9.5238C25.4631 9.85225 24.588 10.5703 23.7935 11.2772L23.6675 11.3904C23.5435 11.5005 23.4194 11.6117 23.2853 11.7288C22.7772 12.1825 22.2691 12.6321 21.7629 13.0807L21.393 13.4082C21.152 13.6215 20.91 13.8348 20.6741 14.0461C20.3968 14.2904 20.1196 14.5357 19.8443 14.7801C16.0928 18.1077 12.4208 21.3982 8.77309 25.0232C7.79411 25.3477 6.69413 25.6701 5.62038 25.9866C4.40851 26.342 3.15533 26.7106 2.01403 27.0981C1.13889 27.3955 0.487593 28.0023 0.181095 28.8075C-0.113304 29.5785 0.0288125 30.2484 0.0751905 30.4697C0.672055 33.2987 1.50586 35.743 2.38805 38.3296L2.67438 39.1718C3.10085 40.4295 4.31877 41.2396 5.61029 41.2126C6.32713 42.8949 7.45838 44.7385 9.23486 46.1464C10.7946 47.3821 12.6588 48.0941 14.4826 48.1502C14.8708 48.1632 15.2489 48.1192 15.6048 48.022C16.2853 47.8358 16.8892 47.4532 17.351 46.9135C18.705 45.3323 18.3723 42.984 18.2382 42.3031C17.9196 40.6819 17.11 39.9889 15.9929 39.4472C15.7802 39.343 15.5886 39.2449 15.4132 39.1498C16.4456 39.2068 17.6716 39.2719 18.9541 39.339L18.9863 39.341C21.4383 39.4722 23.974 39.6074 25.7021 39.7145C26.1296 39.7406 26.559 39.7656 26.9895 39.7896C27.3535 39.8097 27.7175 39.8277 28.0744 39.8437C28.5442 39.8667 29.0362 39.8848 29.5383 39.8988C30.2471 39.9188 30.9418 39.9248 31.5971 39.9188C31.834 39.9178 32.0942 39.9128 32.3946 39.9058C32.5428 39.9028 32.7041 39.9028 32.8795 39.9048C33.5954 39.9078 34.4867 39.9128 35.3668 39.6735C37.2966 39.1487 38.4167 37.6487 38.3623 35.6509C38.3542 35.4096 38.332 35.1783 38.2947 34.9449C38.1959 34.3101 38.1001 33.6882 37.9993 33.0693C39.4904 33.6742 41.4504 34.292 42.6472 33.9656C42.7288 33.9446 42.8105 33.9165 42.8992 33.8835C43.9488 33.4809 44.5003 32.5536 44.6848 31.4912C44.8441 30.5719 44.5194 29.3983 45.5115 28.8575C46.2011 28.482 46.5389 28.8135 47.1065 29.0818C47.7215 29.3712 48.2267 29.4764 48.9324 29.2831C50.0082 28.9907 50.7562 28.1225 50.8933 27.035C50.9407 27.066 50.9872 27.1001 51.0355 27.1301C51.6516 27.5057 52.318 27.752 53.0167 27.8621C53.6942 27.9693 54.3677 27.9332 55.023 27.756C55.1077 27.733 55.1924 27.7069 55.2751 27.6799C56.1754 27.3875 56.9003 26.8798 57.4347 26.1738C57.6172 25.9335 57.7765 25.6751 57.9156 25.4047C58.094 25.575 58.2745 25.7312 58.462 25.8704C59.069 26.323 59.7465 26.5884 60.4704 26.6565C62.4122 26.8467 64.5396 25.9575 65.4833 24.3112C66.0247 23.3669 66.1346 22.2734 66.2536 21.1298C67.4634 22.1102 68.9505 22.5929 70.5062 22.5869C71.9499 22.5818 73.8464 22.3435 74.9575 21.3561C75.5534 21.3762 76.1573 21.1819 76.6856 20.7814C76.7975 20.6993 76.9023 20.6101 76.9991 20.515C77.3772 20.9766 77.8339 21.2821 78.3612 21.4243C78.822 21.5494 79.321 21.5845 79.8473 21.5284C80.0127 21.5104 80.172 21.4803 80.3272 21.4383C81.1096 21.225 81.7428 20.7063 82.1078 19.9642C82.2227 19.7419 82.3427 19.4665 82.4092 19.1451C82.879 19.075 83.3115 18.8957 83.6785 18.6134C83.7058 18.6394 83.734 18.6644 83.7633 18.6895C84.2402 19.105 85.0871 19.5687 86.4179 19.4255C86.427 19.4245 86.437 19.4235 86.4451 19.4225C86.6276 19.4014 86.796 19.3674 86.9512 19.3253C87.6187 19.1431 88.0482 18.7996 88.3093 18.5112C88.5684 18.5313 88.8305 18.5222 89.0876 18.4812C89.1915 18.4652 89.2923 18.4431 89.3921 18.4161C90.1271 18.2158 90.7522 17.7261 91.1394 17.0372C91.2422 16.8599 91.3168 16.7017 91.3773 16.5365C91.4933 16.2141 91.5245 15.9076 91.5326 15.5461C91.5346 15.5051 91.5346 15.464 91.5326 15.423C91.5094 14.6209 91.2019 13.9099 90.6716 13.3801C90.7885 13.0076 90.8308 12.602 90.7915 12.1664C90.7673 11.8931 90.7189 11.5826 90.6443 11.2181C90.6413 11.2021 90.6383 11.1871 90.6343 11.1721C90.5052 10.6033 90.3883 9.97843 90.2854 9.31451C90.1745 8.60052 90.0626 7.87752 89.9527 7.14551C89.8408 6.40249 89.7238 5.66947 89.6069 4.9655C89.4849 4.23349 89.3487 3.54954 89.2026 2.93469C89.0785 2.37992 88.9304 1.95834 88.7317 1.60485Z" fill="white"/>
<path d="M45.3159 19.0279C45.3099 18.6714 45.3028 18.2549 45.2948 17.7782C45.2867 17.3015 45.2887 16.8179 45.3028 16.3242C45.3149 15.8305 45.3311 15.3418 45.3522 14.8582C45.3724 14.3745 45.4077 13.9469 45.4571 13.5744C45.5388 13.2049 45.7081 12.9866 45.9642 12.9165C46.1628 12.8624 46.3655 12.9325 46.5732 13.1278C46.673 13.2319 46.7627 13.3381 46.8454 13.4482C46.9261 13.5574 46.9886 13.6905 47.0319 13.8458C47.0511 13.9118 47.0602 13.9779 47.0632 14.043C47.0662 14.1081 47.0682 14.1822 47.0713 14.2653C47.0672 14.768 47.0501 15.3198 47.0228 15.9186C46.9946 16.5185 46.9745 17.1123 46.9634 17.7001C46.9573 18.0486 46.9563 18.347 46.9593 18.5973C46.9613 18.8477 46.9472 19.1201 46.917 19.4155C46.8867 19.6748 46.9039 19.9873 46.9694 20.3518C47.035 20.7163 47.1247 21.1098 47.2426 21.5324C47.3445 21.8999 47.4584 22.2774 47.5864 22.667C47.7145 23.0575 47.8415 23.435 47.9685 23.8015C48.0946 24.167 48.2136 24.5175 48.3265 24.851C48.4384 25.1844 48.5281 25.4738 48.5967 25.7182L48.6239 25.8183C48.7025 26.1438 48.7378 26.4362 48.7287 26.6955C48.7187 26.9559 48.5936 27.1181 48.3547 27.1832C48.3073 27.1962 48.2327 27.2042 48.1299 27.2072C47.8758 27.2172 47.6631 27.1732 47.4927 27.076C47.3213 26.9789 47.1771 26.8467 47.0571 26.6745C47.0228 26.6244 46.9603 26.4652 46.8706 26.1968C46.7809 25.9275 46.677 25.604 46.556 25.2245C46.436 24.844 46.312 24.4324 46.185 23.9898C46.057 23.5472 45.934 23.1196 45.816 22.71C45.6981 22.3004 45.5912 21.935 45.4984 21.6125C45.4037 21.2921 45.3391 21.0647 45.3028 20.9306C45.205 20.8374 45.1062 20.7423 45.0024 20.6452C44.8986 20.548 44.8017 20.4279 44.712 20.2857C44.6344 20.1515 44.5295 19.9672 44.3985 19.7339C44.2674 19.5006 44.1232 19.2442 43.9639 18.9638C43.8056 18.6845 43.6413 18.395 43.4719 18.0936C43.3025 17.7932 43.1382 17.5038 42.9799 17.2234C42.8216 16.944 42.6764 16.6877 42.5454 16.4544C42.4143 16.2211 42.3094 16.0318 42.2288 15.8866C42.1451 15.7304 42.0675 15.6052 41.9959 15.5111C41.9243 15.4169 41.8759 15.3258 41.8507 15.2367C41.8174 15.1145 41.8386 14.9703 41.9152 14.8061C42.011 14.7079 42.1048 14.6469 42.1995 14.6208C42.3225 14.5868 42.4465 14.6008 42.5705 14.6629C42.6945 14.725 42.8105 14.8121 42.9194 14.9273C43.0263 15.0414 43.1281 15.1686 43.2239 15.3108C43.3186 15.452 43.4043 15.5842 43.4789 15.7073C43.5908 15.8916 43.7058 16.0849 43.8218 16.2861C43.9387 16.4874 44.0456 16.6797 44.1414 16.8629C44.2372 17.0462 44.3248 17.2104 44.4004 17.3566C44.4771 17.5028 44.5346 17.607 44.5719 17.6691C44.6536 17.8153 44.7332 17.9655 44.8128 18.1237C44.8914 18.2809 44.9661 18.4291 45.0356 18.5653C45.1032 18.7015 45.1617 18.8116 45.2111 18.8937C45.2585 18.9779 45.2948 19.0219 45.3159 19.0279Z" fill="#243645"/>
<path d="M50.4225 23.1416C50.1997 22.5568 49.9709 21.955 49.7339 21.3391C49.497 20.7223 49.2752 20.0954 49.0695 19.4575C48.9364 19.052 48.7983 18.5903 48.6572 18.0726C48.513 17.5559 48.391 17.0222 48.2911 16.4694C48.1893 15.9176 48.1278 15.3729 48.1067 14.8341C48.0855 14.2954 48.1309 13.7987 48.2458 13.3441C48.3607 12.8895 48.5553 12.4949 48.8295 12.1634C49.1048 11.831 49.4889 11.5987 49.983 11.4645C50.2481 11.3924 50.4971 11.4084 50.729 11.5125C50.8682 11.5706 50.971 11.6117 51.0386 11.6347C51.1061 11.6588 51.1686 11.6718 51.2261 11.6738C51.2825 11.6758 51.3501 11.6728 51.4287 11.6628C51.5074 11.6537 51.6223 11.6457 51.7745 11.6407C52.1022 11.6828 52.3916 11.7659 52.6457 11.8871C52.8977 12.0102 53.1447 12.1755 53.3857 12.3847C53.5984 12.566 53.8092 12.8284 54.0158 13.1728C54.2225 13.5173 54.4181 13.9119 54.6026 14.3575C54.7881 14.8031 54.9605 15.2878 55.1269 15.8105C55.2912 16.3332 55.4434 16.8689 55.5846 17.4157C55.6975 17.8633 55.8185 18.356 55.9465 18.8948C56.0756 19.4335 56.1795 19.9793 56.2611 20.531C56.3418 21.0828 56.3882 21.6295 56.4003 22.1693C56.4124 22.71 56.3609 23.2077 56.247 23.6633C56.134 24.119 55.9455 24.5195 55.6844 24.865C55.4223 25.2115 55.0583 25.4608 54.5905 25.611C54.1903 25.7442 53.7799 25.7773 53.3645 25.7122C52.9491 25.6461 52.5539 25.4999 52.1809 25.2726C51.8068 25.0453 51.4681 24.7498 51.1626 24.3843C50.8571 24.0178 50.6101 23.6043 50.4225 23.1416ZM50.6645 12.4979C50.4054 12.4849 50.2088 12.557 50.0737 12.7122C49.9386 12.8684 49.8509 13.0867 49.8105 13.3661C49.7712 13.6455 49.7672 13.9669 49.8005 14.3274C49.8337 14.6889 49.8922 15.0645 49.9739 15.454C50.0565 15.8445 50.1483 16.2311 50.2491 16.6166C50.3499 17.0011 50.4518 17.3526 50.5556 17.6711C50.6595 17.9895 50.7492 18.2639 50.8289 18.4932C50.9075 18.7225 50.9558 18.8707 50.975 18.9378C51.0052 19.049 51.0759 19.2723 51.1827 19.6067C51.2896 19.9422 51.4216 20.3247 51.5759 20.7543C51.7302 21.1849 51.9076 21.6325 52.1073 22.0982C52.3069 22.5638 52.5126 22.9774 52.7243 23.3379C52.936 23.6974 53.1538 23.9798 53.3766 24.1811C53.6014 24.3833 53.8162 24.4334 54.0219 24.3283C54.2648 24.2141 54.4483 23.9968 54.5683 23.6784C54.6883 23.3589 54.7619 22.9864 54.7871 22.5608C54.8123 22.1352 54.8012 21.6786 54.7538 21.1899C54.7044 20.7012 54.6439 20.2306 54.5703 19.778C54.4957 19.3264 54.4171 18.9088 54.3314 18.5252C54.2457 18.1427 54.1791 17.8433 54.1307 17.63C54.0138 17.1714 53.8878 16.7217 53.7507 16.2811C53.6136 15.8405 53.4764 15.432 53.3363 15.0574C53.1972 14.6829 53.057 14.3455 52.9118 14.044C52.7666 13.7426 52.6346 13.5013 52.5126 13.319C52.4218 13.1758 52.3401 13.1118 52.2686 13.1258C52.196 13.1398 52.0831 13.1318 51.9318 13.1007C51.7413 12.9976 51.5618 12.9025 51.3955 12.8163C51.2543 12.7472 51.1132 12.6782 50.971 12.6091C50.8299 12.543 50.727 12.5049 50.6645 12.4979Z" fill="#243645"/>
<path d="M54.6974 10.8807C54.655 10.6894 54.6782 10.5362 54.7689 10.422C54.8597 10.3079 54.9878 10.2618 55.1511 10.2818C55.3144 10.3029 55.4989 10.406 55.7026 10.5893C55.9052 10.7735 56.0988 11.0679 56.2813 11.4715C56.5575 12.0663 56.8288 12.7863 57.0929 13.6355C57.3581 14.4837 57.6182 15.3568 57.8763 16.2541C58.0064 16.7207 58.1495 17.2375 58.3119 17.8032C58.4742 18.369 58.6496 18.9428 58.8402 19.5236C59.0307 20.1054 59.2424 20.6692 59.4753 21.215C59.7072 21.7617 59.9673 22.2404 60.2536 22.6529C60.3444 22.7961 60.4362 22.9153 60.5279 23.0084C60.6197 23.1026 60.7124 23.1606 60.8051 23.1847C60.8979 23.2057 60.9847 23.1887 61.0653 23.1306C61.146 23.0725 61.2205 22.9634 61.2881 22.8011C61.3365 22.681 61.3607 22.5128 61.3627 22.2965C61.3647 22.0812 61.3516 21.8338 61.3254 21.5534C61.27 21.0557 61.1742 20.4869 61.0391 19.8481C60.903 19.2102 60.7608 18.5883 60.6086 17.9845C60.4574 17.3797 60.3152 16.8299 60.1831 16.3342C60.0511 15.8385 59.9603 15.483 59.9119 15.2697C59.7647 14.7 59.6175 14.1402 59.4703 13.5884C59.3231 13.0367 59.1859 12.5219 59.0589 12.0423C58.9319 11.5626 58.8159 11.132 58.7091 10.7485C58.6032 10.365 58.5186 10.0565 58.453 9.8232C58.4792 9.69703 58.5296 9.55784 58.6053 9.40563C58.6809 9.25342 58.7706 9.11824 58.8765 9.00007C58.9813 8.88191 59.0952 8.79478 59.2162 8.7377C59.3382 8.68062 59.4592 8.68363 59.5772 8.74672C59.7072 8.8078 59.8413 8.99106 59.9825 9.29948C60.1236 9.60891 60.2628 9.97642 60.4019 10.405C60.5491 10.8306 60.6912 11.2882 60.8274 11.7779C60.9614 12.2676 61.0855 12.7362 61.1994 13.1829C61.3113 13.6305 61.4101 14.031 61.4928 14.3845C61.5754 14.738 61.638 14.9933 61.6803 15.1496C61.8094 15.6883 61.9364 16.2241 62.0634 16.7568C62.1905 17.2905 62.3023 17.8273 62.4012 18.368C62.5 18.9098 62.5806 19.4515 62.6442 19.9963C62.7077 20.541 62.74 21.0888 62.7379 21.6385C62.7349 22.0341 62.7067 22.4096 62.6512 22.7651C62.5968 23.1196 62.4939 23.432 62.3437 23.7004C62.1935 23.9688 61.9838 24.178 61.7146 24.3283C61.4454 24.4795 61.1016 24.5345 60.6822 24.4935C60.3586 24.4624 60.054 24.3423 59.7727 24.132C59.4914 23.9217 59.2162 23.6503 58.9521 23.3159C58.6053 22.8732 58.2897 22.3485 58.0064 21.7457C57.7231 21.1409 57.4679 20.532 57.2421 19.9182C57.0163 19.3053 56.8207 18.7245 56.6544 18.1778C56.489 17.632 56.3579 17.1854 56.2621 16.8419C56.0938 16.2661 55.9274 15.6813 55.7631 15.0865C55.5987 14.4927 55.4485 13.9289 55.3134 13.3982C55.1763 12.8674 55.0533 12.3838 54.9434 11.9481C54.8335 11.5125 54.7508 11.152 54.6974 10.8807Z" fill="#243645"/>
<path d="M73.921 18.7165C73.9563 18.9218 73.9341 19.107 73.8525 19.2733C73.7708 19.4395 73.6619 19.5857 73.5238 19.7129C73.3847 19.8401 73.2284 19.9452 73.0519 20.0293C72.8765 20.1124 72.7121 20.1755 72.5619 20.2166C72.4389 20.2506 72.3512 20.2676 72.3008 20.2696C71.5557 20.3768 70.8832 20.2466 70.2823 19.8781C69.6804 19.5096 69.1471 19.0069 68.6803 18.369C68.2135 17.7311 67.8102 17.0071 67.4694 16.198C67.1287 15.3889 66.8514 14.5948 66.6367 13.8167C66.4471 13.1278 66.3029 12.4969 66.2062 11.9261C66.1255 11.4104 66.07 10.8877 66.0408 10.3579C66.0116 9.82821 66.0327 9.32051 66.1023 8.83484C66.1729 8.34917 66.317 7.90055 66.5338 7.48898C66.7526 7.07741 67.0652 6.72593 67.4745 6.43553C67.5854 6.35742 67.7316 6.29333 67.911 6.24526C68.2437 6.15514 68.5895 6.14412 68.9495 6.21322C69.3104 6.28231 69.5877 6.41049 69.7813 6.59674C69.9345 6.74595 70.0283 6.88214 70.0616 7.0043C70.1049 7.16052 70.0505 7.25867 69.8992 7.29973C69.8226 7.32076 69.7268 7.32275 69.6099 7.30672C69.6008 7.30873 69.5927 7.30874 69.5867 7.30373C69.5806 7.29972 69.5725 7.29872 69.5635 7.30173C69.4374 7.28871 69.2883 7.27869 69.1128 7.27268C68.9374 7.26667 68.7741 7.2837 68.6228 7.32476C68.518 7.3538 68.4373 7.39284 68.3809 7.44492C68.1308 7.68124 67.9564 8.0117 67.8606 8.43829C67.7638 8.86488 67.7205 9.32752 67.7305 9.82721C67.7416 10.3269 67.789 10.8306 67.8737 11.3393C67.9574 11.848 68.0562 12.3026 68.1661 12.7032C68.1994 12.8254 68.2327 12.9385 68.2679 13.0426C68.3012 13.1468 68.3355 13.2419 68.3698 13.3291C68.7247 14.4636 69.0584 15.3889 69.373 16.1039C69.6875 16.8189 69.9879 17.3827 70.2753 17.7942C70.4809 18.0966 70.6816 18.326 70.8782 18.4822C71.0738 18.6384 71.2593 18.7455 71.4347 18.8056C71.6092 18.8657 71.7786 18.8887 71.9429 18.8737C72.1062 18.8587 72.2685 18.8296 72.4299 18.7856C72.5347 18.7575 72.6295 18.7285 72.7182 18.6985C72.8069 18.6684 72.8947 18.6414 72.9804 18.6184C73.1407 18.5743 73.3 18.5523 73.4583 18.5513C73.6165 18.5503 73.7678 18.6033 73.921 18.7165Z" fill="#243645"/>
<path d="M75.3708 19.0389C75.1863 19.1851 75.0281 19.2192 74.894 19.1421C74.7599 19.065 74.6479 18.9338 74.5572 18.7495C74.4644 18.5653 74.3888 18.356 74.3293 18.1207C74.2688 17.8864 74.2164 17.6851 74.171 17.5188C74.1519 17.4517 74.1055 17.2705 74.0279 16.9751C73.9513 16.6787 73.8625 16.3382 73.7607 15.9537C73.6599 15.5692 73.5581 15.1786 73.4532 14.7831C73.3484 14.3875 73.2636 14.0541 73.2001 13.7847C73.0771 13.305 72.9591 12.7813 72.8432 12.2145C72.7283 11.6487 72.6295 11.0689 72.5478 10.4761C72.4651 9.88329 72.4188 9.28846 72.4067 8.69464C72.3956 8.09982 72.4389 7.53805 72.5377 7.00932C72.5871 6.74495 72.6608 6.48258 72.7575 6.22323C72.8543 5.96387 72.9712 5.72253 73.1084 5.50023C73.2455 5.27792 73.4018 5.08566 73.5762 4.92443C73.7517 4.76321 73.9382 4.65506 74.1378 4.60099C74.4282 4.50986 74.7155 4.54491 74.9998 4.70714C75.2831 4.86936 75.5573 5.11369 75.8205 5.44215C76.0836 5.7706 76.3367 6.16515 76.5756 6.62579C76.8146 7.08643 77.0334 7.56509 77.232 8.06077C77.4488 8.5875 77.6595 9.19635 77.8662 9.8873C78.0709 10.5783 78.2755 11.2902 78.4782 12.0242C78.6133 12.5129 78.7473 13.0266 78.8794 13.5644C79.0125 14.1021 79.1516 14.6439 79.2968 15.1896C79.443 15.7354 79.5872 16.2761 79.7304 16.8109C79.8725 17.3466 80.0137 17.8513 80.1558 18.327C80.2264 18.5112 80.2617 18.6294 80.2617 18.6835C80.2617 18.7375 80.2204 18.8407 80.1407 18.9949C80.0379 19.2142 79.8614 19.3374 79.6084 19.3634C79.3563 19.3904 79.1305 19.3774 78.9329 19.3233C78.8008 19.2873 78.6617 19.1371 78.5175 18.8717C78.3733 18.6064 78.2261 18.2789 78.0779 17.8883C77.9297 17.4988 77.7855 17.0722 77.6474 16.6076C77.5082 16.1429 77.3782 15.6893 77.2552 15.2437C77.1322 14.7991 77.0203 14.3905 76.9174 14.018C76.8136 13.6455 76.7349 13.3591 76.6805 13.1588C76.2974 13.287 75.9143 13.4212 75.5301 13.5614C75.145 13.7016 74.775 13.8267 74.418 13.9359C74.4513 14.0941 74.5088 14.3204 74.5895 14.6148C74.6712 14.9092 74.7588 15.2357 74.8516 15.5922C74.9463 15.9497 75.0411 16.3122 75.1369 16.6797C75.2327 17.0472 75.3184 17.3837 75.391 17.6861C75.4374 17.8894 75.4777 18.0606 75.511 18.2008C75.5443 18.341 75.5654 18.4642 75.5745 18.5693C75.5826 18.6744 75.5724 18.7646 75.5422 18.8387C75.514 18.9138 75.4555 18.9799 75.3708 19.0389ZM76.3881 12.0383C76.3589 11.82 76.2782 11.4555 76.1481 10.9478C76.0181 10.4401 75.8588 9.89431 75.6663 9.3125C75.5433 8.93999 75.4091 8.56447 75.2639 8.18595C75.1187 7.80742 74.9726 7.47095 74.8244 7.17555C74.6772 6.88114 74.529 6.64982 74.3808 6.48059C74.2325 6.31235 74.0964 6.24426 73.9734 6.27831C73.8434 6.32537 73.7436 6.47157 73.674 6.71791C73.6044 6.96425 73.5621 7.27168 73.5469 7.64019C73.5308 8.0097 73.5379 8.42227 73.5682 8.88091C73.5984 9.33954 73.6447 9.80418 73.7093 10.2768C73.7728 10.7495 73.8454 11.2111 73.924 11.6617C74.0017 12.1124 74.0894 12.5099 74.1841 12.8544C74.2033 12.8494 74.3152 12.8123 74.5209 12.7442C74.7255 12.6772 74.9544 12.597 75.2045 12.5049C75.4545 12.4128 75.6944 12.3237 75.9253 12.2365C76.1542 12.1504 76.3095 12.0843 76.3881 12.0383Z" fill="#243645"/>
<path d="M78.205 7.04337C78.1415 6.81004 78.0638 6.58574 77.9741 6.37145C77.8844 6.15715 77.8228 5.96187 77.7886 5.78563C77.7563 5.60939 77.7663 5.45117 77.8188 5.31098C77.8712 5.17078 78.0104 5.06464 78.2352 4.99153C78.3642 4.94447 78.5165 4.9595 78.6909 5.0376C78.8654 5.11571 79.0539 5.22887 79.2586 5.37607C79.3594 5.44416 79.4965 5.56533 79.6719 5.73857C79.8473 5.91181 80.0409 6.10707 80.2537 6.32437C80.4664 6.54167 80.6882 6.77099 80.9171 7.01333C81.148 7.25566 81.3627 7.48398 81.5653 7.69828C81.767 7.91157 81.9464 8.09984 82.1027 8.26006C82.258 8.42128 82.3709 8.52843 82.4354 8.5815C82.3719 8.27608 82.2862 7.95362 82.1753 7.61315C82.0674 7.27268 81.9485 6.9222 81.8244 6.5617C81.6984 6.2012 81.5734 5.8377 81.4464 5.47219C81.3203 5.10669 81.2145 4.7502 81.1298 4.40272C81.0955 4.28055 81.0663 4.16639 81.0421 4.05925C81.0179 3.9531 81.0138 3.85497 81.029 3.76685C81.0461 3.67873 81.0844 3.59661 81.1449 3.52051C81.2054 3.4444 81.2961 3.37129 81.4201 3.30119C81.528 3.24812 81.649 3.24212 81.7821 3.28318C81.9162 3.32524 82.0997 3.40234 82.3356 3.5175C82.4647 3.61463 82.6088 3.80189 82.7671 4.08128C82.9254 4.36067 83.0857 4.69312 83.2501 5.07965C83.4114 5.46519 83.5727 5.88476 83.734 6.33739C83.8943 6.79001 84.0435 7.23062 84.1827 7.65821C84.3208 8.08681 84.4448 8.48035 84.5537 8.83885C84.6626 9.19734 84.7493 9.47573 84.8148 9.67301L86.4945 15.1506C86.5873 15.448 86.6679 15.7214 86.7365 15.9717C86.805 16.2221 86.8373 16.4374 86.8313 16.6186C86.8252 16.7999 86.7728 16.9451 86.676 17.0552C86.5792 17.1654 86.4118 17.2345 86.1759 17.2635C85.7403 17.3106 85.4157 17.2415 85.201 17.0542C84.9862 16.867 84.8158 16.5105 84.6908 15.9827L83.4739 12.4058C83.4366 12.3087 83.3932 12.1655 83.3398 11.9762C83.2884 11.7879 83.2349 11.5927 83.1795 11.3924C83.123 11.1921 83.0686 11.0099 83.0131 10.8456C82.9577 10.6814 82.9143 10.5803 82.8831 10.5402C82.8357 10.4811 82.75 10.409 82.625 10.3239C82.4989 10.2388 82.4011 10.1637 82.3336 10.0976C82.2419 10.0275 82.1541 9.94939 82.0694 9.86527C81.9847 9.78116 81.896 9.69704 81.8012 9.61493C81.648 9.46572 81.5099 9.32653 81.3889 9.19835C81.2669 9.07017 81.147 8.942 81.03 8.81182C80.9131 8.68164 80.7991 8.55547 80.6872 8.43029C80.5773 8.30512 80.4533 8.17794 80.3151 8.04776C80.2304 7.96364 80.1115 7.84648 79.9582 7.69727C79.805 7.54806 79.687 7.43591 79.6064 7.36281C79.5963 7.40086 79.6134 7.49199 79.6578 7.63519C79.7032 7.77839 79.7485 7.95163 79.7939 8.15391C79.8927 8.5815 80.0046 9.02612 80.1316 9.48775C80.2587 9.94839 80.3998 10.422 80.5541 10.9057C80.7789 11.6097 81.0028 12.3127 81.2276 13.0166C81.4534 13.7206 81.7045 14.4106 81.9838 15.0875C82.0483 15.2487 82.137 15.452 82.251 15.6953C82.3639 15.9397 82.4354 16.171 82.4657 16.3903C82.4979 16.6206 82.4657 16.7788 82.3669 16.8649C82.2681 16.9521 82.1431 16.9971 81.9918 17.0031C81.8416 17.0081 81.6913 16.9831 81.5441 16.928C81.3959 16.873 81.2931 16.8109 81.2326 16.7438C81.1732 16.6767 81.0804 16.4564 80.9523 16.0849C80.8243 15.7134 80.6781 15.2567 80.5128 14.716C80.3474 14.1752 80.174 13.5894 79.9885 12.9575C79.804 12.3267 79.6265 11.7178 79.4541 11.131C79.3009 10.6113 79.1597 10.1386 79.0327 9.71306C78.9047 9.28747 78.7978 8.95501 78.7111 8.71568L78.205 7.04337Z" fill="#243645"/>
<path d="M88.1339 16.2631C87.9423 16.196 87.7992 16.0849 87.7054 15.9317C87.6116 15.7774 87.5653 15.6172 87.5653 15.45C87.5643 15.2828 87.6026 15.1265 87.6792 14.9793C87.7558 14.8331 87.8698 14.739 88.022 14.6979C88.3507 14.5968 88.6501 14.6198 88.9203 14.767C89.1905 14.9142 89.3307 15.1546 89.3407 15.486C89.3357 15.6543 89.3266 15.7584 89.3125 15.7985C89.2984 15.8385 89.2701 15.8936 89.2288 15.9647C89.1139 16.175 88.9516 16.2982 88.7419 16.3302C88.5301 16.3642 88.3285 16.3422 88.1339 16.2631ZM87.5522 13.1048C87.3253 13.0947 87.1499 13.0296 87.0249 12.9085C86.8998 12.7873 86.804 12.6371 86.7395 12.4569C86.675 12.2776 86.6326 12.0863 86.6115 11.8821C86.5913 11.6788 86.5661 11.4855 86.5359 11.3023C86.4542 10.8226 86.3624 10.3129 86.2596 9.77314C86.1568 9.23339 86.0509 8.68563 85.944 8.12887C85.8372 7.5731 85.7323 7.02735 85.6295 6.49361C85.5276 5.95987 85.4409 5.45117 85.3693 4.9695C85.3401 4.78625 85.3008 4.56395 85.2534 4.30158C85.207 4.03922 85.1647 3.77586 85.1274 3.51149C85.0901 3.24612 85.0629 3.00679 85.0427 2.79049C85.0246 2.57419 85.0306 2.41498 85.0639 2.30983C85.207 2.27078 85.327 2.23773 85.4268 2.2107C85.5256 2.18366 85.6214 2.17263 85.7152 2.17664C85.8079 2.18064 85.9047 2.19366 86.0075 2.21369C86.1104 2.23372 86.2294 2.26777 86.3645 2.31384C86.5782 2.38694 86.7304 2.5041 86.8212 2.66532C86.9109 2.82654 86.9926 3.07589 87.0652 3.41436C87.2033 3.98715 87.3303 4.62202 87.4453 5.31898C87.5612 6.01594 87.6762 6.73294 87.7861 7.46696C87.898 8.20197 88.0089 8.92697 88.1198 9.64396C88.2307 10.361 88.3567 11.0289 88.4968 11.6477C88.5553 11.9311 88.5926 12.1694 88.6097 12.3607C88.6269 12.553 88.6047 12.7052 88.5453 12.8183C88.4838 12.9305 88.3769 13.0106 88.2216 13.0587C88.0643 13.1057 87.8425 13.1218 87.5522 13.1048Z" fill="#243645"/>
<path d="M39.4915 14.5678C39.2213 14.048 38.8795 13.5554 38.5468 13.0677C37.2079 14.1572 35.8064 15.2086 34.5492 16.3743C34.3606 16.5485 32.677 18.1517 33.6519 18.0265C34.519 17.9154 35.5433 17.3586 36.3459 17.0272C37.4358 16.5755 38.4984 16.0658 39.5247 15.5C39.6175 15.45 39.7163 15.3899 39.7496 15.2978C39.7748 15.2217 39.7476 15.1425 39.7194 15.0694C39.6528 14.8972 39.5762 14.731 39.4915 14.5678Z" fill="#F6CD6C" stroke="#243645" stroke-width="0.3218" stroke-miterlimit="10" stroke-linecap="round" stroke-linejoin="round"/>
<path d="M40.6297 21.1899C40.9644 21.1008 41.2851 21.0597 41.5583 21.1108C42.2852 21.248 42.4506 22.1953 42.499 22.7551C42.504 22.8121 42.507 22.8732 42.4707 22.9223C42.4253 22.9834 42.3346 23.0004 42.255 23.0114C40.8999 23.2027 39.5449 23.3939 38.1908 23.5852C37.3228 23.7084 35.7722 24.0238 34.9757 23.7975C35.0725 23.5522 35.3275 23.417 35.5776 23.2978C36.6069 22.8051 37.6565 22.3505 38.7242 21.9359C39.2213 21.7407 39.9532 21.3691 40.6297 21.1899Z" fill="#F6CD6C" stroke="#243645" stroke-width="0.3218" stroke-miterlimit="10" stroke-linecap="round" stroke-linejoin="round"/>
<path d="M42.0503 31.7015C42.5111 31.5252 42.3981 30.1864 42.384 29.8208C42.382 29.7748 42.378 29.7247 42.3437 29.6917C42.3054 29.6546 42.2419 29.6506 42.1844 29.6486C41.1409 29.6126 36.5354 29.3011 36.5878 29.6436C36.7885 30.2094 41.3274 31.9798 42.0503 31.7015Z" fill="#F6CD6C" stroke="#243645" stroke-width="0.3218" stroke-miterlimit="10" stroke-linecap="round" stroke-linejoin="round"/>
<path d="M31.1044 37.583C30.6043 37.583 30.1032 37.575 29.6021 37.562C29.1302 37.548 28.6564 37.53 28.1866 37.5079L27.1148 37.4549C26.6924 37.4308 26.2699 37.4058 25.8475 37.3798C24.1214 37.2736 21.5404 37.1354 19.1177 37.0062C12.5834 36.6588 12.5834 36.6588 12.541 36.5056C12.541 36.5056 12.5058 36.3774 9.98321 27.2357C9.96708 27.1797 9.98323 27.1206 10.0246 27.0795C13.758 23.3424 17.5408 19.9517 21.4093 16.5199L25.3646 13.0121C26.0895 12.3662 26.759 11.8224 27.6049 11.7093C27.6059 11.7093 27.6058 11.7093 27.6058 11.7093C28.8883 11.7093 31.1598 16.8724 32.8718 21.9905C34.7985 27.7505 35.3419 31.2533 35.971 35.3099C35.9942 35.4561 36.0063 35.5933 36.0103 35.7205C36.0255 36.2422 35.8843 36.6578 35.5929 36.9552C35.0404 37.519 34.0484 37.566 33.1601 37.566L32.6398 37.563C32.6398 37.563 31.8313 37.578 31.5802 37.58L31.1044 37.583Z" fill="#4CBBE6"/>
<path d="M27.6681 11.867C28.6481 11.867 30.7794 16.2441 32.7182 22.0421C34.6248 27.74 35.1592 31.1336 35.8105 35.3345C35.8326 35.4746 35.8437 35.6048 35.8478 35.727C35.8921 37.3102 34.4383 37.4063 33.1568 37.4063C32.9814 37.4063 32.809 37.4043 32.6446 37.4043C32.5358 37.4043 32.4299 37.4053 32.3291 37.4073C32.079 37.4133 31.829 37.4183 31.578 37.4193C31.4187 37.4213 31.2593 37.4223 31.099 37.4223C30.602 37.4223 30.104 37.4153 29.6059 37.4013C29.1351 37.3873 28.6632 37.3703 28.1934 37.3482C27.8365 37.3312 27.4816 37.3132 27.1236 37.2942C26.7022 37.2711 26.2798 37.2461 25.8583 37.2201C21.7317 36.9637 12.7173 36.5341 12.6971 36.463C12.6961 36.46 10.1392 27.1932 10.1392 27.1932C13.8484 23.4811 17.6585 20.0634 21.517 16.6396C21.7912 16.3953 22.0684 16.1509 22.3447 15.9076C22.7066 15.5852 23.0696 15.2647 23.4336 14.9423C23.9417 14.4917 24.4519 14.04 24.9611 13.5864C25.1324 13.4362 25.3008 13.285 25.4712 13.1328C26.1144 12.561 26.797 11.9802 27.6257 11.87C27.6408 11.868 27.654 11.867 27.6681 11.867ZM27.6681 11.5446C27.6399 11.5446 27.6106 11.5466 27.5834 11.5506C26.6185 11.6798 25.8311 12.3807 25.2554 12.8924L25.1385 12.9966L24.7463 13.3451C24.2361 13.7997 23.727 14.2513 23.2188 14.702L22.869 15.0114L22.1289 15.6673L21.3022 16.3993C17.4296 19.834 13.6448 23.2257 9.90937 26.9659C9.8277 27.048 9.79642 27.1672 9.82666 27.2793C9.82666 27.2793 12.3846 36.5461 12.3846 36.5491C12.4531 36.7985 12.4531 36.7985 14.6338 36.9247C15.8185 36.9918 17.4226 37.0779 19.1053 37.168C21.5663 37.2992 24.1121 37.4344 25.8382 37.5415C26.2606 37.5676 26.6841 37.5926 27.1065 37.6156C27.4644 37.6356 27.8203 37.6527 28.1792 37.6697C28.6501 37.6917 29.1249 37.7097 29.5968 37.7228C30.0979 37.7368 30.599 37.7438 31.099 37.7438C31.2593 37.7438 31.4197 37.7438 31.581 37.7418C31.833 37.7398 32.0851 37.7358 32.3371 37.7298C32.436 37.7268 32.5378 37.7258 32.6446 37.7258L32.8907 37.7268L33.1568 37.7278C34.0783 37.7278 35.1128 37.6767 35.7086 37.0689C36.0312 36.7394 36.1885 36.2848 36.1724 35.717C36.1674 35.5668 36.1532 35.4246 36.13 35.2824C35.4999 31.2218 34.9555 27.7119 33.0257 21.94C32.445 20.2036 29.4597 11.5446 27.6681 11.5446Z" fill="#243645"/>
<path d="M12.0951 39.4592C11.5457 38.7872 11.1232 38.0142 10.8742 37.184C10.7784 36.8676 10.6353 36.477 10.3036 36.446C10.0485 36.423 6.90184 37.4804 6.87966 37.3723C7.38377 39.9208 8.59059 42.6456 10.7008 44.3179C11.7786 45.1731 13.1588 45.7699 14.5532 45.814C16.0604 45.86 16.1623 43.9374 15.9274 42.7487C15.7812 42.0087 15.5836 41.8475 14.9585 41.544C13.8495 41.0043 12.8866 40.4295 12.0951 39.4592Z" fill="#4CBBE6" stroke="#243645" stroke-width="0.3218" stroke-miterlimit="10" stroke-linecap="round" stroke-linejoin="round"/>
<path d="M14.9595 41.5431C13.8494 41.0043 12.8866 40.4295 12.0951 39.4592C11.5457 38.7872 11.1232 38.0142 10.8742 37.184C10.7784 36.8676 10.6353 36.477 10.3036 36.446C10.0485 36.423 6.90184 37.4804 6.87966 37.3723C7.05509 38.2585 7.31723 39.1638 7.6701 40.04C8.36779 39.6154 9.2177 39.5964 10.0021 39.7786C10.7472 39.9518 11.4267 40.3013 12.067 40.7119C12.689 41.1105 13.2838 41.5761 13.7486 42.1539C14.1721 42.6796 14.4816 43.2925 14.6026 43.9584C14.7145 44.5762 14.6762 45.2021 14.5492 45.8129C14.5502 45.8129 14.5522 45.814 14.5532 45.814C16.0604 45.86 16.1623 43.9374 15.9274 42.7487C15.7822 42.0077 15.5846 41.8465 14.9595 41.5431Z" fill="#CDDCE7"/>
<path d="M5.53495 38.8767C5.24761 38.8767 4.99252 38.6944 4.89977 38.4241L4.61245 37.5779C3.75345 35.0584 2.94282 32.6801 2.37418 29.9894C2.35502 29.8943 2.32783 29.7651 2.37824 29.6349C2.43369 29.4877 2.56777 29.3766 2.77546 29.3065C3.87139 28.9339 5.10342 28.5735 6.29413 28.222C7.5917 27.8414 8.93363 27.4479 10.086 27.0423C10.1042 27.0353 10.1213 27.0333 10.1405 27.0333C10.1657 27.0333 10.1909 27.0393 10.2141 27.0513C10.2534 27.0714 10.2826 27.1064 10.2957 27.1495L13.0673 36.5204C13.0794 36.5625 13.0744 36.6076 13.0532 36.6446C13.032 36.6827 12.9957 36.7097 12.9534 36.7217C11.8736 37.0121 10.7817 37.3546 9.72412 37.685C8.40638 38.0986 7.04427 38.5242 5.69427 38.8567C5.64184 38.8707 5.58839 38.8767 5.53495 38.8767Z" fill="#F5ACC7"/>
<path d="M10.1402 27.1932L12.9118 36.5652C10.482 37.2201 8.08245 38.1033 5.65668 38.6991C5.61534 38.7091 5.57504 38.7141 5.53471 38.7141C5.32198 38.7141 5.12637 38.5799 5.05479 38.3707C4.11917 35.6128 3.16438 32.9431 2.53425 29.955C2.51509 29.8669 2.49792 29.7738 2.53019 29.6906C2.57556 29.5695 2.70465 29.4994 2.82766 29.4583C5.11832 28.6803 7.93023 27.9703 10.1402 27.1932ZM10.1402 26.8718C10.1039 26.8718 10.0677 26.8788 10.0324 26.8908C8.88502 27.2933 7.54508 27.6869 6.24952 28.0684C5.0558 28.4189 3.82276 28.7804 2.7228 29.1539C2.40622 29.2611 2.27814 29.4433 2.22773 29.5765C2.16119 29.7527 2.19649 29.921 2.21666 30.0221C2.7863 32.7228 3.59894 35.1071 4.46096 37.6306L4.74729 38.4758C4.86122 38.8123 5.17881 39.0386 5.53471 39.0386C5.60126 39.0386 5.66881 39.0296 5.73434 39.0145C7.09039 38.6821 8.45448 38.2535 9.77625 37.8409C10.8308 37.5105 11.9218 37.168 12.9965 36.8786C13.0812 36.8566 13.1518 36.8005 13.1951 36.7254C13.2375 36.6503 13.2476 36.5601 13.2224 36.477L10.4508 27.1061C10.4266 27.021 10.3671 26.9499 10.2874 26.9098C10.2421 26.8838 10.1917 26.8718 10.1402 26.8718Z" fill="#243645"/>
<path d="M31.579 37.4184C30.9236 37.4254 30.2642 37.4184 29.6069 37.4003C28.8185 29.6797 26.7053 21.983 23.4356 14.9423C23.9438 14.4917 24.4539 14.0401 24.963 13.5864C28.4938 21.0317 30.7643 29.218 31.579 37.4184Z" fill="#F5ACC7" stroke="#243645" stroke-width="0.3218" stroke-miterlimit="10" stroke-linecap="round" stroke-linejoin="round"/>
<path d="M28.1944 37.3482C27.8375 37.3312 27.4826 37.3132 27.1247 37.2942C26.3171 30.2114 24.4055 23.1646 21.518 16.6406C21.7922 16.3963 22.0695 16.153 22.3457 15.9086C25.3754 22.668 27.3707 29.9891 28.1944 37.3482Z" fill="#F5ACC7" stroke="#243645" stroke-width="0.3218" stroke-miterlimit="10" stroke-linecap="round" stroke-linejoin="round"/>
<path d="M9.50408 35.9984C9.14918 36.0965 8.77517 36.1226 8.64915 35.6669C8.64915 35.6669 8.27306 34.303 8.27205 34.299C8.11477 33.7282 9.51016 33.2536 9.69164 33.9125C9.69164 33.9125 10.0677 35.2774 10.0687 35.2804C10.1937 35.733 9.85796 35.9013 9.50408 35.9984Z" fill="#4CBBE6" stroke="#243645" stroke-width="0.3218" stroke-miterlimit="10" stroke-linecap="round" stroke-linejoin="round"/>
<g opacity="0.3">
<path opacity="0.3" d="M3.0303 30.1093C5.23628 29.17 7.71345 29.1079 9.87305 28.0304C10.0233 27.9553 10.1715 27.8762 10.3177 27.796L10.1402 27.1932C7.93023 27.9693 5.11833 28.6793 2.82766 29.4583C2.70466 29.4994 2.57556 29.5695 2.53019 29.6907C2.49793 29.7738 2.51509 29.8669 2.53425 29.955C2.55845 30.0712 2.58467 30.1853 2.60988 30.3015C2.74801 30.2334 2.88814 30.1703 3.0303 30.1093Z" fill="#BBBDBF"/>
</g>
<path d="M32.7183 22.0421C32.6124 21.7237 32.5045 21.4102 32.3977 21.1008C32.4713 21.4683 32.5408 21.8368 32.5993 22.2073C32.9512 24.4034 33.057 26.6855 32.5943 28.8735C32.1527 30.9564 31.1031 33.0443 29.2389 34.2049C26.9442 35.6329 24.0849 35.754 21.4817 36.1616C20.1367 36.3719 18.7646 36.6132 17.3863 36.7534C20.2275 36.9056 23.7089 37.0859 25.8594 37.2201C26.2808 37.2461 26.7033 37.2711 27.1247 37.2942C27.4816 37.3132 27.8365 37.3312 28.1944 37.3482C28.6652 37.3693 29.1371 37.3873 29.6069 37.4013C30.2643 37.4194 30.9236 37.4253 31.579 37.4193C31.83 37.4183 32.0801 37.4133 32.3301 37.4073C33.7013 37.3723 35.9022 37.6707 35.8478 35.727C35.8437 35.6048 35.8327 35.4747 35.8105 35.3345C35.1592 31.1337 34.6238 27.74 32.7183 22.0421Z" fill="#CDDCE7"/>
<g opacity="0.3">
<path opacity="0.3" d="M15.4384 23.9607C17.0254 22.702 18.3986 21.2019 19.7365 19.6918C21.0845 18.1717 22.4042 16.6196 23.8883 15.2257C25.1788 14.013 26.6004 12.9385 28.2004 12.1714C27.9796 11.9551 27.7871 11.848 27.6268 11.869C26.799 11.9792 26.1144 12.56 25.4722 13.1318C25.3018 13.284 25.1334 13.4352 24.962 13.5864C24.4529 14.04 23.9427 14.4916 23.4346 14.9423C23.0706 15.2647 22.7076 15.5852 22.3457 15.9076C22.0694 16.1519 21.7922 16.3963 21.518 16.6396C17.6595 20.0623 13.8495 23.4811 10.1403 27.1932C10.1403 27.1932 10.2027 27.4205 10.3076 27.801C12.1829 26.7696 13.7729 25.2805 15.4384 23.9607Z" fill="#BBBDBF"/>
</g>
</svg>
