<svg width="51" height="48" viewBox="0 0 51 48" fill="none" xmlns="http://www.w3.org/2000/svg">
<path d="M50.7272 22.3121C50.1113 18.2115 48.5807 14.3457 46.2987 11.1343C43.8464 7.68078 40.5763 5.08102 36.8423 3.61455C33.8516 2.43975 30.4082 1.81893 26.8842 1.81893C22.5628 1.81893 18.4403 2.72737 14.9622 4.44703C11.7431 6.03808 8.92269 8.74012 6.8079 12.2605C4.96739 15.3231 3.69075 18.9092 3.11769 22.6311C2.50589 26.5951 2.76183 30.2086 3.87837 33.3735C5.12441 36.904 7.5604 40.0709 10.9243 42.5309C13.9629 44.7539 17.6296 46.3297 21.5258 47.0883C23.4316 47.4589 25.3669 47.6473 27.2768 47.6473C31.0924 47.6473 34.6836 46.9191 37.9476 45.4831C43.3722 43.096 47.6263 38.7684 49.6177 33.6095C50.9392 30.1873 51.3226 26.2811 50.7272 22.3121Z" fill="#CADBE3"/>
<path d="M47.9332 20.4922C47.3173 16.3915 45.7868 12.5258 43.5048 9.31435C41.0515 5.86084 37.7824 3.26109 34.0484 1.79461C31.0577 0.620821 27.6143 0 24.0903 0C19.769 0 15.6464 0.908447 12.1683 2.62811C8.94921 4.21916 6.1288 6.9212 4.014 10.4416C2.1735 13.5041 0.896882 17.0903 0.323827 20.8122C-0.287975 24.7762 -0.0320352 28.3897 1.0845 31.5546C2.33054 35.085 4.76654 38.2519 8.13043 40.7119C11.169 42.9349 14.8358 44.5108 18.7319 45.2693C20.6377 45.64 22.572 45.8284 24.4818 45.8284C28.2985 45.8284 31.8897 45.1002 35.1537 43.6641C40.5784 41.2771 44.8324 36.9495 46.8228 31.7915C48.1443 28.3674 48.5287 24.4612 47.9332 20.4922Z" fill="white"/>
<path d="M24.481 43.8296C22.7007 43.8296 20.8959 43.6544 19.1186 43.308C13.0169 42.1221 5.5733 38.2371 2.98334 30.8946C1.97794 28.0437 1.75158 24.7532 2.31138 21.1164C3.2301 15.1594 6.5379 7.64366 13.0648 4.41803C16.2656 2.83609 20.0781 1.99955 24.0905 1.99955C27.3636 1.99955 30.5511 2.57176 33.3083 3.6544C39.9046 6.24504 44.7449 12.8098 45.942 20.7873C46.4865 24.416 46.1409 27.9738 44.9438 31.0759C43.142 35.7417 39.2765 39.6631 34.3382 41.8365C31.3312 43.1591 28.0152 43.8296 24.481 43.8296C24.482 43.8296 24.482 43.8296 24.481 43.8296ZM24.0976 15.846C22.7537 15.846 21.424 16.1377 20.3544 16.6663C18.156 17.752 17.0395 20.2991 16.7275 22.3206C16.5368 23.5521 16.6133 24.6631 16.9518 25.6232C17.8226 28.0933 20.3412 29.4038 22.408 29.8059C23.0137 29.9234 23.6286 29.9831 24.2343 29.9831C25.4365 29.9831 26.5611 29.7552 27.5798 29.3076C29.248 28.5744 30.5521 27.2517 31.1588 25.6809C31.5626 24.6347 31.6789 23.4336 31.4943 22.2071C31.0895 19.5041 29.454 17.2821 27.229 16.4081C26.295 16.0405 25.2111 15.846 24.0976 15.846Z" fill="#E4946A"/>
<path d="M24.0913 2.16526C27.2941 2.16526 30.4714 2.71822 33.2469 3.80897C40.2571 6.56266 44.6641 13.3988 45.7766 20.8112C46.2895 24.2282 46.0325 27.7891 44.7875 31.0147C42.946 35.7838 38.9723 39.6141 34.2706 41.6831C31.2004 43.0342 27.8457 43.6621 24.4818 43.6621C22.6933 43.6621 20.9028 43.4848 19.15 43.1435C12.2183 41.7945 5.47824 37.4599 3.14217 30.8385C2.05316 27.7496 1.97873 24.3751 2.47837 21.1403C3.4807 14.6384 7.00875 7.59668 13.139 4.56651C16.3979 2.95622 20.2624 2.16526 24.0913 2.16526ZM24.2361 30.1488C25.4077 30.1488 26.5783 29.9301 27.6489 29.4581C29.2885 28.737 30.6743 27.4012 31.3167 25.7383C31.751 24.6131 31.8408 23.3714 31.6613 22.1794C31.2738 19.5948 29.7372 17.2108 27.2931 16.2507C26.3244 15.8709 25.217 15.6775 24.0994 15.6775C22.7647 15.6775 21.4167 15.953 20.2808 16.515C18.1435 17.5714 16.9128 20.0273 16.5631 22.2949C16.3897 23.4231 16.4142 24.5999 16.7955 25.6765C17.6103 27.9856 19.9606 29.4976 22.3782 29.9675C22.988 30.086 23.612 30.1488 24.2361 30.1488ZM24.0913 1.83205C20.0534 1.83205 16.2143 2.67467 12.9901 4.26774C6.40715 7.52174 3.0718 15.0911 2.14696 21.0887C1.58206 24.7528 1.81049 28.0696 2.82608 30.9479C5.43949 38.3562 12.9402 42.2746 19.0867 43.4707C20.8763 43.818 22.6913 43.9953 24.4818 43.9953C28.0394 43.9953 31.3789 43.3198 34.4053 41.988C39.3853 39.7964 43.2835 35.8405 45.0995 31.1342C46.3078 28.0058 46.6556 24.4196 46.107 20.7615C44.9007 12.7253 40.0195 6.11096 33.3693 3.49906C30.5937 2.40832 27.3838 1.83205 24.0913 1.83205ZM24.2351 29.8156C23.6406 29.8156 23.0359 29.7569 22.4404 29.6414C20.4205 29.2485 17.959 27.9714 17.1106 25.5671C16.7813 24.6343 16.7079 23.5497 16.8934 22.3455C17.1993 20.3656 18.2873 17.8721 20.4296 16.8138C21.4758 16.2963 22.779 16.0117 24.0984 16.0117C25.1905 16.0117 26.252 16.2021 27.1686 16.5616C29.3385 17.4134 30.9323 19.5857 31.3289 22.2301C31.5094 23.4292 31.3952 24.6009 31.0036 25.6198C30.4122 27.15 29.1407 28.4383 27.5133 29.1543C26.5161 29.5928 25.4128 29.8156 24.2351 29.8156Z" fill="#243645"/>
<g opacity="0.3">
<path opacity="0.3" d="M3.40831 29.7974C3.05856 26.9759 2.57627 24.2394 3.24824 21.4563C3.94671 18.5649 4.93069 15.7211 6.4296 13.1375C8.34862 9.82984 11.168 6.94956 14.6991 5.44055C16.3428 4.73769 18.1028 4.34372 19.8607 4.01053C23.3286 3.35426 27.6846 2.92384 31.1046 3.91026C34.6082 4.921 36.5058 5.96211 40.2184 8.68846C38.3177 6.5799 35.9817 4.88353 33.2469 3.81C27.1503 1.41584 19.1214 1.61028 13.139 4.56754C7.00876 7.59772 3.48072 14.6384 2.47838 21.1414C1.97976 24.3761 2.05318 27.7506 3.14219 30.8395C3.43075 31.6589 3.78762 32.4417 4.20365 33.1891C3.82025 32.0923 3.55208 30.958 3.40831 29.7974Z" fill="#BBBDBF"/>
</g>
<path d="M42.3169 18.096C42.1354 17.4944 41.8733 16.9161 41.6143 16.3429C41.3522 15.7656 41.0871 15.1833 40.718 14.6678C40.2204 13.971 39.5495 13.418 38.9825 12.7759C38.0261 11.6892 38.0924 9.99387 36.8728 9.131C36.4966 8.86465 36.0367 8.75223 35.5972 8.60943C34.5276 8.26104 33.7109 7.59566 32.731 7.10852C31.6991 6.59607 30.4418 6.35908 29.3008 6.2811C28.4789 6.22539 27.6489 6.26489 26.8403 6.11298C25.9145 5.93878 25.0212 5.51342 24.079 5.559C23.2317 5.59951 22.4516 6.01778 21.6216 6.18387C20.706 6.36819 19.7607 6.24261 18.8267 6.21932C16.9383 6.17172 15.0448 6.5596 13.3225 7.32424C11.8389 7.98354 10.2544 8.68134 9.60177 10.2491C9.12049 11.4036 8.9033 12.6503 8.41182 13.8039C7.87956 15.0526 7.09644 16.1758 6.41938 17.3485C5.54246 18.8677 4.81441 20.6035 5.12133 22.3283C5.26918 23.1567 5.64749 23.9264 5.87488 24.7366C6.26031 26.1028 6.08186 27.3181 5.80757 28.6732C5.56183 29.8895 6.54378 30.9367 7.50533 31.596C8.73913 32.4407 10.2809 32.9714 11.016 34.3264C11.6595 35.5124 11.9174 37.0082 13.0432 37.8752C14.0384 38.6398 15.4027 38.6327 16.6599 38.6955C17.5735 38.7411 18.5728 38.8717 19.3468 39.3983C20.1849 39.9685 20.9232 40.642 21.9041 41.0046C23.4061 41.5596 25.0243 41.2152 26.564 41.0694C27.8284 40.9509 29.0347 41.2264 30.2787 41.1747C31.4482 41.1271 32.1171 40.3838 32.8482 39.5462C33.8138 38.4372 34.704 37.7658 36.1275 37.3404C37.4541 36.9434 38.9723 36.7398 39.9573 35.6724C41.6755 33.812 41.1004 31.275 41.8111 29.0702C42.0803 28.2347 42.5779 27.4873 42.8777 26.6629C43.1724 25.8517 43.2703 24.9706 43.1591 24.1148C43.0643 23.3755 42.8186 22.6615 42.7074 21.9242C42.5483 20.8618 42.6737 19.768 42.4729 18.7117C42.429 18.5031 42.377 18.2985 42.3169 18.096ZM31.8959 27.4771C31.8683 27.5106 31.8408 27.544 31.8122 27.5784C30.7243 28.8727 29.2834 29.8176 27.8926 30.7868C27.7203 30.9063 27.5469 31.0279 27.3542 31.1109C26.98 31.2699 26.5599 31.272 26.152 31.2709C23.4937 31.2659 20.7284 31.2375 18.3393 30.0759C17.3472 29.5938 16.406 28.8727 16.0043 27.8509C15.5831 26.7804 15.8156 25.5732 15.63 24.4389C15.4669 23.4484 14.9805 22.5065 15.0101 21.5029C15.056 19.8977 16.3071 18.6378 17.4165 17.626C19.1653 16.0299 20.9558 14.5756 23.4407 14.531C25.2241 14.4986 26.9841 14.9392 28.7665 15.002C29.7362 15.0354 30.8272 14.9999 31.5247 15.6714C32.163 16.2861 32.1834 17.1713 32.3893 17.9704C32.5892 18.7512 32.7636 19.525 32.9338 20.321C33.4814 22.8711 33.6242 25.3402 31.8959 27.4771Z" fill="#F5ACC7" stroke="#243645" stroke-width="0.329" stroke-miterlimit="10" stroke-linecap="round" stroke-linejoin="round"/>
<path d="M12.7434 12.0265C12.7719 11.7338 12.9647 11.4624 13.2318 11.3358C13.4368 11.2386 13.6733 11.2244 13.8813 11.1333C14.0893 11.0431 14.277 10.8213 14.2056 10.6077" stroke="#F8D45D" stroke-width="0.8225" stroke-miterlimit="10" stroke-linecap="round" stroke-linejoin="round"/>
<path d="M30.7222 13.4454C30.7518 13.1527 30.9435 12.8813 31.2106 12.7547C31.4156 12.6575 31.6522 12.6433 31.8602 12.5521C32.0682 12.461 32.2558 12.2402 32.1844 12.0265" stroke="#F8D45D" stroke-width="0.8225" stroke-miterlimit="10" stroke-linecap="round" stroke-linejoin="round"/>
<path d="M10.858 21.0168C10.8876 20.7241 11.0803 20.4527 11.3464 20.3261C11.5514 20.2288 11.7879 20.2147 11.996 20.1235C12.204 20.0334 12.3916 19.8126 12.3202 19.5979" stroke="#F8D45D" stroke-width="0.8225" stroke-miterlimit="10" stroke-linecap="round" stroke-linejoin="round"/>
<path d="M38.5787 22.4356C38.6073 22.143 38.8 21.8715 39.0672 21.7449C39.2721 21.6477 39.5087 21.6325 39.7167 21.5424C39.9247 21.4512 40.1123 21.2305 40.0409 21.0168" stroke="#F8D45D" stroke-width="0.8225" stroke-miterlimit="10" stroke-linecap="round" stroke-linejoin="round"/>
<path d="M33.77 34.6212C33.4967 34.7366 33.1653 34.7012 32.9247 34.53C32.7401 34.3994 32.6127 34.1999 32.4332 34.0631C32.2527 33.9264 31.9682 33.8697 31.8132 34.0358" stroke="#F8D45D" stroke-width="0.8225" stroke-miterlimit="10" stroke-linecap="round" stroke-linejoin="round"/>
<path d="M25.4159 36.8229C25.1426 36.9384 24.8112 36.9029 24.5705 36.7318C24.386 36.6001 24.2585 36.4016 24.0791 36.2649C23.8996 36.1282 23.6141 36.0714 23.4591 36.2365" stroke="#F8D45D" stroke-width="0.8225" stroke-miterlimit="10" stroke-linecap="round" stroke-linejoin="round"/>
<path d="M13.7213 31.5819C13.449 31.6973 13.1176 31.6619 12.877 31.4907C12.6914 31.3601 12.565 31.1606 12.3855 31.0239C12.204 30.8871 11.9195 30.8304 11.7655 30.9955" stroke="#F8D45D" stroke-width="0.8225" stroke-miterlimit="10" stroke-linecap="round" stroke-linejoin="round"/>
<path d="M17.2258 14.529C17.0851 14.366 17.0974 14.1179 17.1779 13.9173C17.2585 13.7168 17.3951 13.5456 17.4899 13.3522C17.6684 12.9886 17.6867 12.5521 17.5419 12.1744" stroke="#F27C88" stroke-width="0.8225" stroke-miterlimit="10" stroke-linecap="round" stroke-linejoin="round"/>
<path d="M13.3287 27.8296C13.1879 27.6665 13.2002 27.4184 13.2807 27.2179C13.3613 27.0184 13.4979 26.8462 13.5927 26.6528C13.7712 26.2902 13.7895 25.8527 13.6447 25.4749" stroke="#F27C88" stroke-width="0.8225" stroke-miterlimit="10" stroke-linecap="round" stroke-linejoin="round"/>
<path d="M37.3827 18.5426C37.1951 18.65 36.9514 18.5922 36.7688 18.4768C36.5853 18.3623 36.4415 18.1973 36.2672 18.0686C35.9409 17.8276 35.5116 17.7294 35.1119 17.8023" stroke="#F27C88" stroke-width="0.8225" stroke-miterlimit="10" stroke-linecap="round" stroke-linejoin="round"/>
<path d="M35.5911 29.8308C35.4922 30.0222 35.2567 30.1053 35.0405 30.1063C34.8233 30.1073 34.6112 30.0476 34.3961 30.0334C33.9903 30.0081 33.5753 30.1559 33.2796 30.4334" stroke="#F27C88" stroke-width="0.8225" stroke-miterlimit="10" stroke-linecap="round" stroke-linejoin="round"/>
<path d="M24.1555 33.6307C24.0566 33.8221 23.8211 33.9052 23.6039 33.9062C23.3877 33.9082 23.1756 33.8474 22.9595 33.8343C22.5536 33.8089 22.1386 33.9568 21.8429 34.2343" stroke="#F27C88" stroke-width="0.8225" stroke-miterlimit="10" stroke-linecap="round" stroke-linejoin="round"/>
<path d="M21.4279 9.55235C21.8827 9.49665 22.2477 9.8896 22.6128 10.163C22.9788 10.4375 23.6192 10.5449 23.8027 10.1286" stroke="#4CBBE6" stroke-width="0.8225" stroke-miterlimit="10" stroke-linecap="round" stroke-linejoin="round"/>
<path d="M7.99275 23.7685C8.4465 23.7128 8.81156 24.1047 9.17763 24.3791C9.54267 24.6536 10.183 24.761 10.3676 24.3447" stroke="#4CBBE6" stroke-width="0.8225" stroke-miterlimit="10" stroke-linecap="round" stroke-linejoin="round"/>
<path d="M35.4637 15.7251C35.3903 15.2765 35.7696 14.8987 36.0306 14.524C36.2917 14.1503 36.3752 13.5102 35.949 13.3441" stroke="#4CBBE6" stroke-width="0.8225" stroke-miterlimit="10" stroke-linecap="round" stroke-linejoin="round"/>
<path d="M38.9295 30.2096C38.8561 29.761 39.2354 29.3832 39.4964 29.0085C39.7575 28.6338 39.8411 27.9947 39.4138 27.8286" stroke="#4CBBE6" stroke-width="0.8225" stroke-miterlimit="10" stroke-linecap="round" stroke-linejoin="round"/>
<path d="M27.394 33.1952C27.7662 33.4605 27.7672 33.9932 27.8508 34.4409C27.9334 34.8885 28.3311 35.399 28.7502 35.2156" stroke="#4CBBE6" stroke-width="0.8225" stroke-miterlimit="10" stroke-linecap="round" stroke-linejoin="round"/>
<path d="M27.5908 8.33196C27.8682 8.12941 28.2781 8.33803 28.4616 8.6287C28.6441 8.91835 28.6971 9.27281 28.8695 9.56955C29.0428 9.86528 29.4303 10.0982 29.726 9.92402" stroke="#67C7C6" stroke-width="0.8225" stroke-miterlimit="10" stroke-linecap="round" stroke-linejoin="round"/>
<path d="M35.5197 22.9076C35.8644 22.9228 36.051 23.3401 36.0112 23.6793C35.9704 24.0186 35.7889 24.3285 35.7369 24.6668C35.6849 25.005 35.8409 25.4274 36.1815 25.475" stroke="#67C7C6" stroke-width="0.8225" stroke-miterlimit="10" stroke-linecap="round" stroke-linejoin="round"/>
<path d="M11.6758 15.8051C11.9531 15.6025 12.3631 15.8112 12.5456 16.1008C12.7281 16.3905 12.7811 16.7459 12.9545 17.0417C13.1268 17.3374 13.5143 17.5703 13.81 17.3961" stroke="#67C7C6" stroke-width="0.8225" stroke-miterlimit="10" stroke-linecap="round" stroke-linejoin="round"/>
<path d="M17.6439 31.117C17.906 31.3398 17.7948 31.7824 17.5521 32.0255C17.3095 32.2685 16.975 32.4012 16.7232 32.6361C16.4733 32.8711 16.3326 33.2985 16.5722 33.5446" stroke="#67C7C6" stroke-width="0.8225" stroke-miterlimit="10" stroke-linecap="round" stroke-linejoin="round"/>
<path d="M38.743 14.9271C38.7011 14.8643 38.6277 14.8217 38.5217 14.8207C38.2759 14.8197 38.0751 15.2431 38.3208 15.3788C38.4462 15.4476 38.6135 15.3929 38.7032 15.2815C38.7939 15.1711 38.8062 15.0253 38.743 14.9271Z" fill="white"/>
<path d="M37.0401 27.6423C36.9993 27.5795 36.9259 27.5369 36.8188 27.5359C36.5741 27.5339 36.3722 27.9582 36.618 28.0939C36.7434 28.1628 36.9117 28.1081 37.0014 27.9967C37.0911 27.8843 37.1044 27.7395 37.0401 27.6423Z" fill="white"/>
<path d="M38.4554 24.8409C38.4136 24.7771 38.3402 24.7346 38.2341 24.7346C37.9884 24.7326 37.7875 25.1569 38.0333 25.2926C38.1587 25.3615 38.3259 25.3068 38.4156 25.1954C38.5064 25.083 38.5196 24.9372 38.4554 24.8409Z" fill="white"/>
<path d="M19.1663 36.7024C19.1255 36.6396 19.0521 36.5971 18.945 36.5961C18.6993 36.5951 18.4984 37.0184 18.7442 37.1541C18.8696 37.223 19.0378 37.1683 19.1276 37.0569C19.2173 36.9455 19.2306 36.7997 19.1663 36.7024Z" fill="white"/>
<path d="M37.3267 35.6532C37.2859 35.5904 37.2124 35.5479 37.1054 35.5469C36.8607 35.5458 36.6588 35.9692 36.9045 36.1049C37.0299 36.1738 37.1982 36.1191 37.2879 36.0077C37.3776 35.8963 37.3919 35.7504 37.3267 35.6532Z" fill="white"/>
<path d="M34.3604 39.6839C34.3196 39.6201 34.2462 39.5786 34.1391 39.5776C33.8934 39.5756 33.6925 39.9999 33.9383 40.1356C34.0637 40.2045 34.2319 40.1498 34.3217 40.0384C34.4114 39.926 34.4236 39.7801 34.3604 39.6839Z" fill="white"/>
<path d="M31.3523 35.9469C31.3105 35.8831 31.2371 35.8415 31.1311 35.8405C30.8854 35.8385 30.6845 36.2628 30.9292 36.3986C31.0546 36.4674 31.2228 36.4127 31.3126 36.3013C31.4023 36.1899 31.4156 36.0441 31.3523 35.9469Z" fill="white"/>
<path d="M19.7404 32.4377C19.6986 32.3749 19.6262 32.3323 19.5191 32.3313C19.2734 32.3303 19.0725 32.7537 19.3182 32.8894C19.4437 32.9582 19.6109 32.9035 19.7006 32.7921C19.7914 32.6807 19.8036 32.5349 19.7404 32.4377Z" fill="white"/>
<path d="M6.98737 32.4377C6.94658 32.3749 6.87315 32.3323 6.76609 32.3313C6.52035 32.3303 6.31948 32.7537 6.56522 32.8894C6.69064 32.9582 6.85889 32.9035 6.94862 32.7921C7.03836 32.6807 7.05161 32.5349 6.98737 32.4377Z" fill="white"/>
<path d="M11.1058 32.4377C11.064 32.3749 10.9906 32.3323 10.8845 32.3313C10.6388 32.3303 10.4379 32.7537 10.6826 32.8894C10.808 32.9582 10.9763 32.9035 11.066 32.7921C11.1558 32.6807 11.17 32.5349 11.1058 32.4377Z" fill="white"/>
<path d="M27.3543 39.0206C27.3135 38.9578 27.2401 38.9153 27.133 38.9143C26.8873 38.9133 26.6864 39.3366 26.9321 39.4723C27.0575 39.5412 27.2258 39.4865 27.3155 39.3751C27.4053 39.2647 27.4175 39.1189 27.3543 39.0206Z" fill="white"/>
<path d="M33.2632 14.0531C33.2224 13.9893 33.149 13.9467 33.042 13.9467C32.7962 13.9447 32.5954 14.369 32.8411 14.5047C32.9665 14.5736 33.1348 14.5189 33.2245 14.4075C33.3142 14.2951 33.3264 14.1503 33.2632 14.0531Z" fill="white"/>
<path d="M35.9888 10.2177C35.947 10.1549 35.8736 10.1124 35.7675 10.1114C35.5218 10.1104 35.3209 10.5337 35.5666 10.6684C35.6921 10.7373 35.8593 10.6826 35.949 10.5712C36.0387 10.4608 36.052 10.315 35.9888 10.2177Z" fill="white"/>
<path d="M30.6814 11.1089C30.6396 11.0451 30.5672 11.0036 30.4602 11.0026C30.2144 11.0006 30.0136 11.4249 30.2593 11.5606C30.3847 11.6295 30.553 11.5748 30.6417 11.4634C30.7324 11.351 30.7457 11.2062 30.6814 11.1089Z" fill="white"/>
<path d="M24.6847 8.0636C24.644 8.0008 24.5706 7.95827 24.4635 7.95726C24.2178 7.95624 24.0169 8.38059 24.2626 8.51529C24.388 8.58416 24.5563 8.52947 24.646 8.41806C24.7347 8.30666 24.748 8.16082 24.6847 8.0636Z" fill="white"/>
<path d="M23.246 12.1329C23.2052 12.0701 23.1318 12.0275 23.0247 12.0265C22.779 12.0255 22.5781 12.4488 22.8239 12.5846C22.9493 12.6534 23.1175 12.5987 23.2072 12.4873C23.297 12.3759 23.3103 12.2301 23.246 12.1329Z" fill="white"/>
<path d="M8.24056 17.2685C8.19875 17.2058 8.12532 17.1632 8.01928 17.1622C7.77354 17.1602 7.57267 17.5845 7.81841 17.7202C7.94383 17.7891 8.11106 17.7344 8.20079 17.623C8.29052 17.5116 8.30377 17.3668 8.24056 17.2685Z" fill="white"/>
<path d="M8.24056 19.7042C8.19875 19.6404 8.12532 19.5979 8.01928 19.5979C7.77354 19.5959 7.57267 20.0202 7.81841 20.1559C7.94383 20.2248 8.11106 20.1701 8.20079 20.0587C8.29052 19.9463 8.30377 19.8015 8.24056 19.7042Z" fill="white"/>
<path d="M16.0899 8.65201C16.0491 8.58922 15.9757 8.54669 15.8687 8.54567C15.6229 8.54365 15.422 8.96799 15.6678 9.1037C15.7932 9.17257 15.9615 9.11788 16.0512 9.00648C16.1409 8.89406 16.1532 8.74924 16.0899 8.65201Z" fill="white"/>
<path d="M27.3543 4.38726C27.3135 4.32447 27.2401 4.28193 27.133 4.28092C26.8873 4.27889 26.6864 4.70324 26.9321 4.83794C27.0575 4.9068 27.2258 4.85211 27.3155 4.74071C27.4053 4.62931 27.4175 4.48448 27.3543 4.38726Z" fill="white"/>
<path d="M39.5383 16.3419C39.265 16.0016 38.797 16.2457 38.8225 16.668C38.8307 16.8098 38.9214 16.9536 39.0591 16.987C39.2283 17.0275 39.3884 16.8979 39.5067 16.7713C39.5719 16.7014 39.6392 16.6174 39.6301 16.5222C39.625 16.4543 39.5811 16.3966 39.5383 16.3419Z" fill="white"/>
<path d="M35.9032 38.1496C35.6309 37.8093 35.1619 38.0534 35.1874 38.4757C35.1965 38.6175 35.2863 38.7613 35.4249 38.7948C35.5942 38.8353 35.7533 38.7067 35.8716 38.5801C35.9368 38.5102 36.0041 38.4261 35.996 38.3299C35.9898 38.261 35.946 38.2033 35.9032 38.1496Z" fill="white"/>
<path d="M28.9704 38.9629C28.6982 38.6226 28.2291 38.8667 28.2546 39.289C28.2638 39.4308 28.3535 39.5746 28.4912 39.608C28.6615 39.6485 28.8205 39.5199 28.9388 39.3933C29.0041 39.3234 29.0714 39.2394 29.0632 39.1432C29.0571 39.0743 29.0133 39.0166 28.9704 38.9629Z" fill="white"/>
<path d="M10.2472 34.5027C9.97498 34.1624 9.50594 34.4065 9.53143 34.8288C9.5406 34.9706 9.63034 35.1144 9.76901 35.1478C9.93828 35.1883 10.0973 35.0597 10.2156 34.9331C10.2809 34.8632 10.3482 34.7792 10.34 34.6829C10.3349 34.6141 10.2901 34.5563 10.2472 34.5027Z" fill="white"/>
<path d="M41.0667 24.3751C40.7945 24.0348 40.3254 24.2789 40.3509 24.7012C40.3601 24.843 40.4498 24.9868 40.5875 25.0202C40.7578 25.0607 40.9168 24.9321 41.0351 24.8055C41.1004 24.7356 41.1677 24.6516 41.1595 24.5554C41.1534 24.4865 41.1096 24.4288 41.0667 24.3751Z" fill="white"/>
<path d="M33.7333 9.7083C33.4601 9.36801 32.992 9.61209 33.0175 10.0344C33.0257 10.1762 33.1164 10.32 33.2541 10.3534C33.4234 10.3939 33.5834 10.2653 33.7017 10.1387C33.767 10.0688 33.8343 9.98478 33.8251 9.88958C33.82 9.8197 33.7762 9.76198 33.7333 9.7083Z" fill="white"/>
<path d="M30.7457 5.30885C30.4734 4.96857 30.0054 5.21264 30.0309 5.63496C30.0391 5.77675 30.1298 5.92056 30.2675 5.95398C30.4367 5.99449 30.5958 5.86587 30.7141 5.73928C30.7793 5.6694 30.8476 5.58533 30.8385 5.48912C30.8334 5.42127 30.7895 5.36354 30.7457 5.30885Z" fill="white"/>
<path d="M18.8257 9.30117C18.5534 8.96088 18.0854 9.20496 18.1109 9.62728C18.1191 9.76906 18.2098 9.91287 18.3475 9.94629C18.5167 9.98681 18.6758 9.85819 18.7951 9.73159C18.8594 9.66171 18.9277 9.57765 18.9185 9.48144C18.9124 9.41358 18.8695 9.35484 18.8257 9.30117Z" fill="white"/>
<path d="M26.1327 11.0502C25.8604 10.7099 25.3924 10.954 25.4179 11.3763C25.426 11.5181 25.5168 11.6619 25.6544 11.6953C25.8237 11.7359 25.9828 11.6062 26.1011 11.4796C26.1663 11.4097 26.2346 11.3257 26.2255 11.2305C26.2193 11.1626 26.1755 11.1039 26.1327 11.0502Z" fill="white"/>
<path d="M5.35891 18.3543C5.08666 18.014 4.61761 18.2581 4.64311 18.6804C4.65228 18.8222 4.74202 18.966 4.88069 18.9994C5.04996 19.0399 5.20904 18.9113 5.32733 18.7847C5.39258 18.7148 5.45986 18.6308 5.4517 18.5345C5.44457 18.4657 5.40072 18.408 5.35891 18.3543Z" fill="white"/>
<path d="M12.6475 22.779C12.3743 22.4387 11.9062 22.6827 11.9317 23.1051C11.9399 23.2469 12.0306 23.3907 12.1683 23.4241C12.3375 23.4646 12.4976 23.336 12.6159 23.2084C12.6812 23.1385 12.7485 23.0544 12.7393 22.9592C12.7342 22.8914 12.6904 22.8326 12.6475 22.779Z" fill="white"/>
<path d="M43.1561 24.1138C43.0613 23.3745 42.8155 22.6605 42.7044 21.9232C42.5453 20.8608 42.6707 19.7671 42.4698 18.7108C42.4301 18.5031 42.3781 18.2986 42.3179 18.097C42.1364 17.4954 41.8744 16.9172 41.6154 16.3439C41.4369 15.951 41.2554 15.558 41.0423 15.1833C41.0189 15.1975 40.9923 15.2076 40.9658 15.2147C41.0586 15.4406 41.1483 15.6684 41.232 15.8973C42.53 19.4673 43.0154 23.7543 41.3727 27.2959C41.1779 27.7172 40.9342 28.1041 40.7007 28.5041C40.4917 28.8606 40.3347 29.2435 40.194 29.6313C39.8932 30.4679 39.6749 31.3328 39.3537 32.1622C39.0692 32.8975 38.7062 33.6145 38.0771 34.1158C37.3389 34.7043 36.5548 35.236 35.7462 35.7241C34.9008 36.2345 34.0219 36.7034 33.096 37.0579C32.0611 37.4549 30.9435 37.5349 29.8637 37.7577C29.2804 37.8782 28.6972 38.0362 28.1588 38.2935C27.6704 38.5264 27.1972 38.7877 26.7119 39.0277C25.7411 39.5058 24.7378 39.8491 23.6416 39.8248C22.5853 39.8015 21.7073 39.3518 20.7805 38.8961C19.7149 38.3715 18.6289 37.8469 17.4359 37.7071C16.3357 37.5785 15.1549 37.6038 14.1373 37.1116C13.4031 36.7571 12.8627 36.1424 12.4355 35.4669C12.0123 34.7964 11.684 34.0693 11.22 33.4231C10.7275 32.7365 10.0647 32.2959 9.31526 31.9222C8.10084 31.3145 6.7508 30.8254 5.90549 29.7762C6.18386 30.5165 6.8497 31.1474 7.50433 31.5961C8.73813 32.4407 10.2799 32.9714 11.015 34.3265C11.6585 35.5124 11.9164 37.0083 13.0422 37.8752C14.0374 38.6398 15.4017 38.6328 16.6589 38.6955C17.5725 38.7411 18.5718 38.8718 19.3458 39.3984C20.1839 39.9686 20.9222 40.6421 21.9031 41.0046C23.4051 41.5596 25.0233 41.2153 26.563 41.0695C27.8274 40.951 29.0337 41.2264 30.2777 41.1748C31.4472 41.1272 32.1161 40.3838 32.8472 39.5463C33.8128 38.4373 34.703 37.7658 36.1265 37.3405C37.4531 36.9435 38.9714 36.7399 39.9564 35.6725C41.6745 33.812 41.0994 31.275 41.8101 29.0703C42.0793 28.2347 42.5769 27.4873 42.8767 26.6629C43.1693 25.8507 43.2662 24.9696 43.1561 24.1138Z" fill="#ECD3D5"/>
</svg>
