<svg width="53" height="43" viewBox="0 0 53 43" fill="none" xmlns="http://www.w3.org/2000/svg">
<path d="M51.0268 24.0185C50.7164 23.9158 50.4029 23.8223 50.0853 23.736C50.8946 23.2243 51.4233 22.3252 51.4314 21.3224C51.4376 20.5538 51.1456 19.8284 50.6078 19.2808C50.07 18.7331 49.3509 18.4279 48.5825 18.4207C47.7507 18.4146 46.8974 18.4752 46.0358 18.6006C45.9682 18.4403 45.8986 18.28 45.8289 18.1228C49.6305 10.5244 45.7163 3.84985 45.538 3.5529C44.9295 2.54287 43.8211 1.93973 42.645 1.9798C41.7087 2.01165 40.7878 2.11442 39.9068 2.27882C36.1267 2.99498 33.5001 4.80236 31.774 6.52752C28.3166 5.98398 25.2915 6.41343 24.0397 6.64975C23.8676 6.6816 23.7334 6.71037 23.6443 6.7299C23.5531 6.74428 23.4179 6.76588 23.2458 6.79876C21.994 7.03508 19.0221 7.74301 16.0011 9.51543C13.7648 8.5424 10.6629 7.82006 6.88386 8.53623C6.00389 8.70268 5.10957 8.9462 4.22551 9.25856C3.11504 9.65209 2.30267 10.618 2.10393 11.7831C2.04452 12.1243 0.828547 19.7719 7.12971 25.454C7.12254 25.6266 7.11638 25.8013 7.11126 25.9759C6.26305 26.1742 5.44556 26.4311 4.67316 26.7404C3.96119 27.026 3.40289 27.5747 3.10171 28.2806C2.80053 28.9875 2.79236 29.7705 3.07817 30.4825C3.45003 31.4134 4.27058 32.0587 5.20997 32.2375C4.94464 32.4348 4.68647 32.6372 4.43447 32.8468C3.8444 33.3359 3.47973 34.0263 3.40802 34.7908C3.33529 35.5573 3.56372 36.3053 4.05031 36.8941C4.71413 37.7027 5.76416 38.0839 6.7896 37.8918C6.57243 39.0138 7.0375 40.2088 8.05577 40.8674C8.67451 41.265 9.41312 41.4089 10.1364 41.2723C10.9057 41.1264 11.591 40.663 12.0172 39.9992C12.0243 39.9889 12.0315 39.9786 12.0387 39.9673C15.6631 42.3213 21.9888 43.6786 30.2814 42.2319L30.3552 42.2176L30.3747 42.2145C38.6222 40.5263 44.0178 36.9485 46.5368 33.4314C46.5481 33.4386 46.5593 33.4478 46.5716 33.4561C47.2068 33.9154 48.012 34.0962 48.7823 33.9493C49.5045 33.8126 50.1396 33.4088 50.576 32.8057C51.2808 31.8265 51.2798 30.5442 50.6683 29.5783C51.6937 29.3821 52.5317 28.6423 52.8554 27.6518C53.3512 26.1434 52.5306 24.5138 51.0268 24.0185Z" fill="#10181E"/>
<path d="M49.0538 22.0396C48.7444 21.9368 48.4309 21.8433 48.1134 21.757C48.9216 21.2474 49.4512 20.3463 49.4584 19.3445C49.4656 18.5759 49.1736 17.8505 48.6358 17.3018C48.098 16.7541 47.3789 16.449 46.6106 16.4428C45.7787 16.4366 44.9254 16.4973 44.0639 16.6216C43.9962 16.4623 43.9266 16.302 43.857 16.1438C47.6586 8.54752 43.7442 1.8709 43.565 1.57498C42.9575 0.564953 41.8481 -0.0381927 40.672 0.00187958C39.7368 0.0347594 38.8148 0.135446 37.9338 0.3019C34.1547 1.01806 31.5281 2.82437 29.802 4.54954C26.3446 4.00599 23.3185 4.4345 22.0667 4.67082C21.8956 4.7037 21.7614 4.73248 21.6712 4.75097C21.58 4.76536 21.4458 4.78795 21.2737 4.82083C20.0219 5.05716 17.0501 5.76609 14.0291 7.53852C11.7928 6.56342 8.6909 5.84214 4.91184 6.55831C4.03187 6.72579 3.13656 6.9683 2.25249 7.27964C1.14305 7.67317 0.32966 8.64001 0.131949 9.80416C0.0725327 10.1453 -1.14344 17.793 5.15772 23.476C5.15055 23.6497 5.1444 23.8223 5.13928 23.9969C4.29004 24.1952 3.47255 24.4522 2.70014 24.7635C1.9892 25.0481 1.4309 25.5968 1.12973 26.3027C0.828548 27.0106 0.819318 27.7915 1.10615 28.5046C1.47801 29.4355 2.29754 30.0797 3.23795 30.2596C2.97263 30.4568 2.71449 30.6603 2.46248 30.8689C1.87242 31.358 1.50774 32.0484 1.435 32.8139C1.3633 33.5783 1.59173 34.3274 2.07833 34.9172C2.74215 35.7238 3.79218 36.1049 4.81762 35.9149C4.60044 37.0348 5.06551 38.2309 6.08275 38.8895C6.7015 39.2871 7.44113 39.431 8.16334 39.2954C8.9337 39.1484 9.61903 38.687 10.0452 38.0233C10.0524 38.012 10.0595 38.0017 10.0667 37.9904C13.69 40.3434 20.0168 41.7017 28.3094 40.255L28.3822 40.2406L28.4027 40.2376C36.6502 38.5494 42.0458 34.9706 44.5638 31.4545C44.5761 31.4627 44.5874 31.4709 44.5986 31.4781C45.2338 31.9395 46.04 32.1183 46.8103 31.9724C47.5325 31.8357 48.1677 31.4319 48.6041 30.8298C49.3088 29.8485 49.3079 28.5662 48.6963 27.6004C49.7217 27.4041 50.5597 26.6654 50.8834 25.6738C51.3782 24.1644 50.5587 22.5348 49.0538 22.0396Z" fill="white"/>
<path d="M40.7837 3.26006C35.423 3.44296 32.4153 6.24288 30.9903 8.12731C26.5137 6.92514 22.2756 7.95679 22.2756 7.95679C22.2756 7.95679 17.9547 8.54657 14.2237 11.3044C12.2118 10.0724 8.39484 8.56302 3.33527 10.3539C3.33527 10.3539 2.12544 17.4066 8.53314 22.0191C7.9523 27.0908 9.05353 32.1779 10.2582 33.8373C12.0131 36.256 18.1073 38.722 27.7522 37.039C37.3448 35.0775 42.1226 30.5514 42.8776 27.6569C43.396 25.6708 42.5713 20.5312 40.1854 16.0205C44.4746 9.38497 40.7837 3.26006 40.7837 3.26006Z" fill="white"/>
<path d="M24.0366 12.2819C24.3286 12.0589 24.3522 11.6335 24.3501 11.2647C24.3409 10.0584 24.3316 8.85006 24.3245 7.64378C23.0665 7.76502 22.2766 7.95822 22.2766 7.95822C22.2766 7.95822 22.0953 7.98184 21.7808 8.04452C21.9816 9.21278 22.0943 10.4047 22.5778 11.4805C22.709 11.7733 22.877 12.0641 23.1392 12.248C23.4015 12.4288 23.7815 12.4761 24.0366 12.2819Z" fill="#94A1A1"/>
<path d="M18.1944 9.11994C18.4597 10.0396 18.7415 10.953 19.0314 11.8634C19.185 12.3504 19.4862 12.9402 19.9923 12.8929C20.3221 12.8611 20.5629 12.5374 20.6192 12.2096C20.6755 11.8829 20.5936 11.5479 20.5239 11.2222C20.3313 10.2985 20.2555 9.34913 20.2883 8.40589C19.6788 8.57748 18.9648 8.81067 18.1944 9.11994Z" fill="#94A1A1"/>
<path d="M27.7665 11.1965C27.8945 11.0157 27.9119 10.7835 27.9191 10.5615C27.958 9.57307 27.9243 8.58464 27.8249 7.60133C27.0617 7.54379 26.3416 7.53659 25.687 7.55611C25.6911 7.57769 25.6962 7.60032 25.6992 7.6219C25.8263 8.37403 25.9543 9.12921 26.0813 9.88134C26.1581 10.3355 26.2483 10.8174 26.5638 11.1523C26.8783 11.4883 27.4991 11.5715 27.7665 11.1965Z" fill="#94A1A1"/>
<path d="M9.70101 18.6181C9.70101 18.6181 11.968 15.3568 12.0274 14.1084C12.0869 12.858 6.6964 11.403 6.0838 12.5209C5.47018 13.6388 7.5395 18.3787 9.70101 18.6181Z" fill="#94A1A1"/>
<path d="M37.7484 13.3048C37.7484 13.3048 34.4508 11.0988 33.9417 9.95626C33.4326 8.81369 37.9225 5.48461 38.8988 6.30352C39.8761 7.12038 39.6743 12.2907 37.7484 13.3048Z" fill="#3B3432"/>
<path d="M11.3391 24.9412C11.5163 24.5179 11.5111 23.9857 11.21 23.6384C10.1927 23.699 9.25947 24.1316 8.37746 24.6679C8.36824 25.7694 8.4297 26.8411 8.54137 27.8491C9.21338 27.2624 9.87413 26.6602 10.5072 26.0304C10.834 25.7057 11.1618 25.3666 11.3391 24.9412Z" fill="#94A1A1"/>
<path d="M14.8466 31.803C15.113 31.3458 15.0197 30.6306 14.5249 30.4467C14.2309 30.3368 13.9021 30.4426 13.6173 30.5782C12.2395 31.2358 11.2325 32.5397 9.96426 33.3483C10.0616 33.5312 10.1589 33.6997 10.2593 33.8384C10.4744 34.1354 10.7562 34.4334 11.1014 34.7231C11.8728 33.9926 12.722 33.3422 13.6347 32.7986C14.0875 32.5274 14.5803 32.2602 14.8466 31.803Z" fill="#94A1A1"/>
<path d="M9.18982 31.3148C9.44695 31.0014 9.74814 30.723 10.0616 30.464C10.7367 29.9051 13.4934 28.6783 13.2547 27.6107C12.888 25.9719 10.4581 27.8038 9.88848 28.2652C9.48588 28.5899 9.1796 29.0204 8.78622 29.3575C8.777 29.3647 8.76675 29.3718 8.75855 29.379C8.88046 30.0788 9.02591 30.7291 9.18982 31.3148Z" fill="#94A1A1"/>
<path d="M38.2842 18.5091C38.1295 18.9427 38.3179 19.439 38.6375 19.7699C38.9572 20.1007 39.3854 20.298 39.8075 20.4788C40.627 20.8333 41.4598 21.1529 42.2998 21.4529C42.0386 20.4737 41.7057 19.4544 41.2969 18.431C40.2787 18.2563 39.2522 18.1936 38.2842 18.5091Z" fill="#94A1A1"/>
<path d="M42.8777 27.6581C42.9207 27.4937 42.9514 27.2994 42.9759 27.095C41.4998 26.8052 40.0882 25.9596 38.5649 25.8507C38.2514 25.8291 37.9051 25.8496 37.6726 26.0602C37.2792 26.4147 37.4513 27.1124 37.8662 27.4423C38.2801 27.77 38.8343 27.8399 39.3557 27.9252C40.4037 28.0978 41.4301 28.3917 42.4146 28.7913C42.6318 28.3927 42.7855 28.0125 42.8777 27.6581Z" fill="#94A1A1"/>
<path d="M41.1945 22.3335C40.4969 22.1115 37.5691 21.2946 37.8232 22.9561C37.9891 24.036 41.0019 24.1706 41.8337 24.4429C42.2189 24.5693 42.6021 24.7213 42.9555 24.9176C42.8951 24.3134 42.7936 23.6538 42.6532 22.9561C42.642 22.954 42.6308 22.951 42.6195 22.9459C42.1308 22.7784 41.6883 22.4886 41.1945 22.3335Z" fill="#94A1A1"/>
<path d="M27.8597 37.6042C27.8567 37.6042 27.8536 37.6062 27.8516 37.6062C18.3563 39.2615 11.8349 36.9887 9.79425 34.1754C8.47686 32.3577 7.43706 27.1987 7.92775 22.2862C1.60918 17.5176 2.75857 10.3293 2.77086 10.2563C2.80569 10.0508 2.9491 9.88233 3.14476 9.81143C3.89873 9.54428 4.66092 9.33772 5.40977 9.1949C9.26873 8.46435 12.2692 9.51654 14.1931 10.617C17.212 8.49521 20.4778 7.70404 21.7717 7.45949C21.9755 7.41942 22.1128 7.39885 22.1691 7.39063C22.2255 7.37728 22.3607 7.3475 22.5646 7.30948C23.8594 7.06391 27.1877 6.60462 30.7701 7.47799C32.1613 5.74769 34.5738 3.67111 38.4317 2.94056C39.1795 2.79774 39.9652 2.71243 40.7643 2.68469C40.9712 2.6775 41.1679 2.78435 41.2745 2.96314C41.3124 3.02787 44.9971 9.29767 40.8462 16.0493C43.0907 20.4439 43.9983 25.6297 43.4318 27.8029C42.5549 31.169 37.3089 35.6714 27.8669 37.6031C27.8649 37.6031 27.8618 37.6042 27.8597 37.6042ZM3.8588 10.7845C3.71436 12.2004 3.53917 17.7169 8.86816 21.5516C9.03719 21.6738 9.12734 21.8773 9.10276 22.0859C8.51884 27.1925 9.68874 32.0773 10.7213 33.4993C12.2559 35.6139 18.0295 38.1498 27.6457 36.4749C37.2096 34.5165 41.6637 30.0407 42.3224 27.5121C42.7659 25.8085 42.0796 20.8334 39.6774 16.2918C39.5801 16.1069 39.5903 15.885 39.703 15.7082C43.2331 10.2481 41.0798 5.11168 40.4488 3.85197C39.83 3.88794 39.2256 3.95981 38.6437 4.07078C37.2587 4.33382 35.9188 4.82089 34.7079 5.5463C33.6579 6.1741 32.6816 6.48543 33.2891 7.90645C33.5196 8.44178 33.8813 8.90824 34.1712 9.41377C34.4959 9.98197 34.7285 10.5944 34.96 11.2067C32.1101 7.89512 26.7718 7.68348 22.7756 8.44177C22.5451 8.48493 22.416 8.51472 22.4089 8.51678C22.3904 8.52089 22.371 8.52601 22.3525 8.52807C22.3443 8.52909 22.2132 8.5476 21.9837 8.59178C18.8562 9.18362 15.4275 10.5625 13.3192 13.0264C12.9617 13.4436 12.6493 13.8968 12.3358 14.3468C11.9834 14.8564 11.631 15.3661 11.2786 15.8747C11.1772 14.9181 11.4702 13.9707 11.6269 13.0224C11.7304 12.3987 11.8851 11.3054 11.462 10.7546C11.1526 10.3529 10.5748 10.3878 10.1108 10.3128C8.6049 10.0744 7.12768 10.0426 5.62179 10.3283C5.03993 10.4372 4.44784 10.5903 3.8588 10.7845Z" fill="#94A1A1"/>
<path d="M30.3654 29.1253C30.3265 29.1335 30.2866 29.1397 30.2466 29.1469C28.2521 29.4695 26.8251 28.554 25.9666 27.5583C25.5302 28.7985 24.5365 30.1743 22.5615 30.6028C22.5215 30.6121 22.4826 30.6193 22.4427 30.6265C20.1552 31.0601 18.8582 29.4705 18.4894 28.555C18.3706 28.2601 18.513 27.9241 18.807 27.806C19.098 27.6878 19.435 27.8276 19.5538 28.1235C19.6286 28.3013 20.3364 29.8538 22.2316 29.4962C22.2603 29.4901 22.29 29.4829 22.3208 29.4777C25.0109 28.8931 25.1071 26.1445 25.1102 26.0284C25.1163 25.7572 25.311 25.527 25.5763 25.4766C25.5773 25.4766 25.5784 25.4767 25.5794 25.4746C25.8457 25.4263 26.1111 25.5701 26.2135 25.8219C26.2586 25.9287 27.3465 28.4512 30.0643 28.0094C30.094 28.0053 30.1247 27.9991 30.1534 27.994C32.1059 27.6241 32.1469 25.8157 32.148 25.7376C32.1521 25.4181 32.4112 25.1653 32.7267 25.1674C33.0443 25.1715 33.2983 25.4325 33.2942 25.7489C33.283 26.7394 32.6529 28.6917 30.3654 29.1253Z" fill="#3B3432"/>
<path d="M26.8343 22.9418C25.6757 22.5175 24.4064 22.7579 23.4824 23.5768C23.0583 23.9518 22.7612 24.4122 22.9517 24.8992C23.2006 25.5404 23.972 26.0058 24.6502 26.3038C25.3745 26.6223 26.1796 26.4703 26.7369 25.9082C27.2614 25.3821 27.8105 24.667 27.8095 23.9796C27.8085 23.4566 27.3649 23.135 26.8343 22.9418Z" fill="#3B3432"/>
<path d="M15.7522 27.3108C15.7225 27.3159 15.6907 27.3159 15.66 27.3056C15.5975 27.2851 9.33936 25.4017 3.83827 27.6108C3.7389 27.6488 3.63034 27.6026 3.59039 27.5039C3.55043 27.4053 3.59855 27.2943 3.6969 27.2553C9.32912 24.9958 15.7102 26.9193 15.7737 26.9388C15.8751 26.9696 15.9304 27.0775 15.8997 27.1782C15.8782 27.2491 15.8198 27.2974 15.7522 27.3108Z" fill="#3B3432"/>
<path d="M4.32693 33.2713C4.26137 33.2857 4.18964 33.261 4.14354 33.2055C4.07696 33.1233 4.08719 33.0031 4.16915 32.9342C9.59034 28.439 16.6363 28.6938 16.7059 28.6969C16.8114 28.701 16.8934 28.7904 16.8883 28.8962C16.8842 29.001 16.7991 29.0832 16.6895 29.0801C16.6209 29.0771 9.71635 28.8325 4.41296 33.2312C4.38838 33.2528 4.35766 33.2661 4.32693 33.2713Z" fill="#3B3432"/>
<path d="M7.66857 36.6527C7.62247 36.6619 7.57226 36.6527 7.52923 36.627C7.44011 36.5684 7.41452 36.4503 7.47086 36.3619C10.4058 31.7772 15.7727 30.6059 15.826 30.5946C15.9264 30.5658 16.0298 30.6398 16.0524 30.7436C16.0749 30.8474 16.0083 30.9481 15.9038 30.9707C15.8516 30.983 10.6394 32.1245 7.79253 36.5695C7.76384 36.6147 7.71774 36.6434 7.66857 36.6527Z" fill="#3B3432"/>
<path d="M35.3881 23.5892C35.4178 23.584 35.4466 23.5707 35.4722 23.5512C35.5234 23.5111 40.6649 19.4679 46.5901 19.5111C46.6966 19.5111 46.7827 19.4268 46.7827 19.3199C46.7837 19.2141 46.6977 19.1267 46.5921 19.1267C40.5256 19.0826 35.2847 23.209 35.2324 23.2501C35.1505 23.3158 35.1362 23.4381 35.2027 23.5203C35.2499 23.5789 35.3215 23.6025 35.3881 23.5892Z" fill="#3B3432"/>
<path d="M48.1943 24.9619C48.2599 24.9496 48.3182 24.9013 48.3407 24.8335C48.3735 24.7307 48.3193 24.6238 48.2189 24.5909C41.5377 22.389 35.0685 25.2034 35.005 25.2311C34.9077 25.2743 34.8646 25.3862 34.9077 25.4839C34.9497 25.5804 35.0582 25.6257 35.1596 25.5825C35.2231 25.5548 41.5622 22.8011 48.1 24.9568C48.1318 24.965 48.1636 24.967 48.1943 24.9619Z" fill="#3B3432"/>
<path d="M46.3135 29.3318C46.3596 29.3235 46.4036 29.2958 46.4323 29.2558C46.4948 29.1694 46.4753 29.0492 46.3903 28.9865C41.9894 25.7941 36.5672 26.6644 36.5129 26.6747C36.4085 26.6829 36.3388 26.7908 36.3562 26.8956C36.3746 27.0004 36.473 27.0702 36.5775 27.0528C36.6297 27.0435 41.8983 26.201 46.165 29.2989C46.2111 29.3308 46.2643 29.342 46.3135 29.3318Z" fill="#3B3432"/>
<path d="M38.1315 11.0988C35.8061 9.29352 30.599 10.6313 27.9212 12.0174C26.4502 12.7788 25.7874 13.607 25.6235 14.841C25.0006 14.6067 24.2794 14.5338 23.5408 14.6725C22.8022 14.8133 22.1579 15.1451 21.6631 15.5921C21.0617 14.5019 20.1439 13.9748 18.4956 13.8042C15.4992 13.4929 10.164 14.1535 8.65611 16.6843C6.43211 20.4151 8.21972 26.2914 12.3491 26.5359C14.5721 26.6685 20.192 24.2518 21.6016 21.0183C22.204 19.6342 22.4386 18.244 22.1548 16.935C22.4734 16.4469 23.0563 16.0565 23.7754 15.9199C24.4946 15.7832 25.1799 15.9353 25.6532 16.2733C25.8652 17.5957 26.5885 18.804 27.6529 19.8716C30.1412 22.3674 36.2538 22.5606 38.2749 21.6245C42.0315 19.8839 41.5592 13.759 38.1315 11.0988Z" fill="#161417"/>
<path d="M39.7183 16.8918C39.708 16.8949 39.6968 16.897 39.6865 16.898C39.373 16.9391 39.0842 16.7182 39.0432 16.4027C39.0401 16.3822 38.7236 14.2049 37.0394 13.0531C34.9363 11.6146 32.9346 12.2805 32.8516 12.3103C32.5546 12.411 32.2258 12.2558 32.1213 11.9557C32.0168 11.6578 32.1714 11.3311 32.4695 11.2242C32.5751 11.1862 35.0859 10.3221 37.6869 12.1017C39.8013 13.5484 40.166 16.1428 40.1813 16.2517C40.2203 16.5569 40.0154 16.8353 39.7183 16.8918Z" fill="white"/>
<path d="M20.8179 19.701C20.7554 19.7112 20.6919 19.7133 20.6264 19.703C20.3119 19.6568 20.0957 19.3639 20.1428 19.0495C20.1449 19.0341 20.3651 17.4302 19.5815 16.3513C18.9781 15.5201 16.8493 15.555 16.1507 15.6321C15.8362 15.667 15.5524 15.4389 15.5176 15.1255C15.4828 14.808 15.7143 14.5234 16.0237 14.4895C16.3669 14.4515 19.4073 14.1566 20.5086 15.6742C21.5719 17.1394 21.2892 19.1348 21.2769 19.2191C21.241 19.4688 21.0504 19.6558 20.8179 19.701Z" fill="white"/>
</svg>
