<svg width="32" height="49" viewBox="0 0 32 49" fill="none" xmlns="http://www.w3.org/2000/svg">
<path d="M9.17387 9.10737C8.81747 9.76966 8.43394 10.4825 8.15647 11.2436C5.41133 11.4977 2.6292 12.1365 1.42558 13.607H0.770755V45.438L1.91888 46.025C3.83652 47.0131 7.31541 47.6025 11.2259 47.6025C12.3617 47.6025 13.4901 47.5519 14.5568 47.4531L14.97 47.6649C16.5916 48.5001 19.5082 49 22.7713 49C26.0344 49 28.9521 48.5001 30.5689 47.6672L31.7047 47.0849V20.4392H30.9672C30.4234 19.8534 29.4997 19.3087 27.9754 18.9347C27.1208 18.7241 26.1207 18.57 25.0478 18.4794C25.2759 18.0912 25.4967 17.6889 25.6693 17.2642C26.1416 16.1032 26.1256 14.9256 25.6262 13.9516C25.3758 13.4623 25.0589 13.0717 24.8048 12.7564C24.6593 12.5788 24.441 12.3082 24.4151 12.2224C24.3103 11.0954 23.3324 10.2461 22.1411 10.2461C21.506 10.2461 20.9005 10.499 20.4787 10.939C20.0619 11.3754 19.8547 11.9683 19.9127 12.5647C19.9164 12.6106 19.9226 12.6564 19.9275 12.7011C18.1924 11.6695 15.4645 11.2918 13.2792 11.1636C13.3014 11.1272 13.3236 11.0895 13.3446 11.0542C13.7072 10.4484 14.0833 9.82378 14.3509 9.16502C14.8898 7.83927 14.8762 6.55701 14.3127 5.45947C14.0266 4.9007 13.6714 4.46195 13.3582 4.07493C13.0659 3.71261 12.8118 3.40086 12.7933 3.20088C12.6836 2.04805 11.6797 1.17636 10.4564 1.17636C9.8065 1.17636 9.18619 1.43397 8.7558 1.88451C8.33034 2.32918 8.11947 2.93621 8.17743 3.54674C8.31062 4.95131 8.96176 5.88884 9.64496 6.69229C10.0766 7.1993 10.1543 7.29106 9.24293 8.97913L9.17387 9.10737ZM10.4305 14.9374C10.7043 14.9303 10.9707 14.9257 11.2259 14.9257C14.399 14.9257 16.5929 15.4032 17.4956 15.7785L17.0899 17.4301H17.6744V22.6837L19.9522 22.3838C20.4935 22.312 21.0756 22.2614 21.6811 22.2343L22.13 22.2167C22.3446 22.2108 22.5592 22.2073 22.7725 22.2073C25.0157 22.2073 26.6682 22.5096 27.4896 22.7755L27.1257 24.26H27.698V44.6463C26.5942 44.9416 24.8813 45.1745 22.7725 45.1745C20.6649 45.1745 18.952 44.9428 17.8471 44.6463V43.1394L15.5348 43.4841C14.2362 43.677 12.7465 43.7782 11.2272 43.7782C8.41913 43.7782 6.15742 43.4394 4.77992 43.0253V17.4289H5.35953L4.9575 15.7797C5.67893 15.482 7.29322 15.0786 9.87556 14.9574L10.4305 14.9374Z" fill="#6B5951"/>
<path d="M8.40311 7.93101C8.04671 8.5933 7.66319 9.30618 7.38571 10.0673C4.64058 10.3214 1.85844 10.9601 0.654825 12.4306H0V44.2616L1.14812 44.8486C3.06577 45.8368 6.54466 46.4261 10.4552 46.4261C11.591 46.4261 12.7194 46.3756 13.7861 46.2768L14.1992 46.4885C15.8209 47.3237 18.7374 47.8236 22.0005 47.8236C25.2636 47.8236 28.1814 47.3237 29.7981 46.4908L30.9339 45.9085V19.2629H30.1965C29.6526 18.677 28.7289 18.1324 27.2047 17.7583C26.3501 17.5477 25.3499 17.3936 24.277 17.3031C24.5052 16.9149 24.7259 16.5125 24.8986 16.0879C25.3709 14.9268 25.3549 13.7493 24.8554 12.7753C24.6051 12.2859 24.2881 11.8953 24.0341 11.5801C23.8886 11.4024 23.6703 11.1319 23.6444 11.046C23.5396 9.91907 22.5616 9.06971 21.3703 9.06971C20.7352 9.06971 20.1297 9.32265 19.708 9.76261C19.2911 10.199 19.084 10.7919 19.1419 11.3883C19.1456 11.4342 19.1518 11.4801 19.1567 11.5248C17.4216 10.4931 14.6937 10.1155 12.5085 9.98727C12.5307 9.9508 12.5529 9.91317 12.5738 9.87788C12.9364 9.27206 13.3125 8.64742 13.5801 7.98866C14.1191 6.66291 14.1055 5.38065 13.5419 4.28311C13.2558 3.72434 12.9006 3.28559 12.5874 2.89857C12.2951 2.53625 12.0411 2.2245 12.0226 2.02452C11.9128 0.871691 10.909 0 9.68564 0C9.03574 0 8.41544 0.25761 7.98505 0.708155C7.55959 1.15282 7.34871 1.75985 7.40668 2.37038C7.53986 3.77495 8.191 4.71248 8.8742 5.51594C9.30583 6.02295 9.38351 6.1147 8.47217 7.80278L8.40311 7.93101ZM9.65975 13.761C9.93352 13.754 10.1999 13.7493 10.4552 13.7493C13.6282 13.7493 15.8221 14.2269 16.7248 14.6021L16.3191 16.2538H16.9037V21.5073L19.1814 21.2074C19.7228 21.1356 20.3049 21.085 20.9104 21.058L21.3592 21.0404C21.5738 21.0345 21.7884 21.0309 22.0017 21.0309C24.245 21.0309 25.8975 21.3332 26.7188 21.5991L26.355 23.0837H26.9272V43.47C25.8235 43.7652 24.1105 43.9981 22.0017 43.9981C19.8942 43.9981 18.1813 43.7664 17.0763 43.47V41.963L14.764 42.3077C13.4655 42.5006 11.9757 42.6018 10.4564 42.6018C7.64838 42.6018 5.38667 42.263 4.00917 41.8489V16.2526H4.58878L4.18675 14.6033C4.90818 14.3057 6.52246 13.9022 9.10481 13.781L9.65975 13.761Z" fill="white"/>
<path d="M2.18953 14.5188V40.8433V43.0125C3.71625 43.7983 6.83999 44.3383 10.4558 44.3383C14.0728 44.3383 17.1965 43.7983 18.7232 43.0125V40.8433V14.5188H2.18953Z" fill="#E59CA7"/>
<path d="M4.21638 14.5194V40.8439V43.0131C5.55442 43.7989 8.29585 44.3388 11.4689 44.3388C14.642 44.3388 17.3834 43.7989 18.7227 43.0131V40.8439V14.5194H4.21638Z" fill="#C52831"/>
<path d="M10.1518 41.5384C12.5431 41.5384 14.4816 39.6892 14.4816 37.4082C14.4816 35.1272 12.5431 33.278 10.1518 33.278C7.76054 33.278 5.82201 35.1272 5.82201 37.4082C5.82201 39.6892 7.76054 41.5384 10.1518 41.5384Z" fill="#FB921D"/>
<path d="M18.7214 29.6536V25.4105C11.2913 26.6916 5.50012 26.0151 2.1877 25.3164V29.5901C4.3187 29.9901 7.09466 30.3277 10.4243 30.3277C12.9031 30.3265 15.684 30.1395 18.7214 29.6536Z" fill="#FB921D"/>
<path d="M18.7214 23.9354V19.6922C11.2913 20.9721 5.50012 20.2957 2.1877 19.5981V23.8718C4.3187 24.2718 7.09466 24.6094 10.4243 24.6094C12.9031 24.6082 15.684 24.42 18.7214 23.9354Z" fill="#FB921D"/>
<path d="M18.7214 40.8439V14.5194H10.3985C12.3272 18.7589 14.4619 25.5947 14.1289 34.6762C13.9773 38.7994 13.5173 41.905 12.9167 44.2518C15.4546 44.0683 17.556 43.613 18.7214 43.0131V40.8439Z" fill="#BABABA"/>
<path d="M10.4552 44.5146C6.91586 44.5146 3.71443 43.9982 2.10139 43.1665L2.00397 43.1171V14.3422H18.9076V43.1171L18.8102 43.1665C17.1959 43.997 13.9945 44.5146 10.4552 44.5146ZM2.37392 42.9053C3.96723 43.6817 7.04411 44.1617 10.4552 44.1617C13.8675 44.1617 16.9431 43.6817 18.5364 42.9053V14.6963H2.37392V42.9053Z" fill="#231F20"/>
<path d="M10.4559 16.2986C15.0021 16.2986 18.6876 15.3395 18.6876 14.1564C18.6876 12.9734 15.0021 12.0143 10.4559 12.0143C5.90964 12.0143 2.22418 12.9734 2.22418 14.1564C2.22418 15.3395 5.90964 16.2986 10.4559 16.2986Z" fill="#7F7D7D"/>
<path d="M18.0024 15.0115C16.7347 14.2528 13.8342 13.7234 10.4552 13.7234C7.07742 13.7234 4.1769 14.2528 2.90915 15.0115C4.1769 15.7703 7.07742 16.2997 10.4552 16.2997C13.833 16.2985 16.7335 15.7691 18.0024 15.0115Z" fill="#AAA3A4"/>
<path d="M10.4552 16.4761C6.37572 16.4761 2.03851 15.6644 2.03851 14.1563C2.03851 12.6517 6.37572 11.8377 10.4552 11.8377C14.5359 11.8377 18.8719 12.6505 18.8719 14.1563C18.8719 15.6632 14.5359 16.4761 10.4552 16.4761ZM10.4552 12.1918C5.71472 12.1918 2.4097 13.2281 2.4097 14.1563C2.4097 15.0868 5.71472 16.1231 10.4552 16.1231C15.1969 16.1231 18.5007 15.0868 18.5007 14.1563C18.5007 13.2281 15.1969 12.1918 10.4552 12.1918Z" fill="#231F20"/>
<path d="M11.7414 5.12066C11.2161 4.09605 10.1407 3.40201 10.026 2.19624C9.99026 1.81746 9.36503 1.8151 9.40202 2.19624C9.48342 3.05498 9.86572 3.64786 10.4293 4.31015C11.8006 5.92059 11.057 7.18637 10.1851 8.80503C9.15537 10.719 8.154 12.6247 10.116 14.3092C10.4145 14.5668 10.8572 14.1457 10.5575 13.8892C8.1762 11.8471 10.8584 9.39085 11.7106 7.29693C11.9918 6.60641 12.0978 5.81471 11.7414 5.12066Z" fill="#231F20"/>
<path d="M15.2233 21.3181V42.9019V44.6782C16.475 45.324 19.0351 45.7675 22.001 45.7675C24.9669 45.7675 27.527 45.324 28.7787 44.6782V42.9019V21.3181H15.2233Z" fill="#E59CA7"/>
<path d="M16.8851 21.3186V42.9024V44.6787C17.9827 45.3245 20.2296 45.768 22.8317 45.768C25.4338 45.768 27.6807 45.3245 28.7783 44.6787V42.9024V21.3186H16.8851Z" fill="#C52831"/>
<path d="M21.7514 43.4711C23.7123 43.4711 25.3018 41.9548 25.3018 40.0844C25.3018 38.214 23.7123 36.6977 21.7514 36.6977C19.7906 36.6977 18.201 38.214 18.201 40.0844C18.201 41.9548 19.7906 43.4711 21.7514 43.4711Z" fill="#FB921D"/>
<path d="M28.7783 33.7262V30.2465C22.6862 31.2982 17.9396 30.743 15.2228 30.1713V33.6756C16.9703 34.0015 19.2455 34.2803 21.9759 34.2803C24.007 34.2791 26.2872 34.125 28.7783 33.7262Z" fill="#FB921D"/>
<path d="M28.7783 29.0384V25.5575C22.6862 26.6092 17.9396 26.054 15.2228 25.4823V28.9866C16.9703 29.3148 19.2455 29.5913 21.9759 29.5913C24.007 29.5889 26.2872 29.4348 28.7783 29.0384Z" fill="#FB921D"/>
<path d="M28.7783 42.9024V21.3186H21.9537C23.5359 24.7947 25.2858 30.3989 25.0133 37.8441C24.8887 41.2249 24.5114 43.7706 24.0181 45.6939C26.0997 45.5445 27.8225 45.1716 28.777 44.6787V42.9024H28.7783Z" fill="#BABABA"/>
<path d="M21.9993 45.9109C19.0975 45.9109 16.4733 45.4874 15.15 44.8063L15.0699 44.7651V21.1732H28.9287V44.7651L28.8498 44.8063C27.5266 45.4874 24.9023 45.9109 21.9993 45.9109ZM15.3745 44.5898C16.6804 45.2262 19.2024 45.6215 21.9993 45.6215C24.7974 45.6215 27.3181 45.2262 28.6253 44.5898V21.4626H15.3745V44.5898Z" fill="#231F20"/>
<path d="M22.0011 22.7768C25.728 22.7768 28.7492 21.991 28.7492 21.0216C28.7492 20.0523 25.728 19.2665 22.0011 19.2665C18.2742 19.2665 15.253 20.0523 15.253 21.0216C15.253 21.991 18.2742 22.7768 22.0011 22.7768Z" fill="#7F7D7D"/>
<path d="M28.1876 21.7214C27.148 21.1003 24.7703 20.6662 21.9993 20.6662C19.2295 20.6662 16.8519 21.1003 15.8123 21.7214C16.8519 22.3425 19.2295 22.7766 21.9993 22.7766C24.7703 22.7766 27.148 22.3425 28.1876 21.7214Z" fill="#AAA3A4"/>
<path d="M21.9984 22.9213C18.6539 22.9213 15.0985 22.2555 15.0985 21.0215C15.0985 19.7863 18.6539 19.1205 21.9984 19.1205C25.3441 19.1205 28.8994 19.7863 28.8994 21.0215C28.8994 22.2555 25.3441 22.9213 21.9984 22.9213ZM21.9984 19.4099C18.1113 19.4099 15.4019 20.2592 15.4019 21.0215C15.4019 21.7826 18.1113 22.632 21.9984 22.632C25.8867 22.632 28.5961 21.7826 28.5961 21.0215C28.5961 20.2592 25.8867 19.4099 21.9984 19.4099Z" fill="#231F20"/>
<path d="M23.0549 13.6117C22.6245 12.7706 21.7428 12.2035 21.6479 11.2142C21.6195 10.9025 21.1077 10.9001 21.1373 11.2142C21.2039 11.9189 21.5171 12.4047 21.9796 12.9482C23.1043 14.2669 22.4938 15.3056 21.7798 16.6325C20.935 18.2018 20.1137 19.7652 21.7243 21.1462C21.9685 21.3556 22.331 21.0121 22.0856 20.8016C20.1335 19.1264 22.3323 17.1125 23.0303 15.3962C23.2596 14.8292 23.3472 14.1822 23.0549 13.6117Z" fill="#231F20"/>
</svg>
