<svg width="45" height="33" viewBox="0 0 45 33" fill="none" xmlns="http://www.w3.org/2000/svg">
<path d="M18.1486 31.6535C17.6376 31.4972 17.2069 31.1467 16.9671 30.6912C16.7282 30.2397 16.6861 29.7154 16.8466 29.2143C16.9455 28.9104 17.062 28.6249 17.1726 28.3482C17.1991 28.286 17.2226 28.2249 17.248 28.1637C17.1031 28.1035 16.9592 28.0443 16.8163 27.9831C15.4879 27.417 14.1732 26.7849 12.9085 26.1013C11.6789 25.4371 10.4807 24.7671 9.34223 23.8699C7.28551 22.2453 5.35703 20.1955 3.60867 17.7748C3.13878 17.1213 2.73741 16.4532 2.34976 15.8055C2.08349 15.3598 1.83088 14.9384 1.55874 14.5277C1.50882 14.451 1.45699 14.3733 1.40608 14.2956C0.831453 13.4324 0.116822 12.3584 0.00718206 11.0349C-0.0456799 10.4047 0.195101 9.82213 0.668901 9.43566C0.971389 9.18902 1.34245 9.04338 1.735 9.01037C2.1344 8.84821 2.58274 8.82393 3.02522 8.95113C3.61845 9.123 4.37514 9.09971 5.40203 8.87735C6.38879 8.66469 7.39514 8.34618 8.48077 7.90437C9.399 7.52956 10.3153 7.10913 11.2032 6.65178C11.6799 6.40611 12.1635 6.17402 12.6314 5.94971C13.392 5.58461 14.1106 5.24088 14.7978 4.84567C15.3685 4.51844 15.9138 4.12519 16.4903 3.70862C16.9671 3.36488 17.4614 3.00948 17.989 2.67837C19.1354 1.96079 20.3776 1.37526 21.7912 0.894603C24.6575 -0.0822411 27.5287 -0.262852 30.0984 0.371223C30.2883 0.418803 30.4841 0.472217 30.6769 0.531449C31.9721 0.924711 33.1448 1.53062 34.1237 2.07148C35.1399 2.6337 36.4036 3.33379 37.4413 4.37569C38.3957 5.33311 38.987 6.39152 39.5812 7.68589C39.6487 7.83445 39.7173 7.98303 39.7878 8.13062C40.1744 8.95987 40.5738 9.81535 40.8303 10.7563C40.8499 10.7912 40.8656 10.8262 40.8822 10.8621C41.0692 10.9631 41.2718 11.0641 41.4823 11.166C42.1401 11.4884 42.8861 11.8535 43.5361 12.5012C43.91 12.874 44.1146 13.3974 44.0921 13.9373C44.0716 14.4801 43.8288 14.9889 43.4245 15.3346C42.7549 15.9085 41.9903 16.4435 41.1465 16.928C41.1308 17.1582 41.1191 17.3903 41.1142 17.6165C41.1074 17.9942 40.9987 18.3457 40.801 18.6438C40.5934 19.3167 40.3262 19.9518 40.0658 20.5674C39.9365 20.8723 39.8152 21.1607 39.7085 21.4404C39.6703 21.5375 39.6331 21.6326 39.5959 21.7297C39.2895 22.5289 38.9724 23.3562 38.4702 24.165C37.8916 25.0972 37.2083 25.942 36.4428 26.6771C34.8745 28.1792 32.9745 29.2978 30.9501 29.9115C29.0216 30.4961 26.8366 30.6 24.4558 30.2213C24.0398 30.1562 23.6179 30.0785 23.1901 29.9911C23.1089 30.364 23.011 30.7466 22.8641 31.1428C22.4931 32.1381 21.4349 32.6517 20.4021 32.3371C20.4021 32.3371 20.4021 32.3371 20.4001 32.3371C19.9919 32.2128 19.6375 31.9643 19.3909 31.637C19.0052 31.7681 18.5745 31.7827 18.1486 31.6535Z" fill="white"/>
<path d="M19.0532 32.2196C18.5431 32.0652 18.1114 31.7137 17.8726 31.2593C17.6337 30.8077 17.5907 30.2834 17.7522 29.7814C17.8501 29.4774 17.9665 29.192 18.0791 28.9152C18.1036 28.8541 18.1291 28.7929 18.1526 28.7317C18.0077 28.6715 17.8637 28.6123 17.7208 28.5511C16.3924 27.985 15.0777 27.3509 13.814 26.6693C12.5834 26.0051 11.3852 25.3351 10.2477 24.4359C8.19002 22.8133 6.26052 20.7636 4.51314 18.3409C4.04424 17.6893 3.64293 17.0212 3.25429 16.3726C2.98802 15.9279 2.73545 15.5065 2.46429 15.0957C2.41339 15.019 2.36244 14.9413 2.31056 14.8637C1.73691 14.0004 1.02136 12.9265 0.911717 11.603C0.859834 10.9728 1.10062 10.3892 1.57344 10.0037C1.87592 9.75707 2.24892 9.6114 2.64049 9.57838C3.03891 9.41622 3.4882 9.39194 3.92969 9.51915C4.52488 9.69005 5.27968 9.66675 6.30854 9.44536C7.29334 9.23271 8.29965 8.91422 9.38626 8.47144C10.3035 8.09663 11.2188 7.67617 12.1076 7.2198C12.5844 6.97413 13.068 6.74206 13.5369 6.51776C14.2965 6.15266 15.0151 5.80892 15.7033 5.41274C16.273 5.08454 16.8182 4.69223 17.3968 4.27664C17.8726 3.9329 18.3659 3.5775 18.8936 3.24638C20.0399 2.52686 21.2841 1.94327 22.6967 1.46262C25.562 0.485775 28.4342 0.305164 31.0029 0.939239C31.1938 0.986818 31.3886 1.04023 31.5824 1.09849C32.8776 1.49272 34.0512 2.09864 35.0282 2.6395C36.0443 3.20172 37.3092 3.90183 38.3458 4.94276C39.3003 5.90115 39.8915 6.95957 40.4857 8.25393C40.5533 8.4025 40.6228 8.55107 40.6923 8.69867C41.0799 9.52791 41.4784 10.3824 41.7348 11.3243C41.7544 11.3592 41.7711 11.3932 41.7877 11.4301C41.9757 11.5311 42.1764 11.6321 42.3868 11.734C43.0447 12.0555 43.7916 12.4215 44.4416 13.0682C44.8165 13.4421 45.0191 13.9654 44.9986 14.5044C44.977 15.0472 44.7333 15.556 44.329 15.9007C43.6594 16.4755 42.8949 17.0106 42.051 17.4951C42.0364 17.7252 42.0256 17.9563 42.0207 18.1835C42.0119 18.5613 41.9032 18.9118 41.7065 19.2109C41.4989 19.8838 41.2317 20.5189 40.9703 21.1335C40.8421 21.4394 40.7217 21.7278 40.613 22.0074C40.5748 22.1036 40.5386 22.1997 40.5014 22.2968C40.195 23.0959 39.8768 23.9232 39.3746 24.7321C38.7961 25.6633 38.1148 26.5091 37.3473 27.2422C35.7791 28.7463 33.8799 29.8639 31.8545 30.4786C29.926 31.0631 27.7421 31.167 25.3613 30.7883C24.9443 30.7233 24.5234 30.6456 24.0966 30.5582C24.0133 30.9311 23.9155 31.3137 23.7687 31.7098C23.3986 32.7042 22.3394 33.2188 21.3066 32.9032C21.3066 32.9032 21.3066 32.9032 21.3056 32.9032C20.8955 32.7779 19.48 32.3497 19.0532 32.2196Z" fill="#7C7A7A"/>
<path d="M18.1486 31.6535C17.6376 31.4972 17.2069 31.1467 16.9671 30.6912C16.7282 30.2397 16.6861 29.7154 16.8466 29.2143C16.9455 28.9104 17.062 28.6249 17.1726 28.3482C17.1991 28.286 17.2226 28.2249 17.248 28.1637C17.1031 28.1035 16.9592 28.0443 16.8163 27.9831C15.4879 27.417 14.1732 26.7849 12.9085 26.1013C11.6789 25.4371 10.4807 24.7671 9.34223 23.8699C7.28551 22.2453 5.35703 20.1955 3.60867 17.7748C3.13878 17.1213 2.73741 16.4532 2.34976 15.8055C2.08349 15.3598 1.83088 14.9384 1.55874 14.5277C1.50882 14.451 1.45699 14.3733 1.40608 14.2956C0.831453 13.4324 0.116822 12.3584 0.00718206 11.0349C-0.0456799 10.4047 0.195101 9.82213 0.668901 9.43566C0.971389 9.18902 1.34245 9.04338 1.735 9.01037C2.1344 8.84821 2.58274 8.82393 3.02522 8.95113C3.61845 9.123 4.37514 9.09971 5.40203 8.87735C6.38879 8.66469 7.39514 8.34618 8.48077 7.90437C9.399 7.52956 10.3153 7.10913 11.2032 6.65178C11.6799 6.40611 12.1635 6.17402 12.6314 5.94971C13.392 5.58461 14.1106 5.24088 14.7978 4.84567C15.3685 4.51844 15.9138 4.12519 16.4903 3.70862C16.9671 3.36488 17.4614 3.00948 17.989 2.67837C19.1354 1.96079 20.3776 1.37526 21.7912 0.894603C24.6575 -0.0822411 27.5287 -0.262852 30.0984 0.371223C30.2883 0.418803 30.4841 0.472217 30.6769 0.531449C31.9721 0.924711 33.1448 1.53062 34.1237 2.07148C35.1399 2.6337 36.4036 3.33379 37.4413 4.37569C38.3957 5.33311 38.987 6.39152 39.5812 7.68589C39.6487 7.83445 39.7173 7.98303 39.7878 8.13062C40.1744 8.95987 40.5738 9.81535 40.8303 10.7563C40.8499 10.7912 40.8656 10.8262 40.8822 10.8621C41.0692 10.9631 41.2718 11.0641 41.4823 11.166C42.1401 11.4884 42.8861 11.8535 43.5361 12.5012C43.91 12.874 44.1146 13.3974 44.0921 13.9373C44.0716 14.4801 43.8288 14.9889 43.4245 15.3346C42.7549 15.9085 41.9903 16.4435 41.1465 16.928C41.1308 17.1582 41.1191 17.3903 41.1142 17.6165C41.1074 17.9942 40.9987 18.3457 40.801 18.6438C40.5934 19.3167 40.3262 19.9518 40.0658 20.5674C39.9365 20.8723 39.8152 21.1607 39.7085 21.4404C39.6703 21.5375 39.6331 21.6326 39.5959 21.7297C39.2895 22.5289 38.9724 23.3562 38.4702 24.165C37.8916 25.0972 37.2083 25.942 36.4428 26.6771C34.8745 28.1792 32.9745 29.2978 30.9501 29.9115C29.0216 30.4961 26.8366 30.6 24.4558 30.2213C24.0398 30.1562 23.6179 30.0785 23.1901 29.9911C23.1089 30.364 23.011 30.7466 22.8641 31.1428C22.4931 32.1381 21.4349 32.6517 20.4021 32.3371C20.4021 32.3371 20.4021 32.3371 20.4001 32.3371C19.99 32.2119 18.5745 31.7827 18.1486 31.6535Z" fill="white"/>
<path d="M18.0517 28.3249C18.0321 28.3249 18.0145 28.323 17.9959 28.3142C17.9176 28.2841 17.8794 28.1967 17.9108 28.1191L18.0224 27.8384L17.7404 27.7219C17.6641 27.6908 17.6259 27.6025 17.6592 27.5257C17.6905 27.4481 17.7796 27.4121 17.8569 27.4432L18.4149 27.6733L18.1917 28.2307C18.1692 28.2899 18.1114 28.3249 18.0517 28.3249Z" fill="#333333"/>
<path d="M16.9524 27.3801C16.9308 27.3801 16.9103 27.3772 16.8907 27.3674C16.6098 27.2461 16.3269 27.1218 16.0498 26.9946C15.9744 26.9606 15.9412 26.8703 15.9754 26.7955C16.0097 26.7188 16.0997 26.6868 16.1771 26.7217C16.4512 26.846 16.7321 26.9713 17.0131 27.0907C17.0894 27.1247 17.1257 27.2131 17.0924 27.2898C17.0669 27.3461 17.0111 27.3801 16.9524 27.3801ZM15.2804 26.6198C15.2588 26.6198 15.2353 26.6149 15.2148 26.6052C14.9377 26.4722 14.6587 26.3362 14.3886 26.2003C14.3142 26.1624 14.2829 26.0711 14.321 25.9973C14.3592 25.9235 14.4512 25.8944 14.5247 25.9323C14.7949 26.0682 15.0709 26.2022 15.3469 26.3343C15.4223 26.3702 15.4537 26.4605 15.4174 26.5353C15.392 26.5897 15.3371 26.6198 15.2804 26.6198ZM13.6407 25.7963C13.6172 25.7963 13.5937 25.7905 13.5702 25.7779C13.4439 25.7128 13.3196 25.6449 13.1953 25.5788C13.0514 25.5002 12.9045 25.4215 12.7616 25.3419C12.6882 25.3021 12.6608 25.2108 12.7009 25.138C12.741 25.0652 12.834 25.039 12.9074 25.0788C13.0504 25.1574 13.1953 25.2361 13.3401 25.3138C13.4635 25.3798 13.5888 25.4468 13.7131 25.5118C13.7865 25.5516 13.8149 25.6429 13.7758 25.7158C13.7474 25.7682 13.6945 25.7963 13.6407 25.7963ZM12.0333 24.9137C12.0068 24.9137 11.9804 24.9059 11.9569 24.8933C11.6701 24.7272 11.4117 24.5719 11.165 24.4185C11.0955 24.3738 11.0739 24.2806 11.119 24.2097C11.163 24.1408 11.2579 24.1194 11.3274 24.1641C11.5702 24.3155 11.8267 24.469 12.1087 24.6311C12.1821 24.6739 12.2066 24.7661 12.1645 24.837C12.1371 24.8855 12.0851 24.9137 12.0333 24.9137ZM10.4827 23.9359C10.4523 23.9359 10.421 23.9262 10.3945 23.9087C10.1606 23.7436 9.93052 23.5737 9.71614 23.4038L9.65448 23.3552C9.58987 23.3018 9.57911 23.2086 9.63099 23.1435C9.68386 23.0775 9.77883 23.0678 9.84442 23.1202L9.90608 23.1688C10.1165 23.3348 10.3407 23.5018 10.5727 23.662C10.6412 23.7106 10.6569 23.8048 10.6079 23.8728C10.5776 23.9135 10.5296 23.9359 10.4827 23.9359ZM9.04169 22.8056C9.00743 22.8056 8.97217 22.793 8.94281 22.7687C8.7108 22.5706 8.47882 22.3657 8.25366 22.157C8.19199 22.1007 8.19004 22.0055 8.24584 21.9443C8.30359 21.8831 8.39851 21.8802 8.4592 21.9356C8.68337 22.1414 8.91249 22.3453 9.14058 22.5405C9.20323 22.5949 9.21103 22.6891 9.15718 22.7532C9.12782 22.7872 9.08476 22.8056 9.04169 22.8056ZM7.6937 21.5666C7.6565 21.5666 7.61731 21.5511 7.58794 21.5219C7.3716 21.3093 7.15428 21.0888 6.94283 20.8665C6.8841 20.8063 6.88704 20.7111 6.94773 20.6538C7.0094 20.5965 7.10535 20.5995 7.16408 20.6597C7.37259 20.8801 7.58894 21.0976 7.80136 21.3083C7.86108 21.3666 7.86209 21.4608 7.80238 21.5219C7.77301 21.552 7.73383 21.5666 7.6937 21.5666ZM6.4309 20.2431C6.38881 20.2431 6.34764 20.2256 6.31828 20.1916C6.11564 19.9664 5.91303 19.7333 5.71529 19.4993C5.66047 19.4362 5.66828 19.3401 5.73387 19.2876C5.7975 19.2333 5.89343 19.243 5.94825 19.307C6.14306 19.5381 6.34476 19.7692 6.54544 19.9916C6.60124 20.0537 6.59537 20.1499 6.53272 20.2052C6.50335 20.2305 6.4681 20.2431 6.4309 20.2431ZM5.24931 18.8478C5.20428 18.8478 5.16025 18.8283 5.13089 18.7904C4.94195 18.5545 4.75199 18.3108 4.56698 18.0661C4.51705 18 4.53174 17.9049 4.59733 17.8544C4.6639 17.8049 4.75987 17.8194 4.8098 17.8845C4.99383 18.1273 5.1818 18.369 5.36779 18.603C5.42065 18.6671 5.40988 18.7633 5.34527 18.8147C5.31688 18.8371 5.28357 18.8478 5.24931 18.8478ZM4.14706 17.3893C4.10007 17.3893 4.05209 17.3689 4.02272 17.3262C3.85826 17.0951 3.69086 16.8445 3.51074 16.56C3.46766 16.4901 3.48919 16.3979 3.55967 16.3522C3.62917 16.3076 3.72316 16.3299 3.76819 16.3998C3.94636 16.6785 4.1108 16.9251 4.27134 17.1533C4.32029 17.2213 4.30369 17.3155 4.23615 17.363C4.20874 17.3805 4.17937 17.3893 4.14706 17.3893ZM41.6086 15.9153C41.5577 15.9153 41.5107 15.8929 41.4813 15.8492C41.4343 15.7803 41.4539 15.6871 41.5234 15.6405C41.7789 15.4715 42.0276 15.2958 42.2635 15.1161C42.3301 15.0656 42.425 15.0782 42.4759 15.1443C42.5278 15.2093 42.5141 15.3045 42.4475 15.355C42.2077 15.5375 41.9532 15.7182 41.6928 15.891C41.6664 15.9075 41.636 15.9153 41.6086 15.9153ZM3.16222 15.8512C3.10936 15.8512 3.06044 15.8259 3.03107 15.7784L2.86563 15.5026C2.76088 15.3268 2.66102 15.1598 2.56019 14.9957C2.51712 14.9258 2.53967 14.8326 2.61211 14.7899C2.68455 14.7471 2.77753 14.7695 2.81962 14.8413C2.92143 15.0074 3.02125 15.1744 3.12404 15.3462L3.29241 15.6259C3.33549 15.6958 3.31204 15.789 3.2396 15.8318C3.21414 15.8444 3.18767 15.8512 3.16222 15.8512ZM43.0564 14.7976C43.0222 14.7976 42.9879 14.786 42.9576 14.7627C42.8949 14.7083 42.8861 14.6131 42.9399 14.5491C43.0917 14.3723 43.1807 14.1441 43.1896 13.9023C43.1905 13.8897 43.1905 13.8771 43.1905 13.8625C43.1905 13.8451 43.1905 13.8276 43.1896 13.8101C43.1856 13.7276 43.2502 13.6567 43.3325 13.6518C43.4157 13.6499 43.4871 13.713 43.4911 13.7955C43.493 13.8169 43.493 13.8402 43.493 13.8635C43.493 13.88 43.493 13.8955 43.492 13.914C43.4803 14.2218 43.3667 14.516 43.1709 14.7432C43.1406 14.7801 43.0985 14.7976 43.0564 14.7976ZM2.20486 14.2937C2.15494 14.2937 2.10599 14.2713 2.0776 14.2257L2.05997 14.2005C2.01005 14.1247 1.95815 14.047 1.90528 13.9684C1.80347 13.813 1.68601 13.6373 1.57344 13.4615C1.52841 13.3916 1.54995 13.2984 1.62142 13.2547C1.6919 13.21 1.78587 13.2314 1.8309 13.3023C1.94151 13.4751 2.05605 13.6479 2.15981 13.8033C2.2117 13.882 2.2636 13.9597 2.3145 14.0383L2.33213 14.0626C2.37814 14.1325 2.3576 14.2257 2.28809 14.2704C2.26166 14.2869 2.23325 14.2937 2.20486 14.2937ZM42.9693 13.145C42.9311 13.145 42.8919 13.1304 42.8645 13.1013C42.6619 12.9051 42.4348 12.7255 42.1685 12.5546C42.099 12.5089 42.0785 12.4157 42.1235 12.3468C42.1695 12.2769 42.2635 12.2555 42.333 12.3021C42.6169 12.4847 42.8597 12.675 43.077 12.8867C43.1367 12.9449 43.1377 13.0391 43.0779 13.1003C43.0486 13.1294 43.0084 13.145 42.9693 13.145ZM1.24649 12.74C1.18971 12.74 1.13785 12.7109 1.11044 12.6575C0.957731 12.3536 0.843188 12.071 0.759001 11.7875C0.734528 11.7088 0.78152 11.6234 0.860813 11.601C0.941085 11.5777 1.02523 11.6224 1.04872 11.702C1.12802 11.9661 1.23575 12.2351 1.38063 12.5225C1.41881 12.5963 1.38844 12.6866 1.31502 12.7245C1.29153 12.7352 1.26999 12.74 1.24649 12.74ZM41.449 12.1332C41.4275 12.1332 41.403 12.1273 41.3825 12.1167C41.2865 12.0691 41.1926 12.0225 41.0986 11.9759L41.081 11.9681C40.9087 11.8826 40.7305 11.7962 40.5572 11.7049C40.4838 11.6661 40.4554 11.5739 40.4955 11.501C40.5347 11.4292 40.6267 11.4001 40.7011 11.4399C40.8695 11.5292 41.0467 11.6146 41.2161 11.6981L41.2327 11.7079C41.3286 11.7545 41.4226 11.8011 41.5185 11.8487C41.5929 11.8865 41.6243 11.9768 41.5861 12.0506C41.5577 12.1021 41.5058 12.1332 41.449 12.1332ZM40.0893 11.0476C40.0237 11.0476 39.9611 11.0039 39.9444 10.9379C39.8671 10.6669 39.7741 10.3882 39.6586 10.0853C39.6292 10.0086 39.6684 9.92117 39.7457 9.89204C39.824 9.86291 39.9121 9.90175 39.9424 9.97943C40.0609 10.2892 40.1578 10.5766 40.2361 10.8572C40.2576 10.9369 40.2117 11.0204 40.1304 11.0427C40.1177 11.0466 40.103 11.0476 40.0893 11.0476ZM0.75213 11C0.750172 11 0.750158 11 0.750158 11C0.66597 10.999 0.599388 10.931 0.600367 10.8485C0.604283 10.4863 0.748214 10.1591 1.00959 9.92798C1.07126 9.87166 1.16817 9.87748 1.22397 9.93963C1.27977 10.0018 1.27583 10.096 1.2122 10.1523C1.0125 10.33 0.90585 10.5718 0.903892 10.8514C0.901934 10.932 0.834359 11 0.75213 11ZM3.90723 9.95614C3.85437 9.95614 3.80249 9.95518 3.75158 9.95421C3.66838 9.9513 3.60276 9.88235 3.60472 9.79884C3.60766 9.71631 3.67714 9.64928 3.76132 9.65317C4.03346 9.66191 4.33402 9.64637 4.65511 9.60753C4.73832 9.59685 4.81367 9.65609 4.82444 9.73765C4.8352 9.82019 4.77552 9.89594 4.69329 9.90662C4.41625 9.93963 4.15098 9.95614 3.90723 9.95614ZM1.95326 9.87459C1.89257 9.87459 1.83773 9.83962 1.8113 9.78136C1.78095 9.70465 1.81817 9.61628 1.89453 9.58424L1.9621 9.55801C2.23816 9.44538 2.55142 9.4308 2.85684 9.51917L2.88911 9.52888C2.96938 9.55025 3.01734 9.63376 2.99385 9.71436C2.97133 9.79398 2.88717 9.84156 2.80689 9.81825L2.77164 9.80758C2.53181 9.73961 2.29005 9.74834 2.07664 9.83574L2.01104 9.86196C1.99244 9.87167 1.97284 9.87459 1.95326 9.87459ZM5.57823 9.7493C5.50872 9.7493 5.44509 9.70174 5.43041 9.63183C5.41181 9.55027 5.46465 9.46967 5.5459 9.45122C5.83664 9.38907 6.13525 9.3143 6.42893 9.23371C6.51116 9.21235 6.59435 9.25798 6.61589 9.3376C6.6384 9.41917 6.59142 9.50074 6.51115 9.52308C6.20964 9.60561 5.90615 9.68038 5.60954 9.74447C5.59975 9.74835 5.589 9.7493 5.57823 9.7493ZM39.4481 9.34148C39.3893 9.34148 39.3346 9.30751 39.3091 9.25021C39.1965 8.99872 39.08 8.7482 38.9664 8.50545L38.9273 8.42289C38.893 8.34812 38.9263 8.2588 39.0017 8.22384C39.0771 8.18986 39.1681 8.22189 39.2034 8.29763L39.2406 8.37823C39.3551 8.62196 39.4716 8.87442 39.5861 9.12786C39.6204 9.2036 39.5861 9.29292 39.5097 9.32691C39.4902 9.33759 39.4677 9.34148 39.4481 9.34148ZM7.34811 9.26476C7.28644 9.26476 7.22673 9.22497 7.20519 9.16185C7.17974 9.0832 7.22281 8.99676 7.3021 8.97152C7.58305 8.8783 7.87189 8.77635 8.16165 8.6676C8.23996 8.63847 8.32706 8.67731 8.35643 8.75499C8.38776 8.8317 8.34665 8.91909 8.26932 8.94822C7.97564 9.05989 7.68295 9.16378 7.3971 9.257C7.38144 9.26089 7.36573 9.26476 7.34811 9.26476ZM9.06714 8.61515C9.00743 8.61515 8.95163 8.58117 8.92715 8.52388C8.89387 8.44717 8.92908 8.35882 9.0074 8.32581C9.28737 8.21026 9.56932 8.08692 9.84537 7.96263C9.92075 7.92864 10.0118 7.96167 10.0461 8.03644C10.0813 8.11315 10.047 8.20248 9.96971 8.23647C9.69267 8.3627 9.40777 8.48601 9.12486 8.6035C9.10626 8.61321 9.08574 8.61515 9.06714 8.61515ZM10.7411 7.86359C10.6843 7.86359 10.6305 7.83154 10.603 7.77813C10.5678 7.70336 10.5982 7.61308 10.6745 7.57618C10.9427 7.44704 11.2139 7.31205 11.4772 7.17708L11.4919 7.16932C11.5654 7.13048 11.6583 7.15962 11.6965 7.23342C11.7337 7.30818 11.7063 7.39847 11.6309 7.43634L11.6172 7.44313C11.3519 7.58101 11.0788 7.71601 10.8057 7.84807C10.7852 7.85778 10.7616 7.86359 10.7411 7.86359ZM38.6806 7.68396C38.6229 7.68396 38.569 7.65287 38.5426 7.5985C38.3997 7.30039 38.2626 7.0392 38.1266 6.79645C38.0854 6.72362 38.1118 6.63235 38.1862 6.59156C38.2597 6.55175 38.3507 6.57797 38.3918 6.6508C38.5308 6.89841 38.6698 7.1664 38.8167 7.46935C38.8529 7.54412 38.8216 7.63442 38.7462 7.66938C38.7247 7.68006 38.7012 7.68396 38.6806 7.68396ZM12.3847 7.04504C12.3269 7.04504 12.2731 7.01493 12.2467 6.96055C12.2105 6.88579 12.2418 6.79547 12.3162 6.75857C12.508 6.66633 12.6999 6.57506 12.8878 6.48379L13.1443 6.36143C13.2197 6.3255 13.3108 6.3556 13.347 6.43134C13.3832 6.50513 13.3519 6.59544 13.2775 6.63234L13.021 6.75469C12.8331 6.845 12.6412 6.93723 12.4503 7.02948C12.4288 7.04016 12.4053 7.04504 12.3847 7.04504ZM14.0352 6.24394C13.9794 6.24394 13.9265 6.21479 13.8991 6.16236C13.8609 6.08759 13.8913 5.9973 13.9657 5.95943C14.2672 5.80989 14.5315 5.67105 14.7742 5.53802C14.8477 5.49723 14.9397 5.52346 14.9808 5.59725C15.0209 5.67008 14.9935 5.76233 14.9211 5.80214C14.6744 5.93614 14.4062 6.07596 14.1018 6.22841C14.0812 6.23909 14.0577 6.24394 14.0352 6.24394ZM37.778 6.09927C37.7291 6.09927 37.6821 6.07692 37.6527 6.03419C37.4765 5.78076 37.2974 5.54869 37.1016 5.3273C37.0458 5.26418 37.0526 5.17 37.1163 5.11465C37.1799 5.0593 37.2759 5.06608 37.3307 5.1292C37.5333 5.35933 37.7203 5.60016 37.9033 5.86428C37.9513 5.93225 37.9327 6.02643 37.8642 6.07304C37.8368 6.09052 37.8064 6.09927 37.778 6.09927ZM15.6396 5.35545C15.5897 5.35545 15.5398 5.33217 15.5114 5.2875C15.4664 5.21759 15.4869 5.12435 15.5564 5.07968C15.7806 4.93597 16.0204 4.77478 16.3112 4.56893C16.3777 4.52135 16.4737 4.53787 16.5217 4.60487C16.5706 4.67187 16.5549 4.76701 16.4864 4.81556C16.1927 5.02239 15.949 5.1865 15.7219 5.33216C15.6954 5.34769 15.668 5.35545 15.6396 5.35545ZM36.5711 4.72915C36.5339 4.72915 36.4986 4.71751 36.4692 4.69226C36.2568 4.50291 36.0199 4.31162 35.7664 4.12713C35.6998 4.0776 35.6841 3.98438 35.734 3.91641C35.784 3.85038 35.878 3.83583 35.9465 3.88535C36.2088 4.07567 36.4535 4.27179 36.6719 4.46794C36.7345 4.52328 36.7394 4.6175 36.6836 4.68061C36.6533 4.71363 36.6122 4.72915 36.5711 4.72915ZM17.1423 4.30774C17.0963 4.30774 17.0493 4.28733 17.0199 4.24655C16.97 4.17955 16.9856 4.08438 17.0532 4.0368C17.2754 3.87659 17.5377 3.69017 17.8079 3.50762C17.8774 3.46004 17.9714 3.47846 18.0194 3.54644C18.0664 3.61538 18.0488 3.70862 17.9802 3.75523C17.714 3.93681 17.4526 4.12225 17.2324 4.27956C17.205 4.29898 17.1726 4.30774 17.1423 4.30774ZM35.0958 3.6455C35.0684 3.6455 35.04 3.63771 35.0136 3.62218C34.7806 3.47555 34.5319 3.32799 34.2314 3.15709C34.158 3.1163 34.1325 3.02404 34.1736 2.95315C34.2157 2.88033 34.3097 2.85509 34.3812 2.89587C34.6856 3.06871 34.9372 3.21823 35.176 3.3668C35.2475 3.4105 35.269 3.50373 35.224 3.57462C35.1946 3.62123 35.1447 3.6455 35.0958 3.6455ZM18.6655 3.28815C18.6136 3.28815 18.5637 3.26293 18.5353 3.21535C18.4922 3.14543 18.5147 3.0522 18.5872 3.00851C18.8495 2.85217 19.1217 2.69973 19.3938 2.55699C19.4682 2.51815 19.5602 2.54629 19.5994 2.61815C19.6385 2.69292 19.6102 2.78324 19.5368 2.82208C19.2676 2.96385 19.0003 3.1124 18.7428 3.26679C18.7183 3.28135 18.6929 3.28815 18.6655 3.28815ZM33.504 2.73176C33.4805 2.73176 33.4541 2.72593 33.4316 2.71428C33.1389 2.55406 32.8736 2.41522 32.623 2.28996C32.5486 2.25306 32.5193 2.16178 32.5565 2.08798C32.5937 2.01419 32.6857 1.98409 32.7601 2.02196C33.0136 2.14819 33.2819 2.28802 33.5785 2.44921C33.6509 2.48902 33.6793 2.58127 33.6391 2.65409C33.6097 2.70459 33.5579 2.73176 33.504 2.73176ZM20.2895 2.43659C20.2328 2.43659 20.1779 2.40552 20.1525 2.3492C20.1182 2.27443 20.1505 2.18508 20.2269 2.15012C20.501 2.02486 20.7868 1.90251 21.0776 1.7889C21.1559 1.75782 21.244 1.79569 21.2743 1.8724C21.3056 1.95008 21.2684 2.03749 21.1901 2.0676C20.9043 2.1812 20.6223 2.29967 20.3522 2.42396C20.3336 2.43367 20.3111 2.43659 20.2895 2.43659ZM31.8605 1.91709C31.8399 1.91709 31.8193 1.91223 31.7988 1.90447C31.511 1.77823 31.228 1.66463 30.9569 1.56656C30.8776 1.5384 30.8375 1.451 30.8659 1.37332C30.8933 1.29467 30.9804 1.25484 31.0597 1.283C31.3377 1.38399 31.6275 1.49954 31.9212 1.62674C31.9975 1.66073 32.0327 1.75008 31.9985 1.82582C31.974 1.88311 31.9192 1.91709 31.8605 1.91709ZM21.9958 1.76172C21.9341 1.76172 21.8744 1.72191 21.8529 1.66073C21.8245 1.58208 21.8676 1.49567 21.9459 1.46945L21.986 1.45487C22.265 1.35874 22.5499 1.27038 22.8298 1.19075C22.9101 1.16842 22.9943 1.21407 23.0168 1.2937C23.0394 1.37332 22.9943 1.45682 22.914 1.48012C22.6389 1.5578 22.361 1.64519 22.0839 1.73938L22.0447 1.75396C22.0281 1.75881 22.0115 1.76172 21.9958 1.76172ZM30.1317 1.29856C30.1199 1.29856 30.1062 1.29758 30.0925 1.2937C30.022 1.27331 29.9496 1.25582 29.8801 1.23834C29.6598 1.18397 29.4347 1.13543 29.2075 1.09367C29.1263 1.07814 29.0715 0.999486 29.0871 0.91792C29.1028 0.836355 29.1811 0.781955 29.2633 0.797491C29.4954 0.841187 29.7274 0.890724 29.9535 0.946072C30.024 0.964521 30.0974 0.982961 30.1718 1.00335C30.253 1.02374 30.3 1.10725 30.2785 1.18687C30.2599 1.25484 30.2002 1.29856 30.1317 1.29856ZM23.7618 1.25971C23.6933 1.25971 23.6306 1.21116 23.6159 1.14221C23.5964 1.06065 23.6472 0.980049 23.7295 0.961599C24.0329 0.893628 24.3383 0.833441 24.6399 0.783919C24.7231 0.770325 24.8014 0.826635 24.8151 0.908201C24.8288 0.990737 24.773 1.06743 24.6898 1.082C24.3942 1.13055 24.0956 1.18883 23.797 1.25583C23.7843 1.25874 23.7735 1.25971 23.7618 1.25971ZM28.3285 0.965481C28.3226 0.965481 28.3157 0.965475 28.3108 0.964504C28.0132 0.933431 27.7098 0.911102 27.4053 0.902363C27.3221 0.898479 27.2566 0.829556 27.2585 0.746048C27.2624 0.663512 27.328 0.598437 27.4161 0.60135C27.7264 0.613002 28.0387 0.63341 28.3432 0.666424C28.4273 0.674192 28.4861 0.749915 28.4782 0.831481C28.4704 0.908191 28.4038 0.965481 28.3285 0.965481ZM25.5757 0.964504C25.4984 0.964504 25.4318 0.906258 25.424 0.828577C25.4162 0.74604 25.4759 0.67223 25.5601 0.663491C25.8694 0.633389 26.1807 0.612038 26.4871 0.602328C26.5693 0.598444 26.6408 0.663512 26.6437 0.746048C26.6467 0.828585 26.5811 0.898472 26.4979 0.901385C26.1983 0.912066 25.8939 0.932483 25.5914 0.963555C25.5846 0.964526 25.5796 0.964504 25.5757 0.964504Z" fill="#333333"/>
<path d="M40.5445 16.9368L40.3937 16.9329L40.242 16.9232L40.2762 16.3921L40.7403 16.126C40.8117 16.0843 40.9047 16.1066 40.9478 16.1794C40.9899 16.2513 40.9654 16.3445 40.893 16.3862L40.569 16.5717L40.5445 16.9368Z" fill="#333333"/>
<path d="M27.5287 29.8446C27.4455 29.8446 27.3789 29.7805 27.3769 29.6979C27.375 29.6164 27.4406 29.5465 27.5238 29.5445C27.8243 29.5377 28.1219 29.5202 28.4126 29.4921C28.4958 29.4843 28.5703 29.5455 28.5791 29.628C28.5859 29.7115 28.5242 29.7844 28.441 29.7931C28.1434 29.8193 27.838 29.8378 27.5316 29.8455C27.5316 29.8446 27.5287 29.8446 27.5287 29.8446ZM26.628 29.8397C26.6251 29.8397 26.6242 29.8397 26.6212 29.8397C26.3236 29.829 26.0182 29.8096 25.7147 29.7805C25.6305 29.7727 25.5708 29.6999 25.5767 29.6174C25.5836 29.5338 25.657 29.4736 25.7431 29.4804C26.0407 29.5086 26.3403 29.528 26.632 29.5387C26.7162 29.5406 26.7808 29.6115 26.7778 29.694C26.7769 29.7756 26.7083 29.8397 26.628 29.8397ZM29.3201 29.6766C29.2476 29.6766 29.1831 29.6251 29.1704 29.5504C29.1576 29.4698 29.2124 29.3911 29.2956 29.3775C29.5903 29.328 29.884 29.2678 30.1659 29.1969C30.2471 29.1765 30.3294 29.225 30.3499 29.3047C30.3705 29.3862 30.3215 29.4688 30.2403 29.4882C29.9505 29.56 29.649 29.6222 29.3466 29.6727C29.3377 29.6756 29.3279 29.6766 29.3201 29.6766ZM24.8347 29.6756C24.8268 29.6756 24.82 29.6756 24.8131 29.6746C24.725 29.661 24.636 29.6484 24.5488 29.6339C24.3423 29.6018 24.1298 29.5649 23.9174 29.5261C23.8352 29.5105 23.7804 29.4328 23.797 29.3513C23.8107 29.2697 23.892 29.2153 23.9732 29.2299C24.1837 29.2687 24.3922 29.3047 24.5958 29.3367C24.6839 29.3513 24.7711 29.3629 24.8572 29.3765C24.9404 29.3882 24.9972 29.4649 24.9854 29.5474C24.9737 29.6222 24.9091 29.6756 24.8347 29.6756ZM31.0655 29.2415C31.0019 29.2415 30.9422 29.2018 30.9217 29.1396C30.8962 29.061 30.9383 28.9755 31.0176 28.9503C31.2965 28.8551 31.5775 28.7502 31.8506 28.6376C31.927 28.6046 32.016 28.6405 32.0483 28.7172C32.0816 28.7939 32.0445 28.8823 31.9681 28.9143C31.6881 29.0308 31.4013 29.1377 31.1155 29.2348C31.0988 29.2396 31.0832 29.2415 31.0655 29.2415ZM32.7258 28.5492C32.671 28.5492 32.6171 28.5191 32.5907 28.4667C32.5525 28.3929 32.5819 28.3026 32.6563 28.2647C32.9206 28.1317 33.1829 27.988 33.4365 27.8384C33.5079 27.7957 33.6019 27.819 33.644 27.8899C33.688 27.9617 33.6646 28.055 33.5921 28.0977C33.3317 28.2511 33.0635 28.3987 32.7943 28.5337C32.7728 28.5444 32.7493 28.5492 32.7258 28.5492ZM34.2715 27.6326C34.2245 27.6326 34.1766 27.6102 34.1472 27.5685C34.0983 27.5005 34.1169 27.4063 34.1854 27.3587C34.4272 27.1917 34.667 27.015 34.899 26.8296C34.9636 26.7771 35.0595 26.7888 35.1114 26.8529C35.1653 26.9169 35.1545 27.0121 35.0899 27.0645C34.853 27.2519 34.6073 27.4355 34.3596 27.6054C34.3302 27.6238 34.3009 27.6326 34.2715 27.6326ZM35.6772 26.5159C35.6352 26.5159 35.5941 26.4994 35.5647 26.4674C35.5069 26.4062 35.5118 26.311 35.5745 26.2547C35.6548 26.1819 35.734 26.1061 35.8123 26.0314C35.9465 25.9032 36.0786 25.7702 36.2069 25.6352C36.2646 25.574 36.3595 25.5721 36.4222 25.6284C36.4829 25.6867 36.4849 25.7809 36.4291 25.8411C36.2969 25.9809 36.1618 26.1159 36.0238 26.2479C35.9435 26.3256 35.8623 26.4023 35.7791 26.4771C35.7517 26.5023 35.7135 26.5159 35.6772 26.5159ZM36.9087 25.2138C36.8755 25.2138 36.8412 25.2031 36.8138 25.1817C36.7492 25.1283 36.7384 25.0351 36.7913 24.9691C36.9753 24.7428 37.1545 24.5049 37.3238 24.2622C37.3728 24.1942 37.4667 24.1767 37.5362 24.2243C37.6047 24.2719 37.6214 24.3661 37.5744 24.4341C37.4001 24.6826 37.2161 24.9254 37.0272 25.1584C36.9978 25.1953 36.9528 25.2138 36.9087 25.2138ZM37.9346 23.7466C37.9082 23.7466 37.8818 23.7407 37.8583 23.7262C37.7869 23.6844 37.7614 23.5912 37.8035 23.5203C37.9425 23.2814 38.0736 23.0251 38.2068 22.7377C38.242 22.6629 38.3321 22.6289 38.4084 22.6639C38.4838 22.6979 38.5171 22.7872 38.4829 22.8629C38.3458 23.1591 38.2107 23.4232 38.0649 23.6699C38.0394 23.7194 37.9865 23.7466 37.9346 23.7466ZM38.6933 22.1269C38.6757 22.1269 38.6571 22.125 38.6385 22.1172C38.5602 22.0871 38.523 21.9997 38.5524 21.923C38.6189 21.7531 38.6835 21.586 38.7471 21.419L38.7511 21.4093C38.7511 21.4093 38.8284 21.2083 38.8637 21.117L38.8754 21.087C38.9048 21.0093 38.9938 20.9704 39.0712 21.0015C39.1495 21.0316 39.1886 21.119 39.1573 21.1957L39.1466 21.2239C39.1113 21.3161 39.034 21.5161 39.034 21.5161L39.0311 21.5259C38.9674 21.6938 38.9018 21.8618 38.8353 22.0318C38.8118 22.092 38.755 22.1269 38.6933 22.1269ZM39.357 20.4665C39.3364 20.4665 39.3169 20.4616 39.2973 20.4548C39.22 20.4218 39.1838 20.3334 39.2161 20.2567L39.2327 20.2208C39.3424 19.9596 39.453 19.6965 39.5587 19.4323C39.5891 19.3566 39.6771 19.3187 39.7545 19.3488C39.8328 19.3789 39.871 19.4663 39.8406 19.544C39.7339 19.8091 39.6223 20.0732 39.5156 20.3286L39.496 20.3732C39.4725 20.4305 39.4167 20.4665 39.357 20.4665ZM40.009 18.8002C39.9933 18.8002 39.9786 18.7983 39.961 18.7934C39.8817 18.7672 39.8387 18.6817 39.8651 18.6031C39.8896 18.5293 39.914 18.4555 39.9356 18.3807L39.9737 18.2584L40.0442 18.1525C40.1137 18.0457 40.1636 17.9253 40.1881 17.7972C40.2057 17.7146 40.285 17.6622 40.3683 17.6787C40.4495 17.6942 40.5034 17.7738 40.4867 17.8554C40.4535 18.0224 40.3888 18.1787 40.2988 18.3176L40.2508 18.3895L40.2263 18.4701C40.2028 18.5468 40.1774 18.6235 40.1529 18.6982C40.1324 18.7604 40.0736 18.8002 40.009 18.8002Z" fill="#333333"/>
<path d="M22.5166 29.7038C22.5048 29.7038 22.4951 29.7018 22.4843 29.6999C22.4021 29.6814 22.3492 29.6008 22.3678 29.5193L22.498 28.9337L23.0903 29.0541C23.1725 29.0716 23.2263 29.1512 23.2077 29.2328C23.1911 29.3134 23.1118 29.3668 23.0286 29.3503L22.73 29.2891L22.6634 29.5843C22.6497 29.6552 22.5851 29.7038 22.5166 29.7038Z" fill="#333333"/>
<path d="M21.0159 31.8341C20.87 31.8341 20.7212 31.8128 20.5753 31.7681C20.5607 31.7642 20.5469 31.7593 20.5332 31.7545C20.4529 31.7283 20.4119 31.6419 20.4373 31.5632C20.4657 31.4845 20.5509 31.4418 20.6302 31.47C20.6419 31.4739 20.6527 31.4777 20.6635 31.4806C20.8965 31.5515 21.1353 31.5515 21.3497 31.4816C21.43 31.4554 21.5161 31.4991 21.5415 31.5777C21.567 31.6574 21.5249 31.7428 21.4437 31.7681C21.3086 31.8118 21.1627 31.8341 21.0159 31.8341ZM22.0379 31.2748C22.0114 31.2748 21.982 31.268 21.9576 31.2525C21.8871 31.2088 21.8646 31.1155 21.9096 31.0447C21.9517 30.9796 21.9869 30.9068 22.0143 30.832C22.075 30.6708 22.1279 30.5019 22.1798 30.3145C22.2003 30.2348 22.2855 30.1873 22.3658 30.2096C22.447 30.231 22.495 30.3145 22.4715 30.3951C22.4187 30.5902 22.3619 30.7679 22.2972 30.9359C22.263 31.032 22.218 31.1214 22.1641 31.2049C22.1377 31.2505 22.0878 31.2748 22.0379 31.2748Z" fill="#333333"/>
<path d="M19.9352 31.2681C19.8872 31.2681 19.8422 31.2467 19.8128 31.2079L19.6053 30.934L19.2803 31.0447C19.201 31.0719 19.1148 31.0292 19.0874 30.9505C19.06 30.8729 19.1031 30.7874 19.1814 30.7602L19.7169 30.5777L20.0565 31.0273C20.1065 31.0933 20.0918 31.1875 20.0262 31.238C19.9979 31.2583 19.9665 31.2681 19.9352 31.2681Z" fill="#333333"/>
<path d="M18.4159 31.104C18.4022 31.104 18.3904 31.103 18.3757 31.0991C18.3581 31.0952 18.3425 31.0904 18.3258 31.0836C18.041 30.9981 17.7884 30.8234 17.6141 30.5961C17.5622 30.5301 17.576 30.4359 17.6415 30.3854C17.7091 30.334 17.804 30.3475 17.8559 30.4145C17.992 30.5922 18.1897 30.7282 18.4119 30.7962C18.4266 30.801 18.4404 30.8039 18.4541 30.8078C18.5353 30.8301 18.5833 30.9117 18.5617 30.9923C18.5431 31.0593 18.4815 31.104 18.4159 31.104ZM17.5065 29.8814C17.5025 29.8814 17.4977 29.8814 17.4957 29.8814C17.4115 29.8756 17.3488 29.8028 17.3537 29.7203C17.3625 29.6115 17.3831 29.5008 17.4174 29.394C17.4663 29.2454 17.5221 29.0843 17.6014 28.8881C17.6308 28.8104 17.7189 28.7726 17.7972 28.8027C17.8755 28.8318 17.9147 28.9192 17.8833 28.9959C17.809 29.1862 17.7532 29.3416 17.7072 29.4853C17.6797 29.5698 17.6631 29.6562 17.6553 29.7407C17.6514 29.8213 17.5848 29.8814 17.5065 29.8814Z" fill="#333333"/>
<path d="M39.2504 12.0788C37.9709 2.95998 27.9398 -1.23676 19.5514 3.82127C7.65451 10.9922 2.15 10.7534 2.15 10.7534C2.15 10.7534 5.88365 21.821 19.0179 27.1645C19.0512 27.1781 19.0854 27.1917 19.1197 27.2024L19.9097 27.5044C20.407 27.6821 20.8984 27.8413 21.3839 27.9802L22.2004 28.1938C31.877 30.5097 38.7374 24.4476 39.3522 15.558L39.2504 12.0788Z" fill="#FBA6AC"/>
<path d="M25.8263 16.092C25.4749 13.5829 22.7134 12.4294 20.406 13.8208C17.1325 15.793 15.6181 15.7279 15.6181 15.7279C15.6181 15.7279 16.646 18.774 20.2592 20.2431C20.268 20.246 20.2778 20.2499 20.2876 20.2538L20.5039 20.3364C20.6419 20.3859 20.776 20.4286 20.9092 20.4675L21.1334 20.5267C23.797 21.1637 25.6834 19.4955 25.8527 17.0504L25.8263 16.092Z" fill="#BC6C74"/>
<path d="M42.5033 14.2772C42.7294 14.083 42.748 13.6965 42.5356 13.4877C41.7348 12.6905 40.6306 12.4128 39.7124 11.7894C39.7094 11.7885 39.7075 11.7865 39.7035 11.7846C39.68 11.6943 39.6546 11.603 39.6262 11.5117C39.6008 11.4331 39.5645 11.367 39.5195 11.3127C39.2591 10.2513 38.7501 9.25119 38.2969 8.26561C37.8035 7.19069 37.2837 6.20511 36.4389 5.35644C35.5715 4.48641 34.5035 3.88148 33.4374 3.2911C32.2666 2.64246 31.0665 2.05012 29.7577 1.72677C27.2565 1.10823 24.6634 1.39276 22.2493 2.21521C21.012 2.6376 19.848 3.16583 18.7408 3.85914C17.6337 4.55244 16.6381 5.40109 15.5026 6.05362C14.321 6.73236 13.0621 7.26742 11.8512 7.89081C10.9271 8.36564 9.98045 8.80161 9.01621 9.19487C7.94331 9.6328 6.83616 9.99694 5.70158 10.2416C4.70504 10.4572 3.62428 10.5786 2.63067 10.2921C2.40454 10.2271 2.21756 10.296 2.0903 10.4251C1.75942 10.3339 1.37568 10.4922 1.40994 10.9204C1.49804 11.9856 2.16569 12.8964 2.73738 13.7645C3.43242 14.82 4.01092 15.9347 4.75295 16.962C6.30259 19.108 8.13225 21.1326 10.2193 22.7784C11.2638 23.6038 12.4121 24.2447 13.5809 24.8768C14.8163 25.5429 16.0831 26.1517 17.3723 26.7013C17.8882 26.9237 18.4148 27.1296 18.9444 27.3267C18.8661 28.1239 18.4315 28.8861 18.1887 29.6406C17.9675 30.3291 19.0463 30.6553 19.2666 29.9688C19.5083 29.2173 19.8784 28.4841 20.0242 27.7044C20.3639 27.8161 20.7055 27.921 21.0481 28.0219C21.0452 28.0278 21.0433 28.0346 21.0413 28.0423C20.8191 28.8007 20.7398 29.5911 20.4637 30.3339C20.2112 31.0107 21.29 31.3341 21.5406 30.6612C21.8176 29.9183 21.8969 29.1289 22.1191 28.3705C22.124 28.3511 22.1289 28.3356 22.1309 28.3171C22.9737 28.5317 23.8234 28.7094 24.678 28.8454C26.6173 29.1541 28.6466 29.1503 30.5369 28.5783C32.391 28.0161 34.0698 27.0092 35.4618 25.674C36.1559 25.0098 36.7638 24.2495 37.269 23.4349C37.7584 22.6483 38.0609 21.7977 38.3918 20.9413C38.756 20.0003 39.2454 19.006 39.5273 17.9855C39.6311 17.8981 39.7026 17.766 39.7055 17.5893C39.7182 17.0727 39.7584 16.5542 39.8034 16.0357C39.8641 16.025 39.9268 16.0056 39.9904 15.9716C40.8832 15.491 41.7349 14.9336 42.5033 14.2772ZM37.92 19.1138C37.5167 20.1411 37.1642 21.2297 36.666 22.2133C35.5794 24.3612 33.6596 26.0411 31.4747 27.0412C29.2095 28.0773 26.678 28.085 24.263 27.6471C21.7393 27.1888 19.2548 26.3333 16.9191 25.2875C15.2657 24.5467 13.6035 23.7096 12.0803 22.7289C10.5786 21.7627 9.29615 20.5373 8.08718 19.2362C6.81849 17.8719 5.65163 16.4173 4.68053 14.8287C4.26449 14.149 3.87878 13.4605 3.44218 12.7935C3.18472 12.3992 2.83918 11.9293 2.65612 11.4457C4.63453 11.8739 6.79598 11.2058 8.63245 10.5319C10.8321 9.72309 12.927 8.62877 15.016 7.5791C17.3674 6.39737 19.2763 4.55148 21.7452 3.57561C24.1484 2.62498 26.7074 2.22006 29.2624 2.75412C30.486 3.01144 31.6 3.55812 32.6886 4.15239C33.6832 4.69713 34.6817 5.2409 35.5157 6.01966C36.3116 6.7654 36.8001 7.66747 37.2396 8.64722C37.7496 9.78429 38.3605 10.9107 38.5396 12.1584C38.5602 12.3012 38.6219 12.4041 38.7031 12.473C38.8862 13.4819 38.8166 14.5054 38.7246 15.5298C38.6179 15.6463 38.5582 15.8085 38.5935 16.0056C38.6268 16.192 38.6385 16.3833 38.6326 16.5746C38.6258 16.6698 38.6179 16.762 38.612 16.8562C38.5249 17.6359 38.1931 18.4224 37.92 19.1138Z" fill="#333333"/>
<path d="M35.8555 10.2047C36.0091 9.50462 34.9333 9.17252 34.7786 9.8765C34.5574 10.8776 33.1262 11.299 32.9383 10.06C32.8296 9.34827 31.7332 9.60656 31.8409 10.3164C31.9887 11.2884 32.7532 11.9992 33.7635 11.9584C34.7708 11.9195 35.643 11.1748 35.8555 10.2047Z" fill="#333333"/>
<path d="M25.5395 14.9569C24.9991 13.5441 23.4504 12.8313 22.0085 13.2198C20.8455 13.5324 19.8157 14.252 18.7644 14.8113C18.0125 15.2103 16.9201 15.826 16.134 15.1997C15.6798 14.8375 15.2069 15.3744 15.3234 15.8308C15.3097 15.9337 15.3303 16.0445 15.3978 16.1474C16.7419 18.2098 18.5245 19.9664 21.0002 20.5587C21.894 20.7733 22.775 20.849 23.6374 20.4936C24.2757 20.2305 24.7916 19.6897 25.1489 19.1148C25.9144 17.8874 26.0524 16.2979 25.5395 14.9569ZM24.7133 16.8417C23.6237 17.1592 22.5254 17.5495 21.3888 17.6631C20.7564 17.7263 20.1475 17.668 19.5768 17.4903C19.846 17.4981 20.1114 17.5 20.3708 17.4903C21.9126 17.433 23.7901 16.9679 24.5596 15.4968C24.7123 15.9153 24.7524 16.3824 24.7133 16.8417ZM20.0614 15.3745C21.1362 14.7715 22.7339 13.6402 23.9145 14.585C23.8058 14.619 23.707 14.6996 23.6384 14.8404C23.0276 16.0794 21.4437 16.3503 20.1848 16.3794C19.6003 16.393 18.9758 16.3591 18.363 16.2503C18.9787 15.9969 19.567 15.6531 20.0614 15.3745ZM23.2468 19.4411C22.4911 19.8402 21.5073 19.5654 20.7457 19.3323C20.1143 19.1381 19.5387 18.84 19.012 18.472C19.6141 18.6953 20.2562 18.8138 20.9454 18.8051C22.1309 18.7895 23.2821 18.438 24.4127 18.0972C24.4059 18.1137 24.398 18.1292 24.3922 18.1467C24.1699 18.6837 23.7657 19.1672 23.2468 19.4411Z" fill="#333333"/>
</svg>
