<svg width="54" height="45" viewBox="0 0 54 45" fill="none" xmlns="http://www.w3.org/2000/svg">
<path d="M6.22568 36.2071C5.10503 37.326 5.10093 39.1491 6.21238 40.269C6.94618 41.0112 8.02485 41.2955 9.02781 41.0112C8.91421 42.1475 9.48631 43.2942 10.5578 43.8546C11.2108 44.1934 11.9589 44.2693 12.6661 44.0671C13.4173 43.8515 14.057 43.3291 14.4213 42.63C14.4275 42.6177 14.4336 42.6074 14.4397 42.5951C18.2592 44.605 24.6771 45.3769 32.795 43.1771L32.8666 43.1556L32.8861 43.1504C40.9364 40.7166 45.9798 36.6608 48.1659 32.9315C48.1782 32.9376 48.1894 32.9469 48.2027 32.9531C48.8762 33.3524 49.6949 33.4571 50.4471 33.2415C51.1523 33.0393 51.7479 32.5784 52.1276 31.9389C52.7406 30.899 52.6209 29.6231 51.926 28.7187C52.9279 28.4293 53.6955 27.6172 53.9258 26.601C54.0977 25.8527 53.9688 25.0807 53.5625 24.4299C53.1572 23.7802 52.5226 23.3285 51.7755 23.155C51.4572 23.0821 51.1379 23.0175 50.8135 22.962C51.5729 22.379 52.0171 21.4356 51.9342 20.4379C51.8697 19.6721 51.5135 18.9761 50.9292 18.4803C50.3448 17.9855 49.6018 17.7464 48.8373 17.8121C48.0093 17.8819 47.166 18.0204 46.3196 18.2237C46.2367 18.0697 46.1538 17.9178 46.0699 17.7679C49.1607 9.86067 44.6576 3.57843 44.4529 3.30024C43.7559 2.3497 42.5984 1.85181 41.4317 1.99963C40.5034 2.11562 39.5967 2.30142 38.7349 2.54778C35.0393 3.60611 32.5913 5.64375 31.0306 7.51919C27.5417 7.29438 24.5697 7.99753 23.3467 8.34859C23.1788 8.39684 23.0488 8.43691 22.9608 8.46463C22.8718 8.48721 22.7398 8.52314 22.5719 8.57139C21.3489 8.92246 18.4567 9.89866 15.6105 11.9373C13.2986 11.1736 10.1464 10.7383 6.45181 11.7987C5.59008 12.0451 4.72324 12.3684 3.87174 12.7616C2.80328 13.2543 2.08283 14.289 1.99072 15.4664C1.96411 15.8114 1.45036 23.5307 8.23775 28.6078C8.24594 28.7793 8.25613 28.9538 8.26636 29.1283C7.43943 29.4034 6.65039 29.7329 5.90942 30.1127C5.22782 30.4617 4.72223 31.0571 4.48684 31.789C4.25145 32.5209 4.3149 33.299 4.66286 33.9806C5.11829 34.8737 5.99333 35.4403 6.9441 35.5327C6.69643 35.7524 6.458 35.9772 6.22568 36.2071Z" fill="#10181E"/>
<path d="M49.8034 21.1811C49.4851 21.1072 49.1647 21.0425 48.8413 20.9871C49.5997 20.405 50.0449 19.4617 49.962 18.4639C49.8975 17.6971 49.5414 17.0032 48.957 16.5063C48.3726 16.0116 47.6296 15.7724 46.8651 15.8371C46.0372 15.9069 45.1939 16.0454 44.3465 16.2497C44.2646 16.0957 44.1817 15.9428 44.0978 15.7929C47.1875 7.88672 42.6854 1.60448 42.4807 1.32527C41.7838 0.374721 40.6252 -0.122101 39.4595 0.0257165C38.5313 0.141712 37.6235 0.326481 36.7618 0.57387C33.0672 1.63118 30.6192 3.67087 29.0584 5.54528C25.5696 5.32048 22.5975 6.02462 21.3745 6.37569C21.2067 6.42291 21.0767 6.46401 20.9887 6.49172C20.8996 6.51328 20.7676 6.5492 20.5998 6.59642C19.3768 6.94748 16.4845 7.92469 13.6384 9.96334C11.3254 9.19859 8.17431 8.76542 4.47972 9.82375C3.618 10.0711 2.75109 10.3945 1.8996 10.7866C0.831133 11.2783 0.110687 12.3151 0.018578 13.4905C-0.00803118 13.8364 -0.52179 21.5557 6.26561 26.6329C6.2738 26.8043 6.28298 26.9778 6.29322 27.1523C5.46731 27.4274 4.67824 27.758 3.93728 28.1367C3.25567 28.4868 2.75008 29.0832 2.51469 29.813C2.2793 30.5449 2.34173 31.3241 2.69072 32.0067C3.14615 32.8987 4.02118 33.4643 4.97195 33.5567C4.72633 33.7774 4.48789 34.0032 4.2566 34.2342C3.13594 35.3521 3.13185 37.1752 4.24329 38.2951C4.97709 39.0383 6.05577 39.3206 7.05873 39.0362C6.94513 40.1726 7.51722 41.3202 8.58875 41.8807C9.2417 42.2204 9.98883 42.2954 10.696 42.0942C11.4482 41.8776 12.0879 41.3551 12.4522 40.655C12.4584 40.6438 12.4645 40.6335 12.4707 40.6211C16.2901 42.63 22.707 43.4019 30.8259 41.2021L30.8975 41.1816L30.916 41.1754C38.9673 38.7416 44.0108 34.6879 46.1958 30.9566C46.2091 30.9648 46.2204 30.973 46.2337 30.9781C46.9071 31.3774 47.7258 31.4832 48.477 31.2676C49.1832 31.0664 49.7788 30.6045 50.1585 29.965C50.7716 28.9241 50.6518 27.6491 49.9569 26.7448C50.9588 26.4553 51.7264 25.6444 51.9567 24.6271C52.1286 23.8788 51.9997 23.1079 51.5934 22.456C51.185 21.8062 50.5505 21.3535 49.8034 21.1811Z" fill="white"/>
<path d="M39.8659 3.25535C34.5491 3.92874 31.8135 6.99286 30.5659 8.99558C26.0035 8.21133 21.8811 9.62487 21.8811 9.62487C21.8811 9.62487 17.6369 10.6083 14.1767 13.6929C12.0623 12.651 8.1272 11.5013 3.25771 13.7453C3.25771 13.7453 2.69587 20.8744 9.49044 24.8727C9.37479 29.9734 10.9335 34.9335 12.2834 36.4743C14.2494 38.7203 20.5373 40.6132 29.9795 38.0561C39.3439 35.225 43.6863 30.2855 44.1725 27.3373C44.5061 25.3141 43.2176 20.278 40.4349 16.0087C44.0957 9.01101 39.8659 3.25535 39.8659 3.25535Z" fill="#94A1A1"/>
<path d="M29.9774 38.055C37.4945 35.7823 41.7714 32.1516 43.4202 29.2835C41.272 29.2619 38.2724 28.5465 36.3995 26.8271C33.5308 24.1951 28.7903 23.8266 25.6934 24.5811C22.5975 25.3345 18.5211 30.0903 17.9439 33.1781C17.5775 35.1387 15.2155 36.6528 13.5391 37.4977C16.3218 39.2068 22.0335 40.2076 29.9774 38.055Z" fill="white"/>
<path d="M25.0383 31.1928C25.0383 31.1928 25.9124 34.7106 28.5129 34.0383C31.4604 33.2766 30.1965 29.7136 30.1965 29.7136L27.4035 28.0938L25.0383 31.1928Z" fill="#F05A28"/>
<path d="M24.0262 13.7657C24.2974 13.5183 24.281 13.0923 24.2452 12.7259C24.1265 11.5248 24.0078 10.3238 23.889 9.12487C22.6497 9.35994 21.88 9.62371 21.88 9.62371C21.88 9.62371 21.703 9.66378 21.3949 9.75616C21.7009 10.8987 21.921 12.076 22.5002 13.1015C22.6579 13.3807 22.8513 13.6538 23.1296 13.8119C23.408 13.971 23.7898 13.9833 24.0262 13.7657Z" fill="#747F7F"/>
<path d="M17.9265 11.1552C18.2735 12.0441 18.6368 12.929 19.0093 13.8077C19.2068 14.2779 19.5599 14.8373 20.0594 14.7428C20.3848 14.6802 20.5936 14.3363 20.6212 14.0048C20.6468 13.6742 20.5353 13.3489 20.437 13.0327C20.1597 12.1304 19.998 11.1942 19.9458 10.2518C19.3553 10.4787 18.6644 10.7774 17.9265 11.1552Z" fill="#747F7F"/>
<path d="M27.6379 12.344C27.7484 12.152 27.7443 11.9179 27.732 11.6983C27.6809 10.7128 27.557 9.73045 27.3687 8.76245C26.6053 8.77477 25.8878 8.83225 25.239 8.91232C25.2451 8.93388 25.2512 8.95645 25.2573 8.97698C25.4518 9.71504 25.6483 10.4531 25.8428 11.1922C25.9605 11.6377 26.0945 12.1068 26.4374 12.4117C26.7802 12.7166 27.4066 12.7412 27.6379 12.344Z" fill="#747F7F"/>
<path d="M10.3419 21.3825C10.3419 21.3825 12.3007 17.9314 12.2444 16.6821C12.1882 15.4349 6.69335 14.4802 6.18675 15.6484C5.67913 16.8186 8.16913 21.3435 10.3419 21.3825Z" fill="white"/>
<path d="M37.7606 13.5276C37.7606 13.5276 34.28 11.6336 33.669 10.5455C33.058 9.45432 37.2213 5.73323 38.2672 6.45794C39.3142 7.18061 39.5834 12.3409 37.7606 13.5276Z" fill="white"/>
<path d="M12.5464 27.525C12.6845 27.0857 12.6313 26.557 12.2987 26.2398C11.2937 26.3928 10.4043 26.9111 9.57531 27.5229C9.66742 28.6213 9.82505 29.6817 10.0277 30.6733C10.6448 30.0277 11.2456 29.3686 11.8187 28.6839C12.1134 28.3308 12.4082 27.9633 12.5464 27.525Z" fill="#747F7F"/>
<path d="M16.6616 34.028C16.8847 33.5486 16.726 32.8475 16.2164 32.7079C15.9134 32.6248 15.5962 32.7613 15.326 32.9214C14.015 33.7026 13.1318 35.0925 11.9436 36.0132C12.0561 36.1857 12.1698 36.3458 12.2813 36.4731C12.5228 36.7492 12.8298 37.0193 13.1993 37.2759C13.9003 36.4783 14.6863 35.7546 15.545 35.1284C15.9728 34.8184 16.4374 34.5084 16.6616 34.028Z" fill="#747F7F"/>
<path d="M10.9897 34.0629C11.2169 33.7283 11.4912 33.4214 11.7788 33.135C12.4 32.517 15.0303 31.044 14.6956 30.0051C14.1808 28.4068 11.9313 30.4526 11.4073 30.9638C11.0368 31.3242 10.7697 31.78 10.4084 32.1516C10.4002 32.1608 10.391 32.1669 10.3839 32.1751C10.5691 32.8598 10.7727 33.4953 10.9897 34.0629Z" fill="#747F7F"/>
<path d="M38.7666 18.655C38.652 19.1005 38.8843 19.5788 39.2323 19.8775C39.5803 20.1762 40.0255 20.3333 40.4614 20.477C41.3078 20.7541 42.1665 20.9943 43.0293 21.2171C42.6793 20.2665 42.2556 19.2831 41.7551 18.3038C40.7286 18.2217 39.701 18.2526 38.7666 18.655Z" fill="#747F7F"/>
<path d="M44.1714 27.3362C44.198 27.1689 44.2113 26.9728 44.2175 26.7665C42.7222 26.6146 41.2404 25.9011 39.7165 25.933C39.4023 25.9401 39.0604 25.9925 38.8465 26.2235C38.4883 26.6115 38.7237 27.291 39.1668 27.5795C39.609 27.8679 40.1668 27.8864 40.6928 27.9234C41.751 27.9983 42.8001 28.1975 43.8153 28.5034C43.9924 28.0907 44.111 27.6975 44.1714 27.3362Z" fill="#747F7F"/>
<path d="M42.011 22.1933C41.2977 22.0372 38.3103 21.4932 38.7145 23.1223C38.9775 24.1806 41.9864 24.039 42.8389 24.234C43.234 24.3243 43.628 24.4403 43.9975 24.6045C43.8828 24.0071 43.7211 23.3594 43.5185 22.6798C43.5062 22.6767 43.496 22.6758 43.4848 22.6727C42.9822 22.5505 42.5166 22.3041 42.011 22.1933Z" fill="#747F7F"/>
<path d="M30.1361 38.6073C30.133 38.6083 30.1299 38.6093 30.1279 38.6114C20.8321 41.1273 14.1378 39.4634 11.8514 36.8519C10.3756 35.1643 8.87021 30.1262 8.91218 25.1948C2.1913 21.0303 2.67943 13.7749 2.68557 13.701C2.70195 13.4927 2.82889 13.3099 3.0172 13.2237C3.74281 12.889 4.48275 12.6119 5.21348 12.4035C8.98585 11.3215 12.0674 12.0945 14.0815 13.0132C16.8908 10.6235 20.0686 9.53749 21.3335 9.17616C21.5331 9.11765 21.6682 9.08378 21.7224 9.07146C21.7777 9.05299 21.9087 9.01091 22.1093 8.95342C23.3732 8.59209 26.6441 7.8294 30.2865 8.37037C31.5136 6.52368 33.7232 4.23453 37.4955 3.15361C38.2283 2.94318 39.001 2.78816 39.7931 2.68653C39.9989 2.66087 40.2025 2.74917 40.3263 2.91547C40.3693 2.97603 44.6064 8.87849 41.0919 15.9758C43.7242 20.1424 45.1007 25.2185 44.7363 27.4316C44.1694 30.8602 39.3613 35.8203 30.1422 38.6073C30.1412 38.6063 30.1381 38.6073 30.1361 38.6073ZM3.81544 14.125C3.80112 15.5456 4.12966 21.0518 9.77901 24.3767C9.95913 24.4835 10.0666 24.6775 10.0615 24.8859C9.94583 30.0205 11.5546 34.7722 12.7121 36.0933C14.4305 38.056 20.4053 40.0505 29.8209 37.5027C39.1566 34.6777 43.1797 29.8203 43.6055 27.2417C43.892 25.5079 42.756 20.6197 39.9539 16.3207C39.8403 16.1472 39.829 15.9234 39.9262 15.7397C42.9412 9.98195 40.3305 5.07116 39.5874 3.87425C38.9754 3.96664 38.3798 4.09594 37.8118 4.25813C36.4599 4.64615 35.1693 5.25387 34.0313 6.08535C33.0447 6.80493 32.1021 7.2063 32.8359 8.56335C33.1132 9.07455 33.5165 9.50566 33.8501 9.98094C34.2247 10.5158 34.5123 11.106 34.7978 11.6932C31.662 8.6619 26.332 8.93799 22.4255 10.0589C22.1994 10.1236 22.0745 10.1657 22.0663 10.1668C22.0489 10.1729 22.0294 10.1791 22.011 10.1832C22.0028 10.1852 21.8739 10.215 21.6487 10.2807C18.5928 11.1563 15.3065 12.8397 13.4337 15.4861C13.1164 15.9337 12.8462 16.4131 12.576 16.8904C12.271 17.4283 11.9671 17.9683 11.6621 18.5072C11.4748 17.5638 11.6785 16.5957 11.7481 15.636C11.7942 15.0047 11.8494 13.9043 11.3786 13.3962C11.0347 13.0256 10.4617 13.1118 9.99395 13.079C8.47313 12.9784 7.00037 13.0851 5.52868 13.506C4.95965 13.6702 4.38549 13.8786 3.81544 14.125Z" fill="#3B3432"/>
<path d="M31.8565 29.9436C31.8176 29.9549 31.7787 29.9651 31.7398 29.9743C29.785 30.4794 28.2816 29.6972 27.338 28.7877C27.0166 30.0606 26.1518 31.5203 24.2268 32.128C24.1879 32.1403 24.1489 32.1505 24.1111 32.1618C21.8739 32.8034 20.44 31.3416 19.9897 30.464C19.8444 30.1827 19.955 29.8347 20.2364 29.69C20.5148 29.5453 20.8627 29.6551 21.008 29.9384C21.0981 30.1068 21.9435 31.588 23.7969 31.0573C23.8256 31.0491 23.8552 31.0389 23.8839 31.0317C26.5069 30.2033 26.3524 27.4604 26.3442 27.3444C26.3258 27.0734 26.4988 26.827 26.7587 26.7531C26.7587 26.7531 26.7598 26.7531 26.7608 26.7531C27.0218 26.6782 27.297 26.7973 27.4229 27.0375C27.4772 27.1391 28.7902 29.5494 31.4532 28.8616C31.4829 28.8534 31.5125 28.8452 31.5412 28.838C33.4489 28.2919 33.3261 26.4883 33.3189 26.4103C33.2943 26.0931 33.5287 25.817 33.8439 25.7903C34.1602 25.7646 34.4365 26.0007 34.4621 26.3179C34.5409 27.3003 34.0937 29.302 31.8565 29.9436Z" fill="#3B3432"/>
<path d="M18.0688 24.5708C19.6327 24.5708 20.9006 23.2991 20.9006 21.7304C20.9006 20.1617 19.6327 18.8901 18.0688 18.8901C16.5048 18.8901 15.237 20.1617 15.237 21.7304C15.237 23.2991 16.5048 24.5708 18.0688 24.5708Z" fill="#3B3432"/>
<path d="M18.34 22.3462C18.8165 22.3462 19.2028 21.9587 19.2028 21.4808C19.2028 21.0029 18.8165 20.6154 18.34 20.6154C17.8635 20.6154 17.4772 21.0029 17.4772 21.4808C17.4772 21.9587 17.8635 22.3462 18.34 22.3462Z" fill="white"/>
<path d="M20.0256 22.9068C20.2929 22.9068 20.5097 22.6894 20.5097 22.4213C20.5097 22.1531 20.2929 21.9357 20.0256 21.9357C19.7582 21.9357 19.5415 22.1531 19.5415 22.4213C19.5415 22.6894 19.7582 22.9068 20.0256 22.9068Z" fill="white"/>
<path d="M31.4942 20.7244C33.0582 20.7244 34.326 19.4527 34.326 17.884C34.326 16.3153 33.0582 15.0437 31.4942 15.0437C29.9302 15.0437 28.6623 16.3153 28.6623 17.884C28.6623 19.4527 29.9302 20.7244 31.4942 20.7244Z" fill="#3B3432"/>
<path d="M31.7654 18.4999C32.2418 18.4999 32.6281 18.1124 32.6281 17.6345C32.6281 17.1566 32.2418 16.7692 31.7654 16.7692C31.2889 16.7692 30.9026 17.1566 30.9026 17.6345C30.9026 18.1124 31.2889 18.4999 31.7654 18.4999Z" fill="white"/>
<path d="M33.451 19.0594C33.7183 19.0594 33.935 18.842 33.935 18.5738C33.935 18.3057 33.7183 18.0883 33.451 18.0883C33.1836 18.0883 32.9669 18.3057 32.9669 18.5738C32.9669 18.842 33.1836 19.0594 33.451 19.0594Z" fill="white"/>
<path d="M27.7802 24.1139C26.5889 23.7988 25.3474 24.154 24.5031 25.0542C24.1142 25.4648 23.8615 25.9503 24.0968 26.4194C24.4028 27.0333 25.2124 27.4254 25.9145 27.6595C26.6636 27.9089 27.4506 27.6841 27.9541 27.0754C28.427 26.5047 28.909 25.742 28.8445 25.0583C28.7964 24.5348 28.3267 24.2597 27.7802 24.1139Z" fill="#3B3432"/>
<path d="M17.1528 29.4753C17.1242 29.4845 17.0924 29.4855 17.0607 29.4794C16.9962 29.466 10.5998 28.1654 5.32809 30.8672C5.23291 30.9155 5.11928 30.8775 5.07117 30.7831C5.02307 30.6886 5.05997 30.5747 5.15413 30.5244C10.5517 27.762 17.074 29.0914 17.1395 29.1047C17.2429 29.1252 17.3094 29.2279 17.2879 29.3316C17.2725 29.4034 17.2194 29.4558 17.1528 29.4753Z" fill="#3B3432"/>
<path d="M6.33005 36.4544C6.26557 36.4729 6.19189 36.4565 6.14072 36.4042C6.06703 36.3303 6.06701 36.2081 6.14172 36.1332C11.1258 31.1648 18.1589 30.7707 18.2295 30.7676C18.3349 30.7614 18.4239 30.8436 18.429 30.9483C18.4341 31.055 18.3564 31.1443 18.2469 31.1495C18.1783 31.1536 11.2876 31.5426 6.41194 36.4052C6.3884 36.4278 6.35973 36.4452 6.33005 36.4544Z" fill="#3B3432"/>
<path d="M9.96118 39.5115C9.91614 39.5238 9.86603 39.5218 9.821 39.4971C9.72685 39.4479 9.69101 39.3329 9.73911 39.2384C12.2414 34.4097 17.4742 32.7529 17.5253 32.7355C17.6226 32.6975 17.7331 32.7622 17.7638 32.8628C17.7945 32.9644 17.7383 33.0712 17.638 33.1009C17.5858 33.1184 12.5044 34.732 10.0769 39.415C10.0533 39.4643 10.0103 39.4981 9.96118 39.5115Z" fill="#3B3432"/>
<path d="M36.3493 23.9753C36.378 23.9671 36.4066 23.9517 36.4292 23.9291C36.4762 23.8839 41.2239 19.3898 47.122 18.891C47.2284 18.8807 47.3052 18.7893 47.296 18.6846C47.2868 18.5779 47.1936 18.4998 47.0892 18.5091C41.052 19.0213 36.2132 23.6068 36.1641 23.653C36.0884 23.7259 36.0853 23.847 36.1579 23.924C36.2091 23.9773 36.2838 23.9937 36.3493 23.9753Z" fill="#3B3432"/>
<path d="M49.2149 24.1662C49.2794 24.1477 49.3315 24.0954 49.3479 24.0245C49.3714 23.9209 49.308 23.8192 49.2046 23.7946C42.3558 22.2169 36.1774 25.6084 36.116 25.6433C36.0239 25.6936 35.9911 25.8117 36.0423 25.902C36.0945 25.9944 36.206 26.0303 36.3022 25.9759C36.3626 25.9431 42.4192 22.6233 49.1186 24.1672C49.1524 24.1764 49.1852 24.1754 49.2149 24.1662Z" fill="#3B3432"/>
<path d="M47.7411 28.6869C47.7872 28.6746 47.8281 28.6438 47.8526 28.5996C47.9069 28.5083 47.8762 28.3923 47.7872 28.3379C43.1183 25.5632 37.8036 26.9274 37.7494 26.9408C37.647 26.9613 37.5877 27.0732 37.6143 27.1758C37.6409 27.2785 37.7452 27.3401 37.8476 27.3124C37.8998 27.3 43.0651 25.9769 47.5917 28.6674C47.6388 28.6951 47.693 28.7013 47.7411 28.6869Z" fill="#3B3432"/>
</svg>
