<svg width="50" height="64" viewBox="0 0 50 64" fill="none" xmlns="http://www.w3.org/2000/svg">
<path d="M40.4087 14.7293C39.9357 14.7293 39.4849 14.7681 39.0661 14.8339C40.7831 11.4465 40.0576 7.83112 40.0194 7.64782L38.5894 1.18319L35.8352 7.22367C35.6701 7.58556 34.835 8.61011 32.7583 10.3314C32.2077 10.04 31.6362 9.77802 31.0462 9.55125C30.4389 8.31049 29.0261 6.89819 25.7571 6.7102C25.6277 6.70315 25.4947 6.69844 25.3654 6.69844C23.4709 6.69844 21.7687 7.51976 20.7475 8.88506C19.5454 9.16353 18.4048 9.56418 17.3393 10.0835C15.4683 8.50084 14.7107 7.55968 14.558 7.22482L11.8026 1.17497L10.3812 7.61846C10.3713 7.65958 9.56944 11.3266 11.2963 14.781C10.9798 14.7469 10.662 14.7305 10.3467 14.7305C8.48181 14.7305 4.9541 15.412 2.28244 19.9767L0.769838 22.5557L3.82088 23.0738C4.59811 23.2066 5.80768 23.8152 6.87807 24.3545C7.2673 24.5508 7.66393 24.7494 8.06055 24.9397C7.92506 26.137 7.85732 27.386 7.85978 28.6714C7.20326 29.8369 6.86946 31.06 6.86946 32.3196C6.86946 35.6588 9.2307 38.7149 13.2918 40.7628C11.3419 44.2948 10.1742 48.3472 10.1742 51.7569C10.1742 54.4217 10.9662 56.64 12.5293 58.3661C12.7018 61.5055 15.0606 64 17.9355 64C19.3963 64 20.7488 63.3738 21.7465 62.274C22.823 62.3868 23.9784 62.4443 25.1978 62.4443C26.1783 62.4443 27.1194 62.4079 28.0099 62.3339C29.0039 63.3937 30.3392 64 31.7643 64C34.4076 64 36.605 61.9274 37.083 59.1368C39.1671 57.3286 40.2227 54.8506 40.2227 51.7569C40.2227 48.4177 38.8641 44.2254 36.6679 40.5948C40.5282 38.548 42.7687 35.5578 42.7687 32.3196C42.7687 31.06 42.4361 29.8357 41.7784 28.6714C41.7784 28.649 41.7784 28.6279 41.7784 28.6067C41.7759 27.5164 41.7217 26.4495 41.6183 25.4191C42.3758 25.1112 43.137 24.7282 43.8859 24.3522C44.9513 23.8153 46.1609 23.2066 46.9394 23.0738L49.9867 22.5557L48.4766 19.979C45.8025 15.4108 42.2735 14.7293 40.4087 14.7293ZM42.0087 20.9765C40.9272 21.5217 39.8076 22.0834 39.0772 22.2091L37.1593 22.5357L37.4488 24.3722C37.6582 25.7022 37.7666 27.1298 37.7715 28.6138C37.7715 28.7536 37.7678 28.9028 37.7592 29.072L37.7309 29.6701L38.0647 30.1776C38.5266 30.8791 38.7606 31.5994 38.7606 32.3184C38.7606 34.4733 36.5582 36.6599 33.0145 38.0275L30.6853 38.9276L32.1239 40.8921C34.5702 44.2337 36.2146 48.5987 36.2146 51.7558C36.2146 53.9494 35.4768 55.5497 33.9605 56.6459L33.2005 57.197L33.1697 58.1052C33.1278 59.3284 32.3937 60.1802 31.7594 60.1802C31.3135 60.1802 30.9205 59.776 30.7025 59.3953L30.0435 58.2497L28.6849 58.4213C27.6293 58.5541 26.4542 58.6234 25.1941 58.6234C23.6951 58.6234 22.3229 58.5271 21.1171 58.3391L19.6833 58.1146L19.0157 59.3448C18.7964 59.749 18.3961 60.1802 17.9305 60.1802C17.2629 60.1802 16.519 59.2461 16.519 57.9983C16.519 57.929 16.5226 57.8538 16.53 57.7622L16.6039 56.8574L15.9179 56.2335C14.744 55.1643 14.1737 53.7003 14.1737 51.7558C14.1737 48.4577 15.6025 44.2078 17.8123 40.9309L19.1389 38.9616L16.8528 38.1168C13.1624 36.7516 10.8702 34.5297 10.8702 32.3173C10.8702 31.5994 11.1042 30.8791 11.5649 30.1788L11.8974 29.6736L11.8703 29.0791C11.8642 28.9392 11.8605 28.8077 11.8605 28.6761C11.8568 27.0581 11.975 25.5142 12.2152 24.0855L12.4714 22.5592L10.9613 22.0011C10.3097 21.7614 9.54973 21.3795 8.7417 20.9707C8.17387 20.6851 7.59741 20.3949 7.01973 20.1353C8.01498 19.079 9.12848 18.5444 10.3467 18.5444C10.8689 18.5444 11.4047 18.636 11.9393 18.8193L13.5196 19.3586L14.3523 17.9675C14.6898 17.4023 15.0643 16.8701 15.4633 16.3895L16.418 15.2369L15.4954 14.0619C15.2589 13.7588 15.0618 13.4427 14.9017 13.1184C15.1874 13.357 15.4954 13.6084 15.8255 13.8716L16.9562 14.7716L18.1929 14.0102C19.432 13.2477 20.8473 12.7201 22.4018 12.4452L23.4574 12.2595L23.8786 11.3161C23.8873 11.2949 23.8971 11.2749 23.907 11.2538C24.1509 10.7897 24.6965 10.5124 25.3641 10.5124C25.4122 10.5124 25.4602 10.5147 25.5119 10.5171C26.0157 10.5464 27.2117 10.671 27.4359 11.1986C27.4482 11.2279 27.4667 11.282 27.484 11.3701L27.6995 12.4839L28.829 12.8376C29.8982 13.1725 30.891 13.646 31.7803 14.244L33.0244 15.0818L34.2031 14.1606C34.6724 13.794 35.0986 13.4498 35.4866 13.1266C35.2612 13.5743 34.9717 14.0114 34.5961 14.412L33.5244 15.56L34.4692 16.8043C34.8239 17.2707 35.1553 17.7795 35.4546 18.3117L36.3981 19.9919L38.1607 19.0966C38.4859 18.9298 39.3555 18.5456 40.4099 18.5456C41.6281 18.5456 42.7416 19.079 43.7369 20.1365C43.1567 20.3985 42.579 20.6887 42.0087 20.9765Z" fill="#6B5951"/>
<path d="M39.6388 13.5543C39.1658 13.5543 38.715 13.5931 38.2962 13.6589C40.0133 10.2715 39.2878 6.65614 39.2496 6.47285L37.8196 0.00821123L35.0654 6.0487C34.9003 6.41058 34.0652 7.43514 31.9885 9.15645C31.4379 8.86506 30.8663 8.60304 30.2763 8.37628C29.6691 7.13552 28.2563 5.72322 24.9872 5.53523C24.8579 5.52818 24.7248 5.52347 24.5955 5.52347C22.7011 5.52347 20.9988 6.34479 19.9777 7.71009C18.7755 7.98856 17.6349 8.3892 16.5695 8.90854C14.6984 7.32587 13.9409 6.38471 13.7882 6.04985L11.0328 0L9.61133 6.44348C9.60147 6.48461 8.7996 10.1516 10.5265 13.606C10.21 13.5719 9.89217 13.5555 9.57684 13.5555C7.71197 13.5555 4.18426 14.237 1.5126 18.8017L0 21.3807L3.05104 21.8989C3.82827 22.0316 5.03784 22.6403 6.10823 23.1796C6.49746 23.3758 6.89409 23.5744 7.29071 23.7647C7.15522 24.962 7.08748 26.211 7.08995 27.4964C6.43343 28.6619 6.09962 29.8851 6.09962 31.1446C6.09962 34.4827 8.46087 37.5399 12.5219 39.5867C10.5721 43.1186 9.40439 47.1711 9.40439 50.5808C9.40439 53.2456 10.1964 55.4639 11.7595 57.1899C11.9319 60.3294 14.2907 62.8238 17.1656 62.8238C18.6265 62.8238 19.9789 62.1976 20.9766 61.0978C22.0532 61.2106 23.2086 61.2682 24.428 61.2682C25.4085 61.2682 26.3495 61.2318 27.2401 61.1578C28.2341 62.2176 29.5693 62.8238 30.9944 62.8238C33.6378 62.8238 35.8352 60.7512 36.3131 57.9607C38.3972 56.1524 39.4528 53.6745 39.4528 50.5808C39.4528 47.2416 38.0942 43.0493 35.898 39.4187C39.7583 37.3719 41.9989 34.3816 41.9989 31.1446C41.9989 29.8851 41.6663 28.6608 41.0085 27.4964C41.0085 27.4741 41.0085 27.4529 41.0085 27.4318C41.0061 26.3414 40.9519 25.2745 40.8484 24.2441C41.6059 23.9363 42.3671 23.5532 43.116 23.1772C44.1815 22.6403 45.3911 22.0316 46.1695 21.8989L49.2169 21.3807L47.7068 18.804C45.0326 14.2358 41.5037 13.5543 39.6388 13.5543ZM41.2389 19.8016C40.1574 20.3468 39.0377 20.9084 38.3073 21.0341L36.3895 21.3607L36.6789 23.1972C36.8883 24.5273 36.9967 25.9548 37.0017 27.4388C37.0017 27.5786 36.998 27.7279 36.9893 27.8971L36.961 28.4951L37.2948 29.0027C37.7567 29.7041 37.9908 30.4244 37.9908 31.1435C37.9908 33.2972 35.7884 35.4849 32.2447 36.8526L29.9154 37.7526L31.3541 39.7171C33.8004 43.0587 35.4447 47.4237 35.4447 50.5808C35.4447 52.7744 34.7069 54.3747 33.1906 55.471L32.4307 56.022L32.3999 56.9303C32.358 58.1534 31.6239 59.0052 30.9895 59.0052C30.5436 59.0052 30.1507 58.601 29.9327 58.2204L29.2737 57.0748L27.9151 57.2463C26.8595 57.3791 25.6844 57.4484 24.4243 57.4484C22.9253 57.4484 21.5531 57.3521 20.3472 57.1641L18.9135 56.9397L18.2459 58.1698C18.0266 58.574 17.6263 59.0052 17.1607 59.0052C16.4931 59.0052 15.7491 58.0711 15.7491 56.8233C15.7491 56.754 15.7528 56.6788 15.7602 56.5872L15.8341 55.6824L15.148 55.0586C13.9742 53.9894 13.4039 52.5254 13.4039 50.5808C13.4039 47.2827 14.8327 43.0328 17.0424 39.7559L18.369 37.7867L16.0829 36.9419C12.3926 35.5766 10.1003 33.3547 10.1003 31.1435C10.1003 30.4256 10.3344 29.7041 10.795 29.005L11.1276 28.4998L11.1005 27.9053C11.0943 27.7654 11.0906 27.6339 11.0906 27.5023C11.0869 25.8843 11.2052 24.3404 11.4454 22.9117L11.7016 21.3854L10.1915 20.8273C9.53988 20.5876 8.77989 20.2058 7.97186 19.7969C7.40403 19.5114 6.82758 19.2211 6.24989 18.9615C7.24514 17.9052 8.35864 17.3706 9.57684 17.3706C10.0991 17.3706 10.6349 17.4622 11.1695 17.6455L12.7498 18.1848L13.5825 16.7937C13.92 16.2285 14.2944 15.6963 14.6935 15.2157L15.6481 14.0631L14.7255 12.8881C14.489 12.585 14.292 12.2689 14.1318 11.9446C14.4176 12.1832 14.7255 12.4346 15.0556 12.6978L16.1864 13.5978L17.4231 12.8364C18.6622 12.0739 20.0775 11.5463 21.6319 11.2714L22.6875 11.0857L23.1088 10.1422C23.1174 10.1211 23.1273 10.1011 23.1371 10.08C23.381 9.61587 23.9267 9.33857 24.5943 9.33857C24.6423 9.33857 24.6904 9.34091 24.7421 9.34326C25.2459 9.37264 26.4419 9.4972 26.6661 10.0248C26.6784 10.0541 26.6969 10.1082 26.7141 10.1963L26.9297 11.3102L28.0592 11.6638C29.1283 11.9987 30.1211 12.4722 31.0105 13.0702L32.2545 13.908L33.4333 12.9868C33.9026 12.6202 34.3288 12.276 34.7168 11.9529C34.4914 12.4005 34.2019 12.8376 33.8262 13.2383L32.7546 14.3862L33.6994 15.6305C34.0541 16.0969 34.3854 16.6057 34.6848 17.1379L35.6283 18.8181L37.3909 17.9228C37.7161 17.756 38.5857 17.3718 39.6401 17.3718C40.8583 17.3718 41.9718 17.9052 42.967 18.9627C42.3869 19.2235 41.8092 19.5137 41.2389 19.8016Z" fill="white"/>
<path d="M37.2449 50.581C37.2449 57.2136 31.505 59.164 24.4262 59.164C17.3461 59.164 11.6074 57.2136 11.6074 50.581C11.6074 43.9483 16.9679 33.067 24.0468 33.067C31.1269 33.067 37.2449 43.9483 37.2449 50.581Z" fill="#AF1524"/>
<path d="M17.6152 58.3026C19.6919 58.1311 21.7637 57.7927 23.7074 57.137C27.6034 55.8199 30.9489 51.4479 29.1764 47.3473C26.6525 41.5136 19.8828 39.2941 14.0801 41.2869C12.5158 44.4005 11.6068 47.8502 11.6068 50.5808C11.6068 54.8647 14.0111 57.1899 17.6152 58.3026Z" fill="#F4606E"/>
<path d="M19.3249 57.5471C21.4016 57.3756 21.7637 57.7927 23.7086 57.1359C27.6046 55.8187 30.9501 51.4467 29.1776 47.3461C26.6537 41.5124 19.8841 39.2929 14.0813 41.2857C12.517 44.3993 12.4591 47.6246 12.4591 50.3552C12.4579 54.6402 15.7208 56.4344 19.3249 57.5471Z" fill="#C52831"/>
<path d="M24.4268 59.3589C15.7861 59.3589 11.4047 56.4051 11.4047 50.5808C11.4047 43.5886 17.0683 32.8742 24.0474 32.8742C31.1866 32.8742 37.4488 43.9106 37.4488 50.5808C37.4488 56.4051 33.0675 59.3589 24.4268 59.3589ZM24.0474 33.2619C17.2937 33.2619 11.8125 43.7425 11.8125 50.5808C11.8125 56.2265 15.9388 58.9712 24.4268 58.9712C32.916 58.9712 37.0423 56.2265 37.0423 50.5808C37.0411 44.0563 30.9686 33.2619 24.0474 33.2619Z" fill="#231F20"/>
<path d="M24.894 59.3087L24.2667 39.9996L23.8605 40.0117L24.4877 59.3208L24.894 59.3087Z" fill="#231F20"/>
<path d="M26.607 45.062H21.4878C21.3757 45.062 21.2846 44.9751 21.2846 44.867C21.2846 44.7589 21.3757 44.6743 21.4878 44.6743H26.607C26.719 44.6743 26.8102 44.7589 26.8102 44.867C26.8102 44.9751 26.719 45.062 26.607 45.062Z" fill="#231F20"/>
<path d="M26.607 46.7316H21.4878C21.3757 46.7316 21.2846 46.6446 21.2846 46.5365C21.2846 46.4284 21.3757 46.3438 21.4878 46.3438H26.607C26.719 46.3438 26.8102 46.4284 26.8102 46.5365C26.8102 46.6446 26.719 46.7316 26.607 46.7316Z" fill="#231F20"/>
<path d="M36.2263 16.5859C36.2263 16.5859 41.8049 13.034 45.7797 19.8276C43.0502 20.2917 39.2195 23.5334 37.3041 22.6064C35.3875 21.6805 36.2263 16.5859 36.2263 16.5859Z" fill="#A57E5B"/>
<path d="M38.0991 22.9657C37.7666 22.9657 37.4673 22.9023 37.2111 22.7789C35.1861 21.8013 35.9892 16.769 36.0249 16.5551L36.0385 16.4706L36.1136 16.4236C36.1752 16.3848 37.6459 15.4636 39.6401 15.4636C41.383 15.4636 43.8933 16.205 45.9577 19.7334L46.0969 19.9708L45.8148 20.0189C44.7284 20.2034 43.4301 20.8579 42.1738 21.49C40.6661 22.249 39.2422 22.9657 38.0991 22.9657ZM36.4129 16.702C36.19 18.146 35.9621 21.7403 37.3958 22.4323C37.5966 22.5298 37.8269 22.5768 38.0991 22.5768C39.1412 22.5768 40.5873 21.8495 41.9828 21.1457C43.1641 20.5512 44.3811 19.9379 45.4638 19.6923C43.9044 17.1426 41.9459 15.8502 39.6388 15.8502C38.0105 15.8513 36.7282 16.5234 36.4129 16.702Z" fill="#664D38"/>
<path d="M37.0707 19.9625C37.0707 19.9625 40.3262 16.5763 43.2442 19.0649C40.5737 20.4842 37.7001 19.4996 37.0707 19.9625Z" fill="#FF9CB8"/>
<path d="M12.99 16.5865C12.99 16.5865 7.41265 13.0346 3.43657 19.8282C6.16489 20.2923 9.99562 23.534 11.9122 22.607C13.8276 21.6811 12.99 16.5865 12.99 16.5865Z" fill="#B29474"/>
<path d="M11.1165 22.9646C9.97223 22.9646 8.54833 22.249 7.0419 21.4888C5.78552 20.8567 4.48603 20.2022 3.39963 20.0177L3.11756 19.9696L3.25675 19.7323C5.32239 16.2027 7.83269 15.4624 9.57437 15.4624C11.5686 15.4624 13.0393 16.3836 13.0996 16.4224L13.1748 16.4694L13.1895 16.554C13.224 16.7678 14.0284 21.799 12.0021 22.7777C11.7472 22.9034 11.4491 22.9646 11.1165 22.9646ZM3.7519 19.6923C4.83338 19.9379 6.05158 20.5512 7.23282 21.1457C8.62962 21.8495 10.0757 22.5768 11.1177 22.5768C11.3887 22.5768 11.6191 22.5298 11.8198 22.4323C13.2536 21.7391 13.0257 18.146 12.8028 16.702C12.4875 16.5234 11.2015 15.8502 9.57684 15.8502C7.26854 15.8513 5.31006 17.1426 3.7519 19.6923Z" fill="#664D38"/>
<path d="M12.1438 19.9625C12.1438 19.9625 8.88826 16.5763 5.97025 19.0649C8.64191 20.4842 11.5156 19.4996 12.1438 19.9625Z" fill="#FF9CB8"/>
<path d="M24.5013 9.34579C24.5013 9.34579 24.0911 9.33168 23.9988 9.33403C23.9064 9.33403 23.4962 9.34812 23.4962 9.34812C15.8323 9.69591 9.25968 14.9691 9.29417 27.5071C9.30895 32.9977 13.2247 34.0763 17.2402 35.901C19.1444 36.7658 21.0376 38.2756 23.5738 38.5376C23.5738 38.5376 23.9852 38.574 24.0776 38.5717C24.1687 38.574 24.5801 38.5353 24.5801 38.5353C27.1163 38.2603 28.9996 36.7411 30.9002 35.8669C34.9059 34.0223 38.8154 32.9249 38.8006 27.4366C38.7662 14.8963 32.1665 9.6548 24.5013 9.34579Z" fill="#A57E5B"/>
<path d="M17.8653 22.5287C20.9877 21.2574 27.9348 20.6793 29.5743 17.595C32.2213 12.6108 25.9948 9.65581 21.1885 9.61351C14.5802 10.8472 9.29602 16.2179 9.29479 27.4082C11.757 25.2581 14.8105 23.7729 17.8653 22.5287Z" fill="#DDC1A8"/>
<path d="M21.1885 9.61351C20.0418 9.82736 18.9393 10.1751 17.8936 10.6463C15.8193 12.2066 14.2378 14.7422 13.4741 17.1227C12.6082 19.8204 12.2682 22.571 12.1315 25.3439C13.9384 24.2323 15.9006 23.3276 17.864 22.5287C20.9865 21.2574 27.9335 20.6793 29.573 17.595C32.2213 12.6108 25.9948 9.65581 21.1885 9.61351Z" fill="#B29474"/>
<path d="M24.0634 38.7666C23.9452 38.7666 23.5547 38.7302 23.5547 38.7302C21.7046 38.5398 20.2277 37.7232 18.8001 36.9336C18.2323 36.6187 17.6953 36.3227 17.1533 36.0759C16.7407 35.8879 16.3293 35.7082 15.9228 35.5319C12.416 34.0009 9.10509 32.5581 9.09154 27.5093C9.06197 16.4247 14.4435 9.56535 23.4882 9.15294C23.4906 9.15294 23.87 9.14118 23.9846 9.14118L24.0265 9.14C24.1546 9.14 24.5081 9.15058 24.5081 9.15058C33.5565 9.51834 38.9749 16.3531 39.0057 27.4365C39.0193 32.4817 35.7157 33.9445 32.2188 35.4908C31.8123 35.6717 31.4022 35.8538 30.9895 36.0418C30.4476 36.2921 29.9117 36.5929 29.3451 36.909C27.9225 37.7056 26.4505 38.5292 24.6041 38.729C24.6017 38.729 24.2075 38.7678 24.0917 38.7678L24.0659 38.5727L24.072 38.3777C24.2001 38.3777 24.5598 38.3436 24.561 38.3436C26.3187 38.1533 27.7525 37.3496 29.1394 36.5741C29.7134 36.2533 30.2566 35.9502 30.8134 35.6929C31.2272 35.5025 31.6399 35.3216 32.0476 35.1395C35.5692 33.5815 38.6116 32.2338 38.5992 27.4365C38.5697 16.5869 33.2966 9.89549 24.4945 9.53948C24.4933 9.53948 24.1521 9.53008 24.0277 9.53008H23.9858C23.8737 9.53008 23.5054 9.54185 23.5054 9.54185C14.7071 9.94251 9.47092 16.6586 9.50048 27.5081C9.5128 32.3078 12.5626 33.6391 16.094 35.1794C16.503 35.358 16.9156 35.5378 17.3307 35.7258C17.8887 35.9808 18.4319 36.2816 19.0071 36.5976C20.3977 37.3684 21.8376 38.1626 23.599 38.3459C23.599 38.3459 23.9587 38.3777 24.0671 38.3777V38.7666H24.0634Z" fill="#664D38"/>
<path d="M24.0481 39.9899C32.7426 39.9899 39.791 36.0293 39.791 31.1436C39.791 26.258 32.7426 22.2973 24.0481 22.2973C15.3535 22.2973 8.30509 26.258 8.30509 31.1436C8.30509 36.0293 15.3535 39.9899 24.0481 39.9899Z" fill="#BC9F80"/>
<path d="M24.0474 39.9897C24.4317 39.9897 24.8086 39.9732 25.1856 39.958C29.61 38.7231 35.8106 36.4742 34.2857 31.3996C32.7596 26.3238 27.0788 24.2159 21.9079 24.0161C19.3089 23.9163 16.5559 23.7236 14.0149 24.3569C13.9705 24.3686 13.9262 24.3827 13.8818 24.3945C10.4736 26.0171 8.30571 28.4352 8.30571 31.1434C8.30448 36.0289 15.3525 39.9897 24.0474 39.9897Z" fill="#C7B39A"/>
<path d="M13.1711 26.3179C13.1711 26.3179 6.29181 34.1866 17.9121 37.6785C13.0529 38.2919 4.61786 31.2151 13.1711 26.3179Z" fill="#E2DBD3"/>
<path d="M24.0474 40.1847C15.2552 40.1847 8.10124 36.1276 8.10124 31.1435C8.10124 26.1581 15.2552 22.1021 24.0474 22.1021C32.8409 22.1021 39.9948 26.1581 39.9948 31.1435C39.9936 36.1276 32.8409 40.1847 24.0474 40.1847ZM24.0474 22.491C15.4794 22.491 8.50894 26.3731 8.50894 31.1435C8.50894 35.9138 15.4794 39.797 24.0474 39.797C32.6167 39.797 39.5871 35.9138 39.5871 31.1435C39.5859 26.3731 32.6155 22.491 24.0474 22.491Z" fill="#664D38"/>
<path d="M24.0474 34.7576C20.3829 34.7576 17.226 32.6216 17.226 31.5735C17.226 31.4654 17.3171 31.3784 17.4304 31.3784C17.5438 31.3784 17.6349 31.4654 17.6349 31.5735C17.6349 32.3396 20.548 34.3699 24.0486 34.3699C27.5492 34.3699 30.4636 32.3384 30.4636 31.5735C30.4636 31.4654 30.5535 31.3784 30.6668 31.3784C30.7801 31.3784 30.8713 31.4654 30.8713 31.5735C30.8688 32.6216 27.7106 34.7576 24.0474 34.7576Z" fill="#231F20"/>
<path d="M19.5491 20.7439C19.3237 20.7439 19.1414 20.57 19.1414 20.3562C19.1414 19.5466 18.4504 18.8875 17.6017 18.8875C16.753 18.8875 16.062 19.5466 16.062 20.3562C16.062 20.57 15.8797 20.7439 15.6543 20.7439C15.4301 20.7439 15.2478 20.57 15.2478 20.3562C15.2478 19.1166 16.3022 18.1108 17.6017 18.1108C18.8987 18.1108 19.9543 19.1166 19.9543 20.3562C19.9556 20.5688 19.7745 20.7439 19.5491 20.7439Z" fill="#231F20"/>
<path d="M15.3439 18.3387C15.3131 18.3387 15.2811 18.3317 15.2515 18.3176C15.1517 18.2694 15.1111 18.1519 15.1628 18.0556C15.1936 17.998 15.945 16.6374 18.1202 16.8536C18.2311 16.8653 18.3124 16.9617 18.3013 17.0674C18.2902 17.1755 18.1905 17.2484 18.0771 17.2402C16.1803 17.0533 15.5311 18.2212 15.525 18.233C15.488 18.3 15.4178 18.3387 15.3439 18.3387Z" fill="#231F20"/>
<path d="M33.1981 21.1105C32.9726 21.1105 32.7903 20.9366 32.7903 20.7216C32.7903 19.912 32.0981 19.2529 31.2507 19.2529C30.4032 19.2529 29.711 19.912 29.711 20.7216C29.711 20.9366 29.5287 21.1105 29.3033 21.1105C29.0779 21.1105 28.8955 20.9366 28.8955 20.7216C28.8955 19.4832 29.9512 18.4762 31.2494 18.4762C32.5477 18.4762 33.6045 19.4832 33.6045 20.7216C33.6045 20.9366 33.4222 21.1105 33.1981 21.1105Z" fill="#231F20"/>
<path d="M33.5097 18.7053C33.4358 18.7053 33.3643 18.6665 33.3286 18.5996C33.3015 18.549 32.6561 17.4211 30.7764 17.6056C30.6643 17.6161 30.5646 17.5386 30.5522 17.434C30.5412 17.3271 30.6225 17.2319 30.7333 17.2202C32.9061 17.004 33.6599 18.3646 33.6907 18.4221C33.7425 18.5161 33.7018 18.6336 33.602 18.683C33.5725 18.6994 33.5417 18.7053 33.5097 18.7053Z" fill="#231F20"/>
<path d="M19.4345 27.6174C20.0298 27.6174 20.5123 27.0355 20.5123 26.3179C20.5123 25.6002 20.0298 25.0184 19.4345 25.0184C18.8393 25.0184 18.3567 25.6002 18.3567 26.3179C18.3567 27.0355 18.8393 27.6174 19.4345 27.6174Z" fill="#38190B"/>
<path d="M28.2267 27.9405C28.8219 27.9405 29.3045 27.3582 29.3045 26.6398C29.3045 25.9215 28.8219 25.3392 28.2267 25.3392C27.6314 25.3392 27.1489 25.9215 27.1489 26.6398C27.1489 27.3582 27.6314 27.9405 28.2267 27.9405Z" fill="#38190B"/>
<path d="M31.2507 12.4546C31.2507 12.4546 31.6608 14.3392 34.6885 14.8526C38.1657 11.7684 37.0879 6.88762 37.0879 6.88762C36.1887 8.85685 31.2507 12.4546 31.2507 12.4546Z" fill="#D3B69F"/>
<path d="M32.9665 12.659C32.9665 12.659 31.6596 14.3392 34.6872 14.8526C38.1645 11.7684 37.0867 6.88762 37.0867 6.88762C36.1887 8.85685 32.9665 12.659 32.9665 12.659Z" fill="#917251"/>
<path d="M34.7513 15.0606L34.6515 15.043C31.5229 14.5131 31.0684 12.5755 31.0499 12.4933L31.024 12.3735L31.1263 12.2994C31.1755 12.2642 36.0335 8.70995 36.9007 6.80887L37.1557 6.25076L37.2874 6.84526C37.2973 6.89579 38.3467 11.8717 34.8264 14.9948L34.7513 15.0606ZM31.4847 12.5285C31.6226 12.921 32.2521 14.2099 34.6232 14.6446C37.2185 12.2771 37.1261 8.82977 36.9733 7.48915C35.7096 9.35733 32.172 12.0198 31.4847 12.5285Z" fill="#473321"/>
<path d="M17.6017 12.4546C17.6017 12.4546 17.1927 14.3392 14.1651 14.8526C10.6879 11.7684 11.7657 6.88762 11.7657 6.88762C12.6636 8.85685 17.6017 12.4546 17.6017 12.4546Z" fill="#D3B69F"/>
<path d="M17.6017 12.4546C17.6017 12.4546 17.6473 13.2794 14.6196 13.794C11.1424 10.7109 11.7657 6.88762 11.7657 6.88762C12.6636 8.85685 17.6017 12.4546 17.6017 12.4546Z" fill="#917251"/>
<path d="M14.101 15.0606L14.0259 14.9948C10.5056 11.8729 11.555 6.89579 11.5661 6.84526L11.6967 6.25076L11.9516 6.80887C12.8176 8.70995 17.6756 12.2642 17.7248 12.2994L17.8271 12.3735L17.8012 12.4933C17.7827 12.5755 17.3282 14.5131 14.2008 15.043L14.101 15.0606ZM11.8814 7.48915C11.7287 8.82977 11.6388 12.2806 14.2304 14.6446C16.6003 14.2099 17.2297 12.9233 17.3689 12.5285C16.6815 12.0198 13.144 9.3585 11.8814 7.48915Z" fill="#473321"/>
<path d="M24.8499 7.63389C21.9405 7.46704 20.1606 10.1953 21.9183 12.4465C23.7573 14.8035 24.1663 16.2122 23.58 17.0265C26.6101 16.1288 25.7663 13.7037 25.7663 13.7037C26.3169 14.2724 25.9991 16.3262 25.7663 16.1288C27.0018 15.0197 31.8154 8.0322 24.8499 7.63389Z" fill="#6D3924"/>
<path d="M25.5587 7.70418C24.8899 7.82167 24.2629 8.02376 23.7592 8.35627C21.5112 9.83907 25.1141 12.9163 24.9379 15.0829C24.8936 15.621 24.7963 16.1063 24.6571 16.5516C26.3766 15.4765 25.7657 13.7035 25.7657 13.7035C26.1992 14.1512 26.0946 15.5176 25.9159 15.9817C27.2844 14.5706 31.2408 8.50315 25.5587 7.70418Z" fill="#38190B"/>
<path d="M23.0792 17.3776L23.4118 16.9159C23.9747 16.1357 23.4328 14.7105 21.7539 12.5626C20.9459 11.5251 20.7944 10.2785 21.3486 9.2246C21.9657 8.05082 23.3182 7.34818 24.8628 7.43983C26.8127 7.55145 28.0444 8.18123 28.5223 9.31389C29.4696 11.5545 27.1021 15.0242 26.0958 16.0828C26.0638 16.1627 25.39 16.8148 25.39 16.8148L25.6019 16.2496C25.6019 16.2496 24.4428 16.9734 23.6409 17.2119L23.0792 17.3776ZM24.598 7.8217C23.3305 7.8217 22.2257 8.42562 21.7132 9.39966C21.2218 10.3326 21.356 11.4006 22.0815 12.3312C23.636 14.3227 24.2482 15.728 23.9686 16.6844C24.6546 16.4095 25.1387 16.0147 25.4122 15.5095C25.8716 14.6623 25.576 13.7717 25.5723 13.7634L25.2828 12.9163L25.916 13.5707C26.2485 13.915 26.3077 14.6635 26.2572 15.2756C27.3041 13.9268 28.8845 11.2138 28.143 9.45958C27.7291 8.47848 26.6168 7.92977 24.8369 7.82755C24.7569 7.82285 24.6768 7.8217 24.598 7.8217Z" fill="#1E0C05"/>
<path d="M28.3856 50.6701L28.3265 50.542C28.3179 50.5208 27.4409 48.5822 26.9038 46.1359L26.8582 45.9291L27.0775 45.9044C28.9091 45.6859 32.5588 42.6134 32.5945 42.584L32.8642 42.8731C32.7164 42.9988 29.3402 45.8398 27.346 46.2534C27.7944 48.2109 28.4472 49.8029 28.643 50.2576C31.7273 49.9474 34.2832 48.6174 34.3091 48.6033L34.5061 48.9429C34.3965 49.0004 31.7692 50.3705 28.5322 50.6572L28.3856 50.6701Z" fill="#231F20"/>
<path d="M27.6281 47.1017C26.3039 46.6517 24.8443 46.0525 24.3282 46.8009C23.8121 47.5517 24.396 49.0063 25.2262 49.4128C26.0576 49.8217 25.002 50.2917 25.5403 51.1706C26.0785 52.0471 28.2563 50.999 28.5482 49.5644C28.8401 48.1298 27.6281 47.1017 27.6281 47.1017Z" fill="#28150B"/>
<path d="M29.9777 49.6856C30.1292 50.3471 29.6882 51.0004 28.9935 51.1449C28.3 51.2894 27.6139 50.87 27.4637 50.2061L26.6729 46.7388C26.5214 46.0773 26.9623 45.424 27.6583 45.2795C28.3518 45.135 29.0378 45.5544 29.1893 46.2183L29.9777 49.6856Z" fill="#E26F7A"/>
<path d="M28.7181 51.368C28.0234 51.368 27.41 50.898 27.2622 50.2483L26.4715 46.781C26.3877 46.4097 26.4591 46.0302 26.6747 45.7094C26.8902 45.391 27.2228 45.1701 27.6133 45.0902C27.7167 45.0691 27.8239 45.0585 27.9311 45.0585C28.6258 45.0585 29.238 45.5285 29.3858 46.1782L30.1753 49.6455C30.2603 50.0144 30.1876 50.3963 29.9721 50.7171C29.7577 51.0343 29.4239 51.2564 29.0359 51.3363C28.9312 51.3562 28.8228 51.368 28.7181 51.368ZM27.9311 45.4451C27.8535 45.4451 27.7759 45.4544 27.6995 45.4697C27.4174 45.5273 27.1748 45.6883 27.0184 45.9197C26.8619 46.1512 26.8089 46.4296 26.8705 46.6975L27.6613 50.1649C27.7857 50.7089 28.3757 51.0731 28.9497 50.9568C29.233 50.8968 29.4744 50.7359 29.6309 50.5044C29.7873 50.273 29.839 49.9945 29.7787 49.7266L28.9891 46.2593C28.8807 45.7893 28.4361 45.4451 27.9311 45.4451Z" fill="#231F20"/>
<path d="M15.1887 42.6199C15.1887 42.6199 18.9012 45.7617 20.8165 45.9885C20.277 48.4441 19.4062 50.3558 19.4062 50.3558C16.1729 50.0714 13.5111 48.665 13.5111 48.665L15.1887 42.6199Z" fill="#C52831"/>
<path d="M19.5343 50.562L19.3877 50.5502C16.1495 50.2636 13.5246 48.8912 13.4137 48.8336L13.6108 48.4941C13.6367 48.5082 16.1926 49.8406 19.2769 50.1484C19.4727 49.6937 20.1243 48.1016 20.5739 46.1441C18.5785 45.7306 15.2022 42.8895 15.0544 42.7638L15.3254 42.4747C15.3624 42.5041 19.012 45.5778 20.8424 45.7952L21.0616 45.8199L21.0173 46.029C20.4803 48.4752 19.6033 50.4139 19.5946 50.4327L19.5343 50.562Z" fill="#231F20"/>
<path d="M20.2906 46.9936C21.616 46.5436 23.0756 45.9444 23.5905 46.6952C24.1066 47.4436 23.5239 48.8982 22.6925 49.3071C21.8623 49.7136 22.9167 50.1836 22.3784 51.0625C21.8389 51.9414 19.6612 50.8909 19.3693 49.4563C19.0773 48.0217 20.2906 46.9936 20.2906 46.9936Z" fill="#28150B"/>
<path d="M17.9435 49.5776C17.792 50.2402 18.233 50.8947 18.9277 51.0392C19.6224 51.1814 20.3085 50.7619 20.4588 50.0981L21.2495 46.6331C21.401 45.9704 20.9601 45.316 20.2641 45.1715C19.5707 45.027 18.8846 45.4487 18.7331 46.1102L17.9435 49.5776Z" fill="#E26F7A"/>
<path d="M19.2005 51.2599C19.0946 51.2599 18.9874 51.2505 18.8827 51.2282C18.0796 51.0625 17.5684 50.3035 17.7433 49.5374L18.5329 46.0701C18.7029 45.3217 19.5146 44.8176 20.3054 44.9845C20.6946 45.0644 21.0284 45.2852 21.244 45.6037C21.4595 45.9221 21.531 46.304 21.446 46.6752L20.6564 50.1402C20.5086 50.7899 19.8964 51.2599 19.2005 51.2599ZM19.9876 45.3393C19.4826 45.3393 19.0379 45.6812 18.9307 46.1512L18.1412 49.6185C18.0131 50.1766 18.3863 50.7265 18.9689 50.8487C19.0453 50.8651 19.1229 50.8722 19.2005 50.8722C19.7067 50.8722 20.1502 50.5303 20.2573 50.0579L21.0469 46.5907C21.1097 46.3216 21.0567 46.0466 20.9003 45.8152C20.7439 45.5814 20.5024 45.4227 20.2179 45.3628C20.144 45.3464 20.0652 45.3393 19.9876 45.3393Z" fill="#231F20"/>
<path d="M18.228 53.6992L17.165 56.3934L16.2831 53.6299C14.9319 53.9448 13.9551 55.0269 13.9551 56.8223C13.9551 58.9748 15.3926 60.7184 17.165 60.7184C18.9375 60.7184 20.3737 58.9748 20.3737 56.8223C20.3737 55.1433 19.4684 54.0846 18.228 53.6992Z" fill="#513539"/>
<path d="M18.0303 54.9963L17.1632 57.1946L16.4438 54.9411C15.3427 55.196 14.5457 56.0796 14.5457 57.5436C14.5457 59.2966 15.7171 60.7195 17.1632 60.7195C18.608 60.7195 19.7794 59.2966 19.7794 57.5436C19.7806 56.1736 19.0416 55.31 18.0303 54.9963Z" fill="#331F21"/>
<path d="M17.1644 60.9145C15.2823 60.9145 13.7512 59.0781 13.7512 56.8233C13.7512 55.0679 14.6787 53.8037 16.2344 53.443L16.4216 53.3995L17.1853 55.7929L18.1067 53.4571L18.2914 53.5146C19.724 53.9623 20.5788 55.1995 20.5788 56.8233C20.5776 59.0781 19.0465 60.9145 17.1644 60.9145ZM16.1445 53.8695C14.8795 54.2407 14.1577 55.3088 14.1577 56.8233C14.1577 58.8654 15.5077 60.5268 17.1644 60.5268C18.8211 60.5268 20.1711 58.8654 20.1711 56.8233C20.1711 55.4239 19.5096 54.3864 18.3481 53.9458L17.1434 56.9984L16.1445 53.8695Z" fill="#231F20"/>
<path d="M32.0569 53.6992L30.9939 56.3934L30.1107 53.6299C28.7607 53.9448 27.7827 55.0269 27.7827 56.8223C27.7827 58.9748 29.2201 60.7184 30.9926 60.7184C32.7651 60.7184 34.2025 58.9748 34.2025 56.8223C34.2025 55.1433 33.296 54.0846 32.0569 53.6992Z" fill="#513539"/>
<path d="M31.7914 55.4451L30.9932 57.4695L30.3305 55.3946C29.3156 55.6284 28.5827 56.4438 28.5827 57.7927C28.5827 59.4083 29.6617 60.7183 30.9944 60.7183C32.3272 60.7183 33.4062 59.4083 33.4062 57.7927C33.4037 56.5284 32.7226 55.7353 31.7914 55.4451Z" fill="#331F21"/>
<path d="M30.992 60.9145C29.1099 60.9145 27.5788 59.0781 27.5788 56.8233C27.5788 55.0679 28.5063 53.8037 30.0608 53.443L30.248 53.3995L31.0117 55.7929L31.933 53.4571L32.1178 53.5146C33.5503 53.9623 34.4051 55.1995 34.4051 56.8233C34.4064 59.0781 32.8753 60.9145 30.992 60.9145ZM29.9721 53.8695C28.7071 54.2407 27.9853 55.3088 27.9853 56.8233C27.9853 58.8654 29.334 60.5268 30.992 60.5268C32.6499 60.5268 33.9987 58.8654 33.9987 56.8233C33.9987 55.4239 33.3372 54.3864 32.1757 53.9458L30.971 56.9984L29.9721 53.8695Z" fill="#231F20"/>
</svg>
