<svg width="71" height="73" viewBox="0 0 71 73" fill="none" xmlns="http://www.w3.org/2000/svg">
<path d="M35.5045 72.1438C25.997 72.1438 17.0398 68.0764 11.0611 61.1523C10.756 61.2906 10.4349 61.4278 10.0909 61.565C9.01005 62.0007 7.97405 62.3232 7.0238 62.5205C6.18024 62.7018 5.30571 62.8 4.515 62.8C4.513 62.8 4.50907 62.8 4.50508 62.8C3.98558 62.799 3.55082 62.3973 3.488 61.8785L3.00538 57.8281C2.94855 57.3523 3.22176 56.8976 3.66747 56.7263C4.14709 56.543 4.5908 56.3617 5.00759 56.1774C5.41641 55.9991 5.85717 55.7928 6.34376 55.5514C6.21513 55.5534 6.08449 55.5544 5.94988 55.5544C4.96672 55.5544 4.00848 55.4873 3.1041 55.3561C2.49386 55.27 1.89262 55.1518 1.31928 55.0066C0.478708 54.7952 -0.0657519 53.9799 0.0638735 53.1196L0.508572 50.1789C0.629223 49.3786 1.3003 48.7786 2.10497 48.7506C2.11095 48.7506 2.11693 48.7506 2.12092 48.7506C2.53971 48.7356 2.97547 48.7206 3.41819 48.6985C3.83499 48.6795 4.24878 48.6534 4.65461 48.6224C4.56288 48.2218 4.47914 47.8181 4.40436 47.4135C3.30852 46.8726 2.00829 46.1214 0.833682 45.257C-0.0318163 44.62 -0.253201 43.4141 0.310171 42.4956L1.49577 40.5626C2.02325 39.7032 3.09113 39.3466 4.02344 39.7202L4.04139 39.7272C4.38041 35.9462 5.47723 32.2503 7.27205 28.8629C5.88605 25.4004 3.2347 16.7376 6.48331 7.08428L7.39273 4.37596L10.2285 4.12857C10.3691 4.11655 10.748 4.08851 11.3253 4.08851C13.9717 4.08851 22.8271 4.74155 30.136 12.7753C31.9019 12.4879 33.7007 12.3426 35.5034 12.3426C37.3052 12.3426 39.102 12.4879 40.8709 12.7753C48.1798 4.74155 57.0352 4.08851 59.6806 4.08851C60.2579 4.08851 60.6378 4.11655 60.7744 4.12857L63.6122 4.37596L64.5236 7.08428C67.7722 16.7376 65.1198 25.4014 63.7328 28.8629C65.5286 32.2513 66.6255 35.9462 66.9635 39.7272C66.9705 39.7252 66.9755 39.7232 66.9815 39.7202C67.9158 39.3466 68.9818 39.7032 69.5092 40.5626L70.6858 42.4786C71.2561 43.4061 71.0328 44.626 70.1563 45.2691C68.9857 46.1284 67.6924 46.8756 66.6026 47.4135C66.5288 47.8181 66.4441 48.2218 66.3514 48.6224C66.7562 48.6534 67.167 48.6795 67.5768 48.6975C68.0305 48.7206 68.4682 48.7356 68.886 48.7506C68.892 48.7506 68.898 48.7506 68.902 48.7506C69.7066 48.7786 70.3776 49.3786 70.4993 50.1789L70.9441 53.1196C71.0737 53.9799 70.5282 54.7942 69.6886 55.0066C69.1133 55.1518 68.5081 55.27 67.8909 55.3581C67.0004 55.4873 66.0422 55.5544 65.057 55.5544C64.9244 55.5544 64.7938 55.5534 64.6642 55.5514C65.1518 55.7938 65.5876 55.9971 65.9834 56.1704C66.4102 56.3587 66.8538 56.541 67.3324 56.7233C67.7831 56.8956 68.0593 57.3553 68.0015 57.8361L67.5189 61.8855C67.4561 62.4073 67.0174 62.8 66.4949 62.8C65.7042 62.8 64.8297 62.7018 63.9671 62.5165C63.0358 62.3232 61.9989 61.9997 60.904 61.559C60.567 61.4258 60.2499 61.2886 59.9488 61.1523C53.9671 68.0774 45.01 72.1438 35.5045 72.1438Z" fill="#B24349"/>
<path d="M35.5045 68.0553C25.997 68.0553 17.0398 63.9879 11.0611 57.0638C10.756 57.2021 10.4349 57.3393 10.0909 57.4765C9.01005 57.9112 7.97405 58.2347 7.0238 58.432C6.18024 58.6133 5.30571 58.7105 4.515 58.7105C4.513 58.7105 4.50907 58.7105 4.50508 58.7105C3.98558 58.7105 3.55082 58.3088 3.488 57.789L3.00538 53.7385C2.94855 53.2618 3.22176 52.8081 3.66747 52.6368C4.14709 52.4535 4.5908 52.2722 5.00759 52.0879C5.41641 51.9096 5.85717 51.7033 6.34376 51.4619C6.21513 51.4639 6.08449 51.4659 5.94988 51.4659C4.96672 51.4659 4.00848 51.3988 3.1041 51.2676C2.49386 51.1815 1.89262 51.0633 1.31928 50.9181C0.478708 50.7067 -0.0657519 49.8914 0.0638735 49.031L0.508572 46.0904C0.629223 45.2911 1.3003 44.6901 2.10497 44.6621C2.11095 44.6621 2.11693 44.6621 2.12092 44.6621C2.53971 44.6471 2.97547 44.632 3.41819 44.61C3.83499 44.59 4.24878 44.5649 4.65461 44.5339C4.56288 44.1333 4.47914 43.7296 4.40436 43.325C3.30852 42.7841 2.00829 42.0319 0.833682 41.1685C-0.0318163 40.5315 -0.253201 39.3246 0.310171 38.4071L1.49577 36.4741C2.02325 35.6147 3.09113 35.2581 4.02344 35.6317L4.04139 35.6387C4.38041 31.8577 5.47723 28.1618 7.27205 24.7744C5.88605 21.3119 3.2347 12.6491 6.48331 2.99577L7.39273 0.287458L10.2285 0.0400647C10.3691 0.027044 10.748 0 11.3253 0C13.9717 0 22.8271 0.65304 30.136 8.68683C31.9019 8.39937 33.7007 8.25414 35.5034 8.25414C37.3052 8.25414 39.102 8.39937 40.8709 8.68683C48.1798 0.65304 57.0352 0 59.6806 0C60.2579 0 60.6378 0.027044 60.7744 0.0400647L63.6122 0.287458L64.5236 2.99577C67.7722 12.6491 65.1198 21.3129 63.7328 24.7744C65.5286 28.1628 66.6255 31.8577 66.9635 35.6387C66.9705 35.6367 66.9755 35.6347 66.9815 35.6317C67.9158 35.2581 68.9818 35.6147 69.5092 36.4741L70.6858 38.3901C71.2561 39.3176 71.0328 40.5375 70.1563 41.1806C68.9857 42.0399 67.6924 42.7871 66.6026 43.326C66.5288 43.7306 66.4441 44.1343 66.3514 44.5349C66.7562 44.5659 67.167 44.592 67.5768 44.61C68.0305 44.632 68.4682 44.6481 68.886 44.6631C68.892 44.6631 68.898 44.6631 68.902 44.6631C69.7066 44.6911 70.3776 45.2911 70.4993 46.0914L70.9441 49.032C71.0737 49.8924 70.5282 50.7077 69.6886 50.9191C69.1133 51.0643 68.5081 51.1825 67.8909 51.2696C67.0004 51.3998 66.0422 51.4669 65.057 51.4669C64.9244 51.4669 64.7938 51.4659 64.6642 51.4629C65.1518 51.7053 65.5876 51.9096 65.9834 52.0819C66.4102 52.2702 66.8538 52.4525 67.3324 52.6348C67.7831 52.8071 68.0593 53.2668 68.0015 53.7476L67.5189 57.797C67.4561 58.3188 67.0174 58.7115 66.4949 58.7115C65.7042 58.7115 64.8297 58.6143 63.9671 58.429C63.0358 58.2357 61.9989 57.9122 60.904 57.4715C60.567 57.3383 60.2499 57.2011 59.9488 57.0648C53.9671 63.9889 45.01 68.0553 35.5045 68.0553Z" fill="white"/>
<path d="M35.5045 14.0303C21.2647 14.0303 9.68113 24.8526 9.68113 38.1547C9.68113 39.0872 9.73994 40.0057 9.85062 40.9101C11.2396 41.3438 12.6545 41.6833 14.0824 41.9448L13.9678 42.5908L13.855 43.2368C12.5797 43.0034 11.3154 42.708 10.073 42.3454C10.3372 43.7476 10.7291 45.1088 11.2416 46.4169C12.0842 46.1795 12.9128 45.9011 13.7244 45.5775L13.9678 46.1855L14.212 46.7935C13.4084 47.113 12.5897 47.3934 11.7591 47.6328C12.2636 48.7316 12.853 49.7872 13.519 50.7948C13.8959 50.5535 14.2718 50.3091 14.6447 50.0587L15.0067 50.6035L15.3697 51.1484C15.0068 51.3918 14.6398 51.6302 14.2708 51.8676C18.9373 58.1536 26.7139 62.2801 35.5045 62.2801C44.2951 62.2801 52.0696 58.1546 56.7372 51.8676C56.3702 51.6312 56.0023 51.3918 55.6393 51.1484L56.0012 50.6035L56.3632 50.0587C56.7362 50.3091 57.111 50.5535 57.4889 50.7948C58.155 49.7872 58.7443 48.7316 59.2489 47.6328C58.4183 47.3924 57.6006 47.113 56.7959 46.7935L57.0393 46.1855L57.2845 45.5775C58.0952 45.9011 58.9258 46.1795 59.7654 46.4169C60.2779 45.1088 60.6708 43.7466 60.934 42.3454C59.6916 42.708 58.4282 43.0034 57.1539 43.2368L57.0393 42.5908L56.9256 41.9448C58.3554 41.6833 59.7693 41.3428 61.1563 40.9101C61.267 40.0057 61.3259 39.0872 61.3259 38.1547C61.3259 24.8526 49.7424 14.0303 35.5045 14.0303ZM23.3736 34.9246C22.195 34.9246 21.2407 33.9651 21.2407 32.7832C21.2407 31.6003 22.195 30.6408 23.3736 30.6408C24.5521 30.6408 25.5064 31.6003 25.5064 32.7832C25.5054 33.9661 24.5511 34.9246 23.3736 34.9246ZM43.643 49.4998C43.6001 49.603 42.5482 52.0268 39.1111 52.0268C37.3721 52.0268 36.2085 51.1714 35.5045 50.237C34.7995 51.1714 33.6359 52.0268 31.8959 52.0268C28.4608 52.0268 27.4089 49.603 27.366 49.4998C27.1866 49.0701 27.388 48.5763 27.8157 48.397C28.2445 48.2167 28.735 48.4191 28.9125 48.8477C28.9355 48.8988 29.6135 50.3411 31.8959 50.3411C33.8902 50.3411 34.5303 48.6955 34.6649 48.2588V44.2234C33.4235 43.7887 31.6945 42.6519 31.9139 41.6894C32.1931 40.4724 38.8129 40.4724 39.0931 41.6894C39.3145 42.6519 37.5835 43.7887 36.3411 44.2234V48.2598C36.4737 48.6895 37.1128 50.3421 39.1101 50.3421C41.4433 50.3421 42.0875 48.8638 42.0934 48.8487C42.2729 48.4201 42.7635 48.2177 43.1922 48.398C43.621 48.5763 43.8215 49.0701 43.643 49.4998ZM47.6354 34.9246C46.4568 34.9246 45.5026 33.9651 45.5026 32.7832C45.5026 31.6003 46.4568 30.6408 47.6354 30.6408C48.812 30.6408 49.7683 31.6003 49.7683 32.7832C49.7673 33.9661 48.811 34.9246 47.6354 34.9246Z" fill="#FBB03B"/>
<path d="M56.7371 51.8675C52.0696 58.1536 44.2951 62.2801 35.5045 62.2801C26.7149 62.2801 18.9373 58.1536 14.2708 51.8675C14.3077 51.8435 14.3426 51.8195 14.3795 51.7954C19.3801 57.2241 26.9911 60.6976 35.5045 60.6976C44.0149 60.6976 51.6279 57.2241 56.6274 51.7954C56.6633 51.8215 56.7012 51.8435 56.7371 51.8675Z" fill="#F15A24"/>
<path d="M58.5459 22.1993C59.5929 19.3598 61.4106 12.8414 59.3665 5.7772C56.9924 5.82528 50.4862 6.56445 44.9721 12.7393C50.4453 14.5502 55.1627 17.8845 58.5459 22.1993Z" fill="#FBB03B"/>
<path d="M26.0349 12.7393C25.2082 13.0127 24.3986 13.3212 23.6058 13.6648C20.3173 15.083 17.3609 17.0732 14.8841 19.498C14.0166 20.3474 13.2059 21.2508 12.4591 22.2023C11.4081 19.3738 9.58638 12.8735 11.6394 5.78421C14.0056 5.84731 20.5567 6.61653 26.0349 12.7393Z" fill="#FBB03B"/>
<path d="M23.6059 13.6648C20.3174 15.083 17.361 17.0732 14.8841 19.498C14.5551 17.0732 13.2628 11.5494 14.1163 9.60429C16.9053 9.40698 20.1758 11.4512 23.6059 13.6648Z" fill="#F15A24"/>
<path d="M47.4011 13.6648C50.6906 15.083 53.6451 17.0732 56.1219 19.498C56.451 17.0732 57.7442 11.5494 56.8907 9.60429C54.1008 9.40698 50.8322 11.4512 47.4011 13.6648Z" fill="#F15A24"/>
<path d="M35.5045 12.6041C35.5045 12.6041 26.1625 13.9342 25.5064 14.1766C25.5064 14.1766 25.5782 24.2756 35.5045 24.2756C45.4288 24.2756 45.5026 14.1766 45.5026 14.1766C44.8455 13.9352 35.5045 12.6041 35.5045 12.6041Z" fill="#FEE672"/>
<path d="M39.9267 55.3241H31.0812C27.3789 55.3241 24.3756 52.3093 24.3756 48.5893C24.3756 44.8704 27.3789 41.8546 31.0812 41.8546H39.9267C43.629 41.8546 46.6303 44.8694 46.6303 48.5893C46.6303 52.3093 43.629 55.3241 39.9267 55.3241Z" fill="#FEE672"/>
<path d="M64.6403 47.3464C63.8067 47.2492 63.0688 47.137 62.5234 47.0359C63.2044 45.2019 63.6811 43.2779 63.9274 41.2887C64.2135 41.1665 64.5167 41.0313 64.8308 40.8841C66.5169 40.1098 68.4423 38.9029 69.6149 37.7911C68.0993 38.345 66.0891 39.2234 64.391 39.8254C64.2783 39.8675 64.1667 39.9065 64.058 39.9456C64.0999 39.3536 64.1218 38.7557 64.1218 38.1537C64.1218 33.3551 62.7797 28.8459 60.4334 24.9387C60.7246 24.3528 65.3592 14.7465 61.7237 3.94428L61.4315 3.07389L60.5212 2.99477C60.0845 2.95671 49.8231 2.18848 41.9967 11.92C39.9088 11.4622 37.736 11.2209 35.5035 11.2209C33.2699 11.2209 31.0962 11.4622 29.0083 11.92C21.1809 2.18848 10.9225 2.95671 10.4848 2.99477L9.57445 3.07389L9.28226 3.94428C5.64677 14.7465 10.2814 24.3528 10.5725 24.9387C8.22532 28.8459 6.88319 33.3551 6.88319 38.1537C6.88319 38.7567 6.90615 39.3536 6.94703 39.9456C6.83834 39.9065 6.72666 39.8664 6.61498 39.8254C4.91789 39.2234 2.90569 38.345 1.39107 37.7911C2.56368 38.9029 4.48813 40.1088 6.17625 40.8841C6.48934 41.0313 6.7925 41.1665 7.07867 41.2887C7.32496 43.2779 7.80255 45.2019 8.48458 47.0359C7.93816 47.136 7.19827 47.2492 6.36668 47.3464C5.4942 47.4505 4.51805 47.5296 3.5638 47.5727C2.60956 47.6198 1.67623 47.6368 0.882527 47.6819C1.62638 47.9603 2.55375 48.1917 3.52893 48.3299C4.50511 48.4722 5.52411 48.5162 6.44445 48.4902C7.3638 48.4681 8.18245 48.384 8.76776 48.2949C8.84154 48.2849 8.91234 48.2748 8.97815 48.2648C9.57841 49.653 10.2964 50.9841 11.122 52.2462C11.109 52.2532 11.097 52.2612 11.0841 52.2682C11.0841 52.2682 10.8059 52.4264 10.3492 52.6859C9.89051 52.9383 9.25635 53.2988 8.53144 53.6724C7.80953 54.049 6.99985 54.4537 6.19518 54.8032C5.3915 55.1578 4.59582 55.4623 3.89883 55.7117C4.63072 55.7888 5.52912 55.7167 6.42553 55.5244C7.32393 55.3371 8.21938 55.0316 9.00511 54.7141C9.79483 54.4006 10.4719 54.0661 10.9555 53.8217C11.4351 53.5693 11.7242 53.408 11.7242 53.408C11.7731 53.381 11.82 53.3519 11.8698 53.3249C17.0279 60.4202 25.6978 65.0856 35.5035 65.0856C45.3091 65.0856 53.9771 60.4202 59.1362 53.3249C59.1851 53.3529 59.2329 53.382 59.2808 53.408C59.2808 53.408 59.5699 53.5683 60.0495 53.8217C60.5341 54.0651 61.2102 54.4006 61.9989 54.7141C62.7856 55.0306 63.681 55.3371 64.5794 55.5244C65.4758 55.7157 66.3733 55.7878 67.1052 55.7117C66.4102 55.4623 65.6135 55.1578 64.8089 54.8032C64.0042 54.4527 63.1975 54.049 62.4736 53.6724C61.7487 53.2988 61.1145 52.9393 60.6548 52.6859C60.1991 52.4264 59.9209 52.2682 59.9209 52.2682C59.908 52.2602 59.896 52.2532 59.883 52.2462C60.7096 50.9841 61.4286 49.653 62.0278 48.2648C62.0936 48.2748 62.1635 48.2849 62.2372 48.2949C62.8226 48.383 63.6422 48.4671 64.5615 48.4902C65.4809 48.5152 66.4999 48.4712 67.4761 48.3299C68.4513 48.1917 69.3796 47.9603 70.1235 47.6819C69.3277 47.6368 68.3964 47.6198 67.4402 47.5727C66.4879 47.5306 65.5137 47.4515 64.6403 47.3464ZM59.3665 5.7772C61.4106 12.8414 59.5929 19.3598 58.5459 22.1993C55.1617 17.8845 50.4453 14.5502 44.9731 12.7393C50.4862 6.56445 56.9934 5.82527 59.3665 5.7772ZM11.6375 5.78321C14.0076 5.84631 20.5547 6.61653 26.0338 12.7383C20.5607 14.5502 15.8423 17.8855 12.4601 22.2023C11.4091 19.3728 9.58738 12.8725 11.6375 5.78321ZM61.1563 40.9101C59.7683 41.3438 58.3544 41.6833 56.9256 41.9448L57.0393 42.5908L57.1539 43.2368C58.4282 43.0034 59.6916 42.708 60.934 42.3454C60.6708 43.7476 60.2779 45.1088 59.7654 46.4169C58.9248 46.1795 58.0942 45.9011 57.2845 45.5775L57.0393 46.1855L56.7959 46.7935C57.6006 47.113 58.4183 47.3934 59.2489 47.6328C58.7443 48.7316 58.155 49.7872 57.4889 50.7948C57.111 50.5535 56.7362 50.3091 56.3632 50.0587L56.0012 50.6035L55.6393 51.1484C56.0013 51.3918 56.3692 51.6302 56.7372 51.8676C52.0696 58.1536 44.2951 62.2801 35.5045 62.2801C26.7149 62.2801 18.9373 58.1546 14.2708 51.8676C14.6388 51.6312 15.0058 51.3918 15.3697 51.1484L15.0067 50.6035L14.6448 50.0587C14.2718 50.3091 13.896 50.5535 13.519 50.7948C12.853 49.7872 12.2637 48.7316 11.7591 47.6328C12.5897 47.3924 13.4084 47.113 14.212 46.7935L13.9678 46.1855L13.7244 45.5775C12.9128 45.9011 12.0832 46.1795 11.2416 46.4169C10.7291 45.1088 10.3372 43.7466 10.073 42.3454C11.3154 42.708 12.5797 43.0034 13.855 43.2368L13.9678 42.5908L14.0824 41.9448C12.6535 41.6833 11.2386 41.3428 9.85063 40.9101C9.73995 40.0057 9.68113 39.0872 9.68113 38.1547C9.68113 24.8526 21.2647 14.0303 35.5045 14.0303C49.7424 14.0303 61.3259 24.8526 61.3259 38.1547C61.3259 39.0872 61.268 40.0057 61.1563 40.9101Z" fill="#5B161A"/>
<path d="M23.3735 34.9246C24.5515 34.9246 25.5064 33.9654 25.5064 32.7822C25.5064 31.599 24.5515 30.6398 23.3735 30.6398C22.1956 30.6398 21.2407 31.599 21.2407 32.7822C21.2407 33.9654 22.1956 34.9246 23.3735 34.9246Z" fill="#5B161A"/>
<path d="M47.6354 34.9246C48.8133 34.9246 49.7683 33.9654 49.7683 32.7822C49.7683 31.599 48.8133 30.6398 47.6354 30.6398C46.4575 30.6398 45.5026 31.599 45.5026 32.7822C45.5026 33.9654 46.4575 34.9246 47.6354 34.9246Z" fill="#5B161A"/>
<path d="M43.1933 48.397C42.7645 48.2168 42.274 48.4191 42.0945 48.8478C42.0885 48.8628 41.4444 50.3411 39.1111 50.3411C37.1139 50.3411 36.4737 48.6885 36.3421 48.2588V44.2224C37.5845 43.7877 39.3145 42.6509 39.0941 41.6884C38.8139 40.4714 32.194 40.4714 31.9149 41.6884C31.6945 42.6499 33.4245 43.7877 34.6659 44.2224V48.2578C34.5303 48.6955 33.8911 50.3401 31.8969 50.3401C29.6145 50.3401 28.9364 48.8978 28.9135 48.8468C28.736 48.4181 28.2455 48.2158 27.8167 48.396C27.3889 48.5753 27.1875 49.0691 27.367 49.4988C27.4099 49.602 28.4618 52.0258 31.8969 52.0258C33.6369 52.0258 34.8005 51.1705 35.5055 50.236C36.2095 51.1705 37.3731 52.0258 39.1121 52.0258C42.5491 52.0258 43.6011 49.602 43.644 49.4988C43.8214 49.0701 43.6211 48.5763 43.1933 48.397Z" fill="#5B161A"/>
</svg>
