<svg width="45" height="47" viewBox="0 0 45 47" fill="none" xmlns="http://www.w3.org/2000/svg">
<path d="M11.9416 22.4824L24.693 35.7913L26.2627 34.5972C26.8765 34.1302 27.5024 33.6353 28.132 33.1195C28.1406 33.123 28.1479 33.1277 28.1564 33.1323L41.4424 47L44.9679 43.9263L39.8045 38.5374C40.1004 38.2772 40.3233 37.938 40.4414 37.5442C41.4875 34.0454 38.8059 32.5817 37.3653 31.7953C36.8002 31.4863 36.2656 31.1947 35.9478 30.8729C34.8591 29.7705 33.4124 29.5812 32.2165 29.5266C32.6184 29.1456 33.0081 28.7669 33.3843 28.3917L34.7702 27.0093L22.02 13.7004L23.6104 11.8778L0.761097 1.16164L9.89815 23.8287L11.9416 22.4824ZM17.2889 13.1196L16.6983 13.7445L29.3328 26.9327C28.7616 27.4717 28.1649 28.0165 27.5487 28.5601L26.896 29.127C26.6573 29.3326 26.4186 29.5347 26.1812 29.7345L25.9997 29.7264L26.0849 29.8158C25.7549 30.0912 25.4261 30.3607 25.101 30.622L12.4664 17.4339L11.7614 17.9381L8.07755 8.79943L17.2889 13.1196Z" fill="#6B5951"/>
<path d="M11.1805 21.3207L23.9319 34.6297L25.5016 33.4355C26.1154 32.9685 26.7413 32.4737 27.3709 31.9579C27.3795 31.9614 27.3868 31.966 27.3953 31.9707L40.6813 45.8384L44.2068 42.7647L39.0434 37.3758C39.3393 37.1156 39.5622 36.7764 39.6803 36.3826C40.7264 32.8837 38.0448 31.42 36.6042 30.6336C36.0391 30.3246 35.5045 30.0331 35.1867 29.7113C34.098 28.6089 32.6513 28.4195 31.4554 28.3649C31.8573 27.9839 32.247 27.6052 32.6233 27.23L34.0091 25.8477L21.2589 12.5388L22.8493 10.7161L0 0L9.13705 22.6671L11.1805 21.3207ZM16.5278 11.9579L15.9372 12.5829L28.5717 25.771C28.0005 26.31 27.4038 26.8548 26.7876 27.3985L26.1349 27.9653C25.8962 28.1709 25.6575 28.3731 25.4201 28.5729L25.2386 28.5648L25.3238 28.6542C24.9938 28.9295 24.665 29.199 24.3399 29.4604L11.7054 16.2723L11.0003 16.7764L7.31645 7.63779L16.5278 11.9579Z" fill="white"/>
<path d="M27.784 28.4249L27.1797 28.9514L40.8105 43.1875L41.4147 42.6611L27.784 28.4249Z" fill="#231F20"/>
<path d="M11.3674 11.8651C9.4603 13.5286 9.32634 16.3514 11.0702 18.1705L19.8237 27.3068L24.1638 31.8361C25.3219 30.9555 26.5178 29.9809 27.7198 28.9331C28.9229 27.8842 30.047 26.8352 31.0711 25.8141L26.7322 21.2849L17.9787 12.1486C16.2348 10.3294 13.2756 10.2017 11.3674 11.8651Z" fill="#E59CA7"/>
<path d="M11.8381 11.455C10.1904 12.8908 10.2684 15.53 12.0122 17.3503L20.7657 26.4866L25.1047 31.0159C26.1142 30.2643 27.1518 29.4291 28.1905 28.523C29.2293 27.6169 30.195 26.7062 31.0706 25.814L26.7316 21.2848L17.9782 12.1485C16.2343 10.3294 13.4858 10.018 11.8381 11.455Z" fill="#C52831"/>
<path d="M22.7994 17.1818L21.1724 15.4847C18.598 18.218 16.1125 20.194 14.2517 21.4938L15.886 23.1991C16.9442 22.4522 18.1669 21.5147 19.487 20.3647C20.544 19.4424 21.6619 18.3806 22.7994 17.1818Z" fill="#FB921D"/>
<path d="M19.9436 27.4322L21.5779 29.1374C22.6349 28.3905 23.8576 27.4542 25.1777 26.303C26.2347 25.3818 27.3527 24.319 28.4901 23.1201L26.8631 21.423C24.2887 24.1563 21.8032 26.1323 19.9436 27.4322Z" fill="#FB921D"/>
<path d="M26.7309 21.2849L17.9775 12.1486C16.2348 10.3294 13.2756 10.2017 11.3673 11.8651C9.6393 13.3718 9.37261 15.8275 10.633 17.6292C13.0174 16.6813 17.0325 16.1063 21.3276 19.9281C25.3487 23.506 27.464 26.2625 28.4711 28.2675C29.3918 27.4416 30.2637 26.6191 31.0711 25.8141L26.7309 21.2849Z" fill="#BABABA"/>
<path d="M27.8313 29.0503C26.6512 30.0796 25.4517 31.0588 24.2668 31.9602L24.1438 32.0532L10.9467 18.2773C9.14436 16.3954 9.28198 13.4658 11.2548 11.7465C13.2276 10.0273 16.2976 10.1586 18.1012 12.0404L31.2983 25.8163L31.1912 25.9232C30.1426 26.9698 29.0125 28.0211 27.8313 29.0503ZM24.1804 31.6187C26.4613 29.8751 28.8177 27.8202 30.8416 25.8105L17.854 12.2553C16.1759 10.5036 13.3153 10.3804 11.4789 11.9823C9.64243 13.5842 9.51456 16.3118 11.1927 18.0635L24.1804 31.6187Z" fill="#231F20"/>
<path d="M15.1602 9.3907L3.96633 4.13893L8.44291 15.2465L10.16 19.5063C11.6713 18.5108 13.3615 17.2248 15.0725 15.7333C16.7835 14.2417 18.279 12.7513 19.4541 11.4038L15.1602 9.3907Z" fill="#A31624"/>
<path d="M6.46523 5.31218L3.96633 4.13893L8.44291 15.2465L10.16 19.5063C11.3534 18.7199 12.6613 17.7464 13.9997 16.6393C14.46 12.3076 10.9881 8.06992 6.46523 5.31218Z" fill="#E59CA7"/>
<path d="M6.46523 5.31218L3.96633 4.13893L10.479 18.1506C11.351 17.7835 12.6613 17.7452 14.0009 16.6382C14.46 12.3076 10.9881 8.06992 6.46523 5.31218Z" fill="#C52831"/>
<path d="M15.1845 15.8506C13.5296 17.2945 11.8247 18.6037 10.255 19.6375L10.0808 19.7525L3.65821 3.81945L19.7184 11.3515L19.5832 11.5072C18.3605 12.9047 16.8407 14.4078 15.1845 15.8506ZM10.2391 19.26C11.7492 18.2529 13.3773 16.996 14.9593 15.6159C16.5436 14.2359 18.0025 12.8013 19.1898 11.4573L4.2744 4.46185L10.2391 19.26Z" fill="#231F20"/>
<path d="M33.7436 31.0042C32.208 29.4487 28.6545 31.1494 27.8995 28.9853C27.7862 28.6612 27.2358 28.7703 27.3502 29.0968C27.9482 30.8102 29.6019 30.6766 31.2082 30.6801C31.7915 30.6812 32.3541 30.7428 32.8753 31.0088C33.4294 31.2899 33.6985 31.9033 34.2258 32.2123C35.7651 33.1126 37.9303 33.396 37.2411 35.7053C37.1424 36.0364 37.677 36.1979 37.7769 35.8645C38.6866 32.8222 35.384 32.6642 33.7436 31.0042Z" fill="#231F20"/>
<path d="M20.3536 21.2333L20.2567 23.2804L22.4028 23.3728L22.4997 21.3257L20.3536 21.2333Z" fill="#FB921D"/>
</svg>
