<svg width="65" height="65" viewBox="0 0 65 65" fill="none" xmlns="http://www.w3.org/2000/svg">
<path d="M26.0235 64.7318C25.8935 64.734 25.7635 64.7296 25.6335 64.7253C25.5097 64.721 25.3225 64.7145 25.1197 64.6982L25.1405 64.3958C25.3391 64.411 25.5222 64.4186 25.6439 64.4218C25.7697 64.4262 25.8956 64.4273 26.0235 64.4273C26.088 64.4273 26.1493 64.4272 26.2128 64.4261L26.2191 64.7297C26.1546 64.7307 26.089 64.7318 26.0235 64.7318ZM38.0966 64.7221C37.9271 64.7221 37.7586 64.7199 37.5911 64.7156L37.5984 64.411C37.8896 64.4196 38.1871 64.4207 38.4669 64.4132L38.4731 64.7178C38.3504 64.7199 38.2245 64.7221 38.0966 64.7221ZM36.7112 64.6787L36.6322 64.6743C36.5105 64.6689 36.3743 64.6668 36.2307 64.6646L35.8397 64.6581L35.8459 64.3535L36.2349 64.36C36.3826 64.3622 36.5209 64.3644 36.6457 64.3709L36.7258 64.3752L36.7112 64.6787ZM27.1021 64.6689L27.0761 64.3665L27.1925 64.3535C27.2685 64.347 27.3444 64.3383 27.4255 64.3318C27.5534 64.321 27.7199 64.3167 27.9268 64.3123H27.9591L27.9674 64.6159L27.933 64.6169C27.7375 64.6213 27.567 64.6245 27.4463 64.6353C27.3704 64.6407 27.2945 64.6494 27.2217 64.657L27.1021 64.6689ZM39.3592 64.6646L39.3281 64.3622L39.3571 64.3578C39.6889 64.3242 39.9906 64.2787 40.1903 64.2473L40.235 64.5475C40.0332 64.579 39.7253 64.6256 39.3863 64.6603L39.3592 64.6646ZM34.9629 64.6364L34.0851 64.6137L34.0944 64.3091L34.9691 64.3329L34.9629 64.6364ZM24.2336 64.5844C24.1701 64.5714 24.1077 64.5595 24.0401 64.5443C23.8154 64.4955 23.595 64.4337 23.3672 64.3578L23.4556 64.0673C23.675 64.1389 23.8862 64.1985 24.1015 64.2451C24.1649 64.2603 24.2252 64.2722 24.2866 64.2841L24.2336 64.5844ZM33.2073 64.5823C33.1085 64.5779 33.0097 64.5736 32.9088 64.5682L32.707 64.5584C32.5832 64.5519 32.4573 64.5454 32.3315 64.5378L32.3482 64.2343C32.473 64.2408 32.5977 64.2473 32.7215 64.2538L32.9233 64.2636C33.0242 64.269 33.1209 64.2733 33.2208 64.2787L33.2073 64.5823ZM28.8473 64.5757L28.8307 64.2711C29.0564 64.2592 29.282 64.2484 29.5067 64.2397L29.7075 64.231L29.7199 64.5356L29.5306 64.5432C29.2966 64.553 29.073 64.5627 28.8473 64.5757ZM30.5967 64.4912L30.5832 64.1866C30.9763 64.1681 31.2061 64.1617 31.4537 64.1704L31.4735 64.1714L31.4579 64.4749H31.4454C31.3767 64.4717 31.3112 64.4716 31.2446 64.4716C31.0741 64.4716 30.8723 64.476 30.5967 64.4912ZM41.0961 64.411L41.0619 64.1096L41.144 64.0988C41.377 64.0717 41.6099 64.0413 41.8439 64.0077L41.9292 63.9958L41.9677 64.2982L41.8825 64.3101C41.6484 64.3416 41.4134 64.3731 41.1783 64.4013L41.0961 64.411ZM42.8341 64.1758L42.7987 63.8733C43.0411 63.844 43.3334 63.8039 43.6537 63.7378L43.7109 64.037C43.3802 64.1031 43.0827 64.1433 42.8341 64.1758ZM22.5341 64.0273C22.2481 63.8972 21.9881 63.7563 21.7395 63.5958L21.8934 63.3379C22.1306 63.4907 22.3771 63.6262 22.6517 63.7487L22.5341 64.0273ZM44.5762 63.8094L44.4889 63.5178C44.6449 63.4658 44.7998 63.4105 44.9496 63.3487C45.065 63.301 45.1794 63.2522 45.2918 63.2002L45.4082 63.4788C45.2928 63.533 45.1743 63.5839 45.0567 63.6327C44.9018 63.6966 44.7385 63.7563 44.5762 63.8094ZM46.206 63.0691L46.0646 62.8024C46.1686 62.7417 46.2716 62.681 46.3756 62.617C46.5201 62.5281 46.6595 62.4328 46.7957 62.3319L46.9642 62.5802C46.8217 62.6842 46.674 62.784 46.5253 62.8761C46.4203 62.9444 46.3131 63.0084 46.206 63.0691ZM21.0125 63.0539C20.8096 62.8826 20.6162 62.6973 20.4394 62.5032L20.3583 62.4144L20.5725 62.2084L20.6506 62.293C20.819 62.4772 21.0031 62.655 21.1966 62.8187L21.0125 63.0539ZM47.6621 61.9927L47.4624 61.7705C47.5061 61.7282 47.5487 61.686 47.5913 61.6415C47.7515 61.4768 47.9003 61.3044 48.0427 61.1191L48.2716 61.3087C48.1218 61.5049 47.9668 61.6848 47.7973 61.8604C47.7515 61.9038 47.7068 61.9482 47.6621 61.9927ZM19.7915 61.6935C19.6167 61.4366 19.4628 61.1656 19.3307 60.8892L19.5939 60.7549C19.7166 61.0172 19.8653 61.274 20.0296 61.519L19.7915 61.6935ZM48.7812 60.5445L48.5336 60.3841C48.6845 60.1315 48.8186 59.866 48.9362 59.5961L49.2024 59.7207C49.0807 60.0036 48.9383 60.2801 48.7812 60.5445ZM18.9906 60.0286C18.9022 59.7598 18.8315 59.4953 18.7732 59.2178L18.7545 59.1289L19.0405 59.0672L19.0592 59.1528C19.1143 59.4183 19.1809 59.672 19.2662 59.9289L18.9906 60.0286ZM49.5155 58.8471L49.2336 58.7604C49.2992 58.5338 49.3533 58.2997 49.3959 58.0656C49.4073 58.0049 49.4167 57.9474 49.4261 57.89L49.7141 57.9388C49.7037 58.0005 49.6923 58.0612 49.6819 58.1219C49.6382 58.3658 49.5831 58.6108 49.5155 58.8471ZM18.5912 58.226L18.5829 58.1783C18.3915 58.1035 18.2012 58.0244 18.0119 57.942L17.9609 57.9214L18.0691 57.6374L18.1221 57.6602C18.3343 57.7512 18.5485 57.8401 18.7618 57.9225L18.8388 57.9528L18.8782 58.1697L18.5912 58.226ZM17.1466 57.5637L17.0613 57.5226C16.9094 57.4478 16.7565 57.3686 16.6047 57.2927L16.3551 57.1659L16.483 56.8928L16.7326 57.0185C16.8844 57.0955 17.0353 57.1724 17.1871 57.2472L17.2703 57.2884L17.1466 57.5637ZM49.8192 57.0195L49.529 56.9968C49.5363 56.8862 49.5436 56.7833 49.5498 56.6814L49.554 56.599L50.1125 56.2597L50.2633 56.522L49.8358 56.7811C49.8296 56.8592 49.8254 56.9372 49.8192 57.0195ZM15.5646 56.7605C15.3628 56.6478 15.0955 56.4971 14.8251 56.3334L14.7929 56.3139L14.9426 56.0517L14.9718 56.07C15.2401 56.2315 15.5032 56.3801 15.7029 56.4928L15.5646 56.7605ZM51.0132 56.0429L50.8582 55.786C50.9674 55.7134 51.0798 55.6398 51.189 55.566C51.2191 55.5444 51.2462 55.5281 51.268 55.5107L51.5894 55.2907L51.7516 55.5422L51.4303 55.7654C51.4063 55.7817 51.3772 55.8012 51.3449 55.8218C51.2357 55.8955 51.1255 55.9692 51.0132 56.0429ZM14.0378 55.8489C13.7809 55.6874 13.5303 55.5237 13.289 55.3644L13.447 55.1086C13.6852 55.2668 13.9338 55.4284 14.1886 55.5888L14.0378 55.8489ZM52.4755 55.0197L52.306 54.7715C52.5421 54.597 52.7781 54.417 53.0111 54.2349L53.1859 54.4788C52.9519 54.6631 52.7127 54.8452 52.4755 55.0197ZM12.5557 54.8571C12.4101 54.752 12.2697 54.6512 12.1313 54.546C12.0336 54.4734 11.9358 54.3986 11.8391 54.3249L12.0117 54.0789C12.1074 54.1526 12.2052 54.2263 12.303 54.2989C12.4392 54.4008 12.5786 54.5027 12.7221 54.6056L12.5557 54.8571ZM53.8827 53.9195L53.7007 53.6811C53.9264 53.4935 54.1542 53.2995 54.3768 53.1065L54.564 53.3407C54.3393 53.5347 54.1105 53.7298 53.8827 53.9195ZM11.136 53.7732C10.9041 53.5856 10.6732 53.3927 10.4475 53.203L10.6326 52.9667C10.8562 53.1575 11.0861 53.3472 11.3149 53.5315L11.136 53.7732ZM55.2307 52.7413L55.0372 52.5126C55.2546 52.312 55.4719 52.1072 55.6831 51.9023L55.8807 52.1256C55.6696 52.3316 55.4501 52.5397 55.2307 52.7413ZM9.77246 52.6123L9.75062 52.5906C9.54261 52.4041 9.33673 52.2091 9.11727 51.9988L9.3159 51.7755C9.5312 51.9847 9.7361 52.1755 9.941 52.3597L9.96385 52.3814L9.77246 52.6123ZM56.5172 51.4882L56.3113 51.2714C56.5141 51.0612 56.7201 50.8422 56.9197 50.62L57.1329 50.8292C56.928 51.0525 56.7221 51.2736 56.5172 51.4882ZM8.47967 51.3647C8.24982 51.1316 8.05637 50.9332 7.85668 50.7186L8.06572 50.5062C8.26125 50.7175 8.45577 50.9159 8.68459 51.1468L8.47967 51.3647ZM57.7279 50.1539L57.5084 49.9501C57.7019 49.7236 57.8943 49.4927 58.0794 49.264L58.303 49.4591C58.1158 49.6921 57.9213 49.9241 57.7279 50.1539ZM7.25761 50.0444C7.06104 49.8157 6.86552 49.5848 6.67727 49.354L6.89983 49.1567C7.08704 49.3854 7.27943 49.6141 7.47497 49.8406L7.25761 50.0444ZM58.8595 48.7491L58.6306 48.5594C58.8116 48.322 58.9895 48.0814 59.1632 47.8397L59.3971 48.0218C59.2224 48.2657 59.0415 48.5096 58.8595 48.7491ZM6.11667 48.6472C5.93362 48.4076 5.75055 48.1627 5.57582 47.9232L5.80879 47.7389C5.98248 47.9774 6.16344 48.218 6.34546 48.4565L6.11667 48.6472ZM59.9151 47.2825L59.677 47.1058C59.8444 46.8598 60.0098 46.6072 60.17 46.3569L60.4123 46.5238C60.2521 46.7774 60.0846 47.0322 59.9151 47.2825ZM5.05369 47.1817C4.88312 46.9313 4.7167 46.6755 4.55549 46.4251L4.79888 46.2572C4.95697 46.5054 5.12446 46.7579 5.29295 47.0051L5.05369 47.1817ZM60.8876 45.7498L60.639 45.5905C60.7909 45.3336 60.9406 45.0713 61.0841 44.809L61.3379 44.9618C61.1923 45.2252 61.0405 45.4897 60.8876 45.7498ZM4.08231 45.6512L4.0771 45.6425C3.92525 45.3846 3.77548 45.1222 3.63299 44.861L3.88469 44.7082C4.02718 44.9662 4.17482 45.2274 4.32563 45.4832L4.08231 45.6512ZM61.7633 44.1565L61.5033 44.0134C61.6406 43.7457 61.7737 43.4747 61.9006 43.2059L62.1638 43.3392C62.0348 43.6102 61.8996 43.8855 61.7633 44.1565ZM3.20964 44.0567C3.07131 43.7879 2.93718 43.5126 2.80718 43.2395L3.06821 43.1061C3.19614 43.3749 3.32928 43.6481 3.46553 43.9137L3.20964 44.0567ZM62.5403 42.5089L62.274 42.3831L62.3395 42.2292C62.4363 42.0049 62.5299 41.7783 62.6214 41.5496L62.8917 41.6666C62.7992 41.8964 62.7046 42.1252 62.6079 42.3539L62.5403 42.5089ZM2.42959 42.4102C2.30999 42.1327 2.19142 41.8488 2.08013 41.5691L2.34846 41.452C2.45975 41.7317 2.5773 42.0114 2.69691 42.2856L2.42959 42.4102ZM63.2163 40.8158L62.9438 40.7063C63.0478 40.4234 63.1466 40.1372 63.2402 39.8522L63.5179 39.9529C63.4222 40.2402 63.3213 40.5296 63.2163 40.8158ZM1.75359 40.7149C1.68598 40.5231 1.61629 40.3312 1.55077 40.1383C1.51749 40.0429 1.4863 39.9475 1.4551 39.8522L1.73277 39.7524C1.76293 39.8478 1.79517 39.941 1.82742 40.0364C1.8919 40.2272 1.95844 40.418 2.02605 40.6055L1.75359 40.7149ZM63.7915 39.0803L63.5127 38.9904C63.598 38.7042 63.6812 38.4105 63.7571 38.1178L64.039 38.1981C63.962 38.4929 63.8788 38.7909 63.7915 39.0803ZM1.18258 38.9785C1.09833 38.6858 1.01724 38.3899 0.940275 38.0962L1.22213 38.0181C1.29701 38.3097 1.37812 38.6023 1.46132 38.8907L1.18258 38.9785ZM64.2594 37.3103L63.9756 37.2398C64.0255 37.023 64.0722 36.8062 64.118 36.5884L64.1649 36.3532L64.4508 36.415L64.403 36.6523C64.3582 36.8713 64.3094 37.0913 64.2594 37.3103ZM0.727043 37.2062C0.658399 36.9092 0.595988 36.6068 0.537744 36.3087L0.823788 36.2491C0.880991 36.5439 0.943349 36.842 1.00991 37.1347L0.727043 37.2062ZM64.6121 35.5098L64.325 35.4589C64.3729 35.1652 64.4175 34.8627 64.4571 34.5614L64.7462 34.6037C64.7077 34.9093 64.662 35.2139 64.6121 35.5098ZM0.379677 35.4058C0.330794 35.1056 0.286042 34.7999 0.245479 34.4985L0.536728 34.4585C0.575211 34.7565 0.617854 35.0579 0.666737 35.356L0.379677 35.4058ZM64.8523 33.6943L64.5611 33.6606C64.5913 33.3626 64.6183 33.058 64.638 32.7567L64.9282 32.7794C64.9084 33.0818 64.8814 33.3897 64.8523 33.6943ZM0.142514 33.5859C0.113392 33.2846 0.0863524 32.9756 0.0665911 32.671L0.356761 32.6494C0.377562 32.9496 0.403586 33.2553 0.431668 33.5545L0.142514 33.5859ZM64.9792 31.8602L64.6869 31.8494C64.6963 31.5958 64.7025 31.3367 64.7077 31.082L64.7088 30.8803L64.7993 30.8413L64.8377 30.9433H65C65 30.9563 65 30.9693 64.9989 30.9855H65L64.9989 31.0874C64.9948 31.3443 64.9885 31.6044 64.9792 31.8602ZM0.0198059 31.7551C0.00732515 31.4505 0.00104007 31.1416 0 30.8381L0.291249 30.8359C0.292289 31.1362 0.298535 31.4418 0.309976 31.7442L0.0198059 31.7551ZM64.6973 30.0338C64.689 29.7357 64.6765 29.4301 64.6589 29.1255L64.95 29.106C64.9677 29.4149 64.9813 29.7216 64.9896 30.0251L64.6973 30.0338ZM0.303755 29.9276L0.0125057 29.9189C0.0208262 29.6122 0.0343486 29.3054 0.0530698 29.0008L0.344255 29.0203C0.325534 29.3195 0.312075 29.6263 0.303755 29.9276ZM64.5923 28.2204C64.5663 27.9234 64.534 27.6177 64.4976 27.3174L64.7879 27.2795C64.8243 27.5841 64.8565 27.8909 64.8835 28.1922L64.5923 28.2204ZM0.413957 28.1152L0.123787 28.0859C0.140428 27.8995 0.160197 27.7153 0.183078 27.531C0.197639 27.4107 0.210136 27.2914 0.225737 27.1743L0.513812 27.2134C0.499251 27.3283 0.485714 27.4475 0.471153 27.5667C0.450352 27.7488 0.431638 27.9321 0.413957 28.1152ZM64.378 26.4178C64.3333 26.1197 64.2834 25.8183 64.2293 25.5224L64.5163 25.4661C64.5704 25.7652 64.6204 26.0698 64.6662 26.3712L64.378 26.4178ZM0.637599 26.3137L0.35054 26.266C0.396303 25.9582 0.449342 25.6536 0.502385 25.3609L0.788366 25.4184C0.734282 25.7056 0.684402 26.0081 0.637599 26.3137ZM64.0567 24.6325C63.9922 24.3366 63.9235 24.0396 63.8518 23.7502L64.1336 23.6732C64.2064 23.967 64.2771 24.2673 64.3406 24.5664L64.0567 24.6325ZM0.965222 24.5306L0.680258 24.4624C0.696899 24.3897 0.712458 24.3193 0.728059 24.2478C0.782142 24.0212 0.835167 23.7947 0.891331 23.5703L1.17325 23.6483C1.11812 23.8705 1.06401 24.0928 1.01201 24.3182C0.997447 24.3887 0.980823 24.4591 0.965222 24.5306ZM63.6167 22.8754C63.5356 22.5871 63.4462 22.2956 63.3557 22.0072L63.6333 21.9118C63.7249 22.2023 63.8143 22.4982 63.8975 22.7876L63.6167 22.8754ZM1.40825 22.7735L1.12849 22.6869C1.21274 22.391 1.30217 22.0961 1.39473 21.8099L1.67138 21.9075C1.58089 22.1904 1.4925 22.482 1.40825 22.7735ZM63.0655 21.1498C62.9667 20.8734 62.8626 20.5883 62.7503 20.3033L63.0218 20.1905C63.133 20.4778 63.2402 20.7661 63.34 21.0469L63.0655 21.1498ZM1.96365 21.0534L1.69011 20.945C1.79307 20.6599 1.90025 20.3726 2.01049 20.0908L2.28092 20.2057C2.17275 20.4854 2.06557 20.7694 1.96365 21.0534ZM62.4134 19.4654L62.3385 19.2865C62.2459 19.0697 62.1512 18.8541 62.0545 18.6394L62.3187 18.5082C62.4175 18.725 62.5142 18.944 62.6068 19.1629L62.6827 19.3451L62.4134 19.4654ZM2.622 19.37L2.35576 19.2464C2.47329 18.9679 2.5981 18.6871 2.72395 18.4129L2.98816 18.544C2.86335 18.815 2.73953 19.0925 2.622 19.37ZM61.6666 17.8254C61.5345 17.5576 61.3962 17.2889 61.2547 17.0244L61.5095 16.8758C61.652 17.1425 61.7914 17.4145 61.9256 17.6844L61.6666 17.8254ZM3.3771 17.7311L3.11817 17.5912C3.25234 17.3213 3.39275 17.0493 3.53523 16.7837L3.79005 16.9322C3.6486 17.1956 3.51023 17.4644 3.3771 17.7311ZM60.8179 16.2385C60.6702 15.9827 60.5152 15.7203 60.3582 15.4656L60.6037 15.3019C60.7617 15.5588 60.9188 15.8212 61.0685 16.0813L60.8179 16.2385ZM4.22895 16.1464L3.97934 15.9892C4.08751 15.8017 4.19667 15.6174 4.309 15.4353C4.35476 15.3594 4.40052 15.2846 4.44732 15.2109L4.69179 15.3757C4.64498 15.4483 4.60022 15.522 4.55549 15.5979C4.44525 15.7789 4.33608 15.9621 4.22895 16.1464ZM59.8746 14.7101C59.7571 14.5291 59.6364 14.3502 59.5126 14.1725C59.4658 14.1042 59.4179 14.0348 59.3701 13.9687L59.6062 13.7877C59.6551 13.856 59.7029 13.9264 59.7508 13.9937C59.8746 14.1736 59.9962 14.3535 60.1169 14.5367L59.8746 14.7101ZM5.17748 14.6224L4.9372 14.45C5.10257 14.1985 5.27521 13.9481 5.44683 13.7032L5.68399 13.8831C5.51238 14.1248 5.34181 14.3741 5.17748 14.6224ZM58.847 13.2425C58.6701 13.0062 58.4871 12.7677 58.303 12.5314L58.5287 12.3385C58.7159 12.5759 58.901 12.8165 59.0778 13.0549L58.847 13.2425ZM6.20923 13.1569L5.97936 12.9704C6.16034 12.7276 6.34546 12.487 6.52955 12.255L6.75319 12.4491C6.57326 12.6788 6.38812 12.9184 6.20923 13.1569ZM57.7383 11.8399C57.5459 11.6112 57.3493 11.3835 57.1537 11.1646L57.369 10.9586C57.5656 11.1787 57.7632 11.4085 57.9556 11.6393L57.7383 11.8399ZM7.32103 11.7575L7.10157 11.557C7.29711 11.3261 7.49471 11.0984 7.69232 10.8751L7.90664 11.0833C7.7111 11.3033 7.51344 11.5299 7.32103 11.7575ZM56.5536 10.5055C56.3508 10.2898 56.1418 10.0741 55.9348 9.8649L56.1365 9.64704C56.3456 9.85732 56.5568 10.0741 56.7627 10.292L56.5536 10.5055ZM8.51091 10.4296L8.3039 10.2161C8.50879 10.0004 8.71993 9.78468 8.9321 9.5744L9.13283 9.79444C8.92377 10.0015 8.71476 10.215 8.51091 10.4296ZM55.2983 9.2438C55.0861 9.04328 54.8656 8.84167 54.644 8.64223L54.8344 8.41133C55.0591 8.61186 55.2805 8.81568 55.4948 9.01946L55.2983 9.2438ZM9.77354 9.17553L9.57802 8.949C9.79539 8.74522 10.0179 8.54033 10.2405 8.34306L10.4298 8.57613C10.2093 8.77124 9.98987 8.97392 9.77354 9.17553ZM53.9732 8.06016C53.7517 7.87372 53.5208 7.68297 53.2888 7.49762L53.4656 7.25587C53.7017 7.4434 53.9337 7.63418 54.1573 7.82279L53.9732 8.06016ZM11.1007 7.99731L10.9176 7.75994C11.1433 7.56916 11.3763 7.37835 11.6082 7.19408L11.7871 7.43688C11.5562 7.6179 11.3253 7.80762 11.1007 7.99731ZM52.5889 6.95565C52.3559 6.78222 52.1167 6.60446 51.8754 6.43319L52.0387 6.18278C52.2831 6.35621 52.5265 6.5329 52.7584 6.71066L52.5889 6.95565ZM12.4871 6.89386L12.3175 6.64669C12.4423 6.55238 12.5702 6.4592 12.6971 6.36598C12.8095 6.2836 12.9239 6.20231 13.0373 6.11993L13.2016 6.3714C13.0903 6.45161 12.9759 6.5318 12.8646 6.61526C12.7377 6.7074 12.6129 6.80064 12.4871 6.89386ZM51.1494 5.92589L51.0486 5.85973C50.8385 5.71774 50.6252 5.57796 50.4099 5.44247L50.5618 5.18227C50.7802 5.31993 50.9945 5.46197 51.2056 5.60396L51.3075 5.67118L51.1494 5.92589ZM13.9286 5.87171L13.7715 5.61587C14.017 5.45328 14.2687 5.28958 14.5193 5.13133L14.6712 5.39153C14.4216 5.54762 14.172 5.70803 13.9286 5.87171ZM49.66 4.98174C49.4094 4.83324 49.1535 4.68584 48.8966 4.54384L49.035 4.27504C49.2929 4.4192 49.5519 4.56881 49.8047 4.71731L49.66 4.98174ZM15.4221 4.9308L15.2776 4.66637C15.5324 4.51461 15.7914 4.36612 16.0493 4.22304L16.1866 4.4929C15.9318 4.63273 15.6738 4.78122 15.4221 4.9308ZM48.1208 4.12651C47.8628 3.99102 47.5987 3.85769 47.3345 3.7287L47.4582 3.45447C47.7245 3.58455 47.9908 3.71792 48.2508 3.85341L48.1208 4.12651ZM16.9614 4.07557L16.8304 3.80247C17.0935 3.66698 17.3598 3.53362 17.625 3.40572L17.7477 3.68213C17.4856 3.80895 17.2215 3.94116 16.9614 4.07557ZM46.5409 3.35259C46.2892 3.23769 46.0344 3.12279 45.7754 3.01115L45.738 2.99494L45.8503 2.7131L45.8877 2.73149C46.1488 2.84422 46.4057 2.95808 46.6584 3.07406L46.5409 3.35259ZM18.5444 3.30926L18.4289 3.02961C18.6993 2.90712 18.9709 2.78788 19.2392 2.67407L19.3484 2.9559C19.0832 3.06972 18.8127 3.18894 18.5444 3.30926ZM44.9278 2.65885C44.6573 2.55046 44.3828 2.44538 44.1092 2.34566L44.207 2.0584C44.4837 2.16029 44.7592 2.26542 45.0317 2.3749L44.9278 2.65885ZM20.1607 2.62419L20.0566 2.33911C20.3333 2.22963 20.611 2.12451 20.8835 2.02479L20.9802 2.31311C20.7098 2.41175 20.4332 2.51579 20.1607 2.62419ZM43.2824 2.05403C43.0057 1.96081 42.7249 1.87084 42.4493 1.78629L42.5304 1.49473C42.8102 1.57928 43.0921 1.67031 43.3718 1.76353L43.2824 2.05403ZM21.8081 2.02261L21.7187 1.73211C21.9974 1.63889 22.2814 1.54891 22.5601 1.46436L22.6423 1.75599C22.3656 1.84054 22.0848 1.93156 21.8081 2.02261ZM41.6089 1.54025C41.3281 1.46329 41.0442 1.38743 40.7634 1.31914L40.8309 1.02216C41.1138 1.09261 41.4019 1.1685 41.6838 1.24763L41.6089 1.54025ZM23.4837 1.51425L23.4098 1.2205C23.6906 1.14463 23.9766 1.06986 24.2627 0.9994L24.3293 1.29639C24.0453 1.36467 23.7614 1.43945 23.4837 1.51425ZM39.9105 1.11862C39.6276 1.05467 39.3395 0.996131 39.0555 0.94085L39.1086 0.640556C39.3967 0.695837 39.6858 0.756555 39.9718 0.820507L39.9105 1.11862ZM25.181 1.09804L25.1207 0.799932C25.4057 0.737064 25.6969 0.678504 25.985 0.623223L26.0381 0.921333C25.751 0.977698 25.4629 1.03626 25.181 1.09804ZM38.1954 0.78584C37.9094 0.735979 37.6203 0.692622 37.3301 0.650348L37.3696 0.350121C37.6608 0.390226 37.9541 0.435737 38.2412 0.48343L38.1954 0.78584ZM26.8972 0.769565L26.8525 0.469338C27.1385 0.420561 27.4318 0.377219 27.722 0.336029L27.7615 0.637315C27.4723 0.678504 27.1811 0.722956 26.8972 0.769565ZM36.4658 0.539797C36.1787 0.505111 35.8864 0.474737 35.5952 0.447638L35.6223 0.145228C35.9135 0.172326 36.2078 0.20266 36.497 0.236262L36.4658 0.539797ZM28.6268 0.527888L28.5956 0.225412C28.7277 0.210237 28.8598 0.196144 28.9908 0.183137C29.151 0.165794 29.3111 0.151736 29.4713 0.136561L29.4952 0.44003C29.3372 0.453037 29.1781 0.468229 29.02 0.484489C28.8879 0.49858 28.7579 0.512713 28.6268 0.527888ZM34.7257 0.37718L34.6789 0.374996C34.4064 0.356569 34.1287 0.341443 33.8531 0.330604L33.8666 0.0260103C34.1433 0.0390176 34.4231 0.0531004 34.6967 0.0715274L34.7445 0.0747691L34.7257 0.37718ZM30.3668 0.372879L30.3481 0.0704027C30.6383 0.0498078 30.9347 0.0357505 31.2259 0.0238271L31.2384 0.328421C30.9493 0.33926 30.6549 0.354452 30.3668 0.372879ZM32.9836 0.307845C32.6924 0.30351 32.4023 0.303494 32.11 0.305662L32.1068 0.00325182C32.4001 -0.00108394 32.6924 -0.00108394 32.9867 0.00325182L32.9836 0.307845Z" fill="white"/>
<path d="M26.0059 62.2974C25.905 62.2974 25.8051 62.2953 25.7053 62.292C25.3402 62.279 24.9513 62.2552 24.529 62.162C24.2888 62.1088 24.0453 62.033 23.7884 61.9289L23.7562 61.9159C23.5565 61.8357 23.2538 61.7121 22.9356 61.5008C22.6204 61.2916 22.3553 61.0672 22.1317 60.8211C21.8872 60.5566 21.5794 60.1838 21.363 59.6678C21.2205 59.3275 21.1248 59.0196 21.0583 58.702C21.0302 58.5687 21.0073 58.4354 20.9834 58.3021L20.9366 58.0419C20.8596 57.6159 20.7879 57.2116 20.7057 56.8138C20.6745 56.6577 20.6433 56.5016 20.6152 56.3477C20.5736 56.3314 20.5299 56.3163 20.4873 56.2989C20.377 56.2577 20.2595 56.2166 20.1441 56.1743C19.9943 56.1212 19.8476 56.0691 19.701 56.0138C19.4243 55.9076 19.1518 55.7982 18.8866 55.6833C18.6287 55.5792 18.3541 55.4654 18.0629 55.3212C17.9193 55.2497 17.7737 55.1771 17.6292 55.1034L17.4045 54.9895C17.3484 54.9624 17.2901 54.9321 17.2308 54.905C17.0665 54.8237 16.8793 54.7315 16.6838 54.6231C16.4924 54.5169 16.2459 54.376 15.9973 54.2264C15.003 53.6281 14.2063 53.1013 13.496 52.5691C12.7242 51.9914 11.9764 51.3778 11.2775 50.7492C10.9447 50.4489 10.6056 50.1205 10.1802 49.688C9.85469 49.3617 9.56346 49.0636 9.26808 48.7276C8.00648 47.3001 6.93212 45.8324 6.07094 44.3691C5.12864 42.767 4.34861 41.0696 3.75473 39.3233C3.13277 37.5001 2.70842 35.574 2.49521 33.5969C2.28304 31.6447 2.28511 29.7012 2.50353 27.8217C2.63145 26.7041 2.79576 25.7209 3.00274 24.8115C3.22635 23.8371 3.49364 22.8995 3.79942 22.0269C4.46402 20.1289 5.2992 18.3513 6.27999 16.7449C7.30965 15.0615 8.49428 13.5028 9.79852 12.1066C11.0788 10.7387 12.5058 9.4803 14.0357 8.36492C15.4981 7.29941 17.0405 6.37262 18.6204 5.61061C20.3635 4.77056 22.1223 4.10068 23.8467 3.6205C25.5857 3.13489 27.3954 2.79348 29.2196 2.60596C30.3232 2.49323 31.4319 2.43686 32.5167 2.43686C33.1948 2.43686 33.8802 2.45963 34.549 2.50407C38.2547 2.75121 41.7691 3.58259 44.9892 4.97979C46.8363 5.78191 48.4567 6.65663 49.944 7.65385C51.5301 8.71828 52.9935 9.90301 54.2874 11.1745C55.6062 12.4687 56.8064 13.8973 57.8527 15.417C58.9032 16.9389 59.7831 18.5312 60.4716 20.1506C61.2496 21.9879 61.7977 23.7374 62.143 25.4955C62.4862 27.2472 62.6609 29.0194 62.6651 30.7623C62.6651 30.7797 62.664 30.977 62.664 30.977C62.664 30.9986 62.664 31.0214 62.663 31.0431C62.6422 32.7677 62.4602 34.4835 62.119 36.1452C61.7581 37.9023 61.2048 39.6572 60.4747 41.3633C59.7799 42.9871 58.9364 44.5262 57.964 45.9451C56.951 47.4258 55.8433 48.7786 54.668 49.9687C53.5177 51.1351 52.2322 52.2352 50.85 53.239C50.8281 53.2563 50.8062 53.2704 50.7844 53.2867L50.669 53.3702C50.566 53.4417 50.4536 53.5219 50.3403 53.601C50.3257 53.6118 50.1395 53.7387 50.1395 53.7387C50.1291 53.7473 50.1146 53.756 50.098 53.7658C49.7391 54.0097 49.3678 54.2481 48.9944 54.4779C48.9788 54.4877 48.7563 54.6253 48.7563 54.6253L48.4724 54.7922C48.4536 54.8031 48.2779 54.905 48.2779 54.905C48.2602 54.9169 48.2414 54.9266 48.2217 54.9364C48.0033 55.061 47.7807 55.1847 47.555 55.3071C47.5467 55.6865 47.5363 56.0778 47.5144 56.4778C47.4936 56.8485 47.4676 57.2485 47.3906 57.6723C47.2866 58.25 47.0818 58.7942 46.7833 59.2874C46.6221 59.5562 46.4318 59.8445 46.1561 60.1274C45.9159 60.3756 45.6381 60.5978 45.3344 60.7875C44.9611 61.0195 44.5887 61.2092 44.2028 61.3675C43.5403 61.6384 42.9246 61.7143 42.4285 61.7739L42.2559 61.7967L42.027 61.8303C41.8752 61.8531 41.7255 61.8769 41.5736 61.8986C41.349 61.93 41.1264 61.9582 40.9048 61.9853L40.6209 62.021C40.4888 62.0406 40.3578 62.0623 40.2278 62.085C39.8908 62.1414 39.5424 62.201 39.1627 62.2389C38.831 62.2725 38.4825 62.2888 38.0987 62.2888C37.9188 62.2888 37.7389 62.2845 37.56 62.2801C37.2896 62.2704 37.0181 62.2573 36.7477 62.2443C36.5896 62.2357 36.4128 62.2335 36.2256 62.2302L36.0706 62.227C35.5818 62.2183 35.0929 62.2075 34.6041 62.1934C34.0736 62.1782 33.5547 62.1641 33.0263 62.136L32.8214 62.1273C32.6103 62.1165 32.4012 62.1056 32.1901 62.0915C32.0954 62.0839 32.0008 62.0763 31.9061 62.0687C31.7668 62.0579 31.6336 62.046 31.5244 62.0438C31.4329 62.0395 31.3404 62.0395 31.2478 62.0395C30.9066 62.0395 30.5447 62.0568 30.1422 62.0774C29.9061 62.0904 29.6721 62.1002 29.436 62.111C29.1791 62.124 28.9222 62.1338 28.6684 62.149L28.6414 62.1511C28.4022 62.1641 28.1515 62.1782 27.8884 62.1847C27.6492 62.1891 27.4526 62.1945 27.2727 62.2086C27.1604 62.2162 27.0491 62.2292 26.9378 62.24C26.8244 62.2519 26.7121 62.2638 26.5987 62.2725C26.4074 62.2888 26.2149 62.2974 26.0059 62.2974Z" fill="white"/>
<path d="M57.6072 27.4227C57.3461 25.4922 56.849 23.6073 56.1345 21.8036C55.3648 19.9382 54.3695 18.1855 53.1869 16.5726C51.8972 14.8599 50.4079 13.3251 48.7635 11.9831C46.9216 10.5166 44.9111 9.30252 42.7821 8.34866C40.4284 7.32867 37.9583 6.63278 35.434 6.26533C32.8089 5.91305 30.1453 5.91307 27.5192 6.26427C25.0043 6.62847 22.5424 7.32002 20.196 8.33351C18.0618 9.28521 16.0441 10.5003 14.199 11.969C12.5505 13.3088 11.057 14.8469 9.76415 16.5606C8.58159 18.1735 7.5842 19.9262 6.81351 21.7917C6.09378 23.6018 5.59348 25.4945 5.33035 27.4347C5.09737 29.3663 5.09845 31.3249 5.33974 33.2576C5.60288 35.1762 6.09899 37.0492 6.8104 38.841C7.58629 40.7281 8.59199 42.5155 9.78599 44.1479C10.1157 44.5902 10.4548 45.0249 10.8115 45.4411C11.1797 45.8704 11.5531 46.3017 11.9452 46.7082C12.3633 47.1407 12.7907 47.5711 13.239 47.9732C13.6498 48.3428 14.07 48.7059 14.5006 49.055C14.7586 49.2598 15.0186 49.4636 15.2849 49.6609C15.5303 49.843 15.7768 50.0283 16.0264 50.2028C16.3072 50.3979 16.5912 50.5866 16.8782 50.7676C17.0218 50.8587 17.1673 50.9508 17.3129 51.0407C17.4294 51.1123 17.5418 51.1936 17.6573 51.2651C17.9516 51.4461 18.2459 51.6163 18.5486 51.78C18.7004 51.8645 18.8471 51.9513 18.9968 52.038C19.1081 52.1052 19.2246 52.1605 19.337 52.2244C19.6157 52.3816 19.8955 52.5311 20.1794 52.6807C20.4363 52.814 20.7005 52.9333 20.9657 53.0525C21.027 53.0796 21.0874 53.1067 21.1477 53.1338C21.3879 53.2303 21.6293 53.3181 21.8726 53.4037C21.9194 53.3777 21.9704 53.3528 22.0235 53.3376C22.2013 53.2867 22.3947 53.3127 22.5538 53.4091C22.6942 53.4948 22.843 53.6638 22.8711 53.8384C22.9283 54.1939 22.9824 54.5484 23.0458 54.9029C23.1051 55.2291 23.1841 55.5499 23.2569 55.8729C23.3277 56.1873 23.3911 56.5049 23.4556 56.8214C23.5107 57.0772 23.5534 57.3406 23.6324 57.591C23.6428 57.6116 23.6543 57.63 23.6657 57.6517C23.7104 57.7015 23.7562 57.7493 23.805 57.7937C23.8737 57.8403 23.9455 57.8815 24.0204 57.9194C24.1805 57.9823 24.3418 58.031 24.5102 58.0614C24.7671 58.0928 25.0282 58.1113 25.2861 58.1004C25.6189 58.0853 25.9528 58.0495 26.2877 58.0386C26.5269 58.03 26.7682 58.03 27.0085 58.0235C27.2477 58.017 27.4859 58.0007 27.7251 57.9921C27.7105 57.9563 27.697 57.9238 27.6824 57.8869C27.619 57.7102 27.5701 57.5281 27.5306 57.3438C27.438 56.9168 27.3746 56.4843 27.3049 56.0529C27.2789 55.951 27.2789 55.848 27.3049 55.7461C27.3247 55.6995 27.3434 55.655 27.3621 55.6084C27.4339 55.4784 27.5556 55.3819 27.6928 55.3418C27.7417 55.3288 27.7906 55.3201 27.8416 55.3201C27.9393 55.3201 28.0371 55.3472 28.1224 55.3992C28.2357 55.4675 28.3564 55.6041 28.3782 55.7451C28.4334 56.0897 28.4864 56.4344 28.5519 56.7759C28.6081 57.0664 28.6726 57.3536 28.7704 57.6311C28.787 57.6679 28.8047 57.7027 28.8244 57.7373C28.8941 57.7905 28.9492 57.8576 28.9856 57.9367C29.0751 57.9324 29.1645 57.9281 29.254 57.9238C29.7522 57.901 30.2514 57.875 30.7496 57.9021C31.2696 57.9292 31.7897 57.9476 32.3107 57.9574C32.5052 57.9606 32.6976 57.9638 32.8911 57.9649C32.8464 57.7752 32.8058 57.5845 32.759 57.397C32.655 56.9775 32.5198 56.5764 32.3627 56.1775C32.3284 56.0941 32.2951 56.0106 32.2608 55.9282C32.1953 55.8112 32.162 55.6833 32.162 55.5467C32.1693 55.4784 32.1786 55.4133 32.187 55.3451C32.2358 55.1565 32.3575 54.9928 32.5198 54.8941C32.6311 54.8258 32.759 54.7901 32.888 54.7901C32.9514 54.7901 33.0159 54.7988 33.0794 54.8172C33.2416 54.8638 33.4444 54.9949 33.5141 55.164C33.7158 55.6605 33.9249 56.1548 34.0747 56.674C34.186 57.0555 34.2567 57.4555 34.3087 57.8533C34.3367 57.8934 34.3596 57.9335 34.3784 57.978C34.6717 57.9801 34.9639 57.9823 35.2593 57.9888C35.7731 57.9997 36.2848 58.0679 36.7986 58.095C37.0576 58.1102 37.3155 58.121 37.5735 58.1167C37.7336 58.1124 37.8948 58.0994 38.054 58.082C38.0477 58.0679 38.0394 58.056 38.0332 58.043C37.9677 57.8956 37.9136 57.7449 37.8657 57.5921C37.7992 57.3785 37.7606 57.1574 37.7242 56.9363C37.6493 56.4789 37.5817 56.0193 37.5048 55.5619C37.4684 55.3462 37.4715 55.1521 37.5807 54.9581C37.6785 54.7825 37.8418 54.6514 38.03 54.5983C38.0955 54.5787 38.1611 54.5701 38.2276 54.5701C38.3618 54.5701 38.4918 54.6069 38.6073 54.6774C38.7633 54.7728 38.9203 54.9549 38.9536 55.1467C39.1054 56.0345 39.2293 56.9309 39.4227 57.811C39.429 57.8338 39.43 57.8555 39.4341 57.8793C39.7181 57.8479 40.003 57.8154 40.289 57.7774C40.5075 57.746 40.7279 57.7124 40.9474 57.6864C41.0878 57.6669 41.2262 57.6549 41.3666 57.6376C41.6047 57.5931 41.8356 57.5249 42.0624 57.4349C42.1633 57.3862 42.2611 57.3319 42.3588 57.2766C42.4566 57.2224 42.5543 57.1672 42.6469 57.1065C42.6833 57.0729 42.7156 57.036 42.7489 56.9981C42.8061 56.9114 42.857 56.8246 42.9027 56.7336C42.9381 56.6263 42.9641 56.52 42.9818 56.4095C43.0432 55.8382 43.0463 55.2573 43.0452 54.6817C43.0452 54.4009 43.0473 54.1181 43.0244 53.8417C43.0036 53.6043 42.961 53.3691 42.9579 53.1338C42.9537 52.968 43.0141 52.8151 43.1097 52.6948C43.1097 52.684 43.1087 52.672 43.1087 52.6612C43.1087 52.5842 43.118 52.5063 43.1378 52.4304C43.144 52.4044 43.1524 52.3773 43.1617 52.3513C43.1742 52.3198 43.1857 52.2883 43.2023 52.2569C43.2751 52.1127 43.3864 51.9773 43.5195 51.9122C43.61 51.8678 43.6994 51.8255 43.7878 51.78C43.8003 51.7746 43.8118 51.768 43.8243 51.7637C43.8628 51.7388 43.9022 51.7193 43.9428 51.703C43.9719 51.6868 44.0031 51.6738 44.0312 51.6575C44.052 51.6456 44.0728 51.6347 44.0946 51.625C44.0998 51.6217 44.1051 51.6174 44.1113 51.6163C44.1311 51.6044 44.1498 51.5957 44.1706 51.5881C44.5689 51.3833 44.9631 51.1686 45.351 50.9443C45.4384 50.8944 45.5258 50.8435 45.6111 50.7936C45.6142 50.7914 45.6184 50.7892 45.6215 50.7871C45.6662 50.76 45.713 50.734 45.7577 50.7069C45.7619 50.7036 45.7671 50.7004 45.7744 50.6982C45.8046 50.6776 45.8368 50.6592 45.868 50.6408C45.87 50.6375 45.8732 50.6364 45.8763 50.6342C46.2965 50.3806 46.7115 50.114 47.1171 49.8365C47.298 49.714 47.4759 49.5883 47.6527 49.4615C48.0292 49.1905 48.3995 48.9097 48.7604 48.6214C50.4131 47.2729 51.9087 45.7316 53.2015 44.0092C54.3757 42.4061 55.3638 40.6631 56.1293 38.8095C56.8459 37.0048 57.3451 35.1166 57.6072 33.1818C57.7174 32.2648 57.7757 31.3444 57.784 30.4209C57.7851 29.4193 57.7278 28.4178 57.6072 27.4227ZM35.2063 46.1597C35.1907 46.2551 35.1709 46.3505 35.1428 46.4438C35.1012 46.4568 35.0586 46.4665 35.017 46.4741C34.9369 46.4795 34.8579 46.4784 34.7778 46.473C34.5698 46.4318 34.368 46.3711 34.1693 46.292C33.9322 46.1793 33.7055 46.0448 33.4912 45.8866C33.3789 45.7847 33.2759 45.6752 33.1719 45.5604C33.1189 45.5007 33.0627 45.4444 33.0013 45.3912C32.8609 45.2709 32.7382 45.1777 32.5583 45.1311C32.3502 45.0758 32.0912 45.0931 31.9061 45.22C31.7418 45.3338 31.618 45.4682 31.5213 45.6481C31.4776 45.7284 31.4402 45.8107 31.3965 45.892C31.3258 46.0221 31.2446 46.1457 31.1583 46.2671C30.9919 46.4871 30.8203 46.7093 30.6185 46.8958C30.5946 46.9131 30.5676 46.9283 30.5426 46.9435C30.5301 46.9435 30.5177 46.9435 30.5041 46.9435C30.4802 46.9359 30.4553 46.9283 30.4313 46.9207C30.3949 46.899 30.3606 46.8784 30.3242 46.8545C30.2951 46.8253 30.2649 46.7939 30.2378 46.7624C30.2254 46.7429 30.215 46.7234 30.2036 46.7039C30.2004 46.6909 30.1973 46.6768 30.1932 46.6638C30.1911 46.537 30.2036 46.4102 30.2171 46.2823C30.2753 45.8953 30.3544 45.5116 30.4605 45.1333C30.5666 44.7658 30.7028 44.4113 30.8442 44.0569C30.9784 43.7285 31.1157 43.4012 31.2728 43.0814C31.4413 42.74 31.6326 42.4136 31.85 42.1036C31.954 41.9736 32.0559 41.8435 32.1609 41.7156C32.2805 41.8099 32.3991 41.9031 32.5167 41.9963C32.6571 42.1166 32.7871 42.25 32.9171 42.3833C33.071 42.5405 33.2385 42.6836 33.4049 42.8299C33.7221 43.1052 33.9884 43.4467 34.2442 43.7849C34.5479 44.2 34.8558 44.6249 35.0773 45.0953C35.1345 45.2557 35.1813 45.4194 35.2146 45.5885C35.2281 45.7793 35.224 45.9668 35.2063 46.1597Z" fill="#83EFF5"/>
<path d="M57.6072 27.4227C57.3461 25.4922 56.849 23.6073 56.1345 21.8036C55.3649 19.9381 54.3695 18.1854 53.1869 16.5725C51.8972 14.8599 50.4079 13.325 48.7635 11.9831C46.9216 10.5165 44.9111 9.30247 42.7821 8.34861C40.4285 7.32862 37.9583 6.63273 35.4341 6.26528C32.8599 5.9195 30.2514 5.91518 27.6751 6.2447C27.7323 6.25337 27.7865 6.25769 27.8416 6.26528C30.3658 6.63273 32.8349 7.32753 35.1886 8.34861C37.3176 9.30247 39.3281 10.5165 41.17 11.9831C42.8144 13.325 44.3037 14.8599 45.5934 16.5725C46.776 18.1854 47.7713 19.9381 48.541 21.8036C49.2565 23.6073 49.7526 25.4911 50.0137 27.4227C50.1333 28.4177 50.1916 29.4193 50.1895 30.423C50.1822 31.3466 50.124 32.2668 50.0137 33.1838C49.7506 35.1187 49.2524 37.0069 48.5357 38.8117C47.7692 40.6652 46.7801 42.4071 45.608 44.0113C44.3141 45.7337 42.8185 47.2751 41.1669 48.6235C40.8039 48.9129 40.4336 49.1926 40.0582 49.4636C39.8814 49.5904 39.7025 49.715 39.5236 49.8386C39.1159 50.1161 38.702 50.3827 38.2828 50.6364C38.2807 50.6385 38.2765 50.6396 38.2734 50.6429C38.2422 50.6613 38.211 50.6798 38.1788 50.7004C38.1725 50.7025 38.1684 50.7058 38.1642 50.709C38.1174 50.7361 38.0727 50.7621 38.028 50.7892C38.0238 50.7914 38.0197 50.7936 38.0176 50.7958C37.9302 50.8456 37.8439 50.8965 37.7576 50.9464C37.3686 51.1708 36.9754 51.3843 36.5771 51.5903C36.5563 51.5989 36.5376 51.6076 36.5168 51.6184C36.5116 51.6195 36.5053 51.6239 36.5001 51.6271C36.4782 51.6369 36.4585 51.6488 36.4377 51.6597C36.4086 51.6759 36.3784 51.6889 36.3482 51.7052C36.3077 51.7214 36.2692 51.7398 36.2307 51.7658C36.2183 51.7702 36.2068 51.7767 36.1944 51.7821C36.1049 51.8276 36.0155 51.8699 35.926 51.9144C35.7919 51.9805 35.6816 52.116 35.6088 52.259C35.5921 52.2905 35.5796 52.3219 35.5682 52.3533C35.5578 52.3793 35.5495 52.4064 35.5443 52.4325C35.5235 52.5083 35.5141 52.5864 35.5141 52.6633C35.5141 52.6753 35.5162 52.6861 35.5162 52.697C35.4184 52.8173 35.3602 52.9701 35.3623 53.136C35.3685 53.3723 35.4112 53.6074 35.4309 53.8437C35.4538 54.1212 35.4507 54.4042 35.4517 54.6838C35.4517 55.2583 35.4496 55.8393 35.3883 56.4116C35.3685 56.5222 35.3436 56.6284 35.3093 56.7357C35.2635 56.8268 35.2115 56.9135 35.1553 57.0002C35.1241 57.0371 35.0898 57.0739 35.0534 57.1086C34.9608 57.1704 34.862 57.2246 34.7653 57.2788C34.6675 57.3351 34.5687 57.3893 34.4689 57.437C34.3982 57.4641 34.3264 57.4902 34.2557 57.514C34.2754 57.6267 34.291 57.7427 34.3066 57.8565C34.3347 57.8966 34.3576 57.9367 34.3763 57.9812C34.6696 57.9833 34.9619 57.9855 35.2573 57.992C35.7711 58.0029 36.2827 58.0712 36.7965 58.0983C37.0555 58.1134 37.3134 58.1242 37.5714 58.1199C37.7316 58.1156 37.8927 58.1026 38.0519 58.0852C38.0456 58.0711 38.0373 58.0592 38.0311 58.0462C37.9656 57.8988 37.9115 57.7481 37.8636 57.5953C37.7971 57.3817 37.7586 57.1606 37.7222 56.9395C37.6473 56.4821 37.5797 56.0225 37.5028 55.5651C37.4664 55.3494 37.4695 55.1553 37.5787 54.9613C37.6764 54.7857 37.8397 54.6546 38.028 54.6015C38.0935 54.5819 38.159 54.5733 38.2256 54.5733C38.3598 54.5733 38.4898 54.6101 38.6052 54.6806C38.7612 54.776 38.9183 54.9581 38.9516 55.1499C39.1034 56.0377 39.2272 56.9341 39.4206 57.8142C39.4269 57.837 39.4279 57.8587 39.4321 57.8825C39.716 57.8511 40.001 57.8186 40.287 57.7806C40.5054 57.7492 40.7259 57.7156 40.9454 57.6896C41.0858 57.6701 41.2241 57.6581 41.3645 57.6408C41.6027 57.5963 41.8336 57.5281 42.0603 57.4381C42.1612 57.3894 42.259 57.3352 42.3567 57.2799C42.4545 57.2257 42.5522 57.1704 42.6448 57.1097C42.6812 57.0761 42.7135 57.0392 42.7468 57.0013C42.804 56.9146 42.8549 56.8278 42.9007 56.7368C42.9361 56.6295 42.9621 56.5232 42.9797 56.4127C43.0411 55.8414 43.0442 55.2605 43.0432 54.6849C43.0432 54.4041 43.0453 54.1213 43.0224 53.8449C43.0016 53.6075 42.9589 53.3723 42.9558 53.137C42.9516 52.9712 43.012 52.8183 43.1077 52.698C43.1077 52.6872 43.1066 52.6753 43.1066 52.6645C43.1066 52.5875 43.1159 52.5094 43.1357 52.4336C43.142 52.4076 43.1503 52.3805 43.1596 52.3544C43.1721 52.323 43.1836 52.2915 43.2002 52.2601C43.273 52.1159 43.3843 51.9805 43.5174 51.9154C43.6079 51.871 43.6973 51.8287 43.7858 51.7832C43.7982 51.7777 43.8097 51.7713 43.8222 51.767C43.8607 51.742 43.9002 51.7225 43.9408 51.7062C43.9699 51.69 44.0011 51.677 44.0291 51.6607C44.0499 51.6488 44.0708 51.6379 44.0926 51.6282C44.0978 51.6249 44.103 51.6206 44.1092 51.6195C44.129 51.6076 44.1477 51.5989 44.1685 51.5913C44.5669 51.3864 44.9611 51.1718 45.349 50.9475C45.4364 50.8976 45.5238 50.8467 45.609 50.7968C45.6122 50.7946 45.6163 50.7925 45.6194 50.7903C45.6641 50.7632 45.711 50.7372 45.7557 50.7101C45.7598 50.7068 45.765 50.7036 45.7723 50.7014C45.8025 50.6808 45.8347 50.6624 45.8659 50.644C45.868 50.6407 45.8711 50.6396 45.8742 50.6374C46.2944 50.3838 46.7094 50.1172 47.1151 49.8397C47.296 49.7172 47.4738 49.5915 47.6506 49.4646C48.0271 49.1937 48.3974 48.9129 48.7583 48.6246C50.411 47.2761 51.9066 45.7348 53.1994 44.0124C54.3736 42.4092 55.3617 40.6663 56.1272 38.8127C56.8438 37.008 57.3431 35.1198 57.6052 33.185C57.7154 32.2679 57.7736 31.3477 57.782 30.4242C57.7851 29.4194 57.7278 28.4177 57.6072 27.4227Z" fill="#6FE2E8"/>
<path d="M58.4725 40.4299C59.1288 38.8972 59.6384 37.306 59.9743 35.6649C60.2884 34.1322 60.4528 32.5605 60.4705 30.9931C60.4726 30.9844 60.4725 30.9747 60.4725 30.966C60.4725 30.914 60.4736 30.862 60.4736 30.8088C60.4736 30.8002 60.4725 30.7915 60.4725 30.7817C60.4705 29.1601 60.3072 27.5386 59.9952 25.9506C59.6655 24.2662 59.1319 22.6392 58.4652 21.0696C57.8183 19.5456 57.006 18.0986 56.0721 16.7458C55.0996 15.3334 53.9961 14.0229 52.7844 12.8338C51.5457 11.6166 50.1863 10.5283 48.7562 9.57117C47.2981 8.59129 45.7473 7.78054 44.1467 7.08573C41.0566 5.74598 37.744 5.00241 34.4085 4.77911C33.7782 4.73793 33.1458 4.7162 32.5156 4.7162C31.4859 4.7162 30.4573 4.77152 29.4339 4.87557C27.7386 5.05009 26.0557 5.36439 24.4104 5.8229C22.7379 6.28899 21.1092 6.92203 19.5387 7.6797C18.0535 8.39619 16.6317 9.25359 15.289 10.2313C13.8817 11.2556 12.565 12.4165 11.3648 13.6977C10.15 14.9974 9.06316 16.4369 8.12606 17.9674C7.19832 19.4849 6.44631 21.1152 5.85555 22.8061C5.56537 23.6332 5.32719 24.4797 5.1327 25.3371C4.92573 26.2455 4.78327 27.1668 4.67615 28.0914C4.47645 29.8311 4.48063 31.5969 4.66993 33.3377C4.86546 35.1186 5.24294 36.8691 5.8181 38.5579C6.36621 40.1687 7.08076 41.7165 7.93778 43.1733C8.78231 44.6085 9.787 45.9428 10.8801 47.1796C11.1443 47.4788 11.4241 47.7649 11.7039 48.0489C12.0315 48.3816 12.3643 48.7069 12.7106 49.019C13.3732 49.6163 14.0638 50.1788 14.7741 50.7132C15.5188 51.2704 16.2999 51.7722 17.0924 52.2481C17.2973 52.3727 17.5054 52.4898 17.7144 52.608C17.9245 52.7229 18.1429 52.8236 18.3561 52.932C18.5714 53.0415 18.7847 53.151 19.001 53.2583C19.2298 53.3711 19.4628 53.4675 19.6999 53.5629C19.6926 53.5597 19.6843 53.5564 19.6781 53.5521C19.9329 53.6648 20.1898 53.7678 20.4498 53.8675C20.7098 53.9662 20.9761 54.0551 21.2382 54.1548C21.5221 54.2621 21.8102 54.3564 22.0962 54.4604C22.248 54.5168 22.402 54.5731 22.5549 54.6273C22.558 54.6447 22.5601 54.6609 22.5653 54.6783C22.6527 55.2322 22.7338 55.7872 22.8471 56.3356C22.9532 56.8483 23.0427 57.3632 23.1352 57.8792C23.156 57.993 23.1758 58.1057 23.1987 58.2184C23.2382 58.4092 23.2975 58.5762 23.3713 58.7561C23.4483 58.9404 23.5824 59.1008 23.7156 59.2449C23.8331 59.3739 23.9745 59.4823 24.1191 59.5777C24.2595 59.6731 24.4239 59.736 24.5788 59.7978C24.712 59.853 24.8462 59.8974 24.9866 59.9267C25.2424 59.9842 25.5086 59.9983 25.7707 60.008C25.984 60.0156 26.1982 60.0156 26.4104 59.995C26.6423 59.9745 26.8711 59.9473 27.1031 59.9278C27.3485 59.9083 27.594 59.9029 27.8384 59.8985C28.0735 59.8942 28.3075 59.879 28.5426 59.866C29.0376 59.8379 29.5306 59.8205 30.0257 59.7956C30.5447 59.7674 31.0709 59.7392 31.5931 59.7576C31.8406 59.7663 32.0881 59.7934 32.3346 59.8097C32.5999 59.8303 32.8661 59.839 33.1313 59.8541C33.641 59.878 34.1506 59.8953 34.6613 59.9083C35.1428 59.9213 35.6243 59.9333 36.1059 59.9419C36.3565 59.9463 36.6051 59.9484 36.8579 59.9603C37.1137 59.9733 37.3716 59.9864 37.6264 59.995C38.0685 60.0091 38.5126 60.008 38.9505 59.9636C39.4143 59.918 39.8699 59.8248 40.3307 59.7565C40.6468 59.7143 40.963 59.6785 41.2792 59.6351C41.509 59.6026 41.7368 59.5647 41.9677 59.5311C42.4524 59.4682 42.9412 59.4303 43.3999 59.2417C43.6828 59.1257 43.9501 58.9859 44.2122 58.8222C44.3588 58.7311 44.4961 58.6238 44.6167 58.5003C44.7384 58.3734 44.8393 58.2152 44.9308 58.0645C45.0827 57.8152 45.1857 57.5334 45.2387 57.2429C45.2918 56.947 45.3094 56.6413 45.3282 56.3411C45.3552 55.8283 45.3625 55.3168 45.3749 54.8041C45.3791 54.5862 45.3791 54.3704 45.3604 54.1537C45.3542 54.0669 45.3438 53.9813 45.3365 53.8957C45.3552 53.8859 45.3708 53.8772 45.3895 53.8686C45.4051 53.861 45.4176 53.8534 45.4342 53.8458C45.481 53.8285 45.5299 53.8046 45.5747 53.7775C45.5892 53.77 45.6037 53.7635 45.6193 53.7548C45.6256 53.7526 45.6298 53.7505 45.636 53.7461C45.6776 53.7309 45.7182 53.7103 45.7587 53.6854C45.7816 53.6756 45.8066 53.6648 45.8295 53.6529C45.843 53.6464 45.8544 53.6399 45.8669 53.6334C45.894 53.6204 45.92 53.6074 45.946 53.5911C46.0052 53.5618 46.0645 53.5293 46.1248 53.5001C46.1311 53.4957 46.1373 53.4936 46.1436 53.4892C46.4951 53.3071 46.8425 53.1163 47.1867 52.9191C47.1961 52.9158 47.2045 52.9093 47.2128 52.905C47.2669 52.8746 47.3189 52.8432 47.3698 52.8128C47.3771 52.8074 47.3843 52.8052 47.3906 52.8009C47.4145 52.7857 47.4384 52.7738 47.4613 52.7586C47.4675 52.7554 47.4738 52.7522 47.48 52.7489C47.4842 52.7457 47.4884 52.7435 47.4915 52.7413C47.5134 52.7283 47.5331 52.7164 47.5549 52.7055C47.5601 52.7012 47.5643 52.699 47.5685 52.6958C47.5882 52.6839 47.609 52.6719 47.6298 52.6589C47.6382 52.6546 47.6486 52.6481 47.6569 52.6437C47.661 52.6416 47.6641 52.6383 47.6683 52.6362C47.6891 52.6232 47.7089 52.6123 47.7297 52.5993C47.7349 52.5961 47.7401 52.5928 47.7452 52.5906C47.7806 52.5678 47.8191 52.5462 47.8545 52.5223C47.8587 52.5201 47.8618 52.518 47.868 52.5148C48.2258 52.2947 48.5794 52.0671 48.9288 51.8297C48.9351 51.8254 48.9434 51.821 48.9497 51.8167C48.9705 51.8037 48.9882 51.7896 49.009 51.7755C49.037 51.7549 49.0662 51.7365 49.0932 51.717C49.1015 51.7116 49.1088 51.7061 49.1181 51.6996C49.2274 51.6238 49.3386 51.5446 49.4489 51.4666C49.4499 51.4666 49.451 51.4644 49.4531 51.4644C49.4853 51.4416 49.5196 51.4156 49.5529 51.3929C49.5654 51.3842 49.5758 51.3755 49.5872 51.3679C50.8488 50.4542 52.0428 49.4407 53.1443 48.3242C54.2655 47.1883 55.2774 45.9374 56.1854 44.6117C57.0778 43.3078 57.8433 41.8997 58.4725 40.4299ZM48.673 49.9209C48.4962 50.0477 48.3183 50.1713 48.1384 50.2938C47.7317 50.5713 47.3178 50.8379 46.8976 51.0937C46.8955 51.0959 46.8914 51.0959 46.8904 51.0981C46.8592 51.1176 46.8258 51.1371 46.7946 51.1555C46.7894 51.1587 46.7853 51.162 46.7801 51.1652C46.7343 51.1934 46.6875 51.2194 46.6428 51.2465C46.6386 51.2487 46.6365 51.2498 46.6324 51.2509C46.5471 51.3029 46.4608 51.3528 46.3734 51.4037C45.9844 51.627 45.5913 51.8416 45.194 52.0454C45.1721 52.0562 45.1534 52.0649 45.1326 52.0747C45.1274 52.0769 45.1212 52.0801 45.116 52.0834C45.0942 52.0942 45.0733 52.105 45.0525 52.117C45.0244 52.1321 44.9933 52.1462 44.9652 52.1614C44.9246 52.1787 44.8841 52.1972 44.8456 52.2221C44.8331 52.2275 44.8217 52.234 44.8102 52.2394C44.7218 52.2828 44.6324 52.3272 44.5419 52.3695C44.4088 52.4356 44.2964 52.5711 44.2236 52.7164C44.208 52.7467 44.1955 52.7781 44.183 52.8106C44.1737 52.8366 44.1643 52.8627 44.1591 52.8887C44.1383 52.9635 44.129 53.0426 44.129 53.1207C44.129 53.1315 44.1311 53.1434 44.1331 53.1543C44.0333 53.2724 43.975 53.4263 43.9792 53.5922C43.9844 53.8296 44.027 54.0648 44.0457 54.2989C44.0696 54.5786 44.0665 54.8615 44.0676 55.1401C44.0686 55.7146 44.0645 56.2955 44.0031 56.8679C43.9834 56.9795 43.9604 57.0846 43.924 57.1909C43.8793 57.2841 43.8263 57.3708 43.7702 57.4554C43.74 57.4944 43.7046 57.5302 43.6692 57.5648C43.5756 57.6277 43.4779 57.6797 43.3801 57.7361C43.2824 57.7903 43.1846 57.8455 43.0848 57.8943C42.858 57.9843 42.6271 58.0526 42.3879 58.097C42.2485 58.1133 42.1071 58.1263 41.9688 58.1447C41.7493 58.174 41.5298 58.2054 41.3103 58.2379C41.0264 58.2759 40.7394 58.3073 40.4555 58.3388C40.4513 58.316 40.4502 58.2932 40.445 58.2716C40.2495 57.3903 40.1278 56.495 39.976 55.6062C39.9427 55.4143 39.7846 55.2311 39.6307 55.1379C39.5152 55.0664 39.3831 55.0295 39.251 55.0295C39.1845 55.0295 39.1159 55.0403 39.0524 55.0566C38.8631 55.1119 38.7008 55.243 38.601 55.4175C38.4918 55.6127 38.4898 55.8056 38.5262 56.0202C38.6042 56.4798 38.6728 56.9394 38.7466 57.3968C38.782 57.6168 38.8205 57.8391 38.887 58.0515C38.9349 58.2065 38.99 58.3561 39.0555 58.5024C39.0628 58.5176 39.069 58.5295 39.0753 58.5425C38.9172 58.5599 38.756 58.5729 38.5958 58.5761C38.3379 58.5837 38.0779 58.5718 37.8199 58.5566C37.3061 58.5295 36.7965 58.4591 36.2806 58.4504C35.9873 58.4439 35.694 58.4407 35.4008 58.4374C35.3799 58.3941 35.3581 58.3528 35.33 58.3149C35.278 57.9171 35.2083 57.5171 35.096 57.1334C34.9473 56.6164 34.7372 56.121 34.5354 55.6235C34.4657 55.4544 34.2629 55.3243 34.1007 55.2766C34.0383 55.2593 33.9748 55.2517 33.9093 55.2517C33.7813 55.2517 33.6534 55.2864 33.5411 55.3547C33.3788 55.4544 33.2582 55.617 33.2083 55.8067C33.1999 55.8728 33.1917 55.94 33.1823 56.0083C33.1833 56.1438 33.2145 56.2706 33.2821 56.3898C33.3164 56.4722 33.3497 56.5546 33.384 56.638C33.54 57.0369 33.6763 57.438 33.7803 57.8575C33.8271 58.0472 33.8687 58.238 33.9124 58.4255C33.7189 58.4233 33.5265 58.4222 33.3331 58.419C32.8109 58.4081 32.2909 58.3919 31.7709 58.3637C31.2727 58.3366 30.7735 58.3615 30.2763 58.3853C30.1879 58.3886 30.0985 58.3919 30.0069 58.3962C29.9716 58.3203 29.9165 58.2499 29.8468 58.1989C29.826 58.1653 29.8083 58.1296 29.7917 58.0927C29.6939 57.8131 29.6304 57.528 29.5742 57.2375C29.5077 56.8961 29.4547 56.5502 29.3996 56.2066C29.3777 56.0646 29.257 55.9292 29.1458 55.8598C29.0594 55.8078 28.9606 55.7817 28.8639 55.7817C28.814 55.7817 28.7641 55.7882 28.7162 55.8023C28.5769 55.8435 28.4572 55.9389 28.3844 56.0701C28.3657 56.1145 28.346 56.1611 28.3272 56.2077C28.3033 56.3096 28.3033 56.4115 28.3272 56.5145C28.3959 56.9459 28.4603 57.3784 28.5529 57.8055C28.5935 57.9897 28.6424 58.1697 28.7058 58.3474C28.7194 58.3832 28.7329 58.4168 28.7474 58.4526C28.5092 58.4602 28.27 58.4764 28.0319 58.484C27.7916 58.4916 27.5503 58.4916 27.31 58.5003C26.9751 58.51 26.6424 58.5447 26.3085 58.5599C26.0526 58.5707 25.7905 58.5534 25.5326 58.523C25.3641 58.4916 25.2039 58.4439 25.0448 58.381C24.9699 58.3431 24.8961 58.3019 24.8274 58.2553C24.7785 58.2108 24.7338 58.1632 24.6891 58.1122C24.6766 58.0916 24.6662 58.071 24.6548 58.0515C24.5757 57.8022 24.5331 57.5377 24.4801 57.2819C24.4135 56.9654 24.35 56.6489 24.2793 56.3334C24.2085 56.0104 24.1285 55.6907 24.0692 55.3644C24.0047 55.0089 23.9506 54.6534 23.8944 54.2989C23.8653 54.1244 23.7187 53.9564 23.5783 53.8697C23.4181 53.7721 23.2236 53.7461 23.0458 53.7981C22.9927 53.8133 22.9438 53.8361 22.8949 53.8643C22.6526 53.7776 22.4103 53.6898 22.1711 53.5933C22.1108 53.5662 22.0504 53.538 21.9891 53.512C21.7228 53.3949 21.4607 53.2735 21.2028 53.1391C20.9199 52.9917 20.6391 52.8399 20.3593 52.6838C20.2459 52.6199 20.1294 52.5646 20.0202 52.4985C19.8705 52.4107 19.7218 52.3229 19.572 52.2427C19.2693 52.0779 18.9729 51.9056 18.6806 51.7256C18.5641 51.653 18.4518 51.5706 18.3343 51.5002C18.1897 51.4102 18.0462 51.3192 17.9016 51.2281C17.6125 51.0449 17.3285 50.8552 17.0488 50.6623C16.7981 50.4878 16.5526 50.3024 16.3072 50.1192C16.042 49.9241 15.7809 49.7215 15.523 49.5144C15.0945 49.1665 14.6743 48.8033 14.2603 48.4315C13.8141 48.0294 13.3877 47.6001 12.9686 47.1676C12.5744 46.7612 12.2042 46.3319 11.8339 45.9005C11.4761 45.4821 11.1381 45.0486 10.8084 44.6085C9.61438 42.9739 8.60965 41.1898 7.83272 39.3015C7.12131 37.5098 6.62624 35.6367 6.36206 33.7182C6.12285 31.7844 6.12077 29.8279 6.35375 27.8952C6.61584 25.9539 7.11509 24.0613 7.83481 22.2533C8.60654 20.3867 9.60398 18.6351 10.7865 17.0222C12.0804 15.3074 13.5739 13.7703 15.2214 12.4284C17.0675 10.9608 19.0852 9.74571 21.2184 8.79401C23.5648 7.77836 26.0277 7.08896 28.5426 6.72259C31.1687 6.37139 33.8313 6.37357 36.4574 6.72477C38.9817 7.09114 41.4529 7.78703 43.8044 8.8081C45.9335 9.76197 47.945 10.976 49.7869 12.4436C51.4302 13.7845 52.9206 15.3193 54.2093 17.0331C55.3929 18.646 56.3872 20.3987 57.1568 22.2641C57.8724 24.0656 58.3696 25.9506 58.6296 27.8833C58.7502 28.8784 58.8085 29.8799 58.8053 30.8836C58.7991 31.8071 58.7398 32.7274 58.6296 33.6445C58.3675 35.5793 57.8683 37.4675 57.1527 39.2722C56.3872 41.1247 55.397 42.8677 54.2238 44.4719C52.931 46.1932 51.4365 47.7356 49.7828 49.0841C49.4198 49.3691 49.0516 49.6488 48.673 49.9209Z" fill="#2C2C2C"/>
<path d="M30.034 30.1588C30.2961 29.0521 30.4262 28.0234 30.4283 27.0153C30.4303 26.4538 30.3991 25.8999 30.3346 25.3699C30.2691 24.8301 30.1485 24.2686 29.9654 23.6529C29.6628 22.6308 29.203 21.7127 28.5967 20.9268C27.9601 20.1019 27.1229 19.4505 26.1765 19.0408C26.165 19.0354 26.1536 19.0299 26.1411 19.0267C26.1234 19.018 26.1068 19.0115 26.0891 19.0039L26.0859 19.0028C26.0745 18.9996 26.0651 18.9952 26.0558 18.9909C24.8753 18.5291 23.5222 18.4706 22.2471 18.8262C21.2247 19.1123 20.2356 19.6174 19.31 20.3317C19.2569 20.3697 19.2059 20.412 19.156 20.4521L19.13 20.4738C19.0114 20.5692 18.8866 20.6764 18.7358 20.8108C18.6693 20.8726 18.6016 20.9334 18.5371 20.9962C18.0192 21.4818 17.5345 22.0303 17.0987 22.6243C16.9573 22.8139 16.82 23.0102 16.69 23.2074C16.2927 23.8069 15.9318 24.4713 15.5844 25.2376C15.4201 25.6018 15.2682 25.9834 15.132 26.3769C14.9905 26.7779 14.8637 27.2094 14.7524 27.6581C14.6816 27.9464 14.6171 28.2348 14.5631 28.522L14.5558 28.5589L14.5485 28.5913V28.6044L14.5443 28.6152C14.4757 28.9957 14.4227 29.3773 14.3842 29.7523C14.3051 30.5382 14.3051 31.3739 14.3821 32.2367C14.536 33.9461 15.0935 35.5264 15.9911 36.8022C16.2552 37.1773 16.5694 37.5014 16.8419 37.7702C17.1144 38.039 17.443 38.2894 17.8144 38.5137C18.1191 38.698 18.4061 38.8444 18.6974 38.9614C18.7639 38.9874 18.8315 39.0145 18.9001 39.0373C19.2517 39.163 19.6469 39.2584 20.0713 39.3191C20.4603 39.3733 20.8586 39.3625 21.2018 39.3494C21.5471 39.3343 21.9142 39.2801 22.323 39.1804C23.0885 38.9918 23.8384 38.6742 24.5498 38.2363C25.2497 37.807 25.8946 37.2965 26.4656 36.722C27.0605 36.1237 27.6003 35.4592 28.0704 34.7481C28.4979 34.1021 28.8931 33.3629 29.2488 32.551C29.5691 31.8074 29.8344 31.0032 30.034 30.1588Z" fill="#2C2C2C"/>
<path d="M50.5442 28.4005L50.5431 28.3885L50.5421 28.3756L50.5337 28.343L50.5275 28.3051C50.4723 28.0178 50.4079 27.7284 50.3361 27.4423C50.2269 26.9935 50.0979 26.5632 49.9585 26.161C49.8223 25.7676 49.6705 25.3839 49.5051 25.024C49.1577 24.2555 48.7958 23.5911 48.3995 22.9916C48.2695 22.7944 48.1312 22.5981 47.9898 22.4095C47.554 21.8144 47.0682 21.266 46.5513 20.7804C46.4858 20.7164 46.4192 20.6547 46.3516 20.5951C46.2008 20.4606 46.077 20.3533 45.9574 20.2579L45.9335 20.2362C45.8815 20.1961 45.8295 20.155 45.7775 20.1159C44.8529 19.4027 43.8638 18.8954 42.8403 18.6103C41.5652 18.2548 40.2121 18.3133 39.0316 18.7751C39.0223 18.7794 39.0129 18.7838 39.0036 18.787L38.9994 18.7881C38.9807 18.7967 38.9651 18.8022 38.9474 18.8098C38.9339 18.8163 38.9245 18.8206 38.912 18.8249C37.9656 19.2346 37.1283 19.8872 36.4929 20.711C35.8865 21.4969 35.4258 22.4149 35.1221 23.4371C34.939 24.0538 34.8194 24.6154 34.7539 25.1552C34.6883 25.6852 34.6561 26.2391 34.6581 26.8006C34.6623 27.8086 34.7913 28.8373 35.0523 29.944C35.2531 30.7873 35.5172 31.5927 35.8417 32.333C36.1964 33.1427 36.5927 33.8831 37.0212 34.5291C37.4903 35.2401 38.0301 35.9046 38.624 36.5019C39.195 37.0764 39.8408 37.5869 40.5397 38.0172C41.2532 38.4541 42 38.7727 42.7686 38.9613C43.1774 39.061 43.5445 39.1163 43.8877 39.1304C44.232 39.1434 44.6314 39.1532 45.0193 39.1C45.4437 39.0393 45.8379 38.944 46.1915 38.8171C46.2591 38.7944 46.3267 38.7684 46.3932 38.7413C46.6824 38.6253 46.9725 38.479 47.2762 38.2947C47.6465 38.0725 47.9752 37.8199 48.2498 37.549C48.5223 37.2823 48.8353 36.9582 49.0984 36.5832C49.9981 35.3063 50.5535 33.7281 50.7074 32.0187C50.7854 31.1548 50.7844 30.319 50.7064 29.5332C50.6679 29.1614 50.6138 28.7788 50.5442 28.4005Z" fill="#2C2C2C"/>
<path d="M35.8199 43.257C35.5849 42.8798 35.3248 42.521 35.0534 42.172C34.9317 42.0137 34.809 41.8555 34.6655 41.7167C34.5146 41.5715 34.3566 41.436 34.2068 41.2885C34.0851 41.1693 33.9707 41.0414 33.849 40.9211C33.6805 40.7563 33.4933 40.6111 33.3072 40.4659C33.0326 40.2393 32.7694 40.0128 32.4179 39.9283C32.2691 39.8925 32.1142 39.874 31.9623 39.8643C31.9405 39.8621 31.9176 39.8599 31.8958 39.8599C31.7439 39.8599 31.5889 39.9 31.4568 39.9803C31.3528 40.0442 31.2634 40.1331 31.1948 40.235C31.1761 40.2534 31.1583 40.2707 31.1417 40.2892C30.7465 40.7758 30.3554 41.2626 30.0392 41.8111C29.7657 42.2858 29.5598 42.8018 29.3538 43.3101C29.2259 43.6234 29.098 43.9388 28.9857 44.2597C28.8879 44.5361 28.812 44.82 28.7444 45.104C28.682 45.3653 28.6383 45.6319 28.5987 45.8975C28.5717 46.098 28.5478 46.2985 28.5322 46.4991C28.5281 46.5619 28.527 46.6248 28.528 46.6866C28.5311 46.8178 28.5571 46.9468 28.5748 47.0758C28.5956 47.2308 28.6768 47.389 28.7381 47.5277C28.8057 47.6762 28.916 47.8031 29.0117 47.931C29.0762 48.0155 29.15 48.0881 29.2311 48.1553C29.3445 48.2496 29.4609 48.3494 29.593 48.4176C29.6814 48.4653 29.7574 48.4968 29.8572 48.539C30.0257 48.6117 30.1786 48.6442 30.3606 48.6637C30.6737 48.6984 30.9795 48.6268 31.2603 48.4837C31.4142 48.4046 31.5463 48.2919 31.6805 48.1803C31.7897 48.0892 31.8801 47.9743 31.9685 47.8605C32.1391 47.6427 32.2993 47.4129 32.446 47.1744C32.6634 47.363 32.913 47.5115 33.1667 47.6361C33.4226 47.7629 33.693 47.8714 33.9675 47.9483C34.0716 47.9765 34.1756 47.9949 34.2806 48.0112C34.4751 48.0437 34.6707 48.0697 34.8673 48.0599C35.3488 48.0372 35.8688 47.8713 36.1944 47.4843C36.5147 47.0995 36.5927 46.614 36.6343 46.1251C36.6811 45.581 36.6302 45.0108 36.4492 44.497C36.2921 44.0526 36.0674 43.6537 35.8199 43.257ZM35.2063 46.1598C35.1907 46.2552 35.1709 46.3506 35.1428 46.4438C35.1012 46.4568 35.0586 46.4666 35.017 46.4742C34.9369 46.4796 34.8579 46.4785 34.7778 46.4731C34.5698 46.4319 34.368 46.3712 34.1694 46.292C33.9322 46.1793 33.7055 46.0449 33.4913 45.8866C33.3789 45.7847 33.2759 45.6753 33.1719 45.5604C33.1189 45.5008 33.0627 45.4444 33.0014 45.3913C32.861 45.271 32.7382 45.1778 32.5583 45.1312C32.3503 45.0759 32.0913 45.0932 31.9061 45.22C31.7418 45.3338 31.618 45.4683 31.5213 45.6482C31.4776 45.7284 31.4402 45.8108 31.3965 45.892C31.3258 46.0221 31.2447 46.1457 31.1583 46.2671C30.9919 46.4871 30.8203 46.7094 30.6186 46.8958C30.5946 46.9131 30.5676 46.9283 30.5426 46.9435C30.5302 46.9435 30.5177 46.9435 30.5042 46.9435C30.4803 46.9359 30.4553 46.9283 30.4314 46.9207C30.395 46.8991 30.3606 46.8784 30.3242 46.8546C30.2951 46.8253 30.2649 46.7939 30.2379 46.7625C30.2254 46.743 30.215 46.7235 30.2036 46.7039C30.2005 46.6909 30.1973 46.6769 30.1932 46.6639C30.1911 46.537 30.2036 46.4102 30.2171 46.2823C30.2754 45.8953 30.3544 45.5116 30.4605 45.1333C30.5666 44.7659 30.7028 44.4114 30.8442 44.0569C30.9784 43.7285 31.1157 43.4012 31.2728 43.0814C31.4413 42.74 31.6326 42.4137 31.85 42.1037C31.954 41.9736 32.0559 41.8436 32.161 41.7157C32.2806 41.81 32.3992 41.9032 32.5167 41.9964C32.6571 42.1167 32.7871 42.25 32.9171 42.3833C33.0711 42.5405 33.2385 42.6836 33.4049 42.83C33.7221 43.1053 33.9884 43.4467 34.2443 43.7849C34.548 44.2 34.8558 44.6249 35.0773 45.0954C35.1345 45.2558 35.1813 45.4195 35.2146 45.5886C35.2281 45.7794 35.224 45.9668 35.2063 46.1598Z" fill="#2C2C2C"/>
</svg>
