<svg width="40" height="58" viewBox="0 0 40 58" fill="none" xmlns="http://www.w3.org/2000/svg">
<path d="M38.6035 8.35874C38.5186 7.68737 38.176 7.08826 37.6385 6.67279C37.3253 6.43094 36.9676 6.26836 36.5908 6.19109C36.907 5.44846 36.8625 4.56936 36.3937 3.83979C35.7461 2.83023 34.4932 2.43082 33.398 2.81116C33.3111 2.765 33.2221 2.72285 33.1312 2.6827C33.0423 2.49805 32.9291 2.32344 32.7937 2.16086C32.3572 1.64002 31.7439 1.31889 31.0589 1.25567C30.0475 1.16535 29.1169 1.67816 28.6319 2.49404C28.5076 2.50307 28.3834 2.52013 28.2601 2.54723C27.6104 2.68471 27.0314 3.0781 26.6667 3.63507C26.2999 4.19303 26.1676 4.87946 26.3009 5.52775C26.1241 5.59498 25.9514 5.68329 25.7867 5.79268C25.7038 5.84988 25.624 5.91009 25.5492 5.97432C25.3856 5.5729 25.1158 5.20661 24.745 4.92261C24.1529 4.46901 23.4224 4.31547 22.7393 4.43589C22.4645 3.8699 21.9947 3.43034 21.4086 3.19451C20.7751 2.9376 20.082 2.94162 19.4505 3.20555C19.4131 3.22161 19.3757 3.23766 19.3383 3.25573C19.0999 2.90248 18.7715 2.61045 18.3865 2.41376C17.7864 2.10768 17.0782 2.05148 16.4396 2.2562C15.4282 2.57934 14.7573 3.47651 14.6774 4.47102C14.5057 4.56234 14.3369 4.66069 14.1712 4.76606C13.8075 4.62556 13.4144 4.57137 13.0133 4.6085C12.3363 4.67172 11.7241 4.99286 11.2886 5.5137C10.6025 6.33359 10.5278 7.46057 11.0128 8.34569C11.0087 8.35171 11.0057 8.35874 11.0026 8.36577C10.3095 8.44605 9.65277 8.80532 9.2183 9.41146C8.57468 10.3076 8.60598 11.4808 9.20615 12.3358C8.84342 12.6659 8.57265 13.1035 8.45039 13.6143C8.2271 14.5426 8.55346 15.4759 9.2183 16.078C9.10918 16.2165 9.0112 16.367 8.93036 16.5316C8.77679 16.8417 8.69292 17.1688 8.67271 17.494C8.18368 17.2772 7.632 17.2311 7.10761 17.3665L6.93481 17.4117C6.88732 17.4237 6.84185 17.4368 6.79537 17.4518L6.62566 17.507C5.71227 17.8041 5.0969 18.6039 5.00394 19.5041C4.5331 19.5031 4.06938 19.6325 3.66017 19.8854C3.08021 20.2427 2.67404 20.8037 2.52046 21.459C2.36486 22.1183 2.477 22.7987 2.8367 23.3747C2.88419 23.452 2.93668 23.5263 2.99124 23.5965C2.73764 23.8765 2.54871 24.2127 2.4406 24.586C2.25166 25.2363 2.32946 25.9207 2.65885 26.5128C2.87709 26.9052 3.18524 27.2213 3.54898 27.4451C3.49644 27.5986 3.45907 27.7582 3.43785 27.9228C3.34793 28.5952 3.52577 29.2605 3.94002 29.7974C4.20273 30.1386 4.53819 30.3995 4.91304 30.5681C4.79887 31.4031 5.10402 32.2752 5.79917 32.8522C6.24475 33.2245 6.79943 33.4282 7.36828 33.4443C7.59158 34.1237 8.09981 34.7057 8.81517 35.0018C9.21831 35.1684 9.66289 35.2286 10.0963 35.1774C10.1721 35.35 10.2681 35.5156 10.3833 35.6711C10.7844 36.2141 11.3745 36.5693 12.0474 36.6737C11.3583 37.5749 10.9046 39.0511 11.7473 41.3743L11.8261 41.5961C12.2303 42.7421 12.9709 44.8385 14.8916 45.4226C15.0806 45.8822 15.2695 46.3328 15.4595 46.7713C16.4658 49.0975 17.5873 51.4077 18.7968 53.6406C18.8604 53.756 18.9251 53.8754 18.9918 53.9968C19.0655 54.1273 19.1414 54.2597 19.2212 54.3912C19.3242 54.5668 19.4354 54.7455 19.5617 54.9371C19.5677 54.9462 19.5738 54.9552 19.5798 54.9632C19.6789 55.1087 19.7768 55.2442 19.8759 55.3757C20.3962 56.0631 20.9499 56.595 21.5744 57.0024C21.5754 57.0024 21.5764 57.0034 21.5764 57.0034C21.5814 57.0064 21.5865 57.0105 21.5916 57.0135C21.7209 57.0958 21.8553 57.176 21.9997 57.2543C23.6568 58.1465 25.4684 58.0622 26.8617 57.8886C28.0994 57.735 29.3634 57.4851 30.6204 57.1459C31.8803 56.8067 33.1888 56.3612 34.5144 55.8223C35.3066 55.4991 37.7164 54.5167 38.6267 51.9225C38.7257 51.6365 38.8045 51.3354 38.8641 51.0103C38.95 50.5306 39.0157 50.0449 39.0622 49.5592C39.0925 49.231 39.1157 48.8888 39.1299 48.5265C39.141 48.2194 39.147 47.9053 39.146 47.5912C39.143 46.8215 39.1016 46.0056 39.0187 45.1024C38.8763 43.5289 38.6671 41.9483 38.3963 40.4069C38.3044 39.889 38.2064 39.3692 38.1003 38.8504C38.2155 38.7329 38.3286 38.5995 38.4337 38.4479C39.0702 37.5317 39.0207 36.5241 39.0046 36.194C38.9399 34.8613 38.5782 33.5306 37.9588 32.3444C37.7527 31.949 37.4455 31.4392 36.905 31.0077C35.9148 30.2159 34.7892 30.2289 34.4204 30.2339C34.2214 30.236 34.0203 30.244 33.8122 30.257C33.5192 29.7151 33.0382 29.3047 32.4754 29.0899C32.7381 28.5119 32.7846 27.8355 32.5512 27.1912C32.4229 26.837 32.2218 26.5279 31.9712 26.276C32.0005 26.2238 32.0299 26.1706 32.0562 26.1164C32.3522 25.5073 32.3916 24.8198 32.1683 24.1806C32.0632 23.8835 31.9036 23.6086 31.6995 23.3717C31.947 23.3858 32.1986 23.3627 32.4462 23.3035C32.4684 23.2975 32.4916 23.2924 32.5128 23.2854C33.4585 23.0305 34.1325 22.2939 34.3346 21.4118C34.6347 21.4389 34.9398 21.4138 35.2368 21.3335C35.8249 21.175 36.3382 20.8117 36.6827 20.3069C37.0091 19.8262 37.1475 19.2723 37.1141 18.7334C37.4718 18.5949 37.7921 18.3781 38.0538 18.0991C38.5176 17.6024 38.7601 16.9571 38.7348 16.2797C38.7166 15.796 38.5641 15.3364 38.2953 14.946C39.041 14.5315 39.5421 13.7638 39.5966 12.8877C39.6653 11.7597 38.9793 10.7572 37.972 10.3698C38.4468 9.83094 38.6974 9.10538 38.6035 8.35874Z" fill="#CADBE3"/>
<path d="M36.2644 7.11435C36.1795 6.44298 35.837 5.84386 35.2995 5.4294C34.9863 5.18755 34.6296 5.02397 34.2517 4.9467C34.567 4.20508 34.5235 3.32598 34.0557 2.5954C33.406 1.58583 32.1552 1.18642 31.0599 1.56677C30.971 1.5206 30.8821 1.47745 30.7932 1.43731C30.7033 1.25266 30.5901 1.07804 30.4547 0.915468C30.0192 0.393627 29.4059 0.0724927 28.7208 0.0102731C27.7084 -0.0800457 26.7779 0.432765 26.2919 1.24965C26.1686 1.25768 26.0453 1.27574 25.9211 1.30183C25.2714 1.44032 24.6934 1.83271 24.3267 2.38967C23.9599 2.94764 23.8295 3.63407 23.9619 4.28235C23.7851 4.34959 23.6123 4.4379 23.4486 4.54729C23.3637 4.60349 23.285 4.6647 23.2102 4.72893C23.0465 4.32651 22.7757 3.96122 22.4069 3.67722C21.8148 3.22362 21.0833 3.07007 20.4003 3.1905C20.1255 2.6235 19.6546 2.18495 19.0686 1.94811C18.4371 1.69221 17.7419 1.69522 17.1125 1.95915C17.0741 1.97521 17.0367 1.99227 16.9993 2.00933C16.7598 1.65608 16.4315 1.36305 16.0476 1.16736C15.4474 0.861277 14.7391 0.805079 14.0995 1.0098C13.0891 1.33294 12.4182 2.23011 12.3394 3.22462C12.1676 3.31594 11.9979 3.41429 11.8322 3.51866C11.4694 3.37916 11.0744 3.32397 10.6743 3.3611C9.99729 3.42432 9.38505 3.74546 8.94856 4.26629C8.26352 5.08619 8.18874 6.21317 8.67271 7.09829C8.66968 7.10532 8.66664 7.11134 8.6626 7.11836C7.97149 7.19865 7.31475 7.55791 6.87826 8.16405C6.23666 9.06022 6.26693 10.2334 6.8671 11.0884C6.50538 11.4185 6.2336 11.8561 6.11134 12.3659C5.88804 13.2942 6.21441 14.2275 6.87925 14.8296C6.77012 14.9681 6.67315 15.1196 6.59131 15.2832C6.43773 15.5933 6.35387 15.9204 6.33366 16.2456C5.84463 16.0288 5.29194 15.9826 4.76855 16.1181L4.59576 16.1623C4.54928 16.1743 4.50179 16.1884 4.45632 16.2034L4.28661 16.2586C3.37322 16.5557 2.75886 17.3555 2.66489 18.2557C2.19405 18.2547 1.73134 18.3841 1.32112 18.637C0.741153 18.9943 0.335997 19.5543 0.181407 20.2106C0.0258069 20.8699 0.1369 21.5493 0.496599 22.1263C0.545097 22.2036 0.597691 22.2769 0.652252 22.3481C0.398644 22.6291 0.209657 22.9653 0.101545 23.3376C-0.088408 23.9879 -0.00957051 24.6733 0.318806 25.2644C0.538061 25.6578 0.847197 25.9729 1.20993 26.1967C1.15739 26.3502 1.12002 26.5108 1.0988 26.6744C1.00786 27.3458 1.18775 28.0121 1.59999 28.549C1.86269 28.8902 2.19809 29.1511 2.57294 29.3197C2.45978 30.1547 2.76595 31.0267 3.4611 31.6038C3.90668 31.9761 4.46139 32.1798 5.02923 32.1959C5.25253 32.8743 5.76072 33.4563 6.47507 33.7524C6.87922 33.92 7.32384 33.9792 7.75729 33.929C7.83307 34.1016 7.92906 34.2672 8.04424 34.4227C8.44537 34.9656 9.03541 35.3209 9.70832 35.4253C9.02025 36.3264 8.56558 37.8037 9.40824 40.1259L9.48706 40.3476C9.89121 41.4927 10.6328 43.5901 12.5526 44.1742C12.7415 44.6338 12.9315 45.0844 13.1204 45.5239C14.1258 47.8501 15.2483 50.1603 16.4577 52.3932C16.5214 52.5086 16.5851 52.628 16.6538 52.7484C16.7265 52.8799 16.8023 53.0123 16.8821 53.1428C16.9842 53.3174 17.0963 53.4971 17.2226 53.6887C17.2287 53.6978 17.2347 53.7068 17.2408 53.7158C17.3398 53.8613 17.4379 53.9958 17.5369 54.1273C18.0562 54.8147 18.6109 55.3466 19.2353 55.754C19.2363 55.754 19.2363 55.755 19.2383 55.755C19.2424 55.758 19.2475 55.761 19.2525 55.7641C19.3808 55.8474 19.5152 55.9266 19.6607 56.0059C21.3187 56.8981 23.1304 56.8128 24.5227 56.6401C25.7594 56.4866 27.0244 56.2367 28.2813 55.8975C29.5403 55.5583 30.8507 55.1128 32.1764 54.5729C32.9675 54.2497 35.3773 53.2672 36.2877 50.6731C36.3867 50.3871 36.4655 50.086 36.5251 49.7609C36.611 49.2822 36.6766 48.7955 36.7231 48.3097C36.7534 47.9816 36.7767 47.6394 36.7908 47.2771C36.8019 46.97 36.807 46.6559 36.807 46.3408C36.805 45.5711 36.7636 44.7562 36.6797 43.852C36.5382 42.2785 36.3281 40.6979 36.0573 39.1564C35.9663 38.6386 35.8673 38.1188 35.7613 37.5999C35.8764 37.4825 35.9896 37.3491 36.0946 37.1975C36.7322 36.2813 36.6827 35.2737 36.6655 34.9436C36.6008 33.6109 36.2392 32.2802 35.6198 31.094C35.4137 30.6976 35.1065 30.1888 34.567 29.7573C33.5748 28.9655 32.4502 28.9795 32.0824 28.9835C31.8824 28.9855 31.6813 28.9936 31.4731 29.0066C31.1801 28.4647 30.7002 28.0553 30.1364 27.8395C30.3991 27.2605 30.4456 26.5851 30.2122 25.9398C30.0839 25.5855 29.8838 25.2775 29.6312 25.0246C29.6615 24.9724 29.6908 24.9192 29.7161 24.865C30.0131 24.2558 30.0525 23.5684 29.8282 22.9292C29.7232 22.6311 29.5635 22.3571 29.3604 22.1193C29.608 22.1334 29.8596 22.1103 30.1071 22.0511C30.1293 22.046 30.1526 22.04 30.1738 22.034C31.1195 21.7791 31.7935 21.0415 31.9955 20.1604C32.2946 20.1875 32.6007 20.1624 32.8988 20.0821C33.4869 19.9236 33.9981 19.5593 34.3437 19.0555C34.67 18.5748 34.8084 18.0208 34.7751 17.4819C35.1318 17.3435 35.4531 17.1267 35.7138 16.8477C36.1796 16.352 36.421 15.7057 36.3968 15.0283C36.3786 14.5436 36.225 14.085 35.9563 13.6936C36.7019 13.2801 37.2031 12.5114 37.2586 11.6353C37.3274 10.5073 36.6403 9.50478 35.6329 9.11641C36.1068 8.58654 36.3584 7.86199 36.2644 7.11435Z" fill="white"/>
<path d="M32.7816 35.9862C33.0766 37.1795 33.3272 38.3847 33.5394 39.593C33.8021 41.0802 33.9991 42.5765 34.1355 44.0788C34.2043 44.8375 34.2497 45.5942 34.2517 46.3488C34.2517 46.6298 34.2477 46.9098 34.2376 47.1878C34.2245 47.4838 34.2063 47.7829 34.178 48.0779C34.1386 48.4924 34.082 48.9048 34.0082 49.3183C33.9739 49.506 33.9264 49.6846 33.8688 49.8522C33.4525 51.0374 32.4391 51.7228 31.2003 52.2286C28.9492 53.1438 26.6142 53.8252 24.1994 54.1253C23.0748 54.2648 21.8674 54.3149 20.8701 53.778C20.7893 53.7339 20.7105 53.6867 20.6327 53.6365C20.1144 53.2973 19.7062 52.8217 19.3515 52.2988C19.2535 52.1523 19.1595 51.9998 19.0706 51.8472C18.9403 51.6315 18.817 51.4077 18.6978 51.1879C18.6938 51.1819 18.6917 51.1749 18.6877 51.1688C17.5157 49.0032 16.4376 46.7844 15.4615 44.5224C15.0432 43.555 14.6431 42.5785 14.2612 41.596L23.2799 37.9141L32.7816 35.9862Z" fill="#F6CD6C" stroke="#243645" stroke-width="0.3524" stroke-miterlimit="10" stroke-linecap="round" stroke-linejoin="round"/>
<path d="M32.7816 35.9862C33.0766 37.1795 33.3272 38.3847 33.5394 39.593C33.1393 39.891 32.6341 40.0476 32.1542 39.9302C31.4711 39.7646 31.0276 39.1303 30.6497 38.5403C30.4133 39.1765 30.1708 39.8198 29.7474 40.3496C29.3241 40.8795 28.6815 41.2819 28.0025 41.2458C27.0951 41.2007 26.4071 40.4209 25.9686 39.6321C25.913 40.6858 25.3077 41.7556 24.3145 42.136C23.3243 42.5153 22.0099 41.9834 21.7613 40.9558C21.5683 41.5509 21.3501 42.149 20.9661 42.6437C20.5852 43.1405 20.0123 43.5239 19.3828 43.5429C18.525 43.564 17.8127 42.9308 17.1954 42.3377C17.3762 43.2298 16.7761 44.2103 15.895 44.4622C15.7535 44.5033 15.609 44.5224 15.4625 44.5234C15.0442 43.556 14.6441 42.5795 14.2622 41.597L23.2809 37.9151L32.7816 35.9862Z" fill="#F27C88" stroke="#243645" stroke-width="0.3524" stroke-miterlimit="10" stroke-linecap="round" stroke-linejoin="round"/>
<path d="M17.4015 44.1059C17.0539 44.2946 17.1529 44.8365 17.5086 44.967C17.8279 45.0854 18.225 44.7883 18.1876 44.4511C18.1492 44.113 17.7127 43.9524 17.4187 44.0959C17.4136 44.0999 17.4075 44.1029 17.4015 44.1059Z" fill="#4CBBE6" stroke="#243645" stroke-width="0.3524" stroke-miterlimit="10" stroke-linecap="round" stroke-linejoin="round"/>
<path d="M22.3685 42.7662C22.7656 42.7531 22.9546 43.271 22.7161 43.563C22.4999 43.8249 22.0068 43.7687 21.8673 43.4586C21.7279 43.1475 22.023 42.7913 22.3494 42.7672C22.3554 42.7662 22.3625 42.7662 22.3685 42.7662Z" fill="#4CBBE6" stroke="#243645" stroke-width="0.3524" stroke-miterlimit="10" stroke-linecap="round" stroke-linejoin="round"/>
<path d="M26.8718 42.0567C27.0032 42.428 26.5636 42.7632 26.211 42.6237C25.8948 42.4983 25.8008 42.0136 26.0564 41.7888C26.313 41.563 26.7445 41.7356 26.8667 42.0376C26.8678 42.0437 26.8698 42.0507 26.8718 42.0567Z" fill="#4CBBE6" stroke="#243645" stroke-width="0.3524" stroke-miterlimit="10" stroke-linecap="round" stroke-linejoin="round"/>
<path d="M30.7164 41.016C30.7932 41.4014 31.3428 41.4706 31.5762 41.1726C31.7854 40.9056 31.6197 40.44 31.2853 40.3747C30.9498 40.3095 30.6649 40.6738 30.7144 40.9959C30.7144 41.0029 30.7154 41.01 30.7164 41.016Z" fill="#4CBBE6" stroke="#243645" stroke-width="0.3524" stroke-miterlimit="10" stroke-linecap="round" stroke-linejoin="round"/>
<path d="M34.179 48.0779C34.1396 48.4924 34.083 48.9048 34.0092 49.3183C33.9749 49.506 33.9274 49.6846 33.8698 49.8522C31.6601 50.9932 29.3362 51.8914 26.9386 52.5387C24.8794 53.0946 22.7687 53.4609 20.6347 53.6365C20.1164 53.2973 19.7082 52.8217 19.3535 52.2988C24.555 52.061 29.6494 50.6068 34.179 48.0779Z" fill="#4CBBE6" stroke="#243645" stroke-width="0.3524" stroke-miterlimit="10" stroke-linecap="round" stroke-linejoin="round"/>
<path d="M34.2527 46.3478C34.2527 46.6288 34.2487 46.9088 34.2386 47.1868C32.1602 48.4292 29.7433 49.4478 27.0274 50.2295C26.8061 50.2937 26.5859 50.354 26.3646 50.4132C23.9114 51.0755 21.442 51.507 19.0726 51.8462C18.9423 51.6305 18.8191 51.4067 18.6998 51.1869C21.338 50.8116 24.1054 50.3339 26.8294 49.5501C29.6544 48.7373 32.145 47.6625 34.2527 46.3478Z" fill="#F27C88" stroke="#243645" stroke-width="0.3524" stroke-miterlimit="10" stroke-linecap="round" stroke-linejoin="round"/>
<path d="M30.5426 36.4408C31.0841 38.5664 31.6975 40.6919 31.7561 42.8966C31.8016 44.5736 31.4812 46.2194 30.6598 47.6946C29.9465 48.9771 28.9088 50.0579 27.7054 50.8989C25.4896 52.4473 22.708 53.193 20.0002 53.1016C20.1932 53.3014 20.4013 53.484 20.6347 53.6365C20.7125 53.6867 20.7913 53.7339 20.8721 53.778C21.8694 54.3149 23.0768 54.2648 24.2013 54.1253C26.6162 53.8252 28.9512 53.1438 31.2024 52.2286C32.4411 51.7238 33.4545 51.0374 33.8708 49.8522C33.9284 49.6846 33.9759 49.506 34.0102 49.3183C34.084 48.9048 34.1406 48.4914 34.18 48.0779C34.2073 47.7829 34.2264 47.4838 34.2396 47.1878C34.2497 46.9088 34.2537 46.6298 34.2537 46.3488C34.2517 45.5952 34.2063 44.8375 34.1376 44.0788C34.0012 42.5765 33.8041 41.0812 33.5414 39.593C33.3292 38.3847 33.0786 37.1795 32.7836 35.9862L30.5426 36.4408Z" fill="#EED8BC"/>
<path d="M14.9593 30.6765C12.492 31.8356 9.35167 31.7794 7.2056 30.1045C5.94464 29.121 5.14038 27.696 4.61093 26.2158C4.11988 24.8409 3.64903 23.1018 3.80868 21.6336C3.88142 20.9552 4.21283 20.2678 4.81401 19.9376C5.18078 19.7359 5.6092 19.6847 6.02649 19.6426C6.47611 19.5984 6.94799 19.5643 7.36224 19.7429C7.73306 19.9015 8.0139 20.2116 8.2665 20.5247C8.76159 21.1378 9.19811 21.7992 9.56489 22.4956C10.0014 23.3206 10.3601 24.2207 11.0512 24.852C11.5746 25.3296 12.1818 25.4651 12.8658 25.4491C13.6216 25.431 13.666 25.5524 14.0227 26.293C14.6815 27.6659 15.0816 29.1582 15.3645 30.6484L14.9593 30.6765Z" fill="#67C7C6" stroke="#243645" stroke-width="0.3524" stroke-miterlimit="10" stroke-linecap="round" stroke-linejoin="round"/>
<path d="M5.14747 19.7981C4.57256 22.9894 5.31012 26.4195 7.50065 28.8229C7.9432 29.3097 8.44235 29.7623 9.03646 30.0513C10.5884 30.808 12.4344 30.3232 14.0904 29.8255" stroke="#243645" stroke-width="0.3524" stroke-miterlimit="10" stroke-linecap="round" stroke-linejoin="round"/>
<path d="M5.54659 19.7409C6.09321 21.3335 6.73273 22.894 7.37231 24.4515C7.66532 25.1661 7.95835 25.8806 8.29784 26.575C8.44031 26.8671 8.5949 27.1601 8.82931 27.3849C9.17991 27.7211 9.67099 27.8676 10.1489 27.9609C11.3371 28.1917 12.5748 28.1586 13.7489 27.8626" stroke="#243645" stroke-width="0.3524" stroke-miterlimit="10" stroke-linecap="round" stroke-linejoin="round"/>
<path d="M6.33064 19.5974C7.60777 20.9211 8.45242 22.596 9.14251 24.298C9.39612 24.9242 9.66892 25.6026 10.2479 25.9569C10.9743 26.4004 11.9059 26.1776 12.7557 26.2459" stroke="#243645" stroke-width="0.3524" stroke-miterlimit="10" stroke-linecap="round" stroke-linejoin="round"/>
<path d="M23.7023 13.0483C23.0334 10.8516 22.1493 8.64077 20.5306 7.00098C18.914 5.36119 16.4143 4.40682 14.2299 5.15747C12.7032 5.68232 11.524 6.96786 10.8592 8.43002C10.1944 9.89319 9.99529 11.5229 9.97104 13.1276C9.88718 18.8548 11.9251 24.3783 13.9631 29.7362C14.8158 31.9741 15.6737 34.217 16.7821 36.3415L28.3197 33.2155C26.1272 26.6684 25.7109 19.6526 23.7023 13.0483Z" fill="#67C7C6" stroke="#243645" stroke-width="0.3524" stroke-miterlimit="10" stroke-linecap="round" stroke-linejoin="round"/>
<path d="M23.7023 13.0483C23.0334 10.8515 22.1493 8.64074 20.5306 7.00095C19.9466 6.40786 19.2464 5.90709 18.4886 5.5418C19.7102 6.82834 20.662 8.4029 21.3976 9.96241C22.6545 12.6308 23.191 15.4899 23.4648 18.4072C23.6871 20.7746 23.7568 23.1088 23.191 25.438C22.6959 27.4752 21.7593 29.4241 20.3275 30.9776C19.0494 32.3625 17.4166 33.3439 15.6323 33.9149C15.99 34.7358 16.3688 35.5467 16.7831 36.3405L28.3207 33.2145C26.1272 26.6684 25.7109 19.6526 23.7023 13.0483Z" fill="#B8D2E3"/>
<path d="M18.6008 35.7534C17.8753 33.632 17.1822 31.6229 16.4558 29.5014C15.5373 26.8129 14.6168 24.1204 13.9207 21.3667C13.083 18.054 12.5738 14.65 12.5587 11.2339C12.5496 9.22683 12.7375 7.13645 13.7671 5.41036" stroke="#243645" stroke-width="0.3524" stroke-miterlimit="10" stroke-linecap="round" stroke-linejoin="round"/>
<path d="M14.8492 5.11832C15.4615 8.32464 16.0213 11.3383 16.8336 14.5014C18.5907 21.3496 21.249 27.8335 22.5201 34.786" stroke="#243645" stroke-width="0.3524" stroke-miterlimit="10" stroke-linecap="round" stroke-linejoin="round"/>
<path d="M26.303 33.6741C25.3472 27.5073 23.6952 21.6015 22.0806 15.5832C21.6815 14.099 21.2824 12.6148 20.8813 11.1295C20.5165 9.77775 20.0487 8.78826 19.4607 7.51075C19.0706 6.66276 18.0421 5.43643 17.1802 5.06512" stroke="#243645" stroke-width="0.3524" stroke-miterlimit="10" stroke-linecap="round" stroke-linejoin="round"/>
<path d="M23.1577 20.6702C23.388 20.7284 23.6305 20.7264 23.8841 20.6512C24.7803 20.3842 25.6775 20.1283 26.5556 19.8012C28.1277 19.2131 29.6655 18.4333 30.8426 17.219C31.3549 16.6912 31.7884 16.0921 32.1279 15.4418C32.8645 14.0368 33.1777 11.9113 32.9534 10.3428C32.6503 8.22128 32.0571 6.06467 30.6163 4.41384C29.225 2.81922 27.2649 3.71839 26.403 5.20263C25.2128 7.25488 26.4263 9.50381 26.0261 11.6845C25.6018 13.9937 22.6474 13.4076 21.4177 14.9581C20.3972 16.2466 21.3935 20.2236 23.1577 20.6702Z" fill="#67C7C6" stroke="#243645" stroke-width="0.3524" stroke-miterlimit="10" stroke-linecap="round" stroke-linejoin="round"/>
<path d="M27.8408 3.91205C26.3808 6.73903 28.5592 10.4632 27.0405 13.26C26.4818 14.2897 25.4825 15.0273 24.4034 15.4939C23.3233 15.9606 22.1553 16.1834 20.9994 16.4011" stroke="#243645" stroke-width="0.3524" stroke-miterlimit="10" stroke-linecap="round" stroke-linejoin="round"/>
<path d="M28.2723 3.79566C28.534 5.31202 28.8381 7.19065 28.9866 8.72205C29.1119 10.0006 29.1967 11.2961 29.0108 12.5686C28.8249 13.8411 28.3511 15.1006 27.4751 16.0469C25.9716 17.6736 23.6022 18.1142 21.4077 18.4654" stroke="#243645" stroke-width="0.3524" stroke-miterlimit="10" stroke-linecap="round" stroke-linejoin="round"/>
<path d="M28.445 3.68628C29.2503 3.37719 29.7161 5.18256 29.896 5.63516C31.2155 8.94083 32.4795 12.9379 30.1182 16.072C28.3349 18.4363 25.2582 19.6647 22.4039 20.1163" stroke="#243645" stroke-width="0.3524" stroke-miterlimit="10" stroke-linecap="round" stroke-linejoin="round"/>
<path d="M30.3526 31.6891C30.9386 31.5927 31.5247 31.5235 32.1087 31.5175C32.4007 31.5145 32.7149 31.5335 32.9645 31.7322C33.1312 31.8647 33.2484 32.0634 33.3524 32.2611C33.8021 33.1221 34.0668 34.0976 34.1143 35.066C34.1264 35.3108 34.1193 35.5738 33.992 35.7574C33.893 35.8989 33.7385 35.9712 33.5879 36.0324C32.9413 36.2973 32.2643 36.4689 31.5883 36.6395C28.6582 37.3802 25.6735 37.9542 22.7889 38.8343C19.8365 39.7355 16.9589 40.8805 13.9823 41.7034C13.7782 41.7606 13.565 41.8148 13.3518 41.7646C12.5556 41.576 12.0868 40.0375 11.8109 39.2789C11.529 38.4981 11.2451 37.3972 11.8706 36.8122C12.3717 36.3415 13.373 36.2381 13.9964 36.0123C16.9569 34.9415 19.9587 33.9912 23.0111 33.2245C24.5782 32.8301 26.1585 32.4849 27.7508 32.1959C28.6046 32.0403 29.4766 31.8336 30.3526 31.6891Z" fill="#4CBBE6" stroke="#243645" stroke-width="0.3524" stroke-miterlimit="10" stroke-linecap="round" stroke-linejoin="round"/>
<path d="M33.3525 32.2611C33.2484 32.0634 33.1312 31.8647 32.9645 31.7322C32.7149 31.5335 32.4007 31.5145 32.1087 31.5175C31.8814 31.5205 31.655 31.5345 31.4277 31.5536C31.1802 32.7809 30.6113 33.8908 29.6969 34.787C28.8209 35.645 27.7377 36.2682 26.6354 36.7941C25.1996 37.4785 23.7154 38.0706 22.1937 38.5322C18.9908 39.5036 15.6696 39.9934 12.4313 40.8253C12.6749 41.289 12.976 41.6773 13.3508 41.7666C13.564 41.8168 13.7772 41.7626 13.9813 41.7054C16.9579 40.8825 19.8355 39.7375 22.7878 38.8363C25.6715 37.9562 28.6572 37.3822 31.5873 36.6415C32.2633 36.4709 32.9412 36.2993 33.5869 36.0344C33.7374 35.9722 33.893 35.9009 33.9911 35.7594C34.1184 35.5758 34.1254 35.3129 34.1133 35.068C34.0668 34.0976 33.8021 33.1231 33.3525 32.2611Z" fill="#CDE0E9"/>
<path d="M20.0851 6.5554C20.3558 6.27943 20.6105 5.9884 20.8469 5.68433" stroke="#243645" stroke-width="0.3524" stroke-miterlimit="10" stroke-linecap="round" stroke-linejoin="round"/>
<path d="M22.5898 9.79482C22.9253 9.56501 23.2809 9.36329 23.6497 9.19068" stroke="#243645" stroke-width="0.3524" stroke-miterlimit="10" stroke-linecap="round" stroke-linejoin="round"/>
<path d="M25.7351 21.6175C25.9685 21.5101 26.2019 21.4018 26.4353 21.2944" stroke="#243645" stroke-width="0.3524" stroke-miterlimit="10" stroke-linecap="round" stroke-linejoin="round"/>
<path d="M26.1747 24.1926C26.5889 24.0491 27.0022 23.9066 27.4164 23.7631" stroke="#243645" stroke-width="0.3524" stroke-miterlimit="10" stroke-linecap="round" stroke-linejoin="round"/>
<path d="M26.8102 27.1551C27.1436 27.0367 27.476 26.9182 27.8085 26.7998" stroke="#243645" stroke-width="0.3524" stroke-miterlimit="10" stroke-linecap="round" stroke-linejoin="round"/>
<path d="M27.6357 30.6534C28.1571 30.4798 28.6875 30.3303 29.223 30.2069" stroke="#243645" stroke-width="0.3524" stroke-miterlimit="10" stroke-linecap="round" stroke-linejoin="round"/>
<path d="M15.5161 33.7765C15.1564 33.9351 14.8118 34.1277 14.4885 34.3515" stroke="#243645" stroke-width="0.3524" stroke-miterlimit="10" stroke-linecap="round" stroke-linejoin="round"/>
<path d="M14.6289 31.8246C14.2026 32.0213 13.7752 32.2179 13.3478 32.4136" stroke="#243645" stroke-width="0.3524" stroke-miterlimit="10" stroke-linecap="round" stroke-linejoin="round"/>
<path d="M11.2937 22.3491C10.8936 22.4564 10.4672 22.4656 10.062 22.3747" stroke="#243645" stroke-width="0.3524" stroke-miterlimit="10" stroke-linecap="round" stroke-linejoin="round"/>
<path d="M10.7218 19.7854C10.3176 19.7481 9.91248 19.7119 9.50933 19.6747" stroke="#243645" stroke-width="0.3524" stroke-miterlimit="10" stroke-linecap="round" stroke-linejoin="round"/>
<path d="M10.0529 16.7082C9.64671 16.6861 9.24459 16.5818 8.87883 16.4021" stroke="#243645" stroke-width="0.3524" stroke-miterlimit="10" stroke-linecap="round" stroke-linejoin="round"/>
<path d="M9.92764 13.0425C9.48205 13.0868 9.02736 13.0566 8.59188 12.953" stroke="#243645" stroke-width="0.3524" stroke-miterlimit="10" stroke-linecap="round" stroke-linejoin="round"/>
<path d="M10.2873 10.0276C9.81545 10.0467 9.3396 9.9052 8.95666 9.63424" stroke="#243645" stroke-width="0.3524" stroke-miterlimit="10" stroke-linecap="round" stroke-linejoin="round"/>
<path d="M11.81 6.77616C11.5382 6.45201 11.2381 6.15397 10.9107 5.88502" stroke="#243645" stroke-width="0.3524" stroke-miterlimit="10" stroke-linecap="round" stroke-linejoin="round"/>
<path d="M17.9147 5.21463C17.9187 4.89952 17.9821 4.58642 18.1018 4.29439" stroke="#243645" stroke-width="0.3524" stroke-miterlimit="10" stroke-linecap="round" stroke-linejoin="round"/>
<path d="M15.216 4.81123C15.1361 4.34157 15.024 3.87693 14.8815 3.42233" stroke="#243645" stroke-width="0.3524" stroke-miterlimit="10" stroke-linecap="round" stroke-linejoin="round"/>
<path d="M25.3401 12.9148C25.1279 12.6399 24.9168 12.3649 24.7046 12.0909" stroke="#243645" stroke-width="0.3524" stroke-miterlimit="10" stroke-linecap="round" stroke-linejoin="round"/>
<path d="M25.7745 7.18866C25.4169 7.14651 25.0804 6.94279 24.8784 6.64574" stroke="#243645" stroke-width="0.3524" stroke-miterlimit="10" stroke-linecap="round" stroke-linejoin="round"/>
<path d="M26.791 4.60146C26.6435 4.34556 26.5313 4.06758 26.4616 3.77956" stroke="#243645" stroke-width="0.3524" stroke-miterlimit="10" stroke-linecap="round" stroke-linejoin="round"/>
<path d="M28.6121 3.45947C28.5035 3.16543 28.4622 2.84631 28.4904 2.53521" stroke="#243645" stroke-width="0.3524" stroke-miterlimit="10" stroke-linecap="round" stroke-linejoin="round"/>
<path d="M30.8972 4.59342C31.2327 4.38167 31.5681 4.16993 31.9026 3.95818" stroke="#243645" stroke-width="0.3524" stroke-miterlimit="10" stroke-linecap="round" stroke-linejoin="round"/>
<path d="M32.4239 7.7807C32.8412 7.60407 33.2828 7.48565 33.7324 7.42946" stroke="#243645" stroke-width="0.3524" stroke-miterlimit="10" stroke-linecap="round" stroke-linejoin="round"/>
<path d="M33.0231 11.4226C33.5232 11.4277 34.2093 11.4532 34.7084 11.4839" stroke="#243645" stroke-width="0.3524" stroke-miterlimit="10" stroke-linecap="round" stroke-linejoin="round"/>
<path d="M32.628 14.4242C33.0787 14.5637 33.497 14.8035 33.8435 15.1226" stroke="#243645" stroke-width="0.3524" stroke-miterlimit="10" stroke-linecap="round" stroke-linejoin="round"/>
<path d="M31.3317 16.7443C31.5681 17.0956 31.8743 17.4006 32.2269 17.6385" stroke="#243645" stroke-width="0.3524" stroke-miterlimit="10" stroke-linecap="round" stroke-linejoin="round"/>
<path d="M29.0785 18.6942C29.2786 18.9612 29.4241 19.2672 29.5029 19.5904" stroke="#243645" stroke-width="0.3524" stroke-miterlimit="10" stroke-linecap="round" stroke-linejoin="round"/>
<path d="M26.8759 19.8644C26.9574 20.1614 27.0378 20.4585 27.1193 20.7565" stroke="#243645" stroke-width="0.3524" stroke-miterlimit="10" stroke-linecap="round" stroke-linejoin="round"/>
<path d="M5.48258 19.5422C5.38603 19.1759 5.29048 18.8106 5.19494 18.4443" stroke="#243645" stroke-width="0.3524" stroke-miterlimit="10" stroke-linecap="round" stroke-linejoin="round"/>
<path d="M7.19352 19.5542C7.46026 19.2492 7.72496 18.9441 7.9917 18.638" stroke="#243645" stroke-width="0.3524" stroke-miterlimit="10" stroke-linecap="round" stroke-linejoin="round"/>
<path d="M3.84357 21.0666C3.45053 20.9753 3.05746 20.8829 2.66341 20.7916" stroke="#243645" stroke-width="0.3524" stroke-miterlimit="10" stroke-linecap="round" stroke-linejoin="round"/>
<path d="M3.82892 23.5825C3.38232 23.6668 2.94986 23.8223 2.55076 24.0411" stroke="#243645" stroke-width="0.3524" stroke-miterlimit="10" stroke-linecap="round" stroke-linejoin="round"/>
<path d="M4.56649 26.4466C4.23407 26.5991 3.91684 26.7888 3.62585 27.0096" stroke="#243645" stroke-width="0.3524" stroke-miterlimit="10" stroke-linecap="round" stroke-linejoin="round"/>
<path d="M5.89416 28.9113C5.60215 29.131 5.33435 29.3839 5.09893 29.6639" stroke="#243645" stroke-width="0.3524" stroke-miterlimit="10" stroke-linecap="round" stroke-linejoin="round"/>
<path d="M7.80072 30.5822C7.68453 30.8592 7.56836 31.1362 7.45217 31.4121" stroke="#243645" stroke-width="0.3524" stroke-miterlimit="10" stroke-linecap="round" stroke-linejoin="round"/>
<path d="M10.1607 31.5145C10.1878 31.9831 10.1668 32.4558 10.0964 32.9194" stroke="#243645" stroke-width="0.3524" stroke-miterlimit="10" stroke-linecap="round" stroke-linejoin="round"/>
<path d="M15.795 10.0296C16.1324 9.82994 16.4699 9.63124 16.8073 9.43153" stroke="#243645" stroke-width="0.3524" stroke-miterlimit="10" stroke-linecap="round" stroke-linejoin="round"/>
<path d="M17.065 15.0885C17.5631 14.9139 18.0603 14.7403 18.5584 14.5657" stroke="#243645" stroke-width="0.3524" stroke-miterlimit="10" stroke-linecap="round" stroke-linejoin="round"/>
<path d="M19.3 22.3933C19.6668 22.1735 20.0345 21.9537 20.4013 21.7349" stroke="#243645" stroke-width="0.3524" stroke-miterlimit="10" stroke-linecap="round" stroke-linejoin="round"/>
<path d="M20.7681 27.3367C21.1541 27.2063 21.5178 27.0086 21.8371 26.7557" stroke="#243645" stroke-width="0.3524" stroke-miterlimit="10" stroke-linecap="round" stroke-linejoin="round"/>
<path d="M17.455 32.1096C17.7773 31.942 18.0764 31.7292 18.3391 31.4783" stroke="#243645" stroke-width="0.3524" stroke-miterlimit="10" stroke-linecap="round" stroke-linejoin="round"/>
<path d="M15.8455 27.0537C16.3295 26.7175 16.772 26.3211 17.159 25.8766" stroke="#243645" stroke-width="0.3524" stroke-miterlimit="10" stroke-linecap="round" stroke-linejoin="round"/>
<path d="M13.4802 19.7189C13.8611 19.4048 14.2793 19.1358 14.7239 18.921" stroke="#243645" stroke-width="0.3524" stroke-miterlimit="10" stroke-linecap="round" stroke-linejoin="round"/>
<path d="M12.8345 13.4748C13.1871 13.2128 13.5387 12.9519 13.8914 12.69" stroke="#243645" stroke-width="0.3524" stroke-miterlimit="10" stroke-linecap="round" stroke-linejoin="round"/>
<path d="M19.3606 10.8435C19.9153 10.8415 20.469 10.8818 21.0166 10.9662" stroke="#243645" stroke-width="0.3524" stroke-miterlimit="10" stroke-linecap="round" stroke-linejoin="round"/>
<path d="M23.1152 23.736C23.4972 23.9227 23.9255 24.015 24.3509 24.005" stroke="#243645" stroke-width="0.3524" stroke-miterlimit="10" stroke-linecap="round" stroke-linejoin="round"/>
<path d="M24.2984 29.7211C24.7126 29.8315 25.1269 29.9429 25.5401 30.0533" stroke="#243645" stroke-width="0.3524" stroke-miterlimit="10" stroke-linecap="round" stroke-linejoin="round"/>
</svg>
