<svg width="68" height="82" viewBox="0 0 68 82" fill="none" xmlns="http://www.w3.org/2000/svg">
<path d="M67.4653 5.70233C67.2834 5.12113 66.8023 4.06767 65.5938 3.40655L65.4139 3.29551C65.1997 3.16266 64.9729 3.05369 64.7382 2.96858C64.4556 2.11339 63.8944 1.36822 63.1229 0.889763C62.546 0.53274 61.9045 0.356328 61.267 0.356328C60.4359 0.356328 59.6096 0.654207 58.9349 1.23956C57.8994 2.13938 56.9529 2.7299 55.9516 3.0973C54.4409 3.65255 52.7435 3.90162 51.133 4.08739C50.7663 4.12995 50.3977 4.17044 50.0252 4.21092C46.4943 4.59804 42.5714 5.02875 39.0855 7.19476C39.0297 7.17296 38.975 7.15221 38.9192 7.13249C38.5467 7.00587 38.1683 6.94461 37.7948 6.94461C36.5305 6.94461 35.3199 7.63893 34.6394 8.83662L34.611 8.88958C34.4086 9.24349 34.1984 9.61297 33.9882 10.0001C33.7682 9.59429 33.5491 9.20612 33.337 8.83561C32.6574 7.63792 31.4478 6.94461 30.1835 6.94461C29.809 6.94461 29.4306 7.00587 29.0591 7.13249C29.0033 7.15221 28.9466 7.17296 28.8928 7.19476C26.6927 5.86319 23.95 4.97997 20.6294 4.52435C19.7855 4.40811 18.9358 4.31782 18.1164 4.22961C15.1732 3.9141 12.3923 3.61622 10.294 2.24625C9.92729 2.0065 9.53227 1.66197 9.07368 1.26654L9.0453 1.24159C8.37257 0.657272 7.54634 0.357341 6.71325 0.357341C6.07572 0.357341 5.43526 0.532779 4.85933 0.89084C4.08393 1.37033 3.5207 2.11966 3.23811 2.98005C3.0494 3.04647 2.86362 3.13049 2.68663 3.22805C1.35584 3.89124 0.786748 4.92497 0.544252 5.67845C0.209842 6.72357 0.295907 7.8901 0.782855 8.87399C1.17984 9.68041 1.64429 10.463 2.1635 11.2071C2.19773 11.6181 2.24369 12.0281 2.30334 12.4328C2.45978 13.5184 2.71207 14.6009 3.05039 15.6502C3.33884 16.5458 3.68791 17.4125 4.09468 18.2469C4.07023 18.6143 4.09271 18.9911 4.16898 19.3616C4.61779 21.5556 5.29153 23.4155 6.22924 25.048C6.78464 26.0153 7.43584 26.9296 8.16528 27.7703C7.72038 29.9633 7.59033 32.2092 7.77807 34.4645C7.95799 36.6077 8.46352 38.5194 8.93775 40.1083C9.10789 40.6771 9.39243 41.1815 9.75911 41.5977C8.74121 42.9012 7.99222 44.515 7.58936 46.3292C7.00072 48.9851 7.06623 51.9523 7.77807 54.9102C8.11248 56.2968 8.58573 57.6419 9.18904 58.9081C9.68576 59.948 10.2666 60.8655 10.778 61.675C10.91 61.8826 11.04 62.0891 11.1691 62.2998C11.5338 62.8862 11.7157 63.2733 11.8047 63.5182C10.4377 64.2364 9.62514 65.7818 9.77474 67.4019C9.92728 69.0583 11.0547 70.4293 12.5781 70.8175C13.2156 70.9804 13.8502 71.1299 14.5621 71.1828C14.4516 71.3406 14.3313 71.5035 14.1974 71.6706C13.2939 72.8092 13.0778 74.3919 13.642 75.7556C13.9842 76.5859 14.5777 77.246 15.3072 77.6497C15.9701 79.3767 17.2951 80.7269 19.0698 81.2728C19.5743 81.4285 20.0896 81.5074 20.5991 81.5074C21.2346 81.5074 21.9778 81.3933 22.7434 81.0331C23.5051 81.4068 24.3362 81.6092 25.1957 81.6092C25.2915 81.6092 25.3864 81.6071 25.4862 81.6009C26.5862 81.5427 27.6256 81.1659 28.5261 80.538C28.8664 80.6096 29.1813 80.6377 29.4639 80.6377C30.4896 80.6377 31.4752 80.2859 32.3132 79.6196C33.0945 78.9979 33.6782 78.1749 34.0488 77.19C34.2815 77.1401 34.5181 77.0841 34.7557 77.0228C35.4206 77.1941 36.066 77.3166 36.7074 77.3923C37.0301 78.1635 37.4907 78.8349 38.0803 79.3798C38.9701 80.2018 40.0496 80.6367 41.1985 80.6367C41.483 80.6367 41.8018 80.6107 42.144 80.537C43.0456 81.166 44.086 81.5438 45.188 81.6009C45.2857 81.6071 45.3825 81.6092 45.4784 81.6092C46.3379 81.6092 47.167 81.4078 47.9288 81.0331C48.6944 81.3933 49.4336 81.5074 50.0692 81.5074C50.4818 81.5074 50.9003 81.4566 51.311 81.3549C53.7653 80.7488 55.453 78.5807 55.7796 75.957C55.8118 75.8916 55.8412 75.8252 55.8695 75.7577C56.4308 74.395 56.2156 72.8102 55.3141 71.6717C55.1801 71.5046 55.0579 71.3416 54.9474 71.1797C55.6749 71.1268 56.3242 70.9752 56.9334 70.8185C58.4578 70.4304 59.5842 69.0593 59.7367 67.4019C59.8873 65.7766 59.0679 64.2261 57.6912 63.511C57.876 62.9942 58.3746 62.223 58.7628 61.6262C59.0435 61.1924 59.3339 60.743 59.6125 60.2604C61.0049 57.8495 61.8987 55.0711 62.1969 52.2253C62.5411 48.9664 62.1549 46.104 61.0529 43.717C60.4642 42.4394 59.6663 41.3371 58.7208 40.4612C58.7667 40.3481 58.8068 40.2308 58.843 40.1125C59.3036 38.5681 59.8003 36.7104 59.9871 34.6409C60.1973 32.3306 60.0711 30.0256 59.6145 27.7755C60.3097 26.9753 60.9345 26.1076 61.4723 25.1902C62.4521 23.5192 63.1532 21.6148 63.6118 19.3678C63.6881 18.9952 63.7115 18.6184 63.6861 18.25C64.4771 16.6309 65.0443 14.9008 65.3689 13.1251C65.6818 12.5408 65.9018 11.8278 65.98 10.9778C66.2685 10.5512 66.5374 10.1111 66.7877 9.66068C66.9304 9.40122 67.0683 9.13969 67.1945 8.88438C67.8682 7.51337 67.653 6.30325 67.4653 5.70233Z" fill="#B6E1E6" stroke="#3E6060" stroke-width="0.7087" stroke-miterlimit="10" stroke-linecap="round" stroke-linejoin="round" stroke-dasharray="4.25 2.83"/>
<path d="M51.0304 64.0631C49.4238 67.131 49.7983 71.2336 51.9299 73.9175C49.2507 74.0462 46.5784 72.285 45.5018 69.6789C43.204 72.6327 39.2165 73.9694 35.7355 72.9533C42.0551 64.8809 45.5537 54.3788 45.4197 43.885C45.4138 43.4439 45.4275 42.9427 45.7384 42.6521C46.2371 42.1871 46.9852 42.6313 47.608 42.8763C49.5333 43.6329 51.6395 42.2026 53.6792 42.4372C55.1459 42.6064 56.4386 43.6578 57.2101 44.9924C57.9816 46.3261 58.2837 47.914 58.3443 49.4781C58.4587 52.4754 57.7176 55.5028 56.242 58.0601C55.4021 59.5142 54.3187 60.8499 53.8513 62.4814C53.3839 64.1129 53.7789 66.2146 55.2378 66.9276C53.4289 67.3894 51.3892 66.0018 51.0304 64.0631Z" fill="#683F23"/>
<path d="M51.6503 74.2165C49.1011 74.2165 46.6067 72.5881 45.4343 70.2072C43.6186 72.3276 40.9179 73.5823 38.1214 73.5823C37.2795 73.5823 36.4503 73.4661 35.6612 73.2357L35.2505 73.1153L35.5213 72.7676C41.7685 64.7885 45.275 54.2626 45.143 43.8903C45.1371 43.4928 45.1293 42.8306 45.5556 42.4331C45.7522 42.2505 45.9927 42.1571 46.2733 42.1571C46.6556 42.1571 47.0428 42.3231 47.4154 42.4829C47.5132 42.5244 47.61 42.566 47.7019 42.6023C48.0529 42.7404 48.4294 42.8067 48.8577 42.8067C49.5284 42.8067 50.2139 42.6449 50.9394 42.4736C51.6767 42.2992 52.4384 42.1187 53.202 42.1187C53.3761 42.1187 53.5462 42.128 53.7085 42.1457C55.1694 42.3148 56.5657 43.3215 57.4438 44.8389C58.1507 46.0635 58.5457 47.6203 58.6181 49.4667C58.7345 52.5097 57.9747 55.6149 56.4758 58.2127C56.2333 58.632 55.9673 59.0461 55.7121 59.4457C55.055 60.4711 54.4341 61.4405 54.1134 62.5655C53.6821 64.0704 54.0273 66.0132 55.3532 66.6619L56.0748 67.0148L55.3014 67.211C55.0491 67.2753 54.7861 67.3085 54.5201 67.3085C52.9909 67.3085 51.5545 66.2706 50.9717 64.8425C49.7876 67.706 50.2383 71.3354 52.1382 73.7287L52.4971 74.1822L51.9397 74.2092C51.8458 74.2144 51.7481 74.2165 51.6503 74.2165ZM45.5742 69.1268L45.7541 69.5617C46.7075 71.8657 48.9838 73.5014 51.3628 73.6249C49.461 70.8435 49.2087 66.9421 50.7898 63.9209L51.1545 63.2235L51.2992 64.006C51.574 65.484 52.982 66.6889 54.4566 66.7231C53.4103 65.7123 53.1659 63.8659 53.5873 62.3953C53.9334 61.1862 54.6072 60.1338 55.2564 59.1177C55.5106 58.7233 55.7698 58.3155 56.0074 57.9065C57.4496 55.4074 58.183 52.4194 58.0676 49.4905C58.0011 47.7449 57.6344 46.2836 56.9754 45.144C56.1863 43.7813 54.9435 42.8773 53.6509 42.7279C53.5081 42.7113 53.3565 42.704 53.204 42.704C52.501 42.704 51.7696 42.8763 51.0597 43.0444C50.3381 43.2146 49.591 43.3921 48.8596 43.3921C48.3668 43.3921 47.9258 43.3132 47.5132 43.1513C47.4154 43.1129 47.3147 43.0693 47.211 43.0257C46.7124 42.8119 46.1951 42.6158 45.9203 42.8732C45.7042 43.0745 45.6915 43.4824 45.6954 43.883C45.8275 54.2377 42.3797 64.7429 36.2264 72.7832C36.8414 72.9274 37.477 73.0001 38.1223 73.0001C40.9032 73.0001 43.5824 71.6882 45.2896 69.4942L45.5742 69.1268Z" fill="#202B2B"/>
<path d="M18.4841 64.0631C20.0906 67.131 19.7161 71.2336 17.5845 73.9175C20.2637 74.0462 22.936 72.285 24.0126 69.6789C26.3104 72.6327 30.2979 73.9694 33.7769 72.9533C27.4593 64.8809 23.9608 54.3788 24.0947 43.885C24.1006 43.4439 24.0869 42.9427 23.776 42.6521C23.2773 42.1871 22.5293 42.6313 21.9064 42.8763C19.9811 43.6329 17.8749 42.2026 15.8352 42.4372C14.3685 42.6064 13.0758 43.6578 12.3043 44.9924C11.5328 46.3261 11.2307 47.914 11.1701 49.4781C11.0557 52.4754 11.7968 55.5028 13.2724 58.0601C14.1123 59.5142 15.1957 60.8499 15.6631 62.4814C16.1305 64.1129 15.7355 66.2146 14.2746 66.9276C16.0845 67.3894 18.1242 66.0018 18.4841 64.0631Z" fill="#683F23"/>
<path d="M17.8612 74.2165C17.7654 74.2165 17.6686 74.2144 17.5727 74.2092L17.0134 74.1822L17.3742 73.7286C19.2741 71.3353 19.7249 67.7059 18.5408 64.8425C17.958 66.2716 16.5226 67.3085 14.9923 67.3085C14.7273 67.3085 14.4633 67.2753 14.211 67.2109L13.4376 67.0148L14.1592 66.6619C15.4841 66.0132 15.8303 64.0704 15.3991 62.5655C15.0764 61.4404 14.4555 60.4711 13.8004 59.4446C13.5442 59.045 13.2792 58.632 13.0367 58.2117C11.5377 55.6149 10.777 52.5086 10.8943 49.4656C10.9667 47.6193 11.3607 46.0625 12.0687 44.8378C12.9467 43.3205 14.3431 42.3137 15.8039 42.1446C15.9662 42.1259 16.1364 42.1176 16.3104 42.1176C17.0721 42.1176 17.8368 42.2982 18.573 42.4726C19.2986 42.6438 19.984 42.8057 20.6548 42.8057C21.0811 42.8057 21.4586 42.7393 21.8106 42.6012C21.9025 42.5649 21.9993 42.5234 22.0971 42.4819C22.4696 42.322 22.8568 42.156 23.2372 42.156C23.5178 42.156 23.7603 42.2494 23.9568 42.4321C24.3831 42.8296 24.3753 43.4917 24.3695 43.8892C24.2375 54.2616 27.7439 64.7875 33.9891 72.7665L34.2619 73.1143L33.8513 73.2346C33.0602 73.465 32.234 73.5813 31.3891 73.5813C28.5955 73.5813 25.8949 72.3276 24.0781 70.2062C22.9067 72.5881 20.4103 74.2165 17.8612 74.2165ZM18.3599 63.2234L18.7246 63.9209C20.3057 66.941 20.0534 70.8434 18.1496 73.6249C20.5296 73.5014 22.8079 71.8657 23.7603 69.5616L23.9402 69.1268L24.2248 69.4932C25.932 71.6882 28.6112 72.999 31.3901 72.999C32.0374 72.999 32.674 72.9264 33.288 72.7821C27.1347 64.7419 23.688 54.2377 23.817 43.8819C23.8229 43.4813 23.8092 43.0745 23.5931 42.8721C23.3183 42.6147 22.8001 42.8109 22.3024 43.0247C22.1997 43.0683 22.098 43.1118 22.0003 43.1502C21.5876 43.3121 21.1466 43.391 20.6538 43.391C19.9224 43.391 19.1754 43.2136 18.4518 43.0434C17.7429 42.8752 17.0115 42.703 16.3094 42.703C16.1569 42.703 16.0053 42.7113 15.8626 42.7268C14.5699 42.8773 13.3261 43.7803 12.538 45.143C11.879 46.2825 11.5123 47.7438 11.4438 49.4895C11.3314 52.4183 12.0648 55.4074 13.506 57.9055C13.7407 58.3134 14.0028 58.7212 14.255 59.1156C14.9063 60.1327 15.579 61.184 15.9261 62.3942C16.3485 63.8648 16.1041 65.7112 15.0568 66.7221C16.5314 66.6878 17.9384 65.4828 18.2142 64.0049L18.3599 63.2234Z" fill="#202B2B"/>
<path d="M23.7486 65.2224C23.9187 67.0189 24.5416 68.7656 25.534 70.2311C25.3258 69.3177 25.4901 68.3152 25.975 67.5285C26.2136 69.8149 27.8368 71.8709 29.9166 72.5206C28.6366 69.4018 28.8087 65.8648 28.4039 62.4897C27.6529 56.2034 24.8271 50.3167 20.9403 45.5062C20.4954 44.9551 20.027 44.4071 19.4413 44.0345C18.5535 43.4699 17.4495 43.3537 16.4434 43.6059C15.1048 43.9411 13.9226 44.9271 13.2978 46.2306C12.6729 47.5331 12.6201 49.1273 13.155 50.4755C13.2391 49.2404 13.9079 48.0655 14.8985 47.4127C13.7202 49.1843 14.0771 51.6233 14.7684 53.6637C15.4597 55.7062 16.4493 57.7238 16.3935 59.893C17.1572 58.3569 17.4515 56.5625 17.2247 54.8438C18.8674 57.7488 19.9116 61.0336 20.2646 64.4014C20.4494 63.2992 20.6352 62.1991 20.8201 61.0979C21.9524 63.5618 22.0648 66.5311 21.1261 69.0842C22.4794 68.2924 23.4679 66.8352 23.7486 65.2224Z" fill="#827973"/>
<path d="M45.9937 65.2224C45.8216 67.0189 45.1987 68.7656 44.2082 70.2311C44.4164 69.3177 44.2522 68.3152 43.7652 67.5285C43.5266 69.8149 41.9035 71.8709 39.8237 72.5206C41.1037 69.4018 40.9335 65.8648 41.3364 62.4897C42.0893 56.2034 44.9151 50.3167 48.8 45.5062C49.2449 44.9551 49.7152 44.4071 50.3009 44.0345C51.1868 43.4699 52.2927 43.3537 53.2969 43.6059C54.6375 43.9411 55.8196 44.9271 56.4425 46.2306C57.0673 47.5331 57.1201 49.1273 56.5872 50.4755C56.5031 49.2404 55.8343 48.0655 54.8418 47.4127C56.022 49.1843 55.6651 51.6233 54.9738 53.6637C54.2825 55.7062 53.293 57.7238 53.3468 59.893C52.585 58.3569 52.2888 56.5625 52.5156 54.8438C50.8729 57.7488 49.8306 61.0336 49.4776 64.4014C49.2928 63.2992 49.107 62.1991 48.9222 61.0979C47.7899 63.5618 47.6755 66.5311 48.6161 69.0842C47.2638 68.2924 46.2743 66.8352 45.9937 65.2224Z" fill="#827973"/>
<path d="M45.1459 43.9442C44.2483 40.4352 42.0942 37.4192 39.3808 36.4519C38.9818 35.7773 38.4773 35.6216 37.8319 35.5635C37.1846 35.5054 36.5393 35.6642 35.8959 35.7524C35.6993 35.7794 35.5008 35.7981 35.3023 35.8043L35.3043 35.5293C35.0902 35.6456 34.8692 35.7171 34.6413 35.7586C34.4164 35.7171 34.1925 35.6466 33.9803 35.5293V35.8043C33.7819 35.7981 33.5834 35.7804 33.3868 35.7524C32.7434 35.6642 32.0981 35.5064 31.4517 35.5635C30.8044 35.6227 30.2999 35.7773 29.9029 36.4519C27.1895 37.4192 25.0344 40.4352 24.1358 43.9442C23.2382 47.4543 23.509 51.3722 24.5445 54.8158C25.582 58.2583 27.3401 61.2599 29.3612 63.8358C30.69 65.5317 32.2262 67.1144 34.0459 67.5534C34.2385 67.6001 34.4448 67.6261 34.6413 67.6095C34.8398 67.6271 35.0442 67.6001 35.2388 67.5534C37.0585 67.1144 38.5946 65.5317 39.9235 63.8358C41.9436 61.2599 43.7007 58.2583 44.7382 54.8158C45.7756 51.3732 46.0455 47.4543 45.1459 43.9442Z" fill="#80CECC"/>
<path d="M34.7645 67.9063C34.7225 67.9063 34.6824 67.9053 34.6404 67.9021C34.436 67.9167 34.2179 67.8949 33.9833 67.8389C31.968 67.3521 30.3409 65.5442 29.148 64.0216C26.8639 61.1084 25.227 58.0415 24.2815 54.904C23.1531 51.1553 23.0074 47.2353 23.8688 43.8675C24.8271 40.127 27.0643 37.2023 29.722 36.207C30.163 35.521 30.7242 35.3342 31.4273 35.2719C31.9445 35.2252 32.4628 35.3083 32.9585 35.3892C33.113 35.4152 33.2656 35.44 33.421 35.4608C33.5169 35.4743 33.6098 35.4847 33.7036 35.493L33.7017 35.0477L34.1045 35.2667C34.2668 35.356 34.4428 35.4183 34.6394 35.4598C34.8379 35.4193 35.0139 35.356 35.1762 35.2667L35.5791 35.0477L35.5771 35.493C35.669 35.4847 35.7619 35.4733 35.8577 35.4608C36.0122 35.439 36.1667 35.4152 36.3222 35.3892C36.8169 35.3083 37.3342 35.2252 37.8534 35.2719C38.5565 35.3352 39.1177 35.521 39.5568 36.207C42.2154 37.2023 44.4536 40.126 45.4099 43.8675C46.2733 47.2353 46.1257 51.1543 44.9973 54.904C44.0537 58.0415 42.4168 61.1094 40.1327 64.0216C38.9388 65.5442 37.3098 67.3521 35.2975 67.8389C35.1097 67.8835 34.9308 67.9063 34.7645 67.9063ZM34.6404 67.3168L34.6628 67.3178C34.8212 67.3324 34.9875 67.3147 35.1762 67.2691C37.0291 66.8218 38.5721 65.0989 39.7103 63.6501C41.9485 60.7949 43.5531 57.7924 44.4751 54.7265C45.5712 51.0837 45.715 47.282 44.8799 44.0221C43.9598 40.4249 41.8184 37.631 39.2918 36.7301L39.1979 36.6969L39.1441 36.6077C38.8136 36.0483 38.4186 35.9112 37.8055 35.8552C37.3469 35.8137 36.8903 35.8895 36.4053 35.9683C36.2469 35.9943 36.0885 36.0212 35.9301 36.042C35.714 36.0721 35.5037 36.0897 35.3072 36.096L35.0246 36.1043V35.9621C34.9161 35.9964 34.8046 36.0254 34.6863 36.0462L34.6384 36.0555L34.5924 36.0462C34.4741 36.0244 34.3617 35.9964 34.2541 35.9621V36.1043L33.9696 36.096C33.773 36.0897 33.5648 36.0731 33.3487 36.042C33.1903 36.0202 33.0319 35.9943 32.8735 35.9683C32.3865 35.8895 31.9318 35.8137 31.4713 35.8552C30.8582 35.9112 30.4632 36.0483 30.1327 36.6077L30.0808 36.6969L29.987 36.7301C27.4603 37.631 25.3199 40.4259 24.3969 44.0221C23.5618 47.2831 23.7075 51.0847 24.8036 54.7265C25.7257 57.7924 27.3283 60.7949 29.5685 63.6501C30.7047 65.0989 32.2496 66.8228 34.1026 67.2691C34.2893 67.3147 34.4575 67.3324 34.6159 67.3178L34.6404 67.3168Z" fill="#202B2B"/>
<path d="M48.7579 38.6595C45.4334 33.7162 40.1278 33.0519 34.6795 33.2263C29.2331 33.0519 23.9275 33.7172 20.603 38.6595C18.7813 41.3662 17.916 44.8887 18.2406 48.2815C18.311 47.4294 18.6914 46.6147 19.2741 46.0729C19.4267 52.0064 21.2376 57.8692 24.3773 62.6018C25.8303 64.7927 27.5914 66.7709 29.7249 68.0506C31.2454 68.9649 32.9712 69.4974 34.6805 69.4735C36.3916 69.4963 38.1184 68.9649 39.6379 68.0506C41.7715 66.7709 43.5316 64.7927 44.9856 62.6018C48.1253 57.8692 49.9362 52.0064 50.0887 46.0729C50.6715 46.6137 51.0509 47.4294 51.1223 48.2815C51.4449 44.8887 50.5796 41.3673 48.7579 38.6595Z" fill="#80CECC"/>
<path d="M34.7831 69.7671L34.6765 69.7661L34.5748 69.7671C32.9038 69.7671 31.1789 69.2617 29.5861 68.3048C27.6402 67.1362 25.8108 65.2742 24.1485 62.7699C21.1085 58.1867 19.2996 52.5449 19.0228 46.8076C18.7383 47.2425 18.5564 47.7698 18.5134 48.3063L17.9648 48.3105C17.6324 44.8399 18.5114 41.2603 20.3751 38.4893C23.7036 33.5428 29.0013 32.9097 33.2431 32.9097C33.7036 32.9097 34.1749 32.917 34.6873 32.9326C35.182 32.916 35.6534 32.9097 36.1119 32.9097C40.3556 32.9097 45.6534 33.5428 48.9799 38.4893C50.8455 41.2603 51.7246 44.8399 51.3921 48.3105L50.8436 48.3063C50.7996 47.7687 50.6167 47.2425 50.3341 46.8076C50.0574 52.5449 48.2485 58.1867 45.2085 62.7699C43.5472 65.2742 41.7177 67.1362 39.7709 68.3048C38.179 69.2617 36.4542 69.7671 34.7831 69.7671ZM34.6765 69.1807L34.7831 69.1818C36.3584 69.1818 37.9913 68.7023 39.5 67.7952C41.3755 66.6692 43.1443 64.8654 44.7577 62.4326C47.8652 57.7498 49.6604 51.9368 49.811 46.0646L49.8267 45.4439L50.2677 45.8528C50.5199 46.0874 50.736 46.3635 50.9091 46.6717C50.8749 43.856 50.0379 41.0673 48.533 38.8286C45.3512 34.1001 40.2236 33.4941 36.1119 33.4941C35.6592 33.4941 35.1938 33.5023 34.6873 33.5179C34.1641 33.5013 33.6977 33.4941 33.2431 33.4941C29.1333 33.4941 24.0057 34.1001 20.824 38.8286C19.3191 41.0662 18.4821 43.857 18.4479 46.6717C18.6219 46.3645 18.837 46.0874 19.0893 45.8528L19.5303 45.4439L19.546 46.0646C19.6965 51.9368 21.4918 57.7509 24.5993 62.4326C26.2126 64.8654 27.9815 66.6692 29.8569 67.7952C31.3657 68.7023 32.9967 69.1818 34.5739 69.1818L34.6765 69.1807Z" fill="#202B2B"/>
<path d="M47.5826 43.1897C47.3763 41.0912 46.1442 39.1358 44.393 38.1333C43.0162 37.3434 42.9018 35.3373 41.7979 34.1562C40.8846 33.1786 39.5499 32.7852 38.2611 32.6347C37.121 32.5019 35.9633 32.5268 34.831 32.3514V32.2714C34.7567 32.287 34.6824 32.2974 34.6071 32.3109C34.5328 32.2974 34.4585 32.287 34.3832 32.2714V32.3514C33.2528 32.5278 32.0951 32.5029 30.955 32.6347C29.6643 32.7852 28.3306 33.1775 27.4163 34.1562C26.3143 35.3373 26.1999 37.3434 24.8212 38.1333C23.0719 39.1358 21.8379 41.0912 21.6336 43.1897C21.6033 43.4948 21.5993 43.8238 21.7538 44.0812C21.9787 44.4507 22.4735 44.5441 22.8695 44.4134C23.2645 44.2815 23.5853 43.9774 23.8913 43.6816C22.8294 45.4782 21.7734 47.5923 22.3522 49.6234C22.5165 50.1994 22.9614 50.8159 23.5188 50.708C24.1817 50.5782 24.5386 49.4978 25.1957 49.6576C24.7488 50.5429 24.4125 51.4895 24.2003 52.4651C23.9578 53.5787 23.8874 54.8044 24.3929 55.8121C24.567 56.1608 24.8623 56.5013 25.2329 56.4899C25.9486 56.4681 26.1305 55.2776 26.8179 55.0617C26.239 57.126 26.7201 59.4903 28.0499 61.1166C28.5026 61.6698 29.2644 62.1638 29.8413 61.759C30.0212 61.6334 30.1454 61.4373 30.2578 61.2422C30.5521 60.7326 30.7927 60.1877 30.9775 59.6241C30.8377 61.0252 30.9032 62.498 31.5026 63.7538C32.0941 64.9919 33.3017 65.9676 34.6061 65.9281C35.9105 65.9676 37.1171 64.993 37.7097 63.7538C38.311 62.4969 38.3746 61.0242 38.2367 59.6241C38.4205 60.1877 38.663 60.7316 38.9544 61.2422C39.0669 61.4373 39.193 61.6334 39.3729 61.759C39.9479 62.1638 40.7116 61.6698 41.1643 61.1166C42.4931 59.4903 42.9752 57.126 42.3963 55.0617C43.0817 55.2776 43.2656 56.4681 43.9794 56.4899C44.3519 56.5013 44.6482 56.1608 44.8213 55.8121C45.3278 54.8044 45.2564 53.5797 45.0139 52.4651C44.7997 51.4895 44.4634 50.5419 44.0185 49.6576C44.6736 49.4978 45.0325 50.5782 45.6954 50.708C46.2528 50.8159 46.6977 50.1994 46.8619 49.6234C47.4408 47.5923 46.3848 45.4792 45.3209 43.6816C45.6279 43.9774 45.9496 44.2815 46.3447 44.4134C46.7397 44.5441 47.2345 44.4507 47.4584 44.0812C47.6168 43.8249 47.6139 43.4948 47.5826 43.1897Z" fill="#AFDFE2"/>
<path d="M44.2356 40.374C44.085 38.8162 43.1678 37.3653 41.8712 36.6211C40.8475 36.0358 40.7614 34.5475 39.944 33.6705C39.2663 32.945 38.2768 32.6534 37.3176 32.5413C36.4737 32.4427 35.6142 32.4613 34.7733 32.3316V32.2714C34.7176 32.2828 34.6628 32.2912 34.6071 32.3005C34.5514 32.2901 34.4966 32.2818 34.4428 32.2714V32.3316C33.6029 32.4613 32.7434 32.4427 31.8966 32.5413C30.9394 32.6523 29.9508 32.945 29.2722 33.6705C28.4528 34.5475 28.3687 36.0347 27.3449 36.6211C26.0464 37.3653 25.1312 38.8162 24.9787 40.374C24.9562 40.6002 24.9542 40.8441 25.0706 41.0361C25.2368 41.3112 25.6035 41.3797 25.8958 41.2821C26.1901 41.1846 26.4287 40.9583 26.6556 40.7404C25.8665 42.073 25.0823 43.6411 25.5115 45.1481C25.6338 45.5757 25.9643 46.0334 26.3789 45.9525C26.8697 45.8559 27.1347 45.0547 27.6217 45.1741C27.2912 45.83 27.0428 46.5327 26.8844 47.2571C26.7025 48.0832 26.6517 48.9924 27.0262 49.7407C27.1562 49.9991 27.3753 50.2513 27.651 50.243C28.1819 50.2274 28.3179 49.3442 28.8273 49.1833C28.398 50.7162 28.7549 52.4692 29.7425 53.6762C30.0769 54.0872 30.6441 54.4525 31.0694 54.1526C31.2034 54.0592 31.2963 53.9149 31.3803 53.7696C31.5984 53.3908 31.7754 52.9871 31.9133 52.5688C31.8106 53.6087 31.8575 54.7026 32.3024 55.6346C32.7414 56.5531 33.6371 57.2765 34.6052 57.2475C35.5732 57.2765 36.4689 56.5531 36.9079 55.6346C37.3548 54.7026 37.4007 53.6087 37.299 52.5688C37.4349 52.9871 37.6139 53.3908 37.8319 53.7696C37.916 53.9149 38.0079 54.0592 38.1409 54.1526C38.5692 54.4525 39.1344 54.0872 39.4697 53.6762C40.4573 52.4692 40.8142 50.7152 40.385 49.1833C40.8934 49.3431 41.0284 50.2274 41.5593 50.243C41.8341 50.2513 42.0541 49.9991 42.1841 49.7407C42.5606 48.9924 42.5068 48.0832 42.3269 47.2571C42.1685 46.5327 41.9201 45.83 41.5877 45.1741C42.0746 45.0547 42.3406 45.8559 42.8324 45.9525C43.247 46.0324 43.5775 45.5757 43.6978 45.1481C44.127 43.6411 43.3448 42.073 42.5557 40.7404C42.7825 40.9594 43.0221 41.1856 43.3135 41.2821C43.6078 41.3797 43.9745 41.3101 44.1407 41.0361C44.262 40.8441 44.2581 40.5992 44.2356 40.374Z" fill="#D2ECF2"/>
<path d="M34.6883 32.6606L34.6863 32.643C34.6766 32.6451 34.6658 32.6493 34.656 32.6513C34.6443 32.6493 34.6355 32.6451 34.6237 32.643V32.6606C29.4081 34.0202 24.3431 36.5973 20.1688 40.0969C21.1769 41.4524 23.0357 41.8041 24.6814 41.6319C26.33 41.4596 27.9209 40.8753 29.5744 40.7684C31.0968 40.6688 32.6359 41.003 34.0028 41.6983C34.2052 41.8011 34.4272 41.8602 34.6521 41.8602H34.6599C34.8848 41.8602 35.1068 41.8 35.3092 41.6983C36.6762 41.0019 38.2162 40.6688 39.7377 40.7684C41.3892 40.8753 42.982 41.4596 44.6306 41.6319C46.2772 41.8041 48.1351 41.4524 49.1432 40.0969C44.9689 36.5973 39.9039 34.0192 34.6883 32.6606Z" fill="#509F9C"/>
<path d="M59.6409 18.9921C59.0679 19.2184 58.4969 19.4456 57.9239 19.6719C60.3909 16.907 61.7755 13.1895 61.7266 9.47288C59.815 10.6259 56.7593 11.1013 54.5651 11.4915C51.3032 12.0706 48.0431 12.6498 44.7812 13.2299C41.7275 13.7706 38.4558 14.4276 36.3134 16.6839C35.9526 17.0648 35.6279 17.4872 35.1997 17.7902C34.8692 18.0269 32.9116 18.0269 32.5811 17.7902C32.1528 17.4872 31.8282 17.0648 31.4674 16.6839C29.325 14.4276 26.0533 13.7706 22.9996 13.2299C19.7376 12.6498 16.4776 12.0706 13.2157 11.4915C11.0215 11.1013 7.96581 10.6259 6.05419 9.47288C6.00433 13.1895 7.39086 16.907 9.85689 19.6719C9.2839 19.4446 8.71285 19.2173 8.13985 18.9921C8.73338 21.8888 10.3477 24.5633 12.626 26.4283C11.392 30.1241 11.3275 34.205 12.4412 37.9403C12.6876 37.0768 13.1922 36.289 13.8717 35.7068C13.8757 36.8401 14.5005 37.9122 15.3688 38.6304C16.24 39.3486 17.3322 39.7472 18.4342 39.9672C20.9609 40.4716 23.6537 40.0772 25.932 38.8702C27.3567 38.1157 28.6053 37.0643 30.0075 36.2693C30.9775 35.7203 32.0697 35.2948 33.1658 35.2169C33.1619 35.2595 33.16 35.301 33.1561 35.3425C33.3986 35.2792 33.6449 35.2408 33.8914 35.2221C34.1378 35.2418 34.3822 35.2802 34.6247 35.3425C34.6228 35.301 34.6189 35.2595 34.6149 35.2169C35.7111 35.2937 36.8033 35.7192 37.7732 36.2693C39.1754 37.0643 40.426 38.1157 41.8487 38.8702C44.129 40.0772 46.8219 40.4716 49.3466 39.9672C50.4505 39.7472 51.5408 39.3486 52.412 38.6304C53.2813 37.9122 53.9051 36.8391 53.911 35.7068C54.5886 36.2901 55.0931 37.0768 55.3395 37.9403C56.4552 34.205 56.3877 30.1241 55.1547 26.4283C57.434 24.5633 59.0474 21.8888 59.6409 18.9921Z" fill="#FAE8C7"/>
<path d="M47.1651 40.4736C45.2652 40.4736 43.3859 40.0097 41.7275 39.1317C40.9501 38.7207 40.2188 38.2174 39.5118 37.7327C38.9085 37.3186 38.2837 36.8899 37.6442 36.5267C36.6869 35.986 35.7727 35.6549 34.9171 35.5417L34.9308 35.7244L34.5602 35.6269C34.35 35.5719 34.1319 35.5355 33.8914 35.5158C33.6489 35.5366 33.4308 35.5729 33.2206 35.6269L32.85 35.7244L32.8637 35.5417C32.0081 35.6549 31.0929 35.986 30.1366 36.5267C29.4971 36.891 28.8723 37.3186 28.269 37.7327C27.562 38.2174 26.8306 38.7196 26.0533 39.1317C24.3978 40.0097 22.5165 40.4736 20.6157 40.4736C19.8628 40.4736 19.1108 40.401 18.3834 40.2547C17.0731 39.9931 16.0034 39.524 15.1996 38.8598C14.3763 38.18 13.8229 37.2605 13.6508 36.316C13.2137 36.8048 12.8832 37.3943 12.7033 38.0243L12.4451 38.9272L12.1762 38.0274C11.0664 34.3036 11.1104 30.229 12.3004 26.53C10.0388 24.6183 8.46937 21.9718 7.86998 19.0543L7.76342 18.5312L8.92993 18.9931C6.87165 16.2905 5.73248 12.8791 5.77844 9.46765L5.78432 8.97362L6.18913 9.2175C7.92669 10.2657 10.6235 10.739 12.7913 11.1199L23.0446 12.9403C26.505 13.5558 29.543 14.2459 31.662 16.4763C31.7578 16.578 31.8526 16.6818 31.9465 16.7866C32.2027 17.072 32.4452 17.3419 32.7336 17.5463C32.8177 17.5993 33.2343 17.674 33.8914 17.674C34.5484 17.674 34.963 17.5993 35.0491 17.5463C35.3375 17.3419 35.5781 17.072 35.8343 16.7866C35.9301 16.6818 36.023 16.578 36.1188 16.4763C38.2367 14.2459 41.2748 13.5558 44.7362 12.9403L54.9895 11.1199C57.1573 10.739 59.856 10.2657 61.5916 9.2175L61.9964 8.97362L62.0023 9.46765C62.0483 12.8791 60.9101 16.2895 58.8508 18.9931L60.0174 18.5312L59.9108 19.0543C59.3133 21.9728 57.741 24.6183 55.4803 26.53C56.6703 30.229 56.7163 34.3036 55.6045 38.0274L55.3356 38.9262L55.0775 38.0243C54.8976 37.3954 54.568 36.8048 54.13 36.316C53.9579 37.2605 53.4064 38.18 52.5812 38.8598C51.7794 39.524 50.7077 39.9931 49.3994 40.2547C48.6699 40.401 47.919 40.4736 47.1651 40.4736ZM34.3157 34.9035L34.6345 34.9252C35.6583 34.9969 36.7583 35.3632 37.9043 36.0119C38.5653 36.3866 39.1989 36.8204 39.81 37.2417C40.5052 37.7192 41.223 38.2122 41.9739 38.6086C43.555 39.4462 45.3503 39.8893 47.1651 39.8893C47.8847 39.8893 48.6015 39.8187 49.2967 39.6797C50.519 39.4358 51.5105 39.0051 52.2438 38.3989C53.1131 37.6828 53.6323 36.6751 53.6362 35.7047L53.6401 35.0965L54.085 35.4784C54.5896 35.9102 55.0032 36.452 55.2975 37.0539C56.1589 33.6041 56.023 29.8968 54.8966 26.5248L54.8301 26.3256L54.9885 26.1958C57.0908 24.474 58.5927 22.0984 59.2527 19.458L56.9099 20.388L57.7273 19.4715C60.0379 16.881 61.3804 13.4375 61.4518 9.95858C59.6448 10.8958 57.1299 11.3379 55.0804 11.698L44.8291 13.5184C41.4625 14.1162 38.5115 14.7836 36.5099 16.8925C36.4161 16.9911 36.3261 17.0907 36.2352 17.1914C35.9702 17.4872 35.6964 17.7923 35.3571 18.0352C35.0804 18.2313 34.3216 18.2614 33.8943 18.2614C33.467 18.2614 32.7063 18.2324 32.4295 18.0352C32.0893 17.7934 31.8164 17.4882 31.5515 17.1914C31.4615 17.0907 31.3696 16.9911 31.2787 16.8925C29.2751 14.7836 26.3251 14.1162 22.9575 13.5184L12.7062 11.698C10.6567 11.3379 8.14375 10.8968 6.33481 9.95858C6.40521 13.4375 7.7497 16.881 10.0612 19.4715L10.8767 20.388L8.53392 19.458C9.19492 22.0984 10.6958 24.474 12.7981 26.1958L12.9565 26.3256L12.89 26.5248C11.7656 29.8958 11.6277 33.603 12.4891 37.0539C12.7835 36.453 13.2 35.9102 13.7016 35.4784L14.1485 35.0965L14.1504 35.7047C14.1543 36.6751 14.6755 37.6818 15.5428 38.3989C16.2762 39.0051 17.2677 39.4358 18.4899 39.6797C19.1851 39.8187 19.9009 39.8893 20.6216 39.8893C22.4373 39.8893 24.2306 39.4451 25.8127 38.6086C26.5637 38.2111 27.2814 37.7192 27.9766 37.2417C28.5897 36.8214 29.2214 36.3876 29.8843 36.0119C31.0283 35.3632 32.1284 34.9969 33.1541 34.9252L33.4709 34.9035L33.465 34.9802C33.597 34.9584 33.732 34.9419 33.8757 34.9304L33.8962 34.9294L33.9168 34.9304C34.0586 34.9419 34.1935 34.9584 34.3255 34.9802L34.3157 34.9035Z" fill="#202B2B"/>
<path d="M30.4602 18.0944C26.0406 16.3694 21.4977 14.7109 16.7905 14.603C15.3815 14.5708 13.8532 14.7265 12.803 15.7218C11.5906 16.8676 11.3647 18.8136 11.6385 20.5105C12.009 22.7969 13.1189 24.912 13.3379 27.2213C13.4484 28.393 13.3281 29.5959 13.6166 30.7323C14.1192 32.7064 15.8303 34.1562 17.6921 34.6876C19.5538 35.2169 21.5407 34.9512 23.4005 34.4136C25.2603 33.876 27.0467 33.0758 28.9006 32.5195C30.7546 31.9632 32.7317 31.6529 34.6071 32.123C34.7313 29.105 34.6668 26.0775 34.4184 23.0678C34.3421 22.1482 34.2385 21.1965 33.7897 20.4067C33.0935 19.1737 31.7294 18.5894 30.4602 18.0944Z" fill="#827973"/>
<path d="M37.5738 18.0944C41.9945 16.3694 46.5363 14.7109 51.2435 14.603C52.6525 14.5708 54.1808 14.7265 55.233 15.7218C56.4435 16.8676 56.6694 18.8136 56.3956 20.5105C56.025 22.7969 54.9152 24.912 54.6981 27.2213C54.5876 28.393 54.7079 29.5959 54.4175 30.7323C53.9149 32.7064 52.2037 34.1562 50.342 34.6876C48.4802 35.2169 46.4933 34.9512 44.6335 34.4136C42.7737 33.876 40.9893 33.0758 39.1353 32.5195C37.2795 31.9632 35.3023 31.6529 33.4269 32.123C33.3047 29.105 33.3673 26.0775 33.6176 23.0678C33.6919 22.1482 33.7975 21.1965 34.2443 20.4067C34.9405 19.1737 36.3036 18.5894 37.5738 18.0944Z" fill="#827973"/>
<path d="M30.5531 12.0654C32.0404 14.687 32.7552 17.7964 32.5704 20.8529C32.5107 21.8212 32.366 22.7958 32.5019 23.7558C32.6378 24.7148 33.1228 25.6883 33.9647 26.065C32.9986 26.8933 31.4821 26.229 30.737 25.1735C29.9938 24.118 29.7093 22.7761 29.0855 21.6376C27.7987 19.292 25.2182 18.0777 22.6994 17.6159C20.1786 17.154 17.5903 17.292 15.0637 16.8862C12.5351 16.4784 9.92827 15.3928 8.50752 13.1375C9.46088 13.7457 10.6499 13.919 11.7235 13.6056C8.51925 12.4961 5.76281 9.99592 4.22961 6.8097C5.37756 8.64256 7.46517 9.76444 9.53519 9.66273C8.27088 8.44532 7.40358 6.77333 7.11317 4.98718C9.41786 6.99024 12.4608 7.74371 15.4167 8.13914C18.3726 8.53352 21.394 8.63627 24.2365 9.58798C27.078 10.5387 29.8071 12.5314 30.8123 15.509C30.7252 14.3611 30.6392 13.2132 30.5531 12.0654Z" fill="#9F756B"/>
<path d="M32.9331 26.7304C32.0717 26.7304 31.0997 26.1752 30.517 25.348C30.0682 24.7108 29.7797 23.978 29.501 23.2681C29.3045 22.7679 29.1021 22.2489 28.8459 21.7829C27.3889 19.1281 24.3392 18.2128 22.6505 17.9024C21.3461 17.6637 19.9919 17.5859 18.6816 17.5101C17.4799 17.4406 16.2371 17.369 15.0207 17.1738C12.8382 16.822 9.89502 15.8641 8.27772 13.2985L7.59229 12.2118L8.64834 12.8854C9.2272 13.2538 9.89699 13.4542 10.5863 13.4646C7.75755 12.188 5.38832 9.85904 3.98419 6.94058L4.45939 6.64685C5.4196 8.18184 7.11218 9.21454 8.85561 9.35881C7.81131 8.16008 7.10439 6.65103 6.84038 5.03717L6.71421 4.26397L7.28527 4.76104C9.6936 6.85336 12.9135 7.51034 15.45 7.84972C16.2038 7.95039 16.9783 8.03345 17.7243 8.11336C19.9126 8.35 22.1763 8.59283 24.3167 9.30895C27.0702 10.2316 29.2194 11.8901 30.4182 13.9731L30.1835 10.8533L30.7868 11.915C32.3015 14.5823 33.0329 17.7644 32.8441 20.8728C32.8305 21.1042 32.8119 21.3346 32.7923 21.5671C32.7307 22.3123 32.674 23.0149 32.7718 23.7123C32.8823 24.4886 33.2812 25.4435 34.0703 25.7953L34.4966 25.9852L34.1378 26.2935C33.8044 26.5789 33.3878 26.7304 32.9331 26.7304ZM9.41786 13.8693C10.9872 15.5963 13.3115 16.3072 15.1048 16.5947C16.2928 16.7867 17.5229 16.8583 18.7119 16.9258C20.0368 17.0015 21.4067 17.0805 22.7434 17.3264C24.5269 17.6534 27.7527 18.6299 29.3211 21.4882C29.5959 21.9874 29.8061 22.524 30.0085 23.043C30.2872 23.7508 30.5492 24.4181 30.9579 24.9972C31.441 25.6843 32.236 26.144 32.9331 26.144C33.1033 26.144 33.2617 26.1181 33.4083 26.0631C32.7953 25.5909 32.3679 24.7813 32.2281 23.7985C32.1196 23.0325 32.1822 22.2614 32.2438 21.5152C32.2633 21.2879 32.2819 21.0606 32.2956 20.8333C32.4501 18.2999 31.969 15.7146 30.9315 13.423L31.2483 17.6752L30.5512 15.6067C29.68 13.0286 27.3489 10.9353 24.1514 9.86526C22.0658 9.16678 19.8295 8.927 17.6696 8.69348C16.9186 8.61253 16.1413 8.52952 15.3815 8.42781C12.9771 8.10608 9.97325 7.50307 7.54535 5.70135C7.92181 7.13359 8.67768 8.44232 9.71904 9.44489L10.2138 9.92024L9.54692 9.95242C8.21221 10.0168 6.88044 9.60681 5.77845 8.8388C7.31752 10.9166 9.42469 12.5014 11.8056 13.3255L12.6788 13.6265L11.7949 13.8849C11.0303 14.1101 10.1835 14.0997 9.41786 13.8693Z" fill="#202B2B"/>
<path d="M37.4271 12.0654C35.9398 14.687 35.2251 17.7964 35.4099 20.8529C35.4695 21.8212 35.6143 22.7958 35.4783 23.7558C35.3424 24.7148 34.8574 25.6883 34.0155 26.065C34.9816 26.8933 36.4982 26.229 37.2433 25.1735C37.9864 24.118 38.2709 22.7761 38.8948 21.6376C40.1816 19.292 42.762 18.0777 45.2808 17.6159C47.8016 17.154 50.3899 17.292 52.9165 16.8862C55.4451 16.4784 58.052 15.3928 59.4727 13.1375C58.5194 13.7457 57.3303 13.919 56.2567 13.6056C59.461 12.4961 62.2194 9.99592 63.7506 6.8097C62.6027 8.64256 60.515 9.76444 58.445 9.66273C59.7093 8.44532 60.5767 6.77333 60.8671 4.98718C58.5624 6.99024 55.5194 7.74371 52.5635 8.13914C49.6076 8.53352 46.5862 8.63627 43.7437 9.58798C40.9022 10.5387 38.1732 12.5314 37.168 15.509C37.255 14.3611 37.341 13.2132 37.4271 12.0654Z" fill="#9F756B"/>
<path d="M35.0471 26.7303C34.5924 26.7303 34.1759 26.5788 33.8425 26.2924L33.4836 25.9841L33.9099 25.7942C34.699 25.4424 35.098 24.4875 35.2085 23.7112C35.3062 23.0127 35.2486 22.3101 35.1879 21.566C35.1684 21.3335 35.1498 21.1031 35.1361 20.8716C34.9474 17.7632 35.6788 14.5812 37.1934 11.9139L37.7967 10.8522L37.562 13.9719C38.7618 11.889 40.9101 10.2305 43.6636 9.30785C45.804 8.59173 48.0676 8.34779 50.2559 8.1122C51.0029 8.03228 51.7764 7.94929 52.5303 7.84862C55.0667 7.51027 58.2866 6.85226 60.695 4.75994L61.268 4.2628L61.1418 5.036C60.8769 6.64987 60.1699 8.15891 59.1246 9.35764C60.868 9.21234 62.5606 8.1797 63.5228 6.64574L63.996 6.93948C62.5919 9.85897 60.2227 12.1868 57.3939 13.4634C58.0852 13.453 58.754 13.2538 59.3319 12.8843L60.3879 12.2097L59.7025 13.2974C58.0852 15.864 55.142 16.8219 52.9595 17.1727C51.7432 17.3679 50.4994 17.4394 49.2987 17.509C47.9884 17.5847 46.6341 17.6615 45.3297 17.9013C43.641 18.2116 40.5913 19.128 39.1343 21.7818C38.8782 22.2468 38.6758 22.7658 38.4792 23.267C38.2006 23.9769 37.9141 24.7096 37.4633 25.3469C36.8805 26.1751 35.9086 26.7303 35.0471 26.7303ZM34.5719 26.063C34.7186 26.118 34.878 26.144 35.0471 26.144C35.7443 26.144 36.5383 25.6842 37.0223 24.9971C37.431 24.418 37.6931 23.7507 37.9717 23.0429C38.1741 22.5239 38.3844 21.9873 38.6591 21.4881C40.2275 18.6298 43.4523 17.6543 45.2368 17.3264C46.5735 17.0814 47.9434 17.0015 49.2683 16.9257C50.4583 16.8582 51.6884 16.7856 52.8755 16.5946C54.6688 16.3072 56.993 15.5962 58.5624 13.8692C57.7987 14.0996 56.9529 14.109 56.1844 13.8858L55.3004 13.6274L56.1736 13.3264C58.5555 12.5024 60.6617 10.9176 62.2008 8.83979C61.0988 9.6078 59.7719 10.0178 58.4323 9.95341L57.7655 9.92123L58.2602 9.44588C59.3006 8.44227 60.0575 7.13354 60.4339 5.70233C58.007 7.50405 55.0022 8.10706 52.5978 8.4288C51.838 8.53051 51.0607 8.61352 50.3097 8.69447C48.1497 8.92799 45.9135 9.1677 43.8278 9.86618C40.6304 10.9362 38.2993 13.0296 37.4281 15.6077L36.7309 17.6761L37.0477 13.424C36.0102 15.7156 35.5292 18.2998 35.6837 20.8342C35.6974 21.0615 35.7159 21.2889 35.7355 21.5162C35.7971 22.2624 35.8597 23.0335 35.7511 23.7995C35.6123 24.7813 35.185 25.5908 34.5719 26.063Z" fill="#202B2B"/>
<path d="M42.365 12.1453C42.0766 12.905 41.7901 13.6648 41.5036 14.4234C43.7281 12.4006 46.5686 11.1479 49.4903 10.8999C48.8713 11.314 48.2524 11.7291 47.6344 12.1442C51.1105 11.4115 54.6433 10.9819 58.1859 10.8615C56.1237 11.9066 54.0606 12.9507 51.9984 13.9948C53.1004 14.5594 54.3343 14.8334 55.5546 14.7835C51.7578 17.3668 46.7065 16.5676 42.5645 18.4627C39.8853 19.6884 37.6931 22.0662 36.596 24.9338C35.889 19.9718 38.2807 14.6735 42.365 12.1453Z" fill="#683F23"/>
<path d="M25.7218 12.1453C26.0103 12.905 26.2967 13.6648 26.5832 14.4234C24.3587 12.4006 21.5182 11.1479 18.5985 10.8999C19.2155 11.314 19.8344 11.7291 20.4524 12.1442C16.9763 11.4115 13.4435 10.9819 9.90088 10.8615C11.9631 11.9066 14.0262 12.9507 16.0884 13.9948C14.9865 14.5594 13.7544 14.8334 12.5322 14.7835C16.329 17.3668 21.3823 16.5676 25.5223 18.4627C28.2015 19.6884 30.3938 22.0662 31.4918 24.9338C32.1978 19.9718 29.8071 14.6735 25.7218 12.1453Z" fill="#683F23"/>
<path d="M21.9025 32.9212C26.766 32.9212 30.7086 28.7364 30.7086 23.5742C30.7086 18.412 26.766 14.2273 21.9025 14.2273C17.039 14.2273 13.0964 18.412 13.0964 23.5742C13.0964 28.7364 17.039 32.9212 21.9025 32.9212Z" fill="#DB84B6"/>
<path d="M21.9025 33.2128C16.8951 33.2128 12.8216 28.8891 12.8216 23.5742C12.8216 18.2593 16.8951 13.9356 21.9025 13.9356C26.9098 13.9356 30.9834 18.2593 30.9834 23.5742C30.9834 28.8891 26.9098 33.2128 21.9025 33.2128ZM21.9025 14.5199C17.1983 14.5199 13.3711 18.5811 13.3711 23.5742C13.3711 28.5673 17.1983 32.6285 21.9025 32.6285C26.6067 32.6285 30.4319 28.5673 30.4319 23.5742C30.4319 18.5811 26.6057 14.5199 21.9025 14.5199Z" fill="#202B2B"/>
<path d="M21.9025 31.2814C25.9127 31.2814 29.1637 27.8308 29.1637 23.5742C29.1637 19.3177 25.9127 15.8671 21.9025 15.8671C17.8923 15.8671 14.6413 19.3177 14.6413 23.5742C14.6413 27.8308 17.8923 31.2814 21.9025 31.2814Z" fill="white"/>
<path d="M21.9025 27.5637C23.9783 27.5637 25.6612 25.7775 25.6612 23.5742C25.6612 21.3708 23.9783 19.5847 21.9025 19.5847C19.8266 19.5847 18.1438 21.3708 18.1438 23.5742C18.1438 25.7775 19.8266 27.5637 21.9025 27.5637Z" fill="#202B2B"/>
<path d="M21.9025 27.8564C19.678 27.8564 17.8671 25.9353 17.8671 23.5741C17.8671 21.213 19.678 19.292 21.9025 19.292C24.127 19.292 25.9359 21.213 25.9359 23.5741C25.9359 25.9353 24.127 27.8564 21.9025 27.8564ZM21.9025 19.8773C19.9811 19.8773 18.4185 21.5358 18.4185 23.5752C18.4185 25.6146 19.9811 27.2731 21.9025 27.2731C23.8239 27.2731 25.3864 25.6146 25.3864 23.5752C25.3864 21.5358 23.8239 19.8773 21.9025 19.8773Z" fill="#202B2B"/>
<path d="M46.0777 32.9212C50.9412 32.9212 54.8839 28.7364 54.8839 23.5742C54.8839 18.412 50.9412 14.2273 46.0777 14.2273C41.2143 14.2273 37.2716 18.412 37.2716 23.5742C37.2716 28.7364 41.2143 32.9212 46.0777 32.9212Z" fill="#DB84B6"/>
<path d="M46.0778 33.2128C41.0704 33.2128 36.9969 28.8891 36.9969 23.5742C36.9969 18.2593 41.0704 13.9356 46.0778 13.9356C51.0851 13.9356 55.1586 18.2593 55.1586 23.5742C55.1586 28.8891 51.0851 33.2128 46.0778 33.2128ZM46.0778 14.5199C41.3735 14.5199 37.5484 18.5811 37.5484 23.5742C37.5484 28.5673 41.3735 32.6285 46.0778 32.6285C50.782 32.6285 54.6091 28.5673 54.6091 23.5742C54.6091 18.5811 50.782 14.5199 46.0778 14.5199Z" fill="#202B2B"/>
<path d="M46.0778 31.2814C50.088 31.2814 53.339 27.8308 53.339 23.5742C53.339 19.3177 50.088 15.8671 46.0778 15.8671C42.0675 15.8671 38.8166 19.3177 38.8166 23.5742C38.8166 27.8308 42.0675 31.2814 46.0778 31.2814Z" fill="white"/>
<path d="M46.0778 27.5637C48.1536 27.5637 49.8365 25.7775 49.8365 23.5742C49.8365 21.3708 48.1536 19.5847 46.0778 19.5847C44.0019 19.5847 42.3191 21.3708 42.3191 23.5742C42.3191 25.7775 44.0019 27.5637 46.0778 27.5637Z" fill="#202B2B"/>
<path d="M46.0778 27.8564C43.8533 27.8564 42.0443 25.9353 42.0443 23.5741C42.0443 21.213 43.8533 19.292 46.0778 19.292C48.3023 19.292 50.1132 21.213 50.1132 23.5741C50.1132 25.9353 48.3032 27.8564 46.0778 27.8564ZM46.0778 19.8773C44.1564 19.8773 42.5938 21.5358 42.5938 23.5752C42.5938 25.6146 44.1564 27.2731 46.0778 27.2731C47.9992 27.2731 49.5617 25.6146 49.5617 23.5752C49.5617 21.5358 47.9992 19.8773 46.0778 19.8773Z" fill="#202B2B"/>
<path d="M32.4197 36.9107C32.5302 37.2387 32.6583 37.5853 32.8128 37.9101C33.0377 38.3761 33.4944 38.6647 33.9872 38.6647H33.993C34.4859 38.6647 34.9425 38.3771 35.1674 37.9101C35.3219 37.5853 35.45 37.2397 35.5605 36.9107C36.0591 35.4276 36.7808 33.8293 38.1673 33.2719C38.576 33.1079 39.0669 33.0115 39.2869 32.6108C39.4873 32.2497 39.3768 31.7899 39.2272 31.4028C38.5017 29.5191 36.949 28.0142 35.1156 27.4195C34.5641 27.2399 34.478 27.4215 34.038 27.4423C34.0224 27.4423 34.0038 27.4434 33.9901 27.4434C33.9745 27.4434 33.9559 27.4423 33.9403 27.4423C33.5012 27.4205 33.4152 27.2399 32.8627 27.4195C31.0293 28.0142 29.4766 29.518 28.751 31.4028C28.6024 31.7899 28.4909 32.2497 28.6914 32.6108C28.9114 33.0115 29.4022 33.1079 29.811 33.2719C31.1985 33.8293 31.9211 35.4276 32.4197 36.9107Z" fill="#EA954D"/>
<path d="M33.9931 38.9552H33.9872C33.3819 38.9552 32.8392 38.6055 32.5684 38.043C32.3943 37.6787 32.2594 37.2988 32.1616 37.0082C31.7109 35.6725 31.0254 34.0721 29.7152 33.5449C29.6389 33.5148 29.5587 33.4857 29.4805 33.4577C29.1079 33.3259 28.6855 33.1764 28.4548 32.7582C28.1477 32.2029 28.4108 31.5169 28.4988 31.2917C29.2585 29.3156 30.8611 27.763 32.7845 27.1392C33.1609 27.0178 33.424 27.0479 33.644 27.0998C33.7398 27.1227 33.8288 27.1445 33.9549 27.1507L33.9852 27.4433V27.1517L34.039 27.1496C34.1515 27.1444 34.2414 27.1237 34.3372 27.0998C34.5553 27.0479 34.8203 27.0168 35.1968 27.1392C37.1201 27.763 38.7217 29.3156 39.4825 31.2917C39.5705 31.5169 39.8335 32.2029 39.5265 32.7582C39.2957 33.1754 38.8733 33.3259 38.5008 33.4577C38.4225 33.4857 38.3423 33.5148 38.2661 33.5449C36.9558 34.0721 36.2704 35.6725 35.8196 37.0082C35.7218 37.2988 35.5869 37.6787 35.4128 38.043C35.143 38.6055 34.5983 38.9552 33.9931 38.9552ZM33.2822 27.6333C33.1903 27.6333 33.0817 27.654 32.9439 27.6986C31.177 28.2715 29.7044 29.6975 29.0082 31.5127C28.842 31.9455 28.8156 32.2569 28.93 32.4634C29.0561 32.6918 29.3465 32.7945 29.6536 32.9035C29.7416 32.9346 29.8257 32.9658 29.9097 32.9979C31.4322 33.6103 32.19 35.357 32.6789 36.8121C32.7728 37.0871 32.8989 37.4431 33.0593 37.7783C33.2353 38.1447 33.5902 38.3709 33.9872 38.3709H33.9931C34.39 38.3709 34.746 38.1437 34.921 37.7783C35.0814 37.4441 35.2075 37.0871 35.3014 36.8121C35.7903 35.358 36.5481 33.6103 38.0705 32.9979C38.1546 32.9658 38.2387 32.9346 38.3267 32.9035C38.6337 32.7956 38.9241 32.6918 39.0503 32.4634C39.1647 32.2569 39.1383 31.9455 38.9721 31.5127C38.2749 29.6975 36.8023 28.2715 35.0364 27.6986C34.7763 27.6135 34.6472 27.626 34.4575 27.6706C34.3548 27.6945 34.2268 27.7267 34.0527 27.735L33.995 27.736H33.953C33.7545 27.7267 33.6264 27.6955 33.5237 27.6706C33.4337 27.6499 33.3643 27.6333 33.2822 27.6333Z" fill="#202B2B"/>
<path d="M30.0838 31.9051C30.3126 32.15 30.6343 32.2642 30.9218 32.4251C31.3745 32.6804 31.7578 33.0727 32.0159 33.5439C32.0902 33.6809 32.1919 33.8469 32.3405 33.8293C32.5224 33.8075 32.5625 33.548 32.5469 33.356C32.4745 32.5236 32.2408 31.7079 31.8614 30.9762C31.7011 30.6638 31.5006 30.3535 31.2004 30.1968C30.7819 29.9768 30.2246 30.1366 29.9606 30.5444C29.6966 30.9523 29.7552 31.5554 30.0838 31.9051Z" fill="#F3D4BA"/>
<path d="M32.6486 34.3223C32.4863 34.4302 32.5019 34.6814 32.54 34.8796C32.6584 35.5044 32.8041 36.124 32.9713 36.7363C33.0094 36.8712 33.1052 37.0394 33.2294 36.9885C33.3135 36.9553 33.334 36.8412 33.3399 36.7467C33.3839 36.1115 33.3419 35.4701 33.2157 34.8464C33.1854 34.6938 33.1453 34.533 33.0475 34.4157C32.9488 34.2974 32.7747 34.2372 32.6486 34.3223Z" fill="#F3D4BA"/>
<path d="M37.2687 29.8792C36.7153 29.3312 36.109 28.8445 35.4617 28.4293C35.1312 28.2186 34.6961 28.0276 34.3812 28.2663C34.1368 28.4511 34.0889 28.8092 34.0664 29.1268C33.8816 31.683 33.9324 34.2589 34.2209 36.8038C34.2306 36.9024 34.2453 37.0072 34.3089 37.0798C34.437 37.2272 34.6892 37.138 34.7841 36.9657C34.8819 36.7924 34.8721 36.5796 34.876 36.3793C34.8956 35.1038 35.5292 33.8562 36.5226 33.1391C37.124 32.7032 37.9229 32.3483 38.0578 31.5886C38.1751 30.9358 37.7224 30.3327 37.2687 29.8792Z" fill="#D56C27"/>
<path d="M26.68 71.8876C26.7759 73.3613 27.3938 74.7905 28.3834 75.8304C28.7403 76.2051 29.2409 76.5516 29.7181 76.3783C30.1209 76.231 30.337 75.7639 30.4397 75.3239C30.7106 74.1843 30.5199 72.9649 30.0975 71.8793C29.675 70.7926 29.0356 69.8201 28.3805 68.8725C27.7732 68.9442 27.252 69.4143 26.9743 69.9924C26.6976 70.5684 26.638 71.2399 26.68 71.8876Z" fill="#E4C799"/>
<path d="M29.4551 76.7167C28.9437 76.7167 28.4851 76.3472 28.1888 76.0369C27.1552 74.9513 26.506 73.4464 26.4053 71.9072C26.3534 71.105 26.463 70.4148 26.7299 69.8575C27.0721 69.1476 27.6921 68.6597 28.3511 68.5809L28.5095 68.5622L28.6034 68.6982C29.2487 69.6291 29.9136 70.6327 30.3546 71.7671C30.6988 72.6534 31.0381 74.0027 30.7076 75.3955C30.5492 76.0618 30.2383 76.4977 29.808 76.6544C29.6956 76.6959 29.5773 76.7167 29.4551 76.7167ZM28.2621 69.1911C27.8397 69.2991 27.4525 69.6457 27.2218 70.1232C26.9998 70.585 26.9108 71.1714 26.9568 71.8667C27.0487 73.2658 27.6383 74.6337 28.578 75.6207C28.9671 76.0296 29.3416 76.205 29.6301 76.1012C29.9586 75.9819 30.1131 75.518 30.1767 75.2523C30.4691 74.0162 30.1571 72.7956 29.8462 71.9903C29.4511 70.9752 28.8537 70.0515 28.2621 69.1911Z" fill="#202B2B"/>
<path d="M27.7674 70.6348C28.2367 71.3748 28.707 72.1189 29.0679 72.9243C29.4287 73.7297 29.6751 74.6067 29.6712 75.4982C29.0483 75.4401 28.5594 74.9129 28.2162 74.3597C27.5855 73.3478 27.2423 72.1376 27.2403 70.9254C27.2403 70.8123 27.2442 70.694 27.2922 70.5933C27.3401 70.4906 27.4447 70.4107 27.5503 70.4335C27.6471 70.4532 27.7116 70.5476 27.7674 70.6348Z" fill="white"/>
<path d="M21.0049 77.2418C21.5935 77.0519 22.0002 76.4852 22.3092 75.9206C22.6935 75.2159 22.9947 74.4603 23.2029 73.6767C23.4269 72.8361 23.5432 71.9425 23.3594 71.0914C23.1756 70.2404 22.6544 69.4392 21.8927 69.1112C21.3177 69.9695 20.7428 70.8289 20.1659 71.6872C19.7132 72.3639 19.2526 73.0519 18.9915 73.8345C18.7275 74.617 18.6825 75.52 19.0473 76.2548C19.4139 76.9896 20.2539 77.4815 21.0049 77.2418Z" fill="#E4C799"/>
<path d="M20.6069 77.5958C19.8872 77.5958 19.1607 77.1111 18.8038 76.3918C18.4371 75.656 18.4127 74.6877 18.7315 73.736C19.0082 72.9099 19.4824 72.202 19.942 71.5181L21.7949 68.7522L21.9973 68.8394C22.7864 69.1787 23.4103 70.0163 23.6264 71.0251C23.7985 71.818 23.7447 72.7096 23.4679 73.7547C23.2519 74.5621 22.9429 75.3405 22.5479 76.067C22.2672 76.5797 21.8106 77.2885 21.0831 77.521C20.9305 77.5698 20.7692 77.5958 20.6069 77.5958ZM21.9846 69.4797L20.3918 71.8564C19.9547 72.5082 19.502 73.1817 19.2517 73.9321C18.9828 74.7302 18.9974 75.5263 19.2917 76.1168C19.6086 76.7541 20.3458 77.1443 20.9247 76.9606C21.4654 76.7883 21.838 76.2009 22.0707 75.7722C22.4432 75.0893 22.7356 74.3577 22.938 73.5949C23.1903 72.6473 23.2401 71.8491 23.0905 71.1538C22.9311 70.4179 22.5175 69.7952 21.9846 69.4797Z" fill="#202B2B"/>
<path d="M19.7093 74.9284C19.6809 75.2585 19.6936 75.6031 19.8276 75.903C19.9596 76.204 20.2304 76.451 20.5433 76.4686C20.2549 75.5906 20.5756 74.6316 20.9276 73.7806C21.2767 72.9305 21.6727 72.0286 21.5289 71.1133C20.7007 72.258 19.8373 73.4879 19.7093 74.9284Z" fill="white"/>
<path d="M22.8402 70.6203C22.6075 71.7672 22.5615 72.9555 22.7043 74.1179C22.7942 74.8485 22.9644 75.5823 23.3379 76.203C23.7124 76.8226 24.3176 77.3145 25.007 77.3924C25.887 77.492 26.7446 76.89 27.1953 76.0805C27.6461 75.2709 27.7507 74.2943 27.7204 73.3561C27.6823 72.1646 27.4437 70.9794 27.0174 69.8751C26.6869 69.0178 26.1276 68.1201 25.2642 67.9821C24.6325 67.8804 23.9901 68.2416 23.5853 68.7657C23.1795 69.2908 22.9732 69.9571 22.8402 70.6203Z" fill="#E4C799"/>
<path d="M25.1987 77.6964C25.1263 77.6964 25.052 77.6922 24.9787 77.6839C24.257 77.603 23.5579 77.1069 23.1052 76.3617C22.759 75.7878 22.5459 75.0872 22.4315 74.1562C22.2848 72.9554 22.3298 71.7453 22.5713 70.5601C22.6818 70.0121 22.8862 69.2098 23.3731 68.5819C23.8757 67.9333 24.6257 67.5866 25.3062 67.6945C26.1197 67.8253 26.8013 68.5414 27.2736 69.7671C27.7165 70.9098 27.959 72.1148 27.9971 73.3478C28.0353 74.5382 27.8505 75.4826 27.4339 76.2299C26.9362 77.1204 26.0601 77.6964 25.1987 77.6964ZM25.049 68.2591C24.6081 68.2591 24.1289 68.5249 23.7984 68.9525C23.3878 69.4828 23.2078 70.1937 23.1091 70.6826C22.8822 71.8024 22.8382 72.9461 22.9771 74.0805C23.0798 74.9232 23.2694 75.547 23.5686 76.0452C23.9314 76.645 24.48 77.0394 25.0354 77.1038C25.7687 77.1847 26.5265 76.7063 26.9587 75.9331C27.3195 75.2824 27.4799 74.4437 27.4457 73.3675C27.4095 72.203 27.1807 71.0666 26.7641 69.9872C26.4874 69.2732 25.9966 68.3961 25.2231 68.2726C25.1664 68.2633 25.1067 68.2591 25.049 68.2591Z" fill="#202B2B"/>
<path d="M24.3754 69.489C23.7486 70.4771 23.4474 71.6914 23.5335 72.8787C23.6195 74.066 24.0928 75.217 24.8535 76.0919C24.2013 73.9736 24.037 71.6883 24.3754 69.489Z" fill="white"/>
<path d="M43.994 71.8876C43.8982 73.3613 43.2812 74.7905 42.2927 75.8304C41.9338 76.2051 41.4332 76.5516 40.958 76.3783C40.5532 76.231 40.339 75.7639 40.2344 75.3239C39.9655 74.1843 40.1561 72.9649 40.5766 71.8793C40.999 70.7926 41.6385 69.8201 42.2936 68.8725C42.9009 68.9442 43.424 69.4143 43.7007 69.9924C43.9774 70.5684 44.0361 71.2399 43.994 71.8876Z" fill="#E4C799"/>
<path d="M41.22 76.7167C41.0997 76.7167 40.9814 76.6949 40.869 76.6544C40.4378 76.4967 40.1258 76.0618 39.9674 75.3944C39.6369 74.0026 39.9792 72.6534 40.3224 71.7671C40.7614 70.6338 41.4283 69.6302 42.0717 68.6982L42.1655 68.5622L42.3239 68.5809C42.983 68.6597 43.6058 69.1486 43.9471 69.8575C44.214 70.4148 44.3236 71.1039 44.2698 71.9062C44.17 73.4454 43.5188 74.9523 42.4882 76.0358C42.1919 76.3472 41.7314 76.7167 41.22 76.7167ZM42.4149 69.1911C41.8233 70.0515 41.2249 70.9752 40.8318 71.9903C40.5189 72.7946 40.207 74.0151 40.5013 75.2523C40.5639 75.519 40.7194 75.9819 41.0479 76.1012C41.3364 76.206 41.7109 76.0296 42.1 75.6207C43.0378 74.6347 43.6293 73.2647 43.7212 71.8667C43.7652 71.1714 43.6753 70.585 43.4562 70.1232C43.2245 69.6457 42.8353 69.3001 42.4149 69.1911Z" fill="#202B2B"/>
<path d="M42.9077 70.6348C42.4394 71.3748 41.9681 72.1189 41.6092 72.9243C41.2484 73.7297 41 74.6067 41.0059 75.4982C41.6268 75.4401 42.1157 74.9129 42.4609 74.3597C43.0896 73.3478 43.4328 72.1376 43.4367 70.9254C43.4367 70.8123 43.4328 70.694 43.3849 70.5933C43.335 70.4906 43.2324 70.4107 43.1268 70.4335C43.03 70.4532 42.9635 70.5476 42.9077 70.6348Z" fill="white"/>
<path d="M49.6722 77.2418C49.0816 77.0519 48.6767 76.4852 48.3678 75.9206C47.9815 75.2159 47.6804 74.4603 47.4721 73.6767C47.2501 72.8361 47.1338 71.9425 47.3176 71.0914C47.5014 70.2404 48.0206 69.4392 48.7824 69.1112C49.3593 69.9695 49.9342 70.8289 50.5092 71.6872C50.9638 72.3639 51.4224 73.0519 51.6855 73.8345C51.9475 74.617 51.9925 75.52 51.6278 76.2548C51.2631 76.9896 50.4212 77.4815 49.6722 77.2418Z" fill="#E4C799"/>
<path d="M50.0692 77.5957C49.9049 77.5957 49.7445 77.5708 49.592 77.5221C48.8664 77.2886 48.4098 76.5807 48.1292 76.068C47.7322 75.3426 47.4222 74.5641 47.2091 73.7557C46.9304 72.7105 46.8786 71.819 47.0487 71.0261C47.2667 70.0163 47.8906 69.1797 48.6797 68.8403L48.8821 68.7532L50.735 71.5191C51.1936 72.202 51.6669 72.9108 51.9456 73.737C52.2643 74.6887 52.2379 75.657 51.8732 76.3929C51.5134 77.1111 50.7898 77.5957 50.0692 77.5957ZM48.6924 69.4797C48.1595 69.7952 47.7429 70.4169 47.5845 71.1548C47.4359 71.8502 47.4848 72.6472 47.7371 73.5958C47.9395 74.3566 48.2318 75.0893 48.6044 75.7733C48.8391 76.2009 49.2116 76.7893 49.7523 76.9616C50.3312 77.1463 51.0685 76.7561 51.3853 76.1178C51.6777 75.5273 51.6923 74.7302 51.4254 73.9332C51.1731 73.1828 50.7223 72.5092 50.2853 71.8574L48.6924 69.4797Z" fill="#202B2B"/>
<path d="M50.9648 74.9284C50.9951 75.2585 50.9805 75.6031 50.8485 75.903C50.7145 76.204 50.4437 76.451 50.1327 76.4686C50.4192 75.5906 50.1005 74.6316 49.7485 73.7806C49.3974 72.9305 49.0034 72.0286 49.1451 71.1133C49.9763 72.258 50.8387 73.4879 50.9648 74.9284Z" fill="white"/>
<path d="M47.8368 70.6203C48.0676 71.7672 48.1155 72.9555 47.9727 74.1179C47.8828 74.8485 47.7127 75.5823 47.3391 76.203C46.9646 76.8226 46.3574 77.3145 45.6681 77.3924C44.788 77.492 43.9325 76.89 43.4817 76.0805C43.0309 75.2709 42.9263 74.2943 42.9547 73.3561C42.9928 72.1646 43.2314 70.9794 43.6597 69.8751C43.9902 69.0178 44.5495 68.1201 45.4129 67.9821C46.0445 67.8804 46.685 68.2416 47.0917 68.7657C47.4985 69.2898 47.7009 69.9571 47.8368 70.6203Z" fill="#E4C799"/>
<path d="M45.4764 77.6964C44.6169 77.6964 43.7408 77.1204 43.2441 76.2299C42.8256 75.4816 42.6427 74.5392 42.6789 73.3478C42.719 72.1138 42.9615 70.9088 43.4025 69.7671C43.8757 68.5414 44.5563 67.8253 45.3718 67.6945C46.0494 67.5866 46.8023 67.9333 47.3029 68.5819C47.7899 69.2098 47.9942 70.0111 48.1067 70.5601C48.3453 71.7443 48.3932 72.9544 48.2465 74.1562C48.1321 75.0882 47.916 75.7888 47.5709 76.3617C47.1201 77.1079 46.419 77.603 45.6994 77.6839C45.6231 77.6922 45.5507 77.6964 45.4764 77.6964ZM45.627 68.2591C45.5673 68.2591 45.5106 68.2633 45.451 68.2726C44.6776 68.3961 44.1867 69.2732 43.9119 69.9872C43.4954 71.0655 43.2666 72.202 43.2284 73.3675C43.1962 74.4437 43.3546 75.2834 43.7173 75.9331C44.1485 76.7063 44.9093 77.1847 45.6387 77.1038C46.1941 77.0405 46.7446 76.6461 47.1054 76.0452C47.4076 75.548 47.5943 74.9243 47.699 74.0805C47.8388 72.944 47.7928 71.8014 47.5669 70.6826C47.4672 70.1937 47.2883 69.4828 46.8776 68.9525C46.5461 68.5249 46.067 68.2591 45.627 68.2591Z" fill="#202B2B"/>
<path d="M46.3017 69.489C46.9265 70.4771 47.2276 71.6914 47.1416 72.8787C47.0555 74.066 46.5843 75.217 45.8216 76.0919C46.4738 73.9736 46.639 71.6883 46.3017 69.489Z" fill="white"/>
<path d="M21.7548 30.6845C21.2718 30.6845 20.8797 30.2684 20.8797 29.7546C20.8797 29.2409 21.2708 28.8247 21.7548 28.8247C24.48 28.8247 26.6976 26.4708 26.6976 23.5783C26.6976 23.0656 27.0907 22.6484 27.5738 22.6484C28.0568 22.6484 28.4499 23.0646 28.4499 23.5783C28.4508 27.4963 25.447 30.6845 21.7548 30.6845Z" fill="#80CECC"/>
<path d="M45.803 30.6845C45.32 30.6845 44.9269 30.2684 44.9269 29.7546C44.9269 29.2409 45.32 28.8247 45.803 28.8247C48.5281 28.8247 50.7458 26.4708 50.7458 23.5783C50.7458 23.0656 51.1389 22.6484 51.6219 22.6484C52.1049 22.6484 52.498 23.0646 52.498 23.5783C52.499 27.4963 49.4942 30.6845 45.803 30.6845Z" fill="#80CECC"/>
<path d="M16.2644 23.7849C16.2468 23.7849 16.2302 23.7849 16.2126 23.7828C15.8518 23.7537 15.581 23.4175 15.6093 23.0335C15.7834 20.6568 17.3185 18.5146 19.4287 17.701C19.7709 17.5712 20.1464 17.756 20.2705 18.1182C20.3947 18.4804 20.2167 18.88 19.8774 19.0118C18.268 19.6303 17.0506 21.3283 16.9196 23.1404C16.8932 23.5078 16.6047 23.7849 16.2644 23.7849Z" fill="#D2ECF2"/>
<path d="M40.519 23.7849C40.5014 23.7849 40.4847 23.7849 40.4671 23.7828C40.1063 23.7537 39.8355 23.4175 39.8638 23.0335C40.0379 20.6568 41.5711 18.5146 43.6831 17.701C44.0234 17.5712 44.4008 17.756 44.525 18.1182C44.6472 18.4804 44.4712 18.88 44.13 19.0118C42.5215 19.6303 41.3051 21.3283 41.1741 23.1404C41.1467 23.5078 40.8583 23.7849 40.519 23.7849Z" fill="#D2ECF2"/>
<path d="M27.3586 34.5672C27.4691 34.7136 27.5033 35.0218 27.4926 35.3051C27.4828 35.5874 27.433 35.8438 27.433 35.8438C27.433 35.8438 27.2022 35.8074 26.9499 35.6902C26.6976 35.5812 26.4405 35.4193 26.3583 35.2553C26.1882 34.9169 26.284 34.5454 26.5246 34.3679C26.7602 34.1853 27.1367 34.2766 27.3586 34.5672Z" fill="#EA954D"/>
<path d="M25.4891 35.687C25.5556 35.8603 25.5096 36.1758 25.4333 36.4519C25.3551 36.7145 25.2495 36.9377 25.2495 36.9377C25.2495 36.9377 25.0373 36.8234 24.8232 36.6584C24.6091 36.4955 24.3949 36.2858 24.348 36.1011C24.26 35.743 24.4262 35.3632 24.7205 35.2635C25.0227 35.1753 25.3512 35.3383 25.4891 35.687Z" fill="#EA954D"/>
<path d="M23.4073 36.3336C23.4415 36.5173 23.3408 36.8121 23.2225 37.0622C23.1042 37.3124 22.9702 37.5168 22.9702 37.5168C22.9702 37.5168 22.7854 37.3746 22.5996 37.1702C22.4148 36.9688 22.229 36.7198 22.2085 36.535C22.1645 36.1593 22.3933 35.8344 22.7091 35.7763C23.023 35.7161 23.335 35.9662 23.4073 36.3336Z" fill="#EA954D"/>
<path d="M21.2415 36.6429C21.2552 36.8298 21.1212 37.111 20.9746 37.3466C20.8279 37.5811 20.6675 37.7617 20.6675 37.7617C20.6675 37.7617 20.4993 37.5956 20.337 37.3663C20.1747 37.14 20.03 36.8681 20.0349 36.6813C20.0505 36.3025 20.3038 36.0119 20.6177 35.9995C20.9286 35.9932 21.2131 36.2662 21.2415 36.6429Z" fill="#EA954D"/>
<path d="M19.0815 36.589C19.0551 36.7748 18.8635 37.0125 18.6552 37.2003C18.4508 37.3892 18.2367 37.5054 18.2367 37.5054C18.2367 37.5054 18.2064 37.4504 18.1604 37.3632C18.1164 37.275 18.0607 37.1577 18.0157 37.0176C17.9199 36.7426 17.8729 36.4344 17.9394 36.2621C18.0059 36.0888 18.1262 35.9538 18.2543 35.8729C18.3824 35.7951 18.5232 35.766 18.665 35.8012C18.9348 35.8864 19.1333 36.2112 19.0815 36.589Z" fill="#EA954D"/>
<path d="M17.1103 35.7939C17.0125 35.9486 16.7455 36.0752 16.4766 36.1396C16.3407 36.1728 16.2116 36.1904 16.1178 36.1925C16.022 36.1967 15.9594 36.1946 15.9594 36.1946C15.9594 36.1946 15.933 35.9289 15.975 35.6435C16.021 35.3487 16.1276 35.0581 16.2693 34.9471C16.4111 34.835 16.5783 34.7842 16.724 34.7779C16.8638 34.7779 16.9988 34.8132 17.0966 34.9077C17.1865 35.0104 17.2413 35.1422 17.2471 35.301C17.252 35.4587 17.21 35.6393 17.1103 35.7939Z" fill="#EA954D"/>
<path d="M40.5698 34.5672C40.4613 34.7136 40.427 35.0218 40.4378 35.3051C40.4476 35.5874 40.4974 35.8438 40.4974 35.8438C40.4974 35.8438 40.7262 35.8074 40.9805 35.6902C41.2327 35.5812 41.4889 35.4193 41.572 35.2553C41.7422 34.9169 41.6463 34.5454 41.4058 34.3679C41.1701 34.1853 40.7937 34.2766 40.5698 34.5672Z" fill="#EA954D"/>
<path d="M42.4403 35.687C42.3738 35.8603 42.4198 36.1758 42.498 36.4519C42.5762 36.7145 42.6819 36.9377 42.6819 36.9377C42.6819 36.9377 42.894 36.8234 43.1062 36.6584C43.3223 36.4955 43.5355 36.2858 43.5814 36.1011C43.6714 35.743 43.5052 35.3632 43.2089 35.2635C42.9077 35.1753 42.5792 35.3383 42.4403 35.687Z" fill="#EA954D"/>
<path d="M44.5231 36.3336C44.4888 36.5173 44.5895 36.8121 44.7079 37.0622C44.8262 37.3124 44.9582 37.5168 44.9582 37.5168C44.9582 37.5168 45.1449 37.3746 45.3307 37.1702C45.5155 36.9688 45.6993 36.7198 45.7218 36.535C45.7658 36.1593 45.537 35.8344 45.2212 35.7763C44.9073 35.7161 44.5944 35.9662 44.5231 36.3336Z" fill="#EA954D"/>
<path d="M46.6889 36.6429C46.6752 36.8298 46.8092 37.111 46.9558 37.3466C47.1005 37.5811 47.2619 37.7617 47.2619 37.7617C47.2619 37.7617 47.432 37.5956 47.5944 37.3663C47.7547 37.14 47.9014 36.8681 47.8965 36.6813C47.8808 36.3025 47.6257 36.0119 47.3137 35.9995C47.0028 35.9932 46.7182 36.2662 46.6889 36.6429Z" fill="#EA954D"/>
<path d="M48.8489 36.589C48.8753 36.7748 49.0669 37.0125 49.2733 37.2003C49.4776 37.3892 49.6937 37.5054 49.6937 37.5054C49.6937 37.5054 49.7221 37.4504 49.77 37.3632C49.814 37.275 49.8697 37.1577 49.9147 37.0176C50.0085 36.7426 50.0574 36.4344 49.989 36.2621C49.9245 36.0888 49.8042 35.9538 49.6742 35.8729C49.5461 35.7951 49.4072 35.766 49.2654 35.8012C48.9965 35.8864 48.798 36.2112 48.8489 36.589Z" fill="#EA954D"/>
<path d="M50.8182 35.7939C50.9179 35.9486 51.1848 36.0752 51.4537 36.1396C51.5897 36.1728 51.7187 36.1904 51.8126 36.1925C51.9084 36.1967 51.971 36.1946 51.971 36.1946C51.971 36.1946 51.9954 35.9289 51.9554 35.6435C51.9094 35.3487 51.8028 35.0581 51.6591 34.9471C51.5173 34.835 51.3521 34.7842 51.2064 34.7779C51.0646 34.7779 50.9316 34.8132 50.8319 34.9077C50.7439 35.0104 50.6871 35.1422 50.6832 35.301C50.6783 35.4587 50.7184 35.6393 50.8182 35.7939Z" fill="#EA954D"/>
<path d="M20.159 22.3766C20.6143 22.3766 20.9833 21.9848 20.9833 21.5016C20.9833 21.0184 20.6143 20.6268 20.159 20.6268C19.7038 20.6268 19.3348 21.0184 19.3348 21.5016C19.3348 21.9848 19.7038 22.3766 20.159 22.3766Z" fill="white"/>
<path d="M23.8151 25.8741C24.071 25.8741 24.2786 25.6539 24.2786 25.3822C24.2786 25.1105 24.071 24.8902 23.8151 24.8902C23.5591 24.8902 23.3516 25.1105 23.3516 25.3822C23.3516 25.6539 23.5591 25.8741 23.8151 25.8741Z" fill="white"/>
<path d="M44.3109 22.3766C44.7661 22.3766 45.1351 21.9848 45.1351 21.5016C45.1351 21.0184 44.7661 20.6268 44.3109 20.6268C43.8556 20.6268 43.4866 21.0184 43.4866 21.5016C43.4866 21.9848 43.8556 22.3766 44.3109 22.3766Z" fill="white"/>
<path d="M47.9659 25.8741C48.2219 25.8741 48.4294 25.6539 48.4294 25.3822C48.4294 25.1105 48.2219 24.8902 47.9659 24.8902C47.7099 24.8902 47.5024 25.1105 47.5024 25.3822C47.5024 25.6539 47.7099 25.8741 47.9659 25.8741Z" fill="white"/>
</svg>
