<svg width="71" height="68" viewBox="0 0 71 68" fill="none" xmlns="http://www.w3.org/2000/svg">
<path opacity="0.66" d="M15.8465 60.1872C15.6757 60.92 15.5621 61.6477 15.5048 62.3725C15.29 65.1069 17.3573 67.5064 20.113 67.7206C20.6521 67.7622 21.1912 67.7176 21.7139 67.5887C23.8139 67.07 25.336 65.2835 25.5027 63.1469C25.5395 62.6759 25.6623 62.1634 25.8668 61.6193C30.3738 63.0718 35.52 63.3875 41.2156 62.5582C41.3803 62.5349 41.5429 62.5024 41.7045 62.4628C41.8662 62.4232 42.0247 62.3755 42.175 62.3217C47.6046 60.4044 52.0012 57.7328 55.299 54.3549C55.7368 54.7406 56.0866 55.1354 56.3413 55.5323C57.4982 57.3461 59.6872 58.218 61.7862 57.6983C62.313 57.5694 62.8122 57.3563 63.2613 57.0721C65.5966 55.6033 66.2912 52.5227 64.81 50.2034C64.4172 49.5904 63.9733 48.9986 63.4772 48.4322C64.5962 49.0747 65.9281 49.2646 67.1954 48.9519C68.3718 48.6627 69.4018 47.9583 70.0954 46.9737C70.8625 45.8836 71.1551 44.563 70.9218 43.2536C70.6876 41.9443 69.9531 40.8044 68.8555 40.0452C68.7062 39.9416 68.5569 39.8422 68.4065 39.7437C69.7782 38.9571 70.7275 37.5513 70.8911 35.9415C71.0292 34.6189 70.6385 33.3227 69.7925 32.2915C68.9456 31.2592 67.7458 30.6178 66.4129 30.4828C65.258 30.366 64.1185 30.3041 62.9984 30.297C63.0179 30.0757 63.0322 29.8595 63.0445 29.6504L63.5846 29.3094C65.4667 28.1249 66.328 25.8979 65.7275 23.7704L64.6954 20.1052C64.141 18.1392 62.4625 16.7242 60.4187 16.4979C60.2233 16.4765 59.5216 16.4096 58.3565 16.3974C55.9056 8.87714 53.9641 4.45269 53.8679 4.23548C53.1805 2.69164 51.7679 1.60656 50.0903 1.33453C49.4142 1.22491 48.735 1.25237 48.0691 1.41681C47.1045 1.65432 46.2412 2.16585 45.5753 2.89057C41.8488 6.94251 40.0107 11.7983 39.1074 15.3935C36.1042 15.3235 33.107 15.6523 30.1539 16.3821C27.2018 17.1109 24.398 18.2122 21.7783 19.6698C19.2845 16.913 15.3668 13.4772 10.1663 11.6319C9.23136 11.299 8.22683 11.2472 7.26121 11.4847C6.59836 11.6491 5.98566 11.9404 5.43841 12.3515C4.08408 13.3726 3.34755 14.9875 3.47132 16.6846C3.48871 16.91 3.86212 21.7191 5.24611 29.5032C4.22218 30.0544 3.63602 30.4401 3.47338 30.5487C1.77228 31.6977 0.957021 33.7287 1.39585 35.7253L2.21522 39.4392C2.68883 41.6002 4.50038 43.1684 6.72316 43.3409L7.36148 43.3907C7.4699 43.5703 7.58551 43.754 7.70723 43.9408C6.72013 44.4676 5.74321 45.0512 4.77861 45.6907C3.66569 46.4306 2.90875 47.5543 2.64689 48.8575C2.38502 50.1628 2.65202 51.4905 3.39465 52.5918C4.30299 53.9407 5.80457 54.7426 7.38701 54.8005C7.30006 54.9568 7.21518 55.1161 7.13335 55.2745C6.52062 56.458 6.41118 57.8059 6.82137 59.0716C7.23155 60.3373 8.11434 61.3686 9.30603 61.9726C10.3852 62.5217 11.628 62.6648 12.8044 62.3745C14.0748 62.0619 15.1632 61.2732 15.8465 60.1872Z" fill="#075C54"/>
<path d="M6.11044 53.5317C6.02349 53.688 5.93861 53.8473 5.85677 54.0057C5.24405 55.1892 5.13461 56.5371 5.5448 57.8028C5.95498 59.0686 6.83777 60.0998 8.02945 60.7038C9.10862 61.2529 10.3514 61.396 11.5278 61.1057C12.7962 60.7931 13.8845 60.0045 14.5678 58.9184C14.397 59.6512 14.2835 60.379 14.2262 61.1037C14.0114 63.8381 16.0787 66.2377 18.8344 66.4518C19.3735 66.4934 19.9126 66.4488 20.4353 66.3199C22.5353 65.8012 24.0574 64.0147 24.2241 61.8781C24.2609 61.4072 24.3836 60.8946 24.5882 60.3505C29.0951 61.803 34.2414 62.1187 39.9369 61.2895C40.1016 61.2661 40.2643 61.2336 40.4259 61.194C40.5875 61.1544 40.746 61.1067 40.8964 61.0529C46.326 59.1356 50.7225 56.4641 54.0204 53.0861C54.4582 53.4718 54.808 53.8666 55.0627 54.2635C56.2196 56.0773 58.4086 56.9492 60.5076 56.4295C61.0344 56.3006 61.5336 56.0875 61.9826 55.8033C64.3179 54.3346 65.0125 51.254 63.5314 48.9346C63.1386 48.3216 62.6946 47.7298 62.1985 47.1635C63.3176 47.806 64.6494 47.9958 65.9168 47.6842C67.0932 47.3939 68.1232 46.6905 68.8167 45.7049C69.5839 44.6148 69.8764 43.2942 69.6432 41.9849C69.409 40.6755 68.6745 39.5356 67.5769 38.7764C67.4276 38.6729 67.2783 38.5734 67.1279 38.4749C68.4996 37.6883 69.4488 36.2825 69.6125 34.6727C69.7506 33.3501 69.3599 32.054 68.5139 31.0227C67.6669 29.9904 66.4671 29.349 65.1343 29.214C63.9794 29.0972 62.8399 29.0353 61.7198 29.0282C61.7392 28.8069 61.7536 28.5907 61.7659 28.3817L62.3059 28.0406C64.1881 26.8561 65.0493 24.6291 64.4489 22.5016L63.4167 18.8365C62.8623 16.8704 61.1838 15.4554 59.1401 15.2291C58.9447 15.2078 58.243 15.1408 57.0779 15.1286C54.627 7.60836 52.6855 3.18391 52.5893 2.9667C51.9019 1.42286 50.4893 0.337777 48.8117 0.0657534C48.1356 -0.0438682 47.4564 -0.0164073 46.7905 0.148025C45.8259 0.385539 44.9626 0.897071 44.2967 1.62179C40.5702 5.67373 38.732 10.5296 37.8288 14.1247C34.8256 14.0547 31.8284 14.3836 28.8753 15.1134C25.9231 15.8421 23.1194 16.9434 20.4997 18.401C18.0058 15.6442 14.0881 12.2084 8.88766 10.3631C7.95273 10.0302 6.9482 9.97839 5.98258 10.2159C5.31973 10.3803 4.70703 10.6716 4.15977 11.0827C2.80544 12.1038 2.06892 13.7188 2.19269 15.4159C2.21008 15.6412 2.58349 20.4503 3.96748 28.2345C2.94355 28.7856 2.35637 29.1713 2.19475 29.28C0.493653 30.4289 -0.32161 32.46 0.117217 34.4565L0.936592 38.1704C1.4102 40.3314 3.22175 41.8996 5.44453 42.0721L6.08285 42.1219C6.19127 42.3016 6.30688 42.4853 6.4286 42.672C5.4415 43.1988 4.46458 43.7824 3.49998 44.4219C2.38706 45.1619 1.63012 46.2855 1.36826 47.5887C1.10639 48.8941 1.37336 50.2217 2.11702 51.323C3.02536 52.672 4.528 53.4738 6.11044 53.5317Z" fill="white"/>
<path d="M54.0899 22.4287C50.8657 11.4311 48.0015 4.9776 48.0015 4.9776C42.4891 10.9702 41.9817 19.5197 41.9817 19.5197C41.7096 19.472 41.4385 19.4293 41.1684 19.3908C33.7278 18.3169 26.1021 20.1987 20.0353 24.6059C19.8143 24.7653 19.5954 24.9297 19.3765 25.0982C19.3765 25.0982 14.8931 17.781 7.19467 15.0475C7.19467 15.0475 7.7102 22.0816 10.0537 33.2965C12.3757 44.4068 17.9823 59.4585 39.2158 56.3668C59.4346 49.2282 57.2834 33.3229 54.0899 22.4287Z" fill="#E7D8EA"/>
<path d="M39.4286 57.2172C39.4009 57.2243 39.3723 57.2304 39.3446 57.2344C14.8961 60.7941 10.5989 40.2309 9.18729 33.474C6.86018 22.3301 6.31704 15.1824 6.31193 15.1103C6.29045 14.815 6.42032 14.5277 6.65968 14.3481C6.897 14.1684 7.21105 14.1197 7.49235 14.2202C13.9469 16.5121 18.1633 21.8044 19.5954 23.8375C22.6866 21.6075 26.144 20.0108 29.8725 19.0912C33.602 18.1706 37.4093 17.9737 41.194 18.5066C41.4999 16.0452 42.7264 9.40903 47.3478 4.38572C47.5494 4.16546 47.8491 4.06295 48.1447 4.11065C48.4393 4.15937 48.69 4.35221 48.8107 4.62423C48.8393 4.68919 51.7351 11.2573 54.9389 22.184C56.8803 28.81 62.7917 48.9763 39.5103 57.1939C39.4848 57.202 39.4572 57.2111 39.4286 57.2172ZM8.2104 16.3994C8.48147 18.9857 9.21699 24.9631 10.9201 33.1167C13.2217 44.1337 18.638 58.4312 39.001 55.51C58.3718 48.6271 56.4077 33.477 53.2398 22.6732C50.8963 14.6779 48.7247 9.05377 47.7427 6.64311C43.3503 12.246 42.8706 19.4932 42.8655 19.5703C42.8502 19.82 42.7284 20.0524 42.532 20.2067C42.3335 20.362 42.0789 20.427 41.8304 20.3843C41.5654 20.3377 41.3025 20.2961 41.0417 20.2585C37.4523 19.7409 33.8383 19.9215 30.3001 20.7944C26.7618 21.6673 23.4835 23.1878 20.558 25.3133C20.3442 25.4676 20.1314 25.628 19.9207 25.7904C19.7223 25.9436 19.4665 26.0055 19.218 25.9609C18.9694 25.9162 18.7525 25.768 18.6205 25.5538C18.5806 25.4879 14.7192 19.3024 8.2104 16.3994Z" fill="#111D32"/>
<path d="M6.50115 49.412C6.14927 49.4992 5.76461 49.3642 5.55185 49.0485C5.27873 48.6456 5.38925 48.0996 5.79534 47.8306C14.4369 42.0968 21.0131 43.467 21.2893 43.5289C21.766 43.6345 22.0667 44.1044 21.9593 44.5774C21.8529 45.0494 21.3824 45.3478 20.9057 45.2433C20.8443 45.2301 14.7468 44.004 6.77835 49.2902C6.69141 49.349 6.59832 49.3886 6.50115 49.412Z" fill="#111D32"/>
<path d="M10.5304 57.1301C10.3309 57.1789 10.1121 57.1596 9.91361 57.0591C9.47785 56.8378 9.30601 56.309 9.53002 55.8776C13.3107 48.5573 22.8667 47.0399 23.2728 46.9779C23.7556 46.9059 24.2056 47.2347 24.2793 47.7149C24.3529 48.1939 24.0328 48.6436 23.5387 48.7146C23.4467 48.7299 14.4676 50.1681 11.1043 56.6784C10.9846 56.9129 10.7708 57.0702 10.5304 57.1301Z" fill="#111D32"/>
<path d="M19.4379 62.3431C19.3479 62.3655 19.2538 62.3736 19.1566 62.3655C18.6687 62.3279 18.3055 61.9056 18.3434 61.4215C18.8354 55.1538 25.2808 49.8422 25.5549 49.6189C25.9334 49.3113 26.4899 49.3651 26.8008 49.7407C27.1108 50.1152 27.0555 50.6684 26.6781 50.976C26.6167 51.0267 20.5416 56.0419 20.1079 61.5585C20.0772 61.9452 19.7979 62.2548 19.4379 62.3431Z" fill="#111D32"/>
<path d="M64.8375 35.0169C64.7403 35.0403 64.6391 35.0484 64.5337 35.0382C54.9358 34.0669 50.1915 37.9879 50.1444 38.0275C49.7731 38.3421 49.2146 38.2995 48.8965 37.93C48.5784 37.5605 48.6223 37.0074 48.9947 36.6917C49.2085 36.51 54.3732 32.2419 64.7138 33.2904C65.1996 33.3391 65.5535 33.7705 65.5034 34.2526C65.4645 34.6322 65.1894 34.9296 64.8375 35.0169Z" fill="#111D32"/>
<path d="M64.9195 43.7075C64.6801 43.7663 64.4171 43.7268 64.1982 43.5745C58.1365 39.3744 49.542 42.2865 49.4561 42.319C48.9866 42.4773 48.4894 42.2388 48.3278 41.78C48.1662 41.3232 48.4087 40.8217 48.87 40.6614C49.2556 40.5264 58.4157 37.4255 65.2119 42.1352C65.6129 42.4123 65.7102 42.9604 65.4309 43.3573C65.3031 43.5389 65.1189 43.6588 64.9195 43.7075Z" fill="#111D32"/>
<path d="M59.5113 52.4548C59.1512 52.5431 58.7595 52.4 58.5508 52.0721C55.5619 47.4 47.8277 45.7923 47.75 45.7771C47.2702 45.6806 46.9613 45.2178 47.0575 44.7417C47.1536 44.2657 47.6221 43.9602 48.1008 44.0556C48.4476 44.1246 56.6493 45.8227 60.0453 51.1312C60.3072 51.5403 60.1854 52.0833 59.7711 52.3432C59.6893 52.3949 59.6013 52.4315 59.5113 52.4548Z" fill="#111D32"/>
<path d="M40.9854 47.733C39.1759 48.1786 37.751 47.5006 36.7639 46.583C36.3118 47.8974 35.3298 49.1997 33.3832 49.6047C29.4112 50.4289 28.4027 47.9604 28.3618 47.8538C28.1858 47.4021 28.4129 46.8936 28.8681 46.72C29.3274 46.5465 29.8368 46.7698 30.0128 47.2225C30.0261 47.2488 30.5835 48.3907 33.021 47.8852C35.5149 47.3848 35.3227 44.5063 35.3145 44.3845C35.2848 43.9602 35.5661 43.5735 35.9824 43.472C35.9834 43.472 35.9845 43.4709 35.9865 43.4709C36.4038 43.3694 36.8344 43.5795 37.0063 43.9703C37.0554 44.0789 38.2461 46.6967 40.6847 45.9943C43.0783 45.3071 43.0313 44.0393 43.0282 43.9856C43.0006 43.5105 43.3514 43.0893 43.8311 43.0446C44.3078 43.002 44.7303 43.3289 44.7876 43.7998C44.8019 43.9115 45.075 46.5627 41.1777 47.6802C41.1133 47.7005 41.0488 47.7178 40.9854 47.733Z" fill="#111D32"/>
<path d="M35.2366 40.4878C35.2366 40.4878 32.2109 41.1516 32.6947 43.0811C33.0548 44.5133 34.9328 44.9832 35.876 45.1304C36.2309 45.1852 36.5756 45.101 36.863 44.8868C37.6271 44.3184 39.0653 43.0304 38.7063 41.5982C38.2235 39.6686 35.2366 40.4878 35.2366 40.4878Z" fill="#111D32"/>
<path d="M58.5866 20.1764C58.5866 20.1764 47.9095 19.004 31.6708 26.2583C13.8989 27.3962 5.01794 33.3949 5.01794 33.3949L5.83732 37.1129L9.29063 37.3808C10.2706 39.9387 14.4584 47.6396 23.4139 44.1987C32.3705 40.7568 29.5657 32.2652 30.0721 31.1325C30.5774 30.0007 32.4646 29.4221 32.4646 29.4221C32.4646 29.4221 34.404 29.0557 35.386 29.8221C36.367 30.5874 37.8973 39.3936 47.4349 38.271C56.9725 37.1484 57.0369 28.398 56.6942 25.6828L59.6176 23.8416L58.5866 20.1764Z" fill="#15638E"/>
<path d="M49.3958 38.8091C49.3947 38.8101 49.3936 38.8101 49.3936 38.8101C48.8065 38.9552 48.1805 39.0669 47.5381 39.143C39.2689 40.1144 36.4836 34.0557 35.2949 31.4674C35.1231 31.0929 34.9103 30.6311 34.805 30.4869C34.3068 30.1378 33.197 30.1895 32.6764 30.2748C32.1772 30.4403 31.1706 30.9112 30.8954 31.4522C30.8719 31.6278 30.9016 32.1343 30.9261 32.5454C31.0969 35.3844 31.4969 42.0317 23.733 45.0159C23.1275 45.2483 22.5219 45.4401 21.9348 45.5853C13.5613 47.6508 9.6578 40.4178 8.67888 38.2132L5.76668 37.9869C5.37797 37.9565 5.05476 37.6763 4.9719 37.2987L4.15253 33.5807C4.07581 33.2305 4.22007 32.8692 4.51876 32.6682C4.70288 32.5443 9.11365 29.607 17.8994 27.4399C22.1363 26.3934 26.6954 25.7052 31.4519 25.3916C35.8013 23.457 40.1547 21.9456 44.3916 20.9012C53.1763 18.7331 58.4618 19.2771 58.6827 19.3015C59.0418 19.3411 59.3404 19.5928 59.4365 19.9379L60.4687 23.6031C60.574 23.9756 60.4196 24.3735 60.0912 24.5806L57.625 26.1335C57.8019 28.5381 57.7652 36.7445 49.3958 38.8091ZM32.2497 28.5696C32.265 28.5665 32.2814 28.5625 32.2978 28.5594C32.5361 28.5138 34.6689 28.1463 35.9311 29.1309C36.2973 29.4151 36.5265 29.9135 36.906 30.7397C38.1069 33.3544 40.344 38.2203 47.3305 37.3992C47.9013 37.3322 48.4515 37.2337 48.9681 37.1058C56.7647 35.1824 55.9373 26.7476 55.8155 25.7925C55.7736 25.4555 55.9311 25.1246 56.2206 24.9419L58.5886 23.4498L57.9033 21.0118C56.3229 20.9408 51.6379 20.9255 44.8213 22.6074C40.6386 23.6396 36.3363 25.1378 32.0329 27.0603C31.9358 27.1039 31.8334 27.1282 31.727 27.1353C27.0175 27.4368 22.5096 28.1139 18.3269 29.1451C11.5103 30.827 7.3788 33.0174 6.01628 33.8152L6.56045 36.2898L9.35809 36.507C9.69974 36.5324 9.99437 36.7526 10.1161 37.0703C10.4608 37.9717 13.7085 45.8076 21.5082 43.8831C22.0237 43.7562 22.5567 43.5878 23.0927 43.3817C29.6526 40.8604 29.3324 35.5214 29.1595 32.653C29.1053 31.7476 29.0727 31.2005 29.2619 30.7782C29.9114 29.3227 31.9695 28.6559 32.2028 28.5848C32.2171 28.5787 32.2333 28.5736 32.2497 28.5696Z" fill="#111D32"/>
<path d="M10.7114 33.61C10.7114 33.61 19.7734 29.7438 26.9419 29.6037C26.9419 29.6037 30.8576 39.5874 21.7323 42.4731C12.6069 45.3588 10.7114 33.61 10.7114 33.61Z" fill="#111D32"/>
<path d="M53.6572 23.0123C53.6572 23.0123 43.826 23.809 37.4257 27.0165C37.4257 27.0165 38.6798 37.6569 48.1028 35.9649C57.5289 34.2718 53.6572 23.0123 53.6572 23.0123Z" fill="#111D32"/>
<path d="M22.5976 42.1606C23.5397 41.781 24.3161 41.3151 24.9595 40.7903L15.2388 31.9465C13.7648 32.4286 12.5455 32.8823 11.7446 33.1939L22.5976 42.1606Z" fill="#1F2D42"/>
<path d="M26.991 38.194C27.3623 37.3911 27.5751 36.5548 27.6835 35.7295C25.966 34.137 23.6093 32.0013 21.6504 30.2362C20.5518 30.4555 19.4696 30.7154 18.4375 30.9935L26.991 38.194Z" fill="#1F2D42"/>
<path d="M49.3446 35.6564C50.3399 35.3468 51.1531 34.9144 51.8108 34.3896L41.814 25.2941C40.6254 25.6646 39.4551 26.0909 38.3586 26.5801L49.3446 35.6564Z" fill="#1F2D42"/>
<path d="M53.782 31.7293C54.1144 30.9122 54.2986 30.0484 54.3825 29.1917C52.6855 27.6154 50.347 25.4971 48.3871 23.732C47.3601 23.9147 46.2412 24.137 45.0853 24.408L53.782 31.7293Z" fill="#1F2D42"/>
</svg>
