<svg width="58" height="52" viewBox="0 0 58 52" fill="none" xmlns="http://www.w3.org/2000/svg">
<path d="M41.0615 36.9592C41.2984 36.9353 41.5302 36.8959 41.7599 36.8492C42.4013 37.3223 43.082 37.644 43.7958 37.8038C44.4424 37.9511 45.0973 37.9604 45.7449 37.837C50.2989 36.9716 53.9084 32.0863 56.0654 29.1674C56.4119 28.6974 56.7709 28.2107 56.9592 27.9918C57.8365 26.9686 58.1614 25.5554 57.9255 23.7945C57.4434 20.1866 53.7604 12.0358 50.8358 10.0539C50.3692 9.73849 49.8395 9.51227 49.2623 9.38153C48.3922 9.18645 45.8349 8.60955 38.56 12.839C35.3105 11.4714 32.3952 10.7938 32.0342 10.7129C31.6721 10.6319 28.7485 9.99374 25.2279 9.83291C20.4587 2.88792 17.9013 2.31204 17.0303 2.11488C16.454 1.98518 15.8789 1.96336 15.3202 2.04845C11.8359 2.58387 5.02762 8.36983 3.05372 11.4216C2.0885 12.9147 1.78021 14.3301 2.13505 15.6302C2.21161 15.9104 2.32954 16.505 2.44231 17.0799C3.14683 20.6431 4.32202 26.6065 8.06911 29.3438C8.60086 29.7319 9.19881 30.0038 9.84539 30.149C10.5592 30.3088 11.3104 30.313 12.0925 30.1594C12.2797 30.3036 12.4742 30.4365 12.6759 30.561C12.7069 30.8142 12.707 30.9294 12.7049 30.9719C12.6914 31.1971 12.2466 31.7875 11.9196 32.2202C10.6575 33.8939 8.30912 37.0131 11.033 41.9865C11.7407 43.2795 12.7535 44.2538 14.0084 44.8588C14.9767 47.6573 17.3945 49.8405 20.4577 50.5316L25.5073 51.6688C28.5695 52.3599 31.6876 51.426 33.7567 49.3123C35.1492 49.304 36.4796 48.8578 37.6693 47.9945C42.2554 44.6657 41.4619 40.8389 41.0357 38.7833C40.926 38.2541 40.7749 37.5288 40.8598 37.3202C40.8763 37.2798 40.9249 37.176 41.0615 36.9592Z" fill="#10181E"/>
<path d="M48.8433 8.05515C48.3768 7.74074 47.8471 7.51456 47.2698 7.38382C46.3998 7.18874 43.8424 6.61284 36.5675 10.8402C33.318 9.47364 30.4027 8.79708 30.0407 8.71406C29.6796 8.63313 26.756 7.99496 23.2355 7.8362C18.4652 0.890179 15.9089 0.313282 15.0378 0.117166C14.4605 -0.0125398 13.8863 -0.0343573 13.3277 0.0507299C9.84233 0.588232 3.03509 6.37213 1.0612 9.42593C0.0959743 10.9181 -0.212318 12.3345 0.142528 13.6336C0.219084 13.9138 0.337018 14.5073 0.449782 15.0821C1.15327 18.6475 2.32952 24.6098 6.07558 27.3472C6.60836 27.7363 7.20531 28.0061 7.85293 28.1524C8.56676 28.3122 9.31783 28.3153 10.0999 28.1617C10.2872 28.3059 10.4817 28.4398 10.6834 28.5643C10.7134 28.8185 10.7134 28.9327 10.7114 28.9752C10.6989 29.2014 10.2541 29.7908 9.92718 30.2235C8.66505 31.8972 6.31665 35.0154 9.04059 39.9888C9.74821 41.2817 10.761 42.2572 12.0149 42.8631C12.9842 45.6596 15.402 47.8438 18.4642 48.5339L23.5137 49.6732C26.577 50.3643 29.6951 49.4283 31.7641 47.3146C33.1566 47.3063 34.4871 46.8601 35.6768 45.9968C40.2619 42.6691 39.4694 38.8422 39.0432 36.7877C38.9335 36.2574 38.7824 35.5321 38.8662 35.3225C38.8828 35.2841 38.9314 35.1793 39.068 34.9625C39.3038 34.9376 39.5367 34.9002 39.7663 34.8525C40.4077 35.3267 41.0884 35.6473 41.8023 35.8071C42.4488 35.9534 43.1037 35.9648 43.7514 35.8413C48.3064 34.9739 51.9148 30.0897 54.0718 27.1697C54.4184 26.7017 54.7774 26.214 54.9647 25.9941C55.842 24.9709 56.1668 23.5576 55.932 21.7978C55.4509 18.1888 51.7669 10.0381 48.8433 8.05515Z" fill="white"/>
<path d="M16.1634 33.7225L14.956 39.1068C14.3353 41.8732 16.2296 44.6552 19.1863 45.3203L24.2359 46.4597C27.1915 47.1269 30.0903 45.424 30.711 42.6597L31.9173 37.2733L16.1634 33.7225Z" fill="#705742"/>
<path d="M24.1086 47.0283L19.059 45.8889C15.7971 45.1533 13.7022 42.0549 14.3912 38.9803L15.5975 33.5959C15.6678 33.2815 15.9781 33.0854 16.2906 33.156L32.0445 36.7079C32.3569 36.7774 32.5524 37.0876 32.4831 37.4021L31.2758 42.7864C30.5868 45.8609 27.3715 47.763 24.1086 47.0283ZM16.6019 34.4156L15.5219 39.2356C14.9726 41.6834 16.6734 44.1592 19.3135 44.7548L24.363 45.8931C27.0021 46.4887 29.5967 44.981 30.1451 42.5332L31.2251 37.7133L16.6019 34.4156Z" fill="#3A2F27"/>
<path d="M35.8257 34.0869C37.0547 31.0414 45.5141 23.754 42.4871 18.9829C39.459 14.2118 29.3216 11.9269 29.3216 11.9269C29.3216 11.9269 19.1842 9.64197 14.4129 12.6532C9.64264 15.6645 14.178 25.8854 13.9898 29.1633C13.8015 32.4433 9.20603 33.4508 11.9196 38.4056C14.6311 43.3593 23.7092 36.9757 23.7092 36.9757C23.7092 36.9757 29.1881 46.6415 33.7536 43.3282C38.32 40.0161 34.5977 37.1314 35.8257 34.0869Z" fill="#D08C61"/>
<path d="M35.7502 34.2986C33.4453 32.1143 30.4658 30.4925 29.4137 27.832C27.9447 24.1193 29.7427 16.3815 30.8662 12.3337C29.9206 12.0618 29.3226 11.9269 29.3226 11.9269C29.3226 11.9269 28.7237 11.792 27.7533 11.6322C27.0415 15.7714 25.3666 23.5371 22.4544 26.263C20.3688 28.2148 16.9838 28.4037 13.9681 29.3874C13.5915 32.491 9.26921 33.567 11.9207 38.4066C14.6322 43.3604 23.7103 36.9768 23.7103 36.9768C23.7103 36.9768 29.1892 46.6425 33.7546 43.3293C38.2145 40.0908 34.7674 37.2642 35.7502 34.2986Z" fill="#FFFFFB"/>
<path d="M30.7616 44.4923C27.4728 43.7524 24.4892 39.3497 23.5251 37.7963C21.9919 38.7873 17.4151 41.4831 14.1273 40.7433C12.9242 40.4714 12.0096 39.7804 11.4117 38.6867C9.52986 35.25 10.8872 33.4476 12.0852 31.8589C12.7369 30.9946 13.3514 30.179 13.4114 29.132C13.4621 28.2562 13.1238 26.7485 12.7318 25.0032C11.7386 20.5766 10.3792 14.5157 14.1045 12.1623C19.0217 9.05866 29.0247 11.2668 29.4478 11.3612C29.872 11.4567 39.8562 13.7561 42.9743 18.6725C45.3382 22.3976 41.5239 27.2922 38.7369 30.8669C37.6371 32.2771 36.6895 33.4933 36.3605 34.3057C35.9674 35.279 36.1753 36.2793 36.3957 37.3419C36.8002 39.2916 37.2585 41.5029 34.0908 43.8013C33.0873 44.5307 31.9658 44.7642 30.7616 44.4923ZM23.8354 36.409C23.9937 36.4443 24.1313 36.546 24.212 36.6881C24.2451 36.7494 27.5949 42.5882 31.0151 43.3602C31.8934 43.5563 32.6765 43.3934 33.4131 42.8601C35.9726 41.0016 35.6426 39.4151 35.2619 37.5764C35.0167 36.3924 34.7632 35.1691 35.2867 33.871C35.6757 32.9059 36.6709 31.6296 37.8244 30.1489C40.3973 26.8481 43.9209 22.3281 41.9967 19.2961C39.131 14.7792 29.2926 12.5171 29.1933 12.4943C29.094 12.4715 19.2328 10.2966 14.7211 13.147C11.6879 15.0605 12.9438 20.6596 13.8614 24.7479C14.2722 26.5794 14.627 28.1608 14.568 29.1984C14.4873 30.5982 13.7353 31.5964 13.009 32.5604C11.8803 34.0577 10.9058 35.3496 12.4266 38.1274C12.8642 38.9264 13.5035 39.412 14.3808 39.6112C17.8072 40.3822 23.3202 36.5408 23.3761 36.5014C23.5096 36.4059 23.6761 36.3737 23.8354 36.409Z" fill="#3A2F27"/>
<path d="M28.3212 32.1288C26.4952 30.4986 23.9534 29.9258 21.6091 30.6159C20.5332 30.9324 19.6301 31.4937 19.6073 32.4826C19.5784 33.7776 20.6533 35.1795 21.6837 36.2202C22.7834 37.3305 24.3952 37.6937 25.8621 37.1613C27.237 36.6643 28.8075 35.8591 29.333 34.6751C29.7344 33.7713 29.1581 32.8769 28.3212 32.1288Z" fill="#161417"/>
<path d="M20.8084 24.8779C22.2825 24.8779 23.4775 23.6792 23.4775 22.2007C23.4775 20.7222 22.2825 19.5236 20.8084 19.5236C19.3343 19.5236 18.1393 20.7222 18.1393 22.2007C18.1393 23.6792 19.3343 24.8779 20.8084 24.8779Z" fill="#161417"/>
<path d="M21.1457 22.9332C21.5948 22.9332 21.9588 22.568 21.9588 22.1176C21.9588 21.6672 21.5948 21.302 21.1457 21.302C20.6966 21.302 20.3325 21.6672 20.3325 22.1176C20.3325 22.568 20.6966 22.9332 21.1457 22.9332Z" fill="white"/>
<path d="M22.1181 24.115C22.3701 24.115 22.5743 23.9102 22.5743 23.6574C22.5743 23.4047 22.3701 23.1999 22.1181 23.1999C21.8662 23.1999 21.6619 23.4047 21.6619 23.6574C21.6619 23.9102 21.8662 24.115 22.1181 24.115Z" fill="white"/>
<path d="M32.6342 27.5446C34.1083 27.5446 35.3033 26.346 35.3033 24.8675C35.3033 23.3889 34.1083 22.1903 32.6342 22.1903C31.1601 22.1903 29.9651 23.3889 29.9651 24.8675C29.9651 26.346 31.1601 27.5446 32.6342 27.5446Z" fill="#161417"/>
<path d="M32.9714 25.6C33.4211 25.6 33.7857 25.2344 33.7857 24.7834C33.7857 24.3324 33.4211 23.9668 32.9714 23.9668C32.5218 23.9668 32.1573 24.3324 32.1573 24.7834C32.1573 25.2344 32.5218 25.6 32.9714 25.6Z" fill="white"/>
<path d="M33.9439 26.7808C34.1959 26.7808 34.4002 26.576 34.4002 26.3233C34.4002 26.0705 34.1959 25.8656 33.9439 25.8656C33.6919 25.8656 33.4877 26.0705 33.4877 26.3233C33.4877 26.576 33.6919 26.7808 33.9439 26.7808Z" fill="white"/>
<path d="M21.7943 11.6208C21.7943 11.6208 16.3723 2.91389 13.8274 3.30508C11.2814 3.69627 2.74748 10.7045 3.31027 12.7632C3.87306 14.8209 4.6686 22.2422 8.01222 24.6859C11.3548 27.1306 21.7198 13.7771 21.7943 11.6208Z" fill="#705742"/>
<path d="M8.44669 25.5065C8.16219 25.4422 7.90048 25.324 7.66977 25.1559C4.77721 23.0401 3.72821 17.7294 3.10232 14.5542C2.96783 13.8735 2.85193 13.2851 2.75055 12.9157C2.60571 12.3855 2.79402 11.7266 3.32888 10.9017C5.22518 7.96928 11.452 3.08195 13.7394 2.73018C13.9618 2.69698 14.1998 2.7073 14.447 2.76229C17.291 3.40356 21.7839 10.5042 22.2867 11.3115C22.3477 11.409 22.3778 11.5221 22.3737 11.6384C22.3105 13.4937 16.9878 20.5663 12.8652 23.7613C11.0196 25.1911 9.57537 25.7597 8.44669 25.5065ZM14.1925 3.89646C14.086 3.87467 13.9939 3.86744 13.9142 3.87886C12.0842 4.16006 6.12933 8.70701 4.30027 11.5325C3.80473 12.3004 3.85959 12.5795 3.86787 12.6086C3.9796 13.0195 4.0944 13.5964 4.2382 14.329C4.79271 17.1379 5.82519 22.3687 8.35153 24.2147C8.45602 24.2915 8.56979 24.3423 8.70014 24.3724C9.43984 24.5374 10.6658 23.9947 12.1555 22.8398C16.3702 19.5754 20.827 13.2177 21.1912 11.7484C19.8008 9.55063 16.1488 4.33746 14.1925 3.89646Z" fill="#3A2F27"/>
<path d="M36.2581 14.8789C36.2581 14.8789 44.8727 9.33794 47.007 10.7855C49.1412 12.233 53.8628 22.2276 52.4766 23.8473C51.0892 25.4671 47.2046 31.8321 43.1409 32.6062C39.0762 33.3782 35.4046 16.8598 36.2581 14.8789Z" fill="#705742"/>
<path d="M42.3961 33.1603C41.2684 32.9061 40.2059 31.7699 39.1486 29.6873C36.7857 25.0303 34.9919 16.3525 35.7264 14.6497C35.7719 14.5418 35.8474 14.4535 35.9447 14.3913C36.7433 13.8756 43.8331 9.38775 46.677 10.029C46.9242 10.0861 47.1435 10.1784 47.3308 10.305C49.2488 11.6042 52.7901 18.6934 53.2535 22.1571C53.3839 23.1314 53.2742 23.809 52.9152 24.2261C52.6669 24.5177 52.3121 24.9981 51.9003 25.5564C49.9802 28.1557 46.7659 32.5076 43.2495 33.1769C42.9671 33.2308 42.6806 33.2246 42.3961 33.1603ZM36.7475 15.2567C36.4495 16.7415 37.7655 24.3984 40.1811 29.1591C41.0346 30.8422 41.9119 31.8601 42.6505 32.0261C42.7819 32.0562 42.9061 32.0583 43.0323 32.0344C46.1038 31.4502 49.2685 27.1668 50.9682 24.8643C51.412 24.2656 51.7607 23.7924 52.0369 23.4697C52.0576 23.4458 52.2272 23.2186 52.1041 22.3106C51.6583 18.9725 48.2143 12.3056 46.6822 11.2648C46.616 11.2223 46.5291 11.186 46.4235 11.1621C44.4662 10.7211 38.9417 13.8672 36.7475 15.2567Z" fill="#3A2F27"/>
<path d="M42.483 22.4765C41.0481 19.8679 35.6871 19.017 32.6518 19.2256C30.9841 19.3408 30.0385 19.8419 29.394 20.9211C28.9099 20.4531 28.2705 20.0951 27.5298 19.9281C26.7891 19.7631 26.0587 19.8108 25.4214 20.0266C25.3003 18.7742 24.6589 17.915 23.2013 17.0963C20.5467 15.6042 15.3367 14.0726 12.9273 15.8138C9.3757 18.3788 8.68676 24.5446 12.4183 26.4311C14.4264 27.4449 20.6015 27.4625 23.1992 25.0302C24.3113 23.9905 25.0831 22.7951 25.3428 21.469C25.8331 21.1442 26.5283 21.0145 27.2505 21.1774C27.9726 21.3403 28.5467 21.7554 28.8499 22.2597C28.5198 23.5702 28.7071 24.9804 29.2678 26.3978C30.5786 29.711 36.1671 32.3457 38.4152 32.2896C42.5905 32.189 44.5976 26.32 42.483 22.4765Z" fill="#161417"/>
<path d="M41.6408 28.4835C41.6294 28.4824 41.6191 28.4794 41.6087 28.4773C41.3015 28.388 41.1225 28.0674 41.2094 27.7592C41.2156 27.7395 41.7918 25.5936 40.6901 23.8483C39.3141 21.6682 37.1934 21.4845 37.1044 21.4773C36.7868 21.4534 36.5457 21.1753 36.5674 20.8568C36.5902 20.5372 36.8644 20.2964 37.183 20.3172C37.2958 20.3244 39.969 20.532 41.6688 23.2257C43.053 25.4172 42.3546 27.9678 42.3246 28.0757C42.2398 28.3745 41.9377 28.553 41.6408 28.4835Z" fill="white"/>
<path d="M22.9975 23.4944C22.9354 23.4799 22.8754 23.457 22.8185 23.4217C22.5464 23.2536 22.4626 22.8936 22.6312 22.6217C22.6395 22.6093 23.4837 21.2115 23.1889 19.8958C22.9613 18.8841 20.9739 18.0591 20.2953 17.8506C19.9901 17.7572 19.8173 17.4324 19.9115 17.1253C20.0056 16.8192 20.3336 16.6479 20.6336 16.7403C20.9667 16.842 23.9037 17.7904 24.3196 19.6406C24.72 21.4264 23.6606 23.1633 23.6162 23.236C23.4817 23.4518 23.2302 23.5473 22.9975 23.4944Z" fill="white"/>
<path d="M17.0272 34.2674C17.2471 34.2674 17.4255 34.0885 17.4255 33.8679C17.4255 33.6473 17.2471 33.4684 17.0272 33.4684C16.8072 33.4684 16.6289 33.6473 16.6289 33.8679C16.6289 34.0885 16.8072 34.2674 17.0272 34.2674Z" fill="#705742"/>
<path d="M17.2693 36.3624C17.4887 36.3624 17.6666 36.184 17.6666 35.9639C17.6666 35.7438 17.4887 35.5655 17.2693 35.5655C17.0499 35.5655 16.872 35.7438 16.872 35.9639C16.872 36.184 17.0499 36.3624 17.2693 36.3624Z" fill="#705742"/>
<path d="M15.6295 35.8872C15.9312 35.8872 16.1757 35.6419 16.1757 35.3393C16.1757 35.0367 15.9312 34.7914 15.6295 34.7914C15.3278 34.7914 15.0833 35.0367 15.0833 35.3393C15.0833 35.6419 15.3278 35.8872 15.6295 35.8872Z" fill="#705742"/>
<path d="M31.0741 37.4342C31.2935 37.4342 31.4714 37.2558 31.4714 37.0357C31.4714 36.8157 31.2935 36.6373 31.0741 36.6373C30.8547 36.6373 30.6769 36.8157 30.6769 37.0357C30.6769 37.2558 30.8547 37.4342 31.0741 37.4342Z" fill="#705742"/>
<path d="M29.961 39.2242C30.1804 39.2242 30.3582 39.0458 30.3582 38.8257C30.3582 38.6056 30.1804 38.4273 29.961 38.4273C29.7415 38.4273 29.5637 38.6056 29.5637 38.8257C29.5637 39.0458 29.7415 39.2242 29.961 39.2242Z" fill="#705742"/>
<path d="M31.7103 39.5127C32.012 39.5127 32.2566 39.2674 32.2566 38.9648C32.2566 38.6622 32.012 38.4169 31.7103 38.4169C31.4087 38.4169 31.1641 38.6622 31.1641 38.9648C31.1641 39.2674 31.4087 39.5127 31.7103 39.5127Z" fill="#705742"/>
</svg>
