<svg width="74" height="62" viewBox="0 0 74 62" fill="none" xmlns="http://www.w3.org/2000/svg">
<path opacity="0.66" d="M3.74971 39.2807C4.57782 43.0657 5.29516 46.3344 8.58729 47.512C9.9651 48.0051 11.4608 47.9275 12.7919 47.2953C12.864 47.262 12.9361 47.2268 13.0063 47.1895C15.4967 54.84 21.2335 57.7387 23.9394 58.7066C24.9067 59.0525 25.7399 59.2531 26.3312 59.367C26.5741 59.4658 26.8688 59.5798 27.2072 59.6998C32.3415 61.5368 38.7834 61.8967 43.9644 58.6975C44.6056 59.8792 45.6389 60.7705 46.909 61.2243C50.2032 62.4029 52.8572 60.34 55.937 57.9434C56.951 57.1559 57.9997 56.3393 58.9467 55.7233C64.3522 52.1994 68.7417 47.2479 72.7593 40.1418C74.4298 37.1876 74.4136 33.3915 72.7096 28.8595C70.1165 21.954 63.0709 12.7497 57.5231 10.7645C57.2691 10.6737 57.011 10.5961 56.7509 10.5316C53.6904 7.97263 50.2073 5.8684 47.2444 4.80672C46.8126 4.65346 46.3878 4.51938 45.9794 4.40847C45.5943 4.23404 45.1817 4.0687 44.7498 3.91444C41.7747 2.84973 37.7308 2.26493 33.7172 2.30022C33.4449 2.16713 33.1644 2.04816 32.8728 1.9433C27.325 -0.0419413 15.9794 2.58355 9.54347 6.2566C5.31654 8.66732 2.86168 11.5791 2.24797 14.9114C0.770574 22.9259 0.964612 29.5169 2.86063 35.6541C3.19188 36.7288 3.47435 38.0204 3.74971 39.2807Z" fill="#075C54"/>
<path d="M56.252 9.50318C55.998 9.41244 55.7399 9.33479 55.4797 9.27026C52.4193 6.71132 48.9362 4.60713 45.9733 3.54545C45.5414 3.39219 45.1167 3.25808 44.7082 3.14717C44.3231 2.97274 43.9105 2.8074 43.4787 2.65314C40.5036 1.58843 36.4596 1.00363 32.4461 1.03892C32.1738 0.905833 31.8933 0.786856 31.6017 0.681998C26.0538 -1.30324 14.7082 1.32225 8.27227 4.9953C4.04534 7.40602 1.59048 10.3178 0.976763 13.6501C-0.500629 21.6646 -0.306529 28.2556 1.58949 34.3928C1.92175 35.4666 2.20424 36.7591 2.48062 38.0194C3.30873 41.8044 4.02607 45.0731 7.3182 46.2508C8.69601 46.7438 10.1917 46.6661 11.5228 46.034C11.5949 46.0007 11.6671 45.9654 11.7372 45.9281C14.2276 53.5787 19.9644 56.4775 22.6702 57.4454C23.6375 57.7912 24.4707 57.9918 25.0621 58.1057C25.3049 58.2046 25.5997 58.3185 25.938 58.4385C31.0723 60.2755 37.5143 60.6354 42.6953 57.4363C43.3364 58.6179 44.3699 59.5092 45.64 59.9629C48.9341 61.1416 51.5882 59.0787 54.6679 56.6821C55.682 55.8947 56.7305 55.078 57.6775 54.4619C63.0831 50.9381 67.4726 45.9866 71.4902 38.8805C73.1606 35.9263 73.1444 32.1303 71.4405 27.5982C68.8464 20.6927 61.7998 11.4894 56.252 9.50318Z" fill="white"/>
<path d="M59.8662 26.3327C60.55 17.8402 48.4688 9.02413 43.0103 7.82028C38.0346 5.29059 23.0625 4.42754 18.1274 11.3986C13.1922 18.3696 14.5954 27.8703 15.6105 39.9551C16.652 52.3586 26.4725 53.3286 26.4725 53.3286C26.4725 53.3286 37.6291 58.6289 43.435 49.9116C50.1747 39.7948 59.1814 34.8252 59.8662 26.3327Z" fill="#F3C26B"/>
<path d="M24.0603 53.617C20.9084 52.4898 15.5069 49.2251 14.7346 40.0268C14.6422 38.9198 14.5456 37.8338 14.4521 36.7701C13.497 25.998 12.741 17.4894 17.4079 10.8975C22.3207 3.95874 36.0856 4.33482 42.0876 6.48239C42.5347 6.6427 42.9473 6.8141 43.3111 6.99458C43.7074 7.08633 44.1341 7.21436 44.5822 7.37568C50.5832 9.52224 61.4228 17.9502 60.741 26.4033C60.2929 31.984 56.5091 36.0523 52.1277 40.7638C49.5733 43.5113 46.6784 46.6247 44.1687 50.3926C39.0567 58.0694 29.985 55.5629 27.3269 54.6121L27.326 54.6111C26.7976 54.4225 26.4165 54.2602 26.2275 54.1766C25.9003 54.1292 25.0957 53.987 24.0603 53.617ZM41.4913 8.12381C36.0826 6.18797 23.1875 5.76754 18.8467 11.9007C14.5497 17.9714 15.2792 26.1997 16.2018 36.6169C16.2973 37.6846 16.3929 38.7735 16.4864 39.8836C17.1773 48.1089 21.901 50.9905 24.6556 51.9766C25.7693 52.3748 26.5548 52.4595 26.5619 52.4605L26.7112 52.4766L26.8504 52.5412C26.8555 52.5432 27.2528 52.7307 27.9224 52.9687C30.9392 54.0485 38.4176 55.8644 42.7025 49.4297C45.2904 45.5439 48.2361 42.376 50.8363 39.5791C55.1668 34.922 58.5879 31.2429 58.9883 26.2632C59.6376 18.2113 47.7189 9.75112 42.8193 8.67129L42.7095 8.6471L42.6089 8.59569C42.2868 8.43235 41.9109 8.27303 41.4913 8.12381Z" fill="#111D32"/>
<path d="M32.826 46.9352C31.0845 46.3121 30.2849 44.9711 29.9811 43.6725C28.8756 44.5084 27.3403 45.0457 25.5093 44.3138C21.7711 42.8165 22.3127 40.2243 22.3381 40.1154C22.4448 39.6456 22.9152 39.3502 23.3887 39.4571C23.8642 39.566 24.1599 40.0298 24.0532 40.4996C24.0492 40.5278 23.8723 41.777 26.1666 42.6965C28.5036 43.6493 29.9485 41.1691 30.0085 41.0642C30.2208 40.6982 30.669 40.5338 31.0703 40.677C31.0703 40.677 31.0723 40.6781 31.0733 40.6781C31.4747 40.8243 31.7135 41.2336 31.6383 41.651C31.617 41.7659 31.1435 44.5789 33.5475 45.3371C35.9049 46.0812 36.5723 45.0095 36.5998 44.9631C36.8406 44.5578 37.366 44.4015 37.7867 44.6283C38.2033 44.8552 38.3698 45.3553 38.1554 45.7757C38.1036 45.8766 36.8549 48.2137 33.0131 46.9997C32.9501 46.9786 32.887 46.9564 32.826 46.9352Z" fill="#111D32"/>
<path d="M32.755 36.0392C32.755 36.0392 28.7526 34.4905 27.8096 37.0827C27.1106 39.0075 28.9111 40.9877 29.8835 41.878C30.2503 42.2148 30.7126 42.3801 31.2115 42.3528C32.5324 42.2843 35.1926 41.9002 35.8917 39.9744C36.8336 37.3822 32.755 36.0392 32.755 36.0392Z" fill="#111D32"/>
<path d="M26.3627 29.3241C28.1046 29.3241 29.5167 27.923 29.5167 26.1946C29.5167 24.4661 28.1046 23.065 26.3627 23.065C24.6209 23.065 23.2088 24.4661 23.2088 26.1946C23.2088 27.923 24.6209 29.3241 26.3627 29.3241Z" fill="#111D32"/>
<path d="M26.3181 28.8362C26.7653 28.8362 27.1279 28.4765 27.1279 28.0327C27.1279 27.5889 26.7653 27.229 26.3181 27.229C25.8708 27.229 25.5082 27.5889 25.5082 28.0327C25.5082 28.4765 25.8708 28.8362 26.3181 28.8362Z" fill="#F3F2E6"/>
<path d="M44.0071 35.6378C45.749 35.6378 47.161 34.2366 47.161 32.5082C47.161 30.7797 45.749 29.3786 44.0071 29.3786C42.2652 29.3786 40.8531 30.7797 40.8531 32.5082C40.8531 34.2366 42.2652 35.6378 44.0071 35.6378Z" fill="#111D32"/>
<path d="M43.9634 35.1498C44.4107 35.1498 44.7732 34.79 44.7732 34.3462C44.7732 33.9024 44.4107 33.5426 43.9634 33.5426C43.5162 33.5426 43.1536 33.9024 43.1536 34.3462C43.1536 34.79 43.5162 35.1498 43.9634 35.1498Z" fill="#F3F2E6"/>
<path d="M30.8355 5.8552C30.8355 5.8552 19.495 14.7782 11.7199 37.0302C8.24281 46.9806 8.0691 38.5053 6.35191 32.9458C4.63472 27.3863 4.59406 21.4982 5.87636 14.5403C7.15867 7.58234 27.5739 2.83247 30.8355 5.8552Z" fill="#C78E6A"/>
<path d="M8.70818 42.4233C7.60065 42.026 7.20541 40.433 6.48704 37.1552C6.19542 35.8203 5.89365 34.44 5.51058 33.2009C3.81473 27.7109 3.65622 21.732 5.01066 14.3829C5.39779 12.2827 7.18306 10.3116 10.3157 8.52398C16.2547 5.13526 26.2946 3.10968 30.2096 4.51115C30.7116 4.69061 31.123 4.92856 31.435 5.21592L32.1788 5.90656L31.3811 6.53672C31.2704 6.62444 20.1351 15.6019 12.55 37.3145C11.1793 41.2356 10.3969 42.0573 9.75577 42.3608C9.41335 42.5241 9.0506 42.5453 8.70818 42.4233ZM29.2769 6.04973C25.8466 5.13626 16.9629 6.74342 11.1925 10.0364C8.56492 11.5356 7.02553 13.1468 6.74001 14.6965C5.43738 21.7603 5.58068 27.478 7.19118 32.6897C7.59457 33.9994 7.9197 35.4805 8.20522 36.7861C8.49379 38.1039 8.87178 39.8311 9.21319 40.5479C9.49566 40.1588 10.0362 39.1818 10.8877 36.7449C17.3988 18.1134 26.2876 8.79922 29.2769 6.04973Z" fill="#111D32"/>
<path d="M53.5157 13.9697C53.5157 13.9697 56.508 28.0206 48.1822 50.076C44.4593 59.9377 50.0437 53.5242 54.9412 50.3321C59.8388 47.139 63.6562 42.6321 67.1454 36.4627C70.6326 30.2932 57.9712 13.7095 53.5157 13.9697Z" fill="#C78E6A"/>
<path d="M47.03 56.1356C46.6885 56.0126 46.4224 55.7676 46.2639 55.4248C45.9652 54.7846 45.8919 53.6563 47.3581 49.7716C55.5001 28.2021 52.6845 14.2883 52.656 14.1501L52.4447 13.1601L53.4639 13.0996C53.8886 13.0754 54.358 13.154 54.861 13.3325C58.776 14.7339 65.2027 22.6507 67.5946 29.0198C68.8576 32.3813 68.9632 35.0289 67.9116 36.8912C64.2283 43.4065 60.2594 47.9093 55.4238 51.0621C54.3315 51.7729 53.2119 52.6451 52.1287 53.4869C49.4676 55.5549 48.1395 56.5309 47.03 56.1356ZM54.5907 15.106C55.1231 19.1158 55.9767 31.9165 49.0053 50.3815C48.0939 52.7973 47.8805 53.8912 47.848 54.3701C48.5724 54.0344 49.9746 52.9435 51.0436 52.1127C52.1044 51.289 53.3064 50.3533 54.4586 49.6021C59.0513 46.6087 62.8382 42.2984 66.3783 36.0362C67.1556 34.662 67.0063 32.4458 65.9475 29.6288C63.6227 23.4401 57.8178 16.575 54.5907 15.106Z" fill="#111D32"/>
<path d="M64.2181 29.4545C64.2181 29.4545 56.0569 22.6326 38.6117 19.7188C23.3064 10.9158 12.6364 10.9995 12.6364 10.9995L11.2433 14.5173L13.9441 16.6315C13.3294 19.2802 12.4972 27.934 21.8066 30.0029C31.116 32.0719 33.5282 23.5239 34.5768 22.8666C35.6244 22.2092 37.5041 22.7667 37.5041 22.7667C37.5041 22.7667 39.3097 23.528 39.6938 24.6975C40.0779 25.8671 36.4383 33.9754 44.9358 38.2786C53.4334 42.5829 58.3593 35.393 59.5887 32.9642L63.0282 33.0479L64.2181 29.4545Z" fill="#F05A28"/>
<path d="M46.2557 39.7989C46.2547 39.7979 46.2537 39.7979 46.2537 39.7979C45.6878 39.5952 45.1096 39.3452 44.5365 39.0548C37.1688 35.3243 38.2449 28.7949 38.7032 26.0081C38.7692 25.6048 38.8515 25.1068 38.8454 24.9313C38.629 24.3687 37.684 23.8041 37.2064 23.5893C36.7025 23.4512 35.6102 23.2889 35.0819 23.5843C34.963 23.7154 34.7069 24.1509 34.4975 24.5038C33.0577 26.9408 29.6864 32.6474 21.6146 30.8538C20.9867 30.7136 20.3801 30.5402 19.8151 30.3386C11.7525 27.454 12.5572 19.3416 12.9768 16.9853L10.6998 15.2017C10.396 14.9638 10.2842 14.5554 10.4264 14.1985L11.8195 10.6807C11.9516 10.35 12.2717 10.1302 12.6314 10.1272C12.8519 10.1252 18.1284 10.1191 26.5884 13.1459C30.669 14.6058 34.8146 16.5367 38.9155 18.8859C43.5834 19.6733 48.0186 20.8136 52.0982 22.2736C60.5562 25.2993 64.6164 28.6467 64.7851 28.7879C65.0594 29.0177 65.1661 29.3898 65.0543 29.7275L63.8645 33.3189C63.7446 33.6849 63.3962 33.9279 63.009 33.9199L60.1081 33.8493C58.9132 35.9283 54.3143 42.6815 46.2557 39.7989ZM37.8019 21.9449C37.8182 21.9509 37.8323 21.957 37.8476 21.963C38.0701 22.0568 40.0362 22.9229 40.5301 24.4272C40.6733 24.8628 40.585 25.4001 40.4387 26.2894C39.9743 29.1065 39.1106 34.3494 45.3361 37.5012C45.8442 37.7593 46.3533 37.98 46.8512 38.1565C54.3581 40.8445 58.3705 33.4268 58.8044 32.5718C58.9568 32.2703 59.2707 32.0838 59.6101 32.0909L62.3973 32.1574L63.1878 29.7689C61.9237 28.8433 58.0637 26.2612 51.5008 23.914C47.473 22.4722 43.0876 21.35 38.4654 20.5777C38.3607 20.5595 38.2621 20.5243 38.1707 20.4729C34.1155 18.1408 30.0177 16.2261 25.9899 14.7853C19.426 12.4371 14.7946 11.9804 13.2268 11.8916L12.2991 14.2318L14.4877 15.9438C14.755 16.1525 14.8759 16.4963 14.7997 16.825C14.5832 17.7576 12.8996 26.0071 20.4105 28.6941C20.9063 28.8715 21.4408 29.0248 21.9976 29.1488C28.8176 30.6632 31.5245 26.0807 32.9806 23.6186C33.4399 22.8412 33.7171 22.3714 34.1073 22.1274C35.4536 21.2815 37.5235 21.8592 37.7562 21.9288C37.7724 21.9348 37.7877 21.9398 37.8019 21.9449Z" fill="#111D32"/>
<path d="M17.2169 14.2973C17.2169 14.2973 26.8494 16.0758 32.8463 19.89C32.8463 19.89 30.5195 30.278 21.3798 27.6555C12.24 25.0341 17.2169 14.2973 17.2169 14.2973Z" fill="#111D32"/>
<path d="M58.5707 29.0934C58.5707 29.0934 50.0113 24.3617 42.9413 23.5006C42.9413 23.5006 38.0509 32.9711 46.773 36.7409C55.4951 40.5108 58.5707 29.0934 58.5707 29.0934Z" fill="#111D32"/>
</svg>
