<svg width="38" height="39" viewBox="0 0 38 39" fill="none" xmlns="http://www.w3.org/2000/svg">
<path d="M34.6729 4.82842C32.3383 2.4673 29.1914 1.16712 25.8095 1.16712C24.942 1.16712 24.0672 1.2558 23.2107 1.43087C21.0291 1.87439 19.0164 2.88399 17.389 4.34758C14.4819 6.9643 13.1372 10.7505 13.6768 14.4503C12.7102 14.6709 11.7779 15.0047 10.8945 15.447L9.67335 14.8086L7.34617 10.7505L5.01899 14.8086L0.764713 17.0285L5.01899 19.2484L5.68337 20.4085C5.39461 20.9372 5.14501 21.4893 4.94313 22.0589C3.89699 25.0035 4.11723 28.1677 5.56346 30.9629C7.01092 33.7594 9.5094 35.8486 12.5976 36.8465C13.8775 37.2608 15.205 37.4709 16.5411 37.4709C19.3908 37.4709 22.1792 36.4952 24.3926 34.7235C24.4697 34.6616 24.5443 34.5986 24.619 34.5367L25.3812 34.9336L27.4307 38.5085L29.4789 34.9336L33.2242 32.9798L29.4789 31.026L28.2921 28.9566C28.757 27.3833 28.8696 25.7657 28.6285 24.1691C28.8121 24.1282 28.9956 24.0827 29.1791 24.0325L30.3868 26.1392L32.3934 22.6378C32.539 22.5491 32.6821 22.458 32.8229 22.3646L36.1864 20.607L35.3018 20.1483C39.0764 15.684 38.9124 9.11648 34.6729 4.82842ZM31.4402 18.5563C31.2347 18.7407 31.0157 18.9193 30.7881 19.085L30.6021 19.2145C30.3807 19.3674 30.147 19.511 29.9084 19.6429L29.5976 19.8133L29.2599 19.9638C28.6995 20.2124 28.1122 20.3992 27.5176 20.5229C27.0526 20.6163 26.5754 20.6735 26.0982 20.6933L23.4199 20.8007L24.3057 23.2143C24.92 24.888 24.9298 26.6539 24.3351 28.3276C23.8506 29.6908 22.9868 30.8964 21.8366 31.8173C20.3378 33.0159 18.4572 33.6777 16.5411 33.6777C15.6394 33.6777 14.7425 33.5342 13.8738 33.2541C11.7913 32.5818 10.1053 31.1707 9.12888 29.2834C8.15249 27.3962 8.00322 25.2627 8.7092 23.2774C9.19373 21.9141 10.0575 20.7085 11.2089 19.7876C12.638 18.6438 14.3608 18.0031 16.19 17.9342L18.8683 17.8338L17.9923 15.4179C16.929 12.4883 17.7634 9.2262 20.1188 7.10902C21.2163 6.11929 22.5732 5.44118 24.0427 5.1424C24.6275 5.02218 25.2222 4.96263 25.8107 4.96263C28.0853 4.96263 30.2057 5.83916 31.7816 7.43346C34.9017 10.5894 34.7487 15.5789 31.4402 18.5563Z" fill="#6B5951"/>
<path d="M33.9081 3.6613C31.5736 1.30018 28.4267 0 25.0448 0C24.1773 0 23.3024 0.0886822 22.446 0.263753C20.2644 0.707265 18.2516 1.71687 16.6243 3.18045C13.7172 5.79601 12.3725 9.58334 12.9121 13.2832C11.9455 13.5038 11.0131 13.8376 10.1297 14.2799L8.90864 13.6415L6.58145 9.58336L4.25427 13.6415L0 15.8614L4.25427 18.0813L4.91866 19.2414C4.6299 19.7701 4.3803 20.3222 4.17841 20.8917C3.13228 23.8364 3.35252 27.0005 4.79875 29.7958C6.24621 32.5923 8.74469 34.6815 11.8329 35.6794C13.1127 36.0937 14.4403 36.3038 15.7764 36.3038C18.6261 36.3038 21.4145 35.3281 23.6279 33.5564C23.705 33.4945 23.7796 33.4315 23.8543 33.3696L24.6165 33.7664L26.666 37.3414L28.7142 33.7664L32.4595 31.8126L28.7142 29.8589L27.5274 27.7895C27.9923 26.2162 28.1049 24.5986 27.8638 23.0019C28.0474 22.9611 28.2309 22.9156 28.4144 22.8654L29.6221 24.9721L31.6287 21.4706C31.7743 21.3819 31.9174 21.2909 32.0581 21.1975L35.4217 19.4398L34.537 18.9811C38.3117 14.5168 38.1477 7.94936 33.9081 3.6613ZM30.6755 17.3892C30.47 17.5736 30.251 17.7521 30.0234 17.9179L29.8374 18.0474C29.6159 18.2003 29.3822 18.3439 29.1437 18.4758L28.8329 18.6462L28.4952 18.7967C27.9348 19.0453 27.3475 19.2321 26.7528 19.3558C26.2879 19.4491 25.8107 19.5063 25.3335 19.5262L22.6552 19.6336L23.541 22.0472C24.1553 23.7209 24.165 25.4868 23.5704 27.1604C23.0859 28.5237 22.2221 29.7293 21.0719 30.6502C19.5731 31.8488 17.6925 32.5106 15.7764 32.5106C14.8747 32.5106 13.9778 32.367 13.1091 32.0869C11.0266 31.4147 9.34055 30.0036 8.36416 28.1163C7.38777 26.2291 7.2385 24.0955 7.94449 22.1102C8.42901 20.747 9.29284 19.5413 10.4442 18.6205C11.8733 17.4767 13.596 16.8359 15.4253 16.7671L18.1036 16.6667L17.2275 14.2507C16.1643 11.3212 16.9987 8.05908 19.3541 5.9419C20.4516 4.95333 21.8085 4.27406 23.278 3.97527C23.8628 3.85506 24.4575 3.79551 25.046 3.79551C27.3206 3.79551 29.441 4.6732 31.0169 6.26634C34.1369 9.42228 33.984 14.4118 30.6755 17.3892Z" fill="white"/>
<path d="M7.06963 21.8266C5.44354 26.4041 8.01421 31.3714 12.813 32.9237C17.6117 34.4737 22.8203 32.0215 24.4464 27.444C26.0725 22.8665 23.5019 17.8991 18.7031 16.3468C13.9044 14.7969 8.69572 17.2502 7.06963 21.8266ZM19.1032 23.2084L17.5163 27.6739L12.4239 26.0283L14.0108 21.5628L19.1032 23.2084Z" fill="#FB921D"/>
<path d="M25.3144 27.7243C23.5281 32.7534 17.7884 35.4542 12.5186 33.7513C7.24876 32.0485 4.41503 26.5734 6.20018 21.5442C7.98656 16.5174 13.7274 13.8167 18.996 15.5195C24.2671 17.2224 27.1008 22.6986 25.3144 27.7243ZM7.93884 22.108C6.47793 26.2198 8.79655 30.6993 13.1083 32.0952C17.4201 33.4876 22.1173 31.277 23.5782 27.164C25.0391 23.0522 22.7205 18.5704 18.4087 17.1768C14.0957 15.7821 9.39976 17.995 7.93884 22.108Z" fill="#FFC994"/>
<path d="M18.7374 17.2222C18.1941 17.0472 17.6447 16.9351 17.0966 16.8733C17.5346 16.9421 17.9727 17.0355 18.407 17.1767C22.7188 18.5691 25.0374 23.0509 23.5765 27.1639C23.4297 27.5771 23.2412 27.9669 23.0332 28.3404C23.3159 27.8887 23.5545 27.4032 23.7392 26.8861C25.1524 22.9074 22.9084 18.5714 18.7374 17.2222Z" fill="#FFC994"/>
<path d="M19.3075 15.6198C19.2549 15.6011 19.2011 15.5929 19.1485 15.5766C24.2654 17.318 27.0196 22.6389 25.3592 27.5736C25.3788 27.5257 25.402 27.4779 25.4204 27.4277C27.148 22.5654 24.4061 17.2678 19.3075 15.6198Z" fill="#FB921D"/>
<path d="M13.6095 31.6562C9.43843 30.307 7.19445 25.9734 8.60887 21.9935C9.83853 18.5329 13.437 16.4659 17.0978 16.8732C13.1837 16.2558 9.25245 18.4068 7.93836 22.1067C6.47745 26.2185 8.79607 30.698 13.1079 32.0938C16.9853 33.3474 21.1673 31.6795 23.0345 28.3392C21.1465 31.3597 17.2385 32.828 13.6095 31.6562Z" fill="#F9681E"/>
<path d="M18.8641 15.9781C13.9466 14.476 8.63888 17.011 6.97485 21.6924C5.2937 26.4251 7.96103 31.5792 12.9213 33.1816C17.8314 34.7701 23.1673 32.2899 24.9072 27.6517C26.5235 22.8501 23.8439 17.6739 18.8641 15.9781ZM23.33 26.9807C23.1514 27.4849 22.9189 27.9564 22.6436 28.3964C20.8278 31.6445 16.7596 33.268 12.9861 32.0483C8.79182 30.6921 6.5356 26.334 7.95614 22.3331C9.23474 18.7336 13.0596 16.641 16.8685 17.2409C17.4019 17.3004 17.9354 17.4101 18.464 17.5805C22.5237 18.8935 24.7065 23.1104 23.33 26.9807Z" fill="#F9681E"/>
<path d="M19.1485 15.5766C14.094 14.0336 8.63702 16.6363 6.92651 21.4508C5.19886 26.3131 7.94082 31.6107 13.0393 33.2587C18.0852 34.8904 23.5704 32.3425 25.358 27.5736C27.0196 22.6389 24.2654 17.318 19.1485 15.5766ZM23.7393 26.885C23.5545 27.402 23.3159 27.8875 23.0333 28.3392C21.1661 31.6784 16.9853 33.3474 13.1066 32.0939C8.79608 30.6992 6.47624 26.2197 7.93716 22.1067C9.25125 18.4069 13.1825 16.2547 17.0966 16.8733C17.6448 16.9351 18.1942 17.046 18.7374 17.2222C22.9085 18.5714 25.1525 22.9074 23.7393 26.885Z" fill="#FB921D"/>
<path d="M22.3493 32.1056C19.5767 34.3231 15.884 34.9896 12.4703 33.8831C7.12345 32.1558 4.24812 26.6002 6.06019 21.501C6.66095 19.8098 7.734 18.31 9.16555 17.1651C11.9369 14.9475 15.6296 14.2811 19.0445 15.3852C24.3901 17.1149 27.2655 22.6705 25.4534 27.7697C24.8526 29.4609 23.7796 30.9618 22.3493 32.1056ZM9.3552 17.3822C7.96647 18.4921 6.92401 19.9487 6.34038 21.5897C4.58092 26.543 7.37306 31.9387 12.5658 33.6194C15.8816 34.6908 19.469 34.043 22.1608 31.8897C23.5496 30.7797 24.592 29.3231 25.1744 27.6821C26.9351 22.7288 24.1418 17.3331 18.949 15.6524C15.6332 14.5798 12.047 15.2253 9.3552 17.3822ZM21.1685 30.7657C18.894 32.5876 15.8632 33.1338 13.0613 32.2293C8.67246 30.8089 6.31224 26.25 7.79885 22.0624C8.29316 20.6746 9.17289 19.4433 10.3475 18.5038C12.6221 16.6842 15.654 16.138 18.4559 17.0449C20.5776 17.7311 22.2954 19.1667 23.2889 21.089C24.2837 23.0101 24.4366 25.1856 23.7172 27.2094C23.2229 28.5972 22.3419 29.8262 21.1685 30.7657ZM10.5359 18.7197C9.40414 19.6242 8.55378 20.8123 8.07782 22.1522C6.6426 26.1917 8.91962 30.5906 13.1543 31.9609C15.8584 32.8339 18.7838 32.3075 20.9789 30.5498C22.1119 29.6429 22.9623 28.4571 23.4382 27.1173C24.132 25.1635 23.9851 23.0661 23.0259 21.2104C22.0654 19.357 20.4087 17.9715 18.3605 17.3074C15.6565 16.4356 12.731 16.962 10.5359 18.7197Z" fill="#A3560A"/>
<path d="M20.4106 22.443L18.0553 29.0747L11.1043 26.8268L13.4609 20.1974L20.4106 22.443ZM16.9064 26.8559L18.0834 23.5389L14.6085 22.4173L13.4303 25.732L16.9064 26.8559Z" fill="#FFC994"/>
<path d="M20.4553 22.402L18.3177 28.4174L12.0091 26.3796L14.1467 20.3618L20.4553 22.402ZM16.9058 26.8558L18.0828 23.5388L14.5321 22.458L13.4296 25.7319L16.9058 26.8558Z" fill="#FB921D"/>
<path d="M18.1464 29.2519L10.9165 26.9153L13.366 20.0198L20.596 22.3565L18.1464 29.2519ZM11.2909 26.7391L17.9629 28.8959L20.224 22.5315L13.552 20.3747L11.2909 26.7391ZM16.9987 27.0332L13.2449 25.8182L14.5174 22.2374L18.2725 23.4524L16.9987 27.0332ZM13.6181 25.6431L16.814 26.6784L17.8968 23.6286L14.7009 22.5934L13.6181 25.6431Z" fill="#A3560A"/>
<path d="M10.0739 23.428C10.4394 23.428 10.7358 23.1453 10.7358 22.7966C10.7358 22.4478 10.4394 22.1651 10.0739 22.1651C9.70827 22.1651 9.41191 22.4478 9.41191 22.7966C9.41191 23.1453 9.70827 23.428 10.0739 23.428Z" fill="#FB921D"/>
<path d="M10.5959 23.3882C10.3769 23.5633 10.0845 23.6158 9.81405 23.5295C9.60972 23.4629 9.44332 23.324 9.34788 23.1396C9.25244 22.9552 9.23776 22.7452 9.3075 22.5491C9.35522 22.4149 9.43965 22.2958 9.55221 22.2048C9.77123 22.032 10.0637 21.9795 10.3341 22.0659C10.7574 22.2024 10.985 22.6424 10.8418 23.0463C10.7929 23.1817 10.7085 23.2995 10.5959 23.3882ZM9.74186 22.4219C9.66967 22.479 9.61584 22.5537 9.58525 22.6413C9.5412 22.7638 9.55099 22.8992 9.61094 23.0148C9.67212 23.1338 9.77735 23.2225 9.90704 23.2634C10.1689 23.3474 10.4723 23.2062 10.5616 22.9552C10.6522 22.6973 10.5078 22.4195 10.2386 22.3331C10.0673 22.2759 9.88134 22.3098 9.74186 22.4219Z" fill="#A3560A"/>
<path d="M21.634 27.192C22.0138 27.192 22.3216 26.8983 22.3216 26.5361C22.3216 26.1738 22.0138 25.8801 21.634 25.8801C21.2542 25.8801 20.9464 26.1738 20.9464 26.5361C20.9464 26.8983 21.2542 27.192 21.634 27.192Z" fill="#FB921D"/>
<path d="M22.1719 27.1452C21.9455 27.325 21.6445 27.3798 21.3655 27.2911C21.1551 27.2199 20.9838 27.0787 20.8847 26.8873C20.7856 26.6982 20.7709 26.4811 20.8431 26.2792C20.8932 26.1427 20.9801 26.0189 21.0976 25.9256C21.3239 25.7458 21.6249 25.691 21.9027 25.782C22.1131 25.8485 22.2844 25.9921 22.3835 26.1835C22.4826 26.3726 22.4973 26.5897 22.4251 26.7916C22.3762 26.9293 22.2881 27.0519 22.1719 27.1452ZM21.286 26.1403C21.2102 26.2022 21.1539 26.2792 21.1221 26.3703C21.0756 26.4998 21.0853 26.641 21.149 26.7648C21.2126 26.8885 21.3239 26.9795 21.4598 27.025C21.7338 27.1114 22.052 26.9655 22.1462 26.7017C22.1927 26.5722 22.1829 26.4333 22.1193 26.3072C22.0544 26.1847 21.9443 26.0925 21.8072 26.0469C21.6274 25.9898 21.4328 26.0236 21.286 26.1403Z" fill="#A3560A"/>
<path d="M18.7203 5.29878C15.0337 8.61461 14.8649 14.1515 18.341 17.6693C21.817 21.1847 27.6228 21.3457 31.3093 18.0299C34.9959 14.7141 35.1647 9.176 31.6874 5.66059C28.2113 2.14517 22.4044 1.98177 18.7203 5.29878ZM28.6701 11.9001L25.0741 15.1342L21.3839 11.4052L24.9799 8.16875L28.6701 11.9001Z" fill="#FB921D"/>
<path d="M31.9387 18.6649C27.8912 22.3076 21.492 22.1302 17.6733 18.2681C13.8547 14.4061 14.0419 8.30425 18.0893 4.66161C22.1368 1.01898 28.536 1.19638 32.3547 5.05843C36.1734 8.92049 35.9862 15.0246 31.9387 18.6649ZM19.3496 5.93614C16.0375 8.91584 15.8857 13.91 19.0082 17.0671C22.1332 20.2265 27.3687 20.3725 30.6809 17.3928C33.993 14.4131 34.1447 9.41888 31.021 6.25944C27.8973 3.10117 22.6605 2.95527 19.3496 5.93614Z" fill="#FFC994"/>
<path d="M31.2885 6.44954C30.8958 6.05038 30.4663 5.70607 30.0124 5.40728C30.366 5.66405 30.7061 5.94299 31.0206 6.26045C34.1443 9.41989 33.9926 14.4141 30.6804 17.3938C30.3476 17.6926 29.9903 17.9528 29.6221 18.1898C30.0943 17.9167 30.5422 17.5945 30.9594 17.2211C34.1639 14.3359 34.3107 9.50394 31.2885 6.44954Z" fill="#FFC994"/>
<path d="M32.5806 5.28709C32.5414 5.24857 32.4998 5.21473 32.4607 5.17738C36.1252 9.00442 35.9441 14.9358 32.052 18.5528C32.0924 18.5166 32.1364 18.4862 32.178 18.45C36.0934 14.9264 36.2745 9.02309 32.5806 5.28709Z" fill="#FB921D"/>
<path d="M19.6673 16.9059C16.6451 13.8492 16.7932 9.0184 19.9977 6.1344C22.7849 3.62623 26.9792 3.40915 30.0124 5.40612C26.8581 3.11153 22.3285 3.2551 19.3492 5.93601C16.037 8.91571 15.8853 13.9099 19.0078 17.067C21.8183 19.9101 26.332 20.3034 29.6208 18.1886C26.4702 20.0152 22.2967 19.5635 19.6673 16.9059Z" fill="#F9681E"/>
<path d="M32.0128 5.40613C28.407 1.88138 22.4716 1.74715 18.7018 5.13885C14.8929 8.56673 14.7167 14.3137 18.3103 17.947C21.8672 21.5441 27.7989 21.7402 31.6164 18.4186C35.402 14.8996 35.5782 9.13046 32.0128 5.40613ZM30.5519 17.1218C30.1457 17.4872 29.7101 17.7988 29.2513 18.0661C26.0505 20.1249 21.6592 19.7397 18.9258 16.9736C15.8877 13.9006 16.0357 9.04295 19.2573 6.14378C22.1547 3.5364 26.5631 3.39633 29.6318 5.62906C30.0735 5.92085 30.4919 6.2558 30.8737 6.64329C33.8126 9.61599 33.6695 14.3184 30.5519 17.1218Z" fill="#F9681E"/>
<path d="M32.4607 5.17739C28.7545 1.5546 22.6539 1.41569 18.779 4.90309C14.8636 8.42551 14.6825 14.3324 18.3764 18.0684C22.0324 21.7635 28.1305 21.9643 32.052 18.5539C35.9441 14.9358 36.1252 9.00443 32.4607 5.17739ZM30.9594 17.2199C30.5422 17.5934 30.0931 17.9155 29.622 18.1886C26.3331 20.3046 21.8195 19.9101 19.009 17.067C15.8865 13.9099 16.0382 8.91572 19.3504 5.93602C22.3297 3.25628 26.8593 3.11271 30.0136 5.40613C30.4675 5.70492 30.897 6.04923 31.2897 6.44839C34.3107 9.50395 34.1639 14.3359 30.9594 17.2199Z" fill="#FB921D"/>
<path d="M27.1676 21.2092C23.6291 21.9293 20.0405 20.8672 17.5665 18.3637C13.6927 14.448 13.8824 8.25396 17.9886 4.5588C19.3504 3.33331 21.0352 2.48946 22.8607 2.11714C26.398 1.39702 29.9879 2.46027 32.4619 4.96261C36.3357 8.87835 36.146 15.0723 32.0398 18.7675C30.678 19.9942 28.9932 20.838 27.1676 21.2092ZM22.9231 2.39493C21.1502 2.75557 19.5143 3.5749 18.1917 4.76421C14.2029 8.35316 14.0194 14.3686 17.7818 18.1734C20.1836 20.6034 23.6707 21.6363 27.1065 20.936C28.8794 20.5731 30.5152 19.7549 31.8379 18.5633C35.8267 14.9755 36.0102 8.96124 32.2478 5.15637C29.8448 2.72756 26.3589 1.69465 22.9231 2.39493ZM26.7822 19.4993C23.8775 20.0899 20.9324 19.2169 18.9013 17.165C15.7226 13.9484 15.878 8.86552 19.2488 5.83329C20.3659 4.82606 21.7485 4.1328 23.2474 3.82934C26.1521 3.23761 29.0972 4.11062 31.127 6.16362C32.665 7.71824 33.475 9.75372 33.4102 11.8966C33.3453 14.0394 32.4105 16.0271 30.7808 17.493C29.6637 18.5014 28.2798 19.1947 26.7822 19.4993ZM23.3086 4.1036C21.8623 4.39772 20.5287 5.06533 19.4507 6.03639C16.1985 8.96357 16.048 13.869 19.1167 16.9713C21.0756 18.9519 23.9191 19.7958 26.721 19.2239C28.1673 18.9298 29.5009 18.2622 30.5789 17.2911C32.1524 15.8754 33.0529 13.9589 33.1165 11.8907C33.1789 9.82374 32.3971 7.85594 30.9129 6.35617C28.954 4.37554 26.1105 3.53404 23.3086 4.1036Z" fill="#A3560A"/>
<path d="M30.2014 11.8081L24.8631 16.6108L19.827 11.5186L25.1653 6.71586L30.2014 11.8081ZM24.9389 14.1388L27.6087 11.7357L25.0907 9.18901L22.4209 11.5922L24.9389 14.1388Z" fill="#FFC994"/>
<path d="M30.2632 11.7904L25.4179 16.1508L20.848 11.5278L25.692 7.16969L30.2632 11.7904ZM24.9383 14.1386L27.6081 11.7355L25.0031 9.19348L22.4214 11.592L24.9383 14.1386Z" fill="#FB921D"/>
<path d="M24.8563 16.8126L19.6183 11.5149L25.1708 6.51842L30.4088 11.8137L24.8563 16.8126ZM20.0355 11.5254L24.8685 16.4134L29.9928 11.8021L25.1585 6.91407L20.0355 11.5254ZM24.9322 14.3359L22.2122 11.5873L25.0949 8.99043L27.8148 11.7414L24.9322 14.3359ZM22.6282 11.599L24.9444 13.9403L27.4001 11.7309L25.0839 9.38725L22.6282 11.599Z" fill="#A3560A"/>
<path d="M20.8962 8.13151C21.2618 8.13151 21.5581 7.84883 21.5581 7.5001C21.5581 7.15138 21.2618 6.86866 20.8962 6.86866C20.5306 6.86866 20.2342 7.15138 20.2342 7.5001C20.2342 7.84883 20.5306 8.13151 20.8962 8.13151Z" fill="#FB921D"/>
<path d="M21.0658 8.25513C20.7868 8.31232 20.503 8.22829 20.3072 8.02988C20.1592 7.88165 20.0808 7.68555 20.087 7.4778C20.0931 7.27005 20.1836 7.07866 20.3402 6.93744C20.4491 6.84173 20.5825 6.77285 20.7257 6.74367C21.0059 6.68882 21.2897 6.77288 21.4855 6.96896C21.7914 7.27942 21.7767 7.76958 21.4524 8.06137C21.3448 8.15824 21.2102 8.22478 21.0658 8.25513ZM20.7881 7.01914C20.6963 7.03782 20.6106 7.08098 20.5421 7.14167C20.4418 7.23271 20.3843 7.3541 20.3818 7.48599C20.3782 7.61554 20.4271 7.74159 20.5213 7.83729C20.711 8.0287 21.0487 8.04038 21.2506 7.85831C21.4573 7.67157 21.4671 7.3611 21.2726 7.16268C21.1478 7.0378 20.9667 6.98296 20.7881 7.01914Z" fill="#A3560A"/>
<path d="M29.2726 16.6259C29.6523 16.6259 29.9602 16.3323 29.9602 15.97C29.9602 15.6077 29.6523 15.3141 29.2726 15.3141C28.8928 15.3141 28.5849 15.6077 28.5849 15.97C28.5849 16.3323 28.8928 16.6259 29.2726 16.6259Z" fill="#FB921D"/>
<path d="M29.4471 16.7484C29.1595 16.8079 28.8671 16.7215 28.6652 16.5161C28.5123 16.3609 28.4315 16.1601 28.4377 15.9465C28.4438 15.7341 28.5368 15.5357 28.6995 15.3898C28.8108 15.2895 28.9491 15.2206 29.0984 15.1914C29.3859 15.1319 29.6796 15.2182 29.8802 15.4237C30.0332 15.5789 30.1139 15.7796 30.109 15.9932C30.1017 16.2057 30.0087 16.4041 29.8472 16.5499C29.7346 16.6503 29.5964 16.718 29.4471 16.7484ZM29.1583 15.4645C29.0617 15.4855 28.9723 15.5287 28.9014 15.5941C28.7962 15.6874 28.7362 15.817 28.7313 15.9547C28.7264 16.0924 28.7802 16.2231 28.8781 16.3235C29.0763 16.5243 29.4299 16.5359 29.6428 16.3445C29.7468 16.2512 29.808 16.124 29.8129 15.9839C29.8166 15.8473 29.764 15.7154 29.6649 15.6151C29.5352 15.4832 29.3455 15.4283 29.1583 15.4645Z" fill="#A3560A"/>
<path d="M6.58143 13.5341L7.44403 15.0385L9.01996 15.8613L7.44403 16.6842L6.58143 18.1886L5.71883 16.6842L4.14168 15.8613L5.71883 15.0385L6.58143 13.5341Z" fill="#F9DEE1"/>
<path d="M29.6208 17.87L30.2057 18.8889L31.2726 19.4445L30.2057 20.0012L29.6208 21.0201L29.0372 20.0012L27.9703 19.4445L29.0372 18.8889L29.6208 17.87Z" fill="#F9DEE1"/>
<path d="M26.6647 30.2381L27.2484 31.2582L28.3153 31.8138L27.2484 32.3705L26.6647 33.3894L26.0811 32.3705L25.0142 31.8138L26.0811 31.2582L26.6647 30.2381Z" fill="#F9DEE1"/>
</svg>
