<svg width="88" height="72" viewBox="0 0 88 72" fill="none" xmlns="http://www.w3.org/2000/svg">
<path opacity="0.66" d="M73.159 12.3601C70.9188 11.7188 68.3875 11.448 65.6217 11.5517C64.0846 11.0393 62.2746 10.4835 60.2262 9.89656C57.8784 9.22505 55.7752 8.67238 54.6683 8.38747C53.331 7.96665 51.3141 7.34545 49.1115 6.71622C47.062 6.12828 45.2326 5.642 43.657 5.26447C41.3721 3.71407 39.0843 2.60467 36.8441 1.96438C21.1688 -2.52373 11.437 15.477 6.20983 25.1469C1.30534 34.2197 0.0198493 42.0966 2.49543 47.9247C4.30747 52.1933 7.98234 55.2277 13.1202 56.6986C14.293 57.0348 15.5602 57.2935 16.8842 57.4677C20.3156 57.9197 23.3958 57.1687 25.7933 55.2971C25.8947 55.2176 25.9952 55.1361 26.0956 55.0525C28.5336 59.3503 32.9958 62.8025 38.3761 64.3438C43.7585 65.8832 49.3864 65.3203 53.7572 62.9716C53.7968 63.0944 53.8373 63.2163 53.8809 63.3371C54.9047 66.1892 57.1093 68.4534 60.2545 69.884C61.469 70.4367 62.6805 70.8867 63.8544 71.223C68.9912 72.6939 73.7292 72.0687 77.5552 69.4139C82.7782 65.7885 85.9194 58.4442 86.6387 48.1733C87.4078 37.2249 88.8343 16.8472 73.159 12.3601Z" fill="#075C54"/>
<path d="M85.3715 46.915C86.1395 35.9666 87.5661 15.5889 71.8908 11.1018C69.6506 10.4605 67.1192 10.1897 64.3535 10.2934C62.8164 9.78093 61.0064 9.22516 58.9579 8.63822C56.6102 7.96672 54.5069 7.41405 53.4 7.12914C52.0628 6.70831 50.0459 6.08711 47.8432 5.45789C45.7938 4.86995 43.9644 4.38367 42.3887 4.00614C40.1039 2.45574 37.8161 1.34634 35.5759 0.706045C19.9006 -3.78206 10.1687 14.2187 4.9416 23.8885C0.0371106 32.9614 -1.24838 40.8382 1.2272 46.6663C3.03925 50.935 6.71411 53.9694 11.852 55.4402C13.0248 55.7765 14.292 56.0352 15.616 56.2094C19.0473 56.6614 22.1276 55.9103 24.5251 54.0388C24.6265 53.9593 24.7269 53.8777 24.8274 53.7942C27.2654 58.092 31.7276 61.5442 37.1079 63.0855C42.4903 64.6248 48.1182 64.062 52.489 61.7133C52.5286 61.8361 52.5691 61.9579 52.6127 62.0788C53.6364 64.9309 55.8411 67.1951 58.9863 68.6257C60.2008 69.1784 61.4123 69.6284 62.5861 69.9647C67.723 71.4355 72.461 70.8103 76.287 68.1555C81.5121 64.5302 84.6522 57.1849 85.3715 46.915Z" fill="white"/>
<path d="M54.933 51.7101C53.2529 57.4919 45.8891 60.4618 38.4867 58.3426C31.0843 56.2244 26.4477 49.8184 28.1289 44.0366C29.81 38.2548 38.3081 31.3807 45.7105 33.4989C53.1119 35.6182 56.6152 45.9283 54.933 51.7101Z" fill="white"/>
<path d="M38.2443 59.1802C30.3894 56.9311 25.4727 50.0288 27.2848 43.796C29.0978 37.5612 38.0982 30.4133 45.9541 32.6624C53.809 34.9105 57.5893 45.7179 55.7773 51.9517C53.9642 58.1856 46.0992 61.4283 38.2443 59.1802ZM45.4671 34.3356C38.5426 32.3523 30.5162 38.9667 28.972 44.2773C27.4278 49.5889 31.8047 55.5237 38.7303 57.506C45.6548 59.4893 52.5459 56.7801 54.0911 51.4695C55.6353 46.1569 52.3927 36.3179 45.4671 34.3356Z" fill="#111D32"/>
<path d="M68.4798 17.6568C67.5667 16.0148 56.2358 12.9604 52.0009 11.867C47.83 10.5532 36.5996 7.14934 34.9449 8.05643C32.9076 9.17292 15.3015 33.1871 17.6319 41.676C19.8174 49.6404 36.8776 48.99 41.8947 46.6242C44.8715 51.2784 58.9599 60.8456 65.085 55.2611C71.6138 49.3071 69.605 19.6784 68.4798 17.6568Z" fill="white"/>
<path d="M34.9449 8.05637C32.9076 9.17286 15.3015 33.187 17.6319 41.6759C17.8694 42.5428 18.2936 43.3018 18.8485 43.9743C21.5067 41.3779 28.6797 32.4672 36.4392 31.6426C44.9455 30.7396 48.8679 16.6903 50.0712 11.269C45.0926 9.74675 36.3866 7.26607 34.9449 8.05637Z" fill="#A0715C"/>
<path d="M68.4798 17.6568C67.6834 16.2262 58.9853 13.7245 53.956 12.3805C52.0628 17.6045 47.8412 31.5681 54.5557 36.8294C60.6787 41.6276 61.9672 52.9597 62.8215 56.5628C63.6524 56.289 64.4184 55.8692 65.0849 55.2601C71.6138 49.3071 69.605 19.6784 68.4798 17.6568Z" fill="#A0715C"/>
<path d="M56.0898 57.1931C56.0888 57.1931 56.0888 57.1931 56.0898 57.1931C50.5014 55.5934 44.1097 51.0388 41.5813 47.7004C37.6498 49.1894 29.7959 49.6646 24.2086 48.0659C20.1381 46.9001 17.5722 44.7697 16.7859 41.9035C14.3285 32.9515 32.1365 8.60013 34.5207 7.29336C35.0737 6.99033 36.2232 6.36013 46.71 9.36328C48.9217 9.99652 50.953 10.6227 52.2669 11.0365C53.5564 11.3677 55.6119 11.9113 57.8237 12.5446C68.3094 15.5457 68.9445 16.6874 69.2489 17.2351C70.5668 19.6019 72.5656 49.6243 65.6806 55.9004C63.4739 57.9109 60.1582 58.3579 56.0898 57.1931ZM42.1383 45.7876C42.3381 45.845 42.5167 45.9718 42.6354 46.1571C44.35 48.8381 50.6334 53.8175 56.5748 55.5189C56.5758 55.5199 56.5758 55.5199 56.5758 55.5199C60.073 56.5216 62.7363 56.2176 64.4915 54.6178C70.6003 49.0495 68.6553 19.8073 67.7108 18.0767C67.5819 17.9005 66.4365 16.8233 57.3347 14.2178C55.1422 13.5896 53.1028 13.051 51.7788 12.7097C50.4304 12.2848 48.4155 11.6637 46.221 11.0365C37.1192 8.43101 35.5719 8.73809 35.3537 8.82567C33.6401 9.7831 16.2978 33.5042 18.4772 41.4455C19.2574 44.2866 22.288 45.703 24.6926 46.3916C30.634 48.093 38.6247 47.199 41.5163 45.8359C41.7182 45.7423 41.9384 45.7292 42.1383 45.7876Z" fill="#111D32"/>
<path d="M44.3876 38.0494C44.3876 38.0494 39.7347 36.6289 39.1432 38.6636C38.7038 40.1747 40.246 44.4897 41.4625 45.2467C41.9221 45.5327 42.4568 45.6857 42.9996 45.6877C44.4363 45.6897 48.0572 42.8537 48.4976 41.3426C49.0881 39.3069 44.3876 38.0494 44.3876 38.0494Z" fill="#111D32"/>
<path d="M38.8307 26.7649C40.57 26.7649 41.9799 25.3658 41.9799 23.6399C41.9799 21.9141 40.57 20.515 38.8307 20.515C37.0914 20.515 35.6814 21.9141 35.6814 23.6399C35.6814 25.3658 37.0914 26.7649 38.8307 26.7649Z" fill="#111D32"/>
<path d="M38.9057 26.2776C39.3523 26.2776 39.7143 25.9184 39.7143 25.4752C39.7143 25.0321 39.3523 24.6729 38.9057 24.6729C38.4591 24.6729 38.0971 25.0321 38.0971 25.4752C38.0971 25.9184 38.4591 26.2776 38.9057 26.2776Z" fill="white"/>
<path d="M56.8264 31.9165C58.5657 31.9165 59.9755 30.5174 59.9755 28.7915C59.9755 27.0656 58.5657 25.6665 56.8264 25.6665C55.0871 25.6665 53.6771 27.0656 53.6771 28.7915C53.6771 30.5174 55.0871 31.9165 56.8264 31.9165Z" fill="#111D32"/>
<path d="M56.9014 31.4292C57.348 31.4292 57.71 31.0699 57.71 30.6268C57.71 30.1836 57.348 29.8244 56.9014 29.8244C56.4548 29.8244 56.0928 30.1836 56.0928 30.6268C56.0928 31.0699 56.4548 31.4292 56.9014 31.4292Z" fill="white"/>
<path d="M35.6023 38.1674C36.0208 38.1674 36.3602 37.8307 36.3602 37.4154C36.3602 37.0001 36.0208 36.6633 35.6023 36.6633C35.1837 36.6633 34.8444 37.0001 34.8444 37.4154C34.8444 37.8307 35.1837 38.1674 35.6023 38.1674Z" fill="#111D32"/>
<path d="M30.8377 38.265C31.2563 38.265 31.5957 37.9283 31.5957 37.513C31.5957 37.0976 31.2563 36.7609 30.8377 36.7609C30.4192 36.7609 30.0799 37.0976 30.0799 37.513C30.0799 37.9283 30.4192 38.265 30.8377 38.265Z" fill="#111D32"/>
<path d="M32.9847 40.6549C33.4038 40.6549 33.7435 40.3178 33.7435 39.9019C33.7435 39.486 33.4038 39.1489 32.9847 39.1489C32.5656 39.1489 32.2257 39.486 32.2257 39.9019C32.2257 40.3178 32.5656 40.6549 32.9847 40.6549Z" fill="#111D32"/>
<path d="M29.2814 41.6307C29.7006 41.6307 30.0404 41.2935 30.0404 40.8776C30.0404 40.4617 29.7006 40.1246 29.2814 40.1246C28.8623 40.1246 28.5225 40.4617 28.5225 40.8776C28.5225 41.2935 28.8623 41.6307 29.2814 41.6307Z" fill="#111D32"/>
<path d="M52.1643 42.9083C52.5829 42.9083 52.9222 42.5716 52.9222 42.1562C52.9222 41.7409 52.5829 41.4042 52.1643 41.4042C51.7457 41.4042 51.4064 41.7409 51.4064 42.1562C51.4064 42.5716 51.7457 42.9083 52.1643 42.9083Z" fill="#111D32"/>
<path d="M56.1435 45.5096C56.562 45.5096 56.9014 45.1729 56.9014 44.7575C56.9014 44.3422 56.562 44.0055 56.1435 44.0055C55.7249 44.0055 55.3856 44.3422 55.3856 44.7575C55.3856 45.1729 55.7249 45.5096 56.1435 45.5096Z" fill="#111D32"/>
<path d="M53.044 46.3965C53.4626 46.3965 53.8018 46.0598 53.8018 45.6444C53.8018 45.2291 53.4626 44.8924 53.044 44.8924C52.6254 44.8924 52.286 45.2291 52.286 45.6444C52.286 46.0598 52.6254 46.3965 53.044 46.3965Z" fill="#111D32"/>
<path d="M55.6545 49.1813C56.0736 49.1813 56.4133 48.8441 56.4133 48.4282C56.4133 48.0123 56.0736 47.6752 55.6545 47.6752C55.2354 47.6752 54.8955 48.0123 54.8955 48.4282C54.8955 48.8441 55.2354 49.1813 55.6545 49.1813Z" fill="#111D32"/>
<path d="M41.1713 9.2403C41.1713 9.2403 32.0482 11.7189 28.2415 22.7157C24.4348 33.7125 28.0031 52.8619 16.2715 51.3166C4.54087 49.7712 1.40677 40.8715 9.32457 26.2222C17.5498 11.0102 26.676 -2.13602 41.1713 9.2403Z" fill="#8C604E"/>
<path d="M12.9883 51.5349C9.02432 50.4003 6.3367 48.2318 5.00354 45.0887C3.02611 40.4304 4.25267 33.7638 8.55247 25.8114C15.0336 13.824 22.9129 1.31001 34.4426 4.61116C36.7884 5.28166 39.2365 6.61061 41.7171 8.55768L43.0787 9.6268L41.4046 10.0819C41.3194 10.105 32.6722 12.6008 29.0735 22.9985C27.8864 26.4255 27.4278 30.7495 26.9834 34.9306C26.2671 41.6698 25.5914 48.0365 21.9947 50.8453C20.4637 52.0413 18.5004 52.4904 16.1568 52.1813C15.0316 52.0323 13.9653 51.8148 12.9883 51.5349ZM33.9555 6.28437C23.6839 3.34364 16.2562 15.2465 10.0997 26.6339C6.05865 34.108 4.8553 40.2553 6.61966 44.4121C8.03094 47.7334 11.368 49.7923 16.3871 50.4537C18.2682 50.7014 19.7474 50.3822 20.907 49.4751C23.9214 47.1203 24.5595 41.109 25.2352 34.7464C25.6908 30.4697 26.1605 26.046 27.4115 22.4327C30.3954 13.8119 36.4717 10.2399 39.3592 8.98449C37.5016 7.68578 35.6884 6.77969 33.9555 6.28437Z" fill="#111D32"/>
<path d="M62.5749 15.3684C62.5749 15.3684 68.9667 22.2878 66.2842 33.6057C63.6016 44.9247 50.3025 59.2467 61.0612 64.1386C71.8198 69.0314 79.2506 63.155 80.4113 46.5727C81.6166 29.3512 80.951 13.4012 62.5749 15.3684Z" fill="#8C604E"/>
<path d="M63.7225 66.0604C63.7215 66.0594 63.7225 66.0604 63.7225 66.0604C62.7444 65.7796 61.7248 65.4 60.695 64.9319C58.5461 63.9543 57.1257 62.5358 56.4723 60.7156C54.9362 56.4369 57.781 50.6924 60.7943 44.6096C62.6621 40.8373 64.594 36.9361 65.43 33.4084C67.9665 22.7056 61.9865 16.0218 61.9266 15.9553L60.7649 14.6879L62.4795 14.5016C65.6257 14.1654 68.4098 14.3355 70.7545 15.007C82.2842 18.3071 82.2355 33.0631 81.2848 46.6331C80.6548 55.6365 78.1142 61.9277 73.9403 64.8242C71.1248 66.7793 67.6864 67.1951 63.7225 66.0604ZM64.247 16.1084C66.0164 18.6978 69.2407 24.9326 67.1385 33.8061C66.2579 37.5261 64.2815 41.5169 62.37 45.3778C59.5251 51.1203 56.8404 56.5457 58.1259 60.1307C58.621 61.51 59.7016 62.563 61.4264 63.3473C62.3781 63.7812 63.3146 64.1295 64.2095 64.3853C67.6387 65.3679 70.5739 65.0356 72.9348 63.3976C76.6604 60.8123 78.9432 54.9741 79.5357 46.5123C80.4387 33.6208 80.5412 19.621 70.2696 16.6802C68.5367 16.1849 66.5156 15.9916 64.247 16.1084Z" fill="#111D32"/>
</svg>
