<svg width="77" height="44" viewBox="0 0 77 44" fill="none" xmlns="http://www.w3.org/2000/svg">
<path opacity="0.66" d="M73.0799 12.7529C71.9417 8.72999 68.7358 5.53062 64.7134 4.40417C62.2381 3.7098 59.3407 3.09978 56.098 2.58942C50.5347 1.71409 44.8299 1.26984 39.1416 1.26984C33.4522 1.26984 27.7475 1.71409 22.1842 2.58942C18.9404 3.09978 16.041 3.71082 13.5697 4.40417C9.54735 5.5296 6.3405 8.72996 5.20222 12.7539L1.73822 24.9974C0.855056 28.1226 1.25873 31.4033 2.87753 34.2316C4.49017 37.0518 7.112 39.0719 10.2553 39.9178C15.7746 41.4031 25.1862 43.2737 38.6796 43.7464C38.8322 43.7525 38.9869 43.7556 39.1406 43.7556C39.2943 43.7556 39.451 43.7525 39.5944 43.7464C53.094 43.2737 62.5055 41.4031 68.0258 39.9178C71.1702 39.0719 73.792 37.0518 75.4047 34.2296C77.0214 31.4013 77.4261 28.1216 76.5419 24.9974L73.0799 12.7529Z" fill="#075C54"/>
<path d="M63.4327 3.13434C60.9574 2.43996 58.06 1.83 54.8173 1.31965C49.254 0.444311 43.5492 0 37.8609 0C32.1715 0 26.4668 0.444311 20.9035 1.31965C17.6597 1.83 14.7603 2.44098 12.2891 3.13434C8.26666 4.25977 5.05981 7.46019 3.92153 11.4841L0.457532 23.7276C-0.425634 26.8527 -0.0219601 30.1335 1.59684 32.9618C3.20948 35.782 5.83131 37.8021 8.97464 38.6479C14.4939 40.1332 23.9055 42.0039 37.3989 42.4766C37.5515 42.4827 37.7062 42.4858 37.8599 42.4858C38.0136 42.4858 38.1703 42.4827 38.3138 42.4766C51.8133 42.0039 61.2248 40.1332 66.7451 38.6479C69.8895 37.8021 72.5113 35.782 74.124 32.9597C75.7407 30.1314 76.1454 26.8517 75.2612 23.7276L71.7972 11.483C70.66 7.45913 67.4541 4.25977 63.4327 3.13434Z" fill="white"/>
<path d="M70.4264 25.0736L66.9624 12.83C66.2944 10.4673 64.4482 8.5967 62.0681 7.92978C59.5651 7.22931 56.7906 6.67729 54.0294 6.24217C43.3228 4.55657 32.398 4.55657 21.6904 6.24217C18.9313 6.67729 16.1558 7.22931 13.6538 7.92978C11.2728 8.5967 9.42549 10.4673 8.75748 12.83L5.29448 25.0736C4.22382 28.8575 6.46866 32.8092 10.2902 33.8381C15.7993 35.3203 24.7589 37.0456 37.5843 37.496C37.7677 37.5021 37.9552 37.5021 38.1376 37.496C50.9629 37.0466 59.9227 35.3203 65.4317 33.8381C69.2523 32.8092 71.4971 28.8565 70.4264 25.0736Z" fill="#F05A28"/>
<path d="M37.8599 38.3795C37.7565 38.3795 37.654 38.3774 37.5515 38.3734C24.4465 37.9149 15.3669 36.1144 10.0577 34.686C7.98703 34.1279 6.25862 32.7961 5.19309 30.9346C4.12448 29.065 3.85603 26.8985 4.44105 24.8357L7.90405 12.5922C8.65505 9.93567 10.7667 7.82516 13.4131 7.08301C15.7317 6.43235 18.4703 5.8579 21.5511 5.37194C32.2997 3.68024 43.4203 3.68024 54.1699 5.37194C57.2517 5.8579 59.9894 6.43235 62.3079 7.08301C64.9543 7.82414 67.0649 9.93567 67.8169 12.5922L71.2799 24.8357C71.8629 26.8985 71.5965 29.0639 70.5279 30.9335C69.4633 32.796 67.7349 34.1289 65.6632 34.686C60.353 36.1144 51.2745 37.9149 38.1684 38.3734C38.0669 38.3774 37.9624 38.3795 37.8599 38.3795ZM37.8599 5.85588C32.5056 5.85588 27.1124 6.27782 21.8298 7.10944C18.8166 7.58422 16.1456 8.14538 13.8946 8.77571C11.8383 9.35113 10.197 10.9971 9.61091 13.068L6.14798 25.3115C5.69308 26.9198 5.90208 28.6075 6.73505 30.0664C7.56493 31.5171 8.91016 32.5551 10.5218 32.9892C15.7409 34.3943 24.677 36.1632 37.6141 36.6166C37.777 36.6217 37.9419 36.6217 38.1048 36.6166C51.0419 36.1632 59.979 34.3932 65.1981 32.9892C66.8097 32.5551 68.156 31.5171 68.9849 30.0653C69.8189 28.6074 70.0279 26.9188 69.572 25.3115L66.109 13.068C65.5229 10.9971 63.8816 9.35215 61.8253 8.77571C59.5733 8.14437 56.9023 7.5832 53.8901 7.10944C48.6085 6.27782 43.2153 5.85588 37.8599 5.85588Z" fill="#111D32"/>
<path d="M38.9182 17.2028C51.9463 17.2028 62.5076 15.3589 62.5076 13.0843C62.5076 10.8098 51.9463 8.96594 38.9182 8.96594C25.8902 8.96594 15.329 10.8098 15.329 13.0843C15.329 15.3589 25.8902 17.2028 38.9182 17.2028Z" fill="#8B251C"/>
<path d="M33.5723 31.683C33.5723 29.7818 35.4912 26.1524 37.86 26.1524C40.2287 26.1524 42.1488 29.7818 42.1488 31.683C42.1488 33.5841 40.2287 34.3527 37.86 34.3527C35.4912 34.3527 33.5723 33.5841 33.5723 31.683Z" fill="white"/>
<path d="M35.8692 24.9989C36.8485 24.8534 37.4839 23.6847 37.2883 22.3886C37.0927 21.0925 36.1402 20.1598 35.1609 20.3054C34.1816 20.4509 33.5462 21.6195 33.7418 22.9156C33.9374 24.2117 34.8899 25.1444 35.8692 24.9989Z" fill="white"/>
<path d="M39.9297 24.9457C40.9112 25.0759 41.8488 24.1279 42.0239 22.8284C42.1989 21.5289 41.5452 20.3699 40.5636 20.2397C39.5821 20.1095 38.6445 21.0574 38.4695 22.3569C38.2944 23.6565 38.9482 24.8155 39.9297 24.9457Z" fill="white"/>
<path d="M42.7962 29.2191C43.7084 29.7089 44.9815 29.1277 45.6398 27.9208C46.2981 26.7139 46.0922 25.3384 45.18 24.8485C44.2678 24.3586 42.9947 24.9399 42.3365 26.1468C41.6782 27.3537 41.884 28.7292 42.7962 29.2191Z" fill="white"/>
<path d="M30.6063 24.7522C29.6936 25.2422 29.4874 26.6182 30.1456 27.8255C30.8039 29.0329 32.0774 29.6146 32.9901 29.1246C33.9028 28.6346 34.1091 27.2587 33.4508 26.0513C32.7925 24.8439 31.519 24.2623 30.6063 24.7522Z" fill="white"/>
</svg>
