<svg width="43" height="46" viewBox="0 0 43 46" fill="none" xmlns="http://www.w3.org/2000/svg">
<path d="M10.917 41.9621C9.60254 41.2232 8.35117 40.4208 7.19441 39.5763C5.41886 38.2784 3.42553 36.6579 2.10718 34.4931C1.5554 33.589 1.20466 32.6459 1.07657 31.732C0.72777 31.0254 0.73467 30.1771 1.15343 29.4421C1.25196 29.2691 1.34852 29.0961 1.44607 28.9241C1.55544 28.6788 1.68842 28.4403 1.84016 28.2126C2.06875 27.7943 2.29541 27.3779 2.51119 26.9704C3.21668 25.6451 3.9133 24.2738 4.58725 22.9495C6.18249 19.8161 7.83091 16.5751 9.77888 13.5111C10.1159 12.9824 10.4588 12.4488 10.7918 11.9347C11.6333 10.6328 12.5013 9.28503 13.2797 7.94311C13.7063 7.21205 14.2473 6.25033 14.7006 5.26418C14.8011 4.97976 14.9193 4.70414 15.0523 4.44123C15.2661 3.90173 15.4336 3.39742 15.5598 2.90092C15.7529 2.1464 16.2721 1.53945 16.9816 1.2394C17.5954 0.978443 18.2979 0.975522 18.9197 1.21986C19.8301 0.93545 20.845 0.806433 21.9555 0.835754C24.1202 0.894396 26.3618 1.44369 29.0054 2.5657C30.039 3.00453 31.0657 3.50885 32.058 4.06497C33.3221 4.77551 34.5557 5.58476 35.7253 6.47123C37.963 8.16695 39.5927 9.85386 40.709 11.6268C41.2441 12.4791 41.6333 13.3264 41.8707 14.1591C42.5142 14.7602 42.789 15.6594 42.5595 16.5507C42.3594 17.3346 42.0865 18.135 41.7229 19.0019C40.5366 21.8334 38.8842 24.3765 37.286 26.8355C36.5283 28.0015 35.745 29.2075 35.0425 30.4028C33.6512 32.7651 32.3772 35.2789 31.1435 37.7086C30.038 39.8871 28.898 42.136 27.6565 44.3155C27.3274 44.8941 26.7973 45.3105 26.1648 45.4835C25.9529 45.5421 25.7322 45.5715 25.5115 45.5715C24.001 46.1706 22.3171 46.022 21.113 45.8373C18.362 45.4141 15.8032 44.3488 14.1192 43.5816C13.0137 43.0792 11.9358 42.5338 10.917 41.9621Z" fill="#7C7A7A"/>
<path d="M10.0912 41.1303C8.7758 40.3934 7.52542 39.59 6.36865 38.7446C4.59311 37.4467 2.59978 35.8262 1.28142 33.6614C0.729644 32.7573 0.378874 31.8141 0.249797 30.9013C-0.0990063 30.1937 -0.0910839 29.3453 0.327677 28.6104C0.426209 28.4374 0.522767 28.2644 0.620314 28.0924C0.729684 27.8471 0.862666 27.6086 1.01441 27.3809C1.243 26.9625 1.46965 26.5462 1.68544 26.1386C2.39093 24.8133 3.08754 23.4421 3.7615 22.1187C5.35673 18.9844 7.00515 15.7444 8.95313 12.6804C9.29011 12.1507 9.63302 11.617 9.96605 11.1029C10.8075 9.80109 11.6756 8.45429 12.454 7.11335C12.8807 6.38033 13.4215 5.41863 13.8748 4.43247C13.9753 4.14904 14.0935 3.87341 14.2266 3.60953C14.4404 3.07002 14.6079 2.56667 14.734 2.07017C14.9271 1.31467 15.4464 0.707745 16.1558 0.407696C16.7687 0.146741 17.4722 0.144797 18.094 0.388159C19.0044 0.104725 20.0192 -0.025269 21.1287 0.0040518C23.2945 0.0626934 25.5361 0.612936 28.1797 1.73397C29.2123 2.1728 30.24 2.67712 31.2322 3.23422C32.4964 3.94378 33.73 4.75303 34.8996 5.6395C37.1372 7.33522 38.7669 9.02214 39.8833 10.796C40.4183 11.6473 40.8085 12.4966 41.047 13.3274C41.6884 13.9285 41.9633 14.8276 41.7338 15.719C41.5328 16.5028 41.2598 17.3033 40.8972 18.1702C39.7109 21.0016 38.0585 23.5447 36.4603 26.0047C35.7026 27.1698 34.9193 28.3768 34.2167 29.5711C32.8255 31.9334 31.5514 34.4472 30.3168 36.8789C29.2123 39.0554 28.0723 41.3043 26.8308 43.4838C26.5017 44.0634 25.9716 44.4788 25.339 44.6518C25.1262 44.7104 24.9065 44.7398 24.6858 44.7398C23.1753 45.3398 21.4913 45.1903 20.2873 45.0056C17.5362 44.5824 14.9774 43.5171 13.2935 42.7508C12.188 42.2475 11.11 41.7021 10.0912 41.1303Z" fill="white"/>
<path d="M21.7396 44.5061C21.7377 44.5061 21.7347 44.5061 21.7328 44.5061C21.4391 44.4914 21.1377 44.4641 20.8086 44.4221C20.7248 44.4103 20.6647 44.3351 20.6765 44.252C20.6863 44.1689 20.7632 44.1093 20.8479 44.121C21.1682 44.1621 21.4618 44.1894 21.7485 44.2021C21.8323 44.207 21.8963 44.2784 21.8924 44.3624C21.8894 44.4426 21.8204 44.5061 21.7396 44.5061ZM22.656 44.5042C22.5762 44.5042 22.5092 44.4426 22.5042 44.3614C22.4993 44.2793 22.5644 44.207 22.6481 44.2021C22.9575 44.1836 23.256 44.1464 23.5329 44.0897C23.6167 44.0722 23.6965 44.1249 23.7142 44.207C23.732 44.2881 23.6778 44.3693 23.595 44.3859C23.3044 44.4465 22.991 44.4875 22.6649 44.5051C22.6629 44.5041 22.66 44.5042 22.656 44.5042ZM19.9237 44.2813C19.9139 44.2813 19.904 44.2803 19.8952 44.2794C19.6006 44.2246 19.296 44.1611 18.9916 44.0897C18.9098 44.0712 18.8576 43.9891 18.8783 43.907C18.898 43.8268 18.9808 43.776 19.0625 43.7956C19.3611 43.865 19.6607 43.9275 19.9513 43.9803C20.0341 43.9959 20.0893 44.0751 20.0745 44.1572C20.0587 44.2305 19.9947 44.2813 19.9237 44.2813ZM24.4404 44.124C24.3803 44.124 24.3241 44.0888 24.2995 44.0301C24.266 43.9529 24.3044 43.864 24.3813 43.8317C24.4128 43.82 24.4433 43.8063 24.4749 43.7926L24.5104 43.777L24.5498 43.779C24.7331 43.7966 24.9124 43.778 25.0819 43.732C25.1459 43.7135 25.209 43.6929 25.2691 43.6675C25.3469 43.6343 25.4366 43.6695 25.4691 43.7467C25.5026 43.8229 25.4671 43.9119 25.3893 43.9451C25.3154 43.9773 25.2405 44.0037 25.1637 44.0243C24.9715 44.077 24.7686 44.0976 24.5626 44.0849C24.5419 44.0946 24.5192 44.1034 24.4975 44.1122C24.4788 44.121 24.4591 44.124 24.4404 44.124ZM18.1383 43.8659C18.1245 43.8659 18.1117 43.8649 18.0969 43.8601C17.8082 43.7789 17.5097 43.69 17.2141 43.5952C17.1343 43.5698 17.0899 43.4838 17.1155 43.4046C17.1411 43.3255 17.2279 43.2815 17.3077 43.3078C17.6003 43.4017 17.894 43.4906 18.1787 43.5698C18.2595 43.5913 18.3078 43.6753 18.2842 43.7565C18.2664 43.822 18.2053 43.8659 18.1383 43.8659ZM26.0307 43.3919C26.0012 43.3919 25.9696 43.3821 25.942 43.3636C25.875 43.3147 25.8573 43.2209 25.9065 43.1524C25.9371 43.1085 25.9677 43.0616 25.9953 43.0137C26.1155 42.8026 26.2347 42.5895 26.3529 42.3784C26.3933 42.3051 26.4869 42.2777 26.5608 42.3188C26.6347 42.3588 26.6613 42.4517 26.6209 42.525C26.5027 42.7381 26.3825 42.9511 26.2613 43.1622C26.2298 43.2199 26.1943 43.2746 26.1568 43.3274C26.1263 43.3694 26.08 43.3919 26.0307 43.3919ZM16.3953 43.3078C16.3766 43.3078 16.3608 43.3049 16.3421 43.2991C16.0623 43.1974 15.7726 43.088 15.4819 42.9746C15.4031 42.9443 15.3656 42.8553 15.3962 42.7771C15.4267 42.7009 15.5154 42.6618 15.5942 42.6931C15.8819 42.8055 16.1696 42.915 16.4455 43.0137C16.5253 43.042 16.5657 43.128 16.5381 43.2082C16.5155 43.2697 16.4564 43.3078 16.3953 43.3078ZM14.6897 42.6393C14.67 42.6393 14.6493 42.6354 14.6296 42.6276C14.3587 42.5123 14.0827 42.3921 13.7871 42.2591C13.7113 42.2249 13.6778 42.135 13.7123 42.0578C13.7467 41.9826 13.8384 41.9484 13.9143 41.9835C14.2079 42.1155 14.4818 42.2347 14.7508 42.3481C14.8286 42.3813 14.8641 42.4703 14.8306 42.5465C14.806 42.6042 14.7498 42.6393 14.6897 42.6393ZM13.0205 41.8897C12.9989 41.8897 12.9762 41.8848 12.9555 41.8741C12.6767 41.7421 12.3998 41.6082 12.1298 41.4734C12.0549 41.4352 12.0244 41.3443 12.0619 41.2691C12.1003 41.1948 12.1919 41.1645 12.2668 41.2026C12.5348 41.3365 12.8107 41.4704 13.0866 41.6014C13.1634 41.6376 13.195 41.7275 13.1585 41.8037C13.1309 41.8585 13.0757 41.8897 13.0205 41.8897ZM26.9254 41.8057C26.9017 41.8057 26.8761 41.7998 26.8525 41.7861C26.7796 41.747 26.751 41.6551 26.7914 41.5818C26.9352 41.316 27.0801 41.0482 27.2229 40.7824C27.2623 40.7071 27.356 40.6797 27.4289 40.7188C27.5048 40.7579 27.5323 40.8498 27.4919 40.9231C27.3481 41.1919 27.2062 41.4597 27.0604 41.7255C27.0338 41.7763 26.9805 41.8057 26.9254 41.8057ZM11.384 41.0707C11.3603 41.0707 11.3347 41.0648 11.312 41.0531C11.0411 40.9085 10.7681 40.7609 10.506 40.6152C10.4902 40.6055 10.4764 40.5947 10.4646 40.582C10.4469 40.5781 10.4312 40.5722 10.4144 40.5634C10.1474 40.4139 9.88036 40.2595 9.61925 40.1041C9.54633 40.062 9.52366 39.9682 9.56603 39.8959C9.60938 39.8255 9.70401 39.8011 9.77495 39.8431C10.0341 39.9975 10.3001 40.151 10.5642 40.2996C10.5809 40.3084 10.5937 40.3201 10.6055 40.3328C10.6233 40.3347 10.639 40.3406 10.6548 40.3504C10.9169 40.496 11.1859 40.6416 11.4569 40.7843C11.5298 40.8234 11.5593 40.9163 11.5189 40.9896C11.4923 41.0414 11.4382 41.0707 11.384 41.0707ZM27.7836 40.1979C27.76 40.1979 27.7353 40.193 27.7137 40.1813C27.6378 40.1422 27.6102 40.0503 27.6496 39.976C27.7905 39.7082 27.9294 39.4385 28.0693 39.1707C28.1087 39.0964 28.1994 39.0671 28.2763 39.1042C28.3492 39.1433 28.3787 39.2352 28.3413 39.3095C28.2014 39.5773 28.0605 39.848 27.9196 40.1168C27.893 40.1686 27.8388 40.1979 27.7836 40.1979ZM8.9167 39.6506C8.88911 39.6506 8.85955 39.6418 8.83491 39.6271C8.57578 39.4649 8.31668 39.2987 8.06345 39.1306C7.99448 39.0837 7.97472 38.9889 8.02201 38.9195C8.06832 38.8501 8.16395 38.8316 8.23292 38.8775C8.48516 39.0436 8.74132 39.2108 8.99849 39.3711C9.07042 39.415 9.09112 39.5089 9.04678 39.5802C9.01624 39.6252 8.96794 39.6506 8.9167 39.6506ZM7.39242 38.64C7.36187 38.64 7.3313 38.6312 7.30371 38.6136C7.11946 38.4826 6.9362 38.3517 6.75687 38.2217C6.69282 38.1748 6.62587 38.1259 6.55985 38.077C6.49285 38.0272 6.47803 37.9324 6.52828 37.8649C6.5805 37.7975 6.67509 37.7838 6.74406 37.8337C6.80909 37.8825 6.8751 37.9314 6.93915 37.9783C7.11552 38.1073 7.29785 38.2373 7.48112 38.3654C7.55009 38.4142 7.56683 38.5081 7.51757 38.5765C7.48801 38.6175 7.4407 38.64 7.39242 38.64ZM28.6211 38.5813C28.5994 38.5813 28.5748 38.5765 28.5521 38.5647C28.4782 38.5266 28.4477 38.4357 28.4862 38.3615C28.6251 38.0907 28.762 37.82 28.9 37.5502C28.9384 37.476 29.03 37.4466 29.1049 37.4848C29.1798 37.5229 29.2113 37.6137 29.1729 37.688C29.034 37.9578 28.898 38.2285 28.7581 38.4993C28.7305 38.552 28.6763 38.5813 28.6211 38.5813ZM5.92232 37.5541C5.89079 37.5541 5.85729 37.5434 5.8297 37.5209C5.57352 37.3235 5.34001 37.1348 5.11338 36.9472C5.04737 36.8925 5.03947 36.7967 5.09366 36.7332C5.14785 36.6696 5.24345 36.6608 5.30848 36.7136C5.53313 36.9003 5.76465 37.086 6.01788 37.2824C6.08291 37.3333 6.09476 37.429 6.04253 37.4955C6.01396 37.5346 5.96863 37.5541 5.92232 37.5541ZM29.4478 36.9589C29.4261 36.9589 29.4015 36.954 29.3808 36.9433C29.3039 36.9061 29.2744 36.8143 29.3128 36.74L29.7247 35.9278C29.7631 35.8535 29.8547 35.8232 29.9296 35.8614C30.0045 35.8985 30.0341 35.9904 29.9976 36.0647L29.5857 36.8768C29.5582 36.9286 29.5039 36.9589 29.4478 36.9589ZM4.52023 36.3842C4.48378 36.3842 4.4483 36.3706 4.41776 36.3451C4.18522 36.1331 3.96057 35.92 3.75069 35.7108C3.69059 35.6512 3.69155 35.5564 3.75165 35.4968C3.81176 35.4372 3.90733 35.4381 3.96743 35.4978C4.17337 35.704 4.39409 35.9131 4.62367 36.1213C4.68575 36.178 4.69068 36.2728 4.63353 36.3363C4.60299 36.3676 4.5626 36.3842 4.52023 36.3842ZM30.2725 35.3365C30.2509 35.3365 30.2262 35.3307 30.2055 35.3199C30.1306 35.2818 30.0991 35.1909 30.1375 35.1166C30.2764 34.8469 30.4144 34.5752 30.5524 34.3044C30.5908 34.2302 30.6834 34.2008 30.7583 34.2399C30.8332 34.278 30.8627 34.3689 30.8243 34.4432C30.6854 34.713 30.5484 34.9837 30.4105 35.2525C30.3819 35.3062 30.3287 35.3365 30.2725 35.3365ZM3.2344 35.0902C3.19203 35.0902 3.14963 35.0736 3.12007 35.0394C2.91217 34.8058 2.7141 34.5664 2.53083 34.3279C2.48058 34.2614 2.49342 34.1666 2.56042 34.1158C2.62742 34.065 2.72396 34.0777 2.77421 34.1441C2.95354 34.3758 3.14569 34.6094 3.34866 34.839C3.40483 34.9006 3.39795 34.9974 3.33489 35.0531C3.30533 35.0785 3.26987 35.0902 3.2344 35.0902ZM31.1051 33.717C31.0824 33.717 31.0579 33.7112 31.0362 33.6994C30.9613 33.6603 30.9317 33.5695 30.9711 33.4952C31.111 33.2264 31.251 32.9566 31.3938 32.6879C31.4332 32.6136 31.5249 32.5852 31.5997 32.6243C31.6736 32.6634 31.7032 32.7553 31.6638 32.8296C31.5219 33.0974 31.383 33.3671 31.2411 33.6349C31.2155 33.6867 31.1613 33.717 31.1051 33.717ZM2.12784 33.6437C2.07759 33.6437 2.02735 33.6193 1.99878 33.5743C1.94459 33.4913 1.89335 33.4082 1.84212 33.3241C1.73275 33.1433 1.62829 32.9576 1.53469 32.7719C1.49724 32.6976 1.52683 32.6068 1.6027 32.5686C1.67857 32.5325 1.76923 32.5628 1.80766 32.637C1.89732 32.8149 1.9958 32.9928 2.10222 33.1668C2.15247 33.2489 2.20472 33.331 2.25497 33.4111C2.30128 33.4805 2.27958 33.5743 2.20963 33.6203C2.18401 33.6359 2.15641 33.6437 2.12784 33.6437ZM31.9564 32.1054C31.9328 32.1054 31.9072 32.0995 31.8855 32.0878C31.8097 32.0487 31.783 31.9558 31.8224 31.8825C31.9663 31.6157 32.1111 31.3479 32.2569 31.0821C32.2983 31.0088 32.39 30.9804 32.4639 31.0205C32.5388 31.0596 32.5663 31.1524 32.5259 31.2257C32.3811 31.4916 32.2353 31.7584 32.0924 32.0242C32.0638 32.077 32.0106 32.1054 31.9564 32.1054ZM1.31596 32.0194C1.2529 32.0194 1.1928 31.9803 1.17211 31.9177C1.06766 31.6157 0.986863 31.3127 0.933655 31.0156C0.918876 30.9345 0.974077 30.8544 1.05586 30.8407C1.13961 30.8241 1.21939 30.8807 1.23417 30.9619C1.28442 31.2433 1.36126 31.5317 1.46077 31.818C1.48738 31.8972 1.44599 31.9832 1.36618 32.0106C1.34844 32.0164 1.33271 32.0194 1.31596 32.0194ZM32.8324 30.5103C32.8078 30.5103 32.7821 30.5025 32.7585 30.4898C32.6856 30.4487 32.658 30.3569 32.6984 30.2836C32.8491 30.0177 33.0018 29.7499 33.1526 29.4909C33.194 29.4176 33.2876 29.3922 33.3595 29.4343C33.4334 29.4763 33.4591 29.5691 33.4177 29.6415C33.2679 29.8995 33.1152 30.1643 32.9664 30.4311C32.9378 30.482 32.8866 30.5103 32.8324 30.5103ZM0.838094 30.2718C0.766166 30.2718 0.70112 30.221 0.687326 30.1477C0.667619 30.0431 0.659722 29.9346 0.659722 29.8271C0.659722 29.6033 0.701105 29.3834 0.782887 29.1723C0.812446 29.0951 0.901137 29.057 0.979963 29.0863C1.05879 29.1166 1.09819 29.2046 1.06765 29.2828C0.999658 29.4577 0.965168 29.6405 0.965168 29.8271C0.965168 29.9161 0.974023 30.006 0.988803 30.093C1.00457 30.176 0.94939 30.2552 0.865638 30.2699C0.855785 30.2718 0.845977 30.2718 0.838094 30.2718ZM33.7468 28.9339C33.7211 28.9339 33.6926 28.926 33.6679 28.9133C33.597 28.8703 33.5724 28.7765 33.6157 28.7061C33.7635 28.4579 33.9241 28.1959 34.0926 27.9252C34.135 27.8548 34.2315 27.8314 34.3025 27.8773C34.3734 27.9203 34.3961 28.0132 34.3518 28.0855C34.1862 28.3533 34.0256 28.6142 33.8788 28.8605C33.8492 28.9084 33.8 28.9339 33.7468 28.9339ZM1.35535 28.5781C1.33367 28.5781 1.31299 28.5742 1.29329 28.5644C1.21643 28.5312 1.18194 28.4413 1.21643 28.364C1.31595 28.1412 1.43717 27.9242 1.57708 27.717L1.66374 27.5587C1.70414 27.4854 1.7958 27.458 1.87068 27.4981C1.94458 27.5382 1.97314 27.631 1.93275 27.7043L1.83424 27.8803C1.70122 28.0747 1.58791 28.278 1.49529 28.4872C1.46968 28.5449 1.41348 28.5781 1.35535 28.5781ZM34.7074 27.3857C34.6808 27.3857 34.6513 27.3769 34.6256 27.3623C34.5557 27.3173 34.533 27.2234 34.5784 27.1531C34.7419 26.896 34.9065 26.6409 35.072 26.3858C35.1173 26.3155 35.2119 26.295 35.2819 26.3399C35.3528 26.3849 35.3735 26.4787 35.3282 26.5491C35.1646 26.8042 35.0001 27.0593 34.8365 27.3153C34.808 27.3613 34.7567 27.3857 34.7074 27.3857ZM2.23134 26.9821C2.20769 26.9821 2.18207 26.9762 2.15941 26.9645C2.0865 26.9254 2.05689 26.8325 2.09729 26.7592C2.15444 26.6527 2.2106 26.5471 2.26676 26.4426C2.35248 26.2803 2.43821 26.119 2.52295 25.9558C2.56236 25.8825 2.65501 25.8532 2.72989 25.8923C2.80478 25.9314 2.83335 26.0233 2.79394 26.0975C2.7092 26.2598 2.62349 26.421 2.53678 26.5833C2.47964 26.6888 2.42344 26.7954 2.36629 26.9019C2.33772 26.9527 2.28553 26.9821 2.23134 26.9821ZM35.6947 25.8542C35.6671 25.8542 35.6386 25.8464 35.612 25.8317C35.542 25.7848 35.5213 25.691 35.5666 25.6216L35.6543 25.4877C35.7903 25.2785 35.9253 25.0674 36.0633 24.8563C36.1086 24.7869 36.2031 24.7664 36.2751 24.8113C36.345 24.8563 36.3657 24.9501 36.3204 25.0205C36.1835 25.2316 36.0475 25.4417 35.9105 25.6509L35.8238 25.7848C35.7942 25.8288 35.744 25.8542 35.6947 25.8542ZM3.0787 25.3723C3.05702 25.3723 3.03236 25.3655 3.01068 25.3538C2.93481 25.3156 2.9053 25.2248 2.94471 25.1505C3.08364 24.8817 3.22252 24.611 3.36243 24.3422C3.40086 24.2679 3.49156 24.2386 3.56841 24.2757C3.64231 24.3139 3.67281 24.4048 3.63438 24.48C3.49447 24.7488 3.35555 25.0195 3.21563 25.2893C3.18706 25.3401 3.13585 25.3723 3.0787 25.3723ZM36.684 24.3236C36.6574 24.3236 36.6278 24.3168 36.6032 24.3002C36.5313 24.2552 36.5096 24.1614 36.5549 24.092C36.7185 23.8359 36.882 23.5808 37.0426 23.3228C37.087 23.2524 37.1816 23.23 37.2535 23.2739C37.3245 23.3189 37.3481 23.4127 37.3018 23.4841C37.1402 23.7421 36.9776 23.9982 36.8131 24.2542C36.7845 24.2992 36.7343 24.3236 36.684 24.3236ZM3.91229 23.7509C3.88962 23.7509 3.86595 23.746 3.84427 23.7343C3.7684 23.6962 3.73885 23.6043 3.77727 23.53C3.91522 23.2593 4.05315 22.9876 4.19109 22.7198C4.22952 22.6455 4.32018 22.6162 4.39605 22.6524C4.47093 22.6905 4.50048 22.7814 4.46304 22.8566C4.3251 23.1254 4.18819 23.3971 4.05025 23.6678C4.02167 23.7216 3.96746 23.7509 3.91229 23.7509ZM37.6535 22.7804C37.6259 22.7804 37.5984 22.7735 37.5737 22.7589C37.5018 22.7149 37.4791 22.6221 37.5225 22.5497C37.6841 22.2839 37.8418 22.021 37.9905 21.7708C38.0319 21.6994 38.1255 21.674 38.1974 21.716C38.2713 21.7581 38.296 21.8519 38.2526 21.9232C38.1058 22.1744 37.9472 22.4383 37.7836 22.7071C37.754 22.755 37.7048 22.7804 37.6535 22.7804ZM4.73896 22.1285C4.7163 22.1285 4.69264 22.1236 4.66998 22.1129C4.59509 22.0747 4.56552 21.9838 4.60395 21.9096C4.74189 21.6398 4.87787 21.3681 5.0168 21.0974C5.05523 21.0231 5.14786 20.9938 5.22176 21.0309C5.29861 21.069 5.3282 21.1609 5.28977 21.2352C5.15084 21.5059 5.01285 21.7757 4.8759 22.0454C4.84831 22.0992 4.79315 22.1285 4.73896 22.1285ZM38.5738 21.2088C38.5492 21.2088 38.5236 21.2029 38.4999 21.1902C38.426 21.1482 38.3994 21.0554 38.4398 20.984C38.5906 20.7152 38.7374 20.4465 38.8743 20.1875C38.9138 20.1132 39.0054 20.0848 39.0803 20.1239C39.1551 20.163 39.1837 20.2549 39.1443 20.3292C39.0044 20.5911 38.8586 20.8609 38.7069 21.1316C38.6793 21.1805 38.628 21.2088 38.5738 21.2088ZM5.56762 20.508C5.54397 20.508 5.5213 20.5022 5.49864 20.4914C5.42375 20.4533 5.39418 20.3624 5.4326 20.2881C5.57153 20.0184 5.71045 19.7476 5.85135 19.4789C5.88978 19.4036 5.98241 19.3762 6.05631 19.4134C6.13119 19.4525 6.16074 19.5444 6.1233 19.6186C5.98141 19.8864 5.84252 20.1571 5.70359 20.4259C5.67699 20.4777 5.62378 20.508 5.56762 20.508ZM39.4271 19.5981C39.4035 19.5981 39.3798 19.5932 39.3591 19.5825C39.2842 19.5453 39.2537 19.4544 39.2901 19.3801C39.4251 19.1065 39.5572 18.8318 39.6794 18.5621C39.7139 18.4858 39.8045 18.4517 39.8814 18.4859C39.9572 18.522 39.9917 18.611 39.9572 18.6872C39.8331 18.9589 39.701 19.2375 39.5641 19.5141C39.5365 19.5678 39.4823 19.5981 39.4271 19.5981ZM6.40908 18.8944C6.38642 18.8944 6.36177 18.8885 6.33812 18.8758C6.26422 18.8367 6.23564 18.7459 6.27407 18.6716C6.41793 18.4028 6.55886 18.135 6.7037 17.8672C6.74312 17.7939 6.8357 17.7655 6.91058 17.8056C6.98448 17.8447 7.01308 17.9366 6.97367 18.0109C6.82981 18.2777 6.68692 18.5455 6.54602 18.8123C6.51646 18.8641 6.46426 18.8944 6.40908 18.8944ZM40.1799 17.9425C40.1602 17.9425 40.1425 17.9385 40.1228 17.9307C40.044 17.8985 40.0065 17.8105 40.039 17.7333C40.1582 17.4459 40.2676 17.1635 40.3662 16.8918C40.3937 16.8136 40.4814 16.7726 40.5613 16.7999C40.6401 16.8283 40.6805 16.9153 40.6539 16.9944C40.5524 17.27 40.442 17.5574 40.3208 17.8486C40.2972 17.9073 40.24 17.9425 40.1799 17.9425ZM7.27124 17.2896C7.24759 17.2896 7.22194 17.2827 7.19829 17.271C7.12439 17.2309 7.09685 17.1381 7.13725 17.0648C7.28209 16.7989 7.43087 16.5321 7.57867 16.2673C7.62005 16.1949 7.71362 16.1676 7.78555 16.2076C7.85945 16.2497 7.88805 16.3425 7.84569 16.4148C7.69887 16.6797 7.55103 16.9446 7.40619 17.2094C7.37761 17.2612 7.32641 17.2896 7.27124 17.2896ZM40.7957 16.2311C40.781 16.2311 40.7672 16.2291 40.7514 16.2252C40.6716 16.2008 40.6253 16.1167 40.6489 16.0356C40.7041 15.8519 40.7544 15.6672 40.8026 15.4854C40.8253 15.3867 40.843 15.287 40.8479 15.1873C40.8529 15.1032 40.9268 15.0426 41.0095 15.0446C41.0933 15.0504 41.1573 15.1218 41.1534 15.2058C41.1465 15.3241 41.1288 15.4424 41.0982 15.5596C41.05 15.7463 40.9977 15.9359 40.9405 16.1226C40.9228 16.1881 40.8617 16.2311 40.7957 16.2311ZM8.16196 15.7004C8.13732 15.7004 8.11073 15.6945 8.08708 15.6799C8.01319 15.6388 7.98755 15.546 8.02893 15.4746C8.18165 15.2088 8.33735 14.9429 8.49008 14.6859C8.53343 14.6136 8.62603 14.5891 8.69894 14.6312C8.77185 14.6732 8.79553 14.767 8.75415 14.8393C8.60241 15.0954 8.44672 15.3583 8.29499 15.6242C8.2674 15.674 8.21615 15.7004 8.16196 15.7004ZM40.8066 14.4709C40.7524 14.4709 40.7012 14.4425 40.6716 14.3917C40.5672 14.1982 40.4213 14.032 40.24 13.8991L40.1947 13.8659L40.1819 13.8131C40.1671 13.7545 40.1523 13.6968 40.1356 13.6382C40.1139 13.558 40.1602 13.4749 40.242 13.4534C40.3238 13.431 40.4075 13.4788 40.4302 13.559C40.442 13.602 40.4528 13.646 40.4647 13.688C40.6607 13.8424 40.8204 14.0301 40.9396 14.2471C40.979 14.3204 40.9524 14.4122 40.8775 14.4533C40.8558 14.465 40.8312 14.4709 40.8066 14.4709ZM9.09207 14.1337C9.06448 14.1337 9.03693 14.1259 9.01329 14.1122C8.94037 14.0692 8.9177 13.9753 8.96006 13.904C9.12166 13.6411 9.28326 13.3801 9.4419 13.128C9.48821 13.0566 9.58178 13.0351 9.65371 13.0801C9.72465 13.1241 9.74736 13.2179 9.70302 13.2883C9.5434 13.5394 9.38177 13.7994 9.22215 14.0604C9.19259 14.1073 9.14232 14.1337 9.09207 14.1337ZM39.9888 12.8915C39.9267 12.8915 39.8705 12.8563 39.8459 12.7967C39.7375 12.5308 39.6104 12.2562 39.4665 11.9855C39.4261 11.9122 39.4557 11.8203 39.5286 11.7822C39.6045 11.7431 39.6961 11.7714 39.7355 11.8447C39.8833 12.1242 40.0154 12.4067 40.1287 12.6813C40.1592 12.7585 40.1218 12.8475 40.0439 12.8778C40.0282 12.8876 40.0075 12.8915 39.9888 12.8915ZM10.0627 12.5924C10.0341 12.5924 10.0055 12.5846 9.98087 12.5689C9.90992 12.524 9.88821 12.4292 9.93354 12.3598C10.0981 12.1018 10.2646 11.8467 10.4282 11.5926C10.4735 11.5232 10.5681 11.5017 10.6381 11.5476C10.709 11.5926 10.7317 11.6864 10.6844 11.7567C10.5228 12.0099 10.3563 12.2659 10.1917 12.522C10.1622 12.5679 10.1129 12.5924 10.0627 12.5924ZM39.1414 11.2818C39.0911 11.2818 39.0419 11.2573 39.0123 11.2124C38.8527 10.9612 38.6812 10.712 38.5019 10.4686C38.4526 10.4021 38.4674 10.3073 38.5344 10.2565C38.6024 10.2067 38.698 10.2233 38.7482 10.2897C38.9315 10.537 39.1059 10.7931 39.2695 11.0482C39.3148 11.1185 39.2941 11.2123 39.2232 11.2583C39.1975 11.2749 39.1699 11.2818 39.1414 11.2818ZM11.0499 11.0618C11.0223 11.0618 10.9928 11.0531 10.9671 11.0374C10.8972 10.9925 10.8765 10.8986 10.9219 10.8282C11.0844 10.5741 11.249 10.319 11.4125 10.062C11.4579 9.99065 11.5524 9.96917 11.6234 10.0141C11.6953 10.0591 11.717 10.1529 11.6717 10.2243C11.5071 10.4813 11.3416 10.7364 11.179 10.9905C11.1495 11.0374 11.1011 11.0618 11.0499 11.0618ZM38.0625 9.81473C38.0181 9.81473 37.9757 9.79517 37.9452 9.75803C37.757 9.53324 37.555 9.30553 37.3491 9.08171C37.291 9.02014 37.2929 8.92437 37.356 8.86768C37.418 8.81001 37.5156 8.81392 37.5737 8.87549C37.7846 9.10224 37.9895 9.3368 38.1817 9.5655C38.2359 9.63099 38.226 9.72578 38.161 9.77954C38.1314 9.80202 38.097 9.81473 38.0625 9.81473ZM12.0273 9.52446C12.0007 9.52446 11.9722 9.51662 11.9475 9.50099C11.8766 9.45701 11.8549 9.3632 11.8992 9.29283C12.0658 9.02601 12.2274 8.76504 12.3772 8.51972C12.4195 8.44837 12.5141 8.42491 12.587 8.4689C12.6579 8.51092 12.6816 8.60476 12.6382 8.67709C12.4875 8.92338 12.3259 9.18434 12.1584 9.45213C12.1298 9.49807 12.0796 9.52446 12.0273 9.52446ZM36.82 8.4777C36.7826 8.4777 36.7441 8.46303 36.7135 8.43468C36.5037 8.23042 36.282 8.02127 36.0514 7.81602C35.9884 7.75933 35.9834 7.66454 36.0396 7.60198C36.0957 7.53943 36.1923 7.53553 36.2554 7.59026C36.4889 7.79844 36.7155 8.01053 36.9284 8.21773C36.9885 8.27637 36.9894 8.37117 36.9313 8.43275C36.8988 8.46304 36.8614 8.4777 36.82 8.4777ZM12.9762 7.96751C12.9506 7.96751 12.924 7.96165 12.9004 7.94699C12.8275 7.90496 12.8018 7.81211 12.8452 7.73978C12.9053 7.63814 12.9644 7.53652 13.0235 7.43585C13.1112 7.28436 13.2048 7.1221 13.3014 6.95302C13.3418 6.88069 13.4344 6.85431 13.5083 6.89536C13.5822 6.93739 13.6078 7.02926 13.5664 7.10158C13.4708 7.27164 13.3773 7.43389 13.2886 7.58635C13.2285 7.688 13.1693 7.79061 13.1092 7.89226C13.0797 7.9421 13.0294 7.96751 12.9762 7.96751ZM35.4612 7.2599C35.4267 7.2599 35.3923 7.24722 35.3627 7.22474C35.1361 7.03611 34.8967 6.84454 34.6543 6.65493C34.5892 6.60411 34.5764 6.50831 34.6296 6.44283C34.6808 6.37735 34.7774 6.36464 34.8434 6.41742C35.0887 6.608 35.3282 6.80252 35.5597 6.9931C35.6238 7.04588 35.6317 7.14165 35.5794 7.20615C35.5489 7.24134 35.5056 7.2599 35.4612 7.2599ZM13.8748 6.38321C13.8502 6.38321 13.8256 6.37736 13.8039 6.36466C13.728 6.32556 13.7014 6.23368 13.7408 6.16037C13.8896 5.88378 14.0305 5.61208 14.1586 5.35699C14.1951 5.28174 14.2877 5.25045 14.3636 5.28857C14.4384 5.32473 14.47 5.4166 14.4325 5.49088C14.3025 5.75086 14.1606 6.02355 14.0098 6.30405C13.9822 6.35487 13.929 6.38321 13.8748 6.38321ZM34.0207 6.13693C33.9892 6.13693 33.9566 6.12716 33.93 6.10761C33.6866 5.92875 33.4364 5.75184 33.1881 5.57983C33.1191 5.53194 33.1023 5.43713 33.1496 5.36871C33.1989 5.3003 33.2935 5.28369 33.3635 5.33158C33.6148 5.50457 33.866 5.68344 34.1123 5.86425C34.1783 5.9141 34.1931 6.00791 34.1428 6.07632C34.1143 6.11542 34.068 6.13693 34.0207 6.13693ZM32.5171 5.09896C32.4885 5.09896 32.458 5.09017 32.4333 5.07453C32.1791 4.90936 31.92 4.74614 31.6628 4.58976C31.5919 4.54578 31.5682 4.45393 31.6125 4.3816C31.6569 4.31123 31.7495 4.28775 31.8224 4.33173C32.0816 4.48909 32.3436 4.65328 32.6008 4.82041C32.6708 4.86537 32.6915 4.9602 32.6442 5.03057C32.6166 5.07455 32.5664 5.09896 32.5171 5.09896ZM14.6749 4.74907C14.6562 4.74907 14.6394 4.74615 14.6207 4.73931C14.5419 4.71097 14.5015 4.623 14.5311 4.54481C14.6187 4.31416 14.7163 4.08936 14.8277 3.87434C14.8493 3.81863 14.871 3.76389 14.8927 3.70818C14.9222 3.62999 15.0099 3.5909 15.0887 3.62022C15.1675 3.64954 15.207 3.7375 15.1774 3.81472C15.1558 3.87434 15.1311 3.93298 15.1075 3.9926L15.1026 4.00629C14.9971 4.21252 14.8996 4.42949 14.8178 4.65037C14.7951 4.71097 14.736 4.74907 14.6749 4.74907ZM30.9534 4.14997C30.9287 4.14997 30.9021 4.14408 30.8785 4.12942L30.7593 4.06395C30.5356 3.93787 30.307 3.81276 30.0813 3.69255C30.0065 3.65443 29.9789 3.5616 30.0183 3.48829C30.0577 3.41401 30.1494 3.38662 30.2242 3.42572C30.4548 3.54691 30.6853 3.67301 30.91 3.80007L31.0312 3.86751C31.1032 3.90856 31.1307 4.0014 31.0874 4.07275C31.0578 4.12259 31.0076 4.14997 30.9534 4.14997ZM29.3365 3.29573C29.3128 3.29573 29.2902 3.29085 29.2685 3.2801C28.9975 3.14621 28.7197 3.01524 28.4457 2.89209C28.3679 2.85788 28.3354 2.76797 28.3709 2.69076C28.4054 2.6155 28.496 2.58228 28.5719 2.61649C28.8497 2.74159 29.1286 2.87451 29.4045 3.00743C29.4804 3.04555 29.5108 3.1374 29.4734 3.21168C29.4468 3.26446 29.3916 3.29573 29.3365 3.29573ZM15.3361 3.0553C15.3213 3.0553 15.3065 3.05434 15.2907 3.04945C15.2099 3.02502 15.1656 2.93998 15.1902 2.85886C15.2563 2.64873 15.3163 2.43663 15.3705 2.22943C15.3932 2.14245 15.4208 2.05744 15.4553 1.97534C15.4858 1.89715 15.5755 1.86096 15.6533 1.89224C15.7321 1.92449 15.7686 2.01248 15.7371 2.08969C15.7085 2.15811 15.6839 2.23043 15.6661 2.30373C15.6129 2.51582 15.5508 2.73277 15.4809 2.94974C15.4612 3.01425 15.4021 3.0553 15.3361 3.0553ZM27.6693 2.54121C27.6496 2.54121 27.6299 2.53633 27.6102 2.52949C27.3234 2.40927 27.0387 2.29589 26.7648 2.19131C26.686 2.16199 26.6465 2.07306 26.6761 1.99487C26.7066 1.91668 26.7953 1.87859 26.8741 1.90888C27.15 2.01346 27.4397 2.12879 27.7284 2.24998C27.8053 2.28126 27.8427 2.37019 27.8092 2.4474C27.7856 2.50605 27.7294 2.54121 27.6693 2.54121ZM25.9578 1.89129C25.941 1.89129 25.9253 1.88931 25.9096 1.88443C25.6169 1.78473 25.3252 1.69289 25.0414 1.60981C24.9606 1.58636 24.9153 1.50229 24.939 1.42214C24.9616 1.342 25.0464 1.29606 25.1282 1.32049C25.4139 1.40357 25.7105 1.49741 26.0081 1.59711C26.0859 1.62447 26.1293 1.71048 26.1027 1.79062C26.081 1.85219 26.0218 1.89129 25.9578 1.89129ZM16.1529 1.47589C16.1056 1.47589 16.0593 1.45538 16.0288 1.41433C15.9795 1.34787 15.9953 1.25305 16.0623 1.20223C16.1716 1.12306 16.2908 1.05758 16.415 1.00382C16.5963 0.92759 16.7894 0.879724 16.9885 0.864086C17.0732 0.85529 17.1471 0.918816 17.154 1.00287C17.1609 1.08594 17.0968 1.15924 17.0131 1.16608C16.8465 1.17976 16.685 1.21885 16.5352 1.28237C16.4317 1.32538 16.3322 1.38207 16.2426 1.44755C16.215 1.4671 16.1834 1.47589 16.1529 1.47589ZM18.027 1.41922L17.9373 1.36741C17.9028 1.34689 17.8663 1.32831 17.8289 1.31169C17.753 1.27553 17.7196 1.18562 17.7551 1.11036C17.7915 1.03413 17.8822 1.00187 17.958 1.03705C17.9915 1.05269 18.025 1.06835 18.0575 1.08692C18.2713 1.01166 18.494 0.94423 18.7216 0.889498C18.8024 0.868974 18.8861 0.918819 18.9068 0.998962C18.9275 1.08106 18.8773 1.16217 18.7946 1.18269C18.5551 1.24231 18.3216 1.31367 18.0969 1.39479L18.027 1.41922ZM24.201 1.38012C24.1892 1.38012 24.1773 1.37914 24.1655 1.37621C23.868 1.30486 23.5694 1.24132 23.2777 1.18952C23.196 1.17291 23.1408 1.09377 23.1546 1.01167C23.1713 0.92957 23.2512 0.874815 23.3339 0.890453C23.6305 0.945185 23.935 1.00873 24.2374 1.08203C24.3202 1.10158 24.3705 1.18366 24.3507 1.26478C24.331 1.33417 24.27 1.38012 24.201 1.38012ZM22.3998 1.05271C22.392 1.05271 22.386 1.0527 22.3801 1.05173C22.0786 1.01654 21.7751 0.989181 21.4786 0.972565C21.3928 0.968656 21.3297 0.896314 21.3337 0.814216C21.3376 0.729186 21.4096 0.667609 21.4953 0.670541C21.7997 0.688133 22.1092 0.71453 22.4176 0.751669C22.5013 0.76242 22.5614 0.837681 22.5505 0.920757C22.5407 0.996991 22.4757 1.05271 22.3998 1.05271ZM19.6567 1.02241C19.5818 1.02241 19.5138 0.96671 19.5059 0.889498C19.4961 0.806423 19.5542 0.731162 19.639 0.720411C19.9375 0.683271 20.2499 0.659814 20.5672 0.652973C20.6529 0.649064 20.7209 0.716502 20.7238 0.800555C20.7258 0.883631 20.6598 0.95302 20.575 0.955952C20.2666 0.962794 19.9651 0.985252 19.6764 1.02044C19.6705 1.02239 19.6626 1.02241 19.6567 1.02241Z" fill="#333333"/>
<path d="M32.4718 28.5596C34.6562 24.8466 37.3599 21.3926 39.031 17.4001C39.3286 16.6905 39.5858 15.9683 39.776 15.2245C39.8706 14.858 39.5562 14.6283 39.2626 14.639C39.1326 13.6519 38.6911 12.6853 38.1689 11.8546C37.0229 10.0328 35.3814 8.52372 33.6729 7.22969C31.7387 5.76463 29.6262 4.52436 27.3865 3.57632C25.3952 2.73188 23.2571 2.06629 21.0756 2.00765C19.903 1.97637 18.6596 2.16208 17.6407 2.76805C17.759 2.18749 16.8465 1.96954 16.6948 2.56084C16.5303 3.20101 16.3174 3.82651 16.0711 4.43834C15.947 4.67193 15.8425 4.91822 15.7558 5.17136C15.2986 6.18097 14.7606 7.15638 14.2059 8.11223C13.0915 10.0308 11.853 11.876 10.6637 13.7477C7.95012 18.0168 5.84154 22.6162 3.47382 27.074C3.2334 27.5255 2.99002 27.9771 2.74271 28.4257C2.61659 28.6045 2.51611 28.7873 2.4363 28.9769C2.32102 29.1821 2.20573 29.3893 2.08749 29.5956C1.94856 29.837 2.04314 30.0647 2.21655 30.1957C2.23626 31.0352 2.56138 31.8865 3.01069 32.6234C4.12213 34.4482 5.86123 35.881 7.56978 37.13C9.60939 38.6234 11.8333 39.8803 14.1379 40.9271C16.1874 41.8595 18.358 42.6805 20.5967 43.0235C21.7948 43.2073 23.3201 43.3138 24.3941 42.6492C24.6079 42.785 24.9124 42.7782 25.073 42.4967C27.6753 37.9236 29.8025 33.0965 32.4718 28.5596Z" fill="#E93380"/>
<path d="M17.3885 13.8063C17.5225 13.3313 17.7323 12.7654 18.019 12.1096C18.3028 11.4538 18.6793 10.6338 19.1483 9.6486C19.4577 9.01234 19.7779 8.32528 20.106 7.58346C20.3829 6.96968 20.5287 6.55723 20.5434 6.34807C20.6952 6.24642 20.8519 6.24054 21.0095 6.3285C21.2647 6.4712 21.243 6.80157 20.9464 7.32152C20.5976 7.93628 20.1681 8.8804 19.6616 10.1549C19.1571 11.4215 18.7669 12.3295 18.4851 12.8768L18.7738 12.5084C19.1542 12.0256 19.5069 11.5672 19.833 11.1322C20.1601 10.6983 20.4991 10.2184 20.847 9.69748C21.249 9.12377 21.6175 8.53932 21.9554 7.94997L22.3574 7.98904C22.4599 8.04671 22.5318 8.12001 22.5702 8.20895C22.6087 8.29985 22.5998 8.39076 22.5466 8.48458L22.4924 8.57937C22.3673 9.09151 22.1978 9.63298 21.983 10.2038C21.7662 10.7736 21.4884 11.4313 21.1475 12.1741C20.8854 12.7449 20.6508 13.2834 20.4459 13.7907C21.1977 12.8221 22.0146 11.5652 22.8945 10.022C23.0334 9.77763 23.2363 9.49614 23.5023 9.1785C23.7635 8.84815 23.9606 8.56863 24.0906 8.34091C24.1074 8.2549 24.1339 8.18256 24.1694 8.11903C24.2758 7.92942 24.4492 7.90206 24.6877 8.03596C24.7833 8.08971 24.8454 8.15519 24.8739 8.23338C24.9005 8.31157 24.8907 8.39467 24.8414 8.48068L24.7399 8.65853C24.6729 8.77679 24.602 8.87355 24.5291 8.9449L24.4966 9.00452C24.2128 9.26157 23.9546 9.59486 23.7211 10.0044L23.2294 10.8664C22.9466 11.3619 22.4658 12.0685 21.784 12.9863C21.11 13.8747 20.6381 14.5549 20.3671 15.028L20.2459 15.2411C20.1434 15.4229 20.036 15.5636 19.9237 15.6691C19.7858 15.7991 19.6261 15.8128 19.4448 15.7112C19.3177 15.6408 19.2438 15.543 19.2231 15.4238C19.2025 15.3026 19.229 15.1795 19.301 15.0534C19.6636 14.4171 20.0675 13.5512 20.5129 12.4605C20.7011 11.964 20.8883 11.4616 21.0745 10.9524L21.5908 9.60562C21.4282 9.81673 21.2844 10.0317 21.1593 10.2516C20.908 10.6914 20.5435 11.2564 20.0676 11.9444C19.5907 12.6335 19.0891 13.2824 18.5649 13.8913C17.9777 14.5706 17.5905 14.856 17.3983 14.7495C17.2417 14.6586 17.2387 14.3438 17.3885 13.8063Z" fill="white"/>
<path d="M21.5476 16.2654C21.655 16.0768 21.8333 16.0514 22.0787 16.1901L22.2107 16.2624L22.322 16.3406C22.385 16.3768 22.4403 16.3827 22.4866 16.3553C22.5339 16.3299 22.5861 16.2654 22.6432 16.1637C22.7191 16.0298 22.8314 15.8177 22.9773 15.5255C23.061 15.3232 23.2255 14.9694 23.4738 14.4622C24.0897 13.219 24.5715 12.2875 24.9223 11.6747C25.0474 11.4538 25.1656 11.2554 25.2779 11.0795L25.6327 10.4833C25.7805 10.2243 25.8938 10.0005 25.9667 9.81481C25.8229 9.77474 25.7224 9.73857 25.6662 9.70827C25.476 9.60076 25.4346 9.45223 25.542 9.26457C25.5972 9.16977 25.7027 9.1209 25.8613 9.11699C26.0209 9.11308 26.2022 9.14629 26.4022 9.21861C26.755 9.33296 27.0545 9.45905 27.3008 9.59881C27.3964 9.65159 27.4575 9.73076 27.487 9.83534C27.5166 9.93991 27.5068 10.0357 27.4575 10.1227C27.4073 10.2087 27.3402 10.2693 27.2526 10.3045C27.1639 10.3387 27.0811 10.3318 27.0023 10.2869C26.954 10.2615 26.9156 10.2351 26.89 10.2087L26.7944 10.1559C26.7155 10.11 26.6475 10.0963 26.5914 10.1119C26.5352 10.1276 26.481 10.1813 26.4268 10.2761C25.9913 11.0394 25.3824 12.2152 24.602 13.8044C24.4562 14.0966 24.2503 14.5315 23.9833 15.1092C23.8158 15.4942 23.6256 15.8754 23.4088 16.2527L23.1536 16.7013C23.2049 16.7208 23.2876 16.7609 23.398 16.8234C23.731 17.0101 23.8197 17.2428 23.663 17.5164L23.6226 17.5878L23.2098 17.622C23.2029 17.6171 23.1753 17.6034 23.129 17.5838C23.0837 17.5633 23.0009 17.5203 22.8817 17.4519C22.6176 17.3258 22.4501 17.2427 22.3801 17.2027C21.6914 16.8137 21.4126 16.5019 21.5476 16.2654Z" fill="white"/>
<path d="M25.2444 18.5738L25.4947 18.1057C25.5637 17.9669 25.6455 17.8164 25.7401 17.6502L25.9805 17.2563C26.0051 17.1557 26.4377 16.2604 27.2772 14.5696C28.1167 12.8797 28.6595 11.7968 28.9088 11.3238C28.4565 11.0511 28.1905 10.837 28.1078 10.6885C28.0565 10.5761 28.0526 10.4813 28.0979 10.4021C28.1334 10.3396 28.2073 10.3044 28.3216 10.3015C28.4339 10.2966 28.5344 10.3191 28.6211 10.367C28.8438 10.4911 29.1049 10.6592 29.4035 10.8693C29.6823 11.0775 29.9415 11.2495 30.1799 11.3824L30.2745 11.4362L30.3701 11.4899C30.6154 11.6287 30.6844 11.7919 30.578 11.9806C30.5238 12.0744 30.44 12.1281 30.3267 12.1438C30.2154 12.1584 30.106 12.1369 30.0026 12.0793C29.9326 12.0392 29.835 11.9698 29.7138 11.8701L29.503 11.6883L29.4567 11.7401L29.4113 11.7939C29.0123 12.4947 28.4418 13.6499 27.7009 15.2606C27.0052 16.7726 26.4317 17.9268 25.9785 18.7214C25.9243 18.8162 25.8346 18.8748 25.7115 18.8993C25.5873 18.9227 25.474 18.9062 25.3696 18.8485L25.2444 18.5738Z" fill="white"/>
<path d="M30.3198 19.1007L30.714 18.4341L31.0362 17.8975L31.0569 17.8623L31.1239 17.7441C31.1682 17.6854 31.2145 17.6131 31.2648 17.5261C31.2737 17.5095 31.2717 17.4841 31.2628 17.446C31.251 17.4098 31.25 17.3844 31.2599 17.3688L31.2667 17.3561C31.2184 17.3492 31.1436 17.317 31.0401 17.2593C30.9366 17.2007 30.8184 17.1137 30.6854 16.9974C30.643 16.9632 30.5268 16.8713 30.3386 16.7247L29.5641 18.0832C29.4469 18.2875 29.2754 18.6178 29.0478 19.0713C28.8241 19.517 28.6527 19.8473 28.5315 20.0594C28.4645 20.1777 28.3738 20.2618 28.2605 20.3145C28.1482 20.3654 28.0398 20.3624 27.9373 20.3038C27.7866 20.2187 27.762 20.0125 27.8654 19.6861C27.9718 19.3509 28.163 18.9433 28.4369 18.4634L29.0064 17.5193C29.167 17.2564 29.3325 16.9759 29.503 16.6768L29.6173 16.4764L29.7119 16.3103C29.7838 16.1852 29.8282 16.0992 29.842 16.0552L29.8754 15.9956L30.3021 15.3319C30.4725 15.0319 30.7149 14.5794 31.0283 13.9763C31.3406 13.3733 31.582 12.9218 31.7535 12.6217C31.8077 12.5269 31.8865 12.4624 31.989 12.4282C32.0924 12.393 32.1919 12.4018 32.2875 12.4556C32.5427 12.5973 32.5339 12.9052 32.2659 13.3772L31.4057 14.8276C31.1387 15.2586 30.8509 15.7463 30.5405 16.2898C30.6371 16.3963 30.8401 16.536 31.1495 16.709L31.5899 16.9573C31.6313 16.9192 31.6678 16.8762 31.6934 16.8293C31.9092 16.451 32.2047 15.8783 32.5782 15.1111C32.9181 14.3888 33.2118 13.8092 33.4591 13.3772C33.5083 13.2902 33.5832 13.2355 33.6847 13.216C33.7872 13.1955 33.8847 13.2101 33.9803 13.2638C34.0355 13.2951 34.1044 13.3596 34.1842 13.4564L34.264 13.5639C33.6275 14.682 32.8157 16.195 31.8294 18.1057L30.2332 21.1531C30.1701 21.2625 30.0784 21.3261 29.9602 21.3417C29.84 21.3584 29.7257 21.3349 29.6143 21.2723C29.3424 21.1238 29.5789 20.3996 30.3198 19.1007Z" fill="white"/>
<path d="M9.33645 28.6641C9.16402 28.672 9.00735 28.6348 8.86447 28.5547C8.7689 28.5009 8.71172 28.4149 8.69103 28.2937C8.67034 28.1735 8.68712 28.066 8.74131 27.9712C9.11869 27.3105 9.64978 26.4436 10.3346 25.3734C11.0519 24.2269 11.5751 23.362 11.9081 22.7804L11.9554 22.6974C12.1899 22.1754 12.3781 21.7923 12.517 21.547C12.9447 20.7993 13.2954 20.5032 13.5733 20.6596C13.6521 20.7045 13.7053 20.7729 13.7309 20.8658C13.7566 20.9577 13.7477 21.0437 13.7024 21.1228C13.6482 21.2176 13.5516 21.3603 13.4097 21.5509C13.2738 21.7347 13.1782 21.8773 13.1191 21.979C12.8176 22.5068 12.5496 22.9847 12.316 23.4157C12.0865 23.8369 11.8194 24.311 11.5189 24.8388C11.4115 24.9355 11.2982 25.089 11.176 25.302L11.0952 25.4437L10.5395 26.3625C10.3661 26.6293 10.1789 26.9401 9.97789 27.2939C9.6685 27.8373 9.64385 28.1823 9.90693 28.3299C9.92269 28.3387 9.9483 28.3504 9.98673 28.368C10.0242 28.3836 10.0744 28.409 10.1375 28.4442C10.2134 28.4775 10.307 28.5234 10.4193 28.5869C10.8479 28.8274 10.9937 29.0658 10.8587 29.3014C10.8144 29.3805 10.7415 29.4275 10.638 29.4431C10.5346 29.4587 10.4262 29.4441 10.3148 29.402C10.0823 29.145 9.75619 28.8997 9.33645 28.6641Z" fill="white"/>
<path d="M12.5831 30.4625C12.4826 30.2357 12.4402 29.9796 12.454 29.6972C12.4984 29.0873 12.6531 28.4843 12.922 27.8861C13.1565 27.3104 13.4157 26.7739 13.6965 26.2784C13.7517 26.1826 13.7999 26.1073 13.8443 26.0487L13.9645 25.8366C13.9872 25.7965 13.9941 25.775 13.9872 25.7711L14.1074 25.5571L14.5902 24.738C14.7419 24.4908 15.003 24.1067 15.3735 23.5867C15.6287 23.2319 15.9292 22.9162 16.2731 22.6416C16.418 22.5155 16.5589 22.4364 16.6929 22.4031C16.8279 22.3689 16.951 22.3826 17.0614 22.4452C17.3786 22.623 17.6319 22.841 17.821 23.098C18.0092 23.3551 18.1324 23.6336 18.1916 23.9366C18.2369 24.223 18.2339 24.5396 18.1817 24.8905C18.1275 25.2394 18.0339 25.5893 17.8979 25.9392C17.756 26.2959 17.5806 26.6595 17.3688 27.0299L17.3146 27.1238C17.1747 27.3691 17.0535 27.5919 16.95 27.7933L16.5776 28.4725C15.2839 30.739 14.1054 31.5747 13.0423 30.9775C12.8373 30.8631 12.6836 30.6912 12.5831 30.4625ZM13.7704 30.5054C13.9547 30.4575 14.134 30.354 14.3113 30.1927C14.6907 29.876 15.0287 29.4949 15.3253 29.0472C15.5933 28.668 15.812 28.3328 15.9775 28.0415C16.1785 27.6877 16.416 27.2069 16.6889 26.6019C16.9875 25.9695 17.222 25.5023 17.3934 25.2023L17.5136 24.9902C17.6683 24.6823 17.7146 24.3657 17.6545 24.0402C17.5944 23.7157 17.4289 23.4773 17.1589 23.3258C16.8899 23.1743 16.6239 23.2271 16.3608 23.4851C16.1411 23.6854 15.9223 23.9777 15.7016 24.3628C15.6169 24.5123 15.5499 24.6413 15.4997 24.7478L15.3164 25.0665L14.9833 25.5962C14.873 25.7526 14.7606 25.9295 14.6493 26.1269C14.4059 26.552 14.1773 26.9791 13.9645 27.4101C13.659 28.0181 13.4108 28.6377 13.2186 29.2681C13.0117 29.921 13.0334 30.3158 13.2797 30.4556C13.4226 30.5367 13.5852 30.5523 13.7704 30.5054Z" fill="white"/>
<path d="M17.0022 32.858C17.5176 31.9519 17.9669 30.9667 18.3492 29.9034C18.7305 28.84 19.1384 27.505 19.5729 25.8982C19.6015 25.8112 19.635 25.6695 19.6754 25.472C19.7828 24.9511 19.8715 24.6325 19.9395 24.5142C19.9799 24.4429 20.0449 24.397 20.1355 24.3745C20.2272 24.353 20.308 24.3618 20.3789 24.4018C20.4981 24.4673 20.5533 24.6286 20.5454 24.8837C20.5405 25.131 20.4903 25.4378 20.3967 25.8053C20.3031 26.1728 20.1711 26.6224 20.0055 27.1531C19.8439 27.6555 19.567 28.4071 19.1709 29.4128L18.9807 29.9142L18.5236 31.0449C18.3886 31.3538 18.298 31.5786 18.2507 31.7174C18.9108 30.9462 19.838 29.8144 21.0352 28.324C22.0481 27.0417 22.7447 26.1718 23.124 25.7086L23.3871 25.8552C23.4581 25.8952 23.5063 25.9558 23.532 26.0389C23.5586 26.122 23.5527 26.1972 23.5113 26.2676C23.3507 26.552 23.1418 26.8374 22.8876 27.1257C22.6343 27.415 22.3101 27.7503 21.914 28.1305C21.578 28.4618 21.3367 28.7169 21.1889 28.8928C21.0411 29.0687 20.8302 29.3609 20.5563 29.7685C19.9493 30.6853 19.3621 31.4838 18.7965 32.164C18.4477 32.5716 18.1295 32.8658 17.8378 33.0446C17.5461 33.2235 17.3097 33.2635 17.1264 33.1599L17.0022 32.858Z" fill="white"/>
<path d="M20.4962 34.929C20.4528 34.8107 20.4567 34.6983 20.508 34.5908L20.6824 34.2849L20.8174 34.0484C20.8499 33.9731 20.8923 33.8891 20.9475 33.7933C21.0421 33.6281 21.1731 33.3691 21.3426 33.0182L21.7495 32.2491C21.9702 31.863 22.3102 31.2952 22.7693 30.5455C23.192 29.877 23.5349 29.3131 23.7999 28.8479C23.863 28.7384 23.9458 28.5664 24.0473 28.3328C24.1527 28.0914 24.2355 27.9194 24.2956 27.8167C24.6139 27.2587 24.94 27.072 25.274 27.2596C25.5351 27.4062 25.809 27.6281 26.0957 27.9242C26.3835 28.2214 26.4859 28.4393 26.4041 28.581C26.3588 28.6602 26.2839 28.714 26.1785 28.7433C26.0731 28.7716 25.9607 28.7794 25.8425 28.7648C25.5765 28.4589 25.3203 28.2116 25.074 28.02C25.0139 28.1432 24.9223 28.3152 24.7961 28.5351C24.6168 28.8498 24.4493 29.1303 24.2995 29.3786C24.0601 29.7431 23.8867 30.0187 23.7783 30.2083L23.7073 30.4185L23.9034 30.5133C23.9714 30.5397 24.0522 30.5817 24.1478 30.6355C24.5291 30.8495 24.6572 31.0655 24.531 31.2864C24.4808 31.3724 24.4049 31.4261 24.3005 31.4447C24.196 31.4633 24.0867 31.4418 23.9763 31.3802C23.8325 31.2991 23.725 31.2297 23.6561 31.1691L23.3575 31.002C23.257 31.215 23.0945 31.519 22.8698 31.9128C22.6452 32.3057 22.4382 32.6586 22.252 32.9694C21.9544 33.4356 21.7377 33.7874 21.6027 34.0239C21.3514 34.4638 21.2342 34.6895 21.25 34.6973L21.65 34.9065C21.7899 34.973 21.9544 35.0609 22.1446 35.1684C22.4471 35.3375 22.5427 35.5174 22.4353 35.706C22.3732 35.8164 22.2747 35.8731 22.1407 35.8761C22.0087 35.88 21.8707 35.8418 21.7278 35.7617L20.7169 35.1939C20.6115 35.1333 20.5386 35.0453 20.4962 34.929Z" fill="white"/>
<path d="M32.4718 28.5596C34.6562 24.8466 37.3599 21.3926 39.031 17.4001C39.3286 16.6905 39.5858 15.9683 39.776 15.2245C39.8706 14.858 39.5562 14.6283 39.2626 14.639C39.1326 13.6519 38.6911 12.6853 38.1689 11.8546C37.0229 10.0328 35.3814 8.52372 33.6729 7.22969C31.7387 5.76463 29.6262 4.52436 27.3865 3.57632C25.3952 2.73188 23.2571 2.06629 21.0756 2.00765C19.903 1.97637 18.6596 2.16208 17.6407 2.76805C17.759 2.18749 16.8465 1.96954 16.6948 2.56084C16.5303 3.20101 16.3174 3.82651 16.0711 4.43834C15.947 4.67193 15.8425 4.91822 15.7558 5.17136C15.2986 6.18097 14.7606 7.15638 14.2059 8.11223C13.0915 10.0308 11.853 11.876 10.6637 13.7477C7.95012 18.0168 5.84154 22.6162 3.47382 27.074C3.2334 27.5255 2.99002 27.9771 2.74271 28.4257C2.61659 28.6045 2.51611 28.7873 2.4363 28.9769C2.32102 29.1821 2.20573 29.3893 2.08749 29.5956C1.94856 29.837 2.04314 30.0647 2.21655 30.1957C2.23626 31.0352 2.56138 31.8865 3.01069 32.6234C4.12213 34.4482 5.86123 35.881 7.56978 37.13C9.60939 38.6234 11.8333 39.8803 14.1379 40.9271C16.1874 41.8595 18.358 42.6805 20.5967 43.0235C21.7948 43.2073 23.3201 43.3138 24.3941 42.6492C24.6079 42.785 24.9124 42.7782 25.073 42.4967C27.6753 37.9236 29.8025 33.0965 32.4718 28.5596ZM24.2759 41.4988C24.2749 41.4998 24.2749 41.5008 24.2739 41.5018C24.2542 41.5252 24.2345 41.5487 24.2138 41.5702C24.1705 41.619 24.1222 41.663 24.0749 41.706C24.0513 41.7266 24.0374 41.7383 24.0305 41.7461C24.0276 41.7461 24.0177 41.752 23.9911 41.7705C23.9261 41.8155 23.8561 41.8546 23.7862 41.8927C23.6088 41.9875 23.6837 41.9533 23.4689 42.0227C23.3053 42.0765 23.1368 42.1126 22.9683 42.1419C22.8974 42.1546 22.7092 42.1752 22.5318 42.1859C22.3279 42.1986 22.122 42.1986 21.917 42.1918C21.4579 42.1791 21.1071 42.1361 20.6647 42.0637C18.4448 41.7051 16.2968 40.8743 14.271 39.9331C11.9801 38.8697 9.7759 37.5884 7.755 36.0794C6.16864 34.8928 4.54978 33.4884 3.62555 31.7497C3.36937 31.2678 3.18514 30.7039 3.17036 30.1957C3.16839 30.1312 3.17133 30.0637 3.17331 29.9992C3.17528 29.9738 3.17627 29.9464 3.17824 29.921C3.18021 29.9122 3.1802 29.9064 3.18118 29.9005C3.18118 29.8966 3.18116 29.8947 3.18215 29.8898C3.20185 29.7481 3.23634 29.6102 3.27969 29.4744C3.28659 29.4529 3.29348 29.4324 3.30038 29.4118C3.39398 29.2437 3.48564 29.0756 3.57924 28.9055C3.60191 28.8743 3.62458 28.844 3.64822 28.8117C3.69848 28.7463 3.72603 28.6808 3.73687 28.6182C5.98635 24.484 7.94124 20.1904 10.3306 16.1315C12.2037 12.9472 14.4572 9.9526 16.1164 6.64619C16.2889 6.62763 16.4386 6.51718 16.4761 6.29141C16.5194 6.02654 16.5894 5.73432 16.6692 5.47923C16.7441 5.31112 16.818 5.14105 16.8889 4.97197C16.9126 4.91626 16.9353 4.8625 16.957 4.80777C17.091 4.56734 17.2377 4.36699 17.3944 4.194C17.8871 3.65352 18.4862 3.34955 19.2074 3.15701C20.9692 2.68886 22.995 3.0974 24.7636 3.63397C27.017 4.31617 29.1522 5.38246 31.1357 6.63641C33.0452 7.8415 34.8503 9.27139 36.3243 10.9857C37.021 11.7959 37.6989 12.7977 38.0477 13.7506C38.3679 14.6263 38.4497 15.4043 38.1374 16.2566C38.0625 16.4648 38.1344 16.627 38.2664 16.7238C37.7471 18.0481 37.0584 19.3108 36.347 20.5384C35.2326 22.4579 33.9941 24.3022 32.8048 26.1748C30.0912 30.4429 27.9826 35.0434 25.6139 39.5011C25.2976 40.0983 24.9725 40.6935 24.6434 41.2838C24.5074 41.2965 24.3734 41.361 24.2759 41.4988Z" fill="#333333"/>
<path d="M24.2413 22.5273C24.4049 22.1891 24.465 21.8275 24.5015 21.4571C24.5389 21.0984 23.9822 20.7886 23.7083 20.6635C23.3792 20.512 23.0471 20.4846 22.7289 20.5481C22.8284 19.5199 21.6569 18.7068 20.6321 19.2756C19.9927 19.6274 19.7148 20.3888 19.8311 21.0739C19.9405 21.719 20.4715 22.2057 20.6065 22.8429C20.6233 22.9211 20.6548 22.9857 20.6942 23.0355C20.7395 23.1684 20.838 23.2857 21.0026 23.3443C22.1613 23.7675 23.6265 23.7939 24.2413 22.5273ZM22.8688 22.5908C22.4412 22.7491 21.9564 22.6514 21.5219 22.5097C21.4204 22.1089 21.2026 21.7493 21.0026 21.3896C20.8144 21.0524 20.6666 20.7328 20.8716 20.3722C21.0095 20.1288 21.2834 19.9539 21.5485 20.08C21.7544 20.1777 21.8382 20.3839 21.7278 20.5941C21.6372 20.768 21.6608 20.9352 21.7426 21.0622C21.3406 21.4678 22.0086 22.0953 22.4658 21.7063C22.8185 21.4092 23.1772 21.4326 23.5063 21.6652C23.4344 22.0542 23.2639 22.4432 22.8688 22.5908Z" fill="white"/>
<path d="M13.6246 35.5282C13.0787 35.2223 12.6018 36.0608 13.1457 36.3658C13.6915 36.6717 14.1685 35.8351 13.6246 35.5282Z" fill="white"/>
<path d="M14.0473 17.9415C13.5014 17.6356 13.0245 18.4732 13.5684 18.7771C14.1133 19.0831 14.5912 18.2465 14.0473 17.9415Z" fill="white"/>
<path d="M28.0082 23.013C27.7777 22.884 27.4772 22.9671 27.3471 23.1958L27.287 23.3004C27.1569 23.5281 27.2397 23.8262 27.4712 23.9552C27.6998 24.0852 28.0004 24.0031 28.1324 23.7744L28.1925 23.6688C28.3216 23.4411 28.2378 23.143 28.0082 23.013Z" fill="white"/>
<path d="M21.8185 38.7466C21.2736 38.4407 20.7967 39.2792 21.3416 39.5842C21.8845 39.8901 22.3614 39.0535 21.8185 38.7466Z" fill="white"/>
<path d="M28.0131 6.1595C27.4683 5.85261 26.9904 6.69018 27.5353 6.99512C28.0802 7.30006 28.5561 6.46541 28.0131 6.1595Z" fill="white"/>
<path d="M7.80329 24.2454C7.25743 23.9395 6.78057 24.7781 7.32446 25.083C7.86836 25.3889 8.34719 24.5523 7.80329 24.2454Z" fill="white"/>
<path d="M7.00424 31.261C6.86038 31.1789 6.69584 31.1828 6.55987 31.2473C6.40616 31.261 6.25934 31.345 6.17756 31.4877C6.04849 31.7135 6.12923 32.0165 6.36177 32.1435C6.46227 32.1983 6.56082 32.2188 6.67413 32.2217C6.88992 32.2276 7.07909 32.0917 7.18748 31.9158C7.32641 31.691 7.22889 31.3861 7.00424 31.261Z" fill="white"/>
<path d="M16.5244 9.93599C15.9785 9.63008 15.5016 10.4677 16.0465 10.7726C16.5904 11.0785 17.0683 10.2409 16.5244 9.93599Z" fill="white"/>
<path d="M35.4268 17.0912C34.8829 16.7863 34.404 17.6229 34.9499 17.9288C35.4938 18.2347 35.9717 17.3961 35.4268 17.0912Z" fill="white"/>
</svg>
