<svg width="49" height="30" viewBox="0 0 49 30" fill="none" xmlns="http://www.w3.org/2000/svg">
<path d="M25.4347 30C21.6412 30 17.7624 29.0666 14.2198 27.3008C11.8348 26.1107 9.75376 24.799 8.03441 23.396C7.72073 23.1402 7.40705 22.8738 7.10513 22.6162C5.80435 21.5077 4.57511 20.4615 3.25864 20.1649C2.2931 19.9462 1.5383 19.2295 1.29324 18.2922C1.12268 17.6398 1.21482 16.9456 1.52556 16.3592C1.64515 15.982 1.84903 15.6358 2.1235 15.3519C2.60676 14.8541 3.26357 14.5799 3.97229 14.5799C4.08893 14.5799 4.20753 14.5886 4.32516 14.6032C4.40162 14.6129 4.47612 14.6178 4.54964 14.6178C5.50048 14.6178 6.50426 13.6085 7.53351 11.6182C7.84425 11.0153 8.12849 10.3415 8.42844 9.62586C9.50475 7.06865 10.8418 3.88624 14.4001 2.64264C15.5215 2.25079 16.7821 2.04366 18.0466 2.04366C20.0885 2.04366 22.0097 2.55025 23.5919 3.47396C24.3084 2.72818 25.174 2.07867 26.164 1.54972C27.8226 0.661987 29.7468 0.172921 31.5809 0.172921C31.8367 0.172921 32.0926 0.182636 32.3435 0.20111C36.1037 0.484057 38.2299 3.21144 39.9385 5.40306C40.4168 6.01563 40.8677 6.59513 41.3265 7.09588C42.9743 8.89468 44.0232 9.27195 44.6142 9.27195C44.8113 9.27195 45.0054 9.23208 45.2063 9.14943C45.5347 9.01331 45.8768 8.94525 46.2218 8.94525C47.5167 8.94525 48.5774 9.89228 48.7734 11.1806C48.9753 12.186 48.592 13.2449 47.7941 13.8701C47.7598 13.9148 47.7255 13.9566 47.6922 13.9955C47.5785 14.1316 47.4549 14.2561 47.3197 14.365C47.1726 14.6071 47.0521 14.892 46.9668 15.1069L46.9188 15.2284C46.5727 16.0977 46.2159 16.9951 45.718 17.8945C44.5681 19.9743 42.9449 21.9861 41.0226 23.7149C39.069 25.4709 37.2957 26.7145 35.443 27.6314C33.2973 28.6932 31.1025 29.4001 28.9225 29.7355C27.7815 29.9115 26.6081 30 25.4347 30Z" fill="#7C7A7A"/>
<path d="M24.2261 29.8281C20.4326 29.8281 16.5547 28.8956 13.0121 27.1289C10.6272 25.9407 8.5461 24.6271 6.82675 23.225C6.51307 22.9683 6.19838 22.7029 5.89646 22.4442C4.59567 21.3358 3.36647 20.2895 2.05098 19.993C1.08446 19.7752 0.33067 19.0576 0.0846283 18.1212C-0.0859344 17.4688 0.00620818 16.7746 0.316946 16.1863C0.437516 15.81 0.64137 15.4639 0.915839 15.1819C1.39812 14.6831 2.05489 14.4089 2.76361 14.4089C2.88124 14.4089 2.99984 14.4167 3.11648 14.4313C3.19294 14.442 3.26843 14.4468 3.34096 14.4468C4.2918 14.4468 5.29558 13.4376 6.32484 11.4472C6.63656 10.8453 6.91985 10.1705 7.22078 9.4549C8.29709 6.89768 9.63415 3.71428 13.1915 2.47165C14.3129 2.0798 15.5735 1.8727 16.838 1.8727C18.8808 1.8727 20.8021 2.37831 22.3832 3.30202C23.1008 2.55624 23.9663 1.9077 24.9564 1.37778C26.614 0.490045 28.5382 0 30.3732 0C30.6291 0 30.8849 0.0106875 31.1348 0.0281894C34.8961 0.311136 37.0222 3.03947 38.7308 5.23207C39.2082 5.84366 39.6591 6.42221 40.1188 6.92296C41.7657 8.72274 42.8155 9.10001 43.4066 9.10001C43.6026 9.10001 43.7957 9.05916 43.9976 8.97651C44.328 8.84233 44.6701 8.77426 45.0152 8.77426C46.3101 8.77426 47.3706 9.71937 47.5647 11.0087C47.7676 12.0131 47.3854 13.0729 46.5865 13.6972C46.5512 13.7419 46.5169 13.7837 46.4855 13.8236C46.3718 13.9587 46.2483 14.0841 46.113 14.193C45.966 14.4342 45.8444 14.7191 45.7591 14.9349L45.7121 15.0555C45.3661 15.9248 45.0092 16.8222 44.5113 17.7236C43.3605 19.8014 41.7372 21.8151 39.815 23.5429C37.8623 25.2989 36.089 26.5435 34.2354 27.4585C32.0896 28.5193 29.8958 29.2272 27.7158 29.5626C26.5728 29.7396 25.3985 29.8281 24.2261 29.8281Z" fill="white"/>
<path d="M45.4366 11.3791C45.416 11.0767 45.1778 10.8103 44.824 10.9552C42.3518 11.9703 40.0943 10.0811 38.521 8.36199C36.3233 5.96229 34.6363 2.4376 30.9721 2.16244C27.8726 1.93102 24.2251 3.54022 22.8155 6.36191C20.6972 4.06528 16.8076 3.47603 13.908 4.49017C10.4409 5.69974 9.73703 9.53851 8.24509 12.4234C7.17662 14.4886 5.49261 16.8951 2.83908 16.5519C2.49992 16.5081 2.33718 16.76 2.34699 17.0244C2.07252 17.2695 2.06563 17.8004 2.52929 17.9034C4.75346 18.4061 6.49243 20.1796 8.19609 21.5691C9.95171 23.0013 11.9514 24.2031 13.9796 25.2144C18.1044 27.2699 22.8027 28.1517 27.3844 27.4468C29.4341 27.1318 31.4191 26.457 33.2728 25.542C35.1637 24.6066 36.8075 23.3553 38.3661 21.9561C40.0413 20.449 41.5303 18.6609 42.6194 16.6919C43.0722 15.8722 43.4075 15.0146 43.7506 14.1483C43.9672 13.6057 44.225 13.069 44.5946 12.6208C44.671 12.5965 44.7475 12.5469 44.8171 12.4642C44.8808 12.3874 44.9416 12.3116 44.9926 12.226C45.0004 12.2163 45.0053 12.2075 45.0102 12.1998C45.0808 12.1404 45.1533 12.084 45.2307 12.0315C45.4346 11.8906 45.5033 11.6037 45.4366 11.3791Z" fill="#E93380"/>
<path d="M24.2261 29.1221C23.9232 29.1221 23.6153 29.1163 23.3085 29.1037C23.2252 29.0998 23.1605 29.0308 23.1644 28.9471C23.1674 28.8645 23.236 28.7984 23.3213 28.8032C23.83 28.8236 24.3427 28.8266 24.8436 28.813C24.926 28.8071 24.9975 28.8762 24.9995 28.9588C25.0024 29.0424 24.9367 29.1115 24.8524 29.1144C24.6456 29.1202 24.4358 29.1221 24.2261 29.1221ZM25.7582 29.0697C25.6788 29.0697 25.6121 29.0084 25.6063 28.9287C25.6004 28.846 25.6641 28.775 25.7474 28.7682C26.0493 28.7478 26.3522 28.7206 26.6492 28.6875C26.7335 28.6778 26.808 28.7381 26.8178 28.8207C26.8276 28.9044 26.7669 28.9782 26.6836 28.988C26.3816 29.021 26.0738 29.0483 25.7689 29.0697C25.765 29.0697 25.7611 29.0697 25.7582 29.0697ZM22.4057 29.0492C22.4008 29.0492 22.3969 29.0492 22.393 29.0483C22.0911 29.0249 21.7843 28.9938 21.4794 28.9578C21.3961 28.9471 21.3363 28.8713 21.3471 28.7887C21.3578 28.707 21.4323 28.6477 21.5166 28.6584C21.8166 28.6934 22.1195 28.7235 22.4175 28.7478C22.5008 28.7546 22.5626 28.8275 22.5567 28.9102C22.5508 28.989 22.4842 29.0492 22.4057 29.0492ZM27.5697 28.8694C27.4952 28.8694 27.4295 28.8149 27.4197 28.741C27.4079 28.6584 27.4657 28.5815 27.5481 28.5699L27.5599 28.567C27.851 28.5222 28.1461 28.4707 28.4382 28.4124C28.5205 28.3949 28.6009 28.4474 28.6175 28.53C28.6342 28.6107 28.5803 28.6914 28.499 28.7079C28.2019 28.7673 27.9029 28.8207 27.6089 28.8654L27.5932 28.8684C27.5844 28.8694 27.5765 28.8694 27.5697 28.8694ZM20.5972 28.8324C20.5883 28.8324 20.5805 28.8314 20.5737 28.8305C20.2727 28.7828 19.9688 28.7293 19.6708 28.669C19.5875 28.6525 19.5346 28.5738 19.5513 28.4921C19.5679 28.4095 19.6473 28.3579 19.7307 28.3735C20.0257 28.4328 20.3247 28.4853 20.6217 28.532C20.704 28.5465 20.7619 28.6234 20.7472 28.705C20.7344 28.7809 20.6697 28.8324 20.5972 28.8324ZM29.3557 28.5106C29.288 28.5106 29.2253 28.4639 29.2087 28.3958C29.1881 28.3151 29.2381 28.2334 29.3184 28.213C29.6086 28.1401 29.9017 28.0604 30.1918 27.9738C30.2722 27.9515 30.3565 27.9962 30.3801 28.075C30.4046 28.1547 30.3595 28.2383 30.2781 28.2626C29.985 28.3501 29.686 28.4318 29.3939 28.5047C29.3802 28.5086 29.3684 28.5106 29.3557 28.5106ZM18.8092 28.4785C18.7975 28.4785 18.7857 28.4775 18.7739 28.4746C18.4779 28.4046 18.1799 28.3278 17.8868 28.2471C17.8055 28.2247 17.7584 28.142 17.7809 28.0623C17.8035 27.9816 17.8868 27.9349 17.9681 27.9583C18.2583 28.038 18.5524 28.1129 18.8455 28.1829C18.9268 28.2014 18.9768 28.283 18.9572 28.3647C18.9406 28.4328 18.8788 28.4785 18.8092 28.4785ZM17.0536 27.9933C17.0379 27.9933 17.0222 27.9913 17.0075 27.9865C16.7174 27.8941 16.4252 27.7969 16.138 27.6938C16.0596 27.6656 16.0185 27.58 16.0469 27.5013C16.0753 27.4235 16.1616 27.3827 16.241 27.4099C16.5243 27.511 16.8134 27.6082 17.0987 27.6987C17.1791 27.724 17.2232 27.8095 17.1977 27.8883C17.1771 27.9525 17.1183 27.9933 17.0536 27.9933ZM31.1025 27.9923C31.0398 27.9923 30.9809 27.9534 30.9594 27.8912C30.9319 27.8124 30.974 27.7279 31.0534 27.6997C31.3367 27.6034 31.622 27.4984 31.9024 27.3895C31.9808 27.3593 32.069 27.3982 32.0994 27.474C32.1298 27.5518 32.0915 27.6403 32.0131 27.6695C31.7288 27.7803 31.4397 27.8873 31.1525 27.9845C31.1358 27.9894 31.1192 27.9923 31.1025 27.9923ZM15.3382 27.3827C15.3195 27.3827 15.3009 27.3788 15.2813 27.371C14.999 27.2582 14.7147 27.1396 14.4373 27.0171C14.3608 26.9831 14.3266 26.8946 14.3599 26.8187C14.3932 26.7429 14.4844 26.7079 14.5609 26.7419C14.8353 26.8634 15.1156 26.9811 15.395 27.091C15.4734 27.1221 15.5107 27.2106 15.4793 27.2864C15.4567 27.3457 15.3989 27.3827 15.3382 27.3827ZM32.8003 27.3311C32.7405 27.3311 32.6856 27.299 32.6601 27.2417C32.6268 27.1649 32.6611 27.0754 32.7375 27.0433C33.012 26.9237 33.2894 26.7963 33.5609 26.6661C33.6354 26.6291 33.7266 26.6612 33.7638 26.7351C33.8001 26.81 33.7687 26.8994 33.6942 26.9364C33.4178 27.0696 33.1384 27.1979 32.86 27.3185C32.8414 27.3282 32.8199 27.3311 32.8003 27.3311ZM13.6727 26.6485C13.6512 26.6485 13.6277 26.6437 13.6061 26.633C13.514 26.5883 13.4218 26.5436 13.3306 26.4969C13.1483 26.4065 12.9689 26.3141 12.7895 26.2227C12.715 26.1848 12.6866 26.0934 12.7248 26.0195C12.764 25.9456 12.8562 25.9174 12.9297 25.9563C13.1081 26.0467 13.2865 26.1391 13.4678 26.2275C13.558 26.2742 13.6502 26.3189 13.7404 26.3627C13.8148 26.3987 13.8462 26.4901 13.8099 26.564C13.7835 26.6184 13.7296 26.6485 13.6727 26.6485ZM34.4392 26.5396C34.3843 26.5396 34.3334 26.5115 34.3049 26.4619C34.2647 26.388 34.2922 26.2966 34.3657 26.2567C34.6274 26.1148 34.8911 25.966 35.1509 25.8094C35.2225 25.7667 35.3155 25.789 35.3597 25.86C35.4038 25.932 35.3803 26.0243 35.3077 26.0681C35.045 26.2266 34.7764 26.3783 34.5108 26.5222C34.4883 26.5338 34.4628 26.5396 34.4392 26.5396ZM12.0563 25.8143C12.0318 25.8143 12.0063 25.8085 11.9828 25.7949C11.7152 25.648 11.4475 25.4964 11.1858 25.3476C11.1143 25.3048 11.0888 25.2134 11.1309 25.1405C11.1731 25.0685 11.2672 25.0442 11.3387 25.086C11.5975 25.2348 11.8632 25.3855 12.1298 25.5294C12.2023 25.5712 12.2298 25.6617 12.1896 25.7346C12.1612 25.7851 12.1082 25.8143 12.0563 25.8143ZM35.9978 25.6033C35.9488 25.6033 35.9008 25.58 35.8714 25.5362C35.8243 25.4672 35.8439 25.3738 35.9135 25.3281C36.1586 25.1638 36.4085 24.9907 36.6556 24.8138C36.7232 24.7642 36.8183 24.7797 36.8683 24.8468C36.9182 24.9129 36.9026 25.0082 36.8359 25.0578C36.585 25.2377 36.3321 25.4127 36.0821 25.578C36.0556 25.5946 36.0272 25.6033 35.9978 25.6033ZM10.481 24.9013C10.4536 24.9013 10.4261 24.8945 10.4016 24.8789C10.1389 24.7195 9.88017 24.5542 9.62923 24.3908C9.55963 24.3441 9.53904 24.2508 9.58609 24.1818C9.63217 24.1127 9.72722 24.0923 9.79681 24.138C10.0438 24.3013 10.3026 24.4638 10.5604 24.6232C10.632 24.667 10.6545 24.7603 10.6104 24.8313C10.582 24.877 10.532 24.9013 10.481 24.9013ZM37.4721 24.5396C37.426 24.5396 37.3819 24.5201 37.3516 24.4822C37.2996 24.4171 37.3123 24.3218 37.378 24.2712C37.6084 24.0904 37.8466 23.8998 38.0818 23.7044C38.1465 23.6509 38.2426 23.6596 38.2965 23.7238C38.3504 23.788 38.3416 23.8823 38.2769 23.9358C38.0387 24.1332 37.7995 24.3266 37.5643 24.5085C37.5378 24.5299 37.5054 24.5396 37.4721 24.5396ZM8.95872 23.9066C8.92932 23.9066 8.89793 23.8978 8.87245 23.8803C8.61857 23.7034 8.36864 23.5235 8.13044 23.3456C8.06477 23.294 8.05004 23.2007 8.10101 23.1336C8.15198 23.0665 8.2461 23.0539 8.31472 23.1034C8.54998 23.2804 8.79701 23.4584 9.04697 23.6334C9.11559 23.681 9.1332 23.7753 9.08419 23.8434C9.0538 23.8842 9.00675 23.9066 8.95872 23.9066ZM38.8709 23.3825C38.8288 23.3825 38.7876 23.365 38.7572 23.331C38.7013 23.2688 38.7082 23.1735 38.7719 23.119C38.8925 23.013 39.0121 22.9051 39.1346 22.7962C39.2375 22.7029 39.3405 22.6095 39.4424 22.5132C39.5042 22.4569 39.5993 22.4588 39.6571 22.521C39.7149 22.5813 39.7119 22.6756 39.6512 22.734C39.5482 22.8302 39.4434 22.9245 39.3385 23.0198C39.215 23.1297 39.0934 23.2386 38.9729 23.3446C38.9425 23.3699 38.9072 23.3825 38.8709 23.3825ZM7.50307 22.8186C7.46974 22.8186 7.43639 22.8079 7.40699 22.7845C7.36386 22.7505 7.31973 22.7155 7.27758 22.6805C7.10995 22.5434 6.92865 22.3927 6.70417 22.2041C6.64046 22.1496 6.63261 22.0543 6.68652 21.9901C6.74141 21.9279 6.83747 21.9201 6.90119 21.9736C7.12469 22.1613 7.30409 22.313 7.46975 22.4471C7.51288 22.4821 7.55501 22.5162 7.59814 22.5502C7.66284 22.6027 7.67363 22.697 7.6207 22.7622C7.59129 22.8001 7.54718 22.8186 7.50307 22.8186ZM40.1991 22.1428C40.1609 22.1428 40.1217 22.1282 40.0933 22.099C40.0325 22.0407 40.0325 21.9454 40.0913 21.8851C40.3031 21.6722 40.5128 21.4534 40.7147 21.2327C40.7716 21.1715 40.8667 21.1685 40.9294 21.223C40.9912 21.2803 40.9961 21.3747 40.9392 21.4369C40.7353 21.6596 40.5226 21.8822 40.308 22.0981C40.2776 22.1282 40.2383 22.1428 40.1991 22.1428ZM6.11114 21.6508C6.07683 21.6508 6.04153 21.6391 6.01212 21.6148C5.73275 21.3786 5.5171 21.1996 5.31517 21.0373C5.25047 20.9847 5.23968 20.8904 5.29262 20.8253C5.34653 20.7611 5.44063 20.7504 5.50728 20.8039C5.71117 20.9682 5.92877 21.1481 6.2101 21.3853C6.27382 21.4398 6.28166 21.5351 6.22775 21.5993C6.19638 21.6333 6.15329 21.6508 6.11114 21.6508ZM41.4274 20.8059C41.3931 20.8059 41.3578 20.7942 41.3284 20.7708C41.2646 20.7164 41.2568 20.623 41.3098 20.5589C41.5038 20.3294 41.6969 20.0931 41.8793 19.8588C41.9302 19.7936 42.0254 19.781 42.092 19.8326C42.1587 19.8841 42.1704 19.9784 42.1194 20.0445C41.9342 20.2818 41.7391 20.52 41.5421 20.7524C41.5127 20.7883 41.4705 20.8059 41.4274 20.8059ZM4.68876 20.5171C4.65837 20.5171 4.627 20.5083 4.59955 20.4898C4.33586 20.3002 4.0908 20.1388 3.85162 19.9959C3.78007 19.9522 3.75656 19.8598 3.79969 19.7888C3.84282 19.7168 3.93694 19.6945 4.0085 19.7363C4.25552 19.8831 4.50744 20.0503 4.77701 20.2448C4.84464 20.2934 4.8603 20.3868 4.81129 20.4558C4.78286 20.4966 4.73581 20.5171 4.68876 20.5171ZM3.12236 19.6002C3.10178 19.6002 3.08216 19.5963 3.06158 19.5875C2.77926 19.465 2.49791 19.3707 2.2254 19.3085C2.14306 19.289 2.09212 19.2093 2.11172 19.1276C2.13133 19.0469 2.21266 18.9954 2.29402 19.0148C2.58516 19.0819 2.88417 19.1811 3.18315 19.3104C3.25961 19.3435 3.29489 19.4329 3.26254 19.5088C3.23804 19.5671 3.18118 19.6002 3.12236 19.6002ZM42.5419 19.3775C42.5125 19.3775 42.4802 19.3678 42.4537 19.3493C42.3861 19.3007 42.3694 19.2073 42.4184 19.1393C42.5939 18.8933 42.7654 18.6434 42.9262 18.3955C42.9713 18.3264 43.0654 18.305 43.136 18.3507C43.2066 18.3964 43.2271 18.4898 43.1821 18.5588C43.0184 18.8106 42.8448 19.0654 42.6674 19.3133C42.637 19.3542 42.59 19.3775 42.5419 19.3775ZM1.45103 18.9157C1.41672 18.9157 1.38046 18.903 1.35105 18.8777C1.10207 18.6619 0.915784 18.3818 0.808938 18.0678C0.783451 17.9881 0.826581 17.9025 0.905981 17.8772C0.985381 17.8509 1.07169 17.8937 1.09815 17.9735C1.18638 18.237 1.34319 18.4723 1.551 18.6521C1.61374 18.7066 1.61963 18.8019 1.56572 18.8641C1.53631 18.8972 1.49318 18.9157 1.45103 18.9157ZM43.5291 17.8568C43.5046 17.8568 43.4771 17.8509 43.4536 17.8364C43.381 17.7936 43.3555 17.7022 43.3986 17.6302C43.4741 17.5009 43.5486 17.3687 43.6222 17.2374C43.6918 17.111 43.7623 16.9788 43.831 16.8446C43.8682 16.7707 43.9593 16.7415 44.0338 16.7785C44.1103 16.8154 44.1397 16.9058 44.1015 16.9807C44.0319 17.1178 43.9593 17.2539 43.8888 17.3842C43.8143 17.5174 43.7378 17.6506 43.6613 17.7819C43.6329 17.8305 43.582 17.8568 43.5291 17.8568ZM0.89228 17.2773C0.883458 17.2773 0.873677 17.2763 0.865835 17.2744C0.782514 17.2607 0.727621 17.182 0.743305 17.0993C0.784475 16.8738 0.862908 16.656 0.977597 16.4566C0.999162 16.375 1.02857 16.2962 1.0619 16.2194C1.09424 16.1435 1.18437 16.1086 1.26083 16.1406C1.33827 16.1737 1.37361 16.2622 1.34028 16.339C1.31088 16.408 1.28438 16.4809 1.26478 16.5548L1.25987 16.5743L1.2491 16.5918C1.14716 16.7668 1.07654 16.9554 1.04126 17.1548C1.02851 17.2277 0.963838 17.2773 0.89228 17.2773ZM44.3524 16.2437C44.3319 16.2437 44.3113 16.2408 44.2907 16.232C44.2142 16.198 44.179 16.1095 44.2113 16.0327C44.3181 15.7915 44.4299 15.5271 44.5603 15.2023C44.5907 15.1246 44.6799 15.0876 44.7573 15.1177C44.8347 15.1489 44.8729 15.2364 44.8426 15.3142C44.7092 15.6418 44.5975 15.9082 44.4906 16.1523C44.4661 16.2116 44.4103 16.2437 44.3524 16.2437ZM1.76178 15.7322C1.71473 15.7322 1.66764 15.7118 1.63823 15.67C1.5902 15.6029 1.60494 15.5086 1.67258 15.459C1.9392 15.2684 2.25875 15.1508 2.59203 15.1207C2.67535 15.1148 2.74986 15.1751 2.7577 15.2587C2.76456 15.3414 2.70282 15.4143 2.6195 15.4211C2.33817 15.4464 2.07151 15.5436 1.84997 15.7041C1.8235 15.7225 1.79315 15.7322 1.76178 15.7322ZM3.51544 15.4464C3.43702 15.4464 3.37135 15.3861 3.36449 15.3064C3.35861 15.2237 3.42133 15.1518 3.50563 15.145C3.77912 15.1245 4.05555 15.0468 4.32218 14.9194C4.39766 14.8834 4.48879 14.9136 4.52506 14.9884C4.56231 15.0633 4.53096 15.1537 4.45548 15.1897C4.15357 15.3356 3.84184 15.4221 3.52914 15.4464C3.52424 15.4464 3.52034 15.4464 3.51544 15.4464ZM5.14167 14.7006C5.09853 14.7006 5.05536 14.6831 5.02596 14.6481C4.97106 14.5859 4.97797 14.4906 5.04169 14.4361C5.24656 14.2592 5.45335 14.0462 5.65626 13.8041C5.71115 13.7399 5.80525 13.7312 5.87093 13.7837C5.93464 13.8372 5.94444 13.9315 5.89151 13.9957C5.67781 14.2514 5.46024 14.476 5.24164 14.6637C5.21125 14.688 5.17597 14.7006 5.14167 14.7006ZM45.0396 14.5694C45.019 14.5694 44.9984 14.5654 44.9798 14.5577C44.9024 14.5246 44.8671 14.4361 44.8984 14.3593C45.0445 14.0151 45.1827 13.7536 45.3327 13.5329C45.3807 13.4648 45.4748 13.4453 45.5444 13.493C45.614 13.5396 45.6327 13.633 45.5846 13.702C45.4474 13.9023 45.3151 14.1561 45.1788 14.477C45.1543 14.5344 45.0994 14.5694 45.0396 14.5694ZM6.31307 13.3238C6.28464 13.3238 6.25423 13.3151 6.22972 13.2995C6.16013 13.2519 6.14052 13.1585 6.18659 13.0895C6.34245 12.8571 6.49929 12.6004 6.65613 12.3281C6.6973 12.2552 6.78944 12.229 6.86296 12.2698C6.93648 12.3116 6.96198 12.403 6.92081 12.4749C6.76201 12.755 6.60126 13.0185 6.4405 13.2567C6.4111 13.3005 6.36306 13.3238 6.31307 13.3238ZM46.1032 13.1362C46.0591 13.1362 46.0159 13.1167 45.9865 13.0817C45.9326 13.0185 45.9405 12.9232 46.0052 12.8687C46.214 12.6927 46.3796 12.4613 46.4815 12.1988C46.5119 12.122 46.6001 12.0831 46.6785 12.1133C46.757 12.1444 46.7962 12.2309 46.7648 12.3087C46.6433 12.6169 46.4482 12.8911 46.2012 13.0992C46.1727 13.1235 46.1375 13.1362 46.1032 13.1362ZM7.21194 11.7525C7.19038 11.7525 7.16684 11.7476 7.14625 11.7369C7.07077 11.7 7.03942 11.6096 7.07667 11.5347C7.1943 11.2965 7.31782 11.0281 7.45407 10.7189C7.4874 10.6431 7.57756 10.6091 7.65402 10.6412C7.73146 10.6742 7.76576 10.7637 7.73342 10.8395C7.59422 11.1536 7.46878 11.4248 7.34919 11.667C7.32371 11.7214 7.2688 11.7525 7.21194 11.7525ZM46.7472 11.5172C46.6697 11.5172 46.6041 11.4589 46.5962 11.3811C46.5903 11.3159 46.5796 11.2488 46.5658 11.1847L46.5649 11.174C46.5345 10.9601 46.4659 10.7607 46.3629 10.578C46.3228 10.505 46.3482 10.4136 46.4218 10.3718C46.4953 10.3319 46.5874 10.3572 46.6295 10.4311C46.7491 10.645 46.8285 10.8794 46.8638 11.1273C46.8815 11.2012 46.8923 11.277 46.9001 11.3519C46.907 11.4346 46.8462 11.5085 46.7628 11.5172C46.757 11.5172 46.7521 11.5172 46.7472 11.5172ZM43.4075 10.1064C43.3418 10.1064 43.2752 10.1044 43.2085 10.0986C43.1262 10.0918 43.0634 10.0198 43.0693 9.93719C43.0761 9.85357 43.1487 9.7923 43.232 9.79716C43.5222 9.81953 43.7957 9.78841 44.0731 9.69992C44.1525 9.67367 44.2388 9.7184 44.2642 9.79716C44.2888 9.87689 44.2446 9.96149 44.1652 9.98677C43.9153 10.0675 43.6663 10.1064 43.4075 10.1064ZM7.9491 10.0976C7.92852 10.0976 7.90888 10.0947 7.88927 10.0859C7.81281 10.0548 7.77559 9.96635 7.80892 9.88954L7.87653 9.72618C7.97063 9.50255 8.06373 9.27988 8.16078 9.05528C8.19313 8.97846 8.28331 8.94251 8.35977 8.9746C8.43721 9.00766 8.47351 9.09612 8.44018 9.17293C8.34412 9.39559 8.25097 9.61924 8.15785 9.84093L8.08827 10.0072C8.06474 10.0636 8.0089 10.0976 7.9491 10.0976ZM45.8689 10.013C45.8434 10.013 45.8149 10.0062 45.7904 9.99262C45.5581 9.85455 45.2896 9.78161 45.0161 9.78161H45.0004C44.9161 9.78161 44.8484 9.71453 44.8484 9.63188C44.8474 9.54826 44.9141 9.48117 44.9984 9.4802H45.0161C45.3444 9.4802 45.666 9.56769 45.9464 9.73396C46.0189 9.77674 46.0424 9.86815 46.0003 9.9401C45.9709 9.9858 45.9218 10.013 45.8689 10.013ZM42.339 9.88565C42.3194 9.88565 42.3008 9.88274 42.2822 9.87497C42.0146 9.76801 41.7342 9.62118 41.4509 9.44129C41.3803 9.39559 41.3598 9.30128 41.4058 9.23225C41.4509 9.16321 41.545 9.14183 41.6156 9.18753C41.8832 9.35866 42.1449 9.49573 42.3949 9.59491C42.4723 9.62603 42.5105 9.71356 42.4792 9.79135C42.4557 9.85066 42.3998 9.88565 42.339 9.88565ZM40.803 8.92694C40.7687 8.92694 40.7343 8.91527 40.7049 8.89291C40.4824 8.70914 40.2531 8.50203 40.0217 8.27645C39.961 8.21811 39.96 8.12283 40.0198 8.06352C40.0786 8.00226 40.1737 8.00227 40.2344 8.06061C40.4599 8.28133 40.6844 8.48259 40.9 8.65956C40.9647 8.71304 40.9735 8.80832 40.9196 8.87249C40.8892 8.90847 40.8461 8.92694 40.803 8.92694ZM8.66855 8.43689C8.64698 8.43689 8.62545 8.43202 8.60585 8.42229C8.52939 8.38826 8.49604 8.29882 8.53034 8.22298C8.66758 7.9235 8.79799 7.65612 8.92935 7.40234C8.96758 7.32844 9.0597 7.29926 9.1342 7.33718C9.2087 7.3751 9.23807 7.46651 9.19984 7.54041C9.07044 7.7903 8.94111 8.05379 8.80682 8.34841C8.78035 8.40286 8.7254 8.43689 8.66855 8.43689ZM39.4963 7.66777C39.4552 7.66777 39.414 7.65125 39.3846 7.61916L39.3679 7.59973C39.1846 7.40137 38.9944 7.18063 38.7846 6.92588C38.7307 6.86268 38.7405 6.76643 38.8052 6.71393C38.8699 6.66142 38.966 6.67114 39.0189 6.73434C39.2258 6.9852 39.413 7.20106 39.5923 7.39747L39.6081 7.414C39.6649 7.47623 39.661 7.57055 39.5992 7.62792C39.5698 7.65417 39.5326 7.66777 39.4963 7.66777ZM9.50473 6.82962C9.47924 6.82962 9.45083 6.82282 9.42731 6.80921C9.35575 6.76642 9.33123 6.67407 9.37436 6.60212C9.53806 6.33181 9.70863 6.07315 9.88213 5.8359C9.93114 5.76881 10.0252 5.75328 10.0939 5.8019C10.1615 5.85148 10.1772 5.94481 10.1281 6.01287C9.96053 6.24331 9.79487 6.49417 9.63509 6.75864C9.60765 6.80434 9.55668 6.82962 9.50473 6.82962ZM38.3357 6.27346C38.2896 6.27346 38.2455 6.25304 38.2151 6.21414C38.1201 6.0926 38.0249 5.9701 37.9279 5.84661L37.9132 5.82715C37.828 5.71825 37.7426 5.60839 37.6564 5.49852C37.6044 5.43337 37.6172 5.33904 37.6828 5.28653C37.7485 5.23597 37.8446 5.24766 37.8956 5.31377C37.9828 5.42267 38.0681 5.53353 38.1534 5.64243L38.168 5.66089C38.2651 5.78535 38.3602 5.90785 38.4553 6.02842C38.5072 6.09454 38.4945 6.18887 38.4288 6.2404C38.4014 6.26277 38.369 6.27346 38.3357 6.27346ZM10.5742 5.3692C10.5379 5.3692 10.5016 5.35656 10.4732 5.33128C10.4104 5.27586 10.4046 5.18057 10.4604 5.11737C10.6702 4.88498 10.8918 4.66719 11.1202 4.46883C11.1829 4.41341 11.279 4.4202 11.3348 4.4834C11.3907 4.5466 11.3838 4.64094 11.3201 4.69539C11.1015 4.88596 10.8888 5.09596 10.6869 5.32057C10.6575 5.35266 10.6163 5.3692 10.5742 5.3692ZM37.2114 4.84901C37.1673 4.84901 37.1232 4.82954 37.0938 4.7926C36.8859 4.53785 36.6948 4.31423 36.5095 4.10421C36.4546 4.04198 36.4605 3.94668 36.5242 3.89223C36.5869 3.83583 36.683 3.84264 36.7389 3.90487C36.9261 4.11684 37.1202 4.34534 37.331 4.60204C37.3839 4.66718 37.3731 4.76246 37.3084 4.81497C37.279 4.83733 37.2457 4.84901 37.2114 4.84901ZM22.5733 4.63023L22.4567 4.54759C22.3901 4.49994 22.3214 4.45424 22.2538 4.40854C22.1852 4.36187 22.1656 4.26853 22.2117 4.19949C22.2577 4.13046 22.3528 4.11101 22.4224 4.15768C22.4537 4.1781 22.4852 4.19949 22.5175 4.22089C22.6293 4.08671 22.7468 3.95641 22.8694 3.8271C22.9282 3.76681 23.0233 3.76583 23.084 3.82125C23.1458 3.87959 23.1478 3.97391 23.0909 4.03516C22.9409 4.19171 22.7968 4.35409 22.6625 4.51842L22.5733 4.63023ZM11.9446 4.18489C11.8956 4.18489 11.8465 4.16156 11.8171 4.1178C11.7711 4.04877 11.7907 3.95445 11.8603 3.90876C12.1171 3.73957 12.3886 3.58596 12.668 3.44983C12.7434 3.41483 12.8346 3.44497 12.8719 3.52081C12.9072 3.59471 12.8758 3.68513 12.8013 3.72208C12.5337 3.85043 12.2739 3.99723 12.0279 4.15961C12.0024 4.17614 11.973 4.18489 11.9446 4.18489ZM21.5529 3.97392C21.5304 3.97392 21.5049 3.96906 21.4833 3.95739C21.2216 3.82126 20.9471 3.69679 20.6687 3.58594C20.5903 3.55483 20.5531 3.46732 20.5835 3.38954C20.6148 3.31369 20.704 3.27578 20.7814 3.30592C21.0696 3.41968 21.3539 3.54996 21.6235 3.68998C21.697 3.72887 21.7264 3.82028 21.6872 3.89321C21.6617 3.94474 21.6088 3.97392 21.5529 3.97392ZM36.0037 3.49357C35.9645 3.49357 35.9253 3.47802 35.8958 3.44885C35.6763 3.22813 35.4557 3.02393 35.2391 2.83919C35.1764 2.78474 35.1695 2.68945 35.2234 2.62528C35.2783 2.56402 35.3734 2.55625 35.4381 2.60973C35.6606 2.8003 35.8871 3.01132 36.1115 3.2369C36.1713 3.29621 36.1703 3.39052 36.1105 3.44983C36.0811 3.479 36.0429 3.49357 36.0037 3.49357ZM23.6398 3.45953C23.5967 3.45953 23.5546 3.44205 23.5242 3.40802C23.4693 3.34482 23.4761 3.24856 23.5408 3.19411C23.7712 2.9977 24.0163 2.80905 24.2702 2.63014C24.3388 2.5825 24.4339 2.59905 24.4819 2.66614C24.5309 2.73323 24.5133 2.8285 24.4456 2.87711C24.2006 3.04921 23.9624 3.23202 23.7389 3.42357C23.7095 3.44788 23.6742 3.45953 23.6398 3.45953ZM13.5776 3.39538C13.5139 3.39538 13.4551 3.35551 13.4345 3.29328C13.4071 3.21452 13.4502 3.12895 13.5296 3.10367C13.8159 3.00643 14.1158 2.92186 14.4197 2.85088C14.501 2.83144 14.5834 2.88297 14.603 2.96367C14.6226 3.04437 14.5716 3.12508 14.4893 3.14453C14.1942 3.21259 13.9041 3.29521 13.6276 3.38856C13.61 3.39342 13.5923 3.39538 13.5776 3.39538ZM19.864 3.30105C19.8492 3.30105 19.8355 3.29912 19.8208 3.29524C19.5375 3.21162 19.2434 3.13964 18.9484 3.08227C18.866 3.06477 18.8122 2.98602 18.8288 2.90337C18.8455 2.82267 18.9259 2.76919 19.0082 2.78572C19.3131 2.84698 19.614 2.91894 19.9071 3.00548C19.9875 3.02881 20.0335 3.11242 20.009 3.19215C19.9904 3.25924 19.9296 3.30105 19.864 3.30105ZM15.3489 2.98213C15.2744 2.98213 15.2088 2.92768 15.199 2.85281C15.1872 2.77016 15.245 2.69335 15.3283 2.68169C15.6322 2.6389 15.941 2.60973 16.2478 2.5932C16.3321 2.58834 16.4027 2.65251 16.4076 2.73516C16.4125 2.8178 16.3468 2.8888 16.2645 2.89269C15.9655 2.90922 15.6656 2.93839 15.3705 2.9802C15.3637 2.98214 15.3558 2.98213 15.3489 2.98213ZM18.077 2.94714C18.0711 2.94714 18.0652 2.94713 18.0593 2.94616C17.7643 2.9131 17.4634 2.89172 17.1624 2.88394C17.0781 2.88102 17.0125 2.81199 17.0164 2.72934C17.0183 2.64572 17.086 2.58152 17.1722 2.58347C17.48 2.59222 17.7908 2.61362 18.0937 2.64765C18.176 2.65543 18.2367 2.73126 18.2279 2.81391C18.2201 2.88975 18.1534 2.94714 18.077 2.94714ZM25.1249 2.41623C25.072 2.41623 25.022 2.389 24.9926 2.34039C24.9514 2.26941 24.9749 2.17704 25.0494 2.13621C25.3141 1.98452 25.5896 1.83966 25.868 1.71034C25.9444 1.67533 26.0346 1.7074 26.0699 1.78325C26.1052 1.85811 26.0728 1.94759 25.9974 1.98357C25.7258 2.109 25.4573 2.24802 25.2004 2.39582C25.1779 2.40943 25.1504 2.41623 25.1249 2.41623ZM34.6215 2.31902C34.5912 2.31902 34.5598 2.30928 34.5343 2.2908C34.2853 2.11773 34.0295 1.96023 33.7756 1.82411C33.7021 1.78424 33.6737 1.69282 33.7139 1.6199C33.7541 1.546 33.8462 1.51878 33.9197 1.55865C34.1853 1.70061 34.45 1.86396 34.7088 2.04481C34.7774 2.09343 34.7941 2.18678 34.7451 2.25484C34.7157 2.29568 34.6686 2.31902 34.6215 2.31902ZM26.7727 1.65102C26.7109 1.65102 26.6531 1.61311 26.6306 1.55186C26.6012 1.47407 26.6414 1.38655 26.7208 1.35836C27.009 1.25432 27.305 1.15999 27.6001 1.07928C27.6814 1.05789 27.7648 1.10554 27.7863 1.18527C27.8079 1.265 27.7608 1.34766 27.6804 1.37002C27.3922 1.44683 27.105 1.53919 26.8247 1.64031C26.809 1.64809 26.7903 1.65102 26.7727 1.65102ZM33.0208 1.46432C33.0012 1.46432 32.9835 1.46044 32.9649 1.45266C32.6895 1.34862 32.4032 1.26112 32.115 1.19403C32.0337 1.17458 31.9827 1.09289 32.0023 1.01219C32.0219 0.930516 32.1043 0.879964 32.1856 0.900383C32.4876 0.969418 32.7856 1.0618 33.0757 1.1707C33.1532 1.19987 33.1924 1.28737 33.163 1.36515C33.1404 1.42641 33.0816 1.46432 33.0208 1.46432ZM28.5293 1.17554C28.4578 1.17554 28.3931 1.12402 28.3803 1.05207C28.3646 0.969424 28.4195 0.891638 28.5019 0.876081C28.8058 0.819686 29.1136 0.777878 29.4184 0.750653C29.5008 0.742875 29.5762 0.804116 29.5841 0.886763C29.5919 0.969411 29.5302 1.04331 29.4468 1.05011C29.1508 1.07831 28.8528 1.11818 28.5568 1.17263C28.5479 1.17361 28.5382 1.17554 28.5293 1.17554ZM31.2534 1.04916C31.2476 1.04916 31.2426 1.04916 31.2368 1.04916C31.1779 1.04333 31.1191 1.03747 31.0583 1.03261C30.8339 1.0151 30.6026 1.0083 30.3732 1.0083H30.3428C30.2585 1.0083 30.1908 0.941215 30.1908 0.857595C30.1908 0.774947 30.2575 0.706885 30.3418 0.706885H30.3722C30.6104 0.706885 30.8496 0.715637 31.0819 0.732167C31.1437 0.737028 31.2064 0.74384 31.2671 0.749674C31.3505 0.758425 31.4113 0.832328 31.4044 0.914003C31.3956 0.990817 31.3299 1.04916 31.2534 1.04916Z" fill="#333333"/>
<path d="M45.4366 11.3791C45.416 11.0767 45.1778 10.8103 44.824 10.9552C42.3518 11.9703 40.0943 10.0811 38.521 8.36199C36.3233 5.96229 34.6363 2.4376 30.9721 2.16244C27.8726 1.93102 24.2251 3.54022 22.8155 6.36191C20.6972 4.06528 16.8076 3.47603 13.908 4.49017C10.4409 5.69974 9.73703 9.53851 8.24509 12.4234C7.17662 14.4886 5.49261 16.8951 2.83908 16.5519C2.49992 16.5081 2.33718 16.76 2.34699 17.0244C2.07252 17.2695 2.06563 17.8004 2.52929 17.9034C4.75346 18.4061 6.49243 20.1796 8.19609 21.5691C9.95171 23.0013 11.9514 24.2031 13.9796 25.2144C18.1044 27.2699 22.8027 28.1517 27.3844 27.4468C29.4341 27.1318 31.4191 26.457 33.2728 25.542C35.1637 24.6066 36.8075 23.3553 38.3661 21.9561C40.0413 20.449 41.5303 18.6609 42.6194 16.6919C43.0722 15.8722 43.4075 15.0146 43.7506 14.1483C43.9672 13.6057 44.225 13.069 44.5946 12.6208C44.671 12.5965 44.7475 12.5469 44.8171 12.4642C44.8808 12.3874 44.9416 12.3116 44.9926 12.226C45.0004 12.2163 45.0053 12.2075 45.0102 12.1998C45.0808 12.1404 45.1533 12.084 45.2307 12.0315C45.4346 11.8906 45.5033 11.6037 45.4366 11.3791Z" fill="#E93380"/>
<path d="M45.4366 11.3791C45.416 11.0767 45.1778 10.8103 44.824 10.9552C42.3518 11.9703 40.0943 10.0811 38.521 8.36199C36.3233 5.96229 34.6363 2.4376 30.9721 2.16244C27.8726 1.93102 24.2251 3.54022 22.8155 6.36191C20.6972 4.06528 16.8076 3.47603 13.908 4.49017C10.4409 5.69974 9.73703 9.53851 8.24509 12.4234C7.17662 14.4886 5.49261 16.8951 2.83908 16.5519C2.49992 16.5081 2.33718 16.76 2.34699 17.0244C2.07252 17.2695 2.06563 17.8004 2.52929 17.9034C4.75346 18.4061 6.49243 20.1796 8.19609 21.5691C9.95171 23.0013 11.9514 24.2031 13.9796 25.2144C18.1044 27.2699 22.8027 28.1517 27.3844 27.4468C29.4341 27.1318 31.4191 26.457 33.2728 25.542C35.1637 24.6066 36.8075 23.3553 38.3661 21.9561C40.0413 20.449 41.5303 18.6609 42.6194 16.6919C43.0722 15.8722 43.4075 15.0146 43.7506 14.1483C43.9672 13.6057 44.225 13.069 44.5946 12.6208C44.671 12.5965 44.7475 12.5469 44.8171 12.4642C44.8808 12.3874 44.9416 12.3116 44.9926 12.226C45.0004 12.2163 45.0053 12.2075 45.0102 12.1998C45.0808 12.1404 45.1533 12.084 45.2307 12.0315C45.4346 11.8906 45.5033 11.6037 45.4366 11.3791ZM10.1321 10.7957C10.7761 9.275 11.3319 7.67065 12.5513 6.49025C13.8001 5.28262 15.6028 5.02108 17.279 5.08915C19.1739 5.16499 21.2746 5.87964 22.4058 7.44314C22.344 7.67261 22.2969 7.90986 22.2646 8.15197C22.2018 8.63522 22.7469 8.76063 23.0723 8.53603C23.4458 8.8005 24.0967 8.53215 23.884 8.02654C23.7771 7.7679 23.6517 7.52383 23.5105 7.29047C24.1683 5.44597 26.0376 4.18489 27.8736 3.61413C29.4743 3.11533 31.2828 2.90335 32.8062 3.74733C34.2942 4.57186 35.2489 5.97687 36.2703 7.27979C37.6721 9.0679 39.6699 11.4015 42.0077 12.0947C38.3622 13.667 34.1462 13.2606 30.2399 13.1731C27.9471 13.1215 25.6347 13.1711 23.3889 13.6806C22.1842 13.9529 21.0491 14.4487 19.8973 14.8843C18.7171 15.3297 17.53 15.7575 16.3253 16.1357C15.2019 16.4867 14.0619 16.7794 12.9081 17.005C11.7701 17.2267 10.7163 17.2928 9.56451 17.1664C8.49996 17.0488 7.35014 16.7794 6.21502 16.6861C8.08533 15.3297 9.29988 12.7608 10.1321 10.7957ZM41.5783 16.4352C40.3226 18.6521 38.5121 20.5482 36.5644 22.1797C32.9257 25.2289 28.1814 26.8333 23.4321 26.6476C19.5062 26.4949 15.8538 25.2066 12.4945 23.2366C11.6515 22.7417 10.83 22.2089 10.0204 21.6624C9.21949 21.1218 8.49019 20.4811 7.74815 19.8636C6.84142 19.112 5.88959 18.3235 4.84367 17.7303C5.52004 17.6613 6.21892 17.743 6.88451 17.8227C8.00003 17.9569 9.10479 18.1679 10.2252 18.2544C11.4348 18.3478 12.619 18.1202 13.7992 17.8694C15.0421 17.6059 16.2625 17.2461 17.4673 16.8465C19.7963 16.0735 22.0411 14.9505 24.4662 14.5051C26.7326 14.089 29.0694 14.1609 31.3622 14.229C35.4204 14.3476 39.7267 14.545 43.384 12.5722C43.1997 12.8765 43.037 13.2003 42.8939 13.5386C42.4743 14.5246 42.1087 15.5008 41.5783 16.4352Z" fill="#333333"/>
<path d="M17.3614 18.13C16.8292 19.4193 16.8252 20.833 16.8252 22.205C16.8252 22.8672 17.8614 22.8672 17.8614 22.205C17.8614 20.9157 17.8594 19.6157 18.3612 18.4022C18.6141 17.7897 17.6114 17.5262 17.3614 18.13Z" fill="#333333"/>
<path d="M33.6541 17.2344C33.359 16.5567 32.9395 15.9432 32.6395 15.2674C32.3719 14.6626 31.4779 15.1857 31.7455 15.7866C32.0013 16.3632 32.3484 16.8961 32.6268 17.4619C32.9914 18.2029 33.113 18.9904 33.0552 19.8091C33.0091 20.4713 34.0462 20.4664 34.0922 19.8091C34.155 18.9166 34.0109 18.0541 33.6541 17.2344Z" fill="#333333"/>
<path d="M26.6492 19.8422C26.4865 19.1567 26.4953 18.4538 26.4953 17.7537C26.4944 17.0906 25.4583 17.0906 25.4583 17.7537C25.4583 18.5471 25.4661 19.3396 25.6494 20.1174C25.8013 20.7601 26.8012 20.4869 26.6492 19.8422Z" fill="#333333"/>
<path d="M35.9204 9.27217C35.3999 8.09566 34.5932 7.05428 33.4688 6.39116C32.3092 5.70664 30.9221 5.62982 29.638 5.95458C28.991 6.11696 29.2655 7.10874 29.9135 6.94539C30.9535 6.68189 32.0014 6.75383 32.9454 7.27889C33.9286 7.82631 34.5833 8.79084 35.0264 9.79234C35.293 10.3962 36.1851 9.87404 35.9204 9.27217Z" fill="#333333"/>
<path d="M16.5154 7.8379C14.4745 8.60896 13.4757 10.5089 12.8728 12.4778C12.6777 13.1128 13.6776 13.3831 13.8727 12.7501C14.355 11.173 15.1274 9.45683 16.7909 8.82774C17.4084 8.59535 17.1398 7.60163 16.5154 7.8379Z" fill="#333333"/>
</svg>
