<svg width="46" height="41" viewBox="0 0 46 41" fill="none" xmlns="http://www.w3.org/2000/svg">
<path opacity="0.66" d="M2.65793 24.6725C4.19254 27.4854 6.68117 29.4422 9.44185 30.114C9.4388 30.2157 9.43367 30.3194 9.43367 30.4181C9.43367 35.2997 13.1109 41 23.4776 41C33.8434 41 37.5216 35.2997 37.5216 30.4181C37.5216 30.3194 37.5155 30.2157 37.5124 30.114C40.2741 29.4422 42.7628 27.4854 44.2974 24.6705C46.9911 19.7276 45.6544 13.8107 41.3155 11.4802C40.127 10.8417 38.8267 10.5174 37.4505 10.5174C37.3855 10.5174 37.3206 10.5234 37.2567 10.5254C37.209 8.69953 36.7198 6.93908 35.8236 5.43444C34.4636 3.1523 32.2672 1.65572 29.7937 1.32739C29.4507 1.28207 29.1016 1.25892 28.7555 1.25892C26.8169 1.25892 24.9889 1.97899 23.4888 3.20567C21.9846 1.97798 20.1465 1.26396 18.1765 1.26396C17.7868 1.26396 17.394 1.29218 17.0104 1.34958C14.4598 1.72927 12.2462 3.32854 10.9369 5.73657C10.1584 7.1687 9.74226 8.82139 9.70673 10.5254C9.64076 10.5244 9.57383 10.5174 9.50887 10.5174C8.13361 10.5174 6.83236 10.8417 5.64283 11.4802C1.30086 13.8107 -0.0377859 19.7275 2.65793 24.6725Z" fill="#075C54"/>
<path d="M36.2447 28.8551C39.0054 28.1833 41.4941 26.2265 43.0287 23.4116C45.7224 18.4687 44.3857 12.5518 40.0468 10.2213C38.8583 9.58276 37.558 9.25847 36.1818 9.25847C36.1168 9.25847 36.0519 9.26451 35.988 9.26653C35.9403 7.44061 35.4511 5.68017 34.5549 4.17553C33.1948 1.89339 30.9984 0.396799 28.525 0.0684775C28.1819 0.0231569 27.8328 0 27.4867 0C25.5482 0 23.7202 0.720076 22.2201 1.94675C20.7159 0.719069 18.8778 0.00504053 16.9078 0.00504053C16.518 0.00504053 16.1253 0.0332621 15.7427 0.0906681C13.1911 0.470353 10.9775 2.06962 9.66818 4.47765C8.88971 5.90978 8.47355 7.56247 8.43802 9.26653C8.37205 9.26552 8.30512 9.25847 8.24016 9.25847C6.8649 9.25847 5.56364 9.58276 4.37412 10.2213C0.0351879 12.5508 -1.30352 18.4676 1.39219 23.4136C2.9268 26.2265 5.41555 28.1833 8.17623 28.8551C8.17319 28.9568 8.16805 29.0605 8.16805 29.1592C8.16805 34.0408 11.8453 39.7411 22.212 39.7411C32.5777 39.7411 36.2558 34.0408 36.2558 29.1592C36.2528 29.0605 36.2467 28.9568 36.2447 28.8551Z" fill="white"/>
<path d="M13.1404 29.1591C13.1404 25.1386 17.2011 17.4613 22.2099 17.4613C27.2187 17.4613 31.2786 25.1386 31.2786 29.1591C31.2786 33.1795 27.2187 34.804 22.2099 34.804C17.2011 34.804 13.1404 33.1795 13.1404 29.1591Z" fill="#DFB96D"/>
<path d="M22.2089 35.6752C15.9802 35.6752 12.2625 33.24 12.2625 29.1591C12.2625 24.8577 16.4633 16.5902 22.2089 16.5902C27.9546 16.5902 32.1555 24.8577 32.1555 29.1591C32.1555 33.24 28.4367 35.6752 22.2089 35.6752ZM22.2089 18.3325C17.8091 18.3325 14.0193 25.5949 14.0193 29.1591C14.0193 33.4666 19.7467 33.9328 22.2089 33.9328C24.6712 33.9328 30.3986 33.4666 30.3986 29.1591C30.3986 25.5949 26.6077 18.3325 22.2089 18.3325Z" fill="#111D32"/>
<path d="M18.0197 14.9285C20.0908 14.6205 21.4344 12.1492 21.0205 9.40856C20.6067 6.66796 18.5921 4.69594 16.5209 5.0039C14.4498 5.31187 13.1063 7.7832 13.5202 10.5238C13.934 13.2644 15.9485 15.2364 18.0197 14.9285Z" fill="#DFB96D"/>
<path d="M17.5472 15.7994C15.1763 15.7994 13.053 13.5737 12.6075 10.6208C12.3791 9.11014 12.6155 7.61356 13.2712 6.40602C13.9715 5.1169 15.0647 4.30114 16.3455 4.11079C16.5303 4.0836 16.718 4.06948 16.9048 4.06948C19.2747 4.06948 21.399 6.29519 21.8445 9.24808C22.3287 12.4588 20.651 15.3795 18.1045 15.7582C17.9208 15.7864 17.7339 15.7994 17.5472 15.7994ZM16.9058 5.81283C16.8063 5.81283 16.7068 5.81988 16.6073 5.83398C15.8847 5.94073 15.2494 6.43921 14.817 7.23383C14.34 8.11204 14.1715 9.22296 14.344 10.363C14.6769 12.5716 16.2563 14.2696 17.8447 14.035C19.4067 13.8023 20.4438 11.7287 20.1069 9.50594C19.7953 7.4353 18.3876 5.81283 16.9058 5.81283Z" fill="#111D32"/>
<path d="M26.4641 14.9043C28.5397 15.1802 30.5228 13.178 30.8936 10.4321C31.2644 7.68622 29.8824 5.23659 27.8069 4.96063C25.7313 4.68466 23.7481 6.68686 23.3773 9.43273C23.0065 12.1786 24.3886 14.6283 26.4641 14.9043Z" fill="#DFB96D"/>
<path d="M26.9101 15.8047C26.7447 15.8047 26.5783 15.7937 26.4108 15.7715C25.1259 15.6013 24.0216 14.8026 23.301 13.5246C22.6251 12.3281 22.3651 10.8345 22.5702 9.32084C23.0015 6.11719 25.3918 3.7575 27.986 4.09891C30.5386 4.43731 32.2611 7.33076 31.8267 10.5485C31.4227 13.5457 29.3084 15.8047 26.9101 15.8047ZM27.4846 5.80901C25.9865 5.80901 24.592 7.45362 24.3088 9.55246C24.1555 10.6955 24.3402 11.8034 24.8325 12.6746C25.277 13.4622 25.9206 13.9496 26.6442 14.0452C28.2397 14.2587 29.7865 12.5426 30.0869 10.3199C30.3873 8.09216 29.3177 6.03461 27.7516 5.82714C27.6633 5.81405 27.5739 5.80901 27.4846 5.80901Z" fill="#111D32"/>
<path d="M32.6061 23.7601C34.5356 24.7959 37.2282 23.5659 38.6202 21.0128C40.0121 18.4597 39.5763 15.5503 37.6467 14.5145C35.7171 13.4786 33.0244 14.7086 31.6325 17.2617C30.2405 19.8148 30.6765 22.7242 32.6061 23.7601Z" fill="#DFB96D"/>
<path d="M34.1336 25.049C33.4465 25.049 32.802 24.8899 32.2184 24.5757C29.8668 23.3128 29.2709 19.8684 30.8898 16.8964C32.0732 14.727 34.1498 13.3241 36.1808 13.3241C36.8679 13.3241 37.5123 13.4832 38.0959 13.7974C40.4476 15.0604 41.0434 18.5057 39.4246 21.4777C38.2412 23.6471 36.1656 25.049 34.1336 25.049ZM36.1817 15.0674C34.8075 15.0674 33.3034 16.136 32.4356 17.7262C31.2958 19.817 31.58 22.2522 33.0557 23.0438C33.3795 23.219 33.7439 23.3067 34.1346 23.3067C35.5089 23.3067 37.0141 22.2381 37.8799 20.6479C39.0197 18.5571 38.7365 16.1218 37.2617 15.3302C36.937 15.156 36.5735 15.0674 36.1817 15.0674Z" fill="#111D32"/>
<path d="M6.68847 14.5752C4.75866 15.611 4.32291 18.5211 5.71512 21.075C7.10733 23.6289 9.80029 24.8595 11.7301 23.8236C13.6599 22.7878 14.0958 19.8778 12.7036 17.3239C11.3114 14.77 8.61829 13.5394 6.68847 14.5752Z" fill="#DFB96D"/>
<path d="M10.2831 25.0491C8.25222 25.0491 6.17558 23.6472 4.99316 21.4779C3.37228 18.5058 3.96814 15.0605 6.32182 13.7976C6.9044 13.4833 7.54886 13.3242 8.237 13.3242C10.2669 13.3242 12.3446 14.7272 13.527 16.8965C14.2902 18.2964 14.5947 19.8453 14.3826 21.2573C14.1563 22.7629 13.3819 23.9413 12.1994 24.5758C11.6148 24.89 10.9703 25.0491 10.2831 25.0491ZM8.237 15.0675C7.84421 15.0675 7.48189 15.1561 7.15812 15.3304C5.68237 16.122 5.39921 18.5582 6.53901 20.648C7.40578 22.2383 8.9109 23.3068 10.2841 23.3068C10.6759 23.3068 11.0392 23.2192 11.363 23.0439C12.0471 22.6773 12.5028 21.9512 12.646 21.0025C12.8012 19.9601 12.5669 18.7969 11.9822 17.7263C11.1145 16.1351 9.60922 15.0675 8.237 15.0675Z" fill="#111D32"/>
</svg>
