<svg width="60" height="50" viewBox="0 0 60 50" fill="none" xmlns="http://www.w3.org/2000/svg">
<path d="M15.358 32.0048C15.6444 31.5276 15.8931 30.9991 16.1048 30.4255C16.5039 31.0268 16.8998 31.6015 17.2784 32.1515C17.9741 33.1613 18.9256 34.5436 19.0975 35.03C19.1926 35.2988 19.0534 35.9484 18.9174 36.5775C18.4662 38.6832 17.708 42.2092 21.8322 45.6469C22.9208 46.554 24.1546 47.064 25.4611 47.1605C27.3733 49.3534 30.3209 50.4135 33.2613 49.8512L37.9513 48.9532C40.8917 48.3909 43.2427 46.317 44.2157 43.573C45.3964 43.0004 46.355 42.0696 47.0344 40.8249C49.6065 36.1065 47.6093 33.108 46.4144 31.3142C46.0583 30.7796 45.691 30.2275 45.6808 29.9432C45.6624 29.4281 46.0256 27.859 46.3172 26.5958C46.4666 25.9462 46.6251 25.2628 46.7745 24.5578C47.1806 25.0124 47.6073 25.4136 48.0482 25.7522C49.6535 26.9806 51.4552 27.4475 53.2599 27.1027C54.6115 26.8421 55.8801 26.1391 57.0291 25.0062C58.5177 23.5388 60.5752 20.1062 57.6235 13.6022C55.3266 8.54111 49.7926 1.59283 44.6751 1.99304C44.3998 2.01356 44.1236 2.05152 43.8515 2.10283C40.3514 2.77293 37.6668 5.77657 35.8437 8.65296C31.9364 8.45696 28.4016 9.10243 27.9585 9.1876C27.5155 9.27175 23.992 9.97779 20.4316 11.6022C17.6815 9.60221 14.0822 7.80019 10.5821 8.46926C10.31 8.5216 10.0399 8.58935 9.77182 8.67144C4.87115 10.1881 2.27553 18.6911 1.99724 24.2458C1.63916 31.383 4.81182 33.815 6.73526 34.6288C8.21876 35.2578 9.65623 35.4446 11.0088 35.186C12.8135 34.8402 14.3164 33.7401 15.358 32.0048Z" fill="#10181E"/>
<path d="M42.7066 0.016458C42.4313 0.0380079 42.1551 0.077036 41.883 0.127319C38.3829 0.797417 35.6973 3.79999 33.8752 6.67638C29.9679 6.48038 26.4321 7.12585 25.9901 7.21102C25.5471 7.29517 22.0235 8.00121 18.4631 9.62566C15.713 7.6246 12.1137 5.82367 8.61364 6.49274C8.3415 6.5461 8.07038 6.61382 7.80335 6.69386C2.90268 8.21159 0.307051 16.7156 0.0277429 22.2693C-0.329321 29.4064 2.84332 31.8395 4.76676 32.6532C6.25026 33.2802 7.6867 33.469 9.04027 33.2094C10.845 32.8636 12.348 31.7646 13.3895 30.0293C13.6749 29.5521 13.9246 29.0216 14.1353 28.449C14.5344 29.0493 14.9313 29.626 15.3099 30.175C16.0056 31.1838 16.9571 32.567 17.1279 33.0524C17.2241 33.3213 17.0839 33.9719 16.9489 34.5999C16.4977 36.7066 15.7396 40.2336 19.8627 43.6693C20.9523 44.5775 22.1862 45.0886 23.4927 45.183C25.4049 47.377 28.3524 48.438 31.2928 47.8746L35.9827 46.9767C38.9232 46.4134 41.2742 44.3415 42.2472 41.5954C43.4279 41.0238 44.3865 40.0941 45.0659 38.8473C47.638 34.1289 45.6408 31.1304 44.4459 29.3376C44.0898 28.803 43.7225 28.2499 43.7123 27.9677C43.6939 27.4526 44.056 25.8825 44.3476 24.6193C44.498 23.9687 44.6566 23.2863 44.806 22.5802C45.2121 23.0348 45.6388 23.4361 46.0797 23.7747C47.684 25.0031 49.4867 25.47 51.2915 25.1252C52.643 24.8666 53.9116 24.1615 55.0606 23.0286C56.5492 21.5612 58.6066 18.1286 55.655 11.6247C53.3581 6.56455 47.8231 -0.382728 42.7066 0.016458Z" fill="white"/>
<path d="M23.7454 35.2774L24.7644 40.6412C25.2892 43.3955 27.9391 45.2006 30.6841 44.6762L35.374 43.7783C38.12 43.2529 39.9196 40.595 39.3968 37.8418L38.3768 32.48L23.7454 35.2774Z" fill="#A57F54"/>
<path d="M35.4814 44.3426L30.7915 45.2385C27.7416 45.8234 24.7849 43.8069 24.2027 40.7489L23.1827 35.385C23.1233 35.0741 23.328 34.7714 23.638 34.7139L38.2704 31.9135C38.5814 31.8529 38.8812 32.0592 38.9396 32.3701L39.9595 37.7319C40.5417 40.793 38.5323 43.7597 35.4814 44.3426ZM24.4155 35.735L25.3291 40.5324C25.7926 42.9706 28.1478 44.5745 30.5777 44.1107L35.2676 43.2128C37.6985 42.7489 39.2986 40.3856 38.8351 37.9474L37.9215 33.15L24.4155 35.735Z" fill="#543A27"/>
<path d="M18.8437 14.1523C18.8437 14.1523 13.013 8.48978 8.75997 9.8074C4.50692 11.123 0.31423 27.233 6.0293 29.6538C11.7433 32.0735 12.8329 23.3325 10.8665 16.9332C8.89808 10.5349 15.7181 18.765 15.7181 18.765L18.8437 14.1523Z" fill="#A57F54"/>
<path d="M8.53795 30.5773C7.71332 30.7333 6.79459 30.6009 5.80524 30.1822C3.59738 29.2484 2.49343 26.4839 2.69805 22.4037C2.9702 16.9742 5.54741 10.1994 8.59115 9.25733C8.76099 9.20396 8.93695 9.16085 9.11394 9.12699C13.5563 8.27731 19.0125 13.5139 19.2417 13.7387C19.4422 13.9316 19.475 14.2415 19.3174 14.4744L16.1908 19.0861C16.0895 19.2359 15.9258 19.3293 15.7437 19.3385C15.5646 19.3467 15.3907 19.2708 15.2761 19.1323C13.6003 17.1076 11.775 15.3682 11.0814 15.1055C11.0722 15.3118 11.11 15.7818 11.4118 16.7629C12.7705 21.1847 12.6416 26.0693 11.0957 28.646C10.4501 29.7266 9.58868 30.3752 8.53795 30.5773ZM9.32882 10.2568C9.19275 10.2815 9.05767 10.3163 8.92876 10.3564C6.67486 11.0542 4.1079 17.163 3.8419 22.4622C3.73856 24.5249 3.91455 28.134 6.25132 29.1242C7.95888 29.8477 9.25002 29.4968 10.1156 28.054C11.4824 25.7738 11.5674 21.1683 10.3161 17.1025C9.88129 15.6854 9.82195 14.8716 10.1176 14.379C10.2578 14.1461 10.4788 13.9901 10.7397 13.9398C11.9009 13.7181 14.1558 16.0548 15.6659 17.8157L18.0897 14.2405C16.8507 13.1363 12.6038 9.63086 9.32882 10.2568Z" fill="#543A27"/>
<path d="M35.1807 11.0254C35.1807 11.0254 38.5242 3.6091 42.9614 3.26327C47.3986 2.9154 57.2101 16.3471 52.7852 20.7063C48.3603 25.0676 44.139 17.3425 43.6192 10.6652C43.0995 3.9888 39.7805 14.1603 39.7805 14.1603L35.1807 11.0254Z" fill="#A57F54"/>
<path d="M50.7901 22.4911C49.7394 22.6922 48.701 22.4069 47.7025 21.6444C45.3207 19.8189 43.4074 15.3232 43.0473 10.7115C42.9675 9.67709 42.8273 9.22658 42.7434 9.04186C42.2175 9.51904 41.132 11.867 40.3248 14.3401C40.2685 14.5115 40.1355 14.6479 39.9647 14.7044C39.7928 14.7628 39.6056 14.7372 39.4582 14.6356L34.8584 11.5006C34.6272 11.3446 34.5433 11.044 34.6589 10.7895C34.7908 10.496 37.941 3.61237 42.3833 2.76269C42.5613 2.72882 42.7404 2.70419 42.9174 2.69085C46.0931 2.44251 50.9754 7.78993 53.2211 12.7372C54.9082 16.4561 54.8959 19.432 53.1863 21.118C52.421 21.8712 51.6158 22.334 50.7901 22.4911ZM42.636 7.83718C42.899 7.78792 43.1619 7.85149 43.3767 8.01568C43.832 8.36458 44.0755 9.14448 44.1912 10.6212C44.5206 14.8644 46.2906 19.1149 48.3982 20.7312C49.1256 21.2884 49.8591 21.5008 50.5753 21.3643C51.1738 21.2483 51.7826 20.8913 52.3842 20.2981C54.1941 18.5146 53.0328 15.0943 52.1795 13.2144C49.987 8.38515 45.3595 3.65341 43.0064 3.8371C42.8724 3.84736 42.7342 3.86478 42.5992 3.89146C39.3242 4.51846 36.6611 9.34566 35.9142 10.8305L39.4797 13.2615C40.2358 11.0634 41.4758 8.05986 42.636 7.83718Z" fill="#543A27"/>
<path d="M40.467 28.0837C40.3524 24.8431 44.7293 14.9711 40.3709 11.7889C36.0124 8.60571 26.5968 10.4087 26.5968 10.4087C26.5968 10.4087 17.1822 12.2097 14.298 16.7772C11.4139 21.3448 19.1066 28.9067 20.1891 31.9617C21.2705 35.0187 17.7766 37.695 21.9386 41.1645C26.1016 44.6351 31.3409 35.3512 31.3409 35.3512C31.3409 35.3512 39.6209 42.047 42.2176 37.2835C44.8152 32.5209 40.5837 31.3224 40.467 28.0837Z" fill="#C29051"/>
<path d="M40.1345 39.4897C37.0918 40.0706 32.9523 37.2711 31.5015 36.1967C30.547 37.7319 27.7283 41.8623 24.6846 42.4462C23.5479 42.6627 22.5002 42.3815 21.5723 41.6067C18.6943 39.2096 19.1567 37.0587 19.5629 35.1654C19.786 34.1249 19.9967 33.1407 19.6478 32.1546C19.3583 31.3346 18.5009 30.0909 17.5085 28.6512C15.0019 25.0113 11.5673 20.0272 13.8131 16.4714C16.7964 11.7469 26.0954 9.92023 26.4904 9.84532C26.8843 9.76938 36.2016 8.03511 40.7084 11.324C44.101 13.8012 42.7383 19.7039 41.7428 24.0149C41.3489 25.7183 41.0093 27.1919 41.039 28.0611C41.0768 29.1078 41.6334 29.9431 42.2227 30.8267C43.2969 32.4398 44.5134 34.2665 42.7189 37.5595C42.1418 38.6226 41.2701 39.2722 40.1345 39.4897ZM31.2345 34.7857C31.3992 34.7539 31.5701 34.796 31.7011 34.9027C31.7512 34.9438 36.7715 38.9623 39.9196 38.3589C40.7146 38.2091 41.3029 37.7658 41.7152 37.0085C43.1772 34.3281 42.2933 33.0022 41.2712 31.467C40.6184 30.4881 39.9432 29.4752 39.8941 28.1032C39.8583 27.0821 40.2143 25.5408 40.6266 23.7552C41.5495 19.7583 42.815 14.2846 40.0332 12.2548C35.9275 9.25734 26.7963 10.9556 26.7052 10.9741C26.6141 10.9926 17.4993 12.7833 14.783 17.0861C12.9424 19.9994 16.1263 24.6234 18.4518 27.9985C19.4913 29.507 20.3885 30.8082 20.7292 31.7708C21.1866 33.0658 20.9318 34.2562 20.6852 35.4065C20.2965 37.2126 19.9629 38.7714 22.3059 40.7242C22.9668 41.2753 23.6758 41.4713 24.4707 41.3174C27.6199 40.716 30.8109 35.1243 30.8437 35.0679C30.9255 34.9201 31.0688 34.8186 31.2345 34.7857Z" fill="#543A27"/>
<path d="M33.3973 29.1745C31.2417 28.3905 28.8793 28.843 27.1626 30.3669C26.3748 31.0668 25.8254 31.9226 26.1814 32.8308C26.6469 34.0212 28.0833 34.8842 29.3469 35.4363C30.6943 36.0253 32.1911 35.74 33.2275 34.6933C34.1985 33.7143 35.2185 32.3813 35.2144 31.1017C35.2113 30.1278 34.3867 29.5337 33.3973 29.1745Z" fill="#161417"/>
<path d="M22.9085 25.7399C24.3663 25.7399 25.5481 24.5545 25.5481 23.0923C25.5481 21.6301 24.3663 20.4447 22.9085 20.4447C21.4507 20.4447 20.2689 21.6301 20.2689 23.0923C20.2689 24.5545 21.4507 25.7399 22.9085 25.7399Z" fill="#161417"/>
<path d="M23.1827 23.6897C23.6268 23.6897 23.9868 23.3286 23.9868 22.8831C23.9868 22.4377 23.6268 22.0765 23.1827 22.0765C22.7385 22.0765 22.3785 22.4377 22.3785 22.8831C22.3785 23.3286 22.7385 23.6897 23.1827 23.6897Z" fill="white"/>
<path d="M24.6682 24.3484C24.9174 24.3484 25.1194 24.1458 25.1194 23.8959C25.1194 23.646 24.9174 23.4433 24.6682 23.4433C24.419 23.4433 24.2171 23.646 24.2171 23.8959C24.2171 24.1458 24.419 24.3484 24.6682 24.3484Z" fill="white"/>
<path d="M34.6824 23.4874C36.1402 23.4874 37.322 22.3021 37.322 20.8399C37.322 19.3776 36.1402 18.1923 34.6824 18.1923C33.2246 18.1923 32.0428 19.3776 32.0428 20.8399C32.0428 22.3021 33.2246 23.4874 34.6824 23.4874Z" fill="#161417"/>
<path d="M34.9555 21.4372C35.3997 21.4372 35.7597 21.0761 35.7597 20.6306C35.7597 20.1852 35.3997 19.824 34.9555 19.824C34.5114 19.824 34.1514 20.1852 34.1514 20.6306C34.1514 21.0761 34.5114 21.4372 34.9555 21.4372Z" fill="white"/>
<path d="M36.4421 22.0959C36.6913 22.0959 36.8933 21.8933 36.8933 21.6434C36.8933 21.3934 36.6913 21.1908 36.4421 21.1908C36.1929 21.1908 35.9909 21.3934 35.9909 21.6434C35.9909 21.8933 36.1929 22.0959 36.4421 22.0959Z" fill="white"/>
</svg>
