<svg width="75" height="52" viewBox="0 0 75 52" fill="none" xmlns="http://www.w3.org/2000/svg">
<path d="M34.7135 28.7339C38.9769 28.7339 42.4332 25.4057 42.4332 21.3002C42.4332 17.1947 38.9769 13.8665 34.7135 13.8665C30.45 13.8665 26.9938 17.1947 26.9938 21.3002C26.9938 25.4057 30.45 28.7339 34.7135 28.7339Z" fill="#FE7165"/>
<path d="M7.79694 25.2931C6.309 25.0089 5.07063 24.4937 4.08181 23.7477C3.09558 22.9891 2.41235 22.0552 2.03212 20.946C1.65188 19.8367 1.59919 18.6215 1.87405 17.3005C2.25521 15.4685 2.93744 13.9078 3.92074 12.6183C4.91654 11.3313 6.08874 10.4149 7.43735 9.86911C8.78855 9.31084 10.1894 9.17022 11.6398 9.44725C12.9902 9.70518 13.9429 10.25 14.4979 11.0816C15.0555 11.9008 15.2163 12.8775 14.9803 14.0116C14.8221 14.7718 14.5575 15.3562 14.1865 15.7648C13.828 16.1758 13.3987 16.3335 12.8985 16.238C12.5484 16.1711 12.2902 16.0375 12.1239 15.8373C11.9575 15.6371 11.9067 15.3812 11.9716 15.0696C11.9949 14.9575 12.0627 14.7566 12.1749 14.467C12.3278 14.1075 12.4275 13.8155 12.4742 13.5912C12.7101 12.4571 12.2217 11.7742 11.0088 11.5426C10.1836 11.3849 9.34012 11.5024 8.4784 11.895C7.61669 12.2876 6.84561 12.9632 6.16517 13.9217C5.48732 14.8678 4.9993 16.0574 4.70111 17.4906C4.38995 18.9861 4.56768 20.2252 5.23428 21.2077C5.90348 22.1778 7.05707 22.8193 8.69504 23.1322C9.50778 23.2874 10.3475 23.3441 11.2142 23.3023C12.0961 23.2505 13.0874 23.1094 14.1884 22.8791C14.3915 22.8402 14.5556 22.8326 14.6806 22.8565C14.8807 22.8947 15.0152 22.9982 15.0841 23.1668C15.153 23.3355 15.1628 23.5382 15.1136 23.775C14.9554 24.5352 14.4261 25.0172 13.5256 25.221C12.5575 25.4378 11.5726 25.5477 10.5709 25.5508C9.58435 25.5438 8.65968 25.4578 7.79694 25.2931ZM15.3656 26.7387C14.5904 26.5906 14.0298 26.192 13.6839 25.5428C13.3379 24.8936 13.2596 24.1141 13.4489 23.2044C13.6563 22.2073 14.0834 21.3106 14.7301 20.5141C15.3795 19.7051 16.1412 19.1055 17.0154 18.7153C17.9048 18.315 18.7808 18.1973 19.6435 18.3621C19.9186 18.4146 20.0883 18.5053 20.1524 18.6342C20.2317 18.753 20.2741 18.9555 20.2796 19.2416C20.5525 19.2419 20.8328 19.2695 21.1204 19.3244C21.7331 19.4415 21.994 19.7181 21.9033 20.1543C21.8488 20.416 21.6254 21.0212 21.233 21.97C20.6472 23.3482 20.296 24.3178 20.1793 24.8786C20.1404 25.0656 20.1531 25.2235 20.2172 25.3524C20.2939 25.4836 20.4073 25.5636 20.5573 25.5923C20.7949 25.6376 21.1136 25.543 21.5134 25.3084C21.9159 25.0613 22.476 24.65 23.1937 24.0744C23.3801 23.9285 23.567 23.8735 23.7546 23.9094C23.9171 23.9404 24.0266 24.0391 24.083 24.2053C24.1519 24.374 24.1592 24.5892 24.1047 24.8509C24.001 25.3494 23.8018 25.7131 23.5072 25.9419C22.8623 26.4796 22.2069 26.9116 21.541 27.2379C20.8751 27.5643 20.2733 27.6761 19.7356 27.5734C19.323 27.4946 18.9702 27.2846 18.6771 26.9436C18.3992 26.5925 18.2232 26.1572 18.1493 25.6377C17.2813 26.5604 16.3534 26.9274 15.3656 26.7387ZM16.4337 24.9796C16.7087 25.0321 17.005 24.9202 17.3225 24.644C17.64 24.3677 17.9108 23.9724 18.1348 23.458L19.5444 20.1508C19.0167 20.0629 18.4875 20.1692 17.957 20.4696C17.4416 20.7599 16.9878 21.1915 16.5956 21.7645C16.2033 22.3375 15.9346 22.9729 15.7894 23.6708C15.709 24.0572 15.7244 24.3582 15.8356 24.5738C15.9592 24.7918 16.1586 24.927 16.4337 24.9796ZM26.4257 21.5429C26.2711 22.1612 26.1574 22.6449 26.0848 22.9939C25.8981 23.8912 25.7954 24.6037 25.7766 25.1314C25.7729 25.649 25.854 26.0403 26.0199 26.3052C26.2009 26.56 26.4852 26.7245 26.8728 26.7985C27.0729 26.8367 27.3234 26.8198 27.6244 26.7477C27.9254 26.6756 28.2092 26.5614 28.4757 26.405C28.6392 26.3066 28.7897 26.2706 28.9273 26.2968C29.0773 26.3255 29.1779 26.4354 29.2292 26.6266C29.2955 26.8077 29.304 27.0167 29.2547 27.2535C29.2055 27.4903 29.1075 27.7113 28.9608 27.9165C28.8266 28.1241 28.6502 28.2848 28.4315 28.3985C27.6698 28.8102 26.8763 28.9373 26.0511 28.7797C24.8633 28.5528 24.0967 27.8945 23.7514 26.8049C23.4086 25.7028 23.4032 24.3541 23.7351 22.7589C23.8492 22.2105 23.9834 21.6595 24.1375 21.1058L23.4061 20.9661C23.031 20.8945 22.7889 20.777 22.6799 20.6136C22.5834 20.4526 22.5662 20.2226 22.6285 19.9235C22.7737 19.2256 23.1276 18.9304 23.6903 19.0378L24.7593 19.242C25.2571 17.9117 25.8428 16.7213 26.5164 15.6708C27.19 14.6202 27.9031 13.817 28.6558 13.261C29.421 12.7075 30.16 12.4987 30.8727 12.6349C31.3978 12.7352 31.7625 13.0445 31.9666 13.563C32.1708 14.0814 32.2003 14.6896 32.055 15.3875C31.6531 17.3192 30.4903 18.8465 28.5667 19.9692L30.6673 20.3705C30.8674 20.4087 31.0021 20.4797 31.0714 20.5837C31.1408 20.6877 31.1509 20.858 31.1016 21.0948C30.9227 21.9548 30.1268 22.2498 28.7139 21.9799L26.4257 21.5429ZM29.9929 14.3328C29.8053 14.297 29.5435 14.4931 29.2074 14.9214C28.8864 15.3395 28.5328 15.9458 28.1465 16.7402C27.7753 17.5245 27.4159 18.4083 27.0683 19.3915C27.9383 18.8968 28.6362 18.2915 29.1622 17.5756C29.7033 16.8496 30.0412 16.1626 30.176 15.5145C30.329 14.7792 30.268 14.3853 29.9929 14.3328Z" fill="#FEB84A"/>
<path d="M41.7277 39.4802C41.0025 39.3417 40.1964 39.1229 39.3096 38.824C38.8224 38.6661 38.5058 38.4696 38.3597 38.2344C38.2137 37.9991 38.1998 37.6596 38.3182 37.2157C38.6624 35.9986 39.185 34.5175 39.8861 32.7725C40.5898 31.0151 41.348 29.3393 42.1606 27.7452C42.313 27.4503 42.5334 27.2656 42.8219 27.1912C43.1104 27.1167 43.4672 27.1201 43.8924 27.2013C44.6551 27.3469 44.9924 27.6317 44.9042 28.0554C44.8679 28.2299 44.7889 28.4221 44.6672 28.6321C44.1347 29.567 43.5308 30.8447 42.8557 32.4651C42.1831 34.073 41.6199 35.624 41.166 37.1182C41.5334 37.2273 41.9546 37.3272 42.4297 37.4179C44.6179 37.8358 46.387 37.487 47.7372 36.3713C49.0999 35.258 50.0107 33.5984 50.4696 31.3925C50.7782 29.9095 50.5916 28.6817 49.9099 27.7092C49.2282 26.7367 48.1121 26.1024 46.5617 25.8063C45.5614 25.6152 44.5349 25.5811 43.4823 25.704C42.4422 25.8293 41.4752 26.0722 40.5811 26.4327C40.3952 26.5139 40.2085 26.5365 40.021 26.5007C39.8084 26.4601 39.6578 26.3406 39.569 26.1422C39.4829 25.9314 39.467 25.6952 39.5215 25.4334C39.5837 25.1343 39.6843 24.9009 39.8232 24.733C39.9647 24.5527 40.1711 24.4043 40.4424 24.2876C41.427 23.8666 42.5319 23.6177 43.7569 23.5407C44.9846 23.4512 46.1361 23.5092 47.2114 23.7146C48.7368 24.0059 50.0002 24.5258 51.0015 25.2743C52.0055 26.0103 52.7012 26.9465 53.0887 28.0831C53.4763 29.2197 53.5197 30.5108 53.2189 31.9565C52.8274 33.8384 52.11 35.4118 51.0668 36.6768C50.0261 37.9294 48.7065 38.8047 47.1078 39.3027C45.5091 39.8008 43.7157 39.8599 41.7277 39.4802ZM63.3084 37.5378C63.4709 37.5689 63.5791 37.6737 63.6329 37.8525C63.6868 38.0312 63.6877 38.2452 63.6359 38.4945C63.5114 39.0927 63.2562 39.4132 62.8703 39.4561C62.0656 39.5746 61.2092 39.5665 60.3012 39.4319C59.8458 40.4334 59.2019 41.1851 58.3695 41.687C57.5396 42.1764 56.6808 42.3363 55.7931 42.1667C55.0428 42.0234 54.4365 41.7197 53.974 41.2556C53.5241 40.7939 53.2238 40.2376 53.0732 39.5869C52.9226 38.9361 52.9199 38.2618 53.0651 37.5639C53.2621 36.6167 53.6185 35.8101 54.1341 35.1441C54.6522 34.4656 55.273 33.9816 55.9962 33.6921C56.722 33.3902 57.4726 33.3132 58.2478 33.4613C59.1981 33.6428 59.8921 34.1187 60.3298 34.8891C60.7827 35.6494 60.9593 36.519 60.8596 37.4977C61.4551 37.5726 62.1812 37.5817 63.038 37.525C63.1433 37.5192 63.2334 37.5235 63.3084 37.5378ZM56.3554 40.2138C56.7555 40.2902 57.1331 40.1939 57.4881 39.9248C57.8556 39.6581 58.1529 39.2289 58.3799 38.6374C58.0468 38.3016 57.818 37.9016 57.6936 37.4372C57.5817 36.9753 57.575 36.5075 57.6736 36.0339C57.715 35.8345 57.7753 35.6387 57.8543 35.4465L57.7605 35.4285C57.2604 35.333 56.7909 35.496 56.3522 35.9176C55.9286 36.3291 55.626 36.971 55.4445 37.8434C55.3019 38.5289 55.3243 39.0774 55.5117 39.489C55.7115 39.9029 55.9928 40.1445 56.3554 40.2138ZM69.0532 36.186C69.3658 36.2457 69.5742 36.3374 69.6785 36.461C69.7979 36.5745 69.8291 36.7683 69.772 37.0425C69.7409 37.192 69.71 37.3092 69.6794 37.3941C69.549 37.7709 69.1853 38.7381 68.5882 40.2956C68.1751 41.344 67.9072 42.038 67.7846 42.3774C66.6404 45.502 65.4688 47.9152 64.2697 49.6169C63.0806 51.3335 61.8108 52.0628 60.4604 51.8049C59.8227 51.6831 59.3453 51.3846 59.0282 50.9093C58.7084 50.4465 58.6147 49.8974 58.7469 49.2618C58.931 48.3769 59.4795 47.4904 60.3923 46.6022C61.3025 45.7264 62.8747 44.7309 65.1088 43.6156L65.3731 42.9081C65.0905 43.2039 64.7547 43.4119 64.3657 43.532C63.9918 43.642 63.6361 43.6648 63.2985 43.6003C62.5232 43.4522 61.9626 43.0536 61.6167 42.4044C61.2707 41.7552 61.1924 40.9757 61.3817 40.0659C61.5891 39.0689 62.0162 38.1721 62.663 37.3757C63.3123 36.5667 64.0741 35.9671 64.9483 35.5769C65.8376 35.1766 66.7136 35.0589 67.5764 35.2236C67.8514 35.2762 68.0211 35.3669 68.0853 35.4958C68.1646 35.6146 68.2069 35.817 68.2124 36.1032C68.4603 36.0987 68.7406 36.1263 69.0532 36.186ZM64.3665 41.8411C64.6541 41.8961 64.9654 41.7741 65.3006 41.4753C65.6358 41.1765 65.9271 40.7138 66.1744 40.0872L67.4397 37.0052C66.9245 36.9197 66.4078 37.0284 65.8898 37.3311C65.3744 37.6214 64.9206 38.0531 64.5284 38.6261C64.1362 39.199 63.8674 39.8345 63.7222 40.5324C63.6419 40.9188 63.6572 41.2197 63.7684 41.4353C63.892 41.6533 64.0914 41.7886 64.3665 41.8411ZM61.044 50.0309C61.3566 50.0906 61.7845 49.7836 62.3276 49.1099C62.8833 48.4386 63.5123 47.3212 64.2146 45.7578C63.0807 46.3965 62.2325 47.0055 61.6699 47.5848C61.1074 48.1641 60.7742 48.7031 60.6705 49.2016C60.6264 49.4134 60.6276 49.5951 60.6741 49.7465C60.7331 49.9003 60.8564 49.9951 61.044 50.0309Z" fill="#885D3F"/>
<path d="M40.5457 26.1923C40.1079 27.0113 39.555 27.748 38.8868 28.4025L40.0242 29.4576C40.2236 29.6326 40.3326 29.8231 40.3511 30.0292C40.3689 30.2273 40.3042 30.3964 40.157 30.5364C40.0105 30.6844 39.8065 30.7692 39.5448 30.791C39.18 30.8214 38.8925 30.7336 38.6822 30.5275L37.5773 29.4339C36.6836 29.9794 35.8085 30.2879 34.9521 30.3592C34.3177 30.4121 33.7537 30.3593 33.2601 30.2008C32.7665 30.0423 32.3732 29.7996 32.0802 29.4727C31.7951 29.1451 31.6334 28.7673 31.5949 28.3393C31.5429 27.7608 31.6729 27.207 31.9849 26.678C32.3041 26.1403 32.85 25.5918 33.6227 25.0324C33.0872 24.2306 32.7907 23.5087 32.733 22.8668C32.6817 22.2962 32.7555 21.783 32.9542 21.3273C33.1529 20.8715 33.4518 20.5073 33.8507 20.2345C34.2575 19.9611 34.7345 19.8016 35.2817 19.756C35.9795 19.6978 36.5369 19.855 36.9539 20.2275C37.378 20.5914 37.6214 21.1221 37.6841 21.8195C37.7361 22.3981 37.6147 22.9591 37.32 23.5027C37.0326 24.0377 36.4845 24.6063 35.6757 25.2087C36.2452 25.8559 36.9883 26.6124 37.9049 27.4783C38.3863 26.9671 38.8526 26.3333 39.304 25.5771C39.3798 25.443 39.4751 25.3473 39.5898 25.2898C39.7037 25.2244 39.8479 25.1844 40.0224 25.1699C40.4823 25.1316 40.724 25.2432 40.7475 25.5047C40.7625 25.6712 40.6952 25.9004 40.5457 26.1923ZM35.3106 21.0112C34.9379 21.0422 34.6573 21.2093 34.4688 21.5125C34.2796 21.8077 34.2039 22.1653 34.2417 22.5854C34.2865 23.0847 34.5022 23.6177 34.8886 24.1843C35.4744 23.7682 35.863 23.3805 36.0544 23.0212C36.2458 22.662 36.3234 22.2802 36.2871 21.876C36.2607 21.5828 36.1647 21.3592 35.9991 21.2053C35.8335 21.0514 35.604 20.9867 35.3106 21.0112ZM34.906 29.0456C35.5245 28.9941 36.1032 28.8101 36.642 28.4937C35.711 27.5572 34.9716 26.7525 34.4238 26.0795C33.5804 26.7407 33.1872 27.3882 33.2442 28.0223C33.2769 28.3868 33.4413 28.6606 33.7374 28.8435C34.0327 29.0185 34.4223 29.0859 34.906 29.0456Z" fill="white"/>
<path d="M11.1321 1.02798C11.7375 1.02798 12.3488 1.08674 12.962 1.20428C14.7996 1.55689 16.1636 2.35073 17.0131 3.56527C17.855 4.76769 18.1291 6.22756 17.8055 7.78725C17.6254 8.65944 17.3115 9.39917 16.8727 9.99245C16.8978 9.98126 16.925 9.96913 16.9511 9.957C17.4926 9.72473 18.0477 9.56521 18.5999 9.48126C18.9079 9.43462 19.2189 9.4113 19.5289 9.4113C19.9164 9.4113 20.3058 9.44861 20.6904 9.5223C21.5874 9.69488 22.1095 10.1081 22.4098 10.4934C22.436 10.5008 22.4631 10.5092 22.4893 10.5167C22.7925 10.3329 23.1354 10.2079 23.5093 10.151C23.6391 10.1314 23.7709 10.1202 23.9026 10.1174C24.2678 9.346 24.6689 8.62399 25.1058 7.95982C25.8778 6.78539 26.739 5.85723 27.6661 5.20331C28.3859 4.69586 29.1385 4.37963 29.9028 4.26396C30.1247 4.23038 30.3456 4.21359 30.5674 4.21359C30.8435 4.21359 31.1195 4.23971 31.3927 4.29194C32.5842 4.52142 33.4949 5.25928 33.955 6.37028C34.3028 7.21169 34.3715 8.15758 34.1594 9.18182C33.9424 10.2257 33.5307 11.1865 32.932 12.0428C33.0192 12.0269 33.1054 12.012 33.1936 11.998L33.3534 12.9766L33.1936 11.998C33.6963 11.9215 34.201 11.8842 34.7067 11.8842C35.348 11.8842 35.9892 11.9449 36.6257 12.0671C38.9864 12.5195 41.046 13.7639 42.4903 15.5941C42.8168 15.5157 43.151 15.4514 43.491 15.3991C43.8959 15.3376 44.3183 15.2937 44.7474 15.2685C45.0884 15.2489 45.4265 15.2387 45.7597 15.2387C46.74 15.2387 47.6836 15.3254 48.5777 15.4971C50.334 15.8338 51.8384 16.4458 53.0454 17.3161C54.3415 18.2498 55.259 19.4495 55.7733 20.8813C56.2025 22.0772 56.3177 23.3981 56.1182 24.8151C56.4582 24.6985 56.806 24.6127 57.1557 24.5595H57.1566C57.4492 24.5156 57.7437 24.4932 58.0411 24.4932C58.4257 24.4932 58.8161 24.5306 59.2045 24.6052C60.6915 24.8906 61.8626 25.677 62.5911 26.8804C62.7258 27.1005 62.842 27.3272 62.9428 27.5585C63.3952 27.233 63.8815 26.9587 64.3959 26.7376C64.9374 26.5054 65.4924 26.3449 66.0436 26.261C66.3527 26.2143 66.6636 26.191 66.9726 26.191C67.362 26.191 67.7505 26.2283 68.1351 26.302C69.0331 26.4746 69.5552 26.8888 69.8545 27.2721C70.4454 27.4261 70.9095 27.6798 71.2631 28.0436C71.5944 28.3831 72.1126 29.1322 71.8637 30.3337C71.8172 30.5585 71.7658 30.7488 71.7057 30.9139C71.6641 31.0333 71.6021 31.2031 71.5188 31.4232C71.6486 31.4288 71.7784 31.4437 71.9024 31.468C72.7645 31.6331 73.4581 32.2171 73.7623 33.0314C73.9473 33.5351 73.9832 34.0809 73.8631 34.6564C73.741 35.245 73.5105 35.7404 73.1773 36.1303C72.846 36.5155 72.4187 36.814 71.9053 37.0193C70.7593 37.481 69.9068 37.8308 69.3702 38.0575C69.3576 38.0622 69.3469 38.0678 69.3343 38.0724L68.819 38.2786C67.8881 40.4036 66.9271 42.0491 65.8925 43.2925C64.8201 44.5826 63.6015 45.3401 62.2724 45.5416C62.039 45.577 61.8026 45.5947 61.5643 45.5947C61.2611 45.5947 60.955 45.5658 60.6508 45.5071C59.5096 45.2888 58.5845 44.7132 57.9723 43.8466C57.3523 42.9688 57.146 41.9185 57.3775 40.8084C57.6293 39.5929 58.3472 38.4232 59.5116 37.3318C59.838 37.0258 60.2245 36.7142 60.6769 36.3971C60.5287 36.2114 60.3931 36.0099 60.274 35.7954C60.2643 35.7767 60.2546 35.7581 60.2459 35.7404C60.1761 35.7833 60.1064 35.8271 60.0347 35.8681C59.3895 36.2385 58.7085 36.4801 58.013 36.5855C57.7407 36.6265 57.4666 36.6471 57.1896 36.6471C56.8341 36.6471 56.4746 36.6135 56.1182 36.5444C54.9896 36.328 54.0452 35.8523 53.3138 35.1331C52.6086 34.4419 52.1338 33.606 51.8975 32.649C51.8713 32.5389 51.8462 32.4279 51.8258 32.3169C50.9278 32.9596 49.9155 33.4503 48.7957 33.7814C48.322 33.9213 47.8279 34.0314 47.3271 34.107C46.7362 34.1965 46.1249 34.2413 45.4943 34.2413C44.5808 34.2413 43.6266 34.1471 42.6453 33.9586C41.8665 33.8094 40.9995 33.5762 40.0685 33.2665C39.1279 32.9643 38.475 32.5118 38.0701 31.8859C37.8453 31.537 37.6254 31.0072 37.6438 30.288C37.1847 30.426 36.7148 30.5333 36.2343 30.6061C35.7316 30.6826 35.2269 30.7208 34.7203 30.7208C34.0799 30.7208 33.4386 30.6602 32.8012 30.538C30.2409 30.0464 28.0313 28.6238 26.5821 26.5324C25.7781 25.3729 25.2617 24.0837 25.0467 22.7461C24.2426 22.3897 23.6566 21.9103 23.2294 21.4103C23.1761 21.4364 23.1238 21.4634 23.0705 21.4886C22.5503 21.733 22.032 21.8953 21.5264 21.9718C21.2958 22.0073 21.0662 22.025 20.8405 22.025C20.5693 22.025 20.3019 21.9998 20.0423 21.9494C19.3361 21.8132 18.6997 21.4905 18.1756 21.0063C17.9354 21.0847 17.6903 21.1425 17.4413 21.1798C17.2137 21.2144 16.9831 21.2321 16.7526 21.2321C16.4552 21.2321 16.1549 21.2032 15.8555 21.1463C14.9168 20.9662 14.1264 20.5567 13.5199 19.9448C12.9474 20.0101 12.3672 20.0427 11.7879 20.0427C11.7405 20.0427 11.693 20.0427 11.6474 20.0418C10.5722 20.0325 9.54533 19.9355 8.59987 19.7536C6.86684 19.4215 5.38279 18.8021 4.18449 17.915C2.91547 16.9747 2.01551 15.79 1.51178 14.3935C1.01967 13.0307 0.934436 11.5437 1.25895 9.97659C1.66969 7.99247 2.44852 6.26487 3.57029 4.84138C4.72984 3.37217 6.14223 2.30595 7.77063 1.66976C8.41773 1.41697 9.08522 1.23786 9.75944 1.13525C10.2118 1.06156 10.67 1.02798 11.1321 1.02798ZM11.2261 6.99808C11.1524 6.99994 11.0788 7.00647 11.0023 7.01766C10.8143 7.04658 10.6119 7.10722 10.4027 7.19863C9.92509 7.40759 9.46592 7.80777 9.04065 8.38892C8.56889 9.03444 8.21821 9.89357 8.00122 10.9402C7.74064 12.1986 8.10194 12.707 8.22206 12.874C8.55045 13.3366 9.23247 13.6706 10.2486 13.8656C10.7359 13.9598 11.2474 14.0064 11.7724 14.0064C11.9051 14.0064 12.0369 14.0036 12.1715 13.9971C12.4001 13.9868 12.6413 13.9691 12.8942 13.943C13.177 13.3161 13.5471 12.7256 14.0005 12.179C14.2339 11.8963 14.4838 11.6352 14.7473 11.3917C14.697 11.402 14.6466 11.4113 14.5962 11.4187C14.4296 11.4439 14.2601 11.457 14.0896 11.457C13.8668 11.457 13.6391 11.4355 13.4143 11.3917C12.4079 11.1986 11.8121 10.7126 11.4886 10.3376C10.9306 9.68928 10.7223 8.84881 10.9035 7.97195C10.949 7.74994 11.0342 7.48875 11.1863 7.10069C11.195 7.0811 11.2028 7.06151 11.2106 7.04192C11.2154 7.02699 11.2212 7.01207 11.2261 6.99808ZM45.381 28.2945C45.6154 28.2945 45.8372 28.2787 46.0455 28.2469C46.6005 28.163 47.0675 27.9662 47.4715 27.6443C48.3791 26.9242 49.0049 25.761 49.3294 24.1892C49.5842 22.9616 49.219 22.4606 49.0998 22.2964C48.879 21.9933 48.5303 21.7489 48.0595 21.5651C48.0507 21.6547 48.0372 21.7433 48.0188 21.8338C47.9423 22.206 47.795 22.5726 47.5693 22.9541C47.111 23.7414 46.5783 24.8533 45.9816 26.2591C45.689 26.9457 45.4197 27.6238 45.1737 28.2908C45.2434 28.2927 45.3131 28.2945 45.381 28.2945ZM11.1321 0C10.6158 0 10.0985 0.0391793 9.59377 0.115671C8.84108 0.230409 8.09325 0.430966 7.37059 0.71268C5.562 1.4179 3.99946 2.597 2.72172 4.21452C1.50017 5.76208 0.655466 7.63147 0.213732 9.77044C-0.148566 11.5195 -0.0497557 13.1874 0.506286 14.7265C1.07783 16.3152 2.09786 17.6603 3.53446 18.7246C4.86354 19.7097 6.49773 20.3935 8.39157 20.7573C9.40484 20.9513 10.4966 21.0548 11.6377 21.066C11.6891 21.066 11.7385 21.067 11.7889 21.067C12.2393 21.067 12.6937 21.0474 13.1451 21.0101C13.8416 21.5819 14.6815 21.9634 15.6482 22.15C16.0144 22.22 16.3864 22.2563 16.7535 22.2563C17.0393 22.2563 17.327 22.2349 17.6069 22.192C17.7116 22.1761 17.8152 22.1575 17.9189 22.136C18.4885 22.5408 19.1395 22.8198 19.835 22.9532C20.1625 23.0157 20.5015 23.0483 20.8415 23.0483C21.1225 23.0483 21.4091 23.0269 21.6939 22.983C22.1182 22.9186 22.5513 22.8048 22.9804 22.6435C23.3156 22.9401 23.6866 23.2004 24.0905 23.4224C24.3715 24.733 24.9101 25.9671 25.6947 27.0986C27.3028 29.4186 29.7527 30.996 32.593 31.5417C33.2953 31.677 34.0112 31.745 34.7203 31.745C35.2802 31.745 35.8449 31.7021 36.4 31.6182C36.5182 31.5995 36.6374 31.5799 36.7555 31.5585C36.8698 31.9186 37.0229 32.2096 37.1634 32.4269C37.7049 33.2628 38.5409 33.8561 39.7227 34.2376C40.6982 34.5622 41.6117 34.8066 42.437 34.9642C43.4832 35.1648 44.512 35.2674 45.4943 35.2674C46.1772 35.2674 46.8505 35.218 47.4927 35.12C48.042 35.037 48.5854 34.9167 49.1076 34.7618C49.8457 34.5435 50.5471 34.259 51.2058 33.9129C51.5216 34.6331 51.9721 35.2833 52.5504 35.8514C53.4348 36.7208 54.5644 37.2926 55.908 37.55C56.3323 37.6312 56.7634 37.6732 57.1886 37.6732C57.3872 37.6732 57.5868 37.6638 57.7844 37.6461C57.0307 38.5845 56.5425 39.5761 56.3294 40.606C56.0416 41.9922 56.3052 43.3121 57.0879 44.4222C57.8599 45.5173 59.0195 46.2403 60.4406 46.5126C60.8116 46.5845 61.1894 46.6199 61.5623 46.6199C61.8558 46.6199 62.1484 46.5985 62.4371 46.5537C64.0364 46.3112 65.4789 45.4287 66.7246 43.9324C67.7583 42.689 68.7124 41.0939 69.6288 39.064L69.7441 39.0174C69.7625 39.0099 69.7799 39.0034 69.7983 38.995C70.3302 38.7702 71.1778 38.4232 72.317 37.9642C72.9922 37.6937 73.558 37.2963 73.9997 36.7823C74.4472 36.2599 74.7534 35.6116 74.9103 34.8551C75.0672 34.0958 75.0178 33.3644 74.7659 32.6835C74.4278 31.7768 73.7468 31.0706 72.875 30.6928C72.8866 30.6406 72.8983 30.5874 72.9099 30.5314C73.2518 28.8794 72.5117 27.8216 72.04 27.3374C71.6234 26.9102 71.0945 26.5875 70.4658 26.3766C70.0473 25.9494 69.3769 25.4914 68.3433 25.2927C67.8919 25.2059 67.4318 25.1621 66.9726 25.1621C66.6084 25.1621 66.2402 25.1901 65.8789 25.2442C65.2337 25.3421 64.5886 25.5278 63.9619 25.7964C63.7507 25.8869 63.5434 25.9858 63.339 26.0921C62.4468 24.7787 61.0955 23.9186 59.4109 23.5949C58.9546 23.5073 58.4935 23.4634 58.0391 23.4634C57.7844 23.4634 57.5296 23.4774 57.2768 23.5045C57.2787 22.4606 57.1111 21.47 56.7788 20.5427C56.1928 18.9131 55.1514 17.5502 53.6828 16.4915C52.346 15.5288 50.6973 14.8543 48.7831 14.4877C47.8231 14.303 46.804 14.2098 45.7559 14.2098C45.4023 14.2098 45.0409 14.22 44.6796 14.2415C44.2156 14.2685 43.7603 14.3161 43.3215 14.3823C43.181 14.4038 43.0405 14.4271 42.901 14.4532C41.3308 12.7098 39.2005 11.513 36.8301 11.0577C36.1481 10.9262 35.4516 10.8581 34.7609 10.8544C34.9498 10.3805 35.0961 9.8889 35.2017 9.37958C35.4555 8.15758 35.3674 7.01673 34.9421 5.98783C34.3541 4.56246 33.1335 3.57647 31.5971 3.28169C31.2561 3.21639 30.9103 3.18374 30.5645 3.18374C30.2884 3.18374 30.0104 3.2052 29.7343 3.24624C28.8014 3.38803 27.8927 3.76676 27.0345 4.37217C25.9999 5.10257 25.0457 6.12401 24.202 7.40852C23.8445 7.95515 23.5045 8.5419 23.1896 9.15943C23.0153 9.19301 22.8448 9.23686 22.6791 9.29283C22.2636 8.96727 21.6862 8.66411 20.8967 8.51299C20.4453 8.42624 19.9842 8.38239 19.5269 8.38239C19.2673 8.38239 19.0067 8.39639 18.7471 8.42437C18.7849 8.28165 18.8188 8.13519 18.8498 7.98687C19.2296 6.15293 18.8992 4.4244 17.8946 2.98971C16.8814 1.5429 15.2907 0.602613 13.1673 0.194968C12.4912 0.0662375 11.8054 0 11.1321 0ZM11.7714 12.9794C11.3161 12.9794 10.8735 12.9383 10.4559 12.8581C9.43104 12.6613 9.16074 12.3768 9.10261 12.2947C8.91565 12.0307 8.96893 11.5214 9.04739 11.1417C9.21789 10.3199 9.47269 9.6445 9.80786 9.13238C9.90861 9.81428 10.1973 10.4514 10.6661 10.9943C11.0313 11.4187 11.6533 11.9495 12.6287 12.2564C12.4728 12.4887 12.3275 12.7256 12.1957 12.9691C12.1715 12.97 12.1463 12.9719 12.1221 12.9728C12.0039 12.9766 11.8867 12.9794 11.7714 12.9794ZM46.9309 26.7348C46.9444 26.7059 46.9551 26.6761 46.9677 26.6481C47.4714 25.4625 47.9248 24.497 48.321 23.7722C48.3103 23.8477 48.2968 23.9205 48.2822 23.9886C48.0246 25.2349 47.5702 26.1565 46.9309 26.7348Z" fill="#51332A"/>
</svg>
