<svg width="53" height="43" viewBox="0 0 53 43" fill="none" xmlns="http://www.w3.org/2000/svg">
<path d="M52.7879 10.408C52.546 9.24232 51.6899 8.29649 50.5567 7.94078C49.654 7.65766 48.7431 7.44408 47.8487 7.30927C44.0097 6.72436 40.9078 7.56438 38.6879 8.62737C35.5768 6.95044 32.5524 6.34479 31.2817 6.15086C31.107 6.1239 30.9716 6.10729 30.8785 6.09484C30.7865 6.07825 30.651 6.05437 30.4763 6.02845C29.92 5.94341 28.9254 5.82 27.6691 5.78785C27.2556 5.48918 26.7706 5.2859 26.2485 5.20501C25.7863 5.13553 25.3231 5.16356 24.8702 5.29008C24.3615 5.4332 23.9107 5.69451 23.5437 6.03674C23.25 6.08133 22.9584 6.13214 22.67 6.18815C20.8668 4.51018 18.1516 2.78349 14.3136 2.19858C13.4192 2.06169 12.4856 1.99531 11.5405 1.99635C10.3536 1.99946 9.25551 2.64764 8.67856 3.68885C8.51003 3.99479 4.80333 10.8695 8.91225 18.3944C8.84711 18.5562 8.78297 18.719 8.7199 18.8839C7.84518 18.7895 6.98182 18.7605 6.14329 18.7958C5.37093 18.83 4.65647 19.1639 4.13433 19.7363C3.61218 20.3088 3.34334 21.0524 3.37849 21.826C3.42295 22.8372 3.98959 23.7259 4.82296 24.2123C4.50553 24.3098 4.19225 24.4166 3.8831 24.5317C2.38594 25.0866 1.61769 26.7603 2.16879 28.2579C2.53274 29.2503 3.40439 29.9649 4.44557 30.1256C3.86449 31.1223 3.90996 32.4165 4.65957 33.3851C5.11658 33.9711 5.77315 34.3558 6.50622 34.4678C7.28892 34.5861 8.09435 34.3755 8.72299 33.886C8.73333 33.8767 8.74366 33.8684 8.75297 33.8621C11.4206 37.3176 16.9936 40.7296 25.3727 42.1338L25.4471 42.1441L25.4668 42.1483C33.8842 43.3046 40.2161 41.7045 43.7863 39.1989C43.7946 39.2114 43.8029 39.2217 43.8101 39.2352C44.263 39.8854 44.9692 40.3272 45.7519 40.4464C46.486 40.5574 47.2263 40.3853 47.8415 39.958C48.8403 39.2601 49.2653 38.0394 49.0047 36.9132C50.048 37.0708 51.0923 36.6477 51.7302 35.8118C52.2017 35.1958 52.4053 34.4336 52.305 33.6641C52.2048 32.8967 51.8118 32.2133 51.1987 31.7404C50.9371 31.5381 50.6693 31.3431 50.3964 31.1554C51.3373 30.9407 52.1417 30.2605 52.4829 29.3095C52.7455 28.5794 52.7094 27.7902 52.3785 27.0881C52.0497 26.3849 51.4665 25.854 50.7366 25.5916C50.111 25.3655 49.4576 25.1767 48.7824 25.0201C48.6635 24.7505 48.5095 24.5006 48.3264 24.2735C54.344 18.3249 52.8583 10.7481 52.7879 10.408Z" fill="#10181E"/>
<path d="M49.2073 29.7409C48.9458 29.5407 48.678 29.3458 48.405 29.157C49.3459 28.9403 50.1492 28.261 50.4904 27.31C50.7541 26.581 50.7169 25.7907 50.3871 25.0876C50.0572 24.3845 49.4751 23.8545 48.7451 23.5911C48.1196 23.3661 47.4661 23.1763 46.791 23.0218C46.6721 22.7522 46.5181 22.5012 46.334 22.2741C52.3537 16.3296 50.8689 8.74975 50.7975 8.40959C50.5545 7.24497 49.6995 6.29914 48.5652 5.94239C47.6636 5.65927 46.7527 5.44569 45.8584 5.31087C42.0193 4.72597 38.9175 5.56594 36.6976 6.631C33.5864 4.95407 30.5621 4.34845 29.2914 4.15348C29.1166 4.12652 28.9801 4.10887 28.8881 4.09747C28.7961 4.07984 28.6607 4.05703 28.4859 4.03214C27.9286 3.9471 26.935 3.8237 25.6788 3.79155C25.2652 3.49184 24.7803 3.28859 24.2581 3.2077C23.7959 3.13925 23.3327 3.16722 22.8799 3.2927C22.3711 3.43686 21.9203 3.69719 21.5533 4.03942C21.2596 4.08402 20.9681 4.13586 20.6796 4.19083C18.8754 2.5139 16.1612 0.786146 12.3232 0.20228C11.4288 0.0664253 10.4952 -0.00202837 9.55013 4.57577e-05C8.36212 0.00211988 7.26516 0.650279 6.68822 1.69356C6.51865 1.99742 2.81292 8.87318 6.92184 16.3971C6.8567 16.5588 6.79262 16.7227 6.72955 16.8876C5.85483 16.7942 4.99148 16.7642 4.15294 16.7994C3.37955 16.8326 2.66613 17.1676 2.14398 17.74C1.6208 18.3115 1.35196 19.055 1.38815 19.8287C1.43261 20.8408 1.99925 21.7286 2.83261 22.215C2.51519 22.3145 2.2019 22.4192 1.89275 22.5354C0.395592 23.0902 -0.372654 24.763 0.178442 26.2616C0.542393 27.253 1.41398 27.9686 2.45517 28.1293C1.87409 29.1249 1.91858 30.4212 2.66923 31.3877C3.12623 31.9747 3.78177 32.3595 4.51587 32.4715C5.29754 32.5908 6.10403 32.3782 6.73163 31.8897C6.74301 31.8814 6.75331 31.8721 6.76262 31.8658C9.43021 35.3213 15.0032 38.7343 23.3824 40.1364L23.4568 40.1488L23.4765 40.1509C31.8939 41.3073 38.2257 39.7091 41.796 37.2026C41.8042 37.214 41.8125 37.2254 41.8198 37.2378C42.2726 37.8891 42.9788 38.3299 43.7615 38.4491C44.4956 38.5601 45.2359 38.39 45.8511 37.9607C46.8499 37.2638 47.2749 36.0421 47.0143 34.9179C48.0565 35.0735 49.1019 34.6514 49.7388 33.8155C50.2113 33.1995 50.415 32.4373 50.3147 31.6688C50.2144 30.8972 49.8215 30.2148 49.2073 29.7409Z" fill="white"/>
<path d="M47.5861 9.08461C42.4185 7.46057 38.6218 9.1209 36.6377 10.438C32.7748 7.79346 28.3939 7.35476 28.3939 7.35476C28.3939 7.35476 24.0824 6.46912 19.6105 7.84322C18.1051 5.99622 14.9712 3.2802 9.5564 3.29057C9.5564 3.29057 6.05438 9.60313 10.6213 16.1418C8.37767 20.7785 7.73251 25.9908 8.326 27.9757C9.19142 30.8671 14.1751 35.2579 23.9211 36.8892C33.7116 38.2343 39.7694 35.5265 41.4517 33.022C42.6056 31.3036 43.5331 26.1318 42.7638 21.0378C49.0606 16.1563 47.5861 9.08461 47.5861 9.08461Z" fill="#786355"/>
<path d="M23.9221 36.8892C31.7801 37.9687 37.2311 36.436 39.9483 34.4946C37.9828 33.5685 35.5271 31.6479 34.5263 29.2793C32.994 25.6516 28.792 23.3161 25.6312 22.7022C22.4694 22.0903 16.7341 24.7421 14.9092 27.3348C13.7512 28.9827 10.9471 29.3788 9.05288 29.4472C10.8933 32.1903 15.7208 35.5161 23.9221 36.8892Z" fill="#6B584B"/>
<path d="M20.7169 29.8569C19.9135 29.7346 19.3572 29.4494 19.3128 29.4276C19.1235 29.328 19.0512 29.0937 19.1494 28.9049C19.2487 28.7141 19.4813 28.6394 19.6705 28.7411C19.6871 28.7494 21.4272 29.6278 23.0794 28.7266C24.7668 27.8057 25.3179 25.3633 25.3231 25.3385L26.0841 25.4526C26.082 25.4785 25.8908 27.9809 27.2256 29.3581C28.5356 30.7115 30.4588 30.3889 30.4774 30.3858C30.6883 30.3485 30.8868 30.4885 30.9251 30.699C30.9633 30.9096 30.8238 31.1098 30.6149 31.1481C30.5198 31.1658 28.274 31.5525 26.6725 29.8995C25.929 29.132 25.5837 28.1157 25.4265 27.2415C25.0171 28.0297 24.3864 28.8966 23.4496 29.4069C22.4653 29.9441 21.4799 29.972 20.7169 29.8569Z" fill="#161417"/>
<path d="M12.8661 13.294C12.8661 13.294 16.1116 10.9481 16.5842 9.77729C17.0556 8.60749 12.408 5.41441 11.4516 6.2731C10.4952 7.13386 10.8871 12.342 12.8661 13.294Z" fill="#3B3432"/>
<path d="M41.3483 17.632C41.3483 17.632 38.9433 14.4254 38.8389 13.1675C38.7335 11.9095 44.1172 10.245 44.7759 11.3505C45.4345 12.456 43.5206 17.3126 41.3483 17.632Z" fill="#3B3432"/>
<path d="M23.8353 37.4628C23.8332 37.4617 23.8301 37.4617 23.827 37.4617C14.233 35.8563 8.77886 31.5059 7.77282 28.1427C7.1235 25.9721 7.85143 20.708 9.95552 16.1947C5.52607 9.53576 9.01462 3.07585 9.05081 3.00947C9.15317 2.82488 9.34546 2.71187 9.55535 2.71084C10.3618 2.7098 11.1569 2.76787 11.9169 2.88402C15.8356 3.48137 18.344 5.48914 19.8101 7.18266C23.3917 6.17049 26.7665 6.51272 28.0796 6.71287C28.2864 6.74502 28.425 6.77198 28.4808 6.78028C28.5397 6.78754 28.6772 6.80409 28.8851 6.83623C30.1992 7.03535 33.5224 7.71567 36.6439 9.74727C38.5443 8.56606 41.5334 7.39524 45.4531 7.99362C46.2131 8.10874 46.9885 8.28921 47.7598 8.53292C47.9584 8.59618 48.1103 8.76209 48.1527 8.96847C48.1683 9.04106 49.5879 16.2497 43.3862 21.2888C44.0593 26.2262 43.197 31.4696 41.9346 33.3498C39.9773 36.2608 33.482 38.7923 23.8446 37.4659C23.8415 37.4628 23.8384 37.4628 23.8353 37.4628ZM9.9121 3.87544C9.3031 5.17384 7.29829 10.3716 11.096 15.8079C11.2159 15.981 11.2345 16.2051 11.1425 16.3949C8.88436 21.0617 8.37254 26.1069 8.88124 27.8088C9.63809 30.3371 14.2919 34.6876 24.009 36.3137C33.7705 37.6546 39.5017 34.8857 40.973 32.6975C41.9635 31.2238 42.9675 26.2552 42.192 21.1249C42.162 20.9164 42.2448 20.708 42.4112 20.5805C47.5934 16.5598 47.2522 10.9482 47.0702 9.53574C46.4705 9.36255 45.8688 9.22981 45.2794 9.13855C43.8743 8.92595 42.434 8.94045 41.0392 9.22564C39.8305 9.47039 38.7976 9.44138 38.903 10.9959C38.9434 11.584 39.1336 12.1502 39.2411 12.7299C39.361 13.3781 39.3786 14.0407 39.3941 14.7003C37.7822 10.5925 32.7696 8.60133 28.7114 7.98324C28.4777 7.94695 28.3454 7.93242 28.3371 7.93242C28.3175 7.93034 28.2978 7.92726 28.2792 7.92311C28.2709 7.92207 28.1396 7.8951 27.907 7.8588C24.7317 7.37449 21.0064 7.53836 18.1785 9.17899C17.6988 9.45692 17.25 9.78256 16.8013 10.1082C16.2957 10.4743 15.7901 10.8414 15.2845 11.2085C15.5078 10.2627 16.1013 9.45794 16.5666 8.60754C16.8737 8.04649 17.3844 7.05816 17.1642 6.39341C17.0039 5.90703 16.4425 5.74525 16.0248 5.51813C14.6693 4.78597 13.2735 4.2623 11.7432 4.02793C11.1528 3.93978 10.5376 3.88789 9.9121 3.87544Z" fill="#3B3432"/>
<path d="M19.8194 19.7393C21.3994 19.7393 22.6803 18.4546 22.6803 16.8698C22.6803 15.285 21.3994 14.0002 19.8194 14.0002C18.2393 14.0002 16.9585 15.285 16.9585 16.8698C16.9585 18.4546 18.2393 19.7393 19.8194 19.7393Z" fill="#161417"/>
<path d="M20.174 17.6298C20.6554 17.6298 21.0457 17.2384 21.0457 16.7556C21.0457 16.2728 20.6554 15.8814 20.174 15.8814C19.6927 15.8814 19.3024 16.2728 19.3024 16.7556C19.3024 17.2384 19.6927 17.6298 20.174 17.6298Z" fill="white"/>
<path d="M21.3289 18.8184C21.599 18.8184 21.818 18.5988 21.818 18.3279C21.818 18.057 21.599 17.8373 21.3289 17.8373C21.0588 17.8373 20.8399 18.057 20.8399 18.3279C20.8399 18.5988 21.0588 18.8184 21.3289 18.8184Z" fill="white"/>
<path d="M27.7839 23.1607C26.8213 22.3684 25.532 22.1725 24.3791 22.6412C23.8497 22.8569 23.4144 23.1949 23.433 23.7238C23.4568 24.4176 24.0368 25.1198 24.5828 25.6321C25.167 26.1765 25.9838 26.3009 26.7034 25.9546C27.3765 25.6289 28.1386 25.1322 28.3661 24.4757C28.5408 23.9759 28.2254 23.5227 27.7839 23.1607Z" fill="#161417"/>
<path d="M15.7342 23.5993C15.7042 23.5952 15.6743 23.5828 15.6484 23.5651C15.5957 23.5247 10.2626 19.6346 4.28839 19.8939C4.18086 19.897 4.09301 19.8162 4.08784 19.7083C4.08267 19.6004 4.16536 19.5112 4.27186 19.5071C10.3897 19.2416 15.8252 23.2125 15.879 23.2529C15.9648 23.3162 15.9834 23.4375 15.9203 23.5236C15.8748 23.5838 15.8025 23.6097 15.7342 23.5993Z" fill="#3B3432"/>
<path d="M2.86671 25.4493C2.80054 25.439 2.73954 25.3944 2.71576 25.3249C2.67853 25.2243 2.73022 25.1134 2.82948 25.0771C9.48915 22.613 16.1168 25.215 16.1819 25.2409C16.2812 25.2813 16.3287 25.3933 16.2894 25.4919C16.2502 25.5914 16.1416 25.6423 16.0392 25.6008C15.9741 25.5749 9.47985 23.0278 2.9639 25.439C2.93081 25.4504 2.89773 25.4524 2.86671 25.4493Z" fill="#3B3432"/>
<path d="M4.92226 29.7895C4.87573 29.7812 4.83022 29.7584 4.7992 29.7169C4.73406 29.634 4.74852 29.5126 4.83227 29.4452C9.15522 26.0633 14.6559 26.7447 14.7107 26.753C14.8171 26.7571 14.8906 26.8639 14.8771 26.9697C14.8627 27.0765 14.7665 27.1502 14.66 27.1357C14.6062 27.1294 9.26176 26.4709 5.07012 29.7501C5.02566 29.7854 4.97293 29.7978 4.92226 29.7895Z" fill="#3B3432"/>
<path d="M35.675 26.6379C35.704 26.642 35.737 26.6399 35.767 26.6285C35.8301 26.6067 42.0741 24.4787 47.7019 26.5061C47.8043 26.5424 47.9128 26.4916 47.949 26.391C47.9852 26.2904 47.9325 26.1784 47.8322 26.1431C42.07 24.068 35.704 26.2427 35.6399 26.2635C35.5396 26.2987 35.4868 26.4097 35.522 26.5103C35.5458 26.5797 35.6068 26.6275 35.675 26.6379Z" fill="#3B3432"/>
<path d="M47.4145 32.235C47.4807 32.2464 47.552 32.2205 47.5965 32.1624C47.6616 32.0794 47.6461 31.957 47.5613 31.8907C41.9304 27.5537 34.8323 28.066 34.762 28.0712C34.6555 28.0805 34.5759 28.1739 34.5852 28.2786C34.5935 28.3865 34.6824 28.4653 34.792 28.457C34.8613 28.4528 41.8167 27.955 47.3256 32.1977C47.3535 32.2184 47.3835 32.2309 47.4145 32.235Z" fill="#3B3432"/>
<path d="M44.1679 35.7692C44.2144 35.7754 44.2641 35.765 44.3065 35.737C44.3944 35.6748 44.415 35.5545 44.3551 35.4674C41.2294 30.951 35.7743 29.9616 35.7185 29.9544C35.6161 29.9284 35.5148 30.0072 35.4962 30.112C35.4776 30.2167 35.5479 30.3162 35.6533 30.3349C35.7061 30.3442 41.005 31.3077 44.0366 35.6883C44.0697 35.7329 44.1172 35.7598 44.1679 35.7692Z" fill="#3B3432"/>
<path d="M43.8763 23.7745C41.5851 23.425 39.5451 22.782 37.7243 21.9462C38.0924 21.2721 38.3044 20.5119 38.3137 19.7653C38.354 16.7567 34.3164 14.6867 31.6664 14.387C30.071 14.2055 29.2997 14.5664 28.9347 14.8786C25.5713 10.5841 24.345 6.384 24.3223 6.30415C24.2354 5.99614 23.9159 5.81573 23.6088 5.90285C23.3017 5.98789 23.1208 6.30936 23.2077 6.61633C23.2314 6.70241 24.5859 11.3516 28.3392 15.981C27.9308 17.2732 27.5895 20.1396 31.0987 22.9252C33.5223 24.85 35.7143 24.3138 37.0295 22.9065C38.9919 23.8316 41.2066 24.5399 43.7016 24.9194C44.018 24.9671 44.3126 24.7494 44.3612 24.432C44.4088 24.1188 44.1917 23.8222 43.8763 23.7745Z" fill="#161417"/>
</svg>
