<svg width="44" height="46" viewBox="0 0 44 46" fill="none" xmlns="http://www.w3.org/2000/svg">
<path d="M42.3821 14.4771C41.344 12.2061 39.8607 10.1656 37.9704 8.4151C36.0802 6.6636 33.8792 5.28816 31.4272 4.3283C28.8887 3.33281 26.1922 2.82812 23.4134 2.82812C20.6346 2.82812 17.9392 3.33281 15.3996 4.3283C12.9476 5.28915 10.7466 6.6636 8.85639 8.4151C6.96615 10.1666 5.48278 12.2061 4.44582 14.4771C3.37147 16.8302 2.8268 19.3278 2.8268 21.9026V39.1712C2.8268 39.763 3.13867 40.3171 3.66409 40.6546C7.0644 42.8444 10.5266 44.4861 13.9558 45.535C14.1555 45.5964 14.3616 45.626 14.5656 45.626C14.981 45.626 15.39 45.5033 15.7317 45.2678C18.0887 43.639 20.9657 42.6534 23.8342 42.4931C24.1204 42.4763 24.4098 42.4694 24.6981 42.4694C27.5773 42.4694 30.5077 43.2778 32.9501 44.7463C33.2715 44.9393 33.64 45.0372 34.0127 45.0372C34.2551 45.0372 34.4975 44.9957 34.7293 44.9106C37.5379 43.8815 40.3754 42.4506 43.1627 40.6546C43.6871 40.3171 44 39.763 44 39.1712V21.9026C44 19.3278 43.4564 16.8302 42.3821 14.4771Z" fill="#E0C380"/>
<path d="M40.8357 12.027C39.7646 9.68175 38.2321 7.57598 36.282 5.76808C34.3299 3.96018 32.0583 2.54116 29.5263 1.54864C26.9045 0.520504 24.1204 0 21.253 0C18.3856 0 15.6015 0.521494 12.9797 1.54864C10.4476 2.54017 8.17608 3.96018 6.2239 5.76808C4.27385 7.57598 2.74139 9.68175 1.67025 12.027C0.561729 14.4573 0 17.036 0 19.694V36.9616C0 37.7562 0.419668 38.5003 1.12344 38.9535C4.57607 41.178 8.09706 42.8464 11.5871 43.9131C11.8519 43.9943 12.1275 44.0358 12.4073 44.0358C12.9669 44.0358 13.5232 43.8646 13.9718 43.5549C16.2262 41.9974 18.9772 41.0553 21.7154 40.9019C21.9877 40.8871 22.2654 40.8792 22.5388 40.8792C25.2908 40.8792 28.092 41.653 30.4276 43.0572C30.8526 43.3125 31.346 43.448 31.8533 43.448C32.1844 43.448 32.5069 43.3907 32.8144 43.2778C35.6712 42.2319 38.5535 40.7772 41.3835 38.9545C42.0873 38.5013 42.507 37.7571 42.507 36.9625V19.695C42.507 17.0361 41.9442 14.4573 40.8357 12.027Z" fill="white"/>
<path d="M21.253 2.4254C10.9602 2.4254 2.6175 10.1567 2.6175 19.694V36.9616C5.88005 39.0634 9.14257 40.611 12.4062 41.6095C15.0493 39.7838 18.2638 38.6636 21.5563 38.4795C25.1627 38.2777 28.8236 39.1999 31.8522 41.0207C34.5306 40.0391 37.2111 38.6874 39.8884 36.9616V19.694C39.8895 10.1567 31.5457 2.4254 21.253 2.4254Z" fill="#A0382B"/>
<path d="M12.4062 41.6095C12.4062 41.6095 10.5726 20.929 16.4131 14.8502C22.2526 8.77139 30.3176 12.8879 31.2083 22.0184C32.0979 31.148 31.8533 41.0217 31.8533 41.0217L29.1504 39.7224C29.1504 39.7224 31.5906 26.3072 28.264 19.3625C24.9373 12.4179 17.0314 11.6935 15.0611 23.5621C13.0908 35.4308 14.0936 40.5834 14.0936 40.5834L12.4062 41.6095Z" fill="#7B2623"/>
<path d="M21.5573 38.4796C21.5573 38.4796 23.439 38.1976 25.6411 38.722C27.8443 39.2465 29.4942 39.858 29.4942 39.858C29.4942 39.858 30.2332 28.9641 29.4942 23.3405C28.7552 17.7179 24.9619 12.2853 20.0355 15.1154C15.1091 17.9455 14.3135 24.52 14.085 31.1391C13.8565 37.7582 14.0925 40.5814 14.0925 40.5814C14.0925 40.5814 17.905 38.7903 21.5573 38.4796Z" fill="#FFBA1E"/>
<path d="M39.8276 36.9794C37.2058 38.2153 34.474 39.7857 31.8522 41.0207C34.5157 35.9295 36.5565 30.1574 37.3841 24.5517C38.2118 18.9459 37.664 13.0828 35.1351 7.93321C37.4941 10.129 38.7735 13.1303 39.4154 16.1712C40.0572 19.2111 40.0465 22.3341 40.0347 25.4314C40.0198 29.2906 39.8425 33.1201 39.8276 36.9794Z" fill="#7B2623"/>
<path d="M23.2821 14.4613C21.741 15.0441 20.5684 16.287 19.8454 17.6773C19.1224 19.0676 18.8032 20.6063 18.5736 22.1352C17.7544 27.5777 17.9776 33.1538 19.2314 38.525C17.4148 39.2692 15.6442 39.9579 13.8266 40.7021C13.3257 34.7361 13.9045 28.5009 15.1572 22.63C15.5993 20.5559 16.1856 18.4303 17.6017 16.7718C19.0167 15.1134 21.1216 13.7824 23.2821 14.4613Z" fill="#CE9115"/>
<path d="M26.3 18.3819C25.9433 17.7861 25.5269 17.1934 25.0217 16.7006C24.1727 15.8714 22.7107 15.9604 22.008 16.8995C21.756 17.2359 21.5467 17.6051 21.3726 18.0058C21.9888 17.4764 22.9926 17.5051 23.7263 17.8821C24.4611 18.2591 24.9801 18.9122 25.4286 19.5703C27.4438 22.533 28.2725 31.4735 28.2138 34.9745C29.1493 29.4054 28.3259 21.7612 26.3 18.3819Z" fill="#F8C45B"/>
<path d="M22.1325 2.44458C16.4959 3.35299 11.2662 6.27513 7.76876 10.4698C4.27127 14.6645 2.54015 20.0912 3.01432 25.3744C1.38038 19.9368 2.74839 13.4939 6.53849 9.07456C10.3275 4.65623 16.0463 2.1972 22.1325 2.44458Z" fill="#CF6A34"/>
<path d="M34.7346 7.20194C31.1335 3.86519 26.346 2.02759 21.253 2.02759C16.16 2.02759 11.3724 3.86519 7.77134 7.20194C4.17026 10.5387 2.1871 14.9748 2.1871 19.694V36.9616C2.1871 37.0922 2.25548 37.2139 2.37081 37.2881C5.65151 39.4008 8.9824 40.9811 12.2716 41.9875C12.2834 41.9904 12.2941 41.9924 12.3037 41.9944C12.3133 41.9964 12.3229 41.9993 12.3325 42.0013C12.3549 42.0043 12.3784 42.0073 12.4019 42.0073C12.403 42.0073 12.4041 42.0073 12.4051 42.0073H12.4062C12.4211 42.0073 12.435 42.0073 12.45 42.0053C12.4553 42.0053 12.4606 42.0043 12.466 42.0033C12.4713 42.0023 12.4756 42.0023 12.4809 42.0013C12.5012 41.9984 12.5204 41.9944 12.5397 41.9885C12.5418 41.9885 12.5429 41.9875 12.5439 41.9865C12.5642 41.9806 12.5813 41.9736 12.5995 41.9657C12.6027 41.9647 12.6048 41.9637 12.607 41.9627C12.6262 41.9538 12.6433 41.9429 12.6603 41.932C12.6614 41.9311 12.6625 41.9311 12.6635 41.9301C15.2565 40.139 18.424 39.0554 21.583 38.8793C24.2144 38.7319 26.8874 39.196 29.3223 40.2023C29.3319 40.2063 29.3404 40.2102 29.35 40.2142C30.1339 40.5398 30.8932 40.9217 31.6184 41.3571C31.6194 41.3571 31.6216 41.3581 31.6226 41.3591C31.6493 41.375 31.6781 41.3878 31.7091 41.3987C31.7113 41.3997 31.7145 41.3997 31.7177 41.4007C31.7294 41.4046 31.7412 41.4076 31.755 41.4106C31.7593 41.4116 31.7647 41.4125 31.77 41.4135C31.7807 41.4155 31.7913 41.4165 31.801 41.4185C31.8074 41.4185 31.8127 41.4195 31.8191 41.4195C31.8234 41.4195 31.8277 41.4205 31.8309 41.4205C31.8373 41.4205 31.8437 41.4205 31.849 41.4205C31.8554 41.4205 31.8629 41.4205 31.8693 41.4205C31.8778 41.4205 31.8874 41.4195 31.896 41.4185C31.9024 41.4185 31.9099 41.4175 31.9174 41.4165C31.9227 41.4165 31.928 41.4145 31.9345 41.4135C31.9558 41.4096 31.9772 41.4046 31.9985 41.3977C31.9996 41.3977 31.9996 41.3977 32.0007 41.3967C32.0049 41.3957 32.0092 41.3947 32.0135 41.3938C34.7132 40.4042 37.4461 39.0248 40.1383 37.2911C40.2526 37.2169 40.322 37.0952 40.322 36.9645V19.6969C40.3188 14.9748 38.3357 10.5387 34.7346 7.20194ZM12.7543 27.455C13.1634 23.3276 13.9835 19.9869 15.1956 17.5239C16.6694 14.5285 18.7262 12.8532 21.3085 12.5435C23.5629 12.2743 25.3923 12.7711 26.9013 14.0654C29.2753 16.0999 30.7822 20.1432 31.3781 26.0825C31.8458 30.7244 31.7038 35.6524 31.4571 40.329C30.968 40.0608 30.4639 39.8144 29.9513 39.5928C29.9759 39.0436 30.0271 38.3252 30.0869 37.5108C30.3923 33.2805 30.905 26.1983 29.3928 20.8141C28.8716 18.9617 28.091 17.4239 27.0711 16.2414C26.0694 15.0817 24.8615 14.3197 23.5757 14.0387C21.4334 13.5707 19.195 14.4355 17.2728 16.475C13.1121 20.8894 13.5702 38.0283 13.6525 40.3607C13.3524 40.5269 13.0566 40.7021 12.7671 40.8841C12.5941 38.9545 12.183 33.2339 12.7543 27.455ZM21.5306 38.0827C19.1117 38.2183 16.6897 38.8585 14.5004 39.9213C14.4107 36.544 14.2067 20.9368 17.9199 16.9984C19.6233 15.1915 21.5605 14.4157 23.3792 14.8125C25.6732 15.3142 27.6104 17.6328 28.5608 21.014C30.0399 26.2735 29.5327 33.2745 29.2304 37.4563C29.1813 38.1332 29.1365 38.7437 29.1098 39.2514C26.7026 38.3489 24.1001 37.9392 21.5306 38.0827ZM39.4591 36.7528C37.0883 38.2638 34.6887 39.4948 32.3136 40.4161C32.5624 35.6959 32.7076 30.7146 32.2345 26.0073C31.9494 23.1752 31.4571 20.736 30.7704 18.7579C29.963 16.4315 28.8577 14.6562 27.4854 13.4806C25.8024 12.0379 23.6868 11.457 21.1985 11.7539C18.3033 12.1012 16.0201 13.9308 14.415 17.1934C13.1623 19.7365 12.3165 23.1653 11.9 27.3818C11.3147 33.2983 11.7483 39.1574 11.9192 41.0326C8.97277 40.0668 5.99218 38.63 3.04681 36.7528V19.694C3.04681 15.1876 4.94024 10.9513 8.37899 7.76399C11.8188 4.57765 16.3906 2.82318 21.254 2.82318C26.1174 2.82318 30.6892 4.57765 34.1291 7.76399C37.5678 10.9503 39.4602 15.1866 39.4602 19.694V36.7528H39.4591Z" fill="#542125"/>
</svg>
