<svg width="12" height="12" viewBox="0 0 12 12" fill="none" xmlns="http://www.w3.org/2000/svg">
<path d="M10.7147 2.9347C10.4157 2.6824 10.0697 2.49031 9.68497 2.36156C9.47067 2.28992 9.2449 2.238 9.01387 2.20893L8.99505 2.20685L8.98771 2.20581C8.92499 2.19854 8.86328 2.19232 8.80369 2.18816C8.7922 2.18816 8.78176 2.18713 8.77026 2.18713C8.70754 2.18297 8.65003 2.18089 8.59358 2.17985C8.57895 2.17985 8.56534 2.17985 8.55071 2.17985C8.50576 2.17985 8.4483 2.17985 8.38558 2.18297C8.36676 2.18297 8.34795 2.18401 8.32809 2.18609C8.28209 2.18816 8.23294 2.19127 8.17649 2.1975C8.15454 2.19958 8.13151 2.20166 8.10956 2.20477L8.10643 2.20581H8.09916C8.0563 2.20997 8.01339 2.21516 7.97053 2.22242C7.94439 2.22658 7.91722 2.23073 7.89109 2.23592L7.88273 2.23696L7.86704 2.23904C7.83358 2.24423 7.79913 2.2515 7.76463 2.25773C7.73013 2.26396 7.69876 2.27226 7.66426 2.28057L7.64959 2.28368L7.64231 2.28472C7.61513 2.29095 7.5869 2.29718 7.56077 2.30445C7.49387 2.3221 7.4259 2.34183 7.36004 2.3626C7.26282 2.39375 7.16353 2.43009 7.0569 2.4737C7.04227 2.47993 7.02866 2.48512 7.01402 2.49135C6.92517 2.52873 6.83315 2.5713 6.74011 2.61802C6.72965 2.62321 6.71815 2.62944 6.70769 2.63463C6.69724 2.61387 6.6868 2.59309 6.67739 2.57233C6.65857 2.53806 6.64081 2.50484 6.6199 2.47161L6.61365 2.45916L6.61154 2.455C6.59481 2.42801 6.58124 2.39998 6.56452 2.37298C6.53629 2.32833 6.51116 2.29095 6.49548 2.26603L6.48923 2.25773L6.48712 2.25669C6.47039 2.2297 6.45266 2.2027 6.43384 2.17674C6.39725 2.1269 6.36588 2.08641 6.34184 2.05734L6.34082 2.0563C6.32723 2.03865 6.3094 2.01477 6.28326 1.98569C6.2289 1.92132 6.17247 1.85902 6.11392 1.80088C5.80031 1.48731 5.42297 1.25577 4.99331 1.11144C4.9055 1.08237 4.81453 1.05642 4.72463 1.03461C4.66295 1.02008 4.60026 1.00761 4.53022 0.995155C4.38909 0.971274 4.24586 0.9557 4.10055 0.950509C4.07546 0.949471 4.04933 0.949472 4.02424 0.948433C3.84234 0.945319 3.65625 0.957775 3.47226 0.983732C3.38341 0.996192 3.29142 1.01281 3.20256 1.03254C3.11266 1.05226 3.03008 1.07303 2.95168 1.09691C2.9015 1.11144 2.85028 1.12805 2.79905 1.14467C2.54607 1.23188 2.30146 1.34506 2.07461 1.48419C1.98262 1.54026 1.89161 1.60153 1.80484 1.66486C1.67208 1.7635 1.54562 1.87252 1.43062 1.98777C1.3909 2.02723 1.35224 2.06772 1.31565 2.10925C1.28011 2.1487 1.24557 2.18817 1.21107 2.22762C0.719741 2.80595 0.397795 3.46319 0.251442 4.18481L0.245189 4.21699C0.118697 4.8732 0.138518 5.58444 0.306825 6.33201C0.696753 8.0639 1.81743 9.73037 2.63597 10.9462L2.71853 11.0687C2.75512 11.1227 2.79067 11.1767 2.82726 11.2297L2.83147 11.2359L2.83351 11.239C3.00077 11.4892 3.2433 11.673 3.536 11.7717C3.72208 11.834 3.91971 11.8589 4.1382 11.8475C4.1727 11.8454 4.20818 11.8423 4.24686 11.8392C4.29076 11.835 4.33574 11.8288 4.38174 11.8215C4.61173 11.7852 4.89082 11.7114 5.23475 11.5952C5.30688 11.5702 5.38113 11.5453 5.45431 11.5183C5.48985 11.5059 5.52542 11.4924 5.56201 11.4789C5.61741 11.4581 5.67172 11.4384 5.72503 11.4176C5.75639 11.4051 5.78883 11.3937 5.81914 11.3813C6.11394 11.2681 6.37841 11.158 6.53836 11.0916C6.59167 11.0698 6.63038 11.0532 6.65129 11.0449C7.07049 10.8818 7.43846 10.7251 7.77299 10.5672C7.90366 10.506 8.03848 10.4385 8.17438 10.3689C8.52877 10.1862 8.86643 9.98786 9.179 9.77813C9.24695 9.73244 9.31072 9.68779 9.36403 9.65042L9.38598 9.63484C9.45602 9.585 9.53654 9.5279 9.61912 9.4656L9.62225 9.46352L9.62436 9.46248C9.67035 9.42614 9.71635 9.38981 9.76339 9.35347C9.77593 9.34412 9.78638 9.33374 9.79893 9.3244L9.80831 9.31712C9.84176 9.29013 9.87526 9.26209 9.90976 9.23302L9.91288 9.23094C9.92856 9.21848 9.94317 9.20603 9.9578 9.19253C9.99544 9.16035 10.0331 9.12712 10.0697 9.09493L10.0739 9.09077C10.0833 9.0835 10.0926 9.0752 10.1 9.0669C10.146 9.0264 10.1899 8.98487 10.2348 8.94333C10.2484 8.93088 10.261 8.91842 10.2746 8.90596L10.2861 8.89454C10.3143 8.86754 10.3435 8.83951 10.3718 8.81147C10.3916 8.79174 10.4105 8.77306 10.4303 8.75333C10.4565 8.72633 10.4826 8.69933 10.5088 8.67234L10.5202 8.65988C10.5359 8.64431 10.5506 8.62873 10.5662 8.61315C10.606 8.57058 10.6447 8.52801 10.6833 8.48544C10.7021 8.46468 10.7189 8.44391 10.7377 8.42315L10.7502 8.40965C10.7701 8.38784 10.7889 8.36604 10.8077 8.34424C10.8317 8.31621 10.8558 8.28713 10.8788 8.25806C10.8956 8.23833 10.9102 8.21861 10.9259 8.19992C10.9509 8.16877 10.977 8.13658 11.0011 8.10439L11.0074 8.09608L11.0095 8.09297C11.067 8.01925 11.1255 7.9393 11.183 7.8552L11.1872 7.85C11.1935 7.84066 11.1998 7.83132 11.206 7.82302C11.2332 7.78356 11.2604 7.7441 11.2855 7.70464L11.3074 7.67142C11.4297 7.48037 11.5384 7.28414 11.6294 7.08894L11.6336 7.07855C12.3444 5.53772 12.012 4.02699 10.7147 2.9347Z" fill="#CADBE3"/>
<path d="M10.5524 1.98985C10.2523 1.73754 9.90634 1.54442 9.52268 1.41567C9.30734 1.34403 9.08261 1.29212 8.85158 1.26304L8.83167 1.26096L8.82542 1.25992C8.76165 1.25266 8.69997 1.24643 8.64039 1.24227C8.62889 1.24124 8.61843 1.24124 8.60797 1.2402C8.54421 1.23605 8.48775 1.23397 8.4313 1.23293C8.41562 1.23293 8.40203 1.23293 8.3874 1.23293C8.34245 1.23293 8.28493 1.23293 8.22221 1.23605C8.20339 1.23605 8.18563 1.23812 8.16472 1.23916C8.11872 1.24124 8.06961 1.24435 8.0142 1.25058C7.99225 1.25266 7.9682 1.25473 7.94625 1.25785H7.94414H7.93579C7.89293 1.26304 7.85008 1.26823 7.80722 1.27446C7.78108 1.27757 7.75392 1.28277 7.72778 1.28796L7.71942 1.289L7.70475 1.29108C7.67025 1.29731 7.63684 1.30354 7.60234 1.3108C7.56889 1.31703 7.53543 1.32534 7.50197 1.3326L7.4873 1.33573L7.47894 1.33676C7.45281 1.34299 7.42458 1.34922 7.3974 1.35649C7.33049 1.37414 7.26257 1.39387 7.19775 1.41463C7.10053 1.44578 7.0012 1.48212 6.89353 1.52677C6.87889 1.53196 6.86533 1.53819 6.85174 1.54338C6.76183 1.5818 6.66981 1.62333 6.57782 1.67006C6.56632 1.67525 6.55589 1.68148 6.54439 1.68771C6.53393 1.6659 6.52349 1.64618 6.51408 1.62541C6.49526 1.59115 6.47747 1.55792 6.45761 1.52366L6.45034 1.5112L6.44823 1.50705C6.43255 1.48005 6.41793 1.45201 6.40121 1.42502C6.37403 1.38037 6.34785 1.34299 6.33217 1.31911L6.32592 1.3108L6.32483 1.30873C6.30706 1.28173 6.28935 1.25473 6.27054 1.22878C6.23499 1.17894 6.20257 1.13845 6.17853 1.10937L6.17744 1.10834C6.16385 1.09068 6.14613 1.0668 6.12104 1.03773C6.06563 0.973356 6.00916 0.911057 5.95062 0.852912C5.637 0.539346 5.25959 0.307803 4.82994 0.16348C4.74318 0.134407 4.65227 0.108453 4.56132 0.0866482C4.49964 0.0721121 4.43688 0.0596504 4.36684 0.0471908C4.22676 0.0233099 4.08353 0.00773616 3.93718 0.00254467C3.91209 0.00150637 3.88596 0.00150751 3.86087 0.000469208C3.67897 -0.00264569 3.49292 0.00981827 3.30998 0.0357758C3.22007 0.0482353 3.12913 0.0648457 3.04027 0.0835351C2.95037 0.103263 2.86779 0.125063 2.78939 0.147906C2.73817 0.16348 2.68695 0.17906 2.63677 0.195673C2.38274 0.28289 2.13813 0.397099 1.91232 0.535193C1.81928 0.591261 1.72939 0.652524 1.64262 0.715861C1.50881 0.814499 1.38333 0.923517 1.26834 1.03877C1.22757 1.07822 1.18886 1.11872 1.15228 1.16025C1.11778 1.19971 1.08331 1.23916 1.04776 1.27862C0.556433 1.85695 0.234463 2.51419 0.0891545 3.23581L0.0818169 3.268C-0.0446745 3.92421 -0.0247903 4.63544 0.143516 5.38301C0.533445 7.11489 1.6541 8.78033 2.47368 9.99721L2.55522 10.1187C2.59181 10.1727 2.62841 10.2267 2.66395 10.2796L2.6681 10.2859L2.6702 10.289C2.83746 10.5382 3.08103 10.7219 3.3727 10.8206C3.55877 10.8829 3.75634 10.9078 3.97483 10.8964C4.01037 10.8943 4.04487 10.8922 4.08355 10.8881C4.12746 10.8839 4.17348 10.8777 4.21843 10.8704C4.44946 10.8341 4.72749 10.7604 5.07247 10.6441C5.1446 10.6202 5.21782 10.5942 5.291 10.5683C5.32654 10.5548 5.36309 10.5423 5.39864 10.5288C5.45404 10.5081 5.50845 10.4883 5.56281 10.4676C5.59417 10.4551 5.62552 10.4437 5.65584 10.4323C5.95063 10.318 6.21615 10.208 6.37505 10.1426C6.42836 10.1208 6.46705 10.1042 6.489 10.0959C6.90716 9.9318 7.27509 9.77502 7.60961 9.6172C7.74029 9.55594 7.87518 9.48949 8.01108 9.41888C8.36546 9.23614 8.70309 9.03679 9.01671 8.82705C9.08466 8.78137 9.14845 8.73672 9.20072 8.69934L9.22267 8.68377C9.29167 8.63393 9.37219 8.57786 9.45582 8.51452L9.45786 8.51245L9.45996 8.51141C9.50701 8.4761 9.553 8.43873 9.599 8.40239C9.61154 8.39305 9.62304 8.38266 9.63453 8.37332L9.64398 8.36605C9.67848 8.33801 9.71084 8.30998 9.74639 8.28194L9.74849 8.27987C9.76417 8.26637 9.77884 8.25495 9.79347 8.24146C9.83215 8.20927 9.86874 8.17708 9.90532 8.14385L9.90947 8.14074C9.91888 8.13243 9.92829 8.12516 9.93665 8.11686C9.9816 8.07636 10.0265 8.03483 10.0705 7.9933C10.084 7.98084 10.0966 7.96838 10.1102 7.95592L10.1217 7.9445C10.151 7.9175 10.1792 7.88947 10.2074 7.86143C10.2273 7.8417 10.2461 7.82198 10.267 7.80329C10.2932 7.77629 10.3193 7.7493 10.3444 7.72231L10.3569 7.71088C10.3716 7.69427 10.3872 7.67869 10.4019 7.66312C10.4426 7.62054 10.4813 7.57798 10.5189 7.53541C10.5378 7.51465 10.5555 7.49387 10.5743 7.47311L10.5859 7.45961C10.6068 7.43781 10.6245 7.41601 10.6434 7.39316C10.6674 7.36513 10.6925 7.33606 10.7144 7.30698C10.7312 7.28726 10.7468 7.26857 10.7615 7.24884C10.7866 7.21769 10.8127 7.1855 10.8368 7.15331L10.8441 7.14501L10.8461 7.14189C10.9026 7.06817 10.9611 6.98823 11.0197 6.90412L11.0228 6.89893C11.0291 6.88958 11.0364 6.88024 11.0427 6.87194C11.0688 6.83248 11.096 6.79302 11.1211 6.75357L11.143 6.72034C11.2643 6.5293 11.373 6.33306 11.464 6.13786L11.4692 6.12747C12.1832 4.59183 11.8497 3.0811 10.5524 1.98985Z" fill="white"/>
<path d="M3.87573 9.71405C3.77224 9.71405 3.70531 9.68913 3.66977 9.63514L3.47012 9.33715C2.70594 8.19918 1.65745 6.64069 1.31561 5.12685C1.03231 3.87051 1.27898 2.80521 2.0442 1.96107C2.47386 1.4876 3.14921 1.19377 3.80676 1.19377C4.31899 1.19377 4.78 1.37132 5.10302 1.69527C5.63617 2.22792 5.75217 3.02636 5.84208 3.74902C6.38568 3.14681 6.96486 2.74499 7.56909 2.54979C7.83148 2.46568 8.10429 2.42207 8.37923 2.42207C8.91655 2.42207 9.41206 2.59132 9.77586 2.89658C10.3613 3.38977 10.6498 3.9681 10.6352 4.61704C10.6017 6.0312 9.16327 7.23978 8.72211 7.57619C7.83667 8.25212 6.82892 8.68821 6.04906 8.9914L5.91526 9.04642C5.47829 9.22916 4.3127 9.71405 3.87573 9.71405Z" fill="#F27C88"/>
<path d="M3.80652 1.26825C4.26963 1.26825 4.71917 1.41776 5.04951 1.74898C5.60461 2.30239 5.69239 3.15068 5.78856 3.92526C6.27571 3.35523 6.87476 2.8527 7.59189 2.62219C7.84487 2.54121 8.1135 2.49863 8.38008 2.49863C8.87141 2.49863 9.3565 2.64296 9.72866 2.95549C11.4954 4.44233 10.1175 6.41717 8.67805 7.51881C7.87415 8.13348 6.96253 8.55815 6.02273 8.92467C5.83561 8.99735 4.36166 9.6411 3.87556 9.6411C3.80447 9.6411 3.75322 9.62655 3.73232 9.59541C2.93364 8.4024 1.75549 6.74528 1.38856 5.11307C1.14394 4.01975 1.26105 2.93784 2.1005 2.01375C2.52701 1.54132 3.18034 1.26825 3.80652 1.26825ZM3.80652 1.11874C3.12911 1.11874 2.43291 1.42192 1.98967 1.91096C1.20563 2.77483 0.95475 3.86192 1.24328 5.14318C1.58721 6.67156 2.63989 8.23628 3.40825 9.38048L3.60687 9.6764C3.65705 9.75115 3.74698 9.78853 3.87556 9.78853C4.27594 9.78853 5.18962 9.43032 5.94125 9.11779L6.07709 9.06172C6.86322 8.75542 7.88043 8.31623 8.77005 7.6351C9.21748 7.2935 10.6768 6.06623 10.7102 4.61884C10.7259 3.94706 10.428 3.34796 9.82482 2.84127C9.44743 2.52355 8.93415 2.34912 8.37905 2.34912C8.09576 2.34912 7.81562 2.39377 7.54487 2.47994C6.96886 2.66476 6.41582 3.03543 5.89627 3.58158C5.80532 2.89111 5.6663 2.15392 5.15511 1.64308C4.81849 1.30563 4.33967 1.11874 3.80652 1.11874Z" fill="#243645"/>
<path d="M10.4939 4.07373C10.2587 4.75486 9.88231 5.38614 9.41607 5.9354C8.88397 6.5615 8.24313 7.09311 7.52182 7.49285C6.88414 7.84691 6.19316 8.05353 5.46557 8.12622C4.49441 8.22382 3.39781 8.12621 2.49774 7.6839C2.91171 8.38683 3.36332 9.04095 3.73339 9.59333C3.89856 9.84148 5.80737 9.00669 6.02272 8.92259C6.96252 8.55607 7.87413 8.1314 8.67803 7.51673C9.77673 6.67674 10.8388 5.32696 10.4939 4.07373Z" fill="#EBCBD1"/>
<g opacity="0.3">
<path opacity="0.3" d="M1.57 4.24962C1.72158 3.65883 1.96307 3.09607 2.35927 2.62676C2.71888 2.20209 3.18092 1.81689 3.73497 1.68502C4.31829 1.54797 4.93192 1.79093 5.30617 2.24778C5.42744 2.3973 5.51529 2.56239 5.58742 2.73578C5.48289 2.36511 5.32395 2.02143 5.05006 1.74939C4.27125 0.970669 2.84118 1.19599 2.10105 2.01209C1.2616 2.93721 1.14455 4.01911 1.38917 5.11141C1.39858 5.14982 1.41003 5.18928 1.41839 5.2277C1.43512 4.89856 1.48741 4.56942 1.57 4.24962Z" fill="#BBBDBF"/>
</g>
<g opacity="0.3">
<path opacity="0.3" d="M9.68891 2.92326C9.11499 2.46849 8.29229 2.3958 7.59189 2.62112C6.96466 2.82358 6.42629 3.23371 5.97468 3.71548C6.98243 2.88173 8.43131 2.54636 9.68891 2.92326Z" fill="#BBBDBF"/>
</g>
</svg>
