<svg width="12" height="12" viewBox="0 0 12 12" fill="none" xmlns="http://www.w3.org/2000/svg">
<path d="M8.1475 0.580811C7.75746 0.602563 7.37261 0.69785 7.00552 0.867723C6.80007 0.960946 6.60086 1.07799 6.41419 1.21368L6.39859 1.22508L6.39337 1.22922C6.34227 1.26651 6.29324 1.30484 6.24736 1.34213C6.23901 1.34938 6.22964 1.35559 6.22234 1.36388C6.17437 1.40428 6.13055 1.44157 6.08988 1.47886C6.07841 1.48922 6.06801 1.49957 6.05863 1.50889C6.0263 1.53893 5.98559 1.57726 5.94074 1.6218C5.92823 1.63631 5.91573 1.64873 5.90217 1.66323C5.87088 1.69638 5.83645 1.73263 5.79995 1.77303C5.78534 1.79064 5.77183 1.8072 5.75723 1.82585L5.75513 1.82792L5.74991 1.83413C5.7228 1.86624 5.69464 1.8994 5.66857 1.93358C5.65188 1.95429 5.63622 1.97604 5.62057 1.99779L5.61434 2.00505L5.606 2.01747C5.5841 2.0444 5.56426 2.07237 5.54445 2.10034C5.52463 2.1283 5.50587 2.15731 5.4871 2.18527L5.47876 2.19771L5.47456 2.20393C5.45891 2.22671 5.44434 2.25053 5.42974 2.27435C5.39324 2.33339 5.3578 2.39348 5.32338 2.45355C5.27541 2.5416 5.22845 2.63585 5.18048 2.74046C5.17423 2.75497 5.16796 2.7674 5.16171 2.7819C5.12312 2.86995 5.08664 2.9642 5.05222 3.06053C5.04701 3.07193 5.04284 3.08332 5.03867 3.09575C5.01677 3.08746 4.99592 3.07918 4.97298 3.07193C4.93648 3.0595 4.89993 3.0481 4.86343 3.03774L4.84987 3.0336L4.84472 3.03153C4.81552 3.02117 4.78419 3.01289 4.75395 3.0046C4.70285 2.99113 4.66011 2.98181 4.63091 2.9756L4.62047 2.97353L4.61735 2.9725C4.58711 2.96525 4.55475 2.95695 4.52347 2.95074C4.46194 2.93934 4.41187 2.9321 4.37433 2.92692H4.37229C4.35143 2.92381 4.32015 2.91864 4.28261 2.91449C4.19918 2.90414 4.11465 2.89792 4.03226 2.89584C3.588 2.88341 3.15522 2.97249 2.74432 3.16101C2.66089 3.19933 2.57746 3.24285 2.49716 3.28946C2.44293 3.32053 2.38873 3.35471 2.33033 3.39407C2.21249 3.47072 2.09672 3.55876 1.98826 3.65405C1.96845 3.67166 1.94969 3.68719 1.93091 3.7048C1.79638 3.82703 1.67015 3.96168 1.55543 4.1067C1.49911 4.17713 1.44596 4.25069 1.39382 4.32527C1.34272 4.40088 1.29789 4.47338 1.25722 4.54382C1.23115 4.58836 1.204 4.63497 1.18001 4.68158C1.05695 4.91878 0.958944 5.16737 0.891157 5.42218C0.862999 5.52576 0.838996 5.63141 0.821267 5.73706C0.794152 5.89969 0.777444 6.06335 0.773273 6.22701C0.771187 6.28294 0.771187 6.33784 0.773273 6.39377C0.773273 6.44556 0.776446 6.49838 0.779575 6.54914C0.823375 7.30217 1.04445 7.99824 1.43761 8.61973L1.45639 8.64769C1.81722 9.20909 2.32405 9.71044 2.96125 10.1362C4.44109 11.1254 6.40377 11.5666 7.83669 11.8887L7.9806 11.9208C8.04526 11.9353 8.10888 11.9488 8.17041 11.9633L8.17875 11.9654L8.18295 11.9664C8.476 12.0327 8.7784 12.0006 9.05893 11.8722C9.23622 11.7903 9.39682 11.6743 9.54804 11.5158C9.57098 11.491 9.595 11.4651 9.62003 11.4361C9.64819 11.404 9.67738 11.3688 9.70449 11.3325C9.84737 11.1481 9.99754 10.9047 10.1665 10.5847C10.2009 10.5184 10.2363 10.45 10.2728 10.3816C10.2895 10.3475 10.3062 10.3133 10.324 10.2791C10.349 10.2263 10.3751 10.1745 10.3991 10.1237C10.4137 10.0937 10.4272 10.0636 10.4418 10.0336C10.5774 9.75082 10.6932 9.4898 10.763 9.33339C10.7849 9.28264 10.8026 9.24432 10.8131 9.22257C11.0029 8.8186 11.1614 8.45503 11.2938 8.11217C11.346 7.97855 11.3981 7.83873 11.4472 7.69579C11.5765 7.32186 11.6849 6.94688 11.7663 6.58228C11.784 6.50252 11.7986 6.42794 11.8111 6.36372L11.8163 6.33888C11.833 6.25498 11.8518 6.15967 11.8685 6.05816V6.05507V6.05195C11.8779 5.99395 11.8872 5.93698 11.8935 5.87794C11.8956 5.8624 11.8976 5.84789 11.8997 5.83235L11.9008 5.82097C11.9071 5.77747 11.9112 5.73397 11.9175 5.6915V5.68734C11.9196 5.66663 11.9216 5.64903 11.9237 5.62831C11.9289 5.57963 11.9331 5.53094 11.9373 5.48123L11.9384 5.47604C11.9394 5.46361 11.9404 5.45221 11.9415 5.43978C11.9467 5.37867 11.9509 5.31963 11.9529 5.25852C11.955 5.24091 11.955 5.22331 11.9561 5.20467L11.9571 5.18809C11.9592 5.14873 11.9602 5.10937 11.9613 5.07001C11.9623 5.04308 11.9634 5.01511 11.9634 4.98818C11.9644 4.95089 11.9654 4.91359 11.9654 4.87734V4.85973C11.9654 4.83798 11.9654 4.81623 11.9654 4.79447C11.9654 4.73647 11.9634 4.68054 11.9613 4.62253C11.9613 4.5956 11.9592 4.56763 11.9592 4.53966L11.9571 4.52206C11.956 4.49305 11.955 4.46405 11.9529 4.43505C11.9509 4.39776 11.9487 4.36152 11.9456 4.32527C11.9435 4.29937 11.9415 4.2745 11.9394 4.25068C11.9363 4.21132 11.9321 4.17092 11.9279 4.13156L11.9268 4.12016L11.9258 4.11602C11.9164 4.02383 11.9039 3.92543 11.8873 3.826V3.82083C11.8852 3.80943 11.883 3.79906 11.881 3.78767C11.8737 3.74106 11.8654 3.69445 11.857 3.64784L11.8497 3.60848C11.8059 3.38682 11.7485 3.17136 11.6797 2.96834L11.6755 2.95799C11.1259 1.35145 9.84113 0.485517 8.1475 0.580811Z" fill="#CADBE3"/>
<path d="M7.37579 0.00696632C6.98576 0.0287183 6.6009 0.12505 6.23381 0.292851C6.02836 0.388145 5.82915 0.504154 5.64248 0.640881L5.62688 0.651233L5.62268 0.655374C5.57158 0.692663 5.52258 0.729962 5.47565 0.768286C5.4673 0.775537 5.45895 0.782792 5.45165 0.789007C5.40264 0.829404 5.35989 0.867721 5.31817 0.903974C5.30774 0.914332 5.29624 0.924697 5.28685 0.93402C5.25453 0.964058 5.21385 1.00341 5.17005 1.04899C5.1565 1.06142 5.14402 1.07488 5.13046 1.08938C5.10022 1.12253 5.06478 1.15774 5.02932 1.20021C5.01368 1.21678 5.00006 1.2344 4.98546 1.252L4.98343 1.25407L4.97821 1.2603C4.95109 1.29241 4.92293 1.32555 4.89686 1.35973C4.88017 1.38148 4.86555 1.4022 4.84886 1.42395L4.84365 1.4312L4.83429 1.44363C4.81343 1.47056 4.79359 1.49956 4.77274 1.52649C4.75292 1.55342 4.73416 1.58243 4.71539 1.61143L4.70705 1.62387L4.70285 1.63008C4.6872 1.65287 4.67264 1.67669 4.65804 1.69948C4.62153 1.75852 4.58609 1.81859 4.55167 1.87971C4.5037 1.96775 4.45779 2.06202 4.40877 2.16663C4.40252 2.18114 4.39625 2.19459 4.39 2.20806C4.35141 2.2961 4.31493 2.38932 4.28051 2.48669C4.27634 2.49912 4.27215 2.50948 4.26798 2.52088C4.24608 2.51259 4.22419 2.5043 4.20229 2.49809C4.16579 2.48462 4.12822 2.47427 4.09172 2.46287L4.07816 2.45873L4.07403 2.45769C4.04378 2.44837 4.01248 2.43801 3.98224 2.43076C3.93218 2.41625 3.8884 2.40797 3.8592 2.40175L3.84876 2.39866H3.84666C3.81538 2.39037 3.78304 2.38311 3.75176 2.37689C3.69127 2.3655 3.64016 2.35826 3.60262 2.35412H3.60052C3.57966 2.34997 3.54838 2.34479 3.51083 2.34065C3.4274 2.33133 3.34294 2.32511 3.26055 2.322C2.81629 2.30853 2.38351 2.39865 1.97262 2.58821C1.88919 2.62653 1.80576 2.669 1.72545 2.71561C1.67123 2.74565 1.61702 2.78086 1.55862 2.81918C1.44078 2.89791 1.32502 2.98491 1.21656 3.08021C1.19674 3.09678 1.17791 3.11336 1.15914 3.13097C1.02461 3.25216 0.898477 3.38785 0.784804 3.53287C0.727446 3.60227 0.674228 3.67683 0.623127 3.75245C0.570984 3.82703 0.52612 3.8985 0.485448 3.96893C0.459376 4.01451 0.432288 4.06112 0.408301 4.10773C0.285242 4.3439 0.187235 4.5925 0.119448 4.84731C0.0912904 4.95192 0.0672869 5.05757 0.049558 5.16322C0.0224432 5.32481 0.00573582 5.49054 0.00156431 5.65316C-0.000521438 5.70806 -0.000521438 5.76398 0.00156431 5.81888C0.00260719 5.87171 0.00473725 5.92454 0.00786588 5.97529C0.0516667 6.72936 0.272737 7.4244 0.665902 8.04588L0.684679 8.07384C1.04656 8.63525 1.55234 9.13555 2.18954 9.56334C3.66938 10.5515 5.63207 10.9927 7.06498 11.3149L7.20889 11.347C7.27355 11.3615 7.33718 11.375 7.39871 11.3895L7.40704 11.3915L7.41124 11.3926C7.70429 11.4589 8.00773 11.4268 8.28723 11.2983C8.46556 11.2165 8.62511 11.1005 8.77633 10.942C8.80031 10.9182 8.82433 10.8912 8.84832 10.8622C8.87648 10.8291 8.90567 10.7949 8.93279 10.7576C9.07566 10.5743 9.22583 10.3309 9.39477 10.0108C9.43023 9.94452 9.46568 9.87512 9.50114 9.80675C9.51782 9.77361 9.53452 9.73943 9.55225 9.70525C9.57728 9.65243 9.60337 9.60063 9.62736 9.54987C9.64196 9.51983 9.65547 9.4898 9.67007 9.46079C9.80564 9.17698 9.92145 8.917 9.99132 8.76059C10.0143 8.70776 10.0309 8.66943 10.0414 8.64975C10.2322 8.24475 10.3897 7.88118 10.5221 7.53833C10.5743 7.40575 10.6264 7.26488 10.6754 7.12194C10.8047 6.74905 10.9132 6.37305 10.9945 6.00845C11.0123 5.92869 11.0268 5.85306 11.0394 5.78988L11.0446 5.76399C11.0623 5.68113 11.0801 5.58584 11.0968 5.48329V5.48018V5.47708C11.1072 5.41907 11.1155 5.3621 11.1218 5.30306C11.1239 5.28753 11.1259 5.27302 11.128 5.25748L11.1291 5.24506C11.1354 5.20259 11.1406 5.16012 11.1458 5.11558V5.11247C11.1479 5.09279 11.1499 5.0731 11.152 5.05342C11.1572 5.0037 11.1624 4.95502 11.1666 4.90634V4.90013C11.1676 4.88873 11.1687 4.87734 11.1697 4.86491C11.1749 4.80484 11.1791 4.74476 11.1823 4.68364C11.1833 4.665 11.1833 4.6474 11.1854 4.62875V4.61321C11.1875 4.57385 11.1896 4.53448 11.1896 4.49512C11.1917 4.46819 11.1917 4.44023 11.1917 4.41329C11.1938 4.37601 11.1937 4.33872 11.1937 4.30143V4.28486C11.1937 4.26311 11.1937 4.24135 11.1937 4.2196C11.1937 4.1616 11.1916 4.10566 11.1906 4.04766C11.1895 4.02073 11.1885 3.99277 11.1875 3.96583L11.1865 3.94718C11.1854 3.91818 11.1833 3.88814 11.1812 3.86018C11.1791 3.82392 11.177 3.78664 11.1739 3.74935C11.1729 3.72553 11.1698 3.70066 11.1677 3.67684C11.1645 3.63644 11.1604 3.59604 11.1562 3.55564L11.1551 3.54529V3.54115C11.1447 3.45 11.1322 3.35056 11.1166 3.25112L11.1155 3.24594C11.1135 3.23455 11.1124 3.22419 11.1103 3.2128C11.103 3.16618 11.0936 3.11957 11.0852 3.07192L11.078 3.0336C11.0342 2.81193 10.9768 2.59648 10.908 2.3945L10.9049 2.38208C10.3542 0.778643 9.06942 -0.0872923 7.37579 0.00696632Z" fill="white"/>
<path d="M7.6774 10.2328L7.33113 10.1551C5.98999 9.85262 4.15244 9.44037 2.85823 8.57547C1.78615 7.85973 1.22719 6.92128 1.19799 5.78707C1.18131 5.17802 1.4368 4.54306 1.88003 4.09144C2.2492 3.71544 2.71121 3.50829 3.1805 3.50829C3.97935 3.53005 4.61759 4.03033 5.18179 4.49127C5.15989 3.68644 5.30067 2.9997 5.6031 2.44658C6.00565 1.71323 6.70959 1.23365 7.44169 1.19222C7.50322 1.18911 7.5627 1.18703 7.62215 1.18703C8.32505 1.18703 8.88606 1.42424 9.29174 1.89553C9.90495 2.60817 10.1376 3.8791 9.91439 5.29713C9.74127 6.38783 9.31157 7.39154 8.957 8.14457L8.89755 8.27612C8.27912 9.66825 7.93604 10.2369 7.70973 10.2369C7.70348 10.2369 7.68366 10.2338 7.6774 10.2328Z" fill="#F27C88"/>
<path d="M7.623 1.26238C9.77341 1.26238 10.1144 3.55358 9.84013 5.28649C9.6837 6.27776 9.3166 7.20792 8.89006 8.11322C8.79307 8.31624 8.01406 10.162 7.71059 10.162C7.70537 10.162 7.70014 10.162 7.69493 10.161C6.29226 9.8399 4.29408 9.44527 2.89976 8.51304C1.96638 7.88948 1.30418 7.02562 1.27186 5.78472C1.24474 4.70437 2.09992 3.58258 3.18034 3.58258C3.19598 3.58258 3.20951 3.58258 3.22515 3.58258C4.00939 3.60537 4.65912 4.15953 5.26399 4.65465C5.22227 3.9099 5.30988 3.13718 5.66863 2.48151C6.02842 1.82585 6.69479 1.30795 7.44567 1.26548C7.5072 1.26341 7.56564 1.26238 7.623 1.26238ZM7.623 1.11218C7.56356 1.11218 7.50098 1.11425 7.43841 1.1184C6.68024 1.16086 5.95226 1.65598 5.53928 2.41109C5.25041 2.93728 5.10547 3.58258 5.10651 4.33251C4.56318 3.89332 3.95306 3.45415 3.23139 3.43447L3.18136 3.43343C2.69016 3.43343 2.20938 3.64888 1.82665 4.03834C1.36987 4.50445 1.10708 5.15805 1.12272 5.78679C1.15296 6.94586 1.7224 7.90502 2.81637 8.63526C4.12206 9.50741 5.96685 9.92174 7.31321 10.2252L7.66157 10.3039C7.672 10.306 7.69911 10.3091 7.71059 10.3091C7.93689 10.3091 8.22473 9.97455 8.96517 8.30794L9.02462 8.17432C9.38233 7.41714 9.81507 6.40723 9.98819 5.30617C10.2166 3.86743 9.9757 2.57371 9.34893 1.8445C8.92865 1.36078 8.3478 1.11218 7.623 1.11218Z" fill="#243645"/>
<path d="M8.77324 1.5555C9.07359 2.20806 9.2373 2.92174 9.27902 3.63749C9.32699 4.45371 9.23002 5.27614 8.98494 6.05714C8.76803 6.74802 8.4103 7.3695 7.93475 7.91744C7.30068 8.64976 6.43717 9.32615 5.47981 9.62032C6.26614 9.84716 7.04418 10.0129 7.69389 10.161C7.98589 10.2263 8.79099 8.32142 8.88902 8.11322C9.31556 7.20792 9.68266 6.27776 9.83909 5.28649C10.055 3.92751 9.89016 2.22671 8.77324 1.5555Z" fill="#EBCBD1"/>
<g opacity="0.3">
<path opacity="0.3" d="M2.43393 7.76623C2.13567 7.23589 1.92086 6.66413 1.88436 6.05301C1.85099 5.50092 1.91875 4.90636 2.23057 4.43403C2.55699 3.93788 3.16917 3.69446 3.75631 3.77007C3.9482 3.79493 4.12549 3.85501 4.29652 3.93269C3.96593 3.73485 3.61237 3.59502 3.22755 3.58259C2.12419 3.55152 1.24508 4.68884 1.27324 5.78473C1.30452 7.02563 1.96777 7.8895 2.90114 8.51305C2.93451 8.53481 2.96893 8.55551 3.00438 8.5783C2.78642 8.32867 2.59767 8.05315 2.43393 7.76623Z" fill="#BBBDBF"/>
</g>
<g opacity="0.3">
<path opacity="0.3" d="M7.39664 1.27206C6.66663 1.33421 6.02108 1.8428 5.66964 2.48293C5.35573 3.0578 5.2504 3.72071 5.25666 4.37741C5.40892 3.0868 6.22549 1.85522 7.39664 1.27206Z" fill="#BBBDBF"/>
</g>
</svg>
