<svg width="75" height="45" viewBox="0 0 75 45" fill="none" xmlns="http://www.w3.org/2000/svg">
<path d="M74.9342 14.157C74.8746 13.2739 74.3698 12.4688 73.5723 11.9823C73.0707 11.6774 72.4904 11.5216 71.9068 11.5216C71.5607 11.5216 71.2126 11.5768 70.8782 11.6883C69.1979 12.2477 66.7647 12.8536 65.7637 12.8536C65.7254 12.8536 65.7009 12.8516 65.6913 12.8516C65.5624 12.8427 65.4314 12.8388 65.3026 12.8388C63.1654 12.8388 61.6959 13.936 60.8185 14.5921C60.7855 14.6158 60.7504 14.6434 60.7141 14.6701C60.1828 14.676 59.6024 14.75 58.9422 14.896C57.6591 15.1792 56.4281 15.6617 56.2918 15.716C55.4942 16.0337 54.8926 16.6464 54.6179 17.3884C54.2143 15.2414 53.5104 13.2088 52.5169 11.3282C51.5277 9.45443 50.253 7.73067 48.7292 6.20623C46.1427 3.61913 43.7106 2.47161 43.4411 2.34926C43.0195 2.15784 42.5616 2.06115 42.1037 2.06115C41.648 2.06115 41.1922 2.15687 40.7716 2.3473L21.7405 10.973L19.4638 12.005C19.2349 12.1076 19.0209 12.2389 18.8271 12.3918C16.5408 14.2014 15.2992 16.6247 15.2342 19.4013C15.213 20.3386 15.3301 21.3164 15.5803 22.315C14.6496 22.5251 13.868 23.1359 13.4932 23.9766C13.1482 24.7521 12.439 26.1453 12.0152 26.6692C11.7958 26.9386 11.1015 27.3343 10.4222 27.3343C10.4009 27.3343 10.3817 27.3323 10.3615 27.3323C10.2337 27.3264 10.1016 27.3244 9.96854 27.3244C7.94638 27.3244 5.96149 27.9431 5.74107 28.0121C5.52597 28.0812 5.31938 28.172 5.12558 28.2854L2.84148 29.6076C2.1408 30.0141 1.64882 30.6673 1.47951 31.4172C1.31126 32.1671 1.47953 32.9476 1.94593 33.579C2.0833 33.7645 3.3643 35.4498 6.11588 37.4913C9.6693 40.1277 14.163 42.2165 19.1082 43.5328C20.7747 43.9758 22.5168 44.3419 24.2865 44.6182C25.8966 44.8707 27.5226 45 29.121 45C33.2611 45 37.2022 44.1731 40.8365 42.5431C43.8426 41.1963 46.5548 39.3038 48.7569 37.0256C48.7857 37.0256 48.8165 37.0256 48.8453 37.0256C51.812 37.0256 54.6817 36.6476 57.3758 35.9017C61.2987 34.8144 64.8522 32.9555 67.9403 30.3743C75.5092 24.0496 74.9608 14.5586 74.9342 14.157Z" fill="#E0C380"/>
<path d="M73.519 12.0958C73.4583 11.2127 72.9546 10.4076 72.157 9.92118C71.6555 9.61629 71.0752 9.45939 70.4916 9.45939C70.1445 9.45939 69.7973 9.51465 69.4619 9.62614C67.7816 10.1856 65.3484 10.7904 64.3485 10.7904C64.3101 10.7904 64.2846 10.7895 64.275 10.7885C64.1461 10.7806 64.0162 10.7766 63.8863 10.7766C61.7502 10.7766 60.2797 11.8748 59.4022 12.531C59.3703 12.5546 59.3352 12.5813 59.2979 12.6079C58.7676 12.6139 58.1872 12.6888 57.527 12.8349C56.2439 13.1181 55.0118 13.6005 54.8766 13.6548C54.078 13.9715 53.4774 14.5843 53.2027 15.3263C52.798 13.1792 52.0941 11.1476 51.1017 9.26701C50.1114 7.39328 48.8378 5.66952 47.314 4.14508C44.7275 1.55797 42.2954 0.410456 42.0259 0.288106C41.6043 0.0966881 41.1464 0 40.6885 0C40.2317 0 39.777 0.0956874 39.3553 0.286119L20.3242 8.91178L18.0486 9.94385C17.8197 10.0475 17.6056 10.1777 17.4118 10.3307C15.1245 12.1403 13.8829 14.5636 13.819 17.3391C13.7967 18.2775 13.9149 19.2553 14.1651 20.2538C13.2344 20.464 12.4517 21.0738 12.078 21.9154C11.7319 22.6909 11.0227 24.0842 10.6 24.6071C10.3795 24.8784 9.68631 25.2721 9.00693 25.2721C8.98564 25.2721 8.96543 25.2721 8.94626 25.2702C8.81848 25.2662 8.68642 25.2623 8.55331 25.2623C6.53115 25.2623 4.5452 25.8809 4.32584 25.95C4.11074 26.019 3.90415 26.1118 3.71035 26.2233L1.42518 27.5474C0.724505 27.952 0.233624 28.6052 0.0643122 29.355C-0.105 30.1049 0.0632348 30.8854 0.530706 31.5169C0.667007 31.7024 1.94804 33.3877 4.70069 35.4291C8.25411 38.0656 12.7467 40.1544 17.693 41.4726C19.3595 41.9156 21.1005 42.2797 22.8714 42.558C24.4803 42.8106 26.1064 42.9379 27.7058 42.9379C31.8449 42.9379 35.7859 42.111 39.4213 40.481C42.4263 39.1341 45.1385 37.2417 47.3417 34.9654C47.3704 34.9654 47.4002 34.9654 47.4301 34.9654C50.3957 34.9654 53.2655 34.5855 55.9596 33.8396C59.8825 32.7542 63.4359 30.8953 66.525 28.3121C74.093 21.9884 73.5456 12.4964 73.519 12.0958Z" fill="white"/>
<path d="M70.4906 12.2713C70.4906 12.2713 71.0603 20.7372 64.4933 26.2261C57.3726 32.1788 49.4032 32.2637 45.9616 32.1236C46.8902 31.0333 47.6963 29.8552 48.3629 28.607C58.2841 24.1758 58.233 15.5699 58.233 15.5699C58.7825 15.4485 59.3245 15.3794 59.7121 15.4465C60.8536 15.6449 61.9973 13.4633 64.0673 13.5955C66.1353 13.7267 70.4906 12.2713 70.4906 12.2713Z" fill="#A0382B"/>
<path d="M49.809 25.0915C49.4469 26.313 48.9603 27.4891 48.3629 28.607C47.6963 29.8562 46.8902 31.0333 45.9617 32.1236C41.0367 37.9086 32.6733 41.2426 23.3782 39.7863C21.6361 39.5149 20.0239 39.1696 18.5321 38.7729V38.7709C18.5321 38.7709 28.2723 40.2066 33.587 31.1872C39.4682 21.2039 28.5768 10.1105 21.6574 11.4386L40.6885 2.81394C40.6885 2.81394 49.1754 6.67386 50.4234 17.1831C50.5224 18.0179 50.5757 18.8931 50.5757 19.8127C50.5746 21.639 50.3095 23.4092 49.809 25.0915Z" fill="#A0382B"/>
<path d="M58.232 15.5689C58.232 15.5689 58.2841 24.1758 48.3618 28.606C48.9603 27.4881 49.4469 26.313 49.8079 25.0905C49.8803 25.0619 53.7787 23.4752 55.4154 19.1022C55.7349 18.2547 55.967 17.3045 56.0703 16.2388C56.0714 16.2388 57.1629 15.8057 58.232 15.5689Z" fill="#CF6A34"/>
<path d="M31.2975 29.8257C33.2771 25.43 32.3954 19.8403 28.7334 17.0983C21.0238 11.3281 16.9188 18.5734 22.4518 24.5725C27.365 29.9036 31.0973 29.8336 31.2975 29.8257ZM30.3881 31.4626C28.1232 31.5474 25.2502 30.1197 22.734 27.9529C17.7824 23.6865 14.213 16.5576 19.3818 12.4698L21.6574 11.4377C28.5768 10.1096 39.4692 21.203 33.587 31.1863C28.2733 40.2057 18.5321 38.77 18.5321 38.77V38.772C7.36813 35.7981 3.03419 29.9302 3.03419 29.9302L5.31936 28.6081C5.31936 28.6081 10.601 36.4789 21.8086 36.0162C25.821 35.8504 28.6748 33.9964 30.3881 31.4626Z" fill="#CF6A34"/>
<path d="M22.734 27.9528C25.2492 30.1186 28.1232 31.5473 30.3881 31.4625C28.6748 33.9963 25.821 35.8503 21.8086 36.0161C10.601 36.4788 5.31936 28.608 5.31936 28.608C5.31936 28.608 7.17539 28.012 8.81633 28.0801C10.4583 28.1452 12.1706 27.3519 13.0278 26.2932C13.885 25.2335 14.8828 22.9858 14.8828 22.9858C14.8828 22.9858 16.9667 26.7619 22.734 27.9528Z" fill="#7B2623"/>
<path d="M50.5746 17.1664C50.5746 17.1664 53.1728 19.4673 55.4165 19.1033C53.7798 23.4763 49.8824 25.0629 49.809 25.0915C50.3094 23.4092 50.5746 21.639 50.5746 19.8117C50.5746 18.8921 50.5213 18.0169 50.4223 17.1822L50.5746 17.1664Z" fill="#7B2623"/>
<path d="M28.7323 17.0983C32.3943 19.8403 33.2771 25.4299 31.2964 29.8256C31.0963 29.8335 27.365 29.9026 22.4497 24.5725C16.9188 18.5744 21.0227 11.3291 28.7323 17.0983Z" fill="#7B2623"/>
<path d="M49.0039 11.7928C49.6673 14.7598 50.006 17.8402 49.3884 20.8161C48.7707 23.792 47.1042 26.6691 44.4027 28.3771C43.0109 29.2582 41.3668 29.8246 40.1997 30.9494C39.2967 31.8187 38.7579 32.9475 38.0732 33.9746C36.017 37.06 32.4944 39.2702 28.6397 39.8967C35.8945 39.8888 42.9172 36.6032 46.9605 31.0205C51.0037 25.4397 51.7481 18.0159 49.0039 11.7928Z" fill="#7B2623"/>
<path d="M63.7916 24.8466C61.5501 25.9202 59.0945 26.6237 57.0084 27.9399C56.328 28.3682 55.6689 28.8704 54.8713 29.0539C53.7766 29.3085 52.6457 28.9207 51.5308 28.7569C50.4159 28.5931 49.0497 28.7776 48.5482 29.715C48.0967 29.8689 47.8848 29.9755 47.4333 30.1294C46.9807 30.8349 46.6474 31.5058 46.1948 32.2103C50.8898 32.827 55.7988 31.9577 59.9176 29.7821C63.4146 27.934 66.0874 25.0203 67.9264 21.6991C66.934 23.0459 65.3846 24.0849 63.7916 24.8466Z" fill="#7B2623"/>
<path d="M67.9264 21.6991C68.3321 21.1485 68.6441 20.5486 68.8294 19.8935C68.5547 20.5052 68.2544 21.1081 67.9264 21.6991Z" fill="#7B2623"/>
<path d="M71.0464 12.2388C71.0358 12.077 70.9421 11.93 70.7973 11.8402C70.6503 11.7514 70.4671 11.7317 70.3021 11.7859C70.2606 11.8007 66.0373 13.2009 64.1046 13.0795C62.7331 12.9917 61.7481 13.7278 60.9569 14.3188C60.5193 14.6454 60.0678 14.9838 59.8165 14.9394C59.3937 14.8664 58.8379 14.9068 58.1191 15.0647C58.118 15.0657 58.117 15.0657 58.1148 15.0667C58.1116 15.0667 58.1085 15.0677 58.1042 15.0686C57 15.3114 55.8989 15.7475 55.852 15.7662C55.6646 15.8412 55.5358 16.005 55.5177 16.1945C55.4367 17.0411 55.2632 17.858 55.0033 18.6247C54.1057 18.6513 53.1462 18.229 52.4658 17.8432C51.5979 17.3509 50.9739 16.8053 50.9612 16.7944C50.9516 16.7865 50.9409 16.7806 50.9313 16.7737C50.1998 11.4021 47.5866 7.79871 45.4974 5.7089C43.176 3.38623 41.0261 2.39361 40.9356 2.35217C40.7801 2.28211 40.6001 2.28211 40.4457 2.35217L21.47 10.9522C20.567 11.1367 19.7535 11.5087 19.0475 12.0622C19.0432 12.0642 19.04 12.0672 19.0368 12.0701C19.0315 12.0741 19.0262 12.077 19.0219 12.081C19.0155 12.0859 19.0102 12.0908 19.0049 12.0957C19.0028 12.0967 19.0006 12.0977 18.9996 12.0997C17.2553 13.488 16.3459 15.269 16.297 17.3923C16.2565 19.1842 16.8592 21.201 18.0423 23.2237C18.7823 24.4935 19.7247 25.7289 20.8151 26.8695C16.9178 25.426 15.3982 22.7836 15.3812 22.755C15.2822 22.5754 15.0788 22.4659 14.8626 22.4738C14.6465 22.4827 14.4537 22.607 14.3717 22.7935C14.3611 22.8142 13.3899 24.9928 12.5849 25.9874C11.799 26.9583 10.2252 27.6214 8.84191 27.5681C7.11471 27.499 5.21928 28.0999 5.13835 28.1246C5.13409 28.1246 5.13092 28.1265 5.12772 28.1285C5.12346 28.1305 5.12132 28.1305 5.11706 28.1325C5.08618 28.1443 5.05529 28.1571 5.0276 28.1729C5.02654 28.1729 5.02548 28.1749 5.02442 28.1749L2.73924 29.4971C2.61146 29.572 2.52094 29.6914 2.49006 29.8306C2.45918 29.9677 2.49008 30.1098 2.57526 30.2272C2.62212 30.2894 3.73487 31.7783 6.24899 33.6441C8.55014 35.3501 12.5231 37.7123 18.3798 39.2712C19.9558 39.6916 21.6063 40.0359 23.2856 40.2984C24.7551 40.5292 26.2278 40.6437 27.6867 40.6437C30.7375 40.6437 33.7297 40.1444 36.5079 39.1558C40.3382 37.7951 43.6903 35.5484 46.2215 32.6515C46.6091 32.6633 46.9956 32.6722 47.3769 32.6722C54.176 32.6722 60.0539 30.6367 64.8671 26.613C68.3673 23.6864 69.8612 19.937 70.498 17.3065C71.1848 14.4618 71.0518 12.3286 71.0464 12.2388ZM57.6272 16.2606C57.5356 17.0766 57.2693 18.5399 56.5037 20.2271C55.5304 22.3741 53.5434 25.2691 49.5364 27.4448C49.8196 26.7935 50.0667 26.1285 50.2743 25.4575C51.1986 25.0244 54.4507 23.2562 55.9415 19.273C55.9425 19.271 55.9425 19.27 55.9436 19.269C55.9436 19.267 55.9436 19.2661 55.9447 19.2651C56.2599 18.4244 56.476 17.5305 56.59 16.601C56.837 16.5112 57.2108 16.3819 57.6272 16.2606ZM54.5923 19.643C53.5147 21.9548 51.7747 23.3421 50.6555 24.0436C50.9718 22.6593 51.1315 21.2404 51.1315 19.8117C51.1315 19.2749 51.1102 18.7431 51.0751 18.2172C51.911 18.7905 53.2336 19.5334 54.5923 19.643ZM8.79293 28.5942C10.5425 28.6653 12.4677 27.8444 13.474 26.6011C14.0171 25.9302 14.5996 24.8379 14.9797 24.0683C15.9647 25.2967 18.2563 27.5148 22.4667 28.4245C24.8211 30.4245 27.2714 31.6619 29.3659 31.9263C27.9912 33.6047 25.6474 35.3412 21.7852 35.5011C17.2862 35.6866 13.2334 34.541 9.73534 32.0999C7.97727 30.8705 6.81019 29.6066 6.22878 28.9011C6.8826 28.7452 7.87929 28.5577 8.79293 28.5942ZM30.927 29.2938C29.9165 29.1932 26.8252 28.5232 22.8735 24.237C20.0133 21.1368 19.9036 17.7613 21.4498 16.2892C21.9993 15.7653 22.7234 15.5087 23.5678 15.5087C24.9404 15.5087 26.6271 16.1876 28.382 17.5009C30.0165 18.7244 31.1527 20.6524 31.5808 22.9306C31.9812 25.051 31.748 27.2958 30.927 29.2938ZM3.85203 30.0674L5.16178 29.3076C5.71231 30.0072 6.98269 31.4645 9.02402 32.8962C11.4423 34.5943 15.4153 36.5519 20.8769 36.5519C21.19 36.5519 21.5094 36.544 21.8331 36.5312C25.6613 36.3733 28.8612 34.6772 30.845 31.7556C30.8503 31.7497 30.8556 31.7418 30.8599 31.7359C31.2049 31.2248 31.5105 30.6761 31.7704 30.1078C31.8076 30.0555 31.8353 29.9983 31.8492 29.9361C33.9597 25.1418 32.7798 19.4673 29.0805 16.6977C27.3544 15.4051 25.7113 14.6681 24.195 14.5043C22.7681 14.3513 21.5435 14.7194 20.6501 15.5689C19.6438 16.528 19.1859 18.0366 19.3946 19.7071C19.615 21.4822 20.5255 23.2799 22.0259 24.907C25.8434 29.0461 28.9911 30.0427 30.4616 30.2736C30.3392 30.5025 30.2093 30.7284 30.0708 30.9465C28.103 30.8942 25.5282 29.6549 23.1131 27.574C23.112 27.572 23.1099 27.572 23.1078 27.57C19.5746 24.5231 17.3363 20.5359 17.4076 17.4101C17.4481 15.6044 18.219 14.0879 19.6928 12.9009L21.8321 11.932C24.8232 11.3982 28.8282 13.4278 31.6011 16.8931C35.1236 21.2987 35.6826 26.5498 33.0961 30.9396C30.977 34.5371 27.9049 36.8617 23.966 37.8504C21.1665 38.5539 18.8952 38.2973 18.6418 38.2648C13.014 36.7601 9.1976 34.4996 6.98696 32.8646C5.36625 31.6668 4.34612 30.6219 3.85203 30.0674ZM36.1097 38.1878C32.1878 39.583 27.8176 39.9589 23.4709 39.2781C23.227 39.2396 22.9821 39.1992 22.7383 39.1568C23.2057 39.0818 23.6988 38.9851 24.211 38.8578C27.1436 38.1316 31.2369 36.2519 34.0758 31.4349C36.8753 26.683 36.2843 21.0164 32.4977 16.2793C30.1262 13.3143 26.9817 11.3607 24.0832 10.9127L40.6768 3.39216C41.2785 3.7079 42.9577 4.67386 44.7137 6.44004C46.7209 8.45881 49.2446 11.9695 49.8707 17.2374C49.9698 18.0712 50.0198 18.9375 50.0198 19.8097C50.0198 21.5572 49.7696 23.2868 49.2744 24.9524C48.9262 26.1295 48.4523 27.2799 47.8656 28.3772C47.2224 29.5799 46.4387 30.7285 45.5357 31.7901C45.5293 31.8 45.5208 31.8079 45.5144 31.8148C43.0866 34.6614 39.8356 36.8637 36.1097 38.1878ZM69.4044 17.1082C68.8017 19.5828 67.394 23.1072 64.1206 25.8443C59.4449 29.7526 53.7074 31.6974 47.0542 31.6333C47.6995 30.7926 48.2756 29.9085 48.775 28.9928C53.9395 26.6337 56.3866 23.1487 57.5324 20.6257C58.4811 18.5339 58.7133 16.7707 58.7719 15.9912C59.2383 15.9153 59.4917 15.931 59.6099 15.9518C60.367 16.084 60.9931 15.6163 61.6555 15.121C62.3615 14.5931 63.0899 14.0474 64.0291 14.1086C65.6796 14.2142 68.5845 13.4041 69.9454 12.9887C69.9315 13.8195 69.8378 15.3301 69.4044 17.1082Z" fill="#542125"/>
</svg>
