<svg width="19" height="17" viewBox="0 0 19 17" fill="none" xmlns="http://www.w3.org/2000/svg">
<path d="M18.6858 6.11129C18.2837 5.48488 17.5652 5.137 17.0435 4.88476L16.9345 4.83221C16.7535 4.74287 16.5355 4.65143 16.2689 4.61885C16.1461 4.58942 16.0244 4.57155 15.9028 4.5642C15.2858 4.52846 14.671 4.49588 14.0911 4.46435C13.8742 4.00296 13.6721 3.53736 13.4911 3.11801C13.4403 3.00239 13.3896 2.88573 13.3377 2.77012C13.2245 2.51472 13.106 2.25092 13.016 2.00499C12.9917 1.93562 12.9631 1.86835 12.9335 1.80529C12.7145 1.3418 12.3314 0.972892 11.7642 0.677558L11.6848 0.635517C11.3536 0.4621 11.0087 0.283428 10.5939 0.10896C10.4425 0.0458996 10.2827 0.0175256 10.1177 0.0154236C10.0722 0.0112195 10.0277 0.00701266 9.98222 0.00596165C9.17483 -0.0245177 8.43831 0.400094 8.06372 1.10953C7.4341 2.29822 6.73358 3.49217 6.32195 4.17953C5.16853 4.32982 4.11459 4.49483 3.1072 4.68191C2.29451 4.8322 1.64796 5.446 1.46066 6.24582C1.27337 7.04354 1.57917 7.87699 2.23948 8.36781L2.29028 8.40564C3.19926 9.08144 4.13683 9.77827 5.06168 10.2838C4.89766 11.2591 4.68072 12.6192 4.50824 13.9697C4.42464 14.6213 4.65638 15.2698 5.12833 15.7196C5.17701 15.7711 5.23096 15.8226 5.29022 15.8752C5.84153 16.3618 6.7558 16.8821 7.67113 16.8821C8.24784 16.8821 8.76002 16.6813 9.15261 16.3009C9.84995 15.6251 10.5156 14.9587 11.105 14.368C11.1737 14.2987 11.2436 14.2303 11.3092 14.1631C11.3896 14.2282 11.4711 14.2934 11.5525 14.3596C11.9832 14.7065 12.4287 15.0649 12.8753 15.4148C12.9896 15.5042 13.1134 15.582 13.2446 15.6461C13.3366 15.706 13.416 15.7459 13.4626 15.769C13.524 15.7995 13.6065 15.8479 13.6964 15.8994C14.1991 16.1894 14.9589 16.6277 15.853 16.3776C16.9144 16.0812 17.5609 15.0134 17.3281 13.9466L17.2011 13.3654C16.9715 12.3175 16.7366 11.2371 16.5112 10.3952C16.9599 9.96009 17.4117 9.5565 17.8498 9.16447L17.8636 9.15187C18.0138 9.01839 18.163 8.88386 18.3143 8.74828C19.0593 8.07248 19.2191 6.94053 18.6858 6.11129Z" fill="#CADBE3"/>
<path d="M17.2805 6.10687C16.8774 5.48046 16.1599 5.13258 15.6382 4.88034L15.5292 4.82778C15.3472 4.73845 15.1303 4.64701 14.8636 4.61443C14.7409 4.585 14.6181 4.56713 14.4964 4.55978C13.8806 4.52509 13.2647 4.49146 12.6859 4.45993C12.469 3.99853 12.2669 3.53294 12.0859 3.11358C12.0351 2.99797 11.9832 2.88131 11.9314 2.7657C11.8182 2.5103 11.7007 2.2465 11.6108 2.00057C11.5854 1.9312 11.5568 1.86393 11.5272 1.80087C11.3081 1.33737 10.9261 0.968471 10.3589 0.673137L10.2796 0.631096C9.94731 0.457679 9.6034 0.279008 9.18859 0.10454C9.03621 0.0404279 8.87642 0.0130969 8.7124 0.0109949C8.6669 0.00679081 8.6214 0.00364297 8.57696 0.00154094C7.76851 -0.0289384 7.03308 0.394614 6.65742 1.1051C6.02886 2.29379 5.32832 3.48775 4.91669 4.17406C3.76221 4.3254 2.70933 4.48936 1.70194 4.67749C0.888193 4.82883 0.242694 5.44263 0.0543378 6.24034C-0.132961 7.03911 0.172854 7.87152 0.834218 8.36339L0.885015 8.40122C1.79399 9.07702 2.73156 9.77385 3.65642 10.2794C3.49134 11.2558 3.27545 12.6158 3.10191 13.9663C3.01831 14.6169 3.25006 15.2664 3.72307 15.7163C3.77175 15.7678 3.82466 15.8193 3.88392 15.8718C4.43523 16.3584 5.34951 16.8787 6.2659 16.8787C6.84261 16.8787 7.3537 16.6779 7.74628 16.2975C8.44468 15.6217 9.10923 14.9553 9.6997 14.3647C9.76848 14.2953 9.83725 14.227 9.90392 14.1597C9.98434 14.2249 10.0648 14.29 10.1473 14.3563C10.578 14.7031 11.0235 15.0615 11.47 15.4115C11.5833 15.5008 11.7081 15.5786 11.8383 15.6427C11.9303 15.7015 12.0108 15.7415 12.0563 15.7657C12.1176 15.7961 12.2012 15.8434 12.2901 15.896C12.7938 16.1861 13.5536 16.6243 14.4478 16.3742C15.5081 16.0778 16.1557 15.01 15.9218 13.9432L15.7948 13.362C15.5662 12.3141 15.3313 11.2337 15.1059 10.3918C15.5546 9.95672 16.0065 9.55314 16.4445 9.16111L16.4583 9.14849C16.6086 9.01501 16.7578 8.88048 16.908 8.7449C17.653 8.06805 17.8128 6.93506 17.2805 6.10687Z" fill="white"/>
<path d="M16.0869 7.84678C16.3768 7.58403 16.4721 7.09951 16.253 6.75898C16.0128 6.38587 15.38 6.10525 14.9895 5.91397C14.888 5.86352 14.7811 5.81518 14.6668 5.81308C14.5747 5.81203 14.4848 5.8404 14.398 5.87298C14.1367 5.97072 13.888 6.10001 13.6573 6.25556C13.3144 6.23664 12.9853 6.21982 12.6774 6.20301C12.3695 6.18724 12.0965 6.00856 11.9557 5.7374C11.5938 5.03743 11.2774 4.31434 10.9642 3.59124C10.7959 3.20132 10.6108 2.81349 10.4647 2.41411C10.4521 2.37942 10.4394 2.34684 10.4245 2.31636C10.3092 2.07358 10.0701 1.8907 9.79069 1.74566C9.43832 1.56174 9.11134 1.38832 8.71452 1.22121C8.56638 1.62059 8.41928 2.15871 8.42563 2.58332C8.43198 2.93226 8.37165 3.16348 8.20022 3.47458C7.81716 4.1714 7.41085 4.8556 7.00027 5.5356C6.86482 5.76052 6.63412 5.91082 6.37275 5.94446C5.35055 6.07583 4.22675 6.24084 3.05111 6.4584C2.31355 6.59608 2.09028 7.53779 2.69133 7.98552C3.65004 8.69916 4.64473 9.44116 5.56852 9.91412C5.90291 10.0854 6.09126 10.4501 6.02883 10.819C5.98227 11.085 5.97911 11.3456 5.94948 11.6094C5.91774 11.8879 5.7336 12.1591 5.60133 12.4029C5.28811 12.9841 4.93044 13.5412 4.61087 14.1182C4.51457 14.2905 4.41936 14.4892 4.47756 14.6773C4.51354 14.7929 4.60134 14.8844 4.69234 14.9642C5.19498 15.4078 6.30186 16.0005 6.89445 15.4277C7.84046 14.5123 8.73566 13.6032 9.43618 12.9063C9.74305 12.6005 10.232 12.5711 10.5759 12.838C11.0722 13.2238 11.5801 13.6337 12.0975 14.0488C12.1695 14.1697 12.2414 14.2916 12.3134 14.4135C12.3451 14.4671 12.3779 14.5218 12.4224 14.5648C12.4742 14.6163 12.5398 14.65 12.6065 14.6826C13.0372 14.9001 13.6097 15.3479 14.1165 15.206C14.5557 15.083 14.8276 14.6405 14.7303 14.198C14.4425 12.8874 14.1472 11.4896 13.8742 10.5132C13.7917 10.2158 13.8731 9.89521 14.0943 9.67765C14.7715 9.01131 15.4266 8.44376 16.0869 7.84678Z" fill="#F27C88" stroke="#243645" stroke-width="0.1772" stroke-miterlimit="10" stroke-linecap="round" stroke-linejoin="round"/>
<path d="M9.29014 1.7273C9.80759 2.92125 10.3071 4.13833 10.8277 5.1452C10.9674 5.41741 11.2414 5.59503 11.5494 5.61079C12.4012 5.65598 13.4139 5.70959 14.4287 5.76739C15.1906 5.81048 15.5239 6.74378 14.9588 7.25457C14.2985 7.85154 13.6435 8.41909 12.9684 9.08543C12.7472 9.30299 12.6657 9.62355 12.7483 9.92099C13.0213 10.8974 13.3155 12.2952 13.6033 13.6048C13.7758 14.3899 12.8626 14.9564 12.2277 14.4582C11.2806 13.7151 10.3451 12.9405 9.44992 12.2458C9.10707 11.9789 8.6182 12.0083 8.31026 12.3141C7.61081 13.011 6.71452 13.9201 5.76957 14.8355C5.18545 15.401 4.20876 14.9196 4.31247 14.1156C4.48601 12.7671 4.70715 11.3682 4.90291 10.2258C4.96641 9.85583 4.77912 9.49217 4.44367 9.32086C3.51988 8.8479 2.52519 8.10485 1.56648 7.39226C0.964374 6.94558 1.18765 6.00282 1.92626 5.86514C3.09978 5.64758 4.22464 5.48257 5.2479 5.3512C5.50927 5.31756 5.73994 5.16726 5.87539 4.94235C6.24893 4.3233 7.03835 2.99062 7.73887 1.66635C8.07431 1.03048 9.00443 1.06622 9.29014 1.7273Z" fill="#F6CD6C" stroke="#243645" stroke-width="0.1772" stroke-miterlimit="10" stroke-linecap="round" stroke-linejoin="round"/>
</svg>
