<svg width="65" height="79" viewBox="0 0 65 79" fill="none" xmlns="http://www.w3.org/2000/svg">
<path d="M32.501 78.3169C20.3284 78.3169 11.3688 75.7012 5.86968 70.5429C0.896933 65.8773 0.0594674 60.3024 0.00363856 57.3943C-0.119982 50.9331 2.93469 46.5509 4.8568 44.4429C5.38817 40.985 6.15979 37.7264 7.15773 34.7222C3.36635 29.1973 1.92278 23.311 2.8609 17.1994C3.66344 11.981 6.03318 8.0584 7.37307 6.18475C8.31219 4.87289 9.83052 4.08879 11.4366 4.08879C11.4864 4.08879 11.5373 4.08979 11.5882 4.09079C13.2481 4.13886 14.7764 5.01109 15.6726 6.4251C17.2538 8.92464 20.9145 12.3104 24.2234 14.9832C26.8762 13.9938 29.6507 13.4931 32.5 13.4931C35.3463 13.4931 38.1238 13.9938 40.7756 14.9832C44.0835 12.3084 47.7463 8.92263 49.3274 6.42409C50.2207 5.01009 51.751 4.13786 53.4169 4.08979C53.4657 4.08879 53.5106 4.08779 53.5574 4.08779C55.1655 4.08779 56.6879 4.87089 57.627 6.18275C58.9679 8.0564 61.3366 11.979 62.1382 17.1983C63.0783 23.31 61.6337 29.1963 57.8443 34.7212C58.8402 37.7254 59.6109 40.984 60.1422 44.4419C62.0653 46.5499 65.12 50.9321 64.9964 57.3933C64.9395 60.3014 64.1041 65.8763 59.1313 70.5419C53.6332 75.7012 44.6727 78.3169 32.501 78.3169Z" fill="#B24349"/>
<path d="M32.501 74.2291C20.3284 74.2291 11.3688 71.6134 5.86968 66.4551C0.896933 61.7895 0.0594674 56.2146 0.00363856 53.3065C-0.119982 46.8453 2.93469 42.4631 4.8568 40.3551C5.38817 36.8973 6.15979 33.6386 7.15773 30.6334C3.36635 25.1096 1.92278 19.2222 2.8609 13.1106C3.66344 7.89117 6.03318 3.96962 7.37307 2.09596C8.31219 0.783104 9.83052 0 11.4366 0C11.4864 0 11.5373 0.00100032 11.5882 0.00200174C13.2481 0.0490684 14.7764 0.922306 15.6726 2.33631C17.2538 4.83585 20.9145 8.22064 24.2234 10.8944C26.8762 9.90502 29.6507 9.40431 32.5 9.40431C35.3463 9.40431 38.1238 9.90502 40.7756 10.8944C44.0835 8.22064 47.7463 4.83384 49.3274 2.33631C50.2207 0.922306 51.751 0.0500698 53.4169 0.00200174C53.4657 0.00100032 53.5106 0 53.5574 0C55.1655 0 56.6879 0.783104 57.627 2.09496C58.9679 3.96862 61.3366 7.89118 62.1382 13.1096C63.0783 19.2212 61.6337 25.1076 57.8443 30.6324C58.8402 33.6366 59.6109 36.8952 60.1422 40.3541C62.0653 42.4621 65.12 46.8443 64.9964 53.3055C64.9395 56.2136 64.1041 61.7885 59.1313 66.4541C53.6332 71.6144 44.6727 74.2291 32.501 74.2291Z" fill="white"/>
<path d="M52.2764 25.0485C52.6293 25.7094 52.9633 26.3914 53.2833 27.0914C59.3846 17.8813 55.6839 9.73278 53.5545 6.356C50.9524 9.94909 46.3815 13.8096 43.915 15.7723C47.2857 17.9484 50.1709 21.1029 52.2764 25.0485Z" fill="#577483"/>
<path d="M15.1901 26.3753C12.9948 30.4912 11.4406 35.4462 10.5593 41.1172C11.0418 40.8578 11.4416 40.6045 11.648 40.4002C11.7527 40.1469 11.9032 39.3147 12.0397 38.5766C12.7545 34.6611 14.24 26.5125 20.754 26.5115C20.755 26.5115 20.757 26.5115 20.757 26.5115C27.9569 26.5115 31.1721 35.4862 32.5 41.2905C33.8269 35.4882 37.0451 26.5115 44.242 26.5115C44.243 26.5115 44.243 26.5115 44.245 26.5115C50.758 26.5125 52.2455 34.6611 52.9593 38.5766C53.0949 39.3147 53.2464 40.1469 53.3521 40.4002C53.5585 40.6055 53.9572 40.8588 54.4397 41.1172C53.5585 35.4462 52.0052 30.4922 49.8089 26.3753C46.0724 19.3654 39.6012 15.1815 32.5 15.1815C25.3978 15.1815 18.9277 19.3654 15.1901 26.3753Z" fill="#8EA3AE"/>
<path d="M21.0861 15.7723C20.0612 16.4353 19.0792 17.1883 18.1521 18.0275C16.3695 19.6368 14.7834 21.5635 13.4544 23.7667C13.2012 24.1842 12.96 24.6108 12.7267 25.0485C12.3738 25.7094 12.0398 26.3914 11.7178 27.0914C5.61846 17.8803 9.31911 9.73078 11.4476 6.356C14.0506 9.94909 18.6206 13.8116 21.0861 15.7723Z" fill="#577483"/>
<path d="M55.1565 43.5186L54.7328 43.1671L54.7308 43.1441C53.7369 42.6834 52.5934 42.0706 52.067 41.4877C51.732 41.1152 51.6104 40.5264 51.3093 38.8791C50.6284 35.1458 49.3603 28.1969 44.245 28.1949C44.243 28.1949 44.243 28.1949 44.242 28.1949C35.3253 28.1949 33.3524 46.0782 33.3334 46.2595L33.2487 47.0767C34.6923 47.1528 35.9684 47.4502 36.089 47.9699C36.3103 48.9313 34.5796 50.0689 33.3384 50.5035V53.0952C33.5039 53.4227 34.1848 54.4771 36.1059 54.4771C38.4328 54.4771 39.1177 53.4557 39.1456 53.4126C39.3769 53.0091 39.8834 52.8789 40.2871 53.1102C40.6879 53.3415 40.8215 53.8663 40.5912 54.2698C40.4805 54.4641 39.4148 56.1635 36.107 56.1635C34.2626 56.1635 33.147 55.4555 32.501 54.7746C31.855 55.4555 30.7364 56.1635 28.8931 56.1635C25.5862 56.1635 24.5195 54.4641 24.4088 54.2698C24.1795 53.8663 24.3191 53.3515 24.7209 53.1202C25.1226 52.8889 25.6361 53.0281 25.8654 53.4327C25.8833 53.4577 26.5672 54.4781 28.8931 54.4781C30.8341 54.4781 31.5001 53.4277 31.6616 53.0992V50.5045C30.4204 50.0699 28.6917 48.9333 28.911 47.9709C29.0307 47.4502 30.3078 47.1538 31.7533 47.0777L31.6665 46.2605C31.6476 46.0792 29.6657 28.1959 20.758 28.1959C20.757 28.1959 20.757 28.1959 20.756 28.1959C15.6397 28.1969 14.3726 35.1468 13.6907 38.8801C13.3896 40.5284 13.269 41.1162 12.933 41.4887C12.4086 42.0716 11.2671 42.6824 10.2741 43.1431L10.2702 43.1711L9.8395 43.5236C9.67201 43.6628 5.63541 47.0857 5.75206 53.1963C5.80489 55.9232 6.7101 59.8437 10.7298 63.0353C15.2599 66.6313 22.5854 68.4559 32.5 68.4559C42.4146 68.4559 49.7381 66.6323 54.2692 63.0353C58.2899 59.8437 59.1951 55.9232 59.248 53.1963C59.3656 47.0847 55.329 43.6618 55.1565 43.5186ZM20.755 43.3924C19.5776 43.3924 18.6235 42.4331 18.6235 41.2504C18.6235 40.0677 19.5776 39.1084 20.755 39.1084C21.9324 39.1084 22.8885 40.0677 22.8885 41.2504C22.8885 42.4331 21.9314 43.3924 20.755 43.3924ZM44.246 43.3924C43.0676 43.3924 42.1135 42.4331 42.1135 41.2504C42.1135 40.0677 43.0676 39.1084 44.246 39.1084C45.4234 39.1084 46.3785 40.0677 46.3785 41.2504C46.3785 42.4331 45.4234 43.3924 44.246 43.3924Z" fill="#F9EEEE"/>
<path d="M18.151 18.0275C16.3685 19.6368 14.7824 21.5635 13.4535 23.7667C10.9142 17.9124 13.2182 13.0785 13.2182 13.0785C14.9439 15.2806 16.9417 17.0471 18.151 18.0275Z" fill="#ED6A56"/>
<path d="M46.849 18.0275C48.6325 19.6368 50.2177 21.5635 51.5466 23.7667C54.0849 17.9124 51.7829 13.0785 51.7829 13.0785C50.0562 15.2806 48.0583 17.0471 46.849 18.0275Z" fill="#ED6A56"/>
<path d="M44.246 43.3924C45.4238 43.3924 46.3785 42.4334 46.3785 41.2504C46.3785 40.0674 45.4238 39.1084 44.246 39.1084C43.0683 39.1084 42.1135 40.0674 42.1135 41.2504C42.1135 42.4334 43.0683 43.3924 44.246 43.3924Z" fill="#5B161A"/>
<path d="M20.755 43.3924C21.9328 43.3924 22.8875 42.4334 22.8875 41.2504C22.8875 40.0674 21.9328 39.1084 20.755 39.1084C19.5773 39.1084 18.6226 40.0674 18.6226 41.2504C18.6226 42.4334 19.5773 43.3924 20.755 43.3924Z" fill="#5B161A"/>
<path d="M57.3598 41.7361C56.7717 37.5071 55.8255 33.6326 54.5444 30.1497C63.8738 17.9064 57.4556 6.93883 55.2304 3.82842C54.8296 3.27063 54.1766 2.95018 53.5027 2.9692C52.8178 2.98823 52.1897 3.34774 51.8208 3.92856C49.3205 7.88016 43.263 12.74 41.2462 14.3012C38.5236 13.0435 35.5647 12.3725 32.5021 12.3725C29.4375 12.3725 26.4795 13.0425 23.7569 14.3012C21.7411 12.741 15.6846 7.88416 13.1813 3.92856C12.8144 3.34774 12.1863 2.98823 11.5014 2.9692C10.8185 2.94817 10.1725 3.27163 9.77475 3.82842C7.54858 6.93883 1.12828 17.9074 10.4597 30.1497C9.17659 33.6326 8.23248 37.5071 7.64328 41.7361C6.37816 42.9538 2.83902 46.9355 2.95965 53.2494C3.06433 58.6661 6.15087 71.2629 32.5041 71.2629C58.8572 71.2629 61.9438 58.6651 62.0474 53.2494C62.1661 46.9355 58.625 42.9538 57.3598 41.7361ZM53.5545 6.356C55.684 9.73178 59.3846 17.8803 53.2834 27.0914C52.9643 26.3924 52.6294 25.7094 52.2764 25.0485C50.1719 21.1029 47.2857 17.9484 43.915 15.7723C46.3815 13.8096 50.9525 9.94909 53.5545 6.356ZM32.5011 15.1815C39.6023 15.1815 46.0735 19.3664 49.81 26.3753C52.0053 30.4912 53.5595 35.4462 54.4408 41.1172C53.9592 40.8578 53.5595 40.6055 53.3531 40.4002C53.2484 40.1469 53.0959 39.3147 52.9603 38.5766C52.2465 34.6611 50.7591 26.5125 44.2461 26.5115C44.2441 26.5115 44.244 26.5115 44.243 26.5115C37.0451 26.5115 33.828 35.4872 32.5011 41.2905C31.1732 35.4872 27.957 26.5115 20.7581 26.5115C20.7581 26.5115 20.7561 26.5115 20.7551 26.5115C14.241 26.5125 12.7556 34.6611 12.0408 38.5766C11.9042 39.3147 11.7547 40.1469 11.649 40.4002C11.4426 40.6055 11.0439 40.8578 10.5604 41.1172C11.4417 35.4462 12.9949 30.4922 15.1911 26.3753C18.9277 19.3654 25.3979 15.1815 32.5011 15.1815ZM11.4466 6.356C14.0506 9.94909 18.6196 13.8096 21.0861 15.7723C17.7144 17.9484 14.8293 21.1029 12.7257 25.0485C12.3728 25.7094 12.0388 26.3914 11.7168 27.0914C5.6175 17.8803 9.31815 9.73178 11.4466 6.356ZM54.2703 63.0343C49.7392 66.6303 42.4157 68.4549 32.5011 68.4549C22.5865 68.4549 15.2609 66.6313 10.7308 63.0343C6.71113 59.8427 5.80592 55.9222 5.75308 53.1953C5.63644 47.0847 9.67304 43.6618 9.84053 43.5226L10.2712 43.1701L10.2752 43.1421C11.2682 42.6824 12.4097 42.0706 12.9341 41.4878C13.27 41.1152 13.3907 40.5264 13.6918 38.8791C14.3737 35.1458 15.6408 28.1969 20.7571 28.1949C20.7581 28.1949 20.7581 28.1949 20.7591 28.1949C29.6678 28.1949 31.6497 46.0783 31.6676 46.2595L31.7543 47.0767C30.3098 47.1528 29.0327 47.4502 28.912 47.9699C28.6917 48.9313 30.4215 50.0689 31.6626 50.5035V53.0982C31.5011 53.4267 30.8351 54.4771 28.8941 54.4771C26.5682 54.4771 25.8833 53.4557 25.8664 53.4317C25.6371 53.0281 25.1227 52.8889 24.7219 53.1192C24.3211 53.3495 24.1806 53.8663 24.4099 54.2689C24.5205 54.4631 25.5872 56.1625 28.8941 56.1625C30.7384 56.1625 31.856 55.4535 32.5021 54.7736C33.1481 55.4545 34.2647 56.1625 36.108 56.1625C39.4159 56.1625 40.4816 54.4631 40.5922 54.2689C40.8225 53.8653 40.6899 53.3415 40.2882 53.1092C39.8854 52.8779 39.3789 53.0081 39.1467 53.4116C39.1197 53.4547 38.4339 54.4761 36.107 54.4761C34.1849 54.4761 33.505 53.4216 33.3395 53.0942V50.5025C34.5807 50.0679 36.3104 48.9313 36.09 47.9689C35.9694 47.4482 34.6943 47.1518 33.2498 47.0757L33.3345 46.2585C33.3545 46.0772 35.3264 28.1939 44.243 28.1939C44.244 28.1939 44.2441 28.1939 44.2461 28.1939C49.3614 28.1949 50.6295 35.1448 51.3104 38.8781C51.6115 40.5264 51.7331 41.1142 52.068 41.4867C52.5944 42.0696 53.738 42.6824 54.7319 43.1431L54.7339 43.1661L55.1576 43.5176C55.33 43.6608 59.3667 47.0837 59.249 53.1933C59.1962 55.9222 58.291 59.8427 54.2703 63.0343Z" fill="#5B161A"/>
</svg>
