<svg width="69" height="49" viewBox="0 0 69 49" fill="none" xmlns="http://www.w3.org/2000/svg">
<path d="M66.5708 40.8126C65.5138 40.6072 64.3909 40.4653 63.1373 40.3818C62.663 40.3506 62.2029 40.3486 61.7945 40.3475C61.4165 40.3465 61.0578 40.3455 60.7254 40.3224C59.5893 40.2429 58.4016 40.0738 57.2524 39.9107C56.771 39.8423 56.2744 39.7718 55.7789 39.7064C55.1759 39.6279 54.5719 39.5574 53.9649 39.495C56.0444 38.2861 58.1898 37.0863 60.4274 36.3968C62.0732 35.8885 63.8285 36.1241 65.8634 36.3978L66.3296 36.4603C66.9356 36.5408 67.5366 36.3817 68.023 36.0133C68.5084 35.6439 68.8206 35.1095 68.9016 34.5075C68.927 34.3093 68.928 34.11 68.9026 33.9157C68.9016 33.3973 68.8327 32.8628 68.8317 32.8568C68.7243 32.0395 68.4608 31.4305 68.1932 30.891C68.176 30.8377 68.1558 30.7702 68.1365 30.7028C68.171 30.4038 68.1912 29.9036 67.9592 29.349C67.6977 28.7239 67.1778 28.2237 66.5323 27.9791C66.3215 27.8985 66.1026 27.8482 65.8806 27.8261C65.8674 27.6872 65.8553 27.5523 65.8452 27.4234C65.8442 27.4114 65.8431 27.3993 65.8411 27.3862C65.8249 27.2322 65.8127 27.0923 65.8016 26.9665C65.8938 26.7893 65.986 26.6132 66.0773 26.437C66.2232 26.2015 66.357 25.9639 66.4786 25.7294C66.589 25.517 66.7005 25.3026 66.811 25.0872C66.9123 24.891 67.0187 24.6907 67.1282 24.4924C67.2153 24.3343 67.3116 24.1773 67.419 24.0193C67.4768 23.9347 67.5244 23.8653 67.5639 23.8079C67.7717 23.509 67.9085 23.1869 67.9723 22.8507C68.1436 21.9488 67.7423 21.052 66.9224 20.5054C66.6022 20.294 66.2302 20.1551 65.8178 20.0958C65.4317 20.0394 65.0456 20.0625 64.6716 20.1632C64.4213 20.2306 64.1862 20.3333 63.9733 20.4682C63.8254 20.3434 63.6612 20.2367 63.4839 20.1491C63.0593 19.9418 62.5759 19.8552 62.0935 19.8975C61.6638 19.9357 61.2402 20.0636 60.8378 20.279C60.5743 20.4189 60.3484 20.6131 60.17 20.8456C59.5569 20.5014 58.8252 20.4118 58.0834 20.594C57.7074 20.6826 57.3304 20.8396 56.9635 21.06C56.6767 21.2322 56.3951 21.4375 56.1255 21.669C55.8792 21.8814 55.6431 22.1129 55.4242 22.3575C55.2083 22.598 55.0097 22.8477 54.8344 23.0983C54.5172 23.5533 54.2324 24.0414 53.9922 24.5467C53.9517 24.6323 53.9132 24.7178 53.8747 24.8034C53.7977 24.6776 53.7125 24.5578 53.6172 24.4461C53.3011 24.0777 52.8988 23.8019 52.4518 23.6499C51.9431 23.4758 51.4009 23.4637 50.8861 23.6167L50.8365 23.6318C50.798 23.6428 50.7594 23.6559 50.7219 23.67C50.3875 23.7908 50.0814 23.973 49.8109 24.2085C49.6274 24.2166 49.4217 24.2387 49.1754 24.276C48.8815 24.3203 48.5522 24.3786 48.1691 24.4551C48.1418 24.4612 48.1114 24.4672 48.084 24.4743C48.0485 24.4833 48.0131 24.4904 47.9735 24.4974C47.8732 24.5165 47.7739 24.5377 47.6746 24.5608C47.2743 24.6524 46.9307 24.744 46.6186 24.8386C46.1646 24.9775 45.6427 25.1778 45.2181 25.6127C45.2008 25.6298 45.1846 25.6479 45.1684 25.665C45.1532 25.6821 45.141 25.6992 45.1258 25.7153C44.99 25.6278 44.8492 25.5462 44.7012 25.4717C44.2746 25.2584 43.7952 25.0933 43.2754 24.9816C42.8325 24.8859 42.4058 24.8235 42.0065 24.7943C41.7441 24.7752 41.514 24.7732 41.2992 24.7863C40.7762 24.8205 40.3121 24.9816 39.9189 25.2684C39.7557 25.3882 39.6108 25.5261 39.4862 25.6781C38.1343 23.6459 35.4051 23.0369 33.3418 23.664C33.0074 23.7656 32.682 23.8945 32.3648 24.0505C33.2374 21.3238 34.0765 18.591 34.8792 15.8602C34.943 15.6428 35.0332 15.3358 35.0839 14.9684C35.1325 14.7792 35.172 14.5446 35.167 14.2729C35.1609 13.8622 35.0595 13.4666 34.8558 13.063C34.6835 12.7218 34.5376 12.4158 34.4059 12.144C33.6337 10.5386 33.0753 9.37902 30.8427 8.68148C29.1777 8.1611 27.767 7.65078 26.2662 7.10724C24.9781 6.64121 23.6474 6.15907 21.9956 5.6095C20.289 5.0418 17.2558 4.1188 15.6475 3.64471C15.1469 3.49776 14.7862 3.39811 14.4325 3.33167C11.5979 2.80022 10.5906 4.99751 10.1609 5.93663C9.57209 7.22098 8.57286 10.3997 7.32636 14.4238C6.80952 16.0937 6.32207 17.671 6.07783 18.3585C5.39175 20.291 4.71784 22.2588 4.07432 24.2045C3.58281 25.6912 3.17335 26.7944 2.55821 28.435C2.48524 28.6293 2.41128 28.8205 2.33832 29.0108C1.62386 30.8739 0.813105 32.9856 1.95117 35.0622C2.41937 35.9167 3.00918 36.6756 3.80674 37.4457C4.49282 38.1523 5.38162 38.5156 6.0829 38.7532C6.51158 38.8991 7.23315 39.1487 8.14623 39.4648L8.20091 39.4839C11.7469 40.7109 18.3473 42.9958 20.5727 43.5816C20.7906 43.64 21.0531 43.7054 21.3389 43.7587C22.3483 43.948 23.2218 43.8836 24.0103 43.5595C24.817 43.2283 25.3865 42.6807 25.7838 42.1523C27.3485 42.1714 28.8321 42.0144 30.2205 41.6842C31.2491 42.7743 32.4916 43.5615 33.8749 43.9913C34.4546 44.1714 35.0606 44.3214 35.6727 44.4361C38.417 44.9505 41.4775 44.7884 44.5218 43.9661C44.7965 43.8916 45.0731 43.8111 45.3619 43.7185C48.6343 43.6239 51.937 43.7909 55.181 44.2157C55.6522 44.2771 56.1346 44.3456 56.6018 44.412C57.831 44.5871 59.1019 44.7683 60.4031 44.8579C60.6778 44.878 60.9463 44.8861 61.2037 44.8901C61.2888 45.1971 61.3942 45.4749 61.5006 45.7376C61.5138 45.792 61.528 45.8604 61.5432 45.9279C61.4865 46.2238 61.4297 46.722 61.6192 47.2907C61.835 47.9339 62.3164 48.4694 62.9437 48.7613C63.1373 48.8509 63.343 48.9173 63.5528 48.9566C64.0169 49.0431 64.4923 48.9999 64.927 48.8307C65.458 48.6234 65.8968 48.254 66.2292 47.7316C66.4177 47.4357 66.5627 47.1166 66.661 46.7824C66.661 46.7804 66.663 46.7774 66.663 46.7744C67.1636 46.3093 67.4727 45.7416 67.6926 45.2736C67.7616 45.1266 67.9014 44.7109 68.0189 44.3264C68.1912 44.0768 68.3139 43.792 68.3757 43.4819C68.6199 42.254 67.8112 41.0562 66.5708 40.8126Z" fill="#CADBE3"/>
<path d="M65.1874 37.5614C64.1314 37.356 63.0075 37.2131 61.7539 37.1306C61.2796 37.0994 60.8196 37.0974 60.4112 37.0963C60.0332 37.0953 59.6744 37.0943 59.342 37.0702C58.206 36.9907 57.0183 36.8216 55.8691 36.6585C55.3877 36.5911 54.8911 36.5196 54.3955 36.4552C53.7925 36.3767 53.1886 36.3062 52.5815 36.2438C54.661 35.0349 56.8075 33.8351 59.0441 33.1446C60.6899 32.6373 62.4451 32.8729 64.48 33.1467L64.9462 33.2091C65.5532 33.2896 66.1532 33.1305 66.6397 32.7611C67.1261 32.3917 67.4372 31.8583 67.5183 31.2563C67.5446 31.0581 67.5446 30.8588 67.5203 30.6635C67.5182 30.1451 67.4493 29.6116 67.4483 29.6056C67.3409 28.7883 67.0774 28.1793 66.8099 27.6398C66.7927 27.5865 66.7734 27.519 66.7532 27.4516C66.7876 27.1526 66.8079 26.6524 66.5758 26.0978C66.3144 25.4717 65.7945 24.9725 65.1489 24.7279C64.9391 24.6473 64.7192 24.597 64.4973 24.5749C64.4841 24.435 64.473 24.3011 64.4618 24.1712C64.4608 24.1592 64.4598 24.1471 64.4578 24.135C64.4425 23.981 64.4304 23.8401 64.4182 23.7153C64.5115 23.5381 64.6026 23.362 64.6938 23.1858C64.8398 22.9503 64.9736 22.7117 65.0952 22.4782C65.2057 22.2658 65.3171 22.0515 65.4276 21.8361C65.5299 21.6398 65.6354 21.4395 65.7448 21.2412C65.831 21.0831 65.9282 20.9261 66.0346 20.7681C66.0924 20.6835 66.14 20.6131 66.1795 20.5567C66.3873 20.2578 66.5241 19.9357 66.5879 19.5995C66.7592 18.6976 66.3579 17.7998 65.538 17.2542C65.2178 17.0429 64.8469 16.904 64.4344 16.8446C64.0473 16.7882 63.6622 16.8113 63.2872 16.912C63.0369 16.9784 62.8018 17.0821 62.59 17.217C62.442 17.0922 62.2769 16.9855 62.1006 16.8979C61.6749 16.6906 61.1925 16.604 60.7091 16.6463C60.2795 16.6845 59.8568 16.8124 59.4535 17.0268C59.191 17.1677 58.964 17.3619 58.7857 17.5934C58.1726 17.2502 57.4408 17.1596 56.699 17.3428C56.323 17.4314 55.9471 17.5884 55.5792 17.8088C55.2924 17.981 55.0107 18.1863 54.7411 18.4178C54.4958 18.6302 54.2587 18.8617 54.0398 19.1063C53.8239 19.3468 53.6263 19.5965 53.45 19.8471C53.1328 20.3021 52.8491 20.7902 52.6079 21.2955C52.5673 21.3811 52.5288 21.4666 52.4903 21.5522C52.4133 21.4264 52.3282 21.3066 52.2329 21.1949C51.9167 20.8265 51.5144 20.5507 51.0674 20.3977C50.5587 20.2236 50.0166 20.2115 49.5017 20.3655L49.4521 20.3806C49.4136 20.3917 49.3751 20.4047 49.3376 20.4188C49.0031 20.5396 48.6971 20.7208 48.4275 20.9573C48.2431 20.9654 48.0374 20.9875 47.7911 21.0248C47.4972 21.0691 47.1678 21.1274 46.7847 21.2039C46.7564 21.21 46.728 21.216 46.6996 21.2231C46.6642 21.2321 46.6297 21.2402 46.5892 21.2472C46.4888 21.2663 46.3895 21.2875 46.2902 21.3096C45.8909 21.4022 45.5464 21.4928 45.2342 21.5874C44.7802 21.7263 44.2583 21.9266 43.8337 22.3615C43.8164 22.3786 43.8012 22.3957 43.784 22.4138C43.7688 22.4309 43.7566 22.448 43.7414 22.4641C43.6067 22.3766 43.4658 22.295 43.3168 22.2205C42.8902 22.0072 42.4108 21.8431 41.8919 21.7304C41.4481 21.6347 41.0214 21.5723 40.6221 21.5431C40.3597 21.524 40.1297 21.522 39.9158 21.5351C39.3919 21.5683 38.9287 21.7304 38.5345 22.0172C38.3713 22.137 38.2264 22.2749 38.1018 22.4269C36.7499 20.3947 34.0208 19.7857 31.9574 20.4128C31.623 20.5144 31.2977 20.6433 30.9815 20.7993C31.853 18.0726 32.6922 15.3398 33.4948 12.609C33.5587 12.3916 33.6498 12.0836 33.6995 11.7172C33.7481 11.528 33.7877 11.2945 33.7836 11.0227C33.7765 10.612 33.6752 10.2164 33.4715 9.81281C33.3002 9.47159 33.1533 9.1656 33.0226 8.89383C32.2493 7.28838 31.6919 6.12884 29.4583 5.4313C27.7933 4.91091 26.3826 4.40059 24.8818 3.85706C23.5947 3.39102 22.2631 2.90889 20.6112 2.35931C18.9046 1.79162 15.8724 0.868611 14.2631 0.394526C13.7625 0.246563 13.4018 0.14792 13.0481 0.0814881C10.2135 -0.448964 9.20618 1.74834 8.7765 2.68644C8.1877 3.9708 7.18847 7.14948 5.94197 11.1737C5.42513 12.8435 4.93768 14.4208 4.69344 15.1083C4.00736 17.0408 3.33345 19.0076 2.68993 20.9543C2.19943 22.441 1.78903 23.5442 1.17388 25.1848C1.10092 25.3791 1.0269 25.5693 0.95393 25.7606C0.23947 27.6247 -0.571221 29.7354 0.566847 31.812C1.03505 32.6665 1.62485 33.4245 2.42241 34.1955C3.10849 34.9021 3.99723 35.2654 4.69852 35.503C5.12719 35.6489 5.84876 35.8986 6.76185 36.2146L6.81659 36.2337C10.3625 37.4607 16.9629 39.7456 19.1884 40.3314C19.4073 40.3888 19.6687 40.4552 19.9545 40.5085C20.9639 40.6978 21.8375 40.6324 22.6269 40.3093C23.4326 39.9791 24.0021 39.4305 24.3994 38.9021C25.9641 38.9222 27.4477 38.7652 28.8361 38.4341C29.8657 39.5241 31.1072 40.3123 32.4905 40.7421C33.0712 40.9222 33.6762 41.0722 34.2883 41.187C37.0326 41.7013 40.0942 41.5393 43.1374 40.7169C43.4121 40.6424 43.6888 40.5619 43.9786 40.4693C47.2509 40.3757 50.5526 40.5428 53.7966 40.9665C54.2678 41.0279 54.7502 41.0964 55.2184 41.1628C56.4467 41.3379 57.7175 41.5191 59.0197 41.6097C59.2933 41.6288 59.5619 41.6379 59.8193 41.6419C59.9055 41.9479 60.0099 42.2267 60.1163 42.4884C60.1294 42.5428 60.1436 42.6122 60.1598 42.6797C60.1021 42.9756 60.0464 43.4728 60.2348 44.0425C60.4507 44.6857 60.9321 45.2212 61.5594 45.5131C61.753 45.6037 61.9587 45.6691 62.1695 45.7084C62.6326 45.7949 63.1079 45.7517 63.5426 45.5826C64.0737 45.3752 64.5125 45.0058 64.8449 44.4834C65.0334 44.1875 65.1783 43.8674 65.2766 43.5342C65.2766 43.5312 65.2786 43.5282 65.2796 43.5252C65.7792 43.0602 66.0883 42.4935 66.3082 42.0254C66.3772 41.8785 66.518 41.4618 66.6356 41.0783C66.8068 40.8286 66.9295 40.5428 66.9913 40.2338C67.2365 39.0018 66.4278 37.8039 65.1874 37.5614Z" fill="white"/>
<path d="M64.5408 27.6921C64.5601 27.5613 64.5794 27.4304 64.5986 27.2996C64.6179 27.1717 64.6351 27.0369 64.5854 26.9181C64.5104 26.7389 64.2723 26.6483 64.097 26.7319C63.9855 26.7852 63.9085 26.8919 63.8497 27.0006C63.7707 27.1486 63.7149 27.3096 63.6855 27.4747C63.6754 27.5341 63.6714 27.6015 63.7109 27.6468C63.8771 27.6327 64.0473 27.6328 64.2095 27.67L64.5408 27.6921Z" fill="white" stroke="#243645" stroke-width="0.1576" stroke-miterlimit="10" stroke-linecap="round" stroke-linejoin="round"/>
<path d="M62.4228 30.4994C62.3732 30.5014 62.6508 29.4033 62.6873 29.3087C62.815 28.9755 62.9914 28.5709 63.2721 28.3353C63.3258 28.29 63.3865 28.2508 63.4322 28.1974C63.4727 28.1511 63.5001 28.0948 63.5254 28.0384C63.5954 27.8784 63.644 27.7082 63.6683 27.5351C63.9794 27.5311 64.2895 27.5784 64.5844 27.674C64.5702 27.67 64.7821 28.3947 64.8186 28.4692C65.0608 28.9513 65.2411 29.3509 65.311 29.8834C65.3202 29.9559 65.4255 30.9977 65.3141 30.9997C64.3979 31.0188 63.8132 30.7511 62.9427 30.6242L62.4228 30.4994Z" fill="white" stroke="#243645" stroke-width="0.1576" stroke-miterlimit="10" stroke-linecap="round" stroke-linejoin="round"/>
<path d="M62.3864 42.5981C62.357 42.727 62.3276 42.8558 62.2992 42.9857C62.2718 43.1115 62.2435 43.2443 62.283 43.3661C62.3448 43.5503 62.5759 43.658 62.7583 43.5876C62.8728 43.5423 62.958 43.4416 63.0238 43.338C63.115 43.196 63.1819 43.04 63.2234 42.877C63.2376 42.8186 63.2468 42.7511 63.2093 42.7038C63.0431 42.7058 62.8739 42.6938 62.7147 42.6444L62.3864 42.5981Z" fill="white" stroke="#243645" stroke-width="0.1576" stroke-miterlimit="10" stroke-linecap="round" stroke-linejoin="round"/>
<path d="M64.7517 39.7637C64.8013 39.7657 64.397 41.0279 64.3544 41.1195C64.2024 41.4426 63.9967 41.8342 63.6998 42.0476C63.641 42.0888 63.5781 42.1231 63.5285 42.1734C63.4849 42.2167 63.4525 42.271 63.4241 42.3254C63.342 42.4804 63.2812 42.6455 63.2437 42.8166C62.9346 42.7974 62.6286 42.728 62.3408 42.6112C62.3539 42.6163 62.1958 41.8775 62.1644 41.801C61.9577 41.3037 61.8077 40.891 61.7773 40.3546C61.7732 40.2811 61.7236 39.3752 61.8361 39.3832C62.8252 39.4557 63.2751 39.495 64.1345 39.6842L64.7517 39.7637Z" fill="white" stroke="#243645" stroke-width="0.1576" stroke-miterlimit="10" stroke-linecap="round" stroke-linejoin="round"/>
<path d="M19.2837 35.9298C23.1873 36.8981 27.4903 37.0299 31.0636 35.2171C32.835 34.3173 34.3268 32.8829 35.2936 31.1557C36.3222 29.3177 36.7428 27.8713 36.683 25.7123C36.6668 25.1164 36.6141 24.5054 36.3557 23.9679C35.7335 22.6715 34.0086 22.1662 32.6253 22.5869C31.242 23.0067 30.189 24.1471 29.4746 25.3962C28.3274 27.4002 27.8967 29.7989 28.2767 32.0727C28.7479 34.9001 30.342 37.6892 33.1745 38.5689C36.2006 39.5101 39.5044 39.3389 42.5375 38.5196C48.3545 36.9484 52.7285 32.7128 58.3641 30.9725C60.6443 30.2689 62.9001 30.6434 65.2492 30.9544" stroke="#243645" stroke-width="0.4203" stroke-miterlimit="10" stroke-linecap="round" stroke-linejoin="round"/>
<path d="M43.5976 38.2026C47.103 38.0848 50.6185 38.2539 54.0966 38.7079C55.79 38.9293 57.4763 39.2182 59.1819 39.337C59.9916 39.3933 60.7892 39.344 61.602 39.3984C62.7421 39.4738 63.7666 39.5987 64.7466 39.7909" stroke="#243645" stroke-width="0.4203" stroke-miterlimit="10" stroke-linecap="round" stroke-linejoin="round"/>
<path d="M40.2756 29.196C40.2563 29.2101 40.2361 29.2725 40.2117 29.3832C40.1864 29.4939 40.16 29.6318 40.1337 29.7949C40.1063 29.9579 40.078 30.1341 40.0506 30.3233C40.0222 30.5125 39.9948 30.6927 39.9705 30.8638C39.9462 31.0349 39.9229 31.1869 39.9016 31.3208C39.8803 31.4547 39.8661 31.5392 39.8591 31.5765C39.7922 31.8875 39.7273 32.2478 39.6665 32.6555C39.6037 33.0631 39.5399 33.4607 39.475 33.8462C39.4507 33.9801 39.4294 34.124 39.4152 34.2811C39.401 34.4381 39.3706 34.5881 39.324 34.731C39.2773 34.8739 39.2095 35.0007 39.1193 35.1084C39.0291 35.2161 38.8963 35.2836 38.722 35.3067C38.4919 35.3329 38.3268 35.2896 38.2244 35.1819C38.1201 35.0742 38.0521 34.9343 38.0197 34.7662C37.9863 34.5971 37.9751 34.418 37.9883 34.2297C38.0015 34.0405 38.0157 33.8784 38.0339 33.7446C38.0694 33.4376 38.117 33.0863 38.1768 32.6907C38.2366 32.2951 38.2974 31.8935 38.3602 31.4829C38.423 31.0732 38.49 30.6676 38.5619 30.2669C38.6339 29.8663 38.6977 29.506 38.7504 29.1859C38.8041 28.8658 38.8507 28.6021 38.8902 28.3948C38.9287 28.1874 38.9531 28.0656 38.9591 28.0284C39.0169 27.6862 39.0737 27.352 39.1325 27.0248C39.1912 26.6987 39.2439 26.3937 39.2946 26.1119C39.3442 25.8301 39.3909 25.5734 39.4344 25.3439C39.478 25.1134 39.5145 24.9212 39.5439 24.7651C39.5601 24.6836 39.5712 24.6232 39.5794 24.5819C39.5864 24.5417 39.5956 24.5065 39.6047 24.4773C39.6138 24.4481 39.626 24.4199 39.6432 24.3927C39.6604 24.3655 39.6929 24.3253 39.7425 24.2729C39.6706 24.123 39.6392 23.9981 39.6503 23.8995C39.6614 23.8009 39.6999 23.7294 39.7668 23.6791C39.8337 23.6297 39.928 23.6026 40.0496 23.5955C40.1702 23.5875 40.311 23.5905 40.4712 23.6026C40.7843 23.6247 41.1106 23.674 41.4522 23.7485C41.7937 23.823 42.1048 23.9257 42.3835 24.0646C42.6612 24.2045 42.8922 24.3816 43.0747 24.6051C43.2561 24.8286 43.3422 25.1084 43.3311 25.4516C43.3158 25.8522 43.2297 26.2246 43.0726 26.5669C42.9145 26.9101 42.7149 27.2141 42.4767 27.4768C42.2376 27.7395 41.9771 27.9619 41.6954 28.1411C41.4137 28.3203 41.141 28.4521 40.8775 28.5377C41.0954 29.2624 41.3255 29.968 41.5707 30.6545C41.815 31.3419 42.0561 32.0203 42.2902 32.6947C42.3135 32.8155 42.346 32.9504 42.3875 33.1004C42.4281 33.2504 42.4575 33.4023 42.4747 33.5553C42.4929 33.7083 42.4899 33.8543 42.4666 33.9952C42.4433 34.1361 42.3815 34.2489 42.2801 34.3344C42.1606 34.4371 42.0491 34.4904 41.9477 34.4955C41.8464 34.5005 41.7572 34.4753 41.6781 34.422C41.5991 34.3686 41.5322 34.2982 41.4806 34.2126C41.4269 34.1271 41.3842 34.0475 41.3508 33.9781C41.2282 33.6882 41.1197 33.3208 41.0285 32.8739C40.9353 32.427 40.8461 31.97 40.761 31.502C40.6759 31.0339 40.5938 30.5941 40.5137 30.1834C40.4337 29.7727 40.3475 29.4597 40.2573 29.2453C40.2614 29.2252 40.2685 29.2101 40.2756 29.196ZM40.461 27.9146C40.6617 27.9187 40.8502 27.8583 41.0285 27.7385C41.2059 27.6187 41.366 27.4637 41.5109 27.2735C41.6559 27.0832 41.7775 26.8718 41.8748 26.6413C41.972 26.4108 42.0409 26.1834 42.0794 25.9609C42.1169 25.7385 42.1241 25.5331 42.0987 25.3419C42.0734 25.1506 42.0045 25.0007 41.895 24.891C41.7836 24.7883 41.6254 24.6907 41.4238 24.596C41.2221 24.5014 41.0113 24.437 40.7934 24.4038C40.8208 24.4581 40.8461 24.5054 40.8654 24.5447C40.8846 24.584 40.8897 24.6444 40.8836 24.7259C40.8816 24.7329 40.8714 24.8084 40.8522 24.9493C40.8329 25.0903 40.8097 25.2674 40.7813 25.4788C40.7529 25.6902 40.7205 25.9247 40.688 26.1814C40.6546 26.438 40.6222 26.6836 40.5887 26.9171C40.5553 27.1507 40.5269 27.359 40.5046 27.5412C40.4823 27.7234 40.4661 27.8472 40.461 27.9146Z" fill="#243645"/>
<path d="M43.6574 31.5885C43.708 31.4003 43.7587 31.196 43.8074 30.9766C43.857 30.7571 43.9067 30.5206 43.9543 30.269C43.9969 30.0465 44.0385 29.816 44.08 29.5754C44.1216 29.3349 44.1631 29.0903 44.2026 28.8397C44.2573 28.4723 44.3151 28.1018 44.3789 27.7284C44.4428 27.355 44.5056 26.9916 44.5695 26.6373C44.6333 26.283 44.6931 25.9478 44.7488 25.6328C44.8046 25.3187 44.8563 25.0359 44.9039 24.7833C44.9404 24.591 44.9708 24.4622 44.9951 24.3967C45.0184 24.3323 45.0427 24.2921 45.064 24.278C45.0853 24.2629 45.1056 24.2528 45.1228 24.2458C45.139 24.2397 45.1633 24.1944 45.1947 24.1099C45.2079 24.0787 45.2191 24.0374 45.2292 23.9851C45.2363 23.9478 45.2444 23.9186 45.2515 23.8955C45.2606 23.8723 45.2829 23.8391 45.3224 23.7958C45.3994 23.7173 45.5728 23.6398 45.8433 23.5573C46.1139 23.4747 46.4189 23.3952 46.7574 23.3167C46.8304 23.2996 46.9034 23.2845 46.9753 23.2714C47.0473 23.2573 47.1202 23.2422 47.1932 23.2241C47.5215 23.1587 47.8245 23.1033 48.0992 23.0631C48.3738 23.0218 48.5634 23.0067 48.6698 23.0198C48.7073 23.0238 48.7468 23.0459 48.7893 23.0872C48.8319 23.1285 48.8471 23.1828 48.8339 23.2503C48.8309 23.2654 48.8167 23.2976 48.7924 23.3469C48.7022 23.4929 48.5552 23.6116 48.3485 23.7002C48.1418 23.7878 47.9168 23.8653 47.6735 23.9287C47.559 23.9579 47.4496 23.9841 47.3452 24.0072C47.2398 24.0293 47.1314 24.0545 47.0189 24.0827C46.9246 24.1048 46.8314 24.127 46.7392 24.1491C46.6257 24.1753 46.5244 24.2025 46.4342 24.2307C46.343 24.2578 46.268 24.2931 46.2051 24.3343C46.197 24.3786 46.1879 24.4229 46.1798 24.4672C46.1605 24.5709 46.1382 24.7088 46.1139 24.8809C46.0886 25.053 46.0653 25.2372 46.044 25.4335C46.0329 25.6137 46.0156 25.7938 45.9923 25.976C45.97 26.1592 45.9497 26.3223 45.9335 26.4672C45.9173 26.6122 45.8991 26.7803 45.8788 26.9685C45.9102 27.0037 46.0034 27.0047 46.1565 26.9685C46.2618 26.9443 46.3764 26.9111 46.5001 26.8708C46.6237 26.8306 46.7504 26.7933 46.8801 26.7611C46.953 26.742 47.024 26.7279 47.0919 26.7178C47.1588 26.7068 47.2236 26.7007 47.2854 26.6977C47.408 26.7007 47.483 26.7239 47.5094 26.7702C47.5357 26.8155 47.5428 26.8688 47.5317 26.9272C47.5286 26.9423 47.5256 26.9564 47.5226 26.9715C47.5074 27.053 47.4729 27.1346 47.4182 27.2151C47.3634 27.2956 47.252 27.3771 47.0827 27.4567C46.9723 27.507 46.8527 27.5573 46.724 27.6066C46.5942 27.657 46.4686 27.7022 46.345 27.7435C46.2213 27.7848 46.1048 27.819 45.9943 27.8482C45.8849 27.8774 45.7937 27.8995 45.7197 27.9156C45.6974 28.0374 45.6731 28.1602 45.6508 28.282C45.6224 28.43 45.594 28.5759 45.5677 28.7209C45.5403 28.8648 45.516 29.0108 45.4967 29.1567C45.4704 29.2976 45.445 29.4335 45.4248 29.5654C45.4035 29.6982 45.3792 29.8341 45.3528 29.975C45.3265 30.116 45.2981 30.2528 45.2687 30.3867C45.2403 30.5206 45.2109 30.6585 45.1846 30.7984C45.1694 30.8799 45.1542 30.9615 45.138 31.043C45.1228 31.1245 45.1218 31.1779 45.137 31.203C45.1522 31.2282 45.2018 31.2342 45.29 31.2211C45.4765 31.1779 45.6497 31.1306 45.8159 31.0792C45.9791 31.0279 46.1423 30.9816 46.3055 30.9393C46.4676 30.897 46.6227 30.8648 46.7696 30.8427C46.9176 30.8215 47.0676 30.8135 47.2206 30.8195C47.4263 30.8326 47.5195 30.893 47.4983 31.0047C47.4881 31.0571 47.4536 31.1155 47.3938 31.1809C47.2388 31.351 47.0351 31.4899 46.7817 31.5936C46.5304 31.6972 46.2831 31.7808 46.0399 31.8432C45.9416 31.8684 45.8474 31.8905 45.7551 31.9096C45.6619 31.9298 45.5798 31.9479 45.5069 31.966C45.4217 31.9871 45.3366 32.0073 45.2515 32.0274C45.0984 32.0636 44.9768 32.0948 44.8866 32.122C44.7965 32.1492 44.7184 32.1733 44.6525 32.1945C44.5877 32.2156 44.5249 32.2378 44.4661 32.2609C44.4073 32.2841 44.3374 32.3042 44.2573 32.3203C44.1286 32.3465 44.0435 32.3485 44.001 32.3283C43.9584 32.3072 43.9006 32.2831 43.8297 32.2539C43.6929 32.2005 43.6108 32.1321 43.5844 32.0505C43.5581 31.969 43.551 31.8915 43.5641 31.818C43.5763 31.7586 43.5905 31.7093 43.6097 31.6701C43.632 31.6328 43.6462 31.6046 43.6574 31.5885Z" fill="#243645"/>
<path d="M51.6807 28.8255C51.8935 28.8044 52.0586 28.8245 52.1792 28.8869C52.2978 28.9504 52.3475 29.0329 52.3282 29.1366C52.311 29.2251 52.2411 29.3178 52.1194 29.4134C51.9968 29.509 51.8164 29.5925 51.5793 29.664C51.4151 29.7133 51.2347 29.7647 51.0402 29.817C50.8456 29.8693 50.653 29.9247 50.4645 29.9821C50.2264 30.0545 50.0074 30.132 49.8068 30.2146C49.7318 30.2448 49.6356 30.2891 49.52 30.3495C49.4055 30.4089 49.2859 30.4572 49.1623 30.4944C49.145 30.4994 49.1298 30.5045 49.1126 30.5095C48.99 30.5467 48.8664 30.5578 48.7417 30.5427C48.6171 30.5276 48.4995 30.4662 48.388 30.3595C48.2958 30.275 48.2512 30.1532 48.2542 29.9952C48.2573 29.8361 48.2756 29.6721 48.308 29.5019C48.4306 28.8567 48.5522 28.2126 48.6749 27.5684C48.6728 27.5372 48.6708 27.506 48.6698 27.4758C48.686 27.3872 48.7052 27.2624 48.7295 27.1013C48.7508 26.9413 48.7822 26.7521 48.8197 26.5346C48.8562 26.3172 48.8978 26.0837 48.9414 25.8331C48.985 25.5824 49.0316 25.3268 49.0812 25.0671C49.1258 24.8306 49.1724 24.598 49.219 24.3716C49.2667 24.1441 49.3143 23.9216 49.364 23.7042C49.4177 23.4858 49.4704 23.2674 49.5231 23.049C49.5849 22.8074 49.6609 22.6413 49.7511 22.5517C49.8412 22.4621 49.9406 22.3987 50.049 22.3595C50.0652 22.3544 50.0815 22.3494 50.0977 22.3444C50.196 22.3152 50.2942 22.3182 50.3925 22.3514C50.4908 22.3846 50.578 22.446 50.653 22.5346C50.729 22.6232 50.7858 22.743 50.8233 22.8919C50.8598 23.0409 50.8628 23.2181 50.8324 23.4224C50.6338 24.593 50.4736 25.5482 50.352 26.287C50.2304 27.0248 50.1351 27.6056 50.0672 28.0274C49.9983 28.4501 49.9548 28.749 49.9366 28.9262C49.9183 29.1034 49.9132 29.2151 49.9193 29.2614C49.9578 29.2634 50.0064 29.2594 50.0672 29.2473C50.127 29.2362 50.1939 29.2191 50.2679 29.197C50.3317 29.1839 50.3966 29.1678 50.4625 29.1476C50.5274 29.1275 50.5973 29.1064 50.6713 29.0842C50.8263 29.0369 50.9834 28.9886 51.1394 28.9413C51.2276 28.9212 51.3188 28.899 51.4131 28.8749C51.5043 28.8457 51.5945 28.8306 51.6807 28.8255Z" fill="#243645"/>
<path d="M53.2575 29.0671C53.067 29.1768 52.9332 29.21 52.8562 29.1647C52.7792 29.1204 52.7376 29.0379 52.7295 28.9171C52.7214 28.7973 52.7335 28.6584 52.767 28.5014C52.8004 28.3444 52.8288 28.2105 52.8501 28.0998C52.8582 28.0555 52.8825 27.9347 52.9241 27.7374C52.9656 27.5402 53.0122 27.3127 53.0659 27.055C53.1186 26.7983 53.1714 26.5376 53.2251 26.2739C53.2798 26.0102 53.3274 25.7877 53.37 25.6076C53.4379 25.2865 53.524 24.9362 53.6274 24.5557C53.7318 24.1763 53.8514 23.7857 53.9882 23.3851C54.127 22.9845 54.2922 22.5819 54.4847 22.1763C54.6763 21.7716 54.9012 21.3861 55.1556 21.0217C55.2833 20.8395 55.4283 20.6584 55.5894 20.4782C55.7515 20.298 55.9217 20.1299 56.1031 19.9749C56.2835 19.8199 56.466 19.685 56.6545 19.5723C56.8429 19.4596 57.0203 19.3841 57.1896 19.3458C57.4419 19.2814 57.6476 19.3046 57.8077 19.4143C57.9689 19.524 58.0935 19.6901 58.1827 19.9135C58.2719 20.137 58.3297 20.4037 58.355 20.7147C58.3803 21.0258 58.3854 21.3479 58.3692 21.68C58.355 22.0343 58.3104 22.442 58.2354 22.903C58.1584 23.364 58.0743 23.8391 57.981 24.3293C57.9192 24.6554 57.8483 24.9966 57.7692 25.3549C57.6892 25.7123 57.6142 26.0736 57.5402 26.437C57.4662 26.8003 57.3942 27.1607 57.3223 27.517C57.2514 27.8733 57.1896 28.2105 57.1359 28.5276C57.1278 28.6514 57.1146 28.7309 57.0963 28.7661C57.0781 28.8014 57.0142 28.8678 56.9027 28.9644C56.7527 29.1043 56.5784 29.1798 56.3778 29.1929C56.1791 29.206 56.014 29.1949 55.8812 29.1577C55.793 29.1335 55.7383 29.0329 55.718 28.8567C55.6978 28.6806 55.6968 28.4611 55.715 28.2025C55.7333 27.9438 55.7687 27.6579 55.8204 27.3489C55.8711 27.0399 55.9248 26.7369 55.9806 26.44C56.0363 26.1431 56.089 25.8713 56.1356 25.6227C56.1833 25.3741 56.2197 25.1828 56.2441 25.05C55.9106 25.1385 55.5731 25.2372 55.2316 25.3439C54.8911 25.4506 54.5648 25.5522 54.2536 25.6438C54.2263 25.7495 54.1929 25.9005 54.1554 26.0968C54.1189 26.293 54.0753 26.5105 54.0257 26.749C53.976 26.9876 53.9264 27.2291 53.8767 27.4747C53.8271 27.7203 53.7773 27.9438 53.7307 28.1461C53.6973 28.282 53.6699 28.3967 53.6487 28.4903C53.6274 28.5839 53.601 28.6665 53.5726 28.7379C53.5443 28.8094 53.5058 28.8708 53.4561 28.9232C53.4105 28.9725 53.3436 29.0218 53.2575 29.0671ZM56.3991 24.3011C56.4507 24.1551 56.5116 23.9125 56.5835 23.5733C56.6565 23.2341 56.7183 22.8708 56.768 22.4832C56.7994 22.2346 56.8247 21.984 56.8409 21.7324C56.8592 21.4797 56.8612 21.2563 56.847 21.061C56.8338 20.8657 56.7994 20.7127 56.7436 20.601C56.6859 20.4903 56.6058 20.448 56.5004 20.4732C56.3859 20.5074 56.2612 20.6091 56.1244 20.7782C55.9876 20.9462 55.8508 21.1556 55.7161 21.4062C55.5793 21.6569 55.4444 21.9367 55.3137 22.2457C55.1809 22.5547 55.0593 22.8688 54.9499 23.1868C54.8394 23.5049 54.7371 23.8159 54.6449 24.1179C54.5527 24.4209 54.4848 24.6866 54.4412 24.9161C54.4574 24.9121 54.5557 24.8809 54.736 24.8265C54.9164 24.7721 55.1181 24.7087 55.3401 24.6373C55.562 24.5678 55.7758 24.5014 55.9815 24.439C56.1832 24.3776 56.3241 24.3323 56.3991 24.3011Z" fill="#243645"/>
<path d="M60.4365 18.8426C60.5916 18.76 60.7436 18.7117 60.8926 18.6986C61.002 18.6886 61.1003 18.7047 61.1855 18.7459C61.2696 18.7882 61.3304 18.8587 61.3648 18.9593C61.4064 19.067 61.4459 19.213 61.4844 19.3992C61.5219 19.5854 61.5635 19.7837 61.6081 19.9961C61.6476 20.1934 61.6841 20.4067 61.7175 20.6352C61.751 20.8637 61.7844 21.0781 61.8168 21.2784C61.8472 21.4777 61.8797 21.6488 61.9101 21.7907C61.9415 21.9327 61.9699 22.0152 61.9972 22.0374C62.0236 22.0162 62.0854 21.9156 62.1817 21.7354C62.278 21.5562 62.3914 21.3418 62.5242 21.0942C62.6346 20.8748 62.7522 20.6473 62.8748 20.4118C62.9954 20.1762 63.1089 19.9588 63.2123 19.7605C63.3167 19.5622 63.4028 19.3982 63.4738 19.2693C63.5447 19.1405 63.5852 19.069 63.5954 19.055C63.6572 18.9774 63.7362 18.9261 63.8335 18.8999C63.9318 18.8738 64.0322 18.8677 64.1386 18.8828C64.244 18.8979 64.3271 18.9261 64.3889 18.9674C64.5115 19.0499 64.5662 19.1335 64.55 19.215C64.5399 19.2673 64.5135 19.3237 64.472 19.3841C64.4294 19.4455 64.3747 19.524 64.3108 19.6196C64.171 19.825 64.0423 20.0353 63.9247 20.2497C63.8072 20.4651 63.6927 20.6785 63.5822 20.8929C63.4727 21.1063 63.3623 21.3187 63.2528 21.529C63.1434 21.7404 63.0208 21.9518 62.8891 22.1662C62.7066 22.5155 62.5252 22.8657 62.3408 23.217C62.3388 23.2321 62.3357 23.2462 62.3327 23.2613C62.3185 23.3348 62.3185 23.4667 62.3327 23.6549C62.3479 23.8441 62.3682 24.0716 62.3955 24.3363C62.4209 24.6483 62.4522 24.9735 62.4877 25.3137C62.5232 25.6539 62.5576 25.9709 62.5921 26.2639C62.6245 26.5568 62.6519 26.8044 62.6711 27.0057C62.6914 27.207 62.7015 27.3197 62.7056 27.3429C62.7218 27.4606 62.733 27.5633 62.7391 27.6519C62.7451 27.7415 62.7421 27.819 62.7289 27.8854C62.7076 27.9961 62.6458 28.0716 62.5404 28.1129C62.436 28.1542 62.2536 28.1733 61.9891 28.1803C61.9668 28.1773 61.9435 28.1753 61.9212 28.1723C61.7621 28.1552 61.6466 28.0938 61.5747 27.983C61.526 27.9116 61.4804 27.7868 61.4368 27.6076C61.3942 27.4294 61.3557 27.2211 61.3233 26.9845C61.2919 26.748 61.2615 26.4954 61.2361 26.2266C61.2108 25.9579 61.1865 25.7022 61.1693 25.4556C61.149 25.211 61.1297 24.9906 61.1085 24.7933C61.0872 24.597 61.071 24.4521 61.0578 24.3554C60.9321 24.5718 60.8125 24.8023 60.7 25.0489C60.5875 25.2956 60.4679 25.5532 60.3392 25.823C60.2105 26.0938 60.0666 26.3695 59.9086 26.6534C59.7505 26.9372 59.5701 27.2251 59.3674 27.519C59.2823 27.6428 59.191 27.7455 59.0937 27.827C58.9975 27.9086 58.9144 27.9679 58.8465 28.0042C58.7249 28.0746 58.6246 28.1149 58.5455 28.125C58.4665 28.135 58.4037 28.1169 58.3581 28.0716C58.3277 28.0253 58.3205 27.9649 58.3347 27.8904C58.354 27.7938 58.4006 27.6861 58.4776 27.5683C58.5577 27.4274 58.6681 27.2362 58.8059 26.9966C58.9448 26.7561 59.0928 26.4933 59.2509 26.2075C59.4089 25.9226 59.5711 25.6297 59.7363 25.3278C59.9015 25.0258 60.0576 24.742 60.2055 24.4762C60.3525 24.2105 60.4801 23.977 60.5886 23.7726C60.696 23.5693 60.774 23.4264 60.8207 23.3439C60.8014 23.0721 60.7761 22.8335 60.7416 22.6262C60.7082 22.4188 60.6696 22.1853 60.627 21.9246C60.5956 21.7656 60.5562 21.5341 60.5085 21.2321C60.4619 20.9301 60.4234 20.6161 60.3919 20.292C60.3707 20.0404 60.3585 19.7978 60.3565 19.5663C60.3545 19.3348 60.3687 19.1405 60.3981 18.9845C60.4092 18.9221 60.4234 18.8728 60.4365 18.8426Z" fill="#243645"/>
<path d="M19.7683 36.7031C19.3285 36.7031 18.8775 36.5934 18.4884 36.4907C16.6825 36.0146 14.8806 35.3966 13.1395 34.7977L11.9377 34.387C10.6222 33.9411 9.30781 33.4892 7.99341 33.0362C7.80289 32.9708 7.61133 32.8953 7.41878 32.8218C7.03977 32.6749 6.64761 32.5249 6.26149 32.4363C6.08313 32.3961 5.88653 32.3749 5.67574 32.3749C5.1447 32.3749 4.55894 32.5038 4.07149 32.7292C4.06034 32.7333 4.05019 32.7363 4.03802 32.7363C4.01776 32.7363 3.99851 32.7292 3.98229 32.7141C3.31648 32.08 2.83205 31.466 2.46013 30.7866C1.79735 29.5767 2.31217 28.2289 2.96683 26.5238L3.19285 25.931C3.79887 24.3175 4.23362 23.1459 4.73728 21.6199C5.37878 19.6803 6.04767 17.7286 6.72565 15.8172C6.98508 15.0884 7.45835 13.5615 8.00559 11.792C8.9653 8.6908 10.1601 4.83068 10.7378 3.57149C11.1826 2.59916 11.5171 2.13716 12.2042 2.13716C12.5721 2.13716 13.0352 2.26499 13.6493 2.44617C15.2454 2.91622 18.2482 3.83017 19.9244 4.38881C21.5509 4.93033 22.8714 5.40844 24.1473 5.87045C25.6654 6.42003 27.0983 6.93941 28.809 7.47389C30.1477 7.89261 30.3819 8.37676 31.074 9.81713C31.2078 10.0959 31.3598 10.411 31.5402 10.7703C31.5787 10.8458 31.6223 10.9465 31.6243 11.0562C31.6263 11.1508 31.5959 11.2364 31.5676 11.3119C31.375 11.8524 29.493 13.8001 28.9357 14.2993C26.8815 21.0361 24.579 27.8223 22.1164 34.4343C21.8012 35.2808 21.3938 36.2139 20.5476 36.5602C20.3156 36.6558 20.0592 36.7031 19.7683 36.7031Z" fill="#16B1B1"/>
<path d="M12.206 2.21637C12.5566 2.21637 13.0015 2.33715 13.6278 2.52236C15.304 3.01557 18.2844 3.92549 19.8998 4.46399C23.5005 5.66179 25.6642 6.57372 28.7865 7.54806C30.3441 8.03523 30.3512 8.57978 31.47 10.8043C31.5095 10.8828 31.544 10.9683 31.545 11.0559C31.547 11.1344 31.5207 11.2099 31.4933 11.2834C31.315 11.7836 29.51 13.6769 28.8837 14.2386C26.8022 21.0248 24.521 27.7515 22.0432 34.4048C21.7331 35.2332 21.3419 36.1472 20.519 36.4854C20.2789 36.584 20.0255 36.6222 19.7681 36.6222C19.3485 36.6222 18.9178 36.5206 18.5094 36.4129C16.2961 35.8291 14.1294 35.045 11.9637 34.3112C10.6483 33.8653 9.33393 33.4124 8.02054 32.9594C7.45201 32.7631 6.86527 32.4914 6.28052 32.3575C6.09 32.3142 5.88524 32.2941 5.67547 32.2941C5.11302 32.2941 4.5121 32.437 4.03782 32.6554C3.296 31.9478 2.85516 31.3389 2.53087 30.747C1.81033 29.4325 2.53793 27.9025 3.2686 25.9579C3.84929 24.4098 4.29623 23.213 4.81409 21.6438C5.45558 19.7032 6.11734 17.7696 6.8014 15.843C7.52194 13.8148 9.91157 5.56617 10.8105 3.60339C11.2817 2.57973 11.5989 2.21637 12.206 2.21637ZM12.206 2.05834C11.4743 2.05834 11.1267 2.53645 10.6655 3.53998C10.0859 4.80622 8.88906 8.67338 7.92733 11.7806C7.3811 13.5431 6.90982 15.067 6.6514 15.7927C5.96836 17.7152 5.29949 19.6679 4.66205 21.5965C4.16142 23.1134 3.74493 24.2357 3.11966 25.9045C3.04466 26.1048 2.96968 26.3011 2.89469 26.4933C2.25928 28.1511 1.71 29.5824 2.39101 30.8255C2.76801 31.514 3.25648 32.132 3.92939 32.7722C3.95878 32.8014 3.99928 32.8165 4.03881 32.8165C4.0611 32.8165 4.08547 32.8115 4.10573 32.8014C4.57697 32.585 5.16373 32.4551 5.67652 32.4551C5.88123 32.4551 6.07278 32.4753 6.24607 32.5145C6.62509 32.6011 7.01526 32.7511 7.39124 32.897C7.5848 32.9715 7.77831 33.046 7.96883 33.1114C9.28222 33.5654 10.5967 34.0163 11.9131 34.4632C12.3154 34.5991 12.7177 34.738 13.12 34.8769C14.8621 35.4748 16.662 36.0928 18.4679 36.5689C18.8621 36.6736 19.3191 36.7833 19.7681 36.7833C20.0701 36.7833 20.3356 36.735 20.5798 36.6353C21.4544 36.276 21.8709 35.3258 22.1932 34.4632C24.6538 27.8562 26.9522 21.0831 29.0247 14.3302C29.6368 13.7716 31.4477 11.8933 31.6443 11.3407C31.6717 11.2622 31.7072 11.1646 31.7062 11.0579C31.7041 10.9321 31.6555 10.8204 31.6129 10.7368C31.4325 10.3785 31.2815 10.0634 31.1467 9.78462C30.4434 8.3221 30.2063 7.82889 28.8341 7.4001C27.1245 6.86663 25.6905 6.34725 24.1724 5.79667C22.8965 5.33567 21.577 4.85756 19.9515 4.31603C18.2844 3.76142 15.2199 2.82835 13.6734 2.37238C13.0532 2.18718 12.585 2.05834 12.206 2.05834Z" fill="#243645"/>
<g opacity="0.3">
<path opacity="0.3" d="M2.41789 30.5118C2.48173 30.1716 2.54866 29.8304 2.62467 29.4922C3.04625 27.624 3.66545 25.8062 4.3191 24.0065C4.96465 22.2299 5.62537 20.4594 6.25977 18.6778C6.90228 16.8741 7.5144 15.0583 8.12752 13.2445C8.71327 11.5082 9.3223 9.77992 9.90805 8.04362C10.2526 7.02398 10.5171 5.97818 10.9823 5.00183C11.3927 4.13821 12.0241 3.13971 13.0821 3.05113C13.6972 2.9998 14.3165 3.12562 14.9073 3.28666C15.6005 3.4759 16.2724 3.73156 16.9392 3.99729C17.5331 4.23282 18.1208 4.48547 18.7248 4.69684C19.5923 4.99981 20.4719 5.27158 21.3475 5.55342C22.2312 5.83827 23.1018 6.16238 23.9865 6.44421C24.8722 6.72605 25.7711 6.96258 26.671 7.19409C27.7371 7.46787 28.8073 7.73561 29.8592 8.06073C29.5957 7.85338 29.2644 7.69837 28.786 7.5484C25.6637 6.57305 23.5 5.66212 19.8993 4.46433C18.2829 3.92582 15.3035 3.01691 13.6273 2.52269C11.9157 2.01841 11.5519 1.98922 10.8111 3.60474C9.91216 5.56751 7.52246 13.8162 6.80192 15.8444C6.11787 17.7709 5.45611 19.7045 4.81461 21.6451C4.29574 23.2153 3.84988 24.4111 3.26919 25.9592C2.58209 27.7901 1.89801 29.2506 2.41789 30.5118Z" fill="#BBBDBF"/>
</g>
<path d="M21.0207 38.4706C20.5799 38.4706 20.13 38.3618 19.7419 38.2602C17.5975 37.6945 11.0568 35.4308 7.5423 34.2149C6.59476 33.8867 5.8367 33.624 5.39485 33.4751C4.6277 33.2144 3.88488 32.8772 3.64166 32.1776C3.30926 31.2194 3.7633 30.0286 4.16563 28.9768C4.28318 28.6688 4.39565 28.3769 4.47774 28.1122C4.96824 26.5339 5.47291 24.9586 5.9928 23.3894C6.63328 21.4498 7.30213 19.4971 7.98011 17.5867C8.23853 16.8579 8.71081 15.336 9.25603 13.5725C10.2178 10.4673 11.4146 6.60219 11.9933 5.33997C12.3986 4.45421 12.732 4.14017 13.2661 4.14017C13.5336 4.14017 13.8468 4.21767 14.2461 4.3143C14.4639 4.36765 14.7082 4.42704 14.9869 4.48441C16.2729 4.75014 18.1265 5.39131 19.6152 5.90767C20.0743 6.0667 20.5049 6.21568 20.8809 6.34149C24.1988 7.44568 26.9888 8.3868 30.1638 9.59265C30.6077 9.76074 31.3769 10.1543 31.5481 10.8931C31.6373 11.2796 31.5198 11.6843 31.4235 12.0084C29.0359 20.1282 26.327 28.2672 23.3719 36.2018C23.0557 37.0483 22.6483 37.9814 21.8031 38.3276C21.568 38.4233 21.3126 38.4706 21.0207 38.4706Z" fill="#67C7C6"/>
<path d="M13.266 4.21938C13.6653 4.21938 14.1821 4.39955 14.9705 4.5616C16.6396 4.90685 19.2401 5.87716 20.8575 6.41567C24.4572 7.61447 27.0799 8.50426 30.1364 9.66582C30.7272 9.89028 31.3302 10.2979 31.471 10.9099C31.5541 11.2662 31.4508 11.6346 31.3474 11.9849C28.9507 20.138 26.2641 28.2065 23.2978 36.1723C22.9887 37.0017 22.5965 37.9156 21.7736 38.2528C21.5334 38.3515 21.2801 38.3897 21.0227 38.3897C20.6042 38.3897 20.1724 38.2881 19.764 38.1814C17.0653 37.4697 7.56147 34.123 5.42316 33.3982C4.72998 33.1637 3.95877 32.8376 3.71859 32.1501C3.297 30.9382 4.19997 29.2784 4.55467 28.135C5.04516 26.5567 5.5498 24.9825 6.06867 23.4123C6.71016 21.4716 7.37298 19.5381 8.05703 17.6115C8.77656 15.5833 11.1662 7.33465 12.0661 5.37188C12.4725 4.48511 12.7806 4.21938 13.266 4.21938ZM13.266 4.06034C12.6944 4.06034 12.3418 4.38647 11.9202 5.30645C11.3405 6.57269 10.1426 10.4378 9.18191 13.5441C8.63568 15.3085 8.16342 16.8335 7.905 17.5602C7.22195 19.4857 6.55312 21.4384 5.9167 23.364C5.40188 24.9211 4.89112 26.5114 4.40164 28.0897C4.32057 28.3504 4.20908 28.6423 4.09051 28.9503C3.68515 30.0142 3.22503 31.2191 3.56655 32.2035C3.82092 32.9352 4.58401 33.2825 5.36941 33.5492C5.81025 33.6982 6.56119 33.9589 7.50165 34.284C11.0212 35.5019 17.573 37.7687 19.7225 38.3354C20.1157 38.4391 20.5737 38.5498 21.0217 38.5498C21.3237 38.5498 21.5902 38.5015 21.8344 38.4008C22.709 38.0425 23.1245 37.0913 23.4468 36.2287C26.4019 28.296 29.1118 20.1541 31.5004 12.0312C31.5987 11.697 31.7213 11.2823 31.6271 10.8757C31.4467 10.1007 30.6512 9.693 30.1931 9.51786C27.0171 8.31101 24.2251 7.36988 20.9072 6.26569C20.5312 6.13988 20.1015 5.99191 19.6434 5.83288C18.1507 5.31652 16.2931 4.67434 15.003 4.4066C14.7263 4.34922 14.4821 4.28984 14.2642 4.2375C13.8619 4.13886 13.5417 4.06034 13.266 4.06034Z" fill="#243645"/>
<path d="M11.3081 16.0756C11.1084 16.6654 10.9087 17.3177 11.1489 17.8934C11.4317 18.5738 12.211 18.8828 12.9113 19.1224C16.2566 20.2638 19.6029 21.4063 22.9472 22.5477C23.6636 22.7923 24.5372 23.0117 25.1148 22.5235C25.4229 22.2628 25.5597 21.8582 25.6844 21.4757C26.5559 18.7792 27.4285 16.0836 28.3 13.3881C28.3851 13.1234 28.4713 12.8345 28.377 12.5718C28.2615 12.2477 27.9139 12.0735 27.5957 11.9346C23.5967 10.1772 19.5248 9.0096 15.3121 7.91548C15.0101 7.83697 14.6736 7.76248 14.399 7.90743C14.1649 8.03123 14.0351 8.28287 13.9226 8.52142C12.8099 10.917 12.1553 13.5753 11.3081 16.0756Z" fill="#243645"/>
<path d="M23.7803 22.1565C23.3729 22.1565 22.9361 22.0256 22.6007 21.9109L13.5468 18.8218C13.4465 18.7875 13.3451 18.7513 13.2428 18.712C12.7462 18.5248 12.1443 18.2359 11.9091 17.6683C11.82 17.4589 11.7885 17.2254 11.8098 16.9556C11.8362 16.6255 11.9426 16.2893 12.049 15.9732L12.1848 15.5676C12.2942 15.2324 12.4017 14.8952 12.5081 14.556L12.729 13.8424C13.2154 12.2701 13.7181 10.6456 14.4123 9.15083C14.5187 8.91932 14.6443 8.68178 14.8764 8.55999C14.9828 8.50362 15.1045 8.47644 15.2443 8.47644C15.4176 8.47644 15.5929 8.51771 15.7571 8.55999C17.9663 9.13372 20.5647 9.84032 23.1023 10.7231C23.4803 10.8539 23.8563 10.9898 24.2302 11.1297C25.0197 11.4236 25.798 11.7346 26.5419 12.0557L26.8388 12.1836C27.154 12.3235 27.4854 12.4926 27.5979 12.8106C27.6962 13.0834 27.5989 13.3803 27.53 13.5968L25.1707 20.8932C25.0653 21.2153 24.9366 21.6169 24.6336 21.8746C24.4127 22.0608 24.1259 22.1565 23.7803 22.1565Z" fill="white"/>
<path d="M15.2472 8.55362C15.4104 8.55362 15.5797 8.59389 15.7388 8.63415C18.2348 9.28337 20.6751 9.95977 23.0779 10.7952C23.4539 10.9261 23.8299 11.0619 24.2028 11.2019C24.9771 11.4887 25.7452 11.7957 26.5113 12.1259C26.6147 12.1691 26.7181 12.2144 26.8215 12.2597C27.1073 12.3856 27.4204 12.5416 27.5238 12.8345C27.6089 13.071 27.5319 13.3317 27.4539 13.5703C27.4113 13.7041 27.3677 13.838 27.3241 13.9719C26.5823 16.2698 25.8374 18.5688 25.0956 20.8667C24.9841 21.212 24.8605 21.5764 24.5818 21.8119C24.3538 22.0041 24.0751 22.0756 23.7802 22.0756C23.3992 22.0756 22.9908 21.9588 22.627 21.834C19.608 20.8043 16.59 19.7746 13.5721 18.7439C13.4728 18.7107 13.3724 18.6745 13.2721 18.6362C12.7299 18.4319 12.1958 18.1541 11.982 17.6357C11.8918 17.4193 11.8705 17.1918 11.8888 16.9593C11.9151 16.6362 12.0205 16.3071 12.1249 15.9961C12.1705 15.8602 12.2161 15.7253 12.2607 15.5894C12.3702 15.2542 12.4775 14.917 12.584 14.5768C13.1535 12.755 13.6886 10.8949 14.4852 9.1807C14.5845 8.96631 14.702 8.73883 14.9138 8.62811C15.0182 8.57375 15.1317 8.55362 15.2472 8.55362ZM15.2472 8.39459C15.0922 8.39459 14.9594 8.42479 14.8408 8.4882C14.5865 8.62207 14.4496 8.88277 14.3422 9.11528C13.645 10.616 13.1404 12.2456 12.6539 13.8219L12.433 14.5305C12.3276 14.8697 12.2212 15.2069 12.1107 15.5411L11.9931 15.8954L11.9759 15.9477C11.8675 16.2678 11.759 16.609 11.7317 16.9482C11.7094 17.2311 11.7438 17.4757 11.8371 17.6991C12.0843 18.295 12.7046 18.594 13.2184 18.7872C13.3197 18.8265 13.4231 18.8637 13.5244 18.8969L17.0916 20.1138L22.5773 21.986C22.9188 22.1028 23.3627 22.2357 23.7822 22.2357C24.146 22.2357 24.4511 22.134 24.6882 21.9347C25.0085 21.6619 25.1422 21.2482 25.2496 20.9161L26.0563 18.4228L27.4792 14.0222L27.6099 13.6196C27.7011 13.3367 27.7761 13.0589 27.6768 12.7831C27.5532 12.4349 27.2045 12.2567 26.8883 12.1158L26.5772 11.9809C25.8303 11.6588 25.05 11.3468 24.2616 11.0539C23.8866 10.914 23.5106 10.7781 23.1326 10.6462C20.5869 9.76047 17.9885 9.05489 15.7813 8.48115C15.6101 8.43787 15.4286 8.39459 15.2472 8.39459Z" fill="#243645"/>
<path d="M12.4877 23.0389C11.3598 23.9206 10.5875 25.2201 10.2663 26.6091C9.8224 28.5266 10.9676 30.594 12.6357 31.5241C17.0227 33.972 21.6105 29.821 20.4116 25.5472C19.9839 24.0233 18.9918 22.9181 17.1697 22.3081C15.4945 21.7475 13.8477 21.976 12.4877 23.0389Z" fill="#E6E2DD" stroke="#243645" stroke-width="0.1576" stroke-miterlimit="10" stroke-linecap="round" stroke-linejoin="round"/>
<path d="M12.8565 23.5402C11.7286 24.4219 10.9564 25.7214 10.6352 27.1104C10.1913 29.0279 11.3354 31.0953 13.0035 32.0254C17.3906 34.4733 21.9794 30.3223 20.7805 26.0475C20.3528 24.5236 19.3607 23.4194 17.5375 22.8084C15.8634 22.2488 14.2165 22.4762 12.8565 23.5402Z" fill="white" stroke="#243645" stroke-width="0.1576" stroke-miterlimit="10" stroke-linecap="round" stroke-linejoin="round"/>
<path d="M15.0759 26.6363C14.7972 26.8547 14.6057 27.1758 14.5266 27.519C14.4172 27.9931 14.6999 28.5044 15.1124 28.7349C16.1967 29.3409 17.3308 28.3142 17.0349 27.2573C16.9295 26.8799 16.6832 26.6071 16.2323 26.4571C15.8188 26.3162 15.4123 26.3726 15.0759 26.6363Z" fill="#E6E2DD"/>
<path d="M18.9159 29.5817C18.8896 29.5817 18.8379 29.5596 18.8227 29.5364C18.6544 29.2798 18.471 29.001 18.4123 28.7252C18.3616 28.4836 18.4112 28.2793 18.5622 28.1162C18.6504 28.0206 18.7821 27.9652 18.9149 27.9652C19.0233 27.9652 19.1226 28.0035 19.1916 28.0749C19.2655 28.1494 19.2979 28.246 19.3162 28.3427C19.3912 28.2803 19.4703 28.237 19.5514 28.2108C19.602 28.1957 19.6547 28.1877 19.7064 28.1877C19.8178 28.1877 19.9222 28.2239 19.9983 28.2903C20.1128 28.389 20.1715 28.5118 20.1675 28.6436C20.1584 28.9184 19.8858 29.1439 19.8027 29.2063C19.675 29.3019 19.526 29.3784 19.3172 29.4579C19.0933 29.5455 18.9788 29.5817 18.9159 29.5817Z" fill="#F27C88"/>
<path d="M18.9157 28.0434C18.9978 28.0434 19.0779 28.0696 19.1367 28.129C19.232 28.2266 19.2451 28.3746 19.2603 28.5095C19.3465 28.4108 19.4508 28.3242 19.5775 28.286C19.6201 28.2729 19.6657 28.2659 19.7103 28.2659C19.7974 28.2659 19.8836 28.292 19.9485 28.3484C20.2535 28.6111 20.0103 28.9523 19.7569 29.1406C19.616 29.2462 19.4559 29.3187 19.2918 29.3801C19.2593 29.3922 19.0039 29.5009 18.9178 29.5009C18.9046 29.5009 18.8965 29.4979 18.8925 29.4918C18.7557 29.2825 18.554 28.9916 18.4932 28.7067C18.4516 28.5165 18.4739 28.3283 18.6229 28.1682C18.6958 28.0897 18.8073 28.0434 18.9157 28.0434ZM18.9157 27.8844C18.7617 27.8844 18.6067 27.9508 18.5044 28.0615C18.3351 28.2437 18.2783 28.4722 18.3361 28.7399C18.3989 29.0318 18.5864 29.3187 18.7242 29.5281L18.7567 29.5784C18.786 29.6237 18.8621 29.6589 18.9168 29.6589C18.9928 29.6589 19.1073 29.6247 19.3262 29.5361C19.4934 29.4727 19.6829 29.3932 19.8522 29.2664C19.9677 29.1798 20.2393 28.9463 20.2504 28.6433C20.2535 28.5336 20.2231 28.3726 20.0539 28.2266C19.9627 28.1491 19.841 28.1058 19.7103 28.1058C19.6484 28.1058 19.5887 28.1149 19.5299 28.133C19.4731 28.1501 19.4194 28.1753 19.3657 28.2075C19.3424 28.139 19.306 28.0726 19.2512 28.0162C19.1651 27.9327 19.0475 27.8844 18.9157 27.8844Z" fill="#243645"/>
<path d="M20.0792 28.5457C20.0366 28.6635 19.9698 28.7732 19.8877 28.8668C19.7934 28.9745 19.6809 29.0661 19.5553 29.1345C19.4438 29.1949 19.3232 29.2291 19.1965 29.2412C19.0273 29.2563 18.8367 29.2372 18.6797 29.1577C18.7506 29.2815 18.8276 29.3952 18.8914 29.4929C18.9198 29.5361 19.2533 29.3952 19.2918 29.3811C19.4559 29.3187 19.616 29.2473 19.7569 29.1416C19.9484 28.9966 20.1369 28.7641 20.0792 28.5457Z" fill="#EBCBD1"/>
<g opacity="0.3">
<path opacity="0.3" d="M18.5241 28.5582C18.5515 28.4555 18.5941 28.3579 18.665 28.2774C18.7289 28.2039 18.8099 28.1375 18.9062 28.1163C19.0085 28.0942 19.1139 28.1375 19.1788 28.218C19.2 28.2442 19.2153 28.2734 19.2274 28.3036C19.2092 28.2391 19.1829 28.1788 19.1352 28.1304C19.0015 27.9935 18.7521 28.0298 18.6214 28.1707C18.4734 28.3307 18.4502 28.519 18.4907 28.7092C18.4927 28.7162 18.4947 28.7223 18.4957 28.7293C18.4998 28.672 18.5099 28.6146 18.5241 28.5582Z" fill="#BBBDBF"/>
</g>
<g opacity="0.3">
<path opacity="0.3" d="M19.9414 28.3434C19.8421 28.2629 19.7002 28.2488 19.5775 28.287C19.4681 28.3202 19.3739 28.3917 19.2938 28.4742C19.4702 28.3303 19.7235 28.2749 19.9414 28.3434Z" fill="#BBBDBF"/>
</g>
<path d="M16.7735 24.8812C16.7472 24.8812 16.6955 24.859 16.6803 24.8369C16.5111 24.5782 16.3287 24.2994 16.2709 24.0236C16.2192 23.783 16.2689 23.5787 16.4189 23.4156C16.507 23.321 16.6398 23.2636 16.7726 23.2636C16.881 23.2636 16.9803 23.3039 17.0492 23.3744C17.1231 23.4499 17.1556 23.5455 17.1739 23.6421C17.2499 23.5797 17.3279 23.5364 17.409 23.5113C17.4596 23.4962 17.5123 23.4871 17.565 23.4871C17.6755 23.4871 17.7799 23.5233 17.8559 23.5898C17.9704 23.6884 18.0292 23.8112 18.0251 23.9431C18.015 24.2189 17.7434 24.4433 17.6603 24.5057C17.5012 24.6245 17.3259 24.699 17.1749 24.7564C16.9489 24.8469 16.8364 24.8812 16.7735 24.8812Z" fill="#F27C88"/>
<path d="M16.7734 23.3439C16.8555 23.3439 16.9356 23.37 16.9933 23.4294C17.0896 23.5271 17.1028 23.675 17.118 23.8089C17.2041 23.7103 17.3085 23.6247 17.4352 23.5854C17.4777 23.5724 17.5234 23.5653 17.568 23.5653C17.6551 23.5653 17.7412 23.5915 17.8061 23.6478C18.1111 23.9106 17.8679 24.2518 17.6145 24.441C17.4737 24.5467 17.3136 24.6182 17.1494 24.6806C17.117 24.6926 16.8616 24.8014 16.7754 24.8014C16.7622 24.8014 16.7542 24.7993 16.7501 24.7933C16.6133 24.5839 16.4116 24.293 16.3498 24.0082C16.3093 23.8179 16.3316 23.6287 16.4806 23.4697C16.5535 23.3902 16.665 23.3439 16.7734 23.3439ZM16.7734 23.1848C16.6194 23.1848 16.4643 23.2513 16.362 23.362C16.1927 23.5442 16.136 23.7727 16.1937 24.0404C16.2556 24.3323 16.444 24.6182 16.5819 24.8275L16.6153 24.8789C16.6437 24.9241 16.7207 24.9604 16.7744 24.9604C16.8504 24.9604 16.9649 24.9262 17.1838 24.8376C17.3511 24.7742 17.5395 24.6947 17.7098 24.5678C17.8253 24.4813 18.0969 24.2467 18.1081 23.9448C18.1121 23.8351 18.0807 23.674 17.9115 23.5281C17.8203 23.4506 17.6987 23.4073 17.568 23.4073C17.5061 23.4073 17.4463 23.4163 17.3875 23.4345C17.3308 23.4516 17.2771 23.4767 17.2234 23.5099C17.2001 23.4415 17.1636 23.3761 17.1089 23.3187C17.0237 23.2321 16.9052 23.1848 16.7734 23.1848Z" fill="#243645"/>
<path d="M17.9368 23.8451C17.8942 23.9629 17.8274 24.0726 17.7453 24.1672C17.651 24.2749 17.5386 24.3665 17.4129 24.4349C17.3014 24.4953 17.1808 24.5296 17.0541 24.5406C16.8849 24.5557 16.6944 24.5366 16.5373 24.4581C16.6082 24.5809 16.6852 24.6956 16.7491 24.7933C16.7774 24.8366 17.1109 24.6956 17.1494 24.6805C17.3136 24.6181 17.4737 24.5467 17.6145 24.441C17.8061 24.297 17.9946 24.0635 17.9368 23.8451Z" fill="#EBCBD1"/>
<g opacity="0.3">
<path opacity="0.3" d="M16.3817 23.8586C16.4091 23.756 16.4517 23.6583 16.5226 23.5778C16.5865 23.5043 16.6675 23.4379 16.7638 23.4168C16.8662 23.3936 16.9715 23.4379 17.0364 23.5174C17.0577 23.5436 17.0729 23.5728 17.0851 23.603C17.0668 23.5385 17.0405 23.4782 16.9929 23.4298C16.8591 23.293 16.6098 23.3292 16.479 23.4701C16.3311 23.6291 16.3078 23.8184 16.3493 24.0086C16.3503 24.0157 16.3524 24.0217 16.3544 24.0287C16.3574 23.9714 16.3665 23.914 16.3817 23.8586Z" fill="#BBBDBF"/>
</g>
<g opacity="0.3">
<path opacity="0.3" d="M17.798 23.6438C17.6987 23.5633 17.5568 23.5492 17.4342 23.5864C17.3247 23.6206 17.2305 23.6911 17.1504 23.7746C17.3277 23.6307 17.5811 23.5753 17.798 23.6438Z" fill="#BBBDBF"/>
</g>
<path d="M14.2877 31.926C14.2613 31.926 14.2097 31.9038 14.1945 31.8807C14.0283 31.6291 13.8428 31.3472 13.7851 31.0694C13.7334 30.8278 13.784 30.6235 13.934 30.4615C14.0212 30.3668 14.1539 30.3095 14.2867 30.3095C14.3961 30.3095 14.4944 30.3487 14.5644 30.4192C14.6373 30.4947 14.6697 30.5903 14.689 30.6869C14.763 30.6255 14.842 30.5812 14.9231 30.5571C14.9748 30.541 15.0275 30.5329 15.0802 30.5329C15.1906 30.5329 15.295 30.5692 15.37 30.6346C15.4855 30.7342 15.5443 30.857 15.5392 30.9889C15.5291 31.2637 15.2575 31.4881 15.1744 31.5495C15.0133 31.6713 14.8299 31.7478 14.689 31.8012C14.465 31.8897 14.3515 31.926 14.2877 31.926Z" fill="#F27C88"/>
<path d="M14.2885 30.3877C14.3716 30.3877 14.4507 30.4139 14.5084 30.4732C14.6047 30.5709 14.6179 30.7189 14.6331 30.8537C14.7193 30.7551 14.8236 30.6685 14.9503 30.6303C14.9929 30.6162 15.0385 30.6091 15.0831 30.6091C15.1702 30.6091 15.2563 30.6353 15.3212 30.6917C15.6262 30.9544 15.3831 31.2956 15.1297 31.4838C14.9888 31.5895 14.8287 31.662 14.6646 31.7234C14.6321 31.7355 14.3767 31.8442 14.2906 31.8442C14.2774 31.8442 14.2693 31.8422 14.2652 31.8361C14.1284 31.6268 13.9268 31.3359 13.866 31.051C13.8254 30.8598 13.8467 30.6725 13.9957 30.5125C14.0686 30.434 14.1801 30.3877 14.2885 30.3877ZM14.2885 30.2287C14.1345 30.2287 13.9794 30.2941 13.8771 30.4058C13.7089 30.588 13.6511 30.8165 13.7088 31.0852C13.7707 31.3761 13.9592 31.663 14.097 31.8724L14.1304 31.9237C14.1588 31.969 14.2358 32.0042 14.2895 32.0042C14.3655 32.0042 14.4801 31.97 14.699 31.8824C14.8662 31.819 15.0557 31.7385 15.225 31.6117C15.3415 31.5251 15.6121 31.2916 15.6232 30.9886C15.6273 30.8789 15.5958 30.7178 15.4266 30.5719C15.3364 30.4934 15.2138 30.4511 15.0831 30.4511C15.0212 30.4511 14.9615 30.4602 14.9027 30.4783C14.8459 30.4954 14.7922 30.5206 14.7395 30.5538C14.7152 30.4853 14.6787 30.4189 14.624 30.3625C14.5389 30.277 14.4193 30.2287 14.2885 30.2287Z" fill="#243645"/>
<path d="M15.4519 30.89C15.4094 31.0077 15.3425 31.1175 15.2604 31.2111C15.1661 31.3188 15.0547 31.4104 14.928 31.4788C14.8165 31.5392 14.6959 31.5734 14.5692 31.5855C14.4 31.6006 14.2095 31.5815 14.0534 31.502C14.1234 31.6258 14.2014 31.7395 14.2642 31.8371C14.2926 31.8804 14.626 31.7385 14.6645 31.7254C14.8287 31.663 14.9888 31.5915 15.1297 31.4859C15.3212 31.3409 15.5097 31.1084 15.4519 30.89Z" fill="#EBCBD1"/>
<g opacity="0.3">
<path opacity="0.3" d="M13.8969 30.9025C13.9242 30.7998 13.9668 30.7022 14.0377 30.6217C14.1015 30.5482 14.1827 30.4818 14.2789 30.4606C14.3813 30.4385 14.4877 30.4818 14.5515 30.5623C14.5728 30.5885 14.588 30.6176 14.6001 30.6478C14.5819 30.5834 14.5556 30.523 14.509 30.4747C14.3742 30.3378 14.1249 30.3741 13.9942 30.515C13.8462 30.675 13.8239 30.8622 13.8644 31.0535C13.8655 31.0595 13.8674 31.0666 13.8695 31.0736C13.8715 31.0162 13.8817 30.9589 13.8969 30.9025Z" fill="#BBBDBF"/>
</g>
<g opacity="0.3">
<path opacity="0.3" d="M15.3131 30.6877C15.2138 30.6071 15.0719 30.593 14.9493 30.6313C14.8398 30.6645 14.7456 30.736 14.6655 30.8185C14.8419 30.6746 15.0952 30.6192 15.3131 30.6877Z" fill="#BBBDBF"/>
</g>
<path d="M12.1453 27.2254C12.119 27.2254 12.0673 27.2033 12.0531 27.1801C11.8838 26.9234 11.7004 26.6446 11.6427 26.3688C11.591 26.1262 11.6416 25.9219 11.7916 25.7599C11.8798 25.6642 12.0115 25.6089 12.1453 25.6089C12.2537 25.6089 12.3521 25.6481 12.422 25.7186C12.4949 25.7941 12.5274 25.8897 12.5456 25.9863C12.6206 25.9249 12.6997 25.8806 12.7807 25.8555C12.8314 25.8404 12.8841 25.8313 12.9368 25.8313C13.0483 25.8313 13.1516 25.8686 13.2276 25.934C13.3432 26.0336 13.402 26.1554 13.3969 26.2883C13.3868 26.5641 13.1152 26.7886 13.0321 26.851C12.9044 26.9466 12.7554 27.0231 12.5466 27.1016C12.3227 27.1902 12.2092 27.2254 12.1453 27.2254Z" fill="#F27C88"/>
<path d="M12.1451 25.6881C12.2272 25.6881 12.3073 25.7142 12.3661 25.7736C12.4614 25.8713 12.4745 26.0192 12.4897 26.1541C12.5758 26.0555 12.6813 25.9699 12.8069 25.9307C12.8495 25.9176 12.8951 25.9105 12.9397 25.9105C13.0268 25.9105 13.1129 25.9367 13.1778 25.9931C13.4828 26.2558 13.2396 26.597 12.9873 26.7862C12.8454 26.8919 12.6853 26.9634 12.5211 27.0258C12.4897 27.0389 12.2333 27.1466 12.1472 27.1466C12.134 27.1466 12.1259 27.1436 12.1218 27.1385C11.985 26.9292 11.7834 26.6383 11.7226 26.3534C11.682 26.1632 11.7043 25.9739 11.8523 25.8149C11.9252 25.7344 12.0377 25.6881 12.1451 25.6881ZM12.1461 25.529C11.9911 25.529 11.836 25.5955 11.7337 25.7072C11.5645 25.8894 11.5077 26.1179 11.5654 26.3856C11.6273 26.6765 11.8148 26.9624 11.9526 27.1717L11.987 27.2241C12.0154 27.2694 12.0924 27.3056 12.1461 27.3056C12.2221 27.3056 12.3367 27.2704 12.5566 27.1828C12.7228 27.1194 12.9123 27.0399 13.0825 26.9131C13.1981 26.8265 13.4687 26.592 13.4798 26.29C13.4839 26.1803 13.4524 26.0192 13.2832 25.8733C13.192 25.7958 13.0704 25.7525 12.9397 25.7525C12.8778 25.7525 12.8181 25.7616 12.7593 25.7797C12.7036 25.7968 12.6488 25.822 12.5961 25.8542C12.5718 25.7857 12.5353 25.7203 12.4806 25.6639C12.3955 25.5764 12.2769 25.529 12.1461 25.529Z" fill="#243645"/>
<path d="M13.3096 26.1894C13.267 26.3071 13.2002 26.4169 13.1181 26.5115C13.0238 26.6192 12.9123 26.7108 12.7857 26.7792C12.6742 26.8396 12.5536 26.8738 12.4269 26.8849C12.2577 26.9 12.0671 26.8809 11.9111 26.8024C11.981 26.9252 12.059 27.0399 12.1219 27.1376C12.1502 27.1808 12.4837 27.0389 12.5222 27.0248C12.6863 26.9624 12.8464 26.8909 12.9873 26.7853C13.1788 26.6413 13.3663 26.4088 13.3096 26.1894Z" fill="#EBCBD1"/>
<g opacity="0.3">
<path opacity="0.3" d="M11.7545 26.2029C11.7818 26.1002 11.8244 26.0026 11.8953 25.9211C11.9592 25.8486 12.0413 25.7822 12.1366 25.76C12.2389 25.7379 12.3453 25.7812 12.4091 25.8617C12.4304 25.8879 12.4457 25.9171 12.4578 25.9473C12.4396 25.8828 12.4132 25.8224 12.3666 25.7741C12.2318 25.6372 11.9825 25.6735 11.8518 25.8144C11.7038 25.9734 11.6815 26.1627 11.7221 26.3529C11.7231 26.3589 11.7251 26.366 11.7271 26.373C11.7292 26.3156 11.7393 26.2583 11.7545 26.2029Z" fill="#BBBDBF"/>
</g>
<g opacity="0.3">
<path opacity="0.3" d="M13.1708 25.9871C13.0714 25.9065 12.9296 25.8925 12.8069 25.9307C12.6975 25.9649 12.6032 26.0354 12.5232 26.1179C12.6995 25.975 12.9529 25.9196 13.1708 25.9871Z" fill="#BBBDBF"/>
</g>
<path d="M20.3003 18.9264C19.9314 18.9264 19.5849 18.7342 19.4197 18.4363C19.1998 18.0417 19.3386 17.5012 19.7176 17.2817C19.825 17.2183 19.9527 17.1861 20.0865 17.1861C20.354 17.1861 20.5993 17.3109 20.7391 17.5052C21.0969 16.549 21.3259 15.5515 21.4202 14.5339C20.8182 14.4241 20.2719 14.2309 19.7429 14.0437C19.3801 13.9148 19.0052 13.782 18.6099 13.6753C18.5238 14.3205 18.2269 15.0985 17.9867 15.7296L17.9269 15.8877C17.7779 16.2832 17.5529 16.7805 17.1506 17.1197C16.9206 17.314 16.577 17.4257 16.2061 17.4257C15.7703 17.4257 15.368 17.2717 15.1288 17.015C14.9424 16.8157 14.8562 16.557 14.8795 16.2702C14.918 15.79 15.3599 15.3753 15.8636 15.3451C15.8656 15.3451 15.8676 15.3451 15.8696 15.3451C16.3165 15.3451 16.7168 15.5716 16.9408 15.9118C17.4222 14.6164 17.6907 13.2596 17.7424 11.8786C17.7424 11.8554 17.7546 11.8333 17.7729 11.8182C17.7871 11.8071 17.8032 11.8021 17.8215 11.8021C17.8276 11.8021 17.8336 11.8021 17.8397 11.8041C19.5179 12.1866 21.1911 12.6667 22.8116 13.2304C22.8511 13.2445 22.8734 13.2857 22.8622 13.327L21.7657 17.2214C21.561 17.9501 21.2549 18.7191 20.5455 18.8983C20.4665 18.9164 20.3844 18.9264 20.3003 18.9264Z" fill="#F27C88"/>
<path d="M17.8223 11.8803C19.5015 12.2628 21.1595 12.7389 22.785 13.3035C22.4202 14.602 22.0533 15.9004 21.6885 17.1989C21.499 17.8703 21.2061 18.6483 20.5261 18.8204C20.4532 18.8386 20.3781 18.8476 20.3011 18.8476C19.9758 18.8476 19.6464 18.6815 19.4904 18.3987C19.2968 18.0494 19.4114 17.5522 19.758 17.3509C19.8593 17.2925 19.9728 17.2653 20.0883 17.2653C20.3711 17.2653 20.6598 17.4294 20.75 17.6991C21.1554 16.6654 21.4108 15.5743 21.5061 14.4691C20.442 14.288 19.5846 13.8461 18.5408 13.5743C18.4678 14.2809 18.103 15.1938 17.8507 15.8592C17.6825 16.3051 17.4635 16.751 17.0987 17.059C16.8727 17.2492 16.5414 17.3458 16.2059 17.3458C15.5604 17.3458 14.9027 16.9895 14.9604 16.2759C14.9959 15.826 15.4154 15.4505 15.8684 15.4233C15.8887 15.4223 15.9079 15.4213 15.9282 15.4213C16.3609 15.4213 16.7754 15.7072 16.9548 16.1007C17.4747 14.753 17.7696 13.3217 17.8223 11.8803ZM17.8223 11.7212C17.7878 11.7212 17.7534 11.7323 17.725 11.7545C17.6865 11.7826 17.6632 11.8269 17.6621 11.8742C17.6135 13.1968 17.3632 14.4973 16.9173 15.7434C16.6731 15.4475 16.3052 15.2623 15.9282 15.2623C15.9059 15.2623 15.8816 15.2623 15.8593 15.2643C15.3171 15.2975 14.8428 15.7454 14.8013 16.2628C14.7769 16.5728 14.8692 16.8516 15.0709 17.067C15.3253 17.3398 15.7499 17.5039 16.2069 17.5039C16.5961 17.5039 16.9588 17.3861 17.2031 17.1798C17.6186 16.8275 17.8487 16.3192 18.0007 15.9145L18.0594 15.7615C18.2915 15.1546 18.5742 14.4118 18.6756 13.7746C19.0353 13.8773 19.3799 13.9991 19.7143 14.1178C20.2261 14.299 20.7531 14.4852 21.3338 14.599C21.2406 15.5391 21.0307 16.4631 20.7105 17.3519C20.5524 17.1999 20.3275 17.1073 20.0883 17.1073C19.9404 17.1073 19.7984 17.1445 19.6778 17.214C19.2634 17.4546 19.1103 18.0444 19.3505 18.4752C19.5299 18.7973 19.9028 19.0056 20.3011 19.0056C20.3913 19.0056 20.4805 18.9946 20.5656 18.9734C21.3146 18.7842 21.6317 17.9921 21.8435 17.2412L22.3796 15.3338L22.939 13.3458C22.9613 13.2653 22.9177 13.1807 22.8377 13.1536C21.2121 12.5889 19.536 12.1078 17.8578 11.7253C17.8456 11.7233 17.8344 11.7212 17.8223 11.7212Z" fill="#243645"/>
<g opacity="0.3">
<path opacity="0.3" d="M24.2038 11.2029C22.8793 11.6407 21.5547 12.0755 20.2353 12.5255C18.1507 13.2351 16.0772 13.9779 14.0453 14.8184C13.4474 15.065 12.8515 15.3227 12.2627 15.5894C12.3721 15.2542 12.4796 14.917 12.585 14.5768C13.2964 14.302 14.021 14.0635 14.7497 13.834C15.7418 13.5189 16.7288 13.1968 17.7098 12.8466C19.5137 12.1993 21.2953 11.4978 23.0789 10.7952C23.4539 10.9271 23.8309 11.0629 24.2038 11.2029Z" fill="#BBBDBF"/>
</g>
<g opacity="0.3">
<path opacity="0.3" d="M27.3251 13.9729C25.7412 14.5516 24.1511 15.1113 22.5549 15.6538C20.1278 16.4782 17.6875 17.2673 15.2411 18.0293C14.5865 18.2336 13.9298 18.4359 13.2741 18.6372C12.7319 18.4329 12.1978 18.1551 11.984 17.6367C11.8938 17.4203 11.8726 17.1928 11.8908 16.9603C12.4867 16.7288 13.0937 16.5194 13.7007 16.3212C14.9594 15.9125 16.2272 15.53 17.4797 15.1052C20.3305 14.14 23.2005 13.223 26.0573 12.2789C26.2093 12.2285 26.3614 12.1782 26.5124 12.1269C26.6157 12.1701 26.7191 12.2154 26.8224 12.2607C27.1082 12.3866 27.4214 12.5426 27.5247 12.8355C27.6099 13.072 27.5328 13.3327 27.4558 13.5713C27.4123 13.7051 27.3687 13.839 27.3251 13.9729Z" fill="#BBBDBF"/>
</g>
<path d="M31.3474 11.986C31.4508 11.6357 31.5541 11.2663 31.472 10.911C31.3484 10.3805 30.8782 10.0031 30.3705 9.76551C29.8303 11.4716 29.4564 13.223 28.9902 14.9482C28.521 16.6896 27.9038 18.3906 27.2623 20.0766C26.9492 20.8949 26.6198 21.7082 26.258 22.5064C25.9154 23.2593 25.5456 23.9991 25.1909 24.746C24.517 26.1622 23.8106 27.5724 22.932 28.8759C22.1131 30.0908 21.1342 31.209 19.9333 32.0646C18.9624 32.7571 17.872 33.2695 16.7146 33.5704C14.4365 34.1643 12.0124 33.9126 9.79811 33.1839C7.65372 32.4783 5.65219 31.3339 3.91418 29.9036C3.65576 30.6816 3.48652 31.4838 3.71859 32.1512C3.95776 32.8387 4.72999 33.1638 5.42317 33.3993C7.56148 34.125 17.0653 37.4708 19.764 38.1824C20.4238 38.3556 21.1423 38.5136 21.7736 38.2539C22.5965 37.9167 22.9887 37.0017 23.2978 36.1734C26.2641 28.2075 28.9497 20.139 31.3474 11.986Z" fill="#B8D2E3"/>
</svg>
