<svg width="52" height="46" viewBox="0 0 52 46" fill="none" xmlns="http://www.w3.org/2000/svg">
<path d="M37.7302 2.39964C35.0257 3.01516 32.2235 4.29468 29.3905 6.20931C26.9893 6.42067 25.2366 6.80628 25.0279 6.85371C24.8172 6.90217 23.0707 7.30843 20.8113 8.15697C17.4335 7.65177 14.3538 7.70536 11.6503 8.31883C7.06882 9.35914 3.83692 11.9233 2.55097 15.5391C1.31025 19.0251 2.09872 22.8347 4.76828 26.266C7.97134 30.3839 10.1434 32.6729 12.3843 33.0368C12.596 33.476 12.778 33.8575 12.9044 34.1493C13.073 34.54 13.0925 35.005 13.111 35.7927L13.1141 35.9453C13.1429 37.1558 13.1881 38.9869 14.4391 40.9376C15.0908 41.9563 15.9841 42.8728 17.1652 43.7348C17.4983 43.9781 17.7985 44.1844 18.1099 44.3772C19.6642 45.3515 21.4363 45.6515 23.2373 45.2432C23.743 45.1288 24.2529 44.9545 24.7648 44.7246C26.5822 45.3979 28.6473 45.5319 30.6374 45.0814L36.3671 43.7802C38.3572 43.3286 40.1633 42.3151 41.5151 40.9232C42.0753 40.9098 42.6109 40.8479 43.1176 40.7304C44.9165 40.3221 46.3885 39.288 47.3743 37.7373C47.6724 37.2682 47.9346 36.8042 48.1638 36.3413C48.1926 36.2866 48.2223 36.232 48.2491 36.1753C50.161 32.211 48.9409 29.4798 48.21 27.8466C48.1381 27.6858 48.0661 27.5229 47.9962 27.3579L47.9633 27.2785C47.7721 26.8197 47.694 26.5331 47.6848 26.2588C47.6724 25.9433 47.6735 25.5257 47.6765 25.0277C49.5412 23.7328 50.5198 20.7283 51.6433 15.6299C52.5808 11.3779 51.6557 7.59919 49.0406 4.98861C46.3279 2.28009 42.3107 1.36036 37.7302 2.39964Z" fill="#10181E"/>
<path d="M10.4065 31.053C10.6183 31.4923 10.8002 31.8738 10.9267 32.1656C11.0952 32.5574 11.1148 33.0223 11.1333 33.81L11.1353 33.9606C11.1651 35.172 11.2103 37.0031 12.4613 38.9549C13.1131 39.9735 14.0064 40.8902 15.1875 41.7511C15.5205 41.9944 15.8217 42.1995 16.1311 42.3944C17.6864 43.3687 19.4586 43.6677 21.2585 43.2594C21.7663 43.144 22.2762 42.9708 22.787 42.7408C24.6055 43.4141 26.6706 43.5481 28.6586 43.0976L34.3904 41.7964C36.3784 41.3448 38.1856 40.3313 39.5363 38.9394C40.0976 38.927 40.632 38.8631 41.1388 38.7477C42.9387 38.3394 44.4118 37.3042 45.3966 35.7535C45.6947 35.2844 45.9558 34.8205 46.186 34.3575C46.2148 34.3029 46.2436 34.2493 46.2714 34.1905C48.1823 30.2272 46.9621 27.495 46.2323 25.8639C46.1603 25.701 46.0884 25.5401 46.0185 25.3741L45.9845 25.2958C45.7933 24.8359 45.7152 24.5483 45.706 24.2751C45.6946 23.9585 45.6957 23.542 45.6977 23.045C47.5624 21.749 48.541 18.7456 49.6666 13.6451C50.6021 9.39416 49.6789 5.61438 47.0628 3.00484C44.348 0.296316 40.3329 -0.622344 35.7514 0.416937C33.0479 1.03143 30.2458 2.31095 27.4128 4.22661C25.0105 4.43591 23.2578 4.82255 23.0492 4.87101C22.8405 4.91843 21.094 5.32466 18.8346 6.1732C15.4557 5.66697 12.3761 5.72159 9.6726 6.33506C5.09107 7.37537 1.85924 9.93956 0.573285 13.5544C-0.667438 17.0413 0.120974 20.851 2.79053 24.2833C5.99359 28.3982 8.16563 30.6881 10.4065 31.053Z" fill="white"/>
<path d="M19.5367 30.9601L20.7434 36.3091C21.3633 39.0568 24.5838 40.6662 27.9411 39.9043L33.6709 38.6031C37.0261 37.8422 39.2443 34.9976 38.6235 32.2509L37.4167 26.9019L19.5367 30.9601Z" fill="#703E1B"/>
<path d="M33.7973 39.1682L28.0675 40.4693C24.407 41.3003 20.8699 39.4909 20.1812 36.438L18.8479 30.5261L37.8514 26.2122L39.1857 32.1241C39.8745 35.177 37.4578 38.3382 33.7973 39.1682ZM20.2243 31.3962L21.3037 36.1833C21.8516 38.6166 24.773 40.0322 27.8126 39.3435L33.5444 38.0423C36.585 37.3515 38.6121 34.81 38.0632 32.3798L36.9829 27.5927L20.2243 31.3962Z" fill="#28130D"/>
<path d="M32.3263 31.0416L29.1181 31.7705L25.9089 32.4984C26.4619 36.0184 27.6142 37.9866 28.6915 39.0857C29.815 40.2312 32.1196 39.7084 32.6418 38.1887C33.1425 36.7318 33.3378 34.4574 32.3263 31.0416Z" fill="#F05A28"/>
<path d="M42.4453 24.3906C42.3281 21.117 43.2502 11.7656 37.9522 8.90342C32.6552 6.04436 23.7686 8.06104 23.7686 8.06104C23.7686 8.06104 14.8811 10.0767 11.3275 14.9473C7.77394 19.8169 12.6197 27.8569 13.918 30.8644C15.2183 33.8719 12.8036 36.4516 17.8621 39.6199C22.9196 42.7893 28.9669 31.1036 28.9669 31.1036C28.9669 31.1036 39.4406 39.0395 42.6457 33.9956C45.8498 28.9508 42.5645 27.6631 42.4453 24.3906Z" fill="#C86228"/>
<path d="M40.5478 36.1194C36.7053 36.9917 30.9468 33.2191 29.1603 31.9572C28.0881 33.8687 24.5109 39.758 20.6674 40.6323C19.5572 40.8818 18.5108 40.7075 17.5579 40.1085C13.9148 37.8268 13.8645 35.6699 13.8193 33.7676C13.7977 32.851 13.7781 31.9871 13.3916 31.0942C13.2148 30.6859 12.9692 30.1766 12.6844 29.5868C10.9071 25.9132 7.60127 19.0775 10.8639 14.6059C14.5018 9.61882 23.2691 7.58148 23.6422 7.49693C24.0123 7.41342 32.8022 5.46581 38.2266 8.396C43.0888 11.022 43.0405 18.6218 43.0127 22.7037C43.0086 23.3594 43.0045 23.9254 43.0209 24.3698C43.0559 25.3431 43.4085 26.1318 43.7817 26.9669C44.5588 28.7032 45.4377 30.6725 43.131 34.3048C42.5266 35.2564 41.658 35.8668 40.5478 36.1194ZM28.8405 30.5405C29.005 30.5023 29.1787 30.5405 29.3144 30.6426C29.3823 30.6962 36.3137 35.8957 40.2939 34.9936C41.108 34.808 41.7186 34.379 42.1596 33.6841C44.1353 30.5756 43.4846 29.1218 42.7321 27.4371C42.3302 26.5391 41.9149 25.6101 41.8707 24.41C41.8543 23.9409 41.8574 23.3624 41.8625 22.6954C41.8861 18.8558 41.9345 11.7087 37.6809 9.41156C32.6378 6.68654 23.9825 8.6022 23.8961 8.62179C23.8098 8.64138 15.1772 10.6498 11.7932 15.2854C8.93964 19.1961 12.0492 25.6266 13.7206 29.0816C14.0105 29.6837 14.2623 30.2034 14.4484 30.6333C14.9243 31.7334 14.9469 32.7531 14.9716 33.7377C15.0147 35.5823 15.0507 37.1752 18.1674 39.129C18.8654 39.5662 19.6004 39.6888 20.4145 39.5033C24.3988 38.599 28.416 30.9148 28.4581 30.8385C28.5332 30.6879 28.674 30.5776 28.8405 30.5405Z" fill="#28130D"/>
<path d="M42.6457 33.9946C45.0306 30.2385 43.8207 28.5672 42.9973 26.6062C39.5774 24.3369 34.3955 22.4192 27.458 24.0472C20.0661 25.7814 16.3007 30.1993 14.398 33.8801C14.4432 35.7308 14.5583 37.5506 17.8631 39.6188C22.9206 42.7882 28.968 31.1025 28.968 31.1025C28.968 31.1025 39.4406 39.0394 42.6457 33.9946Z" fill="#4E4E4C"/>
<path d="M40.5478 36.1194C36.7053 36.9917 30.9468 33.2191 29.1603 31.9571C28.0881 33.8687 24.5109 39.7579 20.6674 40.6322C19.5572 40.8818 18.5108 40.7075 17.5569 40.1085C13.9179 37.8289 13.8645 35.6482 13.8223 33.8944L13.8182 33.747L13.8861 33.6161C15.7569 29.993 19.6076 25.2956 27.3264 23.4852L27.5052 23.4439C34.7573 21.7973 40.1047 23.9934 43.3139 26.1277L43.4589 26.2225L43.5267 26.3834C43.6089 26.5782 43.6953 26.7731 43.7817 26.9649C44.5588 28.7032 45.4387 30.6714 43.131 34.3048C42.5266 35.2564 41.658 35.8668 40.5478 36.1194ZM28.7706 30.2332L29.3144 30.6425C29.3823 30.6962 36.3137 35.8957 40.2939 34.9935C41.108 34.8079 41.7186 34.379 42.1596 33.6841C44.1353 30.5755 43.4846 29.1208 42.7321 27.4371C42.6664 27.2897 42.5995 27.1411 42.5358 26.9937C39.4992 25.0162 34.5076 23.0366 27.7591 24.5687L27.5906 24.6079C20.3909 26.2947 16.7613 30.6261 14.9778 34.014C15.0199 35.6627 15.1443 37.2329 18.1664 39.128C18.8654 39.5651 19.5993 39.6878 20.4145 39.5022C24.3947 38.6001 28.416 30.9137 28.4581 30.8364L28.7706 30.2332Z" fill="#28130D"/>
<path d="M30.8759 21.8189C28.2495 21.2024 25.3651 21.8581 23.2568 23.548C22.2915 24.3233 21.6141 25.2358 22.0417 26.1276C22.6009 27.2937 24.3485 28.0495 25.8873 28.5042C27.5289 28.9898 29.3555 28.5732 30.6292 27.4288C31.8216 26.3534 33.0757 24.9172 33.0798 23.6232C33.0849 22.6314 32.0806 22.1004 30.8759 21.8189Z" fill="#161417"/>
<path d="M20.4957 23.5821C21.9604 23.5821 23.1478 22.3912 23.1478 20.922C23.1478 19.4529 21.9604 18.262 20.4957 18.262C19.031 18.262 17.8436 19.4529 17.8436 20.922C17.8436 22.3912 19.031 23.5821 20.4957 23.5821Z" fill="#161417"/>
<path d="M20.764 21.5128C21.2102 21.5128 21.572 21.15 21.572 20.7024C21.572 20.2549 21.2102 19.892 20.764 19.892C20.3178 19.892 19.956 20.2549 19.956 20.7024C19.956 21.15 20.3178 21.5128 20.764 21.5128Z" fill="white"/>
<path d="M22.2905 22.1232C22.5408 22.1232 22.7438 21.9196 22.7438 21.6685C22.7438 21.4174 22.5408 21.2138 22.2905 21.2138C22.0401 21.2138 21.8372 21.4174 21.8372 21.6685C21.8372 21.9196 22.0401 22.1232 22.2905 22.1232Z" fill="white"/>
<path d="M32.243 20.9159C33.7077 20.9159 34.8951 19.725 34.8951 18.2558C34.8951 16.7867 33.7077 15.5958 32.243 15.5958C30.7783 15.5958 29.5909 16.7867 29.5909 18.2558C29.5909 19.725 30.7783 20.9159 32.243 20.9159Z" fill="#161417"/>
<path d="M32.5093 18.8477C32.9555 18.8477 33.3172 18.4849 33.3172 18.0373C33.3172 17.5898 32.9555 17.2269 32.5093 17.2269C32.0631 17.2269 31.7013 17.5898 31.7013 18.0373C31.7013 18.4849 32.0631 18.8477 32.5093 18.8477Z" fill="white"/>
<path d="M34.0378 19.4581C34.2882 19.4581 34.4911 19.2545 34.4911 19.0034C34.4911 18.7523 34.2882 18.5487 34.0378 18.5487C33.7875 18.5487 33.5845 18.7523 33.5845 19.0034C33.5845 19.2545 33.7875 19.4581 34.0378 19.4581Z" fill="white"/>
<path d="M5.36239 22.2696C9.51732 27.6093 11.6307 29.2363 11.9813 26.5463C13.5016 14.9039 19.0967 9.52606 19.0967 9.52606C5.35927 7.13922 -0.088776 15.2637 5.36239 22.2696Z" fill="#4E4E4C"/>
<path d="M11.3882 28.3681C10.3623 28.6021 8.86766 27.7133 4.90701 22.6252C2.82235 19.9445 2.18196 17.0453 3.10197 14.4594C4.06823 11.7427 6.61133 9.78991 10.2636 8.96199C12.8406 8.37843 15.8454 8.37634 19.1944 8.95784L20.3169 9.15273L19.4945 9.94457C19.4401 9.99612 14.0228 15.343 12.5518 26.6225C12.4202 27.635 12.0286 28.2227 11.3882 28.3681ZM10.5186 10.0879C7.26412 10.8271 5.01598 12.5159 4.18644 14.8481C3.40417 17.0494 3.9829 19.5579 5.81675 21.9148C9.71675 26.9267 10.8362 27.3112 11.1353 27.2432C11.1826 27.2319 11.3348 27.0679 11.4129 26.472C12.6228 17.1927 16.3439 11.8581 17.9536 9.93318C15.1761 9.54551 12.6773 9.59812 10.5186 10.0879Z" fill="#28130D"/>
<path d="M28.6144 7.36707C28.6144 7.36707 35.9714 9.80338 42.3415 19.657C43.8115 21.9325 45.0213 19.5518 46.4789 12.9377C48.393 4.26155 39.9896 -0.720354 28.6144 7.36707Z" fill="#4E4E4C"/>
<path d="M43.6583 21.0448C43.0189 21.1901 42.4124 20.8293 41.8584 19.9714C35.6897 10.4282 28.5054 7.9393 28.4335 7.91558L27.3552 7.55468L28.2813 6.89588C31.0537 4.92454 33.7664 3.62748 36.3435 3.04391C39.9947 2.21496 43.1289 2.879 45.1663 4.91323C47.1081 6.85054 47.7731 9.74464 47.0412 13.0625C45.6525 19.3652 44.6842 20.8128 43.6583 21.0448ZM29.8222 7.23821C32.1012 8.28162 37.7487 11.4902 42.8236 19.3425C43.1485 19.8457 43.3581 19.9291 43.4033 19.9188C43.7045 19.8508 44.5474 19.0229 45.9167 12.8119C46.5612 9.8941 46.005 7.37843 44.3542 5.73187C42.6046 3.98634 39.8487 3.43262 36.5963 4.16877C34.4376 4.65852 32.1618 5.69166 29.8222 7.23821Z" fill="#28130D"/>
<path d="M21.3993 31.7861C21.6791 31.7861 21.9061 31.5586 21.9061 31.2778C21.9061 30.9971 21.6791 30.7695 21.3993 30.7695C21.1194 30.7695 20.8925 30.9971 20.8925 31.2778C20.8925 31.5586 21.1194 31.7861 21.3993 31.7861Z" fill="#161417"/>
<path d="M19.4688 32.9191C19.7958 32.9191 20.0609 32.6532 20.0609 32.3253C20.0609 31.9973 19.7958 31.7314 19.4688 31.7314C19.1418 31.7314 18.8767 31.9973 18.8767 32.3253C18.8767 32.6532 19.1418 32.9191 19.4688 32.9191Z" fill="#161417"/>
<path d="M20.9038 35.1184C21.161 35.1184 21.3695 34.9093 21.3695 34.6513C21.3695 34.3934 21.161 34.1843 20.9038 34.1843C20.6466 34.1843 20.4381 34.3934 20.4381 34.6513C20.4381 34.9093 20.6466 35.1184 20.9038 35.1184Z" fill="#161417"/>
<path d="M22.4992 33.8883C22.7331 33.8883 22.9227 33.6981 22.9227 33.4635C22.9227 33.2289 22.7331 33.0387 22.4992 33.0387C22.2653 33.0387 22.0757 33.2289 22.0757 33.4635C22.0757 33.6981 22.2653 33.8883 22.4992 33.8883Z" fill="#161417"/>
<path d="M19.1347 35.3472C19.3919 35.3472 19.6004 35.1381 19.6004 34.8801C19.6004 34.6222 19.3919 34.4131 19.1347 34.4131C18.8775 34.4131 18.669 34.6222 18.669 34.8801C18.669 35.1381 18.8775 35.3472 19.1347 35.3472Z" fill="#161417"/>
<path d="M35.8717 28.5022C36.1516 28.5022 36.3784 28.2746 36.3784 27.9939C36.3784 27.7132 36.1516 27.4856 35.8717 27.4856C35.5918 27.4856 35.3648 27.7132 35.3648 27.9939C35.3648 28.2746 35.5918 28.5022 35.8717 28.5022Z" fill="#161417"/>
<path d="M38.0653 28.6989C38.3923 28.6989 38.6573 28.433 38.6573 28.105C38.6573 27.777 38.3923 27.5112 38.0653 27.5112C37.7383 27.5112 37.4732 27.777 37.4732 28.105C37.4732 28.433 37.7383 28.6989 38.0653 28.6989Z" fill="#161417"/>
<path d="M37.7672 31.2912C38.0238 31.2912 38.2318 31.0825 38.2318 30.8251C38.2318 30.5677 38.0238 30.3591 37.7672 30.3591C37.5106 30.3591 37.3025 30.5677 37.3025 30.8251C37.3025 31.0825 37.5106 31.2912 37.7672 31.2912Z" fill="#161417"/>
<path d="M35.8171 30.8654C36.0505 30.8654 36.2396 30.6757 36.2396 30.4417C36.2396 30.2076 36.0505 30.0179 35.8171 30.0179C35.5838 30.0179 35.3947 30.2076 35.3947 30.4417C35.3947 30.6757 35.5838 30.8654 35.8171 30.8654Z" fill="#161417"/>
<path d="M39.4622 30.7332C39.7194 30.7332 39.9279 30.5241 39.9279 30.2662C39.9279 30.0082 39.7194 29.7991 39.4622 29.7991C39.2051 29.7991 38.9966 30.0082 38.9966 30.2662C38.9966 30.5241 39.2051 30.7332 39.4622 30.7332Z" fill="#161417"/>
</svg>
