<svg width="59" height="68" viewBox="0 0 59 68" fill="none" xmlns="http://www.w3.org/2000/svg">
<path d="M16.0319 68C15.7954 68 15.5579 67.9837 15.3255 67.9544L15.362 67.6504C15.6422 67.6884 15.934 67.7014 16.2132 67.6916L16.2246 67.9956C16.16 67.9978 16.0965 68 16.0319 68ZM17.1196 67.8936L17.0654 67.5939C17.3405 67.5407 17.6207 67.4657 17.8958 67.3713L17.9875 67.6612C17.6999 67.76 17.4071 67.8382 17.1196 67.8936ZM14.8442 67.8675C14.5494 67.8013 14.2577 67.7111 13.9826 67.5971L14.0899 67.3127C14.3515 67.4202 14.6275 67.507 14.9068 67.5689L14.8442 67.8675ZM18.8199 67.3138L18.6959 67.0379C19.023 66.8783 19.2866 66.7187 19.4585 66.6123L19.6075 66.8751C19.4314 66.9848 19.1575 67.1487 18.8199 67.3138ZM13.1752 67.1813C12.9178 67.0195 12.672 66.8339 12.4448 66.6286L12.6366 66.3974C12.8501 66.5917 13.0825 66.7665 13.3262 66.9196L13.1752 67.1813ZM20.366 66.4343L20.2337 66.1628C20.4837 66.0293 20.7546 65.9 21.039 65.773L21.1526 66.0531C20.8744 66.178 20.6098 66.3061 20.366 66.4343ZM11.8145 65.9555C11.6249 65.7155 11.452 65.4571 11.3009 65.1845L11.5531 65.0303C11.6989 65.2887 11.8614 65.5341 12.0396 65.76L11.8145 65.9555ZM21.9642 65.7165L21.861 65.431C22.1215 65.3289 22.4028 65.2268 22.6955 65.1259L22.7883 65.4169C22.4987 65.5168 22.2215 65.6177 21.9642 65.7165ZM23.6218 65.1411L23.5374 64.8479C23.8166 64.7611 24.0979 64.6764 24.3844 64.5917L24.4615 64.8859C24.1791 64.9695 23.8989 65.0542 23.6218 65.1411ZM25.3095 64.6449L25.2345 64.3506C25.5169 64.2735 25.8013 64.1953 26.0847 64.1193L26.1587 64.4147C25.8742 64.4896 25.5908 64.5678 25.3095 64.6449ZM10.9102 64.3387C10.8008 64.0488 10.7133 63.748 10.6487 63.4407L10.9341 63.3745C10.9967 63.6655 11.079 63.9532 11.1821 64.2268L10.9102 64.3387ZM27.0099 64.1899L26.9379 63.8935L27.7891 63.6698L27.8621 63.9663L27.0099 64.1899ZM28.7132 63.7393L28.6414 63.4451C28.9237 63.368 29.2071 63.2898 29.4884 63.2106L29.5655 63.5059C29.2811 63.584 28.9956 63.6633 28.7132 63.7393ZM30.4135 63.2616L30.3344 62.9673C30.6146 62.8859 30.8949 62.8012 31.1751 62.7133L31.2595 63.0043C30.9793 63.0944 30.6969 63.1791 30.4135 63.2616ZM32.1013 62.7306L32.0117 62.4396C32.2941 62.3441 32.5733 62.2442 32.8379 62.1454L32.9359 62.4342C32.6681 62.5319 32.3868 62.634 32.1013 62.7306ZM10.5237 62.5134C10.5122 62.3506 10.506 62.1823 10.506 62.0151C10.506 61.8718 10.5091 61.7241 10.5185 61.5786L10.8102 61.597C10.804 61.7382 10.7988 61.8782 10.7988 62.0161C10.7988 62.1768 10.804 62.3376 10.8154 62.4928L10.5237 62.5134ZM33.762 62.1128L33.6547 61.8283C33.9298 61.7154 34.2017 61.5992 34.4621 61.4809L34.5788 61.761C34.3152 61.8815 34.0412 61.9977 33.762 62.1128ZM35.3831 61.3756L35.255 61.1009C35.3852 61.0346 35.5144 60.9673 35.6415 60.8989C35.7717 60.8283 35.902 60.7567 36.0322 60.6861L36.1687 60.9565C36.0384 61.027 35.9082 61.0987 35.7759 61.1703C35.6457 61.2409 35.5144 61.3093 35.3831 61.3756ZM10.9039 60.7024L10.6144 60.6546C10.6581 60.3647 10.7154 60.0596 10.7862 59.7447L11.0707 59.8153C11.0019 60.1225 10.9456 60.419 10.9039 60.7024ZM36.9459 60.5243L36.8052 60.2561C37.0657 60.1084 37.3199 59.9618 37.5721 59.8163L37.7169 60.0824C37.4627 60.229 37.2064 60.3766 36.9459 60.5243ZM38.4826 59.6296L38.3357 59.3647C38.592 59.2116 38.8441 59.0574 39.091 58.9021L39.2421 59.1649C38.9931 59.3201 38.7389 59.4743 38.4826 59.6296ZM11.2946 58.938L11.0134 58.8533C11.0905 58.5796 11.178 58.293 11.2801 57.9738L11.5572 58.0704C11.4572 58.3842 11.3707 58.6698 11.2946 58.938ZM39.9943 58.6871L39.8402 58.4276C40.0913 58.2658 40.3392 58.1052 40.5819 57.9423L40.7393 58.1985C40.4944 58.3635 40.2464 58.5253 39.9943 58.6871ZM41.4758 57.6958L41.3144 57.4428C41.5592 57.2723 41.8019 57.1018 42.0374 56.9292L42.2041 57.179C41.9655 57.3527 41.7238 57.5242 41.4758 57.6958ZM11.8437 57.2093L11.5676 57.1052C11.6416 56.8869 11.7187 56.6687 11.7948 56.4493L11.8656 56.2441L12.1406 56.3473L12.0719 56.5503C11.9948 56.7729 11.9187 56.99 11.8437 57.2093ZM42.924 56.648L42.751 56.4015C42.9896 56.2213 43.224 56.0389 43.4553 55.8565L43.6324 56.1007C43.3991 56.2832 43.1646 56.4667 42.924 56.648ZM44.3284 55.5362L44.145 55.2984C44.3753 55.1073 44.6024 54.914 44.8222 54.7218L45.0098 54.9564C44.7889 55.1507 44.5597 55.3451 44.3284 55.5362ZM12.4157 55.4504L12.1261 55.3983C12.174 55.1236 12.2042 54.825 12.2188 54.5079L12.5115 54.5231C12.4949 54.851 12.4626 55.1648 12.4157 55.4504ZM45.6807 54.3591L45.488 54.129C45.7078 53.9281 45.9256 53.7229 46.135 53.5177L46.336 53.7413C46.1235 53.9476 45.9026 54.1561 45.6807 54.3591ZM12.2167 53.6067C12.201 53.3016 12.174 52.9997 12.1292 52.712L12.4188 52.6675C12.4626 52.9617 12.4928 53.2744 12.5094 53.5926L12.2167 53.6067ZM46.9737 53.1073L46.7684 52.8901C46.9757 52.6762 47.183 52.458 47.382 52.2419L47.5925 52.4525C47.3925 52.6707 47.1831 52.8912 46.9737 53.1073ZM11.9417 51.8358C11.8677 51.5524 11.7833 51.2614 11.6905 50.9682L11.9687 50.8716C12.0635 51.1691 12.149 51.4677 12.225 51.7543L11.9417 51.8358ZM48.1947 51.7782L47.977 51.5741C48.1718 51.3505 48.3635 51.1192 48.551 50.8879L48.775 51.0844C48.5864 51.3167 48.3916 51.5513 48.1947 51.7782ZM49.3334 50.371L49.1021 50.1821C49.2824 49.9454 49.4595 49.7022 49.6314 49.4568L49.8679 49.6381C49.6939 49.8846 49.5126 50.1322 49.3334 50.371ZM11.3968 50.1115C11.2957 49.8379 11.1863 49.5535 11.0707 49.2701L11.3395 49.1495C11.4572 49.4383 11.5697 49.7261 11.6697 50.004L11.3968 50.1115ZM50.3773 48.8878L50.1367 48.7163C50.3034 48.4655 50.4659 48.2114 50.6274 47.9595L50.8712 48.1289C50.7076 48.3829 50.543 48.6359 50.3773 48.8878ZM10.7123 48.4384C10.5935 48.1723 10.4643 47.8965 10.3299 47.6186L10.5925 47.4817C10.7269 47.7619 10.8571 48.0409 10.9769 48.3091L10.7123 48.4384ZM51.3504 47.3612L51.1045 47.194C51.2629 46.9399 51.4182 46.6815 51.5724 46.4231L51.8203 46.5838C51.6661 46.8433 51.5088 47.1028 51.3504 47.3612ZM9.92671 46.8075C9.78814 46.5382 9.64751 46.2711 9.50791 46.0072L9.76315 45.8585C9.90589 46.1223 10.0465 46.3916 10.1851 46.6652L9.92671 46.8075ZM52.2787 45.7998L52.0277 45.6424C52.1766 45.3818 52.3256 45.1202 52.4704 44.8563L52.7246 45.0083C52.5777 45.2743 52.4277 45.5371 52.2787 45.7998ZM9.07448 45.2125C8.96822 45.0214 8.86297 44.8346 8.75775 44.6478L8.63171 44.423L8.88486 44.2678L9.00988 44.4925C9.11615 44.6782 9.22032 44.8682 9.32763 45.0582L9.07448 45.2125ZM53.157 44.2114L52.9018 44.0626C53.0445 43.7976 53.183 43.5295 53.3205 43.2613L53.5789 43.4057C53.4403 43.675 53.2997 43.9442 53.157 44.2114ZM8.19206 43.6282C8.0462 43.3611 7.90344 43.094 7.76175 42.828L8.01808 42.6782C8.15873 42.9453 8.30145 43.2103 8.4473 43.4763L8.19206 43.6282ZM53.9873 42.5935L53.7248 42.4545C53.8592 42.183 53.9894 41.9116 54.1186 41.6402L54.3822 41.7748C54.2519 42.0484 54.1197 42.322 53.9873 42.5935ZM7.34085 42.0235C7.20021 41.7542 7.05955 41.4849 6.92307 41.2167L7.18144 41.0734C7.31896 41.3405 7.45862 41.6076 7.59718 41.8769L7.34085 42.0235ZM54.7635 40.9507L54.4989 40.8193C54.6239 40.5435 54.7458 40.2688 54.8667 39.9919L55.1323 40.1168C55.0136 40.3948 54.8896 40.6727 54.7635 40.9507ZM6.51051 40.4067L6.09896 39.5967L6.35942 39.4544L6.76887 40.2645L6.51051 40.4067ZM55.4876 39.2786L55.2188 39.158C55.3345 38.8779 55.449 38.5956 55.5584 38.3166L55.8293 38.4317C55.7189 38.7151 55.6032 38.9963 55.4876 39.2786ZM5.69059 38.7867C5.55411 38.5163 5.41762 38.2471 5.28114 37.9767L5.53848 37.8344C5.67601 38.1037 5.81457 38.3741 5.95105 38.6445L5.69059 38.7867ZM56.1554 37.5782L55.8824 37.4675C55.9887 37.183 56.0918 36.8985 56.1919 36.614L56.4669 36.7194C56.3669 37.006 56.2627 37.2916 56.1554 37.5782ZM4.86647 37.1711C4.72895 36.9018 4.5883 36.6347 4.44869 36.3676L4.70604 36.221C4.84669 36.487 4.98731 36.7563 5.12484 37.0255L4.86647 37.1711ZM56.7628 35.855L56.4857 35.7541C56.5815 35.4653 56.6753 35.1776 56.7638 34.8887L57.0431 34.9821C56.9524 35.2731 56.8597 35.564 56.7628 35.855ZM4.02157 35.5684L3.91944 35.3817C3.81005 35.1797 3.70171 34.9745 3.59336 34.766L3.85172 34.6205C3.95799 34.8279 4.06532 35.0321 4.17367 35.2308L4.27783 35.4196L4.02157 35.5684ZM57.3056 34.1069L57.0254 34.0179C57.1087 33.7258 57.1899 33.4338 57.2691 33.1417L57.5515 33.2242C57.4723 33.5174 57.391 33.8116 57.3056 34.1069ZM3.18912 33.9473C3.05889 33.6748 2.93071 33.3979 2.80778 33.1178L3.07243 32.9907C3.19537 33.2643 3.32245 33.5423 3.4506 33.8116L3.18912 33.9473ZM57.7786 32.336L57.4963 32.2622C57.5671 31.9658 57.6369 31.6672 57.7015 31.3751L57.986 31.4435C57.9214 31.7377 57.8505 32.0385 57.7786 32.336ZM2.44729 32.2784C2.33165 31.9983 2.21917 31.7117 2.11186 31.4283L2.38478 31.3154C2.49105 31.5955 2.60252 31.8799 2.71608 32.1568L2.44729 32.2784ZM1.79824 30.5672C1.69614 30.2784 1.59928 29.9874 1.50655 29.6986L1.78469 29.602C1.87637 29.8886 1.97222 30.1763 2.07224 30.463L1.79824 30.5672ZM58.1756 30.5456L57.888 30.4825C57.9474 30.1839 58.0026 29.8821 58.0537 29.5879L58.3412 29.6432C58.2891 29.9396 58.235 30.2426 58.1756 30.5456ZM1.23878 28.8235C1.15335 28.5292 1.07205 28.2306 0.995996 27.9396L1.2784 27.8604C1.35445 28.1503 1.43567 28.4434 1.51902 28.7355L1.23878 28.8235ZM58.487 28.7355L58.1964 28.6888C58.2412 28.3902 58.2818 28.0862 58.3183 27.7876L58.6089 27.8256C58.5725 28.1264 58.5318 28.4325 58.487 28.7355ZM0.776169 27.0471C0.707407 26.7507 0.641798 26.4478 0.582413 26.1514L0.867864 26.0883C0.927249 26.3826 0.992883 26.6822 1.0606 26.9765L0.776169 27.0471ZM58.709 26.9114L58.4173 26.881C58.4465 26.5813 58.4714 26.2751 58.4923 25.9733L58.784 25.9961C58.7632 26.299 58.7371 26.6073 58.709 26.9114ZM0.413647 25.2479C0.362597 24.9461 0.31362 24.6377 0.272988 24.3392L0.563654 24.2946C0.604286 24.5921 0.651164 24.8951 0.702215 25.1937L0.413647 25.2479ZM58.8351 25.0775L58.5433 25.0634C58.5569 24.7604 58.5652 24.4521 58.5694 24.1535L58.8611 24.1578C58.8569 24.4619 58.8486 24.7713 58.8351 25.0775ZM0.160499 23.4249C0.12716 23.1219 0.0979313 22.8136 0.0760526 22.5085L0.367799 22.4857C0.39072 22.7843 0.417787 23.0904 0.450084 23.3912L0.160499 23.4249ZM58.5694 23.2425C58.5663 22.9396 58.5568 22.6333 58.5443 22.3326L58.8371 22.3174C58.8496 22.6214 58.859 22.9319 58.8632 23.2381L58.5694 23.2425ZM0.0229557 21.5899C0.00836985 21.2848 0.00208369 20.9743 0 20.6692L0.292764 20.667C0.29589 20.9677 0.302137 21.274 0.314639 21.5769L0.0229557 21.5899ZM58.4912 21.4238C58.4673 21.1198 58.4381 20.8136 58.4069 20.5193L58.6985 20.4845C58.7298 20.7842 58.7579 21.0926 58.7819 21.401L58.4912 21.4238ZM0.304274 19.7582L0.0115096 19.7484C0.0208862 19.4422 0.0354395 19.1328 0.0562764 18.8287L0.348023 18.8505C0.327186 19.1491 0.312609 19.4563 0.304274 19.7582ZM58.2943 19.6159C58.2505 19.3151 58.2027 19.0133 58.1485 18.7191L58.436 18.6626C58.4902 18.9601 58.5391 19.2663 58.5839 19.5714L58.2943 19.6159ZM0.426111 17.9449L0.135445 17.9112C0.167742 17.6039 0.207332 17.2978 0.252131 16.997L0.541779 17.0437C0.499064 17.3391 0.458408 17.6441 0.426111 17.9449ZM57.9724 17.8298C57.9068 17.5345 57.8359 17.237 57.7609 16.9482L58.0432 16.8678C58.1193 17.1609 58.1922 17.4617 58.2579 17.7614L57.9724 17.8298ZM0.694965 16.149L0.407415 16.0893C0.465759 15.7874 0.530302 15.4845 0.602189 15.1902L0.886623 15.263C0.814736 15.5529 0.752267 15.8515 0.694965 16.149ZM57.514 16.0752C57.4254 15.7852 57.3306 15.4954 57.2317 15.2152L57.5077 15.1099C57.6088 15.3955 57.7036 15.6875 57.7932 15.9818L57.514 16.0752ZM1.11478 14.3868L0.833526 14.301C0.918957 14.0057 1.00955 13.7103 1.10957 13.4226L1.38465 13.5236C1.2888 13.807 1.19917 14.0979 1.11478 14.3868ZM56.9139 14.3694C56.8024 14.0893 56.6815 13.8102 56.5576 13.5398L56.8232 13.4095C56.9482 13.6831 57.0701 13.9676 57.1847 14.251L56.9139 14.3694ZM56.1648 12.7298C56.0283 12.4649 55.8835 12.1989 55.7334 11.9415L55.9846 11.783C56.1367 12.0447 56.2836 12.3139 56.4232 12.5843L56.1648 12.7298ZM1.69408 12.6766L1.42421 12.5615C1.53464 12.2759 1.6555 11.9926 1.77948 11.7157L2.04414 11.846C1.92224 12.1174 1.80451 12.3976 1.69408 12.6766ZM55.2657 11.1782C55.1031 10.9296 54.9323 10.6809 54.7583 10.4409L54.9938 10.2575C55.1688 10.5018 55.3438 10.7536 55.5074 11.0066L55.2657 11.1782ZM2.43375 11.0349L2.17646 10.8916C2.31399 10.6223 2.45981 10.3509 2.61192 10.0881L2.86196 10.2455C2.71401 10.5039 2.57023 10.7689 2.43375 11.0349ZM54.2155 9.73197C54.029 9.50287 53.8352 9.27483 53.6362 9.05441L53.8509 8.84592C54.0499 9.07068 54.2499 9.30307 54.4384 9.5376L54.2155 9.73197ZM3.3287 9.47676L3.08598 9.3085C3.24851 9.05334 3.4173 8.79709 3.59024 8.55061L3.82673 8.73299C3.65795 8.97404 3.48914 9.22486 3.3287 9.47676ZM53.0247 8.4084C52.8173 8.20209 52.6006 7.99574 52.3818 7.79704L52.5736 7.56582C52.7976 7.76886 53.0184 7.97731 53.2278 8.18904L53.0247 8.4084ZM4.357 8.0099L4.12782 7.81772C4.31119 7.57884 4.50183 7.34211 4.69561 7.11192L4.91754 7.31279C4.7248 7.54081 4.53724 7.77429 4.357 8.0099ZM35.4362 7.95669L35.3498 7.81447C35.2174 7.59405 35.08 7.37792 34.9414 7.16945L35.181 6.99575C35.3216 7.20531 35.4623 7.42573 35.5978 7.65157L35.5832 7.66026L35.6655 7.77318L35.4362 7.95669ZM36.3718 7.24003L36.2073 6.98926C36.451 6.81553 36.7021 6.64507 36.95 6.48546L37.1021 6.74604C36.8584 6.90131 36.6125 7.06739 36.3718 7.24003ZM51.7067 7.2216C51.6328 7.1608 51.5567 7.09998 51.4807 7.04135C51.3254 6.91756 51.165 6.79815 51.0066 6.68414L51.1733 6.43436C51.3338 6.54837 51.4973 6.67329 51.6557 6.79707C51.7338 6.85896 51.8099 6.91974 51.888 6.98163L51.7067 7.2216ZM5.5051 6.64179L5.29468 6.43224C5.4968 6.20966 5.70831 5.99137 5.92085 5.78073L6.12191 6.00009C5.91355 6.20639 5.70618 6.42355 5.5051 6.64179ZM34.4247 6.44092C34.2517 6.21291 34.0736 5.99029 33.8933 5.78073L33.8651 5.74819L34.084 5.54513L34.111 5.57661C34.2965 5.79268 34.4788 6.0196 34.6538 6.25304L34.4247 6.44092ZM37.8554 6.2889L37.7148 6.02182C37.9763 5.87307 38.2419 5.73083 38.5045 5.60053L38.6306 5.87629C38.3722 6.00333 38.1117 6.1434 37.8554 6.2889ZM50.2753 6.19658C50.0263 6.0424 49.77 5.89803 49.5137 5.7623L49.646 5.49086C49.9096 5.62875 50.1711 5.77856 50.4253 5.936L50.2753 6.19658ZM39.4265 5.50928L39.3161 5.22484C39.5901 5.10866 39.8693 4.99898 40.1464 4.90018L40.2412 5.19118C39.9693 5.28672 39.6964 5.39201 39.4265 5.50928ZM6.76575 5.38986L6.57403 5.15751C6.7949 4.95772 7.02413 4.76008 7.25437 4.56789L7.43668 4.80786C7.20852 4.9957 6.98454 5.19116 6.76575 5.38986ZM48.726 5.38442C48.4593 5.2715 48.1853 5.16401 47.9134 5.07063L48.0061 4.77963C48.2853 4.87735 48.5656 4.98486 48.8396 5.10429L48.726 5.38442ZM33.263 5.0978C33.0556 4.89041 32.84 4.68626 32.6181 4.49082L32.8056 4.25741C33.0338 4.4572 33.2568 4.66456 33.4672 4.87738L33.263 5.0978ZM41.0716 4.92622L40.9955 4.63092C41.282 4.55165 41.5738 4.4789 41.8603 4.41918L41.9186 4.71886C41.6363 4.77749 41.3518 4.84696 41.0716 4.92622ZM47.0799 4.81767C46.958 4.78727 46.8371 4.75687 46.7142 4.72973C46.5559 4.6939 46.3923 4.66132 46.2298 4.63092L46.2788 4.3323C46.4455 4.36053 46.6121 4.39419 46.7757 4.43111C46.9018 4.45934 47.0258 4.48976 47.1497 4.52342L47.0799 4.81767ZM42.775 4.57008L42.7375 4.26821C43.0323 4.22695 43.3293 4.19983 43.6231 4.18246L43.6397 4.48538C43.3512 4.50276 43.0615 4.53099 42.775 4.57008ZM45.3724 4.51474C45.0858 4.4876 44.7951 4.47126 44.5065 4.46583L44.5117 4.16185C44.8066 4.16727 45.1046 4.18352 45.3994 4.21175L45.3724 4.51474ZM8.13057 4.25847L7.9597 4.01201C8.19724 3.83285 8.44107 3.65587 8.68799 3.48866L8.84842 3.74274C8.60672 3.90778 8.36394 4.08148 8.13057 4.25847ZM31.9336 3.93162C31.7023 3.7568 31.4616 3.58415 31.2168 3.4202L31.3752 3.16399C31.6231 3.33121 31.87 3.50712 32.1055 3.68628L31.9336 3.93162ZM9.58708 3.26062L9.43599 2.99891C9.68811 2.84147 9.94857 2.68949 10.2069 2.54508L10.3455 2.81328C10.0923 2.95552 9.83503 3.10644 9.58708 3.26062ZM30.4719 2.95332C30.2208 2.80565 29.9624 2.66342 29.702 2.52878L29.8311 2.25515C30.0968 2.39304 30.3615 2.53751 30.6157 2.68518L30.4719 2.95332ZM11.1238 2.40174L10.9967 2.12704C11.2613 1.99349 11.5332 1.86646 11.801 1.74485L11.9167 2.02604C11.651 2.14331 11.3853 2.27036 11.1238 2.40174ZM28.9102 2.15203C28.6476 2.03368 28.3746 1.91859 28.1027 1.81219L28.2048 1.5255C28.484 1.63407 28.7591 1.7503 29.0268 1.86865L28.9102 2.15203ZM12.7262 1.6862L12.623 1.39958C12.896 1.29317 13.1752 1.19004 13.4555 1.0934L13.5482 1.38434C13.271 1.4788 12.996 1.5798 12.7262 1.6862ZM27.2807 1.51138C27.0056 1.42017 26.7254 1.33005 26.4462 1.24861L26.5233 0.954367C26.8077 1.03797 27.0931 1.12813 27.3703 1.22151L27.2807 1.51138ZM14.3826 1.11726L14.3035 0.824077C14.5858 0.741557 14.8734 0.663432 15.1589 0.592855L15.2255 0.889222C14.9432 0.958713 14.6598 1.03691 14.3826 1.11726ZM25.6002 1.01739C25.4096 0.970702 25.2168 0.925099 25.022 0.881667C24.9314 0.861037 24.8397 0.84146 24.7459 0.82083L24.8053 0.52115C24.8991 0.542865 24.9928 0.562392 25.0835 0.584108C25.2804 0.627539 25.4762 0.674285 25.669 0.723145L25.6002 1.01739ZM16.0788 0.699221L16.0236 0.400668C16.3122 0.342035 16.606 0.289911 16.8956 0.245394L16.9394 0.546134C16.6518 0.591737 16.3632 0.641674 16.0788 0.699221ZM23.8885 0.652566C23.8155 0.639537 23.7426 0.62647 23.6686 0.614526C23.4551 0.577609 23.2404 0.543997 23.0258 0.513595L23.0643 0.211728C23.2821 0.241044 23.4998 0.275783 23.7155 0.313786C23.7905 0.326815 23.8655 0.33873 23.9395 0.351759L23.8885 0.652566ZM17.8041 0.43102L17.7739 0.129219C18.0624 0.0955598 18.3604 0.0683763 18.6542 0.048832L18.674 0.353946C18.3823 0.372405 18.0896 0.399532 17.8041 0.43102ZM22.159 0.409349C21.8694 0.380033 21.5756 0.357178 21.2891 0.340891L21.3068 0.0358428C21.5964 0.0532155 21.8933 0.075979 22.1881 0.105295L22.159 0.409349ZM19.545 0.313786L19.5378 0.00867143C19.8305 -1.49145e-05 20.1254 -0.00216635 20.4223 0.00217682L20.4171 0.307291C20.1253 0.302948 19.8346 0.305099 19.545 0.313786Z" fill="white"/>
<path d="M15.3391 65.4807C14.4567 65.282 13.7305 64.7184 13.2908 63.8921C12.398 62.2113 12.9918 60.182 13.9993 57.2742C14.142 56.8649 14.3348 56.3024 14.3775 56.1287C14.6421 54.854 14.6338 53.2058 14.3556 51.8257C13.6816 48.7953 12.1688 45.8712 10.7779 43.4086C9.80277 41.6844 8.91825 39.9309 8.06185 38.2338C7.38465 36.8928 6.68451 35.5041 5.95731 34.1729C2.67862 28.1522 0.381353 18.5223 4.70396 11.1997C6.62721 7.94445 9.42877 5.43733 12.8064 3.95088C16.058 2.52089 19.7003 2.0942 23.3342 2.71962C23.7645 2.79345 24.1865 2.87815 24.5897 2.96827C27.9976 3.73375 30.6125 5.1583 32.3649 7.20176C33.4213 8.43522 34.2278 9.92927 34.8373 11.3842C37.9034 8.1073 42.0312 5.86187 46.2819 6.8152C47.6832 7.13008 49.0157 7.7794 50.2471 8.74576C53.1591 11.0314 55.0875 14.2572 55.9794 18.3322C56.6732 21.5103 56.7035 25.2107 56.0648 29.0316C55.0594 35.0458 52.3256 41.6497 48.3645 47.627C45.5588 51.8605 41.2154 55.4761 34.6966 59.0017C32.3316 60.2699 29.4915 61.017 26.7442 61.739C23.7875 62.5154 20.7317 63.3178 18.5095 64.7119C17.7635 65.1788 16.6227 65.7673 15.3412 65.4785C15.3402 65.4806 15.3402 65.4807 15.3391 65.4807Z" fill="white"/>
<path d="M49.4115 15.5439C47.1226 11.1584 43.1157 9.24845 38.8525 11.9705C35.7978 13.9195 34.5652 16.8534 32.9254 19.9229C31.7273 22.1683 31.2897 20.3301 31.1532 18.6265C30.9782 16.4429 30.1999 14.4245 29.3467 12.4462C25.796 4.22345 13.1554 4.92922 8.15138 11.2724C5.11753 15.1183 4.76227 19.278 5.54366 24.0533C6.25211 28.3834 8.43373 31.8612 10.1288 35.7928C11.9948 40.1165 15.0974 43.8017 16.5018 48.3913C17.7061 52.3252 17.4728 55.8692 16.234 59.7401C20.866 58.2059 27.3067 57.1092 31.0323 55.0668C34.7788 53.0385 39.0076 50.2698 42.0456 46.8463C43.9199 44.7355 45.0399 42.1839 46.3422 39.6811C47.8373 36.8135 49.4011 33.896 50.1127 30.6907C51.19 25.8926 51.7692 20.0651 49.4115 15.5439ZM20.2607 11.9554C17.9812 13.3343 15.8235 16.2529 14.2524 18.43C12.4114 20.9816 11.2977 23.8448 10.8174 27.0012C9.96728 23.6971 10.5268 19.7199 12.3437 16.8697C13.271 15.4147 14.3337 14.0672 15.7964 13.1791C16.631 12.6709 17.603 12.2062 18.5532 11.9945C18.7813 11.9445 20.7671 11.6502 20.2607 11.9554Z" fill="#F44E76"/>
<path d="M49.4115 15.5439C47.3133 11.5254 43.7752 9.58948 39.9172 11.3854C40.5288 12.064 41.081 12.8674 41.5561 13.7795C43.9137 18.3008 43.3355 24.126 42.2593 28.9242C41.5467 32.1272 39.9828 35.0459 38.4888 37.9146C37.1844 40.4173 36.0666 42.9678 34.1923 45.0808C31.1533 48.5054 26.9244 51.272 23.179 53.3002C21.5631 54.1841 19.4409 54.8931 17.1748 55.5348C17.0134 56.9148 16.6935 58.3047 16.2351 59.7379C20.8671 58.2037 27.3078 57.107 31.0335 55.0647C34.7799 53.0364 39.0088 50.2676 42.0468 46.8441C43.9211 44.7333 45.041 42.1817 46.3433 39.679C47.8383 36.8114 49.4022 33.8938 50.1138 30.6886C51.19 25.8926 51.7692 20.0652 49.4115 15.5439Z" fill="#E04A6F"/>
<path d="M27.3832 27.0861C27.1808 27.1424 27.1601 27.2377 27.3251 27.3752C27.5296 27.3211 27.5482 27.2247 27.3832 27.0861Z" fill="#2C2C2C"/>
<path d="M53.4841 28.5661C54.527 22.3217 53.8873 15.023 48.6708 10.9285C43.0792 6.53969 36.6479 12.0143 33.8547 17.2988C33.3619 14.5909 32.2044 11.1163 30.4104 9.02289C28.5351 6.83393 25.5949 5.87841 22.907 5.41586C16.5986 4.33007 10.3174 6.90448 6.93449 12.632C3.38909 18.6387 5.05502 26.9862 8.23577 32.8267C9.89647 35.8756 11.3227 38.9951 13.0334 42.0245C14.6796 44.9355 16.21 47.9996 16.9289 51.3059C16.8247 50.8281 16.9362 51.3471 16.8945 51.1452C17.2352 52.7521 17.3154 54.8836 16.9341 56.7186C16.6289 58.1844 13.6762 64.5601 17.1581 62.3766C21.8881 59.4091 28.9445 59.0215 33.489 56.5806C38.1898 54.0388 43.148 50.6946 46.2089 46.0788C49.6189 40.9333 52.4568 34.7182 53.4841 28.5661ZM51.4816 30.9961C50.7659 34.2014 49.2032 37.1189 47.7081 39.9864C46.4058 42.4881 45.2868 45.0408 43.4126 47.1516C40.3735 50.5762 36.1457 53.3439 32.4003 55.3732C28.6726 57.4156 22.2319 58.5112 17.6009 60.0454C18.8397 56.1734 19.0741 52.6316 17.8697 48.6978C16.4632 44.1081 13.3606 40.4229 11.4947 36.0982C9.79957 32.1666 7.61793 28.691 6.91051 24.3597C6.12913 19.5844 6.48341 15.4247 9.5183 11.5789C14.5212 5.23565 27.1619 4.52988 30.7125 12.7526C31.5668 14.732 32.3461 16.7516 32.5191 18.9329C32.6555 20.6366 33.0952 22.4759 34.2933 20.2283C35.9311 17.1598 37.1646 14.2271 40.2193 12.277C44.4825 9.55494 48.4905 11.4659 50.7784 15.8515C53.1351 20.3705 52.5568 26.1991 51.4816 30.9961Z" fill="#2C2C2C"/>
<path d="M25.2376 11.4472C25.0991 9.94336 21.4162 10.4417 20.6306 10.4776C17.8187 10.6089 15.1401 12.0933 13.344 14.3354C10.206 18.2465 9.02239 23.9143 10.9988 28.7081C11.2353 29.2814 11.7687 30.5735 12.5011 30.5496C13.6138 30.5094 13.1012 29.3009 13.1054 28.5582C13.1273 25.4572 14.4504 22.2443 16.1944 19.785C17.6166 17.7806 19.5315 15.2106 21.5016 13.7795C22.3528 13.1627 25.1762 12.8337 25.2376 11.4472ZM21.1151 12.1486C18.8355 13.5265 16.6779 16.4451 15.1057 18.6232C13.2658 21.1737 12.1511 24.037 11.6708 27.1945C10.8227 23.8893 11.3822 19.9121 13.1971 17.0618C14.1254 15.6058 15.1891 14.2594 16.6497 13.3712C17.4863 12.8631 18.4584 12.3984 19.4075 12.1856C19.6357 12.1356 21.6214 11.8413 21.1151 12.1486Z" fill="#2C2C2C"/>
<path d="M30.5421 25.1045C30.3387 25.1597 30.3179 25.2561 30.4818 25.3925C30.6874 25.3395 30.7082 25.242 30.5421 25.1045Z" fill="#2C2C2C"/>
</svg>
