<svg width="47" height="39" viewBox="0 0 47 39" fill="none" xmlns="http://www.w3.org/2000/svg">
<path d="M10.8431 38.8498C9.06752 39.2517 7.29293 38.148 6.88768 36.3858L1.24686 11.9015C0.841608 10.1403 1.95533 8.38005 3.7309 7.97807L37.3202 0.36308C39.0948 -0.0388981 40.8704 1.06678 41.2756 2.82802L46.9164 27.3133C47.3227 29.0735 46.208 30.8338 44.4325 31.2358L10.8431 38.8498Z" fill="#7C7A7A"/>
<path d="M9.67888 38.5696C7.9033 38.9715 6.12968 37.8659 5.72443 36.1056L0.0836082 11.6203C-0.322634 9.85912 0.791047 8.09886 2.56662 7.69688L36.156 0.0828821C37.9316 -0.320079 39.7061 0.785618 40.1114 2.54587L45.7532 27.0311C46.1585 28.7924 45.0438 30.5526 43.2682 30.9546L9.67888 38.5696Z" fill="white"/>
<path d="M8.94274 37.918C8.80898 37.918 8.67422 37.9072 8.54045 37.8875C8.45821 37.8728 8.3997 37.7962 8.41358 37.7126C8.42745 37.6291 8.50576 37.5721 8.58998 37.5858C8.87336 37.632 9.16466 37.6222 9.44705 37.5583L9.60362 37.5219C9.68685 37.5033 9.76807 37.5544 9.78789 37.636C9.8077 37.7185 9.75522 37.8011 9.67298 37.8188L9.51538 37.8541C9.32713 37.8964 9.13397 37.918 8.94274 37.918ZM10.535 37.6192C10.4666 37.6192 10.4022 37.5701 10.3873 37.5003C10.3675 37.4187 10.4191 37.3372 10.5023 37.3175L11.399 37.1141C11.4822 37.0954 11.5644 37.1465 11.5843 37.2281C11.6041 37.3106 11.5516 37.3932 11.4694 37.4109L10.5706 37.6143C10.5587 37.6183 10.5479 37.6192 10.535 37.6192ZM7.70419 37.5779C7.67843 37.5779 7.64966 37.5701 7.62588 37.5554C7.34349 37.3873 7.09975 37.1711 6.90059 36.9116C6.84907 36.8458 6.86293 36.7484 6.92932 36.6983C6.9957 36.6472 7.09381 36.661 7.14534 36.7268C7.32071 36.9548 7.53575 37.1465 7.78445 37.2949C7.85777 37.3372 7.88054 37.4315 7.83694 37.5033C7.80721 37.5504 7.7577 37.5779 7.70419 37.5779ZM12.3334 37.2114C12.263 37.2114 12.1986 37.1632 12.1838 37.0934C12.1639 37.0109 12.2154 36.9293 12.2987 36.9106L13.1973 36.7072C13.2786 36.6875 13.3628 36.7396 13.3817 36.8212C13.4005 36.9037 13.349 36.9843 13.2657 37.004L12.368 37.2074C12.3542 37.2104 12.3443 37.2114 12.3334 37.2114ZM14.1287 36.8045C14.0584 36.8045 13.9959 36.7563 13.9791 36.6865C13.9593 36.604 14.0128 36.5224 14.0941 36.5027L14.9927 36.2993C15.076 36.2806 15.1582 36.3327 15.1771 36.4143C15.1969 36.4968 15.1443 36.5774 15.0621 36.5971L14.1644 36.8005C14.1525 36.8025 14.1396 36.8045 14.1287 36.8045ZM15.9261 36.3976C15.8568 36.3976 15.7923 36.3494 15.7775 36.2796C15.7577 36.1971 15.8092 36.1155 15.8924 36.0958L16.7891 35.8924C16.8733 35.8737 16.9546 35.9258 16.9744 36.0064C16.9942 36.088 16.9417 36.1705 16.8595 36.1902L15.9618 36.3936C15.9489 36.3956 15.938 36.3976 15.9261 36.3976ZM6.61823 36.1568C6.54986 36.1568 6.48838 36.1116 6.47055 36.0457C6.46064 36.0113 6.45172 35.9769 6.44479 35.9435L6.26251 35.1484C6.24269 35.0658 6.29419 34.9852 6.37742 34.9656C6.45866 34.9459 6.54189 34.997 6.56072 35.0796L6.74505 35.8737C6.75099 35.9042 6.75991 35.9346 6.76585 35.9641C6.78864 36.0457 6.74105 36.1302 6.65881 36.1509C6.64494 36.1548 6.6321 36.1568 6.61823 36.1568ZM17.7225 35.9907C17.6531 35.9907 17.5877 35.9425 17.5729 35.8718C17.5531 35.7892 17.6056 35.7086 17.6878 35.6889L18.5865 35.4855C18.6678 35.4658 18.752 35.5169 18.7708 35.5995C18.7896 35.6811 18.7381 35.7636 18.6559 35.7833L17.7572 35.9868C17.7463 35.9887 17.7334 35.9907 17.7225 35.9907ZM19.5189 35.5828C19.4495 35.5828 19.3861 35.5346 19.3693 35.4639C19.3514 35.3823 19.403 35.3017 19.4862 35.2821L20.3839 35.0786C20.4662 35.0589 20.5484 35.1101 20.5682 35.1926C20.587 35.2742 20.5365 35.3568 20.4523 35.3745L19.5546 35.5789C19.5417 35.5818 19.5308 35.5828 19.5189 35.5828ZM21.3153 35.1749C21.2459 35.1749 21.1825 35.1277 21.1667 35.057C21.1468 34.9754 21.1983 34.8928 21.2816 34.8752L22.1803 34.6717C22.2625 34.6521 22.3448 34.7032 22.3636 34.7857C22.3834 34.8673 22.3319 34.9489 22.2486 34.9676L21.3509 35.171C21.339 35.174 21.3272 35.1749 21.3153 35.1749ZM23.1126 34.7681C23.0433 34.7681 22.9799 34.7199 22.963 34.6501C22.9452 34.5685 22.9957 34.486 23.079 34.4663L23.9767 34.2629C24.0599 34.2432 24.1421 34.2963 24.162 34.3789C24.1808 34.4604 24.1283 34.541 24.046 34.5607L23.1474 34.7641C23.1355 34.7671 23.1245 34.7681 23.1126 34.7681ZM6.20506 34.3749C6.13471 34.3749 6.07229 34.3268 6.05544 34.256L5.85031 33.3655C5.83247 33.284 5.88299 33.2014 5.96721 33.1817C6.04846 33.1631 6.13069 33.2152 6.15051 33.2977L6.35564 34.1872C6.37546 34.2698 6.32292 34.3513 6.24068 34.371C6.22879 34.3739 6.21596 34.3749 6.20506 34.3749ZM24.9081 34.3612C24.8397 34.3612 24.7753 34.313 24.7584 34.2432C24.7406 34.1616 24.7921 34.0791 24.8753 34.0594L25.773 33.856C25.8553 33.8383 25.9375 33.8894 25.9574 33.97C25.9762 34.0525 25.9257 34.1341 25.8414 34.1538L24.9437 34.3572C24.9318 34.3602 24.9209 34.3612 24.9081 34.3612ZM26.7064 33.9543C26.6361 33.9543 26.5727 33.9061 26.5568 33.8353C26.537 33.7528 26.5905 33.6722 26.6717 33.6525L27.5704 33.4491C27.6527 33.4294 27.7349 33.4815 27.7537 33.5631C27.7736 33.6456 27.722 33.7272 27.6388 33.7469L26.7411 33.9503C26.7292 33.9533 26.7163 33.9543 26.7064 33.9543ZM28.5018 33.5474C28.4325 33.5474 28.369 33.4982 28.3532 33.4284C28.3344 33.3459 28.3859 33.2653 28.4691 33.2456L29.3658 33.0422C29.4491 33.0225 29.5313 33.0746 29.5511 33.1562C29.5709 33.2388 29.5174 33.3203 29.4362 33.339L28.5375 33.5424C28.5256 33.5464 28.5147 33.5474 28.5018 33.5474ZM30.3002 33.1395C30.2298 33.1395 30.1654 33.0913 30.1506 33.0216C30.1308 32.939 30.1823 32.8574 30.2655 32.8387L31.1642 32.6353C31.2464 32.6147 31.3297 32.6667 31.3475 32.7493C31.3673 32.8319 31.3158 32.9125 31.2326 32.9321L30.3339 33.1356C30.321 33.1375 30.3101 33.1395 30.3002 33.1395ZM32.0955 32.7316C32.0252 32.7316 31.9618 32.6844 31.9459 32.6147C31.9261 32.5321 31.9796 32.4505 32.0609 32.4318L32.9596 32.2274C33.0418 32.2078 33.1251 32.2598 33.1439 32.3424C33.1627 32.425 33.1112 32.5056 33.0289 32.5252L32.1312 32.7287C32.1193 32.7306 32.1064 32.7316 32.0955 32.7316ZM5.79485 32.594C5.7245 32.594 5.66208 32.5449 5.64523 32.4751L5.4401 31.5837C5.42028 31.5011 5.47283 31.4205 5.55507 31.4008C5.6383 31.3812 5.72051 31.4333 5.73934 31.5149L5.94544 32.4063C5.96525 32.4879 5.91271 32.5704 5.83047 32.5891C5.81858 32.5921 5.80575 32.594 5.79485 32.594ZM33.892 32.3247C33.8226 32.3247 33.7592 32.2775 33.7443 32.2078C33.7245 32.1252 33.776 32.0426 33.8593 32.024L34.7559 31.8205C34.8402 31.8009 34.9214 31.853 34.9412 31.9346C34.961 32.0161 34.9076 32.0987 34.8263 32.1183L33.9276 32.3218C33.9147 32.3237 33.9039 32.3247 33.892 32.3247ZM35.6893 31.9169C35.619 31.9169 35.5546 31.8697 35.5397 31.7979C35.5199 31.7164 35.5714 31.6348 35.6547 31.6161L36.5533 31.4127C36.6356 31.393 36.7188 31.4441 36.7366 31.5267C36.7565 31.6082 36.705 31.6908 36.6217 31.7104L35.724 31.9139C35.7121 31.9159 35.7002 31.9169 35.6893 31.9169ZM37.4857 31.51C37.4163 31.51 37.3519 31.4608 37.3361 31.391C37.3182 31.3095 37.3698 31.2279 37.452 31.2082L38.3507 31.0048C38.432 30.9861 38.5152 31.0372 38.535 31.1188C38.5528 31.2013 38.5023 31.2839 38.4191 31.3016L37.5214 31.505C37.5085 31.509 37.4956 31.51 37.4857 31.51ZM39.2811 31.1021C39.2117 31.1021 39.1493 31.0539 39.1335 30.9841C39.1137 30.9026 39.1652 30.82 39.2484 30.8013L40.1461 30.5979C40.2293 30.5772 40.3106 30.6303 40.3304 30.7119C40.3502 30.7945 40.2987 30.875 40.2154 30.8947L39.3168 31.0982C39.3059 31.1011 39.294 31.1021 39.2811 31.1021ZM5.38362 30.8102C5.31426 30.8102 5.25187 30.762 5.23503 30.6922L5.02989 29.8018C5.01008 29.7192 5.06262 29.6367 5.14486 29.619C5.22809 29.5993 5.30931 29.6504 5.32913 29.733L5.53523 30.6244C5.55406 30.706 5.50154 30.7876 5.4193 30.8063C5.4084 30.8102 5.39551 30.8102 5.38362 30.8102ZM41.0795 30.6952C41.0101 30.6952 40.9457 30.647 40.9298 30.5773C40.911 30.4947 40.9616 30.4131 41.0458 30.3944L41.9435 30.19C42.0257 30.1713 42.109 30.2234 42.1288 30.305C42.1466 30.3876 42.0951 30.4682 42.0119 30.4878L41.1142 30.6913C41.1013 30.6942 41.0894 30.6952 41.0795 30.6952ZM42.8749 30.2883C42.8055 30.2883 42.7421 30.2401 42.7253 30.1704C42.7074 30.0878 42.7589 30.0062 42.8412 29.9866L43.0354 29.9423C43.2573 29.8922 43.4684 29.8096 43.6626 29.6986C43.7349 29.6573 43.8301 29.6819 43.8727 29.7546C43.9153 29.8273 43.8905 29.9207 43.8171 29.963C43.5942 30.0908 43.3554 30.1841 43.1038 30.2401L42.9095 30.2844C42.8976 30.2863 42.8878 30.2883 42.8749 30.2883ZM44.4295 29.387C44.3968 29.387 44.3631 29.3762 44.3344 29.3556C44.268 29.3025 44.2551 29.2082 44.3086 29.1403C44.488 28.9143 44.6187 28.6588 44.7 28.3836C44.7237 28.302 44.809 28.2558 44.8902 28.2804C44.9725 28.304 45.019 28.3885 44.9942 28.4681C44.9021 28.7806 44.7535 29.0696 44.5504 29.3281C44.5196 29.3674 44.475 29.387 44.4295 29.387ZM4.97341 29.0293C4.90405 29.0293 4.83968 28.9811 4.82482 28.9104L4.61872 28.0199C4.59989 27.9384 4.65241 27.8558 4.73465 27.8361C4.81788 27.8184 4.8991 27.8696 4.91892 27.9521L5.12405 28.8416C5.14387 28.9241 5.09133 29.0057 5.00909 29.0254C4.99819 29.0283 4.9853 29.0293 4.97341 29.0293ZM44.9298 27.675C44.8535 27.675 44.7862 27.615 44.7793 27.5373C44.7693 27.444 44.7545 27.3526 44.7337 27.2631L44.594 26.6616C44.5741 26.5801 44.6277 26.4975 44.7089 26.4779C44.7922 26.4602 44.8744 26.5113 44.8942 26.5938L45.0329 27.1943C45.0567 27.2965 45.0735 27.4017 45.0844 27.5059C45.0933 27.5894 45.0309 27.6641 44.9477 27.672C44.9427 27.673 44.9368 27.675 44.9298 27.675ZM4.5632 27.2464C4.49384 27.2464 4.42947 27.1993 4.41461 27.1295L4.20851 26.238C4.18869 26.1555 4.24118 26.0749 4.32341 26.0552C4.40764 26.0356 4.4889 26.0877 4.50871 26.1692L4.71385 27.0607C4.73366 27.1423 4.68112 27.2238 4.59888 27.2435C4.586 27.2455 4.57509 27.2464 4.5632 27.2464ZM44.5395 25.8882C44.4691 25.8882 44.4047 25.841 44.3899 25.7712L44.1848 24.8798C44.165 24.7972 44.2174 24.7166 44.2997 24.697C44.3829 24.6773 44.4652 24.7294 44.485 24.811L44.6891 25.7024C44.7089 25.785 44.6564 25.8655 44.5742 25.8852C44.5603 25.8872 44.5494 25.8882 44.5395 25.8882ZM4.15299 25.4646C4.08364 25.4646 4.01923 25.4164 4.00338 25.3456L3.7983 24.4552C3.77849 24.3736 3.83097 24.2911 3.91321 24.2724C3.99644 24.2537 4.07869 24.3048 4.09851 24.3874L4.30364 25.2768C4.32147 25.3594 4.2709 25.441 4.18668 25.4606C4.17479 25.4636 4.16389 25.4646 4.15299 25.4646ZM44.1293 24.1063C44.0589 24.1063 43.9945 24.0591 43.9796 23.9883L43.7746 23.0979C43.7548 23.0153 43.8062 22.9338 43.8895 22.9141C43.9727 22.8954 44.055 22.9466 44.0738 23.0291L44.2789 23.9205C44.2987 24.0011 44.2462 24.0837 44.164 24.1023C44.1501 24.1053 44.1392 24.1063 44.1293 24.1063ZM3.74279 23.6837C3.67145 23.6837 3.60803 23.6345 3.59317 23.5647L3.3881 22.6733C3.36828 22.5908 3.41977 22.5102 3.503 22.4905C3.58623 22.4709 3.66848 22.523 3.6883 22.6045L3.89144 23.4959C3.91125 23.5785 3.8597 23.6601 3.77647 23.6787C3.76458 23.6817 3.75369 23.6837 3.74279 23.6837ZM43.7181 22.3254C43.6487 22.3254 43.5843 22.2763 43.5685 22.2065L43.3644 21.315C43.3445 21.2344 43.396 21.1519 43.4793 21.1322C43.5605 21.1136 43.6438 21.1657 43.6636 21.2463L43.8687 22.1377C43.8885 22.2202 43.836 22.3018 43.7538 22.3205C43.7399 22.3244 43.728 22.3254 43.7181 22.3254ZM3.33258 21.8998C3.26124 21.8998 3.19782 21.8527 3.18296 21.7819L2.97686 20.8914C2.95803 20.8089 3.00956 20.7273 3.09279 20.7086C3.17404 20.689 3.25826 20.7401 3.27609 20.8227L3.48123 21.7141C3.50105 21.7957 3.44949 21.8772 3.36626 21.8959C3.35338 21.8988 3.34348 21.8998 3.33258 21.8998ZM43.3079 20.5416C43.2365 20.5416 43.1741 20.4944 43.1583 20.4246L42.9531 19.5332C42.9343 19.4506 42.9848 19.37 43.0691 19.3504C43.1503 19.3307 43.2336 19.3828 43.2534 19.4644L43.4585 20.3558C43.4773 20.4374 43.4248 20.519 43.3436 20.5386C43.3297 20.5406 43.3178 20.5416 43.3079 20.5416ZM2.92044 20.119C2.85108 20.119 2.78766 20.0708 2.77082 20L2.56665 19.1096C2.54783 19.028 2.59938 18.9454 2.68162 18.9258C2.76485 18.9081 2.84805 18.9592 2.86589 19.0418L3.07102 19.9312C3.09084 20.0138 3.03929 20.0954 2.95606 20.115C2.94318 20.118 2.93332 20.119 2.92044 20.119ZM42.8977 18.7607C42.8263 18.7607 42.7639 18.7125 42.7481 18.6417L42.542 17.7523C42.5231 17.6697 42.5747 17.5872 42.6579 17.5685C42.7401 17.5498 42.8234 17.6009 42.8412 17.6835L43.0483 18.573C43.0671 18.6555 43.0146 18.7381 42.9323 18.7567C42.9194 18.7597 42.9076 18.7607 42.8977 18.7607ZM2.51023 18.3351C2.44087 18.3351 2.37647 18.2879 2.36061 18.2181L2.15651 17.3267C2.13669 17.2442 2.18917 17.1636 2.27141 17.1439C2.35464 17.1243 2.43586 17.1763 2.45568 17.2579L2.66081 18.1494C2.68063 18.2319 2.6271 18.3125 2.54585 18.3321C2.53297 18.3341 2.52113 18.3351 2.51023 18.3351ZM42.4855 16.9778C42.4161 16.9778 42.3537 16.9297 42.3368 16.8599L42.1317 15.9684C42.1129 15.8859 42.1645 15.8053 42.2467 15.7857C42.3299 15.766 42.4131 15.8181 42.431 15.8997L42.6371 16.7911C42.6559 16.8736 42.6044 16.9542 42.5211 16.9739C42.5093 16.9758 42.4974 16.9778 42.4855 16.9778ZM2.10002 16.5542C2.02967 16.5542 1.96626 16.507 1.9504 16.4353L1.74527 15.5458C1.72644 15.4633 1.77698 15.3807 1.8612 15.363C1.94344 15.3424 2.02572 15.3945 2.04553 15.477L2.25061 16.3665C2.27042 16.449 2.21689 16.5316 2.13564 16.5503C2.12276 16.5532 2.10993 16.5542 2.10002 16.5542ZM42.0743 15.196C42.0049 15.196 41.9405 15.1488 41.9256 15.079L41.7195 14.1876C41.7007 14.105 41.7532 14.0234 41.8355 14.0048C41.9187 13.9851 42 14.0372 42.0198 14.1188L42.2249 15.0102C42.2447 15.0908 42.1932 15.1733 42.11 15.193C42.0991 15.1949 42.0872 15.196 42.0743 15.196ZM1.68981 14.7724C1.61946 14.7724 1.55605 14.7232 1.5402 14.6534L1.33506 13.762C1.31525 13.6804 1.3668 13.5988 1.45003 13.5792C1.53326 13.5605 1.61547 13.6116 1.6343 13.6932L1.8404 14.5846C1.86022 14.6672 1.80671 14.7488 1.72447 14.7674C1.71258 14.7714 1.69972 14.7724 1.68981 14.7724ZM41.6641 13.4141C41.5947 13.4141 41.5303 13.3649 41.5154 13.2951L41.3093 12.4037C41.2895 12.3231 41.343 12.2406 41.4253 12.2219C41.5085 12.2022 41.5898 12.2534 41.6096 12.3359L41.8147 13.2264C41.8345 13.3089 41.783 13.3905 41.6998 13.4091C41.6879 13.4131 41.676 13.4141 41.6641 13.4141ZM1.27858 12.9895C1.20922 12.9895 1.14584 12.9423 1.12999 12.8725L0.924855 11.9811C0.905039 11.8986 0.95659 11.817 1.03982 11.7983C1.12206 11.7786 1.20427 11.8307 1.22409 11.9123L1.43019 12.8037C1.44803 12.8853 1.3965 12.9669 1.31426 12.9865C1.30138 12.9885 1.28948 12.9895 1.27858 12.9895ZM41.2539 11.6312C41.1845 11.6312 41.1201 11.584 41.1052 11.5143L40.8991 10.6228C40.8793 10.5403 40.9328 10.4597 41.0141 10.44C41.0973 10.4204 41.1796 10.4724 41.1994 10.554L41.4045 11.4455C41.4243 11.528 41.3718 11.6086 41.2885 11.6283C41.2776 11.6302 41.2658 11.6312 41.2539 11.6312ZM0.898125 11.2027C0.816877 11.2027 0.750462 11.1408 0.744517 11.0592C0.740553 11.0032 0.73859 10.9462 0.73859 10.8892C0.73859 10.6218 0.781187 10.3555 0.865408 10.1C0.891169 10.0204 0.979338 9.97712 1.0596 10.0027C1.13985 10.0292 1.18448 10.1147 1.15872 10.1943C1.0844 10.4194 1.04575 10.6523 1.04575 10.8882C1.04575 10.9383 1.04872 10.9884 1.05071 11.0376C1.05665 11.1211 0.993232 11.1939 0.909011 11.1997C0.904057 11.2017 0.901098 11.2027 0.898125 11.2027ZM40.8437 9.84935C40.7743 9.84935 40.7089 9.80217 40.6941 9.73042L40.4889 8.84096C40.4691 8.7584 40.5226 8.67682 40.6039 8.65716C40.6861 8.63849 40.7694 8.6896 40.7892 8.77216L40.9943 9.66261C41.0121 9.74418 40.9606 9.82674 40.8783 9.84542C40.8664 9.84837 40.8546 9.84935 40.8437 9.84935ZM1.45595 9.50733C1.42127 9.50733 1.38559 9.49552 1.35587 9.47194C1.29245 9.41788 1.28355 9.32253 1.33706 9.25766C1.5491 9.00606 1.80374 8.80067 2.09307 8.64735C2.16837 8.60804 2.26052 8.63555 2.30213 8.70926C2.34177 8.78297 2.314 8.87633 2.23869 8.91564C1.98405 9.05128 1.76016 9.23017 1.57388 9.45229C1.54416 9.48767 1.49955 9.50733 1.45595 9.50733ZM3.03933 8.65029C2.96898 8.65029 2.90458 8.60311 2.88971 8.53137C2.8699 8.45077 2.92139 8.36822 3.00462 8.34954L3.90335 8.1461C3.98559 8.12742 4.06783 8.17853 4.08665 8.2601C4.10647 8.34168 4.05492 8.42425 3.97169 8.4439L3.07398 8.64735C3.06011 8.64932 3.05023 8.65029 3.03933 8.65029ZM4.83468 8.2434C4.76433 8.2434 4.7019 8.19622 4.68506 8.12447C4.66524 8.0429 4.71878 7.96132 4.80002 7.94166L5.6987 7.73821C5.78193 7.71954 5.86321 7.77065 5.88303 7.85222C5.90284 7.93478 5.8503 8.01735 5.76806 8.03602L4.87036 8.23947C4.85847 8.24242 4.84558 8.2434 4.83468 8.2434ZM40.4335 8.06746C40.3631 8.06746 40.2987 8.0193 40.2838 7.94952L40.0787 7.05811C40.0589 6.97653 40.1104 6.89496 40.1937 6.8753C40.2759 6.85662 40.3591 6.90773 40.3779 6.9893L40.5831 7.88071C40.6019 7.96327 40.5504 8.04485 40.4681 8.06353C40.4552 8.06549 40.4444 8.06746 40.4335 8.06746ZM6.63208 7.8365C6.56272 7.8365 6.49829 7.78736 6.48343 7.71758C6.46361 7.636 6.51516 7.55442 6.59839 7.53477L7.49513 7.33132C7.57836 7.31265 7.66055 7.36375 7.68037 7.44533C7.70018 7.52788 7.6477 7.60848 7.56546 7.62814L6.66673 7.83159C6.65385 7.83552 6.64397 7.8365 6.63208 7.8365ZM8.42845 7.42763C8.3581 7.42763 8.2937 7.37948 8.27884 7.3097C8.25902 7.22714 8.31156 7.14556 8.3938 7.12688L9.29247 6.92344C9.37372 6.9028 9.45797 6.9559 9.4768 7.03747C9.49563 7.12003 9.44408 7.2006 9.36184 7.22026L8.46317 7.4237C8.45028 7.42665 8.43935 7.42763 8.42845 7.42763ZM10.2248 7.02074C10.1545 7.02074 10.0921 6.97258 10.0752 6.9028C10.0554 6.82024 10.1089 6.73869 10.1902 6.71903L11.0888 6.51558C11.1721 6.49593 11.2543 6.54901 11.2732 6.63058C11.293 6.71216 11.2404 6.7937 11.1582 6.81336L10.2605 7.01681C10.2476 7.01877 10.2357 7.02074 10.2248 7.02074ZM12.0213 6.61387C11.9519 6.61387 11.8875 6.56569 11.8726 6.49591C11.8528 6.41335 11.9043 6.33179 11.9876 6.31214L12.8842 6.10869C12.9685 6.08903 13.0507 6.1421 13.0695 6.2227C13.0894 6.30427 13.0368 6.38681 12.9546 6.40647L12.0569 6.60991C12.045 6.61188 12.0332 6.61387 12.0213 6.61387ZM40.0233 6.2846C39.9529 6.2846 39.8885 6.23744 39.8736 6.16766L39.6685 5.27622C39.6487 5.19366 39.7002 5.11208 39.7835 5.09341C39.8657 5.07375 39.9489 5.12587 39.9668 5.20744L40.1718 6.09885C40.1917 6.17945 40.1402 6.26201 40.0569 6.28166C40.0451 6.28363 40.0342 6.2846 40.0233 6.2846ZM13.8186 6.20698C13.7492 6.20698 13.6838 6.15882 13.669 6.08806C13.6511 6.0055 13.7017 5.9249 13.7849 5.90524L14.6826 5.7018C14.7649 5.68214 14.8481 5.73325 14.8679 5.8158C14.8858 5.89738 14.8342 5.97995 14.752 5.9996L13.8533 6.20305C13.8414 6.20502 13.8295 6.20698 13.8186 6.20698ZM15.614 5.7991C15.5446 5.7991 15.4812 5.75094 15.4644 5.68017C15.4466 5.5986 15.4981 5.51801 15.5813 5.49835L16.479 5.2949C16.5612 5.27525 16.6435 5.32635 16.6633 5.40891C16.6821 5.49048 16.6316 5.57304 16.5474 5.59073L15.6497 5.79517C15.6378 5.79812 15.6259 5.7991 15.614 5.7991ZM17.4114 5.39121C17.3421 5.39121 17.2786 5.34404 17.2628 5.27328C17.2429 5.1917 17.2945 5.10915 17.3777 5.09146L18.2764 4.88801C18.3586 4.86737 18.4409 4.91946 18.4597 5.00202C18.4795 5.08359 18.428 5.16516 18.3447 5.18384L17.447 5.38728C17.4341 5.39023 17.4233 5.39121 17.4114 5.39121ZM19.2078 4.98432C19.1384 4.98432 19.075 4.93617 19.0582 4.86639C19.0403 4.78481 19.0909 4.70224 19.1741 4.68258L20.0718 4.47914C20.156 4.45948 20.2372 4.51256 20.257 4.59512C20.2759 4.67571 20.2233 4.75729 20.1411 4.77694L19.2424 4.98039C19.2315 4.98334 19.2207 4.98432 19.2078 4.98432ZM21.0062 4.57743C20.9358 4.57743 20.8714 4.52927 20.8565 4.45949C20.8367 4.37792 20.8882 4.29535 20.9714 4.27569L21.8702 4.07224C21.9524 4.05259 22.0337 4.10569 22.0535 4.18628C22.0733 4.26884 22.0217 4.35039 21.9385 4.37005L21.0398 4.5735C21.027 4.57645 21.0171 4.57743 21.0062 4.57743ZM39.6111 4.50373C39.5417 4.50373 39.4783 4.45459 39.4614 4.38481L39.2583 3.49337C39.2385 3.41277 39.29 3.33022 39.3733 3.31155C39.4545 3.29189 39.5377 3.34398 39.5566 3.42555L39.7616 4.316C39.7815 4.39856 39.73 4.48112 39.6467 4.49881C39.6348 4.50274 39.6229 4.50373 39.6111 4.50373ZM22.8016 4.17053C22.7312 4.17053 22.6678 4.12237 22.6519 4.05161C22.6321 3.96905 22.6856 3.88848 22.7668 3.86883L23.6655 3.66538C23.7478 3.64572 23.83 3.69781 23.8498 3.77939C23.8687 3.86194 23.8171 3.9435 23.7339 3.96316L22.8372 4.1666C22.8253 4.16955 22.8125 4.17053 22.8016 4.17053ZM24.5979 3.76364C24.5286 3.76364 24.4652 3.7145 24.4503 3.64471C24.4305 3.56216 24.482 3.48159 24.5652 3.46193L25.4619 3.25849C25.5462 3.23883 25.6274 3.29092 25.6472 3.37249C25.667 3.45505 25.6135 3.53663 25.5323 3.5553L24.6336 3.75872C24.6207 3.76265 24.6098 3.76364 24.5979 3.76364ZM26.3953 3.35579C26.3249 3.35579 26.2605 3.3076 26.2457 3.23782C26.2258 3.15526 26.2774 3.07371 26.3606 3.05504L27.2593 2.85159C27.3415 2.83194 27.4248 2.88304 27.4426 2.9656C27.4624 3.04816 27.4109 3.12875 27.3277 3.14841L26.43 3.35186C26.4171 3.35382 26.4062 3.35579 26.3953 3.35579ZM28.1916 2.9479C28.1213 2.9479 28.0579 2.90071 28.0421 2.83093C28.0223 2.74837 28.0757 2.66681 28.157 2.64716L29.0557 2.44371C29.1379 2.42504 29.2212 2.47615 29.24 2.55871C29.2588 2.6393 29.2073 2.72186 29.125 2.74152L28.2273 2.94496C28.2144 2.94693 28.2016 2.9479 28.1916 2.9479ZM39.1949 2.72283C39.1295 2.72283 39.0681 2.6796 39.0492 2.61473C38.963 2.34052 38.8263 2.0889 38.644 1.86579C38.5905 1.80093 38.6004 1.70461 38.6658 1.65056C38.7312 1.59749 38.8283 1.60732 38.8818 1.67218C39.0898 1.92674 39.2445 2.21176 39.3416 2.5243C39.3663 2.60391 39.3207 2.6904 39.2405 2.71497C39.2246 2.72087 39.2098 2.72283 39.1949 2.72283ZM29.9871 2.54101C29.9177 2.54101 29.8543 2.49385 29.8394 2.42406C29.8196 2.34151 29.8712 2.25894 29.9544 2.24026L30.8511 2.03682C30.9353 2.01716 31.0166 2.06826 31.0364 2.15082C31.0562 2.2324 31.0027 2.31497 30.9214 2.33462L30.0227 2.53807C30.0118 2.54004 29.9999 2.54101 29.9871 2.54101ZM31.7854 2.13412C31.7161 2.13412 31.6507 2.08694 31.6358 2.01519C31.616 1.93362 31.6675 1.85204 31.7508 1.83337L32.6494 1.62992C32.7317 1.61027 32.8149 1.66137 32.8327 1.74393C32.8526 1.8255 32.8011 1.90807 32.7178 1.92773L31.8201 2.13118C31.8073 2.13314 31.7953 2.13412 31.7854 2.13412ZM33.5808 1.72722C33.5115 1.72722 33.4481 1.67808 33.4312 1.6083C33.4134 1.52672 33.4649 1.44514 33.5471 1.42549L34.4458 1.22204C34.5281 1.20337 34.6103 1.25447 34.6301 1.33605C34.649 1.4186 34.5974 1.50117 34.5142 1.51886L33.6165 1.7223C33.6046 1.72623 33.5917 1.72722 33.5808 1.72722ZM38.0604 1.33901C38.0366 1.33901 38.0098 1.3331 37.9861 1.31934C37.7314 1.17879 37.459 1.09035 37.1716 1.05399C37.0874 1.04219 37.0289 0.966502 37.0388 0.882962C37.0497 0.799421 37.1261 0.739466 37.2103 0.75126C37.5363 0.791556 37.8474 0.892787 38.1367 1.05201C38.21 1.09328 38.2378 1.18567 38.1962 1.25938C38.1664 1.31049 38.1149 1.33901 38.0604 1.33901ZM35.3772 1.31934C35.3088 1.31934 35.2454 1.27118 35.2296 1.2014C35.2098 1.11983 35.2613 1.03727 35.3445 1.01859L36.2422 0.815146C36.3254 0.796472 36.4067 0.847577 36.4265 0.929152C36.4463 1.01171 36.3948 1.09231 36.3116 1.11196L35.4129 1.31541C35.401 1.31836 35.3891 1.31934 35.3772 1.31934Z" fill="#333333"/>
<path d="M43.5774 27.5245C43.7091 28.0975 43.3495 28.6666 42.7718 28.7973L9.18247 36.4123C8.60481 36.543 8.03017 36.1853 7.89839 35.6123L2.25853 11.128C2.12576 10.555 2.4874 9.98691 3.06407 9.85521L36.6544 2.24124C37.2301 2.10954 37.8048 2.46728 37.9365 3.04027L43.5774 27.5245Z" fill="white"/>
<path d="M39.9559 9.81788C39.6447 8.60998 39.5754 7.33919 39.3584 6.11261C39.1661 5.03346 38.8897 3.80983 38.1525 2.95968C36.8763 1.48838 34.4983 2.23337 32.8783 2.49775C30.0009 2.96558 27.179 3.7145 24.3541 4.41722C18.85 5.78631 13.3261 7.10527 7.77548 8.2768C6.59836 8.52546 5.42225 8.78296 4.25802 9.09059C3.52282 9.28617 2.74402 9.53383 2.25851 10.156C1.49358 11.1417 1.99002 12.6101 1.96327 13.7413C1.95534 14.0686 2.19706 14.2514 2.4527 14.276C2.80246 16.1896 3.09181 18.113 3.45545 20.0246C3.99446 22.8502 4.88228 25.5736 5.59865 28.357C5.88401 29.4725 6.12675 30.5871 6.23673 31.733C6.32888 32.6982 6.41307 33.6682 6.66871 34.6078C6.90948 35.4963 7.33754 36.3258 8.09751 36.8772C8.81785 37.401 9.80669 37.3391 10.637 37.2015C11.5773 37.0452 12.479 36.7062 13.3826 36.4143C14.4904 36.0575 15.6516 35.8383 16.7832 35.5651C18.1456 35.2359 19.5258 35 20.8912 34.6865C22.2694 34.37 23.6219 33.9444 24.9655 33.512C27.6427 32.65 30.3358 31.6977 33.1528 31.4195C34.5538 31.2809 35.9608 31.2308 37.3589 31.0775C38.7609 30.9242 40.0985 30.4072 41.448 30.0279C41.7225 29.9522 41.9989 29.8834 42.2744 29.8185C42.5003 29.7654 42.6212 29.615 42.6608 29.445C42.751 29.4057 42.8362 29.3438 42.9016 29.2661C43.294 29.0293 43.6299 28.7187 43.8092 28.2794C44.0847 27.5973 43.9103 26.8071 43.7854 26.1122C43.5457 24.7687 43.2642 23.4321 43.0304 22.0875C42.7916 20.7165 42.6658 19.3395 42.3527 17.9813C41.7146 15.2156 40.6663 12.5629 39.9559 9.81788ZM4.06776 10.2474C5.40242 9.81887 6.81042 9.56823 8.17976 9.27928C9.5372 8.99229 10.8966 8.70727 12.2491 8.4026C17.8572 7.14555 23.4168 5.67818 29.012 4.36905C30.4289 4.03686 31.8508 3.74006 33.2856 3.50713C34.1734 3.36265 35.0581 3.13953 35.9628 3.15722C33.6938 5.82364 31.1572 8.33873 29.2796 11.299C28.3849 12.7084 27.6199 14.2151 26.5141 15.4829C25.4014 16.7586 24.1293 17.8791 22.9591 19.1007C19.7498 17.5636 16.6633 15.7748 13.342 14.4716C11.5922 13.7846 9.82852 13.1684 8.10447 12.4155C6.60632 11.7609 5.12599 11.072 3.62587 10.4243C3.76062 10.3545 3.91022 10.2965 4.06776 10.2474ZM7.5773 33.8049C7.38805 32.9075 7.33258 31.9856 7.23845 31.0775C7.11856 29.905 6.81143 28.7531 6.5122 27.617C5.8087 24.9496 4.98531 22.3323 4.46908 19.6196C3.94592 16.8805 3.58128 14.1129 2.96003 11.3914C2.95309 11.3619 2.94318 11.3324 2.93427 11.3069C2.93427 11.2971 2.93625 11.2882 2.93923 11.2793C4.51366 11.9526 6.06531 12.672 7.63281 13.362C9.35489 14.1197 11.1146 14.7546 12.8723 15.4269C13.7234 15.7512 14.5588 16.1119 15.3841 16.4952C15.3267 16.5375 15.2752 16.5945 15.2335 16.6721C14.3973 18.2083 13.771 19.8447 13.1884 21.489C12.5652 23.2483 11.9558 25.0095 11.3098 26.7599C10.6291 28.6076 10.0277 30.4799 9.25877 32.2933C8.86838 33.2152 8.1966 34.1292 7.97861 35.1248C7.77748 34.6992 7.66449 34.2176 7.5773 33.8049ZM41.2439 28.987C40.1501 29.2887 39.078 29.6603 37.9692 29.904C36.586 30.2077 35.1255 30.2028 33.7195 30.3138C30.8917 30.535 28.2214 31.3429 25.5382 32.2137C24.1907 32.65 22.8421 33.0874 21.4718 33.4481C20.1124 33.8058 18.7223 34.024 17.3499 34.3385C16.1025 34.6255 14.8372 34.8948 13.6036 35.2388C12.7178 35.4865 11.8607 35.8236 10.966 36.0457C10.3586 36.1961 9.62143 36.3533 9.00513 36.142C9.0081 36.0968 9.00512 36.0506 8.99521 35.9995C8.87829 35.3882 9.21915 34.7238 9.48271 34.1911C9.78392 33.5808 10.1228 32.9911 10.3843 32.3621C11.1314 30.5773 11.724 28.7334 12.3908 26.9191C12.9972 25.268 13.5759 23.6119 14.1575 21.9529C14.7213 20.343 15.3227 18.7381 16.1401 17.2363C16.2065 17.1134 16.2214 16.9935 16.2016 16.8825C18.323 17.9076 20.3908 19.0477 22.5152 20.06C22.6014 20.1003 22.6856 20.118 22.7668 20.118C22.9521 20.2978 23.2405 20.3558 23.4674 20.1101C24.6603 18.8334 25.992 17.6894 27.1463 16.3753C27.7596 15.6775 28.2838 14.9266 28.7772 14.1532C31.2107 15.9095 32.9269 18.5208 34.855 20.7646C36.1738 22.2979 37.5174 23.8095 38.862 25.3201C39.8152 26.3884 41.0943 27.3585 41.7968 28.6322C41.7007 28.6686 41.6056 28.704 41.5144 28.7384C41.3688 28.7934 41.2836 28.8828 41.2439 28.987ZM42.3913 24.4876C42.5836 25.4744 42.9135 26.5545 42.8778 27.5678C42.8699 27.7614 42.8045 27.9206 42.7004 28.0553C42.0029 26.8218 40.805 25.896 39.8716 24.8483C38.4884 23.2974 37.1082 21.7446 35.7517 20.1701C33.7146 17.8093 31.9103 15.0908 29.3401 13.2489C29.5689 12.8725 29.7968 12.4951 30.0286 12.1197C31.9449 9.00214 34.6301 6.40254 36.9705 3.60736C37.0091 3.56117 37.0388 3.51203 37.0596 3.46388C37.4332 3.71941 37.6868 4.11844 37.878 4.63345C38.312 5.80891 38.4359 7.08855 38.6103 8.322C38.9947 11.0474 40.0123 13.6254 40.7852 16.2564C41.5798 18.9553 41.8553 21.7347 42.3913 24.4876Z" fill="#333333"/>
<path d="M27.071 15.9389C25.6105 13.6568 22.8639 14.4755 22.2873 16.5915C20.8426 14.9335 18.0098 15.3797 17.6938 18.0648C17.2915 21.4988 23.4307 23.5362 23.9231 23.6954C24.3006 23.3406 28.9397 18.8589 27.071 15.9389Z" fill="#E1395B"/>
<path d="M27.2048 15.2038C26.3259 14.0411 24.5167 13.8995 23.2821 14.5227C22.969 14.6809 22.4726 15.02 22.1129 15.4141C21.2251 14.9227 19.9043 15.0082 19.078 15.3924C17.778 15.9969 17.2033 17.9075 17.3529 19.2186C17.5065 20.5671 18.752 21.5489 19.8251 22.2163C20.9229 22.8984 22.1328 23.3819 23.2792 23.9745C23.4932 24.0856 23.7022 24.0463 23.8578 23.9352C24.05 23.9765 24.264 23.9205 24.4097 23.719C25.3549 22.3971 26.5489 21.2718 27.3069 19.8221C28.0976 18.3085 28.2769 16.623 27.2048 15.2038ZM25.8553 20.17C25.1974 21.1607 24.3512 22.0138 23.6408 22.9671C22.8323 22.5593 22.0029 22.1927 21.2013 21.773C20.2382 21.2668 19.1761 20.6536 18.6261 19.6825C18.1159 18.7813 18.5181 17.4849 19.1008 16.7075C19.4248 16.276 20.0015 16.1473 20.5157 16.1423C20.8704 16.1404 21.3658 16.1836 21.6819 16.4126C21.7176 16.6141 21.8523 16.8048 22.1228 16.9689C22.6093 17.2638 23.0819 16.7026 22.9016 16.2977C22.8917 16.2593 22.8798 16.22 22.86 16.1807C22.856 16.1748 22.8521 16.1689 22.8501 16.161C22.9769 16.0175 23.1295 15.8947 23.2811 15.7768C23.4218 15.6686 23.5754 15.5753 23.729 15.4888C23.9133 15.3856 23.9162 15.3856 24.1699 15.3099C25.348 14.963 26.4786 15.5585 26.8244 16.7261C27.1771 17.9252 26.5013 19.2009 25.8553 20.17Z" fill="#333333"/>
</svg>
