<svg width="16" height="15" viewBox="0 0 16 15" fill="none" xmlns="http://www.w3.org/2000/svg">
<path d="M14.6961 2.5789C14.2076 2.19177 13.5465 2.10918 13.0653 2.04931L12.9655 2.03692C12.7971 2.01524 12.6007 2.00079 12.3803 2.04621C12.2754 2.0555 12.1735 2.07408 12.0758 2.10093C11.579 2.23823 11.0842 2.37656 10.6186 2.50767C10.3213 2.20106 10.0345 1.88723 9.77776 1.60438C9.70709 1.52592 9.63432 1.44849 9.56157 1.37003C9.40358 1.19867 9.23833 1.02214 9.10113 0.851805C9.06267 0.803286 9.02208 0.757863 8.98155 0.715537C8.68221 0.407903 8.27893 0.218984 7.74989 0.13743L7.67611 0.126077C7.36638 0.0785897 7.04731 0.0290349 6.67106 0.00219431C6.53386 -0.00709667 6.39975 0.013552 6.26879 0.0558776C6.23138 0.0641362 6.19502 0.0734277 6.15968 0.083751C5.51319 0.276797 5.04649 0.808446 4.94255 1.47017C4.76793 2.57786 4.53824 3.7093 4.40104 4.36277C3.53004 4.79118 2.74221 5.20308 1.99698 5.62118C1.39622 5.95772 1.05216 6.61634 1.12076 7.29768C1.18832 7.97799 1.65708 8.55506 2.31188 8.76566L2.36282 8.78218C3.265 9.07226 4.19527 9.37267 5.06315 9.52339C5.19826 10.3389 5.39574 11.4714 5.62648 12.5853C5.73665 13.1231 6.09629 13.5732 6.59208 13.8014C6.64404 13.8292 6.70013 13.8551 6.76146 13.8809C7.32999 14.1173 8.19375 14.2835 8.91716 14.0388C9.37241 13.884 9.72265 13.5877 9.93052 13.182C10.2985 12.4614 10.6435 11.7563 10.9481 11.1318C10.9845 11.0585 11.0188 10.9852 11.0552 10.915C11.1352 10.9449 11.2173 10.9748 11.3004 11.0048C11.7349 11.1638 12.1849 11.3279 12.6319 11.4848C12.7462 11.5251 12.8657 11.553 12.9863 11.5695C13.0746 11.5912 13.1484 11.6015 13.1921 11.6077C13.2482 11.6149 13.3272 11.6304 13.4114 11.6479C13.8874 11.7419 14.6067 11.8843 15.2459 11.4477C16.0036 10.9294 16.225 9.91155 15.751 9.13214L15.4922 8.70682C15.0276 7.94083 14.5474 7.14903 14.14 6.54408C14.377 6.08057 14.6244 5.64079 14.8634 5.21237L14.8717 5.19895C14.9528 5.05339 15.0349 4.9068 15.117 4.75918C15.5234 4.02829 15.3415 3.09093 14.6961 2.5789Z" fill="#CADBE3"/>
<path d="M13.584 2.95158C13.0955 2.56446 12.4344 2.48187 11.9532 2.42199L11.8534 2.4096C11.685 2.38793 11.4886 2.37347 11.2682 2.41889C11.1632 2.42819 11.0624 2.44677 10.9647 2.47361C10.4669 2.61091 9.9721 2.74924 9.50646 2.88035C9.2092 2.57375 8.92237 2.25992 8.66565 1.97706C8.59497 1.8986 8.52218 1.82118 8.45046 1.74272C8.29144 1.57135 8.12621 1.39482 7.98901 1.22449C7.95055 1.177 7.91003 1.13055 7.86949 1.08925C7.57015 0.781618 7.16685 0.5927 6.63885 0.511145L6.56507 0.499792C6.25534 0.452305 5.93519 0.402754 5.55894 0.375913C5.42174 0.366622 5.28764 0.387267 5.15667 0.429593C5.1203 0.437851 5.08394 0.447143 5.04756 0.457466C4.40107 0.650512 3.93437 1.18216 3.83043 1.84389C3.65685 2.95158 3.42716 4.08302 3.28892 4.73545C2.41792 5.16387 1.63009 5.57577 0.884857 5.99386C0.284097 6.33143 -0.0599542 6.98903 0.0086446 7.6714C0.0772434 8.35171 0.545998 8.92878 1.19977 9.13938L1.25071 9.15589C2.15288 9.44701 3.08315 9.74639 3.95103 9.89814C4.08615 10.7137 4.28362 11.8461 4.51436 12.96C4.62453 13.4968 4.98418 13.948 5.47996 14.1761C5.53297 14.204 5.58805 14.2298 5.65042 14.2556C6.21792 14.492 7.08163 14.6582 7.80504 14.4136C8.26029 14.2587 8.61053 13.9624 8.81841 13.5567C9.18635 12.8351 9.53142 12.1311 9.83596 11.5065C9.87234 11.4332 9.9077 11.361 9.94304 11.2897C10.0241 11.3197 10.1051 11.3496 10.1883 11.3795C10.6228 11.5375 11.0728 11.7016 11.5197 11.8585C11.6341 11.8988 11.7536 11.9267 11.8742 11.9432C11.9636 11.9649 12.0374 11.9752 12.08 11.9814C12.1361 11.9886 12.2151 12.0041 12.2993 12.0216C12.7753 12.1156 13.4946 12.2591 14.1338 11.8214C14.8915 11.3031 15.1129 10.2853 14.6389 9.50585L14.3811 9.08053C13.9155 8.31351 13.4353 7.52274 13.0289 6.9178C13.2659 6.45428 13.5123 6.01451 13.7513 5.58609L13.7596 5.57267C13.8417 5.42608 13.9228 5.28052 14.0049 5.1329C14.4113 4.40097 14.2305 3.46362 13.584 2.95158Z" fill="white"/>
<path d="M13.1141 4.64564C13.2711 4.36072 13.2149 3.95191 12.9489 3.74132C12.6589 3.51111 12.0821 3.45846 11.7214 3.412C11.6268 3.39962 11.528 3.39033 11.4386 3.41923C11.3659 3.44297 11.3025 3.48943 11.2433 3.53795C11.0624 3.68557 10.9013 3.85488 10.76 4.03966C10.4845 4.11709 10.2194 4.19141 9.97207 4.26058C9.7247 4.32975 9.46072 4.26265 9.27571 4.08508C8.79967 3.62879 8.35278 3.14256 7.91001 2.65427C7.67199 2.39103 7.41837 2.13398 7.19594 1.85834C7.17516 1.8346 7.15644 1.81189 7.13669 1.79228C6.97975 1.63123 6.74071 1.55071 6.48086 1.51045C6.15346 1.45987 5.84683 1.41031 5.48824 1.3845C5.47993 1.73963 5.50899 2.20418 5.6306 2.53865C5.72934 2.81222 5.74393 3.01146 5.69404 3.30361C5.58178 3.95604 5.44564 4.60641 5.30636 5.25472C5.26063 5.46841 5.11824 5.64907 4.9218 5.74611C4.14954 6.12394 3.30552 6.55545 2.4366 7.04168C1.88989 7.34725 1.96992 8.15247 2.56652 8.34449C3.51755 8.65109 4.505 8.97111 5.36352 9.09809C5.67534 9.14351 5.92167 9.38095 5.9726 9.69065C6.00897 9.91363 6.07757 10.1211 6.12434 10.3369C6.17527 10.5661 6.10355 10.8293 6.06509 11.0564C5.9757 11.5994 5.84475 12.1362 5.74809 12.6782C5.72002 12.8403 5.69818 13.022 5.79484 13.1552C5.85512 13.2367 5.94868 13.2852 6.04327 13.3245C6.55984 13.5402 7.59608 13.7126 7.90893 13.1004C8.40679 12.1238 8.86932 11.1648 9.23206 10.4267C9.39213 10.1025 9.77046 9.9477 10.1145 10.0664C10.6113 10.2378 11.1258 10.4257 11.6465 10.6156C11.7359 10.692 11.8264 10.7684 11.9158 10.8458C11.9553 10.8799 11.9957 10.914 12.0425 10.9367C12.0976 10.9625 12.1589 10.9718 12.2203 10.98C12.6204 11.0358 13.1941 11.2371 13.5558 10.9883C13.8687 10.7736 13.9633 10.3513 13.7658 10.0272C13.1827 9.06815 12.5705 8.04305 12.0903 7.34416C11.9428 7.13047 11.922 6.85586 12.0363 6.62462C12.3897 5.91851 12.7535 5.29498 13.1141 4.64564Z" fill="#F27C88" stroke="#243645" stroke-width="0.1507" stroke-miterlimit="10" stroke-linecap="round" stroke-linejoin="round"/>
<path d="M6.08064 1.63214C6.8134 2.43633 7.53785 3.26529 8.22384 3.92082C8.40885 4.09838 8.67283 4.16548 8.92021 4.09528C9.60516 3.90224 10.42 3.67409 11.238 3.44801C11.8523 3.27768 12.3688 3.92701 12.0612 4.48034C11.7005 5.12968 11.3378 5.75321 10.9844 6.46035C10.87 6.6916 10.8908 6.9662 11.0384 7.17886C11.5186 7.87775 12.1318 8.90285 12.7139 9.86189C13.0642 10.4359 12.4956 11.1286 11.8585 10.9045C10.9095 10.5711 9.95958 10.2098 9.06364 9.89905C8.72065 9.78033 8.34231 9.93518 8.18121 10.2593C7.81743 10.9975 7.35594 11.9565 6.85808 12.932C6.54938 13.536 5.64822 13.4172 5.51102 12.7545C5.28132 11.6427 5.07765 10.4772 4.92174 9.52122C4.87081 9.21255 4.62448 8.97512 4.31267 8.92969C3.45415 8.80272 2.46774 8.48269 1.51567 8.17609C0.919067 7.98408 0.840075 7.17989 1.38575 6.87329C2.25467 6.38603 3.09759 5.95451 3.87089 5.57771C4.06733 5.48067 4.20972 5.30001 4.25545 5.08632C4.38225 4.49789 4.64421 3.23225 4.83858 1.99862C4.93004 1.40709 5.6732 1.18617 6.08064 1.63214Z" fill="#F6CD6C" stroke="#243645" stroke-width="0.1507" stroke-miterlimit="10" stroke-linecap="round" stroke-linejoin="round"/>
</svg>
