<svg width="73" height="75" viewBox="0 0 73 75" fill="none" xmlns="http://www.w3.org/2000/svg">
<path opacity="0.66" d="M65.7177 22.3601C64.0468 5.9397 59.8917 3.28341 58.5 2.39394C56.5691 1.16098 54.2302 0.920219 52.0821 1.73313L51.8131 1.84091C47.6844 3.57955 44.1852 8.67262 41.3986 16.9961C38.5917 17.4101 35.9401 18.0548 33.859 18.8415C33.3626 19.0309 32.8906 19.2283 32.453 19.4328C31.9891 19.5698 31.5039 19.733 31.0065 19.9204C28.9244 20.7081 26.5144 21.9783 24.1419 23.5236C16.4795 19.1528 10.4526 17.663 6.20315 19.0934L5.93003 19.1911C3.78297 20.004 2.19835 21.7285 1.58519 23.9245C1.14258 25.508 -0.176129 30.2354 9.59374 43.5905C9.59272 43.8474 9.60084 44.0991 9.61505 44.348C10.3145 55.9805 17.9059 65.8483 30.44 71.4208C43.2655 77.1213 51.7512 74.4478 53.2902 73.8656L53.4069 73.8223C54.9753 73.2289 63.0844 69.6268 68.8302 56.8982C74.445 44.4608 73.4898 32.0838 66.2081 22.9383C66.0538 22.7429 65.8893 22.5505 65.7177 22.3601Z" fill="#075C54"/>
<path d="M57.2299 1.13477C55.2991 -0.0981912 52.9602 -0.338948 50.8121 0.473963L50.5431 0.581741C46.4145 2.32038 42.9152 7.41346 40.1286 15.737C37.3217 16.151 34.6701 16.7956 32.5891 17.5824C32.0927 17.7717 31.6206 17.9691 31.1831 18.1736C30.7191 18.3106 30.2339 18.4738 29.7365 18.6612C27.6544 19.4489 25.2444 20.7192 22.872 22.2644C15.2096 17.8936 9.18255 16.4038 4.93311 17.8342L4.66005 17.9319C2.51299 18.7448 0.928363 20.4694 0.315209 22.6653C-0.1274 24.2488 -1.44611 28.9762 8.32376 42.3313C8.32274 42.5882 8.33086 42.84 8.34507 43.0888C9.04451 54.7214 16.6358 64.5891 29.17 70.1617C41.9955 75.8621 50.4812 73.1887 52.0202 72.6064L52.1369 72.5631C53.7053 71.9698 61.8144 68.3676 67.5602 55.6391C73.175 43.2017 72.2197 30.8247 64.938 21.6792C64.7827 21.4837 64.6182 21.2903 64.4467 21.1009C62.7778 4.68154 58.6227 2.02525 57.2299 1.13477Z" fill="white"/>
<path d="M25.8637 30.0127C25.8637 30.0127 12.5834 20.4734 6.53407 22.5112C0.484751 24.549 14.2513 41.9384 14.2513 41.9384L25.8637 30.0127Z" fill="#605F5D"/>
<path d="M14.6035 36.5603C11.5205 32.1996 9.08107 27.8087 8.59176 25.6842C11.1053 25.7135 15.9892 27.8983 20.4112 30.5949L14.6035 36.5603Z" fill="#F3F2E6"/>
<path d="M14.1823 43.2631L13.56 42.4773C12.4616 41.0892 2.86527 28.7717 4.2672 23.7502C4.53621 22.7872 5.1778 22.0891 6.12291 21.7315L6.2529 21.6852C12.6575 19.5275 25.821 28.9067 26.3794 29.3056L27.1996 29.8958L14.1823 43.2631ZM6.74827 23.3604C6.32292 23.5215 6.08032 23.7864 5.95952 24.2175C5.12709 27.2012 10.4171 35.5177 14.3244 40.6087L24.5196 30.1386C20.3666 27.305 11.1074 21.8906 6.8163 23.3361L6.74827 23.3604Z" fill="#111D32"/>
<path d="M43.0969 23.4933C43.0969 23.4933 46.6074 7.60278 52.4882 5.12678C58.369 2.65179 59.7638 24.7223 59.7638 24.7223L43.0969 23.4933Z" fill="#605F5D"/>
<path d="M47.5525 20.3273C49.0447 15.3521 51.1999 10.5462 53.082 8.85694C54.1428 10.7668 55.2666 15.6523 55.8919 20.9408L47.5525 20.3273Z" fill="#F3F2E6"/>
<path d="M60.7018 25.6652L42.0219 24.2892L42.2382 23.308C42.3864 22.6412 45.9181 6.94706 52.145 4.325L52.2719 4.27366C53.2181 3.91707 54.1652 4.01272 55.0118 4.55365C59.4257 7.37416 60.5282 22.9061 60.6399 24.6669L60.7018 25.6652ZM44.1842 22.6996L58.8146 23.7775C58.4025 18.6582 56.9671 7.87582 54.0607 6.01932C53.681 5.77757 53.3227 5.7413 52.8973 5.90146L52.8303 5.9287C48.659 7.68547 45.3821 17.8423 44.1842 22.6996Z" fill="#111D32"/>
<path d="M61.0358 24.7424C55.6575 17.9893 38.677 19.8941 32.9637 22.8073C26.7458 24.4059 12.7976 34.2032 13.3153 42.7956C13.8331 51.3871 19.3058 60.3644 31.2075 65.6548C43.1092 70.9453 50.3148 67.9686 50.3148 67.9686C50.3148 67.9686 57.6909 65.4292 63.0225 53.6203C68.3531 41.8114 66.4141 31.4965 61.0358 24.7424Z" fill="#F3F2E6"/>
<path d="M61.0358 24.7424C55.6575 17.9893 38.677 19.8941 32.9637 22.8073C26.7458 24.4059 12.7976 34.2032 13.3153 42.7956C13.7661 50.2891 17.9901 58.0777 26.96 63.4558C27.5843 61.0795 26.9387 57.7604 24.951 55.2693C21.8548 51.3921 20.5118 46.8521 22.403 42.0179C24.2943 37.1828 29.633 36.0939 34.1545 38.1035C38.676 40.1131 39.1815 38.992 39.1815 38.992C39.1815 38.992 40.3114 39.4946 42.3376 35.008C44.3618 30.5214 49.0773 27.8086 53.7328 30.1658C58.3873 32.5239 60.4318 36.799 60.7221 41.7369C60.9089 44.909 62.655 47.8121 64.7157 49.174C67.8008 39.2337 65.7279 30.6332 61.0358 24.7424Z" fill="#605F5D"/>
<path d="M50.6792 68.7635L50.602 68.7917C50.6009 68.7927 50.6 68.7927 50.5979 68.7937C49.7513 69.113 42.4208 71.5951 30.848 66.4497C19.7544 61.5189 13.0442 52.9153 12.4382 42.8461C11.9235 34.3161 24.3784 25.0406 31.1972 22.4619C31.7119 22.2675 32.1992 22.1073 32.6489 21.9885C33.0641 21.7809 33.5352 21.5774 34.0498 21.382C40.8697 18.8012 56.3853 17.4978 61.7251 24.2015C68.0282 32.116 68.7926 42.969 63.8224 53.976C58.6288 65.4807 51.4781 68.4613 50.6792 68.7635ZM50.0274 67.1448L50.3664 67.9496L50.0528 67.1347C50.7827 66.8597 57.3152 64.1278 62.2194 53.2628C66.9125 42.8683 66.2293 32.6701 60.3464 25.2824C55.6016 19.324 40.8991 20.6557 34.6752 23.0099C34.1849 23.1962 33.7443 23.3876 33.3656 23.581L33.2783 23.6254L33.1829 23.6495C32.7707 23.7553 32.3129 23.9033 31.8226 24.0887C25.5987 26.4428 13.7345 35.1612 14.1903 42.7423C14.7568 52.1406 21.0893 60.2022 31.5647 64.8591C42.5132 69.7265 49.2213 67.4489 49.9492 67.1729L50.0274 67.1448Z" fill="#111D32"/>
<path d="M50.9289 59.0197C49.2011 59.6734 47.7149 59.1738 46.6327 58.3871C46.3444 59.7349 45.5343 61.134 43.6654 61.7636C39.8514 63.0449 38.5612 60.7331 38.5074 60.6334C38.279 60.2083 38.4424 59.6815 38.8698 59.4559C39.3022 59.2302 39.8302 59.3914 40.0576 59.8155C40.0738 59.8387 40.76 60.8994 43.102 60.1126C45.4977 59.3239 44.9638 56.5115 44.9415 56.3926C44.8613 55.9776 45.0917 55.5646 45.4907 55.4135C45.4907 55.4125 45.4927 55.4125 45.4937 55.4115C45.8937 55.2634 46.3434 55.4185 46.5596 55.7831C46.6215 55.8849 48.1077 58.3226 50.4264 57.3425C52.7013 56.3825 52.5034 55.1385 52.4932 55.0861C52.409 54.6217 52.7064 54.1654 53.1724 54.0646C53.6363 53.9659 54.0921 54.2379 54.2058 54.6953C54.2322 54.804 54.8199 57.3828 51.1146 58.9461C51.0527 58.9713 50.9908 58.9965 50.9289 59.0197Z" fill="#111D32"/>
<path d="M43.7233 50.813C43.7233 50.813 39.6739 52.2263 40.6626 54.799C41.3966 56.7089 44.0603 57.0453 45.381 57.0907C45.8784 57.1088 46.3373 56.9355 46.6977 56.593C47.6529 55.6864 49.4163 53.6758 48.6813 51.7649C47.6936 49.1922 43.7233 50.813 43.7233 50.813Z" fill="#111D32"/>
<path d="M32.4185 50.6134C34.1588 50.6134 35.5695 49.2136 35.5695 47.4867C35.5695 45.7599 34.1588 44.36 32.4185 44.36C30.6782 44.36 29.2674 45.7599 29.2674 47.4867C29.2674 49.2136 30.6782 50.6134 32.4185 50.6134Z" fill="#111D32"/>
<path d="M33.591 49.7109C34.0379 49.7109 34.4001 49.3514 34.4001 48.908C34.4001 48.4647 34.0379 48.1052 33.591 48.1052C33.1442 48.1052 32.782 48.4647 32.782 48.908C32.782 49.3514 33.1442 49.7109 33.591 49.7109Z" fill="#F3F2E6"/>
<path d="M49.9279 43.9904C51.6682 43.9904 53.079 42.5905 53.079 40.8636C53.079 39.1368 51.6682 37.7369 49.9279 37.7369C48.1877 37.7369 46.7769 39.1368 46.7769 40.8636C46.7769 42.5905 48.1877 43.9904 49.9279 43.9904Z" fill="#111D32"/>
<path d="M51.1004 43.0878C51.5473 43.0878 51.9095 42.7283 51.9095 42.285C51.9095 41.8416 51.5473 41.4821 51.1004 41.4821C50.6536 41.4821 50.2914 41.8416 50.2914 42.285C50.2914 42.7283 50.6536 43.0878 51.1004 43.0878Z" fill="#F3F2E6"/>
</svg>
