<svg width="55" height="45" viewBox="0 0 55 45" fill="none" xmlns="http://www.w3.org/2000/svg">
<path d="M42.5884 4.91721C40.7688 4.71956 38.7932 4.72988 36.7088 4.9512C33.1023 4.01651 30.0183 3.66441 29.6642 3.62632C29.3101 3.58824 26.222 3.26607 22.4996 3.40504C20.5106 2.74006 18.5853 2.30357 16.7636 2.10593C10.9804 1.47491 6.22556 3.25578 3.71625 6.99452C1.38963 10.4605 1.39581 14.9465 3.7327 19.2998C6.21532 23.9259 7.8348 26.7485 10.185 27.4731C9.02223 29.3703 7.62235 32.6273 11.0071 36.8107C11.9759 38.0089 13.2393 38.8428 14.7079 39.2617C16.1232 41.8877 18.9907 43.7714 22.3292 44.1338L28.1617 44.7699C31.5003 45.1333 34.7033 43.9114 36.6482 41.6519C38.1733 41.5572 39.5844 41.0168 40.7883 40.0533C44.9879 36.6975 44.3177 33.212 43.589 31.11C46.0398 30.9082 48.2259 28.4984 51.6393 24.5157C54.8547 20.7657 55.8194 16.3856 54.2882 12.4996C52.6348 8.31312 48.3706 5.54822 42.5884 4.91721Z" fill="#10181E"/>
<path d="M40.6127 2.93774C38.7931 2.73907 36.8175 2.74941 34.733 2.97072C31.1266 2.03707 28.0416 1.68499 27.6886 1.64485C27.3345 1.60676 24.2463 1.28563 20.524 1.42356C18.535 0.759608 16.6097 0.323123 14.788 0.124451C9.00478 -0.505535 4.24992 1.27634 1.74062 5.01404C-0.586002 8.47999 -0.579854 12.9661 1.75703 17.3204C4.23965 21.9454 5.85917 24.767 8.2094 25.4927C7.04557 27.3888 5.64672 30.6479 9.03146 34.8313C10.0003 36.0285 11.2636 36.8623 12.7323 37.2813C14.1475 39.9083 17.015 41.7899 20.3536 42.1533L26.186 42.7885C29.5235 43.1529 32.7277 41.93 34.6725 39.6704C36.1976 39.5757 37.6088 39.0353 38.8126 38.0728C43.0122 34.716 42.3421 31.2315 41.6134 29.1295C44.0642 28.9288 46.2502 26.519 49.6637 22.5363C52.8791 18.7852 53.8438 14.4072 52.3126 10.5202C50.6592 6.33166 46.3959 3.5667 40.6127 2.93774Z" fill="white"/>
<path d="M15.6572 27.7283L15.0681 33.1727C14.7654 35.9686 17.288 38.5359 20.7025 38.9075L26.536 39.5426C29.9505 39.9142 32.9637 37.9481 33.2665 35.1533L33.8556 29.7099L15.6572 27.7283Z" fill="#703E1B"/>
<path d="M26.4734 40.1161L20.6399 39.4809C16.9165 39.0743 14.1599 36.2168 14.4965 33.1101L15.1482 27.0933L34.4888 29.1994L33.8371 35.2173C33.5015 38.3239 30.1968 40.5217 26.4734 40.1161ZM16.1663 28.3636L15.6388 33.2336C15.3709 35.7093 17.6698 37.9966 20.7641 38.3343L26.5976 38.9694C29.6919 39.306 32.427 37.5663 32.6938 35.0906L33.2214 30.2206L16.1663 28.3636Z" fill="#482511"/>
<path d="M27.9903 29.3766L24.7236 29.0204L21.4579 28.6653C20.8421 32.1694 21.2947 34.4031 21.9567 35.7897C22.6474 37.236 24.9925 37.4923 25.9767 36.2272C26.9209 35.0167 27.8395 32.9321 27.9903 29.3766Z" fill="#F05A28"/>
<path d="M37.7915 26.1792C38.7377 23.0488 47.2026 15.0155 43.1241 10.5912C39.0456 6.16789 27.3355 4.89353 27.3355 4.89353C27.3355 4.89353 15.6254 3.61707 10.6961 7.06038C5.76575 10.5026 12.3146 20.1696 12.5691 23.4318C12.8236 26.6929 7.80606 28.1361 11.5582 32.7725C15.3093 37.4099 24.5943 30.2134 24.5943 30.2134C24.5943 30.2134 32.1232 39.2411 36.7795 35.5188C41.4358 31.7986 36.8452 29.3096 37.7915 26.1792Z" fill="#D08C61"/>
<path d="M33.5847 36.9621C29.7586 36.5452 25.7211 32.3463 24.5101 30.9917C23.0384 32.053 18.1963 35.2862 14.3703 34.8703C13.0197 34.7231 11.9225 34.1385 11.1118 33.1369C8.49266 29.8995 9.82992 27.8829 10.9034 26.2626C11.5069 25.3536 12.0755 24.4931 11.9954 23.4761C11.9287 22.6145 11.3067 21.0879 10.6479 19.4728C8.89596 15.1741 6.49649 9.28799 10.3667 6.58585C15.415 3.0602 26.9096 4.26458 27.3971 4.3181C27.8846 4.37163 39.3688 5.6687 43.5449 10.198C46.7449 13.6701 43.1426 18.9035 40.5132 22.7236C39.5238 24.1606 38.5899 25.5184 38.3405 26.345C38.0449 27.3219 38.4165 28.2833 38.8106 29.3024C39.5136 31.1162 40.3859 33.3726 37.1367 35.9708C36.1319 36.7768 34.9363 37.1103 33.5847 36.9621ZM24.6568 29.64C24.8005 29.6555 24.936 29.7244 25.0356 29.8438C25.0818 29.8984 29.7001 35.3789 33.7088 35.8174C34.7618 35.9307 35.6495 35.6867 36.4223 35.0691C39.0096 33 38.4504 31.5527 37.7402 29.7193C37.2927 28.5654 36.8308 27.3692 37.2414 26.0115C37.5441 25.0109 38.4822 23.6479 39.569 22.0699C41.9788 18.57 45.2783 13.7761 42.7033 10.9824C38.8167 6.76496 27.3899 5.47828 27.276 5.46592C27.161 5.45254 15.7209 4.25431 11.0266 7.53394C7.91279 9.70698 10.1091 15.1 11.7152 19.0384C12.4377 20.8141 13.0627 22.3458 13.1438 23.3875C13.2547 24.803 12.5476 25.8704 11.863 26.9029C10.7782 28.5406 9.92022 29.8335 12.0067 32.4122C12.6286 33.1811 13.4435 33.6104 14.4975 33.7257C18.5114 34.1621 24.1889 29.8027 24.2464 29.7585C24.3654 29.6638 24.5142 29.6246 24.6568 29.64Z" fill="#482511"/>
<path d="M35.3201 23.6943C36.2592 23.3216 36.9047 22.4354 37.3214 21.5131C38.4842 18.9396 38.1579 15.7495 36.5004 13.4653C34.8429 11.1811 31.9169 9.89022 29.1182 10.2093C28.5271 10.2762 27.9318 10.4152 27.4227 10.725C26.303 11.4044 25.8022 12.7776 25.6288 14.0788C25.2501 16.9178 26.1912 20.0297 28.4562 21.7735C29.4979 22.5733 30.7459 23.0499 31.9928 23.4565C33.0725 23.8086 34.264 24.1132 35.3201 23.6943Z" fill="#703E1B"/>
<path d="M29.0843 24.972C26.8029 23.536 23.8666 23.2179 21.3306 24.1279C20.1678 24.5448 19.2339 25.1882 19.3488 26.1671C19.4997 27.4518 20.9068 28.7323 22.2122 29.6619C23.6049 30.6542 25.4656 30.856 27.0379 30.1889C28.5127 29.562 30.1599 28.614 30.5827 27.3921C30.9071 26.4585 30.1312 25.6298 29.0843 24.972Z" fill="#161417"/>
<path d="M20.0888 18.6298C21.5512 18.6298 22.7367 17.4408 22.7367 15.974C22.7367 14.5072 21.5512 13.3182 20.0888 13.3182C18.6264 13.3182 17.441 14.5072 17.441 15.974C17.441 17.4408 18.6264 18.6298 20.0888 18.6298Z" fill="#161417"/>
<path d="M20.4131 16.6637C20.8586 16.6637 21.2198 16.3014 21.2198 15.8546C21.2198 15.4077 20.8586 15.0455 20.4131 15.0455C19.9676 15.0455 19.6065 15.4077 19.6065 15.8546C19.6065 16.3014 19.9676 16.6637 20.4131 16.6637Z" fill="white"/>
<path d="M21.5421 17.7189C21.7926 17.7189 21.9957 17.5152 21.9957 17.2639C21.9957 17.0126 21.7926 16.8089 21.5421 16.8089C21.2915 16.8089 21.0884 17.0126 21.0884 17.2639C21.0884 17.5152 21.2915 17.7189 21.5421 17.7189Z" fill="white"/>
<path d="M32.0431 19.9309C33.5055 19.9309 34.691 18.7419 34.691 17.2751C34.691 15.8083 33.5055 14.6193 32.0431 14.6193C30.5808 14.6193 29.3953 15.8083 29.3953 17.2751C29.3953 18.7419 30.5808 19.9309 32.0431 19.9309Z" fill="#161417"/>
<path d="M32.3664 17.9648C32.8119 17.9648 33.1731 17.6025 33.1731 17.1556C33.1731 16.7088 32.8119 16.3465 32.3664 16.3465C31.9209 16.3465 31.5598 16.7088 31.5598 17.1556C31.5598 17.6025 31.9209 17.9648 32.3664 17.9648Z" fill="white"/>
<path d="M33.4964 19.021C33.7469 19.021 33.95 18.8173 33.95 18.566C33.95 18.3147 33.7469 18.1111 33.4964 18.1111C33.2459 18.1111 33.0428 18.3147 33.0428 18.566C33.0428 18.8173 33.2459 19.021 33.4964 19.021Z" fill="white"/>
<path d="M20.0221 4.7032C20.0221 4.7032 11.7481 18.7122 10.5524 21.2877C9.35782 23.8632 7.96512 21.9989 4.62246 15.7732C0.239132 7.60193 6.78693 0.0153694 20.0221 4.7032Z" fill="#703E1B"/>
<path d="M9.27572 22.978C7.97027 22.8369 6.62992 20.7246 4.11754 16.045C2.26815 12.5987 2.21374 9.12547 3.96564 6.51598C5.90021 3.63472 9.73858 2.28111 14.4996 2.79889C16.2946 2.99345 18.2179 3.45252 20.214 4.1597L20.8739 4.39337L20.5178 4.99765C20.4357 5.13765 12.2448 19.0097 11.0769 21.5317C10.8952 21.9177 10.3492 23.0963 9.27572 22.978ZM14.3733 3.94458C10.0516 3.47415 6.60529 4.64661 4.91805 7.15934C3.41144 9.40341 3.4884 12.4422 5.12843 15.4994C6.29841 17.6766 8.47418 21.7324 9.39887 21.8323C9.521 21.8467 9.75295 21.646 10.0321 21.0438C11.0954 18.7503 17.5415 7.77594 19.1662 5.02027C17.4912 4.47161 15.883 4.10928 14.3733 3.94458Z" fill="#482511"/>
<path d="M34.5196 6.28237C34.5196 6.28237 39.6029 21.7458 40.2186 24.519C40.8355 27.2912 42.5945 25.7707 47.1913 20.4076C53.2208 13.3717 48.4506 4.55196 34.5196 6.28237Z" fill="#703E1B"/>
<path d="M41.1064 26.446C41.1054 26.446 41.1054 26.446 41.1064 26.446C40.0319 26.3287 39.7507 25.0615 39.6583 24.6446C39.0548 21.9311 34.025 6.61689 33.9747 6.46248L33.755 5.7975L34.4488 5.71105C36.5517 5.44958 38.5283 5.4156 40.3233 5.61222C45.0843 6.13103 48.544 8.28039 49.8156 11.5096C50.9692 14.4372 50.1717 17.8167 47.6275 20.7844C44.174 24.8134 42.4119 26.587 41.1064 26.446ZM35.2862 6.77543C36.2838 9.81727 40.231 21.9229 40.7801 24.3934C40.9237 25.0409 41.1064 25.2859 41.2296 25.3003C42.1532 25.3991 45.147 21.9085 46.7562 20.0319C49.011 17.3987 49.7366 14.4475 48.7452 11.9327C47.6357 9.11421 44.5199 7.22833 40.1981 6.7579C38.6905 6.59217 37.0402 6.59837 35.2862 6.77543Z" fill="#482511"/>
</svg>
