<svg width="76" height="72" viewBox="0 0 76 72" fill="none" xmlns="http://www.w3.org/2000/svg">
<path d="M74.7308 8.14503C74.6946 8.09113 74.6565 8.03827 74.6184 7.98748C75.1047 6.77479 75.177 5.39938 74.8128 4.1411C74.4261 2.80714 73.5804 1.72195 72.436 1.08555C71.7299 0.692723 70.9731 0.493703 70.1831 0.493703C68.358 0.493703 67.0573 1.55403 66.3591 2.12513C66.3591 2.12513 66.1648 2.28267 66.1394 2.3034C65.7049 2.67032 65.0125 3.09114 63.494 3.09114C62.123 3.09114 60.5264 2.74704 58.9835 2.41433C58.4015 2.28892 57.801 2.15933 57.2122 2.04843C55.2552 1.6784 53.5082 1.50014 51.8697 1.50014C51.1949 1.50014 50.525 1.53021 49.8825 1.5924C49.6882 1.47217 49.4899 1.36124 49.2858 1.26278C47.781 0.531021 46.2001 0.468835 45.0439 0.423229C44.8818 0.417011 44.7255 0.410803 44.5732 0.402511C43.9931 0.372453 43.4082 0.355856 42.8282 0.355856C42.1719 0.355856 41.5079 0.3766 40.8556 0.415986C40.2795 0.451226 39.7365 0.538276 39.2551 0.614976C38.8411 0.681311 38.4143 0.750768 38.1546 0.750768C38.1243 0.750768 38.1067 0.750768 38.1028 0.750768C38.1009 0.750768 38.1009 0.750768 38.1028 0.750768C36.4535 0.488538 34.7593 0.355856 33.0699 0.355856C32.1813 0.355856 31.279 0.392144 30.3884 0.464698C30.278 0.474026 30.1648 0.482304 30.0505 0.489559C29.2625 0.545529 28.1834 0.62018 27.081 1.05136C26.7148 1.19543 26.3603 1.3737 26.0224 1.58203C25.4062 1.52709 24.7774 1.49909 24.1377 1.49909C23.3536 1.49909 22.5314 1.54161 21.6965 1.6235C20.176 1.77482 18.7445 2.08367 17.3578 2.38425C15.7085 2.74184 14.15 3.07975 12.7097 3.07975C12.614 3.07975 12.5173 3.07872 12.4216 3.07561C11.5876 3.04866 10.865 2.88386 10.324 2.60194C10.244 2.54286 10.0858 2.41328 9.96762 2.31792C9.13368 1.63488 7.73629 0.491647 5.83991 0.491647C5.04503 0.491647 4.28334 0.690642 3.57635 1.08451C2.05788 1.9282 1.08332 3.4902 0.969071 5.26051C0.906575 6.23481 1.09113 7.13859 1.41729 7.93254C1.3753 7.98747 1.33526 8.04034 1.29523 8.09423C0.396836 9.34423 0.130257 10.9249 0.547227 12.549C1.21907 15.162 3.22873 16.7862 5.79011 16.7862C5.81062 16.7862 5.83014 16.7851 5.84967 16.7851C5.95416 17.2018 6.10161 17.6039 6.29203 17.9802C7.14648 19.6748 8.74698 20.6854 10.5701 20.6854C10.7303 20.6854 10.8885 20.6771 11.0506 20.6626C11.2342 21.3498 11.4529 21.9769 11.6628 22.5366C11.8249 22.9626 12.0495 23.345 12.3269 23.6757C12.653 24.6697 13.0593 25.56 13.4079 26.328L13.4401 26.3995C14.0026 27.635 14.1881 28.3803 14.1442 29.2447C14.1041 30.048 14.2984 30.8243 14.6763 31.4835C14.4478 32.2629 14.4186 33.0216 14.5865 33.7306C13.942 34.4312 13.3981 35.219 12.9675 36.0865C11.5144 39.0084 11.6023 42.1821 11.7927 44.3141C11.8728 45.1951 11.989 46.0357 12.1013 46.8493C12.281 48.1542 12.4499 49.3867 12.4275 50.5133C12.405 51.5456 12.1609 52.3043 11.5525 53.2133C10.6922 54.5037 10.6502 56.217 11.4461 57.5541C12.1286 58.6984 13.3073 59.3711 14.5533 59.37C14.7633 59.37 14.9752 59.3513 15.1861 59.312C15.4263 59.2664 15.6626 59.2166 15.8941 59.1606C16.3999 60.2842 17.187 61.2181 18.1273 61.8596C17.8314 62.6173 17.6127 63.4735 17.5688 64.4281C17.4086 67.8029 19.5521 70.6439 22.5529 71.0377C22.7706 71.0657 22.9894 71.0813 23.2071 71.0813C23.8233 71.0813 24.5381 70.9714 25.2783 70.6304C25.9746 70.931 26.7255 71.0926 27.4999 71.0926C28.616 71.0926 29.6687 70.7692 30.5817 70.1867C30.8581 70.2375 31.1384 70.2635 31.4245 70.2635C31.6881 70.2635 31.9528 70.2406 32.2125 70.195C34.1431 69.853 36.2602 68.1511 36.4144 64.4001C36.4828 62.7832 36.1322 61.1341 35.3735 59.4986C35.2739 59.2871 35.1674 59.0736 35.0532 58.856C35.063 58.8591 35.0727 58.8622 35.0815 58.8653C36.0561 59.1855 37.2708 59.5835 38.6331 59.6001H38.7034C39.9484 59.6001 41.0851 59.2218 41.9151 58.9461C42.0216 58.9098 42.2315 58.8404 42.2315 58.8404C41.4327 60.3495 40.9767 61.8773 40.8751 63.3791C40.6808 66.2865 41.6856 68.5833 43.6348 69.681C44.3173 70.0655 45.08 70.2676 45.8436 70.2676C46.1219 70.2676 46.3963 70.2438 46.6658 70.194C47.4383 70.7102 48.3083 71.0418 49.2214 71.1424C49.4137 71.1641 49.6081 71.1745 49.8014 71.1745C50.5963 71.1745 51.3677 70.9962 52.0806 70.6666C52.7925 70.9786 53.479 71.0792 54.0717 71.0792C57.1428 71.0792 59.6202 68.4061 59.715 64.994C59.7472 63.8052 59.4972 62.7511 59.1427 61.8441C60.0733 61.2026 60.8536 60.2738 61.3535 59.1596C61.584 59.2156 61.8213 59.2653 62.0615 59.3109C62.2734 59.3503 62.4853 59.369 62.6943 59.369C63.9393 59.369 65.1199 58.6974 65.8015 57.5531C66.5964 56.2171 66.5544 54.5038 65.6951 53.2123C65.0672 52.2733 64.8211 51.4648 64.8182 50.3319C64.8143 49.2498 64.9764 48.0745 65.1483 46.8317C65.284 45.845 65.4246 44.823 65.5008 43.744C65.7488 40.1879 65.1707 37.3645 63.7304 35.1111C63.0322 34.0177 62.1435 33.089 61.0694 32.3272C61.0371 32.0287 60.9717 31.7343 60.875 31.4483C61.2774 30.7683 61.4795 29.9588 61.4297 29.1255C61.3936 28.5275 61.5078 27.9823 62.2304 26.6711L62.2988 26.5467C62.7187 25.7849 63.2275 24.8593 63.6376 23.8001C63.9716 23.4756 64.2518 23.0807 64.4579 22.6288C64.7098 22.0785 64.9803 21.4234 65.2098 20.6771C65.2723 20.6792 65.3338 20.6802 65.3963 20.6802C67.1716 20.6802 68.7623 19.6987 69.6529 18.0538C69.8794 17.6361 70.0533 17.1873 70.1714 16.7219C71.2524 16.7178 72.2406 16.4317 73.1088 15.8699C74.3538 15.0656 75.2395 13.7358 75.5364 12.2236C75.8166 10.8026 75.5461 9.3774 74.7757 8.21136C74.7766 8.21447 74.7464 8.16887 74.7308 8.14503Z" fill="#B6E1E6" stroke="#3E6060" stroke-width="0.7087" stroke-miterlimit="10" stroke-linecap="round" stroke-linejoin="round" stroke-dasharray="4.25 2.83"/>
<path d="M52.5688 32.7189C51.8687 31.7519 51.4 30.788 50.3297 30.3454C46.6717 28.8311 42.71 28.146 38.7893 28.3471H38.4592C34.5376 28.146 30.5769 28.8311 26.9189 30.3454C25.8486 30.788 25.3799 31.7519 24.6797 32.7189C23.0685 34.9432 22.2179 37.7759 22.3205 40.5796C22.5246 39.8489 22.9464 39.1897 23.5089 38.7181C23.1271 41.3415 23.4991 44.0829 24.5616 46.4845C24.7373 45.5734 25.1377 44.7131 25.7119 44.0114C26.0185 46.2243 26.8925 48.3449 28.2147 50.0852C28.2586 49.5597 28.3045 49.0332 28.3485 48.5087C28.8065 50.5091 29.7849 52.3717 31.1462 53.8362C31.1305 53.2268 31.1139 52.6184 31.0964 52.0089C32.8131 54.3452 38.4583 55.4096 38.4583 55.4096H38.7922C38.7922 55.4096 44.4374 54.3452 46.1541 52.0089C46.1366 52.6184 46.1219 53.2268 46.1044 53.8362C47.4666 52.3717 48.4441 50.5091 48.902 48.5087C48.946 49.0342 48.9919 49.5607 49.0358 50.0852C50.358 48.3439 51.233 46.2233 51.5386 44.0114C52.1128 44.7131 52.5132 45.5734 52.689 46.4845C53.7514 44.0829 54.1235 41.3415 53.7416 38.7181C54.3041 39.1897 54.726 39.8489 54.93 40.5796C55.0306 37.7759 54.1801 34.9432 52.5688 32.7189Z" fill="#80CECC"/>
<path d="M38.8157 55.7029L38.4095 55.6977C38.1937 55.6573 33.523 54.7567 31.3903 52.7594L31.4401 54.568L30.9499 54.0415C29.8738 52.8858 29.0408 51.5073 28.4969 50.0003L28.4266 50.8325L27.9989 50.2708C26.7724 48.6549 25.9316 46.7488 25.5478 44.7193C25.2012 45.2708 24.9551 45.8926 24.8311 46.5446L24.6651 47.408L24.3126 46.6099C23.3439 44.4229 22.9357 41.9364 23.1378 39.5245C22.8898 39.8635 22.6994 40.2511 22.5851 40.6636L22.1105 42.3603L22.0461 40.5911C21.9416 37.7387 22.8224 34.8054 24.4629 32.5417C24.5967 32.3562 24.7227 32.1717 24.8467 31.9893C25.3789 31.2036 25.8828 30.4625 26.8202 30.0738C30.1082 28.7129 33.5738 28.0216 37.1136 28.0216C37.5658 28.0216 38.0237 28.0341 38.4739 28.0569H38.7903C39.2268 28.0341 39.6848 28.0216 40.1369 28.0216C43.6787 28.0216 47.1424 28.7129 50.4323 30.0738C51.3687 30.4625 51.8726 31.2036 52.4048 31.9893C52.5288 32.1717 52.6548 32.3562 52.7886 32.5417C54.4291 34.8054 55.3099 37.7387 55.2054 40.5911L55.141 42.3603L54.6684 40.6636C54.5521 40.2521 54.3627 39.8645 54.1137 39.5245C54.3158 41.9364 53.9077 44.4229 52.939 46.6099L52.5864 47.408L52.4224 46.5446C52.2964 45.8926 52.0523 45.2708 51.7056 44.7193C51.3199 46.7488 50.4811 48.6559 49.2526 50.2708L48.8249 50.8325L48.7546 49.9992C48.2126 51.5073 47.3797 52.8858 46.3036 54.0415L45.8114 54.568L45.8612 52.7594C43.7285 54.7567 39.0579 55.6573 38.8421 55.6977L38.8157 55.7029ZM38.4817 55.1194H38.7659C39.1585 55.0417 44.3603 53.9772 45.9354 51.8296L46.45 51.1269L46.3983 53.0641C47.4744 51.7353 48.2429 50.1505 48.6335 48.4403L49.0241 46.726L49.2438 49.3089C50.3043 47.7272 50.9986 45.8958 51.2633 43.97L51.3512 43.3419L51.7437 43.8218C52.1763 44.3504 52.5142 44.9619 52.7398 45.617C53.5424 43.4569 53.8022 41.0544 53.4682 38.7637L53.3618 38.0299L53.9116 38.4891C54.184 38.7192 54.4281 38.9897 54.6322 39.2903C54.4721 36.9903 53.6694 34.7173 52.3511 32.8972C52.2115 32.7065 52.0845 32.5168 51.9566 32.3303C51.4527 31.585 51.0162 30.9424 50.2301 30.618C47.0027 29.282 43.6084 28.6062 40.135 28.6062C39.6906 28.6062 39.2424 28.6176 38.802 28.6404H38.4583C38.0042 28.6176 37.556 28.6062 37.1117 28.6062C33.6402 28.6062 30.2439 29.282 27.0165 30.618C26.2304 30.9424 25.7959 31.5861 25.2901 32.3293C25.1641 32.5169 25.0342 32.7065 24.8955 32.8972C23.5772 34.7173 22.7746 36.9903 22.6144 39.2903C22.8205 38.9897 23.0626 38.7181 23.3351 38.4891L23.8849 38.0299L23.7784 38.7637C23.4464 41.0544 23.7042 43.4569 24.5069 45.617C24.7315 44.9609 25.0694 44.3494 25.5029 43.8218L25.8955 43.3419L25.9834 43.97C26.25 45.8958 26.9443 47.7272 28.0028 49.3089L28.2225 46.7239L28.6131 48.4403C29.0037 50.1505 29.7732 51.7353 30.8483 53.0641L30.7966 51.1559L31.3112 51.8286C32.8902 53.9782 38.0892 55.0417 38.4817 55.1194Z" fill="#202B2B"/>
<path d="M38.6819 51.0336C45.7005 51.0336 51.3902 45.8279 51.3902 39.4064C51.3902 32.9848 45.7005 27.7791 38.6819 27.7791C31.6633 27.7791 25.9736 32.9848 25.9736 39.4064C25.9736 45.8279 31.6633 51.0336 38.6819 51.0336Z" fill="#F6E00C"/>
<path d="M38.6819 46.2574C44.2595 46.2574 48.781 42.1214 48.781 37.0193C48.781 31.9172 44.2595 27.7811 38.6819 27.7811C33.1043 27.7811 28.5828 31.9172 28.5828 37.0193C28.5828 42.1214 33.1043 46.2574 38.6819 46.2574Z" fill="#FAE8C7"/>
<path d="M47.8679 38.2828C47.6795 36.7509 47.492 35.22 47.3035 33.6881C47.2654 33.3761 47.2195 33.0465 47.033 32.8029C46.8045 32.5065 46.4227 32.4111 46.0721 32.3209C43.045 31.5436 40.2267 29.878 38.0101 27.5563C36.3207 30.306 33.0875 31.3871 30.1101 32.2764C30.1062 34.168 30.1003 36.0596 30.0964 37.9512C31.8053 38.8415 33.6666 39.3981 35.5629 39.5846C36.7631 39.7038 37.97 39.6748 39.175 39.6468C42.1212 39.5774 45.1474 39.4903 47.8679 38.2828Z" fill="#C0977C"/>
<path d="M24.8829 33.9224C22.0197 34.225 18.8353 34.7059 17.0444 37.0971C15.2271 39.5235 15.5416 42.9854 15.9898 46.0492C16.4361 49.112 16.8521 52.5313 15.1637 55.0603C16.9351 54.7318 18.5033 53.3564 19.1381 51.5716C19.4466 52.3282 19.4222 53.1895 19.3402 54.0094C19.2562 54.8303 19.1185 55.6574 19.224 56.4751C19.3295 57.2929 19.7279 58.1253 20.431 58.4735C21.137 58.8218 22.1398 58.4777 22.3322 57.6775C22.2961 58.7285 22.2844 59.8635 22.8625 60.7185C23.4406 61.5736 24.8497 61.8276 25.3633 60.929C25.5235 62.0691 26.7636 62.6235 27.8368 62.7832C28.6512 62.9024 29.5398 62.9024 30.2244 62.4194C30.9109 61.9364 31.2448 60.8253 30.7126 60.1609L30.8904 34.3079C28.7606 34.3991 27.0058 33.6995 24.8829 33.9224Z" fill="#80CECC"/>
<path d="M28.6649 63.1418C28.3983 63.1418 28.1151 63.1201 27.7987 63.0724C26.7822 62.9211 25.6592 62.4297 25.2412 61.4927C24.9912 61.6824 24.6768 61.7851 24.3272 61.7851C23.669 61.7851 23.007 61.4337 22.6388 60.8895C22.173 60.2034 22.0588 59.3514 22.0441 58.5761C21.7658 58.7824 21.4133 58.9015 21.0295 58.9015C20.7776 58.9015 20.5296 58.8456 20.3147 58.7399C19.5941 58.3813 19.0843 57.552 18.9515 56.5156C18.8617 55.8066 18.9418 55.1008 19.0179 54.4177C19.0355 54.2705 19.0502 54.1265 19.0658 53.9803C19.1175 53.4828 19.1498 52.9335 19.0756 52.409C18.2807 53.9285 16.8306 55.0489 15.2115 55.3495L14.5533 55.4719L14.94 54.8924C16.5024 52.55 16.1987 49.3939 15.7164 46.0948C15.2623 42.9791 14.9342 39.4447 16.8286 36.9167C18.6556 34.4768 21.7951 33.9576 24.8565 33.6332C25.1485 33.6031 25.4424 33.5866 25.751 33.5866C26.5771 33.5866 27.3681 33.6984 28.1317 33.8073C29.0086 33.9306 29.9129 34.0581 30.8796 34.0177L31.1677 34.0053L30.988 60.0624C31.2038 60.3806 31.2917 60.7838 31.2341 61.2139C31.1579 61.7913 30.8298 62.3468 30.3777 62.664C29.9207 62.9842 29.3592 63.1418 28.6649 63.1418ZM25.5244 60.0883L25.6367 60.8864C25.7725 61.8473 26.8818 62.3458 27.8759 62.494C28.8729 62.6422 29.5603 62.5385 30.075 62.1758C30.3933 61.9519 30.6355 61.5425 30.6892 61.131C30.7175 60.9165 30.7097 60.6066 30.5046 60.3495L30.4382 60.2677L30.4402 60.1599L30.6159 34.6085C29.7136 34.6188 28.8748 34.5007 28.0604 34.3857C27.2802 34.2748 26.5419 34.1711 25.7529 34.1711C25.4609 34.1711 25.1865 34.1856 24.9121 34.2136C21.9689 34.5256 18.9554 35.0179 17.2622 37.2795C15.5074 39.623 15.8257 43.0112 16.2632 46.0046C16.6352 48.5419 17.1333 51.9468 15.7593 54.6054C17.1684 54.1213 18.3568 52.9459 18.8832 51.47L19.1234 50.7963L19.3919 51.4576C19.7357 52.2951 19.6976 53.2341 19.6156 54.0425C19.5999 54.1907 19.5833 54.339 19.5677 54.4872C19.4896 55.164 19.4193 55.8045 19.4993 56.4389C19.5814 57.0846 19.9017 57.8899 20.5501 58.2102C20.6926 58.2807 20.8606 58.3191 21.0325 58.3191C21.4612 58.3191 21.9553 58.0744 22.0686 57.6059L22.6994 54.9764L22.6095 57.6889C22.5715 58.8103 22.5832 59.8002 23.088 60.5496C23.3517 60.9393 23.8507 61.2015 24.3292 61.2015C24.5372 61.2015 24.92 61.1466 25.1299 60.7786L25.5244 60.0883Z" fill="#202B2B"/>
<path d="M29.9851 35.0677L29.7547 57.6661C29.7547 57.6661 29.6824 60.5039 28.1757 58.5937C26.6689 56.6835 26.6689 56.6835 26.6689 56.6835C26.6689 56.6835 25.8203 59.7131 25.2022 58.2393C24.586 56.7654 24.586 55.6201 24.586 55.6201C24.586 55.6201 23.9679 59.3856 23.3517 57.9117C22.7336 56.4379 22.2707 51.3622 22.2707 51.3622C22.2707 51.3622 21.5764 57.748 20.8059 55.702C20.0355 53.6559 19.7269 49.1525 19.7269 49.1525C19.7269 49.1525 17.7983 51.6089 17.644 50.3807C17.4897 49.1525 15.1646 38.7907 18.7182 36.8888C22.2707 34.9858 28.6727 35.5589 29.9851 35.0677Z" fill="#42AEA9"/>
<path d="M52.3648 33.9224C55.2298 34.225 58.4143 34.7059 60.2052 37.0971C62.0205 39.5235 61.7061 42.9854 61.2578 46.0492C60.8116 49.112 60.3956 52.5313 62.084 55.0603C60.3126 54.7318 58.7463 53.3564 58.1096 51.5716C57.801 52.3282 57.8254 53.1895 57.9094 54.0094C57.9914 54.8303 58.1291 55.6574 58.0236 56.4751C57.9182 57.2929 57.5217 58.1253 56.8167 58.4735C56.1126 58.8218 55.1078 58.4777 54.9174 57.6775C54.9515 58.7285 54.9633 59.8635 54.3852 60.7185C53.809 61.5726 52.3999 61.8276 51.8843 60.929C51.7242 62.0691 50.484 62.6235 49.4108 62.7832C48.5964 62.9024 47.7078 62.9024 47.0233 62.4194C46.3368 61.9364 46.0028 60.8253 46.535 60.1609L46.3573 34.3079C48.4871 34.3991 50.2438 33.6995 52.3648 33.9224Z" fill="#80CECC"/>
<path d="M48.5847 63.1418C47.8884 63.1418 47.3279 62.9853 46.8699 62.664C46.4178 62.3458 46.0897 61.7902 46.0135 61.2139C45.9559 60.7838 46.0438 60.3796 46.2596 60.0624L46.0799 34.0053L46.368 34.0177C46.4959 34.0229 46.6219 34.026 46.7459 34.026C47.5682 34.026 48.3552 33.9151 49.1169 33.8073C49.8815 33.6995 50.6715 33.5866 51.4976 33.5866C51.8062 33.5866 52.1001 33.6031 52.3941 33.6332C55.4535 33.9576 58.5949 34.4768 60.42 36.9167C62.3135 39.4447 61.9863 42.9802 61.5322 46.0948C61.0498 49.395 60.7461 52.551 62.3105 54.8924L62.6962 55.4719L62.0381 55.3495C60.419 55.0489 58.9709 53.9285 58.176 52.409C58.0998 52.9335 58.134 53.4818 58.1838 53.9803C58.1994 54.1254 58.2141 54.2706 58.2316 54.4167C58.3098 55.1008 58.3879 55.8076 58.298 56.5156C58.1662 57.551 57.6555 58.3813 56.9348 58.7399C56.719 58.8467 56.4729 58.9015 56.22 58.9015C55.8363 58.9015 55.4837 58.7824 55.2054 58.5771C55.1898 59.3514 55.0756 60.2034 54.6107 60.8895C54.2446 61.4337 53.5805 61.7851 52.9224 61.7851C52.5737 61.7851 52.2583 61.6824 52.0103 61.4927C51.5904 62.4297 50.4674 62.9221 49.4509 63.0724C49.1315 63.119 48.8493 63.1418 48.5847 63.1418ZM46.6356 34.6075L46.8114 60.2677L46.7449 60.3495C46.5409 60.6066 46.5311 60.9165 46.5604 61.131C46.6161 61.5415 46.8563 61.9519 47.1746 62.1758C47.6892 62.5385 48.3757 62.6412 49.3737 62.494C50.3678 62.3458 51.4771 61.8473 51.6128 60.8864L51.7252 60.0883L52.1197 60.7776C52.3316 61.1445 52.7124 61.1995 52.9204 61.1995C53.3989 61.1995 53.8989 60.9372 54.1615 60.5475C54.6693 59.7981 54.6781 58.8083 54.64 57.6868L54.5502 54.9743L55.181 57.6039C55.2933 58.0714 55.7874 58.317 56.2171 58.317C56.3909 58.317 56.5569 58.2787 56.6995 58.2082C57.3479 57.8879 57.6682 57.0825 57.7502 56.4368C57.8322 55.8014 57.76 55.163 57.6838 54.4851C57.6662 54.3369 57.6496 54.1886 57.634 54.0404C57.552 53.232 57.5159 52.2919 57.8576 51.4555L58.1262 50.7942L58.3664 51.4679C58.8927 52.9449 60.0811 54.1203 61.4903 54.6033C60.1173 51.9457 60.6153 48.5399 60.9864 46.0026C61.4229 43.0092 61.7432 39.6209 59.9894 37.2774C58.2961 35.0158 55.2806 34.5235 52.3374 34.2115C52.063 34.1835 51.7877 34.169 51.4967 34.169C50.7067 34.169 49.9704 34.2727 49.1892 34.3836C48.4089 34.4924 47.6043 34.6064 46.7459 34.6064C46.7098 34.6074 46.6717 34.6075 46.6356 34.6075Z" fill="#202B2B"/>
<path d="M21.7473 15.6264C22.1096 17.3677 23.5177 18.6229 24.9131 19.6137C28.3612 22.0609 32.2789 23.7617 36.3549 24.5774C36.5707 22.0236 36.7855 19.45 36.5229 16.9013C36.2612 14.3525 35.4848 11.7997 33.9253 9.84177C32.2203 7.70351 29.6873 6.43279 27.0878 5.95082C24.4883 5.46782 21.8146 5.71762 19.2181 6.2286C17.2133 6.6235 15.2242 7.17181 13.1891 7.26199C11.1521 7.35216 9.0126 6.93339 7.41601 5.587C6.82131 5.08742 6.08308 4.42616 5.41124 4.7993C4.94251 5.06049 4.80872 5.75079 4.99914 6.27317C5.19151 6.79556 5.62704 7.17282 6.07526 7.46822C7.51366 8.41453 9.29677 8.75242 10.9539 8.39276C9.76745 9.62617 8.07418 10.2916 6.41704 10.1766C5.72665 10.1278 4.88782 10.0159 4.47964 10.6098C4.08122 11.1933 4.48355 12.0858 5.10559 12.3729C5.72958 12.66 6.44829 12.5087 7.09474 12.2879C8.63763 11.7624 10.0662 10.8627 11.241 9.67593C11.6716 10.1838 11.6834 10.9767 11.447 11.6141C11.2127 12.2516 10.7752 12.7771 10.368 13.3078C10.0399 13.7327 9.71959 14.1867 9.58777 14.7174C9.45398 15.2491 9.55164 15.8782 9.95005 16.2296C10.5926 16.7955 11.617 16.3353 12.1033 15.6129C12.5876 14.8925 12.7536 13.9836 13.1637 13.2114C14.0524 11.5281 15.9507 10.7383 17.7543 10.4979C18.9154 10.3434 20.2639 10.4409 21.0022 11.4069C21.8664 12.5366 21.4524 14.2064 21.7473 15.6264Z" fill="#F6E00C"/>
<path d="M36.6029 24.9236L36.3031 24.8645C32.2125 24.0447 28.2205 22.3127 24.7608 19.8562C23.4405 18.9193 21.8752 17.5988 21.4787 15.6886C21.3684 15.1558 21.3528 14.5972 21.3371 14.0572C21.3108 13.1233 21.2854 12.2402 20.7873 11.5903C20.3528 11.0192 19.6165 10.73 18.6019 10.73C18.3441 10.73 18.0717 10.7508 17.7875 10.7881C16.5708 10.9508 14.3834 11.5001 13.401 13.3544C13.235 13.6685 13.113 14.0064 12.9811 14.3629C12.8034 14.8449 12.6227 15.3424 12.3249 15.7839C11.9265 16.3768 11.2468 16.7748 10.6336 16.7748C10.3094 16.7748 10.0116 16.6649 9.7733 16.4545C9.32313 16.0576 9.14345 15.3465 9.31923 14.6427C9.46766 14.0468 9.82798 13.5462 10.1532 13.1233L10.2811 12.9574C10.6492 12.4838 10.9959 12.036 11.1912 11.5084C11.3338 11.1177 11.4031 10.5601 11.1951 10.1195C10.0389 11.2193 8.65617 12.0629 7.17871 12.5656C6.668 12.7408 6.25201 12.8217 5.8741 12.8217C5.5538 12.8217 5.25791 12.7605 4.99718 12.6392C4.56654 12.4413 4.22086 12.0132 4.09489 11.523C3.99333 11.126 4.05095 10.7404 4.25894 10.4378C4.62318 9.90397 5.23937 9.84177 5.67001 9.84177C5.878 9.84177 6.086 9.85835 6.28618 9.87286L6.4346 9.88428C7.71286 9.97342 9.00381 9.57953 10.0448 8.81253C8.59368 8.90478 7.14747 8.51819 5.93073 7.71595C5.53818 7.45683 4.98644 7.036 4.74426 6.37783C4.51967 5.76424 4.66029 4.8874 5.28428 4.54122C5.45419 4.44586 5.63876 4.39818 5.83211 4.39818C6.45219 4.39818 7.04493 4.89879 7.52147 5.30302L7.58786 5.35796C9.1786 6.7002 11.2273 6.98107 12.6647 6.98107C12.8366 6.98107 13.0065 6.97694 13.1774 6.96968C14.6763 6.90438 16.187 6.57582 17.6479 6.25969C18.1537 6.15086 18.6605 6.04098 19.1683 5.94044C21.0217 5.5756 22.6505 5.39939 24.1465 5.39939C25.1895 5.39939 26.1972 5.48749 27.1356 5.66266C30.0251 6.19852 32.5104 7.6154 34.1353 9.65312C35.5776 11.4607 36.4965 13.9545 36.7982 16.8681C37.0629 19.4572 36.8441 22.0723 36.6302 24.6033L36.6029 24.9236ZM18.6029 10.1475C19.7913 10.1475 20.6702 10.5093 21.216 11.2224C21.8303 12.0256 21.8605 13.0507 21.8879 14.0405C21.9035 14.5536 21.9182 15.0853 22.0178 15.5642C22.3722 17.2702 23.8331 18.4954 25.0674 19.3712C28.3836 21.725 32.1949 23.402 36.1107 24.2302C36.3109 21.8297 36.4994 19.3556 36.2523 16.9334C35.9643 14.137 35.0874 11.7499 33.7173 10.0315C32.1764 8.09842 29.8054 6.75201 27.0439 6.23999C26.1338 6.07104 25.1611 5.98501 24.1485 5.98501C22.6876 5.98501 21.091 6.15915 19.2699 6.51777C18.766 6.61727 18.2631 6.72611 17.7592 6.83598C16.2788 7.15625 14.7457 7.48792 13.2028 7.55529C13.0231 7.56359 12.8464 7.56773 12.6667 7.56773C10.4793 7.56773 8.60442 6.96243 7.24609 5.81816L7.17968 5.76217C6.76955 5.41495 6.26079 4.98376 5.83308 4.98376C5.72859 4.98376 5.6329 5.00865 5.5411 5.06047C5.19737 5.25118 5.1173 5.78704 5.25889 6.16847C5.39658 6.54575 5.7032 6.88053 6.22172 7.22257C7.58005 8.11602 9.33484 8.44978 10.9002 8.10877L11.8162 7.90978L11.1482 8.60316C9.90709 9.89358 8.14448 10.5891 6.39945 10.4699L6.24711 10.4574C6.05669 10.4429 5.86042 10.4295 5.67098 10.4295C5.16905 10.4295 4.87219 10.5383 4.70423 10.7839C4.56654 10.984 4.58608 11.2151 4.62807 11.3726C4.7101 11.6908 4.94054 11.979 5.21787 12.1065C5.66218 12.3127 6.20221 12.2889 7.01271 12.0122C8.51361 11.5001 9.91001 10.6202 11.0525 9.4676L11.2566 9.26134L11.447 9.48314C11.907 10.0231 12.0076 10.9031 11.7068 11.723C11.4802 12.3387 11.0887 12.8424 10.7098 13.3306L10.5838 13.4943C10.2801 13.8872 9.97544 14.3111 9.85533 14.7941C9.75572 15.1921 9.80161 15.7217 10.1278 16.0068C10.2674 16.1301 10.4383 16.1933 10.6365 16.1933C11.073 16.1933 11.5847 15.8865 11.8796 15.4471C12.1374 15.0656 12.2995 14.622 12.4704 14.1546C12.6022 13.7939 12.739 13.4218 12.9245 13.0714C14.0231 10.9933 16.4018 10.3869 17.7211 10.2107C18.0248 10.1672 18.3226 10.1475 18.6029 10.1475Z" fill="#202B2B"/>
<path d="M16.6665 8.50059C19.9778 7.47551 23.4825 7.16975 26.9062 7.6061C27.2606 7.65171 27.5507 7.27445 27.4022 6.9293C27.3964 6.91686 27.3905 6.90545 27.3847 6.89302C27.3124 6.74687 27.1688 6.65565 27.0145 6.64114C23.088 6.25764 19.0921 6.67742 15.3101 7.86108C14.7261 8.0435 14.9664 8.97323 15.5581 8.82605C15.9341 8.73069 16.3081 8.6115 16.6665 8.50059Z" fill="white"/>
<path d="M54.266 15.6264C53.9037 17.3677 52.4956 18.6229 51.1002 19.6137C47.6521 22.0609 43.7344 23.7617 39.6584 24.5774C39.4426 22.0236 39.2278 19.45 39.4904 16.9013C39.7521 14.3525 40.5285 11.7997 42.088 9.84177C43.7929 7.70351 46.326 6.43279 48.9255 5.95082C51.525 5.46782 54.1986 5.71762 56.7952 6.2286C58.8 6.6235 60.7891 7.17181 62.8261 7.26199C64.8612 7.35216 67.0026 6.93339 68.5973 5.587C69.192 5.08742 69.9302 4.42616 70.6021 4.7993C71.0708 5.06049 71.2046 5.75079 71.0142 6.27317C70.8218 6.79556 70.3882 7.17282 69.938 7.46822C68.4996 8.41453 66.7165 8.75242 65.0594 8.39276C66.2459 9.62617 67.9391 10.2916 69.5963 10.1766C70.2867 10.1278 71.1255 10.0159 71.5336 10.6098C71.9321 11.1933 71.5297 12.0858 70.9077 12.3729C70.2857 12.66 69.565 12.5087 68.9186 12.2879C67.3757 11.7624 65.947 10.8627 64.7723 9.67593C64.3416 10.1838 64.3299 10.9767 64.5662 11.6141C64.8006 12.2516 65.2381 12.7771 65.6453 13.3078C65.9734 13.7327 66.2937 14.1867 66.4255 14.7174C66.5593 15.2491 66.4617 15.8782 66.0632 16.2296C65.4207 16.7955 64.3963 16.3353 63.91 15.6129C63.4257 14.8925 63.2597 13.9836 62.8495 13.2114C61.9609 11.5281 60.0626 10.7383 58.259 10.4979C57.0979 10.3434 55.7493 10.4409 55.0111 11.4069C54.1479 12.5366 54.5619 14.2064 54.266 15.6264Z" fill="#F6E00C"/>
<path d="M39.4104 24.9236L39.384 24.6033C39.1702 22.0723 38.9514 19.4551 39.218 16.8681C39.5178 13.9545 40.4367 11.4597 41.879 9.65312C43.5039 7.6154 45.9891 6.19852 48.8786 5.66266C49.8171 5.48749 50.8238 5.39939 51.8677 5.39939C53.3627 5.39939 54.9916 5.57664 56.846 5.94044C57.3538 6.04098 57.8606 6.14983 58.3664 6.25969C59.8272 6.57582 61.3379 6.90335 62.8388 6.96968C63.0087 6.97694 63.1786 6.98107 63.3495 6.98107C64.7879 6.98107 66.8357 6.7002 68.4283 5.35796L68.4928 5.30302C68.9693 4.89879 69.563 4.39818 70.1821 4.39818C70.3745 4.39818 70.5601 4.44586 70.73 4.54122C71.354 4.8874 71.4946 5.76527 71.27 6.37783C71.0278 7.036 70.478 7.45683 70.0835 7.71595C68.8668 8.51715 67.4186 8.90374 65.9695 8.81253C67.0105 9.57953 68.2965 9.97445 69.5797 9.88428L69.7281 9.87286C69.9283 9.85731 70.1363 9.84177 70.3443 9.84177C70.7749 9.84177 71.3911 9.90501 71.7553 10.4378C71.9633 10.7404 72.02 11.126 71.9194 11.524C71.7934 12.0143 71.4487 12.4413 71.0171 12.6392C70.7554 12.7605 70.4605 12.8217 70.1402 12.8217C69.7622 12.8217 69.3482 12.7408 68.8355 12.5656C67.3571 12.0629 65.9763 11.2182 64.8192 10.1195C64.6112 10.5601 64.6795 11.1177 64.8231 11.5084C65.0174 12.037 65.365 12.4827 65.7312 12.9564L65.8611 13.1233C66.1853 13.5451 66.5456 14.0468 66.695 14.6427C66.8708 15.3465 66.6911 16.0576 66.241 16.4545C66.0027 16.6639 65.7049 16.7748 65.3807 16.7748C64.7684 16.7748 64.0878 16.3768 63.6893 15.7839C63.3915 15.3434 63.2109 14.8449 63.0331 14.3639C62.9033 14.0064 62.7792 13.6685 62.6132 13.3544C61.6309 11.5001 59.4435 10.9518 58.2268 10.7881C57.9445 10.7508 57.6701 10.73 57.4123 10.73C56.3977 10.73 55.6615 11.0192 55.2269 11.5903C54.7289 12.2402 54.7045 13.1233 54.6771 14.0572C54.6615 14.5972 54.6469 15.1558 54.5355 15.6886C54.1391 17.5988 52.5728 18.9182 51.2535 19.8562C47.7937 22.3127 43.8017 24.0447 39.7111 24.8645L39.4104 24.9236ZM51.8667 5.98295C50.8541 5.98295 49.8815 6.06898 48.9714 6.23793C46.2098 6.74995 43.8388 8.09633 42.2979 10.0294C40.9288 11.7479 40.051 14.1349 39.7629 16.9313C39.5149 19.3525 39.7033 21.8266 39.9045 24.2281C43.8203 23.4 47.6326 21.724 50.9478 19.3691C52.1821 18.4933 53.643 17.2702 53.9975 15.5621C54.099 15.0833 54.1117 14.5516 54.1274 14.0385C54.1557 13.0487 54.185 12.0246 54.7992 11.2203C55.3451 10.5072 56.2239 10.1455 57.4123 10.1455C57.6926 10.1455 57.9904 10.1662 58.2971 10.2066C59.6153 10.3828 61.9931 10.9892 63.0917 13.0673C63.2763 13.4176 63.414 13.7897 63.5458 14.1504C63.7177 14.6189 63.8798 15.0615 64.1366 15.4429C64.4325 15.8824 64.9432 16.1892 65.3797 16.1892C65.5779 16.1892 65.7478 16.126 65.8884 16.0026C66.2146 15.7176 66.2605 15.188 66.1609 14.7899C66.0408 14.3069 65.7351 13.883 65.4324 13.4902L65.3065 13.3264C64.9266 12.8382 64.536 12.3335 64.3094 11.7188C64.0077 10.899 64.1092 10.019 64.5692 9.47899L64.7596 9.2572L64.9637 9.46346C66.1062 10.616 67.5026 11.496 69.0035 12.008C69.814 12.2858 70.354 12.3086 70.7983 12.1023C71.0747 11.9748 71.3061 11.6867 71.3882 11.3685C71.4301 11.211 71.4497 10.9798 71.312 10.7798C71.144 10.5352 70.8462 10.4253 70.3452 10.4253C70.1568 10.4253 69.9595 10.4398 69.7691 10.4533L69.6168 10.4657C67.8698 10.586 66.1091 9.88944 64.868 8.59902L64.2001 7.90561L65.116 8.10463C66.6833 8.44459 68.4362 8.11187 69.7945 7.21843C70.313 6.87639 70.6206 6.54264 70.7573 6.16433C70.8989 5.7829 70.8189 5.246 70.4751 5.05633C70.3833 5.0045 70.2886 4.97962 70.1831 4.97962C69.7554 4.97962 69.2467 5.4108 68.8365 5.75698L68.7701 5.81401C67.4118 6.95829 65.5369 7.56358 63.3495 7.56358C63.1698 7.56358 62.9931 7.55944 62.8134 7.55115C61.2705 7.48378 59.7394 7.15107 58.257 6.83183C57.7531 6.723 57.2502 6.61313 56.7464 6.51363C54.9242 6.15708 53.3296 5.98295 51.8667 5.98295Z" fill="#202B2B"/>
<path d="M59.424 8.50059C56.1146 7.47551 52.6079 7.16975 49.1862 7.6061C48.8317 7.65171 48.5398 7.27445 48.6902 6.9293C48.6941 6.91686 48.6999 6.90545 48.7077 6.89302C48.78 6.74687 48.9235 6.65565 49.0778 6.64114C53.0044 6.25764 56.9983 6.67742 60.7803 7.86108C61.3643 8.0435 61.1241 8.97323 60.5323 8.82605C60.1563 8.73069 59.7843 8.6115 59.424 8.50059Z" fill="white"/>
<path d="M65.4412 15.2533C64.4286 14.5951 63.7001 13.4643 63.4882 12.2247C64.6629 12.6372 65.5037 13.94 65.4412 15.2533Z" fill="white"/>
<path d="M37.5208 4.89669C34.729 4.45308 31.862 4.4344 29.0584 4.82723C26.7236 5.15372 25.7803 8.20825 27.4452 9.97545C27.9452 10.5072 28.4217 11.043 28.8797 11.5364C30.7107 13.5088 32.0153 15.8627 33.442 18.1191C34.1665 19.2634 34.9389 20.3993 35.8188 21.44C36.3627 22.0816 37.1371 22.4464 37.9476 22.4464C38.76 22.4464 39.5344 22.0816 40.0764 21.44C40.9552 20.3993 41.7296 19.2634 42.4532 18.1191C43.8799 15.8627 45.1845 13.5099 47.0154 11.5364C47.4734 11.043 47.95 10.5072 48.4499 9.97545C50.1149 8.20825 49.1706 5.15476 46.8367 4.82723C44.0351 4.4344 41.1681 4.45411 38.3743 4.89669C38.0892 4.9423 37.803 4.9423 37.5208 4.89669Z" fill="#80CECC"/>
<path d="M37.9456 22.7366C37.057 22.7366 36.2065 22.3354 35.6128 21.6348C34.8443 20.7258 34.1041 19.6914 33.2115 18.2818C32.9371 17.8444 32.6637 17.4049 32.3932 16.9644C31.2849 15.1702 30.1404 13.3129 28.6815 11.7416C28.4872 11.5332 28.2889 11.3145 28.0888 11.0938C27.8163 10.7942 27.5361 10.4874 27.2499 10.1827C26.3974 9.27785 26.1094 7.96151 26.498 6.74676C26.8818 5.54962 27.8485 4.70281 29.0213 4.53905C31.8493 4.14207 34.77 4.16694 37.5619 4.60952C37.8158 4.64994 38.0746 4.64994 38.3304 4.60952C41.1222 4.1659 44.041 4.14207 46.869 4.53905C48.0418 4.70281 49.0085 5.54962 49.3923 6.74676C49.7809 7.96255 49.4939 9.27785 48.6404 10.1827C48.3543 10.4874 48.076 10.7942 47.8035 11.0927C47.6014 11.3145 47.4031 11.5332 47.2088 11.7426C45.7519 13.3129 44.6055 15.1692 43.4991 16.9644C43.2266 17.4049 42.9551 17.8454 42.6788 18.2818C41.7863 19.6924 41.0461 20.7258 40.2775 21.6348C39.6858 22.3365 38.8362 22.7366 37.9456 22.7366ZM33.0651 4.83963C31.7419 4.83963 30.4041 4.93292 29.0946 5.11742C28.1141 5.25527 27.3398 5.93311 27.0195 6.93332C26.6992 7.93663 26.9375 9.02389 27.6396 9.76912C27.9296 10.077 28.2098 10.3858 28.4842 10.6864C28.6844 10.9072 28.8807 11.1238 29.075 11.3321C30.5701 12.9439 31.7321 14.8251 32.8531 16.6441C33.1236 17.0836 33.3951 17.522 33.6695 17.9563C34.5445 19.3431 35.272 20.3568 36.0229 21.2461C36.5112 21.8234 37.2113 22.1551 37.9456 22.1551C38.68 22.1551 39.3801 21.8234 39.8684 21.2461C40.6203 20.3589 41.3468 19.3431 42.2237 17.9563C42.4981 17.521 42.7696 17.0825 43.0401 16.6441C44.1611 14.824 45.3212 12.9439 46.8182 11.3321C47.0106 11.1238 47.2069 10.9072 47.409 10.6864C47.6815 10.3848 47.9637 10.0759 48.2517 9.76912C48.9558 9.02286 49.1921 7.93559 48.8718 6.93332C48.5515 5.93311 47.7772 5.25527 46.7967 5.11742C44.0195 4.7277 41.1535 4.75048 38.4105 5.1858C38.1038 5.23555 37.7865 5.23555 37.4799 5.1858C36.0327 4.95674 34.5474 4.83963 33.0651 4.83963Z" fill="#202B2B"/>
<path d="M58.2102 10.7424C55.2142 8.50052 52.8618 7.77706 48.9636 8.24141C43.8164 8.85604 42.3702 11.5126 39.7072 15.4325C39.1311 16.2773 38.6663 17.18 38.3108 18.1139C38.0169 17.18 37.638 16.2773 37.1625 15.4325C34.9556 11.5126 30.947 8.855 26.6845 8.24141C23.4571 7.77706 19.9749 8.50052 17.4956 10.7424C15.0142 12.9843 13.7819 16.8763 14.9947 20.0863C15.1363 19.3805 15.5289 18.7337 16.0777 18.3067C15.2652 19.9288 15.816 21.9281 16.5503 23.5917C17.2846 25.2553 18.2152 26.9427 18.1234 28.7772C18.6361 28.3005 18.9916 27.6329 19.1117 26.9198C19.516 28.8591 19.2738 30.9424 18.4398 32.719C21.3889 35.1619 25.3418 36.2098 29.0135 35.4428C32.6832 34.6758 35.9907 32.0805 37.6917 28.544C37.932 28.0424 38.14 27.5241 38.3138 26.9934C38.5237 27.5241 38.7737 28.0424 39.0657 28.544C41.1183 32.0805 42.6456 34.6758 47.076 35.4428C51.5064 36.2098 53.5053 35.1619 57.0657 32.719C56.057 30.9424 55.765 28.8591 56.2532 26.9198C56.3978 27.6329 56.8274 28.3005 57.4475 28.7772C57.3372 26.9427 58.4601 25.2553 59.3468 23.5917C60.2335 21.9281 60.8995 19.9298 59.9191 18.3067C60.5811 18.7337 61.0557 19.3805 61.2276 20.0863C62.6943 16.8763 61.2051 12.9843 58.2102 10.7424Z" fill="#80CECC"/>
<path d="M49.6589 35.9818C48.8689 35.9818 48.0095 35.8999 47.034 35.731C42.4561 34.937 40.8566 32.1831 38.8333 28.6974C38.6555 28.3917 38.4895 28.0745 38.3391 27.7501C38.2171 28.0673 38.0833 28.3771 37.9388 28.6777C36.226 32.2412 32.8277 34.9433 29.0682 35.73C28.2674 35.8979 27.4354 35.9828 26.6025 35.9828C23.5909 35.9828 20.635 34.9059 18.2738 32.9491L18.0961 32.8019L18.1977 32.5884C18.8519 31.1943 19.1283 29.6303 19.0062 28.088C18.8226 28.4279 18.5883 28.7368 18.308 28.9969L17.8178 29.453L17.852 28.7617C17.9262 27.2681 17.268 25.8305 16.6333 24.4406C16.521 24.198 16.4097 23.9555 16.3052 23.7151C15.6031 22.1292 15.3091 20.7777 15.4244 19.6303C15.3541 19.7961 15.3003 19.9702 15.2662 20.1475L15.0777 21.0855L14.7418 20.1952C13.5417 17.0225 14.6256 12.9543 17.3188 10.5206C19.2494 8.77727 21.9133 7.81644 24.8242 7.81644C25.4551 7.81644 26.0966 7.86311 26.7255 7.95432C31.1882 8.5959 35.1782 11.3374 37.4007 15.2843C37.7591 15.9186 38.0735 16.6038 38.3391 17.3272C38.6594 16.6069 39.0432 15.9145 39.4875 15.2636C39.6672 14.9982 39.8401 14.7391 40.0119 14.4862C42.335 11.0337 44.0156 8.53992 48.9362 7.95223C49.7028 7.86102 50.3912 7.81644 51.0416 7.81644C53.7309 7.81644 55.7865 8.57103 58.3713 10.5051C61.627 12.9429 62.9355 17.0256 61.4805 20.2148L61.1524 20.9311L60.9659 20.1599C60.9014 19.8894 60.7842 19.6261 60.6241 19.3857C60.8458 20.5921 60.502 22.0297 59.59 23.7358C59.462 23.9762 59.3283 24.2188 59.1954 24.4613C58.4289 25.8461 57.6369 27.2785 57.7268 28.7586L57.7649 29.3784L57.2903 29.0136C56.9016 28.713 56.5804 28.346 56.3499 27.9387C56.1653 29.5204 56.4925 31.1342 57.3059 32.5676L57.4436 32.8102L57.22 32.9625C54.56 34.7857 52.5991 35.9818 49.6589 35.9818ZM38.2913 26.1788L38.5696 26.8805C38.7757 27.4028 39.0217 27.9107 39.302 28.3906C41.3273 31.8815 42.792 34.4043 47.1219 35.1547C48.0681 35.3185 48.8972 35.3972 49.6589 35.3972C52.3784 35.3972 54.1655 34.3535 56.6985 32.6236C55.7542 30.8253 55.5023 28.7834 55.9905 26.8442L56.2825 25.6781L56.5247 26.8587C56.6204 27.3261 56.8489 27.7677 57.1829 28.1419C57.2952 26.7364 58.0178 25.4315 58.7179 24.1649C58.8498 23.9255 58.9826 23.686 59.1105 23.4477C60.2433 21.3229 60.4327 19.6925 59.6905 18.4642L59.046 17.4008L60.0645 18.0569C60.5626 18.3792 60.9668 18.8187 61.2295 19.3183C62.1338 16.496 60.8692 13.0911 58.052 10.9819C55.5687 9.12346 53.602 8.4 51.0387 8.4C50.4088 8.4 49.7399 8.44352 48.9939 8.53266C44.3173 9.09029 42.7803 11.3716 40.4552 14.8252C40.2853 15.0781 40.1096 15.3382 39.9289 15.6035C39.3762 16.4192 38.9163 17.3013 38.5667 18.2227L38.2884 18.9607L38.0501 18.2062C37.7542 17.265 37.3773 16.3809 36.9271 15.5828C34.8218 11.8421 30.8835 9.14006 26.6493 8.53061C26.0449 8.44354 25.4287 8.39896 24.8223 8.39896C22.0431 8.39896 19.5052 9.31004 17.6742 10.9653C15.3746 13.0445 14.3248 16.3871 15.0093 19.196C15.2271 18.7544 15.5376 18.3647 15.9155 18.0704L16.8881 17.3138L16.3218 18.4435C15.6997 19.6852 15.856 21.328 16.8022 23.4684C16.9067 23.7057 17.0161 23.9462 17.1264 24.1856C17.6889 25.4159 18.2689 26.6804 18.3851 28.0351C18.6136 27.6879 18.7718 27.2888 18.8431 26.8691L19.0872 25.4335L19.3831 26.8566C19.7874 28.7938 19.5736 30.8346 18.7884 32.6309C21.0217 34.4167 23.7872 35.3972 26.6025 35.3972C27.4013 35.3972 28.1952 35.3164 28.9637 35.1557C32.5592 34.4033 35.811 31.8183 37.4486 28.4103C37.681 27.9284 37.8851 27.4195 38.0569 26.8971L38.2913 26.1788Z" fill="#202B2B"/>
<path d="M36.5209 25.1091C36.0746 24.8624 35.5082 25.0728 35.1401 25.4366C34.772 25.8004 34.5454 26.2907 34.2681 26.7385C33.1431 28.5606 31.1901 29.65 29.1951 30.162C27.2001 30.674 25.125 30.6833 23.0763 30.7953C22.7326 30.8139 22.3781 30.8377 22.0715 31.0005C21.7648 31.1632 21.5129 31.499 21.5432 31.8628C21.5891 32.4028 22.174 32.6754 22.6759 32.7843C23.7862 33.0237 24.9414 33.0216 26.0498 32.7749C25.3711 33.0776 24.6914 33.3803 24.0128 33.6839C27.745 34.4613 31.7907 33.3015 34.6479 30.6356C35.6869 29.6645 36.5932 28.4673 36.9711 27.0525C37.1585 26.357 37.1273 25.4429 36.5209 25.1091Z" fill="#42AEA9"/>
<path d="M39.8342 25.1091C40.2804 24.8624 40.8468 25.0728 41.215 25.4366C41.5831 25.8004 41.8097 26.2907 42.087 26.7385C43.2119 28.5606 45.165 29.65 47.16 30.162C49.155 30.674 51.2301 30.6833 53.2788 30.7953C53.6225 30.8139 53.977 30.8377 54.2836 31.0005C54.5902 31.1632 54.8422 31.499 54.8119 31.8628C54.766 32.4028 54.1811 32.6754 53.6791 32.7843C52.5688 33.0237 51.4136 33.0216 50.3053 32.7749C50.984 33.0776 51.6636 33.3803 52.3423 33.6839C48.6101 34.4613 44.5644 33.3015 41.7071 30.6356C40.6681 29.6645 39.7619 28.4673 39.384 27.0525C39.1975 26.357 39.2278 25.4429 39.8342 25.1091Z" fill="#42AEA9"/>
<path d="M42.628 29.5432C42.2355 28.9089 42.0616 28.1553 41.84 27.434C41.5734 26.5633 41.1974 25.674 40.3869 25.2418C39.9709 25.02 39.47 24.9889 39.0599 25.2211C38.347 25.6274 38.2249 25.6274 37.5111 25.2211C37.099 24.9879 36.599 25.02 36.1821 25.2418C35.3716 25.674 34.9976 26.5633 34.731 27.434C34.5074 28.1553 34.3345 28.9089 33.9429 29.5432C33.6685 29.9868 33.275 30.419 33.3082 30.9476C33.3326 31.3488 33.6021 31.6794 33.856 31.9768C34.979 33.2921 36.101 34.6064 37.224 35.9217C37.4926 36.2379 37.8763 36.4182 38.2786 36.4182H38.2923C38.6946 36.4182 39.0784 36.2368 39.3489 35.9217C40.4699 34.6064 41.5939 33.2921 42.7149 31.9768C42.9708 31.6794 43.2374 31.3488 43.2628 30.9476C43.294 30.419 42.9015 29.9868 42.628 29.5432Z" fill="#F6E00C"/>
<path d="M38.2913 36.7104H38.2777C37.7992 36.7104 37.3392 36.4948 37.0189 36.1176L33.651 32.1727C33.4049 31.8836 33.0651 31.4876 33.0328 30.9663C33.0026 30.4418 33.2887 30.0189 33.5406 29.6447C33.6002 29.5577 33.6588 29.4706 33.7125 29.3836C34.0123 28.8995 34.1763 28.3388 34.3492 27.7459C34.3872 27.6122 34.4273 27.4764 34.4673 27.3427C34.7417 26.4482 35.146 25.4667 36.06 24.9806C36.5678 24.71 37.1781 24.7007 37.641 24.964C37.9613 25.1464 38.1409 25.2335 38.2855 25.2335C38.43 25.2335 38.6077 25.1464 38.93 24.964C39.3919 24.7007 40.0022 24.71 40.5109 24.9806C41.423 25.4677 41.8273 26.4482 42.1017 27.3427C42.1437 27.4764 42.1818 27.6122 42.2218 27.7459C42.3956 28.3388 42.5597 28.8995 42.8565 29.3836C42.9122 29.4706 42.9708 29.5577 43.0303 29.6447C43.2823 30.0189 43.5684 30.4428 43.5362 30.9663C43.5039 31.4866 43.1661 31.8836 42.918 32.1727L39.552 36.1176C39.2298 36.4948 38.7698 36.7104 38.2913 36.7104ZM36.8871 25.3527C36.6908 25.3527 36.4906 25.4045 36.3051 25.503C35.5727 25.8927 35.229 26.7436 34.9907 27.5241C34.9507 27.6547 34.9107 27.7874 34.8726 27.919C34.6948 28.5254 34.5122 29.1503 34.1705 29.7038C34.1128 29.7981 34.0504 29.8925 33.9869 29.9847C33.7672 30.3081 33.5611 30.6118 33.5807 30.9289C33.6002 31.2223 33.8072 31.4886 34.0572 31.7809L37.4232 35.7258C37.6429 35.9807 37.9515 36.1269 38.2757 36.1269H38.2894C38.6136 36.1269 38.9241 35.9807 39.1419 35.7258L42.5099 31.7809C42.7598 31.4886 42.9678 31.2223 42.9844 30.9289C43.004 30.6118 42.7979 30.3081 42.5802 29.9847C42.5177 29.8914 42.4542 29.7971 42.3956 29.7038C42.0538 29.1514 41.8712 28.5254 41.6935 27.919C41.6554 27.7874 41.6173 27.6547 41.5773 27.5241C41.3371 26.7436 40.9933 25.8927 40.2609 25.503C39.9084 25.3143 39.4963 25.304 39.1868 25.4791C38.8382 25.6771 38.5687 25.8181 38.2825 25.8181C37.9964 25.8181 37.7279 25.6771 37.3783 25.4791C37.2328 25.3952 37.0668 25.3527 36.8871 25.3527Z" fill="#202B2B"/>
<path d="M25.8398 29.111C30.966 29.111 35.1216 24.7002 35.1216 19.2592C35.1216 13.8182 30.966 9.40743 25.8398 9.40743C20.7137 9.40743 16.5581 13.8182 16.5581 19.2592C16.5581 24.7002 20.7137 29.111 25.8398 29.111Z" fill="#42AEA9"/>
<path d="M25.8399 27.4443C30.0988 27.4443 33.5513 23.7797 33.5513 19.2592C33.5513 14.7387 30.0988 11.0741 25.8399 11.0741C21.5809 11.0741 18.1283 14.7387 18.1283 19.2592C18.1283 23.7797 21.5809 27.4443 25.8399 27.4443Z" fill="#FAE8C7"/>
<path d="M25.8408 27.7376C21.4368 27.7376 17.853 23.9337 17.853 19.2592C17.853 14.5846 21.4368 10.7828 25.8408 10.7828C30.2449 10.7828 33.8267 14.5846 33.8267 19.2592C33.8267 23.9337 30.2449 27.7376 25.8408 27.7376ZM25.8408 11.3664C21.7404 11.3664 18.4047 14.907 18.4047 19.2592C18.4047 23.6114 21.7404 27.152 25.8408 27.152C29.9412 27.152 33.2769 23.6114 33.2769 19.2592C33.2769 14.907 29.9412 11.3664 25.8408 11.3664Z" fill="#202B2B"/>
<path d="M25.8594 23.7192C28.18 23.7192 30.0613 21.7224 30.0613 19.2592C30.0613 16.796 28.18 14.7992 25.8594 14.7992C23.5387 14.7992 21.6575 16.796 21.6575 19.2592C21.6575 21.7224 23.5387 23.7192 25.8594 23.7192Z" fill="#80CECC"/>
<path d="M25.8593 24.0125C23.3917 24.0125 21.383 21.8794 21.383 19.2592C21.383 16.64 23.3917 14.5079 25.8593 14.5079C28.3289 14.5079 30.3376 16.64 30.3376 19.2592C30.3376 21.8794 28.3299 24.0125 25.8593 24.0125ZM25.8593 15.0904C23.6944 15.0904 21.9328 16.9613 21.9328 19.2581C21.9328 21.557 23.6954 23.4258 25.8593 23.4258C28.0262 23.4258 29.7859 21.556 29.7859 19.2581C29.7869 16.9613 28.0262 15.0904 25.8593 15.0904Z" fill="#202B2B"/>
<path d="M25.8603 21.4648C27.008 21.4648 27.9384 20.4773 27.9384 19.2592C27.9384 18.041 27.008 17.0535 25.8603 17.0535C24.7127 17.0535 23.7823 18.041 23.7823 19.2592C23.7823 20.4773 24.7127 21.4648 25.8603 21.4648Z" fill="#202B2B"/>
<path d="M25.8594 21.7571C24.5626 21.7571 23.506 20.6367 23.506 19.2592C23.506 17.8827 24.5626 16.7623 25.8594 16.7623C27.1562 16.7623 28.2128 17.8827 28.2128 19.2592C28.2137 20.6367 27.1572 21.7571 25.8594 21.7571ZM25.8594 17.3458C24.8653 17.3458 24.0567 18.204 24.0567 19.2592C24.0567 20.3153 24.8653 21.1736 25.8594 21.1736C26.8535 21.1736 27.662 20.3153 27.662 19.2592C27.662 18.204 26.8535 17.3458 25.8594 17.3458Z" fill="#202B2B"/>
<path d="M50.1745 29.111C55.3006 29.111 59.4562 24.7002 59.4562 19.2592C59.4562 13.8182 55.3006 9.40743 50.1745 9.40743C45.0483 9.40743 40.8927 13.8182 40.8927 19.2592C40.8927 24.7002 45.0483 29.111 50.1745 29.111Z" fill="#42AEA9"/>
<path d="M50.1745 27.4443C54.4334 27.4443 57.886 23.7797 57.886 19.2592C57.886 14.7387 54.4334 11.0741 50.1745 11.0741C45.9155 11.0741 42.463 14.7387 42.463 19.2592C42.463 23.7797 45.9155 27.4443 50.1745 27.4443Z" fill="#FAE8C7"/>
<path d="M50.1735 27.7376C45.7694 27.7376 42.1876 23.9337 42.1876 19.2592C42.1876 14.5846 45.7694 10.7828 50.1735 10.7828C54.5775 10.7828 58.1613 14.5846 58.1613 19.2592C58.1613 23.9337 54.5775 27.7376 50.1735 27.7376ZM50.1735 11.3664C46.0731 11.3664 42.7374 14.907 42.7374 19.2592C42.7374 23.6114 46.0731 27.152 50.1735 27.152C54.2738 27.152 57.6116 23.6114 57.6116 19.2592C57.6116 14.907 54.2738 11.3664 50.1735 11.3664Z" fill="#202B2B"/>
<path d="M50.1637 23.7192C52.4844 23.7192 54.3656 21.7224 54.3656 19.2592C54.3656 16.796 52.4844 14.7992 50.1637 14.7992C47.8431 14.7992 45.9618 16.796 45.9618 19.2592C45.9618 21.7224 47.8431 23.7192 50.1637 23.7192Z" fill="#80CECC"/>
<path d="M50.1637 24.0125C47.6941 24.0125 45.6855 21.8794 45.6855 19.2592C45.6855 16.64 47.6941 14.5079 50.1637 14.5079C52.6314 14.5079 54.6401 16.64 54.6401 19.2592C54.6401 21.8794 52.6314 24.0125 50.1637 24.0125ZM50.1637 15.0904C47.9988 15.0904 46.2372 16.9613 46.2372 19.2581C46.2372 21.557 47.9998 23.4258 50.1637 23.4258C52.3277 23.4258 54.0903 21.556 54.0903 19.2581C54.0913 16.9613 52.3287 15.0904 50.1637 15.0904Z" fill="#202B2B"/>
<path d="M50.1627 21.4648C51.3104 21.4648 52.2408 20.4773 52.2408 19.2592C52.2408 18.041 51.3104 17.0535 50.1627 17.0535C49.0151 17.0535 48.0847 18.041 48.0847 19.2592C48.0847 20.4773 49.0151 21.4648 50.1627 21.4648Z" fill="#202B2B"/>
<path d="M50.1637 21.7571C48.8669 21.7571 47.8103 20.6367 47.8103 19.2592C47.8103 17.8827 48.8669 16.7623 50.1637 16.7623C51.4605 16.7623 52.5152 17.8827 52.5152 19.2592C52.5152 20.6367 51.4605 21.7571 50.1637 21.7571ZM50.1637 17.3458C49.1696 17.3458 48.3611 18.204 48.3611 19.2592C48.3611 20.3153 49.1696 21.1736 50.1637 21.1736C51.1578 21.1736 51.9664 20.3153 51.9664 19.2592C51.9664 18.204 51.1578 17.3458 50.1637 17.3458Z" fill="#202B2B"/>
<path d="M45.6737 6.53634C45.662 6.70218 45.5038 6.92605 45.3573 7.1292C45.2089 7.32717 45.0693 7.48473 45.0693 7.48473C45.0693 7.48473 44.9355 7.32511 44.7929 7.123C44.6513 6.92192 44.5009 6.67832 44.4951 6.51145C44.4814 6.17874 44.7509 5.9103 45.0937 5.91445C45.2636 5.91548 45.4159 5.98598 45.5214 6.09585C45.6269 6.20883 45.6835 6.37154 45.6737 6.53634Z" fill="#FAE8C7"/>
<path d="M43.5557 6.58402C43.5713 6.75089 43.4492 6.9955 43.334 7.22249C43.2178 7.44429 43.1055 7.62363 43.1055 7.62363C43.1055 7.62363 42.9493 7.4899 42.7774 7.31681C42.6075 7.14268 42.419 6.92916 42.3887 6.76643C42.3262 6.43994 42.5489 6.12797 42.8868 6.07096C43.0547 6.04401 43.2168 6.08549 43.3369 6.17566C43.4561 6.27102 43.5381 6.41922 43.5557 6.58402Z" fill="#FAE8C7"/>
<path d="M41.4708 6.99962C41.5128 7.16338 41.4288 7.42356 41.3527 7.66817C41.2726 7.90656 41.1886 8.10348 41.1886 8.10348C41.1886 8.10348 41.0128 7.99775 40.8185 7.85783C40.6222 7.71583 40.4045 7.53859 40.3498 7.38311C40.2375 7.07113 40.4094 6.72494 40.7336 6.6099C40.8957 6.55289 41.0597 6.56637 41.1935 6.63375C41.3273 6.70941 41.4308 6.83897 41.4708 6.99962Z" fill="#FAE8C7"/>
<path d="M39.4797 7.77189C39.5481 7.92632 39.5041 8.1948 39.466 8.44977C39.424 8.69956 39.3742 8.90788 39.3742 8.90788C39.3742 8.90788 39.1858 8.83534 38.97 8.73065C38.7542 8.62597 38.512 8.49019 38.4319 8.34612C38.2717 8.06005 38.386 7.68691 38.6897 7.51486C38.8401 7.42986 39.0041 7.41225 39.1477 7.45786C39.2942 7.51175 39.4143 7.61953 39.4797 7.77189Z" fill="#FAE8C7"/>
<path d="M37.6712 8.63526C37.6654 8.81146 37.4876 9.01981 37.2474 9.15559C37.1371 9.22089 37.0228 9.2696 36.9349 9.30277C36.8549 9.3349 36.805 9.35666 36.805 9.35666C36.805 9.35666 36.7172 9.13795 36.6693 8.90267C36.6176 8.66324 36.5717 8.3803 36.6332 8.2269C36.6947 8.07454 36.8109 7.96154 36.9535 7.90661C37.0931 7.85064 37.2738 7.85583 37.3978 7.91698C37.4701 7.9543 37.5081 7.98331 37.5443 8.03203C37.5638 8.05483 37.5804 8.08283 37.5941 8.11082C37.6038 8.13362 37.6136 8.1616 37.6204 8.19062C37.6546 8.31085 37.6849 8.47564 37.6712 8.63526Z" fill="#FAE8C7"/>
<path d="M35.7543 7.86832C35.7026 8.02587 35.4907 8.20414 35.2983 8.34614C35.2026 8.41662 35.1118 8.47879 35.0444 8.52232C34.9761 8.56689 34.9341 8.59488 34.9341 8.59488C34.9341 8.59488 34.8442 8.4052 34.7583 8.17407C34.6724 7.94293 34.5884 7.67036 34.6265 7.50763C34.7026 7.18322 35.0307 6.99768 35.3589 7.09096C35.684 7.20186 35.8598 7.5553 35.7543 7.86832Z" fill="#FAE8C7"/>
<path d="M33.7085 7.29091C33.6802 7.45468 33.4947 7.663 33.3267 7.83091C33.1549 7.99882 32.9967 8.14289 32.9967 8.14289C32.9967 8.14289 32.8824 7.96773 32.7662 7.75007C32.65 7.53344 32.5299 7.27329 32.5445 7.10745C32.5748 6.77578 32.8726 6.54256 33.2105 6.58817C33.5494 6.62652 33.7671 6.97064 33.7085 7.29091Z" fill="#FAE8C7"/>
<path d="M31.6061 7.03703C31.5983 7.20701 31.4459 7.42881 31.3004 7.63507C31.1559 7.83511 31.0182 7.99576 31.0182 7.99576C31.0182 7.99576 30.8805 7.83822 30.736 7.63922C30.5915 7.44228 30.4343 7.19871 30.4274 7.03598C30.4118 6.70016 30.6755 6.42861 31.0153 6.42446C31.1852 6.42446 31.3376 6.48977 31.444 6.59963C31.5514 6.71572 31.612 6.87015 31.6061 7.03703Z" fill="#FAE8C7"/>
<path d="M51.2281 40.4355C51.2281 40.4355 51.1705 40.4936 51.0621 40.5817C50.9537 40.6698 50.7936 40.79 50.5739 40.903C50.3561 41.016 50.0739 41.1237 49.7331 41.1569C49.3952 41.1922 48.9782 41.1393 48.5964 40.931C48.2127 40.7268 47.8982 40.3806 47.7361 39.9961C47.5662 39.6053 47.574 39.2353 47.6199 38.9741C47.6658 38.7067 47.7439 38.517 47.8015 38.3843C47.8611 38.2537 47.9012 38.1822 47.9012 38.1822C47.9012 38.1822 47.9431 38.2516 48.0095 38.3771C48.0759 38.4994 48.1638 38.6808 48.2742 38.8663C48.5027 39.2695 48.7907 39.4561 49.197 39.6768C49.403 39.7877 49.6052 39.8873 49.8356 39.9754C50.0602 40.0635 50.2955 40.1391 50.5055 40.2044C50.7194 40.2718 50.8981 40.3267 51.026 40.3672C51.1539 40.4096 51.2281 40.4355 51.2281 40.4355Z" fill="#FAE8C7"/>
<path d="M55.9662 39.2342C55.9662 39.2342 55.9144 39.3244 55.8001 39.4716C55.6859 39.6188 55.5004 39.8188 55.2318 40.0189C54.9633 40.2189 54.602 40.4127 54.1694 40.5277C53.7387 40.6449 53.2309 40.676 52.7144 40.564C52.1998 40.449 51.7437 40.2064 51.3922 39.9183C51.0377 39.6301 50.7799 39.3016 50.608 39.0041C50.4342 38.7067 50.3395 38.4454 50.2897 38.2609C50.2379 38.0775 50.2253 37.9728 50.2253 37.9728C50.2253 37.9728 50.3092 38.0309 50.4557 38.1304C50.6002 38.2278 50.8102 38.3594 51.0641 38.4942C51.5728 38.7699 52.2544 39.0269 52.9829 39.1855C53.7094 39.3462 54.4321 39.397 55.0023 39.3576C55.2846 39.34 55.5267 39.3088 55.6966 39.2808C55.8685 39.2518 55.9662 39.2342 55.9662 39.2342Z" fill="#FAE8C7"/>
<path d="M58.2639 36.8866C58.2639 36.8866 58.1594 37.1364 57.9016 37.4266C57.6497 37.7116 57.2015 38.0526 56.5931 38.0785C55.9769 38.1045 55.4486 37.752 55.2084 37.4048C55.0824 37.2327 55.018 37.0711 54.9848 36.955C54.9545 36.8389 54.9486 36.7716 54.9486 36.7716C54.9486 36.7716 55.2103 36.8089 55.5228 36.785C55.8392 36.7664 56.1869 36.6845 56.5472 36.672C56.9173 36.6596 57.3274 36.7156 57.6702 36.7674C58.012 36.8182 58.2639 36.8866 58.2639 36.8866Z" fill="#FAE8C7"/>
<path d="M55.388 41.1787C55.388 41.1787 55.4701 41.16 55.6117 41.1299C55.7513 41.0999 55.9476 41.0533 56.1644 40.9828C56.6106 40.8418 57.1106 40.6076 57.5295 40.2935C57.968 39.9846 58.426 39.5524 58.8 39.2166C59.1701 38.8797 59.4484 38.6746 59.4484 38.6746C59.4484 38.6746 59.4708 39.029 59.3761 39.5669C59.3244 39.8364 59.2384 40.1536 59.0744 40.4925C58.9084 40.8273 58.6506 41.187 58.2736 41.4606C57.8938 41.7342 57.4514 41.8618 57.0735 41.87C56.6917 41.8846 56.3636 41.7933 56.1126 41.6855C55.8587 41.5756 55.6781 41.444 55.5619 41.3435C55.4427 41.244 55.388 41.1787 55.388 41.1787Z" fill="#FAE8C7"/>
<path d="M48.4412 42.0576C48.4412 42.0576 48.5251 42.1126 48.6755 42.1665C48.8259 42.2224 49.0398 42.2598 49.3015 42.2701C49.8415 42.2847 50.5524 42.2484 51.3004 42.1654C52.0504 42.0939 52.7515 41.9882 53.2993 41.868C53.5678 41.8058 53.7993 41.7477 53.9594 41.7011C54.1235 41.6555 54.2172 41.6306 54.2172 41.6306C54.2172 41.6306 54.1752 41.7197 54.0834 41.8773C53.9916 42.0328 53.8432 42.2473 53.6216 42.4826C53.1851 42.9438 52.4029 43.4714 51.4283 43.5668C50.9459 43.6175 50.4782 43.5574 50.0759 43.432C49.6716 43.3025 49.3376 43.1283 49.0691 42.9293C48.8005 42.7303 48.6228 42.5023 48.5388 42.3313C48.4529 42.1613 48.4412 42.0576 48.4412 42.0576Z" fill="#FAE8C7"/>
<path d="M53.1792 44.6219C53.1792 44.6219 52.9556 44.8862 52.5191 45.1702C52.0865 45.4542 51.4186 45.7423 50.652 45.7558C49.8835 45.7692 49.2077 45.5049 48.7654 45.2375C48.3191 44.968 48.0906 44.7131 48.0906 44.7131C48.0906 44.7131 48.4148 44.6302 48.8874 44.5452C49.362 44.4612 49.9704 44.3596 50.6286 44.3493C51.2867 44.3368 51.899 44.4156 52.3755 44.483C52.8511 44.5504 53.1792 44.6219 53.1792 44.6219Z" fill="#FAE8C7"/>
<path d="M57.5979 42.9262C57.5979 42.9262 57.6038 42.9915 57.5901 43.1034C57.5784 43.2153 57.5462 43.3781 57.4661 43.5574C57.3137 43.9181 56.9339 44.3555 56.387 44.4965C55.8392 44.6426 55.3226 44.4446 55.0307 44.2166C54.8803 44.1047 54.7748 43.9823 54.7104 43.8963C54.6459 43.8061 54.6147 43.7502 54.6147 43.7502C54.6147 43.7502 54.8471 43.6527 55.1293 43.519C55.4193 43.3874 55.7357 43.2185 56.0677 43.1283C56.3997 43.0433 56.7464 43.0402 57.052 43.006C57.3538 42.979 57.5979 42.9262 57.5979 42.9262Z" fill="#FAE8C7"/>
<path d="M48.8054 58.5926C48.8054 58.5926 48.1434 56.1859 48.1434 53.2153C48.1434 50.2469 48.8054 47.8391 48.8054 47.8391C48.8054 47.8391 49.4695 50.2458 49.4695 53.2153C49.4695 56.1859 48.8054 58.5926 48.8054 58.5926Z" fill="#FAE8C7"/>
<path d="M50.8639 57.1737C50.8639 57.1737 50.1999 55.195 50.1999 52.752C50.1999 50.3111 50.8639 48.3304 50.8639 48.3304C50.8639 48.3304 51.5279 50.3101 51.5279 52.752C51.5279 55.195 50.8639 57.1737 50.8639 57.1737Z" fill="#FAE8C7"/>
<path d="M53.3315 56.246C53.3315 56.246 52.6694 54.2539 52.6694 51.7964C52.6694 49.3399 53.3315 47.3488 53.3315 47.3488C53.3315 47.3488 53.9955 49.3399 53.9955 51.7964C53.9955 54.2549 53.3315 56.246 53.3315 56.246Z" fill="#FAE8C7"/>
<path d="M54.6176 49.8592C54.6176 49.8592 54.436 49.057 54.7914 48.6787C55.1479 48.3024 55.9037 48.4942 55.9037 48.4942C55.9037 48.4942 56.0853 49.2975 55.7299 49.6747C55.3744 50.052 54.6176 49.8592 54.6176 49.8592Z" fill="#FAE8C7"/>
<path d="M57.0852 47.5665C57.0852 47.5665 57.0549 46.6047 57.594 46.0325C58.133 45.4604 59.0392 45.4925 59.0392 45.4925C59.0392 45.4925 59.0714 46.4544 58.5314 47.0265C57.9914 47.5986 57.0852 47.5665 57.0852 47.5665Z" fill="#FAE8C7"/>
<path d="M25.7529 40.4356C25.7529 40.4356 25.8272 40.4107 25.957 40.3662C26.083 40.3257 26.2627 40.2708 26.4775 40.2035C26.6855 40.1382 26.9199 40.0625 27.1474 39.9744C27.3759 39.8863 27.578 39.7868 27.7841 39.6759C28.1903 39.4551 28.4784 39.2675 28.7069 38.8653C28.8172 38.6798 28.9071 38.4984 28.9735 38.3761C29.0379 38.2507 29.0819 38.1813 29.0819 38.1813C29.0819 38.1813 29.1219 38.2528 29.1795 38.3834C29.2371 38.5161 29.3172 38.7068 29.3631 38.9731C29.4071 39.2343 29.4149 39.6044 29.245 39.9951C29.0829 40.3797 28.7704 40.7258 28.3866 40.93C28.0028 41.1384 27.5859 41.1912 27.248 41.156C26.9062 41.1228 26.6259 41.015 26.4072 40.9021C26.1875 40.7901 26.0273 40.6689 25.919 40.5808C25.8106 40.4927 25.7529 40.4356 25.7529 40.4356Z" fill="#FAE8C7"/>
<path d="M21.0149 39.2343C21.0149 39.2343 21.1126 39.252 21.2835 39.282C21.4534 39.31 21.6955 39.3421 21.9797 39.3587C22.548 39.3981 23.2706 39.3473 23.9972 39.1866C24.7256 39.028 25.4082 38.771 25.916 38.4953C26.1699 38.3605 26.3818 38.2289 26.5244 38.1315C26.6709 38.0309 26.7548 37.9739 26.7548 37.9739C26.7548 37.9739 26.7412 38.0797 26.6904 38.2621C26.6406 38.4466 26.5459 38.7078 26.374 39.0052C26.2002 39.3027 25.9453 39.6313 25.5899 39.9194C25.2373 40.2076 24.7833 40.4501 24.2667 40.5652C23.7501 40.6761 23.2423 40.646 22.8117 40.5289C22.3791 40.4139 22.0197 40.22 21.7512 40.02C21.4807 39.8199 21.2952 39.6199 21.1809 39.4727C21.0667 39.3255 21.0149 39.2343 21.0149 39.2343Z" fill="#FAE8C7"/>
<path d="M18.7172 36.8867C18.7172 36.8867 18.9691 36.8193 19.3099 36.7665C19.6556 36.7146 20.0628 36.6586 20.4329 36.6711C20.7932 36.6845 21.1428 36.7664 21.4592 36.784C21.7697 36.8079 22.0314 36.7706 22.0314 36.7706C22.0314 36.7706 22.0256 36.8369 21.9953 36.954C21.9631 37.0691 21.8977 37.2318 21.7717 37.4039C21.5315 37.7511 21.0032 38.1045 20.387 38.0776C19.7786 38.0516 19.3324 37.7107 19.0804 37.4256C18.8217 37.1365 18.7172 36.8867 18.7172 36.8867Z" fill="#FAE8C7"/>
<path d="M21.593 41.1788C21.593 41.1788 21.5373 41.2441 21.4211 41.3425C21.303 41.4431 21.1213 41.5747 20.8684 41.6846C20.6165 41.7924 20.2884 41.8825 19.9075 41.8691C19.5296 41.8608 19.0873 41.7333 18.7074 41.4596C18.3295 41.186 18.0746 40.8274 17.9067 40.4916C17.7426 40.1537 17.6567 39.8355 17.6069 39.566C17.5092 39.027 17.5327 38.6736 17.5327 38.6736C17.5327 38.6736 17.811 38.8788 18.1811 39.2157C18.5551 39.5515 19.0131 39.9837 19.4515 40.2926C19.8734 40.6066 20.3704 40.8409 20.8167 40.9818C21.0344 41.0513 21.2307 41.0979 21.3694 41.129C21.5129 41.1612 21.593 41.1788 21.593 41.1788Z" fill="#FAE8C7"/>
<path d="M28.5418 42.0576C28.5418 42.0576 28.5282 42.1613 28.4422 42.3313C28.3602 42.5023 28.1805 42.7303 27.912 42.9293C27.6435 43.1283 27.3095 43.3025 26.9052 43.432C26.5048 43.5574 26.0371 43.6175 25.5527 43.5668C24.5782 43.4714 23.796 42.9438 23.3595 42.4826C23.1378 42.2473 22.9894 42.0328 22.8976 41.8773C22.8078 41.7197 22.7658 41.6306 22.7658 41.6306C22.7658 41.6306 22.8576 41.6555 23.0216 41.7011C23.1818 41.7477 23.4122 41.8068 23.6837 41.868C24.2315 41.9882 24.9307 42.0939 25.6826 42.1654C26.4287 42.2484 27.1396 42.2836 27.6796 42.2701C27.9413 42.2598 28.1561 42.2224 28.3055 42.1665C28.4559 42.1126 28.5418 42.0576 28.5418 42.0576Z" fill="#FAE8C7"/>
<path d="M23.8038 44.622C23.8038 44.622 24.13 44.5515 24.6046 44.4831C25.0811 44.4168 25.6934 44.3369 26.3516 44.3494C27.0097 44.3608 27.62 44.4613 28.0946 44.5453C28.5653 44.6303 28.8895 44.7132 28.8895 44.7132C28.8895 44.7132 28.661 44.9682 28.2147 45.2376C27.7743 45.5051 27.0966 45.7694 26.3281 45.7559C25.5616 45.7414 24.8936 45.4543 24.461 45.1703C24.0255 44.8863 23.8038 44.622 23.8038 44.622Z" fill="#FAE8C7"/>
<path d="M19.3832 42.9263C19.3832 42.9263 19.6273 42.9791 19.931 43.0081C20.2366 43.0423 20.5833 43.0454 20.9153 43.1304C21.2473 43.2206 21.5637 43.3895 21.8518 43.5212C22.1359 43.6549 22.3664 43.7523 22.3664 43.7523C22.3664 43.7523 22.3361 43.8083 22.2707 43.8985C22.2062 43.9845 22.1027 44.1058 21.9523 44.2188C21.6584 44.4468 21.1418 44.6437 20.594 44.4986C20.0462 44.3566 19.6673 43.9192 19.515 43.5595C19.4349 43.3792 19.4027 43.2175 19.391 43.1055C19.3773 42.9905 19.3832 42.9263 19.3832 42.9263Z" fill="#FAE8C7"/>
<path d="M28.1757 58.5927C28.1757 58.5927 27.5116 56.186 27.5116 53.2154C27.5116 50.2469 28.1757 47.8392 28.1757 47.8392C28.1757 47.8392 28.8397 50.2459 28.8397 53.2154C28.8387 56.186 28.1757 58.5927 28.1757 58.5927Z" fill="#FAE8C7"/>
<path d="M26.1172 57.1737C26.1172 57.1737 25.4551 55.1951 25.4551 52.7521C25.4551 50.3112 26.1172 48.3305 26.1172 48.3305C26.1172 48.3305 26.7812 50.3101 26.7812 52.7521C26.7812 55.1951 26.1172 57.1737 26.1172 57.1737Z" fill="#FAE8C7"/>
<path d="M23.6495 56.2461C23.6495 56.2461 22.9855 54.254 22.9855 51.7965C22.9855 49.34 23.6495 47.3489 23.6495 47.3489C23.6495 47.3489 24.3136 49.34 24.3136 51.7965C24.3126 54.255 23.6495 56.2461 23.6495 56.2461Z" fill="#FAE8C7"/>
<path d="M22.3635 49.8592C22.3635 49.8592 21.6067 50.052 21.2512 49.6748C20.8958 49.2975 21.0774 48.4942 21.0774 48.4942C21.0774 48.4942 21.8342 48.3014 22.1896 48.6787C22.5451 49.057 22.3635 49.8592 22.3635 49.8592Z" fill="#FAE8C7"/>
<path d="M19.8958 47.5665C19.8958 47.5665 18.9896 47.5997 18.4506 47.0265C17.9116 46.4534 17.9418 45.4926 17.9418 45.4926C17.9418 45.4926 18.848 45.4594 19.3871 46.0326C19.9261 46.6057 19.8958 47.5665 19.8958 47.5665Z" fill="#FAE8C7"/>
<path d="M20.0081 19.098C19.9905 19.098 19.9739 19.097 19.9544 19.0959C19.5882 19.0659 19.3158 18.7259 19.3421 18.3372C19.5179 15.9295 21.0735 13.757 23.214 12.934C23.5597 12.8024 23.9405 12.99 24.0665 13.3569C24.1925 13.7238 24.0128 14.1281 23.6681 14.2618C22.0373 14.8888 20.805 16.6104 20.6702 18.446C20.6438 18.8161 20.3519 19.098 20.0081 19.098Z" fill="#80CECC"/>
<path d="M44.6308 19.1255C44.6132 19.1255 44.5966 19.1255 44.5771 19.1234C44.2109 19.1006 43.9326 18.7648 43.9531 18.3751C44.0947 15.9642 45.6181 13.7669 47.7449 12.9087C48.0886 12.7708 48.4714 12.9522 48.6033 13.3181C48.7351 13.6829 48.5613 14.0903 48.2175 14.2292C46.5965 14.8842 45.3896 16.6255 45.2821 18.4632C45.2626 18.8332 44.9746 19.1193 44.6308 19.1255Z" fill="#80CECC"/>
<path d="M39.8762 26.2254C39.4221 26.13 38.97 26.4845 38.7679 26.9281C38.5657 27.3707 38.5559 27.8806 38.5501 28.3719C38.5296 30.1008 38.5081 31.8275 38.4876 33.5564L38.554 34.9982C39.2727 34.2612 39.9592 33.488 40.6096 32.6826C41.0754 32.1053 41.5499 31.4233 41.4816 30.6667C41.4015 29.8054 40.6476 29.1742 40.4533 28.3325C40.3557 27.9138 40.4074 27.4723 40.3557 27.0432C40.3049 26.613 40.2766 26.3083 39.8762 26.2254Z" fill="#F8B95D"/>
<path d="M28.8563 61.8513C28.9461 63.2225 29.5203 64.5523 30.4412 65.5194C30.7732 65.8697 31.2399 66.1911 31.6823 66.0304C32.0583 65.8926 32.2584 65.4582 32.3551 65.0499C32.6051 63.9906 32.4274 62.8546 32.0368 61.8441C31.6442 60.8335 31.0486 59.9276 30.4382 59.0476C29.8738 59.114 29.3875 59.5503 29.1297 60.0892C28.8729 60.6251 28.8182 61.2501 28.8563 61.8513Z" fill="#E4C799"/>
<path d="M31.4382 66.3642C30.9558 66.3642 30.5222 66.018 30.2458 65.7267C29.283 64.713 28.6746 63.3086 28.5809 61.871C28.533 61.1206 28.6346 60.477 28.8846 59.9546C29.2049 59.2881 29.7888 58.829 30.4089 58.7564L30.5671 58.7377L30.6628 58.8735C31.2614 59.741 31.8815 60.6759 32.2916 61.7321C32.6119 62.5603 32.9303 63.8206 32.6217 65.1204C32.4752 65.7464 32.1813 66.1579 31.7731 66.3061C31.6657 66.3455 31.5534 66.3642 31.4382 66.3642ZM30.3191 59.3658C29.9373 59.4695 29.5847 59.7846 29.3748 60.2199C29.1707 60.6459 29.0887 61.188 29.1307 61.8316C29.2146 63.1283 29.7634 64.3969 30.6335 65.3111C30.9216 65.6137 31.2077 65.7806 31.4382 65.7806C31.4919 65.7806 31.5426 65.7713 31.5924 65.7537C31.8903 65.6459 32.0309 65.2199 32.0885 64.9773C32.359 63.832 32.0709 62.7023 31.7819 61.955C31.4196 61.018 30.8659 60.1639 30.3191 59.3658Z" fill="#202B2B"/>
<path d="M29.867 60.6863C30.3035 61.3745 30.7419 62.0669 31.0759 62.8163C31.4118 63.5667 31.6423 64.3835 31.6384 65.2126C31.0583 65.1587 30.6042 64.6674 30.2839 64.1533C29.698 63.2122 29.3778 62.0876 29.3758 60.9589C29.3758 60.8532 29.3797 60.7444 29.4236 60.649C29.4676 60.5557 29.5662 60.4811 29.6639 60.5008C29.7547 60.5184 29.8152 60.6055 29.867 60.6863Z" fill="white"/>
<path d="M23.5753 66.8327C24.1251 66.6565 24.502 66.1289 24.7881 65.6023C25.1465 64.9473 25.4268 64.2435 25.6221 63.5149C25.8301 62.7334 25.9365 61.9011 25.7666 61.1102C25.5967 60.3194 25.1123 59.5731 24.4034 59.2674C23.8673 60.0665 23.3312 60.8656 22.797 61.6647C22.3732 62.2939 21.9465 62.9345 21.7024 63.6631C21.4582 64.3907 21.4162 65.2313 21.7561 65.9143C22.0949 66.5995 22.879 67.0565 23.5753 66.8327Z" fill="#E4C799"/>
<path d="M23.2072 67.1819C22.5305 67.1819 21.8488 66.728 21.512 66.0511C21.1702 65.3619 21.1458 64.4549 21.4436 63.5656C21.7034 62.7945 22.1457 62.1353 22.5724 61.4969L24.3038 58.9108L24.5059 58.9979C25.2461 59.3161 25.8311 60.1007 26.0332 61.047C26.1933 61.787 26.1435 62.6215 25.8867 63.5958C25.6865 64.3493 25.3965 65.0738 25.0264 65.7506C24.7647 66.2315 24.336 66.8948 23.6554 67.1125C23.5099 67.1591 23.3595 67.1819 23.2072 67.1819ZM24.4923 59.6384L23.0197 61.8347C22.6135 62.4411 22.1936 63.0661 21.9612 63.7605C21.7131 64.4975 21.7287 65.2333 21.9973 65.7785C22.2893 66.3621 22.964 66.7228 23.4943 66.5528C23.9903 66.3942 24.335 65.8511 24.5508 65.4562C24.8975 64.8209 25.169 64.1409 25.3555 63.4361C25.5879 62.5571 25.6358 61.8172 25.4971 61.1745C25.3526 60.5008 24.9766 59.9317 24.4923 59.6384Z" fill="#202B2B"/>
<path d="M22.3713 64.6798C22.3449 64.9877 22.3556 65.308 22.4796 65.5878C22.6037 65.8677 22.8556 66.0967 23.1476 66.1133C22.881 65.2976 23.1779 64.4052 23.504 63.6133C23.8302 62.8214 24.1964 61.9839 24.0645 61.1309C23.2931 62.1975 22.4894 63.3407 22.3713 64.6798Z" fill="white"/>
<path d="M25.2842 60.6739C25.0664 61.7404 25.0244 62.8463 25.1563 63.9274C25.2402 64.6073 25.3984 65.2904 25.7461 65.8667C26.0947 66.444 26.6601 66.9011 27.3007 66.9736C28.119 67.0669 28.9158 66.5062 29.3357 65.7527C29.7556 65.0002 29.8523 64.0922 29.8259 63.2185C29.7898 62.1105 29.5681 61.0076 29.1717 59.9815C28.8631 59.1824 28.3436 58.348 27.5389 58.2205C26.9511 58.1262 26.3545 58.461 25.9765 58.9492C25.5986 59.4363 25.4082 60.0561 25.2842 60.6739Z" fill="#E4C799"/>
<path d="M27.4794 67.2752H27.4774C27.4091 67.2752 27.3397 67.2721 27.2714 67.2638C26.5947 67.1871 25.9385 66.7238 25.5146 66.0242C25.1904 65.4883 24.9903 64.8354 24.8838 63.9658C24.7461 62.8453 24.7901 61.7165 25.0157 60.6127C25.1182 60.1017 25.3096 59.3523 25.7656 58.7636C26.2363 58.1562 26.9257 57.8287 27.5809 57.9313C28.3455 58.0526 28.9832 58.7242 29.4256 59.8706C29.8377 60.935 30.0642 62.0586 30.1003 63.2102C30.1345 64.3223 29.9627 65.2033 29.572 65.9029C29.1082 66.7373 28.286 67.2752 27.4794 67.2752ZM27.3378 58.4952C26.9335 58.4952 26.4951 58.7398 26.1894 59.1326C25.8096 59.6239 25.6436 60.2821 25.5527 60.734C25.3408 61.7735 25.2988 62.8349 25.4287 63.889C25.5264 64.6705 25.6992 65.2489 25.9785 65.708C26.3125 66.2605 26.8173 66.6253 27.329 66.6834C28.0018 66.7611 28.702 66.3165 29.0994 65.6044C29.4353 65.0033 29.5818 64.2259 29.5515 63.2277C29.5174 62.1467 29.3035 61.0915 28.9168 60.0913C28.6629 59.4311 28.2108 58.6206 27.4999 58.5076C27.4442 58.4993 27.3915 58.4952 27.3378 58.4952Z" fill="#202B2B"/>
<path d="M26.7119 59.6208C26.1279 60.5402 25.8476 61.6699 25.9277 62.7738C26.0078 63.8777 26.4482 64.9493 27.1562 65.763C26.5498 63.7926 26.3974 61.6668 26.7119 59.6208Z" fill="white"/>
<path d="M48.4206 61.8513C48.3308 63.2225 47.7566 64.5523 46.8377 65.5194C46.5038 65.8697 46.0389 66.1911 45.5966 66.0304C45.2187 65.8926 45.0204 65.4582 44.9238 65.0499C44.6718 63.9906 44.8495 62.8546 45.2421 61.8441C45.6327 60.8335 46.2303 59.9276 46.8387 59.0476C47.4031 59.114 47.8894 59.5503 48.1492 60.0892C48.405 60.6251 48.4607 61.2501 48.4206 61.8513Z" fill="#E4C799"/>
<path d="M45.8397 66.3641C45.7255 66.3641 45.6132 66.3444 45.5058 66.305C45.0976 66.1568 44.8036 65.7464 44.6552 65.1193C44.3466 63.8185 44.665 62.5592 44.9872 61.7311C45.3954 60.6759 46.0155 59.741 46.6161 58.8725L46.7098 58.7366L46.868 58.7553C47.4881 58.8279 48.0711 59.2881 48.3923 59.9535C48.6423 60.4759 48.7448 61.1195 48.696 61.8699C48.6023 63.3065 47.9959 64.712 47.0311 65.7257C46.7537 66.018 46.3231 66.3641 45.8397 66.3641ZM46.9578 59.3658C46.41 60.1639 45.8593 61.019 45.495 61.955C45.205 62.7023 44.9169 63.832 45.1894 64.9773C45.247 65.2198 45.3876 65.6459 45.6835 65.7536C45.9472 65.85 46.2879 65.6852 46.6424 65.3111C47.5144 64.3959 48.0613 63.1282 48.1453 61.8316C48.1873 61.1879 48.1052 60.6459 47.9011 60.2199C47.6922 59.7856 47.3396 59.4694 46.9578 59.3658Z" fill="#202B2B"/>
<path d="M47.41 60.6863C46.9735 61.3745 46.536 62.0669 46.201 62.8163C45.8651 63.5667 45.6366 64.3835 45.6405 65.2126C46.2186 65.1587 46.6747 64.6674 46.9949 64.1533C47.5809 63.2122 47.8992 62.0876 47.9011 60.9589C47.9031 60.8532 47.8992 60.7444 47.8533 60.649C47.8094 60.5557 47.7117 60.4811 47.615 60.5008C47.5223 60.5184 47.4617 60.6055 47.41 60.6863Z" fill="white"/>
<path d="M53.7016 66.8327C53.1538 66.6565 52.7769 66.1289 52.4888 65.6023C52.1304 64.9473 51.8501 64.2435 51.6568 63.5149C51.4488 62.7334 51.3404 61.9011 51.5123 61.1102C51.6822 60.3184 52.1665 59.5731 52.8755 59.2674C53.4096 60.0665 53.9457 60.8656 54.4818 61.6647C54.9037 62.2939 55.3304 62.9345 55.5746 63.6631C55.8187 64.3907 55.8607 65.2313 55.5208 65.9143C55.182 66.5995 54.3998 67.0565 53.7016 66.8327Z" fill="#E4C799"/>
<path d="M54.0717 67.1819C53.9174 67.1819 53.7661 67.1591 53.6235 67.1125C52.9409 66.8938 52.5132 66.2305 52.2505 65.7506C51.8804 65.0748 51.5923 64.3493 51.3922 63.5958C51.1324 62.6215 51.0855 61.787 51.2437 61.047C51.4478 60.1017 52.0337 59.3161 52.771 58.9979L52.9731 58.9108L54.7045 61.4969C55.1322 62.1343 55.5746 62.7935 55.8333 63.5656C56.1331 64.4549 56.1077 65.3609 55.765 66.0501C55.43 66.728 54.7484 67.1819 54.0717 67.1819ZM52.7866 59.6384C52.3023 59.9317 51.9244 60.5008 51.7798 61.1755C51.6421 61.8182 51.688 62.5582 51.9224 63.4372C52.1089 64.144 52.3804 64.8229 52.7271 65.4572C52.9429 65.8521 53.2856 66.3942 53.7817 66.5538C54.3119 66.7228 54.9886 66.3632 55.2787 65.7796C55.5492 65.2344 55.5628 64.4985 55.3148 63.7616C55.0824 63.0671 54.6625 62.4411 54.2563 61.8358L52.7866 59.6384Z" fill="#202B2B"/>
<path d="M54.9056 64.6798C54.934 64.9877 54.9213 65.308 54.7972 65.5878C54.6732 65.8677 54.4213 66.0967 54.1313 66.1133C54.3979 65.2976 54.101 64.4052 53.7748 63.6133C53.4487 62.8214 53.0805 61.9839 53.2124 61.1309C53.9858 62.1975 54.7885 63.3407 54.9056 64.6798Z" fill="white"/>
<path d="M51.9946 60.6739C52.2105 61.7404 52.2544 62.8463 52.1206 63.9274C52.0366 64.6073 51.8804 65.2904 51.5308 65.8667C51.1822 66.444 50.6187 66.9011 49.9762 66.9736C49.1579 67.0669 48.3611 66.5062 47.9412 65.7527C47.5213 65.0002 47.4246 64.0922 47.4529 63.2185C47.4871 62.1105 47.7107 61.0076 48.1072 59.9815C48.4138 59.1824 48.9352 58.348 49.7379 58.2205C50.3258 58.1262 50.9224 58.461 51.3004 58.9492C51.6783 59.4363 51.8687 60.0561 51.9946 60.6739Z" fill="#E4C799"/>
<path d="M49.7995 67.2752C48.9929 67.2752 48.1706 66.7363 47.7049 65.9019C47.3162 65.2023 47.1424 64.3223 47.1785 63.2091C47.2127 62.0596 47.4402 60.9361 47.8513 59.8696C48.2937 58.7232 48.9323 58.0516 49.6979 57.9303C50.3502 57.8256 51.0426 58.1552 51.5113 58.7626C51.9673 59.3503 52.1577 60.0997 52.2632 60.6117C52.4868 61.7155 52.5298 62.8442 52.3931 63.9647C52.2866 64.8343 52.0865 65.4894 51.7622 66.0232C51.3384 66.7228 50.6832 67.1861 50.0075 67.2628C49.9372 67.2721 49.8678 67.2752 49.7995 67.2752ZM49.9391 58.4952C49.8854 58.4952 49.8327 58.4993 49.7809 58.5076C49.069 58.6206 48.6179 59.4321 48.362 60.0913C47.9753 61.0926 47.7635 62.1467 47.7293 63.2277C47.697 64.2259 47.8455 65.0033 48.1794 65.6044C48.5779 66.3175 49.2839 66.759 49.9499 66.6834C50.4625 66.6243 50.9664 66.2605 51.3023 65.7081C51.5787 65.2489 51.7544 64.6705 51.8501 63.889C51.98 62.8349 51.938 61.7736 51.7281 60.734C51.6363 60.2821 51.4703 59.6239 51.0914 59.1326C50.7838 58.7408 50.3434 58.4952 49.9391 58.4952Z" fill="#202B2B"/>
<path d="M50.566 59.6208C51.148 60.5402 51.4283 61.6699 51.3482 62.7738C51.2682 63.8777 50.8297 64.9493 50.1217 65.763C50.7262 63.7926 50.8805 61.6668 50.566 59.6208Z" fill="white"/>
<path d="M37.6966 37.8474C37.6966 37.8474 37.6449 37.9282 37.5365 38.0713C37.4828 38.1449 37.4144 38.2309 37.3187 38.3128C37.225 38.3978 37.1185 38.5066 36.9828 38.5895C36.849 38.6807 36.6967 38.7761 36.517 38.8445C36.3432 38.9295 36.145 38.9772 35.9311 39.0269C35.5034 39.0995 35.0063 39.086 34.5142 38.9108C34.024 38.7243 33.6256 38.4071 33.3336 38.0682C33.1939 37.8889 33.067 37.721 32.9791 37.5386C32.8795 37.3686 32.817 37.1923 32.7653 37.0327C32.7057 36.8793 32.6852 36.7238 32.6627 36.5953C32.6364 36.4689 32.6324 36.3559 32.6324 36.2626C32.6305 36.0781 32.6383 35.9817 32.6383 35.9817C32.6383 35.9817 32.6998 36.0585 32.8063 36.1942C32.8561 36.2616 32.9186 36.3424 33.0006 36.4253C33.0807 36.5093 33.1568 36.6098 33.2652 36.7C33.3668 36.7954 33.4713 36.8949 33.5972 36.9871C33.7115 37.0897 33.8531 37.1717 33.9859 37.268C34.2681 37.4401 34.5738 37.5976 34.9019 37.7251C35.2339 37.8412 35.5659 37.9189 35.8881 37.9677C36.0483 37.9811 36.2065 38.0091 36.3559 38.0039C36.5082 38.0153 36.6518 38.006 36.7846 37.9977C36.9223 37.9977 37.0404 37.9697 37.1527 37.9573C37.267 37.9459 37.3627 37.9252 37.4408 37.9034C37.6048 37.8681 37.6966 37.8474 37.6966 37.8474Z" fill="#998679"/>
<path d="M44.5771 36.5529C44.5771 36.5529 44.5527 36.6379 44.4951 36.7913C44.4667 36.868 44.4287 36.9613 44.371 37.0618C44.3134 37.1623 44.2529 37.2836 44.1631 37.3977C43.9951 37.6392 43.751 37.8931 43.4385 38.119C43.1221 38.3367 42.7364 38.5222 42.3057 38.6144C41.8751 38.7005 41.4513 38.6818 41.0812 38.6051C40.7111 38.5201 40.3947 38.3823 40.1545 38.2247C40.0324 38.1563 39.9309 38.0672 39.8439 37.9957C39.7561 37.9273 39.6877 37.8557 39.634 37.7956C39.5256 37.6764 39.4719 37.606 39.4719 37.606C39.4719 37.606 39.5578 37.6101 39.7102 37.6163C39.7824 37.6226 39.8723 37.6277 39.9748 37.6256C40.0773 37.6236 40.1887 37.6319 40.3127 37.6215C40.5568 37.6164 40.839 37.5852 41.1369 37.549C41.4366 37.5034 41.7511 37.4474 42.0811 37.3831C42.4092 37.3126 42.7198 37.238 43.0137 37.1613C43.3018 37.0773 43.5742 36.9945 43.8037 36.9012C43.9238 36.8607 44.0234 36.8089 44.1181 36.7695C44.2158 36.7312 44.2959 36.6907 44.3623 36.6565C44.499 36.5912 44.5771 36.5529 44.5771 36.5529Z" fill="#998679"/>
<path d="M41.5489 40.1339C41.5489 40.1339 41.5108 40.2116 41.4269 40.3474C41.3448 40.4853 41.2072 40.6677 41.0031 40.8657C40.8029 41.0647 40.5265 41.2637 40.1906 41.4243C39.8527 41.5777 39.4524 41.6886 39.0256 41.7042C38.5999 41.7135 38.1936 41.6264 37.8509 41.4917C37.5052 41.3507 37.221 41.1683 37.0101 40.9807C36.7963 40.7952 36.6498 40.6211 36.5619 40.4873C36.4701 40.3568 36.4281 40.2811 36.4281 40.2811C36.4281 40.2811 36.5121 40.2967 36.6586 40.3215C36.8002 40.3516 37.0052 40.3796 37.2464 40.4055C37.4847 40.4345 37.763 40.447 38.0569 40.4563C38.3528 40.4594 38.6653 40.4563 38.9954 40.449C39.3235 40.4366 39.636 40.4221 39.9318 40.4024C40.2258 40.3765 40.5021 40.3475 40.7384 40.305C40.9767 40.2645 41.1808 40.2251 41.3204 40.1868C41.465 40.1526 41.5489 40.1339 41.5489 40.1339Z" fill="#998679"/>
<path d="M45.1005 41.4503C45.1005 41.4503 45.08 41.5228 45.0244 41.6503C44.9667 41.7716 44.8925 41.9747 44.7441 42.1706C44.4638 42.5738 43.9258 43.0537 43.2051 43.2413C42.4786 43.4072 41.798 43.2278 41.3781 42.9967C41.1642 42.8889 41.0138 42.7428 40.9103 42.6609C40.8088 42.5707 40.7599 42.5168 40.7599 42.5168C40.7599 42.5168 40.8341 42.5002 40.964 42.4722C41.0919 42.4401 41.2658 42.4307 41.4728 42.3768C41.8888 42.2877 42.3917 42.1395 42.9375 42.0182C43.4776 41.8731 43.9902 41.7716 44.4023 41.6576C44.6103 41.6088 44.7705 41.5363 44.9003 41.5052C45.0273 41.471 45.1005 41.4503 45.1005 41.4503Z" fill="#998679"/>
<path d="M37.6234 42.6018C37.6234 42.6018 37.5775 42.6722 37.4857 42.7945C37.4378 42.8578 37.3792 42.9303 37.3011 43.0029C37.225 43.0775 37.1351 43.1698 37.0248 43.2454C36.809 43.4144 36.5189 43.5709 36.1723 43.6787C35.8237 43.7772 35.4155 43.8207 34.9956 43.7492C34.5757 43.6725 34.2017 43.4942 33.9029 43.2827C33.605 43.063 33.3785 42.8163 33.2242 42.5831C33.1422 42.4722 33.0865 42.3551 33.0357 42.2587C32.984 42.1623 32.9498 42.0732 32.9254 41.9985C32.8736 41.8503 32.8531 41.7695 32.8531 41.7695C32.8531 41.7695 32.9293 41.8037 33.0611 41.8649C33.1236 41.897 33.2008 41.9332 33.2916 41.9695C33.3834 42.0058 33.4781 42.0535 33.5914 42.0897C33.8072 42.1747 34.062 42.2514 34.3316 42.3271C34.604 42.3934 34.8901 42.4567 35.188 42.5127C35.4897 42.5614 35.7778 42.5986 36.058 42.6277C36.3344 42.6484 36.6 42.6629 36.8304 42.6546C36.9486 42.6588 37.0521 42.6453 37.1488 42.6422C37.2455 42.6391 37.3304 42.6298 37.4007 42.6215C37.5413 42.609 37.6234 42.6018 37.6234 42.6018Z" fill="#998679"/>
<path d="M41.9474 44.3307C41.9474 44.3307 41.8956 44.3949 41.795 44.5017C41.6925 44.6043 41.5451 44.7691 41.3351 44.9184C40.9211 45.2283 40.2629 45.5558 39.4866 45.6118C38.7083 45.6501 38.0199 45.4055 37.5755 45.1475C37.3509 45.0241 37.1869 44.8769 37.0736 44.7888C36.9613 44.6945 36.9037 44.6375 36.9037 44.6375C36.9037 44.6375 36.9857 44.6209 37.1273 44.6012C37.2689 44.5763 37.4613 44.568 37.6957 44.5338C38.1683 44.4758 38.7698 44.3908 39.4182 44.3607C40.0686 44.312 40.673 44.3234 41.1476 44.3234C41.3859 44.3296 41.5783 44.3141 41.7218 44.3214C41.8634 44.3245 41.9474 44.3307 41.9474 44.3307Z" fill="#998679"/>
<path d="M33.2945 47.8009C33.3589 47.6267 33.6109 47.436 33.8365 47.2867C33.9488 47.2121 34.0562 47.1458 34.1363 47.1002C34.2163 47.0504 34.2661 47.0193 34.2661 47.0193C34.2661 47.0193 34.3687 47.237 34.4683 47.5034C34.5659 47.7688 34.6626 48.0828 34.6167 48.2621C34.5288 48.6249 34.1421 48.8187 33.7525 48.6953C33.3668 48.5596 33.1666 48.146 33.2945 47.8009Z" fill="#80CECC"/>
<path d="M35.7036 48.5191C35.7358 48.3346 35.9516 48.0983 36.1479 47.9055C36.3442 47.7138 36.5258 47.5635 36.5258 47.5635C36.5258 47.5635 36.6635 47.7573 36.806 47.9988C36.9476 48.2392 37.098 48.5294 37.0824 48.715C37.058 49.0881 36.7084 49.3545 36.3061 49.3089C35.9057 49.2467 35.6362 48.886 35.7036 48.5191Z" fill="#80CECC"/>
<path d="M38.1937 48.7668C38.1956 48.5792 38.3675 48.3056 38.5296 48.0786C38.6917 47.8516 38.844 47.6723 38.844 47.6723C38.844 47.6723 39.012 47.8371 39.1926 48.0475C39.3723 48.2579 39.5666 48.5139 39.5832 48.7005C39.6194 49.0726 39.3196 49.4011 38.9173 49.4322C38.514 49.4384 38.1898 49.14 38.1937 48.7668Z" fill="#80CECC"/>
<path d="M40.6867 48.5461C40.6584 48.3616 40.7824 48.06 40.9045 47.806C41.0265 47.5521 41.1466 47.3469 41.1466 47.3469C41.1466 47.3469 41.339 47.4805 41.5509 47.6536C41.7628 47.8257 41.9972 48.0413 42.045 48.2217C42.1427 48.5803 41.9034 48.9648 41.5089 49.0653C41.1124 49.1493 40.7443 48.9161 40.6867 48.5461Z" fill="#80CECC"/>
<path d="M43.1055 47.864C43.046 47.6878 43.1172 47.3665 43.1934 47.0929C43.2696 46.8182 43.3516 46.5933 43.3516 46.5933C43.3516 46.5933 43.4053 46.6192 43.4893 46.6607C43.5713 46.699 43.6836 46.754 43.8018 46.8172C44.04 46.9467 44.3076 47.1116 44.3857 47.2784C44.542 47.6101 44.376 48.0413 44.0039 48.2123C43.626 48.373 43.2237 48.2154 43.1055 47.864Z" fill="#80CECC"/>
<path d="M34.1255 52.0835C34.1851 51.9073 34.4097 51.7021 34.6099 51.5362C34.7095 51.4533 34.8042 51.3818 34.8735 51.3299C34.9458 51.2761 34.9897 51.2429 34.9897 51.2429C34.9897 51.2429 35.0757 51.4513 35.1596 51.7062C35.2436 51.9633 35.3256 52.2669 35.2856 52.4494C35.2055 52.8142 34.8638 53.0308 34.521 52.9324C34.1831 52.8246 34.0074 52.4338 34.1255 52.0835Z" fill="#FAE8C7"/>
<path d="M36.2328 52.6505C36.2611 52.466 36.4506 52.2224 36.6215 52.0224C36.7914 51.8244 36.9496 51.6658 36.9496 51.6658C36.9496 51.6658 37.0677 51.8555 37.1918 52.0928C37.3138 52.3302 37.4437 52.6142 37.432 52.8018C37.4115 53.1739 37.1078 53.4506 36.7572 53.4154C36.4066 53.3656 36.1742 53.0174 36.2328 52.6505Z" fill="#FAE8C7"/>
<path d="M38.3997 52.8329C38.3997 52.6453 38.5462 52.3716 38.6838 52.1446C38.8235 51.9166 38.9524 51.7363 38.9524 51.7363C38.9524 51.7363 39.0989 51.9021 39.258 52.1136C39.4162 52.3261 39.5881 52.5831 39.6047 52.7697C39.6408 53.1418 39.385 53.4682 39.0344 53.4952C38.6819 53.5055 38.3977 53.2081 38.3997 52.8329Z" fill="#FAE8C7"/>
<path d="M40.5646 52.6371C40.5343 52.4526 40.6388 52.1561 40.7384 51.9073C40.84 51.6586 40.9406 51.4575 40.9406 51.4575C40.9406 51.4575 41.1105 51.5985 41.3009 51.7788C41.4874 51.9592 41.6974 52.183 41.7433 52.3634C41.837 52.723 41.6368 53.0931 41.2931 53.1781C40.9464 53.2506 40.6203 53.0071 40.5646 52.6371Z" fill="#FAE8C7"/>
<path d="M42.668 52.0638C42.6104 51.8876 42.6661 51.5756 42.7256 51.3124C42.7852 51.0481 42.8516 50.8315 42.8516 50.8315C42.8516 50.8315 42.8994 50.8605 42.9756 50.9071C43.0498 50.9506 43.1514 51.0128 43.2578 51.0843C43.4717 51.2294 43.7139 51.4098 43.7881 51.5798C43.9385 51.9156 43.8018 52.3229 43.4736 52.4649C43.1436 52.5986 42.7833 52.4183 42.668 52.0638Z" fill="#FAE8C7"/>
<path d="M10.6512 15.2532C11.6638 14.595 12.3923 13.4642 12.6042 12.2246C11.4275 12.6371 10.5887 13.94 10.6512 15.2532Z" fill="white"/>
<path d="M49.3698 19.1504C49.7845 19.1504 50.1207 18.7935 50.1207 18.3533C50.1207 17.9131 49.7845 17.5563 49.3698 17.5563C48.9551 17.5563 48.6189 17.9131 48.6189 18.3533C48.6189 18.7935 48.9551 19.1504 49.3698 19.1504Z" fill="white"/>
<path d="M51.0436 20.6698C51.2771 20.6698 51.4664 20.4689 51.4664 20.221C51.4664 19.9732 51.2771 19.7722 51.0436 19.7722C50.81 19.7722 50.6207 19.9732 50.6207 20.221C50.6207 20.4689 50.81 20.6698 51.0436 20.6698Z" fill="white"/>
<path d="M25.125 19.1493C25.5392 19.1493 25.875 18.7929 25.875 18.3533C25.875 17.9136 25.5392 17.5572 25.125 17.5572C24.7108 17.5572 24.3751 17.9136 24.3751 18.3533C24.3751 18.7929 24.7108 19.1493 25.125 19.1493Z" fill="white"/>
<path d="M26.7998 20.6688C27.0327 20.6688 27.2216 20.4683 27.2216 20.221C27.2216 19.9738 27.0327 19.7733 26.7998 19.7733C26.5668 19.7733 26.3779 19.9738 26.3779 20.221C26.3779 20.4683 26.5668 20.6688 26.7998 20.6688Z" fill="white"/>
</svg>
