<svg width="35" height="28" viewBox="0 0 35 28" fill="none" xmlns="http://www.w3.org/2000/svg">
<path d="M19.5969 1.03481C22.0556 1.03481 24.1716 2.46437 25.1017 4.50391C25.9636 3.9757 26.9845 3.6693 28.0796 3.6693C31.1503 3.6693 33.648 6.07539 33.648 9.03132C33.648 11.5709 31.8052 13.7016 29.3397 14.2533C29.6345 14.7646 29.8638 15.306 30.0161 15.8624C30.428 17.3615 30.3323 18.9959 29.7496 20.4659C28.9971 22.3598 27.4618 23.919 25.539 24.7433C24.6606 25.1202 23.6807 25.311 22.6265 25.311C22.3884 25.311 22.1444 25.3007 21.9003 25.2809C21.8447 25.2762 21.791 25.2744 21.7354 25.2744C21.3098 25.2744 20.9165 25.405 20.6305 25.6418C19.9961 26.1663 19.306 26.5394 18.5789 26.7509C18.0948 26.8919 17.5853 26.9643 17.066 26.9643C15.9855 26.9643 14.8865 26.6579 13.889 26.0789C12.751 25.4163 11.9086 24.5093 11.2342 23.7094C10.6378 23.0008 9.98485 22.1389 9.52514 21.1314C8.71697 21.5505 7.7946 21.7883 6.81368 21.7883C3.64937 21.7883 1.07558 19.3099 1.07558 16.2637C1.07558 13.7711 2.80021 11.6602 5.15929 10.9741C4.93383 10.3669 4.8099 9.71367 4.8099 9.0332C4.8099 5.8423 7.50572 3.24729 10.8184 3.24729C12.0775 3.24729 13.2448 3.62231 14.2121 4.26236C15.194 2.35065 17.2378 1.03481 19.5969 1.03481ZM16.1222 12.5559C16.5341 12.5559 17.0777 12.5004 17.6273 12.2852C17.1187 12.1141 16.6395 11.8801 16.2022 11.5916C16.0314 11.9243 15.8284 12.2382 15.5971 12.5305C15.6273 12.5333 15.6586 12.5343 15.6888 12.5371C15.8333 12.5493 15.9797 12.5559 16.1222 12.5559ZM19.5969 0C18.2539 0 16.944 0.365614 15.8118 1.05737C15.0339 1.53295 14.3634 2.14576 13.8334 2.86006C12.8954 2.43242 11.8696 2.21061 10.8174 2.21061C6.91231 2.21061 3.73431 5.26991 3.73431 9.03132C3.73431 9.47682 3.77918 9.91669 3.86799 10.35C2.89391 10.803 2.02914 11.4807 1.37422 12.3162C0.475291 13.4619 0 14.8266 0 16.2628C0 19.8804 3.05693 22.8231 6.81273 22.8231C7.56526 22.8231 8.3158 22.7019 9.02538 22.4669C9.48705 23.2442 10.0053 23.8946 10.3977 24.3608C11.1317 25.2302 12.0521 26.2208 13.3336 26.9652C14.498 27.6419 15.7884 28 17.065 28C17.6916 28 18.3046 27.9135 18.8903 27.7434C19.7599 27.4897 20.5788 27.0479 21.3284 26.4304C21.4192 26.3552 21.5665 26.312 21.7334 26.312C21.7578 26.312 21.7842 26.3129 21.8076 26.3148C22.0799 26.3374 22.3562 26.3486 22.6246 26.3486C23.829 26.3486 24.9573 26.1278 25.9743 25.6917C28.1568 24.7555 29.899 22.9867 30.753 20.8372C31.4167 19.167 31.5231 17.307 31.0556 15.6001C30.9873 15.352 30.9062 15.1058 30.8106 14.8614C31.7554 14.4488 32.5987 13.8238 33.2546 13.039C34.2014 11.9074 34.7225 10.4853 34.7225 9.0332C34.7225 5.50582 31.7418 2.63543 28.0787 2.63543C27.2042 2.63543 26.3442 2.80179 25.5429 3.12135C24.2506 1.1946 22.0214 0 19.5969 0Z" fill="#51332A"/>
<path d="M19.8877 13.8369C18.616 14.7524 17.0357 15.1077 15.4555 14.9667C14.8855 14.9159 14.3058 14.9864 13.7739 15.1923C12.3557 15.7402 11.3825 17.2092 11.4616 18.6792C11.5338 19.9913 12.343 21.1511 13.2019 22.1718C13.7817 22.8598 14.4102 23.5309 15.1988 23.9895C15.9875 24.4473 16.9626 24.6728 17.8439 24.4162C18.2714 24.2922 18.6424 24.0685 18.9791 23.7903C19.84 23.0797 20.9838 22.7574 22.1141 22.8504C22.9418 22.9181 23.7782 22.8279 24.5073 22.5149C25.8142 21.9547 26.8723 20.8804 27.3828 19.5947C27.7732 18.6097 27.8464 17.5072 27.5662 16.4874C27.0285 14.5278 25.1125 12.9967 23.014 12.8473C21.9179 12.7683 20.8121 13.1696 19.8877 13.8369Z" fill="#744128"/>
<path d="M17.065 25.0328C16.3574 25.0328 15.6137 24.826 14.9255 24.4256C14.052 23.9172 13.3834 23.1963 12.79 22.4914C11.9164 21.4547 11.0136 20.1943 10.9335 18.7036C10.8408 17.0213 11.9525 15.3445 13.5766 14.7167C14.1701 14.4864 14.8377 14.3971 15.5043 14.4563C17.0172 14.5917 18.4617 14.2251 19.5695 13.4262C20.6598 12.6405 21.8974 12.2523 23.053 12.335C25.3711 12.4995 27.4852 14.1894 28.0787 16.3539C28.3842 17.4649 28.3129 18.6801 27.8775 19.7751C27.3144 21.1943 26.1646 22.3617 24.724 22.9801C23.9607 23.3072 23.0423 23.4369 22.0682 23.3579C21.0541 23.2743 20.0546 23.5732 19.3226 24.1766C18.8951 24.529 18.4617 24.7668 17.9971 24.9031C17.6994 24.9905 17.3861 25.0328 17.065 25.0328ZM15.1022 15.4611C14.7069 15.4611 14.3204 15.5306 13.972 15.665C12.7558 16.1359 11.9222 17.3916 11.9915 18.6519C12.0569 19.8494 12.8485 20.9406 13.6138 21.8494C14.1467 22.481 14.7401 23.1258 15.4721 23.5515C16.2159 23.9839 17.024 24.1202 17.6887 23.9266C18.0108 23.8326 18.3192 23.6606 18.6335 23.4021C19.5783 22.6211 20.8628 22.2357 22.157 22.341C22.9535 22.4058 23.6914 22.3043 24.2916 22.0477C25.4775 21.5393 26.4233 20.5787 26.8869 19.4114C27.2432 18.5147 27.3027 17.5222 27.0538 16.6162C26.5706 14.8595 24.8558 13.4882 22.9749 13.3548C22.0731 13.2909 21.0892 13.6067 20.2049 14.2449C18.8834 15.196 17.1792 15.6321 15.4047 15.4742C15.3042 15.4658 15.2027 15.4611 15.1022 15.4611Z" fill="#51332A"/>
<path d="M28.0787 11.9525C29.7546 11.9525 31.1131 10.6442 31.1131 9.03037C31.1131 7.41654 29.7546 6.10827 28.0787 6.10827C26.4028 6.10827 25.0442 7.41654 25.0442 9.03037C25.0442 10.6442 26.4028 11.9525 28.0787 11.9525Z" fill="#744128"/>
<path d="M28.0787 12.4638C26.1129 12.4638 24.5142 10.9233 24.5142 9.03132C24.5142 7.1384 26.1139 5.59887 28.0787 5.59887C30.0435 5.59887 31.6432 7.1384 31.6432 9.03132C31.6441 10.9233 30.0444 12.4638 28.0787 12.4638ZM28.0787 6.61959C26.6976 6.61959 25.5741 7.70139 25.5741 9.03132C25.5741 10.3613 26.6976 11.4421 28.0787 11.4421C29.4598 11.4421 30.5832 10.3603 30.5832 9.03132C30.5842 7.70045 29.4598 6.61959 28.0787 6.61959Z" fill="#51332A"/>
<path d="M19.5969 10.1657C21.5159 10.1657 23.0716 8.66771 23.0716 6.81977C23.0716 4.97184 21.5159 3.4738 19.5969 3.4738C17.6779 3.4738 16.1222 4.97184 16.1222 6.81977C16.1222 8.66771 17.6779 10.1657 19.5969 10.1657Z" fill="#744128"/>
<path d="M19.5959 10.6761C17.3881 10.6761 15.5922 8.94579 15.5922 6.81978C15.5922 4.69283 17.3881 2.96345 19.5959 2.96345C21.8056 2.96345 23.6016 4.69283 23.6016 6.81978C23.6006 8.94673 21.8047 10.6761 19.5959 10.6761ZM19.5959 3.9851C17.9737 3.9851 16.6522 5.25676 16.6522 6.81978C16.6522 8.38281 17.9737 9.65446 19.5959 9.65446C21.22 9.65446 22.5416 8.38281 22.5416 6.81978C22.5416 5.25676 21.22 3.9851 19.5959 3.9851Z" fill="#51332A"/>
<path d="M10.8175 12.3764C12.7365 12.3764 14.2921 10.8783 14.2921 9.03038C14.2921 7.18245 12.7365 5.68441 10.8175 5.68441C8.89843 5.68441 7.3427 7.18245 7.3427 9.03038C7.3427 10.8783 8.89843 12.3764 10.8175 12.3764Z" fill="#744128"/>
<path d="M10.8175 12.8867C8.60868 12.8867 6.81274 11.1564 6.81274 9.03038C6.81274 6.90437 8.60868 5.17405 10.8175 5.17405C13.0262 5.17405 14.8231 6.90437 14.8231 9.03038C14.8231 11.1564 13.0253 12.8867 10.8175 12.8867ZM10.8175 6.1957C9.19528 6.1957 7.87367 7.46736 7.87367 9.03038C7.87367 10.5934 9.19528 11.866 10.8175 11.866C12.4406 11.866 13.7612 10.5934 13.7612 9.03038C13.7612 7.46736 12.4406 6.1957 10.8175 6.1957Z" fill="#51332A"/>
<path d="M6.81271 19.3465C8.58188 19.3465 10.0161 17.9655 10.0161 16.2618C10.0161 14.5582 8.58188 13.1771 6.81271 13.1771C5.04355 13.1771 3.60937 14.5582 3.60937 16.2618C3.60937 17.9655 5.04355 19.3465 6.81271 19.3465Z" fill="#744128"/>
<path d="M6.81273 19.8578C4.75329 19.8578 3.07842 18.245 3.07842 16.2618C3.07842 14.2796 4.75329 12.6658 6.81273 12.6658C8.8712 12.6658 10.5461 14.2787 10.5461 16.2618C10.5461 18.245 8.87217 19.8578 6.81273 19.8578ZM6.81273 13.6875C5.33794 13.6875 4.13935 14.8426 4.13935 16.2618C4.13935 17.682 5.33891 18.8362 6.81273 18.8362C8.28655 18.8362 9.48612 17.6811 9.48612 16.2618C9.48612 14.8426 8.28655 13.6875 6.81273 13.6875Z" fill="#51332A"/>
</svg>
