<svg width="60" height="31" viewBox="0 0 60 31" fill="none" xmlns="http://www.w3.org/2000/svg">
<path d="M57.5548 5.52402C56.6826 5.28866 55.6537 5.25689 54.8555 5.25689C53.3072 5.25689 51.2789 5.40283 48.9312 5.57229C48.5303 5.60053 48.117 5.63115 47.6926 5.66057C46.8833 4.80501 45.9654 4.05538 44.9525 3.41871C42.6134 1.95239 39.9017 1.17683 37.1111 1.17683C34.3266 1.17683 31.6199 1.94886 29.2857 3.40812C28.2741 4.04243 27.3562 4.79087 26.5456 5.64171C26.1163 5.60994 25.6981 5.57819 25.2934 5.54877C22.9457 5.37342 20.9175 5.22159 19.363 5.22159C18.5611 5.22159 17.5285 5.25221 16.6489 5.49816C14.3961 6.12777 14.2209 7.8118 14.2209 8.31313C14.2209 8.46612 14.2283 8.62145 14.2444 8.77915C14.2296 8.91566 14.2209 9.05451 14.2209 9.19338C14.2209 9.33577 14.2234 9.4817 14.2308 9.6288C13.8323 9.96302 13.4536 10.3196 13.0958 10.695C12.6665 10.6644 12.2482 10.6315 11.8424 10.602C9.49462 10.4267 7.46641 10.2737 5.91194 10.2737C5.11003 10.2737 4.07619 10.3055 3.19779 10.5514C0.946283 11.181 0.771093 12.8663 0.771093 13.3676C0.771093 13.5194 0.778492 13.6759 0.79453 13.8336C0.779725 13.9701 0.771093 14.1078 0.771093 14.249C0.771093 17.2534 2.0196 20.4992 4.28592 23.3883C6.50165 26.2103 9.5489 28.5145 12.8663 29.8749C15.1487 30.8117 17.4866 30.94 19.6739 30.94C20.3142 30.94 20.952 30.927 21.6565 30.9141C23.0937 30.8858 24.5384 30.8905 25.8572 30.9305L25.9189 30.9317C26.6184 30.9517 27.3426 30.9717 28.0508 30.9717C29.8322 30.9717 31.932 30.8623 34.0022 30.0573C36.4264 29.1147 38.7174 27.6884 40.6753 25.9114C40.9491 25.9161 41.2255 25.9184 41.5006 25.9184C43.2821 25.9184 45.3818 25.8102 47.4532 25.0052C50.8928 23.6672 54.0523 21.3582 56.3507 18.5033C58.7046 15.5812 60 12.2755 60 9.19808C60 9.0604 59.9926 8.92388 59.9766 8.78737C59.9914 8.6285 60 8.47082 60 8.31783C59.9988 7.81415 59.8224 6.13833 57.5548 5.52402ZM45.937 21.4606C44.5071 22.0173 42.891 22.0902 41.4981 22.0902C40.9812 22.0902 40.4372 22.0773 39.9239 22.0643L39.0406 22.0396L38.4262 22.6469C36.7212 24.3274 34.6671 25.6643 32.4847 26.5127C31.0548 27.0694 29.4399 27.1447 28.0471 27.1447C27.3981 27.1447 26.7344 27.1259 26.0324 27.1059L25.9744 27.1047C25.1701 27.08 24.3225 27.0694 23.4552 27.0694C22.8334 27.0694 22.1993 27.0764 21.5677 27.0882C20.8842 27.1023 20.2698 27.1141 19.6702 27.1141C17.9122 27.1141 16.0629 27.0235 14.4467 26.3586C9.02457 24.1379 4.77817 18.8175 4.77817 14.2408L4.79914 14.142C5.04835 14.1172 5.40489 14.0984 5.91071 14.0984C7.30726 14.0984 9.26268 14.2455 11.5265 14.4161C12.2532 14.4703 13.0193 14.5279 13.8175 14.5844L14.8908 14.6597L15.5496 13.8489C16.1147 13.1534 16.7759 12.5344 17.5137 12.0083L18.4476 11.3423L18.3008 10.2384C18.2515 9.87005 18.2268 9.52054 18.2268 9.18867L18.2477 9.09099C18.497 9.06628 18.8535 9.04865 19.3593 9.04865C20.7571 9.04865 22.7113 9.19454 24.9751 9.36401C25.7018 9.41932 26.4679 9.477 27.2661 9.53348L28.3395 9.60879L28.9982 8.79797C29.6953 7.94006 30.5305 7.20453 31.4805 6.61024C33.1595 5.56051 35.1051 5.00507 37.1062 5.00507C39.1122 5.00507 41.0626 5.56406 42.7454 6.6185C43.6954 7.21397 44.5281 7.95185 45.2239 8.81093L45.8815 9.62176L46.9536 9.54878C47.7469 9.49465 48.508 9.43935 49.2298 9.38875C51.4961 9.22517 53.4552 9.08395 54.853 9.08395C55.3588 9.08395 55.7178 9.10276 55.9695 9.12629L55.9868 9.2016C55.9855 13.8842 51.5713 19.2682 45.937 21.4606Z" fill="#6B5951"/>
<path d="M56.7837 4.3472C55.9115 4.11183 54.8826 4.08007 54.0844 4.08007C52.5361 4.08007 50.5078 4.226 48.1601 4.39546C47.7592 4.42371 47.3459 4.45432 46.9215 4.48374C46.1122 3.62819 45.1943 2.87855 44.1814 2.24189C41.8423 0.775563 39.1306 0 36.34 0C33.5555 0 30.8488 0.772029 28.5146 2.23129C27.503 2.8656 26.5851 3.61404 25.7745 4.46489C25.3452 4.43311 24.927 4.40136 24.5223 4.37194C22.1746 4.19659 20.1464 4.04477 18.5919 4.04477C17.79 4.04477 16.7574 4.07538 15.8778 4.32134C13.625 4.95094 13.4498 6.63498 13.4498 7.1363C13.4498 7.28929 13.4572 7.44463 13.4733 7.60232C13.4585 7.73883 13.4498 7.87769 13.4498 8.01655C13.4498 8.15895 13.4523 8.30487 13.4597 8.45197C13.0612 8.78619 12.6825 9.14278 12.3247 9.51818C11.8954 9.48759 11.4772 9.45462 11.0713 9.4252C8.72352 9.24986 6.69531 9.09688 5.14085 9.09688C4.33894 9.09688 3.3051 9.12864 2.4267 9.3746C0.17519 10.0042 0 11.6894 0 12.1908C0 12.3426 0.00739876 12.4991 0.0234369 12.6568C0.00863247 12.7933 0 12.931 0 13.0722C0 16.0766 1.24851 19.3223 3.51482 22.2114C5.73056 25.0335 8.77781 27.3377 12.0952 28.6981C14.3776 29.6349 16.7155 29.7631 18.9028 29.7631C19.5431 29.7631 20.1809 29.7502 20.8854 29.7372C22.3226 29.709 23.7673 29.7137 25.0861 29.7537L25.1478 29.7549C25.8473 29.7749 26.5715 29.7949 27.2797 29.7949C29.0611 29.7949 31.1609 29.6855 33.2311 28.8805C35.6553 27.9379 37.9463 26.5115 39.9042 24.7345C40.178 24.7392 40.4544 24.7416 40.7295 24.7416C42.511 24.7416 44.6107 24.6333 46.6821 23.8284C50.1217 22.4903 53.2812 20.1814 55.5796 17.3264C57.9335 14.4044 59.2289 11.0987 59.2289 8.02126C59.2289 7.88357 59.2215 7.74706 59.2055 7.61055C59.2203 7.45168 59.2289 7.294 59.2289 7.14101C59.2277 6.63733 59.0513 4.9615 56.7837 4.3472ZM45.1659 20.2838C43.736 20.8404 42.1199 20.9134 40.7271 20.9134C40.2101 20.9134 39.6661 20.9005 39.1528 20.8875L38.2695 20.8628L37.6551 21.47C35.9501 23.1505 33.896 24.4874 31.7136 25.3359C30.2837 25.8926 28.6688 25.9679 27.276 25.9679C26.627 25.9679 25.9633 25.949 25.2613 25.929L25.2033 25.9278C24.399 25.9031 23.5514 25.8925 22.6841 25.8925C22.0623 25.8925 21.4282 25.8996 20.7966 25.9114C20.1131 25.9255 19.4987 25.9373 18.8991 25.9373C17.1411 25.9373 15.2918 25.8466 13.6756 25.1817C8.25348 22.9611 4.00707 17.6406 4.00707 13.064L4.02804 12.9651C4.27725 12.9404 4.63379 12.9216 5.13961 12.9216C6.53617 12.9216 8.49159 13.0687 10.7554 13.2393C11.4821 13.2934 12.2482 13.3511 13.0464 13.4076L14.1197 13.4829L14.7785 12.6721C15.3436 11.9766 16.0048 11.3576 16.7426 10.8315L17.6765 10.1654L17.5297 9.06158C17.4804 8.69323 17.4557 8.34371 17.4557 8.01185L17.4767 7.91416C17.7259 7.88945 18.0824 7.87182 18.5882 7.87182C19.986 7.87182 21.9402 8.01772 24.2041 8.18718C24.9307 8.24249 25.6968 8.30017 26.495 8.35666L27.5684 8.43197L28.2272 7.62114C28.9242 6.76324 29.7594 6.02771 30.7094 5.43341C32.3884 4.38368 34.334 3.82824 36.3351 3.82824C38.3411 3.82824 40.2916 4.38724 41.9743 5.44167C42.9243 6.03715 43.757 6.77502 44.4528 7.63411L45.1104 8.44493L46.1825 8.37196C46.9758 8.31782 47.737 8.26253 48.4587 8.21192C50.725 8.04835 52.6841 7.90712 54.0819 7.90712C54.5877 7.90712 54.9467 7.92593 55.1984 7.94947L55.2157 8.02478C55.2144 12.7074 50.8002 18.0914 45.1659 20.2838Z" fill="white"/>
<path d="M56.9355 8.01657C56.9342 13.1063 52.4201 19.2294 45.8148 21.7984C42.9773 22.9022 39.7549 22.4668 36.3388 22.4668C32.7549 22.4668 29.3844 22.8364 26.4494 21.6325C20.0687 19.0176 15.7421 12.9993 15.7421 8.01657C15.7421 4.4908 24.9628 9.67709 36.3375 9.67709C47.7123 9.67709 56.9355 4.63555 56.9355 8.01657Z" fill="#F9761E"/>
<path d="M29.5251 20.0814C33.167 20.2215 36.9261 20.0284 40.3767 18.7916C42.2174 18.1326 44.2074 17.3617 45.7927 16.1967C51.0125 12.3602 48.9423 9.88419 46.2615 8.5885C43.3166 9.17221 39.9375 9.67709 36.3388 9.67709C24.9641 9.67709 15.7434 4.4908 15.7434 8.01657C15.7434 10.7174 17.0215 13.7171 19.2014 16.3203C22.3683 18.3903 25.7943 19.939 29.5251 20.0814Z" fill="#FB921D"/>
<path d="M40.7283 22.8258C40.03 22.8258 39.317 22.8046 38.594 22.7858C37.1802 22.7446 35.7035 22.741 34.2946 22.7681C33.637 22.7822 32.9893 22.7952 32.3527 22.7952C30.38 22.7952 28.2864 22.6845 26.3384 21.8855C20.1341 19.3435 15.4559 13.3805 15.4559 8.01656C15.4559 7.01861 16.1135 6.51375 17.4089 6.51375C18.6364 6.51375 20.4203 6.92801 22.6768 7.45052C26.2311 8.2743 31.0993 9.40287 36.34 9.40287C41.608 9.40287 46.4922 8.29546 50.0588 7.48816C52.3091 6.97742 54.0856 6.57494 55.3021 6.57494C56.5765 6.57494 57.223 7.06099 57.223 8.01775C57.223 13.5159 52.3646 19.5495 45.9235 22.0549C44.1716 22.7351 42.3136 22.8258 40.7283 22.8258ZM36.3351 22.1926C37.1074 22.1926 37.8649 22.215 38.6113 22.235C39.3293 22.2562 40.035 22.2762 40.7283 22.2762C42.2594 22.2762 44.047 22.1891 45.7051 21.5442C51.9427 19.1176 56.6468 13.3029 56.6468 8.01656C56.6468 7.55289 56.484 7.12453 55.3021 7.12453C54.1523 7.12453 52.4041 7.51996 50.1908 8.02364C46.5971 8.83683 41.6746 9.95243 36.3388 9.95243C31.0289 9.95243 26.1225 8.81562 22.5398 7.98478C20.3192 7.47051 18.5661 7.06452 17.4076 7.06452C16.1974 7.06452 16.0308 7.52348 16.0308 8.01775C16.0308 13.1758 20.5585 18.9211 26.5629 21.3806C28.4172 22.1409 30.4417 22.2444 32.3515 22.2444C32.9856 22.2444 33.6284 22.2326 34.281 22.2197C34.9571 22.2044 35.6418 22.1926 36.3351 22.1926Z" fill="#874A0E"/>
<path d="M56.9355 7.13632C56.9355 11.3199 47.7136 14.7103 36.3388 14.7103C24.9641 14.7103 15.7434 11.3199 15.7434 7.13632C15.7434 5.111 24.9641 7.11632 36.3388 7.11632C47.7136 7.11632 56.9355 5.19103 56.9355 7.13632Z" fill="#F9761E"/>
<path d="M21.6417 9.55586C23.4133 8.93685 24.6458 7.71177 25.9856 6.67381C19.8664 6.22779 15.7434 5.78296 15.7434 7.13631C15.7434 7.70001 15.9222 8.24487 16.2381 8.77326C17.9912 9.74062 19.8516 10.1819 21.6417 9.55586Z" fill="#FB921D"/>
<path d="M50.8213 8.82619C53.1826 9.18512 55.1096 8.38725 56.9281 7.10333C56.8553 5.8759 52.9247 6.25014 47.0745 6.6632C48.1762 7.51993 49.4321 8.61436 50.8213 8.82619Z" fill="#FB921D"/>
<path d="M36.3388 14.9845C24.6272 14.9845 15.4547 11.5376 15.4547 7.13632C15.4547 6.09718 17.04 5.95712 18.5907 5.95712C20.0625 5.95712 22.0562 6.10541 24.3645 6.2784C27.7103 6.52907 31.874 6.84211 36.3388 6.84211C40.8023 6.84211 44.9661 6.54318 48.3119 6.30193C50.6202 6.136 52.6126 5.99242 54.0856 5.99242C55.6376 5.99242 57.223 6.12778 57.223 7.13632C57.223 11.5376 48.0491 14.9845 36.3388 14.9845ZM18.5907 6.50552C16.8919 6.50552 16.0308 6.71736 16.0308 7.13513C16.0308 11.1599 25.1405 14.4338 36.3388 14.4338C47.5371 14.4338 56.6456 11.1599 56.6456 7.13513C56.6456 6.86564 56.2014 6.54201 54.0844 6.54201C52.6336 6.54201 50.651 6.6844 48.3539 6.85033C44.9994 7.09158 40.8233 7.39051 36.3388 7.39051C31.8518 7.39051 27.6745 7.07747 24.3188 6.82681C22.0241 6.65382 20.0416 6.50552 18.5907 6.50552Z" fill="#874A0E"/>
<path d="M42.9206 4.06949C41.0306 2.88325 38.7729 2.18656 36.34 2.18656C33.9146 2.18656 31.6606 2.87854 29.773 4.06008C26.5999 6.04656 24.4817 9.42642 24.362 13.2888C27.7386 14.1808 31.8666 14.7092 36.3388 14.7092C40.811 14.7092 44.9389 14.1808 48.3156 13.2888C48.1972 9.4323 46.0863 6.05597 42.9206 4.06949Z" fill="#F9761E"/>
<path d="M37.1098 14.6974C38.6692 14.3114 40.0473 13.6512 41.0355 12.5367C44.2332 8.93095 41.883 3.37515 36.7533 3.18333C35.1125 3.12214 33.4371 3.02563 31.779 3.05505C31.0746 3.3316 30.401 3.667 29.7718 4.06006C26.5987 6.04654 24.4804 9.4264 24.3607 13.2887C27.7374 14.1808 31.8654 14.7092 36.3375 14.7092C36.5991 14.7092 36.8532 14.7021 37.1098 14.6974Z" fill="#FB921D"/>
<path d="M36.3388 14.9845C31.9999 14.9845 27.8312 14.4914 24.2843 13.5559L24.0659 13.497L24.0733 13.2817C24.1905 9.46168 26.2619 5.92766 29.6139 3.83056C31.6199 2.57606 33.9454 1.91118 36.3388 1.91118C38.7384 1.91118 41.0688 2.57841 43.0798 3.83997C46.4207 5.93707 48.4859 9.46756 48.6043 13.2817L48.6105 13.497L48.3934 13.5559C44.8465 14.4914 40.6778 14.9845 36.3388 14.9845ZM24.6581 13.0816C28.1075 13.9666 32.1405 14.4338 36.3388 14.4338C40.5371 14.4338 44.5701 13.9666 48.0183 13.0816C47.837 9.52995 45.884 6.25836 42.7627 4.29895C40.8468 3.09741 38.6249 2.46192 36.3388 2.46192C34.0577 2.46192 31.842 3.09271 29.9297 4.28954C26.7986 6.25013 24.8407 9.52407 24.6581 13.0816Z" fill="#874A0E"/>
<path d="M30.4985 15.7118C30.4985 15.7118 21.2926 14.9292 17.23 11.3834C19.8232 15.5871 23.1505 17.6077 23.1505 17.6077C22.1561 16.2885 21.6812 14.9845 21.6812 14.9845C24.188 15.7118 29.3745 15.753 30.4985 15.7118Z" fill="#F4C790"/>
<path d="M32.919 3.83765C32.919 3.83765 27.8188 6.84913 28.3382 12.6615C25.745 12.2896 25.745 12.2896 25.745 12.2896C25.745 12.2896 26.8035 5.47815 32.919 3.83765Z" fill="#F4C790"/>
<path d="M43.4844 13.071C43.4844 18.1596 38.9703 24.2826 32.3638 26.8528C29.5275 27.9567 26.3051 27.5201 22.8877 27.5201C19.3038 27.5201 15.9346 27.8884 12.9996 26.6869C6.61763 24.0708 2.29103 18.0514 2.29103 13.071C2.29103 9.54526 11.5117 14.7304 22.8865 14.7304C34.2612 14.7304 43.4844 9.68883 43.4844 13.071Z" fill="#F9761E"/>
<path d="M16.0752 25.1358C19.7171 25.2747 23.4762 25.0805 26.9256 23.846C28.7675 23.1858 30.7575 22.415 32.3416 21.2511C37.5601 17.4147 35.4912 14.9375 32.8104 13.643C29.8668 14.2255 26.4876 14.7304 22.8877 14.7304C11.5129 14.7304 2.29224 9.54526 2.29224 13.071C2.29224 15.7707 3.57036 18.7716 5.75031 21.3735C8.91723 23.4436 12.3432 24.9923 16.0752 25.1358Z" fill="#FB921D"/>
<path d="M27.2772 27.8802C26.579 27.8802 25.8659 27.859 25.1429 27.839C23.7291 27.7978 22.2524 27.7955 20.8422 27.8226C20.1859 27.8367 19.537 27.8484 18.9004 27.8484C16.9277 27.8484 14.8341 27.7378 12.8848 26.9399C6.68055 24.398 2.00358 18.435 2.00358 13.071C2.00358 12.0731 2.66114 11.5682 3.95653 11.5682C5.18407 11.5682 6.968 11.9813 9.22444 12.5038C12.7787 13.3287 17.6469 14.4573 22.8877 14.4573C28.1569 14.4573 33.0399 13.3499 36.6077 12.5415C38.858 12.0307 40.6346 11.6294 41.851 11.6294C43.1266 11.6294 43.7731 12.1143 43.7731 13.0722C43.7731 18.5703 38.9148 24.6039 32.4736 27.1082C30.7217 27.7872 28.8638 27.8802 27.2772 27.8802ZM22.8853 27.2459C23.6563 27.2459 24.415 27.2671 25.1602 27.2895C25.8782 27.3106 26.5839 27.3306 27.2772 27.3306C28.807 27.3306 30.5947 27.2435 32.2552 26.5975C38.4928 24.172 43.1957 18.3573 43.1957 13.071C43.1957 12.6062 43.0329 12.179 41.851 12.179C40.7012 12.179 38.953 12.5744 36.7398 13.0757C33.146 13.8901 28.2235 15.0069 22.8877 15.0069C17.5779 15.0069 12.6714 13.8689 9.08874 13.0393C6.86807 12.5238 5.11498 12.1178 3.95653 12.1178C2.74627 12.1178 2.57972 12.5767 2.57972 13.0722C2.57972 18.2302 7.10741 23.9743 13.1131 26.4351C14.9661 27.1953 16.9906 27.2989 18.9004 27.2989C19.5333 27.2989 20.1773 27.2871 20.8299 27.2742C21.5072 27.2589 22.1919 27.2459 22.8853 27.2459Z" fill="#874A0E"/>
<path d="M43.4844 12.1908C43.4844 16.3744 34.2625 19.7648 22.8877 19.7648C11.5129 19.7648 2.29224 16.3744 2.29224 12.1908C2.29224 10.1631 11.5129 12.1696 22.8877 12.1696C34.2625 12.1696 43.4844 10.2455 43.4844 12.1908Z" fill="#F9761E"/>
<path d="M8.19181 14.6103C9.96341 13.9901 11.1947 12.7651 12.5345 11.7259C6.41651 11.2823 2.29224 10.8362 2.29224 12.1908C2.29224 12.7533 2.47113 13.2982 2.78696 13.8277C4.54005 14.7927 6.40047 15.2352 8.19181 14.6103Z" fill="#FB921D"/>
<path d="M37.3702 13.8795C39.7327 14.2384 41.6598 13.4418 43.477 12.1578C43.4042 10.9292 39.4749 11.3035 33.6246 11.7165C34.7251 12.5744 35.981 13.6677 37.3702 13.8795Z" fill="#FB921D"/>
<path d="M22.8877 20.039C11.1774 20.039 2.00358 16.5921 2.00358 12.1908C2.00358 11.1493 3.58889 11.0092 5.13965 11.0092C6.61146 11.0092 8.60513 11.1587 10.9134 11.3317C14.2592 11.5824 18.4229 11.8954 22.8877 11.8954C27.3525 11.8954 31.515 11.5953 34.8608 11.3564C37.1691 11.1893 39.1627 11.0457 40.6346 11.0457C42.1866 11.0457 43.7719 11.181 43.7719 12.1908C43.7731 16.5921 34.5993 20.039 22.8877 20.039ZM5.14088 11.5576C3.44207 11.5576 2.58095 11.7718 2.58095 12.1896C2.58095 16.2131 11.6906 19.4871 22.8877 19.4871C34.0861 19.4871 43.1957 16.2131 43.1957 12.1896C43.1957 11.9189 42.7516 11.5953 40.6346 11.5953C39.1837 11.5953 37.1999 11.7365 34.904 11.9024C31.5496 12.1437 27.3735 12.445 22.8877 12.445C18.4007 12.445 14.2246 12.1307 10.869 11.8801C8.57305 11.7071 6.59049 11.5576 5.14088 11.5576Z" fill="#874A0E"/>
<path d="M29.4708 9.12278C27.5795 7.93654 25.3218 7.24104 22.8889 7.24104C20.4647 7.24104 18.2095 7.93302 16.3219 9.11337C13.1501 11.0999 11.0306 14.4797 10.9121 18.3432C14.2888 19.2341 18.4168 19.7636 22.8889 19.7636C27.3624 19.7636 31.4903 19.2341 34.867 18.3432C34.7473 14.4867 32.6364 11.1104 29.4708 9.12278Z" fill="#F9761E"/>
<path d="M23.6588 19.7519C25.2194 19.3659 26.5962 18.7057 27.5857 17.5912C30.7834 13.9854 28.432 8.42844 23.3035 8.23662C21.6614 8.17542 19.9873 8.07891 18.3292 8.10833C17.6247 8.38606 16.9511 8.72029 16.3219 9.11335C13.1501 11.0998 11.0306 14.4797 10.9121 18.3432C14.2888 19.234 18.4168 19.7636 22.8889 19.7636C23.148 19.7636 23.4022 19.7542 23.6588 19.7519Z" fill="#FB921D"/>
<path d="M22.8877 20.039C18.5488 20.039 14.3813 19.5436 10.8332 18.6092L10.6161 18.5515L10.6223 18.3362C10.7407 14.5138 12.8108 10.981 16.1628 8.88269C18.1688 7.62937 20.4944 6.96564 22.8877 6.96564C25.2885 6.96564 27.619 7.63172 29.6287 8.89328C32.9696 10.9904 35.0348 14.5209 35.1532 18.3362L35.1594 18.5515L34.941 18.6092C31.3954 19.5436 27.2279 20.039 22.8877 20.039ZM11.2083 18.1361C14.6577 19.0199 18.6907 19.4871 22.8877 19.4871C27.086 19.4871 31.119 19.0199 34.5684 18.1361C34.3871 14.5821 32.4341 11.3117 29.3116 9.35226C27.3969 8.15072 25.175 7.51523 22.8877 7.51523C20.6066 7.51523 18.3909 8.14602 16.4787 9.34285C13.3487 11.3034 11.3909 14.5774 11.2083 18.1361Z" fill="#874A0E"/>
<path d="M17.0473 20.7663C17.0473 20.7663 7.84143 19.9826 3.77885 16.4368C6.37333 20.6416 9.70062 22.6622 9.70062 22.6622C8.70626 21.343 8.23128 20.039 8.23128 20.039C10.7382 20.7663 15.9234 20.8075 17.0473 20.7663Z" fill="#F4C790"/>
<path d="M19.4679 8.89213C19.4679 8.89213 14.3677 11.9012 14.8871 17.7136C12.2927 17.3441 12.2926 17.3441 12.2926 17.3441C12.2926 17.3441 13.3524 10.5303 19.4679 8.89213Z" fill="#F4C790"/>
</svg>
