<svg width="82" height="35" viewBox="0 0 82 35" fill="none" xmlns="http://www.w3.org/2000/svg">
<path d="M71.2537 27.6634C68.9663 27.9803 66.806 27.8571 64.8321 27.2977C62.7449 26.706 60.9879 25.7211 59.6085 24.3705C58.9322 23.7163 58.3307 23.0209 57.8072 22.2884L56.3549 25.8023C55.9063 26.8752 55.1717 27.8316 54.168 28.6522C53.0923 29.5304 51.8973 30.0673 50.6156 30.2453C49.4196 30.4116 48.2316 30.2806 47.0839 29.859C46.0467 29.4776 45.2214 28.9808 44.5638 28.3422L44.0156 27.8385L41.3249 24.4546C41.1948 24.792 41.0488 25.1265 40.8891 25.4532C39.7828 27.7309 38.2408 29.55 36.3083 30.8586C34.4527 32.1163 32.4128 32.9065 30.2466 33.2067C28.046 33.5128 25.8266 33.2732 23.6486 32.4987C23.058 32.2894 22.4832 32.039 21.9271 31.7485C21.6579 32.2434 21.3138 32.6825 20.8948 33.0708L20.88 33.0835C19.8793 33.9979 18.5423 34.5436 16.668 34.8028C15.8516 34.9162 14.9209 34.9808 13.8196 34.9984L13.7979 34.9994C11.5874 35.0199 8.56639 34.5319 6.67729 32.083C5.40935 30.4488 4.57323 28.0967 4.12068 24.8918L1.82337 8.58864C1.72182 7.8659 1.67254 7.31528 1.6686 6.85465C1.66268 6.1456 1.77705 5.41701 2.02058 4.6307L2.04621 4.54853L2.0748 4.46834C2.62891 2.91137 4.11479 0.943657 8.05567 0.397936C11.8437 -0.128226 13.8087 1.30258 14.7897 2.59451L14.8351 2.65513C15.3794 3.39841 15.7472 4.13679 15.9582 4.9143C16.0804 5.3632 16.1839 5.90599 16.2845 6.61895L17.0171 11.8131C17.1699 11.6028 17.3316 11.3955 17.5002 11.1911C19.8734 8.30011 22.8884 6.58277 26.4596 6.0879C29.3721 5.68399 32.1456 6.15931 34.7288 7.5021C35.1212 7.04439 35.5807 6.60525 36.1052 6.18765L36.1476 6.15341C37.5842 5.04046 38.8531 4.43901 40.1417 4.25906C41.8159 4.02727 43.425 4.45564 44.6723 5.46493C45.3072 5.97837 45.9234 6.66002 46.5603 7.54901L47.5611 8.94658L48.1724 7.239L48.2089 7.15C48.4337 6.60233 48.5984 6.217 48.7285 5.93631C49.0608 5.2302 49.538 4.59159 50.1897 3.98229C51.0938 3.13926 52.2335 2.61797 53.5784 2.43215C54.8434 2.25513 56.1942 2.49474 57.8269 3.18227C58.4303 3.43459 58.9805 3.72212 59.4745 4.04193C61.614 2.08692 64.2889 0.878123 67.4499 0.439004C69.6782 0.129957 71.7506 0.271773 73.6082 0.861504C75.5959 1.48938 77.3193 2.61309 78.7352 4.19939L78.7549 4.21993C80.2536 5.92262 81.1705 7.91284 81.4841 10.1348C81.7917 12.3089 81.4841 14.1935 80.572 15.7524C81.2504 16.8057 81.6516 17.818 81.7956 18.839C81.979 20.1319 81.9957 23.3808 78.2373 25.5881C76.5799 26.5632 74.2954 27.2419 71.2537 27.6634Z" fill="#7C7A7A"/>
<path d="M69.5835 27.3828C67.2971 27.7006 65.1359 27.5774 63.1629 27.017C61.0767 26.4263 59.3187 25.4415 57.9394 24.0899C57.262 23.4376 56.6615 22.7422 56.138 22.0077L54.6857 25.5217C54.2371 26.5955 53.5025 27.551 52.4998 28.3725C51.4221 29.2517 50.2282 29.7877 48.9474 29.9657C47.7505 30.1309 46.5633 30.0009 45.4157 29.5784C44.3765 29.197 43.5532 28.7011 42.8946 28.0615L42.3454 27.5578L39.6548 24.174C39.5256 24.5124 39.3807 24.8458 39.2209 25.1745C38.1137 27.4522 36.5717 29.2703 34.6402 30.5789C32.7846 31.8366 30.7446 32.6268 28.5774 32.926C26.3778 33.2321 24.1584 32.9935 21.9804 32.2199C21.3888 32.0097 20.815 31.7593 20.2579 31.4688C19.9897 31.9637 19.6457 32.4028 19.2256 32.7911L19.2108 32.8028C18.2101 33.7173 16.8721 34.263 14.9998 34.5231C14.1834 34.6366 13.2517 34.7011 12.1504 34.7187H12.1297C9.91815 34.7402 6.89721 34.2522 5.00811 31.8023C3.74016 30.1691 2.90304 27.817 2.45246 24.6111L0.155217 8.30795C0.0526771 7.58619 0.00333627 7.0346 0.000378394 6.57494C-0.00750929 5.86492 0.107866 5.13828 0.351398 4.35099L0.378057 4.26787L0.405619 4.18768C0.959728 2.63169 2.4446 0.662967 6.38745 0.117246C10.1735 -0.406959 12.1395 1.02191 13.1206 2.31579L13.1669 2.37546C13.7111 3.11873 14.0789 3.85809 14.2889 4.63364C14.4112 5.08351 14.5157 5.62532 14.6163 6.34023L15.3468 11.5324C15.5016 11.3231 15.6624 11.1158 15.831 10.9104C18.2042 8.01945 21.2192 6.30211 24.7904 5.80724C27.7039 5.40333 30.4764 5.87961 33.0596 7.22239C33.4521 6.76371 33.9125 6.32558 34.436 5.90797L34.4804 5.87472C35.9159 4.75981 37.1859 4.15833 38.4745 3.97935C40.1477 3.74757 41.7578 4.17592 43.004 5.18424C43.639 5.69768 44.2562 6.38034 44.8931 7.26934L45.8939 8.66688L46.5042 6.9593L46.5406 6.87128C46.7654 6.32263 46.9301 5.93828 47.0613 5.65759C47.3925 4.95148 47.8698 4.3109 48.5215 3.70259C49.4256 2.85956 50.5654 2.33731 51.9112 2.15149C53.1762 1.97643 54.5259 2.21408 56.1587 2.90161C56.7631 3.15589 57.3123 3.44245 57.8072 3.76225C59.9467 1.80626 62.6197 0.597464 65.7827 0.158344C68.011 -0.149724 70.0824 -0.00793811 71.941 0.580815C73.9277 1.20967 75.6521 2.33243 77.067 3.91874L77.0867 3.93927C78.5853 5.64294 79.5033 7.6312 79.8168 9.8532C80.1234 12.0283 79.8168 13.9129 78.9038 15.4718C79.5822 16.5251 79.9834 17.5363 80.1274 18.5573C80.3108 19.8503 80.3286 23.1001 76.5691 25.3075C74.9107 26.2825 72.6272 26.9622 69.5835 27.3828Z" fill="white"/>
<path d="M11.9729 32.7666C11.8979 32.7657 11.824 32.7657 11.7491 32.7647C11.6643 32.7637 11.5982 32.6943 11.5992 32.6111C11.6022 32.528 11.6682 32.4615 11.752 32.4615C11.753 32.4615 11.754 32.4615 11.754 32.4615C11.8674 32.4635 11.9808 32.4644 12.0981 32.4635H12.1129C12.3012 32.4595 12.4856 32.4547 12.665 32.4488C12.7489 32.4459 12.8198 32.5114 12.8228 32.5955C12.8247 32.6776 12.7597 32.7481 12.6749 32.751C12.4955 32.7569 12.3101 32.7618 12.1188 32.7657H12.103C12.0577 32.7657 12.0163 32.7666 11.9729 32.7666ZM10.838 32.7109C10.8331 32.7109 10.8272 32.7109 10.8213 32.7109C10.5028 32.6777 10.1922 32.6287 9.9004 32.5681C9.81758 32.5505 9.76533 32.4703 9.78209 32.3891C9.79984 32.307 9.88169 32.2542 9.96353 32.2718C10.2455 32.3314 10.5442 32.3764 10.8528 32.4097C10.9376 32.4175 10.9968 32.4918 10.9899 32.5769C10.9811 32.6522 10.9159 32.7109 10.838 32.7109ZM13.5849 32.705C13.5051 32.705 13.439 32.6434 13.4331 32.5632C13.4262 32.4801 13.4903 32.4087 13.5751 32.4018C13.8925 32.3794 14.1972 32.35 14.4802 32.3148C14.564 32.305 14.6399 32.3637 14.6498 32.4478C14.6606 32.53 14.6005 32.6062 14.5167 32.616C14.2298 32.6512 13.9201 32.6806 13.5958 32.705C13.5928 32.705 13.5889 32.705 13.5849 32.705ZM15.403 32.4732C15.332 32.4732 15.267 32.4234 15.2542 32.351C15.2364 32.2688 15.2897 32.1896 15.3715 32.172C15.685 32.1084 15.9778 32.0302 16.2401 31.9432C16.32 31.9168 16.4058 31.9588 16.4334 32.039C16.459 32.1182 16.4156 32.2043 16.3368 32.2317C16.0646 32.3226 15.759 32.4028 15.4336 32.4693C15.4228 32.4713 15.4139 32.4732 15.403 32.4732ZM9.04954 32.3265C9.03179 32.3265 9.01601 32.3226 8.99827 32.3168C8.69459 32.2111 8.40567 32.084 8.13946 31.9393C8.06552 31.8982 8.03792 31.8063 8.07736 31.7329C8.11877 31.6596 8.21145 31.6312 8.2854 31.6723C8.5378 31.8092 8.81189 31.9305 9.09979 32.0302C9.17965 32.0586 9.22109 32.1456 9.19349 32.2229C9.17179 32.2874 9.11264 32.3265 9.04954 32.3265ZM17.1255 31.8727C17.0723 31.8727 17.021 31.8444 16.9924 31.7965C16.951 31.7231 16.9766 31.6302 17.0506 31.5891C17.2793 31.4591 17.4874 31.3114 17.6678 31.1471L17.6747 31.1402C17.6994 31.1177 17.725 31.0933 17.7487 31.0688C17.8098 31.0092 17.9064 31.0102 17.9666 31.0698C18.0257 31.1295 18.0257 31.2253 17.9636 31.285C17.938 31.3114 17.9103 31.3368 17.8827 31.3622L17.8758 31.3691C17.6776 31.551 17.4499 31.7133 17.2015 31.8532C17.1778 31.8659 17.1512 31.8727 17.1255 31.8727ZM7.45325 31.4522C7.41874 31.4522 7.38522 31.4414 7.35564 31.418C7.11211 31.2204 6.88631 30.9974 6.68616 30.7569C6.63193 30.6923 6.64179 30.5965 6.70686 30.5437C6.77193 30.4899 6.86858 30.4997 6.92182 30.5642C7.11014 30.7901 7.32017 30.9974 7.5499 31.1833C7.61497 31.2371 7.62483 31.3309 7.5706 31.3965C7.54102 31.4326 7.49762 31.4522 7.45325 31.4522ZM26.7209 31.1021C26.6637 31.1021 26.6075 31.1011 26.5523 31.1011C26.4675 31.0991 26.3994 31.0307 26.4004 30.9476C26.4024 30.8644 26.4714 30.7979 26.5533 30.7979C26.5543 30.7979 26.5543 30.7979 26.5562 30.7979C26.8569 30.8028 27.1596 30.795 27.4594 30.7745C27.5461 30.7686 27.6171 30.8331 27.622 30.9163C27.628 31.0004 27.5639 31.0728 27.4791 31.0786C27.2287 31.0933 26.9723 31.1021 26.7209 31.1021ZM25.6393 31.0493C25.6344 31.0493 25.6285 31.0493 25.6235 31.0493C25.3179 31.0199 25.0093 30.9789 24.7036 30.9251C24.6208 30.9104 24.5656 30.8322 24.5794 30.75C24.5942 30.6669 24.673 30.6121 24.7568 30.6268C25.0546 30.6786 25.3553 30.7187 25.6531 30.7471C25.7369 30.7559 25.798 30.8292 25.7911 30.9133C25.7832 30.9926 25.7172 31.0493 25.6393 31.0493ZM28.3822 30.9798C28.3083 30.9798 28.2423 30.9251 28.2314 30.8498C28.2186 30.7676 28.2767 30.6904 28.3605 30.6776C28.6583 30.6336 28.9571 30.5779 29.2489 30.5114C29.3327 30.4928 29.4136 30.5446 29.4333 30.6268C29.453 30.707 29.3997 30.7891 29.3189 30.8077C29.0172 30.8752 28.7115 30.9329 28.4049 30.9779C28.396 30.9789 28.3891 30.9798 28.3822 30.9798ZM23.836 30.7363C23.8222 30.7363 23.8094 30.7353 23.7975 30.7314C23.5008 30.6571 23.202 30.5691 22.9072 30.4703C22.8273 30.4449 22.784 30.3579 22.8116 30.2786C22.8372 30.1994 22.923 30.1564 23.0048 30.1828C23.2907 30.2786 23.5836 30.3637 23.8725 30.4371C23.9553 30.4586 24.0046 30.5397 23.9819 30.6219C23.9642 30.6913 23.902 30.7363 23.836 30.7363ZM18.4014 30.6004C18.3767 30.6004 18.353 30.5955 18.3303 30.5837C18.2554 30.5446 18.2278 30.4517 18.2673 30.3794C18.3955 30.1378 18.496 29.8639 18.5709 29.5627C18.5907 29.4815 18.6735 29.4317 18.7553 29.4522C18.8372 29.4708 18.8884 29.5529 18.8677 29.6351C18.7889 29.9588 18.6784 30.2581 18.5384 30.5202C18.5088 30.573 18.4566 30.6004 18.4014 30.6004ZM30.1678 30.5749C30.1037 30.5749 30.0416 30.5339 30.0219 30.4693C29.9972 30.3891 30.0416 30.304 30.1234 30.2796C30.4093 30.1906 30.6963 30.0908 30.9753 29.9793C31.0542 29.949 31.1419 29.9872 31.1745 30.0635C31.205 30.1417 31.1675 30.2307 31.0887 30.262C30.8018 30.3735 30.507 30.4781 30.2131 30.5691C30.1993 30.574 30.1836 30.5749 30.1678 30.5749ZM22.0967 30.1583C22.077 30.1583 22.0563 30.1534 22.0366 30.1456C21.7536 30.0263 21.4706 29.8933 21.1975 29.7534C21.1216 29.7143 21.094 29.6224 21.1315 29.5481C21.1709 29.4737 21.2636 29.4454 21.3385 29.4845C21.6047 29.6224 21.8808 29.7505 22.1559 29.8679C22.2338 29.8992 22.2703 29.9891 22.2377 30.0664C22.2141 30.1221 22.1559 30.1583 22.0967 30.1583ZM6.27701 30.0683C6.22475 30.0683 6.17447 30.0439 6.14588 29.9969C5.99108 29.7446 5.84218 29.4708 5.70513 29.1803C5.66964 29.105 5.70221 29.0151 5.77813 28.9799C5.85405 28.9437 5.9467 28.9769 5.9822 29.0522C6.1153 29.3309 6.25731 29.597 6.40717 29.8395C6.45154 29.9099 6.42788 30.0038 6.3559 30.0478C6.33224 30.0615 6.30363 30.0683 6.27701 30.0683ZM31.8706 29.904C31.8124 29.904 31.7601 29.8728 31.7316 29.819C31.6961 29.7427 31.7266 29.6527 31.8015 29.6165C32.0697 29.4855 32.3389 29.3427 32.6002 29.1911C32.6721 29.149 32.7668 29.1725 32.8092 29.2458C32.8516 29.3172 32.8279 29.4111 32.753 29.4532C32.4868 29.6077 32.2117 29.7554 31.9366 29.8884C31.9159 29.8982 31.8913 29.904 31.8706 29.904ZM20.4729 29.3173C20.4443 29.3173 20.4166 29.3104 20.392 29.2938C20.1307 29.1334 19.8734 28.9593 19.625 28.7754C19.5579 28.7256 19.5431 28.6317 19.5934 28.5632C19.6436 28.4967 19.7383 28.482 19.8074 28.5319C20.0509 28.7109 20.3013 28.8811 20.5547 29.0395C20.6267 29.0835 20.6484 29.1764 20.603 29.2478C20.5735 29.2928 20.5232 29.3173 20.4729 29.3173ZM33.452 28.9867C33.4037 28.9867 33.3554 28.9642 33.3259 28.9212C33.2785 28.8527 33.2963 28.7578 33.3653 28.7099C33.6127 28.5427 33.8563 28.3627 34.089 28.172C34.1531 28.1182 34.2497 28.128 34.3039 28.1935C34.3572 28.2581 34.3473 28.353 34.2832 28.4068C34.0446 28.6004 33.7932 28.7881 33.5388 28.9593C33.5112 28.9779 33.4826 28.9867 33.452 28.9867ZM18.852 28.8527C18.848 28.8527 18.844 28.8517 18.8411 28.8517C18.7563 28.8459 18.6942 28.7735 18.6982 28.6903C18.711 28.53 18.7159 28.3617 18.7159 28.1886C18.7159 28.1172 18.7159 28.0459 18.7129 27.9715L18.7031 27.6234L18.9673 27.8542C19.0116 27.8933 19.055 27.9304 19.1004 27.9686C19.1645 28.0243 19.1714 28.1192 19.1162 28.1837C19.0915 28.2111 19.057 28.2297 19.0216 28.2346C19.0216 28.3979 19.0146 28.5574 19.0048 28.7099C18.9979 28.7921 18.9318 28.8527 18.852 28.8527ZM5.4912 28.4292C5.42909 28.4292 5.36991 28.3921 5.34822 28.3295C5.24568 28.0547 5.14614 27.7613 5.05641 27.4561C5.03275 27.3759 5.07712 27.2918 5.15896 27.2684C5.23981 27.2449 5.32456 27.2908 5.34822 27.37C5.43695 27.6683 5.53358 27.9549 5.63316 28.2239C5.66175 28.3021 5.62135 28.3891 5.54247 28.4185C5.52571 28.4263 5.50895 28.4292 5.4912 28.4292ZM47.8569 28.0781C47.8549 28.0781 47.8549 28.0781 47.854 28.0781C47.5414 28.0723 47.2239 28.038 46.9163 27.9764C46.8335 27.9588 46.7802 27.8786 46.797 27.7965C46.8147 27.7153 46.8956 27.6615 46.9764 27.6781C47.2683 27.7368 47.566 27.7691 47.8599 27.7749C47.9437 27.7759 48.0098 27.8444 48.0098 27.9285C48.0078 28.0126 47.9397 28.0781 47.8569 28.0781ZM48.7699 28.0126C48.697 28.0126 48.6309 27.9598 48.62 27.8855C48.6052 27.8023 48.6624 27.7261 48.7462 27.7114C49.0341 27.6635 49.322 27.5872 49.6001 27.4816C49.678 27.4522 49.7667 27.4913 49.7963 27.5696C49.8258 27.6478 49.7864 27.7358 49.7076 27.7652C49.4108 27.8767 49.1041 27.9598 48.7945 28.0107C48.7857 28.0126 48.7778 28.0126 48.7699 28.0126ZM34.8669 27.8346C34.8275 27.8346 34.788 27.819 34.7585 27.7896C34.7003 27.728 34.7003 27.6331 34.7614 27.5745C34.9754 27.3681 35.1844 27.1481 35.3826 26.9221C35.4378 26.8596 35.5334 26.8527 35.5985 26.9075C35.6616 26.9622 35.6675 27.0581 35.6133 27.1207C35.4092 27.3544 35.1952 27.5793 34.9763 27.7916C34.9447 27.8209 34.9063 27.8346 34.8669 27.8346ZM46.0683 27.7221C46.0486 27.7221 46.0299 27.7202 46.0132 27.7124C45.7016 27.594 45.4167 27.461 45.1623 27.3182C45.0893 27.2772 45.0627 27.1843 45.1041 27.1119C45.1465 27.0395 45.2392 27.0131 45.3131 27.0542C45.5537 27.1901 45.8258 27.3163 46.1216 27.4297C46.2005 27.4591 46.24 27.5461 46.2104 27.6243C46.1877 27.6859 46.1295 27.7221 46.0683 27.7221ZM50.4756 27.3759C50.4234 27.3759 50.3731 27.3495 50.3435 27.3026C50.3001 27.2312 50.3228 27.1373 50.3958 27.0943C50.6196 26.9593 50.8395 26.8038 51.0524 26.6307C51.0731 26.6111 51.0968 26.5935 51.1175 26.574C51.1816 26.5192 51.2782 26.528 51.3334 26.5926C51.3876 26.6561 51.3788 26.752 51.3147 26.8058C51.292 26.8263 51.2683 26.8449 51.2457 26.8644C51.0218 27.0473 50.7892 27.2106 50.5545 27.3534C50.5299 27.3681 50.5013 27.3759 50.4756 27.3759ZM44.4928 26.8106C44.4573 26.8106 44.4208 26.7979 44.3903 26.7725C44.3439 26.7304 44.2986 26.6894 44.2562 26.6454L43.7928 26.217L43.7149 26.1202C43.6617 26.0547 43.6744 25.9588 43.7395 25.908C43.8056 25.8551 43.9022 25.8659 43.9545 25.9324L44.0235 26.0195L44.4662 26.4263C44.5105 26.4683 44.551 26.5075 44.5943 26.5456C44.6565 26.6014 44.6605 26.6972 44.6052 26.7598C44.5766 26.795 44.5352 26.8106 44.4928 26.8106ZM4.96861 26.6865C4.8996 26.6865 4.83649 26.6405 4.81973 26.5701C4.75269 26.2855 4.68566 25.9823 4.6265 25.6752C4.61073 25.5921 4.66498 25.5129 4.74878 25.4972C4.83062 25.4806 4.91045 25.5353 4.92721 25.6165C4.98735 25.9216 5.05144 26.218 5.11749 26.4996C5.13721 26.5818 5.08694 26.663 5.00412 26.6825C4.9913 26.6855 4.97946 26.6865 4.96861 26.6865ZM36.0697 26.4644C36.0372 26.4644 36.0067 26.4547 35.9791 26.4351C35.911 26.3852 35.8962 26.2913 35.9465 26.2229C36.124 25.9862 36.2955 25.7368 36.4572 25.4815C36.5016 25.4111 36.5972 25.3887 36.6682 25.4336C36.7382 25.4776 36.7609 25.5715 36.7165 25.6429C36.5499 25.905 36.3744 26.1593 36.194 26.4028C36.1634 26.4439 36.1161 26.4644 36.0697 26.4644ZM51.8727 26.2072C51.8362 26.2072 51.7998 26.1935 51.7702 26.1691C51.7071 26.1133 51.7011 26.0185 51.7554 25.9549C51.9575 25.729 52.134 25.4894 52.2819 25.2439C52.3262 25.1735 52.4199 25.149 52.4919 25.1931C52.5649 25.2351 52.5886 25.329 52.5442 25.4004C52.3864 25.6605 52.1981 25.9138 51.9871 26.1544C51.9575 26.1896 51.9141 26.2072 51.8727 26.2072ZM67.2113 25.5999C67.1265 25.5999 67.0584 25.5324 67.0584 25.4483C67.0575 25.3652 67.1256 25.2967 67.2103 25.2967C67.5071 25.2957 67.8117 25.285 68.1164 25.2654C68.2022 25.2596 68.2732 25.3241 68.2781 25.4072C68.285 25.4913 68.2209 25.5627 68.1361 25.5686C67.8255 25.5882 67.514 25.5989 67.2113 25.5999ZM66.2944 25.5725C66.2904 25.5725 66.2865 25.5725 66.2845 25.5725C65.9739 25.552 65.6633 25.5216 65.3606 25.4815C65.2758 25.4698 65.2187 25.3935 65.2295 25.3104C65.2413 25.2263 65.3192 25.1686 65.4011 25.1803C65.6969 25.2204 65.9996 25.2498 66.3023 25.2693C66.3861 25.2752 66.4501 25.3476 66.4462 25.4307C66.4413 25.5109 66.3742 25.5725 66.2944 25.5725ZM69.0383 25.4815C68.9624 25.4815 68.8963 25.4258 68.8874 25.3485C68.8776 25.2654 68.9367 25.1901 69.0215 25.1793C69.1024 25.1686 69.1862 25.1578 69.268 25.1471C69.4908 25.1168 69.7097 25.0835 69.9227 25.0503C70.0065 25.0366 70.0834 25.0923 70.0982 25.1754C70.112 25.2586 70.0538 25.3368 69.971 25.3495C69.7571 25.3828 69.5352 25.416 69.3114 25.4473C69.2266 25.4591 69.1418 25.4698 69.058 25.4806C69.0521 25.4816 69.0452 25.4815 69.0383 25.4815ZM43.2683 25.4659C43.2229 25.4659 43.1785 25.4454 43.1489 25.4072L42.581 24.6933C42.5278 24.6287 42.5406 24.5319 42.6057 24.4801C42.6718 24.4292 42.7674 24.44 42.8207 24.5055L43.3875 25.2195C43.4398 25.284 43.429 25.3808 43.3629 25.4327C43.3343 25.4542 43.3018 25.4659 43.2683 25.4659ZM64.4792 25.3251C64.4684 25.3251 64.4575 25.3241 64.4467 25.3221C64.1972 25.2683 63.9477 25.2067 63.7052 25.1383C63.6529 25.1226 63.6007 25.108 63.5484 25.0923C63.4666 25.0688 63.4212 24.9837 63.4459 24.9045C63.4696 24.8234 63.5553 24.7784 63.6352 24.8028C63.6865 24.8185 63.7378 24.8322 63.789 24.8478C64.0257 24.9143 64.2672 24.975 64.5107 25.0278C64.5936 25.0454 64.6458 25.1256 64.6281 25.2077C64.6133 25.2762 64.5502 25.3251 64.4792 25.3251ZM70.8495 25.196C70.7785 25.196 70.7135 25.1451 70.6997 25.0727C70.6839 24.9896 70.7381 24.9104 70.8219 24.8948C71.1285 24.8361 71.4282 24.7754 71.7132 24.7109C71.795 24.6923 71.8769 24.7432 71.8966 24.8243C71.9153 24.9055 71.864 24.9877 71.7822 25.0072C71.4933 25.0718 71.1896 25.1353 70.879 25.1921C70.8692 25.195 70.8594 25.196 70.8495 25.196ZM37.0449 24.928C37.0212 24.928 36.9965 24.9212 36.9739 24.9094C36.8999 24.8703 36.8713 24.7774 36.9118 24.7041C37.0005 24.5388 37.0893 24.3666 37.1721 24.1945C37.2204 24.0957 37.2667 23.9969 37.3111 23.8972C37.3456 23.8199 37.4373 23.7857 37.5142 23.82C37.5901 23.8542 37.6246 23.9432 37.5901 24.0204C37.5447 24.1221 37.4974 24.2258 37.4481 24.3265C37.3623 24.5035 37.2726 24.6776 37.1809 24.8459C37.1523 24.8977 37.1001 24.928 37.0449 24.928ZM4.61964 24.9006C4.54569 24.9006 4.4796 24.8478 4.46974 24.7715C4.44706 24.6307 4.42537 24.4879 4.40565 24.3432L4.33861 23.8698C4.32678 23.7867 4.38593 23.7114 4.46974 23.6996C4.55256 23.6869 4.63044 23.7456 4.64227 23.8288L4.70931 24.3011C4.72903 24.4449 4.74978 24.5857 4.77147 24.7266C4.78527 24.8097 4.72902 24.8869 4.64522 24.8997C4.63536 24.8997 4.62753 24.9006 4.61964 24.9006ZM62.7242 24.8048C62.7045 24.8048 62.6877 24.8018 62.669 24.795C62.3752 24.6825 62.0882 24.5593 61.8171 24.4273C61.7402 24.3911 61.7096 24.2992 61.7451 24.2248C61.7836 24.1495 61.8743 24.1192 61.9502 24.1554C62.2164 24.2835 62.4955 24.4028 62.7794 24.5114C62.8583 24.5407 62.8977 24.6297 62.8672 24.708C62.8435 24.7676 62.7843 24.8048 62.7242 24.8048ZM72.6361 24.7891C72.57 24.7891 72.5079 24.7451 72.4901 24.6776C72.4675 24.5974 72.5148 24.5133 72.5956 24.4908C72.8983 24.4077 73.1912 24.3197 73.4653 24.2278C73.5441 24.2004 73.6309 24.2434 73.6585 24.3226C73.6841 24.4018 73.6418 24.4889 73.5629 24.5143C73.2838 24.6082 72.9851 24.6982 72.6775 24.7823C72.6637 24.7862 72.6499 24.7891 72.6361 24.7891ZM52.8104 24.6561C52.7896 24.6561 52.7709 24.6522 52.7512 24.6434C52.6743 24.6131 52.6368 24.5241 52.6684 24.4459L53.0174 23.6057C53.048 23.5275 53.1377 23.4904 53.2166 23.5226C53.2935 23.5539 53.3319 23.6429 53.2984 23.7202L52.9514 24.5623C52.9277 24.62 52.8705 24.6561 52.8104 24.6561ZM74.3703 24.2014C74.3102 24.2014 74.254 24.1661 74.2293 24.1084C74.1958 24.0312 74.2333 23.9422 74.3102 23.9099C74.5981 23.7896 74.8722 23.6596 75.1246 23.5246C75.1986 23.4845 75.2912 23.5119 75.3307 23.5862C75.3721 23.6595 75.3435 23.7525 75.2686 23.7906C75.0083 23.9314 74.7253 24.0635 74.4275 24.1877C74.4108 24.1974 74.3901 24.2014 74.3703 24.2014ZM42.1325 24.0371C42.0871 24.0371 42.0427 24.0165 42.0111 23.9784L41.4443 23.2654C41.392 23.1999 41.4038 23.1041 41.4689 23.0512C41.5359 22.9994 41.6315 23.0111 41.6848 23.0767L42.2527 23.7906C42.304 23.8561 42.2931 23.952 42.2271 24.0028C42.1994 24.0263 42.165 24.0371 42.1325 24.0371ZM61.0776 24.0077C61.05 24.0077 61.0234 24.0009 60.9987 23.9862C60.7316 23.8258 60.4713 23.6517 60.2268 23.4698C60.1597 23.419 60.1459 23.3251 60.1962 23.2576C60.2475 23.1911 60.3421 23.1774 60.4112 23.2273C60.6468 23.4043 60.8982 23.5725 61.1585 23.728C61.2295 23.771 61.2531 23.8649 61.2088 23.9353C61.1792 23.9823 61.1289 24.0077 61.0776 24.0077ZM75.9775 23.3339C75.9301 23.3339 75.8818 23.3114 75.8522 23.2703C75.8039 23.2018 75.8207 23.106 75.8888 23.0581C76.1402 22.8811 76.3728 22.6913 76.5779 22.4957C76.6381 22.4371 76.7357 22.438 76.7929 22.4987C76.853 22.5603 76.851 22.6552 76.7909 22.7138C76.573 22.9221 76.3295 23.1207 76.0662 23.3055C76.0386 23.3241 76.008 23.3339 75.9775 23.3339ZM37.7873 23.2654C37.7705 23.2654 37.7548 23.2625 37.737 23.2566C37.6572 23.2302 37.6158 23.1432 37.6424 23.064C37.742 22.7833 37.8287 22.4948 37.9037 22.2053C37.9244 22.1251 38.0062 22.0752 38.089 22.0967C38.1718 22.1172 38.2201 22.1994 38.1984 22.2806C38.1235 22.5769 38.0328 22.8742 37.9312 23.1627C37.9095 23.2263 37.8504 23.2654 37.7873 23.2654ZM4.36226 23.1001C4.28831 23.1001 4.22227 23.0454 4.21241 22.9701L4.08622 22.0683C4.0734 21.9852 4.13252 21.909 4.21633 21.8982C4.29816 21.8855 4.37705 21.9442 4.38789 22.0273L4.51607 22.927C4.52692 23.0101 4.46777 23.0874 4.38495 23.0992C4.37607 23.1001 4.36916 23.1001 4.36226 23.1001ZM53.5064 22.974C53.4857 22.974 53.467 22.9701 53.4473 22.9613C53.3704 22.93 53.3319 22.8419 53.3645 22.7637L53.7115 21.9236C53.7441 21.8454 53.8338 21.8082 53.9117 21.8405C53.9896 21.8718 54.027 21.9598 53.9945 22.038L53.6465 22.8781C53.6238 22.9378 53.5666 22.974 53.5064 22.974ZM59.6155 22.9163C59.579 22.9163 59.5415 22.9026 59.5119 22.8762C59.4478 22.8165 59.3838 22.7569 59.3227 22.6943C59.1639 22.5417 59.0081 22.3833 58.8563 22.2248C58.7991 22.1632 58.803 22.0674 58.8642 22.0097C58.9263 21.9529 59.0229 21.9569 59.0811 22.0175C59.227 22.174 59.3799 22.3275 59.5356 22.4781C59.5977 22.5397 59.6579 22.5965 59.721 22.6542C59.7831 22.7128 59.786 22.8077 59.7298 22.8683C59.6963 22.8996 59.6559 22.9163 59.6155 22.9163ZM40.9966 22.6092C40.9512 22.6092 40.9069 22.5887 40.8773 22.5505L40.3094 21.8366C40.2572 21.771 40.269 21.6762 40.334 21.6234C40.4011 21.5706 40.4967 21.5833 40.549 21.6478L41.1159 22.3618C41.1692 22.4273 41.1583 22.5221 41.0913 22.575C41.0636 22.5984 41.0301 22.6092 40.9966 22.6092ZM14.5936 22.4811L14.5029 21.8356C14.4901 21.7525 14.5492 21.6762 14.633 21.6644C14.7168 21.6527 14.7927 21.7114 14.8046 21.7945L14.8588 22.1701C14.9574 22.1681 15.0461 22.171 15.1349 22.1769C15.2177 22.1818 15.2818 22.2542 15.2768 22.3383C15.2709 22.4214 15.198 22.484 15.1142 22.4791C14.9978 22.4723 14.8746 22.4713 14.7326 22.4762L14.5936 22.4811ZM77.2819 22.0683C77.2523 22.0683 77.2208 22.0586 77.1941 22.04C77.1261 21.9921 77.1084 21.8972 77.1577 21.8297C77.3312 21.5872 77.4751 21.3309 77.5895 21.0659C77.6221 20.9886 77.7127 20.9534 77.7906 20.9867C77.8675 21.02 77.903 21.109 77.8705 21.1852C77.7482 21.4698 77.5925 21.7456 77.4062 22.0048C77.3766 22.0459 77.3292 22.0683 77.2819 22.0683ZM15.1842 21.8219C15.1122 21.8219 15.0471 21.772 15.0333 21.6997C14.9929 21.4904 14.9574 21.2781 14.9278 21.0688C14.914 20.9749 14.9032 20.883 14.8913 20.7901C14.8815 20.706 14.9416 20.6317 15.0245 20.6209C15.1102 20.6112 15.1852 20.6708 15.196 20.7539C15.2069 20.8449 15.2177 20.9358 15.2305 21.0258C15.2601 21.2312 15.2946 21.4385 15.334 21.6419C15.3508 21.7231 15.2966 21.8023 15.2128 21.8199C15.2029 21.8209 15.194 21.8219 15.1842 21.8219ZM58.3663 21.5882C58.3209 21.5882 58.2775 21.5686 58.247 21.5324C58.0527 21.2928 57.8644 21.0454 57.6899 20.796C57.6406 20.7285 57.6593 20.6327 57.7284 20.5857C57.7964 20.5368 57.891 20.5534 57.9403 20.6219C58.1119 20.8664 58.2953 21.108 58.4856 21.3397C58.5398 21.4043 58.528 21.5001 58.4629 21.5529C58.4323 21.5774 58.3998 21.5882 58.3663 21.5882ZM38.2418 21.506C38.232 21.506 38.2241 21.505 38.2152 21.504C38.1334 21.4894 38.0762 21.4112 38.09 21.329C38.1393 21.0366 38.1777 20.7373 38.2024 20.439C38.2083 20.3559 38.2823 20.2933 38.367 20.3002C38.4518 20.307 38.513 20.3803 38.5071 20.4635C38.4814 20.7696 38.443 21.0786 38.3927 21.3798C38.3789 21.4522 38.3138 21.506 38.2418 21.506ZM4.10891 21.2987C4.03397 21.2987 3.96788 21.2439 3.959 21.1686L3.83082 20.2669C3.81899 20.1837 3.87815 20.1075 3.96195 20.0947C4.04477 20.084 4.12268 20.1417 4.13352 20.2248L4.2617 21.1256C4.27353 21.2087 4.21534 21.286 4.13153 21.2977C4.12266 21.2977 4.1168 21.2987 4.10891 21.2987ZM54.2016 21.2909C54.1818 21.2909 54.1621 21.286 54.1434 21.2781C54.0645 21.2468 54.028 21.1578 54.0606 21.0806L54.4076 20.2385C54.4401 20.1622 54.5289 20.1251 54.6068 20.1564C54.6847 20.1877 54.7212 20.2767 54.6906 20.3539L54.3416 21.195C54.3189 21.2547 54.2617 21.2909 54.2016 21.2909ZM39.8608 21.1794C39.8154 21.1794 39.7711 21.1598 39.7405 21.1217L39.1736 20.4087C39.1203 20.3422 39.1332 20.2473 39.1982 20.1955C39.2643 20.1427 39.3609 20.1544 39.4131 20.22L39.9811 20.9329C40.0333 20.9994 40.0225 21.0943 39.9554 21.1471C39.9288 21.1686 39.8953 21.1794 39.8608 21.1794ZM14.5256 21.0649C14.4506 21.0649 14.3856 21.0092 14.3747 20.9329L14.2475 20.0331C14.2357 19.95 14.2948 19.8737 14.3786 19.861C14.4614 19.8503 14.5394 19.907 14.5512 19.9901L14.6784 20.8918C14.6902 20.9749 14.632 21.0512 14.5482 21.062C14.5403 21.0649 14.5335 21.0649 14.5256 21.0649ZM27.0157 20.7451C26.9536 20.7451 26.8964 20.707 26.8717 20.6454C26.8431 20.5671 26.8845 20.4791 26.9624 20.4517C27.1734 20.3745 27.4041 20.2111 27.6506 19.9657C27.6536 19.9637 27.6575 19.9598 27.6605 19.9578C27.6625 19.9549 27.6654 19.953 27.6674 19.949C27.7207 19.8962 27.8153 19.7984 27.8153 19.4806C27.8153 19.4004 27.8074 19.3114 27.7956 19.2146C27.7847 19.1314 27.8449 19.0561 27.9287 19.0454C28.0115 19.0336 28.0884 19.0923 28.0993 19.1754C28.114 19.285 28.12 19.3887 28.12 19.4816C28.12 19.8728 27.9947 20.0507 27.8863 20.1622C27.8833 20.1661 27.8794 20.1681 27.8755 20.172C27.8735 20.174 27.8695 20.1779 27.8665 20.1818C27.5905 20.4576 27.3193 20.6454 27.0679 20.7363C27.0512 20.7412 27.0344 20.7451 27.0157 20.7451ZM26.1253 20.6845C26.1056 20.6845 26.086 20.6806 26.0672 20.6737C25.9528 20.6278 25.8355 20.571 25.7132 20.5016C25.6285 20.4537 25.449 20.3549 25.3297 19.995C25.304 19.9158 25.3475 19.8297 25.4283 19.8033C25.5072 19.7779 25.5939 19.8209 25.6215 19.9001C25.7024 20.1476 25.801 20.2023 25.8631 20.2375C25.9745 20.3001 26.081 20.351 26.1826 20.3931C26.2595 20.4234 26.2979 20.5124 26.2654 20.5886C26.2427 20.6483 26.1845 20.6845 26.1253 20.6845ZM77.9948 20.4087C77.9859 20.4087 77.976 20.4077 77.9671 20.4058C77.8843 20.3901 77.8291 20.3109 77.8459 20.2297C77.8922 19.9813 77.9139 19.7261 77.9139 19.4688C77.9139 19.4317 77.9139 19.3935 77.9129 19.3554C77.9109 19.2713 77.977 19.2028 78.0608 19.2009C78.1486 19.2009 78.2156 19.2645 78.2186 19.3476C78.2195 19.3877 78.2195 19.4278 78.2195 19.4688C78.2195 19.7446 78.1949 20.0194 78.1446 20.2845C78.1318 20.3569 78.0667 20.4087 77.9948 20.4087ZM57.3211 20.0967C57.2679 20.0967 57.2176 20.0693 57.188 20.0224C57.0322 19.7573 56.8834 19.4855 56.7483 19.2107C56.7108 19.1363 56.7414 19.0454 56.8163 19.0082C56.8932 18.972 56.9849 19.0024 57.0224 19.0777C57.1535 19.3437 57.2985 19.6097 57.4523 19.8679C57.4956 19.9393 57.471 20.0331 57.3971 20.0752C57.3724 20.0889 57.3468 20.0967 57.3211 20.0967ZM14.9643 20.0175C14.8844 20.0175 14.8174 19.9549 14.8135 19.8747C14.8026 19.6635 14.7977 19.4522 14.7977 19.2459C14.7977 19.1471 14.7977 19.0512 14.7996 18.9525C14.8026 18.8693 14.8736 18.8048 14.9574 18.8058C15.0412 18.8067 15.1072 18.8762 15.1053 18.9603C15.1023 19.0561 15.1023 19.15 15.1023 19.2459C15.1023 19.4473 15.1073 19.6537 15.1171 19.8581C15.1221 19.9412 15.057 20.0136 14.9732 20.0175C14.9702 20.0175 14.9662 20.0175 14.9643 20.0175ZM38.7259 19.7515C38.6806 19.7515 38.6362 19.7319 38.6066 19.6938L38.5337 19.6028C38.512 19.6576 38.4568 19.6948 38.3927 19.6948C38.3079 19.6948 38.2399 19.6263 38.2399 19.5442V19.507C38.2399 19.3984 38.2389 19.2889 38.235 19.1793L38.2221 18.7217L38.8452 19.506C38.8985 19.5715 38.8867 19.6674 38.8206 19.7192C38.793 19.7397 38.7595 19.7515 38.7259 19.7515ZM54.8967 19.6058C54.877 19.6058 54.8582 19.6028 54.8385 19.595C54.7596 19.5637 54.7232 19.4747 54.7547 19.3975L55.1037 18.5554C55.1352 18.4791 55.225 18.441 55.3019 18.4732C55.3808 18.5045 55.4172 18.5935 55.3857 18.6708L55.0377 19.5119C55.015 19.5706 54.9578 19.6058 54.8967 19.6058ZM3.85646 19.4972C3.77956 19.4972 3.71449 19.4415 3.70463 19.3661L3.57645 18.4654C3.56462 18.3823 3.6248 18.306 3.7086 18.2933C3.79044 18.2816 3.86834 18.3402 3.88017 18.4234L4.00733 19.3241C4.01916 19.4072 3.95998 19.4845 3.87716 19.4953C3.86927 19.4962 3.86238 19.4972 3.85646 19.4972ZM14.2711 19.2635C14.1972 19.2635 14.1312 19.2087 14.1213 19.1324L13.9951 18.2327C13.9823 18.1495 14.0404 18.0723 14.1242 18.0605C14.2071 18.0498 14.2849 18.1065 14.2968 18.1896L14.425 19.0913C14.4358 19.1745 14.3767 19.2498 14.2938 19.2615C14.2859 19.2635 14.279 19.2635 14.2711 19.2635ZM25.3731 19.2018C25.3681 19.2018 25.3602 19.2009 25.3553 19.2009C25.2725 19.1911 25.2114 19.1158 25.2203 19.0326C25.2577 18.7226 25.38 18.5916 25.4391 18.528C25.5575 18.4038 25.6787 18.2982 25.802 18.2131C25.871 18.1652 25.9666 18.1828 26.0149 18.2522C26.0632 18.3207 26.0455 18.4146 25.9765 18.4635C25.872 18.5348 25.7665 18.6268 25.6629 18.7354C25.6215 18.7803 25.5496 18.8556 25.5259 19.0669C25.517 19.1451 25.449 19.2018 25.3731 19.2018ZM77.9474 18.6033C77.8784 18.6033 77.8153 18.5554 77.7985 18.486C77.7344 18.2151 77.6378 17.9344 77.5126 17.6517C77.4791 17.5764 77.5136 17.4864 77.5905 17.4532C77.6684 17.419 77.7581 17.4542 77.7917 17.5305C77.9238 17.8288 78.0263 18.127 78.0973 18.4156C78.117 18.4977 78.0667 18.5789 77.9839 18.5984C77.9721 18.6014 77.9602 18.6033 77.9474 18.6033ZM27.6132 18.5241C27.5826 18.5241 27.5511 18.5143 27.5244 18.4957C27.5116 18.486 27.5008 18.4801 27.4939 18.4752C27.2286 18.3266 26.9851 18.2483 26.7475 18.2385C26.6627 18.2346 26.5986 18.1652 26.6016 18.0811C26.6046 17.997 26.6775 17.9334 26.7593 17.9363C27.0443 17.9481 27.341 18.041 27.6457 18.2131C27.6595 18.2209 27.6792 18.2336 27.7039 18.2493C27.7719 18.2982 27.7877 18.3921 27.7374 18.4615C27.7068 18.5006 27.6605 18.5241 27.6132 18.5241ZM56.5126 18.4644C56.4515 18.4644 56.3953 18.4283 56.3707 18.3676C56.2573 18.085 56.1528 17.7935 56.0621 17.5001C56.0374 17.4199 56.0818 17.3349 56.1626 17.3104C56.2425 17.286 56.3283 17.3309 56.3529 17.4102C56.4427 17.6957 56.5442 17.9813 56.6556 18.2571C56.6862 18.3344 56.6487 18.4234 56.5698 18.4537C56.5511 18.4605 56.5324 18.4644 56.5126 18.4644ZM15.0106 18.2004C15.0047 18.2004 14.9998 18.2004 14.9948 18.2004C14.911 18.1906 14.8489 18.1182 14.8578 18.0341C14.8894 17.727 14.9347 17.42 14.9919 17.1217C15.0067 17.0395 15.0876 16.9847 15.1704 17.0004C15.2532 17.016 15.3084 17.0952 15.2916 17.1784C15.2364 17.4688 15.193 17.7681 15.1615 18.0654C15.1556 18.1427 15.0885 18.2004 15.0106 18.2004ZM55.5928 17.9236C55.574 17.9236 55.5543 17.9207 55.5346 17.9119C55.4567 17.8816 55.4202 17.7926 55.4518 17.7153L55.7998 16.8733C55.8314 16.796 55.9211 16.7588 55.999 16.7911C56.0769 16.8224 56.1143 16.9114 56.0828 16.9886L55.7347 17.8297C55.7101 17.8874 55.6539 17.9236 55.5928 17.9236ZM3.60112 17.6948C3.52619 17.6948 3.46012 17.64 3.45026 17.5647L3.3231 16.663C3.31127 16.5808 3.37042 16.5045 3.45423 16.4918C3.53606 16.4801 3.61493 16.5388 3.62676 16.6209L3.75392 17.5226C3.76575 17.6057 3.70563 17.6811 3.62183 17.6938C3.61492 17.6948 3.60803 17.6948 3.60112 17.6948ZM14.0188 17.462C13.9438 17.462 13.8777 17.4072 13.8679 17.3309L13.7407 16.4302C13.7289 16.3471 13.7881 16.2708 13.8719 16.2591C13.9547 16.2473 14.0326 16.305 14.0434 16.3882L14.1716 17.2899C14.1825 17.373 14.1252 17.4483 14.0414 17.46C14.0326 17.462 14.0257 17.462 14.0188 17.462ZM77.2267 16.9388C77.1754 16.9388 77.1242 16.9124 77.0956 16.8654C77.0315 16.7598 76.9624 16.6532 76.8915 16.5466L76.8638 16.5065C76.6903 16.261 76.5089 16.0341 76.3216 15.8307C76.2654 15.7681 76.2703 15.6723 76.3324 15.6155C76.3955 15.5588 76.4931 15.5647 76.5493 15.6273C76.7436 15.8405 76.9338 16.0781 77.1133 16.3334L77.1458 16.3794C77.2198 16.4889 77.2898 16.6014 77.3568 16.7099C77.4012 16.7803 77.3785 16.8742 77.3055 16.9182C77.2809 16.931 77.2533 16.9388 77.2267 16.9388ZM15.3498 16.4165C15.336 16.4165 15.3222 16.4146 15.3094 16.4106C15.2285 16.3891 15.1802 16.305 15.2029 16.2248C15.2857 15.9295 15.3823 15.6341 15.4908 15.3476C15.5204 15.2693 15.6081 15.2302 15.688 15.2586C15.7669 15.2879 15.8073 15.3759 15.7767 15.4542C15.6722 15.7319 15.5785 16.0195 15.4977 16.306C15.479 16.3725 15.4169 16.4165 15.3498 16.4165ZM3.34675 15.8933C3.27182 15.8933 3.20572 15.8385 3.19685 15.7622L3.06867 14.8615C3.05782 14.7784 3.11605 14.7031 3.19986 14.6904C3.28268 14.6786 3.36056 14.7373 3.37239 14.8195L3.49954 15.7202C3.51137 15.8033 3.45226 15.8796 3.36944 15.8923C3.36155 15.8933 3.35464 15.8933 3.34675 15.8933ZM13.7644 15.6605C13.6894 15.6605 13.6244 15.6058 13.6135 15.5295L13.4864 14.6287C13.4745 14.5456 13.5346 14.4684 13.6185 14.4576C13.7003 14.4459 13.7782 14.5036 13.79 14.5867L13.9172 15.4874C13.9291 15.5696 13.8699 15.6468 13.7871 15.6586C13.7782 15.6605 13.7723 15.6605 13.7644 15.6605ZM76.6272 15.2038C76.5937 15.2038 76.5602 15.1921 76.5306 15.1705C76.4655 15.1187 76.4547 15.0229 76.5079 14.9574L76.5493 14.9036C76.7179 14.6904 76.8688 14.4615 76.9989 14.2229C77.0384 14.1505 77.1311 14.1212 77.206 14.1613C77.2799 14.2014 77.3075 14.2933 77.2681 14.3676C77.1301 14.6199 76.9684 14.8635 76.7909 15.0903L76.7475 15.1451C76.716 15.1842 76.6716 15.2038 76.6272 15.2038ZM15.9917 14.7138C15.971 14.7138 15.9473 14.7089 15.9266 14.6992C15.8517 14.6639 15.8182 14.572 15.8536 14.4967C15.9848 14.2229 16.1317 13.9481 16.2875 13.6821C16.3299 13.6097 16.4245 13.5843 16.4955 13.6273C16.5695 13.6684 16.5941 13.7622 16.5517 13.8346C16.4009 14.0938 16.2579 14.3598 16.1307 14.6268C16.1031 14.6815 16.0479 14.7138 15.9917 14.7138ZM3.09334 14.0928C3.01742 14.0928 2.95233 14.038 2.94247 13.9617L2.81429 13.061C2.80345 12.9779 2.86264 12.9006 2.94645 12.8899C3.02828 12.8781 3.10618 12.9368 3.11801 13.019L3.24517 13.9197C3.257 14.0028 3.19983 14.0791 3.11603 14.0918C3.10814 14.0928 3.10123 14.0928 3.09334 14.0928ZM13.51 13.8591C13.4361 13.8591 13.37 13.8043 13.3602 13.728L13.2329 12.8273C13.2211 12.7441 13.2803 12.6669 13.3641 12.6552C13.4469 12.6424 13.5248 12.7021 13.5356 12.7843L13.6638 13.686C13.6757 13.7681 13.6155 13.8454 13.5317 13.8571C13.5248 13.8571 13.5179 13.8591 13.51 13.8591ZM77.4949 13.6126C77.4781 13.6126 77.4623 13.6097 77.4456 13.6048C77.3657 13.5794 77.3233 13.4923 77.3489 13.4131C77.4396 13.1412 77.5116 12.8527 77.5619 12.5534C77.5767 12.4723 77.6536 12.4146 77.7384 12.4292C77.8212 12.4439 77.8774 12.5221 77.8626 12.6033C77.8104 12.9172 77.7364 13.2214 77.6388 13.5099C77.6181 13.5725 77.5589 13.6126 77.4949 13.6126ZM46.5781 13.5178L46.2202 13.018C46.1719 12.9505 46.1887 12.8556 46.2567 12.8067C46.3257 12.7588 46.4213 12.7745 46.4706 12.8429L46.4874 12.8654L46.588 12.5857C46.6166 12.5075 46.7034 12.4654 46.7822 12.4928C46.8621 12.5212 46.9045 12.6072 46.8759 12.6865L46.5781 13.5178ZM16.9106 13.1441C16.882 13.1441 16.8505 13.1344 16.8238 13.1168C16.7548 13.0679 16.7371 12.974 16.7864 12.9055C16.9599 12.6571 17.1463 12.4097 17.3425 12.1691C17.3957 12.1045 17.4923 12.0948 17.5574 12.1476C17.6224 12.2004 17.6333 12.2953 17.5791 12.3608C17.3888 12.5945 17.2054 12.8361 17.0358 13.0777C17.0072 13.1197 16.9599 13.1441 16.9106 13.1441ZM45.814 12.3412C45.7657 12.3412 45.7193 12.3207 45.6898 12.2786L45.1583 11.5373C45.109 11.4688 45.1248 11.374 45.1938 11.3251C45.2619 11.2762 45.3575 11.2928 45.4078 11.3603L45.9382 12.1016C45.9885 12.1701 45.9708 12.2659 45.9018 12.3138C45.8752 12.3324 45.8445 12.3412 45.814 12.3412ZM2.83993 12.2913C2.765 12.2913 2.69898 12.2356 2.68912 12.1593L2.56191 11.2595C2.55007 11.1764 2.60923 11.0992 2.69303 11.0874C2.77586 11.0767 2.85373 11.1334 2.86557 11.2165L2.99278 12.1182C3.00461 12.2014 2.94544 12.2777 2.86262 12.2904C2.85374 12.2904 2.84683 12.2913 2.83993 12.2913ZM13.2566 12.0586C13.1817 12.0586 13.1156 12.0019 13.1068 11.9265L12.9786 11.0258C12.9667 10.9437 13.0259 10.8664 13.1097 10.8547C13.1925 10.8419 13.2704 10.9006 13.2813 10.9838L13.4095 11.8845C13.4213 11.9676 13.3621 12.0449 13.2793 12.0556C13.2714 12.0566 13.2645 12.0586 13.2566 12.0586ZM47.0376 11.9314C47.0198 11.9314 47.0031 11.9285 46.9853 11.9226C46.9065 11.8943 46.8651 11.8082 46.8927 11.729L47.1993 10.8723C47.2269 10.793 47.3156 10.752 47.3935 10.7803C47.4734 10.8067 47.5158 10.8938 47.4872 10.973L47.1815 11.8297C47.1589 11.8923 47.0997 11.9314 47.0376 11.9314ZM77.8025 11.8268C77.8015 11.8268 77.7986 11.8268 77.7966 11.8268C77.7128 11.8229 77.6457 11.7534 77.6496 11.6693C77.6526 11.5862 77.6536 11.5011 77.6536 11.415C77.6536 11.2077 77.6457 10.9936 77.63 10.7774C77.6231 10.6943 77.6862 10.6209 77.771 10.6151C77.8548 10.6082 77.9287 10.6708 77.9346 10.7559C77.9523 10.9799 77.9593 11.2019 77.9593 11.416C77.9593 11.505 77.9583 11.594 77.9563 11.6811C77.9514 11.7622 77.8843 11.8268 77.8025 11.8268ZM18.0612 11.729C18.0247 11.729 17.9873 11.7153 17.9587 11.6889C17.8966 11.6312 17.8926 11.5363 17.9488 11.4737C18.1608 11.2478 18.3806 11.0287 18.6025 10.8214C18.6636 10.7627 18.7612 10.7667 18.8184 10.8273C18.8766 10.8889 18.8736 10.9847 18.8115 11.0424C18.5946 11.2449 18.3797 11.4591 18.1746 11.6801C18.144 11.7114 18.1017 11.729 18.0612 11.729ZM44.7501 10.8596C44.7018 10.8596 44.6545 10.8371 44.6259 10.796L44.0935 10.0537C44.0452 9.9862 44.0619 9.89134 44.129 9.84342C44.198 9.79452 44.2936 9.81017 44.3429 9.87863L44.8744 10.6199C44.9237 10.6874 44.9079 10.7823 44.8389 10.8312C44.8123 10.8498 44.7817 10.8596 44.7501 10.8596ZM2.58556 10.4899C2.51161 10.4899 2.44459 10.4331 2.43571 10.3578L2.3085 9.4581C2.29666 9.37497 2.35488 9.29769 2.4377 9.28595C2.52151 9.27422 2.59936 9.33194 2.61119 9.41507L2.73841 10.3168C2.75024 10.3999 2.69109 10.4752 2.60728 10.4869C2.60038 10.4889 2.59344 10.4899 2.58556 10.4899ZM19.3981 10.485C19.3538 10.485 19.3085 10.4645 19.2789 10.4273C19.2256 10.3627 19.2355 10.2679 19.3005 10.2141C19.5421 10.0214 19.7925 9.83462 20.043 9.66347C20.112 9.61653 20.2086 9.63316 20.2559 9.7026C20.3042 9.77106 20.2865 9.86492 20.2175 9.91382C19.972 10.0811 19.7285 10.262 19.4938 10.4508C19.4652 10.4723 19.4307 10.485 19.3981 10.485ZM33.8159 10.3608L33.6433 10.2356C33.5891 10.1984 33.5378 10.1593 33.4826 10.1212C33.3278 10.0136 33.1701 9.90796 33.0133 9.80918C32.9423 9.76419 32.9206 9.66835 32.967 9.59892C33.0133 9.5285 33.1079 9.50797 33.1789 9.55394C33.3386 9.65565 33.4994 9.7642 33.6571 9.87275C33.666 9.8796 33.6759 9.88549 33.6828 9.89233C33.7252 9.85028 33.7902 9.8346 33.8494 9.85905C33.9263 9.89035 33.9637 9.97937 33.9332 10.0566C33.9154 10.0958 33.9006 10.1348 33.8848 10.1749L33.8159 10.3608ZM13.0032 10.2551C12.9273 10.2551 12.8622 10.2004 12.8524 10.1251L12.7242 9.22435C12.7134 9.14122 12.7725 9.06495 12.8563 9.05321C12.9381 9.0405 13.016 9.09917 13.0279 9.1823L13.1551 10.083C13.1669 10.1661 13.1078 10.2424 13.0239 10.2542C13.017 10.2552 13.0101 10.2551 13.0032 10.2551ZM47.6498 10.216C47.6321 10.216 47.6153 10.2141 47.5976 10.2082C47.5177 10.1799 47.4773 10.0928 47.5049 10.0155L47.8115 9.15785C47.8391 9.07863 47.9259 9.03658 48.0058 9.06494C48.0866 9.09232 48.1271 9.17936 48.0995 9.2576L47.7928 10.1153C47.7711 10.1789 47.711 10.216 47.6498 10.216ZM77.6684 10.0155C77.5955 10.0155 77.5303 9.96273 77.5185 9.88938C77.4682 9.59305 77.4032 9.29967 77.3253 9.01507C77.3026 8.93487 77.3499 8.85076 77.4328 8.82925C77.5146 8.80773 77.5984 8.85563 77.6191 8.93583C77.6989 9.22923 77.767 9.53241 77.8202 9.83852C77.834 9.91969 77.7769 9.99892 77.694 10.0126C77.6872 10.0155 77.6773 10.0155 77.6684 10.0155ZM20.9057 9.45416C20.8524 9.45416 20.8012 9.42678 20.7726 9.37886C20.7312 9.30649 20.7538 9.2136 20.8288 9.17155C21.096 9.01898 21.374 8.87521 21.6521 8.74416C21.728 8.70797 21.8187 8.74123 21.8552 8.81653C21.8916 8.89184 21.8581 8.98181 21.7822 9.01799C21.5131 9.14415 21.2419 9.284 20.9816 9.43363C20.958 9.44928 20.9313 9.45416 20.9057 9.45416ZM43.6873 9.37594C43.64 9.37594 43.5916 9.35442 43.562 9.31236L43.0326 8.57203C42.9823 8.50553 42.9981 8.40968 43.0671 8.3598C43.1342 8.3109 43.2298 8.32753 43.2791 8.39403L43.8115 9.13732C43.8608 9.20382 43.8451 9.29966 43.776 9.34758C43.7494 9.36714 43.7198 9.37594 43.6873 9.37594ZM32.3073 9.36713C32.2837 9.36713 32.2581 9.36128 32.2344 9.34857C31.9682 9.20382 31.696 9.06787 31.4269 8.94562C31.35 8.91041 31.3155 8.82142 31.35 8.74416C31.3855 8.66885 31.4771 8.63561 31.5531 8.66984C31.8301 8.79502 32.1091 8.93485 32.3823 9.08351C32.4552 9.1236 32.4838 9.21653 32.4434 9.28891C32.4148 9.33781 32.3626 9.36713 32.3073 9.36713ZM34.2211 9.34758C34.1935 9.34758 34.1629 9.34073 34.1383 9.32508C34.0673 9.27814 34.0466 9.18424 34.0939 9.11383C34.2576 8.86444 34.4489 8.61602 34.6658 8.37544C34.722 8.31382 34.8176 8.30894 34.8817 8.36371C34.9438 8.41945 34.9507 8.51434 34.8945 8.57693C34.6885 8.80676 34.504 9.04244 34.3492 9.27912C34.3197 9.32508 34.2704 9.34758 34.2211 9.34758ZM2.33221 8.68646C2.25727 8.68646 2.1912 8.63167 2.18134 8.55636L2.10834 8.04C2.08862 7.90308 2.07285 7.77497 2.05707 7.65272C2.04623 7.56959 2.1064 7.49428 2.18922 7.48352C2.275 7.47374 2.34995 7.53338 2.36079 7.61651C2.37657 7.73583 2.39234 7.862 2.41206 7.99795L2.48404 8.5153C2.49587 8.59745 2.43765 8.67374 2.35483 8.68548C2.34695 8.68646 2.34009 8.68646 2.33221 8.68646ZM22.5602 8.67861C22.499 8.67861 22.4408 8.64049 22.4181 8.57985C22.3886 8.50161 22.428 8.41358 22.5079 8.38424C22.7938 8.27862 23.0906 8.17986 23.3893 8.09575C23.4702 8.07326 23.555 8.11921 23.5776 8.19941C23.6013 8.2796 23.555 8.36274 23.4741 8.38621C23.1843 8.46934 22.8953 8.5642 22.6153 8.66787C22.5976 8.67569 22.5789 8.67861 22.5602 8.67861ZM30.642 8.61212C30.6233 8.61212 30.6066 8.61016 30.5888 8.60331C30.3049 8.50062 30.0159 8.40774 29.728 8.32852C29.6472 8.307 29.5989 8.22289 29.6216 8.1427C29.6452 8.0625 29.728 8.01456 29.8099 8.03803C30.1057 8.1192 30.4034 8.21409 30.6933 8.31972C30.7722 8.34808 30.8126 8.43512 30.785 8.51336C30.7623 8.57497 30.7032 8.61212 30.642 8.61212ZM48.2621 8.50258C48.2444 8.50258 48.2276 8.49869 48.2109 8.49282C48.132 8.46642 48.0886 8.37838 48.1172 8.30014L48.3933 7.54417L48.4367 7.44048C48.4672 7.36322 48.5569 7.32606 48.6348 7.35736C48.7137 7.38866 48.7502 7.47765 48.7187 7.55491L48.6309 7.76715L48.4051 8.40087C48.3834 8.46346 48.3252 8.50258 48.2621 8.50258ZM12.7489 8.45369C12.6739 8.45369 12.6079 8.39893 12.598 8.32363L12.4708 7.42192C12.459 7.33879 12.5181 7.26347 12.6019 7.25174C12.6847 7.23902 12.7627 7.29769 12.7745 7.38082L12.9017 8.28059C12.9135 8.36372 12.8543 8.44097 12.7715 8.45271C12.7636 8.45369 12.7568 8.45369 12.7489 8.45369ZM77.1872 8.26396C77.1261 8.26396 77.0679 8.22581 77.0453 8.16517C76.9388 7.88742 76.8165 7.61359 76.6814 7.34757C76.643 7.27324 76.6735 7.1813 76.7485 7.14414C76.8234 7.106 76.9161 7.13634 76.9546 7.21067C77.0946 7.48548 77.2208 7.77007 77.3302 8.05662C77.3608 8.13486 77.3203 8.22191 77.2414 8.25125C77.2247 8.26005 77.206 8.26396 77.1872 8.26396ZM24.323 8.1769C24.251 8.1769 24.186 8.12704 24.1722 8.05662C24.1554 7.97349 24.2087 7.89428 24.2915 7.87668C24.5449 7.82485 24.8052 7.78082 25.0655 7.74366C25.1128 7.73779 25.1601 7.73096 25.2064 7.72509C25.2912 7.71531 25.3682 7.77302 25.379 7.85615C25.3899 7.93928 25.3297 8.01456 25.2459 8.0263C25.2006 8.03217 25.1542 8.03805 25.1088 8.04489C24.8535 8.08108 24.5991 8.12312 24.3526 8.17398C24.3408 8.17593 24.3319 8.1769 24.323 8.1769ZM28.8772 8.12703C28.8673 8.12703 28.8565 8.12606 28.8476 8.1241C28.5538 8.06836 28.2531 8.02336 27.9553 7.99207C27.8705 7.98326 27.8094 7.90895 27.8183 7.82484C27.8281 7.74171 27.903 7.68206 27.9868 7.69086C28.2945 7.72216 28.6031 7.76812 28.9058 7.82582C28.9896 7.84245 29.0448 7.92167 29.027 8.00383C29.0122 8.0762 28.9492 8.12703 28.8772 8.12703ZM35.4289 7.98717C35.3875 7.98717 35.3441 7.96861 35.3145 7.93536C35.2583 7.87374 35.2643 7.77693 35.3283 7.72118C35.4378 7.62338 35.5541 7.52753 35.6724 7.43365L35.6961 7.41505C35.8174 7.32019 35.9386 7.22923 36.056 7.14513C36.124 7.09525 36.2196 7.11089 36.2689 7.17837C36.3192 7.24586 36.3044 7.34072 36.2354 7.38962C36.121 7.47178 36.0037 7.56079 35.8854 7.6537L35.8637 7.67128C35.7513 7.76126 35.6379 7.85517 35.5324 7.94906C35.5028 7.97449 35.4654 7.98717 35.4289 7.98717ZM26.1402 7.94512C26.0593 7.94512 25.9913 7.88351 25.9874 7.80233C25.9824 7.71823 26.0475 7.64782 26.1313 7.64293C26.4419 7.62532 26.7534 7.62238 27.0591 7.62923C27.1439 7.63216 27.2099 7.7016 27.208 7.78571C27.206 7.86884 27.136 7.93436 27.0512 7.9324C26.7524 7.92458 26.4497 7.92849 26.1461 7.94512C26.1441 7.94512 26.1411 7.94512 26.1402 7.94512ZM42.5998 7.91285C42.5564 7.91285 42.512 7.89427 42.4825 7.8571C42.2754 7.61163 42.0703 7.39158 41.8712 7.2038C41.81 7.14512 41.8081 7.05026 41.8662 6.98963C41.9244 6.92801 42.021 6.92703 42.0831 6.98473C42.2902 7.17935 42.5041 7.40918 42.7171 7.66346C42.7723 7.72703 42.7625 7.82385 42.6974 7.87764C42.6678 7.90209 42.6333 7.91285 42.5998 7.91285ZM36.9098 6.91824C36.8566 6.91824 36.8063 6.89086 36.7767 6.84392C36.7343 6.77155 36.757 6.67863 36.8319 6.63658C37.1178 6.46836 37.3988 6.32752 37.668 6.217C37.7469 6.18473 37.8366 6.2219 37.8691 6.29818C37.8997 6.37545 37.8642 6.46444 37.7854 6.49574C37.529 6.60136 37.2608 6.73535 36.9877 6.89672C36.964 6.91041 36.9364 6.91824 36.9098 6.91824ZM2.12808 6.88108C2.04723 6.88108 1.97921 6.8175 1.97625 6.73632C1.97329 6.67471 1.97228 6.61701 1.97228 6.55931V6.52215C1.97228 6.28939 1.99206 6.04585 2.0315 5.7994C2.04431 5.71822 2.12215 5.66053 2.20595 5.67422C2.28877 5.68694 2.34599 5.7642 2.33317 5.84733C2.29669 6.07814 2.27799 6.30601 2.27799 6.52215V6.55737C2.27799 6.61116 2.27894 6.66592 2.2819 6.72459C2.28584 6.80675 2.21979 6.87814 2.135 6.88108C2.13204 6.88108 2.13104 6.88108 2.12808 6.88108ZM48.9366 6.81067C48.9159 6.81067 48.8941 6.80774 48.8744 6.79796C48.7965 6.76373 48.762 6.67276 48.7965 6.59745C48.8163 6.55637 48.834 6.51823 48.8508 6.48302C48.9612 6.24537 49.1051 6.00967 49.2767 5.78376C49.327 5.71823 49.4216 5.70356 49.4906 5.75442C49.5567 5.8043 49.5715 5.90015 49.5202 5.96665C49.3595 6.1779 49.2323 6.38914 49.1288 6.61115C49.111 6.64538 49.0952 6.68255 49.0775 6.72167C49.0509 6.77839 48.9947 6.81067 48.9366 6.81067ZM41.2569 6.68645C41.2293 6.68645 41.2027 6.6796 41.178 6.66493C40.9266 6.51432 40.6584 6.39697 40.3765 6.31579C40.2946 6.29232 40.2492 6.2082 40.2729 6.12899C40.2965 6.04879 40.3814 6.00186 40.4622 6.02533C40.7679 6.11433 41.0607 6.24243 41.3368 6.40673C41.4078 6.45074 41.4314 6.54367 41.387 6.61506C41.3574 6.66103 41.3072 6.68645 41.2569 6.68645ZM58.1128 6.65222C58.0783 6.65222 58.0438 6.64146 58.0143 6.61798C57.9502 6.56419 57.9413 6.46934 57.9936 6.40479C58.1908 6.16714 58.3988 5.93634 58.6108 5.71825C58.6699 5.65761 58.7666 5.65565 58.8277 5.71335C58.8888 5.77105 58.8908 5.86689 58.8316 5.92753C58.6255 6.14073 58.4224 6.36567 58.2302 6.59844C58.2006 6.63462 58.1562 6.65222 58.1128 6.65222ZM12.4955 6.65222C12.4215 6.65222 12.3545 6.59745 12.3456 6.52215C12.2944 6.17789 12.2441 5.8884 12.1918 5.6351C12.1731 5.55294 12.2273 5.47276 12.3101 5.45614C12.3939 5.43853 12.4737 5.49134 12.4915 5.57349C12.5457 5.83266 12.596 6.12801 12.6483 6.47911C12.6601 6.56224 12.6009 6.6395 12.5171 6.65123C12.5092 6.65221 12.5024 6.65222 12.4955 6.65222ZM76.3659 6.64049C76.3146 6.64049 76.2654 6.61602 76.2358 6.57104C76.0771 6.32165 75.9016 6.07521 75.7172 5.8405C75.664 5.77399 75.6758 5.67913 75.7428 5.62632C75.8089 5.57546 75.9055 5.58719 75.9577 5.65369C76.149 5.89623 76.3294 6.14952 76.4941 6.40673C76.5394 6.47813 76.5187 6.57204 76.4478 6.61703C76.4211 6.63366 76.3935 6.64049 76.3659 6.64049ZM57.5144 6.35883C57.4749 6.35883 57.4365 6.34416 57.4069 6.31579C57.2038 6.11922 56.9731 5.93047 56.7187 5.7554C56.6497 5.70846 56.6309 5.6136 56.6802 5.54514C56.7276 5.47668 56.8242 5.45907 56.8932 5.507C57.1614 5.69184 57.4059 5.89135 57.6209 6.09771C57.682 6.15737 57.682 6.25223 57.6229 6.31287C57.5923 6.34416 57.5538 6.35883 57.5144 6.35883ZM38.6027 6.24634C38.5307 6.24634 38.4666 6.1955 38.4538 6.12215C38.4371 6.04 38.4922 5.96078 38.576 5.94514C38.6332 5.93438 38.6904 5.92458 38.7476 5.91774C39.0118 5.88155 39.2751 5.86689 39.5216 5.87667C39.6064 5.87862 39.6715 5.94904 39.6695 6.03315C39.6655 6.11726 39.5966 6.18182 39.5108 6.1779C39.282 6.17106 39.0365 6.18277 38.791 6.217C38.7378 6.22483 38.6855 6.23363 38.6313 6.24243C38.6224 6.24537 38.6126 6.24634 38.6027 6.24634ZM50.0142 5.35735C49.9728 5.35735 49.9323 5.33975 49.9008 5.30748C49.8446 5.24586 49.8486 5.15002 49.9107 5.09232C50.1443 4.88107 50.4076 4.69917 50.6915 4.54954C50.7665 4.51042 50.8592 4.53878 50.8986 4.61311C50.9381 4.68646 50.9094 4.77935 50.8355 4.81749C50.5722 4.95441 50.3317 5.12263 50.1177 5.31529C50.0891 5.34366 50.0516 5.35735 50.0142 5.35735ZM59.3818 5.34368C59.3404 5.34368 59.298 5.32705 59.2684 5.29282C59.2112 5.23121 59.2171 5.13534 59.2812 5.07862C59.5109 4.87519 59.7535 4.67862 59.999 4.49378C60.0651 4.44293 60.1627 4.45662 60.2129 4.52312C60.2642 4.58865 60.2514 4.68548 60.1834 4.73536C59.9448 4.91531 59.7101 5.107 59.4853 5.30455C59.4557 5.33291 59.4193 5.34368 59.3818 5.34368ZM56.0187 5.31529C55.995 5.31529 55.9714 5.30942 55.9487 5.29769C55.7357 5.18717 55.508 5.08156 55.2713 4.98278C55.222 4.96224 55.1757 4.94268 55.1274 4.92312C55.0495 4.89084 55.013 4.80381 55.0436 4.72557C55.0761 4.64831 55.1658 4.61017 55.2447 4.64245C55.292 4.66298 55.3403 4.68256 55.3886 4.70309C55.6332 4.8048 55.8678 4.9153 56.0896 5.02874C56.1626 5.06786 56.1922 5.15982 56.1528 5.23414C56.1281 5.28598 56.0739 5.31529 56.0187 5.31529ZM75.239 5.20967C75.1976 5.20967 75.1571 5.19304 75.1276 5.16272C74.9185 4.94463 74.6997 4.73536 74.4778 4.54172C74.4147 4.48597 74.4068 4.39111 74.463 4.32754C74.5182 4.26495 74.6139 4.25809 74.678 4.31286C74.9087 4.51335 75.1345 4.7285 75.3494 4.95246C75.4076 5.01407 75.4056 5.10994 75.3445 5.16666C75.3149 5.196 75.2765 5.20967 75.239 5.20967ZM2.39431 5.09038C2.37952 5.09038 2.36475 5.08745 2.34996 5.08256C2.26812 5.05908 2.22277 4.97398 2.24742 4.89476L2.26709 4.83707C2.36865 4.55345 2.50473 4.28451 2.67432 4.04099C2.72263 3.97253 2.8163 3.95394 2.88729 4.00186C2.95631 4.04978 2.97403 4.14367 2.92671 4.21311C2.7729 4.43609 2.64865 4.6796 2.55499 4.93974L2.54024 4.98278C2.51954 5.04831 2.45938 5.09038 2.39431 5.09038ZM12.0882 4.88402C12.0271 4.88402 11.9709 4.84781 11.9463 4.78815C11.8418 4.52801 11.7067 4.27275 11.5351 4.00771C11.4898 3.93827 11.5115 3.84342 11.5835 3.79843C11.6535 3.75344 11.7481 3.77496 11.7934 3.84439C11.9758 4.12508 12.1169 4.39598 12.2303 4.67471C12.2608 4.75295 12.2223 4.84194 12.1444 4.87226C12.1267 4.88008 12.107 4.88402 12.0882 4.88402ZM54.3248 4.62681C54.308 4.62681 54.2952 4.62385 54.2805 4.61896C53.9738 4.52507 53.681 4.45663 53.4079 4.41457C53.325 4.40088 53.2679 4.32265 53.2817 4.23952C53.2955 4.15639 53.3753 4.10063 53.4562 4.11432C53.7431 4.15931 54.0517 4.23167 54.3682 4.3285C54.45 4.35295 54.4954 4.43901 54.4707 4.51823C54.45 4.58375 54.3909 4.62681 54.3248 4.62681ZM51.6164 4.50942C51.5493 4.50942 51.4862 4.46444 51.4685 4.39696C51.4478 4.31677 51.4961 4.23266 51.5769 4.21114C51.7702 4.16029 51.9743 4.1202 52.1843 4.09086C52.2907 4.07619 52.4012 4.06641 52.5116 4.06054C52.5954 4.05663 52.6684 4.12117 52.6713 4.20332C52.6763 4.28743 52.6102 4.35784 52.5274 4.36273C52.4258 4.36762 52.3253 4.37742 52.2267 4.39111C52.0295 4.41752 51.8373 4.45566 51.6558 4.50456C51.644 4.50749 51.6302 4.50942 51.6164 4.50942ZM60.843 4.24734C60.7927 4.24734 60.7424 4.22386 60.7138 4.17789C60.6684 4.10748 60.6901 4.0136 60.7601 3.96861C61.0194 3.80431 61.2887 3.64782 61.5618 3.50307C61.6367 3.46395 61.7294 3.49133 61.7698 3.56566C61.8092 3.63901 61.7816 3.73096 61.7067 3.77008C61.4405 3.91189 61.1782 4.06346 60.9258 4.22287C60.8992 4.2395 60.8706 4.24734 60.843 4.24734ZM73.8586 4.01458C73.8291 4.01458 73.7975 4.00576 73.7699 3.98718C73.5264 3.81309 73.271 3.65075 73.0117 3.50307C72.9387 3.46102 72.9131 3.36909 72.9555 3.29672C72.9969 3.22337 73.0906 3.19795 73.1646 3.23903C73.4317 3.39159 73.6959 3.56078 73.9474 3.73975C74.0154 3.78963 74.0322 3.88353 73.9829 3.95199C73.9543 3.99209 73.907 4.01458 73.8586 4.01458ZM3.41277 3.60676C3.37037 3.60676 3.32704 3.58815 3.29746 3.55295C3.24225 3.48938 3.25008 3.39452 3.31516 3.33976C3.54489 3.14611 3.80914 2.9691 4.1 2.8136C4.17395 2.77448 4.26764 2.80186 4.30707 2.87619C4.34651 2.94954 4.31892 3.04244 4.24497 3.08156C3.97285 3.22532 3.72631 3.38963 3.51236 3.57056C3.48377 3.59403 3.44727 3.60676 3.41277 3.60676ZM62.459 3.3916C62.3998 3.3916 62.3446 3.35735 62.319 3.30063C62.2845 3.22532 62.32 3.13437 62.3959 3.10209C62.6769 2.97984 62.9667 2.86641 63.2605 2.76274C63.3394 2.73438 63.4262 2.77644 63.4548 2.85565C63.4824 2.93487 63.441 3.02093 63.3611 3.04831C63.0752 3.14904 62.7923 3.26055 62.5191 3.37888C62.4994 3.38866 62.4797 3.3916 62.459 3.3916ZM11.1013 3.3642C11.0619 3.3642 11.0224 3.34955 10.9938 3.32021C10.7888 3.11776 10.5541 2.9417 10.2968 2.79793C10.2228 2.75686 10.1972 2.66395 10.2396 2.59158C10.28 2.51823 10.3727 2.4928 10.4466 2.5329C10.7276 2.69036 10.984 2.88206 11.2078 3.10406C11.2679 3.16372 11.2679 3.25956 11.2078 3.31922C11.1802 3.34856 11.1398 3.3642 11.1013 3.3642ZM72.2722 3.10991C72.2515 3.10991 72.2308 3.10502 72.2101 3.0972C71.938 2.97593 71.655 2.8674 71.3691 2.77253C71.2892 2.74515 71.2458 2.66005 71.2715 2.58083C71.2991 2.50161 71.3859 2.45859 71.4648 2.485C71.7605 2.58182 72.0524 2.69525 72.3334 2.82044C72.4103 2.85369 72.4448 2.94465 72.4103 3.01996C72.3856 3.07766 72.3304 3.10991 72.2722 3.10991ZM64.1854 2.78426C64.1183 2.78426 64.0572 2.74025 64.0395 2.67374C64.0168 2.59257 64.0631 2.51041 64.145 2.48792C64.4388 2.40773 64.7415 2.33439 65.0462 2.27082C65.128 2.25322 65.2098 2.30602 65.2266 2.38818C65.2433 2.46935 65.1911 2.55051 65.1083 2.56812C64.8095 2.62973 64.5137 2.70113 64.2268 2.77937C64.214 2.78328 64.2002 2.78426 64.1854 2.78426ZM5.012 2.73925C4.94989 2.73925 4.88975 2.70016 4.86806 2.63757C4.83946 2.55737 4.88285 2.47128 4.96272 2.4439C5.24076 2.34805 5.54442 2.26493 5.8619 2.19549C5.94571 2.17691 6.02655 2.22974 6.0443 2.31189C6.06303 2.39306 6.00979 2.47325 5.92894 2.49183C5.62132 2.55931 5.33148 2.6395 5.06231 2.73143C5.04555 2.7373 5.02778 2.73925 5.012 2.73925ZM70.536 2.5329C70.5251 2.5329 70.5142 2.53193 70.5014 2.52997C70.2125 2.46347 69.9138 2.40871 69.6141 2.36666C69.5303 2.35492 69.4721 2.27862 69.4839 2.19549C69.4958 2.11236 69.5736 2.05369 69.6565 2.06641C69.9661 2.10944 70.2737 2.16615 70.5715 2.23363C70.6533 2.25319 70.7055 2.33438 70.6858 2.41653C70.6691 2.48597 70.605 2.5329 70.536 2.5329ZM9.52772 2.46933C9.51293 2.46933 9.49912 2.46739 9.48433 2.46348C9.21516 2.38524 8.92136 2.32949 8.61078 2.29819C8.52796 2.28939 8.46683 2.21505 8.47472 2.13192C8.48359 2.04781 8.55854 1.98815 8.64334 1.99695C8.97068 2.02923 9.28025 2.0889 9.56816 2.17203C9.649 2.19452 9.69631 2.27864 9.67166 2.35884C9.65391 2.42632 9.59279 2.46933 9.52772 2.46933ZM65.9789 2.41262C65.9049 2.41262 65.8399 2.35786 65.829 2.28255C65.8172 2.19942 65.8743 2.12216 65.9582 2.11043L66.0567 2.09574C66.3318 2.0576 66.6099 2.02729 66.8791 2.00382C66.9639 1.99697 67.0368 2.05858 67.0437 2.14269C67.0506 2.22582 66.9885 2.29917 66.9037 2.30699C66.6394 2.32851 66.3683 2.35884 66.0991 2.39698L66.0035 2.40969C65.9937 2.41165 65.9877 2.41262 65.9789 2.41262ZM6.79761 2.34221C6.72268 2.34221 6.65658 2.28547 6.64771 2.20919C6.63489 2.12606 6.69503 2.05077 6.77883 2.03904C7.10026 1.99796 7.41184 1.97349 7.70763 1.96469C7.79143 1.96273 7.86242 2.02825 7.86439 2.11138C7.86735 2.19549 7.8003 2.26493 7.71551 2.26787C7.43057 2.27569 7.1279 2.29916 6.81831 2.33926C6.81141 2.34219 6.80451 2.34221 6.79761 2.34221ZM68.7228 2.2796C68.7198 2.2796 68.7169 2.2796 68.7139 2.2796C68.4861 2.2659 68.2525 2.25906 68.0208 2.25906C67.9478 2.26004 67.8788 2.26005 67.8078 2.26103C67.8078 2.26103 67.8068 2.26103 67.8048 2.26103C67.723 2.26103 67.655 2.1955 67.653 2.11237C67.651 2.02826 67.7191 1.95982 67.8029 1.95884C67.8758 1.95786 67.9478 1.95883 68.0208 1.95687C68.2594 1.95687 68.4979 1.96371 68.7326 1.9774C68.8154 1.98229 68.8795 2.05368 68.8756 2.13681C68.8697 2.21701 68.8036 2.2796 68.7228 2.2796Z" fill="#333333"/>
<path d="M16.6503 26.9759C16.8534 28.4136 16.7479 29.3251 16.3318 29.7075C15.7915 30.2023 14.3747 30.4683 12.0803 30.5065C10.2751 30.5251 9.04162 30.1016 8.38004 29.238C7.57846 28.2092 7.00363 26.4732 6.66051 24.0302L4.36423 7.72702C4.29028 7.20184 4.25185 6.80575 4.24791 6.53778C4.24594 6.27079 4.30212 5.95391 4.4155 5.58912C4.64918 4.928 5.504 4.49475 6.97801 4.29133C8.38202 4.09671 9.29995 4.28253 9.73279 4.8527C9.96449 5.16859 10.1183 5.462 10.1912 5.73095C10.2632 5.99892 10.3372 6.39793 10.4121 6.92214L12.6473 22.7803C12.7617 23.6018 12.9056 24.1123 13.0742 24.3099C13.2428 24.5075 13.5623 24.574 14.0355 24.5084C14.5068 24.4429 14.8263 24.4155 14.9929 24.4282C15.1585 24.44 15.3675 24.5094 15.6209 24.6375C16.1198 24.8732 16.4639 25.6517 16.6503 26.9759ZM36.1684 18.0899C36.4356 19.9852 36.1782 21.7368 35.3963 23.3466C34.6125 24.9573 33.5635 26.2092 32.2452 27.1011C30.929 27.994 29.5102 28.5466 27.9908 28.7568C26.4724 28.9671 24.9461 28.7999 23.4139 28.2552C21.8818 27.7114 20.5251 26.7813 19.343 25.4669C18.1598 24.1534 17.44 22.5837 17.1827 20.7559C16.7962 18.0155 17.4459 15.6214 19.128 13.5715C20.811 11.5226 22.8953 10.3265 25.3809 9.98129C27.8665 9.63606 30.1905 10.217 32.3498 11.7202C34.509 13.2263 35.7828 15.3485 36.1684 18.0899ZM30.0465 18.8674C29.8897 17.7485 29.4145 16.9652 28.6257 16.5153C27.833 16.0664 27.0246 15.8991 26.1954 16.0136C25.3652 16.129 24.6346 16.5221 24.0016 17.1911C23.3686 17.862 23.13 18.75 23.2848 19.8571C23.4426 20.9652 23.9267 21.7476 24.743 22.2043C25.5584 22.661 26.3472 22.8371 27.1054 22.7324C27.8656 22.6278 28.5854 22.2356 29.2637 21.5598C29.945 20.884 30.2052 19.9862 30.0465 18.8674ZM54.5003 6.78326C53.6257 6.41456 52.9593 6.26296 52.5008 6.32653C52.0394 6.3901 51.6854 6.53876 51.4369 6.77055C51.1874 7.00233 51.013 7.22531 50.9144 7.43656C50.8148 7.64879 50.6699 7.98914 50.4776 8.45759L47.1707 17.7163L41.4324 9.71137C41.0222 9.14022 40.6525 8.71969 40.3212 8.45171C39.9899 8.18374 39.5699 8.084 39.0651 8.15343C38.5583 8.22483 37.9037 8.57201 37.1001 9.19402C36.0027 10.0693 35.5117 10.9163 35.628 11.7388C35.6951 12.218 36.0126 12.8019 36.5795 13.4923L45.4788 24.6903L45.8426 25.0238C46.0625 25.2488 46.4134 25.4512 46.8966 25.6283C47.3787 25.8063 47.8668 25.86 48.3627 25.7916C48.8567 25.7231 49.3348 25.4991 49.7982 25.1207C50.2607 24.7412 50.5811 24.3422 50.7566 23.9217L56.1912 10.7725C56.5393 9.90894 56.6812 9.24976 56.6172 8.79303C56.5008 7.99499 55.7968 7.32507 54.5003 6.78326ZM75.2498 17.6302C75.6354 18.2043 75.8591 18.7089 75.9212 19.1422C76.2072 21.1754 73.899 22.5309 68.9968 23.2106C67.2921 23.4473 65.7383 23.3652 64.3323 22.9661C62.9273 22.5691 61.7895 21.9402 60.9179 21.0835C59.2053 19.4336 58.1888 17.4688 57.8683 15.1852C57.4621 12.3089 58.0754 9.87863 59.7091 7.89428C61.3419 5.91091 63.5623 4.7236 66.3713 4.33338C69.5707 3.88937 72.077 4.68252 73.8882 6.7148C74.8387 7.79352 75.4115 9.03461 75.6097 10.439C75.8079 11.8434 75.6028 12.9309 74.9964 13.7026C74.3901 14.4732 73.6595 14.9172 72.8076 15.0356L64.6241 16.17C64.7138 16.8087 65.1694 17.2918 65.9917 17.6214C66.811 17.95 67.6017 18.0605 68.3609 17.9559C69.6959 17.771 70.7233 17.4884 71.445 17.1089L71.8049 16.9202C72.3235 16.5925 72.7652 16.4038 73.1329 16.352C73.8714 16.2493 74.5754 16.6747 75.2498 17.6302ZM64.1164 13.062L68.4664 12.4596C69.341 12.3373 69.7265 11.9119 69.624 11.1813C69.55 10.6552 69.2877 10.261 68.8421 9.99696C68.3925 9.73388 67.794 9.65271 67.0476 9.75736C66.2993 9.86005 65.5992 10.2669 64.9475 10.974C64.2968 11.6811 64.0178 12.3774 64.1164 13.062Z" fill="#FF7880"/>
</svg>
