<svg width="72" height="46" viewBox="0 0 72 46" fill="none" xmlns="http://www.w3.org/2000/svg">
<path d="M36.6079 45.0271V45.0282L36.5984 45.0303L36.6079 45.0271Z" fill="#E0C380"/>
<path d="M71.7109 15.7663C71.4423 13.1814 70.4008 11.201 68.6995 10.0394C66.3746 8.45308 63.7608 7.64905 60.9306 7.64905C58.4458 7.64905 56.2701 8.27232 54.6935 8.90941C54.4078 8.6358 54.0976 8.36912 53.7629 8.11034C52.1821 6.8885 50.0373 5.82175 47.3894 4.9397C46.4545 4.62856 45.4514 4.33915 44.4078 4.07938C44.2352 4.03691 44.0593 3.99443 43.8834 3.95196C43.5316 3.86998 43.1713 3.78799 42.8099 3.71193C42.6287 3.67341 42.4464 3.63586 42.262 3.59931C41.7109 3.48869 41.1449 3.38398 40.5746 3.28817C40.3848 3.25558 40.1929 3.22499 39.9989 3.19437C37.4491 2.79137 34.7447 2.53751 31.9646 2.43873C31.0926 2.40712 30.2036 2.39132 29.322 2.39132C28.0045 2.39132 26.6795 2.42689 25.3853 2.49504C23.2726 2.60764 21.2003 2.8131 19.2282 3.10448C18.8402 3.16177 18.45 3.22301 18.0695 3.28721C17.6911 3.35141 17.3094 3.41955 16.9374 3.48968C14.4995 3.95194 12.2769 4.54855 10.3294 5.26169C9.87418 5.42862 9.4286 5.60346 9.00647 5.78224C8.8647 5.84249 8.72293 5.90374 8.58435 5.96596C8.30506 6.09042 8.03004 6.21882 7.76674 6.34821C6.94913 6.75022 6.20081 7.18088 5.5431 7.6303C2.31956 9.83 1.64159 12.1749 1.64159 13.7553C1.64159 13.9755 1.65547 14.1948 1.68105 14.4141C1.65547 14.5583 1.64159 14.7065 1.64159 14.8576C1.64159 18.9873 2.18205 22.8988 3.2459 26.4833C4.37158 30.2693 6.06012 33.6108 8.26564 36.415C13.1958 42.6852 20.4786 46 29.3231 46C30.2271 46 31.1278 45.9585 32.004 45.8775C32.2588 45.8538 32.521 45.8252 32.7865 45.7926L32.795 45.7916L32.8259 45.7876C33.0764 45.757 33.3301 45.7215 33.5785 45.6839L33.6265 45.676C33.8802 45.6365 34.1307 45.594 34.3694 45.5496L34.3919 45.5456C34.3929 45.5456 34.394 45.5456 34.394 45.5456C35.1434 45.4054 35.8885 45.2316 36.6069 45.0281L36.6294 45.0222C36.6315 45.0212 36.6325 45.0211 36.6347 45.0202H36.6368C36.8596 44.9569 37.0877 44.8878 37.3148 44.8157L37.3297 44.8117L37.3563 44.8029C37.5834 44.7308 37.8062 44.6557 38.0236 44.5786L38.0524 44.5688L38.061 44.5658C38.2891 44.4848 38.5119 44.4018 38.724 44.3189C38.7272 44.3179 38.7304 44.3169 38.7347 44.3149C39.1738 44.144 39.613 43.9564 40.0416 43.7588C40.0448 43.7578 40.049 43.7559 40.0522 43.7539C40.2516 43.662 40.4573 43.5623 40.6662 43.4585L40.6758 43.4536L40.7067 43.4378C40.9007 43.341 41.0958 43.2383 41.2898 43.1346L41.325 43.1158L41.3357 43.1099C41.5318 43.0042 41.7226 42.8955 41.906 42.7898L41.9348 42.7731C42.5093 42.4382 43.0754 42.0747 43.6211 41.6915L43.6233 41.6905L43.6542 41.6678C43.8194 41.5512 43.9889 41.4278 44.1584 41.3003L44.2096 41.2628C44.3748 41.1384 44.5379 41.0129 44.6935 40.8895L44.7308 40.8598L44.7436 40.8499C44.9078 40.7186 45.0687 40.5872 45.218 40.4608L45.2468 40.4361L45.2446 40.4381C45.5634 40.1704 45.8799 39.8879 46.1869 39.6014L46.2147 39.5748C46.3564 39.4434 46.4961 39.3081 46.6432 39.1629L46.6592 39.1481L46.6976 39.1095C46.8308 38.9772 46.9672 38.8399 47.1016 38.7016L47.1421 38.6591L47.156 38.6453C47.2935 38.5011 47.4256 38.3618 47.5493 38.2265L47.5866 38.186L47.5983 38.1732C47.7369 38.0221 47.8638 37.8798 47.9863 37.7396C47.9885 37.7376 47.9906 37.7356 47.9917 37.7336L48.0098 37.7129L48.0034 37.7198C48.1334 37.5716 48.2614 37.4215 48.3861 37.2714L48.4053 37.2496C48.4074 37.2487 48.4085 37.2467 48.4096 37.2457C48.5066 37.1301 48.6057 37.0096 48.7091 36.8792C48.9436 36.8842 49.176 36.8871 49.4062 36.8871C52.2641 36.8871 54.9718 36.4733 57.4523 35.6574C59.741 34.9047 61.8484 33.8073 63.7117 32.3969C65.3971 31.1217 66.8745 29.5996 68.1025 27.873C69.2165 26.3065 70.1013 24.6076 70.7345 22.8257C71.599 20.384 71.9369 17.9433 71.7109 15.7663ZM61.099 19.3864C60.8869 20.4847 60.3667 21.7026 59.6386 22.8148C58.7304 24.1986 57.5482 25.3592 56.2179 26.1692C55.5431 26.5801 54.8353 26.8991 54.0987 27.1253C54.1147 27.0838 54.1296 27.0413 54.1456 26.9999C54.1648 26.9485 54.1829 26.8971 54.2021 26.8458L54.2256 26.7796L54.2426 26.7322C54.2746 26.6443 54.3076 26.5564 54.3385 26.4685C54.3577 26.4151 54.3748 26.3638 54.3929 26.3114L54.4153 26.2472L54.4324 26.1998C54.4611 26.1139 54.4931 26.0269 54.5219 25.941C54.54 25.8887 54.5571 25.8363 54.5741 25.784L54.5965 25.7198L54.6125 25.6733C54.6413 25.5884 54.6701 25.5025 54.6978 25.4175C54.7159 25.3632 54.733 25.3088 54.75 25.2535L54.7692 25.1953L54.7831 25.1538C54.8108 25.0678 54.8385 24.9829 54.8652 24.898C54.8822 24.8446 54.8982 24.7893 54.9153 24.735L54.9334 24.6767L54.9408 24.655C54.9675 24.5651 54.9962 24.4742 55.0229 24.3843C55.04 24.329 55.0549 24.2757 55.072 24.2223L55.089 24.165L55.1007 24.1255C55.1252 24.0426 55.1497 23.9596 55.1743 23.8766C55.1913 23.8193 55.2063 23.763 55.2222 23.7067L55.2361 23.6593L55.2404 23.6445C55.266 23.5546 55.2915 23.4648 55.3161 23.3749C55.3321 23.3196 55.347 23.2642 55.3619 23.2079L55.3758 23.1605L55.3811 23.1398C55.4045 23.0538 55.429 22.9679 55.4514 22.882C55.4685 22.8197 55.4834 22.7585 55.4994 22.6973L55.5079 22.6647L55.5111 22.6558C55.5335 22.5688 55.5559 22.4819 55.5783 22.396C55.5954 22.3288 55.6113 22.2636 55.6284 22.1975L55.6327 22.1797L55.6348 22.1757C55.6561 22.0898 55.6774 22.0039 55.6998 21.9179C55.7158 21.8528 55.7307 21.7885 55.7467 21.7243L55.7521 21.7036C55.7734 21.6167 55.7926 21.5337 55.8128 21.4507C55.8299 21.3786 55.8459 21.3075 55.8629 21.2374C55.8821 21.1534 55.9013 21.0715 55.9194 20.9905C55.9364 20.9203 55.9503 20.8522 55.9663 20.784L55.9674 20.7761L55.9695 20.7672C55.9876 20.6912 56.0036 20.6161 56.0196 20.541C56.0345 20.4758 56.0484 20.4087 56.0633 20.3415L56.0665 20.3247C56.0836 20.2487 56.0985 20.1756 56.1134 20.1025C56.1294 20.0294 56.1433 19.9573 56.1592 19.8842C56.1731 19.814 56.187 19.7439 56.2008 19.6748C56.2157 19.6007 56.2296 19.5286 56.2445 19.4555C56.2573 19.3903 56.269 19.3241 56.2818 19.2599C56.2967 19.1839 56.3106 19.1098 56.3255 19.0357L56.3575 18.8569C56.3724 18.7799 56.3852 18.7048 56.3991 18.6307C56.4087 18.5754 56.4194 18.5201 56.4279 18.4648C56.4417 18.3888 56.4535 18.3127 56.4673 18.2366L56.4918 18.0905C56.5057 18.0095 56.5174 17.9324 56.5302 17.8554L56.5334 17.8386L56.5526 17.725C56.5664 17.644 56.5782 17.566 56.5899 17.4889L56.608 17.3773C56.6091 17.3684 56.6102 17.3595 56.6123 17.3516C57.3681 17.1521 58.2848 16.9763 59.1355 16.9763C59.7569 16.9763 60.2665 17.0711 60.6087 17.2489C60.6524 17.2716 60.695 17.2963 60.7344 17.323C60.7408 17.3279 60.7483 17.3319 60.7558 17.3368C60.7664 17.3447 60.7846 17.3575 60.8048 17.3733L60.8144 17.3803L60.8165 17.3822C60.8346 17.3961 60.8517 17.4109 60.8667 17.4237C60.872 17.4277 60.8773 17.4326 60.8837 17.4376C60.8922 17.4455 60.9007 17.4543 60.9103 17.4632C60.9178 17.4711 60.9263 17.48 60.9327 17.4879C60.9466 17.5017 60.9615 17.5176 60.9764 17.5353L60.9924 17.5531C61.0041 17.5669 61.017 17.5828 61.0319 17.6015L61.0543 17.6292L61.0553 17.6312C61.0745 17.6549 61.0884 17.6756 61.1001 17.6924C61.1577 17.8109 61.2952 18.371 61.099 19.3864Z" fill="#E0C380"/>
<path d="M34.9652 42.6358L34.9558 42.639L34.9652 42.6358Z" fill="white"/>
<path d="M70.0693 13.375C69.8007 10.79 68.7592 8.80963 67.0568 7.64805C64.733 6.06273 62.1181 5.25773 59.2879 5.25773C56.8042 5.25773 54.6274 5.881 53.0509 6.51809C52.7652 6.24449 52.455 5.97879 52.1202 5.71902C50.5394 4.49719 48.3946 3.43041 45.7467 2.54835C44.8118 2.23722 43.8087 1.94781 42.7651 1.68903C42.5925 1.64557 42.4176 1.60309 42.2407 1.56161C41.8889 1.47864 41.5286 1.39763 41.1672 1.32158C40.986 1.28306 40.8037 1.24553 40.6193 1.208C40.0693 1.09737 39.5022 0.992668 38.9329 0.896857C38.7421 0.865249 38.5503 0.83364 38.3573 0.80302C35.8064 0.400023 33.1031 0.145195 30.3219 0.0464209C29.451 0.0158009 28.5609 0 27.6793 0C26.3618 0 25.0368 0.0345516 23.7427 0.103693C21.6299 0.216296 19.5576 0.42175 17.5855 0.713133C17.1975 0.770422 16.8084 0.832647 16.4268 0.895862C16.0484 0.960065 15.6668 1.02824 15.2947 1.09837C12.8579 1.56162 10.6343 2.15723 8.68777 2.87038C8.23153 3.0373 7.78595 3.21212 7.36488 3.39189C7.22204 3.45214 7.08026 3.51338 6.94168 3.57561C6.6624 3.69908 6.38737 3.82847 6.12408 3.95786C5.30647 4.35888 4.55812 4.79052 3.90147 5.23895C0.676872 7.43865 0 9.78455 0 11.3639C0 11.5842 0.0127707 11.8035 0.0383544 12.0228C0.0127707 12.167 0 12.3161 0 12.4672C0 16.597 0.539361 20.5074 1.60428 24.0919C2.72889 27.8779 4.41742 31.2195 6.62294 34.0246C11.5542 40.2958 18.8359 43.6097 27.6804 43.6097C28.5844 43.6097 29.4851 43.5682 30.3614 43.4862H30.3624C30.6161 43.4625 30.8783 43.4338 31.1438 43.4022L31.1534 43.4013L31.1843 43.3973C31.4338 43.3657 31.6874 43.3311 31.9369 43.2926L31.9848 43.2857C32.2375 43.2462 32.488 43.2037 32.7279 43.1593L32.7502 43.1553C32.7513 43.1553 32.7513 43.1553 32.7524 43.1553C33.5007 43.015 34.2458 42.8412 34.9643 42.6377L34.9867 42.6318C34.9888 42.6318 34.9909 42.6308 34.9931 42.6298H34.9941C35.218 42.5666 35.445 42.4975 35.6732 42.4254L35.687 42.4214L35.7137 42.4125C35.9407 42.3404 36.1635 42.2654 36.382 42.1883L36.4097 42.1784L36.4183 42.1755C36.6464 42.0945 36.8692 42.0115 37.0813 41.9295C37.0856 41.9285 37.0877 41.9266 37.092 41.9256C37.5312 41.7537 37.9714 41.567 38.3989 41.3695C38.4021 41.3675 38.4063 41.3665 38.4095 41.3645C38.6089 41.2727 38.8157 41.1729 39.0236 41.0682L39.0331 41.0633L39.0651 41.0475C39.2581 40.9507 39.4531 40.848 39.6472 40.7442L39.6823 40.7255L39.693 40.7205C39.8891 40.6138 40.0799 40.5062 40.2643 40.3995L40.2921 40.3827C40.8677 40.0479 41.4337 39.6844 41.9784 39.3012L41.9806 39.3002L42.0115 39.2774C42.1767 39.1609 42.3462 39.0374 42.5168 38.911L42.5669 38.8735C42.7321 38.749 42.8952 38.6236 43.0508 38.4991L43.0882 38.4695L43.1009 38.4596C43.2651 38.3282 43.4261 38.1969 43.5753 38.0704L43.6051 38.0457L43.6019 38.0477C43.9207 37.78 44.2373 37.4985 44.5443 37.2121L44.572 37.1854C44.7138 37.0541 44.8534 36.9187 45.0016 36.7735L45.0165 36.7587L45.0549 36.7202C45.1881 36.5878 45.3246 36.4505 45.4589 36.3123L45.4994 36.2698L45.5133 36.256C45.6508 36.1117 45.7829 35.9725 45.9066 35.8371L45.9439 35.7967L45.9557 35.7838C46.0942 35.6337 46.2211 35.4905 46.3437 35.3502C46.3458 35.3482 46.3479 35.3462 46.349 35.3443L46.3671 35.3235L46.3607 35.3304C46.4908 35.1823 46.6187 35.0322 46.7434 34.882L46.7637 34.8603C46.7647 34.8593 46.7658 34.8573 46.7669 34.8563C46.8639 34.7408 46.963 34.6203 47.0664 34.4899C47.302 34.4948 47.5333 34.4978 47.7635 34.4978C50.6225 34.4978 53.3291 34.0839 55.8096 33.268C58.0983 32.5144 60.2057 31.418 62.0691 30.0075C63.7544 28.7324 65.2318 27.2102 66.4598 25.4837C67.5738 23.9171 68.4596 22.2182 69.0918 20.4353C69.9563 17.9917 70.2953 15.5519 70.0693 13.375ZM59.4574 16.995C59.2442 18.0934 58.7251 19.3113 57.9959 20.4235C57.0877 21.8073 55.9056 22.9679 54.5752 23.7778C53.9004 24.1887 53.1926 24.5068 52.456 24.734C52.4731 24.6925 52.4869 24.65 52.5029 24.6085C52.5221 24.5572 52.5402 24.5058 52.5594 24.4544L52.5829 24.3882L52.5999 24.3399C52.6319 24.252 52.665 24.1641 52.6959 24.0761C52.7151 24.0238 52.7321 23.9714 52.7502 23.9191L52.7726 23.8539L52.7897 23.8065C52.8195 23.7205 52.8504 23.6336 52.8792 23.5477C52.8973 23.4954 52.9144 23.443 52.9315 23.3907L52.9538 23.3264L52.9698 23.279C52.9986 23.1941 53.0274 23.1082 53.0551 23.0232C53.0732 22.9689 53.0903 22.9146 53.1073 22.8593L53.1265 22.801L53.1415 22.7595C53.1681 22.6745 53.1958 22.5886 53.2225 22.5037C53.2395 22.4503 53.2555 22.396 53.2726 22.3407L53.2917 22.2824L53.2982 22.2607C53.3248 22.1698 53.3547 22.0799 53.3813 21.99C53.3984 21.9347 53.4122 21.8814 53.4293 21.828L53.4463 21.7707L53.458 21.7313C53.4826 21.6483 53.5081 21.5653 53.5316 21.4823C53.5487 21.426 53.5636 21.3688 53.5796 21.3134L53.5945 21.265L53.5987 21.2502C53.6233 21.1603 53.6499 21.0695 53.6734 20.9806C53.6904 20.9253 53.7043 20.8689 53.7203 20.8136L53.7331 20.7662L53.7384 20.7455C53.7619 20.6595 53.7864 20.5726 53.8088 20.4877C53.8258 20.4265 53.8407 20.3642 53.8567 20.303L53.8663 20.2704L53.8685 20.2615C53.8908 20.1746 53.9143 20.0876 53.9356 20.0007C53.9527 19.9345 53.9686 19.8684 53.9857 19.8022L53.991 19.7844L53.9921 19.7805C54.0134 19.6945 54.0358 19.6086 54.0571 19.5236C54.0731 19.4585 54.088 19.3943 54.104 19.3301L54.1094 19.3093C54.1307 19.2224 54.1509 19.1394 54.1701 19.0565C54.1872 18.9843 54.2032 18.9132 54.2202 18.8421C54.2405 18.7591 54.2586 18.6772 54.2767 18.5962C54.2938 18.527 54.3077 18.4579 54.3236 18.3897L54.3258 18.3818L54.3279 18.3729C54.345 18.2979 54.3609 18.2218 54.378 18.1467C54.3919 18.0815 54.4057 18.0134 54.4206 17.9462L54.4249 17.9304C54.4409 17.8544 54.4558 17.7813 54.4707 17.7082C54.4867 17.6351 54.5017 17.563 54.5166 17.4909C54.5315 17.4208 54.5443 17.3506 54.5582 17.2815C54.5741 17.2074 54.5869 17.1353 54.6018 17.0622C54.6146 16.997 54.6274 16.9318 54.6402 16.8666C54.6552 16.7906 54.6679 16.7165 54.6829 16.6414L54.7159 16.4626C54.7298 16.3856 54.7425 16.3115 54.7564 16.2364C54.766 16.1811 54.7767 16.1258 54.7852 16.0705C54.7991 15.9945 54.8118 15.9184 54.8257 15.8424L54.8491 15.6972C54.863 15.6162 54.8758 15.5381 54.8886 15.4621L54.8918 15.4443L54.9099 15.3317C54.9238 15.2507 54.9355 15.1727 54.9472 15.0956L54.9654 14.983C54.9664 14.9741 54.9675 14.9652 54.9696 14.9573C55.7254 14.7578 56.6432 14.582 57.4928 14.582C58.1143 14.582 58.6238 14.6758 58.966 14.8546C59.0097 14.8773 59.0523 14.902 59.0918 14.9287C59.0992 14.9336 59.1067 14.9386 59.1131 14.9435C59.1237 14.9504 59.1419 14.9643 59.1621 14.9791L59.1717 14.986L59.1739 14.9879C59.193 15.0028 59.209 15.0156 59.224 15.0294C59.2293 15.0344 59.2346 15.0393 59.241 15.0433C59.2495 15.0512 59.2581 15.06 59.2677 15.0689C59.2762 15.0778 59.2836 15.0857 59.2911 15.0937C59.3039 15.1065 59.3188 15.1223 59.3348 15.1401L59.3498 15.1579C59.3615 15.1717 59.3743 15.1875 59.3892 15.2062L59.4116 15.2339L59.4137 15.2359C59.4318 15.2606 59.4457 15.2803 59.4574 15.2971C59.516 15.4196 59.6525 15.9796 59.4574 16.995Z" fill="white"/>
<path d="M65.3172 9.83595C58.9991 5.52447 52.1469 10.0552 52.1469 10.0552L51.7664 11.3778L2.93256 12.4673C2.93256 27.7851 10.8454 40.8914 27.6805 40.8914C36.7221 40.8914 42.4763 36.4061 46.1305 30.9331L45.9067 31.7124C65.6743 33.0271 70.3827 13.293 65.3172 9.83595ZM48.1794 27.7851L48.4586 26.7767C51.0245 21.3056 51.954 15.716 52.2727 13.0204L52.2898 12.9602C52.2898 12.9602 59.3455 9.9683 61.9508 13.8758C64.2832 17.3763 58.9703 28.926 48.1794 27.7851Z" fill="#FFBA1E"/>
<path d="M60.097 11.8648C59.9829 11.8578 60.501 12.5325 60.3976 12.487C60.9977 12.7992 61.5307 13.2486 61.9486 13.8758C64.282 17.3773 58.9692 28.927 48.1782 27.7861L48.4575 26.7776C50.9764 21.4073 51.9177 15.9263 52.2535 13.1755C51.8015 13.3592 51.3516 13.5508 50.9039 13.7434C47.2977 15.2902 44.2373 16.9546 40.631 18.5014C41.4369 22.9018 40.7621 27.5254 38.725 31.5692C36.8414 35.3078 33.8002 38.5357 30.0671 40.7828C37.7508 40.0677 42.8067 35.9093 46.1283 30.9341L46.0121 31.339C51.4231 31.342 56.8905 28.6484 60.5159 24.9276C62.2226 23.1764 63.9846 20.5174 64.2085 18.1665C64.4323 15.8157 64.5059 12.1245 60.097 11.8648Z" fill="#CE9115"/>
<path d="M27.6803 20.0097C41.3482 20.0097 52.4282 16.1389 52.4282 11.364C52.4282 6.58911 41.3482 2.71828 27.6803 2.71828C14.0124 2.71828 2.93243 6.58911 2.93243 11.364C2.93243 16.1389 14.0124 20.0097 27.6803 20.0097Z" fill="#CE9115"/>
<path d="M27.6793 6.95077C16.3404 6.95077 6.78392 9.61472 3.8546 13.2496C6.78392 16.8835 16.3404 19.5474 27.6793 19.5474C39.0182 19.5474 48.5769 16.8835 51.5041 13.2496C48.5769 9.61472 39.0182 6.95077 27.6793 6.95077Z" fill="#7B2623"/>
<path d="M14.8769 9.18501C13.102 9.55442 11.3378 10.0216 9.7015 10.7723C8.06522 11.524 6.5558 12.5739 5.47595 13.9588C6.12834 14.5 6.76897 15.067 7.42136 15.6083C11.2536 12.4258 16.1998 10.4483 21.2131 9.58012C26.2243 8.7119 31.373 8.83337 36.4343 9.34305C29.6535 7.97207 21.6629 7.77353 14.8769 9.18501Z" fill="#A0382A"/>
<path d="M20.0906 11.5931C20.0906 11.5931 27.012 10.0137 36.7967 11.5931C46.5803 13.1725 49.1952 15.8513 41.1214 18.5962L37.4832 19.0851C37.4832 19.0851 42.9421 17.971 41.0052 14.988C39.0662 12.005 25.2585 11.3867 20.0906 11.5931Z" fill="#A0382A"/>
<path d="M5.47595 18.5093C5.47595 18.5093 7.59938 35.8797 22.3451 37.6645C22.3451 37.6645 11.6757 34.8505 5.47595 18.5093Z" fill="#F9C45A"/>
<path d="M27.6793 2.71828C14.0123 2.71828 2.93145 6.58925 2.93145 11.364C2.93145 16.1387 14.0123 20.0097 27.6793 20.0097C41.3474 20.0097 52.4283 16.1387 52.4283 11.364C52.4283 6.58925 41.3474 2.71828 27.6793 2.71828ZM27.6793 17.8949C15.703 17.8949 5.99294 14.9712 5.99294 11.3649C5.99294 7.75871 15.7019 4.83501 27.6793 4.83501C39.6567 4.83501 49.3668 7.75871 49.3668 11.3649C49.3668 14.9712 39.6578 17.8949 27.6793 17.8949Z" fill="#F9C45A"/>
<path d="M5.34805 11.364C5.34805 13.3889 7.76142 15.231 12.1458 16.5506C16.3042 17.8031 21.8207 18.4925 27.6793 18.4925C33.538 18.4925 39.0555 17.8031 43.214 16.5506C47.5973 15.231 50.0128 13.3889 50.0128 11.364C50.0128 9.33915 47.5973 7.49701 43.214 6.17739C39.0555 4.92493 33.538 4.23549 27.6793 4.23549C21.8207 4.23549 16.3042 4.92493 12.1458 6.17739C7.76142 7.49701 5.34805 9.34014 5.34805 11.364ZM12.5445 7.31624C16.5782 6.1023 21.9529 5.43263 27.6793 5.43263C33.4069 5.43263 38.7816 6.10132 42.8153 7.31624C46.5132 8.42942 48.7197 9.94263 48.7197 11.365C48.7197 12.7863 46.5132 14.3005 42.8153 15.4137C38.7816 16.6277 33.4069 17.2974 27.6793 17.2974C21.9529 17.2974 16.5782 16.6286 12.5445 15.4137C8.84659 14.3005 6.63896 12.7863 6.63896 11.365C6.63896 9.94263 8.84659 8.42942 12.5445 7.31624Z" fill="#542125"/>
<path d="M65.6998 9.35393C62.956 7.48117 59.6717 6.92606 56.203 7.74885C54.4931 8.15481 53.1425 8.79584 52.4006 9.19884C49.79 5.09281 39.8657 2.11972 27.6804 2.11972C26.7914 2.11972 25.913 2.13552 25.0485 2.16614C12.0904 2.63136 2.28545 6.5043 2.28545 11.364C2.28545 11.6326 2.31743 11.8993 2.37712 12.1621C2.31956 12.251 2.28545 12.3556 2.28545 12.4673C2.28545 16.4064 2.79714 20.1282 3.80876 23.529C4.85982 27.068 6.42894 30.1784 8.47137 32.7752C12.9538 38.4755 19.597 41.489 27.6804 41.489C33.134 41.489 37.8723 39.8869 41.762 36.7271C43.2853 35.4905 44.6765 34.0138 45.9311 32.3129C46.56 32.3534 47.1794 32.3742 47.7881 32.3742C52.3537 32.3742 56.3628 31.2422 59.7239 28.9991C62.828 26.9278 65.2979 23.8767 66.6794 20.4057C68.562 15.6755 68.1505 11.0272 65.6998 9.35393ZM52.8824 13.378C54.233 12.8811 59.4201 11.2188 61.3996 14.1889C62.5051 15.8463 61.4519 19.337 59.7964 21.754C58.5631 23.5537 55.0911 27.5846 48.9404 27.2449C49.08 26.9525 49.2176 26.6561 49.3519 26.3559C51.6523 21.191 52.5466 16.0893 52.8824 13.378ZM44.9515 5.8099C49.2858 7.32411 51.7738 9.34504 51.7812 11.3551C51.7781 11.4015 51.7695 11.5339 51.7535 11.7423C51.4636 13.6289 49.0214 15.4967 44.9515 16.918C40.3486 18.5261 34.2149 19.4121 27.6793 19.4121C21.5542 19.4121 15.7798 18.6337 11.2888 17.2114C10.9903 17.1166 10.695 17.0188 10.4082 16.918C6.06756 15.4018 3.5785 13.378 3.5785 11.364C3.5785 9.85471 4.97813 8.33851 7.50984 7.03469C7.53862 7.01988 7.56847 7.00508 7.59725 6.99126C7.70065 6.9389 7.80511 6.88654 7.91277 6.83517C8.65896 6.47465 9.49151 6.13092 10.4093 5.8099C10.6971 5.70916 10.9913 5.61237 11.2898 5.51754C15.7808 4.0952 21.5552 3.31686 27.6804 3.31686C34.2149 3.31686 40.3486 4.20187 44.9515 5.8099ZM40.9093 35.8283C37.2615 38.7915 32.811 40.2939 27.6793 40.2939C23.7181 40.2939 20.1258 39.5462 17.0024 38.0715C14.0784 36.6906 11.5595 34.6726 9.5139 32.0719C7.56421 29.5917 6.06332 26.6117 5.05383 23.2129C4.23835 20.4709 3.75866 17.5077 3.62008 14.3835C6.71996 17.7546 14.9206 20.1993 25.0474 20.5628C25.9119 20.5934 26.7903 20.6092 27.6793 20.6092C38.6206 20.6092 47.739 18.212 51.3762 14.7499C50.9285 17.56 50.0075 21.7441 48.1569 25.8996C46.2882 30.1004 43.8493 33.4399 40.9093 35.8283ZM65.4664 19.9929C64.1744 23.2425 61.8655 26.0961 58.9681 28.0291C55.5794 30.29 51.4668 31.34 46.7359 31.1563C47.3094 30.29 47.851 29.3724 48.3573 28.4034C48.8135 28.4439 49.257 28.4647 49.6866 28.4647C56.0036 28.4647 59.5821 24.2994 60.8848 22.396C63.0882 19.1799 63.7661 15.4631 62.4976 13.5607C61.2877 11.7472 59.0598 10.9847 56.0559 11.359C54.8556 11.5082 53.7683 11.8075 53.0231 12.0504C53.0295 11.9773 53.0348 11.9092 53.0402 11.847C53.0604 11.6998 53.07 11.5517 53.0711 11.4025C53.0721 11.3995 53.0722 11.3956 53.0722 11.3936C53.0722 11.3916 53.0722 11.3906 53.0722 11.3887C53.0722 11.3808 53.0722 11.3728 53.0722 11.3649C53.0722 11.3561 53.0722 11.3462 53.0722 11.3373C53.0722 11.3353 53.0721 11.3334 53.0711 11.3304C53.0679 10.9847 53.0135 10.6449 52.9144 10.31C54.4089 9.47639 59.8934 6.87863 64.9323 10.3179C66.8671 11.6376 67.1016 15.8868 65.4664 19.9929Z" fill="#542125"/>
</svg>
