<svg width="47" height="64" viewBox="0 0 47 64" fill="none" xmlns="http://www.w3.org/2000/svg">
<path d="M38.5471 35.5534C38.5137 35.5142 38.4793 35.476 38.4439 35.4378C36.8374 33.6905 34.2495 33.1529 31.9733 33.4855C31.8307 33.2825 31.7295 33.1449 31.7092 33.1207C31.0102 32.2757 30.1725 31.6306 29.2195 31.2026C28.2352 30.7615 27.1952 30.5695 26.1714 30.5263C26.6196 29.2221 27.0081 28.0957 27.1902 27.3913C27.2569 27.1331 27.3328 26.8648 27.4107 26.5804C28.0278 24.3528 28.7957 21.5795 27.3247 19.2906C26.7531 18.3993 25.5836 17.2438 23.2669 16.7997C22.7226 16.6952 22.0074 16.6278 21.2062 16.7263C22.0195 15.5457 22.8734 14.1188 23.4743 12.5051C24.0439 10.9748 25.1628 7.09525 23.2518 4.117C22.2087 2.49223 20.498 1.50651 18.3057 1.26536C17.5359 1.18096 16.7518 1.23922 15.9738 1.43918C14.512 1.81598 13.1553 2.67408 12.1558 3.85976C11.9626 4.08986 11.7805 4.33101 11.6115 4.58523C11.1593 4.36919 10.6646 4.19839 10.1234 4.09288C9.25942 3.92508 8.37626 3.95422 7.50117 4.17929C4.98213 4.82739 2.91833 7.05303 2.4813 9.59218C1.99772 12.4016 2.95677 15.0181 5.25324 17.1594C6.08078 17.9311 7.0368 18.5993 8.0343 19.1861C6.27704 20.0703 5.13893 21.9352 4.98819 24.188C4.86679 26.0157 5.3089 27.9199 6.3064 29.8491C7.11067 31.4075 8.13548 32.7379 9.12691 34.0251L10.5948 35.9322C9.9251 38.2332 9.35959 40.6116 8.91243 43.0171C8.84768 43.3698 8.77789 43.7245 8.70505 44.0942C8.22047 46.5811 7.67113 49.3986 8.13346 52.1638C8.69696 55.534 10.5615 58.3032 13.5276 60.1701C18.8237 63.5051 25.6261 64.7882 31.2793 63.5181C31.4634 63.4769 31.6445 63.4327 31.8256 63.3865C35.8682 62.3465 39.1359 60.0204 41.2735 56.6634C42.7728 54.3071 43.9848 51.7187 44.874 48.9706L45.0237 48.5073C45.6692 46.5259 46.3986 44.2821 46.4765 41.9208L46.4836 41.7319C46.5018 41.2366 46.522 40.6749 46.434 40.066C46.3227 39.2892 46.0476 38.5758 45.6176 37.9448C44.1729 35.8207 41.2897 34.8982 38.5471 35.5534Z" fill="#CADBE3"/>
<path d="M36.1879 34.3245C36.1545 34.2853 36.1201 34.2471 36.0837 34.2089C34.4781 32.4606 31.8893 31.923 29.6141 32.2556C29.4714 32.0526 29.3703 31.916 29.35 31.8919C28.651 31.0468 27.8133 30.4017 26.8603 29.9737C25.875 29.5326 24.836 29.3406 23.8122 29.2974C24.2603 27.9932 24.6488 26.8668 24.8309 26.1634C24.8977 25.9042 24.9726 25.6369 25.0515 25.3526C25.6686 23.1239 26.4364 20.3516 24.9655 18.0627C24.3939 17.1714 23.2244 16.0159 20.9077 15.5718C20.3634 15.4673 19.6482 15.4 18.8469 15.4984C19.6603 14.3178 20.5142 12.891 21.1151 11.2772C21.6847 9.74792 22.8036 5.86736 20.8915 2.88911C19.8495 1.26535 18.1388 0.278629 15.9465 0.0374751C15.1766 -0.0469286 14.3926 0.011339 13.6146 0.211296C12.1518 0.587093 10.7961 1.4462 9.7966 2.63187C9.60337 2.86197 9.42128 3.10313 9.25233 3.35635C8.80012 3.14031 8.3054 2.96949 7.76416 2.86398C6.9002 2.69618 6.01704 2.72532 5.14195 2.9504C2.62291 3.5985 0.558105 5.82415 0.122078 8.3633C-0.361497 11.1727 0.597542 13.7892 2.89301 15.9305C3.72055 16.7032 4.67659 17.3704 5.67409 17.9572C3.91784 18.8414 2.77971 20.7063 2.62898 22.9591C2.50758 24.7869 2.94967 26.691 3.94616 28.6202C4.75145 30.1787 5.77626 31.509 6.76769 32.7962L8.2356 34.7033C7.56588 37.0053 7.00037 39.3827 6.55321 41.7872C6.48847 42.1389 6.41766 42.4956 6.34584 42.8643C5.86125 45.3512 5.31191 48.1687 5.77424 50.934C6.33673 54.3051 8.20122 57.0743 11.1674 58.9413C16.4645 62.2752 23.2669 63.5583 28.9191 62.2883C29.1042 62.2471 29.2853 62.2028 29.4664 62.1566C33.509 61.1177 36.7766 58.7915 38.9143 55.4335C40.4126 53.0772 41.6245 50.4888 42.5138 47.7417L42.6645 47.2774C43.309 45.296 44.0394 43.0522 44.1173 40.691L44.1243 40.502C44.1426 40.0067 44.1618 39.445 44.0748 38.8371C43.9635 38.0604 43.6883 37.3459 43.2584 36.7149C41.8137 34.5908 38.9305 33.6683 36.1879 34.3245Z" fill="white"/>
<path d="M11.1846 21.4791C10.6252 20.9204 9.99289 20.4089 9.24122 20.1195C8.48956 19.8312 7.60132 19.79 6.86887 20.1497C5.79449 20.6772 5.30687 21.9202 5.22998 23.0666C5.1278 24.597 5.58405 26.1132 6.28715 27.4747C6.99026 28.8363 7.93514 30.0651 8.87599 31.285C9.89372 32.6073 10.9125 33.9286 11.9302 35.2509L15.0734 27.4506C13.991 25.3335 12.8842 23.1782 11.1846 21.4791Z" fill="#FACFCE" stroke="#243645" stroke-width="0.3528" stroke-miterlimit="10" stroke-linecap="round" stroke-linejoin="round"/>
<path d="M11.1846 21.479C10.6252 20.9204 9.99289 20.4089 9.24123 20.1195C8.48956 19.8312 7.60132 19.79 6.86888 20.1497C6.83448 20.1668 6.8021 20.1869 6.76771 20.205C7.42529 20.8038 8.0323 21.4509 8.57455 22.1523C9.75516 23.6806 10.5766 25.4742 10.784 27.3893C10.9742 29.1518 10.5958 30.9072 9.82394 32.5179C10.525 33.4292 11.2281 34.3406 11.9292 35.2519L15.0724 27.4516C13.991 25.3335 12.8842 23.1782 11.1846 21.479Z" fill="#ECD3D5"/>
<path d="M41.4971 39.225C41.4415 38.8441 41.3211 38.4744 41.0722 38.1096C40.0423 36.5984 37.8035 36.2286 35.9805 37.0073C35.8237 37.0747 35.243 37.4917 35.1256 37.4615C34.984 37.4253 34.9101 37.0274 34.8454 36.9119C34.637 36.5461 34.4033 36.1924 34.116 35.8799C32.8099 34.4581 30.0228 34.3235 28.3273 35.2379C28.4557 35.1696 27.4158 33.6081 27.2974 33.4654C26.8715 32.9499 26.3454 32.5189 25.7202 32.2385C24.057 31.493 21.9295 31.8065 20.1874 32.1692C20.4535 30.9202 21.9548 26.9532 22.3048 25.6048C23.0454 22.7471 24.6054 18.8364 20.3473 18.0185C16.7832 17.3332 15.1068 21.468 14.2874 24.0614C13.2545 27.329 12.2206 30.5967 11.1877 33.8643C10.3237 36.5954 9.64084 39.3737 9.11781 42.1771C8.62007 44.8549 7.8947 47.7869 8.34591 50.4908C8.79003 53.1536 10.2883 55.3712 12.6273 56.8442C19.8121 61.3669 31.5191 62.3003 36.6988 54.1614C38.1171 51.9317 39.2249 49.5252 40.0292 47.0403C40.7019 44.9604 41.4435 42.8392 41.5153 40.6548C41.5335 40.1534 41.5618 39.6811 41.4971 39.225Z" fill="#FACFCE" stroke="#243645" stroke-width="0.3528" stroke-miterlimit="10" stroke-linecap="round" stroke-linejoin="round"/>
<path d="M12.9825 18.4882C12.9592 18.4882 12.8834 18.4751 12.8621 18.4661L12.2632 18.225C9.94649 17.2985 6.77293 16.0274 4.73544 14.1274C3.03685 12.5448 2.35093 10.7251 2.6959 8.71747C3.01761 6.83849 4.80623 5.25189 6.5989 5.25189C6.79921 5.25189 6.99954 5.27099 7.19479 5.30917C8.52917 5.56841 9.49732 6.59532 10.3461 7.55893C10.5919 6.1733 11.0836 5.03586 11.812 4.17373C12.6851 3.13778 13.9861 2.4937 15.2062 2.4937C15.3356 2.4937 15.4651 2.50073 15.5946 2.5148C17.0221 2.67155 18.0631 3.26238 18.6903 4.26919C19.5846 5.70908 19.5735 8.0322 18.661 10.4849C17.968 12.3448 16.842 13.9746 15.9386 15.1864L15.7858 15.4004C14.2248 17.5939 13.4124 18.4882 12.9825 18.4882Z" fill="#F27C88"/>
<path d="M15.208 2.67007C15.3304 2.67007 15.4538 2.67611 15.5772 2.69017C19.7807 3.15238 19.6199 7.39969 18.4949 10.4222C17.8666 12.1092 16.8813 13.6245 15.7958 15.0794C15.556 15.401 13.567 18.3089 12.9833 18.3089C12.9631 18.3089 12.9459 18.3059 12.9297 18.2998C10.5118 17.3232 7.04791 16.038 4.85766 13.9963C3.39277 12.6297 2.49845 10.9235 2.87277 8.74512C3.17121 7.00681 4.82324 5.42726 6.59972 5.42726C6.78688 5.42726 6.97404 5.44434 7.16221 5.48051C8.56842 5.75282 9.5457 6.91336 10.4653 7.95937C10.6504 6.64508 11.0763 5.32175 11.9514 4.28479C12.7476 3.34128 13.9656 2.67007 15.208 2.67007ZM15.208 2.31538C13.9181 2.31538 12.5969 2.96649 11.6773 4.05771C10.9924 4.86959 10.5108 5.9146 10.2407 7.17061C9.43036 6.2713 8.49559 5.37903 7.22899 5.13385C7.02261 5.09366 6.81118 5.07357 6.59874 5.07357C4.72412 5.07357 2.85659 6.72848 2.52072 8.68685C2.16461 10.7557 2.86872 12.6287 4.61283 14.2555C6.67561 16.1787 9.86538 17.4558 12.1952 18.3873L12.7952 18.6284C12.8538 18.6525 12.9165 18.6646 12.9833 18.6646C13.4143 18.6646 14.0577 18.1361 15.9303 15.5045C16.0021 15.403 16.0547 15.3286 16.0831 15.2915C16.9936 14.0696 18.1287 12.4257 18.8297 10.5457C19.7615 8.04177 19.7665 5.66138 18.8429 4.17527C18.1863 3.11922 17.1008 2.50025 15.6167 2.33747C15.4801 2.3224 15.3445 2.31538 15.208 2.31538Z" fill="#243645"/>
<path d="M17.8697 3.58847C18.1843 4.81836 18.2309 6.11455 18.0579 7.37658C17.8596 8.81647 17.4013 10.2232 16.687 11.5154C16.0548 12.6589 15.1938 13.6365 14.1447 14.4535C12.7446 15.5437 10.956 16.4691 9.1269 16.6982C10.4653 17.3282 11.8098 17.8487 12.9308 18.3009C13.4346 18.5038 15.5489 15.413 15.7968 15.0804C16.8823 13.6245 17.8677 12.1102 18.4959 10.4232C19.3538 8.11412 19.6492 5.09468 17.8697 3.58847Z" fill="#EBCBD1"/>
<g opacity="0.3">
<path opacity="0.3" d="M4.28002 12.5544C3.92493 11.5385 3.7378 10.4744 3.88247 9.39626C4.01398 8.4216 4.34478 7.40373 5.07014 6.67022C5.83192 5.89853 7.02062 5.65837 8.0515 5.96484C8.38838 6.06532 8.68887 6.22307 8.97011 6.40896C8.44202 5.96383 7.85324 5.61517 7.16126 5.48052C5.18549 5.09669 3.20261 6.82394 2.87281 8.74513C2.4985 10.9236 3.39281 12.6297 4.8577 13.9963C4.91031 14.0445 4.96596 14.0907 5.02059 14.1389C4.71709 13.6396 4.47123 13.104 4.28002 12.5544Z" fill="#BBBDBF"/>
</g>
<g opacity="0.3">
<path opacity="0.3" d="M15.4852 2.68313C14.1488 2.57361 12.8073 3.27094 11.9515 4.2858C11.1836 5.19515 10.7618 6.32254 10.5442 7.47103C11.2696 5.26247 13.1715 3.35535 15.4852 2.68313Z" fill="#BBBDBF"/>
</g>
<path d="M28.3272 35.2379C28.1259 37.2626 27.7911 40.1343 26.8269 41.4626" stroke="#243645" stroke-width="0.3528" stroke-miterlimit="10" stroke-linecap="round" stroke-linejoin="round"/>
<path d="M35.1256 37.4615C35.0224 39.2028 34.6521 41.8455 33.6132 43.3185" stroke="#243645" stroke-width="0.3528" stroke-miterlimit="10" stroke-linecap="round" stroke-linejoin="round"/>
<path d="M20.2076 32.3058C19.7736 34.7164 19.0392 37.8554 18.2936 40.7392" stroke="#243645" stroke-width="0.3528" stroke-miterlimit="10" stroke-linecap="round" stroke-linejoin="round"/>
<path d="M41.0722 38.1086C40.3387 37.0335 38.9942 36.5381 37.6224 36.6225C37.6436 36.8727 37.6659 37.1229 37.6801 37.3751C37.846 40.4006 37.504 43.5205 36.3103 46.3701C35.0922 49.273 33.0284 51.6805 30.3425 53.4611C28.1108 54.9391 25.4521 55.7942 22.8035 56.1871C19.9658 56.6091 17.0179 56.5348 14.2722 55.7771C12.4138 55.2647 10.6686 54.4166 9.2422 53.2038C9.99488 54.6678 11.1411 55.9078 12.6303 56.8452C19.8151 61.3679 31.5221 62.3013 36.7018 54.1624C38.1201 51.9327 39.2279 49.5262 40.0322 47.0413C40.7049 44.9614 41.4465 42.8402 41.5183 40.6558C41.5355 40.1534 41.5638 39.6801 41.4981 39.2239C41.4414 38.8441 41.321 38.4734 41.0722 38.1086Z" fill="#ECD3D5"/>
</svg>
