<svg width="73" height="73" viewBox="0 0 73 73" fill="none" xmlns="http://www.w3.org/2000/svg">
<path opacity="0.66" d="M1.94681 48.1862C2.55284 49.2249 3.517 50.0105 4.66173 50.3983C5.89319 50.8144 7.23375 50.7374 8.39991 50.1948C7.85917 50.7162 7.36646 51.2659 6.92469 51.8429C5.25554 54.0216 5.68301 57.1418 7.87147 58.792C8.30202 59.117 8.78047 59.37 9.29264 59.5442C11.3352 60.2356 13.5849 59.5543 14.8868 57.8505C15.3061 57.3048 15.9203 56.7855 16.7049 56.3076C20.1901 59.8297 24.5415 62.5267 29.453 64.189C34.3645 65.8504 39.471 66.3525 44.3999 65.6783C44.7253 66.5307 44.8906 67.3133 44.8876 67.9987C44.8692 70.1399 46.2302 72.0431 48.2738 72.7346C48.786 72.9077 49.3196 72.9968 49.8521 72.9999C51.1897 73.01 52.4497 72.5017 53.4016 71.5693C54.3505 70.6389 54.879 69.3968 54.8882 68.0716C54.8943 67.3467 54.8422 66.6147 54.7361 65.8736C55.3258 67.0116 56.339 67.8833 57.5705 68.3004C58.7142 68.6881 59.9619 68.6507 61.0791 68.1951C63.6298 67.1584 64.8561 64.2538 63.8124 61.7208C63.744 61.5558 63.6726 61.3908 63.5991 61.2268C65.1765 61.3027 66.7375 60.6325 67.7527 59.3711C68.5872 58.3354 68.9657 57.0375 68.8168 55.7194C68.6678 54.4013 68.0118 53.2208 66.967 52.3947C66.3886 51.9341 65.7988 51.4957 65.203 51.0796C65.5019 50.4216 65.7693 49.7504 66.003 49.068C66.7467 46.9056 67.1599 44.656 67.2364 42.3599C75.2955 31.6569 71.7082 18.7308 71.547 18.1679C71.0981 16.6027 69.9033 15.3554 68.3505 14.83C67.6557 14.5951 66.9334 14.5142 66.205 14.5931C61.6505 15.077 57.45 16.3678 53.6781 18.4402C51.4142 16.9884 48.9686 15.8161 46.3761 14.9384C43.7836 14.0616 41.1249 13.5078 38.4406 13.2831C36.7296 9.35603 34.1983 5.78736 30.8926 2.64491C30.3621 2.14074 29.7418 1.76716 29.047 1.53127C27.4952 1.00584 25.7822 1.26908 24.4609 2.23591C23.9834 2.58518 13.1891 10.6529 12.9789 23.9992C11.627 25.865 10.5691 27.8969 9.82531 30.0584C9.59167 30.7407 9.38865 31.4332 9.21928 32.1358C8.49184 32.1044 7.75522 32.0943 7.01349 32.1074C5.67797 32.1287 4.43117 32.6663 3.50273 33.619C2.57327 34.5726 2.07429 35.83 2.09775 37.1512C2.12326 38.7679 2.94666 40.2471 4.24239 41.142C4.08425 41.2271 3.9251 41.3161 3.769 41.4052C1.38261 42.778 0.566393 45.8192 1.94681 48.1862Z" fill="#075C54"/>
<path d="M2.96707 39.8775C2.80893 39.9626 2.64978 40.0516 2.49368 40.1407C0.107289 41.5125 -0.708931 44.5537 0.671483 46.9207C1.27752 47.9594 2.24168 48.745 3.38641 49.1328C4.61786 49.5489 5.95843 49.4719 7.12459 48.9293C6.58385 49.4507 6.09114 50.0004 5.64937 50.5774C3.98022 52.7561 4.40769 55.8763 6.59615 57.5265C7.0267 57.8515 7.50514 58.1045 8.01731 58.2787C10.0599 58.9701 12.3096 58.2888 13.6114 56.585C14.0308 56.0393 14.6449 55.52 15.4295 55.0421C18.9147 58.5642 23.2661 61.2612 28.1777 62.9235C33.0892 64.5849 38.1957 65.087 43.1245 64.4128C43.45 65.2652 43.6153 66.0478 43.6123 66.7332C43.5939 68.8744 44.9549 70.7776 46.9985 71.4691C47.5106 71.6422 48.0442 71.7313 48.5768 71.7344C49.9144 71.7445 51.1744 71.2362 52.1263 70.3038C53.0751 69.3734 53.6037 68.1313 53.6129 66.8061C53.619 66.0812 53.5669 65.3492 53.4608 64.6082C54.0505 65.7461 55.0637 66.6178 56.2952 67.0349C57.4389 67.4226 58.6866 67.3852 59.8038 66.9296C62.3544 65.8929 63.5808 62.9883 62.537 60.4553C62.4687 60.2903 62.3973 60.1253 62.3238 59.9613C63.9011 60.0372 65.4622 59.367 66.4773 58.1056C67.3119 57.0699 67.6904 55.772 67.5414 54.4539C67.3925 53.1358 66.7365 51.9553 65.6917 51.1292C65.1132 50.6686 64.5235 50.2302 63.9277 49.8141C64.2266 49.1561 64.494 48.4849 64.7276 47.8025C65.4714 45.6401 65.8836 43.3905 65.9611 41.0944C74.0201 30.3914 70.4329 17.4653 70.2717 16.9024C69.8228 15.3372 68.628 14.0899 67.0751 13.5645C66.3804 13.3296 65.6581 13.2487 64.9296 13.3276C60.3752 13.8115 56.1747 15.1023 52.4028 17.1747C50.1388 15.7229 47.6933 14.5506 45.1008 13.6729C42.5083 12.7961 39.8496 12.2423 37.1653 12.0176C35.4543 8.09053 32.924 4.52186 29.6173 1.37941C29.0867 0.875238 28.4665 0.501661 27.7717 0.265774C26.2199 -0.259656 24.5068 0.00357973 23.1856 0.970411C22.7081 1.31969 11.9137 9.38739 11.7036 22.7337C10.3517 24.5995 9.29376 26.6314 8.54999 28.7929C8.31635 29.4752 8.11332 30.1677 7.94396 30.8703C7.21651 30.8389 6.4799 30.8288 5.73817 30.8419C4.40264 30.8632 3.15584 31.4008 2.22741 32.3535C1.29795 33.3071 0.798964 34.5645 0.82243 35.8857C0.848957 37.5024 1.67134 38.9816 2.96707 39.8775Z" fill="white"/>
<path d="M34.5738 25.5615C34.5738 25.5615 36.1521 14.4606 26.1576 4.96239C26.1576 4.96239 15.5154 12.7568 16.8131 25.2648L34.5738 25.5615Z" fill="#FBDEE5"/>
<path d="M20.286 21.8195C20.7217 16.3587 23.7508 12.222 25.9515 9.89457C29.6928 14.4635 30.7805 19.0769 31.0591 21.9997L20.286 21.8195Z" fill="#F2B4C6"/>
<path d="M16.5274 26.0939C16.2081 25.9866 15.9703 25.7022 15.9346 25.3549C14.6001 12.4976 25.1813 4.58776 25.6333 4.25772C25.9791 4.00462 26.4596 4.03602 26.7677 4.32962C36.9724 14.0263 35.5134 25.2121 35.4471 25.6839C35.3848 26.1213 35.0033 26.4442 34.5584 26.4372L16.7978 26.1405C16.7029 26.1385 16.6121 26.1233 16.5274 26.0939ZM26.1026 6.13673C24.009 7.91854 17.0049 14.6428 17.6252 24.4033L33.7586 24.6726C33.8709 22.1193 33.6086 13.6547 26.1026 6.13673Z" fill="#111D32"/>
<path d="M46.117 29.4672C46.117 29.4672 51.703 19.7209 65.4622 18.2611C65.4622 18.2611 69.0893 30.8845 60.3609 40.0001L46.117 29.4672Z" fill="#FBDEE5"/>
<path d="M51.0929 28.7777C53.112 26.6315 56.8135 23.6389 62.5912 22.2914C62.9004 25.4642 62.7524 30.5788 59.7325 35.1669L51.0929 28.7777Z" fill="#F2B4C6"/>
<path d="M60.0762 40.8292C59.9915 40.8009 59.9089 40.7584 59.8344 40.7017L45.5905 30.1698C45.2324 29.9056 45.1304 29.4196 45.3508 29.0349C45.5875 28.6208 51.3213 18.8817 65.3693 17.3914C65.7957 17.3459 66.1947 17.6121 66.3121 18.0222C66.4651 18.5557 69.9737 31.2328 61.0015 40.6035C60.7577 40.8566 60.3945 40.9376 60.0762 40.8292ZM47.3107 29.2566L60.2487 38.8237C66.7651 31.4586 65.3489 21.8996 64.7847 19.2239C54.2137 20.625 48.7931 27.167 47.3107 29.2566Z" fill="#111D32"/>
<path d="M29.8252 58.188C42.7243 62.5519 56.2465 57.1678 60.0279 46.1622C63.8093 35.1567 56.418 22.6973 43.5189 18.3334C30.6198 13.9695 17.0975 19.3537 13.3161 30.3592C9.53472 41.3647 16.9261 53.8241 29.8252 58.188Z" fill="#FBDEE5"/>
<path d="M29.5072 59.0531C16.1693 54.5409 8.51735 41.558 12.4494 30.1119C16.3815 18.6658 30.4345 13.0268 43.7724 17.5401C57.1113 22.0533 64.7632 35.0362 60.8311 46.4823C56.897 57.9273 42.8461 63.5673 29.5072 59.0531ZM43.2031 19.1984C30.7855 14.9969 17.7394 20.147 14.1206 30.6779C10.5017 41.2087 17.6599 53.1944 30.0775 57.3968C42.4951 61.5993 55.5411 56.4482 59.161 45.9174C62.7789 35.3855 55.6197 23.3998 43.2031 19.1984Z" fill="#111D32"/>
<path d="M5.5382 36.6329C5.19642 36.5185 4.94741 36.1976 4.94027 35.8189C4.93211 35.335 5.3209 34.9361 5.80859 34.928C16.1765 34.7519 20.9441 39.4281 21.141 39.6275C21.4838 39.9727 21.4798 40.5265 21.1329 40.8667C20.786 41.2058 20.2289 41.2028 19.8861 40.8606C19.8433 40.8171 15.3959 36.5185 5.83711 36.6804C5.73304 36.6804 5.63207 36.6653 5.5382 36.6329Z" fill="#111D32"/>
<path d="M4.7158 45.2634C4.52195 45.1986 4.34851 45.0639 4.23731 44.8736C3.99346 44.4545 4.13636 43.9189 4.55875 43.676C11.7138 39.5646 20.5523 43.4158 20.9247 43.5818C21.3695 43.7792 21.5685 44.2975 21.3695 44.7389C21.1706 45.1803 20.6513 45.3838 20.2034 45.1814C20.1187 45.1449 11.8066 41.5358 5.44326 45.1925C5.2137 45.3251 4.94842 45.3423 4.7158 45.2634Z" fill="#111D32"/>
<path d="M9.34573 54.4094C9.25799 54.3801 9.17341 54.3365 9.09689 54.2778C8.70817 53.9842 8.63365 53.4355 8.92851 53.0498C12.7555 48.0587 21.0502 47.0605 21.4012 47.02C21.8868 46.9653 22.3225 47.3096 22.3786 47.7894C22.4357 48.2703 22.0878 48.7036 21.6032 48.7603C21.5256 48.7694 13.7012 49.718 10.3334 54.1098C10.0967 54.4185 9.69568 54.5279 9.34573 54.4094Z" fill="#111D32"/>
<path d="M62.2882 55.8337C62.1934 55.8023 62.1035 55.7537 62.0218 55.6889C54.5525 49.7664 48.3871 50.4731 48.3259 50.4812C47.8443 50.5429 47.4006 50.2058 47.3363 49.727C47.272 49.2481 47.6097 48.8097 48.0913 48.7439C48.3698 48.7065 55.0208 47.8955 63.1217 54.3201C63.5033 54.6208 63.5666 55.1725 63.2615 55.5502C63.0228 55.8478 62.63 55.9501 62.2882 55.8337Z" fill="#111D32"/>
<path d="M57.6246 63.1656C57.3909 63.0876 57.192 62.9124 57.092 62.6684C54.2986 55.8976 45.5048 53.7321 45.4151 53.7119C44.9406 53.5964 44.6489 53.1267 44.7632 52.6549C44.8765 52.1852 45.3529 51.8956 45.8263 52.008C46.2242 52.1032 55.5922 54.4124 58.7264 62.0043C58.9111 62.4518 58.6958 62.9631 58.2438 63.1463C58.0387 63.2304 57.8194 63.2314 57.6246 63.1656Z" fill="#111D32"/>
<path d="M48.3279 67.5997C47.9779 67.4812 47.727 67.1522 47.7301 66.7654C47.7678 61.2327 42.1595 55.7517 42.1013 55.696C41.7524 55.3599 41.7442 54.8051 42.085 54.4578C42.4258 54.1116 42.9837 54.1035 43.3327 54.4407C43.5857 54.6847 49.5379 60.5049 49.4951 66.7766C49.491 67.2605 49.0931 67.6493 48.6065 67.6452C48.5096 67.6452 48.4156 67.629 48.3279 67.5997Z" fill="#111D32"/>
<path d="M48.837 45.6826C48.3769 45.5267 48.1301 45.0285 48.2872 44.5709C49.0432 42.369 47.8536 39.9676 45.6355 39.2164C43.4165 38.4662 40.9953 39.6467 40.2393 41.8486C40.0822 42.3062 39.5802 42.5502 39.118 42.3943C38.6579 42.2384 38.4111 41.7403 38.5682 41.2827C39.6384 38.1666 43.0635 36.4951 46.2038 37.5581C49.3442 38.6211 51.0286 42.0197 49.9573 45.1359C49.8002 45.5945 49.2982 45.8385 48.837 45.6826Z" fill="#111D32"/>
<path d="M32.1538 40.0374C31.6926 39.8815 31.4467 39.3844 31.6038 38.9258C32.3598 36.7239 31.1702 34.3225 28.9511 33.5713C26.7331 32.8221 24.3121 34.0015 23.556 36.2035C23.3989 36.6611 22.897 36.9051 22.4348 36.7502C21.9746 36.5943 21.7277 36.0962 21.8848 35.6376C22.955 32.5224 26.3811 30.851 29.5204 31.914C32.6598 32.976 34.3442 36.3746 33.2729 39.4907C33.1168 39.9493 32.616 40.1933 32.1538 40.0374Z" fill="#111D32"/>
<path d="M35.3655 53.7108C33.6045 53.1145 32.7791 51.7822 32.4527 50.4833C31.3579 51.3418 29.8224 51.9066 27.9727 51.2051C24.1947 49.7654 24.6915 47.1555 24.716 47.0451C24.815 46.5713 25.2822 46.2666 25.7577 46.3648C26.2341 46.4661 26.5433 46.9267 26.4433 47.4005C26.4402 47.4289 26.2862 48.6863 28.6052 49.5691C30.96 50.4833 32.374 47.9705 32.4332 47.8632C32.6403 47.4917 33.0872 47.3195 33.4912 47.4562C33.4933 47.4562 33.4933 47.4572 33.4953 47.4572C33.9004 47.5969 34.1473 48.0039 34.0789 48.423C34.0606 48.5405 33.6402 51.3752 36.0603 52.0919C38.4406 52.7986 39.0925 51.7102 39.118 51.6637C39.3526 51.2506 39.8791 51.0876 40.3035 51.3053C40.7259 51.525 40.9025 52.0251 40.6943 52.4513C40.6443 52.5536 39.4313 54.9205 35.5543 53.7695C35.49 53.7512 35.4267 53.73 35.3655 53.7108Z" fill="#111D32"/>
<path d="M34.4891 44.5539C34.4891 44.5539 31.5915 43.4888 30.9467 45.3648C30.4671 46.7589 31.7875 48.16 32.4986 48.7877C32.7669 49.0246 33.1015 49.139 33.4586 49.1137C34.4084 49.0469 36.3164 48.7371 36.7949 47.344C37.4397 45.4671 34.4891 44.5539 34.4891 44.5539Z" fill="#111D32"/>
<path d="M24.5009 45.8589C25.9431 46.3466 27.4277 45.8235 27.8169 44.6905C28.2061 43.5574 27.3524 42.2435 25.9103 41.7557C24.4682 41.268 22.9836 41.7912 22.5945 42.9242C22.2053 44.0573 23.0588 45.3711 24.5009 45.8589Z" fill="#F2B4C6"/>
<path d="M41.5653 51.5575C43.0074 52.0453 44.4919 51.5227 44.881 50.3902C45.2701 49.2577 44.4165 47.9442 42.9744 47.4563C41.5323 46.9684 40.0478 47.4909 39.6587 48.6235C39.2696 49.756 40.1232 51.0696 41.5653 51.5575Z" fill="#F2B4C6"/>
</svg>
