<svg width="65" height="58" viewBox="0 0 65 58" fill="none" xmlns="http://www.w3.org/2000/svg">
<path d="M25.8674 8.35359C25.7207 8.38148 25.572 8.41124 25.4243 8.44285C25.5324 8.4196 25.682 8.38799 25.8674 8.35359ZM25.8684 7.32904C25.8346 7.32904 25.7998 7.33089 25.7661 7.33368C25.7236 7.3374 25.683 7.34391 25.6425 7.35228C25.4822 7.38203 25.3306 7.41364 25.1887 7.44432C24.6171 7.56984 24.257 8.11652 24.3864 8.66784C24.4974 9.14386 24.9367 9.46741 25.4233 9.46741C25.4995 9.46741 25.5768 9.45904 25.654 9.44324C25.7824 9.41627 25.9128 9.38931 26.0557 9.36234C26.1542 9.34561 26.2449 9.31586 26.3318 9.27496C26.4496 9.2201 26.5539 9.14479 26.6417 9.05554C26.7972 8.89563 26.9015 8.68736 26.9247 8.45679C26.9285 8.42332 26.9304 8.38986 26.9304 8.35639C26.9304 8.35546 26.9304 8.35452 26.9304 8.35452C26.9304 7.85526 26.5607 7.4406 26.0702 7.34856C26.0055 7.33554 25.937 7.32904 25.8684 7.32904Z" fill="#51332A"/>
<path d="M30.1281 7.96497C31.364 7.96497 32.7436 8.06538 34.1552 8.35266C32.9116 8.13418 31.474 7.97705 29.9157 7.97705C29.4687 7.97705 29.0101 7.99007 28.5447 8.01796C29.0371 7.98542 29.5672 7.96497 30.1281 7.96497ZM30.1281 6.94134C29.5826 6.94134 29.0245 6.96086 28.4703 6.99805C27.8872 7.0371 27.444 7.52428 27.4836 8.08769C27.5213 8.62879 27.9886 9.04345 28.5438 9.04345C28.566 9.04345 28.5891 9.04345 28.6123 9.04159C29.041 9.01556 29.4793 9.00254 29.9167 9.00254C31.2442 9.00254 32.6056 9.1234 33.965 9.36234C34.0278 9.3735 34.0934 9.37908 34.1552 9.37908C34.6543 9.37908 35.0985 9.04066 35.1979 8.55256C35.3099 8.00402 34.943 7.46942 34.3753 7.35321C33.041 7.07894 31.6111 6.94134 30.1281 6.94134Z" fill="#51332A"/>
<path d="M43.1034 11.5686C44.9378 12.5457 46.4527 13.7804 47.5707 14.8542C46.081 13.4429 44.5053 12.3663 43.1034 11.5686ZM43.1053 10.545C42.7355 10.545 42.3774 10.7309 42.1814 11.061C41.8927 11.5472 42.0626 12.1655 42.5627 12.4509C44.1509 13.3546 45.5847 14.4089 46.8244 15.585C47.032 15.7812 47.3014 15.8788 47.5707 15.8788C47.844 15.8788 48.1172 15.7784 48.3248 15.5757C48.738 15.175 48.7361 14.5288 48.3209 14.13C46.8447 12.7122 45.2622 11.5491 43.619 10.6733C43.4558 10.5859 43.2791 10.545 43.1053 10.545Z" fill="#51332A"/>
<path d="M49.3656 16.7964C49.4824 16.9396 49.5751 17.0567 49.6389 17.1432C49.5491 17.0261 49.4583 16.9108 49.3656 16.7964ZM49.3656 15.7728C49.1378 15.7728 48.907 15.8435 48.712 15.9894C48.2495 16.3362 48.1664 16.9787 48.5266 17.4249C48.6212 17.5411 48.7062 17.649 48.7853 17.7531C48.9948 18.0246 49.3154 18.1678 49.6417 18.1678C49.8609 18.1678 50.081 18.1027 50.2712 17.9679C50.7424 17.6322 50.8447 16.9926 50.4972 16.537C50.4083 16.4208 50.3098 16.2953 50.2036 16.1661C49.9932 15.9076 49.6804 15.7728 49.3656 15.7728Z" fill="#51332A"/>
<path d="M22.298 1.02363C24.2232 1.02363 26.1426 1.31928 28.0002 1.90315C29.4755 2.36709 30.916 3.01138 32.2793 3.82117C33.7478 4.69233 34.8253 5.57464 35.4509 6.14177C37.6175 6.59083 39.1487 7.17562 39.6334 7.37272C40.1316 7.52892 41.6861 8.05329 43.6277 9.07971C43.8314 9.07227 44.065 9.06669 44.3257 9.06669C46.0954 9.06669 48.8249 9.30376 51.7764 10.4334C53.4603 11.0777 55.0234 11.9442 56.4195 13.0078C58.054 14.2536 59.4801 15.7849 60.6551 17.5588C62.1053 19.7464 63.0891 22.2855 63.5796 25.1091C64.0005 27.5273 64.0507 29.6833 63.7321 31.5177C63.091 35.1873 61.0616 36.8878 59.4714 37.6678C58.4451 38.1717 57.3154 38.4265 56.1153 38.4265C55.9357 38.4265 55.7562 38.4209 55.5756 38.4088C55.3159 39.4678 54.9403 40.4784 54.4479 41.4323C53.5104 43.2546 52.1742 44.8323 50.4614 46.1395C51.0475 47.9069 51.0224 49.7756 50.3562 51.4984C49.7035 53.1794 48.5005 54.5851 46.8756 55.5641C45.3521 56.4818 43.5504 56.9661 41.6648 56.9661C40.3836 56.9661 39.1121 56.743 37.8869 56.3033C34.4835 55.0797 32.0505 52.3696 31.3901 49.2959C30.6573 49.1871 29.9322 49.0607 29.2254 48.9184C28.3198 49.2597 27.3774 49.4326 26.4139 49.4326C24.9618 49.4326 23.8776 49.0319 23.4402 48.8394C23.361 48.8097 23.2809 48.7781 23.1959 48.7427C23.1535 48.7251 23.111 48.7065 23.0685 48.6879L23.0482 48.6786C23.0395 48.6749 23.0308 48.6711 23.024 48.6674L23.0183 48.6656C22.971 48.6451 22.9236 48.6246 22.8783 48.6033C22.8049 48.5689 22.7267 48.5317 22.6427 48.4889C22.6389 48.488 22.6369 48.4861 22.634 48.4852L22.6128 48.475C21.1964 47.7609 20.0503 46.6862 19.2731 45.3492C18.66 45.021 18.046 44.6715 17.4358 44.3033L17.4097 44.2875C17.3527 44.2531 17.2967 44.2196 17.2388 44.1852C16.7425 44.532 16.2048 44.8323 15.6361 45.0796C14.3761 45.6272 12.953 45.9173 11.5212 45.9173C10.24 45.9173 8.96841 45.6942 7.74417 45.2544C5.31306 44.3814 3.32995 42.7423 2.15688 40.642C1.56696 39.584 1.21168 38.4646 1.10258 37.3127C0.985753 36.0919 1.14987 34.8963 1.5911 33.7593C2.24281 32.0774 3.46028 30.6698 5.05624 29.7038C4.6797 27.6817 4.75213 25.6902 5.27157 23.7629C5.54963 22.7318 5.95319 21.7305 6.47649 20.7673C6.2467 20.5999 6.02659 20.4214 5.81707 20.2318C5.03116 19.5177 4.43059 18.6828 4.0386 17.7503C3.36758 16.1577 2.99012 13.5917 5.0022 10.4148C6.00921 8.82775 7.51437 7.2314 9.47721 5.66947C11.7683 3.84627 14.24 2.54745 16.8217 1.80925C18.6397 1.28768 20.4819 1.02363 22.298 1.02363ZM11.5193 43.5028C13.71 43.5028 15.7317 42.6335 16.9762 41.1199C17.3286 41.357 17.6946 41.595 18.0721 41.8321C18.103 41.8516 18.1348 41.8721 18.1676 41.8925C18.2526 41.9455 18.3385 41.9985 18.4254 42.0515C18.4766 42.0831 18.5268 42.1138 18.578 42.1454C18.6388 42.1826 18.7006 42.2198 18.7624 42.257C19.5261 42.7172 20.3284 43.1672 21.1674 43.5939C21.1684 43.5948 21.1684 43.5958 21.1684 43.5967C21.1722 43.6069 21.1964 43.6646 21.2408 43.7585C21.2437 43.764 21.2456 43.7696 21.2495 43.7752C21.2688 43.8142 21.2891 43.8561 21.3132 43.9044C21.8317 44.9216 22.6765 45.7843 23.7723 46.3366C23.78 46.3394 23.7868 46.3431 23.7926 46.3468C23.8476 46.3738 23.9017 46.4007 23.9577 46.4268C23.9934 46.4435 24.0301 46.4593 24.0658 46.4751C24.0678 46.4761 24.0716 46.477 24.0736 46.4779C24.0736 46.4779 24.0736 46.4779 24.0736 46.4788C24.1093 46.4937 24.144 46.5095 24.1798 46.5244C24.2599 46.5579 24.341 46.5895 24.424 46.6192C24.424 46.6192 25.2206 47.0199 26.412 47.0199C27.138 47.0199 28.0127 46.8712 28.9425 46.3905L28.9445 46.3896C29.9061 46.6044 30.8552 46.7764 31.7772 46.913C31.8023 46.9168 31.8284 46.9214 31.8535 46.9251C31.9394 46.9381 32.0244 46.9493 32.1103 46.9614C32.1885 46.9725 32.2667 46.9828 32.3449 46.9939C32.3961 47.0004 32.4463 47.0079 32.4975 47.0144C32.9165 47.0692 33.3288 47.1176 33.7333 47.1594C33.4968 49.9914 35.4992 52.8726 38.7616 54.044C39.7271 54.3908 40.7119 54.5554 41.6629 54.5554C44.5033 54.5554 47.0629 53.0929 48.0052 50.658C48.6994 48.8673 48.3759 46.9242 47.3023 45.3083C47.3738 45.2683 47.4442 45.2265 47.5157 45.1847C52.1954 42.4159 53.3425 38.3484 53.4834 35.4291C53.7605 35.5443 54.027 35.6401 54.2751 35.7201C54.8699 35.9125 55.4955 36.0148 56.1134 36.0148C56.881 36.0148 57.6389 35.8577 58.3312 35.5183C61.8542 33.79 61.6872 28.8512 61.105 25.5089C60.6956 23.1539 59.874 20.8714 58.5407 18.8576C54.137 12.212 47.172 11.4821 44.3238 11.4821C43.5427 11.4821 43.0715 11.537 43.0474 11.5398C40.6337 10.174 38.7538 9.63847 38.7538 9.63847C38.7538 9.63847 36.9687 8.8575 34.217 8.36753C34.1533 8.29873 29.5778 3.44092 22.297 3.43999C22.2961 3.43999 22.2961 3.43999 22.2951 3.43999C20.815 3.43999 19.2229 3.64081 17.5323 4.12427C15.1553 4.8039 12.982 6.00975 11.0712 7.53171C8.35724 9.69053 4.87085 13.3155 6.35675 16.8448C6.88487 18.098 7.98652 19.0408 9.2851 19.5559C9.52744 19.6525 9.79393 19.7474 10.0816 19.8357C8.2028 22.1303 6.3017 25.9263 7.95366 30.971C7.96235 30.9952 7.97104 31.0194 7.97877 31.0445C6.12599 31.607 4.61404 32.8546 3.93529 34.6062C2.67533 37.8584 4.77044 41.6145 8.61697 42.9961C9.58343 43.3382 10.5663 43.5028 11.5193 43.5028ZM22.298 0C20.3805 0 18.436 0.277988 16.5186 0.826526C13.7978 1.60378 11.1996 2.96769 8.79847 4.8792C6.7439 6.51366 5.16051 8.19647 4.09364 9.8802C1.84983 13.4206 2.28911 16.3232 3.05089 18.1334C3.50274 19.2035 4.18632 20.1592 5.08712 20.9755C5.10836 20.9951 5.13056 21.0146 5.15277 21.035C4.7714 21.8374 4.46635 22.6639 4.24043 23.5035C3.73837 25.3583 3.62541 27.2781 3.89864 29.2194C2.37702 30.2895 1.24156 31.7232 0.591781 33.3985C0.0945528 34.6816 -0.0898408 36.0287 0.0405007 37.4038C0.164084 38.6933 0.559001 39.9438 1.21843 41.1236C2.51316 43.4442 4.69802 45.2507 7.3705 46.2111C8.71447 46.6945 10.1106 46.9391 11.5193 46.9391C13.1008 46.9391 14.6754 46.6183 16.0715 46.0103C16.4809 45.8327 16.8787 45.6281 17.2591 45.4004C17.6704 45.643 18.0846 45.8782 18.4978 46.1032C19.3706 47.4941 20.6152 48.6228 22.1184 49.3796L22.1378 49.3898L22.1532 49.3973C22.2468 49.4437 22.3347 49.4856 22.4187 49.5256C22.4698 49.5488 22.5229 49.573 22.577 49.5962L22.579 49.5971C22.5896 49.6018 22.5992 49.6064 22.6108 49.6111L22.6292 49.6185C22.6774 49.6399 22.7267 49.6613 22.7769 49.6817C22.8619 49.7171 22.9439 49.7496 23.024 49.7794C23.6159 50.0369 24.8208 50.4534 26.4129 50.4534C27.3987 50.4534 28.3719 50.2935 29.3085 49.9774C29.7091 50.0546 30.1166 50.128 30.5259 50.195C30.9537 51.6351 31.7367 52.9972 32.8113 54.1686C34.0703 55.5372 35.6961 56.6054 37.5142 57.259C38.8591 57.7425 40.2552 57.987 41.6639 57.987C43.7493 57.987 45.7469 57.4477 47.4384 56.4288C49.2652 55.3298 50.6178 53.7474 51.3516 51.8536C52.0159 50.1382 52.1249 48.3011 51.6721 46.5012C53.2449 45.1884 54.4981 43.6385 55.4009 41.8841C55.8015 41.1078 56.1318 40.2897 56.3896 39.4436C57.6573 39.4064 58.8544 39.1154 59.9512 38.5771C61.7596 37.6901 64.0662 35.774 64.7787 31.6832C65.1186 29.7373 65.0664 27.4669 64.6261 24.9371C64.1115 21.9778 63.0775 19.3095 61.5501 17.0047C60.3104 15.135 58.8052 13.5191 57.077 12.2017C55.5988 11.0768 53.9478 10.161 52.1665 9.47949C49.0586 8.29037 46.1862 8.0412 44.3238 8.0412C44.1751 8.0412 44.0264 8.04213 43.8806 8.04584C42.0568 7.10496 40.6008 6.5992 40.0032 6.41046C39.4239 6.1771 37.9795 5.63972 35.9597 5.19996C35.2684 4.59564 34.2141 3.76632 32.8344 2.94724C31.4007 2.09561 29.8829 1.4169 28.3285 0.928796C26.3656 0.312388 24.3361 0 22.298 0ZM11.5193 42.4782C10.6648 42.4782 9.8132 42.3285 8.98963 42.032C5.7002 40.8503 3.88026 37.6771 4.93361 34.9595C5.46849 33.577 6.69563 32.5041 8.30028 32.016C8.56965 31.9342 8.79461 31.752 8.92399 31.5103C9.05336 31.2685 9.07847 30.9868 8.99158 30.7265L8.97808 30.6875L8.96842 30.6586C7.45839 26.0453 9.19336 22.5691 10.9177 20.466C11.134 20.2029 11.2016 19.8534 11.0992 19.5326C10.9969 19.2119 10.7372 18.959 10.405 18.8567C10.1637 18.7833 9.92328 18.6986 9.69059 18.6057C8.58897 18.1696 7.73547 17.3859 7.34251 16.4571C6.80763 15.188 7.03838 13.7971 8.04636 12.2054C8.8342 10.9624 10.1155 9.61895 11.7481 8.31919C13.6665 6.79165 15.7143 5.71038 17.8355 5.1042C19.3253 4.67838 20.8266 4.46269 22.2951 4.46269C25.1124 4.46269 27.8342 5.22785 30.385 6.73679C32.316 7.8785 33.4176 9.04065 33.4282 9.05274C33.5846 9.21916 33.7941 9.33259 34.0239 9.37349C36.5969 9.83185 38.2991 10.5635 38.3155 10.571C38.359 10.5905 38.4063 10.6072 38.4516 10.6203C38.469 10.6249 40.2513 11.1456 42.5077 12.4221C42.6718 12.515 42.8582 12.5634 43.0474 12.5634C43.0909 12.5634 43.1343 12.5615 43.1778 12.5559C43.1816 12.5559 43.6113 12.5057 44.3248 12.5057C46.9538 12.5057 53.5162 13.1789 57.6456 19.409C58.8332 21.2043 59.6461 23.3138 60.0574 25.6781C60.4069 27.691 60.4601 29.5132 60.21 30.9487C59.8895 32.7877 59.1171 33.9833 57.8494 34.6053C57.329 34.8601 56.7448 34.9902 56.1144 34.9902C55.6162 34.9902 55.1112 34.9093 54.613 34.7485C54.3755 34.6713 54.1361 34.5839 53.9024 34.4872C53.7682 34.4315 53.6254 34.4045 53.4834 34.4045C53.2855 34.4045 53.0914 34.4575 52.9186 34.5607C52.6232 34.7392 52.4369 35.0451 52.4195 35.3807C52.2911 38.0565 51.2396 41.7781 46.9596 44.3117C46.8939 44.3507 46.8283 44.3888 46.7616 44.426C46.5135 44.5673 46.3359 44.7998 46.2683 45.0694C46.2026 45.3399 46.2509 45.6244 46.4073 45.8587C47.34 47.2626 47.5592 48.8803 47.0098 50.2982C46.2499 52.2617 44.1509 53.5299 41.6629 53.5299C40.8094 53.5299 39.9578 53.3793 39.1333 53.0836C36.3739 52.0916 34.5897 49.6892 34.7944 47.2403C34.8398 46.6871 34.4198 46.199 33.8472 46.1404C33.4485 46.0995 33.043 46.0512 32.6433 45.9991C32.5921 45.9926 32.5428 45.9861 32.4926 45.9796C32.4173 45.9694 32.3411 45.9591 32.2648 45.948C32.1818 45.9359 32.0978 45.9247 32.0147 45.9117L31.9722 45.9052L31.9414 45.9006C30.9981 45.7611 30.0712 45.59 29.1868 45.392C29.1066 45.3743 29.0265 45.366 28.9454 45.366C28.7851 45.366 28.6249 45.4013 28.4781 45.4701C28.4742 45.472 28.4704 45.4738 28.4675 45.4747C28.4578 45.4794 28.4491 45.484 28.4404 45.4887C27.7878 45.8252 27.1071 45.9963 26.4129 45.9963C25.5227 45.9963 24.9242 45.7155 24.9184 45.7127C24.8798 45.6932 24.8392 45.6756 24.7986 45.6607C24.7368 45.6384 24.6721 45.6133 24.6007 45.5835C24.5804 45.5751 24.5631 45.5677 24.5438 45.5593L24.5196 45.5482C24.5177 45.5482 24.5167 45.5473 24.5167 45.5473C24.5129 45.5463 24.508 45.5445 24.5051 45.5426L24.4926 45.537C24.4684 45.5259 24.4434 45.5156 24.4202 45.5045C24.3767 45.485 24.3323 45.4636 24.2821 45.4385L24.2686 45.432C24.2676 45.431 24.2666 45.431 24.2657 45.4301C23.3938 44.9913 22.7035 44.3079 22.2671 43.4535C22.2661 43.4507 22.2642 43.447 22.2623 43.4442C22.243 43.407 22.2265 43.3745 22.2121 43.3447L22.2082 43.3373C22.2082 43.3364 22.2063 43.3336 22.2063 43.3326C22.1783 43.275 22.1648 43.2415 22.1619 43.236C22.157 43.222 22.1512 43.209 22.1445 43.196C22.1445 43.1951 22.1445 43.1941 22.1435 43.1932C22.047 42.9784 21.878 42.8008 21.6627 42.6911C20.8894 42.2979 20.1035 41.86 19.3243 41.3923L19.2982 41.3756C19.2461 41.3449 19.1949 41.3142 19.1437 41.2835C19.0993 41.2566 19.0549 41.2278 19.0086 41.2008L18.996 41.1934C18.911 41.1404 18.8271 41.0892 18.744 41.0381L18.6513 40.9795C18.2873 40.7508 17.9282 40.5174 17.5816 40.285C17.3972 40.1614 17.1857 40.1009 16.9743 40.1009C16.6595 40.1009 16.3486 40.2348 16.1401 40.4896C15.1147 41.7326 13.3875 42.4782 11.5193 42.4782Z" fill="#51332A"/>
<path d="M53.1648 31.818C55.5331 14.4163 38.7538 9.63569 38.7538 9.63569C38.7538 9.63569 22.8251 2.6646 12.7782 17.3069C12.7782 17.3069 5.1132 22.292 7.95465 30.9664C8.82262 33.6142 10.4939 35.9478 12.6392 37.8027C15.1437 39.9661 19.5772 43.3057 24.9589 45.2395C30.3435 47.1743 35.9636 47.4476 39.3283 47.3909C42.2093 47.3426 45.0614 46.6341 47.5167 45.181C55.565 40.4198 53.1648 31.818 53.1648 31.818Z" fill="#F5D492"/>
<path d="M38.5222 47.9106C34.8523 47.9106 29.7285 47.5006 24.7736 45.7202C19.4411 43.804 15.0375 40.5649 12.284 38.1848C9.98127 36.1951 8.31093 33.7528 7.44778 31.1216C5.91748 26.4516 7.36764 22.8257 8.85353 20.6074C10.2815 18.4764 11.9788 17.2278 12.3892 16.9442C14.7237 13.5693 17.5652 11.0563 20.8372 9.4739C23.4788 8.19553 26.4033 7.52148 29.5248 7.46941C34.6293 7.38388 38.5125 8.9737 38.9402 9.15593C39.3872 9.28795 43.4056 10.5375 47.2029 13.8213C49.5259 15.8295 51.2753 18.1826 52.404 20.8156C53.8001 24.0752 54.2365 27.7663 53.7055 31.7882C53.8223 32.2624 54.2558 34.2762 53.8851 36.7864C53.4998 39.3999 52.1288 43.0537 47.7948 45.6179C45.354 47.0618 42.4285 47.852 39.337 47.9032C39.0734 47.9078 38.8022 47.9106 38.5222 47.9106ZM29.9119 8.48932C29.7758 8.48932 29.6406 8.49025 29.5035 8.49304C22.7557 8.61762 17.2774 11.6783 13.2214 17.5885L13.1625 17.6732L13.0757 17.7308C13.0564 17.7429 11.2065 18.9664 9.72539 21.1931C7.76254 24.144 7.33674 27.3804 8.46154 30.812C9.26579 33.2684 10.8328 35.5536 12.9936 37.4205C15.6786 39.742 19.9673 42.8994 25.1433 44.7598C30.3203 46.6192 35.7048 46.9381 39.3168 46.8795C42.219 46.8312 44.9572 46.093 47.2367 44.7449C50.4209 42.8613 52.3007 40.1474 52.8259 36.6795C53.2199 34.0633 52.6541 31.9714 52.6493 31.9509L52.6222 31.8533L52.6358 31.7529C53.5916 24.7279 51.5341 18.9608 46.5213 14.6097C42.7578 11.3436 38.6438 10.1405 38.6023 10.1284L38.5675 10.1182L38.5347 10.1033C38.498 10.0857 34.779 8.48932 29.9119 8.48932Z" fill="#51332A"/>
<path d="M37.3742 43.9323C36.8818 45.2033 36.1644 46.3301 35.2849 47.2896C33.3626 47.1557 31.1854 46.887 28.9435 46.384C27.5899 47.0404 25.964 47.1678 24.4269 46.6164C24.3381 46.5848 24.2474 46.5486 24.1614 46.5132C24.1025 46.4891 24.0465 46.4649 23.9886 46.437C23.92 46.4045 23.8534 46.3738 23.7839 46.3384C23.7182 46.3078 23.6535 46.2706 23.5898 46.2362C22.6794 45.7369 21.9552 45.0117 21.4628 44.1666C21.4136 44.0848 21.3712 44.0095 21.3354 43.9416C21.2215 43.725 21.1684 43.5911 21.1684 43.5911L21.1655 43.5902C19.1322 42.5582 17.3084 41.3886 15.7636 40.2766C15.752 38.9964 15.9779 37.6939 16.4703 36.422C17.486 33.8002 19.4537 31.7864 21.85 30.6094C24.2203 29.4444 27.0173 29.0948 29.74 29.7819C30.1001 29.8749 30.4641 29.9846 30.8204 30.1129C31.1786 30.2412 31.5252 30.3844 31.8593 30.5433C34.384 31.7418 36.261 33.7676 37.2622 36.1468C38.274 38.5473 38.3899 41.3105 37.3742 43.9323Z" fill="#7D4D32"/>
<path d="M23.2596 25.3034C22.074 24.8776 21.4716 23.6067 21.9138 22.465L22.1976 21.7323C22.6408 20.5906 23.9587 20.0105 25.1453 20.4363C26.3318 20.8621 26.9353 22.1331 26.4921 23.2748L26.2073 24.0074C25.766 25.1491 24.4453 25.7292 23.2596 25.3034Z" fill="#51332A"/>
<path d="M27.0434 23.5025C28.0288 23.5025 28.8276 22.7333 28.8276 21.7844C28.8276 20.8355 28.0288 20.0663 27.0434 20.0663C26.058 20.0663 25.2591 20.8355 25.2591 21.7844C25.2591 22.7333 26.058 23.5025 27.0434 23.5025Z" fill="white"/>
<path d="M39.8053 31.2481C40.9919 31.6739 42.3117 31.0938 42.7549 29.9521L43.0377 29.2194C43.4809 28.0777 42.8775 26.8068 41.6909 26.381C40.5062 25.9552 39.1864 26.5353 38.7432 27.677L38.4604 28.4096C38.0172 29.5513 38.6197 30.8223 39.8053 31.2481Z" fill="#51332A"/>
<path d="M39.3409 27.9197C40.3257 27.9197 41.1241 27.1509 41.1241 26.2025C41.1241 25.2541 40.3257 24.4853 39.3409 24.4853C38.356 24.4853 37.5576 25.2541 37.5576 26.2025C37.5576 27.1509 38.356 27.9197 39.3409 27.9197Z" fill="white"/>
<path d="M31.532 28.2758C31.532 28.2758 31.2375 28.1149 30.8252 28.0322C30.048 27.8769 29.3529 28.5742 29.5498 29.3133C29.6773 29.7893 29.9785 30.2914 30.6572 30.5359C31.336 30.7795 31.9056 30.5908 32.3266 30.3109C32.9793 29.8767 32.9261 28.9098 32.2339 28.5379C31.866 28.3399 31.532 28.2758 31.532 28.2758Z" fill="#51332A"/>
<path d="M38.5221 47.9032C34.8542 47.9032 29.7303 47.4932 24.7754 45.7137C19.445 43.7975 15.0433 40.5593 12.2897 38.1792C9.98795 36.1896 8.31669 33.749 7.4545 31.1188C5.92516 26.4507 7.37438 22.8285 8.85931 20.6102C10.2873 18.4783 11.9856 17.2306 12.3949 16.9489C14.7276 13.5749 17.569 11.0619 20.8391 9.48042C23.4817 8.20204 26.4042 7.52799 29.5247 7.47592C34.6273 7.39039 38.5125 8.98115 38.9383 9.16245C39.3833 9.29354 43.3998 10.5431 47.198 13.826C49.5191 15.8342 51.2695 18.1864 52.3972 20.8184C53.7924 24.0771 54.2297 27.7672 53.6968 31.7883C53.8136 32.2596 54.249 34.2734 53.8783 36.7855C53.4921 39.3981 52.123 43.0491 47.7909 45.6114C45.3511 47.0553 42.4275 47.8446 39.337 47.8967C39.0734 47.9013 38.8021 47.9032 38.5221 47.9032ZM29.9119 8.48282C29.7757 8.48282 29.6405 8.48375 29.5034 8.48654C22.7537 8.61112 17.2735 11.6727 13.2156 17.5858C13.1779 17.6406 13.1287 17.688 13.0708 17.7252C13.0534 17.7373 11.2025 18.9618 9.7205 21.1894C7.75669 24.1422 7.32996 27.3814 8.45476 30.8158C9.25902 33.273 10.8279 35.5601 12.9887 37.427C15.6747 39.7486 19.9644 42.9068 25.1413 44.7672C30.3183 46.6276 35.7077 46.9474 39.3177 46.887C42.2219 46.8387 44.961 46.0995 47.2415 44.7514C50.4266 42.8669 52.3084 40.1511 52.8327 36.6805C53.2285 34.0624 52.6627 31.9695 52.6569 31.9491C52.6386 31.8859 52.6347 31.818 52.6434 31.7529C53.5993 24.7251 51.5408 18.9552 46.5261 14.6041C42.7606 11.3361 38.6457 10.1331 38.6042 10.121C38.582 10.1145 38.5588 10.1061 38.5366 10.0968C38.4999 10.0792 34.7808 8.48282 29.9119 8.48282Z" fill="#51332A"/>
<path d="M24.4249 46.6174C21.486 45.5612 19.9924 42.4104 21.0892 39.5794L22.158 36.8209C23.2538 33.9908 26.5269 32.5516 29.4648 33.6077C32.4057 34.6639 33.8993 37.8147 32.8025 40.6457L31.7337 43.4033C30.636 46.2353 27.3649 47.6735 24.4249 46.6174Z" fill="#7D4D32"/>
<path d="M34.2189 8.36659C34.2189 8.36659 27.5917 1.24583 17.5332 4.12147C15.1562 4.8011 12.9829 6.00695 11.0722 7.52891C8.3582 9.68773 4.87182 13.3127 6.35771 16.842C6.88583 18.0952 7.98742 19.038 9.28601 19.5531C12.5175 20.8342 19.9933 21.9694 25.2157 8.49211C25.2157 8.49118 29.5527 7.39596 34.2189 8.36659Z" fill="#885D3F"/>
<path d="M43.0445 11.5379C43.0445 11.5379 52.8973 10.3386 58.5416 18.8558C59.875 20.8696 60.6966 23.152 61.106 25.507C61.6882 28.8485 61.8552 33.7881 58.3321 35.5165C57.0808 36.1301 55.6075 36.1477 54.2761 35.7173C50.9635 34.6481 44.543 30.7888 49.7634 17.3115C49.7634 17.3115 47.2328 13.7479 43.0445 11.5379Z" fill="#885D3F"/>
<path d="M12.9723 20.7859C11.4468 20.7859 10.1067 20.4233 9.08715 20.0189C7.59547 19.4266 6.42338 18.3379 5.87305 17.0307C5.14603 15.3051 5.4212 13.4132 6.69275 11.4077C7.58487 10.002 8.94621 8.56557 10.7382 7.13844C12.8227 5.47981 15.0597 4.30185 17.3856 3.63616C22.747 2.10398 27.1429 3.37584 29.8868 4.71371C32.8547 6.16037 34.5404 7.95288 34.6128 8.02819C34.7634 8.19089 34.7895 8.42983 34.6746 8.61856C34.5598 8.8073 34.3329 8.90492 34.1108 8.85843C30.2643 8.05794 26.5964 8.71154 25.6087 8.91886C23.2953 14.7752 20.2946 18.5118 16.6866 20.0282C15.3803 20.5795 14.1231 20.785 12.9723 20.7859ZM22.3202 3.93646C20.7918 3.93646 19.2441 4.1596 17.6829 4.60587C15.4922 5.23157 13.3797 6.34632 11.4053 7.91848C9.70217 9.27402 8.41709 10.6249 7.58676 11.9349C6.49865 13.6521 6.2496 15.2391 6.84337 16.6514C7.28847 17.7094 8.25199 18.5954 9.48492 19.0854C11.0876 19.7213 13.5641 20.2401 16.2636 19.1049C19.6545 17.6806 22.4998 14.05 24.7233 8.31454C24.7832 8.16114 24.9155 8.04399 25.0815 8.00308C25.2399 7.96311 28.5698 7.14216 32.5679 7.594C31.81 6.99898 30.7297 6.25706 29.3741 5.59974C27.0907 4.49151 24.7301 3.93646 22.3202 3.93646Z" fill="#51332A"/>
<path d="M56.1067 36.514C55.4443 36.514 54.7675 36.4081 54.11 36.1951C52.2746 35.6029 49.7856 34.2911 48.3596 31.4108C46.6651 27.9885 46.9383 23.272 49.1754 17.3887C48.57 16.6086 46.2451 13.8018 42.7944 11.9804C42.5946 11.8754 42.4884 11.6588 42.5309 11.4431C42.5743 11.2274 42.7549 11.0637 42.9818 11.0358C43.0851 11.0238 45.5779 10.7337 48.8056 11.5119C51.788 12.2315 55.9773 14.0435 58.9838 18.5834C60.2901 20.5534 61.1765 22.8545 61.6245 25.4224C62.0078 27.6305 62.0589 29.5746 61.776 31.1988C61.3725 33.5157 60.294 35.1195 58.5706 35.9646C57.8272 36.33 56.9804 36.514 56.1067 36.514ZM44.8191 11.9944C48.1472 14.1746 50.1052 16.895 50.1969 17.0261C50.2935 17.1618 50.3156 17.3338 50.2558 17.4881C48.0342 23.2236 47.7136 27.7616 49.3067 30.9766C50.5744 33.5371 52.7998 34.7076 54.4431 35.2375C55.7079 35.6457 57.0384 35.5834 58.0946 35.0646C59.5052 34.3729 60.3954 33.0155 60.741 31.0315C61.0036 29.5188 60.9534 27.6872 60.5894 25.5888C60.1656 23.1557 59.3276 20.9811 58.0995 19.1263C55.8412 15.7179 52.6415 13.4894 48.5884 12.5011C47.1189 12.1441 45.7971 12.0232 44.8191 11.9944Z" fill="#51332A"/>
<path d="M32.0678 38.5278L31.0231 41.2222C30.7683 41.8795 30.3598 42.4317 29.8481 42.8659C28.7165 43.8133 27.0936 44.1536 25.5922 43.6144C24.0851 43.0733 23.0897 41.7921 22.8802 40.3622C22.7875 39.7114 22.856 39.0373 23.1099 38.38L24.1546 35.6857C24.9695 33.5817 27.3996 32.5088 29.5903 33.2963C30.6833 33.6877 31.5069 34.4714 31.9558 35.4188C32.3999 36.3634 32.4752 37.4763 32.0678 38.5278Z" fill="#51332A"/>
<path d="M29.8481 42.8659C28.7166 43.8133 27.0936 44.1536 25.5923 43.6144C24.0851 43.0733 23.0897 41.7921 22.8802 40.3622C24.032 39.478 25.6164 39.1861 27.1003 39.7207C28.5804 40.2515 29.5788 41.4713 29.8481 42.8659Z" fill="#F16982"/>
<path d="M27.0646 44.3758C26.5066 44.3758 25.9476 44.281 25.4088 44.0876C23.7742 43.5 22.6069 42.0998 22.3598 40.4328C22.2545 39.6705 22.3405 38.9211 22.6195 38.2034L23.6632 35.5081C24.1063 34.3645 24.9869 33.4543 26.1387 32.9467C27.2925 32.4391 28.5843 32.3944 29.7748 32.8212C30.9623 33.2479 31.9066 34.0958 32.4337 35.2078C32.9561 36.3225 33.0015 37.5637 32.5593 38.7045L31.5146 41.3988C31.2365 42.1175 30.7924 42.7386 30.1957 43.2443C29.3085 43.9872 28.1942 44.3758 27.0646 44.3758ZM28.1112 33.5417C27.587 33.5417 27.0646 33.6505 26.5751 33.8662C25.6763 34.2622 24.9907 34.9707 24.646 35.8623L23.6014 38.5566C23.3832 39.1173 23.3166 39.7021 23.3996 40.2952C23.5908 41.5922 24.5022 42.6837 25.7757 43.1421C27.0453 43.5985 28.4742 43.3466 29.5034 42.4857C29.9659 42.0924 30.3135 41.608 30.5308 41.0465L31.5744 38.3521C31.9191 37.4624 31.8844 36.4945 31.4779 35.6271C31.0666 34.7624 30.3309 34.1014 29.4059 33.7695C28.9859 33.617 28.5476 33.5417 28.1112 33.5417Z" fill="#51332A"/>
<path d="M26.4138 47.5248C25.2311 47.5248 24.395 47.165 24.2154 47.0813C21.6067 46.1302 20.7126 43.8635 20.6759 43.7668C20.5755 43.5056 20.7146 43.2155 20.9868 43.1188C21.2562 43.0221 21.5584 43.156 21.6579 43.4163C21.6704 43.4442 22.4466 45.3678 24.6084 46.1441C24.6296 46.1516 24.6489 46.1599 24.6682 46.1692C24.7416 46.2046 26.5336 47.0599 28.6963 45.9415C28.9531 45.8085 29.2698 45.9024 29.4069 46.1479C29.544 46.3933 29.4484 46.6992 29.1926 46.8321C28.173 47.3593 27.2142 47.5248 26.4138 47.5248Z" fill="#51332A"/>
<path d="M36.6404 37.1463C36.4898 37.1463 36.3402 37.084 36.2359 36.9622C36.0524 36.7474 36.0843 36.4285 36.3064 36.2509L38.7056 34.3441C38.9286 34.1665 39.2588 34.1972 39.4442 34.4119C39.6286 34.6267 39.5967 34.9456 39.3747 35.1232L36.9745 37.03C36.876 37.1081 36.7582 37.1463 36.6404 37.1463Z" fill="#F16982"/>
<path d="M39.1738 38.0555C39.0222 38.0555 38.8716 37.9932 38.7683 37.8724C38.5849 37.6576 38.6158 37.3387 38.8388 37.1611L41.238 35.2543C41.461 35.0767 41.7922 35.1074 41.9766 35.3221C42.161 35.5369 42.1292 35.8558 41.9062 36.0334L39.5069 37.9403C39.4084 38.0183 39.2906 38.0555 39.1738 38.0555Z" fill="#F16982"/>
<path d="M41.5557 38.9118C41.4041 38.9118 41.2545 38.8495 41.1502 38.7286C40.9667 38.5139 40.9986 38.195 41.2207 38.0174L43.6199 36.1105C43.843 35.933 44.1741 35.9636 44.3585 36.1784C44.5429 36.3932 44.5111 36.7121 44.289 36.8896L41.8898 38.7965C41.7923 38.8746 41.6735 38.9118 41.5557 38.9118Z" fill="#F16982"/>
<path d="M21.9823 31.8794C21.7303 31.8794 21.5082 31.7046 21.4657 31.4573L20.9501 28.5026C20.9028 28.2274 21.095 27.9671 21.3798 27.9215C21.6666 27.875 21.9359 28.06 21.9852 28.3362L22.4998 31.2908C22.549 31.5651 22.3559 31.8264 22.0702 31.8719C22.0402 31.8766 22.0113 31.8794 21.9823 31.8794Z" fill="#F16982"/>
<path d="M19.4498 30.9692C19.1978 30.9692 18.9757 30.7944 18.9332 30.548L18.4177 27.5933C18.3684 27.3181 18.5615 27.0578 18.8473 27.0113C19.1341 26.9658 19.4034 27.1508 19.4517 27.426L19.9673 30.3797C20.0156 30.6549 19.8235 30.9152 19.5377 30.9617C19.5068 30.9673 19.4788 30.9692 19.4498 30.9692Z" fill="#F16982"/>
<path d="M17.067 30.1138C16.8159 30.1138 16.5939 29.939 16.5514 29.6926L16.0358 26.738C15.9866 26.4637 16.1797 26.2025 16.4655 26.1569C16.7522 26.1104 17.0216 26.2954 17.0698 26.5706L17.5854 29.5253C17.6337 29.8005 17.4416 30.0608 17.1548 30.1073C17.1259 30.111 17.0959 30.1138 17.067 30.1138Z" fill="#F16982"/>
<path d="M8.60708 43.0117C12.4524 44.3934 16.5911 42.8772 17.8513 39.6251C19.1115 36.3731 17.0158 32.6167 13.1706 31.235C9.3253 29.8533 5.18651 31.3695 3.92633 34.6216C2.66616 37.8736 4.76182 41.63 8.60708 43.0117Z" fill="#F5D492"/>
<path d="M11.5096 44.0123C10.4978 44.0123 9.45403 43.8384 8.43158 43.4712C4.31761 41.9929 2.07767 37.9337 3.43805 34.4222C4.79747 30.9106 9.2513 29.2566 13.3662 30.7349C17.4802 32.2131 19.7192 36.2723 18.3598 39.783C17.3383 42.4225 14.5683 44.0123 11.5096 44.0123ZM10.2834 31.2165C7.65825 31.2165 5.2976 32.5525 4.43348 34.7801C3.27875 37.7627 5.23776 41.2306 8.80236 42.5108C12.367 43.791 16.2067 42.4076 17.3634 39.425C18.5181 36.4425 16.5581 32.9746 12.9945 31.6934C12.0927 31.3699 11.1736 31.2165 10.2834 31.2165Z" fill="#51332A"/>
<path d="M38.7721 54.0251C42.6174 55.4068 46.7562 53.8906 48.0164 50.6385C49.2766 47.3865 47.1809 43.6301 43.3356 42.2484C39.4904 40.8667 35.3516 42.3829 34.0914 45.635C32.8313 48.887 34.9269 52.6434 38.7721 54.0251Z" fill="#F5D492"/>
<path d="M41.6542 55.0612C40.6423 55.0612 39.5996 54.8873 38.5771 54.5201C36.595 53.8079 34.9845 52.484 34.0384 50.7891C33.0816 49.0728 32.9203 47.1845 33.5827 45.471C34.943 41.9604 39.3968 40.3055 43.5108 41.7837C47.6248 43.2611 49.8647 47.3212 48.5043 50.8318C47.4819 53.4723 44.7138 55.0612 41.6542 55.0612ZM40.428 42.2663C37.8018 42.2663 35.4422 43.6023 34.579 45.8299C34.0239 47.2626 34.1639 48.8515 34.9749 50.3047C35.7984 51.7802 37.2081 52.9367 38.9479 53.5606C42.5115 54.8408 46.3513 53.4574 47.507 50.4748C48.6627 47.4923 46.7028 44.0244 43.1391 42.7442C42.2374 42.4197 41.3172 42.2663 40.428 42.2663Z" fill="#51332A"/>
<path d="M11.5096 44.0058C10.4978 44.0058 9.45596 43.8319 8.43351 43.4647C4.32341 41.9883 2.08637 37.9328 3.44482 34.4249C4.80326 30.9171 9.25419 29.265 13.3633 30.7414C17.4725 32.2178 19.7114 36.2732 18.353 39.7811C17.3324 42.4169 14.5654 44.0058 11.5096 44.0058ZM10.2834 31.21C7.65437 31.21 5.29179 32.5478 4.42863 34.7773C3.27101 37.7636 5.23294 41.2352 8.8014 42.5182C12.3689 43.7994 16.2145 42.4141 17.3701 39.4278C18.5268 36.4425 16.5649 32.9699 12.9974 31.6878C12.0937 31.3634 11.1736 31.21 10.2834 31.21Z" fill="#51332A"/>
<path d="M41.6542 55.0546C40.6433 55.0546 39.6016 54.8808 38.5791 54.5135C36.5989 53.8023 34.9894 52.4793 34.0452 50.7863C33.0884 49.0718 32.9281 47.1845 33.5894 45.4747C34.9488 41.9669 39.3998 40.3138 43.5079 41.7912C47.619 43.2676 49.857 47.323 48.4976 50.8309C47.4761 53.4666 44.71 55.0546 41.6542 55.0546ZM40.428 42.2597C37.7999 42.2597 35.4374 43.5967 34.5723 45.8271C34.0181 47.2617 34.1571 48.8533 34.9701 50.3084C35.7936 51.7848 37.2052 52.9423 38.945 53.5671C42.5144 54.8492 46.3581 53.4629 47.5157 50.4776C48.6714 47.4922 46.7105 44.0188 43.143 42.7376C42.2393 42.4131 41.3182 42.2597 40.428 42.2597ZM48.0062 50.6542H48.0081H48.0062Z" fill="#51332A"/>
</svg>
