<svg width="62" height="55" viewBox="0 0 62 55" fill="none" xmlns="http://www.w3.org/2000/svg">
<path d="M47.4099 1.02209C48.158 1.02209 48.8772 1.34608 49.3583 1.91886C49.4759 2.05904 52.2668 5.43632 54.0599 11.5522C55.0471 14.7521 55.3999 17.5223 55.5205 19.3279C55.5407 19.3455 55.5619 19.3632 55.5841 19.3817C55.5841 19.3817 55.5841 19.3817 55.5841 19.3827C55.7692 19.5386 55.9533 19.7002 56.1278 19.8617C56.1452 19.8775 56.1616 19.8923 56.177 19.9081C57.84 21.451 59.0894 23.2074 59.8953 25.13C61.0396 27.8583 61.2267 30.7909 60.4506 33.8433C59.69 36.839 58.0212 39.6714 55.6246 42.034C52.9339 44.6872 48.5841 48.3448 43.1392 50.7046C37.6962 53.0635 31.9659 53.7737 28.1194 53.9538C27.7907 53.9686 27.458 53.977 27.1322 53.977C24.0675 53.977 21.1021 53.2937 18.5541 52.0006C16.7061 51.062 15.1404 49.8561 13.9026 48.4163C12.8479 47.1899 12.0256 45.7891 11.4597 44.2536C10.7001 42.1899 10.5323 40.22 10.5458 38.821C9.22024 37.5381 7.29986 35.4465 5.46721 32.6114C1.90313 27.2623 1.12898 23.0124 1.09717 22.8342C0.946775 21.9671 1.29676 21.0908 2.01208 20.544C4.64778 18.5342 7.90915 17.06 11.7027 16.1595C14.4936 15.4985 17.1264 15.2609 19.0602 15.1903C21.8126 13.1266 24.322 12.0915 24.9775 11.839C25.6032 11.5364 28.0384 10.4307 31.4155 9.8134C31.4463 9.80598 31.4781 9.79948 31.5099 9.79298C32.848 8.4469 34.7781 6.7072 37.1429 5.13553C40.357 2.99851 43.6646 1.6283 46.9733 1.06109C47.1179 1.03417 47.2643 1.02209 47.4099 1.02209ZM47.4099 0C47.2017 0 46.9906 0.0176447 46.7853 0.0529213C43.3263 0.646126 39.8779 2.07203 36.5374 4.2926C34.1717 5.8652 32.2397 7.60119 30.9739 8.85351C27.6692 9.48663 25.2687 10.5551 24.5399 10.9051C23.7821 11.1994 21.3633 12.2196 18.6785 14.1821C16.8651 14.2638 14.2371 14.5052 11.4481 15.1671C7.50518 16.1019 4.10882 17.6411 1.35165 19.7429C0.332656 20.5199 -0.16571 21.7694 0.0492724 23.0041C0.08205 23.1907 0.889909 27.6365 4.56871 33.1582C6.32424 35.8726 8.16074 37.9243 9.48438 39.2406C9.50655 40.6266 9.70997 42.5659 10.4581 44.5962C11.0664 46.2449 11.9494 47.7507 13.0851 49.0698C14.4126 50.6136 16.0852 51.904 18.0596 52.9057C20.7579 54.2759 23.8959 55 27.1322 55C27.4754 55 27.8263 54.9916 28.1714 54.9759C32.1095 54.7921 37.9796 54.0633 43.5759 51.6385C49.1732 49.2128 53.6309 45.466 56.3862 42.7497C58.9149 40.2562 60.6771 37.2605 61.4831 34.0874C62.3122 30.8225 62.1097 27.6801 60.8805 24.7484C60.0187 22.6949 58.6874 20.8216 56.9232 19.1803C56.9029 19.1608 56.8817 19.1422 56.8624 19.1227C56.7602 19.029 56.6552 18.9343 56.5491 18.8414C56.4045 17.0154 56.0266 14.3325 55.0809 11.269C53.228 4.95636 50.3098 1.42498 50.1854 1.27738C49.5038 0.465087 48.4925 0 47.4099 0Z" fill="#51332A"/>
<path d="M30.9064 14.171C30.9064 14.171 37.4571 5.5143 47.4099 3.43205C47.4099 3.43205 52.8471 9.92109 53.0582 21.6274C53.0582 21.6274 42.3236 24.08 30.9064 14.171Z" fill="#FEB84A"/>
<path d="M53.0582 21.6274C53.0582 21.6274 53.6453 12.526 47.4099 3.43204C47.4099 3.43204 43.8738 9.26939 44.6287 14.9591C44.6287 14.9591 49.6542 17.4452 53.0582 21.6274Z" fill="white"/>
<path d="M53.0582 22.2131C52.876 22.2131 52.6977 22.1333 52.5801 21.9894C49.2966 17.954 44.4011 15.5041 44.3519 15.48C44.1726 15.3918 44.0512 15.2247 44.0261 15.0334C43.253 9.21278 46.736 3.38285 46.8845 3.13777C46.9896 2.96324 47.1834 2.85277 47.3926 2.8472C47.6037 2.8407 47.8013 2.94097 47.916 3.10992C51.1957 7.89084 52.5839 12.6699 53.171 15.8374C53.8092 19.2796 53.6723 21.568 53.6656 21.6636C53.6492 21.9059 53.4805 22.1138 53.2395 22.1862C53.1798 22.2039 53.119 22.2131 53.0582 22.2131ZM45.1974 14.5878C46.2039 15.1216 49.5877 17.0331 52.4432 20.026C52.3979 19.0466 52.2764 17.6569 51.9689 16.0035C51.4338 13.1415 50.2201 8.91292 47.463 4.60081C46.5722 6.36279 44.7674 10.518 45.1974 14.5878Z" fill="#51332A"/>
<path d="M30.9064 14.6821C30.7994 14.6821 30.6905 14.6506 30.5979 14.5856C30.3588 14.4213 30.3048 14.1019 30.4755 13.8717C30.5468 13.777 32.2378 11.5286 35.1569 9.04253C37.862 6.74026 42.1674 3.80952 47.3164 2.92761C47.6056 2.87748 47.8804 3.06314 47.9324 3.34164C47.9845 3.62014 47.7917 3.88471 47.5024 3.93484C42.5974 4.77498 38.4636 7.5934 35.8606 9.80933C33.0283 12.2202 31.3547 14.4464 31.3383 14.4686C31.2332 14.6079 31.0713 14.6821 30.9064 14.6821Z" fill="#51332A"/>
<path d="M22.8566 17.6597C22.8566 17.6597 11.7836 16.6385 3.56413 22.4322C3.56413 22.4322 5.00248 30.6545 13.9604 38.5704C13.9604 38.5713 22.9867 32.4601 22.8566 17.6597Z" fill="#FEB84A"/>
<path d="M13.9604 38.5713C13.9604 38.5713 6.49772 32.9595 3.56413 22.4332C3.56413 22.4332 10.4464 23.7551 14.3682 28.0737C14.3682 28.0728 12.9674 33.3429 13.9604 38.5713Z" fill="white"/>
<path d="M13.9604 39.1561C13.8274 39.1561 13.6963 39.1144 13.5864 39.0327C13.5073 38.9733 11.6361 37.5548 9.38504 34.8125C7.3133 32.2883 4.51856 28.1183 2.97705 22.5845C2.9221 22.3895 2.97704 22.1806 3.12068 22.033C3.26432 21.8854 3.47739 21.8195 3.68273 21.8594C3.97291 21.9151 10.8128 23.2714 14.8252 27.6875C14.9582 27.8333 15.0064 28.0319 14.9563 28.2185C14.9428 28.2696 13.6027 33.432 14.5591 38.4664C14.6044 38.705 14.4916 38.9463 14.2756 39.0717C14.1783 39.1283 14.0694 39.1561 13.9604 39.1561ZM4.43854 23.2454C5.96269 28.0923 8.44321 31.7713 10.3144 34.055C11.3942 35.3741 12.3939 36.3832 13.1265 37.0646C12.6927 33.0217 13.4505 29.3158 13.704 28.2362C10.8254 25.2274 6.39844 23.7718 4.43854 23.2454Z" fill="#51332A"/>
<path d="M3.56414 22.9437C3.40797 22.9437 3.25371 22.8769 3.14767 22.7497C2.96546 22.5288 3.00495 22.2067 3.2344 22.0321C7.33545 18.9055 12.4681 17.7451 16.0514 17.3227C19.9211 16.8669 22.7901 17.1398 22.9087 17.151C23.2008 17.1797 23.4129 17.4304 23.383 17.7117C23.3531 17.992 23.0928 18.1972 22.8007 18.1684C22.7727 18.1656 19.9095 17.8946 16.1536 18.3411C12.7139 18.7495 7.79145 19.8608 3.89188 22.8333C3.79644 22.9075 3.67983 22.9437 3.56414 22.9437Z" fill="#51332A"/>
<path d="M13.2075 36.9606C9.6762 19.8394 26.0042 14.0392 26.0042 14.0392C26.0042 14.0392 41.3403 6.11772 52.3063 20.0176C52.3063 20.0176 60.251 24.4838 58.0192 33.2714C57.3376 35.9534 55.8366 38.3754 53.8334 40.3509C51.4965 42.656 47.3231 46.2495 42.1125 48.5072C36.9008 50.7659 31.3393 51.3897 27.9979 51.5466C25.1337 51.6812 22.257 51.1567 19.7196 49.8682C11.4105 45.6489 13.2075 36.9606 13.2075 36.9606Z" fill="white"/>
<path d="M27.1341 52.1519C24.3682 52.1519 21.7248 51.5475 19.4371 50.3862C14.935 48.1006 13.3174 44.5386 12.7525 41.9523C12.2165 39.4959 12.5008 37.4731 12.5885 36.9653C11.7884 32.9994 11.9735 29.3 13.14 25.9682C14.0848 23.2733 15.6687 20.8178 17.8455 18.6697C21.3912 15.1736 25.2927 13.6725 25.7536 13.5035C26.1903 13.2835 29.9452 11.4668 35.0123 11.23C38.1252 11.0852 41.0848 11.5726 43.8063 12.6792C47.1689 14.0475 50.169 16.3674 52.7189 19.5748C53.172 19.8477 54.9333 20.984 56.4864 22.9994C58.1214 25.1216 59.8181 28.6493 58.6092 33.4098C57.9286 36.088 56.4266 38.6298 54.2672 40.7584C51.6912 43.2993 47.5343 46.7982 42.3593 49.0401C37.1853 51.282 31.7085 51.9588 28.0258 52.1305C27.7298 52.1454 27.43 52.1519 27.1341 52.1519ZM13.8032 37.0739C13.7994 37.0943 13.3829 39.1961 13.9517 41.7536C14.7027 45.1374 16.7388 47.6922 20.0031 49.3502C22.3438 50.5384 25.098 51.0954 27.968 50.9617C31.5465 50.7946 36.8623 50.1402 41.8618 47.9725C46.8633 45.8058 50.8959 42.409 53.3995 39.9406C55.4076 37.9614 56.7997 35.6071 57.4292 33.1322C58.3055 29.6797 57.6693 26.5178 55.5387 23.7319C53.9268 21.6264 52.018 20.5329 51.9987 20.5217C51.9303 20.4827 51.8696 20.4317 51.8214 20.3713C47.4128 14.7828 41.7924 12.1008 35.1173 12.3979C30.0995 12.6216 26.3281 14.5349 26.2905 14.5544C26.2664 14.5665 26.2395 14.5776 26.2144 14.5878C26.1749 14.6017 22.1856 16.0509 18.6833 19.52C14.025 24.1338 12.3842 29.9638 13.8023 36.8464C13.8197 36.9216 13.8196 36.9987 13.8032 37.0739Z" fill="#51332A"/>
<path d="M54.3992 21.6051C53.5132 25.0371 51.0607 28.0514 47.4542 29.6138C41.2092 32.3199 33.8631 29.637 31.0529 23.6233C29.2434 19.7521 29.7496 15.4512 32.0035 12.1537C37.4716 11.1864 45.6823 11.6264 52.3072 20.0176C52.3072 20.0186 53.2481 20.5477 54.3992 21.6051Z" fill="#FEB84A"/>
<path d="M34.4377 32.0841C34.4377 32.0841 34.7192 31.9059 35.1241 31.7972C35.8838 31.5939 36.6232 32.2419 36.4757 32.9883C36.3822 33.4692 36.118 33.9862 35.4596 34.2712C34.8021 34.5562 34.2237 34.404 33.7889 34.1533C33.1112 33.7634 33.0977 32.8008 33.7609 32.3877C34.1109 32.1686 34.4377 32.0841 34.4377 32.0841Z" fill="#51332A"/>
<path d="M34.0077 39.3177C33.7773 39.3177 33.5662 39.1729 33.4978 38.9501C33.4158 38.679 33.5778 38.3949 33.8593 38.316C35.8789 37.7488 35.8481 36.2718 35.8481 36.257C35.8404 36.049 35.9628 35.8578 36.1605 35.7733C36.3562 35.6879 36.5875 35.726 36.7437 35.8689C36.7871 35.907 37.9092 36.865 39.6618 35.8012C39.9106 35.6508 40.2384 35.7232 40.3945 35.9618C40.5507 36.2003 40.4774 36.516 40.2287 36.6664C38.8183 37.5214 37.5776 37.4044 36.7659 37.0702C36.4873 37.8769 35.7546 38.8489 34.1552 39.2982C34.107 39.3112 34.0559 39.3177 34.0077 39.3177Z" fill="#51332A"/>
<path d="M27.1341 52.0776C24.3817 52.0776 21.7489 51.476 19.4728 50.3203C14.9968 48.0477 13.3887 44.5071 12.8277 41.9374C12.2888 39.469 12.5828 37.4434 12.6676 36.9643C11.8655 33.0069 12.0496 29.3158 13.2132 25.9924C14.1541 23.3076 15.7304 20.8624 17.9004 18.7217C21.4472 15.2246 25.3487 13.731 25.7854 13.5713C26.198 13.3634 29.9462 11.541 35.0161 11.3052C38.1184 11.1604 41.0645 11.6459 43.7764 12.7488C47.1303 14.1134 50.1217 16.4287 52.6668 19.6315C53.0939 19.8877 54.8649 21.0202 56.4257 23.0449C58.051 25.1532 59.7362 28.6613 58.535 33.393C57.8582 36.0592 56.363 38.588 54.2141 40.7074C51.6421 43.2427 47.4918 46.736 42.3294 48.9733C37.1669 51.2105 31.7008 51.8854 28.0249 52.0572C27.726 52.0711 27.43 52.0776 27.1341 52.0776ZM13.728 37.06C13.7223 37.0869 13.3058 39.1961 13.8746 41.7638C14.6304 45.1717 16.68 47.7469 19.9674 49.4161C22.3197 50.6108 25.0884 51.1716 27.9718 51.036C31.5571 50.8689 36.8815 50.2126 41.8936 48.0412C46.9047 45.8698 50.947 42.4656 53.4544 39.9935C55.4712 38.0041 56.8711 35.6378 57.5025 33.1498C58.3856 29.6732 57.7445 26.489 55.5956 23.6836C53.9741 21.567 52.0546 20.4697 52.0363 20.4586C51.9766 20.4242 51.9245 20.3797 51.8821 20.3258C47.4552 14.7159 41.8126 12.0247 35.1077 12.3236C30.0734 12.5492 26.2915 14.4699 26.2539 14.4894C26.2318 14.5006 26.2096 14.5098 26.1864 14.5182C26.1469 14.5321 22.1461 15.9859 18.6322 19.4643C13.9527 24.0977 12.3022 29.9508 13.7271 36.8613C13.7425 36.9263 13.7425 36.9941 13.728 37.06Z" fill="#51332A"/>
<path d="M45.919 33.6774C47.862 32.8353 49.0197 31.2594 48.5047 30.1574C47.9897 29.0554 45.997 28.8447 44.0539 29.6868C42.1109 30.5289 40.9532 32.1048 41.4682 33.2068C41.9833 34.3088 43.9759 34.5195 45.919 33.6774Z" fill="#FE7165"/>
<path d="M26.2089 37.4521C24.2658 38.2942 23.108 39.8698 23.6228 40.9713C24.1376 42.0728 26.1301 42.2831 28.0731 41.4411C30.0162 40.599 31.174 39.0234 30.6592 37.9219C30.1444 36.8204 28.1519 36.6101 26.2089 37.4521Z" fill="#FE7165"/>
<path d="M38.5243 21.0388C37.8167 19.7818 36.0149 19.2286 34.6826 19.8589C33.3493 20.4892 32.7024 22.1992 33.3021 23.5082C33.6761 24.3232 34.4387 24.9257 35.2755 25.3064C36.1122 25.6851 37.0291 25.8671 37.9353 26.0453C39.5481 26.3628 41.1609 26.6803 42.7728 26.9978C43.3416 26.0137 43.8651 24.8543 44.2536 23.7932C44.6431 22.7312 44.8456 21.5847 44.6537 20.4744C44.4619 19.3641 43.842 18.2947 42.8538 17.6922C41.8676 17.0897 40.5035 17.0293 39.5472 17.6755C38.5369 18.3596 37.9748 19.9749 38.5243 21.0388Z" fill="#FE7165"/>
<path d="M23.5536 29.4792C22.7216 28.2946 23.0426 26.5002 24.2371 25.6517C25.4325 24.8032 27.3086 25.039 28.236 26.1548C28.8154 26.8502 29.0188 27.7794 28.9821 28.6697C28.9455 29.56 28.69 30.427 28.4374 31.2839C27.9872 32.8082 27.5361 34.3325 27.0859 35.8559C25.9184 35.8884 24.6083 35.7993 23.4504 35.6433C22.2926 35.4874 21.1435 35.1309 20.2084 34.4551C19.2742 33.7792 18.5743 32.7562 18.4741 31.6348C18.3738 30.5134 18.9464 29.3204 19.9828 28.8015C21.077 28.2529 22.8257 28.5184 23.5536 29.4792Z" fill="#FE7165"/>
</svg>
