<svg width="101" height="92" viewBox="0 0 101 92" fill="none" xmlns="http://www.w3.org/2000/svg">
<path d="M95.0219 57.4931L98.8158 52.8379L93.4361 54.6691C92.6087 53.3852 91.6778 52.1844 90.6555 51.0867C90.4474 50.8635 90.2341 50.6433 90.0169 50.4262C90.0402 50.3732 90.0625 50.3191 90.0859 50.2651C92.0036 45.5378 87.2464 41.2848 83.5307 38.8151C88.1611 36.8548 94.7245 33.0511 93.2331 27.6593C91.9479 23.0131 86.0179 22.0384 81.2708 22.0384C80.7865 22.0384 80.3175 22.0484 79.8647 22.0634C80.2718 21.516 80.6961 20.9286 81.1175 20.3142C84.1053 15.9612 85.3804 12.6449 85.0149 10.1741C84.8057 8.75315 84.0586 7.61139 82.8565 6.87087C81.9713 6.32549 80.9662 6.05029 79.8698 6.05029C77.1916 6.05029 73.9581 7.7625 70.2536 11.1419C70.0018 11.371 69.7561 11.6011 69.5186 11.8283C69.5095 11.2969 69.4881 10.7496 69.4526 10.1962C69.0902 4.59428 67.3348 1.37703 64.2394 0.63551C63.8709 0.546448 63.4922 0.501383 63.1145 0.501383C60.2242 0.501383 57.5674 2.96711 54.9918 8.03764C54.6933 8.62605 54.4151 9.21246 54.1573 9.78086C54.1207 9.70281 54.0832 9.62676 54.0446 9.5487C52.0477 5.5299 49.6436 3.4915 46.8964 3.4915C46.4304 3.4915 45.9584 3.55454 45.4944 3.67962C43.333 4.25402 40.7777 6.29643 40.8863 12.7489C40.8945 13.2513 40.9178 13.7477 40.9513 14.23C39.6589 13.4915 38.2061 12.9221 36.797 12.9221C35.5077 12.9221 34.3645 13.3874 33.4894 14.267C31.663 16.1013 31.9635 18.562 32.7737 20.6264C31.6904 20.4893 30.5026 20.3913 29.3321 20.3913C25.9656 20.3913 24.0022 21.2369 22.8651 22.3036L22.2915 20.4133L21.0225 25.9191C19.4093 25.69 17.8327 25.5759 16.316 25.5759C15.6774 25.5759 15.0439 25.5969 14.4195 25.6359L12.7038 21.6472L11.4327 25.9982C6.26527 26.9348 2.88665 29.2424 1.64706 30.5473L0.624717 31.6231L1.37901 32.895C2.9597 35.5578 4.96989 37.8995 7.36784 39.8729L6.33837 43.2682L9.54953 41.495C12.4551 43.4443 15.8063 44.9264 19.5413 45.9111C19.8905 47.307 20.8195 48.3268 22.0164 49.0723C21.857 49.1593 21.6987 49.2494 21.5423 49.3405C18.0703 51.3449 15.12 54.0768 12.7556 57.4741L7.06527 56.8266L10.9282 60.4492C9.60635 62.8959 8.53734 65.6308 7.73937 68.5999L7.10994 70.7403L9.32919 71.0516C9.38198 71.0636 9.58 71.1106 9.90081 71.2217L9.98402 71.2497L10.0703 71.2707C12.1718 71.7991 16.45 72.6867 21.4875 72.6867C26.395 72.6867 30.7676 71.8401 34.4833 70.171L34.9909 69.9398L35.0051 69.9188C35.8143 69.5315 36.5909 69.1042 37.332 68.6379C37.1564 71.1587 37.2143 73.9956 37.7757 76.8536C38.9452 82.8168 41.9766 87.5131 46.7837 90.8124L47.8913 91.4428L53.4801 89.1242V77.7842L46.3381 77.3299L46.1523 78.1345C46.0487 77.8453 45.9055 77.5421 45.8111 77.2229C44.4883 72.7077 44.9097 67.6662 45.8934 63.2862C46.0386 63.6434 46.1786 64.0066 46.337 64.3689C48.6405 69.6215 51.1847 72.1733 54.1289 72.1733C57.0263 72.1733 59.5278 69.8537 61.5694 65.2755C62.0283 64.2468 62.4131 63.2221 62.7186 62.3165C63.2141 62.7148 63.7673 63.139 64.3643 63.5633C67.6932 65.936 70.6434 67.1378 73.1398 67.1378C74.0616 67.1378 74.9307 66.9728 75.7206 66.6495C75.885 66.5815 76.0444 66.5054 76.2007 66.4223C78.8637 67.8073 81.6981 68.6149 84.6453 68.826L84.7499 67.427L84.7824 67.441L84.6809 68.831C85.1926 68.8661 85.7144 68.885 86.2311 68.885C89.4199 68.885 92.7458 68.1966 96.1133 66.8386L97.5224 66.2712L97.3467 64.7802C97.3274 64.6291 96.9285 61.4239 95.0219 57.4931Z" fill="#FCFAFA" stroke="black" stroke-miterlimit="10"/>
<path d="M3.11099 31.8973C3.11099 31.8973 12.4033 22.1165 33.7524 31.8973L30.923 45.2586C30.923 45.2576 11.7759 46.4995 3.11099 31.8973Z" fill="#29ABE2"/>
<path d="M5.9851 32.9881L36.3594 40.053" stroke="black" stroke-width="0.395" stroke-miterlimit="10"/>
<path d="M9.68049 39.1564L16.452 35.4228L13.0663 27.5503" stroke="black" stroke-width="0.395" stroke-miterlimit="10"/>
<path d="M22.5575 28.1767L25.5179 37.5322L18.4316 43.5265" stroke="black" stroke-width="0.395" stroke-miterlimit="10"/>
<path d="M33.4235 47.7644C33.4235 47.7644 15.4114 47.7384 9.68049 69.0913C9.68049 69.0913 32.8184 76.1382 42.4924 60.6984C42.4924 60.6984 40.5747 46.9308 33.4235 47.7644Z" fill="#29ABE2"/>
<path d="M10.5668 69.3315C10.5668 69.3315 30.4448 58.2868 40.4701 49.5987" stroke="black" stroke-width="0.395" stroke-miterlimit="10"/>
<path d="M12.7922 59.4655L24.7799 60.8304L24.2317 70.1929" stroke="black" stroke-width="0.395" stroke-miterlimit="10"/>
<path d="M22.0784 50.8614L33.1757 54.7272V68.0024" stroke="black" stroke-miterlimit="10"/>
<path d="M67.2902 55.1015C67.2902 55.1015 76.5744 72.5757 95.3539 65.0054C95.3539 65.0054 93.5275 49.5887 77.1398 45.5298L67.2902 55.1015Z" fill="#29ABE2"/>
<path d="M73.6018 49.5987L92.9011 64.286" stroke="black" stroke-width="0.395" stroke-miterlimit="10"/>
<path d="M84.7804 66.9066L86.2332 59.2123L92.9011 56.9417" stroke="black" stroke-width="0.395" stroke-miterlimit="10"/>
<path d="M76.0465 64.0637L78.9946 53.7035L89.1783 52.4236" stroke="black" stroke-width="0.395" stroke-miterlimit="10"/>
<path d="M41.265 59.1783C41.265 59.1783 33.595 79.4064 47.8507 89.1872L50.9421 87.8273V79.6316L47.8507 79.4234L47.3522 84.1087C47.3522 84.1087 38.4386 76.6235 45.8467 56.2573L41.265 59.1783Z" fill="#5F8305"/>
<path d="M43.6407 18.8102C43.6407 18.8102 40.8468 6.96401 46.0183 5.58605C51.1888 4.20709 54.1228 15.3658 54.1228 15.3658C54.1228 15.3658 58.5948 1.31405 63.7664 2.55391C68.9379 3.79277 67.2597 17.1561 67.2597 17.1561C67.2597 17.1561 76.7632 5.4469 81.7937 8.54606C86.8261 11.6462 75.3652 24.4572 75.3652 24.4572C75.3652 24.4572 89.621 22.1155 91.2971 28.1767C92.9742 34.238 78.8586 38.4049 78.8586 38.4049C78.8586 38.4049 90.4595 44.0198 88.223 49.5296C85.9875 55.0405 75.4901 50.2471 75.4901 50.2471C75.4901 50.2471 79.9774 62.7539 74.947 64.8213C69.9145 66.8867 61.6699 58.7581 61.6699 58.7581C61.6699 58.7581 59.0151 70.1921 54.1228 70.1921C49.2304 70.1921 45.8771 56.9678 45.8771 56.9678C45.8771 56.9678 40.2863 64.9574 34.4163 63.8556C28.5463 62.7538 34.4163 49.1164 34.4163 49.1164C34.4163 49.1164 21.9779 49.934 21.4185 45.0486C20.8591 40.1631 31.2022 36.3354 31.2022 36.3354C31.2022 36.3354 21.9778 29.4167 23.5159 24.8705C25.0529 20.3253 36.6529 23.3554 36.6529 23.3554C36.6529 23.3554 32.46 18.1198 34.9199 15.649C37.7178 12.8411 43.6407 18.8102 43.6407 18.8102Z" fill="#F9C000"/>
<path d="M42.134 51.0438L36.3594 59.2125" stroke="#44C6A8" stroke-width="0.5925" stroke-miterlimit="10" stroke-linecap="round" stroke-linejoin="round"/>
<path d="M25.518 43.5265L36.3594 41.7011" stroke="#44C6A8" stroke-width="0.5925" stroke-miterlimit="10" stroke-linecap="round" stroke-linejoin="round"/>
<path d="M28.1058 26.4026L37.865 30.3673" stroke="#44C6A8" stroke-width="0.5925" stroke-miterlimit="10" stroke-linecap="round" stroke-linejoin="round"/>
<path d="M37.865 18.1709L42.4924 23.1574" stroke="#44C6A8" stroke-width="0.5925" stroke-miterlimit="10" stroke-linecap="round" stroke-linejoin="round"/>
<path d="M46.8863 10.2593L49.5929 19.9921" stroke="#44C6A8" stroke-width="0.5925" stroke-miterlimit="10" stroke-linecap="round" stroke-linejoin="round"/>
<path d="M62.5258 6.50464L60.1176 19.6118" stroke="#44C6A8" stroke-width="0.5925" stroke-miterlimit="10" stroke-linecap="round" stroke-linejoin="round"/>
<path d="M81.1865 10.2593L69.1419 22.797" stroke="#44C6A8" stroke-width="0.5925" stroke-miterlimit="10" stroke-linecap="round" stroke-linejoin="round"/>
<path d="M88.8402 28.8662L76.0465 31.435" stroke="#44C6A8" stroke-width="0.5925" stroke-miterlimit="10" stroke-linecap="round" stroke-linejoin="round"/>
<path d="M54.3075 66.2804L54.386 55.1286" stroke="#44C6A8" stroke-width="0.5925" stroke-miterlimit="10" stroke-linecap="round" stroke-linejoin="round"/>
<path d="M73.6018 62.3746L69.1419 52.2426" stroke="#44C6A8" stroke-width="0.5925" stroke-miterlimit="10" stroke-linecap="round" stroke-linejoin="round"/>
<path d="M84.7804 48.7551L71.3703 42.1795" stroke="#44C6A8" stroke-width="0.5925" stroke-miterlimit="10" stroke-linecap="round" stroke-linejoin="round"/>
<path d="M58.875 18.1708C67.9196 18.8783 81.3865 24.8745 76.485 43.8127C72.9917 57.3091 56.0791 56.7617 48.3939 54.4211C40.7076 52.0794 29.8032 41.5902 37.0742 28.2298C44.3422 14.8675 58.875 18.1708 58.875 18.1708Z" fill="#ED1C24"/>
<path d="M58.1786 22.835C64.9552 23.3653 75.0434 27.8574 71.3724 42.0433C68.7541 52.1543 56.0852 51.7441 50.3279 49.9908C44.5686 48.2356 36.4011 40.3791 41.8477 30.3682C47.2934 20.3612 58.1786 22.835 58.1786 22.835Z" stroke="black" stroke-width="0.395" stroke-miterlimit="10"/>
<path d="M52.839 34.5097C52.5876 34.8693 52.2362 35.139 51.7847 35.3186C51.3365 35.4949 50.8138 35.5828 50.2164 35.5825C49.6123 35.5822 49.0761 35.441 48.6079 35.1591C48.1397 34.8737 47.7767 34.4696 47.5191 33.9468C47.2648 33.4239 47.1345 32.818 47.128 32.129L47.1284 31.4825C47.129 30.3658 47.3892 29.5004 47.9088 28.8864C48.4318 28.2723 49.1651 27.9656 50.1087 27.9661C50.8825 27.9665 51.5052 28.1654 51.9768 28.5628C52.4484 28.9567 52.7366 29.5169 52.8414 30.2433L51.8639 30.2428C51.6811 29.2618 51.0976 28.771 50.1133 28.7705C49.4583 28.7701 48.9609 29.0007 48.6212 29.4621C48.285 29.9201 48.1149 30.5852 48.111 31.4575L48.1107 32.0634C48.1102 32.8949 48.2999 33.5569 48.6798 34.0492C49.0596 34.5382 49.5737 34.7828 50.222 34.7832C50.5885 34.7834 50.9093 34.7428 51.1843 34.6615C51.4592 34.5802 51.6867 34.4429 51.8667 34.2495L51.8676 32.5847L50.1519 32.5838L50.1524 31.7896L52.8405 31.791L52.839 34.5097ZM60.1767 32.019C60.1763 32.7453 60.0538 33.38 59.8091 33.9229C59.5644 34.4624 59.218 34.8746 58.7698 35.1595C58.3216 35.4443 57.7989 35.5866 57.2015 35.5863C56.6177 35.586 56.1002 35.4431 55.6489 35.1578C55.1977 34.869 54.8466 34.4599 54.5958 33.9302C54.3483 33.3972 54.2213 32.7811 54.2149 32.082L54.2152 31.5474C54.2156 30.8346 54.3399 30.2051 54.588 29.6588C54.836 29.1125 55.1859 28.6952 55.6374 28.4069C56.0924 28.1153 56.6118 27.9696 57.1956 27.9699C57.7895 27.9703 58.3121 28.1148 58.7634 28.4035C59.218 28.6889 59.5674 29.1048 59.8115 29.6514C60.0555 30.1946 60.1774 30.8277 60.177 31.5506L60.1767 32.019ZM59.2046 31.5399C59.2051 30.6608 59.0289 29.987 58.6762 29.5184C58.3235 29.0465 57.8298 28.8103 57.1951 28.81C56.5774 28.8096 56.0902 29.0453 55.7335 29.5168C55.3803 29.985 55.1983 30.6366 55.1877 31.4715L55.1874 32.0163C55.1869 32.8682 55.3647 33.5386 55.7208 34.0276C56.0803 34.5131 56.574 34.7561 57.202 34.7564C57.8333 34.7568 58.3221 34.5279 58.6686 34.0699C59.015 33.6085 59.1936 32.9485 59.2043 32.0898L59.2046 31.5399ZM67.345 32.0229C67.3446 32.7492 67.2221 33.3839 66.9774 33.9268C66.7327 34.4663 66.3863 34.8785 65.9381 35.1634C65.49 35.4482 64.9672 35.5905 64.3698 35.5902C63.786 35.5899 63.2685 35.447 62.8173 35.1617C62.366 34.8729 62.0149 34.4637 61.7641 33.9341C61.5166 33.4011 61.3897 32.785 61.3833 32.0858L61.3836 31.5513C61.384 30.8385 61.5082 30.209 61.7563 29.6627C62.0044 29.1163 62.3542 28.6991 62.8058 28.4108C63.2607 28.1192 63.7801 27.9735 64.3639 27.9738C64.9579 27.9741 65.4805 28.1187 65.9317 28.4074C66.3864 28.6928 66.7357 29.1087 66.9798 29.6553C67.2239 30.1985 67.3457 30.8316 67.3453 31.5545L67.345 32.0229ZM66.3729 31.5438C66.3734 30.6647 66.1973 29.9909 65.8445 29.5223C65.4918 29.0504 64.9981 28.8142 64.3634 28.8139C63.7457 28.8135 63.2585 29.0491 62.9019 29.5207C62.5486 29.9889 62.3667 30.6405 62.356 31.4754L62.3557 32.0202C62.3552 32.8721 62.5331 33.5425 62.8892 34.0315C63.2487 34.517 63.7424 34.76 64.3703 34.7603C65.0016 34.7607 65.4905 34.5318 65.8369 34.0738C66.1834 33.6124 66.3619 32.9523 66.3726 32.0936L66.3729 31.5438ZM68.8094 35.4908L68.8135 28.078L70.906 28.0792C71.5508 28.0795 72.121 28.2224 72.6163 28.5078C73.1117 28.7931 73.4933 29.1989 73.7612 29.7252C74.0324 30.2514 74.1695 30.8556 74.1725 31.5378L74.1723 32.0113C74.1719 32.7105 74.0358 33.3231 73.764 33.849C73.4955 34.3749 73.1101 34.7786 72.6076 35.0601C72.1085 35.3415 71.5263 35.4854 70.8611 35.4919L68.8094 35.4908ZM69.7905 28.883L69.7873 34.692L70.8157 34.6925C71.5692 34.6929 72.1548 34.4591 72.5725 33.9909C72.9937 33.5227 73.2045 32.8559 73.205 31.9904L73.2052 31.5577C73.2057 30.7159 73.0075 30.0625 72.6106 29.5973C72.2172 29.1287 71.6573 28.8908 70.931 28.8836L69.7905 28.883Z" fill="white"/>
<path d="M44.9076 41.8644L45.0827 43.0693L45.3405 41.9839L47.1512 35.6099L48.1677 35.6104L49.9273 41.9864L50.1777 43.0909L50.3729 41.8611L51.7944 35.6124L53.0054 35.613L50.7854 44.7477L49.6873 44.7471L47.8086 38.0887L47.6647 37.3921L47.52 38.0885L45.5649 44.7449L44.4668 44.7443L42.2632 35.6072L43.468 35.6079L44.9076 41.8644ZM61.3731 40.4804C61.3726 41.3756 61.2215 42.1577 60.92 42.8269C60.6184 43.4918 60.1915 43.9998 59.6391 44.3509C59.0867 44.702 58.4424 44.8773 57.7062 44.8769C56.9867 44.8765 56.3489 44.7005 55.7927 44.3488C55.2366 43.993 54.8039 43.4887 54.4947 42.8359C54.1897 42.179 54.0333 41.4197 54.0254 40.558L54.0258 39.8992C54.0263 39.0207 54.1794 38.2448 54.4851 37.5715C54.7909 36.8982 55.222 36.3839 55.7786 36.0287C56.3393 35.6692 56.9794 35.4897 57.6989 35.4901C58.4309 35.4905 59.075 35.6686 59.6312 36.0245C60.1915 36.3762 60.6221 36.8888 60.9229 37.5625C61.2237 38.2319 61.3739 39.0121 61.3734 39.9031L61.3731 40.4804ZM60.1749 39.8899C60.1755 38.8065 59.9585 37.9761 59.5238 37.3986C59.089 36.8169 58.4806 36.5258 57.6983 36.5254C56.937 36.525 56.3366 36.8154 55.897 37.3966C55.4617 37.9736 55.2374 38.7767 55.2243 39.8057L55.2239 40.4771C55.2233 41.527 55.4425 42.3533 55.8814 42.9559C56.3244 43.5543 56.9329 43.8538 57.7068 43.8542C58.4848 43.8546 59.0874 43.5726 59.5144 43.0081C59.9413 42.4394 60.1614 41.6259 60.1746 40.5676L60.1749 39.8899ZM66.5305 41.0605L64.3846 41.0593L64.3825 44.7551L63.1715 44.7544L63.1766 35.6185L66.201 35.6202C67.23 35.6207 68.0205 35.8554 68.5724 36.3242C69.1285 36.793 69.4063 37.475 69.4058 38.3702C69.4054 38.9391 69.2504 39.4347 68.9406 39.857C68.635 40.2794 68.2082 40.595 67.6601 40.8038L69.8038 44.6827L69.8038 44.758L68.5112 44.7573L66.5305 41.0605ZM64.3851 40.0742L66.2361 40.0752C66.8343 40.0755 67.3092 39.921 67.6607 39.6116C68.0165 39.3023 68.1945 38.8883 68.1948 38.3696C68.1951 37.8048 68.0259 37.3718 67.6872 37.0704C67.3528 36.7691 66.8676 36.6161 66.2318 36.6116L64.387 36.6106L64.3851 40.0742ZM73.4203 40.512L72.3028 41.6722L72.3011 44.7594L71.0963 44.7587L71.1014 35.6228L72.3062 35.6235L72.3037 40.1412L76.3659 35.6257L77.8216 35.6265L74.224 39.6591L78.0988 44.7625L76.6557 44.7617L73.4203 40.512Z" fill="white"/>
</svg>
