<svg width="61" height="48" viewBox="0 0 61 48" fill="none" xmlns="http://www.w3.org/2000/svg">
<path d="M6.50203 47.0878C6.22564 47.0158 5.94086 46.922 5.65714 46.8042C5.3975 46.6973 5.1316 46.5685 4.84369 46.4136L4.97871 46.1418C5.25929 46.2935 5.51581 46.4168 5.76603 46.5194C6.03718 46.6328 6.30836 46.7223 6.57219 46.7889L6.50203 47.0878ZM7.39402 47.2384L7.41913 46.934C7.4631 46.9384 7.50817 46.9416 7.55319 46.9449C7.79504 46.9602 8.03787 46.958 8.27552 46.9384L8.29757 47.2428C8.04735 47.2646 7.7898 47.2657 7.53434 47.2515C7.48932 47.2472 7.44113 47.245 7.39402 47.2384ZM4.06685 45.9498C3.80721 45.7774 3.5685 45.5974 3.33922 45.3999L3.52555 45.1631C3.74646 45.353 3.97679 45.5254 4.22596 45.6913L4.06685 45.9498ZM9.19269 47.0922L9.1215 46.7965L9.22617 46.7671L9.25237 46.7692C9.48584 46.7965 9.74649 46.8271 10.0501 46.8697L10.0114 47.1741C9.72347 47.1337 9.47324 47.1042 9.24815 47.078L9.19269 47.0922ZM10.8835 47.3006L10.9253 46.9962L11.7985 47.1283L11.7566 47.4315L10.8835 47.3006ZM12.633 47.5581L12.6706 47.2537C12.9595 47.2941 13.2527 47.3312 13.5427 47.3661L13.5102 47.6716C13.2171 47.6378 12.923 47.5985 12.633 47.5581ZM14.3949 47.76L14.4138 47.4544L14.4379 47.4566C14.7174 47.4796 15.0043 47.5014 15.2943 47.5232L15.2733 47.8277C14.9812 47.808 14.6944 47.7851 14.4148 47.7611L14.3949 47.76ZM2.68175 44.7605C2.47864 44.5368 2.28497 44.2957 2.10594 44.0415L2.34148 43.8593C2.51422 44.1026 2.70162 44.3361 2.8953 44.5499L2.68175 44.7605ZM16.1559 47.8822L16.1727 47.5756C16.4648 47.593 16.76 47.6072 17.0521 47.6192L17.0395 47.9247C16.7443 47.9127 16.4501 47.8996 16.1559 47.8822ZM17.9221 47.9574L17.9305 47.652C18.2247 47.6607 18.5178 47.6695 18.811 47.6738L18.8057 47.9804C18.5115 47.9739 18.2174 47.9673 17.9221 47.9574ZM19.6893 47.9946L19.6935 47.6891C19.9856 47.6912 20.2809 47.6935 20.573 47.6935V48C20.2777 48 19.9835 47.9979 19.6893 47.9946ZM21.4556 47.9979L21.4534 47.6913C21.7466 47.6891 22.0408 47.6869 22.335 47.6825L22.3371 47.9891C22.045 47.9935 21.7508 47.9957 21.4556 47.9979ZM1.61071 43.2602C1.46309 42.9962 1.327 42.7158 1.20136 42.4288L1.47039 42.3034C1.58974 42.5805 1.72274 42.8511 1.86408 43.1064L1.61071 43.2602ZM23.2207 47.9738L23.2144 47.6694C23.5086 47.6629 23.8038 47.6563 24.0969 47.6498L24.1033 47.9564C23.8091 47.9629 23.5149 47.9695 23.2207 47.9738ZM24.9848 47.9335L24.9764 47.628C25.2706 47.6182 25.5658 47.6094 25.8579 47.6029L25.8684 47.9084C25.5742 47.916 25.28 47.9247 24.9848 47.9335ZM26.7489 47.88L26.7395 47.5745L27.621 47.545L27.6294 47.8516L26.7489 47.88ZM0.875728 41.5581C0.781503 41.2733 0.697743 40.9744 0.622363 40.6667L0.907167 40.5925C0.980453 40.8903 1.06212 41.185 1.15216 41.461L0.875728 41.5581ZM28.5119 47.8222L28.5025 47.5156C28.7967 47.5058 29.0919 47.4959 29.3851 47.4872L29.3945 47.7927C29.0993 47.8025 28.8061 47.8124 28.5119 47.8222ZM30.2739 47.7665L30.2645 47.461L31.1471 47.4359L31.1565 47.7425L30.2739 47.7665ZM32.038 47.7098L32.0276 47.4054C32.3197 47.3923 32.6149 47.3803 32.907 47.365L32.9217 47.6716C32.6264 47.6858 32.3343 47.6989 32.038 47.7098ZM33.8032 47.6225L33.7854 47.317C34.0796 47.3006 34.3728 47.2821 34.6649 47.2603L34.6858 47.5669C34.3916 47.5876 34.0974 47.6051 33.8032 47.6225ZM0.432898 39.7578C0.382645 39.4643 0.336589 39.1555 0.298899 38.8402L0.59201 38.802C0.627606 39.1129 0.671578 39.4163 0.722878 39.7033L0.432898 39.7578ZM35.5652 47.5047L35.5443 47.1992C35.8364 47.1763 36.1306 47.1533 36.4237 47.1304L36.4457 47.4349C36.1515 47.4589 35.8594 47.4817 35.5652 47.5047ZM37.3262 47.3595L37.3021 47.0541C37.5942 47.029 37.8873 47.0006 38.1794 46.9733L38.2056 47.2777C37.9124 47.305 37.6204 47.3323 37.3262 47.3595ZM39.084 47.1915L39.0557 46.8871C39.3489 46.8577 39.641 46.8249 39.9331 46.7955L39.9634 47.0999C39.6703 47.1315 39.3771 47.1621 39.084 47.1915ZM0.209886 37.9171C0.1879 37.6247 0.1701 37.3137 0.155443 36.994L0.44964 36.9809C0.46325 37.2962 0.479989 37.6028 0.501975 37.8931L0.209886 37.9171ZM40.8397 47.0039L40.8083 46.6994C41.1014 46.6667 41.3946 46.6329 41.6857 46.6002L41.717 46.9035C41.426 46.9395 41.1328 46.9722 40.8397 47.0039ZM42.5934 46.8031L42.5609 46.4976C42.854 46.4638 43.1461 46.4288 43.4361 46.3928L43.4707 46.6972C43.1786 46.7322 42.8865 46.7682 42.5934 46.8031ZM44.3459 46.5903L44.3135 46.287L45.1877 46.1779L45.2232 46.4812L44.3459 46.5903ZM0.13033 36.0721C0.124048 35.76 0.121919 35.4533 0.120872 35.1511L0.41507 35.149C0.41507 35.449 0.418246 35.7556 0.424527 36.0666L0.13033 36.0721ZM46.0975 46.371L46.0629 46.0666L46.9381 45.9553L46.9727 46.2597L46.0975 46.371ZM47.848 46.1495L47.8134 45.8451L48.4877 45.76C48.5526 45.7513 48.6217 45.7447 48.6928 45.7371L48.7211 46.0404C48.6509 46.0491 48.5839 46.0557 48.5222 46.0633L47.848 46.1495ZM49.5953 45.9793L49.5775 45.6727L49.9544 45.6509C50.1251 45.6422 50.2905 45.6323 50.4569 45.6225L50.4747 45.928C50.3062 45.9389 50.1418 45.9477 49.9795 45.9553L49.5953 45.9793ZM0.11985 34.2302C0.11985 33.9182 0.11777 33.593 0.108348 33.3432L0.107262 33.3159L0.401459 33.305L0.402545 33.3312C0.409874 33.5854 0.413001 33.9138 0.414048 34.2291H0.11985V34.2302ZM51.3594 45.8669L51.3374 45.5614C51.6515 45.5363 51.9363 45.5079 52.2106 45.4752L52.243 45.7807C51.9666 45.8134 51.6777 45.8407 51.3594 45.8669ZM53.1235 45.6542L53.0764 45.353C53.3706 45.3017 53.6596 45.2428 53.9328 45.1784L53.9977 45.4763C53.7192 45.5439 53.424 45.6018 53.1235 45.6542ZM54.8625 45.2395L54.7766 44.9449C54.9912 44.8762 55.2038 44.802 55.4079 44.7213C55.4718 44.6962 55.5336 44.67 55.5974 44.6438L55.7063 44.9285C55.6414 44.9547 55.5786 44.982 55.5126 45.0071C55.3011 45.09 55.0834 45.1686 54.8625 45.2395ZM0.0832351 32.3961C0.0769535 32.0895 0.070681 31.7818 0.0664932 31.4752L0.360627 31.4708C0.364815 31.7752 0.369057 32.083 0.377433 32.3896L0.0832351 32.3961ZM56.5187 44.539L56.3837 44.2662C56.6413 44.1277 56.8935 43.9717 57.1301 43.8102L57.2914 44.0655C57.0454 44.2346 56.7857 44.3939 56.5187 44.539ZM0.057036 30.5564C0.0538951 30.2477 0.0528676 29.9411 0.0507737 29.6356L0.344971 29.6334C0.347065 29.9378 0.348093 30.2455 0.351233 30.5521L0.057036 30.5564ZM58.0127 43.5068L57.8243 43.2723C58.0473 43.0781 58.2598 42.8718 58.4545 42.6579L58.6692 42.8674C58.465 43.0922 58.2441 43.3083 58.0127 43.5068ZM0.048665 28.7158L0.0465563 27.797L0.338645 27.796L0.34184 28.7158H0.048665ZM59.2481 42.1517L59.0126 41.9695C59.1822 41.7294 59.3413 41.4763 59.4837 41.2166L59.7402 41.3682C59.5915 41.6377 59.4271 41.9029 59.2481 42.1517ZM0.0392717 26.8783C0.0382247 26.5717 0.0340022 26.2641 0.0298144 25.9597L0.324012 25.9553C0.3282 26.2597 0.331311 26.5674 0.333405 26.8751L0.0392717 26.8783ZM60.1359 40.5259L59.8658 40.4092C59.9758 40.1353 60.0721 39.8484 60.1527 39.5592L60.4343 39.6443C60.3516 39.9466 60.2511 40.2422 60.1359 40.5259ZM0.0183123 25.042C0.0141245 24.7376 0.00992655 24.4299 0.00783266 24.1222L0.301008 24.1189C0.304149 24.4277 0.307236 24.7332 0.311423 25.0376L0.0183123 25.042ZM60.3464 38.6787C60.3956 38.3885 60.4301 38.0862 60.451 37.784L60.7432 37.8058C60.7222 38.119 60.6866 38.4299 60.6363 38.7332L60.3464 38.6787ZM0.00157042 23.2024C-0.000523472 22.8958 -0.000523472 22.5903 0.00157042 22.2826L0.295768 22.2837C0.293674 22.5903 0.293674 22.8958 0.295768 23.2013L0.00157042 23.2024ZM60.4804 36.8707C60.4887 36.5652 60.494 36.2586 60.5003 35.952L60.7944 35.9586C60.7882 36.2641 60.7808 36.5717 60.7746 36.8783L60.4804 36.8707ZM0.00994137 21.3617C0.0130822 21.0562 0.0182929 20.7485 0.0245746 20.4408L0.318772 20.4474C0.31249 20.754 0.30724 21.0606 0.303053 21.365L0.00994137 21.3617ZM60.5139 35.0366C60.5181 34.73 60.5212 34.4234 60.5243 34.1179L60.8185 34.1201C60.8154 34.4267 60.8122 34.7332 60.808 35.0388L60.5139 35.0366ZM0.0476426 19.521C0.0570651 19.2155 0.0685631 18.9078 0.0811264 18.6001L0.374238 18.6154C0.361674 18.9209 0.351263 19.2264 0.34184 19.5308L0.0476426 19.521ZM60.5317 33.1991C60.5327 32.8925 60.5348 32.5859 60.5348 32.2804H60.829C60.829 32.587 60.8269 32.8936 60.8249 33.2013L60.5317 33.1991ZM0.126112 17.6803L0.141832 17.3879C0.150207 17.2515 0.153349 16.9689 0.155443 16.7681L0.44964 16.7725C0.445452 17.102 0.441289 17.2962 0.435007 17.4075L0.418265 17.6988L0.126112 17.6803ZM60.5338 31.3617C60.5317 31.0551 60.5306 30.7485 60.5285 30.443L60.8227 30.4408C60.8238 30.7474 60.8259 31.0551 60.828 31.3606L60.5338 31.3617ZM0.160682 15.8505C0.163823 15.5505 0.169034 15.2406 0.175316 14.9274L0.469513 14.9362C0.461138 15.2482 0.458021 15.5548 0.45488 15.8527L0.160682 15.8505ZM60.5223 29.5254C60.5202 29.2199 60.516 28.9132 60.5118 28.6066L60.806 28.6023C60.8102 28.9089 60.8144 29.2166 60.8165 29.5232L60.5223 29.5254ZM0.206755 14.0055C0.222459 13.6803 0.242358 13.3781 0.266438 13.0835L0.560635 13.1086C0.535508 13.401 0.516617 13.6988 0.499866 14.0207L0.206755 14.0055ZM60.4992 27.688C60.4929 27.3824 60.4877 27.0747 60.4825 26.7681L60.7767 26.7627C60.7819 27.0693 60.7872 27.3759 60.7924 27.6825L60.4992 27.688ZM0.363822 12.1636C0.404653 11.8461 0.45382 11.5374 0.507214 11.2471L0.796172 11.3049C0.741731 11.5908 0.694648 11.8931 0.655911 12.2041L0.363822 12.1636ZM60.4646 25.8516C60.4573 25.545 60.45 25.2395 60.4427 24.9329L60.7369 24.9242C60.7452 25.2308 60.7515 25.5384 60.7588 25.845L60.4646 25.8516ZM0.991963 10.4201L0.708245 10.3415C0.787813 10.0327 0.877845 9.73372 0.978352 9.4533L1.25472 9.55806C1.15945 9.83193 1.07153 10.1222 0.991963 10.4201ZM60.4186 24.0142C60.4113 23.7087 60.4018 23.401 60.3935 23.0955L60.6877 23.0868C60.696 23.3912 60.7044 23.6989 60.7128 24.0055L60.4186 24.0142ZM1.59499 8.72667L1.33325 8.59135C1.46622 8.30548 1.61597 8.03269 1.77615 7.77628L2.02217 7.9443C1.86826 8.18871 1.72586 8.45281 1.59499 8.72667ZM60.3642 22.1779L60.3359 21.2591L60.6301 21.2483L60.6584 22.168L60.3642 22.1779ZM2.53938 7.22746L2.31636 7.02668C2.51319 6.78772 2.72782 6.56409 2.95396 6.36005L3.14656 6.59247C2.93193 6.78669 2.72782 7.00051 2.53938 7.22746ZM60.3055 20.3404L60.271 19.4217L60.5652 19.4097L60.5976 20.3295L60.3055 20.3404ZM3.83336 6.05125L3.67425 5.79485C3.92761 5.62246 4.1935 5.46972 4.46361 5.34206L4.58611 5.62137C4.32856 5.74248 4.0752 5.88758 3.83336 6.05125ZM60.2365 18.503L60.2009 17.5843L60.4951 17.5712L60.5296 18.4899L60.2365 18.503ZM5.16926 4.85651L4.93161 4.67537C5.1075 4.42442 5.30326 4.18217 5.51055 3.9574L5.72308 4.16798C5.52521 4.38293 5.33782 4.61538 5.16926 4.85651ZM60.1642 16.6666L60.1255 15.748L60.4218 15.7348L60.4584 16.6525L60.1642 16.6666ZM6.36068 3.56682L6.1785 3.32461C6.40778 3.13584 6.65904 2.95906 6.92601 2.79976L7.0726 3.06488C6.81924 3.21764 6.5774 3.38569 6.36068 3.56682ZM7.84733 2.6677L7.73429 2.38407C7.99916 2.2695 8.28285 2.16038 8.57809 2.06654L8.66397 2.36109C8.3792 2.45057 8.10383 2.55423 7.84733 2.6677ZM60.0888 14.8292L60.0501 13.9105L60.3432 13.8953L60.383 14.8161L60.0888 14.8292ZM9.50573 2.132L9.44292 1.83412C9.72455 1.76975 10.0198 1.7152 10.3223 1.67156L10.3631 1.97377C10.069 2.01742 9.78003 2.0709 9.50573 2.132ZM11.2321 1.87448L11.2101 1.57007C11.5002 1.54606 11.7996 1.52973 12.1 1.52318L12.1074 1.82759C11.81 1.83632 11.5169 1.85156 11.2321 1.87448ZM60.0553 12.9831C60.0574 12.6732 60.048 12.3699 60.0249 12.0796L60.317 12.0545C60.3411 12.3546 60.3516 12.6688 60.3474 12.9864L60.0553 12.9831ZM12.9805 1.83192L12.991 1.52751C13.1585 1.53188 13.3124 1.53952 13.4474 1.54716C13.595 1.55807 13.7385 1.56896 13.8809 1.58205L13.8547 1.8854C13.7155 1.87231 13.5741 1.8625 13.4297 1.85377C13.2967 1.84504 13.147 1.83629 12.9805 1.83192ZM14.7697 1.74468L14.6085 1.48935C14.8535 1.32132 15.1173 1.16526 15.3937 1.02778L15.5204 1.30382C15.2555 1.43584 15.0042 1.58429 14.7697 1.74468ZM59.9046 11.1882C59.8449 10.8892 59.7695 10.5968 59.6774 10.3218L59.9559 10.2215C60.0522 10.5106 60.1307 10.814 60.1935 11.1271L59.9046 11.1882ZM16.3192 0.962312L16.224 0.672087C16.4972 0.573887 16.7872 0.488771 17.0856 0.416758L17.1526 0.714642C16.8657 0.784473 16.5852 0.868477 16.3192 0.962312ZM18.0079 0.543357L17.9619 0.240012C18.2477 0.194185 18.5461 0.157073 18.8466 0.129796L18.8727 0.434206C18.5785 0.461484 18.2875 0.49753 18.0079 0.543357ZM19.7459 0.380796L19.7364 0.0741879C20.0191 0.0654591 20.3175 0.0621905 20.6243 0.0654639L20.6201 0.372005C20.3175 0.368732 20.0233 0.370976 19.7459 0.380796ZM59.3403 9.49919C59.2083 9.23296 59.0565 8.97868 58.8859 8.73973L59.1236 8.55972C59.3015 8.80958 59.4606 9.07908 59.5999 9.3584L59.3403 9.49919ZM21.4964 0.401507L21.511 0.0959648C21.6335 0.10142 21.7581 0.108014 21.8838 0.116743C22.0555 0.128745 22.2261 0.139637 22.3936 0.151639L22.3727 0.457115C22.2041 0.444022 22.0356 0.43313 21.867 0.422219C21.7424 0.412399 21.6189 0.406963 21.4964 0.401507ZM23.2489 0.530237L23.2751 0.225827C23.4856 0.245467 23.6939 0.265099 23.9012 0.28583L24.1546 0.308739L24.1284 0.614282L23.875 0.59024C23.6688 0.5706 23.4594 0.549877 23.2489 0.530237ZM25.0089 0.692798L25.0319 0.387322C25.19 0.401507 25.3459 0.411333 25.4957 0.421153C25.6422 0.429882 25.7794 0.437526 25.9051 0.440799L25.8956 0.747407C25.7658 0.743043 25.6276 0.735383 25.4779 0.725563C25.3271 0.717926 25.1701 0.706983 25.0089 0.692798ZM26.7824 0.753933V0.447325C27.0765 0.449508 27.3708 0.449523 27.6649 0.449523L27.6639 0.756131C27.3708 0.753949 27.0765 0.753933 26.7824 0.753933ZM58.3247 8.06324C58.1237 7.85812 57.9038 7.66284 57.6693 7.48499L57.8431 7.23619C58.0881 7.42386 58.3195 7.62792 58.532 7.84614L58.3247 8.06324ZM46.0996 4.9285V4.6219C46.1865 4.6219 46.2734 4.62517 46.3613 4.62736L46.3875 4.62842C46.5288 4.63279 46.6471 4.63939 46.7487 4.64594C46.8314 4.65248 46.9131 4.65795 46.9937 4.66558L46.9675 4.96999C46.889 4.96345 46.8115 4.95684 46.7298 4.95248C46.6314 4.94484 46.5162 4.93942 46.377 4.93396L46.3508 4.9329C46.2681 4.93072 46.1823 4.9285 46.0996 4.9285ZM28.5465 0.758262L28.5475 0.453852L29.4301 0.456049L29.428 0.762657L28.5465 0.758262ZM45.3615 4.40912C45.2348 4.13744 45.0903 3.87339 44.9385 3.62462L45.1855 3.45766C45.3436 3.71626 45.4923 3.99015 45.6253 4.27493L45.3615 4.40912ZM56.9407 7.0071C56.7187 6.88489 56.4831 6.77029 56.2486 6.67319L56.1544 6.63609L56.2581 6.34913L56.3554 6.38729C56.6046 6.48985 56.8486 6.60661 57.0789 6.73645L56.9407 7.0071ZM30.3095 0.764855L30.3106 0.459313C30.6038 0.459313 30.899 0.460445 31.1921 0.460445V0.765921C30.899 0.765921 30.6048 0.765946 30.3095 0.764855ZM47.8731 4.83793L47.7914 4.54444C48.0762 4.45606 48.3745 4.39059 48.675 4.34586L48.7137 4.65027C48.4279 4.69173 48.1453 4.75392 47.8731 4.83793ZM54.6887 6.31969L54.6468 6.28367C54.5809 6.22256 54.5159 6.16472 54.45 6.10799L54.6385 5.87124C54.695 5.91925 54.7494 5.96944 54.8049 6.02181C55.0017 6.0349 55.1954 6.05999 55.3839 6.096L55.3294 6.39821C55.1357 6.36002 54.9379 6.33383 54.74 6.32183L54.6887 6.31969ZM32.0747 0.763723V0.458247C32.3679 0.457156 32.662 0.456034 32.9562 0.453852L32.9583 0.758262C32.6631 0.762626 32.3689 0.763723 32.0747 0.763723ZM53.7496 5.593C53.5088 5.44461 53.2481 5.31147 52.979 5.19908L53.0889 4.91538C53.3727 5.03322 53.6449 5.17183 53.8982 5.32895L53.7496 5.593ZM49.5733 4.59133L49.5744 4.28472C49.7125 4.28472 49.8529 4.28911 49.9911 4.29784C50.1439 4.30875 50.2999 4.32077 50.4695 4.34259L50.4371 4.647C50.2738 4.62627 50.1198 4.6132 49.9732 4.60338C49.8403 4.59465 49.7063 4.59133 49.5733 4.59133ZM33.8398 0.749538L33.8356 0.44293C33.9717 0.440748 34.1089 0.438586 34.2439 0.436404C34.3151 0.435312 34.468 0.417873 34.7004 0.387322L34.7371 0.691733C34.4868 0.725557 34.3319 0.740855 34.2482 0.741946C34.1131 0.745219 33.9759 0.747356 33.8398 0.749538ZM51.3081 4.75396L51.3489 4.45168C51.662 4.49641 51.9561 4.55428 52.2304 4.62629L52.1593 4.92304C51.8954 4.8543 51.6107 4.79869 51.3081 4.75396ZM44.4276 2.90012C44.2433 2.6699 44.0433 2.45276 43.8329 2.24981L44.0308 2.02399C44.2517 2.23457 44.46 2.4626 44.6537 2.70373L44.4276 2.90012ZM35.6144 0.566266L35.5725 0.263987C35.851 0.222524 36.1452 0.181104 36.4509 0.142915L36.4854 0.44626C36.1818 0.48554 35.8898 0.525895 35.6144 0.566266ZM37.3565 0.353492L37.3346 0.0490813C37.6476 0.0228946 37.9376 0.00654665 38.2244 0L38.2307 0.306541C37.9491 0.311997 37.6643 0.328396 37.3565 0.353492ZM43.1608 1.68681C42.9682 1.54606 42.7671 1.41185 42.5598 1.29183C42.5148 1.26564 42.4708 1.23947 42.4258 1.21438L42.5651 0.943799C42.6101 0.971076 42.6572 0.997235 42.7033 1.02451C42.921 1.14999 43.1315 1.28967 43.3325 1.43588L43.1608 1.68681ZM39.1008 0.316398L39.1154 0.00978961L39.2075 0.0152505C39.4818 0.0337993 39.7498 0.0610392 40.0074 0.099228L39.9655 0.401507C39.7174 0.36441 39.4578 0.337134 39.1908 0.321858L39.1008 0.316398ZM41.6406 0.843372C41.3736 0.738625 41.0962 0.646988 40.8146 0.572792L40.8858 0.277106C41.1778 0.353484 41.4689 0.44734 41.7432 0.557542L41.6406 0.843372Z" fill="white"/>
<path d="M15.8691 45.4095C15.4419 45.3833 15.0158 45.3517 14.6033 45.3178C13.5992 45.2338 12.5691 45.0767 11.5724 44.9272C10.6375 44.7854 9.75068 44.6511 8.98955 44.59C8.67128 44.7188 8.22635 44.8366 7.67461 44.8017C6.94698 44.757 6.32718 44.4602 5.81836 44.1776C5.16717 43.8132 4.47622 43.3407 3.83758 42.3511C2.47551 40.2365 2.47233 37.0789 2.47024 34.5431C2.47024 34.0641 2.47028 33.6113 2.45771 33.2578C2.40641 31.7117 2.40222 30.159 2.39803 28.6577C2.39594 27.7084 2.39278 26.7253 2.37707 25.7695C2.33729 23.1552 2.32156 20.3478 2.48698 17.5371C2.50059 17.2894 2.50375 16.8574 2.50794 16.398C2.52993 12.793 2.7058 9.68 4.64055 8.08262C5.12529 7.68436 5.65508 7.42362 6.22567 7.30578C6.44866 6.6773 6.83704 5.92226 7.59607 5.27959C9.27119 3.86006 12.388 3.93748 13.304 3.99422C14.0003 4.03678 14.5855 4.13284 15.0839 4.28778C15.6021 3.64293 16.4124 3.08314 17.675 2.78963C18.8026 2.52668 20.0548 2.45795 21.7445 2.56161C22.403 2.60307 23.0542 2.66529 23.6856 2.7253C24.275 2.78204 24.8309 2.83551 25.3554 2.86715C25.6967 2.88897 25.9909 2.89874 26.2516 2.89765C27.1185 2.89765 27.9853 2.90097 28.8511 2.90425C30.6351 2.91079 32.482 2.9184 34.2817 2.88567C34.6031 2.87912 35.1642 2.79727 35.7045 2.71871C36.7441 2.56377 37.9229 2.3903 39.0662 2.46231C40.0378 2.52342 40.8491 2.75147 41.5485 3.16064C43.2173 4.13827 43.8894 5.85789 44.1575 7.56657C44.6568 7.28942 45.3478 7.04061 46.2807 7.07662L46.2985 7.07775C46.4189 7.08211 46.5204 7.08645 46.6062 7.093C46.9978 7.11701 47.314 7.17809 47.6072 7.27847C47.7538 7.19009 47.8835 7.12354 47.9851 7.07662C48.5504 6.81039 49.1598 6.70129 49.8476 6.74384C50.0664 6.75802 50.2549 6.7842 50.4035 6.80384C50.4559 6.81257 50.5061 6.81912 50.5564 6.82349C52.1006 6.96206 52.9749 7.40615 53.7883 8.46235C53.7946 8.46889 53.7998 8.47655 53.8051 8.48419H54.0951C54.2458 8.46237 54.4206 8.45254 54.6164 8.46455C54.9001 8.48419 55.1786 8.54418 55.4425 8.65002C58.131 9.72476 58.0232 12.3413 57.9886 13.2011C57.9803 13.392 57.9719 13.5709 57.9792 13.7116C58.3195 21.656 58.6095 29.4411 58.4095 37.3342C58.3425 39.8797 57.015 41.7903 54.6741 42.7177C53.1319 43.3277 51.3876 43.4226 49.8507 43.511C49.2582 43.5437 48.6949 43.5753 48.2385 43.632L46.7769 43.8176C41.5726 44.4766 36.1913 45.1585 30.7817 45.3003C29.784 45.3265 28.781 45.3625 27.7707 45.3942C23.874 45.5229 19.8401 45.6572 15.8691 45.4095Z" fill="white"/>
<path d="M48.1778 11.2216C48.8342 11.1496 50.0225 11.2009 50.1021 11.9439C49.6435 11.9428 48.5652 12.1185 48.3306 11.7966C48.2689 11.7115 48.0961 11.2358 48.1778 11.2216Z" fill="#FFC973"/>
<path d="M43.8832 11.9063C44.2329 11.1557 45.3447 11.0091 45.4138 11.9314C45.6933 11.9304 43.8675 11.9588 43.8832 11.9063Z" fill="#FFC973"/>
<path d="M15.2179 12.2429C16.0952 12.2396 16.6355 12.244 17.0658 11.3297C17.4657 10.4819 16.7391 8.91287 17.183 8.19274C17.7724 7.23802 21.5635 7.97561 22.8386 7.99089C27.3164 8.04871 31.834 8.11961 36.3034 7.82719C38.7208 7.66789 38.7281 7.83815 38.9082 10.4623C39.0087 11.9396 38.5522 13.5086 40.176 13.8425C41.0858 14.0301 42.4782 13.6145 43.4519 13.5915C44.6109 13.5621 45.772 13.5653 46.932 13.5664C47.9496 13.5686 48.9662 13.5839 49.9859 13.5871C50.6172 13.5882 51.2904 13.4988 51.8379 13.7476C52.1059 13.8698 52.2661 14.0138 52.6012 13.9113C52.7174 16.447 52.8335 18.9816 52.9759 21.5152C49.9995 21.6909 47.0304 21.7301 44.0529 21.8251C42.7379 21.8665 40.5707 22.4972 39.3437 22.2157C38.4789 22.0171 38.7606 21.9746 38.3093 20.7962C38.0256 20.052 37.6906 19.2729 37.3042 18.579C34.0273 12.6925 24.6917 13.4988 21.0023 18.4939C20.5008 19.1747 20.0003 21.2336 19.3481 21.5741C18.4833 22.0236 15.8838 21.3744 14.9007 21.3057C13.3994 21.1988 11.9169 20.9347 10.4187 20.8278C9.27335 20.7471 7.0622 21.2151 6.02364 20.6685C5.26565 20.2692 5.53783 19.8916 5.59646 18.8223C5.64043 17.9996 5.70223 17.1769 5.76714 16.3542C5.83624 15.5042 5.67184 13.2795 6.19636 12.6117C6.76066 11.8938 8.76452 12.2277 9.68583 12.2364C11.5295 12.2571 13.3742 12.2484 15.2179 12.2429Z" fill="#FF5947"/>
<path d="M19.904 26.2602C20.5699 21.6524 23.5034 17.0196 28.3413 16.3889C33.5865 15.7059 37.1807 18.9988 37.6068 24.5231C38.0057 29.7146 34.3435 35.1091 29.2082 35.6066C26.8986 35.8292 24.1117 35.084 22.1811 33.7397C19.8203 32.0965 19.6015 28.9738 19.904 26.2602Z" fill="#FFC973"/>
<path d="M8.52163 10.0235C8.79489 8.68469 8.97386 9.25753 9.80514 8.98039C10.2365 8.83636 11.9273 8.86148 12.3859 9.02188C13.3512 9.36121 13.0863 9.32195 13.1334 10.6095C12.1974 10.6138 8.44102 11.0088 8.52163 10.0235Z" fill="#FFC973"/>
<path d="M52.9435 39.0514C47.5622 39.6941 42.2081 40.6891 36.8038 41.1289C30.6833 41.6286 24.521 41.6908 18.3838 41.6985C15.8523 41.7028 13.3941 41.573 10.8878 41.3122C9.48275 41.1671 6.73242 41.4704 6.08436 40.076C5.63627 39.1049 5.80796 37.1376 5.71374 36.0487C5.5902 34.6269 5.5682 33.1976 5.55878 31.7737C5.53679 28.6019 5.45406 25.4278 5.48338 22.256C9.9109 22.6804 14.4683 22.987 18.9178 23.0383C17.2877 29.3635 18.611 35.2369 25.3094 36.8387C28.558 37.6145 30.9263 37.0765 33.82 35.4595C36.7724 33.8097 38.0266 31.1627 38.8129 27.8501C38.971 27.1791 39.1353 26.5124 39.1856 25.8217C39.2076 25.5107 38.9228 23.9069 39.0861 23.6232C39.4777 22.9456 42.4667 23.2118 43.2058 23.1823C44.7804 23.1179 46.3571 23.1037 47.9328 23.0656C49.1933 23.0361 50.9072 22.6182 52.1258 22.8714C53.2544 23.106 52.7508 22.6946 53.0827 23.7988C53.3162 24.5724 53.1298 25.6679 53.1424 26.4961C53.1686 28.0913 53.2094 29.6864 53.2209 31.2816C53.2283 32.2484 53.2921 39.0099 52.9435 39.0514Z" fill="#FFC973"/>
<path d="M55.7409 37.2588C55.9388 29.4181 55.6477 21.668 55.3127 13.8349C55.2624 12.6642 55.6404 11.7084 54.4908 11.249C54.4217 11.2217 54.3338 11.2861 54.2626 11.2643C53.9108 11.2654 53.5611 11.2675 53.2093 11.2686C52.5383 11.5632 52.22 11.4072 52.2567 10.7994C51.3856 10.0357 51.7583 9.72582 50.3282 9.59598C49.9356 9.56106 49.4697 9.43233 49.0865 9.61236C48.2751 9.99425 48.2542 10.4317 48.5798 11.2534C46.623 11.2381 48.2081 10.7242 47.1894 10.1306C46.756 9.87856 46.7068 9.87967 46.1833 9.86003C45.4557 9.83057 45.2348 10.1743 44.7082 10.5191C44.5124 10.6489 44.5145 11.1115 44.3742 11.2097C43.8937 11.5403 42.3264 11.3745 41.6553 11.4738C41.6375 9.81421 41.8815 6.54847 40.2409 5.58829C38.8129 4.74923 35.9139 5.64286 34.3277 5.67014C31.6392 5.71706 28.9454 5.67999 26.2569 5.68326C23.8028 5.68544 20.64 4.95332 18.2613 5.50651C16.1266 6.00297 17.1589 7.34175 16.7296 8.99914C16.7642 8.86712 16.738 10.9981 15.8219 9.93095C15.4503 9.49997 18.1462 13.5294 15.7277 9.3232C15.1247 8.27464 15.9423 7.60141 14.4776 7.01112C13.3899 6.57249 10.1747 6.68488 9.28273 7.43993C8.34363 8.23644 8.78858 9.5523 7.91124 9.96365C7.30506 10.2484 6.9292 9.74869 6.29999 10.2681C4.94001 11.3886 5.24987 16.0925 5.15355 17.7106C4.99651 20.3816 5.00805 23.0504 5.04889 25.7258C5.08658 28.2037 5.04576 30.6871 5.12742 33.1639C5.19547 35.2163 4.9243 39.0483 6.055 40.8017C6.35756 41.2752 6.62976 41.4749 7.07785 41.7248C8.26718 42.3871 7.88922 41.7466 8.77703 41.7902C10.5579 41.8764 12.8266 42.3794 14.8179 42.5453C20.0505 42.9828 25.4706 42.6587 30.7158 42.5202C36.4897 42.3663 42.1945 41.5895 47.9192 40.8693C50.8318 40.5016 55.6404 41.1203 55.7409 37.2588ZM49.2854 10.5452C49.9419 10.4754 51.1301 10.5256 51.2097 11.2686C50.7512 11.2675 49.6718 11.4432 49.4394 11.1202C49.3765 11.0373 49.2048 10.5605 49.2854 10.5452ZM44.9919 11.2304C45.3426 10.4808 46.4545 10.3346 46.5226 11.2544C46.801 11.2533 44.9751 11.2828 44.9919 11.2304ZM16.3265 11.5687C17.2028 11.5654 17.7441 11.5709 18.1744 10.6543C18.5733 9.80762 17.8467 8.23971 18.2917 7.51958C18.8811 6.56377 22.6721 7.30029 23.9462 7.31666C28.424 7.3734 32.9416 7.44429 37.411 7.15297C39.8284 6.99367 39.8357 7.16276 40.0158 9.78797C40.1163 11.2642 39.6598 12.8343 41.2847 13.1693C42.1935 13.3548 43.5859 12.9391 44.5595 12.9162C45.7185 12.8867 46.8806 12.8911 48.0396 12.8933C49.0572 12.8944 50.0748 12.9097 51.0935 12.9119C51.7248 12.9151 52.3991 12.8235 52.9456 13.0734C53.2146 13.1956 53.3738 13.3385 53.7088 13.237C53.8261 15.7716 53.9412 18.3074 54.0836 20.8409C51.1071 21.0166 48.139 21.0569 45.1605 21.1508C43.8455 21.1912 41.6783 21.8229 40.4513 21.5403C39.5876 21.3417 39.8682 21.2992 39.417 20.1208C39.1332 19.3778 38.7992 18.5987 38.4119 17.9048C35.1339 12.0182 25.7993 12.8246 22.1109 17.8197C21.6094 18.5005 21.108 20.5605 20.4547 20.8988C19.592 21.3483 16.9913 20.7002 16.0104 20.6303C14.507 20.5256 13.0245 20.2616 11.5263 20.1546C10.381 20.0717 8.16986 20.5409 7.13338 19.9942C6.3733 19.5949 6.64654 19.2195 6.70307 18.1502C6.74914 17.3254 6.80984 16.5038 6.8758 15.6822C6.94385 14.8322 6.78052 12.6074 7.30399 11.9375C7.8683 11.2195 9.87213 11.5556 10.7945 11.5644C12.6382 11.584 14.4818 11.573 16.3265 11.5687ZM21.0117 25.5861C21.6786 20.9784 24.611 16.3445 29.451 15.7138C34.6962 15.0319 38.2894 18.3248 38.7144 23.8502C39.1133 29.0395 35.4511 34.435 30.3169 34.9315C28.0063 35.1552 25.2203 34.41 23.2898 33.0668C20.9279 31.4214 20.7091 28.2997 21.0117 25.5861ZM9.63029 9.3483C9.90145 8.00951 10.0816 8.58344 10.9128 8.30521C11.3442 8.16119 13.035 8.18737 13.4946 8.34777C14.4588 8.68601 14.1929 8.6478 14.2421 9.93422C13.3061 9.93858 9.54863 10.3347 9.63029 9.3483ZM54.0542 38.3762C48.6709 39.0199 43.3168 40.0139 37.9125 40.4547C31.792 40.9533 25.6297 41.0155 19.4946 41.0232C16.961 41.0275 14.5028 40.8999 11.9964 40.6391C10.5914 40.4929 7.84107 40.7952 7.19511 39.4018C6.74492 38.4307 6.91664 36.4634 6.82346 35.3734C6.70097 33.9528 6.67793 32.5245 6.6685 31.0984C6.64757 27.9277 6.56483 24.7537 6.5931 21.5807C11.0206 22.0074 15.5801 22.3139 20.0275 22.3652C18.3995 28.6882 19.7218 34.5627 26.4202 36.1634C29.6689 36.9392 32.0359 36.4012 34.9318 34.7842C37.8821 33.1344 39.1374 30.4896 39.9236 27.1759C40.0817 26.5049 40.2451 25.8382 40.2953 25.1465C40.3194 24.8366 40.0315 23.2337 40.1969 22.9489C40.5895 22.2714 43.5775 22.5365 44.3177 22.5081C45.8923 22.4438 47.4679 22.4296 49.0425 22.3925C50.3031 22.3608 52.018 21.9429 53.2355 22.1961C54.3642 22.4307 53.8616 22.0215 54.1925 23.1246C54.4238 23.8971 54.2396 24.9926 54.2532 25.8218C54.2783 27.417 54.3191 29.0122 54.3317 30.6064C54.338 31.5753 54.3997 38.3347 54.0542 38.3762Z" fill="#2C2C2C"/>
<path d="M42.7891 30.2964C41.159 28.1098 38.8139 31.4518 39.06 33.1474C39.7426 37.8632 46.0074 33.2478 42.7891 30.2964ZM41.9757 32.6848C41.1831 34.3837 40.1038 33.2413 40.7319 32.041C41.3046 30.9488 42.362 31.5959 41.9757 32.6848Z" fill="#2C2C2C"/>
<path d="M22.5497 28.5299C23.2333 33.8196 28.1152 35.4344 32.4307 33.4442C36.8656 31.4006 38.2768 26.148 37.1639 21.394C36.0688 16.7099 31.8538 15.1038 27.9246 17.5588C24.8006 19.5108 22.0513 24.6717 22.5497 28.5299ZM23.7505 26.783C24.319 23.0209 27.3331 18.8223 31.0645 18.0662C35.8909 17.0885 36.5128 23.5151 36.0636 27.1147C35.2407 34.6412 22.9045 35.19 23.7505 26.783Z" fill="#2C2C2C"/>
<path d="M23.7504 26.7831C24.3189 23.0209 27.333 18.8223 31.0644 18.0662C35.8908 17.0885 36.5127 23.5151 36.0635 27.1147C35.2406 34.6412 22.9044 35.19 23.7504 26.7831Z" fill="#83EFF5"/>
</svg>
