<svg width="68" height="48" viewBox="0 0 68 48" fill="none" xmlns="http://www.w3.org/2000/svg">
<path d="M7.80874 47.7357C7.52808 47.6913 7.25262 47.6338 6.98547 47.5677L7.05094 47.2872C7.30978 47.3533 7.58004 47.4074 7.85239 47.4518L7.80874 47.7357ZM7.9501 47.7584L7.98855 47.4735C8.03533 47.48 8.08317 47.4865 8.13098 47.493C8.3524 47.5223 8.58003 47.5482 8.80561 47.571L8.77959 47.857C8.5509 47.8354 8.32119 47.8083 8.09666 47.779C8.0478 47.7725 7.99896 47.7649 7.9501 47.7584ZM9.61124 47.9241L9.62787 47.6371C9.89606 47.6555 10.1715 47.6674 10.4522 47.6772L10.4418 47.9643C10.1611 47.9567 9.88151 47.9426 9.61124 47.9241ZM6.17774 47.3218C5.90955 47.2265 5.64763 47.1171 5.39399 46.9957L5.50933 46.7347C5.75258 46.8517 6.00726 46.9579 6.26713 47.0499L6.17774 47.3218ZM11.2765 47.9827V47.6945H11.4605C11.6757 47.6945 11.8898 47.6934 12.1029 47.6901L12.1071 47.9784C11.8919 47.9816 11.6767 47.9838 11.4594 47.9838L11.2765 47.9827ZM12.9366 47.9577L12.9283 47.6696C13.2048 47.6609 13.4802 47.6501 13.7546 47.6371L13.7671 47.9263C13.4906 47.9382 13.2152 47.9502 12.9366 47.9577ZM4.6497 46.5895C4.40646 46.4389 4.17256 46.2742 3.94907 46.0987L4.11435 45.868C4.33056 46.0381 4.55612 46.1962 4.78897 46.3403L4.6497 46.5895ZM14.5956 47.8841L14.581 47.5959C14.8586 47.5797 15.133 47.5645 15.4075 47.5472L15.4241 47.8353C15.1497 47.8527 14.8721 47.8678 14.5956 47.8841ZM16.2505 47.7866L16.236 47.4985C16.5166 47.4822 16.7921 47.467 17.0644 47.4518L17.0769 47.74C16.8066 47.7552 16.5311 47.7704 16.2505 47.7866ZM3.30458 45.5289C3.10292 45.3284 2.90749 45.114 2.72558 44.8897L2.93761 44.7044C3.11225 44.919 3.29939 45.1291 3.49378 45.3198L3.30458 45.5289ZM17.9033 47.7021L17.8929 47.415C18.0894 47.4074 18.2827 47.4031 18.475 47.3966L18.7245 47.3923L18.7307 47.6794L18.4823 47.6848C18.289 47.6891 18.0977 47.6956 17.9033 47.7021ZM19.5572 47.662L19.5509 47.3738L20.3804 47.3532L20.3856 47.6425L19.5572 47.662ZM21.2162 47.623L21.2099 47.3359L22.0384 47.3164L22.0436 47.6046L21.2162 47.623ZM22.8732 47.5862L22.8669 47.2969L23.6954 47.2785L23.7016 47.5667L22.8732 47.5862ZM2.22036 44.1877C2.06547 43.9461 1.92102 43.6915 1.79108 43.4315L2.03433 43.2972C2.16219 43.5485 2.30039 43.7944 2.448 44.0274L2.22036 44.1877ZM24.5301 47.5482L24.5238 47.2601L25.3523 47.2406L25.3586 47.5287L24.5301 47.5482ZM26.186 47.5092L26.1798 47.2211L27.0093 47.2016L27.0145 47.4897L26.186 47.5092ZM27.843 47.4713L27.8367 47.1832L28.6663 47.1637L28.6715 47.4518L27.843 47.4713ZM29.501 47.4334L29.4937 47.1452L30.3232 47.1257L30.3295 47.4139L29.501 47.4334ZM1.43762 42.6342L1.40749 42.554C1.31601 42.3113 1.23285 42.0611 1.16113 41.8076L1.42519 41.7252C1.49691 41.9722 1.57691 42.2139 1.66527 42.4489L1.69337 42.5269L1.43762 42.6342ZM31.1579 47.3955L31.1517 47.1073L31.9812 47.0878L31.9875 47.376L31.1579 47.3955ZM32.8149 47.3576L32.8087 47.0694L33.6372 47.0499L33.6434 47.3381L32.8149 47.3576ZM34.4719 47.3208L34.4656 47.0315L35.2951 47.0142L35.3003 47.3002L34.4719 47.3208ZM36.1288 47.2806L36.1226 46.9936L36.9511 46.973L36.9573 47.2611L36.1288 47.2806ZM37.7858 47.2428L37.7785 46.9568L38.608 46.9361L38.6143 47.2233L37.7858 47.2428ZM39.4428 47.2059L39.4365 46.9166L40.2661 46.8993L40.2723 47.1854L39.4428 47.2059ZM0.953213 40.9593C0.89708 40.6831 0.848223 40.3927 0.809761 40.098L1.08213 40.0591C1.1206 40.3483 1.16738 40.63 1.22248 40.8998L0.953213 40.9593ZM41.1008 47.168L41.0945 46.8798L41.923 46.8592L41.9292 47.1485L41.1008 47.168ZM42.7577 47.129L42.7515 46.8408L43.58 46.8224L43.5862 47.1106L42.7577 47.129ZM44.4136 47.0922L44.4074 46.8029L45.2359 46.7834L45.2421 47.0716L44.4136 47.0922ZM46.0716 47.0532L46.0644 46.7661L46.8939 46.7455L46.9001 47.0337L46.0716 47.0532ZM47.7286 47.0152L47.7224 46.7271L48.5519 46.7065L48.5581 46.9947L47.7286 47.0152ZM0.720366 39.2303C0.699576 38.9562 0.683977 38.6713 0.674621 38.3625L0.950104 38.3517C0.960499 38.6561 0.976073 38.9378 0.996863 39.2076L0.720366 39.2303ZM49.3866 46.9762L49.3804 46.6892L50.2089 46.6685L50.2151 46.9578L49.3866 46.9762ZM51.0394 46.9427L51.0384 46.6545H51.1507C51.3825 46.6545 51.6226 46.6588 51.87 46.6653L51.8637 46.9535C51.6163 46.947 51.3783 46.9438 51.1486 46.9427H51.0394ZM52.6912 46.9784L52.7005 46.6902L53.5301 46.7195L53.5197 47.0077L52.6912 46.9784ZM54.3492 47.0359L54.3575 46.7476C54.6309 46.7552 54.9064 46.7607 55.1849 46.7661L55.1808 47.0553C54.9001 47.0499 54.6226 47.0434 54.3492 47.0359ZM56.0092 47.0586L56.0113 46.7704L56.4739 46.765C56.5914 46.7618 56.712 46.7596 56.8336 46.7552L56.8419 47.0434C56.7348 47.0477 56.6309 47.0499 56.5269 47.0521H56.5259L56.4677 47.0597L56.0092 47.0586ZM57.6735 47.0066L57.6569 46.7184C57.9375 46.7 58.212 46.6761 58.477 46.649L58.503 46.9351C58.2369 46.9633 57.9583 46.9871 57.6735 47.0066ZM0.660092 37.4948C0.658013 37.2207 0.660107 36.9444 0.662186 36.6693V36.627L0.939699 36.6335L0.938683 36.6714C0.935565 36.9466 0.934535 37.2207 0.935575 37.4926L0.660092 37.4948ZM59.3325 46.8278L59.2941 46.5418C59.5685 46.5017 59.8398 46.4508 60.1018 46.3967L60.1569 46.6794C59.8897 46.7357 59.6132 46.7856 59.3325 46.8278ZM60.9729 46.4844L60.9032 46.206C61.1724 46.1323 61.4365 46.05 61.688 45.9622L61.7764 46.2341C61.5176 46.3251 61.2473 46.4096 60.9729 46.4844ZM62.5716 45.9243L62.4531 45.6632L62.4895 45.6481C62.7296 45.5408 62.9677 45.426 63.1943 45.3036L63.3211 45.557C63.0882 45.6838 62.845 45.804 62.5976 45.9124L62.5716 45.9243ZM0.664216 35.769C0.663177 35.4819 0.661117 35.1937 0.657998 34.9056L0.933481 34.9023C0.938678 35.1916 0.939738 35.4808 0.940777 35.7668L0.664216 35.769ZM64.0498 45.1183L63.8991 44.8756C64.1298 44.7196 64.3533 44.5561 64.5644 44.3838L64.7358 44.6102C64.5175 44.789 64.2868 44.9601 64.0498 45.1183ZM0.641375 34.0443C0.635139 33.7551 0.626802 33.469 0.620565 33.1798L0.897063 33.1733C0.904339 33.4615 0.911636 33.7475 0.917873 34.0367L0.641375 34.0443ZM65.371 44.0328L65.1797 43.8269C65.3751 43.6309 65.5633 43.4218 65.7358 43.2084L65.9468 43.3947C65.768 43.6157 65.5737 43.8313 65.371 44.0328ZM0.594616 32.3175C0.58526 32.0293 0.575879 31.7421 0.568603 31.454L0.844085 31.4453C0.853441 31.7313 0.863813 32.0184 0.872129 32.3077L0.594616 32.3175ZM66.4573 42.6937L66.2296 42.5335C66.3814 42.3005 66.5228 42.0579 66.6517 41.8087L66.8949 41.9452C66.7608 42.203 66.6153 42.4543 66.4573 42.6937ZM0.538466 30.5917C0.529111 30.3046 0.520794 30.0175 0.511438 29.7271L0.787936 29.7185C0.797291 30.0077 0.806687 30.2959 0.816042 30.5808L0.538466 30.5917ZM67.2577 41.1532L67.003 41.0406C67.054 40.9117 67.1049 40.7795 67.1496 40.6495C67.1974 40.5119 67.241 40.3765 67.2805 40.2432L67.5456 40.3277C67.503 40.4675 67.4583 40.6094 67.4095 40.747C67.3627 40.8824 67.3118 41.02 67.2577 41.1532ZM0.487519 28.8637C0.479203 28.5755 0.470891 28.2884 0.465694 28.0003L0.742191 27.9938C0.749468 28.2809 0.75674 28.5679 0.764017 28.855L0.487519 28.8637ZM67.7576 39.4795L67.4874 39.4199C67.5279 39.2184 67.5643 39.0126 67.5955 38.8067C67.608 38.7309 67.6174 38.6539 67.6257 38.5803L67.9001 38.6182C67.8897 38.694 67.8813 38.772 67.8689 38.8511C67.8377 39.0634 67.8003 39.2747 67.7576 39.4795ZM0.449071 27.1358C0.445952 26.9787 0.443892 26.8227 0.442853 26.6656L0.43765 26.2724L0.715163 26.268L0.720366 26.6623C0.720366 26.8194 0.72245 26.9744 0.725568 27.1304L0.449071 27.1358ZM67.7036 37.732C67.7192 37.459 67.7244 37.1795 67.7234 36.8773L67.9999 36.8751C68.0009 37.1838 67.9947 37.4699 67.9802 37.7494L67.7036 37.732ZM0.42826 25.4089L0.415825 24.5444L0.692323 24.539L0.704758 25.4046L0.42826 25.4089ZM67.7078 36.016L67.6891 35.1525L67.9656 35.1461L67.9843 36.0095L67.7078 36.016ZM0.403326 23.681L0.389812 22.8165L0.66631 22.8121L0.678809 23.6755L0.403326 23.681ZM67.6714 34.2891L67.6516 33.4257L67.9292 33.4192L67.9479 34.2826L67.6714 34.2891ZM0.375283 21.9541L0.364878 21.0907L0.641375 21.0864L0.652796 21.9498L0.375283 21.9541ZM67.635 32.5634L67.6173 31.7L67.8939 31.6923L67.9105 32.5568L67.635 32.5634ZM0.354473 20.2251C0.352394 19.9391 0.349255 19.6509 0.347176 19.3616L0.623674 19.3595C0.625753 19.6499 0.627891 19.9358 0.632049 20.224L0.354473 20.2251ZM67.5997 30.8354L67.582 29.972L67.8585 29.9644L67.8762 30.8289L67.5997 30.8354ZM0.340959 18.4982C0.339919 18.21 0.338865 17.9219 0.338865 17.6326H0.615363C0.616402 17.9219 0.616417 18.2079 0.617456 18.496L0.340959 18.4982ZM67.5633 29.1064L67.5456 28.2429L67.8221 28.2365L67.8418 29.0999L67.5633 29.1064ZM0.343052 16.7671C0.345131 16.4821 0.3493 16.1961 0.353458 15.909L0.629955 15.8993V15.9188C0.625797 16.2004 0.621629 16.4854 0.61955 16.7714L0.343052 16.7671ZM67.529 27.3785L67.5103 26.5139L67.7868 26.5085L67.8055 27.372L67.529 27.3785ZM0.363799 15.0413C0.366918 14.7488 0.366918 14.4617 0.363799 14.1811L0.64036 14.1778C0.643479 14.4595 0.642439 14.7488 0.64036 15.0434L0.363799 15.0413ZM67.4916 25.6516L67.4739 24.7871L67.7483 24.7806L67.7681 25.644L67.4916 25.6516ZM0.340959 13.3231C0.333682 13.1606 0.324326 12.9992 0.313931 12.8432C0.308733 12.7792 0.267156 12.568 0.251563 12.4878L0.521843 12.4304C0.565502 12.6492 0.585216 12.763 0.588335 12.8193C0.600809 12.9796 0.610219 13.1432 0.618535 13.3079L0.340959 13.3231ZM67.4531 23.9236L67.4344 23.0602L67.7109 23.0537L67.7296 23.9171L67.4531 23.9236ZM0.0966917 11.6319C0.0509537 11.3275 0.0218589 11.0426 0.00418744 10.7588L0.280685 10.7425C0.297317 11.0155 0.325382 11.2928 0.37008 11.5864L0.0966917 11.6319ZM67.4147 22.1968L67.3938 21.3323L67.6714 21.3257L67.6912 22.1881L67.4147 22.1968ZM0 9.88021C0.014553 9.62887 0.0384838 9.37426 0.0748663 9.12509C0.0811033 9.08718 0.0873458 9.04708 0.0935828 9.007L0.365893 9.05573C0.359656 9.09365 0.353453 9.13161 0.348255 9.16953C0.312912 9.40895 0.287932 9.65374 0.276498 9.89641L0 9.88021ZM67.3741 20.4699L67.3533 19.6043L67.6298 19.5978L67.6506 20.4613L67.3741 20.4699ZM0.545762 8.2259L0.278591 8.15005C0.352396 7.86838 0.441793 7.58781 0.538466 7.31698L0.797326 7.41986C0.702731 7.67987 0.617488 7.95289 0.545762 8.2259ZM67.3325 18.742L67.3107 17.8786L67.5872 17.872L67.609 18.7355L67.3325 18.742ZM1.1216 6.64094L0.873207 6.51313C0.997947 6.25095 1.13512 5.99311 1.28377 5.74611L1.51769 5.89885C1.37424 6.13718 1.24114 6.38635 1.1216 6.64094ZM67.2888 17.0162L67.267 16.1517L67.5435 16.1441L67.5653 17.0075L67.2888 17.0162ZM1.9792 5.20013L1.76094 5.0257C1.93038 4.79603 2.11328 4.56961 2.30455 4.35727L2.50624 4.5555C2.32121 4.76026 2.14344 4.97805 1.9792 5.20013ZM67.2431 15.2882L67.2203 14.4248L67.4968 14.4161L67.5207 15.2796L67.2431 15.2882ZM3.09147 3.96073L2.90748 3.74412C3.11434 3.55345 3.3337 3.36813 3.56135 3.19371L3.72555 3.4256C3.50517 3.59461 3.29105 3.7744 3.09147 3.96073ZM67.1953 13.5614L67.1714 12.7001L67.4469 12.6893L67.4718 13.5527L67.1953 13.5614ZM4.40226 2.94999L4.2578 2.70513C4.49376 2.55455 4.7401 2.41159 4.98958 2.27726L5.1154 2.53507C4.87111 2.66399 4.63095 2.80482 4.40226 2.94999ZM5.85968 2.17973L5.75366 1.91325C6.01042 1.80383 6.27441 1.70197 6.54052 1.60988L6.62681 1.8829C6.36693 1.97174 6.10916 2.07139 5.85968 2.17973ZM67.1454 11.8367L67.1236 11.0924C67.1277 11.048 67.1298 11.0036 67.134 10.9592L67.4084 10.9787C67.4063 11.022 67.4043 11.0643 67.4011 11.1076L67.423 11.827L67.1454 11.8367ZM7.41265 1.64347L7.34616 1.36503C7.61539 1.29353 7.88978 1.23178 8.16524 1.1787L8.21518 1.46256C7.94595 1.51348 7.67668 1.57306 7.41265 1.64347ZM9.02494 1.33799L8.99372 1.05194C9.27127 1.01944 9.55199 0.996704 9.83058 0.983703L9.84409 1.27186C9.5707 1.28487 9.29417 1.30657 9.02494 1.33799ZM10.6611 1.26433L10.6674 0.976099L11.4979 0.992365L11.4917 1.28165L10.6611 1.26433ZM67.1558 10.1066C67.1527 9.82278 67.1402 9.53565 67.1184 9.25615L67.3938 9.23122C67.4167 9.51939 67.4292 9.81299 67.4313 10.1055L67.1558 10.1066ZM12.3201 1.29574L12.3253 1.00757C12.5998 1.01299 12.8752 1.01838 13.1538 1.02272L13.1497 1.31088C12.8721 1.30654 12.5956 1.30224 12.3201 1.29574ZM13.9782 1.32172L13.9823 1.03462C14.2588 1.03787 14.5343 1.04001 14.8108 1.0411L14.8087 1.33038C14.5322 1.32713 14.2568 1.32605 13.9782 1.32172ZM15.6392 1.3282L15.6372 1.04004C15.921 1.03896 16.1975 1.03465 16.4646 1.03032L16.4698 1.31848C16.1995 1.32498 15.923 1.32712 15.6392 1.3282ZM17.2983 1.30003L17.2911 1.01293L18.1195 0.984761L18.1279 1.2751L17.2983 1.30003ZM18.9563 1.24588L18.9469 0.958775L19.7744 0.933847L19.7837 1.22207L18.9563 1.24588ZM20.6112 1.19602L20.6029 0.906803L21.4324 0.882933L21.4397 1.17116L20.6112 1.19602ZM67.0175 8.41005C66.9749 8.13054 66.9177 7.84997 66.8533 7.57697L67.1215 7.50655C67.188 7.78822 67.2452 8.07641 67.2909 8.3635L67.0175 8.41005ZM22.2671 1.14623L22.2598 0.856947L23.0873 0.834201L23.0945 1.12018L22.2671 1.14623ZM23.923 1.09743L23.9147 0.809272L24.7422 0.786526L24.7495 1.07469L23.923 1.09743ZM25.5769 1.05088L25.5685 0.762722L26.395 0.739976L26.4033 1.02701L25.5769 1.05088ZM27.2297 1.00427L27.2235 0.716106L28.053 0.69336L28.0592 0.981521L27.2297 1.00427ZM28.8877 0.959899L28.8814 0.671738L29.7089 0.65005L29.7172 0.938211L28.8877 0.959899ZM66.6215 6.76122C66.5342 6.49255 66.4344 6.22606 66.3252 5.97039L66.5768 5.8523C66.6891 6.11772 66.792 6.39182 66.8834 6.66699L66.6215 6.76122ZM30.5447 0.915465L30.5374 0.627304L31.3659 0.605615L31.3742 0.893777L30.5447 0.915465ZM32.2006 0.873213L32.1933 0.585051L33.0218 0.563363L33.028 0.851525L32.2006 0.873213ZM33.8586 0.830961L33.8503 0.542799L34.6798 0.523293L34.686 0.810396L33.8586 0.830961ZM35.5145 0.789766L35.5082 0.501605L36.3357 0.481041L36.344 0.768144L35.5145 0.789766ZM37.1725 0.749696L37.1642 0.460477L37.9927 0.439846L38 0.729132L37.1725 0.749696ZM65.9593 5.20879C65.8273 4.96071 65.6828 4.718 65.5311 4.48508L65.7608 4.32262C65.9167 4.56313 66.0653 4.81334 66.2015 5.06901L65.9593 5.20879ZM38.8263 0.709626L38.8201 0.419282L39.6486 0.399776L39.6548 0.687938L38.8263 0.709626ZM40.4833 0.669556L40.476 0.381394L41.3056 0.360764L41.3118 0.647868L40.4833 0.669556ZM42.1382 0.629486L42.133 0.341258L42.9604 0.321752L42.9666 0.609979L42.1382 0.629486ZM43.7941 0.591531L43.7889 0.30337L44.6164 0.282806L44.6226 0.572025L43.7941 0.591531ZM65.0405 3.80581C64.9646 3.70831 64.8845 3.6119 64.8024 3.51765C64.7016 3.40173 64.5986 3.28583 64.4926 3.17533L64.688 2.97273C64.7961 3.0854 64.9042 3.20675 65.0092 3.32483C65.0924 3.42234 65.1735 3.52093 65.2546 3.6206L65.0405 3.80581ZM45.45 0.552519L45.4459 0.265482L46.2722 0.244851L46.2785 0.531955L45.45 0.552519ZM47.1059 0.514631L47.0997 0.225345L47.9282 0.206963L47.9344 0.494067L47.1059 0.514631ZM48.7619 0.476677L48.7556 0.188515L49.5841 0.169009L49.5914 0.45717L48.7619 0.476677ZM63.8928 2.60112C63.6839 2.42129 63.4656 2.24798 63.2431 2.08656L63.399 1.84825C63.6288 2.01401 63.8544 2.19383 64.0695 2.37909L63.8928 2.60112ZM50.4178 0.439846L50.4116 0.150627L51.2401 0.133303L51.2463 0.419282L50.4178 0.439846ZM52.0748 0.403016L52.0685 0.114855L52.897 0.0953485L52.9022 0.38351L52.0748 0.403016ZM53.7307 0.36731L53.7244 0.0780245L54.5529 0.0596424L54.5592 0.347804L53.7307 0.36731ZM62.5508 1.63481C62.3159 1.49614 62.0716 1.36615 61.8242 1.24806L61.9386 0.985885C62.1943 1.1083 62.4458 1.24158 62.687 1.38566L62.5508 1.63481ZM55.3866 0.331538L55.3804 0.0422522L56.2098 0.0238702L56.214 0.312032L55.3866 0.331538ZM57.0425 0.294708L57.0373 0.00542204L57.1631 0.00436408C57.2556 3.06806e-05 57.3492 0 57.4417 0C57.5872 0 57.7307 0.00439476 57.8731 0.00872816L57.8637 0.297948C57.7223 0.292531 57.582 0.288228 57.4417 0.288228C57.3513 0.288228 57.2598 0.28926 57.1704 0.290344L57.0425 0.294708ZM61.0664 0.927367C60.8138 0.834199 60.5509 0.747521 60.2868 0.673854L60.3585 0.396536C60.6298 0.472371 60.9001 0.559028 61.16 0.65653L61.0664 0.927367ZM58.6797 0.360764L58.7099 0.0747845C58.9874 0.106202 59.267 0.148457 59.5394 0.201541L59.4885 0.485339C59.2244 0.432254 58.951 0.392181 58.6797 0.360764Z" fill="white"/>
<path d="M11.4626 45.6795C10.3191 45.6774 9.3098 45.6156 8.37217 45.4932C5.33891 45.0956 4.02914 43.2181 3.46469 41.7145C2.88569 40.1761 2.85348 38.5305 2.87115 36.6932C2.88882 34.8071 2.82437 32.8548 2.76304 30.9698C2.71626 29.5528 2.66739 28.0903 2.65283 26.6418C2.6414 25.5422 2.62581 24.4448 2.60918 23.3441C2.578 21.3594 2.54579 19.3065 2.54891 17.2763C2.55099 16.8353 2.5572 16.3912 2.56344 15.9448C2.57903 14.7921 2.59464 13.7044 2.51668 12.6612C2.50109 12.4521 2.45428 12.217 2.40127 11.9462C2.26406 11.2518 2.07591 10.3016 2.31708 9.15762C3.17259 5.08639 6.98444 3.26857 10.3836 3.27616C10.4356 3.27616 10.4896 3.27722 10.5416 3.27722C10.895 3.2848 11.2484 3.2924 11.6029 3.2989C12.7183 3.32165 13.8732 3.34437 15.0135 3.34545C15.9293 3.34762 16.7495 3.33678 17.525 3.31186C24.1819 3.09411 30.7723 2.9208 38.6216 2.7323C44.5519 2.58713 50.8055 2.44518 57.2109 2.3076C57.2868 2.30651 57.3627 2.30654 57.4386 2.30654C59.8409 2.31087 61.9448 3.22086 63.3668 4.86647C64.7431 6.46224 65.3866 8.65388 65.186 11.0524C65.4011 17.9761 65.5457 25.0081 65.685 31.8105C65.7172 33.3727 65.7505 34.936 65.7827 36.4971C65.8107 37.848 65.8981 41.9582 61.7359 43.7912C59.7806 44.6536 57.5072 44.7598 55.7442 44.7565C54.9012 44.7555 54.0675 44.7251 53.2608 44.6937C52.5134 44.6677 51.8097 44.6417 51.1548 44.6406C50.9729 44.6385 50.7931 44.6417 50.6195 44.6449C43.5342 44.8085 36.4459 44.971 29.3607 45.1335L18.4303 45.3827C17.5031 45.4044 16.5561 45.4607 15.5541 45.5203C14.2214 45.5993 12.8409 45.6828 11.4626 45.6795Z" fill="white"/>
<path d="M45.1912 40.3765C36.6496 40.5715 28.107 40.7665 19.5665 40.9648C19.9979 39.2596 20.4095 37.5576 20.7973 35.8405C20.9677 35.0778 21.0114 33.9804 21.3648 33.2827C21.7983 32.4258 22.1059 32.6414 23.081 32.6901C27.1174 32.8938 31.1579 32.7725 35.1964 32.7378C38.923 32.7053 42.6828 32.0401 46.3886 32.0813C47.8741 32.0975 47.8357 33.469 48.3949 34.8124C49.1361 36.5977 49.7795 38.4372 50.451 40.2562C48.6964 40.2941 46.9438 40.3353 45.1912 40.3765Z" fill="#FFC973"/>
<path d="M61.4324 38.1377C61.0613 40.9305 56.7463 40.1159 55.0062 40.1527C54.4604 40.1657 52.082 40.5427 51.6558 40.2285C51.3513 40.0021 51.027 38.6447 50.9022 38.3153C50.2588 36.6275 49.6122 34.9483 48.9667 33.2615C48.7609 32.722 48.5727 31.2118 48.0353 30.8879C47.4833 30.5531 47.6559 30.9562 47.1559 30.9432C47.0748 30.941 46.5831 30.8012 46.3575 30.8218C43.8648 31.0428 41.371 31.3201 38.8679 31.4686C35.6288 31.6636 32.3669 31.6928 29.1237 31.7058C27.5447 31.7101 25.9532 31.6993 24.3763 31.6376C23.5353 31.604 21.8347 31.1305 21.0852 31.4046C19.9563 31.8206 19.9626 33.8259 19.7318 34.8941C19.4023 36.4314 19.0457 37.9784 18.6278 39.4908C18.5831 39.6501 18.3534 40.8872 18.1944 40.9999C17.7588 41.3065 15.9657 41.0508 15.4875 41.0616C13.9324 41.0974 12.3856 40.976 10.8399 41.0551C9.60704 41.119 7.99167 41.5102 6.87109 40.8027C5.38045 39.8646 5.7661 38.233 5.68294 36.7239C5.51246 33.6082 5.41684 30.2802 5.31393 27.0799C5.18504 23.0813 5.0603 19.0816 4.92412 15.0851C4.87734 13.7255 5.08314 12.0604 5.02805 10.8676C4.96152 9.42673 4.88358 8.43221 6.16113 7.35536C8.31497 5.54184 12.1029 6.25904 14.6684 6.24279C18.7713 6.21354 22.8763 6.13446 26.9802 6.05646C35.1559 5.89829 43.3336 5.71628 51.5103 5.52886C53.4448 5.48553 56.8045 4.81923 58.7255 5.6545C61.0238 6.65335 60.9448 10.0962 60.975 12.3009C61.0363 16.8964 61.135 21.4898 61.2307 26.0865C61.3117 30.0212 61.765 34.217 61.4324 38.1377Z" fill="#FFE12E"/>
<path d="M54.8784 27.607C46.211 28.7391 37.4864 28.3707 28.7796 28.4682C24.4428 28.517 20.1445 28.4433 15.8077 28.6632C14.5998 28.7239 11.9917 29.3934 11.0385 28.8723C9.88362 28.2396 10.0562 25.2496 9.9886 24.0481C9.85866 21.7146 9.82021 19.3908 9.55202 17.0681C9.341 15.2156 8.94698 13.2374 9.08316 11.3622C9.34095 7.78385 16.1695 9.81081 18.5125 9.78481C22.9865 9.73606 27.4668 9.27131 31.947 9.1749C36.2464 9.08389 40.5457 8.98421 44.8472 8.96687C47.1933 8.95712 49.5467 8.93653 51.8887 8.8347C52.9064 8.79136 54.2868 8.4512 55.2889 8.65921C56.3398 8.87696 56.1392 8.54546 56.4282 9.65481C56.5904 10.2842 56.6819 10.8995 56.7473 11.5463C57.2816 16.8157 56.6788 22.1675 57.0821 27.4445C56.3451 27.4629 55.6133 27.5116 54.8784 27.607Z" fill="#00D0CD"/>
<path d="M27.9303 14.6725C32.2754 14.6552 36.5883 14.7657 40.9345 14.5989C40.4303 15.0734 39.9864 16.3994 39.5239 16.6724C38.5945 17.2184 35.5342 16.4135 34.3856 16.3788C32.8138 16.3301 31.2411 16.2813 29.6704 16.1871C29.0582 16.1502 27.7224 16.277 27.1579 15.9639C26.7151 15.7201 26.3191 15.0052 25.8752 14.6563C26.5603 14.678 27.2442 14.6769 27.9303 14.6725Z" fill="#FFE12E"/>
<path d="M39.3814 17.2543C39.1922 17.952 39.1527 18.7038 39.2411 19.4232C37.0259 19.1924 34.8066 19.3105 32.5873 19.1729C31.4407 19.1003 30.2951 18.9498 29.1444 18.9346C28.501 18.9259 28.2328 19.0516 27.9344 18.6833C27.6881 18.3789 27.632 17.0431 27.4262 16.6033C28.7307 16.691 39.345 17.3832 39.3814 17.2543Z" fill="#FFE12E"/>
<path d="M27.4178 21.2952C27.5405 20.9887 27.6382 20.6734 27.7089 20.3473C27.5966 19.6648 27.8752 19.4351 28.5478 19.655C28.974 19.5153 29.7026 19.6702 30.1215 19.6864C31.5405 19.7503 32.9563 19.8468 34.3793 19.8435C35.6818 19.8392 37.3274 19.5326 38.6039 19.9216C39.7047 20.2606 39.2515 20.266 39.8846 21.4599C38.3367 20.8814 35.8606 21.3158 34.2276 21.2693C33.4719 21.2487 27.6579 20.6886 27.4178 21.2952Z" fill="#FFE12E"/>
<path d="M22.2027 23.3604C17.026 22.6118 17.8357 14.3003 23.0758 14.9135C28.291 15.5256 27.5769 23.862 22.2027 23.3604Z" fill="white"/>
<path d="M39.8658 22.8584C35.3274 23.1195 30.8294 23.0069 26.2889 23.047C27.2016 22.1099 26.9792 21.9864 28.3659 21.904C29.8399 21.8174 31.3305 21.8704 32.8076 21.8975C33.528 21.9105 40.0415 22.3839 40.0945 21.8195C40.3273 22.177 40.5925 22.5031 40.8939 22.801C40.5519 22.8205 40.2099 22.84 39.8658 22.8584Z" fill="#FFE12E"/>
<path d="M48.6111 19.1794C48.0144 23.7165 41.6101 24.1499 40.6267 19.6475C39.2858 13.5005 49.1589 12.662 48.6111 19.1794Z" fill="white"/>
<path d="M62.9209 10.9785C63.3035 7.14665 60.9219 4.58452 57.2556 4.66469C51.0633 4.79578 44.8679 4.93555 38.6746 5.08721C31.6465 5.25622 24.6205 5.43494 17.5966 5.66678C15.1787 5.74478 12.8337 5.67656 10.5021 5.63431C7.96778 5.58881 5.12889 6.79347 4.52598 9.6611C4.31288 10.6762 4.69544 11.4692 4.77132 12.4767C4.89086 14.0606 4.81394 15.6943 4.81186 17.2836C4.80563 20.3949 4.88255 23.5063 4.91477 26.6166C4.94908 29.9793 5.16529 33.3605 5.13411 36.7167C5.10708 39.6287 5.15386 42.6957 8.65593 43.1561C11.7963 43.5688 15.2245 43.0987 18.3825 43.0283C22.0249 42.9448 25.6694 42.8625 29.3118 42.778C36.3991 42.6177 43.4854 42.4519 50.5717 42.2894C53.7401 42.2179 58.0009 42.8809 60.8564 41.6232C63.0789 40.6438 63.5706 38.8422 63.5228 36.5509C63.3419 28.0239 63.186 19.499 62.9209 10.9785ZM45.9428 41.0046C37.4012 41.2018 28.8596 41.3967 20.3191 41.595C20.7494 39.8898 21.1621 38.1879 21.5488 36.4708C21.7203 35.7081 21.763 34.6106 22.1164 33.9108C22.5509 33.0538 22.8596 33.2716 23.8326 33.3204C27.869 33.524 31.9095 33.4027 35.948 33.367C39.6756 33.3356 43.4354 32.6693 47.1413 32.7105C48.6267 32.7267 48.5872 34.0993 49.1465 35.4426C49.8887 37.228 50.5322 39.0675 51.2026 40.8865C49.448 40.9244 47.6964 40.9656 45.9428 41.0046ZM62.1849 38.7663C61.8138 41.5592 57.4989 40.7446 55.7587 40.7814C55.213 40.7933 52.8346 41.1714 52.4084 40.8561C52.1018 40.6308 51.7795 39.2734 51.6537 38.944C51.0124 37.2562 50.3637 35.577 49.7193 33.888C49.5134 33.3507 49.3243 31.8405 48.7879 31.5166C48.2338 31.1819 48.4084 31.5849 47.9074 31.5708C47.8273 31.5697 47.3357 31.4299 47.1101 31.4505C44.6153 31.6715 42.1236 31.9478 39.6195 32.0973C36.3825 32.2912 33.1195 32.3215 29.8752 32.3334C28.2952 32.3388 26.7058 32.328 25.1289 32.2652C24.2858 32.2327 22.5862 31.7593 21.8378 32.0334C20.7089 32.4494 20.7141 34.4547 20.4844 35.5228C20.1548 37.0601 19.7973 38.6071 19.3794 40.1195C19.3368 40.2776 19.105 41.5159 18.9459 41.6286C18.5114 41.9341 16.7183 41.6795 16.238 41.6903C14.684 41.7261 13.1372 41.6037 11.5904 41.6839C10.3597 41.7478 8.74427 42.1367 7.62265 41.4304C6.13305 40.4922 6.51867 38.8617 6.43551 37.3515C6.26503 34.2369 6.16942 30.9088 6.06651 27.7086C5.93657 23.71 5.81082 19.7092 5.67568 15.7116C5.62994 14.3531 5.8347 12.6879 5.77961 11.4963C5.71412 10.0543 5.63408 9.06095 6.9137 7.9841C9.06755 6.17058 12.8545 6.88771 15.421 6.87146C19.5239 6.84221 23.6278 6.76312 27.7317 6.68295C35.9084 6.52478 44.0852 6.34282 52.2619 6.15648C54.1974 6.11423 57.556 5.44685 59.4781 6.28211C61.7754 7.28205 61.6974 10.7249 61.7265 12.9295C61.7888 17.524 61.8866 22.1185 61.9822 26.713C62.0654 30.6477 62.5176 34.8446 62.1849 38.7663Z" fill="#2C2C2C"/>
<path d="M58.6486 29.4531C59.4791 29.4542 59.29 28.8865 59.2744 28.3069C59.2193 26.3981 59.0353 24.3635 59.0405 22.3886C59.055 18.2524 59.5052 13.3177 58.1569 9.37543C59.7162 9.06992 58.5945 8.04396 57.6008 7.96596C55.6756 7.81213 53.6538 8.08729 51.7234 8.13821C47.581 8.24546 43.4376 8.23464 39.2942 8.2899C34.9574 8.34515 30.5904 8.3657 26.2599 8.6127C24.1019 8.73404 21.9511 9.01354 19.7942 9.12621C17.6476 9.23888 15.5354 8.93878 13.3961 8.96044C11.5427 8.97886 9.51876 8.54337 8.75889 10.7935C8.13623 12.6439 8.66741 15.1291 8.88882 17.0217C9.10192 18.845 9.2412 20.6618 9.31708 22.4948C9.40128 24.5174 9.05827 27.9516 10.1716 29.738C10.8597 30.8441 11.3118 30.7856 12.4262 30.6437C14.4844 30.3826 16.6133 30.5972 18.685 30.5376C23.0197 30.413 27.342 30.5127 31.6767 30.4531C36.4927 30.3881 41.3555 30.7791 46.1632 30.4097C50.3035 30.0912 54.4968 29.4639 58.6486 29.4531ZM55.6299 28.2376C46.9636 29.3697 38.2381 29.0014 29.5322 29.0989C25.1955 29.1476 20.8971 29.0729 16.5603 29.2939C15.3504 29.3546 12.7433 30.024 11.789 29.5008C10.6352 28.8692 10.8077 25.8802 10.7402 24.6788C10.6113 22.3453 10.5707 20.0215 10.3046 17.6988C10.0936 15.8452 9.69961 13.8669 9.83474 11.9928C10.0936 8.41445 16.921 10.4403 19.264 10.4154C23.738 10.3666 28.2193 9.90082 32.6985 9.80549C36.9989 9.71232 41.2983 9.6148 45.6008 9.59747C47.9459 9.58772 50.2994 9.56712 52.6424 9.46529C53.659 9.42087 55.0374 9.08071 56.0426 9.2898C57.0925 9.50755 56.8929 9.17608 57.1808 10.2843C57.343 10.9127 57.4344 11.5302 57.501 12.177C58.0342 17.4464 57.4303 22.796 57.8367 28.0751C57.0976 28.0946 56.3658 28.1401 55.6299 28.2376Z" fill="#2C2C2C"/>
<path d="M20.6252 14.6948C20.7868 14.6062 20.7848 14.5209 20.6211 14.4409C20.4596 14.5295 20.4596 14.6149 20.6252 14.6948Z" fill="#2C2C2C"/>
<path d="M50.4448 17.7495C48.8679 12.2201 41.9677 13.9361 37.922 14.1787C34.8814 14.3597 31.8471 14.2242 28.8045 14.2751C26.4064 14.3163 23.3659 13.5915 21.1309 14.6727C15.9563 17.1818 17.8627 24.6721 23.132 25.2712C23.8243 25.3492 24.0925 25.3448 24.7806 25.0718C26.1132 24.5431 27.3773 24.6677 28.8108 24.7013C31.8315 24.7707 34.8648 24.828 37.8866 24.6883C39.5914 24.6103 41.4812 24.2593 43.1704 24.4782C44.8378 24.6937 45.8949 25.2278 47.5581 24.4283C49.9625 23.2756 51.1974 20.3874 50.4448 17.7495ZM28.6839 15.3033C33.028 15.2859 37.3409 15.3965 41.6881 15.2296C41.1829 15.7041 40.74 17.0291 40.2754 17.3031C39.3492 17.847 36.2868 17.0442 35.1392 17.0084C33.5675 16.9608 31.9937 16.912 30.423 16.8167C29.8108 16.7809 28.476 16.9077 27.9105 16.5946C27.4698 16.3509 27.0727 15.6358 26.6288 15.287C27.3118 15.3087 27.9979 15.3076 28.6839 15.3033ZM40.1319 17.8849C39.9427 18.5815 39.9053 19.3344 39.9937 20.0516C37.7785 19.8208 35.5592 19.9411 33.3398 19.8024C32.1933 19.7309 31.0467 19.5792 29.897 19.5651C29.2536 19.5565 28.9854 19.6821 28.687 19.3138C28.4396 19.0094 28.3846 17.6715 28.1788 17.2338C29.4823 17.3205 40.0976 18.0138 40.1319 17.8849ZM28.1694 21.9258C28.2931 21.6192 28.3908 21.3018 28.4615 20.9778C28.3482 20.2953 28.6278 20.0657 29.2983 20.2856C29.7265 20.1458 30.4532 20.3008 30.8731 20.317C32.2931 20.3809 33.7089 20.4773 35.1319 20.4719C36.4334 20.4698 38.0799 20.161 39.3554 20.5521C40.4573 20.8912 40.0041 20.8966 40.6351 22.0905C39.0893 21.5109 36.6122 21.9464 34.9792 21.8998C34.2245 21.8792 28.4116 21.3191 28.1694 21.9258ZM22.9563 23.9885C17.7796 23.242 18.5873 14.9306 23.8274 15.5438C29.0436 16.1559 28.3305 24.4922 22.9563 23.9885ZM40.6205 23.4902C36.08 23.7502 31.581 23.6386 27.0426 23.6787C27.9563 22.7416 27.7318 22.618 29.1185 22.5357C30.5946 22.449 32.0841 22.5021 33.5592 22.527C34.2806 22.5411 40.7952 23.0156 40.8482 22.4512C41.08 22.8087 41.3461 23.1348 41.6465 23.4327C41.3056 23.4489 40.9625 23.4685 40.6205 23.4902ZM49.3637 19.8078C48.767 24.346 42.3616 24.7804 41.3804 20.278C40.0384 14.1311 49.9115 13.2925 49.3637 19.8078Z" fill="#2C2C2C"/>
<path d="M9.06336 38.5316C8.20474 38.5218 8.23279 39.9389 9.0935 39.9194C9.95524 39.9009 9.91991 38.5424 9.06336 38.5316Z" fill="#2C2C2C"/>
<path d="M59.0404 37.3668C58.1818 37.3571 58.2109 38.7752 59.0705 38.7546C59.9333 38.7373 59.8969 37.3766 59.0404 37.3668Z" fill="#2C2C2C"/>
<path d="M59.8377 7.15306C58.9781 7.14331 59.0072 8.5614 59.8658 8.5419C60.7296 8.52348 60.6943 7.16389 59.8377 7.15306Z" fill="#2C2C2C"/>
<path d="M7.29627 8.78375C6.48858 8.77509 6.51565 10.1087 7.32438 10.0913C8.13623 10.0751 8.10396 8.79459 7.29627 8.78375Z" fill="#2C2C2C"/>
<path d="M25.1059 37.9249C24.2463 37.914 24.2754 39.3321 25.1351 39.3137C25.9989 39.2942 25.9625 37.9357 25.1059 37.9249Z" fill="#2C2C2C"/>
<path d="M29.8055 35.2056C28.9458 35.1926 28.9739 36.6107 29.8346 36.5934C30.6974 36.5739 30.662 35.2143 29.8055 35.2056Z" fill="#2C2C2C"/>
<path d="M46.8222 38.1815C45.9625 38.1717 45.9895 39.5877 46.8502 39.5693C47.713 39.5519 47.6777 38.1923 46.8222 38.1815Z" fill="#2C2C2C"/>
<path d="M42.1527 34.9218C41.2931 34.9088 41.3222 36.327 42.1808 36.3096C43.0456 36.2901 43.0083 34.9305 42.1527 34.9218Z" fill="#2C2C2C"/>
<path d="M24.7431 22.641C28.5643 20.6693 26.082 14.0825 22.1039 16.4918C18.7473 18.5253 21.0415 24.5542 24.7431 22.641ZM23.7078 22.1231C22.0748 22.265 21.0353 20.8696 21.1715 19.2684C21.2608 18.2252 22.0727 17.5589 23.1163 17.2372C26.686 16.1332 26.7463 21.342 23.7078 22.1231Z" fill="#2C2C2C"/>
<path d="M48.1724 17.6315C47.8918 16.0921 46.1174 15.2665 44.7006 15.3976C43.318 15.5244 42.8149 16.6879 42.5716 17.9413C42.1361 20.199 42.7286 23.0363 45.474 22.8446C48.1881 22.6539 48.5966 19.9358 48.1724 17.6315ZM47.476 19.6682C47.2993 21.0798 46.1766 22.2 44.7058 21.7753C43.3929 21.3983 43.2494 19.8459 43.4251 18.5925C43.5945 17.3845 44.2317 16.8016 45.369 16.7745C47.0186 16.7355 47.6153 18.0713 47.476 19.6682Z" fill="#2C2C2C"/>
<path d="M39.897 22.8163C39.7265 22.7805 39.7224 22.9033 39.6559 23.0054C39.3752 23.4366 40.5519 22.9652 39.897 22.8163Z" fill="#2C2C2C"/>
</svg>
