<svg width="77" height="69" viewBox="0 0 77 69" fill="none" xmlns="http://www.w3.org/2000/svg">
<path opacity="0.66" d="M63.5018 12.9687C63.1694 12.8406 62.8257 12.7265 62.481 12.6256C57.7553 11.2566 53.0204 12.7518 50.3352 13.9352C49.5839 13.7052 48.7919 13.469 47.9683 13.2309C45.6166 12.5489 43.512 11.9891 42.4048 11.6995C41.0668 11.2738 39.0465 10.6452 36.8433 10.0056C36.0187 9.76751 35.2237 9.54249 34.4652 9.33466C32.8435 6.90427 29.6653 3.11495 24.9406 1.7459C24.5949 1.64602 24.242 1.55925 23.8933 1.48863C17.6648 0.229552 7.945 4.45774 4.25124 7.80823C1.61589 10.1962 1.2671 12.5339 1.43893 14.0754C1.49078 14.5294 2.59701 24.0643 5.74784 30.3143C1.89548 37.8527 0.549298 43.4842 1.63211 47.4854C2.78609 51.7449 6.41889 54.9592 11.8635 56.5371C12.1776 56.6289 12.5009 56.7157 12.8364 56.7974C14.998 61.8317 19.863 65.9741 25.8912 67.7205C31.9204 69.4669 38.2687 68.576 42.8196 65.4869C43.147 65.5968 43.4683 65.6977 43.7815 65.7885C49.225 67.3654 54.03 66.5977 57.3141 63.6235C60.3968 60.8309 62.3163 55.3658 63.1582 46.9538C69.2046 43.3702 75.309 35.9237 75.5998 35.5675C76.5799 34.3619 77.5529 32.207 76.6277 28.7869C75.3324 23.9886 69.4344 15.2326 63.5018 12.9687Z" fill="#075C54"/>
<path d="M62.2319 11.7075C61.8984 11.5793 61.5547 11.4653 61.2101 11.3644C56.4843 9.99536 51.7495 11.4906 49.0643 12.674C48.313 12.4439 47.5209 12.2078 46.6974 11.9697C44.3457 11.2877 42.2411 10.7278 41.1339 10.4383C39.7959 10.0125 37.7756 9.384 35.5724 8.74437C34.7478 8.50628 33.9527 8.28126 33.1943 8.07343C31.5726 5.64304 28.3943 1.85372 23.6696 0.484668C23.3239 0.384789 22.9711 0.298021 22.6224 0.227399C16.3939 -1.03168 6.67406 3.19651 2.98031 6.54699C0.34496 8.93501 -0.00382963 11.2726 0.167997 12.8142C0.21985 13.2682 1.32608 22.8031 4.47691 29.0531C0.624543 36.5914 -0.721634 42.223 0.361177 46.2242C1.51516 50.4837 5.14796 53.698 10.5925 55.2759C10.9067 55.3677 11.23 55.4545 11.5655 55.5362C13.727 60.5705 18.5921 64.7129 24.6203 66.4593C30.6494 68.2056 36.9978 67.3148 41.5487 64.2256C41.8761 64.3356 42.1974 64.4365 42.5105 64.5273C47.9541 66.1042 52.7591 65.3364 56.0431 62.3622C59.1258 59.5697 61.0454 54.1046 61.8872 45.6925C67.9337 42.109 74.0381 34.6624 74.3289 34.3063C75.309 33.1007 76.282 30.9457 75.3568 27.5256C74.0615 22.7274 68.1635 13.9714 62.2319 11.7075Z" fill="white"/>
<path d="M42.5227 55.1176C40.8186 60.9055 33.4311 63.8575 26.0202 61.7096C18.6093 59.5627 13.9833 53.1281 15.6873 47.3402C17.3923 41.5512 25.9308 34.6899 33.3417 36.8378C40.7506 38.9857 44.2267 49.3297 42.5227 55.1176Z" fill="white"/>
<path d="M25.7732 62.5489C17.9088 60.2698 13.0042 53.3378 14.8424 47.0959C16.6796 40.855 25.7224 33.7212 33.5878 36.0012C41.4511 38.2803 45.2048 49.1217 43.3676 55.3637C41.5304 61.6036 33.6365 64.8269 25.7732 62.5489ZM33.0946 37.676C26.1605 35.6663 18.0959 42.2674 16.5312 47.5842C14.9655 52.902 19.3333 58.8635 26.2653 60.8722C33.1983 62.8818 40.112 60.1901 41.6778 54.8733C43.2436 49.5565 40.0276 39.6847 33.0946 37.676Z" fill="#111D32"/>
<path d="M56.2099 21.0366C55.2999 19.3881 43.9563 16.2899 39.7155 15.1811C35.5399 13.8504 24.2979 10.4041 22.6376 11.306C20.591 12.4188 2.86949 36.425 5.17542 44.939C7.33901 52.9273 24.4362 52.33 29.472 49.9773C32.4399 54.6504 46.5255 64.2852 52.6828 58.7072C59.2458 52.7649 57.3313 23.0675 56.2099 21.0366Z" fill="white"/>
<path d="M22.6376 11.3071C20.591 12.4199 2.86945 36.4262 5.17436 44.9401C5.41024 45.8097 5.83115 46.5714 6.3873 47.2474C9.05824 44.6546 16.277 35.7481 24.0549 34.9481C32.5822 34.0704 36.5596 20.0046 37.7827 14.5758C32.7998 13.0332 24.0844 10.5201 22.6376 11.3071Z" fill="#DFB96D"/>
<path d="M56.2099 21.0367C55.4179 19.6011 46.7085 17.0648 41.6737 15.7018C39.7592 20.9319 35.4819 34.9099 42.1923 40.2035C48.314 45.032 49.5656 56.3929 50.4115 60.0057C51.2452 59.7323 52.0138 59.3156 52.6839 58.7083C59.2458 52.765 57.3313 23.0676 56.2099 21.0367Z" fill="#DFB96D"/>
<path d="M43.6635 60.617C43.6625 60.617 43.6625 60.617 43.6615 60.617C38.0674 58.9958 31.6794 54.4104 29.1548 51.0569C25.211 52.5359 17.3385 52.9868 11.7445 51.3656C7.67048 50.1852 5.10526 48.0413 4.32645 45.166C1.89343 36.189 19.8193 11.8438 22.2147 10.5413C22.7688 10.2397 23.9238 9.61211 34.4214 12.6549C36.6359 13.2975 38.6694 13.9311 39.985 14.3508C41.2773 14.6868 43.3341 15.2386 45.5485 15.8803C56.0462 18.9231 56.6786 20.0682 56.9826 20.619C58.2941 22.9939 60.1975 53.0867 53.2766 59.3539C51.0602 61.3595 47.7365 61.7964 43.6635 60.617ZM29.7202 49.141C29.9194 49.1995 30.0984 49.3266 30.2173 49.5133C31.9275 52.205 38.2057 57.2171 44.1545 58.9413C44.1556 58.9413 44.1556 58.9413 44.1556 58.9413C47.6582 59.9562 50.3271 59.6616 52.0911 58.0645C58.2301 52.5036 56.3806 23.1947 55.4392 21.4574C55.31 21.2798 54.1662 20.1963 45.0544 17.5561C42.8593 16.9194 40.8177 16.3726 39.4909 16.0256C38.1407 15.5968 36.1235 14.9672 33.9284 14.3306C24.8155 11.6904 23.264 11.992 23.0454 12.0798C21.3241 13.0342 3.86688 36.748 6.02436 44.7141C6.79707 47.5631 9.82897 48.9937 12.2376 49.6918C18.1854 51.416 26.1962 50.5463 29.0979 49.1904C29.3003 49.0956 29.5199 49.0825 29.7202 49.141Z" fill="#111D32"/>
<path d="M31.9996 41.3939C31.9996 41.3939 27.342 39.9552 26.7421 41.9921C26.2968 43.5055 27.826 47.8345 29.045 48.5973C29.5046 48.8848 30.0404 49.0401 30.5833 49.0431C32.023 49.0512 35.6608 46.2193 36.1072 44.706C36.706 42.6691 31.9996 41.3939 31.9996 41.3939Z" fill="#111D32"/>
<path d="M26.4788 30.0682C28.2218 30.0682 29.6347 28.6661 29.6347 26.9366C29.6347 25.2071 28.2218 23.8051 26.4788 23.8051C24.7358 23.8051 23.3229 25.2071 23.3229 26.9366C23.3229 28.6661 24.7358 30.0682 26.4788 30.0682Z" fill="#111D32"/>
<path d="M44.4941 35.2901C46.2371 35.2901 47.65 33.888 47.65 32.1585C47.65 30.429 46.2371 29.027 44.4941 29.027C42.7512 29.027 41.3382 30.429 41.3382 32.1585C41.3382 33.888 42.7512 35.2901 44.4941 35.2901Z" fill="#111D32"/>
<path d="M29.2779 11.1727C28.1127 9.33253 25.454 5.84788 21.629 5.07407C16.3716 4.01071 4.80327 9.41022 5.12354 12.2654C5.44279 15.1225 7.8341 29.8632 12.3606 30.2537C16.887 30.6451 22.0703 18.5587 24.9832 17.3309C27.4742 16.2807 28.5977 15.8448 29.4954 13.6223C29.8208 12.8182 29.7425 11.9062 29.2779 11.1727Z" fill="#C36F29"/>
<path d="M11.6896 31.0125C6.30603 29.4508 4.26645 12.5329 4.24815 12.3624C4.15054 11.4907 4.65485 10.5454 5.74884 9.55467C8.80511 6.78429 17.2145 3.29159 21.8039 4.21976C25.9186 5.05107 28.7502 8.69715 30.0231 10.7099C30.6332 11.6743 30.741 12.884 30.3129 13.9484C29.2962 16.4645 27.9378 17.0365 25.4733 18.0747L25.3279 18.1362C24.4088 18.5236 22.7881 20.8753 21.3566 22.9496C18.6236 26.9135 15.5287 31.405 12.2833 31.1245C12.0851 31.1063 11.8858 31.068 11.6896 31.0125ZM22.0266 6.07003C21.8385 6.01555 21.6474 5.96811 21.4532 5.92877C17.6934 5.16807 9.9601 8.09987 6.93535 10.842C6.15654 11.5482 5.97966 12.0083 5.99694 12.1687C6.59783 17.5349 9.10712 28.4429 12.1837 29.3358C12.1837 29.3358 12.1837 29.3358 12.1847 29.3358C12.2701 29.36 12.3525 29.3761 12.4369 29.3842C14.6574 29.5749 17.6913 25.1752 19.9057 21.9629C21.7734 19.253 23.2477 17.1132 24.6396 16.527L24.786 16.4655C27.1417 15.4738 27.9358 15.1398 28.6791 13.2966C28.8997 12.7498 28.8458 12.1283 28.5337 11.636C27.4681 9.95317 25.2059 6.99214 22.0266 6.07003Z" fill="#111D32"/>
<path d="M50.686 17.3764C52.6655 16.4483 56.7975 14.9309 60.4415 16.3222C65.4488 18.235 72.271 28.9625 70.4521 31.1991C68.6332 33.4358 58.6215 44.5819 54.5942 42.4935C50.567 40.4051 52.755 27.4521 50.9656 24.8593C49.4364 22.6458 48.7257 21.6773 49.1741 19.3246C49.3368 18.4741 49.897 17.7467 50.686 17.3764Z" fill="#C36F29"/>
<path d="M54.7478 43.4903C54.5525 43.4338 54.3634 43.3591 54.1865 43.2663C51.3 41.7712 51.1262 36.3303 50.9747 31.531C50.8944 29.0179 50.8039 26.1709 50.2396 25.3537L50.1512 25.2265C48.6362 23.0342 47.8005 21.8276 48.3088 19.1631C48.5244 18.0372 49.2717 17.0748 50.3088 16.5875C52.4734 15.5705 56.8463 14.0128 60.7556 15.508C65.1265 17.1767 70.3189 24.6111 71.3936 28.579C71.7769 29.9975 71.6894 31.0629 71.1343 31.7469C71.0275 31.8811 60.1313 45.051 54.7478 43.4903ZM59.564 16.9487C56.3847 16.0276 52.8729 17.3149 51.0621 18.1654C50.5324 18.4146 50.1491 18.9089 50.0373 19.489C49.6662 21.4392 50.1542 22.1444 51.602 24.2399L51.6915 24.3679C52.5456 25.6058 52.6279 28.1967 52.7316 31.4765C52.8557 35.3668 53.0255 40.6957 55 41.7197C55.0762 41.759 55.1535 41.7903 55.2389 41.8155C58.3165 42.7073 66.3476 34.8552 69.7648 30.6523C69.8675 30.5261 69.9671 30.0429 69.6936 29.033C68.6311 25.1055 63.7051 18.5054 60.1242 17.1384C59.9392 17.0667 59.7521 17.0042 59.564 16.9487Z" fill="#111D32"/>
<path d="M23.1968 41.4826C23.6163 41.4826 23.9563 41.1451 23.9563 40.7289C23.9563 40.3127 23.6163 39.9753 23.1968 39.9753C22.7774 39.9753 22.4373 40.3127 22.4373 40.7289C22.4373 41.1451 22.7774 41.4826 23.1968 41.4826Z" fill="#111D32"/>
<path d="M18.4233 41.5653C18.8428 41.5653 19.1828 41.2279 19.1828 40.8116C19.1828 40.3954 18.8428 40.058 18.4233 40.058C18.0039 40.058 17.6638 40.3954 17.6638 40.8116C17.6638 41.2279 18.0039 41.5653 18.4233 41.5653Z" fill="#111D32"/>
<path d="M20.5655 43.9674C20.985 43.9674 21.325 43.63 21.325 43.2138C21.325 42.7976 20.985 42.4602 20.5655 42.4602C20.1461 42.4602 19.806 42.7976 19.806 43.2138C19.806 43.63 20.1461 43.9674 20.5655 43.9674Z" fill="#111D32"/>
<path d="M16.8524 44.9339C17.2725 44.9339 17.6129 44.596 17.6129 44.1792C17.6129 43.7624 17.2725 43.4246 16.8524 43.4246C16.4324 43.4246 16.0919 43.7624 16.0919 44.1792C16.0919 44.596 16.4324 44.9339 16.8524 44.9339Z" fill="#111D32"/>
<path d="M39.7786 46.2888C40.1981 46.2888 40.5381 45.9514 40.5381 45.5352C40.5381 45.119 40.1981 44.7815 39.7786 44.7815C39.3591 44.7815 39.0191 45.119 39.0191 45.5352C39.0191 45.9514 39.3591 46.2888 39.7786 46.2888Z" fill="#111D32"/>
<path d="M43.758 48.9087C44.1781 48.9087 44.5185 48.5709 44.5185 48.1541C44.5185 47.7373 44.1781 47.3995 43.758 47.3995C43.338 47.3995 42.9975 47.7373 42.9975 48.1541C42.9975 48.5709 43.338 48.9087 43.758 48.9087Z" fill="#111D32"/>
<path d="M40.6478 49.7876C41.0673 49.7876 41.4073 49.4502 41.4073 49.034C41.4073 48.6177 41.0673 48.2803 40.6478 48.2803C40.2284 48.2803 39.8883 48.6177 39.8883 49.034C39.8883 49.4502 40.2284 49.7876 40.6478 49.7876Z" fill="#111D32"/>
<path d="M43.2547 52.5861C43.6748 52.5861 44.0152 52.2483 44.0152 51.8315C44.0152 51.4147 43.6748 51.0768 43.2547 51.0768C42.8347 51.0768 42.4942 51.4147 42.4942 51.8315C42.4942 52.2483 42.8347 52.5861 43.2547 52.5861Z" fill="#111D32"/>
</svg>
