<svg width="59" height="82" viewBox="0 0 59 82" fill="none" xmlns="http://www.w3.org/2000/svg">
<path d="M53.8465 40.2091C53.0597 39.5134 52.174 38.9018 51.1677 38.36C51.4009 38.0189 51.6174 37.6934 51.8183 37.3939C53.29 35.1808 54.9586 32.6724 56.0324 29.7063C57.852 24.6915 57.6825 19.0621 55.6954 14.2033L56.5027 13.5825C57.8539 12.5446 58.3801 10.6736 57.7853 9.01794C57.2376 7.48813 55.8581 6.49702 54.3403 6.49702C54.2179 6.49702 54.0934 6.5033 53.967 6.51682L52.8843 6.6333C52.7824 6.6437 52.6756 6.64993 52.5669 6.64993C51.7997 6.64993 50.8316 6.37226 49.6921 5.82627C48.9729 5.481 48.2087 5.04731 47.4679 4.62715C46.6831 4.17996 45.7934 3.67555 44.8675 3.22523C41.6146 1.64654 37.9863 0.812466 34.3708 0.812466C33.4351 0.812466 32.4955 0.869716 31.5784 0.980994C31.0885 1.04027 30.6368 1.11932 30.2116 1.21915C29.1935 0.792761 28.2078 0.621148 27.4446 0.526509C26.5255 0.413151 25.5829 0.355951 24.6453 0.355951C21.0249 0.355951 17.3908 1.20146 14.1319 2.80407C13.204 3.26063 12.3144 3.77333 11.5295 4.22364C10.7908 4.64899 10.0255 5.08994 9.3093 5.43729C8.17468 5.98848 7.2135 6.26825 6.45415 6.26825C6.34735 6.26825 6.24152 6.26306 6.1406 6.25162L5.06674 6.13514C4.94034 6.12058 4.81394 6.11432 4.68754 6.11432C3.17766 6.11432 1.80006 7.09917 1.24842 8.62275C0.64976 10.2711 1.16612 12.141 2.50944 13.1862L3.34423 13.8352C1.34248 18.7491 1.16219 24.4502 2.97876 29.5285C4.05067 32.5226 5.71733 35.0581 7.189 37.2982C7.39966 37.6216 7.6309 37.9732 7.88369 38.3445C6.86371 38.8894 5.96816 39.5071 5.17353 40.2101C1.1622 43.7617 -0.57305 49.9652 0.748711 56.0137C1.69227 60.3255 4.03499 64.4802 7.91209 68.7161L8.88407 69.7779C9.30539 70.2355 9.80803 70.5662 10.3499 70.7596C10.101 71.2245 9.86583 71.7383 9.67477 72.3134C9.0085 74.2956 9.11236 76.4088 9.95793 78.1113C10.9534 80.1143 12.9415 81.408 15.0275 81.408C15.5536 81.408 16.0719 81.3269 16.5716 81.1678C16.7803 81.1013 16.9832 81.0212 17.1801 80.9297C17.766 81.2157 18.3872 81.4028 19.0271 81.4756C19.2279 81.4975 19.4307 81.5079 19.6296 81.5079C20.8142 81.5079 21.9684 81.123 22.9629 80.4335C23.2696 80.4959 23.5792 80.5272 23.8928 80.5272C24.4268 80.5272 24.951 80.4336 25.4428 80.2526C25.7123 80.1549 25.9709 80.0321 26.2159 79.8865C26.549 79.9895 26.8949 80.0415 27.2457 80.0415C27.6572 80.0415 28.0766 79.9677 28.4802 79.8138C28.8594 79.6713 29.2053 79.4674 29.51 79.2158C29.8147 79.4674 30.1586 79.6713 30.5378 79.8138C30.9435 79.9666 31.3609 80.0415 31.7744 80.0415C32.2486 80.0415 32.716 79.9437 33.152 79.7576C33.4567 79.9583 33.782 80.1247 34.1259 80.2495C34.6276 80.4335 35.1518 80.5272 35.6838 80.5272C35.9973 80.5272 36.3079 80.4959 36.6136 80.4335C37.6091 81.123 38.7624 81.5079 39.9469 81.5079C40.1478 81.5079 40.3506 81.4964 40.5593 81.4735C41.1923 81.4028 41.8125 81.2157 42.3984 80.9297C42.5954 81.0212 42.7982 81.1002 43.0069 81.1678C43.5066 81.3269 44.0249 81.408 44.5491 81.408C46.6331 81.408 48.6231 80.1153 49.6186 78.1113C50.4642 76.4078 50.5681 74.2935 49.9018 72.3113C49.6813 71.6561 49.406 71.0779 49.117 70.5621C49.4883 70.3676 49.8322 70.1066 50.133 69.7769L51.107 68.7151C54.9821 64.4792 57.3248 60.3255 58.2684 56.0137C59.5931 49.9631 57.8578 43.7607 53.8465 40.2091Z" fill="#B6E1E6"/>
<path d="M52.9568 39.4894C52.4052 39.0807 51.8124 38.7064 51.1677 38.359C51.4009 38.0179 51.6174 37.6924 51.8183 37.3928C52.0005 37.1183 52.1857 36.8396 52.3709 36.5557" stroke="#3E6060" stroke-width="0.7087" stroke-linecap="round" stroke-linejoin="round"/>
<path d="M53.7083 34.4507C54.5814 33.002 55.4073 31.4317 56.0315 29.7053C57.4512 25.7908 57.6599 21.5019 56.7379 17.499" stroke="#3E6060" stroke-width="0.7087" stroke-linecap="round" stroke-linejoin="round" stroke-dasharray="3.66 2.44"/>
<path d="M56.4185 16.276C56.2137 15.5719 55.9727 14.8804 55.6954 14.2033L56.5027 13.5825C56.8035 13.3516 57.0612 13.0801 57.2778 12.7786" stroke="#3E6060" stroke-width="0.7087" stroke-linecap="round" stroke-linejoin="round"/>
<path d="M57.9911 9.87083C57.9548 9.58379 57.8863 9.29887 57.7844 9.01912C57.2366 7.4893 55.8571 6.49819 54.3394 6.49819C54.2169 6.49819 54.0924 6.50441 53.9661 6.51793L52.8834 6.6344C52.7815 6.6448 52.6747 6.65103 52.5659 6.65103C51.7987 6.65103 50.8307 6.37337 49.6911 5.82738C48.972 5.4821 48.2077 5.04841 47.467 4.62826C46.6821 4.18107 45.7925 3.67672 44.8666 3.2264C41.6136 1.64771 37.9854 0.813637 34.3699 0.813637C33.4342 0.813637 32.4945 0.870823 31.5774 0.982101C31.0875 1.04138 30.6358 1.12042 30.2106 1.22026C29.1926 0.793868 28.2069 0.622255 27.4436 0.527616C26.5246 0.414258 25.582 0.357058 24.6443 0.357058C21.0239 0.357058 17.3898 1.20257 14.131 2.80518C13.2031 3.26173 12.3134 3.77443 11.5286 4.22475C10.7898 4.6501 10.0246 5.09104 9.30834 5.4384C8.17372 5.98959 7.21253 6.26936 6.45318 6.26936C6.34638 6.26936 6.24057 6.26417 6.13965 6.25273L5.06577 6.13625C4.93937 6.12169 4.81298 6.11543 4.68659 6.11543C3.1767 6.11543 1.79908 7.10034 1.24745 8.62392C0.960368 9.41638 0.929994 10.2588 1.12498 11.0367" stroke="#3E6060" stroke-width="0.7087" stroke-linecap="round" stroke-linejoin="round" stroke-dasharray="4.45 2.96"/>
<path d="M1.76183 12.4083C1.97053 12.6984 2.22135 12.9605 2.51039 13.1851L3.34519 13.8341C3.06987 14.5111 2.82687 15.2027 2.62209 15.9068" stroke="#3E6060" stroke-width="0.7087" stroke-linecap="round" stroke-linejoin="round"/>
<path d="M2.04108 18.4121C1.41302 22.0999 1.70598 25.9676 2.97876 29.5275C3.76946 31.7353 4.88254 33.6936 6.00442 35.4689" stroke="#3E6060" stroke-width="0.7087" stroke-linecap="round" stroke-linejoin="round" stroke-dasharray="3.72 2.48"/>
<path d="M6.68734 36.5328C6.85587 36.7917 7.0244 37.0465 7.18901 37.2961C7.39967 37.6196 7.6309 37.9711 7.88369 38.3423C7.23898 38.6876 6.64325 39.0609 6.09064 39.4676" stroke="#3E6060" stroke-width="0.7087" stroke-linecap="round" stroke-linejoin="round"/>
<path d="M3.8684 41.5497C0.800622 45.2 -0.420225 50.6672 0.748686 56.0127C1.66873 60.2153 3.9174 64.2681 7.61911 68.3906" stroke="#3E6060" stroke-width="0.7087" stroke-linecap="round" stroke-linejoin="round" stroke-dasharray="4.55 3.03"/>
<path d="M8.65283 69.5221L8.88408 69.7769C9.30539 70.2345 9.80804 70.5652 10.3499 70.7586C10.101 71.2235 9.86584 71.7373 9.67477 72.3124C9.62088 72.4684 9.57288 72.6275 9.52977 72.7856" stroke="#3E6060" stroke-width="0.7087" stroke-linecap="round" stroke-linejoin="round"/>
<path d="M9.35339 76.2477C9.46803 76.9018 9.66888 77.5299 9.95792 78.1113C10.7104 79.6255 12.0302 80.7341 13.5303 81.1855" stroke="#3E6060" stroke-width="0.7087" stroke-linecap="round" stroke-linejoin="round" stroke-dasharray="5.04 3.36"/>
<path d="M15.1587 81.407C15.6388 81.3935 16.1141 81.3134 16.5707 81.1678C16.7794 81.1013 16.9822 81.0212 17.1791 80.9297C17.765 81.2157 18.3862 81.4028 19.0261 81.4756C19.078 81.4808 19.1309 81.4861 19.1848 81.4902" stroke="#3E6060" stroke-width="0.7087" stroke-linecap="round" stroke-linejoin="round"/>
<path d="M20.68 81.407C21.4893 81.251 22.2643 80.9161 22.9629 80.4335C23.1354 80.4678 23.3107 80.4949 23.4871 80.5094" stroke="#3E6060" stroke-width="0.7087" stroke-linecap="round" stroke-linejoin="round" stroke-dasharray="2.3 1.53"/>
<path d="M24.2357 80.5146C24.6511 80.4824 25.0568 80.3951 25.4428 80.2526C25.7123 80.1548 25.9709 80.0321 26.2159 79.8865C26.549 79.9894 26.8949 80.0415 27.2457 80.0415C27.6572 80.0415 28.0765 79.9677 28.4802 79.8137C28.8594 79.6713 29.2053 79.4674 29.51 79.2157C29.8147 79.4674 30.1586 79.6713 30.5378 79.8137C30.9435 79.9666 31.3609 80.0415 31.7743 80.0415C32.2486 80.0415 32.7159 79.9437 33.152 79.7576C33.4567 79.9583 33.782 80.1246 34.1259 80.2494C34.4433 80.3659 34.7686 80.446 35.1018 80.4887" stroke="#3E6060" stroke-width="0.7087" stroke-linecap="round" stroke-linejoin="round"/>
<path d="M36.6577 80.4638C37.5474 81.0701 38.5615 81.4341 39.6089 81.4985" stroke="#3E6060" stroke-width="0.7087" stroke-linecap="round" stroke-linejoin="round" stroke-dasharray="2.4 1.6"/>
<path d="M40.3947 81.4902C40.4486 81.4861 40.5035 81.4798 40.5593 81.4735C41.1923 81.4028 41.8125 81.2157 42.3984 80.9297C42.5954 81.0212 42.7982 81.1002 43.0069 81.1678C43.4644 81.3145 43.9387 81.3945 44.4188 81.407" stroke="#3E6060" stroke-width="0.7087" stroke-linecap="round" stroke-linejoin="round"/>
<path d="M47.5982 80.4408C48.435 79.8709 49.1405 79.0733 49.6196 78.1113C50.184 76.9746 50.4172 75.6549 50.3123 74.3133" stroke="#3E6060" stroke-width="0.7087" stroke-linecap="round" stroke-linejoin="round" stroke-dasharray="5.14 3.42"/>
<path d="M49.9841 72.5681C49.9576 72.4818 49.9302 72.3965 49.9018 72.3113C49.6813 71.6561 49.406 71.0779 49.1169 70.5621C49.4883 70.3676 49.8322 70.1065 50.133 69.7769L50.7052 69.1518" stroke="#3E6060" stroke-width="0.7087" stroke-linecap="round" stroke-linejoin="round"/>
<path d="M52.6942 66.8794C55.6317 63.2728 57.463 59.7004 58.2684 56.0137C59.5637 50.0972 57.9313 44.0321 54.1061 40.4462" stroke="#3E6060" stroke-width="0.7087" stroke-linecap="round" stroke-linejoin="round" stroke-dasharray="4.47 2.98"/>
<path d="M44.5207 40.3453C46.9143 41.0338 49.3913 41.767 51.2951 43.4528C54.357 46.1641 55.2927 50.9334 54.3893 55.0569C53.4879 59.1794 51.0285 62.7331 48.2498 65.7698C48.9386 63.8043 49.4687 61.7763 49.8283 59.715C46.5675 65.1177 41.6018 69.3401 35.9219 71.5355C37.0124 70.3811 38.1019 69.2246 39.1925 68.0702C36.4696 69.9661 34.0583 72.3695 32.1065 75.138C32.3975 67.5347 33.8652 59.9855 36.4294 52.8803C38.048 48.3928 40.1115 44.0519 41.1041 39.3626C42.2436 39.6902 43.3821 40.0188 44.5207 40.3453Z" fill="#80CECC"/>
<path d="M31.7734 76.128L31.8116 75.1255C32.1085 67.4567 33.5684 59.9355 36.156 52.77C36.6322 51.4492 37.1555 50.1222 37.6581 48.8389C38.8691 45.7637 40.1233 42.5824 40.8199 39.295L40.8866 38.9767L44.5971 40.0448C46.8938 40.7051 49.4942 41.454 51.4822 43.2147C54.4334 45.8281 55.6866 50.505 54.6764 55.1277C53.8896 58.725 51.8555 62.2765 48.4605 65.9861L47.4885 67.0479L47.9764 65.6595C48.4869 64.2036 48.9102 62.705 49.2394 61.1866C45.9571 66.0329 41.3128 69.782 36.0218 71.8266L34.7833 72.305C33.9084 73.2483 33.0932 74.255 32.3397 75.323L31.7734 76.128ZM41.3236 39.7474C40.6044 42.9744 39.3835 46.0756 38.1999 49.0791C37.6963 50.3572 37.176 51.6811 36.7038 52.9925C34.2503 59.7888 32.8188 66.9075 32.4435 74.1677C34.313 71.6915 36.5254 69.5543 39.0328 67.8102L41.4304 66.1421L37.13 70.6972C42.2132 68.4082 46.5988 64.4917 49.5804 59.5476L50.3897 58.2081L50.1164 59.7722C49.8391 61.3624 49.4599 62.9421 48.9857 64.4833C51.7399 61.2438 53.4173 58.127 54.1052 54.9873C55.0526 50.6589 53.8484 46.1204 51.1079 43.6941C49.2169 42.0208 46.6811 41.2907 44.4442 40.6469L41.3236 39.7474Z" fill="#202B2B"/>
<path d="M14.4974 40.3453C12.1057 41.0338 9.62871 41.767 7.72494 43.4528C4.66304 46.1641 3.72732 50.9334 4.62875 55.0569C5.53017 59.1794 7.99146 62.7331 10.7682 65.7698C10.0794 63.8043 9.5513 61.7763 9.19171 59.715C12.4525 65.1177 17.4182 69.3401 23.0981 71.5355C22.0076 70.3811 20.9161 69.2246 19.8256 68.0702C22.5504 69.9661 24.9598 72.3695 26.9135 75.138C26.6206 67.5347 25.1548 59.9855 22.5906 52.8803C20.97 48.3928 18.9065 44.0519 17.914 39.3626C16.7745 39.6902 15.6359 40.0188 14.4974 40.3453Z" fill="#80CECC"/>
<path d="M27.2437 76.128L26.6774 75.3251C25.9249 74.2581 25.1097 73.2514 24.2357 72.3081L22.9953 71.8298C17.7043 69.7841 13.061 66.036 9.77766 61.1897C10.1088 62.7081 10.5321 64.2066 11.0426 65.6626L11.5305 67.051L10.5586 65.9892C7.16157 62.2796 5.12945 58.728 4.34266 55.1307C3.33052 50.508 4.58369 45.8312 7.53683 43.2177C9.52486 41.4581 12.1262 40.7083 14.42 40.0479L18.1325 38.9798L18.1991 39.2981C18.8958 42.5844 20.147 45.7647 21.359 48.8399C21.8646 50.1243 22.3868 51.4523 22.863 52.7731C25.4507 59.9386 26.9106 67.4597 27.2055 75.1286L27.2437 76.128ZM17.5897 66.141L19.9853 67.8092C22.4946 69.5542 24.706 71.6903 26.5765 74.1665C26.2012 66.9064 24.7697 59.7878 22.3163 52.9915C21.842 51.679 21.3208 50.3562 20.8181 49.0759C19.6355 46.0735 18.4147 42.9734 17.6965 39.7473L14.5748 40.6448C12.3359 41.2886 9.80019 42.0176 7.91112 43.692C5.1706 46.1182 3.96739 50.6567 4.91388 54.9851C5.59877 58.1259 7.27915 61.2417 10.0334 64.4812C9.55916 62.9399 9.17801 61.3613 8.90072 59.7701L8.62932 58.2059L9.43668 59.5455C12.4202 64.4896 16.8048 68.4061 21.8891 70.6951L17.5897 66.141Z" fill="#202B2B"/>
<path d="M10.8398 43.7918C9.34753 45.3716 8.53526 47.594 8.41866 49.8279C8.30011 52.0597 8.8439 54.2967 9.76394 56.308C9.51311 55.2566 9.63364 54.1116 10.099 53.1465C10.5223 56.9715 12.1811 60.6302 14.7355 63.3643C14.2554 62.5417 13.9948 61.5734 13.9928 60.6052C14.6189 62.0102 15.7819 63.0814 17.0665 63.8229C18.3529 64.5655 19.7668 65.0116 21.1699 65.4526C18.7948 62.1153 16.506 58.6344 15.1666 54.7012C13.8919 50.9583 13.5147 46.9045 12.0224 43.2541C11.5884 43.1241 11.1572 43.4538 10.8398 43.7918Z" fill="#3EA5A0"/>
<path d="M48.92 43.7918C50.4103 45.3716 51.2226 47.594 51.3392 49.8279C51.4577 52.0597 50.9139 54.2967 49.9939 56.308C50.2447 55.2566 50.1242 54.1116 49.6588 53.1465C49.2375 56.9715 47.5767 60.6302 45.0223 63.3643C45.5044 62.5417 45.765 61.5734 45.765 60.6052C45.1389 62.0102 43.9779 63.0814 42.6914 63.8229C41.4049 64.5655 39.991 65.0116 38.5879 65.4526C40.963 62.1153 43.2538 58.6344 44.5912 54.7012C45.8659 50.9583 46.2432 46.9045 47.7354 43.2541C48.1704 43.1241 48.6006 43.4538 48.92 43.7918Z" fill="#3EA5A0"/>
<path d="M46.5019 37.4698C41.2854 36.2634 36.5852 35.6363 31.5078 35.368V35.2255C30.8328 35.238 30.1684 35.2567 29.51 35.2806C28.8516 35.2577 28.1873 35.238 27.5102 35.2255V35.368C22.4329 35.6374 17.7347 36.2634 12.5162 37.4698C11.1915 40.2237 10.8016 43.4497 11.0867 46.5509C11.3738 49.6522 12.3095 52.6442 13.5058 55.4698C15.1744 59.4093 17.4153 63.1376 20.5007 65.853C22.5328 67.6439 24.9676 68.9522 27.5102 69.4878C27.5102 69.4878 28.8437 69.7696 29.51 69.7404C30.1763 69.7685 31.5078 69.4878 31.5078 69.4878C34.0534 68.9522 36.4872 67.6439 38.5194 65.853C41.6038 63.1376 43.8436 59.4093 45.5142 55.4698C46.7106 52.6442 47.6443 49.6522 47.9314 46.5509C48.2185 43.4497 47.8275 40.2237 46.5019 37.4698Z" fill="#80CECC"/>
<path d="M29.609 70.0556C29.5708 70.0556 29.5325 70.0545 29.4983 70.0535C29.4845 70.0545 29.4483 70.0556 29.4101 70.0556C28.6997 70.0556 27.5043 69.8049 27.4524 69.7945C24.9284 69.2631 22.4593 67.9849 20.3125 66.0932C17.5319 63.6451 15.1509 60.1144 13.2373 55.5977C11.8519 52.327 11.0534 49.3797 10.7957 46.5811C10.4802 43.1689 10.9848 39.9689 12.2556 37.3273L12.3183 37.1963L12.4545 37.1651C17.4564 36.0096 22.0213 35.3617 27.2163 35.0706V34.9083L27.5151 34.9145C28.1922 34.927 28.8584 34.9447 29.5188 34.9686C30.1596 34.9457 30.8239 34.927 31.5029 34.9145L31.8018 34.9083V35.0706C36.9957 35.3607 41.5616 36.0086 46.5636 37.1651L46.6998 37.1963L46.7625 37.3273C48.0333 39.9689 48.5389 43.1689 48.2224 46.5811C47.9637 49.3776 47.1642 52.327 45.7807 55.5977C43.8671 60.1144 41.4862 63.6451 38.7055 66.0932C36.5588 67.9839 34.0896 69.2631 31.5637 69.7945C31.5157 69.8049 30.3193 70.0556 29.609 70.0556ZM29.4983 69.4305C29.5482 69.4316 29.5786 69.4326 29.609 69.4326C30.2615 69.4326 31.4383 69.1851 31.45 69.183C33.8799 68.6734 36.2609 67.4379 38.3312 65.6138C41.0433 63.227 43.3684 59.7722 45.2457 55.3419C46.6047 52.1356 47.3876 49.2497 47.6394 46.5208C47.9382 43.2843 47.4768 40.2528 46.302 37.7422C41.2981 36.5931 36.7243 35.9555 31.4941 35.6789L31.2149 35.6634V35.5427C30.6427 35.5552 30.0783 35.5718 29.5198 35.5916C28.9437 35.5718 28.3774 35.5552 27.8051 35.5427V35.6634L27.5259 35.6779C22.2957 35.9556 17.7219 36.5931 12.7161 37.7412C11.5433 40.2517 11.0818 43.2833 11.3806 46.5197C11.6334 49.2496 12.4163 52.1346 13.7743 55.3408C15.6496 59.7711 17.9767 63.226 20.6868 65.6127C22.7591 67.4369 25.1401 68.6713 27.568 69.182C27.5808 69.1851 28.8761 69.4576 29.4983 69.4305Z" fill="#202B2B"/>
<path d="M13.5578 38.7354C14.13 37.7183 14.9736 36.8687 15.9789 36.3591C17.0008 35.8412 18.1452 35.6831 19.27 35.5572C27.0664 34.6899 34.9587 35.109 42.7071 36.3622C43.8035 36.539 45.0341 36.825 45.6161 37.8286C45.8914 38.3038 45.9737 38.8738 46.0413 39.4281C46.1315 40.1873 46.1844 41.0182 45.7905 41.6599C45.5593 42.0395 45.1918 42.3067 44.8048 42.5023C42.903 43.4642 40.6632 42.8309 38.6232 42.2714C33.4528 40.8539 27.9835 40.0125 22.7895 41.3302C20.7574 41.846 18.786 42.6884 16.7059 42.886C15.9975 42.9536 15.2665 42.9432 14.6012 42.6863C13.933 42.4295 13.3324 41.8938 13.1139 41.1763C12.869 40.362 13.1462 39.4686 13.5578 38.7354Z" fill="#3EA5A0"/>
<path d="M50.1585 12.5039C51.2725 12.1347 52.3307 11.57 53.2831 10.8379C51.492 11.0313 49.6989 10.4687 48.0509 9.6773C46.4029 8.88587 44.8548 7.86666 43.2116 7.06795C39.7245 5.3759 35.8249 4.71657 32.034 5.17936C31.2746 5.27192 30.4722 5.44144 29.8049 5.82104C29.0603 5.11073 27.9883 4.84654 26.984 4.72278C23.1932 4.25479 19.2925 4.92246 15.8064 6.63739C14.1623 7.44442 12.6142 8.4782 10.9671 9.27899C9.31907 10.0798 7.52602 10.6486 5.73493 10.4541C6.68829 11.1956 7.74648 11.7677 8.85954 12.1421C5.69084 16.5173 4.83548 22.8112 6.70299 28.0257C7.59266 30.5175 9.032 32.7129 10.4537 34.8792C12.0116 37.2483 13.7409 39.7598 16.2679 40.6251C20.5242 42.0842 25.0979 38.2789 29.4208 39.3802C29.4267 39.401 29.5835 39.4083 29.5854 39.4031C33.9123 38.3038 38.4919 42.0706 42.7521 40.6292C45.278 39.7744 47.0084 37.2951 48.5663 34.9562C49.988 32.8169 51.4273 30.6475 52.319 28.1879C54.1835 23.04 53.3272 16.824 50.1585 12.5039Z" fill="#80CECC"/>
<path d="M18.3931 41.2761C17.5955 41.2761 16.8695 41.1607 16.1768 40.9226C13.4519 39.9897 11.5805 37.1391 10.2136 35.0581C8.79979 32.9053 7.33694 30.6787 6.4267 28.138C4.5631 22.9277 5.3342 16.7627 8.38238 12.3001C7.37808 11.9185 6.43061 11.3829 5.56152 10.7069L4.68852 10.0288L5.76434 10.1463C7.25855 10.3086 8.91051 9.93623 10.8437 8.99712C11.6726 8.59465 12.4937 8.12151 13.2873 7.66496C14.0643 7.21881 14.8658 6.75702 15.6829 6.35559C19.1907 4.6313 23.204 3.94388 27.0174 4.41603C27.8306 4.51691 28.9848 4.73324 29.8441 5.4529C30.4085 5.16691 31.1012 4.98075 31.9987 4.87052C35.8131 4.40564 39.8254 5.08369 43.3331 6.78614C44.1483 7.18342 44.9498 7.63787 45.7268 8.07882C46.5214 8.53122 47.3415 8.99718 48.1704 9.39549C50.1036 10.3232 51.7585 10.6892 53.2517 10.5301L54.3364 10.4136L53.4546 11.0917C52.5855 11.7604 51.64 12.2866 50.6376 12.6641C53.6819 17.0715 54.454 23.1597 52.5894 28.3024C51.6782 30.8129 50.2163 33.0114 48.8024 35.1371C47.4346 37.1931 45.5622 40.0073 42.8393 40.9277C42.1466 41.1638 41.4215 41.2771 40.623 41.2771C40.623 41.2771 40.623 41.2771 40.621 41.2771C39.0533 41.2771 37.4504 40.8238 35.8984 40.387C34.3747 39.9575 32.7982 39.5134 31.2903 39.5134C30.7622 39.5134 30.2742 39.5654 29.803 39.6725L29.7873 39.7172L29.5668 39.7183C29.5129 39.7183 29.4081 39.7182 29.3121 39.6766C28.8104 39.5518 28.2901 39.4905 27.7238 39.4905C26.2159 39.4905 24.6413 39.9408 23.1177 40.3755C21.5677 40.8175 19.9627 41.2761 18.3931 41.2761ZM6.75395 10.7984C7.44668 11.2363 8.18153 11.5878 8.94676 11.8446L9.34652 11.9788L9.09178 12.3314C5.96325 16.6494 5.13237 22.7675 6.97539 27.9165C7.85918 30.3865 9.30047 32.5798 10.6938 34.7013C12.4045 37.3044 14.0104 39.5259 16.3561 40.3298C16.989 40.5461 17.6553 40.6532 18.3921 40.6532C19.8844 40.6532 21.4501 40.205 22.9659 39.7723C24.5257 39.3272 26.1385 38.8665 27.7248 38.8665C28.3509 38.8665 28.927 38.9351 29.4855 39.0776L29.5472 39.0932C30.0998 38.9559 30.6701 38.8894 31.2903 38.8894C32.8747 38.8894 34.4884 39.3449 36.0492 39.7838C37.563 40.2112 39.1307 40.6522 40.621 40.6522C40.623 40.6522 40.623 40.6522 40.623 40.6522C41.3598 40.6522 42.0261 40.5482 42.661 40.3329C45.0057 39.5394 46.6126 37.3471 48.3213 34.7762C49.7166 32.6807 51.1579 30.5144 52.0397 28.0767C53.8827 22.9953 53.0518 16.9582 49.9253 12.6953L49.6647 12.3407L50.0683 12.2066C50.8316 11.9528 51.5625 11.6096 52.2523 11.1811C50.9394 11.125 49.5216 10.7256 47.9294 9.96017C47.0838 9.55354 46.253 9.08245 45.4495 8.62693C44.6823 8.19118 43.8877 7.7388 43.0882 7.35089C39.6765 5.69523 35.7739 5.03479 32.0653 5.48718C31.1463 5.5995 30.4712 5.79298 29.9411 6.09458L29.7589 6.19855L29.606 6.05192C28.8594 5.33953 27.7326 5.12844 26.9498 5.03276C23.2412 4.57413 19.3386 5.2428 15.9289 6.91925C15.1294 7.31237 14.3347 7.76892 13.5656 8.21092C12.7641 8.67163 11.9332 9.14899 11.0857 9.56186C9.49055 10.3387 8.06886 10.7444 6.75395 10.7984Z" fill="#202B2B"/>
<path d="M10.9877 12.7182C8.03065 15.1746 6.03281 19.1484 6.47373 23.1066C6.57857 24.0499 6.81666 24.9723 7.10571 25.8709C7.88269 28.2899 9.06336 30.5934 10.7516 32.4145C12.4417 34.2355 14.663 35.5521 17.0537 35.8558C16.2346 36.5536 15.1842 36.9415 14.1339 36.9321C16.0229 38.6783 18.834 38.5774 21.3139 38.1989C23.7938 37.8203 26.4461 37.2857 28.7105 38.4266C27.9355 32.1378 29.6962 25.8064 29.6237 19.4667C29.608 18.0762 29.5051 16.6889 29.3483 15.3088C29.1994 13.9724 28.9927 12.6204 28.4489 11.4047C27.3642 8.98258 24.9853 7.37062 22.4877 6.96814C19.9902 6.56567 17.4103 7.26977 15.197 8.55935C12.9806 9.84789 11.0974 11.6949 9.39062 13.6729" fill="#348FA5"/>
<path d="M48.1911 12.7182C51.1481 15.1746 53.1459 19.1484 52.705 23.1066C52.6002 24.0499 52.3621 24.9723 52.073 25.8709C51.2961 28.2899 50.1154 30.5934 48.4272 32.4145C46.737 34.2355 44.5158 35.5521 42.1251 35.8558C42.9442 36.5536 43.9945 36.9415 45.0449 36.9321C43.1558 38.6783 40.3467 38.5774 37.8649 38.1989C35.385 37.8203 32.7326 37.2857 30.4683 38.4266C31.2433 32.1378 29.4826 25.8064 29.5551 19.4667C29.5708 18.0762 29.6736 16.6889 29.8304 15.3088C29.9813 13.9724 30.1861 12.6204 30.7299 11.4047C31.8145 8.98258 34.1935 7.37062 36.691 6.96814C39.1886 6.56567 41.7684 7.26977 43.9818 8.55935C46.1981 9.84789 48.0833 11.6949 49.7881 13.6729" fill="#348FA5"/>
<path d="M50.8209 16.4715C49.0738 12.1119 45.0419 9.23745 40.9022 8.96498C36.7626 8.69354 32.6346 10.8608 29.7814 14.351H29.4385C26.5853 10.8619 22.4574 8.69458 18.3157 8.96498C14.176 9.23745 10.1461 12.1109 8.3971 16.4715C6.65011 20.8322 7.47806 26.5157 10.6056 29.6731C12.4349 31.5211 14.8315 32.4249 17.1997 33.0343C19.5679 33.6437 21.9988 34.0108 24.2729 34.9967C25.9994 35.7445 27.6602 36.9166 28.8104 38.5535C28.9976 38.8197 29.2945 38.9737 29.608 38.9737C29.9215 38.9737 30.2204 38.8197 30.4075 38.5535C31.5578 36.9166 33.2166 35.7445 34.9431 34.9967C37.2162 34.0119 39.6471 33.6437 42.0183 33.0343C44.3874 32.4249 46.7811 31.5211 48.6124 29.6731C51.7409 26.5157 52.5698 20.8332 50.8209 16.4715Z" fill="white"/>
<path d="M18.544 31.1415C23.616 31.1415 27.7277 26.7773 27.7277 21.3937C27.7277 16.0102 23.616 11.646 18.544 11.646C13.4719 11.646 9.36025 16.0102 9.36025 21.3937C9.36025 26.7773 13.4719 31.1415 18.544 31.1415Z" fill="#DB84B6"/>
<path d="M18.544 31.4546C13.3177 31.4546 9.06533 26.941 9.06533 21.3938C9.06533 15.8475 13.3177 11.334 18.544 11.334C23.7703 11.334 28.0227 15.8475 28.0227 21.3938C28.0227 26.941 23.7703 31.4546 18.544 31.4546ZM18.544 11.9559C13.641 11.9559 9.65322 16.1896 9.65322 21.3927C9.65322 26.5967 13.641 30.8305 18.544 30.8305C23.447 30.8305 27.4348 26.5967 27.4348 21.3927C27.4358 16.1907 23.447 11.9559 18.544 11.9559Z" fill="#202B2B"/>
<path d="M18.544 29.0615C22.5338 29.0615 25.7681 25.6286 25.7681 21.3938C25.7681 17.159 22.5338 13.726 18.544 13.726C14.5542 13.726 11.3199 17.159 11.3199 21.3938C11.3199 25.6286 14.5542 29.0615 18.544 29.0615Z" fill="#F8B95D"/>
<path d="M23.4019 22.3038C23.5567 22.3308 23.7693 22.5211 23.9094 22.7208C24.0564 22.9194 24.1603 23.1315 24.1603 23.1315C24.1603 23.1315 24.1142 23.1576 24.0398 23.2023C23.9633 23.2418 23.8555 23.2917 23.7409 23.3333C23.5116 23.4176 23.251 23.4644 23.106 23.3988C22.813 23.2626 22.6621 22.9496 22.7346 22.6896C22.767 22.5544 22.8591 22.4504 22.9835 22.3797C23.0991 22.311 23.2461 22.2736 23.4019 22.3038Z" fill="#FAE8C7"/>
<path d="M22.7052 24.2069C22.8395 24.2953 22.9639 24.5563 23.0207 24.7987C23.0854 25.0431 23.105 25.2791 23.105 25.2791C23.105 25.2791 23.0531 25.2906 22.9668 25.2958C22.8806 25.301 22.766 25.3031 22.6435 25.2958C22.4025 25.2802 22.1458 25.2188 22.035 25.1002C21.8146 24.8569 21.7823 24.5023 21.9469 24.2943C22.0252 24.182 22.1477 24.1217 22.2878 24.1071C22.423 24.0905 22.571 24.1164 22.7052 24.2069Z" fill="#FAE8C7"/>
<path d="M21.3747 25.6847C21.4668 25.823 21.4854 26.107 21.4531 26.3576C21.4246 26.6103 21.359 26.838 21.359 26.838C21.359 26.838 21.3051 26.8245 21.2228 26.7933C21.1425 26.7642 21.0337 26.7205 20.9259 26.6644C20.7054 26.5541 20.4938 26.3939 20.4321 26.2348C20.3194 25.9291 20.4125 25.5755 20.6427 25.4569C20.8642 25.3155 21.1934 25.4205 21.3747 25.6847Z" fill="#FAE8C7"/>
<path d="M19.612 26.5073C19.6483 26.6748 19.5601 26.942 19.4415 27.1614C19.323 27.383 19.1789 27.566 19.1789 27.566C19.1789 27.566 19.1348 27.5348 19.0721 27.4714C19.0075 27.41 18.9252 27.3248 18.8448 27.2301C18.6822 27.0377 18.5421 26.8027 18.544 26.6352C18.5499 26.2993 18.7645 26.0185 19.0202 26.0009C19.274 25.9572 19.5395 26.1901 19.612 26.5073Z" fill="#FAE8C7"/>
<path d="M17.6867 26.55C17.6622 26.7133 17.4819 26.9379 17.2948 27.0887C17.1056 27.2447 16.9077 27.3539 16.9077 27.3539C16.9077 27.3539 16.8813 27.3051 16.8411 27.2271C16.8029 27.1459 16.7568 27.0315 16.7167 26.9098C16.6363 26.6644 16.5942 26.3899 16.6549 26.2359C16.7833 25.925 17.0782 25.7638 17.3232 25.8418C17.4496 25.875 17.5485 25.9728 17.6142 26.1039C17.6818 26.2287 17.7141 26.3847 17.6867 26.55Z" fill="#FAE8C7"/>
<path d="M15.8936 25.8106C15.8094 25.951 15.5644 26.0841 15.3371 26.1454C15.1059 26.213 14.8835 26.2349 14.8835 26.2349C14.8835 26.2349 14.8736 26.1787 14.8678 26.0882C14.8638 25.9967 14.8599 25.8729 14.8678 25.745C14.8834 25.4871 14.9403 25.2157 15.053 25.0992C15.2803 24.8642 15.6154 24.8309 15.8123 25.0056C15.9171 25.0888 15.9749 25.2188 15.9887 25.3675C16.0034 25.5121 15.9798 25.6681 15.8936 25.8106Z" fill="#FAE8C7"/>
<path d="M14.5023 24.3972C14.372 24.496 14.1025 24.5137 13.8674 24.4804C13.6303 24.4513 13.4157 24.3806 13.4157 24.3806C13.4157 24.3806 13.4275 24.3244 13.4559 24.2371C13.4843 24.1508 13.5264 24.0363 13.5784 23.9209C13.6832 23.6879 13.8331 23.4623 13.984 23.3978C14.2711 23.2782 14.6042 23.376 14.7169 23.6203C14.8492 23.8554 14.7512 24.2038 14.5023 24.3972Z" fill="#FAE8C7"/>
<path d="M13.7263 22.5284C13.5695 22.5658 13.3167 22.4732 13.112 22.3453C12.9033 22.2216 12.7308 22.0687 12.7308 22.0687C12.7308 22.0687 12.7592 22.0219 12.819 21.9543C12.8768 21.8867 12.9571 21.7973 13.0463 21.713C13.2285 21.5414 13.45 21.3927 13.6067 21.3938C13.9242 21.401 14.1888 21.6277 14.2054 21.8991C14.2446 22.1685 14.0242 22.4504 13.7263 22.5284Z" fill="#FAE8C7"/>
<path d="M13.6871 20.4848C13.5323 20.4578 13.3197 20.2675 13.1796 20.0667C13.0326 19.8681 12.9287 19.6569 12.9287 19.6569C12.9287 19.6569 12.9748 19.6299 13.0473 19.5862C13.1257 19.5467 13.2325 19.4968 13.3481 19.4552C13.5774 19.3699 13.838 19.3232 13.983 19.3897C14.276 19.5249 14.4269 19.838 14.3544 20.099C14.322 20.2342 14.2299 20.3371 14.1055 20.4079C13.9899 20.4765 13.8429 20.5129 13.6871 20.4848Z" fill="#FAE8C7"/>
<path d="M14.3838 18.5816C14.2495 18.4922 14.1251 18.2322 14.0683 17.9889C14.0036 17.7455 13.984 17.5095 13.984 17.5095C13.984 17.5095 14.0359 17.498 14.1221 17.4928C14.2084 17.4865 14.323 17.4844 14.4455 17.4928C14.6865 17.5073 14.9432 17.5698 15.054 17.6883C15.2744 17.9306 15.3067 18.2863 15.1421 18.4943C15.0637 18.6066 14.9413 18.6659 14.8012 18.6804C14.666 18.6971 14.518 18.6711 14.3838 18.5816Z" fill="#FAE8C7"/>
<path d="M15.7143 17.1038C15.6222 16.9644 15.6036 16.6805 15.6359 16.4309C15.6644 16.1782 15.73 15.9504 15.73 15.9504C15.73 15.9504 15.7839 15.9639 15.8662 15.9941C15.9465 16.0243 16.0553 16.0679 16.1631 16.1241C16.3835 16.2343 16.5952 16.3945 16.6569 16.5526C16.7696 16.8594 16.6765 17.2119 16.4463 17.3305C16.2248 17.4719 15.8956 17.3669 15.7143 17.1038Z" fill="#FAE8C7"/>
<path d="M17.477 16.2801C17.4407 16.1137 17.5289 15.8454 17.6475 15.627C17.766 15.4044 17.9101 15.2214 17.9101 15.2214C17.9101 15.2214 17.9542 15.2537 18.0169 15.3161C18.0815 15.3785 18.1638 15.4627 18.2442 15.5584C18.4068 15.7508 18.5469 15.9858 18.545 16.1533C18.5391 16.4881 18.3245 16.7689 18.0688 16.7876C17.815 16.8303 17.5495 16.5963 17.477 16.2801Z" fill="#FAE8C7"/>
<path d="M19.4013 16.2375C19.4258 16.0753 19.6061 15.8495 19.7933 15.6998C19.9824 15.5438 20.1803 15.4346 20.1803 15.4346C20.1803 15.4346 20.2067 15.4835 20.2469 15.5605C20.2851 15.6426 20.3312 15.757 20.3714 15.8787C20.4517 16.1231 20.4938 16.3987 20.4331 16.5516C20.3047 16.8625 20.0098 17.0248 19.7649 16.9468C19.6385 16.9135 19.5395 16.8157 19.4739 16.6837C19.4072 16.5589 19.3749 16.4039 19.4013 16.2375Z" fill="#FAE8C7"/>
<path d="M21.1954 16.978C21.2777 16.8366 21.5246 16.7045 21.7519 16.6432C21.9831 16.5756 22.2055 16.5537 22.2055 16.5537C22.2055 16.5537 22.2154 16.6098 22.2212 16.6993C22.2251 16.7918 22.2291 16.9146 22.2212 17.0425C22.2056 17.3004 22.1487 17.5719 22.0361 17.6894C21.8087 17.9244 21.4736 17.9577 21.2767 17.7819C21.1719 17.6998 21.114 17.5698 21.1003 17.4211C21.0856 17.2765 21.1092 17.1194 21.1954 16.978Z" fill="#FAE8C7"/>
<path d="M22.5857 18.3902C22.716 18.2904 22.9835 18.2727 23.2207 18.307C23.4578 18.3361 23.6723 18.4069 23.6723 18.4069C23.6723 18.4069 23.6606 18.462 23.6322 18.5494C23.6038 18.6367 23.5616 18.7501 23.5097 18.8666C23.4049 19.0995 23.2549 19.3241 23.1041 19.3897C22.817 19.5093 22.4838 19.4115 22.3712 19.166C22.2399 18.932 22.3378 18.5837 22.5857 18.3902Z" fill="#FAE8C7"/>
<path d="M23.3627 20.2601C23.5195 20.2216 23.7703 20.3142 23.9771 20.4421C24.1858 20.5669 24.3582 20.7198 24.3582 20.7198C24.3582 20.7198 24.3298 20.7655 24.27 20.8342C24.2122 20.9018 24.1319 20.9902 24.0427 21.0754C23.8605 21.247 23.639 21.3948 23.4823 21.3937C23.1648 21.3875 22.9003 21.1608 22.8836 20.8893C22.8444 20.62 23.0649 20.336 23.3627 20.2601Z" fill="#FAE8C7"/>
<path d="M18.544 25.1189C20.4823 25.1189 22.0537 23.4511 22.0537 21.3938C22.0537 19.3364 20.4823 17.6685 18.544 17.6685C16.6057 17.6685 15.0343 19.3364 15.0343 21.3938C15.0343 23.4511 16.6057 25.1189 18.544 25.1189Z" fill="#202B2B"/>
<path d="M40.526 31.1425C45.5986 31.1425 49.7107 26.7779 49.7107 21.3938C49.7107 16.0097 45.5986 11.645 40.526 11.645C35.4534 11.645 31.3413 16.0097 31.3413 21.3938C31.3413 26.7779 35.4534 31.1425 40.526 31.1425Z" fill="#DB84B6"/>
<path d="M40.525 31.4546C35.3007 31.4546 31.0483 26.941 31.0483 21.3938C31.0483 15.8475 35.3007 11.334 40.525 11.334C45.7513 11.334 50.0037 15.8475 50.0037 21.3938C50.0037 26.941 45.7513 31.4546 40.525 31.4546ZM40.525 11.9559C35.624 11.9559 31.6342 16.1896 31.6342 21.3927C31.6342 26.5967 35.624 30.8305 40.525 30.8305C45.428 30.8305 49.4178 26.5967 49.4178 21.3927C49.4178 16.1907 45.428 11.9559 40.525 11.9559Z" fill="#202B2B"/>
<path d="M40.526 29.0605C44.5152 29.0605 47.7491 25.628 47.7491 21.3937C47.7491 17.1595 44.5152 13.727 40.526 13.727C36.5367 13.727 33.3028 17.1595 33.3028 21.3937C33.3028 25.628 36.5367 29.0605 40.526 29.0605Z" fill="#F8B95D"/>
<path d="M40.526 25.118C42.4638 25.118 44.0347 23.4506 44.0347 21.3938C44.0347 19.337 42.4638 17.6696 40.526 17.6696C38.5882 17.6696 37.0173 19.337 37.0173 21.3938C37.0173 23.4506 38.5882 25.118 40.526 25.118Z" fill="#202B2B"/>
<path d="M33.5272 31.2402C33.0834 30.7722 32.5631 30.3864 31.9958 30.1046C31.7303 29.9725 31.3952 29.8706 31.161 30.0588C31.0365 30.1608 30.9738 30.322 30.918 30.4769C30.5143 31.6084 30.2615 32.7971 30.1547 34.0014C30.0479 32.7982 29.7951 31.6084 29.3895 30.4769C29.3336 30.322 29.2709 30.1597 29.1465 30.0588C28.9153 29.8706 28.5782 29.9725 28.3137 30.1046C27.7473 30.3864 27.2271 30.7722 26.7822 31.2402C26.3364 31.7103 25.9494 32.4092 26.2081 33.0186C26.4148 33.5053 26.9409 33.7175 27.3926 33.9515C28.638 34.6005 29.6276 35.7819 30.091 37.1702C30.1175 36.9685 30.1351 36.7657 30.1537 36.5629C30.1714 36.7657 30.188 36.9685 30.2155 37.1702C30.6789 35.7819 31.6695 34.6005 32.9139 33.9515C33.3655 33.7165 33.8937 33.5043 34.1004 33.0186C34.3591 32.4092 33.973 31.7114 33.5272 31.2402Z" fill="#EA954D"/>
<path d="M30.2086 38.3953L30.1547 38.2342L30.1008 38.3953L30.0303 37.8587L29.8314 37.268C29.3914 35.9462 28.4577 34.8334 27.2731 34.2147L27.1046 34.1293C26.6725 33.9109 26.1806 33.6634 25.9582 33.1382C25.6927 32.5153 25.9278 31.7291 26.5882 31.0323C27.0575 30.5373 27.5984 30.1369 28.198 29.8405C28.6683 29.6065 29.0416 29.6065 29.316 29.827C29.4963 29.9736 29.5786 30.1774 29.6491 30.374C29.8559 30.9512 30.0244 31.546 30.1567 32.1554C30.287 31.546 30.4575 30.9512 30.6623 30.374C30.7328 30.1774 30.8171 29.9726 30.9973 29.827C31.2688 29.6065 31.644 29.6065 32.1153 29.8405C32.714 30.1369 33.2558 30.5383 33.7251 31.0323C34.3836 31.7291 34.6207 32.5163 34.3552 33.1382C34.1327 33.6634 33.6409 33.9109 33.2068 34.1293L33.0402 34.2147C31.8537 34.8334 30.9219 35.9452 30.48 37.268L30.2831 37.8587L30.2086 38.3953ZM30.1449 36.5359H30.1645C30.7083 35.3077 31.644 34.2895 32.7943 33.6895L32.9668 33.601C33.3499 33.4086 33.7095 33.2277 33.8486 32.898C34.0455 32.4384 33.7104 31.8466 33.3322 31.4472C32.909 31.0011 32.421 30.6381 31.8802 30.3698C31.451 30.1566 31.3746 30.2586 31.3305 30.2929C31.2658 30.3449 31.2217 30.4593 31.1776 30.5809C30.7896 31.6719 30.5368 32.8315 30.4291 34.0285H29.8794C29.7745 32.8315 29.5218 31.6708 29.1328 30.5809C29.0887 30.4593 29.0426 30.3438 28.9799 30.2929C28.9358 30.2586 28.8594 30.1566 28.4303 30.3698C27.8884 30.6381 27.4005 31.0011 26.9762 31.4472C26.599 31.8466 26.2639 32.4373 26.4599 32.898C26.6 33.2267 26.9615 33.4086 27.3417 33.601L27.5161 33.6895C28.6664 34.2895 29.6021 35.3087 30.1449 36.5359Z" fill="#202B2B"/>
<path d="M45.3055 22.3038C45.4603 22.3308 45.6729 22.5211 45.813 22.7208C45.96 22.9194 46.0639 23.1315 46.0639 23.1315C46.0639 23.1315 46.0178 23.1576 45.9434 23.2023C45.8669 23.2418 45.7592 23.2917 45.6445 23.3333C45.4152 23.4176 45.1546 23.4644 45.0096 23.3988C44.7166 23.2626 44.5657 22.9496 44.6382 22.6896C44.6706 22.5544 44.7627 22.4504 44.8871 22.3797C45.0027 22.311 45.1507 22.2736 45.3055 22.3038Z" fill="#FAE8C7"/>
<path d="M44.6088 24.2069C44.7431 24.2953 44.8675 24.5563 44.9243 24.7987C44.989 25.0431 45.0086 25.2791 45.0086 25.2791C45.0086 25.2791 44.9567 25.2906 44.8704 25.2958C44.7842 25.301 44.6676 25.3031 44.5471 25.2958C44.3061 25.2802 44.0494 25.2188 43.9386 25.1002C43.7182 24.8569 43.6859 24.5023 43.8505 24.2943C43.9288 24.182 44.0513 24.1217 44.1914 24.1071C44.3276 24.0905 44.4746 24.1164 44.6088 24.2069Z" fill="#FAE8C7"/>
<path d="M43.2792 25.6847C43.3713 25.823 43.39 26.107 43.3576 26.3576C43.3292 26.6103 43.2636 26.838 43.2636 26.838C43.2636 26.838 43.2097 26.8245 43.1274 26.7933C43.047 26.7642 42.9383 26.7205 42.8305 26.6644C42.61 26.5541 42.3984 26.3939 42.3367 26.2348C42.224 25.9291 42.3171 25.5755 42.5473 25.4569C42.7678 25.3155 43.097 25.4205 43.2792 25.6847Z" fill="#FAE8C7"/>
<path d="M41.5166 26.5073C41.5528 26.6748 41.4646 26.942 41.3461 27.1614C41.2275 27.383 41.0835 27.566 41.0835 27.566C41.0835 27.566 41.0394 27.5348 40.9767 27.4714C40.912 27.41 40.8278 27.3248 40.7494 27.2301C40.5867 27.0377 40.4466 26.8027 40.4486 26.6352C40.4544 26.2993 40.669 26.0185 40.9248 26.0009C41.1775 25.9572 41.444 26.1901 41.5166 26.5073Z" fill="#FAE8C7"/>
<path d="M39.5913 26.55C39.5668 26.7133 39.3865 26.9379 39.1993 27.0887C39.0102 27.2447 38.8123 27.3539 38.8123 27.3539C38.8123 27.3539 38.7859 27.3051 38.7457 27.2271C38.7075 27.1459 38.6614 27.0315 38.6212 26.9098C38.5409 26.6644 38.4988 26.3899 38.5595 26.2359C38.6879 25.925 38.9808 25.7638 39.2277 25.8418C39.3541 25.875 39.4531 25.9728 39.5187 26.1039C39.5854 26.2287 39.6177 26.3847 39.5913 26.55Z" fill="#FAE8C7"/>
<path d="M37.7982 25.8106C37.7139 25.951 37.469 26.0841 37.2417 26.1454C37.0104 26.213 36.788 26.2349 36.788 26.2349C36.788 26.2349 36.7782 26.1787 36.7723 26.0882C36.7684 25.9967 36.7645 25.8729 36.7723 25.745C36.786 25.4871 36.8448 25.2157 36.9575 25.0992C37.1848 24.8642 37.5199 24.8309 37.7169 25.0056C37.8217 25.0888 37.8775 25.2188 37.8913 25.3675C37.9069 25.5121 37.8844 25.6681 37.7982 25.8106Z" fill="#FAE8C7"/>
<path d="M36.4069 24.3972C36.2765 24.496 36.0071 24.5137 35.7719 24.4804C35.5348 24.4513 35.3203 24.3806 35.3203 24.3806C35.3203 24.3806 35.332 24.3244 35.3604 24.2371C35.3888 24.1508 35.431 24.0363 35.4829 23.9209C35.5877 23.6879 35.7377 23.4623 35.8885 23.3978C36.1756 23.2782 36.5087 23.376 36.6214 23.6203C36.7527 23.8554 36.6557 24.2038 36.4069 24.3972Z" fill="#FAE8C7"/>
<path d="M35.6299 22.5284C35.4731 22.5658 35.2203 22.4732 35.0155 22.3453C34.8049 22.2216 34.6324 22.0687 34.6324 22.0687C34.6324 22.0687 34.6628 22.0219 34.7226 21.9543C34.7804 21.8867 34.8607 21.7973 34.9499 21.713C35.1321 21.5414 35.3536 21.3927 35.5103 21.3938C35.8278 21.401 36.0923 21.6277 36.109 21.8991C36.1482 22.1685 35.9287 22.4504 35.6299 22.5284Z" fill="#FAE8C7"/>
<path d="M35.5917 20.4848C35.4368 20.4578 35.2242 20.2675 35.0841 20.0667C34.9372 19.8681 34.8333 19.6569 34.8333 19.6569C34.8333 19.6569 34.8793 19.6299 34.9518 19.5862C35.0302 19.5467 35.137 19.4968 35.2526 19.4552C35.4819 19.3699 35.7425 19.3232 35.8876 19.3897C36.1786 19.5249 36.3314 19.838 36.2589 20.099C36.2266 20.2342 36.1345 20.3371 36.01 20.4079C35.8944 20.4765 35.7465 20.5129 35.5917 20.4848Z" fill="#FAE8C7"/>
<path d="M36.2883 18.5816C36.1541 18.4922 36.0296 18.2322 35.9728 17.9889C35.9082 17.7455 35.8886 17.5095 35.8886 17.5095C35.8886 17.5095 35.9405 17.498 36.0267 17.4928C36.1129 17.4865 36.2276 17.4844 36.3481 17.4928C36.5911 17.5073 36.8478 17.5698 36.9585 17.6883C37.179 17.9306 37.2113 18.2863 37.0447 18.4943C36.9683 18.6066 36.8458 18.6659 36.7057 18.6804C36.5695 18.6971 36.4225 18.6711 36.2883 18.5816Z" fill="#FAE8C7"/>
<path d="M37.6179 17.1038C37.5258 16.9644 37.5072 16.6805 37.5395 16.4309C37.5679 16.1782 37.6336 15.9504 37.6336 15.9504C37.6336 15.9504 37.6875 15.9639 37.7678 15.9941C37.8501 16.0243 37.9589 16.0679 38.0666 16.1241C38.2871 16.2343 38.4987 16.3945 38.5605 16.5526C38.6731 16.8594 38.5801 17.2119 38.3498 17.3305C38.1294 17.4719 37.8001 17.3669 37.6179 17.1038Z" fill="#FAE8C7"/>
<path d="M39.3806 16.2801C39.3443 16.1137 39.4306 15.8454 39.5511 15.627C39.6696 15.4044 39.8137 15.2214 39.8137 15.2214C39.8137 15.2214 39.8558 15.2537 39.9205 15.3161C39.9851 15.3785 40.0674 15.4627 40.1478 15.5584C40.3104 15.7508 40.4505 15.9858 40.4486 16.1533C40.4427 16.4881 40.2281 16.7689 39.9724 16.7876C39.7196 16.8303 39.4531 16.5963 39.3806 16.2801Z" fill="#FAE8C7"/>
<path d="M41.3059 16.2375C41.3304 16.0753 41.5107 15.8495 41.6979 15.6998C41.887 15.5438 42.0849 15.4346 42.0849 15.4346C42.0849 15.4346 42.1113 15.4835 42.1515 15.5605C42.1897 15.6426 42.2358 15.757 42.2759 15.8787C42.3563 16.1231 42.3984 16.3987 42.3377 16.5516C42.2093 16.8625 41.9144 17.0248 41.6694 16.9468C41.543 16.9135 41.4441 16.8157 41.3784 16.6837C41.3118 16.5589 41.2795 16.4039 41.3059 16.2375Z" fill="#FAE8C7"/>
<path d="M43.099 16.978C43.1813 16.8366 43.4282 16.7045 43.6555 16.6432C43.8867 16.5756 44.1091 16.5537 44.1091 16.5537C44.1091 16.5537 44.1189 16.6098 44.1248 16.6993C44.1287 16.7918 44.1326 16.9146 44.1248 17.0425C44.1091 17.3004 44.0523 17.5719 43.9396 17.6894C43.7104 17.9244 43.3772 17.9577 43.1803 17.7819C43.0754 17.6998 43.0176 17.5698 43.0039 17.4211C42.9902 17.2765 43.0127 17.1194 43.099 16.978Z" fill="#FAE8C7"/>
<path d="M44.4903 18.3902C44.6206 18.2904 44.8881 18.2727 45.1252 18.307C45.3623 18.3361 45.5769 18.4069 45.5769 18.4069C45.5769 18.4069 45.5651 18.462 45.5367 18.5494C45.5083 18.6367 45.4662 18.7501 45.4142 18.8666C45.3094 19.0995 45.1595 19.3241 45.0086 19.3897C44.7215 19.5093 44.3884 19.4115 44.2757 19.166C44.1434 18.932 44.2414 18.5837 44.4903 18.3902Z" fill="#FAE8C7"/>
<path d="M45.2673 20.2601C45.424 20.2216 45.6749 20.3142 45.8816 20.4421C46.0903 20.5669 46.2628 20.7198 46.2628 20.7198C46.2628 20.7198 46.2343 20.7655 46.1746 20.8342C46.1167 20.9018 46.0364 20.9902 45.9472 21.0754C45.765 21.247 45.5436 21.3948 45.3868 21.3937C45.0693 21.3875 44.8048 21.1608 44.7881 20.8893C44.7489 20.62 44.9684 20.336 45.2673 20.2601Z" fill="#FAE8C7"/>
<path d="M13.4314 45.123C13.594 45.0481 13.8929 45.0804 14.1378 45.1022C14.3906 45.122 14.5993 45.1365 14.5993 45.1365C14.5993 45.1365 14.515 45.3456 14.4308 45.5921C14.3387 45.8375 14.228 46.1411 14.0957 46.2597C13.9575 46.3803 13.789 46.4261 13.6234 46.3939C13.4588 46.3616 13.2864 46.2586 13.1874 46.0735C12.966 45.7137 13.112 45.2644 13.4314 45.123Z" fill="#FAE8C7"/>
<path d="M14.8011 47.0148C14.9177 46.8723 15.1989 46.7662 15.4341 46.6789C15.6751 46.5894 15.876 46.5145 15.876 46.5145C15.876 46.5145 15.8858 46.7402 15.8985 47.0096C15.9083 47.2768 15.9162 47.5972 15.8339 47.7625C15.6732 48.0932 15.2636 48.2118 14.9422 47.9799C14.6179 47.7511 14.5719 47.2935 14.8011 47.0148Z" fill="#FAE8C7"/>
<path d="M16.749 48.1878C16.8088 48.011 17.038 47.8041 17.2291 47.6346C17.426 47.4619 17.5907 47.3174 17.5907 47.3174C17.5907 47.3174 17.6749 47.5254 17.7749 47.7729C17.8728 48.0183 17.9855 48.3147 17.962 48.5019C17.9218 48.868 17.572 49.1363 17.1968 49.0344C16.8205 48.946 16.6285 48.5331 16.749 48.1878Z" fill="#FAE8C7"/>
<path d="M18.9595 48.5519C18.9575 48.3626 19.1045 48.0911 19.2328 47.8655C19.369 47.6304 19.4797 47.4349 19.4797 47.4349C19.4797 47.4349 19.6287 47.5941 19.7992 47.7989C19.9696 48.0038 20.1627 48.2523 20.195 48.4364C20.2616 48.8046 20.0127 49.1467 19.6404 49.1946C19.5483 49.206 19.4582 49.1998 19.3778 49.1727C19.2955 49.1395 19.2211 49.0906 19.1574 49.0292C19.0339 48.9086 18.9614 48.7391 18.9595 48.5519Z" fill="#FAE8C7"/>
<path d="M21.1601 48.1909C21.1101 48.011 21.1807 47.698 21.2483 47.4349C21.3188 47.1718 21.3913 46.9576 21.3913 46.9576C21.3913 46.9576 21.5736 47.0803 21.793 47.229C22.0037 47.3756 22.2447 47.5597 22.3153 47.7313C22.4573 48.0662 22.3172 48.4957 21.9655 48.6163C21.6176 48.7442 21.2581 48.5518 21.1601 48.1909Z" fill="#FAE8C7"/>
<path d="M23.202 47.2717C23.1177 47.1074 23.1295 46.7912 23.152 46.5229C23.1658 46.3866 23.1765 46.2618 23.1863 46.1703C23.1981 46.0767 23.2059 46.0185 23.2059 46.0185C23.2059 46.0185 23.4127 46.0902 23.6498 46.1974C23.8869 46.3045 24.1573 46.4438 24.2563 46.6009C24.4552 46.9118 24.3709 47.3278 24.0691 47.5317C23.7674 47.7386 23.3627 47.5993 23.202 47.2717Z" fill="#FAE8C7"/>
<path d="M26.6568 47.2851C26.7695 47.1395 27.0468 47.0241 27.2809 46.9326C27.3956 46.8889 27.5034 46.8494 27.5817 46.8203C27.6621 46.7891 27.7121 46.7683 27.7121 46.7683C27.7121 46.7683 27.7258 46.9856 27.7317 47.2539C27.7356 47.5212 27.7356 47.8395 27.6513 48.0058C27.4847 48.3366 27.0948 48.4406 26.7803 48.2336C26.4746 48.01 26.4305 47.568 26.6568 47.2851Z" fill="#FAE8C7"/>
<path d="M28.5243 48.4302C28.587 48.2555 28.8173 48.0526 29.0103 47.8873C29.2092 47.7261 29.3738 47.5909 29.3738 47.5909C29.3738 47.5909 29.4502 47.7916 29.5345 48.0443C29.6168 48.296 29.7109 48.5987 29.6776 48.7827C29.6178 49.1519 29.2758 49.3828 28.9182 49.2913C28.5664 49.1738 28.392 48.7776 28.5243 48.4302Z" fill="#FAE8C7"/>
<path d="M30.6348 48.8971C30.6446 48.7099 30.7994 48.4395 30.9336 48.2149C31.0679 47.9913 31.1845 47.8145 31.1845 47.8145C31.1845 47.8145 31.3167 47.9768 31.4735 48.1837C31.6283 48.3927 31.8106 48.6444 31.837 48.8295C31.8948 49.1997 31.642 49.5388 31.2727 49.5793C30.8993 49.5793 30.6142 49.2715 30.6348 48.8971Z" fill="#FAE8C7"/>
<path d="M32.7767 48.6091C32.7267 48.4291 32.7904 48.1182 32.8472 47.8592C32.907 47.5992 32.9638 47.3902 32.9638 47.3902C32.9638 47.3902 33.1402 47.5056 33.3518 47.645C33.5605 47.7885 33.8094 47.9653 33.8897 48.1317C34.0543 48.4613 33.9221 48.8753 33.583 49.0313C33.2362 49.1613 32.8737 48.9699 32.7767 48.6091Z" fill="#FAE8C7"/>
<path d="M34.7187 47.6117C34.6168 47.4578 34.5864 47.1396 34.5638 46.8733C34.5433 46.6061 34.5354 46.3887 34.5354 46.3887C34.5354 46.3887 34.5874 46.4032 34.6716 46.4251C34.752 46.4459 34.8607 46.474 34.9812 46.5031C35.2203 46.5686 35.5074 46.6539 35.6338 46.7849C35.8866 47.0418 35.8885 47.4869 35.6073 47.7417C35.3163 47.983 34.9156 47.9216 34.7187 47.6117Z" fill="#FAE8C7"/>
<path d="M37.8188 47.7489C37.9148 47.5919 38.1882 47.4474 38.4155 47.3309C38.5282 47.2747 38.634 47.2237 38.7104 47.1863C38.7908 47.1447 38.8407 47.1187 38.8407 47.1187C38.8407 47.1187 38.8907 47.334 38.9426 47.6044C38.9926 47.8727 39.0475 48.194 38.9867 48.3698C38.8721 48.7255 38.4743 48.8763 38.1049 48.7037C37.7424 48.5092 37.6258 48.0557 37.8188 47.7489Z" fill="#FAE8C7"/>
<path d="M39.9949 48.6611C40.0292 48.478 40.234 48.2378 40.4084 48.0391C40.4966 47.9424 40.5769 47.854 40.6357 47.7896C40.6955 47.7282 40.7337 47.6814 40.7337 47.6814C40.7337 47.6814 40.8542 47.8623 40.9924 48.0932C41.1305 48.3231 41.2912 48.6008 41.2951 48.788C41.3069 49.1634 40.9885 49.4598 40.5848 49.4421C40.1841 49.3911 39.9224 49.0261 39.9949 48.6611Z" fill="#FAE8C7"/>
<path d="M42.3357 48.6777C42.3053 48.4926 42.4122 48.1879 42.5023 47.9341C42.5944 47.6803 42.6747 47.4797 42.6747 47.4797C42.6747 47.4797 42.8491 47.5972 43.0578 47.7532C43.2665 47.9092 43.5174 48.0995 43.5879 48.2711C43.7349 48.6122 43.5458 49.0178 43.1627 49.1696C42.7639 49.2716 42.3945 49.049 42.3357 48.6777Z" fill="#FAE8C7"/>
<path d="M44.5079 47.7459C44.4119 47.5878 44.4011 47.2612 44.3913 46.9887C44.3855 46.7152 44.3894 46.4937 44.3894 46.4937C44.3894 46.4937 44.4472 46.5104 44.5275 46.5239C44.6098 46.5426 44.7225 46.5676 44.847 46.5946C45.0958 46.656 45.3927 46.7329 45.5191 46.865C45.7719 47.1229 45.7464 47.5805 45.4427 47.8623C45.1164 48.1182 44.697 48.062 44.5079 47.7459Z" fill="#FAE8C7"/>
<path d="M46.1972 46.0247C46.0551 45.9144 45.9316 45.6128 45.8297 45.3612C45.7298 45.1084 45.6592 44.8994 45.6592 44.8994C45.6592 44.8994 45.7131 44.8911 45.8013 44.8786C45.8856 44.8641 45.9982 44.8443 46.1227 44.8214C46.3735 44.784 46.6753 44.7403 46.8379 44.8141C47.1593 44.9545 47.3014 45.3986 47.1035 45.7741C46.8899 46.1391 46.4803 46.2483 46.1972 46.0247Z" fill="#FAE8C7"/>
<path d="M20.6212 51.5075C20.7682 51.4035 21.0572 51.3827 21.308 51.3504C21.4305 51.3369 21.5432 51.3255 21.6235 51.3161C21.7078 51.3057 21.7597 51.2985 21.7597 51.2985C21.7597 51.2985 21.7117 51.5127 21.6529 51.7696C21.599 52.0223 21.5344 52.3322 21.4178 52.4736C21.1934 52.7555 20.7652 52.7773 20.5105 52.4663C20.2538 52.1575 20.3204 51.7113 20.6212 51.5075Z" fill="#FAE8C7"/>
<path d="M22.2016 53.0748C22.2937 52.9105 22.5446 52.7638 22.7601 52.6192C22.9728 52.483 23.1481 52.3707 23.1481 52.3707C23.1481 52.3707 23.1903 52.586 23.2422 52.845C23.2922 53.1008 23.3588 53.4055 23.3088 53.5864C23.2187 53.9483 22.8385 54.1543 22.4838 53.992C22.3114 53.9109 22.1889 53.758 22.1389 53.5937C22.0909 53.42 22.1115 53.236 22.2016 53.0748Z" fill="#FAE8C7"/>
<path d="M24.2641 53.7716C24.2798 53.5812 24.4444 53.3285 24.5718 53.1007C24.7001 52.8782 24.8069 52.6931 24.8069 52.6931C24.8069 52.6931 24.9353 52.8626 25.0881 53.0654C25.2429 53.2734 25.436 53.5032 25.4752 53.6894C25.5535 54.0565 25.3066 54.4247 24.9127 54.4569C24.5169 54.4787 24.2278 54.146 24.2641 53.7716Z" fill="#FAE8C7"/>
<path d="M26.4001 53.3794C26.3295 53.2058 26.3599 52.8948 26.3795 52.6348C26.4001 52.3706 26.4158 52.1512 26.4158 52.1512C26.4158 52.1512 26.6049 52.2407 26.8312 52.3468C27.0624 52.4612 27.329 52.5735 27.4397 52.7232C27.5465 52.8719 27.5906 53.0518 27.5621 53.2286C27.5318 53.3992 27.4279 53.5667 27.2653 53.6707C26.9341 53.8797 26.5324 53.7258 26.4001 53.3794Z" fill="#FAE8C7"/>
<path d="M28.1451 52.0233C28.0129 51.8995 27.9139 51.6011 27.8296 51.3567C27.7415 51.1092 27.6689 50.9033 27.6689 50.9033C27.6689 50.9033 27.7209 50.9032 27.8051 50.9022C27.8855 50.9001 27.9982 50.897 28.1226 50.8939C28.3754 50.8928 28.6644 50.8752 28.8232 50.9594C29.1445 51.1206 29.2631 51.5553 29.0456 51.8964C28.829 52.2386 28.4019 52.2739 28.1451 52.0233Z" fill="#FAE8C7"/>
<path d="M31.889 52.5131C32.0291 52.3893 32.323 52.3665 32.5876 52.3218C32.8521 52.2802 33.0755 52.2448 33.0755 52.2448C33.0755 52.2448 33.0736 52.3051 33.0716 52.3987C33.0716 52.4923 33.0598 52.6348 33.0657 52.7669C33.0677 53.0393 33.0736 53.3701 32.9775 53.5281C32.8815 53.6852 32.7228 53.7778 32.5376 53.7923C32.4455 53.8006 32.3446 53.7892 32.2466 53.7559C32.1525 53.7153 32.0614 53.6529 31.9772 53.5728C31.8126 53.4085 31.6999 53.2172 31.694 53.0144C31.6862 52.8136 31.7528 52.6337 31.889 52.5131Z" fill="#FAE8C7"/>
<path d="M34.0112 54.0866C34.074 53.9119 34.3307 53.7133 34.5394 53.5479C34.6442 53.4647 34.7402 53.3992 34.8108 53.3389C34.8794 53.2775 34.9254 53.239 34.9254 53.239C34.9254 53.239 35.0302 53.4449 35.1566 53.6893C35.2811 53.9514 35.4398 54.2239 35.43 54.408C35.4202 54.591 35.3252 54.7751 35.1694 54.8718C35.0165 54.9696 34.798 55.0091 34.5746 54.9675C34.5188 54.956 34.4639 54.9425 34.4139 54.9228C34.3659 54.8968 34.3199 54.8677 34.2777 54.8354C34.1935 54.7699 34.1249 54.695 34.073 54.6128C33.973 54.4506 33.9495 54.2624 34.0112 54.0866Z" fill="#FAE8C7"/>
<path d="M36.594 54.3279C36.5637 54.1459 36.6881 53.8537 36.7782 53.577C36.8743 53.3181 36.9546 53.0986 36.9546 53.0986C36.9546 53.0986 37.0026 53.1299 37.081 53.1808C37.1574 53.2318 37.2613 53.2838 37.3759 53.3514C37.6013 53.4855 37.8795 53.6467 37.9638 53.8121C38.0481 53.9774 38.0461 54.1667 37.9677 54.3435C37.9276 54.4319 37.8678 54.5162 37.7914 54.5921C37.7551 54.6285 37.713 54.6639 37.6669 54.6971C37.6189 54.7231 37.567 54.745 37.5141 54.7626C37.2956 54.8354 37.0761 54.8271 36.9115 54.7501C36.7459 54.6763 36.6273 54.5078 36.594 54.3279Z" fill="#FAE8C7"/>
<path d="M38.9191 53.1153C38.8064 52.9718 38.7702 52.642 38.7388 52.3727C38.727 52.2406 38.7006 52.1002 38.6869 52.0087C38.6731 51.9141 38.6643 51.8559 38.6643 51.8559C38.6643 51.8559 38.8897 51.86 39.1582 51.8652C39.4237 51.8735 39.7206 51.8548 39.8734 51.9578C40.0223 52.0597 40.1125 52.2282 40.1301 52.4279C40.1497 52.6306 40.0615 52.8355 39.9175 53.0206C39.843 53.1122 39.7588 53.186 39.6726 53.2401C39.5785 53.2869 39.4815 53.3108 39.3874 53.316C39.2023 53.3274 39.0347 53.2578 38.9191 53.1153Z" fill="#FAE8C7"/>
<path d="M15.3969 57.1598C15.5017 57.0059 15.7682 56.8873 15.9975 56.7698C16.2268 56.6564 16.4208 56.5608 16.4208 56.5608C16.4208 56.5608 16.4472 56.7843 16.4786 57.0527C16.5129 57.3106 16.555 57.6257 16.4884 57.7994C16.4237 57.9731 16.2953 58.101 16.1347 58.1623C16.0563 58.1925 15.9661 58.2081 15.876 58.2029C15.7898 58.1904 15.7016 58.1602 15.6173 58.1093C15.4507 58.0053 15.3283 57.8576 15.2959 57.6767C15.2587 57.4968 15.293 57.3127 15.3969 57.1598Z" fill="#FAE8C7"/>
<path d="M17.4407 58.1114C17.479 57.9273 17.6798 57.6881 17.8444 57.4905C17.9267 57.3917 18.0032 57.3023 18.059 57.2378C18.1149 57.1681 18.1491 57.1255 18.1491 57.1255C18.1491 57.1255 18.2579 57.3148 18.3902 57.5415C18.5185 57.7817 18.6773 58.0407 18.6831 58.2268C18.691 58.4119 18.6234 58.5971 18.4989 58.7135C18.3765 58.83 18.1962 58.8976 18.0012 58.8851C17.6083 58.8487 17.3614 58.4702 17.4407 58.1114Z" fill="#FAE8C7"/>
<path d="M19.6757 58.0895C19.6375 57.9075 19.7257 57.6143 19.7923 57.347C19.8628 57.0912 19.9226 56.878 19.9226 56.878C19.9226 56.878 19.9667 56.9102 20.0372 56.9622C20.1078 57.0101 20.2019 57.0745 20.3067 57.1473C20.5134 57.294 20.7662 57.4697 20.8466 57.6361C21.0112 57.9617 20.8642 58.3953 20.4948 58.5388C20.3096 58.6033 20.1195 58.5887 19.9726 58.5097C19.8256 58.4307 19.7139 58.2695 19.6757 58.0895Z" fill="#FAE8C7"/>
<path d="M21.6902 57.0725C21.5853 56.9217 21.5481 56.6075 21.5177 56.3486C21.4834 56.0813 21.455 55.8577 21.455 55.8577C21.455 55.8577 21.6657 55.8962 21.9146 55.9441C22.1654 55.994 22.4505 56.0356 22.5896 56.1562C22.7258 56.2737 22.8042 56.4422 22.814 56.6253C22.8258 56.8094 22.7454 56.9862 22.6092 57.1318C22.5407 57.2035 22.4623 57.2576 22.3819 57.2929C22.2957 57.322 22.2056 57.3314 22.1213 57.3241C21.9508 57.3106 21.798 57.2222 21.6902 57.0725Z" fill="#FAE8C7"/>
<path d="M25.0607 57.6954C25.1734 57.5508 25.4526 57.4384 25.6868 57.348C25.8034 57.3064 25.9112 57.2679 25.9896 57.2398C26.0699 57.2076 26.1218 57.1878 26.1218 57.1878C26.1218 57.1878 26.1356 57.4052 26.1424 57.6745C26.1463 57.9429 26.1483 58.2631 26.064 58.4285C25.8975 58.7592 25.5036 58.8612 25.1861 58.65C24.8745 58.4223 24.8324 57.9751 25.0607 57.6954Z" fill="#FAE8C7"/>
<path d="M26.9498 58.8539C27.0125 58.6792 27.2427 58.4754 27.4357 58.308C27.6327 58.1457 27.7973 58.0095 27.7973 58.0095C27.7973 58.0095 27.8776 58.2091 27.9658 58.4608C28.052 58.7114 28.151 59.0131 28.1226 59.1992C28.0667 59.5694 27.7248 59.8034 27.3574 59.715C26.9988 59.5985 26.8194 59.2013 26.9498 58.8539Z" fill="#FAE8C7"/>
<path d="M29.0907 59.298C29.0965 59.1097 29.2494 58.8363 29.3797 58.6085C29.51 58.3808 29.6227 58.2029 29.6227 58.2029C29.6227 58.2029 29.7608 58.3599 29.9235 58.5638C30.0842 58.7676 30.2752 59.0151 30.3066 59.1992C30.3752 59.5674 30.1263 59.9137 29.752 59.9647C29.3719 59.974 29.0769 59.6724 29.0907 59.298Z" fill="#FAE8C7"/>
<path d="M31.2511 58.9423C31.1953 58.7645 31.2491 58.4494 31.2991 58.1873C31.351 57.9252 31.401 57.7152 31.401 57.7152C31.401 57.7152 31.5833 57.8223 31.8008 57.9512C32.0173 58.0854 32.273 58.2497 32.3612 58.413C32.5376 58.7344 32.4171 59.1566 32.08 59.3292C31.7312 59.4759 31.3589 59.3001 31.2511 58.9423Z" fill="#FAE8C7"/>
<path d="M33.1745 57.8461C33.0677 57.6974 33.0236 57.3802 32.9893 57.115C32.957 56.8478 32.9393 56.6304 32.9393 56.6304C32.9393 56.6304 32.9932 56.6419 33.0775 56.6595C33.1578 56.6751 33.2705 56.6959 33.391 56.7188C33.636 56.7708 33.927 56.8363 34.0612 56.9601C34.3267 57.1993 34.3483 57.6486 34.0749 57.9231C33.7908 58.1842 33.3871 58.1488 33.1745 57.8461Z" fill="#FAE8C7"/>
<path d="M36.0639 58.1925C36.1747 58.0469 36.4696 57.9377 36.7067 57.842C36.8272 57.7952 36.9321 57.7547 37.0163 57.7162C37.0967 57.6808 37.1466 57.658 37.1466 57.658C37.1466 57.658 37.179 57.8868 37.2152 58.1592C37.2613 58.4192 37.32 58.7395 37.2593 58.9163C37.1447 59.2637 36.7008 59.4343 36.3177 59.1909C36.1208 59.0859 36.0042 58.8893 35.9601 58.7063C35.917 58.5211 35.9513 58.3381 36.0639 58.1925Z" fill="#FAE8C7"/>
<path d="M38.3322 59.1992C38.3528 59.012 38.5468 58.7728 38.6977 58.5409C38.8466 58.3256 38.971 58.1436 38.971 58.1436C38.971 58.1436 39.1131 58.311 39.2806 58.5097C39.4531 58.7239 39.6686 58.9423 39.7098 59.1243C39.7461 59.3053 39.7059 59.4997 39.5873 59.6443C39.4688 59.7837 39.2757 59.8845 39.0553 59.9095C38.8329 59.9085 38.632 59.8295 38.5027 59.7026C38.3704 59.5726 38.3106 59.3823 38.3322 59.1992Z" fill="#FAE8C7"/>
<path d="M40.7474 58.7291C40.669 58.5606 40.6994 58.2352 40.719 57.972C40.7308 57.6964 40.7396 57.4645 40.7396 57.4645C40.7396 57.4645 40.7935 57.4822 40.8758 57.5092C40.962 57.5394 41.0727 57.5675 41.1952 57.6008C41.4402 57.6705 41.7449 57.7495 41.8693 57.8815C41.9937 58.0146 42.0476 58.1925 42.0202 58.3808C41.9957 58.568 41.8958 58.776 41.7125 58.9008C41.352 59.1857 40.8964 59.063 40.7474 58.7291Z" fill="#FAE8C7"/>
<path d="M19.903 62.6707C20.0255 62.5324 20.3184 62.4533 20.5653 62.3701C20.6878 62.3296 20.8005 62.2932 20.8828 62.2651C20.9651 62.236 21.017 62.2183 21.017 62.2183C21.017 62.2183 21.0366 62.447 21.0611 62.7185C21.0856 62.9889 21.1238 63.3155 21.0533 63.4829C20.9788 63.6535 20.8368 63.7741 20.6633 63.8125C20.485 63.8573 20.2783 63.8178 20.095 63.6888C19.7237 63.4278 19.658 62.939 19.903 62.6707Z" fill="#FAE8C7"/>
<path d="M22.1017 63.85C22.1399 63.6628 22.3506 63.4413 22.523 63.2292C22.6974 63.0285 22.8346 62.8527 22.8346 62.8527C22.8346 62.8527 22.8669 62.8995 22.9169 62.9733C22.9669 63.0503 23.0354 63.1501 23.1138 63.2562C23.2667 63.4798 23.4607 63.7273 23.4832 63.9124C23.5371 64.2827 23.2118 64.6425 22.7621 64.6186C22.5397 64.6155 22.3506 64.5011 22.232 64.3659C22.1135 64.2161 22.0674 64.0341 22.1017 63.85Z" fill="#FAE8C7"/>
<path d="M24.559 63.614C24.4944 63.4413 24.5473 63.1241 24.5786 62.8506C24.5982 62.7175 24.6129 62.5938 24.6208 62.5002C24.6306 62.4107 24.6364 62.3535 24.6364 62.3535C24.6364 62.3535 24.8373 62.4346 25.0822 62.5199C25.3292 62.6156 25.6162 62.6987 25.7348 62.8433C25.8494 62.9847 25.8935 63.1689 25.8592 63.3592C25.8171 63.5401 25.7064 63.7377 25.5143 63.8552C25.1332 64.11 24.6835 63.9655 24.559 63.614Z" fill="#FAE8C7"/>
<path d="M26.4804 61.978C26.3423 61.8699 26.2237 61.5651 26.1228 61.3155C26.018 61.0659 25.9298 60.8569 25.9298 60.8569C25.9298 60.8569 25.9837 60.8455 26.0679 60.8289C26.1522 60.8081 26.2688 60.783 26.3932 60.755C26.648 60.6988 26.939 60.6166 27.1085 60.6738C27.4475 60.781 27.616 61.2396 27.4132 61.6618C27.3113 61.8688 27.1487 62.0113 26.9752 62.0643C26.8038 62.1215 26.6245 62.0893 26.4804 61.978Z" fill="#FAE8C7"/>
<path d="M30.289 62.4242C30.431 62.3077 30.7142 62.2682 30.9611 62.2182C31.21 62.1704 31.4148 62.1308 31.4148 62.1308C31.4148 62.1308 31.3805 62.3503 31.3403 62.6145C31.3021 62.8693 31.26 63.1812 31.1532 63.33C31.0444 63.4797 30.8906 63.5681 30.723 63.5816C30.6407 63.5889 30.5525 63.5796 30.4683 63.5494C30.3899 63.5151 30.3135 63.46 30.2459 63.3892C30.1136 63.2436 30.0391 63.0689 30.0548 62.888C30.0666 62.7049 30.1508 62.5406 30.289 62.4242Z" fill="#FAE8C7"/>
<path d="M31.9694 63.8832C32.0517 63.7179 32.3005 63.5401 32.5034 63.3914C32.6053 63.3196 32.6983 63.2531 32.7659 63.2042C32.8345 63.1511 32.8786 63.1189 32.8786 63.1189C32.8786 63.1189 32.9345 63.33 32.9991 63.5838C33.0618 63.85 33.1481 64.1422 33.1098 64.3232C33.0716 64.5041 32.9648 64.6653 32.8188 64.7454C32.6758 64.8255 32.4877 64.8421 32.3084 64.7787C31.9439 64.6404 31.8048 64.2088 31.9694 63.8832Z" fill="#FAE8C7"/>
<path d="M34.0759 64.4501C34.0818 64.2639 34.2308 64.0018 34.3513 63.7605C34.4737 63.5307 34.5756 63.3404 34.5756 63.3404C34.5756 63.3404 34.6099 63.383 34.6658 63.4517C34.7216 63.5161 34.7961 63.6035 34.8784 63.7002C35.043 63.8957 35.2439 64.1307 35.284 64.3138C35.3703 64.6715 35.139 65.0543 34.754 65.098C34.5629 65.1125 34.3865 65.0491 34.2641 64.9336C34.1406 64.8203 34.072 64.6352 34.0759 64.4501Z" fill="#FAE8C7"/>
<path d="M36.2041 63.9852C36.1335 63.8125 36.1619 63.4995 36.1845 63.2426C36.2041 62.9754 36.2188 62.7538 36.2188 62.7538C36.2188 62.7538 36.4099 62.8454 36.6401 62.9546C36.8694 63.0659 37.1339 63.1761 37.2446 63.3259C37.3534 63.4746 37.3975 63.6545 37.3691 63.8333C37.3446 64.0143 37.2309 64.1641 37.0702 64.2722C36.9879 64.3253 36.9017 64.3575 36.8175 64.3721C36.7293 64.3793 36.6411 64.3658 36.5627 64.3377C36.403 64.2816 36.2746 64.1568 36.2041 63.9852Z" fill="#FAE8C7"/>
<path d="M27.328 50.1316C26.6637 50.974 25.5829 51.3671 24.5492 51.3151C23.5155 51.262 22.5299 50.8065 21.6745 50.1898C22.9296 50.0525 24.122 49.3557 24.899 48.3022C25.2616 49.3547 26.2718 50.1181 27.328 50.1316Z" fill="white"/>
<path d="M38.5252 50.6796C37.8609 51.522 36.7802 51.9151 35.7465 51.8631C34.7128 51.8111 33.7271 51.3546 32.8717 50.7379C34.1269 50.6017 35.3193 49.9038 36.0963 48.8503C36.4588 49.9028 37.469 50.6651 38.5252 50.6796Z" fill="white"/>
<path d="M32.178 55.5C31.5137 56.3424 30.433 56.7355 29.3993 56.6835C28.3676 56.6304 27.3819 56.1739 26.5245 55.5583C27.7797 55.421 28.9721 54.7231 29.751 53.6707C30.1106 54.7231 31.1228 55.4854 32.178 55.5Z" fill="white"/>
<path d="M20.8769 54.1854C20.2126 55.0278 19.1319 55.4209 18.0982 55.3679C17.0664 55.3159 16.0808 54.8593 15.2234 54.2436C16.4786 54.1064 17.671 53.4086 18.4499 52.3551C18.8105 53.4086 19.8227 54.1698 20.8769 54.1854Z" fill="white"/>
<path d="M42.7051 55.8276C42.0408 56.671 40.9601 57.0631 39.9264 57.0111C38.8927 56.9591 37.907 56.5026 37.0516 55.8859C38.3067 55.7496 39.4992 55.0518 40.2781 53.9983C40.6377 55.0518 41.6489 55.813 42.7051 55.8276Z" fill="white"/>
<path d="M37.1319 60.8673C36.4676 61.7087 35.3869 62.1028 34.3532 62.0498C33.3195 61.9967 32.3338 61.5412 31.4784 60.9245C32.7336 60.7883 33.926 60.0904 34.703 59.038C35.0655 60.0894 36.0757 60.8528 37.1319 60.8673Z" fill="white"/>
<path d="M31.1982 66.0152C30.5339 66.8576 29.4532 67.2507 28.4195 67.1987C27.3858 67.1457 26.4001 66.6891 25.5447 66.0734C26.7998 65.9362 27.9923 65.2383 28.7712 64.1859C29.1308 65.2383 30.141 66.0007 31.1982 66.0152Z" fill="white"/>
<path d="M25.2116 60.0998C24.5473 60.9421 23.4666 61.3353 22.4329 61.2833C21.4011 61.2302 20.4154 60.7737 19.5581 60.158C20.8132 60.0208 22.0057 59.3229 22.7846 58.2694C23.1452 59.3229 24.1573 60.0852 25.2116 60.0998Z" fill="white"/>
<path d="M21.549 44.5458C20.8847 45.3872 19.804 45.7814 18.7703 45.7283C17.7366 45.6753 16.7509 45.2197 15.8955 44.603C17.1507 44.4668 18.3431 43.769 19.1221 42.7165C19.4826 43.768 20.4928 44.5323 21.549 44.5458Z" fill="white"/>
<path d="M33.004 44.6561C32.3397 45.4974 31.259 45.8916 30.2253 45.8386C29.1916 45.7855 28.2059 45.33 27.3505 44.7133C28.6056 44.577 29.7981 43.8792 30.5751 42.8257C30.9376 43.8782 31.9478 44.6405 33.004 44.6561Z" fill="white"/>
<path d="M43.5811 44.7642C42.9167 45.6066 41.836 45.9997 40.8023 45.9477C39.7686 45.8957 38.7849 45.4392 37.9276 44.8225C39.1827 44.6862 40.3751 43.9884 41.1541 42.9349C41.5146 43.9874 42.5268 44.7507 43.5811 44.7642Z" fill="white"/>
<path d="M45.3858 52.7898C45.5926 52.2604 45.7836 51.728 45.9502 51.1851C45.4848 50.8596 45.1125 50.3916 44.9204 49.8352C44.1415 50.8897 42.9491 51.5865 41.6959 51.7227C42.5513 52.3395 43.5369 52.795 44.5706 52.848C44.842 52.8616 45.1164 52.8397 45.3858 52.7898Z" fill="white"/>
<path d="M14.0124 48.6309C13.6165 49.1665 13.109 49.6022 12.5466 49.9267C12.6955 50.3937 12.8533 50.8544 12.9787 51.2964C13.0051 51.3858 13.0306 51.4753 13.0571 51.5647C13.256 51.6053 13.4568 51.6323 13.6616 51.6427C14.6933 51.6957 15.776 51.3016 16.4384 50.4602C15.3851 50.4467 14.3729 49.6834 14.0124 48.6309Z" fill="white"/>
<path d="M17.1517 20.5358C17.5597 20.5358 17.8905 20.1847 17.8905 19.7516C17.8905 19.3185 17.5597 18.9675 17.1517 18.9675C16.7437 18.9675 16.4129 19.3185 16.4129 19.7516C16.4129 20.1847 16.7437 20.5358 17.1517 20.5358Z" fill="white"/>
<path d="M20.4331 23.6754C20.6625 23.6754 20.8485 23.478 20.8485 23.2345C20.8485 22.9909 20.6625 22.7936 20.4331 22.7936C20.2036 22.7936 20.0176 22.9909 20.0176 23.2345C20.0176 23.478 20.2036 23.6754 20.4331 23.6754Z" fill="white"/>
<path d="M38.9779 20.5367C39.3865 20.5367 39.7177 20.1852 39.7177 19.7516C39.7177 19.3179 39.3865 18.9664 38.9779 18.9664C38.5694 18.9664 38.2382 19.3179 38.2382 19.7516C38.2382 20.1852 38.5694 20.5367 38.9779 20.5367Z" fill="white"/>
<path d="M42.2603 23.6765C42.4902 23.6765 42.6767 23.4786 42.6767 23.2345C42.6767 22.9904 42.4902 22.7925 42.2603 22.7925C42.0303 22.7925 41.8438 22.9904 41.8438 23.2345C41.8438 23.4786 42.0303 23.6765 42.2603 23.6765Z" fill="white"/>
<path d="M21.1131 71.7726C21.2111 73.2493 21.8283 74.6814 22.8199 75.7235C23.1775 76.0999 23.6812 76.4473 24.1573 76.2736C24.563 76.1249 24.7776 75.6579 24.8824 75.217C25.1518 74.0751 24.9608 72.8531 24.5375 71.7642C24.1162 70.6754 23.4734 69.7009 22.817 68.7525C22.2105 68.8242 21.6863 69.2943 21.408 69.8736C21.1297 70.4528 21.0709 71.1246 21.1131 71.7726Z" fill="#E4C799"/>
<path d="M23.8928 76.6127C23.3803 76.6127 22.9208 76.2424 22.6239 75.9315C21.5883 74.8437 20.9377 73.3357 20.8387 71.7934C20.7848 70.9895 20.8946 70.299 21.162 69.7415C21.505 69.0291 22.1262 68.5393 22.7885 68.4623L22.9453 68.4426L23.0413 68.5799C23.686 69.5117 24.3543 70.5183 24.7942 71.653C25.1391 72.5422 25.4791 73.8942 25.1479 75.2888C24.9911 75.9575 24.6786 76.3933 24.2465 76.5503C24.1348 76.5919 24.0153 76.6127 23.8928 76.6127ZM22.6974 69.0717C22.2761 69.1799 21.8861 69.5262 21.6549 70.0057C21.4325 70.4674 21.3453 71.055 21.3894 71.7518C21.4815 73.1547 22.0723 74.5265 23.0139 75.5144C23.3274 75.8441 23.642 76.0261 23.8938 76.0261C23.9555 76.0261 24.0123 76.0157 24.0682 75.996C24.3974 75.8764 24.5522 75.4115 24.6159 75.1463C24.9088 73.9056 24.5982 72.6836 24.2847 71.8756C23.8898 70.8606 23.2902 69.9349 22.6974 69.0717Z" fill="#202B2B"/>
<path d="M22.2016 70.5184C22.6719 71.2599 23.1452 72.0045 23.5048 72.8126C23.8663 73.6186 24.1132 74.4984 24.1093 75.3918C23.4871 75.3335 22.9953 74.8052 22.6514 74.2498C22.0194 73.2359 21.6755 72.0243 21.6735 70.8086C21.6735 70.6952 21.6774 70.5767 21.7254 70.4758C21.7735 70.3749 21.8783 70.2938 21.9841 70.3156C22.0811 70.3364 22.1458 70.431 22.2016 70.5184Z" fill="white"/>
<path d="M15.4253 77.1389C16.0171 76.9486 16.4227 76.3808 16.7323 75.815C17.1194 75.1078 17.4192 74.3518 17.6279 73.5666C17.8522 72.7242 17.9688 71.8277 17.7846 70.9749C17.6004 70.1232 17.0802 69.3193 16.3169 68.9906C15.7388 69.8517 15.1627 70.7129 14.5846 71.5729C14.1309 72.251 13.6714 72.9405 13.4078 73.7246C13.1443 74.5088 13.1002 75.4136 13.4656 76.1499C13.8311 76.8862 14.6747 77.3792 15.4253 77.1389Z" fill="#E4C799"/>
<path d="M15.0275 77.4925C14.3063 77.4925 13.5783 77.0079 13.2207 76.2861C12.8552 75.5488 12.8288 74.5795 13.1482 73.6259C13.4255 72.798 13.9026 72.0877 14.3612 71.4024L16.2179 68.6319L16.4208 68.7182C17.2115 69.0583 17.8366 69.8985 18.0551 70.9083C18.2256 71.7029 18.1717 72.5973 17.8944 73.6446C17.6798 74.4537 17.3682 75.2326 16.9724 75.9606C16.6912 76.4744 16.2336 77.1857 15.5066 77.4186C15.3508 77.4686 15.1921 77.4925 15.0275 77.4925ZM16.407 69.3609L14.8109 71.7424C14.3729 72.3966 13.9213 73.0715 13.6685 73.8235C13.401 74.6232 13.4137 75.4209 13.7086 76.0126C13.9712 76.5399 14.5121 76.907 15.0275 76.907C15.1362 76.907 15.244 76.8893 15.3449 76.8581C15.8867 76.6834 16.2601 76.0948 16.4932 75.6663C16.8685 74.9809 17.1615 74.2478 17.3643 73.4855C17.6151 72.5349 17.6671 71.7341 17.5152 71.0383C17.3565 70.3 16.941 69.676 16.407 69.3609Z" fill="#202B2B"/>
<path d="M14.128 74.8198C14.0996 75.1505 14.1123 75.4958 14.2466 75.7974C14.3788 76.0989 14.6522 76.3464 14.9638 76.3641C14.6767 75.4843 14.9961 74.5223 15.3488 73.6705C15.6986 72.8188 16.0955 71.9151 15.9534 70.9968C15.1206 72.1449 14.2564 73.3773 14.128 74.8198Z" fill="white"/>
<path d="M17.2644 70.5038C17.0312 71.6519 16.9851 72.8437 17.1282 74.0085C17.2183 74.7396 17.3888 75.4759 17.7631 76.0968C18.1384 76.7187 18.7449 77.2117 19.4356 77.2897C20.3175 77.3895 21.1768 76.7853 21.6284 75.9741C22.0801 75.1629 22.185 74.1853 22.1546 73.2452C22.1183 72.0502 21.8773 70.8636 21.4501 69.7571C21.1189 68.897 20.5585 67.9974 19.6933 67.8602C19.0604 67.7582 18.4166 68.1191 18.011 68.6453C17.6054 69.1716 17.4006 69.8392 17.2644 70.5038Z" fill="#E4C799"/>
<path d="M19.6296 77.5944C19.5552 77.5944 19.4827 77.5903 19.4072 77.5819C18.6861 77.4998 17.9836 77.0037 17.5319 76.2559C17.184 75.6819 16.9694 74.9799 16.8548 74.047C16.7078 72.8437 16.7529 71.6311 16.9949 70.4424C17.1056 69.8943 17.3104 69.0904 17.7984 68.4602C18.302 67.8113 19.0535 67.465 19.7355 67.5721C20.5526 67.7032 21.2336 68.4196 21.7088 69.6489C22.1507 70.7939 22.3937 72.0014 22.4338 73.2369C22.4701 74.4297 22.2869 75.3751 21.8675 76.1249C21.3688 77.0172 20.4909 77.5944 19.6296 77.5944ZM19.4787 68.1368C19.0388 68.1368 18.5587 68.4031 18.2256 68.8315C17.814 69.364 17.6338 70.0764 17.5348 70.5662C17.3075 71.6873 17.2634 72.8333 17.4025 73.9711C17.5054 74.8155 17.6955 75.4406 17.9953 75.9388C18.3588 76.5399 18.9085 76.9361 19.467 76.9995C20.196 77.0796 20.9592 76.6023 21.3923 75.8275C21.7558 75.1754 21.9145 74.334 21.8802 73.2556C21.844 72.0898 21.6147 70.95 21.1973 69.8694C20.92 69.1539 20.4282 68.2751 19.6531 68.1513C19.5953 68.1409 19.5375 68.1368 19.4787 68.1368Z" fill="#202B2B"/>
<path d="M18.8027 69.3713C18.1746 70.3614 17.8748 71.5781 17.961 72.7679C18.0472 73.9576 18.5195 75.1109 19.2837 75.9866C18.6302 73.863 18.4637 71.574 18.8027 69.3713Z" fill="white"/>
<path d="M38.4645 71.7726C38.3665 73.2493 37.7493 74.6814 36.7577 75.7235C36.4001 76.0999 35.8964 76.4473 35.4202 76.2736C35.0146 76.1249 34.8 75.6579 34.6952 75.217C34.4257 74.0751 34.6168 72.8531 35.0401 71.7642C35.4614 70.6754 36.1042 69.7009 36.7606 68.7525C37.3671 68.8242 37.8913 69.2943 38.1696 69.8736C38.4469 70.4528 38.5066 71.1246 38.4645 71.7726Z" fill="#E4C799"/>
<path d="M35.6838 76.6127C35.5613 76.6127 35.4428 76.5908 35.3301 76.5492C34.898 76.3921 34.5854 75.9564 34.4267 75.2877C34.0975 73.8931 34.4385 72.5411 34.7824 71.6519C35.2243 70.5163 35.8905 69.5106 36.5352 68.5788L36.6313 68.4415L36.788 68.4613C37.4504 68.5382 38.0726 69.0291 38.4145 69.7404C38.682 70.2979 38.7917 70.9884 38.7398 71.7923C38.6379 73.3346 37.9873 74.8436 36.9527 75.9304C36.6558 76.2424 36.1962 76.6127 35.6838 76.6127ZM36.8792 69.0717C36.2864 69.9339 35.6867 70.8595 35.2929 71.8755C34.9793 72.6826 34.6687 73.9045 34.9617 75.1463C35.0244 75.4125 35.1802 75.8764 35.5094 75.9949C35.7984 76.102 36.1737 75.9242 36.5637 75.5144C37.5053 74.5264 38.0961 73.1537 38.1882 71.7518C38.2323 71.056 38.1441 70.4684 37.9227 70.0056C37.6914 69.5262 37.3005 69.1809 36.8792 69.0717Z" fill="#202B2B"/>
<path d="M37.375 70.5184C36.9047 71.2599 36.4314 72.0045 36.0718 72.8126C35.7103 73.6186 35.4634 74.4984 35.4673 75.3918C36.0895 75.3335 36.5813 74.8052 36.9252 74.2498C37.5572 73.2359 37.9011 72.0243 37.9031 70.8086C37.9031 70.6952 37.8992 70.5767 37.8512 70.4758C37.8031 70.3749 37.6983 70.2938 37.5925 70.3156C37.4955 70.3364 37.4308 70.431 37.375 70.5184Z" fill="white"/>
<path d="M44.1513 77.1389C43.5595 76.9486 43.1538 76.3808 42.8442 75.815C42.4572 75.1078 42.1574 74.3518 41.9487 73.5666C41.7243 72.7242 41.6077 71.8277 41.7919 70.9749C41.9761 70.1232 42.4964 69.3193 43.2597 68.9906C43.8377 69.8517 44.4139 70.7129 44.992 71.5729C45.4456 72.251 45.9051 72.9405 46.1687 73.7246C46.4323 74.5088 46.4764 75.4136 46.1109 76.1499C45.7454 76.8862 44.9018 77.3792 44.1513 77.1389Z" fill="#E4C799"/>
<path d="M44.5501 77.4924C44.3855 77.4924 44.2267 77.4686 44.0719 77.4197C43.3449 77.1857 42.8873 76.4753 42.6061 75.9616C42.2083 75.2346 41.8977 74.4557 41.6841 73.6456C41.4049 72.5993 41.353 71.7039 41.5235 70.9094C41.742 69.8985 42.3671 69.0592 43.1578 68.7192L43.3606 68.6328L45.2173 71.4034C45.6769 72.0887 46.1511 72.799 46.4303 73.6268C46.7497 74.5805 46.7233 75.5498 46.3578 76.2871C45.9982 77.0078 45.2712 77.4924 44.5501 77.4924ZM43.1695 69.3608C42.6355 69.678 42.2201 70.2999 42.0614 71.0404C41.9105 71.7362 41.9595 72.5359 42.2123 73.4875C42.4151 74.2488 42.708 74.983 43.0833 75.6683C43.3165 76.0958 43.6898 76.6854 44.2317 76.8602C44.8117 77.0442 45.5505 76.6532 45.8679 76.0147C46.1629 75.4229 46.1756 74.6242 45.9081 73.8255C45.6553 73.0736 45.2036 72.3986 44.7656 71.7445L43.1695 69.3608Z" fill="#202B2B"/>
<path d="M45.4486 74.8198C45.477 75.1505 45.4642 75.4958 45.33 75.7974C45.1977 76.0989 44.9244 76.3464 44.6128 76.3641C44.8999 75.4843 44.5804 74.5223 44.2277 73.6705C43.8779 72.8188 43.4811 71.9151 43.6232 70.9968C44.456 72.1449 45.3212 73.3773 45.4486 74.8198Z" fill="white"/>
<path d="M42.3122 70.5038C42.5454 71.6519 42.5914 72.8437 42.4484 74.0085C42.3583 74.7396 42.1878 75.4759 41.8135 76.0968C41.4382 76.7187 40.8317 77.2117 40.141 77.2897C39.2591 77.3895 38.3998 76.7853 37.9481 75.9741C37.4964 75.1629 37.3916 74.1853 37.422 73.2452C37.4582 72.0502 37.6993 70.8636 38.1265 69.7571C38.4576 68.897 39.0181 67.9974 39.8833 67.8602C40.5162 67.7582 41.1599 68.1191 41.5656 68.6453C41.9722 69.1716 42.177 69.8392 42.3122 70.5038Z" fill="#E4C799"/>
<path d="M39.947 77.5944C39.0857 77.5944 38.2078 77.0172 37.7101 76.1249C37.2907 75.3741 37.1075 74.4297 37.1457 73.2369C37.1839 72.0014 37.4269 70.7929 37.8688 69.6489C38.343 68.4196 39.025 67.7032 39.8421 67.5721C40.5231 67.465 41.2756 67.8113 41.7792 68.4602C42.2671 69.0904 42.4719 69.8943 42.5827 70.4424C42.8237 71.6311 42.8697 72.8437 42.7228 74.047C42.6081 74.9799 42.3935 75.6819 42.0457 76.2559C41.594 77.0047 40.8915 77.4998 40.1704 77.5819C40.0949 77.5903 40.0214 77.5944 39.947 77.5944ZM40.0988 68.1368C40.0391 68.1368 39.9822 68.1409 39.9225 68.1513C39.1494 68.2751 38.6575 69.155 38.3803 69.8694C37.9629 70.95 37.7336 72.0898 37.6973 73.2556C37.663 74.334 37.8237 75.1754 38.1853 75.8275C38.6174 76.6023 39.3836 77.0796 40.1106 76.9995C40.6691 76.9361 41.2187 76.5409 41.5823 75.9388C41.8831 75.4406 42.0722 74.8155 42.1751 73.9711C42.3152 72.8323 42.2711 71.6873 42.0428 70.5662C41.9428 70.0764 41.7635 69.364 41.352 68.8315C41.0189 68.4031 40.5388 68.1368 40.0988 68.1368Z" fill="#202B2B"/>
<path d="M40.7739 69.3713C41.402 70.3614 41.7018 71.5781 41.6156 72.7679C41.5293 73.9576 41.0571 75.1109 40.2928 75.9866C40.9464 73.863 41.1129 71.574 40.7739 69.3713Z" fill="white"/>
</svg>
