<svg width="69" height="73" viewBox="0 0 69 73" fill="none" xmlns="http://www.w3.org/2000/svg">
<path d="M65.5697 2.0296C64.8957 1.43325 64.0598 1.12678 63.2189 1.12678C62.6415 1.12678 62.0621 1.27176 61.5285 1.56476C60.4663 2.14869 59.3855 2.59074 58.2921 2.88478C58.2257 2.76364 58.1506 2.64458 58.0697 2.52863C57.3664 1.52539 56.2671 0.956984 55.1239 0.956984C54.8322 0.956984 54.5386 0.994265 54.2479 1.06984C52.8384 1.43635 51.3451 1.61551 49.6858 1.61551C48.5319 1.61551 47.2717 1.52849 45.8339 1.35042C45.0701 1.25517 44.3132 1.14961 43.5133 1.03572C41.1382 0.701308 38.684 0.355462 36.1323 0.355462C35.4621 0.355462 34.8037 0.379282 34.1736 0.427943C34.0692 0.436225 33.9483 0.440391 33.8039 0.440391C33.5503 0.440391 33.2967 0.429007 33.0431 0.418653C32.7153 0.405194 32.3759 0.392745 32.0101 0.392745C31.8735 0.392745 31.7389 0.394796 31.6033 0.398937C30.5977 0.429998 29.5306 0.506621 28.2469 0.641215C27.1291 0.758208 26.0122 0.895907 24.9314 1.02947C24.3471 1.1009 23.7638 1.17441 23.1786 1.24274C21.7661 1.40943 20.1001 1.57923 18.4604 1.57923C16.8432 1.57923 15.4151 1.41256 14.0954 1.06883C13.8037 0.993254 13.5101 0.955973 13.2194 0.955973C12.0762 0.955973 10.9769 1.52541 10.2736 2.52762C10.1927 2.64254 10.1186 2.76263 10.0512 2.88376C8.95779 2.58869 7.87702 2.14762 6.8138 1.56369C6.28024 1.26965 5.70083 1.12577 5.12435 1.12577C4.28353 1.12577 3.44759 1.43224 2.77357 2.02859C2.04298 2.67464 1.5933 3.57954 1.48015 4.54343C0.15357 5.84588 -0.0863864 7.99208 0.935863 9.59271C1.10169 9.85051 1.26361 10.1146 1.4265 10.3786C2.05761 11.4025 2.77455 12.5631 3.73242 13.6243C5.19166 15.2384 7.03034 16.5191 9.10216 17.394C8.88463 18.8 8.84659 20.1107 8.85049 21.1698C8.85927 23.899 9.01827 26.3413 9.33821 28.6387C9.76935 31.7344 10.7194 35.5475 12.7776 38.7032C11.2315 39.9125 10.0093 41.6974 9.13434 44.0331C7.01669 49.6778 6.88988 55.3617 8.77636 60.0383C10.0454 63.1857 12.1679 65.7596 14.7596 67.3623C15.0806 69.2373 16.1243 70.84 17.6615 71.7635C18.5219 72.2801 19.4329 72.5421 20.3693 72.5421C21.1155 72.5421 21.8374 72.3743 22.5123 72.0523C23.2829 72.4365 24.1247 72.6446 24.9968 72.6446C26.2229 72.6446 27.3953 72.2346 28.3942 71.5129C28.7063 71.5782 29.0194 71.6113 29.3306 71.6113C31.4229 71.6113 33.1738 70.2095 33.9015 67.9525C34.037 67.5321 34.1375 67.0994 34.2058 66.6552C34.3619 66.6107 34.515 66.5558 34.6642 66.4905C35.0964 66.681 35.5636 66.7836 36.0396 66.7877C36.105 67.1842 36.1996 67.5725 36.3215 67.9514C37.0482 70.2095 38.8001 71.6113 40.8924 71.6113C41.2045 71.6113 41.5196 71.5782 41.8317 71.5119C42.6784 72.1238 43.6518 72.5131 44.6809 72.6167C44.8633 72.6353 45.0477 72.6446 45.2301 72.6446C46.0875 72.6446 46.9156 72.4427 47.6755 72.07C48.3495 72.3816 49.0665 72.539 49.8048 72.539C51.6796 72.539 53.5027 71.484 54.562 69.786C55.1375 68.8625 55.4721 67.8033 55.5569 66.6872C55.6847 66.592 55.8106 66.4926 55.9344 66.3932C59.6869 63.3669 61.906 58.2783 61.8719 52.7807C61.8553 50.0847 61.3471 47.2944 60.3619 44.4907C59.4099 41.7792 58.1048 39.8297 56.388 38.5655C56.7577 37.9857 57.1059 37.3656 57.4337 36.705C59.4567 32.6237 59.9454 28.2494 60.1444 24.896L60.1541 24.7366C60.2927 22.4153 60.4526 19.7318 59.9834 17.0575C61.8553 16.1526 63.5077 14.9071 64.8186 13.3903C65.676 12.3985 66.3345 11.329 66.9148 10.3858C67.0797 10.1177 67.2426 9.85157 67.4094 9.5917C68.4336 7.99107 68.1936 5.8438 66.8661 4.54135C66.75 3.58056 66.3003 2.67565 65.5697 2.0296Z" fill="#B6E1E6" stroke="#3E6060" stroke-width="0.7087" stroke-miterlimit="10" stroke-linecap="round" stroke-linejoin="round" stroke-dasharray="4.25 2.83"/>
<path d="M58.93 10.0348C60.8272 9.0347 62.2211 7.42478 62.7361 5.63883C59.6625 7.32953 55.7159 7.93829 52.0912 7.27879C53.1583 6.90089 54.0421 6.19274 54.5191 5.33134C51.0222 6.24244 47.2307 5.80655 43.6118 5.29406C40.4914 4.85197 37.292 4.36328 34.1697 4.65007C31.0873 4.42333 27.8918 4.92134 24.7275 5.29406C21.0989 5.72165 17.3172 6.24244 13.8203 5.33134C14.2973 6.19274 15.181 6.90089 16.2481 7.27879C12.6234 7.93829 8.67684 7.32953 5.60326 5.63883C6.11829 7.42582 7.51218 9.0347 9.40939 10.0348C8.24375 10.6239 6.55529 10.3972 5.68715 9.53372C6.93375 11.4833 9.06604 13.0497 11.5797 13.8656C14.0944 14.6804 16.9699 14.7374 19.5295 14.0209L17.7756 14.4475C22.9561 13.5364 28.4654 13.9256 33.3854 15.5211L33.3845 16.0729C33.6429 15.9725 33.9053 15.8783 34.1687 15.7861C34.4321 15.8793 34.6935 15.9735 34.9529 16.0729L34.951 15.5211C39.872 13.9256 45.3813 13.5364 50.5618 14.4475L48.8079 14.0209C51.3675 14.7363 54.243 14.6804 56.7577 13.8656C59.2714 13.0508 61.4036 11.4833 62.6502 9.53372C61.7841 10.3972 60.0966 10.625 58.93 10.0348Z" fill="#9F756B"/>
<path d="M35.2485 16.5171L34.8554 16.3648C34.6301 16.2768 34.4009 16.1951 34.1717 16.1133C33.9424 16.1951 33.7132 16.2768 33.4879 16.3648L33.0938 16.5171L33.0967 15.7519C30.0388 14.7849 26.6843 14.2745 23.3785 14.2745C21.5008 14.2745 19.6329 14.435 17.8274 14.7539L17.8157 14.6918C17.1592 14.7839 16.494 14.8295 15.8238 14.8295C14.3217 14.8295 12.8663 14.6048 11.4978 14.1607C8.93145 13.3282 6.72601 11.7058 5.4482 9.70765L3.97335 7.40299L5.88909 9.30594C6.35827 9.77288 7.12789 10.0524 7.94432 10.0524C8.20281 10.0524 8.45252 10.0245 8.6876 9.96958C7.01961 8.9239 5.81106 7.40712 5.32724 5.72885L5.12436 5.02274L5.74083 5.36233C7.92774 6.56539 10.6209 7.22801 13.3228 7.22801C13.9539 7.22801 14.5821 7.1928 15.1996 7.12033C14.5002 6.70102 13.9305 6.13473 13.5716 5.48764L13.2194 4.85402L13.8925 5.029C15.1713 5.36237 16.5769 5.52493 18.1922 5.52493C20.1635 5.52493 22.1875 5.28472 24.1452 5.05073L24.6973 4.98552C25.1587 4.93168 25.6201 4.87469 26.0824 4.81775C28.2118 4.55477 30.4123 4.28251 32.5485 4.28251C33.1094 4.28251 33.6547 4.3022 34.1687 4.33844C34.7901 4.28253 35.4485 4.25452 36.1274 4.25452C38.4977 4.25452 40.9031 4.59623 43.2285 4.9265L43.6528 4.98754C45.5803 5.25984 47.8169 5.55077 49.9697 5.55077C51.6416 5.55077 53.1077 5.38099 54.4518 5.03001L55.1239 4.85503L54.7727 5.48865C54.4137 6.13574 53.8431 6.70209 53.1447 7.1214C53.7622 7.19284 54.3894 7.22908 55.0205 7.22908C57.7234 7.22908 60.4165 6.56647 62.6034 5.36341L63.2199 5.02382L63.017 5.72992C62.5332 7.4082 61.3237 8.92497 59.6567 9.97066C59.8918 10.0255 60.1415 10.0534 60.4 10.0534C61.2174 10.0534 61.985 9.77393 62.4542 9.30803L64.37 7.40299L62.8961 9.70765C61.6173 11.7069 59.4128 13.3293 56.8465 14.1617C55.4789 14.6058 54.0226 14.8305 52.5204 14.8305C51.864 14.8305 51.2114 14.787 50.5706 14.699V14.7591V14.699C50.5559 14.6969 50.5423 14.6949 50.5286 14.6928L50.5169 14.7549C48.7104 14.436 46.8425 14.2755 44.9657 14.2755C41.66 14.2755 38.3055 14.786 35.2475 15.753L35.2485 16.5171ZM34.1707 15.4589L34.2633 15.492C34.397 15.5397 34.5287 15.5863 34.6613 15.6349L34.6603 15.2933L34.8681 15.226C38.0353 14.1989 41.5264 13.6554 44.9648 13.6554C46.266 13.6554 47.5623 13.732 48.8382 13.8821L48.8753 13.7196L49.7297 13.9267C51.9761 14.3946 54.5171 14.2673 56.6748 13.5674C58.5954 12.9452 60.2995 11.8632 61.5256 10.5121C61.1705 10.6177 60.7882 10.6736 60.399 10.6736C59.8196 10.6736 59.2694 10.5494 58.8051 10.3144L58.2628 10.04L58.8012 9.75732C60.3736 8.92802 61.5793 7.6784 62.1996 6.25896C60.0644 7.28705 57.5449 7.84817 55.0195 7.84817C54.0109 7.84817 53.0091 7.75915 52.0435 7.58315L50.8954 7.37505L51.9996 6.98371C52.7165 6.73005 53.3437 6.31902 53.8051 5.81378C52.6336 6.0519 51.3704 6.16992 49.9687 6.16992C47.7808 6.16992 45.5208 5.87694 43.5748 5.6005L43.1505 5.54041C40.8436 5.21221 38.4567 4.87266 36.1264 4.87266C35.4553 4.87266 34.8067 4.90058 34.196 4.95753L34.1746 4.95961L34.1521 4.95753C33.6439 4.92025 33.1045 4.90059 32.5485 4.90059C30.4475 4.90059 28.2625 5.17081 26.1497 5.43172C25.6864 5.4897 25.224 5.54563 24.7607 5.6005L24.2096 5.66572C22.2363 5.90074 20.1957 6.143 18.1922 6.143C16.851 6.143 15.6473 6.03431 14.5363 5.81068C14.9976 6.31696 15.6258 6.72898 16.3437 6.98263L17.4479 7.37398L16.2998 7.58213C15.3342 7.75814 14.3324 7.84716 13.3228 7.84716C10.7984 7.84716 8.27889 7.28604 6.14368 6.25795C6.76503 7.67739 7.96968 8.92701 9.54208 9.75631L10.0805 10.039L9.53817 10.3133C9.07387 10.5484 8.52373 10.6726 7.94432 10.6726C7.55513 10.6726 7.17276 10.6156 6.8177 10.5111C8.04381 11.8622 9.74789 12.9451 11.6685 13.5663C13.8262 14.2662 16.3535 14.3967 18.6233 13.9236L19.4671 13.7196L19.5041 13.8811C20.78 13.731 22.0763 13.6544 23.3776 13.6544C26.815 13.6544 30.307 14.1968 33.4742 15.2249L33.682 15.2922L33.681 15.6339C33.8137 15.5852 33.9454 15.5387 34.079 15.491L34.1707 15.4589Z" fill="#202B2B"/>
<path d="M33.681 13.6834C34.8018 12.4669 34.7813 10.276 33.6361 9.08541C32.3349 7.73119 30.2397 7.86374 28.4527 8.2406C26.6657 8.61746 24.7285 9.12476 23.0937 8.27061C23.8711 8.97361 24.7988 9.48919 25.7859 9.76769C22.5826 8.73753 19.1374 8.56468 15.856 9.26974C16.4023 10.0079 17.2577 10.4759 18.1405 10.5194C15.5956 11.1323 12.9853 11.4356 10.3751 11.4232C11.1535 12.8519 12.7698 13.4773 14.2807 13.8676C19.1276 15.1214 24.1784 15.0717 29.1677 15.0158C30.7713 14.9972 32.5573 14.902 33.681 13.6834Z" fill="#683F23"/>
<path d="M35.0125 13.6834C33.8907 12.4669 33.9112 10.276 35.0573 9.08541C36.3576 7.73119 38.4528 7.86374 40.2398 8.2406C42.0268 8.61746 43.965 9.12476 45.5998 8.27061C44.8214 8.97361 43.8947 9.48919 42.9066 9.76769C46.1109 8.73753 49.5551 8.56468 52.8365 9.26974C52.2902 10.0079 51.4348 10.4759 50.552 10.5194C53.0969 11.1323 55.7081 11.4356 58.3174 11.4232C57.539 12.8519 55.9227 13.4773 54.4118 13.8676C49.5649 15.1214 44.5151 15.0717 39.5248 15.0158C37.9202 14.9972 36.1342 14.902 35.0125 13.6834Z" fill="#683F23"/>
<path d="M47.8072 35.9264C43.7738 33.5752 39.2419 32.984 34.6623 33.3443C30.0846 32.984 25.5508 33.5752 21.5174 35.9264C19.2554 41.043 19.5393 47.3389 22.2509 52.204C24.5071 56.249 28.3903 59.1956 32.69 60.2817H36.6346C40.9333 59.1956 44.8175 56.249 47.0727 52.204C49.7854 47.34 50.0692 41.0441 47.8072 35.9264Z" fill="#683F23"/>
<path d="M36.6697 60.5923L32.6236 60.583C28.2215 59.471 24.2515 56.3981 22.0002 52.3624C19.2242 47.3824 18.9374 41.0348 21.254 35.796L21.294 35.7049L21.3779 35.6563C24.47 33.8527 28.1289 32.9375 32.252 32.9375C33.0314 32.9375 33.842 32.9696 34.6623 33.0338C35.4826 32.9696 36.2942 32.9375 37.0726 32.9375C41.1967 32.9375 44.8555 33.8527 47.9467 35.6563L48.0305 35.7049L48.0705 35.796C50.3872 41.0348 50.1014 47.3824 47.3243 52.3624C45.074 56.3981 41.103 59.471 36.7019 60.583L36.6697 60.5923ZM32.7251 59.9711H36.6005C40.8377 58.8902 44.6575 55.9302 46.822 52.0466C49.4849 47.2696 49.7736 41.1891 47.5818 36.1501C44.5941 34.4304 41.0591 33.5566 37.0726 33.5566C36.301 33.5566 35.4982 33.5887 34.6847 33.654L34.6633 33.655L34.6428 33.654C33.8293 33.5887 33.0255 33.5566 32.254 33.5566C28.2674 33.5566 24.7314 34.4304 21.7447 36.1501C19.5529 41.188 19.8416 47.2686 22.5045 52.0466C24.668 55.9302 28.4878 58.8902 32.7251 59.9711Z" fill="#202B2B"/>
<path d="M44.9862 39.1112C42.8032 35.9555 38.7454 34.2637 35.0281 34.0618V34.0411C34.9598 34.0432 34.8896 34.0494 34.8203 34.0515C34.752 34.0494 34.6808 34.0432 34.6125 34.0411V34.0618C30.8962 34.2637 26.8384 35.9555 24.6554 39.1112C23.2888 41.0866 23.2361 43.9782 24.5305 46.0075L25.7693 44.031C25.3021 46.2653 25.5518 48.6621 26.4697 50.7328C26.574 50.9699 26.7057 51.2225 26.9359 51.3177C27.409 51.5165 27.8489 50.9222 27.9416 50.3901C28.0352 49.859 28.0118 49.2439 28.3815 48.8733C28.0928 51.1655 28.8068 53.5789 30.2768 55.2851C30.5479 54.3409 30.8201 53.3977 31.0922 52.4546C30.9547 53.6876 31.0903 54.9538 31.4853 56.1227C31.6541 56.6249 31.9145 57.155 32.3866 57.3382C32.8577 57.5225 33.5103 57.0773 33.3581 56.57C33.4957 57.3444 33.8839 58.0598 34.4321 58.5899H35.2095C35.7587 58.0598 36.1469 57.3444 36.2834 56.57C36.1313 57.0773 36.7838 57.5225 37.255 57.3382C37.7261 57.155 37.9875 56.6259 38.1572 56.1227C38.5513 54.9538 38.6879 53.6876 38.5503 52.4546C38.8215 53.3977 39.0937 54.3409 39.3648 55.2851C40.8367 53.5789 41.5488 51.1655 41.2601 48.8733C41.6307 49.2429 41.6064 49.859 41.701 50.3901C41.7946 50.9222 42.2336 51.5165 42.7066 51.3177C42.9349 51.2215 43.0676 50.9699 43.1729 50.7328C44.0888 48.6621 44.3395 46.2663 43.8723 44.031L45.1121 46.0075C46.4045 43.9793 46.3528 41.0876 44.9862 39.1112Z" fill="#8D664A"/>
<path d="M42.1809 40.0368C40.551 37.6803 37.5203 36.4162 34.7443 36.265V36.2495C34.6935 36.2505 34.6418 36.2557 34.5901 36.2578C34.5375 36.2557 34.4867 36.2505 34.435 36.2495V36.265C31.659 36.4162 28.6293 37.6793 26.9984 40.0368C25.9781 41.5121 25.9391 43.6718 26.9047 45.1865L27.8294 43.7101C27.4812 45.378 27.6675 47.1682 28.3523 48.715C28.4303 48.893 28.5288 49.0815 28.6995 49.1519C29.0526 49.302 29.3804 48.8568 29.4516 48.4602C29.5208 48.0637 29.5042 47.6051 29.7803 47.3266C29.5647 49.039 30.0973 50.8415 31.1956 52.116C31.3985 51.4109 31.6014 50.7069 31.8043 50.0018C31.7029 50.9233 31.8033 51.8686 32.0989 52.7413C32.2247 53.1151 32.4198 53.5106 32.7719 53.6483C33.1231 53.786 33.6108 53.4536 33.4967 53.0737C33.5981 53.6524 33.8888 54.1867 34.2985 54.5832H34.8789C35.2885 54.1867 35.5792 53.6524 35.6807 53.0737C35.5665 53.4536 36.0543 53.786 36.4064 53.6483C36.7575 53.5106 36.9536 53.1151 37.0794 52.7413C37.374 51.8675 37.4745 50.9223 37.373 50.0018C37.5759 50.7069 37.7788 51.4109 37.9817 52.116C39.08 50.8415 39.6126 49.039 39.3971 47.3266C39.6731 47.6051 39.6565 48.0637 39.7258 48.4602C39.796 48.8568 40.1237 49.302 40.4778 49.1519C40.6495 49.0815 40.747 48.893 40.8251 48.715C41.5098 47.1682 41.6971 45.378 41.3479 43.7101L42.2726 45.1865C43.2402 43.6718 43.2012 41.5121 42.1809 40.0368Z" fill="#B48A6F"/>
<path d="M18.1161 64.4137C16.9563 62.9259 16.1818 61.1048 15.899 59.1967C17.4167 62.1173 20.6639 63.9136 23.7882 63.5596C22.4295 62.7271 21.3731 61.3554 20.8775 59.7775C22.2392 61.1597 24.2564 61.5013 26.141 61.55C28.0245 61.5997 29.9578 61.4309 31.7507 62.0469C28.2401 59.1697 26.4863 54.5553 24.8953 50.1613C24.2486 48.3754 23.6 46.5739 23.32 44.6854C23.0391 42.797 23.1522 40.7884 23.9726 39.0863C21.7749 41.3775 17.8635 40.1673 15.2903 41.9615C13.9393 42.9016 13.1707 44.5332 12.6205 46.1452C11.4773 49.4862 11.0111 53.1741 11.8519 56.6135C12.6927 60.0529 14.9723 63.191 18.1161 64.4137Z" fill="#683F23"/>
<path d="M19.0301 65.0991L18.0156 64.7046C14.9557 63.515 12.4849 60.4453 11.5671 56.6911C10.7848 53.492 11.054 49.8093 12.3435 46.0386C12.8458 44.5736 13.6145 42.7565 15.1274 41.7015C16.3701 40.835 17.8917 40.6403 19.3627 40.4508C21.0541 40.2324 22.6518 40.0275 23.7667 38.8658L25.0504 37.5271L24.231 39.2282C23.3297 41.1011 23.3941 43.2038 23.6068 44.6388C23.8838 46.5117 24.5354 48.3101 25.1665 50.0515C26.5906 53.9858 28.3639 58.8819 31.9281 61.8036L33.2577 62.8938L31.6589 62.3451C30.2992 61.8771 28.8117 61.8761 27.3719 61.874C26.9574 61.874 26.5428 61.874 26.1322 61.8626C24.8261 61.8285 23.0469 61.6628 21.5906 60.7393C22.1368 61.7943 22.9552 62.694 23.9335 63.2935L24.711 63.7687L23.8194 63.8702C23.5492 63.9002 23.2722 63.9167 22.9971 63.9167C20.5468 63.9167 18.1132 62.6764 16.5369 60.7155C16.9212 61.991 17.5318 63.1816 18.3414 64.2201L19.0301 65.0991ZM23.2917 40.0171C22.1534 40.7149 20.7751 40.893 19.4329 41.0648C18.0293 41.246 16.5769 41.4324 15.4483 42.2192C14.0788 43.1738 13.3628 44.8738 12.8927 46.2498C11.6431 49.9014 11.3798 53.4588 12.1328 56.5358C12.9005 59.676 14.8055 62.3089 17.2236 63.6548C16.3974 62.3285 15.8453 60.8242 15.6112 59.2453L15.3527 57.5007L16.1555 59.0465C17.4577 61.5552 20.1557 63.25 22.8937 63.2924C21.8383 62.4227 21.0229 61.2176 20.5995 59.8748L20.225 58.6883L21.0775 59.5528C22.1514 60.6419 23.7619 61.1772 26.1458 61.2404C26.5535 61.2507 26.9632 61.2518 27.3729 61.2518C28.4498 61.2528 29.5549 61.2538 30.6338 61.4454C27.5602 58.3901 25.9429 53.9247 24.6202 50.2731C23.9794 48.5017 23.3161 46.6712 23.0293 44.7341C22.843 43.473 22.7659 41.7254 23.2917 40.0171Z" fill="#202B2B"/>
<path d="M15.2454 46.3233C15.1001 47.9032 15.1771 49.5079 15.4736 51.0651C15.7282 49.3827 16.5339 47.8007 17.721 46.6535C17.4977 48.2283 17.5825 49.8527 17.9678 51.3933C18.2058 49.7916 18.7121 48.2345 19.4544 46.8171C19.6924 48.7946 20.4044 50.7058 21.5037 52.321C21.096 50.214 21.2033 47.9953 21.8149 45.9443C22.0773 48.0471 22.9649 50.0577 24.3208 51.6159C22.9571 48.1538 22.4226 44.3271 22.7806 40.5937C21.256 41.7077 19.1695 41.2015 17.3943 41.7564C15.9048 42.2213 14.6943 43.4388 13.9091 44.8624C13.1238 46.285 12.721 47.9073 12.4284 49.5276C13.1082 48.2407 14.0827 47.1319 15.2454 46.3233Z" fill="#4C2C16"/>
<path d="M51.2085 64.4137C52.3683 62.9259 53.1428 61.1048 53.4257 59.1967C51.9089 62.1173 48.6607 63.9136 45.5364 63.5596C46.8952 62.7271 47.9516 61.3554 48.448 59.7775C47.0854 61.1597 45.0682 61.5013 43.1846 61.55C41.3001 61.5997 39.3668 61.4309 37.5749 62.0469C41.0855 59.1697 42.8384 54.5553 44.4303 50.1613C45.076 48.3754 45.7256 46.5739 46.0056 44.6854C46.2855 42.797 46.1724 40.7884 45.352 39.0863C47.5497 41.3775 51.4611 40.1673 54.0353 41.9615C55.3853 42.9016 56.1539 44.5332 56.705 46.1452C57.8482 49.4862 58.3135 53.1741 57.4727 56.6135C56.6319 60.0529 54.3533 63.191 51.2085 64.4137Z" fill="#683F23"/>
<path d="M50.2955 65.0991L50.9841 64.216C51.7937 63.1775 52.4053 61.9879 52.7896 60.7113C51.2134 62.6712 48.7797 63.9126 46.3284 63.9126C46.0543 63.9126 45.7773 63.896 45.5061 63.866L44.6146 63.7645L45.392 63.2893C46.3713 62.6899 47.1897 61.7902 47.735 60.7352C46.2787 61.6587 44.5005 61.8243 43.1934 61.8585C42.7817 61.8699 42.3672 61.8699 41.9536 61.8699C40.5139 61.872 39.0263 61.873 37.6666 62.3409L36.0688 62.8897L37.3974 61.7995C40.9616 58.8788 42.7349 53.9817 44.16 50.0474C44.7902 48.306 45.4408 46.5076 45.7197 44.6347C45.9324 43.1997 45.9968 41.0969 45.0945 39.224L44.2761 37.523L45.5588 38.8616C46.6737 40.0233 48.2715 40.2283 49.9638 40.4467C51.4348 40.6362 52.9545 40.8309 54.1982 41.6974C55.712 42.7535 56.4816 44.5694 56.982 46.0344C58.2716 49.8051 58.5408 53.4878 57.7585 56.687C56.8416 60.4411 54.3689 63.5109 51.3099 64.7005L50.2955 65.0991ZM53.9738 57.5008L53.7144 59.2453C53.4802 60.8231 52.9282 62.3286 52.102 63.6548C54.5201 62.3089 56.4251 59.676 57.1927 56.5358C57.9448 53.4588 57.6824 49.9024 56.4338 46.2498C55.9637 44.8749 55.2477 43.1738 53.8772 42.2192C52.7497 41.4324 51.2972 41.246 49.8936 41.0648C48.5504 40.893 47.1721 40.7149 46.0338 40.0171C46.5606 41.7244 46.4835 43.473 46.2972 44.733C46.0094 46.6702 45.3461 48.5006 44.7053 50.2721C43.3826 53.9237 41.7654 58.3891 38.6928 61.4444C39.7696 61.2528 40.8748 61.2518 41.9526 61.2507C42.3633 61.2507 42.773 61.2497 43.1797 61.2394C45.5637 61.1762 47.1751 60.6409 48.2481 59.5518L49.1006 58.6872L48.727 59.8737C48.3036 61.2166 47.4872 62.4217 46.4328 63.2914C49.1718 63.249 51.8688 61.5531 53.171 59.0455L53.9738 57.5008Z" fill="#202B2B"/>
<path d="M54.1748 46.3233C54.3211 47.9032 54.244 49.5079 53.9475 51.0651C53.6929 49.3827 52.8862 47.8007 51.6991 46.6535C51.9225 48.2283 51.8386 49.8527 51.4524 51.3933C51.2144 49.7916 50.7081 48.2345 49.9658 46.8171C49.7278 48.7946 49.0157 50.7058 47.9164 52.321C48.3251 50.214 48.2169 47.9953 47.6053 45.9443C47.3438 48.0471 46.4552 50.0577 45.1004 51.6159C46.463 48.1538 46.9976 44.3271 46.6406 40.5937C48.1652 41.7077 50.2506 41.2015 52.0259 41.7564C53.5164 42.2213 54.7269 43.4388 55.5111 44.8624C56.2963 46.285 56.7002 47.9073 56.9918 49.5276C56.3139 48.2407 55.3385 47.1319 54.1748 46.3233Z" fill="#4C2C16"/>
<path d="M56.0759 17.7574C55.7852 16.1133 55.161 14.5054 54.0968 13.3562C52.1488 11.2544 49.0889 11.0764 46.5401 12.002C47.1137 11.2752 47.6862 10.5473 48.2588 9.81946C46.6699 9.54613 45.0643 10.1332 43.6002 10.8911C42.1361 11.6489 40.7324 12.5911 39.1883 13.0984C37.6871 13.5912 35.9782 13.615 34.6545 12.6822H34.4692C33.1455 13.615 31.4366 13.5912 29.9354 13.0984C28.3903 12.5911 26.9876 11.65 25.5235 10.8911C24.0594 10.1322 22.4529 9.54613 20.8649 9.81946C21.4375 10.5473 22.01 11.2752 22.5826 12.002C20.0338 11.0754 16.9739 11.2534 15.0269 13.3562C13.9618 14.5054 13.3375 16.1133 13.0468 17.7574C12.7561 19.4015 12.7766 21.0953 12.8351 22.7705C12.9327 25.5089 13.1356 28.2629 13.792 30.8978C14.4485 33.5328 15.5888 36.058 17.3377 37.9257C18.1854 38.8296 19.192 39.5822 20.3245 39.8597C21.456 40.1392 22.7231 39.8877 23.5853 39.0035C22.8908 40.248 21.9193 41.2874 20.7878 41.9956C23.4644 42.0587 25.7625 39.955 27.807 37.9744C29.7783 36.0631 32.0082 34.0629 34.5638 34.0225C37.1204 34.0629 39.3493 36.0642 41.3216 37.9744C43.367 39.955 45.6642 42.0577 48.3408 41.9956C47.2093 41.2874 46.2368 40.248 45.5432 39.0035C46.4055 39.8877 47.6716 40.1392 48.8031 39.8597C49.9346 39.5812 50.9422 38.8296 51.7899 37.9257C53.5398 36.058 54.6791 33.5328 55.3365 30.8978C55.994 28.2629 56.1969 25.5089 56.2925 22.7705C56.3481 21.0953 56.3666 19.4015 56.0759 17.7574Z" fill="#FAE8C7"/>
<path d="M48.2208 42.2886C45.5812 42.2886 43.3621 40.3494 41.1323 38.1897C39.1298 36.2495 36.9721 34.3517 34.556 34.3134C32.1476 34.3517 29.99 36.2495 27.9884 38.1897C25.7596 40.3494 23.5395 42.2886 20.899 42.2886L19.8114 42.2648L20.6444 41.745C21.3662 41.2915 22.0198 40.7035 22.5738 40.0077C21.8705 40.2831 21.0404 40.3359 20.2591 40.1454C19.1959 39.8835 18.1463 39.2064 17.1407 38.1317C15.5088 36.3903 14.2583 33.9148 13.5238 30.9734C12.8293 28.1904 12.6459 25.2708 12.5581 22.7829C12.5025 21.2289 12.4693 19.4273 12.7746 17.7056C13.0068 16.3897 13.5521 14.5323 14.8279 13.1543C16.0258 11.8632 17.6859 11.1799 19.6319 11.1799C20.3401 11.1799 21.0736 11.2762 21.7925 11.4595L20.343 9.6176L20.818 9.53476C21.096 9.48817 21.3848 9.46436 21.6764 9.46436C22.8411 9.46436 24.1023 9.83498 25.6425 10.6332C26.0814 10.861 26.5204 11.1074 26.9457 11.3455C27.9338 11.9005 28.9551 12.4751 30.0144 12.8229C30.6699 13.0383 31.3156 13.1471 31.936 13.1471C32.8519 13.1471 33.6527 12.91 34.315 12.443L34.3843 12.3943H34.7355L34.8037 12.443C35.468 12.91 36.2678 13.1471 37.1828 13.1471C37.8032 13.1471 38.4499 13.0383 39.1054 12.8229C40.1657 12.4751 41.186 11.9005 42.1741 11.3466C42.5994 11.1074 43.0393 10.86 43.4782 10.6332C45.0184 9.83498 46.2787 9.46436 47.4443 9.46436C47.736 9.46436 48.0247 9.48817 48.3017 9.53476L48.7777 9.6176L47.3282 11.4595C48.0462 11.2752 48.7797 11.1799 49.4878 11.1799C51.4338 11.1799 53.095 11.8632 54.2918 13.1543C55.5687 14.5323 56.1139 16.3897 56.3461 17.7056C56.6504 19.4263 56.6163 21.2289 56.5626 22.7829C56.4739 25.2719 56.2905 28.1914 55.5969 30.9734C54.8624 33.9148 53.6119 36.3903 51.9801 38.1317C50.9734 39.2064 49.9248 39.8835 48.8606 40.1454C48.5495 40.221 48.2295 40.2604 47.9096 40.2604C47.4287 40.2604 46.9683 40.1734 46.5459 40.0077C47.1 40.7035 47.7526 41.2915 48.4763 41.745L49.3093 42.2648L48.2208 42.2886ZM34.556 33.7305C37.174 33.7719 39.4224 35.7422 41.503 37.759C43.3865 39.5843 45.2574 41.245 47.337 41.6239C46.5323 40.9551 45.8388 40.1144 45.3013 39.1515L44.2634 37.289L45.7295 38.7933C46.2836 39.3627 47.058 39.6764 47.9096 39.6764C48.1866 39.6764 48.4646 39.6423 48.7368 39.575C49.6976 39.3389 50.6584 38.7146 51.5909 37.7197C53.1555 36.0507 54.3562 33.6653 55.0663 30.8222C55.7462 28.0952 55.9276 25.217 56.0144 22.7601C56.0691 21.2371 56.1012 19.4729 55.8076 17.8122C55.5882 16.575 55.0809 14.8336 53.9017 13.5611C52.5234 12.0734 50.7422 11.7628 49.4898 11.7628C48.5514 11.7628 47.5623 11.9409 46.6308 12.2804L45.7002 12.6179L47.7194 10.0514C46.5616 9.98613 45.3072 10.332 43.7201 11.153C43.289 11.3766 42.853 11.621 42.4326 11.8591C41.423 12.4254 40.3793 13.0124 39.2692 13.3769C38.5611 13.6098 37.8607 13.7268 37.1848 13.7268C36.1908 13.7268 35.3129 13.4742 34.5716 12.9731H34.5491C33.8088 13.4732 32.9309 13.7268 31.936 13.7268C31.261 13.7268 30.5596 13.6098 29.8525 13.3769C28.7424 13.0124 27.6987 12.4254 26.6882 11.8581C26.2678 11.621 25.8327 11.3766 25.4016 11.153C23.8146 10.332 22.5592 9.98613 21.4023 10.0514L23.4205 12.6179L22.4909 12.2804C21.5594 11.9409 20.5703 11.7628 19.6309 11.7628C18.3795 11.7628 16.5974 12.0744 15.22 13.5611C14.0398 14.8336 13.5326 16.575 13.3141 17.8122C13.0195 19.474 13.0526 21.2382 13.1073 22.7601C13.1941 25.2159 13.3736 28.0941 14.0554 30.8222C14.7655 33.6653 15.9663 36.0507 17.5308 37.7197C18.4633 38.7146 19.4232 39.3389 20.384 39.575C20.6551 39.6413 20.9331 39.6764 21.2121 39.6764C22.0637 39.6764 22.8372 39.3627 23.3912 38.7933L24.8583 37.2879L23.8194 39.1515C23.2829 40.1144 22.5894 40.9541 21.7837 41.6239C23.8653 41.245 25.7352 39.5832 27.6187 37.759C29.6983 35.7432 31.9467 33.7719 34.556 33.7305Z" fill="#202B2B"/>
<path d="M30.9332 17.2956C28.2274 14.1016 23.9609 12.4854 19.9606 13.1419C18.2058 13.4297 16.4335 14.1896 15.34 15.6743C14.2319 17.1786 13.9783 19.1892 13.9003 21.0973C13.792 23.8068 13.9676 26.5619 14.7762 29.1357C15.5839 31.7085 17.0656 34.0991 19.1861 35.6127C18.2117 35.4988 17.2772 35.0319 16.571 34.3103C17.2684 35.8364 18.7189 36.9442 20.303 37.1595C21.8871 37.3759 23.5561 36.6926 24.592 35.4025C24.4652 36.3571 23.8838 37.231 23.0781 37.6741C24.9899 36.9069 26.7613 35.7494 28.2684 34.2844C27.9747 35.3984 27.4256 36.4368 26.6804 37.2827C28.7707 35.8695 30.7684 34.302 32.6558 32.5978C33.2167 32.0905 33.7795 31.5553 34.1248 30.8637C34.5521 30.0075 34.5979 29.0021 34.6369 28.0351C34.714 26.0898 34.7891 24.1226 34.4233 22.2155C33.8429 19.184 32.1145 16.4207 29.7091 14.6772C30.1187 15.55 30.5255 16.4218 30.9332 17.2956Z" fill="#B48A6F"/>
<path d="M38.1368 17.2956C40.8426 14.1016 45.1091 12.4854 49.1094 13.1419C50.8642 13.4297 52.6365 14.1896 53.73 15.6743C54.8371 17.1786 55.0917 19.1892 55.1697 21.0973C55.278 23.8068 55.1024 26.5619 54.2938 29.1357C53.4861 31.7085 52.0044 34.0991 49.8839 35.6127C50.8583 35.4988 51.7928 35.0319 52.499 34.3103C51.8016 35.8364 50.3511 36.9442 48.767 37.1595C47.1829 37.3759 45.5139 36.6926 44.478 35.4025C44.6048 36.3571 45.1862 37.231 45.9919 37.6741C44.0801 36.9069 42.3087 35.7494 40.8016 34.2844C41.0952 35.3984 41.6444 36.4368 42.3896 37.2827C40.2993 35.8695 38.3016 34.302 36.4142 32.5978C35.8533 32.0905 35.2905 31.5553 34.9452 30.8637C34.5179 30.0075 34.4721 29.0021 34.4331 28.0351C34.356 26.0898 34.2809 24.1226 34.6467 22.2155C35.2271 19.184 36.9555 16.4207 39.3609 14.6772C38.9513 15.55 38.5445 16.4218 38.1368 17.2956Z" fill="#B48A6F"/>
<path d="M34.7725 29.6234C34.7315 29.672 34.6993 29.7238 34.6633 29.7745C34.6281 29.7238 34.595 29.672 34.555 29.6234C32.1886 30.5003 30.3675 32.8536 30.0192 35.4875C31.6092 35.8219 33.0684 36.8075 34.0253 38.1959C34.0302 38.2021 34.0351 38.2093 34.04 38.2156C34.0682 38.4444 34.1404 38.666 34.3238 38.7695C34.4379 38.8337 34.5521 38.8306 34.6642 38.7912C34.7754 38.8295 34.8905 38.8326 35.0047 38.7695C35.189 38.6649 35.2602 38.4444 35.2895 38.2156C35.2934 38.2093 35.2992 38.2021 35.3031 38.1959C36.26 36.8075 37.7212 35.8219 39.3092 35.4875C38.959 32.8546 37.1379 30.5003 34.7725 29.6234Z" fill="#DB84B6"/>
<path d="M34.8164 39.1287C34.7657 39.1287 34.715 39.1236 34.6633 39.1112C34.4945 39.1484 34.3336 39.1256 34.1873 39.0428C33.878 38.8699 33.7912 38.5252 33.761 38.3378C32.8314 37.0239 31.4561 36.1066 29.9617 35.7918L29.6905 35.7349L29.7286 35.444C30.0924 32.7014 31.9925 30.2445 34.4584 29.3313L34.6418 29.264L34.6623 29.2879L34.6837 29.264L34.8671 29.3313C37.3311 30.2445 39.2322 32.7014 39.596 35.444L39.6341 35.7349L39.3639 35.7918C37.8617 36.1076 36.4795 37.0342 35.5636 38.3388C35.5343 38.5262 35.4475 38.8699 35.1373 39.0439C35.0378 39.1008 34.9296 39.1287 34.8164 39.1287ZM34.6623 38.4651L34.753 38.4962C34.8008 38.5127 34.832 38.5148 34.8662 38.4941C34.9305 38.4589 34.9744 38.3501 34.9978 38.1721L35.0086 38.0934L35.0534 38.0282C36.0094 36.645 37.4228 35.6479 38.9756 35.2462C38.566 32.9147 36.9575 30.8512 34.874 29.9919L34.6633 30.2891L34.4535 29.9919C32.3691 30.8512 30.7606 32.9147 30.3509 35.2462C31.9038 35.6479 33.3162 36.6429 34.2604 38.0116L34.3043 38.0748L34.3277 38.1721C34.3502 38.3501 34.395 38.4579 34.4594 38.4941C34.4945 38.5148 34.5248 38.5127 34.5735 38.4962L34.6623 38.4651Z" fill="#202B2B"/>
<path d="M22.7923 34.4377C28.1541 34.4377 32.5007 29.8241 32.5007 24.133C32.5007 18.4419 28.1541 13.8283 22.7923 13.8283C17.4305 13.8283 13.0838 18.4419 13.0838 24.133C13.0838 29.8241 17.4305 34.4377 22.7923 34.4377Z" fill="#A29E9A"/>
<path d="M22.7923 34.7482C17.2782 34.7482 12.7912 29.9857 12.7912 24.1329C12.7912 18.2802 17.2782 13.5176 22.7923 13.5176C28.3064 13.5176 32.7934 18.2802 32.7934 24.1329C32.7934 29.9857 28.3074 34.7482 22.7923 34.7482ZM22.7923 14.1368C17.6001 14.1368 13.3765 18.6208 13.3765 24.1319C13.3765 29.643 17.6001 34.126 22.7923 34.126C27.9845 34.126 32.2091 29.643 32.2091 24.1319C32.2091 18.6208 27.9855 14.1368 22.7923 14.1368Z" fill="#202B2B"/>
<path d="M22.7933 32.8028C27.3045 32.8028 30.9615 28.9212 30.9615 24.1329C30.9615 19.3447 27.3045 15.4631 22.7933 15.4631C18.2821 15.4631 14.625 19.3447 14.625 24.1329C14.625 28.9212 18.2821 32.8028 22.7933 32.8028Z" fill="#ECAD4F"/>
<path d="M22.7923 33.0927C18.1376 33.0927 14.35 29.0735 14.35 24.1329C14.35 19.1923 18.1376 15.1721 22.7923 15.1721C27.4471 15.1721 31.2346 19.1923 31.2346 24.1329C31.2346 29.0735 27.448 33.0927 22.7923 33.0927ZM22.7923 15.755C18.4399 15.755 14.8991 19.5133 14.8991 24.1329C14.8991 28.7526 18.4399 32.5098 22.7923 32.5098C27.1447 32.5098 30.6855 28.7526 30.6855 24.1329C30.6855 19.5133 27.1447 15.755 22.7923 15.755Z" fill="#202B2B"/>
<path d="M22.7923 27.8954C24.75 27.8954 26.337 26.2109 26.337 24.133C26.337 22.055 24.75 20.3706 22.7923 20.3706C20.8346 20.3706 19.2476 22.055 19.2476 24.133C19.2476 26.2109 20.8346 27.8954 22.7923 27.8954Z" fill="#202B2B"/>
<path d="M46.3714 34.4387C51.7337 34.4387 56.0808 29.8246 56.0808 24.1329C56.0808 18.4413 51.7337 13.8272 46.3714 13.8272C41.009 13.8272 36.6619 18.4413 36.6619 24.1329C36.6619 29.8246 41.009 34.4387 46.3714 34.4387Z" fill="#A29E9A"/>
<path d="M46.3714 34.7482C40.8573 34.7482 36.3703 29.9857 36.3703 24.1329C36.3703 18.2802 40.8573 13.5176 46.3714 13.5176C51.8845 13.5176 56.3714 18.2802 56.3714 24.1329C56.3714 29.9857 51.8854 34.7482 46.3714 34.7482ZM46.3714 14.1368C41.1791 14.1368 36.9546 18.6208 36.9546 24.1319C36.9546 29.643 41.1791 34.126 46.3714 34.126C51.5626 34.126 55.7872 29.643 55.7872 24.1319C55.7872 18.6208 51.5636 14.1368 46.3714 14.1368Z" fill="#202B2B"/>
<path d="M46.3714 32.8028C50.8826 32.8028 54.5396 28.9212 54.5396 24.1329C54.5396 19.3447 50.8826 15.4631 46.3714 15.4631C41.8602 15.4631 38.2031 19.3447 38.2031 24.1329C38.2031 28.9212 41.8602 32.8028 46.3714 32.8028Z" fill="#ECAD4F"/>
<path d="M46.3714 33.0927C41.7166 33.0927 37.929 29.0735 37.929 24.1329C37.929 19.1923 41.7166 15.1721 46.3714 15.1721C51.0251 15.1721 54.8127 19.1923 54.8127 24.1329C54.8127 29.0735 51.0261 33.0927 46.3714 33.0927ZM46.3714 15.755C42.019 15.755 38.4782 19.5133 38.4782 24.1329C38.4782 28.7526 42.019 32.5098 46.3714 32.5098C50.7227 32.5098 54.2636 28.7526 54.2636 24.1329C54.2636 19.5133 50.7227 15.755 46.3714 15.755Z" fill="#202B2B"/>
<path d="M46.3713 27.8943C48.3285 27.8943 49.9151 26.2103 49.9151 24.1329C49.9151 22.0556 48.3285 20.3716 46.3713 20.3716C44.4142 20.3716 42.8276 22.0556 42.8276 24.1329C42.8276 26.2103 44.4142 27.8943 46.3713 27.8943Z" fill="#202B2B"/>
<path d="M26.4745 62.9528C26.5711 64.424 27.1856 65.8497 28.1728 66.8861C28.5298 67.2619 29.0292 67.6077 29.5042 67.4337C29.9071 67.2857 30.1217 66.8208 30.2251 66.3818C30.4943 65.2451 30.3041 64.0285 29.8837 62.9445C29.4623 61.8616 28.8244 60.8915 28.1708 59.9462C27.5651 60.0176 27.0442 60.4867 26.7681 61.0623C26.4911 61.6379 26.4326 62.3078 26.4745 62.9528Z" fill="#E4C799"/>
<path d="M29.2428 67.7712C28.7327 67.7712 28.2742 67.4026 27.9797 67.0941C26.9486 66.0101 26.3 64.5089 26.2005 62.9735C26.1478 62.1742 26.258 61.4857 26.5243 60.9308C26.8647 60.2226 27.4832 59.735 28.1416 59.6573L28.2996 59.6387L28.3942 59.7743C29.0361 60.702 29.7003 61.7042 30.1393 62.8348C30.4826 63.719 30.8221 65.0649 30.4924 66.4533C30.3353 67.119 30.0251 67.5538 29.594 67.7102C29.4818 67.7506 29.3638 67.7712 29.2428 67.7712ZM28.0509 60.264C27.6305 60.3717 27.2432 60.7175 27.014 61.1948C26.7926 61.6534 26.7038 62.2395 26.7496 62.9321C26.8404 64.3288 27.4295 65.6943 28.3669 66.6789C28.7532 67.0858 29.1268 67.2629 29.4155 67.1573C29.7432 67.0382 29.8974 66.5754 29.9608 66.3114C30.2534 65.0773 29.9422 63.8608 29.6311 63.0553C29.238 62.0448 28.642 61.1223 28.0509 60.264Z" fill="#202B2B"/>
<path d="M27.5583 61.7042C28.0255 62.4424 28.4957 63.1847 28.8556 63.9881C29.2146 64.7915 29.4613 65.6664 29.4565 66.5558C28.8361 66.4988 28.3484 65.9718 28.005 65.42C27.3768 64.4095 27.0345 63.2034 27.0325 61.9941C27.0315 61.8812 27.0354 61.7622 27.0832 61.6618C27.132 61.5603 27.2364 61.4816 27.3417 61.5023C27.4373 61.523 27.5037 61.6172 27.5583 61.7042Z" fill="white"/>
<path d="M20.8112 68.2952C21.3994 68.1057 21.8052 67.5404 22.1124 66.9772C22.4968 66.2742 22.7972 65.5205 23.005 64.7388C23.2283 63.9002 23.3434 63.0077 23.1601 62.1597C22.9777 61.3118 22.4577 60.5105 21.6979 60.1844C21.1234 61.0406 20.5498 61.8978 19.9753 62.7551C19.5227 63.4301 19.0642 64.1155 18.8028 64.8961C18.5414 65.6768 18.4956 66.5776 18.8594 67.3106C19.2242 68.0436 20.064 68.5343 20.8112 68.2952Z" fill="#E4C799"/>
<path d="M20.4162 68.6482C19.6973 68.6482 18.9735 68.1657 18.6165 67.4472C18.2527 66.7121 18.2263 65.7472 18.5443 64.7988C18.8213 63.9737 19.2954 63.2676 19.7519 62.5843L21.6003 59.8262L21.8022 59.9131C22.5894 60.2517 23.2117 61.0872 23.4283 62.0935C23.599 62.8845 23.5463 63.7749 23.2693 64.8165C23.0557 65.622 22.7465 66.3974 22.3514 67.1232C22.0715 67.6346 21.6159 68.3417 20.8912 68.5737C20.738 68.6223 20.5781 68.6482 20.4162 68.6482ZM21.7886 60.5519L20.1996 62.9218C19.7646 63.573 19.3139 64.246 19.0623 64.9935C18.795 65.7896 18.8096 66.5838 19.1032 67.1739C19.3637 67.6978 19.9021 68.0633 20.4162 68.0633C20.5244 68.0633 20.6307 68.0467 20.7312 68.0146C21.2706 67.8417 21.6423 67.2557 21.8754 66.8281C22.248 66.1469 22.5397 65.4159 22.7406 64.657C22.9923 63.7107 23.042 62.9135 22.8928 62.2209C22.7348 61.4868 22.3202 60.8666 21.7886 60.5519Z" fill="#202B2B"/>
<path d="M19.5207 65.9854C19.4924 66.3146 19.5051 66.6594 19.6378 66.9586C19.7704 67.2588 20.0406 67.5052 20.3518 67.5228C20.066 66.648 20.385 65.6903 20.7351 64.8423C21.0843 63.9934 21.4784 63.0937 21.337 62.1795C20.5088 63.3236 19.6475 64.5504 19.5207 65.9854Z" fill="white"/>
<path d="M22.643 61.6908C22.4109 62.8338 22.365 64.0193 22.5065 65.1789C22.5962 65.9067 22.7659 66.6407 23.1386 67.2588C23.5112 67.8769 24.1169 68.3677 24.8046 68.4453C25.6825 68.5457 26.5369 67.9432 26.9866 67.1357C27.4363 66.3302 27.5407 65.3559 27.5114 64.4189C27.4743 63.2304 27.2354 62.048 26.8101 60.9464C26.4794 60.0912 25.9215 59.1957 25.0601 59.058C24.43 58.9576 23.7901 59.3158 23.3853 59.8397C22.9825 60.3635 22.7776 61.0282 22.643 61.6908Z" fill="#E4C799"/>
<path d="M24.9958 68.7475C24.9236 68.7475 24.8495 68.7434 24.7753 68.7351C24.0565 68.6543 23.3581 68.1605 22.9074 67.415C22.5621 66.8445 22.3485 66.1457 22.2344 65.217C22.088 64.0181 22.1339 62.8109 22.3748 61.6275C22.485 61.0819 22.6889 60.2826 23.1747 59.6552C23.676 59.0081 24.4242 58.6613 25.1031 58.771C25.9146 58.9004 26.5935 59.6138 27.0666 60.8376C27.5056 61.9775 27.7485 63.1795 27.7875 64.4095C27.8255 65.597 27.6412 66.5381 27.2256 67.2846C26.7301 68.1739 25.8542 68.7475 24.9958 68.7475ZM24.8466 59.3342C24.4076 59.3342 23.9297 59.5993 23.6 60.0259C23.1893 60.556 23.0108 61.2641 22.9123 61.7518C22.686 62.8679 22.6411 64.0088 22.7796 65.1414C22.883 65.9832 23.0713 66.6044 23.3707 67.1013C23.7316 67.6987 24.2798 68.0932 24.8348 68.1574C25.5586 68.2392 26.3204 67.7619 26.7516 66.9895C27.1125 66.3404 27.2715 65.5028 27.2383 64.4291C27.2012 63.2685 26.973 62.1338 26.5575 61.0581C26.2824 60.3458 25.7927 59.4709 25.0212 59.3477C24.9626 59.3384 24.9041 59.3342 24.8466 59.3342Z" fill="#202B2B"/>
<path d="M24.1745 60.5611C23.5492 61.5468 23.2488 62.7581 23.3346 63.9425C23.4205 65.1269 23.8926 66.2751 24.6514 67.1479C24.0028 65.0348 23.837 62.755 24.1745 60.5611Z" fill="white"/>
<path d="M43.7464 62.9528C43.6508 64.424 43.0353 65.8497 42.0482 66.8861C41.6922 67.2619 41.1918 67.6077 40.7167 67.4337C40.3139 67.2857 40.0993 66.8208 39.9959 66.3818C39.7267 65.2451 39.9169 64.0285 40.3373 62.9445C40.7587 61.8616 41.3966 60.8915 42.0502 59.9462C42.6559 60.0176 43.1768 60.4867 43.4538 61.0623C43.7289 61.6379 43.7894 62.3078 43.7464 62.9528Z" fill="#E4C799"/>
<path d="M40.9782 67.7712C40.8582 67.7712 40.7402 67.7495 40.627 67.7091C40.1979 67.5518 39.8857 67.118 39.7287 66.4522C39.399 65.0649 39.7394 63.7179 40.0828 62.8338C40.5207 61.7042 41.185 60.702 41.8278 59.7733L41.9214 59.6377L42.0795 59.6563C42.7379 59.734 43.3582 60.2227 43.6977 60.9298C43.964 61.4847 44.0732 62.1722 44.0206 62.9725C43.9201 64.5079 43.2714 66.0102 42.2414 67.0931C41.9468 67.4027 41.4893 67.7712 40.9782 67.7712ZM42.1702 60.2641C41.58 61.1234 40.9831 62.0448 40.591 63.0553C40.2798 63.8598 39.9686 65.0763 40.2622 66.3115C40.3237 66.5765 40.4788 67.0383 40.8065 67.1583C41.0943 67.2619 41.4688 67.0859 41.8561 66.679C42.7925 65.6944 43.3817 64.3278 43.4733 62.9321C43.5182 62.2395 43.4295 61.6555 43.209 61.1948C42.9788 60.7175 42.5896 60.3728 42.1702 60.2641Z" fill="#202B2B"/>
<path d="M42.6637 61.7042C42.1955 62.4424 41.7254 63.1847 41.3664 63.9881C41.0074 64.7916 40.7597 65.6665 40.7645 66.5558C41.3849 66.4989 41.8736 65.9718 42.216 65.42C42.8442 64.4095 43.1865 63.2034 43.1895 61.9941C43.1895 61.8813 43.1856 61.7622 43.1378 61.6618C43.09 61.5614 42.9856 61.4816 42.8803 61.5023C42.7837 61.523 42.7174 61.6172 42.6637 61.7042Z" fill="white"/>
<path d="M49.4098 68.2952C48.8217 68.1057 48.4169 67.5404 48.1086 66.9772C47.7243 66.2742 47.4248 65.5205 47.2161 64.7388C46.9937 63.9002 46.8786 63.0077 47.061 62.1597C47.2444 61.3118 47.7633 60.5105 48.5232 60.1844C49.0977 61.0406 49.6722 61.8978 50.2458 62.7551C50.6984 63.4301 51.1568 64.1155 51.4182 64.8961C51.6797 65.6768 51.7255 66.5776 51.3617 67.3106C50.9978 68.0436 50.157 68.5343 49.4098 68.2952Z" fill="#E4C799"/>
<path d="M49.8058 68.6482C49.6429 68.6482 49.483 68.6233 49.3308 68.5746C48.6061 68.3417 48.1505 67.6356 47.8706 67.1241C47.4755 66.3994 47.1663 65.624 46.9527 64.8174C46.6757 63.7759 46.623 62.8855 46.7937 62.0945C47.0103 61.0871 47.6336 60.2526 48.4207 59.9141L48.6217 59.8271L50.4701 62.5853C50.9286 63.2686 51.4016 63.9757 51.6777 64.7998C51.9957 65.7482 51.9703 66.7131 51.6055 67.4472C51.2465 68.1657 50.5238 68.6482 49.8058 68.6482ZM48.4334 60.5519C47.9018 60.8666 47.4872 61.4858 47.3282 62.2229C47.18 62.9166 47.2288 63.7127 47.4804 64.659C47.6823 65.4169 47.973 66.1478 48.3466 66.8301C48.5787 67.2567 48.9504 67.8437 49.4898 68.0166C50.0672 68.2009 50.8037 67.8106 51.1188 67.1749C51.4114 66.5847 51.426 65.7896 51.1588 64.9945C50.9081 64.247 50.4574 63.574 50.0214 62.9228L48.4334 60.5519Z" fill="#202B2B"/>
<path d="M50.7003 65.9854C50.7296 66.3146 50.7169 66.6594 50.5833 66.9586C50.4506 67.2588 50.1804 67.5052 49.8693 67.5228C50.156 66.648 49.8371 65.6903 49.4869 64.8423C49.1367 63.9934 48.7426 63.0937 48.8851 62.1795C49.7132 63.3236 50.5735 64.5504 50.7003 65.9854Z" fill="white"/>
<path d="M47.5789 61.6908C47.8101 62.8338 47.8569 64.0193 47.7145 65.1789C47.6248 65.9067 47.456 66.6407 47.0824 67.2588C46.7089 67.8769 46.1051 68.3677 45.4164 68.4453C44.5395 68.5457 43.6841 67.9432 43.2344 67.1357C42.7847 66.3302 42.6803 65.3559 42.7096 64.4189C42.7476 63.2304 42.9856 62.048 43.4119 60.9464C43.7416 60.0912 44.2995 59.1957 45.1608 59.058C45.792 58.9576 46.4309 59.3158 46.8366 59.8397C47.2395 60.3635 47.4443 61.0282 47.5789 61.6908Z" fill="#E4C799"/>
<path d="M45.2243 68.7476C44.3659 68.7476 43.4919 68.173 42.9964 67.2847C42.5799 66.5382 42.3965 65.5981 42.4336 64.4096C42.4726 63.1796 42.7155 61.9765 43.1554 60.8376C43.6265 59.6139 44.3064 58.9005 45.1189 58.7711C45.7959 58.6624 46.546 59.0082 47.0464 59.6553C47.5321 60.2827 47.736 61.082 47.8472 61.6276C48.0862 62.811 48.134 64.0182 47.9867 65.2171C47.8725 66.1458 47.6589 66.8446 47.3136 67.4151C46.863 68.1616 46.1646 68.6544 45.4457 68.7352C45.3715 68.7445 45.2984 68.7476 45.2243 68.7476ZM45.3745 59.3343C45.3159 59.3343 45.2584 59.3385 45.1999 59.3478C44.4293 59.471 43.9386 60.3469 43.6646 61.0582C43.249 62.1339 43.0198 63.2686 42.9837 64.4292C42.9496 65.5039 43.1086 66.3415 43.4695 66.9896C43.8996 67.762 44.6644 68.2372 45.3872 68.1575C45.9422 68.0933 46.4894 67.6998 46.8503 67.1014C47.1507 66.6055 47.339 65.9832 47.4414 65.1415C47.5809 64.0089 47.537 62.869 47.3097 61.7518C47.2102 61.2642 47.0317 60.556 46.622 60.026C46.2914 59.5994 45.8134 59.3343 45.3745 59.3343Z" fill="#202B2B"/>
<path d="M46.0465 60.5611C46.6708 61.5468 46.9712 62.7581 46.8854 63.9425C46.7995 65.1269 46.3284 66.2751 45.5685 67.1479C46.2191 65.0348 46.384 62.755 46.0465 60.5611Z" fill="white"/>
<path d="M34.6808 38.8057C34.5287 38.8057 34.4058 38.6752 34.4058 38.5137V29.6813C34.4058 29.5198 34.5287 29.3904 34.6808 29.3904C34.832 29.3904 34.9549 29.5198 34.9549 29.6813V38.5137C34.9549 38.6752 34.832 38.8057 34.6808 38.8057Z" fill="#202B2B"/>
<path d="M38.526 35.9244C38.4011 35.9244 38.288 35.8333 38.2587 35.6977C37.8559 33.8351 36.4064 32.2986 34.6526 31.871C34.5043 31.8358 34.4116 31.6785 34.4458 31.5222C34.4799 31.3648 34.6282 31.2664 34.7755 31.3026C36.7302 31.7789 38.3455 33.4914 38.7952 35.5672C38.8284 35.7235 38.7357 35.8809 38.5884 35.9161C38.567 35.9224 38.5474 35.9244 38.526 35.9244Z" fill="#202B2B"/>
<path d="M37.2247 36.4162C37.1126 36.4162 37.0062 36.3427 36.9663 36.2237C36.6873 35.4026 36.1752 34.6572 35.5246 34.1261C35.2046 33.8652 34.9393 33.7533 34.713 33.7885C34.5657 33.8113 34.4243 33.7005 34.4028 33.5411C34.3823 33.3827 34.4857 33.2336 34.636 33.2119C35.0154 33.1539 35.4163 33.303 35.8601 33.6653C36.5927 34.2648 37.1691 35.1034 37.4823 36.0269C37.534 36.1781 37.4608 36.3458 37.3174 36.3996C37.2872 36.411 37.256 36.4162 37.2247 36.4162Z" fill="#202B2B"/>
<path d="M36.2171 37.4981C36.104 37.4981 35.9967 37.4236 35.9576 37.3035C35.747 36.6688 35.2105 36.1729 34.5911 36.0404C34.4428 36.0083 34.3462 35.854 34.3755 35.6966C34.4057 35.5393 34.5511 35.4357 34.6993 35.4678C35.506 35.6407 36.2035 36.2847 36.4756 37.1099C36.5263 37.261 36.4512 37.4277 36.3068 37.4805C36.2786 37.4919 36.2464 37.4981 36.2171 37.4981Z" fill="#202B2B"/>
<path d="M33.682 35.913C33.7083 34.4345 33.7356 32.9571 33.7629 31.4787C32.886 31.5677 32.3057 32.6082 32.3895 33.538C32.4725 34.4687 33.045 35.268 33.682 35.913Z" fill="white"/>
<path d="M26.4385 56.6135C26.5487 56.8123 26.6423 57.0111 26.7018 57.2119C26.7604 57.4148 26.7828 57.6219 26.773 57.8248C26.7526 58.2255 26.6023 58.6034 26.3156 58.8457C26.0288 59.089 25.6542 59.1449 25.2719 59.0258C25.0816 58.9658 24.8885 58.8633 24.7071 58.7214C24.5237 58.5806 24.353 58.4005 24.2242 58.1758C24.1579 58.0651 24.0409 57.8269 23.8867 57.4987C23.8126 57.333 23.717 57.1519 23.638 56.9386C23.56 56.7264 23.4732 56.4945 23.3815 56.248C23.2947 56.0016 23.1913 55.7469 23.1074 55.4695C23.0284 55.193 22.9455 54.9052 22.8606 54.6111C22.6772 54.0324 22.5719 53.3978 22.4382 52.7921C22.3222 52.1792 22.2529 51.5663 22.1739 51.0072C22.1329 50.4377 22.0929 49.918 22.0685 49.4769C22.0676 48.5938 22.0656 48.015 22.0656 48.015C22.0656 48.015 22.2285 48.5617 22.4772 49.3952C22.6255 49.7989 22.8001 50.271 22.9884 50.7815C23.2117 51.2763 23.4312 51.8085 23.6926 52.3262C23.9716 52.8356 24.2145 53.3615 24.5208 53.8263C24.6642 54.0614 24.8046 54.2902 24.9392 54.5107C25.0758 54.7302 25.227 54.9259 25.3567 55.1185C25.4884 55.309 25.6123 55.487 25.7254 55.6516C25.8366 55.8163 25.9576 55.9519 26.0512 56.0793C26.2444 56.3308 26.379 56.5162 26.4385 56.6135Z" fill="#8D664A"/>
<path d="M25.583 56.4054C25.8034 56.7657 25.9176 57.1477 25.9634 57.4603C26.0112 57.7709 25.9585 58.0319 25.7908 58.1623C25.624 58.2918 25.3694 58.2628 25.0904 58.1033C24.8134 57.9449 24.5412 57.6332 24.3052 57.245C24.0623 56.8609 23.955 56.4447 23.9394 56.1123C23.9238 55.779 24.0086 55.5284 24.193 55.4259C24.3774 55.3245 24.6241 55.3907 24.8709 55.5708C25.1187 55.75 25.3567 56.0502 25.583 56.4054Z" fill="#B48A6F"/>
<path d="M22.7484 56.4209C23.0703 57.0866 22.8567 57.9366 22.2266 58.3466C21.6062 58.7525 20.7547 58.475 20.3781 57.7006C20.2972 57.5038 20.0689 56.8847 19.8855 56.0368C19.8378 55.8256 19.7802 55.6061 19.7373 55.3711C19.6963 55.1371 19.6544 54.8938 19.6114 54.6453C19.5159 54.1535 19.4759 53.6255 19.4164 53.1161C19.3686 52.6047 19.3539 52.0974 19.3296 51.6325C19.3315 51.1666 19.3344 50.7369 19.3364 50.3694C19.3803 49.6436 19.4086 49.1673 19.4086 49.1673C19.4086 49.1673 19.5432 49.6177 19.747 50.3052C19.8651 50.6385 20.0036 51.0299 20.1538 51.4523C20.3264 51.8654 20.4991 52.3086 20.6991 52.7434C20.9117 53.1741 21.099 53.6131 21.3292 54.0117C21.4365 54.2115 21.5428 54.4072 21.6442 54.5946C21.7457 54.7809 21.8598 54.9528 21.9554 55.1185C22.3368 55.7842 22.6772 56.247 22.7484 56.4209Z" fill="#8D664A"/>
<path d="M21.97 56.2211C22.1163 56.5348 22.1651 56.8641 22.1524 57.1353C22.1398 57.4066 22.0422 57.6313 21.8598 57.7369C21.6784 57.8445 21.4453 57.8103 21.2131 57.6633C20.9819 57.5163 20.7722 57.245 20.6132 56.9075C20.4513 56.57 20.4074 56.2159 20.4425 55.9343C20.4786 55.6517 20.5986 55.4394 20.7907 55.3566C20.9829 55.2748 21.2111 55.3349 21.4209 55.4933C21.6306 55.6507 21.8169 55.9085 21.97 56.2211Z" fill="#B48A6F"/>
<path d="M19.2203 57.4935C19.2788 57.684 19.3178 57.8714 19.3247 58.0578C19.3295 58.2452 19.3022 58.4305 19.2437 58.6065C19.1286 58.9585 18.8974 59.2732 18.5697 59.4472C18.241 59.6201 17.8732 59.6128 17.5377 59.4441C17.3699 59.3592 17.2109 59.236 17.0704 59.0776C16.929 58.9202 16.8081 58.7297 16.7378 58.5051C16.7008 58.3953 16.6432 58.1624 16.5739 57.8414C16.4949 57.5246 16.4393 57.1094 16.3857 56.6414C16.3613 56.4064 16.3223 56.1621 16.3067 55.9033C16.296 55.6455 16.2852 55.3763 16.2725 55.1029C16.2335 54.5604 16.2813 53.9858 16.295 53.434C16.3272 52.879 16.4032 52.3345 16.4598 51.8375C16.5535 51.3395 16.6344 50.886 16.7144 50.504C16.9163 49.7513 17.049 49.2595 17.049 49.2595C17.049 49.2595 17.0802 49.7637 17.129 50.534C17.1787 50.9119 17.2372 51.354 17.3016 51.8323C17.4011 52.3034 17.4889 52.8055 17.6186 53.3025C17.7659 53.7963 17.8781 54.2943 18.0595 54.7509C18.1405 54.9807 18.2205 55.2034 18.2966 55.4187C18.3756 55.632 18.4731 55.8287 18.5511 56.0171C18.7101 56.393 18.8486 56.7201 18.9813 56.9665C19.1052 57.2171 19.1891 57.4004 19.2203 57.4935Z" fill="#8D664A"/>
<path d="M18.4575 57.1736C18.5804 57.5236 18.598 57.8787 18.5658 58.1603C18.5355 58.4409 18.4234 58.6655 18.2341 58.7545C18.0449 58.8436 17.8098 58.7763 17.5825 58.5889C17.3572 58.4005 17.1699 58.0774 17.0353 57.6923C16.8949 57.3092 16.89 56.921 16.9544 56.6269C17.0178 56.3319 17.1602 56.1279 17.3611 56.0741C17.5621 56.0192 17.7845 56.1217 17.9776 56.3225C18.1717 56.5224 18.3278 56.8247 18.4575 57.1736Z" fill="#B48A6F"/>
<path d="M15.2259 55.0905C15.2464 55.3669 15.1566 55.632 14.944 55.8649C14.7362 56.0948 14.43 56.2863 14.07 56.366C13.7101 56.4457 13.3648 56.3898 13.0936 56.218C12.8283 56.0482 12.6127 55.7645 12.5854 55.4208C12.5776 55.2489 12.5805 54.7157 12.7044 54.0334C12.7327 53.8626 12.7561 53.6824 12.7971 53.4971C12.841 53.3128 12.8868 53.1234 12.9327 52.9277C13.0156 52.5394 13.1599 52.146 13.2799 51.764C13.4126 51.383 13.5726 51.0196 13.7091 50.6862C13.8701 50.3591 14.0144 50.0609 14.1442 49.8124C14.429 49.333 14.6153 49.0193 14.6153 49.0193C14.6153 49.0193 14.586 49.3837 14.5421 49.9387C14.5382 50.213 14.5333 50.534 14.5285 50.8809C14.549 51.2277 14.5577 51.5931 14.5948 51.9576C14.6455 52.3251 14.6699 52.6875 14.745 53.0312C14.7762 53.201 14.8065 53.3667 14.8367 53.5271C14.8679 53.6855 14.9118 53.8367 14.945 53.9786C15.0698 54.5459 15.222 54.9507 15.2259 55.0905Z" fill="#8D664A"/>
<path d="M14.5763 54.7551C14.6026 55.016 14.5324 55.2624 14.4251 55.457C14.3187 55.6496 14.15 55.7914 13.9461 55.8266C13.7413 55.8629 13.5374 55.7811 13.3726 55.6124C13.2097 55.4436 13.1082 55.1847 13.079 54.8886C13.0458 54.5935 13.1287 54.3192 13.2594 54.1246C13.3911 53.9289 13.5755 53.8119 13.7832 53.8109C13.991 53.8088 14.1812 53.9185 14.3217 54.0904C14.4612 54.2612 14.5441 54.4942 14.5763 54.7551Z" fill="#B48A6F"/>
<path d="M43.048 56.6135C42.9369 56.8123 42.8442 57.0111 42.7837 57.2119C42.7262 57.4148 42.7027 57.6219 42.7135 57.8248C42.734 58.2255 42.8832 58.6034 43.171 58.8457C43.4577 59.089 43.8323 59.1449 44.2137 59.0258C44.4049 58.9658 44.598 58.8633 44.7785 58.7214C44.9618 58.5806 45.1335 58.4005 45.2613 58.1758C45.3276 58.0651 45.4457 57.8269 45.5998 57.4987C45.6729 57.333 45.7685 57.1519 45.8475 56.9386C45.9265 56.7264 46.0124 56.4945 46.1041 56.248C46.1919 56.0016 46.2953 55.7469 46.3782 55.4695C46.4582 55.193 46.5411 54.9052 46.6249 54.6111C46.8083 54.0324 46.9137 53.3978 47.0483 52.7921C47.1644 52.1792 47.2326 51.5663 47.3117 51.0072C47.3526 50.4377 47.3936 49.918 47.417 49.4769C47.4189 48.5938 47.4199 48.015 47.4199 48.015C47.4199 48.015 47.257 48.5617 47.0093 49.3952C46.861 49.7989 46.6864 50.271 46.4981 50.7815C46.2748 51.2763 46.0553 51.8085 45.7939 52.3262C45.5149 52.8356 45.271 53.3615 44.9648 53.8263C44.8224 54.0614 44.6819 54.2902 44.5463 54.5107C44.4098 54.7302 44.2586 54.9259 44.1288 55.1185C43.9971 55.309 43.8733 55.487 43.7601 55.6516C43.6499 55.8163 43.5289 55.9519 43.4343 56.0793C43.2412 56.3308 43.1066 56.5162 43.048 56.6135Z" fill="#8D664A"/>
<path d="M43.9026 56.4054C43.6831 56.7657 43.568 57.1477 43.5221 57.4603C43.4753 57.7709 43.527 58.0319 43.6948 58.1623C43.8626 58.2918 44.1162 58.2628 44.3951 58.1033C44.6722 57.9449 44.9443 57.6332 45.1813 57.245C45.4233 56.8609 45.5315 56.4447 45.5471 56.1123C45.5627 55.779 45.4769 55.5284 45.2925 55.4259C45.1092 55.3245 44.8614 55.3907 44.6146 55.5708C44.3678 55.751 44.1279 56.0502 43.9026 56.4054Z" fill="#B48A6F"/>
<path d="M46.7381 56.4209C46.4162 57.0866 46.6299 57.9366 47.26 58.3466C47.8804 58.7525 48.7319 58.475 49.1075 57.7006C49.1884 57.5038 49.4167 56.8847 49.601 56.0368C49.6488 55.8256 49.7064 55.6061 49.7493 55.3711C49.7893 55.1371 49.8312 54.8938 49.8741 54.6453C49.9697 54.1535 50.0097 53.6255 50.0692 53.1161C50.117 52.6047 50.1326 52.0974 50.157 51.6325C50.1541 51.1666 50.1521 50.7369 50.1502 50.3694C50.1063 49.6436 50.077 49.1673 50.077 49.1673C50.077 49.1673 49.9434 49.6177 49.7395 50.3052C49.6215 50.6385 49.482 51.0299 49.3328 51.4523C49.1592 51.8654 48.9875 52.3086 48.7875 52.7434C48.5749 53.1741 48.3866 53.6131 48.1574 54.0117C48.0501 54.2115 47.9438 54.4072 47.8433 54.5946C47.7409 54.7809 47.6277 54.9528 47.5312 55.1185C47.1498 55.7842 46.8084 56.247 46.7381 56.4209Z" fill="#8D664A"/>
<path d="M47.5165 56.2211C47.3692 56.5348 47.3205 56.8641 47.3341 57.1353C47.3478 57.4066 47.4443 57.6313 47.6258 57.7369C47.8082 57.8445 48.0403 57.8103 48.2735 57.6633C48.5046 57.5163 48.7143 57.245 48.8724 56.9075C49.0353 56.57 49.0782 56.2159 49.0431 55.9343C49.008 55.6517 48.888 55.4394 48.6958 55.3566C48.5037 55.2748 48.2754 55.3349 48.0657 55.4933C47.855 55.6507 47.6677 55.9085 47.5165 56.2211Z" fill="#B48A6F"/>
<path d="M50.2652 57.4935C50.2067 57.684 50.1667 57.8714 50.1609 58.0578C50.155 58.2452 50.1833 58.4305 50.2409 58.6065C50.356 58.9585 50.5871 59.2732 50.9159 59.4472C51.2446 59.6201 51.6123 59.6128 51.9479 59.4441C52.1147 59.3592 52.2737 59.236 52.4141 59.0776C52.5565 58.9202 52.6775 58.7297 52.7467 58.5051C52.7848 58.3953 52.8423 58.1624 52.9106 57.8414C52.9896 57.5246 53.0452 57.1094 53.0989 56.6414C53.1242 56.4064 53.1623 56.1621 53.1779 55.9033C53.1896 55.6455 53.2003 55.3763 53.212 55.1029C53.251 54.5604 53.2042 53.9858 53.1906 53.434C53.1584 52.879 53.0823 52.3345 53.0257 51.8375C52.9321 51.3395 52.8501 50.886 52.7711 50.504C52.5682 49.7513 52.4356 49.2595 52.4356 49.2595C52.4356 49.2595 52.4044 49.7637 52.3566 50.534C52.3058 50.9119 52.2473 51.354 52.1839 51.8323C52.0834 52.3034 51.9957 52.8055 51.8669 53.3025C51.7196 53.7963 51.6074 54.2943 51.426 54.7509C51.3441 54.9807 51.2651 55.2034 51.188 55.4187C51.11 55.632 51.0124 55.8287 50.9344 56.0171C50.7744 56.393 50.6369 56.7201 50.5042 56.9665C50.3803 57.2171 50.2974 57.4004 50.2652 57.4935Z" fill="#8D664A"/>
<path d="M51.029 57.1736C50.9061 57.5236 50.8886 57.8787 50.9208 58.1603C50.95 58.4409 51.0622 58.6655 51.2514 58.7545C51.4416 58.8436 51.6757 58.7763 51.903 58.5889C52.1293 58.4005 52.3166 58.0774 52.4502 57.6923C52.5917 57.3092 52.5956 56.921 52.5322 56.6269C52.4678 56.3319 52.3254 56.1279 52.1244 56.0741C51.9235 56.0192 51.7021 56.1217 51.5089 56.3225C51.3139 56.5224 51.1578 56.8247 51.029 57.1736Z" fill="#B48A6F"/>
<path d="M54.2596 55.0905C54.2401 55.3669 54.3289 55.632 54.5425 55.8649C54.7503 56.0948 55.0556 56.2863 55.4155 56.366C55.7755 56.4457 56.1217 56.3898 56.3929 56.218C56.6582 56.0482 56.8728 55.7645 56.9011 55.4208C56.9089 55.2489 56.906 54.7157 56.7821 54.0334C56.7528 53.8626 56.7294 53.6824 56.6885 53.4971C56.6455 53.3128 56.5997 53.1234 56.5529 52.9277C56.47 52.5394 56.3256 52.146 56.2056 51.764C56.073 51.383 55.914 51.0196 55.7774 50.6862C55.6165 50.3591 55.4711 50.0609 55.3414 49.8124C55.0575 49.333 54.8712 49.0193 54.8712 49.0193C54.8712 49.0193 54.8995 49.3837 54.9444 49.9387C54.9483 50.213 54.9522 50.534 54.9571 50.8809C54.9376 51.2277 54.9278 51.5931 54.8907 51.9576C54.841 52.3251 54.8156 52.6875 54.7405 53.0312C54.7093 53.201 54.6791 53.3667 54.6488 53.5271C54.6186 53.6855 54.5737 53.8367 54.5415 53.9786C54.4147 54.5459 54.2635 54.9507 54.2596 55.0905Z" fill="#8D664A"/>
<path d="M54.9093 54.7551C54.8839 55.016 54.9532 55.2624 55.0615 55.457C55.1678 55.6496 55.3356 55.7914 55.5404 55.8266C55.7452 55.8629 55.9491 55.7811 56.113 55.6124C56.2768 55.4436 56.3773 55.1847 56.4066 54.8886C56.4407 54.5935 56.3578 54.3192 56.2261 54.1246C56.0954 53.9289 55.9101 53.8119 55.7023 53.8109C55.4955 53.8088 55.3053 53.9185 55.1639 54.0904C55.0244 54.2612 54.9405 54.4942 54.9093 54.7551Z" fill="#B48A6F"/>
<path d="M22.5445 31.0572C22.0627 31.0572 21.6705 30.6421 21.6705 30.1296C21.6705 29.6181 22.0617 29.2019 22.5445 29.2019C25.264 29.2019 27.4763 26.8538 27.4763 23.9683C27.4763 23.4558 27.8674 23.0407 28.3503 23.0407C28.8331 23.0407 29.2243 23.4548 29.2243 23.9683C29.2223 27.8767 26.2268 31.0572 22.5445 31.0572Z" fill="#DD803A"/>
<path d="M46.5332 31.0572C46.0514 31.0572 45.6593 30.6421 45.6593 30.1296C45.6593 29.6181 46.0504 29.2019 46.5332 29.2019C49.2518 29.2019 51.465 26.8538 51.465 23.9683C51.465 23.4558 51.8552 23.0407 52.339 23.0407C52.8209 23.0407 53.213 23.4548 53.213 23.9683C53.212 27.8767 50.2165 31.0572 46.5332 31.0572Z" fill="#DD803A"/>
<path d="M17.0675 24.1755C17.0499 24.1755 17.0334 24.1744 17.0158 24.1734C16.6549 24.1444 16.3857 23.8089 16.413 23.4259C16.5866 21.055 18.1171 18.918 20.223 18.1063C20.5634 17.9769 20.939 18.1612 21.0629 18.5225C21.1858 18.8838 21.0102 19.2825 20.6698 19.4129C19.0642 20.0321 17.8508 21.7248 17.7201 23.5325C17.6937 23.898 17.406 24.1755 17.0675 24.1755Z" fill="white"/>
<path d="M41.262 24.1755C41.2445 24.1755 41.2279 24.1744 41.2103 24.1734C40.8504 24.1444 40.5802 23.8089 40.6085 23.4259C40.7811 21.055 42.3126 18.918 44.4185 18.1063C44.7589 17.9769 45.1335 18.1612 45.2574 18.5225C45.3813 18.8838 45.2047 19.2825 44.8653 19.4129C43.2597 20.0321 42.0463 21.7248 41.9146 23.5325C41.8883 23.898 41.6015 24.1755 41.262 24.1755Z" fill="white"/>
<path d="M44.9921 23.2416C45.3703 23.2416 45.6768 22.9161 45.6768 22.5147C45.6768 22.1133 45.3703 21.788 44.9921 21.788C44.6139 21.788 44.3073 22.1133 44.3073 22.5147C44.3073 22.9161 44.6139 23.2416 44.9921 23.2416Z" fill="white"/>
<path d="M48.0325 26.1498C48.2452 26.1498 48.4177 25.9668 48.4177 25.7409C48.4177 25.515 48.2452 25.3319 48.0325 25.3319C47.8197 25.3319 47.6472 25.515 47.6472 25.7409C47.6472 25.9668 47.8197 26.1498 48.0325 26.1498Z" fill="white"/>
<path d="M21.1575 23.2416C21.5357 23.2416 21.8422 22.9161 21.8422 22.5147C21.8422 22.1133 21.5357 21.788 21.1575 21.788C20.7793 21.788 20.4727 22.1133 20.4727 22.5147C20.4727 22.9161 20.7793 23.2416 21.1575 23.2416Z" fill="white"/>
<path d="M24.1969 26.1498C24.4097 26.1498 24.5822 25.9668 24.5822 25.7409C24.5822 25.515 24.4097 25.3319 24.1969 25.3319C23.9841 25.3319 23.8116 25.515 23.8116 25.7409C23.8116 25.9668 23.9841 26.1498 24.1969 26.1498Z" fill="white"/>
</svg>
