<svg width="79" height="68" viewBox="0 0 79 68" fill="none" xmlns="http://www.w3.org/2000/svg">
<path opacity="0.66" d="M9.89151 39.2262C9.86912 40.5863 9.96377 41.9363 10.1775 43.2681L6.3086 44.2657L6.21296 44.295C3.65679 45.0735 2.18333 47.6978 2.85799 50.2746C3.36678 52.2073 4.96643 53.5775 6.83267 53.9016C6.20483 54.564 5.77339 55.3879 5.58616 56.3017C5.32159 57.5962 5.58003 58.917 6.31575 60.0176C7.52769 61.8351 9.83964 62.658 11.9389 62.0168C12.293 61.9098 12.6329 61.7634 12.9514 61.5827C12.812 62.0714 12.7489 62.5863 12.7682 63.1114C12.8161 64.4321 13.3808 65.6559 14.3526 66.5526C15.6541 67.7551 17.5183 68.1802 19.2177 67.6632C20.0542 67.4088 20.8112 66.9373 21.4055 66.3022L25.5888 61.8391C32.1095 64.4927 39.6986 64.7896 46.8838 62.6005C54.0699 60.4114 60.1825 55.9382 64.0778 50.1111L70.0623 51.4742C70.915 51.6691 71.8084 51.6378 72.6449 51.3833C74.3453 50.8643 75.6468 49.4739 76.0427 47.7574C76.3408 46.47 76.1159 45.1432 75.4086 44.0234C75.1288 43.5801 74.7859 43.1884 74.3931 42.8602C74.7605 42.833 75.1248 42.7632 75.4759 42.6572C77.5761 42.017 79.0241 40.0481 78.9997 37.8711C78.9854 36.5493 78.4533 35.3125 77.5008 34.3885C76.8302 33.7363 76.006 33.294 75.1126 33.0961C76.4731 31.7885 77.0235 29.7619 76.3499 27.8768C75.4524 25.3726 72.7497 24.0216 70.1946 24.7991L70.0633 24.8405L66.3308 26.1572C65.7549 24.9364 65.07 23.7661 64.2814 22.6524C66.3165 13.0832 62.3652 4.9306 61.8758 3.97135C60.7748 1.82062 58.2878 0.77255 55.9636 1.48138C48.3816 3.79064 43.4871 7.9487 40.4842 11.5413C37.4701 11.61 34.4672 12.0957 31.5284 12.9913C28.5896 13.8869 25.8289 15.1582 23.2972 16.7798C18.7801 15.4783 12.3765 14.7624 4.79546 17.0726C2.4713 17.7815 1.00501 20.0332 1.3113 22.4303C1.45275 23.4935 2.79387 32.4408 9.89151 39.2262Z" fill="#075C54"/>
<path d="M5.56174 52.6404C4.93389 53.3028 4.5024 54.1268 4.31516 55.0406C4.05059 56.3351 4.30903 57.6558 5.04475 58.7564C6.25669 60.5739 8.56864 61.3968 10.6679 60.7556C11.022 60.6486 11.362 60.5022 11.6805 60.3215C11.5411 60.8102 11.4779 61.3252 11.4972 61.8502C11.5451 63.171 12.1098 64.3947 13.0816 65.2914C14.3831 66.4939 16.2473 66.9191 17.9467 66.4021C18.7832 66.1476 19.5403 65.6761 20.1345 65.041L24.3178 60.578C30.8385 63.2315 38.4276 63.5284 45.6128 61.3393C52.7989 59.1502 58.9116 54.6771 62.8069 48.8499L68.7913 50.213C69.644 50.4079 70.5375 50.3766 71.3739 50.1221C73.0743 49.6031 74.3758 48.2127 74.7716 46.4962C75.0698 45.2088 74.8449 43.882 74.1377 42.7622C73.8579 42.3189 73.5149 41.9272 73.1221 41.599C73.4895 41.5718 73.8538 41.5021 74.2048 41.3961C76.3051 40.7559 77.7532 38.7869 77.7288 36.6099C77.7145 35.2882 77.1823 34.0512 76.2298 33.1273C75.5592 32.4751 74.735 32.0328 73.8416 31.8349C75.2021 30.5273 75.7526 28.5008 75.079 26.6156C74.1814 24.1115 71.4787 22.7604 68.9236 23.5379L68.7923 23.5793L65.0598 24.896C64.4839 23.6753 63.7991 22.505 63.0104 21.3912C65.0456 11.822 61.0943 3.66943 60.6049 2.71018C59.5038 0.559454 57.0169 -0.488651 54.6927 0.220181C47.1107 2.52944 42.2161 6.68753 39.2132 10.2802C36.1991 10.3488 33.1962 10.8345 30.2575 11.7301C27.3187 12.6258 24.558 13.897 22.0262 15.5186C17.5092 14.2171 11.1055 13.5012 3.52452 15.8115C1.20036 16.5203 -0.265989 18.772 0.0403035 21.1691C0.17666 22.2344 1.51784 31.1806 8.61548 37.967C8.5931 39.3271 8.68774 40.6771 8.90143 42.009L5.03257 43.0066L4.93693 43.0358C2.38076 43.8143 0.9073 46.4386 1.58196 49.0155C2.09482 50.9461 3.69549 52.3153 5.56174 52.6404Z" fill="white"/>
<path d="M27.163 23.2814C27.163 23.2814 18.1869 16.5202 4.99288 20.5409C4.99288 20.5409 6.6607 33.5261 18.2693 38.4849L27.163 23.2814Z" fill="#C7E1F5"/>
<path d="M16.9332 33.8088C12.3521 30.7786 10.1938 26.15 9.21993 23.1168C15.0487 22.104 19.6278 23.4066 22.3274 24.588L16.9332 33.8088Z" fill="#7EAECE"/>
<path d="M18.5278 39.321C18.3344 39.3805 18.1208 39.3734 17.9213 39.2886C5.98813 34.1905 4.19003 21.2023 4.1188 20.652C4.06487 20.23 4.32535 19.8311 4.73442 19.7059C18.2052 15.6013 27.3126 22.2979 27.6942 22.5857C28.0483 22.8532 28.146 23.3389 27.9241 23.7206L19.0305 38.9251C18.9155 39.121 18.7323 39.2594 18.5278 39.321ZM5.99621 21.1599C6.54164 23.8347 9.03982 33.1565 17.907 37.3641L25.9846 23.554C23.7999 22.2161 16.2433 18.3276 5.99621 21.1599Z" fill="#111D32"/>
<path d="M39.3608 19.5657C39.3608 19.5657 42.965 8.97162 56.159 4.94986C56.159 4.94986 62.1231 16.6264 55.3215 27.1952L39.3608 19.5657Z" fill="#C7E1F5"/>
<path d="M44.0996 17.9521C45.6667 15.4701 48.7195 11.8432 54.1178 9.43497C55.0285 12.4844 55.8609 17.5189 53.7819 22.5807L44.0996 17.9521Z" fill="#7EAECE"/>
<path d="M55.579 28.0311C55.3734 28.0938 55.1445 28.0817 54.9379 27.9827L38.9771 20.3522C38.5762 20.1613 38.3829 19.7029 38.5253 19.2849C38.678 18.8355 42.4298 8.21922 55.9006 4.11466C56.3097 3.99047 56.7503 4.17624 56.9446 4.5559C57.197 5.05067 63.0542 16.8029 56.0624 27.6666C55.9454 27.8464 55.7723 27.9716 55.579 28.0311ZM40.4872 19.1334L54.9857 26.0652C59.9444 17.644 56.7391 8.53829 55.6787 6.02002C45.565 9.39253 41.5302 16.809 40.4872 19.1334Z" fill="#111D32"/>
<path d="M44.0838 56.6251C57.0768 52.6665 64.8288 40.4703 61.3985 29.3841C57.9681 18.2979 44.6543 12.5198 31.6613 16.4784C18.6683 20.437 10.9162 32.6332 14.3466 43.7194C17.777 54.8056 31.0908 60.5837 44.0838 56.6251Z" fill="#C7E1F5"/>
<path d="M44.408 57.4416C30.9708 61.5361 17.1367 55.4868 13.5681 43.9576C10.0004 32.4285 18.0302 19.718 31.4653 15.6235C44.9025 11.5281 58.7376 17.5784 62.3053 29.1075C65.8739 40.6376 57.8462 53.3481 44.408 57.4416ZM31.9833 17.2946C19.4761 21.1054 11.9695 32.8384 15.2532 43.4457C18.5369 54.0529 31.3839 59.5832 43.893 55.7725C56.4022 51.9608 63.9069 40.2287 60.6232 29.6215C57.3394 19.0132 44.4914 13.4829 31.9833 17.2946Z" fill="#111D32"/>
<path d="M46.4492 47.2352C44.0426 47.9683 42.1052 47.0212 40.8047 45.7984C40.4068 47.5917 39.2712 49.5243 36.7079 50.1978C31.8235 51.4882 30.4294 48.5499 30.3724 48.4247C30.174 47.9845 30.3704 47.4675 30.8141 47.2686C31.2598 47.0737 31.7788 47.2676 31.9792 47.7089C32.0067 47.7624 32.8818 49.4011 36.2561 48.5095C36.313 48.4944 36.369 48.4782 36.425 48.4621C39.6721 47.4726 39.2091 43.6709 39.1888 43.5074C39.1318 43.0843 39.3923 42.6844 39.8034 42.5592C40.2145 42.434 40.6551 42.6218 40.8474 43.0014C40.9237 43.1489 42.7758 46.6718 46.1043 45.5076C49.4277 44.3575 49.1947 42.4824 49.1906 42.4622C49.1062 41.9867 49.4358 41.5353 49.9049 41.4515C50.3842 41.3677 50.8401 41.6848 50.9246 42.1604C50.948 42.2967 51.4568 45.5056 46.6843 47.1575C46.606 47.1858 46.5266 47.212 46.4492 47.2352Z" fill="#111D32"/>
<path d="M29.7904 38.6132C31.2105 38.6132 32.3618 37.4708 32.3618 36.0616C32.3618 34.6524 31.2105 33.51 29.7904 33.51C28.3702 33.51 27.2189 34.6524 27.2189 36.0616C27.2189 37.4708 28.3702 38.6132 29.7904 38.6132Z" fill="#111D32"/>
<path d="M44.4131 34.1573C45.8332 34.1573 46.9845 33.0149 46.9845 31.6057C46.9845 30.1965 45.8332 29.0541 44.4131 29.0541C42.9929 29.0541 41.8416 30.1965 41.8416 31.6057C41.8416 33.0149 42.9929 34.1573 44.4131 34.1573Z" fill="#111D32"/>
<path d="M38.5396 38.4758C38.5396 38.4758 34.6545 39.5521 35.4197 42.025C35.9885 43.8617 38.4643 44.3413 39.7006 44.4665C40.1657 44.513 40.6073 44.3787 40.9665 44.0808C41.919 43.2882 43.6977 41.513 43.1289 39.6753C42.3637 37.2035 38.5396 38.4758 38.5396 38.4758Z" fill="#111D32"/>
<path d="M22.5106 44.512C22.4984 44.516 22.4872 44.519 22.474 44.5231L6.6353 48.6095C6.16518 48.7306 5.68489 48.4509 5.56176 47.9844C5.43965 47.5169 5.69706 47.0434 6.1916 46.9182L22.0303 42.8318C22.5004 42.7106 22.9818 42.9903 23.1049 43.4578C23.2239 43.9112 22.9593 44.3747 22.5106 44.512Z" fill="#111D32"/>
<path d="M9.46316 56.8589C9.09988 56.969 8.6908 56.8367 8.46998 56.5055C8.20134 56.1037 8.31224 55.5604 8.71724 55.2949L23.112 45.8336C23.517 45.5671 24.0645 45.6772 24.3321 46.079C24.5997 46.4809 24.4898 47.0231 24.0848 47.2887L9.69004 56.7509C9.61779 56.7993 9.54151 56.8347 9.46316 56.8589Z" fill="#111D32"/>
<path d="M16.7419 62.5042C16.4509 62.5931 16.1221 62.5295 15.883 62.3093C15.5268 61.9802 15.5066 61.4279 15.8383 61.0745L26.5127 49.6877C26.8434 49.3333 27.401 49.3131 27.7572 49.6423C28.1133 49.9704 28.1327 50.5238 27.802 50.8772L17.1275 62.2639C17.0176 62.38 16.8854 62.4608 16.7419 62.5042Z" fill="#111D32"/>
<path d="M55.2177 34.546C54.77 34.6823 54.2887 34.445 54.131 34.0037C53.9682 33.5483 54.2072 33.0495 54.6652 32.8879L70.0846 27.4485C70.5619 27.2769 71.0463 27.5253 71.2091 27.9786C71.3709 28.434 71.1318 28.9328 70.6738 29.0944L55.2544 34.5338C55.2422 34.5379 55.23 34.5419 55.2177 34.546Z" fill="#111D32"/>
<path d="M73.0011 37.4984C72.9227 37.5216 72.8382 37.5358 72.7517 37.5358L55.4864 37.7226C54.9989 37.7276 54.6021 37.3409 54.596 36.8592C54.5909 36.3766 54.9817 35.9818 55.467 35.9767L72.7324 35.7899C73.2188 35.7849 73.6167 36.1716 73.6218 36.6533C73.6268 37.0491 73.3643 37.3873 73.0011 37.4984Z" fill="#111D32"/>
<path d="M70.1701 46.2246C70.0266 46.268 69.871 46.276 69.7153 46.2407L54.4393 42.7602C53.9651 42.6532 53.669 42.1846 53.7779 41.7141C53.8868 41.2436 54.36 40.9498 54.8331 41.0588L70.1091 44.5383C70.5833 44.6454 70.8784 45.1149 70.7695 45.5844C70.6963 45.8995 70.4601 46.1357 70.1701 46.2246Z" fill="#111D32"/>
</svg>
