<svg width="15" height="15" viewBox="0 0 15 15" fill="none" xmlns="http://www.w3.org/2000/svg">
<path d="M14.7465 8.76954C14.7188 8.15749 14.349 7.61481 14.082 7.22004L14.0255 7.13843C13.9331 6.9997 13.816 6.84567 13.6383 6.71306C13.5623 6.64165 13.4832 6.57841 13.4 6.52333C12.9728 6.24586 12.5476 5.97044 12.146 5.71134C12.182 5.29209 12.2303 4.87691 12.2744 4.50254C12.2878 4.39951 12.298 4.29546 12.3093 4.19141C12.334 3.96189 12.3597 3.72523 12.3977 3.51306C12.409 3.45287 12.4171 3.39371 12.4202 3.33557C12.4562 2.91529 12.336 2.494 12.0526 2.05026L12.0135 1.98804C11.8482 1.72792 11.6767 1.45862 11.4517 1.16483C11.3696 1.05772 11.2669 0.972034 11.1498 0.902668C11.12 0.881247 11.0882 0.859828 11.0574 0.840446C10.4925 0.488518 9.79099 0.489536 9.22714 0.844524C8.28432 1.43719 7.2881 2.00436 6.70987 2.32671C5.82251 1.96254 5.0009 1.64835 4.20288 1.36987C3.55893 1.14545 2.84304 1.31988 2.37779 1.81462C1.91254 2.30834 1.78625 3.02852 2.05533 3.64975L2.07583 3.69769C2.44557 4.55252 2.82662 5.43489 3.27852 6.17445C2.75575 6.80486 2.03682 7.68826 1.35281 8.58287C1.02313 9.01436 0.919416 9.57337 1.07142 10.0875C1.08477 10.1446 1.10119 10.2028 1.12276 10.265C1.31481 10.8383 1.75231 11.584 2.40756 11.9593C2.81941 12.195 3.26931 12.2613 3.70785 12.1501C4.48738 11.9532 5.23913 11.7482 5.90568 11.5676C5.98476 11.5462 6.06078 11.5258 6.1378 11.5044C6.16759 11.5839 6.20046 11.6635 6.23127 11.7441C6.39457 12.1685 6.56508 12.6071 6.73865 13.0406C6.78384 13.1508 6.83926 13.2569 6.90602 13.3569C6.9471 13.4374 6.98821 13.4987 7.01183 13.5344C7.04264 13.5803 7.08165 13.6486 7.12479 13.7231C7.36306 14.1362 7.72457 14.7605 8.46815 14.9472C9.34935 15.1695 10.2553 14.6707 10.5305 13.8128L10.6804 13.3456C10.9526 12.503 11.2309 11.6339 11.4199 10.9403C11.9201 10.8128 12.411 10.7087 12.8876 10.6077L12.903 10.6047C13.0652 10.57 13.2275 10.5363 13.3918 10.4996C14.1991 10.3242 14.7835 9.58051 14.7465 8.76954Z" fill="#CADBE3"/>
<path d="M13.7441 8.19114C13.7164 7.57909 13.3467 7.03742 13.0796 6.64163L13.0231 6.56002C12.9307 6.42231 12.8126 6.26726 12.6359 6.13465C12.5599 6.06324 12.4809 6 12.3977 5.94594C11.9704 5.66847 11.5452 5.39305 11.1436 5.13293C11.1796 4.71368 11.2279 4.2985 11.272 3.92515C11.2854 3.8211 11.2956 3.71706 11.3069 3.61403C11.3316 3.38451 11.3573 3.14785 11.3953 2.93568C11.4066 2.87549 11.4147 2.8153 11.4178 2.75818C11.4538 2.33688 11.3336 1.91661 11.0502 1.47287L11.0111 1.41065C10.8458 1.15053 10.6743 0.882249 10.4493 0.587445C10.3672 0.480337 10.2645 0.394646 10.1474 0.32528C10.1176 0.303859 10.0858 0.28244 10.055 0.263058C9.49011 -0.0888701 8.78859 -0.0878523 8.22474 0.267136C7.28192 0.859804 6.2857 1.42697 5.70747 1.74932C4.82011 1.38515 3.9985 1.07096 3.20048 0.792478C2.55653 0.56806 1.8407 0.742499 1.37545 1.23724C0.910202 1.73096 0.783849 2.45215 1.05293 3.07338L1.0735 3.12133C1.44323 3.97616 1.82422 4.85853 2.27612 5.59809C1.75336 6.22748 1.03443 7.11087 0.350415 8.00651C0.0207347 8.43698 -0.0840101 8.99599 0.0690193 9.51113C0.0823709 9.56723 0.098791 9.62639 0.120359 9.68862C0.312416 10.2619 0.749975 11.0076 1.40523 11.383C1.81707 11.6186 2.26691 11.6849 2.70546 11.5737C3.48498 11.3769 4.23679 11.1718 4.90334 10.9913C4.98242 10.9698 5.05838 10.9484 5.1354 10.928C5.16519 11.0076 5.19806 11.0872 5.22887 11.1677C5.39217 11.5921 5.56268 12.0307 5.73625 12.4643C5.78041 12.5744 5.83692 12.6805 5.90368 12.7805C5.94476 12.8611 5.98581 12.9223 6.00943 12.958C6.04024 13.0039 6.07928 13.0722 6.12139 13.1467C6.36069 13.5598 6.72223 14.1841 7.46581 14.3708C8.34701 14.5932 9.25286 14.0944 9.5281 13.2365L9.67805 12.7693C9.94919 11.9267 10.2285 11.0576 10.4175 10.3639C10.9177 10.2364 11.4086 10.1324 11.8852 10.0314L11.9006 10.0283C12.0628 9.99362 12.2251 9.95996 12.3895 9.92324C13.1957 9.74575 13.7811 9.00211 13.7441 8.19114Z" fill="white"/>
<path d="M12.1685 8.94602C12.4848 8.87768 12.7529 8.56859 12.7385 8.23605C12.7211 7.87086 12.3863 7.4108 12.186 7.11396C12.1336 7.03643 12.0781 6.95788 11.997 6.90994C11.9313 6.87117 11.8553 6.85587 11.7803 6.84363C11.5523 6.80691 11.3212 6.79671 11.0911 6.81405C10.8539 6.66103 10.6259 6.51414 10.4123 6.37541C10.1997 6.23872 10.0774 5.999 10.0908 5.74704C10.1216 5.09827 10.1966 4.45154 10.2726 3.80787C10.3147 3.46002 10.3425 3.10605 10.4051 2.76228C10.4102 2.73168 10.4143 2.70311 10.4164 2.67659C10.4359 2.45523 10.3393 2.22674 10.2007 2.00946C10.0251 1.73302 9.86383 1.47596 9.64918 1.19442C9.37804 1.41986 9.04834 1.74322 8.87683 2.05026C8.73612 2.3012 8.59853 2.44198 8.34588 2.59499C7.78306 2.9357 7.20891 3.25906 6.63274 3.57733C6.44274 3.68342 6.21577 3.69565 6.01447 3.61303C5.22878 3.28864 4.3568 2.94691 3.4263 2.62151C2.84192 2.41749 2.29142 2.99996 2.53585 3.56509C2.92613 4.46786 3.32873 5.40531 3.79295 6.12141C3.96139 6.38153 3.94397 6.71816 3.74575 6.95686C3.60196 7.12823 3.49205 7.31389 3.36161 7.48934C3.22296 7.67602 2.97854 7.79435 2.7834 7.91472C2.31815 8.20238 1.83133 8.45434 1.363 8.73588C1.2223 8.82055 1.07236 8.92256 1.03641 9.08067C1.01484 9.1786 1.03951 9.27959 1.07032 9.37446C1.24492 9.89674 1.79125 10.774 2.45267 10.6067C3.50847 10.3395 4.52732 10.0559 5.31609 9.84369C5.66323 9.75087 6.02473 9.92938 6.15928 10.2609C6.35339 10.7393 6.54853 11.2412 6.7447 11.7492C6.7447 11.8655 6.74677 11.9818 6.74677 12.0981C6.74779 12.1491 6.74881 12.2011 6.76319 12.2501C6.77962 12.3082 6.81148 12.3592 6.84537 12.4092C7.06413 12.7407 7.28696 13.2956 7.70805 13.4017C8.07265 13.4935 8.45065 13.2885 8.56465 12.9325C8.90255 11.8777 9.2712 10.7577 9.48174 9.94877C9.54645 9.70191 9.73753 9.50605 9.98505 9.44076C10.7451 9.24083 11.4486 9.10312 12.1685 8.94602Z" fill="#F27C88" stroke="#243645" stroke-width="0.1507" stroke-miterlimit="10" stroke-linecap="round" stroke-linejoin="round"/>
<path d="M9.84858 1.79116C9.72328 2.85511 9.57433 3.93028 9.52914 4.86365C9.51579 5.11561 9.63799 5.35431 9.85059 5.49202C10.4411 5.87353 11.1427 6.32645 11.8441 6.78242C12.371 7.12517 12.221 7.92899 11.6069 8.06262C10.8869 8.21972 10.1824 8.35743 9.42339 8.55736C9.17587 8.62163 8.98376 8.81749 8.92008 9.06435C8.71057 9.87429 8.34192 10.9943 8.00299 12.0481C7.80066 12.6795 6.91223 12.7101 6.66471 12.095C6.29703 11.1769 5.94886 10.2395 5.59761 9.37649C5.46307 9.04497 5.10157 8.86645 4.75443 8.95928C3.96463 9.17146 2.94681 9.45402 1.89101 9.7223C1.23884 9.88756 0.741787 9.14391 1.1485 8.61245C1.83045 7.71886 2.56988 6.80997 3.18302 6.07245C3.38124 5.83477 3.39872 5.49712 3.23029 5.237C2.76709 4.5209 2.36347 3.58345 1.97319 2.68068C1.72978 2.11453 2.27923 1.53308 2.86464 1.7371C3.79309 2.06148 4.66612 2.40423 5.45181 2.72862C5.65208 2.81124 5.88005 2.79798 6.07108 2.69291C6.59384 2.40321 7.71231 1.77382 8.76092 1.11281C9.26726 0.79454 9.9174 1.20053 9.84858 1.79116Z" fill="#F6CD6C" stroke="#243645" stroke-width="0.1507" stroke-miterlimit="10" stroke-linecap="round" stroke-linejoin="round"/>
</svg>
