<svg width="50" height="59" viewBox="0 0 50 59" fill="none" xmlns="http://www.w3.org/2000/svg">
<path d="M41.3233 1.02877C43.0208 1.02877 44.6592 1.21827 46.1958 1.59075C47.0586 1.79987 47.7343 2.44588 47.9602 3.27487C48.0019 3.4289 48.9723 7.10054 48.124 12.5991C47.7295 15.4231 47.0024 17.7121 46.4304 19.1974C46.5157 19.3766 46.5962 19.5587 46.6727 19.7398C46.6805 19.7585 46.6883 19.7781 46.6951 19.7967C47.4522 21.6181 47.7974 23.4693 47.7237 25.3009C47.618 27.9055 46.6631 30.3365 44.887 32.5275C43.1507 34.6709 40.7465 36.3662 37.935 37.4295C37.8371 37.4669 37.7392 37.5033 37.6404 37.5397C37.8003 37.8235 37.9709 38.1147 38.1483 38.4097C38.3064 38.6702 38.4576 38.9344 38.603 39.1995C39.2002 38.9213 39.8711 38.7748 40.5545 38.7748C41.65 38.7748 42.7222 39.1388 43.5773 39.7998C43.5802 39.8017 43.5822 39.8035 43.586 39.8063C44.7688 40.7287 45.4949 42.1607 45.5783 43.7347C45.5802 43.7394 45.5802 43.744 45.5802 43.7487C45.6355 44.9268 45.3456 46.1339 44.7164 47.3382C43.6752 49.3574 41.9001 50.9753 39.7547 51.892C39.1633 52.8666 38.3703 53.7152 37.4251 54.379C36.9365 54.7216 36.4266 55.0408 35.9011 55.333C34.6341 56.978 32.6272 57.975 30.508 57.975C30.3771 57.975 30.2453 57.9712 30.1145 57.9638C30.0311 57.9591 29.9486 57.9535 29.8662 57.946C29.2807 57.8975 28.7165 57.7649 28.1833 57.5511C27.812 57.5735 27.4407 57.5848 27.0752 57.5848C26.8231 57.5848 26.573 57.5792 26.3287 57.5689C25.9496 57.5521 25.5812 57.5437 25.2312 57.5437C24.9007 57.5437 24.575 57.5511 24.2647 57.5661C24.0001 57.5782 23.7276 57.5848 23.4552 57.5848C23.0907 57.5848 22.7213 57.5735 22.35 57.5511C21.8159 57.7649 21.2536 57.8975 20.668 57.946C20.5856 57.9535 20.5022 57.9591 20.4189 57.9638C20.3306 57.9684 20.2405 57.9722 20.1532 57.974C20.1106 57.975 20.0689 57.975 20.0253 57.975C17.906 57.975 15.9002 56.978 14.6322 55.333C14.1077 55.0408 13.5968 54.7216 13.1082 54.378C11.9458 53.5612 11.0083 52.4587 10.3985 51.1872C9.79748 49.9381 9.5241 48.548 9.60554 47.1692C9.60748 47.1263 9.61135 47.0824 9.61329 47.0385C9.81106 44.0652 10.7679 41.0816 12.385 38.4107C12.5013 38.2165 12.6137 38.0251 12.7243 37.8375C12.3452 37.7068 11.971 37.5705 11.5997 37.4295C8.78829 36.3662 6.38501 34.6709 4.64677 32.5275C3.51057 31.1253 2.70202 29.6064 2.24638 28.011C1.85763 26.6508 1.72287 25.2318 1.84502 23.7932C2.00498 21.9224 2.58083 20.3177 3.10531 19.1993C2.53236 17.714 1.80625 15.425 1.41071 12.5991C0.562431 7.10054 1.53381 3.42797 1.5755 3.27487C1.80041 2.44588 2.47712 1.79987 3.33897 1.59075C4.87556 1.21827 6.51492 1.02877 8.21147 1.02877C12.3559 1.02877 16.1833 2.13315 18.8755 3.17685C21.1954 2.64193 23.145 2.55511 24.16 2.55511C24.4266 2.55511 24.6321 2.56072 24.7659 2.56632C24.8987 2.56072 25.1052 2.55511 25.3718 2.55511C26.3481 2.55511 28.318 2.63633 30.6573 3.17685C33.3515 2.13315 37.1788 1.02877 41.3233 1.02877ZM41.3233 0C37.0906 0 33.1934 1.11558 30.5749 2.10234C28.2715 1.60383 26.3432 1.52728 25.3738 1.52728C25.113 1.52728 24.9065 1.53288 24.7679 1.53848C24.6292 1.53288 24.4237 1.52728 24.162 1.52728C23.1935 1.52728 21.2652 1.60476 18.9608 2.10234C16.3433 1.11558 12.4461 0 8.21342 0C6.42768 0 4.70103 0.199773 3.0801 0.592796C1.83919 0.893397 0.866822 1.82134 0.543023 3.01348C0.499397 3.17498 -0.523352 7.04173 0.354977 12.7419C0.735005 15.4436 1.40879 17.6701 1.95751 19.1638C1.47569 20.2728 0.939563 21.8664 0.781541 23.7083C0.648726 25.2673 0.797042 26.8067 1.21876 28.2827C1.71221 30.0088 2.58279 31.649 3.80625 33.1586C5.655 35.4392 8.20372 37.2419 11.18 38.3733C9.65209 41.0563 8.74467 44.0166 8.54981 46.9694C8.54593 47.0161 8.54301 47.0637 8.5401 47.1094C8.44898 48.6545 8.75632 50.2144 9.4301 51.6157C10.1155 53.0449 11.1712 54.2865 12.48 55.2051C12.9405 55.5281 13.4214 55.8334 13.9138 56.1154C15.3932 57.9246 17.6618 59 20.0263 59C20.0757 59 20.1251 58.9991 20.1745 58.9981C20.2763 58.9963 20.3811 58.9925 20.4838 58.9869C20.5769 58.9813 20.669 58.9748 20.7601 58.9673C21.368 58.916 21.9603 58.789 22.5236 58.5864C22.8357 58.6014 23.1489 58.6089 23.4552 58.6089C23.7461 58.6089 24.035 58.6023 24.3161 58.5883C24.6118 58.5752 24.9181 58.5678 25.2312 58.5678C25.5647 58.5678 25.9176 58.5762 26.2812 58.5911C26.541 58.6023 26.8076 58.6089 27.0742 58.6089C27.3825 58.6089 27.6957 58.6005 28.0088 58.5864C28.573 58.7881 29.1644 58.916 29.7722 58.9673C29.8653 58.9748 29.9573 58.9813 30.0485 58.9869C30.1997 58.9953 30.3548 59 30.5071 59C32.8716 59 35.1401 57.9255 36.6214 56.1154C37.1129 55.8344 37.5928 55.5291 38.0533 55.207C39.0305 54.5218 39.8507 53.676 40.4973 52.6911C42.7426 51.6511 44.5739 49.9222 45.6723 47.7928C46.3819 46.4317 46.7087 45.0538 46.6457 43.6992V43.6815C46.5448 41.8144 45.6762 40.1116 44.2579 39.0053L44.2472 38.9969C43.2031 38.1894 41.8914 37.7451 40.5535 37.7451C40.2617 37.7451 39.97 37.7665 39.683 37.8104C42.0911 36.6818 44.1609 35.0919 45.7285 33.1586C47.6441 30.7948 48.6737 28.1641 48.7881 25.3401C48.8696 23.3666 48.4992 21.3754 47.6897 19.4233C47.68 19.3991 47.6694 19.3757 47.6607 19.3524C47.6335 19.2889 47.6054 19.2245 47.5782 19.161C48.127 17.6683 48.8017 15.4427 49.1798 12.7429C50.0581 7.04265 49.0353 3.17592 48.9907 3.01442C48.6669 1.82228 47.6955 0.894337 46.4556 0.593736C44.8347 0.19978 43.108 0 41.3233 0Z" fill="#51332A"/>
<path d="M37.6956 50.1117C39.7683 49.5647 41.5773 48.1447 42.5342 46.287C42.9278 45.5336 43.1818 44.6981 43.142 43.8542C43.0984 43.0103 42.7329 42.1645 42.0504 41.6323C41.3679 41.1049 40.3568 40.9509 39.588 41.3541C38.5022 41.9208 38.2288 43.2885 38.1881 44.4787C38.1493 45.4916 38.1677 46.5951 37.6656 47.4586C37.7102 47.8087 37.7402 48.1588 37.7654 48.5144C37.7712 48.5574 37.7712 48.6059 37.776 48.6489C37.8042 49.1427 37.7799 49.6319 37.6956 50.1117Z" fill="#FEBC55"/>
<path d="M37.6956 50.6252C37.5637 50.6252 37.4358 50.5785 37.3369 50.4926C37.2021 50.375 37.1382 50.1985 37.1692 50.0249C37.2448 49.5955 37.27 49.1464 37.2419 48.6881C37.24 48.6619 37.238 48.6349 37.236 48.6078C37.236 48.5947 37.2351 48.5826 37.2342 48.5704C37.2332 48.563 37.2322 48.5555 37.2322 48.549C37.2021 48.1335 37.1721 47.8171 37.1343 47.5211C37.1207 47.4119 37.143 47.3027 37.1992 47.2065C37.5841 46.5437 37.6141 45.6503 37.6423 44.7849C37.6461 44.6748 37.65 44.5665 37.6539 44.4582C37.715 42.648 38.2802 41.4503 39.334 40.9004C40.252 40.4178 41.5075 40.5522 42.3839 41.2309C43.1488 41.8274 43.618 42.7731 43.6743 43.8271C43.715 44.6925 43.492 45.5971 43.0102 46.5176C41.9932 48.4911 40.0582 50.0202 37.8352 50.6074C37.7896 50.6196 37.7421 50.6252 37.6956 50.6252ZM38.2967 48.4696C38.2996 48.4967 38.3025 48.5256 38.3025 48.5536C38.3044 48.5658 38.3044 48.5788 38.3063 48.591C38.3063 48.5994 38.3073 48.6087 38.3083 48.618C38.3238 48.871 38.3257 49.1212 38.3131 49.3686C39.9234 48.7441 41.2903 47.5463 42.0572 46.0583C42.4556 45.2937 42.6418 44.5609 42.6088 43.8766C42.5681 43.1279 42.2346 42.437 41.714 42.031C41.1759 41.6146 40.3887 41.5184 39.8439 41.8041C39.1459 42.1682 38.7698 43.0728 38.7213 44.4936C38.7174 44.6029 38.7145 44.7093 38.7096 44.8167C38.6815 45.7045 38.6485 46.7043 38.2133 47.5557C38.2462 47.8227 38.2724 48.113 38.2967 48.4696Z" fill="#51332A"/>
<path d="M12.0505 47.1869C12.2279 44.5077 13.0917 41.9124 14.4946 39.5925C15.592 37.7796 16.957 35.1806 16.957 33.4853L25.2672 36.3812L33.5773 33.4853C33.5773 35.1815 34.9443 37.7796 36.0407 39.5925C37.4435 41.9124 38.3073 44.5086 38.4847 47.1869C38.4867 47.2261 38.4886 47.2644 38.4915 47.3027C38.6118 49.3238 37.6859 51.2861 35.9874 52.4783C32.2725 55.0847 28.3422 55.3013 26.4382 55.2191C25.6733 55.1855 24.9104 55.1799 24.1455 55.2173C22.2608 55.3059 18.2948 55.109 14.5459 52.4783C12.8503 51.287 11.9235 49.3201 12.0427 47.3018C12.0457 47.2635 12.0476 47.2252 12.0505 47.1869Z" fill="white"/>
<path d="M23.4407 55.7401C21.2439 55.7401 17.6617 55.291 14.2376 52.8872C12.4024 51.5998 11.3854 49.5003 11.5173 47.2719C11.5192 47.2336 11.5231 47.1944 11.525 47.1542C11.7034 44.4647 12.573 41.7621 14.0398 39.3368C15.5812 36.7882 16.4315 34.7092 16.4315 33.4844C16.4315 33.3191 16.5148 33.1642 16.6544 33.0689C16.795 32.9737 16.9744 32.9513 17.1372 33.0073L25.2681 35.8406L33.4009 33.0073C33.5618 32.9513 33.7421 32.9737 33.8827 33.0689C34.0233 33.1642 34.1066 33.3191 34.1066 33.4844C34.1066 34.7092 34.9549 36.7882 36.4973 39.3368C37.9641 41.7612 38.8328 44.4647 39.0112 47.1542L39.0198 47.2719C39.1517 49.5003 38.1347 51.5989 36.2986 52.8872C32.4857 55.5636 28.4702 55.8138 26.4159 55.7251C25.6132 55.6906 24.8803 55.6896 24.1735 55.7233C23.9496 55.7335 23.7053 55.7401 23.4407 55.7401ZM12.576 47.2187C12.574 47.256 12.5721 47.2924 12.5692 47.3288C12.4586 49.2127 13.3147 50.9836 14.8571 52.0675C18.4324 54.5769 22.1959 54.8009 24.1212 54.7104C24.8619 54.6758 25.6278 54.6767 26.4625 54.7122C28.3791 54.7953 32.1241 54.5619 35.6781 52.0675C37.2234 50.9836 38.0795 49.2127 37.967 47.3307L37.9593 47.2187C37.7916 44.686 36.9704 42.1365 35.586 39.8474C34.573 38.1726 33.3883 35.9256 33.112 34.1864L25.4474 36.8563C25.3321 36.8965 25.2051 36.8965 25.0897 36.8563L17.4242 34.1864C17.1469 35.9256 15.9632 38.1726 14.9492 39.8474C13.5658 42.1365 12.7447 44.686 12.576 47.2187Z" fill="#51332A"/>
<path d="M23.4407 55.7466C21.2419 55.7466 17.6598 55.2976 14.2328 52.8928C12.3957 51.6035 11.3797 49.5021 11.5106 47.2719C11.5125 47.2345 11.5144 47.1944 11.5173 47.1552C11.6967 44.4647 12.5663 41.7602 14.034 39.3349C15.5755 36.7872 16.4238 34.7092 16.4238 33.4862C16.4238 33.3182 16.5091 33.1614 16.6506 33.0652C16.7922 32.9691 16.9754 32.9457 17.1392 33.0027L25.2681 35.835L33.398 33.0027C33.5618 32.9448 33.7431 32.9691 33.8866 33.0652C34.0301 33.1614 34.1135 33.3182 34.1135 33.4862C34.1135 34.7101 34.9627 36.7872 36.5032 39.3349C37.9709 41.7612 38.8406 44.4647 39.0189 47.1552L39.0267 47.2738C39.1585 49.504 38.1406 51.6054 36.3035 52.8946C32.4877 55.572 28.4712 55.8232 26.416 55.7335C25.6133 55.699 24.8803 55.6981 24.1736 55.7317C23.9516 55.7401 23.7053 55.7466 23.4407 55.7466ZM12.5837 47.2196C12.5808 47.2569 12.5779 47.2934 12.5769 47.3288C12.4655 49.2109 13.3205 50.979 14.861 52.0619C18.4354 54.5703 22.1959 54.7934 24.1213 54.7029C24.8619 54.6674 25.6278 54.6684 26.4634 54.7048C28.3791 54.7869 32.1222 54.5545 35.6723 52.0619C37.2157 50.979 38.0718 49.2109 37.9593 47.3307L37.9525 47.2177C37.7838 44.6869 36.9637 42.1383 35.5803 39.8493C34.5682 38.1764 33.3864 35.9331 33.1062 34.1939L25.4494 36.861C25.3321 36.9021 25.2041 36.9021 25.0859 36.861L17.4291 34.1939C17.1499 35.9331 15.9681 38.1764 14.956 39.8493C13.5716 42.1393 12.7524 44.6878 12.5837 47.2196Z" fill="#51332A"/>
<path d="M16.4654 46.9834C16.7359 44.3695 17.4862 40.0724 19.5648 35.5568L25.2681 36.9758L30.9723 35.5568C33.0518 40.0724 33.8013 44.3695 34.0708 46.9834C34.2792 48.9943 33.2108 50.9445 31.3349 51.8528C28.4857 53.2335 25.2681 53.1224 25.2681 53.1224C25.2681 53.1224 22.0514 53.2326 19.2012 51.8528C17.3263 50.9445 16.2589 48.9943 16.4654 46.9834Z" fill="white"/>
<path d="M25.461 53.6321C25.366 53.6321 25.3011 53.6312 25.2681 53.6302C24.9676 53.6377 21.8178 53.6891 18.9647 52.3065C16.9259 51.3188 15.7121 49.1595 15.9409 46.9339C16.2308 44.1352 17.0112 39.8539 19.0839 35.3514C19.1867 35.1246 19.4465 35.0042 19.6957 35.0658L25.2681 36.4521L30.8405 35.0658C31.0897 35.0042 31.3485 35.1246 31.4542 35.3514C33.5279 39.8539 34.3054 44.1361 34.5952 46.9339C34.824 49.1604 33.6103 51.3197 31.5725 52.3065C29.0267 53.5388 26.2472 53.6321 25.461 53.6321ZM19.8682 36.1552C17.9855 40.3898 17.2623 44.39 16.9899 47.0329C16.8028 48.844 17.7868 50.599 19.4378 51.3991C22.1358 52.706 25.2187 52.6155 25.2487 52.6146C25.2623 52.6146 25.2749 52.6146 25.2865 52.6146C25.3166 52.6155 28.4092 52.7014 31.0975 51.3981C32.7494 50.599 33.7334 48.844 33.5454 47.032C33.273 44.3891 32.5516 40.3889 30.667 36.1543L25.399 37.465C25.3118 37.4865 25.2206 37.4865 25.1353 37.465L19.8682 36.1552ZM16.4654 46.9834H16.4674H16.4654Z" fill="#51332A"/>
<path d="M36.5332 45.8557C36.4071 48.7319 35.1963 51.4476 34.4343 53.1149C33.713 54.6926 32.0504 55.7186 30.2617 55.615C30.2007 55.6122 30.1396 55.6075 30.0785 55.6019C27.9137 55.4208 26.4799 53.2288 27.4154 51.3393C27.8507 50.459 28.7659 49.6935 30.5739 49.4974C30.5739 49.4974 32.475 43.8075 32.5167 38.3892C32.5157 38.3901 36.8696 38.1483 36.5332 45.8557Z" fill="#FEBC55"/>
<path d="M14.0039 45.8557C14.129 48.7319 15.3408 51.4476 16.1019 53.1149C16.8231 54.6926 18.4877 55.7186 20.2754 55.615C20.3364 55.6122 20.3966 55.6075 20.4586 55.6019C22.6244 55.4208 24.0573 53.2288 23.1217 51.3393C22.6864 50.459 21.7722 49.6935 19.9632 49.4974C19.9632 49.4974 18.0612 43.8075 18.0195 38.3892C18.0195 38.3901 13.6666 38.1483 14.0039 45.8557Z" fill="#FEBC55"/>
<path d="M28.5933 6.70378C28.5933 6.70378 36.9666 2.10607 45.6006 3.8686C45.6006 3.8686 47.4997 10.858 43.3456 20.1814C43.3446 20.1814 33.9554 18.4431 28.5933 6.70378Z" fill="#FEB84A"/>
<path d="M43.3446 20.1813C43.3446 20.1813 47.1691 13.191 45.5996 3.86859C45.5996 3.86859 40.6495 7.27042 39.1459 12.025C39.1459 12.0259 42.1977 15.7106 43.3446 20.1813Z" fill="white"/>
<path d="M43.3446 20.6892C43.3243 20.6892 43.301 20.6883 43.2807 20.6855C43.0626 20.6603 42.8851 20.5081 42.8328 20.3037C41.7295 15.9981 38.764 12.3779 38.7339 12.3414C38.6263 12.2108 38.5914 12.0381 38.6408 11.8775C40.1803 7.01372 45.0838 3.5988 45.2923 3.45597C45.4406 3.35421 45.6335 3.33275 45.8012 3.4009C45.969 3.46811 46.0892 3.61468 46.1173 3.78739C46.9433 8.6885 46.2753 12.9398 45.5705 15.6443C44.8037 18.5822 43.8497 20.3438 43.81 20.4175C43.7188 20.5856 43.5385 20.6892 43.3446 20.6892ZM39.7315 11.926C40.3296 12.6925 42.2976 15.3615 43.4484 18.7045C43.7751 17.9156 44.1919 16.7767 44.5594 15.3633C45.1934 12.9184 45.7954 9.1618 45.2108 4.80962C43.8555 5.8972 40.8948 8.56432 39.7315 11.926Z" fill="#51332A"/>
<path d="M28.5934 7.21815C28.4101 7.21815 28.2308 7.12573 28.1309 6.96143C27.9836 6.71591 28.0699 6.4013 28.3258 6.2594C28.4169 6.20806 30.5895 5.00659 33.8226 4.04037C36.8202 3.1451 41.3185 2.30117 45.7305 3.37195C46.0165 3.44103 46.189 3.72109 46.1163 3.99556C46.0436 4.27002 45.7547 4.43806 45.4687 4.36804C37.4649 2.42534 28.9453 7.10146 28.8609 7.14908C28.7766 7.19575 28.6845 7.21815 28.5934 7.21815Z" fill="#51332A"/>
<path d="M20.9434 6.70378C20.9434 6.70378 12.5711 2.10607 3.93713 3.8686C3.93713 3.8686 2.03698 10.858 6.19208 20.1814C6.19208 20.1814 15.5813 18.4431 20.9434 6.70378Z" fill="#FEB84A"/>
<path d="M6.19205 20.1813C6.19205 20.1813 2.36755 13.191 3.9371 3.86859C3.9371 3.86859 8.88714 7.27042 10.3908 12.025C10.3908 12.0259 7.33892 15.7106 6.19205 20.1813Z" fill="white"/>
<path d="M6.19204 20.6892C5.99911 20.6892 5.81784 20.5865 5.72671 20.4185C5.686 20.3447 4.73201 18.5831 3.96614 15.6453C3.26037 12.9417 2.59242 8.68943 3.41839 3.78832C3.44748 3.61561 3.56672 3.46904 3.73638 3.40183C3.90313 3.33368 4.09606 3.35516 4.24342 3.45691C4.45185 3.59975 9.35733 7.01465 10.8949 11.8784C10.9463 12.038 10.9123 12.2117 10.8028 12.3424C10.7737 12.3788 7.8062 15.9991 6.70392 20.3037C6.6506 20.5081 6.47318 20.6603 6.25505 20.6855C6.23469 20.6873 6.21336 20.6892 6.19204 20.6892ZM4.32584 4.81055C3.74029 9.16273 4.34327 12.9203 4.97826 15.3643C5.34472 16.7767 5.76158 17.9156 6.08926 18.7054C7.23903 15.3624 9.20805 12.6934 9.8062 11.927C8.63994 8.5578 5.68211 5.89533 4.32584 4.81055Z" fill="#51332A"/>
<path d="M20.9434 7.21815C20.8522 7.21815 20.7601 7.19575 20.6767 7.14908C20.6448 7.13134 18.4906 5.94294 15.3728 5.01406C12.5129 4.16173 8.22992 3.35795 4.06804 4.36805C3.78204 4.43806 3.4912 4.27096 3.41946 3.99556C3.34772 3.72016 3.52027 3.44103 3.80626 3.37195C8.21924 2.30211 12.7165 3.1451 15.7131 4.04037C18.9472 5.00753 21.1198 6.209 21.2109 6.25941C21.4659 6.40131 21.5532 6.71591 21.4048 6.96143C21.3069 7.12574 21.1266 7.21815 20.9434 7.21815Z" fill="#51332A"/>
<path d="M6.19211 18.6513C9.72482 3.91248 24.7679 4.9207 24.7679 4.9207C24.7679 4.9207 39.8119 3.91342 43.3446 18.6513C43.3446 18.6513 47.9738 24.9014 42.9636 31.0805C41.4358 32.9672 39.3553 34.3666 37.0432 35.2413C34.3452 36.2626 29.7209 37.6722 24.7679 37.6722C19.8159 37.6722 15.1906 36.2617 12.4936 35.2413C10.1805 34.3666 8.101 32.9662 6.57217 31.0805C1.56395 24.9014 6.19211 18.6513 6.19211 18.6513Z" fill="white"/>
<path d="M24.7679 38.1801C19.8518 38.1801 15.275 36.8386 12.3007 35.7137C9.80821 34.7708 7.68312 33.2762 6.15719 31.3932C3.44368 28.0455 3.48056 24.6764 3.98952 22.4405C4.47328 20.3167 5.44562 18.8146 5.70252 18.444C6.53335 15.0357 8.04766 12.1762 10.2008 9.94317C11.941 8.13676 14.099 6.73925 16.6128 5.78703C20.7059 4.23828 24.3433 4.38858 24.7688 4.41192C25.1954 4.38858 28.8328 4.23735 32.9249 5.78703C35.4397 6.73925 37.5967 8.13676 39.3388 9.94317C41.492 12.1762 43.0034 15.0366 43.8362 18.444C44.0941 18.8146 45.0654 20.3158 45.5492 22.4405C46.0572 24.6773 46.095 28.0455 43.3825 31.3932C41.8546 33.2771 39.7295 34.7708 37.2371 35.7137C34.2618 36.8386 29.685 38.1801 24.7679 38.1801ZM6.62062 18.9453C6.60899 18.9603 5.5057 20.4782 5.00933 22.6944C4.35398 25.6248 5.01907 28.3415 6.98707 30.7696C8.39763 32.5097 10.3676 33.8932 12.6855 34.7708C15.5745 35.863 20.0166 37.1662 24.7679 37.1662C29.5192 37.1662 33.9613 35.863 36.8512 34.7708C39.1682 33.8942 41.1391 32.5107 42.5497 30.7696C44.5167 28.3415 45.1818 25.6248 44.5264 22.6944C44.03 20.4782 42.9268 18.9603 42.9152 18.9453C42.8754 18.8912 42.8473 18.8296 42.8318 18.7661C41.4077 12.826 37.9448 8.77718 32.5391 6.73085C28.4945 5.19984 24.8416 5.42388 24.8038 5.42668C24.7815 5.42855 24.7563 5.42855 24.732 5.42668C24.6962 5.42482 21.0074 5.20356 16.9599 6.74578C11.5755 8.79677 8.12614 12.8409 6.70589 18.7661C6.69037 18.8296 6.66037 18.8912 6.62062 18.9453Z" fill="#51332A"/>
<path d="M44.412 20.622C42.444 23.0305 39.3931 24.5728 35.9661 24.5728C30.032 24.5728 25.2186 19.9377 25.2186 14.2235C25.2186 10.5453 27.207 7.31992 30.2056 5.48644C34.8832 6.59549 41.2099 9.7546 43.3456 18.6531C43.3446 18.6522 43.8943 19.3925 44.412 20.622Z" fill="#FEB84A"/>
<path d="M32.1571 22.068C33.5841 22.068 34.7416 20.9543 34.7416 19.5801V18.698C34.7416 17.3238 33.5841 16.21 32.1571 16.21C30.73 16.21 29.5734 17.3238 29.5734 18.698V19.5801C29.5734 20.9534 30.731 22.068 32.1571 22.068Z" fill="#51332A"/>
<path d="M29.6016 18.8501C30.7125 18.8501 31.6132 17.9829 31.6132 16.913C31.6132 15.8432 30.7125 14.9759 29.6016 14.9759C28.4906 14.9759 27.59 15.8432 27.59 16.913C27.59 17.9829 28.4906 18.8501 29.6016 18.8501Z" fill="white"/>
<path d="M17.3796 22.068C15.9516 22.068 14.7951 20.9543 14.7951 19.5801V18.698C14.7951 17.3238 15.9516 16.21 17.3796 16.21C18.8057 16.21 19.9622 17.3238 19.9622 18.698V19.5801C19.9622 20.9534 18.8057 22.068 17.3796 22.068Z" fill="#51332A"/>
<path d="M19.9361 18.8492C21.0465 18.8492 21.9467 17.9823 21.9467 16.913C21.9467 15.8437 21.0465 14.9768 19.9361 14.9768C18.8256 14.9768 17.9255 15.8437 17.9255 16.913C17.9255 17.9823 18.8256 18.8492 19.9361 18.8492Z" fill="white"/>
<path d="M24.7679 22.0681C24.7679 22.0681 25.0567 22.0232 25.4154 22.0764C26.0911 22.1763 26.4363 22.9409 26.0456 23.4805C25.7926 23.8287 25.3922 24.1461 24.7679 24.1461C24.1435 24.1461 23.7431 23.8287 23.492 23.4814C23.1004 22.9409 23.4445 22.1763 24.1202 22.0764C24.4799 22.0232 24.7679 22.0681 24.7679 22.0681Z" fill="#51332A"/>
<path d="M27.0586 27.7832C25.9787 27.7832 25.2283 27.3622 24.7688 26.9075C24.2269 27.4425 23.2846 27.9316 21.874 27.7421C21.5822 27.7029 21.3786 27.4434 21.4193 27.1615C21.459 26.8805 21.7295 26.6844 22.0214 26.7236C23.7111 26.9524 24.223 25.932 24.2772 25.8153C24.3597 25.6211 24.5526 25.4979 24.7707 25.4979C24.9869 25.4979 25.1818 25.6267 25.2632 25.82C25.3146 25.932 25.8274 26.9514 27.5162 26.7227C27.809 26.6835 28.0785 26.8795 28.1202 27.1605C28.16 27.4415 27.9564 27.702 27.6636 27.7412C27.4513 27.7701 27.2496 27.7832 27.0586 27.7832Z" fill="#51332A"/>
<path d="M24.7679 38.1866C19.8508 38.1866 15.272 36.8451 12.2977 35.7202C9.80424 34.7764 7.67922 33.2818 6.15135 31.397C3.4359 28.0474 3.47371 24.6764 3.98267 22.4387C4.4645 20.3148 5.4378 18.8137 5.69568 18.4412C6.5265 15.0319 8.04085 12.1725 10.195 9.9385C11.9371 8.13116 14.0951 6.73178 16.6098 5.7805C20.7039 4.23175 24.3403 4.38111 24.7688 4.40538C25.1973 4.38204 28.8357 4.23175 32.9278 5.7805C35.4426 6.73271 37.6015 8.13116 39.3436 9.9385C41.4978 12.1725 43.0101 15.0319 43.8419 18.4412C44.1017 18.8137 45.0731 20.3148 45.5559 22.4387C46.0649 24.6764 46.1017 28.0474 43.3873 31.397C41.8604 33.2818 39.7334 34.7764 37.2399 35.7202C34.2637 36.846 29.6859 38.1866 24.7679 38.1866ZM6.62638 18.95C6.6002 18.9873 5.50959 20.4978 5.0171 22.6963C4.36175 25.6248 5.02676 28.3396 6.99282 30.7659C8.40241 32.5051 10.3714 33.8876 12.6874 34.7642C15.5764 35.8574 20.0175 37.1597 24.7679 37.1597C29.5182 37.1597 33.9583 35.8565 36.8483 34.7642C39.1643 33.8876 41.1333 32.5051 42.5438 30.7659C44.5089 28.3396 45.1749 25.6248 44.5186 22.6963C44.0242 20.4819 42.921 18.9649 42.9093 18.95C42.8696 18.8949 42.8395 18.8333 42.824 18.768C41.4018 12.8306 37.9399 8.78277 32.5371 6.73831C28.4925 5.20823 24.8415 5.43135 24.8057 5.43415C24.7814 5.43602 24.7562 5.43602 24.731 5.43415C24.6942 5.43228 21.0092 5.21196 16.9627 6.75324C11.5793 8.8033 8.13196 12.8456 6.7117 18.7689C6.69716 18.8324 6.66806 18.8949 6.62638 18.95Z" fill="#51332A"/>
<path d="M20.0292 56.1368C18.1455 56.1368 16.3956 55.0315 15.6133 53.3222C14.6535 51.2198 13.8644 47.8049 13.4814 45.9565C13.4223 45.6783 13.6104 45.4076 13.9002 45.3516C14.1882 45.2946 14.4703 45.4767 14.5284 45.7549C15.176 48.8757 15.909 51.4159 16.5905 52.9086C17.2323 54.3099 18.6981 55.1939 20.2434 55.1034C20.3006 55.0997 20.3568 55.0959 20.414 55.0912C21.3001 55.0166 22.0941 54.5274 22.5381 53.7805C22.954 53.0804 22.9918 52.271 22.6399 51.5625C22.2046 50.6821 21.2846 50.1603 19.9041 50.01C19.6956 49.9876 19.5202 49.8494 19.4552 49.6571C19.3776 49.4218 17.5299 43.829 17.4863 38.3948C17.4843 38.111 17.7219 37.8795 18.0166 37.8767C18.3142 37.8758 18.5527 38.1026 18.5546 38.3873C18.5905 42.9552 19.9884 47.7863 20.3753 49.0344C21.9555 49.279 23.0403 49.9801 23.6045 51.12C24.1086 52.1375 24.0572 53.2942 23.4639 54.2912C22.8464 55.3302 21.7402 56.0127 20.5051 56.1153C20.4382 56.1209 20.3714 56.1256 20.3064 56.1293C20.2134 56.134 20.1203 56.1368 20.0292 56.1368Z" fill="#51332A"/>
<path d="M30.5071 56.1368C30.415 56.1368 30.3239 56.134 30.2308 56.1284C30.1649 56.1247 30.0989 56.12 30.032 56.1144C28.7979 56.0117 27.6908 55.3293 27.0723 54.2903C26.48 53.2932 26.4286 52.1366 26.9317 51.119C27.4959 49.9792 28.5827 49.2781 30.1619 49.0335C30.5478 47.7863 31.9467 42.9542 31.9816 38.3864C31.9845 38.1036 32.223 37.8758 32.5158 37.8758C32.5177 37.8758 32.5197 37.8758 32.5206 37.8758C32.8154 37.8776 33.0519 38.1101 33.0499 38.3939C33.0082 43.828 31.1604 49.4209 31.081 49.6562C31.017 49.8485 30.8425 49.9866 30.6321 50.009C29.2536 50.1584 28.3325 50.6803 27.8973 51.5615C27.5463 52.271 27.5841 53.0795 28 53.7796C28.4431 54.5265 29.237 55.0156 30.1241 55.0903C30.1803 55.095 30.2375 55.0987 30.2928 55.1025C31.8362 55.1921 33.3049 54.3099 33.9457 52.9077C34.6272 51.4159 35.3602 48.8757 36.0097 45.7539C36.0679 45.4757 36.349 45.2956 36.6369 45.3506C36.9268 45.4067 37.1139 45.6774 37.0567 45.9556C36.6728 47.804 35.8837 51.2198 34.9229 53.3213C34.1406 55.0324 32.3907 56.1368 30.5071 56.1368Z" fill="#51332A"/>
<path d="M33.2535 27.2707C35.0997 27.2707 36.5962 26.4222 36.5962 25.3756C36.5962 24.329 35.0997 23.4805 33.2535 23.4805C31.4074 23.4805 29.9109 24.329 29.9109 25.3756C29.9109 26.4222 31.4074 27.2707 33.2535 27.2707Z" fill="#FE7165"/>
<path d="M16.2831 27.2707C18.1298 27.2707 19.6268 26.4222 19.6268 25.3756C19.6268 24.329 18.1298 23.4805 16.2831 23.4805C14.4365 23.4805 12.9395 24.329 12.9395 25.3756C12.9395 26.4222 14.4365 27.2707 16.2831 27.2707Z" fill="#FE7165"/>
</svg>
