<svg width="70" height="76" viewBox="0 0 70 76" fill="none" xmlns="http://www.w3.org/2000/svg">
<path d="M31.7979 72.8677C26.9425 67.7201 23.6108 63.2545 21.9823 60.9336C17.2655 59.5553 11.2184 56.8868 7.18167 51.8083C2.90164 46.4212 1.64916 39.6287 3.46209 31.6183C3.60569 30.9892 3.7683 30.3461 3.95279 29.699C2.18872 25.9888 -1.22175 17.22 0.447576 7.70898L1.05489 4.24314L4.55705 4.09991C4.6109 4.0979 4.82232 4.08889 5.16436 4.08889C7.37219 4.08889 14.7036 4.42946 21.4647 8.54639C25.641 6.53701 30.1983 5.48123 34.7546 5.48123C39.3098 5.48123 43.8681 6.536 48.0444 8.54639C54.8025 4.42946 62.138 4.08889 64.3468 4.08889C64.6859 4.08889 64.8963 4.0969 64.9542 4.09991L68.4523 4.24314L69.0616 7.70898C70.7299 17.221 67.3205 25.9898 65.5565 29.699C65.74 30.3461 65.9044 30.9882 66.047 31.6183C67.857 39.6287 66.6075 46.4212 62.3265 51.8083C58.2908 56.8868 52.2437 59.5543 47.5259 60.9336C45.8964 63.2545 42.5667 67.7201 37.7093 72.8677L34.7536 76L31.7979 72.8677Z" fill="#B24349"/>
<path d="M31.7979 68.7788C26.9425 63.6312 23.6108 59.1667 21.9823 56.8457C17.2655 55.4664 11.2184 52.7979 7.18167 47.7204C2.90165 42.3333 1.64917 35.5409 3.4621 27.5304C3.6057 26.9003 3.76831 26.2582 3.95279 25.6111C2.18872 21.9009 -1.22175 13.1321 0.44758 3.6201L1.05489 0.154267L4.55706 0.0100114C4.61091 0.00800799 4.82232 0 5.16437 0C7.37219 0 14.7036 0.339569 21.4647 4.4575C25.641 2.44812 30.1983 1.39234 34.7546 1.39234C39.3098 1.39234 43.8681 2.44812 48.0444 4.4575C54.8025 0.34057 62.138 0 64.3469 0C64.6859 0 64.8963 0.00800799 64.9542 0.0100114L68.4523 0.154267L69.0616 3.6201C70.7299 13.1321 67.3205 21.9009 65.5565 25.6101C65.74 26.2572 65.9044 26.8993 66.047 27.5294C67.857 35.5389 66.6075 42.3313 62.3265 47.7194C58.2908 52.7979 52.2437 55.4654 47.5259 56.8447C45.8964 59.1656 42.5667 63.6302 37.7093 68.7778L34.7536 71.9111L31.7979 68.7788Z" fill="white"/>
<path d="M50.8346 9.51904C51.9665 10.3134 53.0555 11.1928 54.0896 12.1575C57.0224 14.8931 59.3288 18.0895 60.9852 21.7026C62.4062 18.3008 64.3578 12.2126 63.573 5.80077C61.2376 5.89994 55.7289 6.47391 50.8346 9.51904Z" fill="#6B7A83"/>
<path d="M52.1848 14.2159C47.1359 9.50801 40.9452 7.15305 34.7545 7.15305C28.5629 7.15305 22.3742 9.50701 17.3233 14.2159C13.158 18.0995 10.3827 23.0098 9.0704 28.8095C7.66633 35.021 8.54292 40.1697 11.6762 44.1153C16.8297 50.5992 27.3293 52.9001 34.7555 52.9001C42.1817 52.9001 52.6805 50.5992 57.8331 44.1153C60.9693 40.1707 61.8448 35.021 60.4408 28.8095C59.1274 23.0098 56.3501 18.0995 52.1848 14.2159ZM20.663 39.4585C19.4853 39.4585 18.5299 38.4988 18.5299 37.3159C18.5299 36.1329 19.4853 35.1732 20.663 35.1732C21.8417 35.1732 22.7961 36.1329 22.7961 37.3159C22.7961 38.4988 21.8417 39.4585 20.663 39.4585ZM40.6481 45.8252C40.5683 45.9644 39.8004 47.1865 37.4051 47.1865C36.0289 47.1865 35.2152 46.6446 34.7555 46.1407C34.2948 46.6446 33.4811 47.1865 32.1059 47.1865C29.7087 47.1865 28.9428 45.9634 28.8631 45.8252C28.7095 45.5557 28.8002 45.2121 29.0694 45.0579C29.3386 44.9036 29.6788 44.9958 29.8334 45.2662C29.8473 45.2873 30.3608 46.0626 32.1059 46.0626C33.5649 46.0626 34.0745 45.2512 34.1962 45.0018V43.1056C33.2817 42.8021 31.9544 41.9466 32.1199 41.2264C32.3264 40.3319 37.1858 40.3319 37.3902 41.2264C37.5558 41.9477 36.2295 42.8031 35.314 43.1056V45.0038C35.4327 45.2452 35.9413 46.0626 37.4062 46.0626C39.1493 46.0626 39.6638 45.2873 39.6847 45.2542C39.8483 44.9978 40.1914 44.9126 40.4497 45.0709C40.709 45.2292 40.7997 45.5607 40.6481 45.8252ZM48.8461 39.4585C47.6694 39.4585 46.7132 38.4988 46.7132 37.3159C46.7132 36.1329 47.6694 35.1732 48.8461 35.1732C50.0248 35.1732 50.9792 36.1329 50.9792 37.3159C50.9792 38.4988 50.0238 39.4585 48.8461 39.4585Z" fill="#8EA3AE"/>
<path d="M15.4217 12.1575C16.4548 11.1928 17.5436 10.3134 18.6765 9.51904C13.7692 6.46189 8.27165 5.89392 5.93818 5.79776C5.15238 12.2116 7.10591 18.3008 8.52494 21.7026C10.1823 18.0895 12.4869 14.8931 15.4217 12.1575Z" fill="#6B7A83"/>
<path d="M27.0591 54.9946C28.6596 57.1873 31.2683 60.544 34.7556 64.3213C38.2448 60.541 40.8515 57.1853 42.4521 54.9946C39.7466 55.4875 37.107 55.7088 34.7556 55.7088C32.4042 55.7098 29.7645 55.4875 27.0591 54.9946Z" fill="#EF4D4E"/>
<path d="M24.2998 8.04856C24.2998 8.04856 26.0071 22.57 27.3204 22.6812C28.6328 22.7934 28.7894 6.26155 28.7894 6.26155" fill="#6B7A83"/>
<path d="M45.2103 8.04856C45.2103 8.04856 43.5032 22.57 42.1908 22.6812C40.8785 22.7924 40.7219 6.26155 40.7219 6.26155" fill="#6B7A83"/>
<path d="M34.7547 6.26155H33.1092C32.6555 6.26155 32.2985 6.6462 32.3285 7.10096C32.6894 12.7986 33.4194 17.7299 33.9839 20.9393C34.1354 21.8067 35.375 21.8067 35.5265 20.9393C36.091 17.7289 36.8208 12.7976 37.1818 7.10096C37.2107 6.6462 36.8548 6.26155 36.401 6.26155H34.7547Z" fill="#6B7A83"/>
<path d="M21.4797 46.5153C22.2062 46.5153 22.795 45.9238 22.795 45.1941C22.795 44.4644 22.2062 43.8729 21.4797 43.8729C20.7533 43.8729 20.1644 44.4644 20.1644 45.1941C20.1644 45.9238 20.7533 46.5153 21.4797 46.5153Z" fill="#E0E9ED"/>
<path d="M48.0295 46.5164C48.7565 46.5164 49.3458 45.9244 49.3458 45.1941C49.3458 44.4639 48.7565 43.8719 48.0295 43.8719C47.3025 43.8719 46.7132 44.4639 46.7132 45.1941C46.7132 45.9244 47.3025 46.5164 48.0295 46.5164Z" fill="#E0E9ED"/>
<path d="M20.663 39.4585C21.8411 39.4585 22.7961 38.4992 22.7961 37.3159C22.7961 36.1325 21.8411 35.1732 20.663 35.1732C19.485 35.1732 18.53 36.1325 18.53 37.3159C18.53 38.4992 19.485 39.4585 20.663 39.4585Z" fill="#5B161A"/>
<path d="M48.8462 39.4585C50.0242 39.4585 50.9792 38.4992 50.9792 37.3159C50.9792 36.1325 50.0242 35.1732 48.8462 35.1732C47.6681 35.1732 46.7132 36.1325 46.7132 37.3159C46.7132 38.4992 47.6681 39.4585 48.8462 39.4585Z" fill="#5B161A"/>
<path d="M40.4486 45.0719C40.1903 44.9136 39.8473 44.9988 39.6838 45.2552C39.6629 45.2883 39.1483 46.0636 37.4051 46.0636C35.9402 46.0636 35.4318 45.2462 35.3131 45.0048V43.1066C36.2285 42.8031 37.5547 41.9477 37.3892 41.2274C37.1848 40.3329 32.3254 40.3329 32.119 41.2274C31.9535 41.9487 33.2807 42.8041 34.1951 43.1066V45.0028C34.0735 45.2522 33.5639 46.0636 32.105 46.0636C30.3599 46.0636 29.8453 45.2883 29.8323 45.2672C29.6788 44.9968 29.3377 44.9046 29.0685 45.0589C28.7992 45.2131 28.7086 45.5567 28.8621 45.8262C28.9419 45.9654 29.7077 47.1875 32.105 47.1875C33.4802 47.1875 34.2939 46.6456 34.7546 46.1417C35.2143 46.6456 36.028 47.1875 37.4042 47.1875C39.7995 47.1875 40.5674 45.9644 40.6472 45.8262C40.7997 45.5607 40.7089 45.2292 40.4486 45.0719Z" fill="#5B161A"/>
<path d="M66.1527 4.13596L65.9583 3.02209L64.8324 2.976C64.4475 2.95998 55.5863 2.66349 48.2219 7.88628C44.0745 5.58641 39.4604 4.35935 34.7555 4.35935C30.0497 4.35935 25.4366 5.58541 21.2882 7.88628C13.9248 2.66248 5.06358 2.95998 4.67766 2.976L3.55288 3.02209L3.35836 4.13596C1.63717 13.9405 5.90829 23.0178 7.1209 25.3407C6.82473 26.2672 6.56146 27.2148 6.34208 28.1865C4.74155 35.2724 5.79953 41.2214 9.4922 45.8672C12.9037 50.1615 18.2985 52.817 23.8021 54.2714C25.0098 56.0554 28.4771 60.9446 33.9429 66.7364L34.7555 67.5969L35.5673 66.7364C41.0311 60.9436 44.5003 56.0554 45.7069 54.2714C51.2115 52.817 56.6054 50.1615 60.0188 45.8672C63.7115 41.2204 64.7707 35.2724 63.1671 28.1865C62.9468 27.2138 62.6854 26.2662 62.3903 25.3407C63.6039 23.0178 67.8729 13.9405 66.1527 4.13596ZM5.93818 5.79776C8.27265 5.89392 13.7702 6.46189 18.6765 9.51904C17.5436 10.3134 16.4548 11.1928 15.4217 12.1575C12.4869 14.8931 10.1823 18.0895 8.52396 21.7026C7.10493 18.3008 5.15138 12.2106 5.93818 5.79776ZM34.7555 64.3213C31.2683 60.544 28.6606 57.1873 27.059 54.9946C29.7645 55.4874 32.4031 55.7088 34.7555 55.7088C37.1059 55.7088 39.7466 55.4864 42.452 54.9946C40.8515 57.1853 38.2448 60.54 34.7555 64.3213ZM57.8331 44.1153C52.6805 50.5992 42.1818 52.9001 34.7555 52.9001C27.3293 52.9001 16.8297 50.5992 11.6762 44.1153C8.54192 40.1707 7.66633 35.021 9.07041 28.8095C10.3827 23.0088 13.159 18.0995 17.3233 14.2159C22.3742 9.50701 28.5629 7.15305 34.7545 7.15305C40.9442 7.15305 47.1359 9.50801 52.1848 14.2159C56.3501 18.0995 59.1273 23.0098 60.4397 28.8095C61.8447 35.021 60.9683 40.1707 57.8331 44.1153ZM60.9851 21.7026C59.3288 18.0895 57.0223 14.8931 54.0895 12.1575C53.0554 11.1938 51.9664 10.3134 50.8346 9.51904C55.7289 6.47391 61.2374 5.89993 63.5719 5.79976C64.3577 12.2126 62.4062 18.3008 60.9851 21.7026Z" fill="#5B161A"/>
</svg>
