<svg width="61" height="54" viewBox="0 0 61 54" fill="none" xmlns="http://www.w3.org/2000/svg">
<path d="M39.5659 1.02103C39.8952 1.02103 40.2207 1.08408 40.5212 1.20371C41.0364 1.40958 41.4823 1.78238 41.7635 2.28315L59.6373 34.1108C60.2093 35.1281 59.9474 36.394 59.0162 37.1238L56.7068 38.9321C56.258 39.2845 55.6985 39.4728 55.1294 39.4728C54.9628 39.4728 54.7952 39.4561 54.6286 39.4236C54.4716 39.393 54.3195 39.3476 54.1721 39.2892C53.6376 39.0759 53.1898 38.6883 52.9154 38.1866L52.3895 37.224L43.3795 51.3763C42.9134 52.1089 42.0947 52.5253 41.2473 52.5253C40.9266 52.5253 40.603 52.4659 40.293 52.3417L29.9606 48.2251L21.7219 44.9414L13.4832 41.6586L3.15281 37.5411C2.01643 37.0886 1.39044 35.908 1.67646 34.7572L5.68652 18.6129L4.60793 18.9356C4.36428 19.008 4.1139 19.0441 3.86544 19.0441C3.53801 19.0441 3.2125 18.982 2.91011 18.8605C2.76373 18.8021 2.62217 18.7307 2.48831 18.6463C1.86331 18.2494 1.45591 17.6021 1.37887 16.8843L1.07263 14.0336C0.9484 12.8828 1.69281 11.8098 2.84363 11.4788L38.8475 1.1221C39.0863 1.05441 39.327 1.02103 39.5659 1.02103ZM39.5659 0C39.2201 0 38.8773 0.0482212 38.546 0.143739L2.54127 10.5004C0.903162 10.9715 -0.157151 12.5016 0.0190833 14.1384L0.32532 16.9891C0.436068 18.0157 1.01199 18.9301 1.90664 19.4985C2.09539 19.6182 2.29668 19.7211 2.50565 19.8046C2.93998 19.977 3.39832 20.0651 3.86732 20.0651C3.99251 20.0651 4.11774 20.0587 4.24197 20.0457L0.647956 34.5189C0.450535 35.3118 0.553558 36.1482 0.939733 36.8753C1.32398 37.6014 1.96635 38.1726 2.74929 38.4852L13.0806 42.6017L21.3193 45.8854L29.5571 49.1683L39.8894 53.2848C40.3238 53.4582 40.7822 53.5454 41.2502 53.5454C42.4983 53.5454 43.6346 52.9333 44.2866 51.9086L52.3645 39.2215C52.7362 39.6629 53.2197 40.0125 53.7705 40.2323C53.9795 40.3148 54.1972 40.3797 54.4177 40.4233C54.6527 40.4688 54.8925 40.4929 55.1313 40.4929C55.948 40.4929 56.7453 40.2202 57.378 39.7241L59.6874 37.9158C61.0125 36.8771 61.3852 35.0725 60.5715 33.6258L42.6976 1.79721C42.3095 1.10634 41.6807 0.561054 40.9276 0.260592C40.4913 0.088104 40.0349 0 39.5659 0Z" fill="#51332A"/>
<path d="M38.3197 6.32547L9.14476 15.0519L4.11102 35.3173L22.6801 42.7176L41.2492 50.1179L52.56 32.3544L38.3197 6.32547Z" fill="#FE7165"/>
<path d="M38.3284 31.0506C38.6057 24.4024 31.7702 21.5637 31.7702 21.5637C31.7702 21.5637 24.8508 18.9208 20.1695 23.8144C19.1891 24.8392 18.49 26.0837 18.0171 27.4014C17.083 30.0082 15.1193 35.7142 14.4404 39.4348L22.6801 42.7185L30.9188 46.0014C33.1694 42.9086 35.966 37.5346 37.2189 35.0539C37.8507 33.8002 38.2706 32.4434 38.3284 31.0506Z" fill="#392614"/>
<path d="M30.9179 46.6153C30.837 46.6153 30.7542 46.6004 30.6752 46.5689L14.1988 40.0023C13.9224 39.8919 13.7625 39.6128 13.8155 39.329C14.4848 35.6502 16.3588 30.152 17.4162 27.202C17.9546 25.7016 18.7221 24.4218 19.7025 23.399C21.7441 21.2651 24.5234 20.1736 27.7418 20.2413C30.1427 20.2923 31.9329 20.9656 32.008 20.9943C32.0138 20.9962 32.0196 20.9981 32.0254 21.0008C32.0986 21.0314 33.859 21.7724 35.5953 23.3712C37.922 25.5124 39.0882 28.1767 38.9669 31.0756C38.9081 32.4666 38.5143 33.8957 37.793 35.3229C36.3763 38.1281 33.6693 43.2925 31.4418 46.3537C31.3185 46.5207 31.1221 46.6153 30.9179 46.6153ZM15.1627 39.0583L30.6849 45.2437C32.8931 42.0851 35.5655 36.9235 36.645 34.7859C37.2883 33.5118 37.6398 32.2468 37.6909 31.0264C37.7978 28.4669 36.8068 26.1987 34.7431 24.2865C33.2321 22.8861 31.6623 22.1906 31.5265 22.1322C31.3907 22.0831 29.77 21.5053 27.6706 21.4682C24.8094 21.4144 22.4413 22.3474 20.6375 24.2308C19.7785 25.1285 19.0987 26.2626 18.6191 27.6027C17.814 29.8506 15.9187 35.3229 15.1627 39.0583Z" fill="#51332A"/>
<path d="M39.5659 3.42936L3.56209 13.786L3.86832 16.6367L38.3197 6.32547L55.1303 37.0654L57.4387 35.257L39.5659 3.42936Z" fill="#392614"/>
<path d="M55.1303 37.6793C55.087 37.6793 55.0437 37.6756 55.0013 37.6663C54.8145 37.6292 54.6546 37.5133 54.566 37.351L38.0029 7.06273L4.05707 17.2228C3.87602 17.2775 3.6757 17.2497 3.51583 17.1486C3.35597 17.0475 3.25296 16.8825 3.2337 16.6998L2.92746 13.8491C2.89568 13.5551 3.08539 13.2825 3.37912 13.1972L39.3819 2.84048C39.6718 2.75702 39.9819 2.88036 40.1263 3.13631L58.0002 34.964C58.1456 35.2237 58.0791 35.5464 57.8413 35.7328L55.5319 37.5411C55.4163 37.6311 55.2757 37.6793 55.1303 37.6793ZM38.3206 5.71157C38.5518 5.71157 38.7723 5.83305 38.884 6.03985L55.3316 36.1167L56.6259 35.1022L39.25 4.16011L4.24968 14.2284L4.42208 15.8281L38.131 5.73939C38.1936 5.72085 38.2571 5.71157 38.3206 5.71157Z" fill="#51332A"/>
<path d="M37.219 35.0549C35.9651 37.5318 33.1675 42.9059 30.9179 46.0004L27.6792 44.7096C29.9288 41.615 32.7255 36.241 33.9784 33.764C34.6101 32.5093 35.0319 31.1544 35.0878 29.7597C35.2794 25.1591 32.0658 22.3854 30.0694 21.1112C31.1133 21.3143 31.7711 21.5628 31.7711 21.5628C31.7711 21.5628 38.6057 24.4015 38.3274 31.0497C38.2706 32.4453 37.8497 33.8011 37.219 35.0549Z" fill="#744128"/>
<path d="M30.9179 46.6143C30.837 46.6143 30.7542 46.5995 30.6742 46.567L27.4346 45.2762C27.2555 45.2048 27.1206 45.0601 27.0658 44.8811C27.0118 44.7021 27.0455 44.5092 27.1563 44.3571C29.3135 41.3915 31.9974 36.279 33.4054 33.4951C34.0496 32.2144 34.4011 30.9495 34.4502 29.7347C34.6313 25.4197 31.5631 22.7999 29.7179 21.6222C29.4637 21.4599 29.3645 21.1474 29.481 20.8756C29.5975 20.6049 29.898 20.4509 30.1965 20.5084C31.2828 20.7198 31.9752 20.9795 32.0032 20.9906C32.0109 20.9925 32.0166 20.9953 32.0234 20.9981C32.0966 21.0287 33.857 21.7696 35.5934 23.3684C37.92 25.5096 39.0843 28.1739 38.964 31.0738C38.9081 32.4574 38.5142 33.8873 37.792 35.3219C37.791 35.3219 37.791 35.3229 37.791 35.3229C36.3666 38.1393 33.6461 43.3167 31.4398 46.3519C31.3185 46.5207 31.1211 46.6143 30.9179 46.6143ZM28.6461 44.4304L30.6848 45.2428C32.7881 42.2344 35.2996 37.4465 36.645 34.7859C37.2883 33.5053 37.6417 32.2404 37.6908 31.0255C37.7967 28.4651 36.8049 26.1968 34.7421 24.2846C34.3135 23.8868 33.8792 23.5464 33.4757 23.2608C34.7873 24.8447 35.8418 26.998 35.7253 29.7838C35.6685 31.1674 35.2736 32.5965 34.5513 34.032C33.2214 36.662 30.7618 41.3498 28.6461 44.4304Z" fill="#51332A"/>
<path d="M41.4649 50.7568L3.48984 35.6233L8.69792 14.6512L8.98682 14.565L38.5835 5.71249L53.1686 32.3739L41.4649 50.7568ZM4.73119 35.0122L41.0326 49.4789L51.9495 32.3349L38.0558 6.93937L9.58871 15.4534L4.73119 35.0122Z" fill="#51332A"/>
<path d="M55.1308 37.5768C55.0951 37.5768 55.0595 37.5731 55.0239 37.5666C54.8689 37.536 54.734 37.4396 54.6608 37.3042L38.0572 6.93988L4.02671 17.125C3.87455 17.1704 3.70889 17.1473 3.576 17.0638C3.4431 16.9803 3.35643 16.8422 3.34006 16.6901L3.03476 13.8394C3.00972 13.5946 3.16671 13.3674 3.41036 13.2969L39.4151 2.94022C39.6549 2.87067 39.914 2.97359 40.0324 3.18688L57.9072 35.0146C58.0285 35.2297 57.9727 35.4986 57.7753 35.6535L55.4669 37.4619C55.3706 37.537 55.2511 37.5768 55.1308 37.5768ZM38.3211 5.815C38.5127 5.815 38.6957 5.91609 38.7891 6.08765L55.2983 36.2767L56.7631 35.1286L39.3034 4.03819L4.13457 14.1556L4.32813 15.9658L38.1622 5.83911C38.2161 5.82242 38.2691 5.815 38.3211 5.815Z" fill="#51332A"/>
<path d="M30.9179 46.5123C30.8505 46.5123 30.7821 46.4994 30.7156 46.4734L14.2382 39.9068C14.01 39.815 13.8771 39.5822 13.9195 39.3467C14.5878 35.6753 16.4609 30.1826 17.5164 27.2354C18.0499 25.7489 18.8117 24.4812 19.7805 23.4685C21.8019 21.357 24.5532 20.2775 27.7398 20.3443C30.1224 20.3944 31.8934 21.0611 31.9686 21.0899C31.9734 21.0917 31.9782 21.0936 31.982 21.0954C32.0552 21.126 33.7993 21.8596 35.5221 23.4454C37.8267 25.5653 38.9794 28.2017 38.86 31.0719C38.8022 32.4481 38.4112 33.8632 37.6966 35.2774C36.282 38.0808 33.5778 43.2388 31.3541 46.2944C31.2511 46.4335 31.0874 46.5123 30.9179 46.5123ZM15.0414 39.1204L30.7243 45.3708C32.946 42.2131 35.6541 36.9866 36.7413 34.8305C37.3914 33.5433 37.7467 32.2645 37.7987 31.0302C37.9075 28.4373 36.9031 26.1412 34.8133 24.2076C33.2821 22.7897 31.6921 22.0896 31.5689 22.0367C31.4437 21.9913 29.8046 21.4033 27.6802 21.3653C24.7805 21.3106 22.3873 22.2528 20.5595 24.1613C19.6909 25.0701 19.0043 26.2163 18.5189 27.5693C17.7061 29.8357 15.7868 35.3776 15.0414 39.1204Z" fill="#51332A"/>
<path d="M30.9179 46.5114C30.8505 46.5114 30.7821 46.4984 30.7156 46.4724L27.476 45.1816C27.3277 45.1222 27.215 45.0017 27.1697 44.8524C27.1245 44.704 27.1524 44.5435 27.2449 44.4165C29.4049 41.4453 32.0918 36.3263 33.5026 33.5405C34.1536 32.2468 34.509 30.968 34.5591 29.7393C34.7411 25.3742 31.642 22.7266 29.7786 21.5368C29.5657 21.4014 29.483 21.1418 29.5812 20.9164C29.6785 20.6902 29.9269 20.5622 30.1754 20.6113C31.253 20.8209 31.9367 21.0769 31.9656 21.088C31.9704 21.0899 31.9762 21.0917 31.9811 21.0945C32.0542 21.1251 33.7973 21.8586 35.5202 23.4444C37.8237 25.5653 38.9784 28.2017 38.858 31.071C38.8031 32.4407 38.4121 33.8558 37.6956 35.2784C37.6956 35.2784 37.6956 35.2783 37.6956 35.2793C36.2723 38.0929 33.5556 43.2647 31.3531 46.2935C31.251 46.4335 31.0874 46.5114 30.9179 46.5114ZM28.4853 44.4777L30.7243 45.3698C32.841 42.3606 35.3844 37.5142 36.7413 34.8304C37.3923 33.5359 37.7476 32.258 37.7987 31.0292C37.9836 26.5816 34.7555 23.9099 32.8708 22.7378C34.3982 24.3458 35.7484 26.6632 35.6193 29.7791C35.5625 31.1488 35.1716 32.564 34.457 33.9865C33.1107 36.6453 30.6126 41.4054 28.4853 44.4777Z" fill="#51332A"/>
<path d="M40.3661 48.432C41.0262 48.432 41.5613 47.9167 41.5613 47.2811C41.5613 46.6455 41.0262 46.1303 40.3661 46.1303C39.7061 46.1303 39.1711 46.6455 39.1711 47.2811C39.1711 47.9167 39.7061 48.432 40.3661 48.432Z" fill="#F7524A"/>
<path d="M38.0299 46.0116C38.5506 46.0116 38.9726 45.6051 38.9726 45.1037C38.9726 44.6023 38.5506 44.1958 38.0299 44.1958C37.5092 44.1958 37.0871 44.6023 37.0871 45.1037C37.0871 45.6051 37.5092 46.0116 38.0299 46.0116Z" fill="#F7524A"/>
<path d="M41.3551 45.6638C42.0859 45.6638 42.6784 45.0933 42.6784 44.3896C42.6784 43.6859 42.0859 43.1154 41.3551 43.1154C40.6244 43.1154 40.032 43.6859 40.032 44.3896C40.032 45.0933 40.6244 45.6638 41.3551 45.6638Z" fill="#F7524A"/>
<path d="M15.625 21.1622C16.3558 21.1622 16.9482 20.5917 16.9482 19.888C16.9482 19.1843 16.3558 18.6138 15.625 18.6138C14.8942 18.6138 14.3018 19.1843 14.3018 19.888C14.3018 20.5917 14.8942 21.1622 15.625 21.1622Z" fill="#F7524A"/>
<path d="M19.4385 20.5446C19.9071 20.5446 20.287 20.1788 20.287 19.7276C20.287 19.2764 19.9071 18.9106 19.4385 18.9106C18.97 18.9106 18.5901 19.2764 18.5901 19.7276C18.5901 20.1788 18.97 20.5446 19.4385 20.5446Z" fill="#F7524A"/>
<path d="M12.9478 38.0808C13.4163 38.0808 13.7962 37.715 13.7962 37.2638C13.7962 36.8126 13.4163 36.4468 12.9478 36.4468C12.4792 36.4468 12.0994 36.8126 12.0994 37.2638C12.0994 37.715 12.4792 38.0808 12.9478 38.0808Z" fill="#F7524A"/>
<path d="M39.4666 13.2426C39.9352 13.2426 40.3151 12.8768 40.3151 12.4256C40.3151 11.9744 39.9352 11.6086 39.4666 11.6086C38.9981 11.6086 38.6182 11.9744 38.6182 12.4256C38.6182 12.8768 38.9981 13.2426 39.4666 13.2426Z" fill="#F7524A"/>
<path d="M37.1641 11.5381C37.8448 11.5381 38.3968 11.0067 38.3968 10.3511C38.3968 9.69554 37.8448 9.1641 37.1641 9.1641C36.4833 9.1641 35.9314 9.69554 35.9314 10.3511C35.9314 11.0067 36.4833 11.5381 37.1641 11.5381Z" fill="#F7524A"/>
<path d="M10.3524 35.9776C11.1044 35.9776 11.7141 35.3905 11.7141 34.6663C11.7141 33.9421 11.1044 33.355 10.3524 33.355C9.60031 33.355 8.99065 33.9421 8.99065 34.6663C8.99065 35.3905 9.60031 35.9776 10.3524 35.9776Z" fill="#F7524A"/>
</svg>
