<svg width="55" height="56" viewBox="0 0 55 56" fill="none" xmlns="http://www.w3.org/2000/svg">
<path d="M51.2679 39.2424C51.3368 38.7175 51.8292 37.0768 52.1912 35.8693C54.0253 29.751 56.7993 20.5081 53.136 14.627C51.7552 12.4088 49.5859 10.9125 46.8284 10.2649C46.705 10.0957 46.5765 9.92255 46.4459 9.74724C43.4119 5.67698 39.1112 3.00507 34.3376 2.22237C29.565 1.4407 24.6402 2.60081 20.4752 5.49134C20.2953 5.61818 20.1185 5.73988 19.9458 5.86156C17.1266 5.59551 14.5964 6.32248 12.5843 7.98482C7.24624 12.3913 6.94396 22.0405 6.74245 28.43C6.70235 29.6891 6.6479 31.3999 6.54817 31.9176C6.35488 32.4064 5.78529 33.3201 5.27637 34.1337C3.24991 37.3821 -0.522346 43.4292 4.40756 48.1677C5.42233 49.1432 6.58617 49.7444 7.86415 49.9527C11.2087 50.5014 14.6046 48.3306 17.9851 43.4942C19.1304 46.0939 21.4623 47.9821 24.3102 48.4492L29.1846 49.2464C32.0325 49.7125 34.8414 48.6678 36.7527 46.5672C38.4234 52.2307 40.9546 55.3708 44.2992 55.9205C45.5782 56.1277 46.8716 55.9298 48.1424 55.3286C54.3204 52.4102 52.661 45.4711 51.7686 41.7421C51.5465 40.8151 51.2956 39.7663 51.2679 39.2424Z" fill="#10181E"/>
<path d="M49.2887 37.2563C49.3576 36.7324 49.8501 35.0918 50.2109 33.8842C52.0462 27.767 54.8191 18.523 51.1569 12.6409C49.775 10.4237 47.6067 8.9264 44.8492 8.27879C44.7248 8.10967 44.5963 7.93641 44.4658 7.7611C41.4317 3.69187 37.1321 1.01994 32.3595 0.237236C27.5858 -0.543404 22.6611 0.616749 18.4961 3.50728C18.3151 3.63206 18.1383 3.75477 17.9666 3.87543C15.1474 3.6104 12.6162 4.33641 10.6042 5.99875C5.26711 10.4062 4.96484 20.0554 4.76229 26.4459C4.72322 27.703 4.66875 29.4148 4.56902 29.9325C4.37573 30.4223 3.80511 31.334 3.29721 32.1476C1.27076 35.396 -2.5015 41.4431 2.42841 46.1816C3.44318 47.1582 4.60702 47.7583 5.885 47.9677C9.22849 48.5153 12.6254 46.3445 16.0059 41.5081C17.1513 44.1099 19.4842 45.996 22.3311 46.4631L27.2054 47.2602C30.0534 47.7274 32.8632 46.6817 34.7745 44.5811C36.4453 50.2446 38.9755 53.3868 42.319 53.9344H42.3211C43.598 54.1437 44.8934 53.9447 46.1622 53.3445C52.3412 50.4241 50.6808 43.4849 49.7884 39.757C49.5674 38.8299 49.3155 37.7822 49.2887 37.2563Z" fill="white"/>
<path d="M19.5345 31.0522L18.5783 36.9261C18.0879 39.9424 20.0033 42.768 22.8574 43.2331L27.7308 44.0324C30.5859 44.4995 33.2971 42.4329 33.7896 39.4166L34.7457 33.5416L19.5345 31.0522Z" fill="#3A2F27"/>
<path d="M27.6383 44.6036L22.7639 43.8044C19.6013 43.2868 17.47 40.1611 18.0098 36.8333L18.966 30.9605C19.0184 30.6439 19.3135 30.4325 19.6281 30.483L34.8383 32.9745C35.1519 33.0271 35.3647 33.323 35.3143 33.6375L34.3571 39.5124C33.8153 42.8371 30.8018 45.1213 27.6383 44.6036ZM20.0105 31.7153L19.1469 37.021C18.7068 39.7177 20.4136 42.2493 22.95 42.666L27.8243 43.4641C30.3597 43.8787 32.781 42.0225 33.221 39.3248L34.0846 34.0212L20.0105 31.7153Z" fill="#161417"/>
<path d="M29.8168 33.0703L27.0872 32.6228L24.3585 32.1752C23.5432 35.9526 23.7375 38.377 24.1796 39.8877C24.6412 41.4655 26.6019 41.7873 27.5406 40.4374C28.4391 39.1473 29.3922 36.9127 29.8168 33.0703Z" fill="#F05A28"/>
<path d="M38.3679 29.8013C39.4309 26.4354 47.2592 17.9123 44.1861 13.0532C43.5815 12.0972 42.7693 10.9474 41.8532 9.72128C36.6303 2.71408 27.5231 1.22396 20.3488 6.20066C19.0914 7.07102 17.9573 7.90016 17.0814 8.61377C12.6254 12.2416 17.3456 22.8189 17.286 26.3488C17.2253 29.8787 12.865 31.3441 15.645 36.429C18.4241 41.514 26.8764 33.9108 26.8764 33.9108C26.8764 33.9108 32.4777 43.8158 36.7259 39.8816C40.9742 35.9465 37.3037 33.1673 38.3679 29.8013Z" fill="#827B75"/>
<path d="M36.727 39.8817C36.8575 39.76 36.982 39.6393 37.0982 39.5197C37.1321 39.4836 37.1629 39.4496 37.1958 39.4124C37.275 39.3299 37.3541 39.2465 37.4261 39.164C37.4641 39.1206 37.496 39.0794 37.533 39.0361C37.5947 38.9618 37.6574 38.8866 37.715 38.8144C37.75 38.769 37.7798 38.7236 37.8148 38.6772C37.8652 38.6091 37.9176 38.538 37.9638 38.4699C37.9957 38.4256 38.0224 38.3781 38.0522 38.3327C38.0944 38.2657 38.1386 38.1977 38.1767 38.1317C38.2024 38.0873 38.225 38.043 38.2487 37.9976C38.2846 37.9326 38.3227 37.8636 38.3556 37.7976C38.3772 37.7543 38.3946 37.7119 38.4141 37.6697C38.4439 37.6026 38.4768 37.5336 38.5025 37.4676C38.52 37.4273 38.5334 37.3871 38.5489 37.3459C38.5725 37.2789 38.5992 37.2097 38.6198 37.1437C38.6321 37.1035 38.6414 37.0654 38.6527 37.0272C38.6733 36.9592 38.6918 36.8901 38.7093 36.822C38.7175 36.7859 38.7257 36.7498 38.7308 36.7127C38.7473 36.6436 38.7606 36.5724 38.7729 36.5044C38.7771 36.4703 38.7812 36.4384 38.7863 36.4034C38.7976 36.3322 38.8069 36.26 38.813 36.1878C38.8151 36.1579 38.8172 36.129 38.8193 36.0981C38.8254 36.0228 38.8306 35.9475 38.8326 35.8733C38.8337 35.8475 38.8336 35.8228 38.8336 35.7991C38.8357 35.7186 38.8357 35.6402 38.8336 35.5608C38.8326 35.5412 38.8316 35.5237 38.8316 35.503C38.8285 35.4185 38.8234 35.3319 38.8172 35.2473C38.8162 35.236 38.8151 35.2236 38.8141 35.2133C38.8059 35.1195 38.7966 35.0256 38.7863 34.9339C38.7853 34.9318 38.7853 34.9318 38.7853 34.9297C38.5848 33.287 37.8734 31.7309 38.3052 30.0355C36.0186 27.8865 33.1059 26.3973 32.0007 23.6337C30.66 20.2811 32.2206 9.46456 33.2601 3.77527C32.3194 3.52468 31.3591 3.36687 30.3875 3.30397C29.5691 9.03038 27.6167 19.782 25.2818 22.5333C23.3592 24.8 20.1236 25.2826 17.2747 26.5912C17.1482 28.3371 15.9813 29.5838 15.2688 31.0781C15.2688 31.0791 15.2678 31.0812 15.2667 31.0832C15.2266 31.1678 15.1886 31.2523 15.1526 31.3369C15.1464 31.3493 15.1423 31.3596 15.1382 31.3699C15.1043 31.4493 15.0735 31.5266 15.0437 31.606C15.0354 31.6246 15.0293 31.6422 15.0221 31.6607C14.9964 31.735 14.9717 31.8103 14.948 31.8866C14.9398 31.9093 14.9316 31.934 14.9244 31.9588C14.9038 32.0289 14.8843 32.1031 14.8657 32.1763C14.8575 32.2042 14.8503 32.2331 14.8442 32.2619C14.8277 32.3321 14.8143 32.4042 14.802 32.4764C14.7948 32.5084 14.7876 32.5414 14.7825 32.5754C14.7701 32.6435 14.763 32.7157 14.7547 32.7868C14.7506 32.8229 14.7455 32.859 14.7414 32.8972C14.7352 32.9662 14.7331 33.0374 14.729 33.1086C14.727 33.1498 14.7249 33.189 14.7239 33.2302C14.7228 33.3004 14.7249 33.3726 14.7269 33.4447C14.729 33.4881 14.729 33.5314 14.7311 33.5778C14.7362 33.6479 14.7434 33.7211 14.7517 33.7943C14.7568 33.8418 14.7599 33.8882 14.766 33.9366C14.7763 34.0088 14.7897 34.0862 14.8041 34.1604C14.8123 34.211 14.8205 34.2594 14.8298 34.3099C14.8462 34.3862 14.8658 34.4646 14.8843 34.543C14.8987 34.5946 14.9079 34.6472 14.9244 34.7008C14.9459 34.7792 14.9727 34.8616 14.9984 34.941C15.0169 34.9967 15.0313 35.0493 15.0508 35.105C15.0806 35.1906 15.1166 35.2793 15.1516 35.369C15.1732 35.4216 15.1896 35.4742 15.2133 35.5278C15.2544 35.6268 15.3027 35.7268 15.349 35.83C15.3706 35.8764 15.3891 35.9228 15.4128 35.9692C15.4847 36.1197 15.5639 36.2734 15.6502 36.4312C16.2578 37.5439 17.1359 38.0471 18.1404 38.1585C18.2833 38.175 18.4293 38.1822 18.5774 38.1822C18.8735 38.1822 19.1778 38.1543 19.4862 38.0997C19.6404 38.0718 19.7977 38.0389 19.954 37.9997C20.3499 37.9017 20.7508 37.7645 21.1497 37.6057C21.2895 37.549 21.4294 37.4913 21.5692 37.4294C22.586 36.9777 23.5761 36.3827 24.4202 35.8094C24.4418 35.7929 24.4655 35.7774 24.4871 35.7629C25.8946 34.7977 26.8806 33.9119 26.8806 33.9119C26.8775 33.9109 32.4787 43.8158 36.727 39.8817Z" fill="#FFFFFB"/>
<path d="M33.914 41.3305C30.7474 40.8128 27.7483 36.4198 26.7335 34.7926C25.2571 36.0135 21.0202 39.2196 17.8535 38.6999C16.6712 38.506 15.7592 37.8357 15.1413 36.7055C13.2382 33.2271 14.4535 31.2111 15.5258 29.4322C16.1252 28.4381 16.6917 27.4986 16.7102 26.3375C16.7267 25.3815 16.3453 23.7862 15.9052 21.9414C14.799 17.307 13.2804 10.9629 16.7184 8.16416C17.5481 7.49077 18.6585 6.66994 20.0219 5.72431C23.6152 3.2308 27.8429 2.22741 31.9256 2.89667C36.0104 3.56491 39.6993 5.86662 42.3139 9.37383C43.3071 10.7072 44.0997 11.8405 44.6724 12.7428C47.0423 16.4934 43.5929 22.0249 41.075 26.0643C40.0715 27.674 39.2048 29.0641 38.9148 29.9757C38.5653 31.0822 38.8049 32.1537 39.0578 33.288C39.5091 35.3154 40.0232 37.613 37.1156 40.3055C36.1738 41.18 35.0964 41.5244 33.914 41.3305ZM26.97 33.3416C27.1427 33.3695 27.2918 33.4736 27.3771 33.6263C27.411 33.685 30.8265 39.6548 34.098 40.19C34.9246 40.3251 35.6567 40.0848 36.3363 39.4568C38.7565 37.2149 38.3751 35.5123 37.9361 33.5396C37.6595 32.3073 37.3757 31.0296 37.8189 29.6261C38.1509 28.5742 39.0537 27.1274 40.0993 25.4506C42.4568 21.6722 45.6841 16.4965 43.6998 13.3616C43.1457 12.483 42.3684 11.3744 41.3927 10.0668C38.957 6.79781 35.5292 4.65696 31.7415 4.03616C27.9529 3.41536 24.0244 4.35276 20.6778 6.67302C19.3371 7.60216 18.2514 8.40546 17.4454 9.06132C14.5697 11.4022 15.9885 17.3369 17.0249 21.6722C17.4834 23.5934 17.8813 25.2558 17.8628 26.3571C17.8371 27.8318 17.1626 28.9496 16.5108 30.0314C15.4672 31.7618 14.5676 33.254 16.1499 36.1517C16.5941 36.9654 17.2119 37.4253 18.0386 37.5614C21.3111 38.0976 26.4415 33.5283 26.4939 33.4819C26.6225 33.3653 26.7983 33.3138 26.97 33.3416Z" fill="#161417"/>
<path d="M31.5781 25.4651C29.748 24.0152 27.2928 23.6129 25.0977 24.4039C24.0902 24.7669 23.2625 25.3516 23.2964 26.2952C23.3406 27.5316 24.4449 28.8062 25.4854 29.7395C26.5958 30.7346 28.1502 30.9883 29.5197 30.3995C30.8008 29.8467 32.2515 28.9908 32.6864 27.8338C33.0185 26.95 32.418 26.1302 31.5781 25.4651Z" fill="#161417"/>
<path d="M23.8619 18.987C25.269 18.987 26.4097 17.8429 26.4097 16.4316C26.4097 15.0203 25.269 13.8762 23.8619 13.8762C22.4548 13.8762 21.3142 15.0203 21.3142 16.4316C21.3142 17.8429 22.4548 18.987 23.8619 18.987Z" fill="#161417"/>
<path d="M24.1786 17.1112C24.6073 17.1112 24.9548 16.7626 24.9548 16.3326C24.9548 15.9026 24.6073 15.554 24.1786 15.554C23.7499 15.554 23.4024 15.9026 23.4024 16.3326C23.4024 16.7626 23.7499 17.1112 24.1786 17.1112Z" fill="white"/>
<path d="M25.1923 18.1827C25.4331 18.1827 25.6282 17.9869 25.6282 17.7454C25.6282 17.504 25.4331 17.3082 25.1923 17.3082C24.9515 17.3082 24.7564 17.504 24.7564 17.7454C24.7564 17.9869 24.9515 18.1827 25.1923 18.1827Z" fill="white"/>
<path d="M35.2794 20.8567C36.6864 20.8567 37.8271 19.7126 37.8271 18.3013C37.8271 16.89 36.6864 15.7459 35.2794 15.7459C33.8723 15.7459 32.7316 16.89 32.7316 18.3013C32.7316 19.7126 33.8723 20.8567 35.2794 20.8567Z" fill="#161417"/>
<path d="M35.596 18.9807C36.0247 18.9807 36.3723 18.6321 36.3723 18.2021C36.3723 17.7721 36.0247 17.4235 35.596 17.4235C35.1673 17.4235 34.8198 17.7721 34.8198 18.2021C34.8198 18.6321 35.1673 18.9807 35.596 18.9807Z" fill="white"/>
<path d="M36.6098 20.0522C36.8505 20.0522 37.0457 19.8564 37.0457 19.615C37.0457 19.3735 36.8505 19.1777 36.6098 19.1777C36.369 19.1777 36.1739 19.3735 36.1739 19.615C36.1739 19.8564 36.369 20.0522 36.6098 20.0522Z" fill="white"/>
<path d="M18.3295 7.2207C18.3295 7.2207 18.8817 29.2477 16.6424 33.9212C14.4031 38.5958 8.7751 47.7521 4.68518 43.8221C0.596288 39.891 6.57182 34.0512 7.66472 30.9689C8.75866 27.8865 5.94978 5.19331 18.3295 7.2207Z" fill="#3A2F27"/>
<path d="M6.31786 45.3112C5.58686 45.1905 4.90311 44.8296 4.28726 44.2387C0.933481 41.0161 3.6169 36.7169 5.5755 33.5789C6.23453 32.5239 6.85556 31.5267 7.12184 30.776C7.33261 30.181 7.38605 28.4867 7.44671 26.5253C7.6328 20.6256 7.9125 11.7137 12.3098 8.08073C13.9405 6.73394 15.9967 6.2534 18.42 6.65146C18.6935 6.69477 18.8961 6.92992 18.9043 7.20628C18.9259 8.1117 19.4327 29.4272 17.1616 34.1719C16.2044 36.1704 11.1789 46.1063 6.31786 45.3112ZM17.7651 7.72391C15.8692 7.50736 14.3209 7.91678 13.0439 8.97172C9.04755 12.2706 8.76685 21.2165 8.60029 26.5614C8.53037 28.7888 8.47897 30.3986 8.20652 31.1617C7.8991 32.0321 7.27502 33.0313 6.55224 34.1914C4.61009 37.3047 2.40783 40.8315 5.08509 43.4045C5.53541 43.8376 5.99911 44.0892 6.50392 44.1706C9.42999 44.6502 13.5405 39.065 16.1242 33.6717C18.0961 29.554 17.8268 10.9898 17.7651 7.72391Z" fill="#161417"/>
<path d="M43.4458 11.3342C43.4458 11.3342 35.9353 32.0413 36.5758 37.185C37.2163 42.3308 39.6479 52.8061 44.7721 50.3868C49.8953 47.9644 46.0819 40.522 46.0244 37.251C45.9668 33.9799 55.8246 13.3616 43.4458 11.3342Z" fill="#3A2F27"/>
<path d="M42.7539 51.2767C37.8918 50.4816 36.2797 39.4599 36.0062 37.2582C35.3565 32.035 42.5966 11.9869 42.905 11.1371C43.0007 10.8752 43.267 10.7206 43.5394 10.7649C45.9627 11.1619 47.7599 12.2736 48.8785 14.07C51.8971 18.9157 49.3339 27.4574 47.6396 33.1075C47.0751 34.9864 46.5899 36.6095 46.6002 37.2427C46.6145 38.0378 46.888 39.1804 47.178 40.3921C48.0396 43.9921 49.2198 48.9224 45.0179 50.9096C44.2478 51.2736 43.4859 51.3973 42.7539 51.2767ZM43.8221 11.991C42.7271 15.0661 36.5851 32.5836 37.1495 37.1149C37.8877 43.0506 40.0149 49.6577 42.9389 50.1372C42.941 50.1372 42.941 50.1372 42.941 50.1372C43.4448 50.2207 43.963 50.13 44.5274 49.8639C47.8822 48.2779 46.9127 44.2303 46.0583 40.6591C45.7396 39.3299 45.4661 38.1822 45.4486 37.2603C45.4343 36.4497 45.8969 34.907 46.5374 32.7734C48.0734 27.6533 50.6438 19.0818 47.9028 14.6805C47.0247 13.2739 45.6871 12.3911 43.8221 11.991Z" fill="#161417"/>
</svg>
