<svg width="44" height="43" viewBox="0 0 44 43" fill="none" xmlns="http://www.w3.org/2000/svg">
<path opacity="0.66" d="M40.048 24.8212C42.2979 23.0542 43.7548 20.2208 43.9731 16.998C44.3552 11.3373 40.6238 6.46236 35.6557 6.13093C34.2941 6.03943 32.9631 6.28448 31.7009 6.85787C31.6404 6.88532 31.5851 6.91785 31.5257 6.9453C30.7101 5.29018 29.5155 3.87702 28.0565 2.8685C25.8435 1.33945 23.1929 0.880962 20.7821 1.6099C20.4481 1.71157 20.1182 1.83558 19.7996 1.97893C18.0199 2.78717 16.646 4.20847 15.7874 5.96017C13.8878 5.45997 11.8982 5.56978 10.0878 6.39124C9.73019 6.55289 9.38283 6.74401 9.05395 6.95548C6.87266 8.36761 5.51721 10.7557 5.33278 13.5129C5.2252 15.1518 5.54179 16.8424 6.22928 18.4223C6.16678 18.4477 6.10527 18.4701 6.0438 18.4975C4.78154 19.0699 3.72419 19.9097 2.90352 20.9904C-0.0943515 24.9371 1.18025 30.9262 5.7457 34.3431C8.34399 36.287 11.4576 37.0475 14.2762 36.5148C14.3161 36.6093 14.3551 36.7059 14.3971 36.7973C16.4616 41.2778 22.2493 44.9794 31.7665 40.6617C41.2816 36.3439 42.2467 29.5791 40.1833 25.0977C40.1433 25.0062 40.0941 24.9127 40.048 24.8212Z" fill="#075C54"/>
<path d="M38.7673 23.5503C41.0172 21.7834 42.4741 18.95 42.6924 15.7272C43.0745 10.0664 39.3431 5.19153 34.375 4.8601C33.0134 4.7686 31.6824 5.01364 30.4202 5.58704C30.3597 5.61449 30.3044 5.64702 30.245 5.67447C29.4294 4.01935 28.2348 2.60619 26.7758 1.59767C24.5628 0.0686174 21.9122 -0.38987 19.5014 0.339072C19.1674 0.440738 18.8375 0.564745 18.5189 0.708094C16.7392 1.51634 15.3653 2.93764 14.5067 4.68933C12.6072 4.18914 10.6175 4.29895 8.80707 5.12041C8.44949 5.28206 8.10213 5.47318 7.77325 5.68464C5.59196 7.09678 4.23651 9.48492 4.05208 12.2421C3.94451 13.8809 4.2611 15.5716 4.94858 17.1515C4.88608 17.1769 4.82457 17.1993 4.7631 17.2267C3.50084 17.7991 2.44349 18.6389 1.62282 19.7196C-1.37505 23.6662 -0.100447 29.6553 4.465 33.0723C7.06329 35.0162 10.1769 35.7767 12.9955 35.2439C13.0354 35.3385 13.0744 35.435 13.1164 35.5265C15.1809 40.0069 20.9686 43.7086 30.4848 39.3909C40.0009 35.0731 40.966 28.3083 38.9026 23.8268C38.8626 23.7353 38.8134 23.6418 38.7673 23.5503Z" fill="white"/>
<path d="M17.6848 33.4524C15.9841 29.761 16.4646 21.0218 21.0628 18.9356C25.66 16.8494 32.6353 22.2072 34.336 25.8987C36.0368 29.5902 32.9959 32.7723 28.3987 34.8585C23.8005 36.9436 19.3856 37.1439 17.6848 33.4524Z" fill="#DFB96D"/>
<path d="M28.7675 35.6565C23.0505 38.251 18.6059 37.5638 16.8795 33.8174C15.0599 29.8677 15.4185 20.5297 20.694 18.1355C25.9695 15.7423 33.3217 21.582 35.1434 25.5306C36.8688 29.278 34.4856 33.064 28.7675 35.6565ZM21.4317 19.7357C17.3929 21.5687 16.9841 29.8138 18.4922 33.0874C20.3149 37.0422 25.7707 35.0831 28.0319 34.0573C30.2921 33.0315 35.3534 30.2195 33.5307 26.2637C32.0215 22.991 25.4695 17.9037 21.4317 19.7357Z" fill="#111D32"/>
<path d="M16.0747 18.3831C17.8456 17.2375 18.0332 14.4092 16.4937 12.0659C14.9542 9.72261 12.2706 8.75166 10.4997 9.89721C8.72877 11.0428 8.54119 13.871 10.0807 16.2143C11.6202 18.5576 14.3037 19.5286 16.0747 18.3831Z" fill="#DFB96D"/>
<path d="M16.0804 19.3525C13.9042 20.3397 11.0139 19.1807 9.35516 16.6564C8.50682 15.3652 8.09089 13.892 8.18208 12.5114C8.28044 11.0352 8.93719 9.83152 10.0335 9.12291C10.1913 9.02023 10.3572 8.93079 10.5293 8.85149C12.7044 7.86432 15.5958 9.02328 17.2536 11.5476C19.0568 14.2926 18.7524 17.673 16.5752 19.0821C16.4175 19.1838 16.2515 19.2752 16.0804 19.3525ZM11.266 10.4507C11.1759 10.4924 11.0867 10.5412 11.0016 10.5961C10.3838 10.9956 10.0109 11.7164 9.95149 12.6263C9.88387 13.6308 10.1994 14.7216 10.8398 15.6966C12.0805 17.5856 14.2475 18.4873 15.6071 17.61C16.9431 16.7448 17.0169 14.4095 15.7679 12.5084C14.605 10.7374 12.6277 9.83358 11.266 10.4507Z" fill="#111D32"/>
<path d="M23.9389 14.7843C25.961 14.1724 26.9335 11.5073 26.1112 8.83172C25.2889 6.15609 22.9831 4.4831 20.961 5.095C18.939 5.7069 17.9664 8.37197 18.7887 11.0476C19.611 13.7232 21.9169 15.3962 23.9389 14.7843Z" fill="#DFB96D"/>
<path d="M24.6775 15.4567C24.5259 15.5259 24.3681 15.5859 24.2052 15.6347C22.9532 16.0128 21.6018 15.7404 20.3979 14.8671C19.2709 14.0497 18.4021 12.788 17.9482 11.3129C16.9892 8.19275 18.1859 5.02892 20.7115 4.26236C23.1981 3.51105 26.0044 5.44878 26.9664 8.58414C27.865 11.504 26.8803 14.4584 24.6775 15.4567ZM20.9768 6.04046C19.6019 6.66468 19.0168 8.75493 19.6449 10.8004C19.9871 11.9137 20.6265 12.8551 21.4451 13.4478C22.1879 13.9866 22.9839 14.1656 23.6878 13.9521C25.2451 13.4834 25.9367 11.263 25.2728 9.09855C24.6068 6.92799 22.7534 5.48433 21.2289 5.94589C21.1418 5.9713 21.0588 6.00284 20.9768 6.04046Z" fill="#111D32"/>
<path d="M33.3588 20.4646C35.5692 20.6119 37.5216 18.361 37.7194 15.437C37.9173 12.5131 36.2858 10.0234 34.0753 9.87611C31.8649 9.72883 29.9126 11.9797 29.7148 14.9037C29.5169 17.8276 31.1484 20.3173 33.3588 20.4646Z" fill="#DFB96D"/>
<path d="M35.2213 20.9344C34.5901 21.2211 33.9313 21.3431 33.2633 21.2983C30.5687 21.1184 28.5646 18.2036 28.7952 14.8009C28.9632 12.3162 30.2767 10.1639 32.1414 9.31805C32.7726 9.03237 33.4313 8.90939 34.0993 8.95412C36.7929 9.13407 38.797 12.0488 38.5675 15.4526C38.3984 17.9373 37.0849 20.0885 35.2213 20.9344ZM32.877 10.9183C31.6168 11.4907 30.6855 13.098 30.5615 14.9188C30.3996 17.3131 31.6916 19.4307 33.3811 19.5436C33.751 19.568 34.1239 19.4979 34.4825 19.3352C35.7428 18.7628 36.673 17.1545 36.797 15.3347C36.9589 12.9404 35.668 10.8227 33.9785 10.7099C33.6076 10.6855 33.2377 10.7546 32.877 10.9183Z" fill="#111D32"/>
<path d="M5.6434 22.69C4.30957 24.445 5.13964 27.2981 7.49745 29.0625C9.85526 30.8269 12.8479 30.8344 14.1818 29.0794C15.5156 27.3243 14.6855 24.4713 12.3277 22.7069C9.96989 20.9425 6.97724 20.9349 5.6434 22.69Z" fill="#DFB96D"/>
<path d="M13.3233 30.8689C11.4597 31.7148 8.95969 31.2918 6.95565 29.7933C4.21085 27.7386 3.30106 24.3277 4.92704 22.1897C5.33072 21.659 5.85427 21.2442 6.4854 20.9585C8.34907 20.1127 10.85 20.5346 12.853 22.0342C14.146 23 15.0804 24.2962 15.4821 25.6819C15.9124 27.1571 15.6993 28.5621 14.8827 29.6388C14.479 30.1685 13.9555 30.5822 13.3233 30.8689ZM7.22205 22.5587C6.8614 22.7224 6.5663 22.9542 6.34294 23.2491C5.3235 24.591 6.093 26.9456 8.0243 28.3903C9.49352 29.4883 11.3264 29.8421 12.5866 29.2697C12.9473 29.107 13.2434 28.8742 13.4667 28.5794C13.939 27.9572 14.0508 27.1012 13.7803 26.1699C13.4831 25.1482 12.7752 24.1783 11.7865 23.4392C10.3173 22.3402 8.48328 21.9864 7.22205 22.5587Z" fill="#111D32"/>
</svg>
