<svg width="62" height="84" viewBox="0 0 62 84" fill="none" xmlns="http://www.w3.org/2000/svg">
<path d="M60.7402 23.1406C60.8085 22.9129 60.8523 22.6761 60.8696 22.4302C60.9063 21.903 60.8166 21.3848 60.6159 20.9052C60.8971 20.6562 61.1416 20.3658 61.3352 20.0419C61.7265 19.3842 61.8834 18.6211 61.7897 17.8318C61.7448 17.4381 61.6399 17.0475 61.4738 16.668C61.4616 16.6427 61.4483 16.6174 61.4361 16.5921C61.4565 16.5041 61.4738 16.412 61.4911 16.3098C61.4952 16.2855 61.4993 16.2602 61.5023 16.2349C61.5594 15.819 61.5431 15.4081 61.4534 15.0084C61.325 14.4406 61.0499 13.9225 60.6627 13.5116C60.6607 13.5096 60.6587 13.5076 60.6567 13.5046C60.6628 13.4398 60.6679 13.375 60.6699 13.3093C60.6882 12.8599 60.622 12.4217 60.4763 12.0078C60.3184 11.5595 60.0688 11.1527 59.7427 10.8117C59.7111 10.3695 59.6011 9.94746 59.4156 9.54976C59.1844 9.05793 58.8359 8.62987 58.408 8.31211C58.2684 8.20889 58.1207 8.12185 57.9678 8.04393C57.9515 7.92654 57.9311 7.80814 57.9036 7.69075C57.7804 7.17262 57.5338 6.68788 57.1935 6.29321L57.171 6.2669C57.1384 6.22845 57.1048 6.191 57.0681 6.15457C56.7136 5.78419 56.2917 5.5069 55.819 5.32981C55.7477 4.8643 55.5867 4.41397 55.3411 4.00715C54.9601 3.3777 54.3803 2.88082 53.6641 2.56812C53.3136 2.41228 52.9345 2.30298 52.5382 2.24328C52.2233 2.19571 51.9014 2.17548 51.5743 2.18357C51.2748 2.19167 50.9763 2.22304 50.692 2.27566C50.3955 2.3293 50.1102 2.4052 49.8422 2.50133C49.3776 2.6673 48.9385 2.88791 48.533 3.1581C48.1835 3.39187 47.8605 3.65499 47.5732 3.93733C47.3327 4.17312 47.1065 4.42105 46.8997 4.67809C46.7224 4.89972 46.5604 5.11932 46.4188 5.33183C46.3393 5.44821 46.2537 5.57775 46.161 5.72549C46.0774 5.86009 45.9949 5.99367 45.9165 6.1232C45.839 6.25071 45.7698 6.36506 45.7168 6.45614C45.6373 6.5877 45.5904 6.66967 45.5701 6.7061C45.5487 6.74455 45.5222 6.79009 45.4967 6.83259C45.3897 7.01475 45.3 7.20197 45.2267 7.39424C44.3769 7.58247 43.5649 7.90327 42.8313 8.3536C39.8694 10.1701 38.7476 13.456 38.1455 15.2209C36.7659 19.2637 35.6696 23.4321 34.8738 27.651C33.7602 27.4294 32.617 27.2604 31.4758 27.1501C31.7835 22.8907 31.7907 18.6029 31.4962 14.3647C31.3668 12.5057 31.1254 9.04478 28.7269 6.53912C27.4849 5.24278 25.7772 4.39676 23.9168 4.15693C22.0858 3.92114 20.2437 4.29253 18.7266 5.20129C15.8788 6.90951 14.2506 10.1964 14.0193 14.7078C13.9694 15.6844 13.9664 16.6518 14.0041 17.6122C13.5731 17.4118 13.1054 17.2722 12.6051 17.2074C12.0009 17.1295 11.3937 17.1699 10.7986 17.3278C9.63813 17.6344 8.64779 18.3529 7.97634 19.3649C6.32474 19.2425 4.76176 19.8557 3.74594 21.0357C2.61905 22.3472 2.27773 24.2153 2.81163 26.1603C3.51466 28.7247 5.30076 30.4947 6.77814 31.7495L6.94932 31.8952C8.12001 32.893 9.33147 33.9212 11.3601 34.662C10.0477 36.6627 9.08082 39.0449 8.33806 42.103C7.17042 46.919 6.37262 52.5689 9.32432 57.9587C10.492 60.0909 11.9663 61.8174 13.6026 63.22C13.031 63.5418 12.5593 64.0265 12.2302 64.6327C11.9877 65.08 11.8287 65.5627 11.7615 66.0657C11.6474 66.8702 11.5271 67.6899 11.4018 68.5015L11.0197 71.0051C11.0167 71.0264 11.0157 71.0335 11.0126 71.0537C11.0065 71.0962 10.9922 71.1903 10.9698 71.335C10.9403 71.5303 10.9036 71.7732 10.8618 72.0616C10.8211 72.3338 10.7742 72.6384 10.7222 72.9734C10.6642 73.3397 10.6112 73.7132 10.5623 74.0835L10.4502 74.9458C10.4115 75.2443 10.3799 75.5115 10.3534 75.7452C10.3259 76.0063 10.3055 76.2249 10.2933 76.405C10.2688 76.7592 10.2637 77.2227 10.4237 77.7297C10.5725 78.2063 10.8333 78.6536 11.194 79.0554C11.4477 79.3408 11.7401 79.5938 12.059 79.8073C12.4176 80.0461 12.8048 80.2293 13.2124 80.3517C13.6821 80.4934 14.164 80.5369 14.6347 80.4823C15.0994 81.048 15.8931 81.6997 17.1799 81.9375C17.2563 81.9527 17.3328 81.9648 17.4112 81.975C18.6135 82.1298 19.7852 81.6349 20.529 80.6402C20.5412 80.624 20.5514 80.6078 20.5626 80.5926C20.8326 80.9913 21.1485 81.2676 21.4287 81.4548C21.8413 81.7311 22.3212 81.9436 22.8531 82.0873C23.0191 82.1318 23.1852 82.1652 23.3523 82.1865C23.5979 82.2178 23.8424 82.2229 24.0838 82.2047C24.3386 82.4526 24.631 82.6692 24.9672 82.8483C25.3198 83.0355 25.6988 83.1752 26.0921 83.2642C26.2225 83.2936 26.3539 83.3168 26.4854 83.333C26.8104 83.3755 27.1364 83.3786 27.4605 83.3431C28.0076 83.2834 28.5221 83.0972 28.9674 82.8078C29.2292 83.0679 29.5339 83.2946 29.8833 83.4808C30.2369 83.668 30.6149 83.8076 31.0082 83.8967C31.1396 83.926 31.27 83.9493 31.4015 83.9655C31.7265 84.008 32.0536 84.0111 32.3765 83.9756C33.2049 83.8856 33.9619 83.5101 34.507 82.9161C34.6069 82.8078 34.6986 82.6924 34.7801 82.57C34.8453 82.4718 34.8993 82.3757 34.9482 82.2785C35.3823 82.7177 35.9253 83.0497 36.5631 83.2622C36.8393 83.3553 37.0797 83.412 37.3201 83.4443C38.7344 83.6255 40.0711 82.9454 40.7283 81.7098C40.9708 81.2534 41.141 80.7363 41.2347 80.1716C41.2408 80.1392 41.2459 80.1058 41.25 80.0734L41.2612 79.9915C41.2948 79.7304 41.3233 79.4359 41.3447 79.0878C41.3631 78.8024 41.3804 78.5029 41.3977 78.1881C41.414 77.8987 41.4324 77.6022 41.4558 77.2956C41.4752 77.0294 41.5017 76.7693 41.5332 76.5234C41.5618 76.2978 41.5974 76.0954 41.6392 75.9193C41.8022 75.6511 41.9449 75.386 42.0641 75.1269C42.1374 74.968 42.2291 74.7798 42.3361 74.5653C42.5338 74.1716 42.7437 73.7708 42.9587 73.3742C43.2083 72.9157 43.4335 72.4796 43.6291 72.0788C43.6484 72.0404 43.6658 72.0019 43.6831 71.9635C43.7137 71.8906 43.7422 71.8258 43.7646 71.7722C43.8828 71.4888 43.9633 71.1903 44.004 70.8837C44.0723 70.3524 44.0305 69.8302 43.8746 69.3242C43.8043 69.0955 43.7147 68.8658 43.6087 68.6411C43.5863 68.5936 43.5618 68.546 43.5374 68.4995C43.0881 67.6666 42.3697 67.0675 41.5149 66.7973C42.278 66.4006 43.03 65.9452 43.7615 65.418C46.6888 63.309 48.9324 60.2802 50.4311 56.4175C51.6049 53.3886 52.2977 49.9246 52.4893 46.1226C52.638 43.1575 52.0675 40.41 50.7938 37.957C50.1978 36.8084 49.4459 35.7266 48.5462 34.7227C49.9655 32.3466 51.4541 29.7164 52.6931 26.8768C53.0354 26.9841 53.3859 27.0479 53.7425 27.0661C53.9881 27.0782 54.2356 27.0732 54.4832 27.0519C54.6778 27.4567 54.9693 27.822 55.3473 28.1145C55.7732 28.4434 56.2693 28.6427 56.79 28.7095C57.3911 28.7874 58.0228 28.6873 58.6107 28.4029C59.1681 28.1327 59.6439 27.7147 60.0657 27.1238C60.0728 27.1136 60.0799 27.1045 60.0871 27.0944C60.2674 26.8353 60.4213 26.5682 60.5456 26.298C60.7565 25.8396 60.889 25.3649 60.9368 24.8903C60.9878 24.3955 60.9531 23.9087 60.8339 23.4452C60.8054 23.34 60.7728 23.2398 60.7402 23.1406Z" fill="#CADBE3"/>
<path d="M58.1756 20.9588C58.2439 20.7311 58.2877 20.4943 58.305 20.2494C58.3417 19.7221 58.252 19.203 58.0503 18.7243C58.3325 18.4744 58.5771 18.1849 58.7706 17.8611C59.1619 17.2043 59.3178 16.4403 59.2241 15.651C59.1803 15.2573 59.0753 14.8667 58.9092 14.4872C58.897 14.4619 58.8827 14.4366 58.8715 14.4113C58.8919 14.3232 58.9092 14.2311 58.9266 14.13C58.9306 14.1047 58.9347 14.0794 58.9377 14.0551C58.9948 13.6391 58.9785 13.2283 58.8888 12.8285C58.7605 12.2608 58.4854 11.7417 58.0982 11.3318C58.0961 11.3298 58.0941 11.3278 58.0921 11.3248C58.0982 11.26 58.1023 11.1952 58.1053 11.1294C58.1237 10.6801 58.0574 10.2419 57.9107 9.82804C57.7528 9.37973 57.5042 8.97292 57.1782 8.63188C57.1466 8.19066 57.0365 7.76765 56.8511 7.36995C56.6198 6.87813 56.2713 6.44904 55.8424 6.13229C55.7038 6.02907 55.5561 5.94204 55.4022 5.86412C55.3869 5.74572 55.3666 5.62833 55.3391 5.50993C55.2158 4.9918 54.9692 4.50706 54.6289 4.11239L54.6065 4.08608C54.5739 4.04762 54.5392 4.01018 54.5036 3.97375C54.149 3.60336 53.7272 3.32608 53.2544 3.14899C53.1831 2.68247 53.0211 2.23315 52.7766 1.82633C52.3955 1.19688 51.8158 0.698991 51.0995 0.38629C50.748 0.231458 50.37 0.121151 49.9736 0.0614445C49.6578 0.0138815 49.3358 -0.00635804 49.0098 0.00173778C48.7102 0.0098336 48.4117 0.041205 48.1274 0.0928159C47.8309 0.147463 47.5456 0.223361 47.2766 0.318486C46.813 0.484451 46.3739 0.704049 45.9684 0.976271C45.6189 1.21004 45.2959 1.47315 45.0086 1.75549C44.7682 1.99027 44.542 2.23922 44.3351 2.49626C44.1578 2.71687 43.9959 2.93748 43.8542 3.15C43.7737 3.26536 43.6891 3.39591 43.5964 3.54366C43.5119 3.67825 43.4304 3.81183 43.3519 3.94137C43.2745 4.06989 43.2052 4.18323 43.1522 4.27431C43.0727 4.40586 43.0259 4.48783 43.0055 4.52325C42.9841 4.56171 42.9566 4.60724 42.9321 4.64975C42.8252 4.8319 42.7355 5.01912 42.6621 5.2114C41.8124 5.39962 41.0003 5.72042 40.2667 6.17075C37.3049 7.98725 36.183 11.2731 35.5809 13.038C34.2013 17.0809 33.105 21.2492 32.3092 25.4692C31.1956 25.2485 30.0524 25.0795 28.9113 24.9682C29.219 20.7088 29.2261 16.4211 28.9317 12.1829C28.8013 10.3239 28.5608 6.86295 26.1623 4.35628C24.9203 3.05993 23.2127 2.21392 21.3512 1.97509C19.5213 1.7393 17.6791 2.1107 16.162 3.02047C13.3142 4.72868 11.6861 8.01559 11.4548 12.527C11.4049 13.5035 11.4018 14.471 11.4395 15.4314C11.0075 15.231 10.5408 15.0913 10.0395 15.0266C9.43636 14.9486 8.82911 14.9891 8.23408 15.147C7.07357 15.4536 6.0822 16.1721 5.41076 17.1841C3.76017 17.0617 2.1972 17.6739 1.18138 18.8549C0.0534759 20.1664 -0.286823 22.0345 0.247071 23.9795C0.9501 26.5439 2.73621 28.3138 4.21359 29.5687L4.38476 29.7154C5.55545 30.7132 6.7659 31.7414 8.79551 32.4822C7.48217 34.4828 6.51627 36.865 5.7735 39.9222C4.60586 44.7382 3.80806 50.3891 6.75977 55.7779C7.92741 57.9101 9.40071 59.6365 11.0381 61.0391C10.4665 61.361 9.99471 61.8457 9.66561 62.4509C9.42311 62.8992 9.26418 63.3809 9.19693 63.8848C9.08282 64.6894 8.96259 65.5091 8.83727 66.3207L8.45519 68.8253C8.45213 68.8455 8.45112 68.8526 8.44807 68.8729C8.44195 68.9154 8.42767 69.0095 8.40525 69.1552C8.37468 69.3505 8.33903 69.5934 8.29624 69.8808C8.2565 70.154 8.20964 70.4576 8.15768 70.7936C8.09961 71.1599 8.04661 71.5334 7.9977 71.9037L7.88564 72.7649C7.84692 73.0635 7.81534 73.3296 7.78885 73.5644C7.76032 73.8265 7.73994 74.0441 7.72772 74.2242C7.70428 74.5784 7.69919 75.0429 7.85915 75.5489C8.00791 76.0255 8.26872 76.4738 8.62941 76.8756C8.88311 77.161 9.17553 77.414 9.49444 77.6265C9.85308 77.8663 10.2403 78.0495 10.6478 78.1719C11.1175 78.3136 11.5995 78.3561 12.0702 78.3025C12.5338 78.8672 13.3285 79.5199 14.6143 79.7577C14.6918 79.7729 14.7682 79.785 14.8456 79.7951C16.0489 79.949 17.2206 79.4551 17.9644 78.4593C17.9767 78.4431 17.9858 78.4269 17.998 78.4118C18.268 78.8105 18.5839 79.0878 18.8641 79.274C19.2767 79.5502 19.7566 79.7638 20.2875 79.9065C20.4536 79.951 20.6206 79.9844 20.7877 80.0066C21.0333 80.038 21.2768 80.0421 21.5193 80.0249C21.773 80.2728 22.0664 80.4894 22.4027 80.6685C22.7552 80.8557 23.1342 80.9953 23.5275 81.0834C23.6579 81.1127 23.7894 81.136 23.9208 81.1522C24.2458 81.1947 24.5719 81.1977 24.8959 81.1633C25.443 81.1036 25.9575 80.9164 26.4028 80.627C26.6646 80.8881 26.9693 81.1137 27.3188 81.301C27.6713 81.4882 28.0503 81.6278 28.4436 81.7159C28.574 81.7452 28.7055 81.7685 28.8369 81.7847C29.1619 81.8272 29.488 81.8302 29.812 81.7958C30.6403 81.7058 31.3974 81.3293 31.9425 80.7363C32.0423 80.628 32.133 80.5126 32.2145 80.3902C32.2807 80.292 32.3347 80.1949 32.3836 80.0987C32.8177 80.5379 33.3608 80.8699 33.9986 81.0834C34.2747 81.1755 34.5151 81.2332 34.7556 81.2645C36.1698 81.4467 37.5066 80.7656 38.1637 79.531C38.4062 79.0746 38.5764 78.5575 38.6701 77.9928C38.6763 77.9604 38.6814 77.928 38.6854 77.8946L38.6966 77.8127C38.7303 77.5516 38.7578 77.2571 38.7802 76.909C38.7985 76.6236 38.8158 76.3241 38.8332 76.0093C38.8495 75.7209 38.8678 75.4234 38.8913 75.1168C38.9106 74.8506 38.9371 74.5905 38.9687 74.3456C38.9972 74.12 39.0329 73.9176 39.0746 73.7405C39.2377 73.4723 39.3803 73.2072 39.4995 72.9481C39.5729 72.7892 39.6646 72.6 39.7715 72.3865C39.9692 71.9928 40.1781 71.592 40.3941 71.1954C40.6437 70.7369 40.8689 70.3008 41.0645 69.9C41.0839 69.8616 41.1002 69.8231 41.1175 69.7836C41.1491 69.7118 41.1776 69.646 41.2 69.5934C41.3182 69.3111 41.3987 69.0115 41.4385 68.7049C41.5077 68.1726 41.466 67.6514 41.3101 67.1454C41.2398 66.9167 41.1501 66.687 41.0441 66.4623C41.0217 66.4148 40.9973 66.3672 40.9728 66.3207C40.5235 65.4868 39.8052 64.8887 38.9503 64.6195C39.7135 64.2218 40.4644 63.7664 41.197 63.2392C44.1242 61.1302 46.3678 58.1014 47.8666 54.2387C49.0403 51.2098 49.7332 47.7458 49.9237 43.9428C50.0725 40.9787 49.5019 38.2312 48.2293 35.7782C47.6332 34.6296 46.8813 33.5478 45.9816 32.5439C47.4009 30.1678 48.8895 27.5376 50.1285 24.698C50.4708 24.8053 50.8213 24.8691 51.1769 24.8873C51.4235 24.8994 51.6711 24.8944 51.9187 24.8731C52.1133 25.2779 52.4037 25.6432 52.7827 25.9367C53.2076 26.2646 53.7048 26.4649 54.2254 26.5317C54.8266 26.6097 55.4583 26.5095 56.0462 26.2251C56.6035 25.9549 57.0793 25.537 57.5011 24.946C57.5083 24.9369 57.5154 24.9267 57.5225 24.9166C57.7029 24.6575 57.8567 24.3904 57.981 24.1202C58.1919 23.6618 58.3234 23.1882 58.3723 22.7125C58.4222 22.2177 58.3886 21.7309 58.2694 21.2674C58.2408 21.1581 58.2093 21.0579 58.1756 20.9588Z" fill="white"/>
<path d="M17.7893 30.4167C17.7098 30.4107 17.6416 30.357 17.6191 30.2801C15.9431 24.6029 14.209 18.7324 14.5207 12.6788C14.645 10.2713 15.3053 7.09267 17.7485 5.62834C18.4852 5.18611 19.3574 4.95335 20.2723 4.95335C21.6865 4.95335 23.0223 5.50184 23.9362 6.45614C25.4472 8.03482 25.7254 10.3472 25.868 12.3914C26.2939 18.5149 26.0697 24.7001 25.2037 30.774C25.1905 30.8691 25.109 30.9379 25.0132 30.9379C25.0081 30.9379 17.7893 30.4167 17.7893 30.4167Z" fill="#FACFCE"/>
<path d="M20.2722 5.14361C21.5794 5.14361 22.8938 5.64353 23.7965 6.58669C25.2392 8.09454 25.5306 10.329 25.6763 12.4045C26.1022 18.5189 25.8791 24.6788 25.0131 30.7466L17.8044 30.2265C16.1151 24.5027 14.4075 18.6454 14.7142 12.6889C14.8487 10.0628 15.5833 7.15036 17.8483 5.79229C18.5768 5.35511 19.4224 5.14361 20.2722 5.14361ZM20.2722 4.76311C19.3226 4.76311 18.4168 5.00598 17.6496 5.46643C15.1339 6.97428 14.4554 10.2156 14.3291 12.6697C14.0163 18.7567 15.7545 24.6424 17.4356 30.3348C17.4804 30.4876 17.617 30.5959 17.7759 30.608L24.9845 31.1282C24.9947 31.1292 25.0039 31.1292 25.0131 31.1292C25.2026 31.1292 25.3656 30.9905 25.3921 30.8023C26.2622 24.7122 26.4853 18.5139 26.0574 12.3792C25.9127 10.3017 25.6284 7.94982 24.0746 6.32661C23.125 5.33184 21.7394 4.76311 20.2722 4.76311Z" fill="#243645"/>
<path d="M23.1475 19.5481C23.1475 18.5715 23.12 17.596 23.0436 16.6225C22.9366 15.2391 22.8377 12.952 21.7221 11.9471C19.776 10.1964 18.6552 12.7547 18.3119 14.4093C17.7383 17.175 18.374 20.0966 18.8876 22.8208C18.9996 23.4209 20.2956 29.9199 19.94 29.9806C19.9431 29.9806 23.3136 29.4118 23.3146 29.4118C23.123 29.4442 23.0813 22.5678 23.1006 21.9819C23.1281 21.1713 23.1475 20.3597 23.1475 19.5481Z" fill="#F7E8B4" stroke="#243645" stroke-width="0.3767" stroke-miterlimit="10" stroke-linecap="round" stroke-linejoin="round"/>
<path d="M41.675 33.4891L34.5703 32.1685C34.4705 32.1502 34.4032 32.0582 34.4155 31.959C35.1348 25.8649 36.5052 19.8274 38.4879 14.0146C39.1492 12.0746 40.0122 9.908 41.8777 8.76345C42.6246 8.30503 43.5131 8.06316 44.4474 8.06316C45.8412 8.06316 47.1627 8.59749 48.0726 9.52952C50.0594 11.5646 49.8831 14.805 49.3859 17.1639C48.1337 23.0971 44.9507 28.3351 41.8747 33.4011C41.839 33.4587 41.7759 33.4921 41.7107 33.4921C41.6995 33.4921 41.6872 33.4911 41.675 33.4891Z" fill="#FACFCE"/>
<path d="M44.4493 8.25342C45.7402 8.25342 47.0362 8.73917 47.9369 9.66209C49.7801 11.5494 49.7414 14.552 49.1993 17.1244C47.9665 22.9625 44.8131 28.1944 41.7116 33.3019L34.6069 31.9813C35.3252 25.8932 36.6905 19.881 38.6702 14.0763C39.3416 12.106 40.1975 10.0193 41.9785 8.92639C42.7192 8.47302 43.5822 8.25342 44.4493 8.25342ZM44.4493 7.87292C43.4793 7.87292 42.5562 8.1249 41.7788 8.60154C39.8582 9.77948 38.98 11.9815 38.3075 13.9539C36.3217 19.7778 34.9482 25.8274 34.2258 31.9367C34.2034 32.1361 34.3379 32.3182 34.5366 32.3557L41.6413 33.6763C41.6647 33.6804 41.6891 33.6824 41.7126 33.6824C41.845 33.6824 41.9704 33.6136 42.0407 33.4982C45.1259 28.4191 48.316 23.1669 49.5753 17.2023C50.0827 14.7979 50.259 11.4907 48.213 9.39594C47.2655 8.42849 45.8951 7.87292 44.4493 7.87292Z" fill="#243645"/>
<g opacity="0.5">
<path opacity="0.5" d="M16.5197 22.2055C16.266 20.8262 16.0734 19.4368 15.9552 18.0392C15.8533 16.8441 15.7728 15.6256 15.836 14.4265C15.9236 12.7445 16.3393 11.0394 17.1096 9.53456C17.8228 8.14106 18.8926 6.84876 20.3741 6.22943C21.2075 5.88131 22.0807 5.79732 22.9417 5.89751C21.4347 4.95637 19.3827 4.87136 17.8483 5.79226C15.5823 7.15033 14.8487 10.0638 14.7142 12.6889C14.4075 18.6454 16.1152 24.5027 17.8045 30.2265L18.7031 30.2912C17.7678 27.657 17.024 24.953 16.5197 22.2055Z" fill="#BBBDBF"/>
</g>
<g opacity="0.5">
<path opacity="0.5" d="M36.0597 24.7304C36.5549 22.2916 37.2437 19.8861 38.1209 17.5555C38.5285 16.4717 38.9809 15.402 39.4883 14.3587C39.9305 13.4509 40.4776 12.6211 41.2306 11.936C42.5154 10.7692 44.3117 10.164 46.0377 10.5334C47.4468 10.835 48.5788 11.6951 49.4132 12.8053C49.2258 11.6233 48.7795 10.5263 47.9369 9.66309C46.431 8.12185 43.8196 7.79903 41.9795 8.92637C40.1985 10.0193 39.3426 12.106 38.6712 14.0763C36.6915 19.882 35.3261 25.8942 34.6068 31.9812L35.3098 32.1118C35.2609 29.6345 35.5676 27.1541 36.0597 24.7304Z" fill="#BBBDBF"/>
</g>
<path d="M39.2835 21.6246C39.5342 20.6805 39.8114 19.7444 40.1343 18.8215C40.5918 17.511 41.2745 15.3241 42.6112 14.6349C44.9424 13.4337 45.3694 16.1913 45.2766 17.8783C45.1228 20.6977 43.7585 23.3622 42.5623 25.8669C42.2995 26.4184 39.3793 32.3759 39.7074 32.5236C39.7054 32.5236 36.5907 31.121 36.5896 31.121C36.7669 31.201 38.5714 24.5624 38.7028 23.9906C38.8862 23.1983 39.0747 22.4089 39.2835 21.6246Z" fill="#F7E8B4" stroke="#243645" stroke-width="0.3767" stroke-miterlimit="10" stroke-linecap="round" stroke-linejoin="round"/>
<path d="M45.6128 6.5715C45.4865 6.56441 45.405 6.53608 45.3673 6.48649C45.3296 6.43691 45.3163 6.3772 45.3296 6.30838C45.3428 6.23957 45.3703 6.16974 45.4131 6.09587C45.4569 6.02301 45.4936 5.95925 45.5221 5.90562C45.5344 5.88436 45.567 5.82769 45.623 5.73561C45.678 5.6425 45.7422 5.53726 45.8145 5.41683C45.8869 5.29742 45.9623 5.17598 46.0397 5.05252C46.1161 4.93007 46.1834 4.82786 46.2394 4.7469C46.3372 4.59915 46.4513 4.44331 46.5838 4.27836C46.7163 4.11341 46.863 3.95048 47.028 3.7916C47.19 3.6317 47.3744 3.48193 47.5792 3.34531C47.784 3.2087 48.0072 3.09637 48.2487 3.00934C48.3699 2.96683 48.5023 2.93141 48.647 2.9051C48.7907 2.87879 48.9374 2.86361 49.0892 2.85956C49.2411 2.85552 49.3908 2.86462 49.5365 2.88689C49.6843 2.90814 49.8157 2.94761 49.9339 3.00023C50.1101 3.07512 50.2355 3.1753 50.3099 3.29775C50.3842 3.42121 50.4199 3.55581 50.4199 3.70356C50.4199 3.8513 50.3883 4.00613 50.3262 4.17008C50.265 4.33503 50.1876 4.49492 50.0959 4.65279C50.0011 4.82179 49.8758 5.00698 49.7209 5.20533C49.5661 5.40469 49.4051 5.60911 49.239 5.81859C49.129 5.95824 49.0108 6.10295 48.8865 6.25374C48.7622 6.40452 48.6399 6.55834 48.5217 6.71722C48.4035 6.87509 48.2884 7.03195 48.1743 7.18881C48.0622 7.34465 47.9603 7.49543 47.8686 7.63913C47.8401 7.69985 47.8166 7.73527 47.8003 7.74741C47.783 7.75855 47.7351 7.77069 47.6557 7.78283C47.5477 7.80409 47.4387 7.78284 47.3286 7.72111C47.2186 7.65938 47.1299 7.59663 47.0637 7.53187C47.0199 7.48936 47.0077 7.41751 47.0291 7.31834C47.0505 7.21815 47.0892 7.1038 47.1473 6.97426C47.2053 6.84473 47.2777 6.70811 47.3653 6.56543C47.4529 6.42274 47.5426 6.2841 47.6332 6.15052C47.7239 6.01693 47.8085 5.8955 47.8859 5.78418C47.9634 5.67387 48.0245 5.58887 48.0663 5.52916C47.8523 5.4482 47.6343 5.37231 47.4111 5.29944C47.188 5.22658 46.974 5.15776 46.7713 5.09097C46.7346 5.13651 46.6877 5.20533 46.6307 5.2964C46.5726 5.38748 46.5094 5.48666 46.4391 5.59696C46.3688 5.70626 46.2975 5.81758 46.2272 5.93092C46.1569 6.04426 46.0917 6.14748 46.0326 6.24058C45.9908 6.3013 45.9572 6.35291 45.9287 6.39541C45.9011 6.43792 45.8736 6.47435 45.8461 6.50167C45.8186 6.529 45.786 6.54923 45.7504 6.56138C45.7147 6.57352 45.6688 6.57656 45.6128 6.5715ZM48.3139 5.20229C48.376 5.14663 48.4636 5.04645 48.5808 4.90072C48.698 4.755 48.8152 4.59308 48.9333 4.41599C49.0087 4.30163 49.0811 4.18424 49.1483 4.06281C49.2166 3.94137 49.2706 3.82803 49.3073 3.72379C49.345 3.61855 49.3592 3.52646 49.3501 3.44752C49.3399 3.36758 49.2991 3.31192 49.2278 3.28156C49.1463 3.2512 49.0434 3.2512 48.9191 3.28156C48.7948 3.31192 48.6613 3.36353 48.5207 3.4374C48.3791 3.51128 48.2354 3.60337 48.0867 3.71165C47.9379 3.81993 47.7983 3.93732 47.6659 4.06078C47.5324 4.18424 47.4091 4.30872 47.294 4.43319C47.1788 4.55766 47.0871 4.67303 47.0178 4.77828C47.028 4.78232 47.0933 4.80256 47.2135 4.84203C47.3327 4.8815 47.4662 4.92501 47.6129 4.97257C47.7606 5.02115 47.9012 5.06871 48.0357 5.11425C48.1702 5.15878 48.2629 5.18914 48.3139 5.20229Z" fill="#243645"/>
<path d="M50.0949 9.33218C50.1581 9.45058 50.1896 9.55684 50.1907 9.64994C50.1927 9.74405 50.1693 9.80275 50.1193 9.82906C50.0776 9.85132 50.0205 9.84424 49.9512 9.80781C49.8809 9.77036 49.8025 9.69649 49.7148 9.58416C49.6527 9.50624 49.5875 9.42022 49.5161 9.32611C49.4448 9.23199 49.3715 9.14091 49.2991 9.05287C49.2054 8.94257 49.1137 8.84542 49.0251 8.76143C48.9914 8.73005 48.9466 8.69261 48.8895 8.6491C48.8325 8.60558 48.7795 8.55701 48.7286 8.50135C48.7225 8.49426 48.7153 8.48616 48.7082 8.47908C48.6572 8.42342 48.6165 8.35663 48.5849 8.27972C48.5533 8.20281 48.5411 8.11072 48.5493 8.00446C48.5533 7.91743 48.5859 7.84255 48.6501 7.77981C48.7133 7.71706 48.7836 7.6614 48.861 7.61081C49.1545 7.42055 49.453 7.23637 49.7556 7.05523C49.7678 7.04207 49.779 7.02892 49.7913 7.01576C49.833 6.99046 49.8901 6.95302 49.9635 6.90444C50.0368 6.85587 50.1234 6.7992 50.2263 6.73747C50.3282 6.67574 50.4382 6.60996 50.5575 6.54013C50.6756 6.4703 50.7989 6.40149 50.9243 6.33268C51.0384 6.26994 51.1525 6.21124 51.2656 6.15457C51.3766 6.0979 51.4887 6.04528 51.5988 5.99569C51.7098 5.94813 51.8229 5.90056 51.935 5.85401C52.0603 5.80443 52.1602 5.79228 52.2305 5.81859C52.2997 5.84491 52.3629 5.88639 52.4179 5.94306C52.4261 5.95217 52.4332 5.96128 52.4404 5.96938C52.4872 6.02402 52.5188 6.08879 52.5372 6.16469C52.5555 6.24059 52.5575 6.31952 52.5422 6.40149C52.5269 6.48346 52.4923 6.5624 52.4383 6.64032C52.3833 6.71824 52.3059 6.78402 52.206 6.83664C51.6283 7.12809 51.1678 7.38109 50.8173 7.58146C50.4668 7.78284 50.1957 7.94678 49.9991 8.0662C49.8035 8.18662 49.667 8.27669 49.5895 8.33437C49.5111 8.39205 49.4632 8.43152 49.4458 8.45378C49.456 8.47706 49.4713 8.50438 49.4927 8.53575C49.5141 8.56611 49.5396 8.59951 49.5691 8.63493C49.5915 8.66731 49.617 8.69969 49.6425 8.73106C49.669 8.76243 49.6965 8.79482 49.7261 8.83024C49.7882 8.90411 49.8483 8.97799 49.9095 9.05287C49.94 9.09841 49.9736 9.14395 50.0083 9.1905C50.0419 9.23604 50.0704 9.2836 50.0949 9.33218Z" fill="#243645"/>
<path d="M53.8647 8.40825C53.8821 8.39914 53.9065 8.39104 53.9381 8.38396C54.0064 8.36979 54.0665 8.38194 54.1184 8.42039C54.1694 8.45783 54.2112 8.51147 54.2427 8.57826C54.2845 8.6663 54.3069 8.7675 54.309 8.87983C54.312 8.99114 54.2906 9.08222 54.2478 9.15205C54.1959 9.23301 54.1266 9.29879 54.038 9.34736C53.9483 9.39695 53.8627 9.45058 53.7802 9.51029C53.7588 9.53053 53.7139 9.56089 53.6447 9.60137C53.5754 9.64185 53.4929 9.68941 53.3961 9.74709C53.2993 9.80376 53.1943 9.86549 53.0772 9.93127C52.961 9.99705 52.8438 10.0638 52.7256 10.1306C52.6126 10.1964 52.4923 10.2662 52.366 10.3381C52.2386 10.4099 52.1235 10.4747 52.0165 10.5324C51.9095 10.5901 51.8219 10.6397 51.7506 10.6811C51.6813 10.7237 51.6426 10.75 51.6344 10.7621C51.6609 10.7651 51.7078 10.7682 51.773 10.7712C51.8382 10.7732 51.9156 10.7763 52.0053 10.7803C52.0939 10.7834 52.1927 10.7864 52.3008 10.7894C52.4077 10.7925 52.5188 10.7965 52.6309 10.8006C52.7643 10.8056 52.8978 10.8107 53.0292 10.8157C53.1607 10.8208 53.2809 10.8269 53.3889 10.8319C53.4969 10.838 53.5876 10.8441 53.663 10.8481C53.7364 10.8532 53.7832 10.8542 53.8036 10.8512C53.8413 10.837 53.878 10.8238 53.9147 10.8107C53.9717 10.7915 54.0604 10.7591 54.1806 10.7125C54.2998 10.666 54.472 10.6012 54.6951 10.5182C54.7145 10.5111 54.7308 10.5041 54.7461 10.5C54.7614 10.4949 54.7766 10.4919 54.793 10.4899C54.8908 10.4777 54.9743 10.5 55.0426 10.5557C55.1108 10.6113 55.1618 10.6842 55.1944 10.7742C55.2198 10.8481 55.2321 10.9301 55.228 11.0181C55.225 11.1062 55.2035 11.1851 55.1638 11.2539C55.1281 11.3116 55.0833 11.3632 55.0293 11.4088C54.9753 11.4543 54.9183 11.4958 54.8571 11.5342C54.796 11.5727 54.7349 11.6051 54.6727 11.6324C54.6106 11.6597 54.5566 11.684 54.5087 11.7043C54.5005 11.7043 54.4954 11.7063 54.4944 11.7093C54.4934 11.7113 54.4883 11.7134 54.4801 11.7144C54.1195 11.8733 53.7629 12.019 53.4134 12.1526C53.0629 12.2861 52.7012 12.4147 52.3272 12.5422C52.314 12.5533 52.3048 12.5604 52.2967 12.5614C52.2926 12.5614 52.3334 12.5655 52.4179 12.5715C52.5025 12.5786 52.6156 12.5897 52.7572 12.6049C52.8978 12.6201 53.0598 12.6383 53.2443 12.6596C53.4277 12.6808 53.6182 12.7061 53.8169 12.7365C54.0145 12.7658 54.2112 12.7982 54.4068 12.8306C54.6024 12.863 54.7807 12.8974 54.9407 12.9318C55.1017 12.9662 55.2382 12.9976 55.3523 13.0259C55.4654 13.0542 55.5377 13.0735 55.5693 13.0836C55.605 13.0988 55.6498 13.1129 55.7018 13.1251C55.7538 13.1372 55.8057 13.1564 55.8567 13.1838C55.9076 13.2091 55.9545 13.2445 55.9942 13.288C56.035 13.3305 56.0635 13.3872 56.0798 13.457C56.0941 13.5218 56.0961 13.5946 56.0849 13.6746C56.0706 13.7606 56.0584 13.8193 56.0472 13.8517C56.035 13.883 56.0176 13.8992 55.9922 13.8982C55.9687 13.8982 55.9351 13.8871 55.8933 13.8648C55.8526 13.8436 55.7986 13.8193 55.7324 13.792C55.5327 13.712 55.3319 13.6351 55.1322 13.5612C54.9325 13.4874 54.7155 13.4236 54.4822 13.371C54.2489 13.3184 54.0094 13.2728 53.7639 13.2344C53.5193 13.1959 53.2748 13.1656 53.0303 13.1433C52.7857 13.121 52.5524 13.1008 52.3303 13.0826C52.0827 13.0633 51.8565 13.0472 51.6528 13.034C51.45 13.0198 51.2819 13.0006 51.1494 12.9743C50.9956 12.9419 50.8988 12.864 50.856 12.7375C50.8509 12.7223 50.8458 12.7071 50.8407 12.6919C50.8254 12.6252 50.8254 12.5553 50.8387 12.4845C50.8509 12.4137 50.8764 12.3378 50.9151 12.2578C50.9507 12.1971 51.0271 12.1313 51.1453 12.0605C51.2615 11.9886 51.394 11.9158 51.5427 11.8409C51.6599 11.7822 51.7791 11.7245 51.9024 11.6678C52.0246 11.6112 52.1367 11.5585 52.2406 11.5079C52.3456 11.4583 52.4322 11.4128 52.5066 11.3713C52.5789 11.3298 52.6258 11.2944 52.6441 11.2661C52.6095 11.263 52.5117 11.2559 52.3527 11.2479C52.1938 11.2408 52.0104 11.2347 51.8066 11.2307C51.6018 11.2276 51.3909 11.2256 51.1769 11.2256C50.9619 11.2256 50.7785 11.2246 50.6277 11.2205C50.5014 11.2155 50.4118 11.1952 50.3578 11.1588C50.3038 11.1224 50.2599 11.0778 50.2283 11.0232C50.2222 11.01 50.2161 10.9979 50.21 10.9837C50.1855 10.9281 50.1815 10.8653 50.1978 10.7965C50.2141 10.7277 50.2661 10.6518 50.3537 10.5719C50.531 10.4201 50.7592 10.249 51.0404 10.0628C51.3206 9.87663 51.6191 9.6884 51.938 9.50017C52.1225 9.38987 52.3059 9.27956 52.4923 9.1733C52.6788 9.06603 52.854 8.96382 53.0221 8.86769C53.1892 8.77155 53.3451 8.6835 53.4898 8.60457C53.6355 8.5226 53.7598 8.45783 53.8647 8.40825Z" fill="#243645"/>
<path d="M51.2156 14.6127C51.1637 14.5186 51.1504 14.4447 51.1769 14.3921C51.2034 14.3384 51.2483 14.299 51.3135 14.2737C51.3776 14.2484 51.4531 14.2322 51.5356 14.2261C51.6191 14.22 51.6905 14.214 51.7495 14.2079C51.773 14.2059 51.8372 14.2008 51.9421 14.1927C52.0471 14.1846 52.1693 14.1765 52.3058 14.1684C52.4424 14.1603 52.582 14.1522 52.7246 14.1462C52.8662 14.1391 52.9854 14.136 53.0833 14.136C53.2554 14.132 53.4439 14.135 53.6487 14.1482C53.8535 14.1613 54.0634 14.1866 54.2784 14.2251C54.4944 14.2635 54.7104 14.3222 54.9264 14.4042C55.1424 14.4862 55.3472 14.5945 55.5388 14.7291C55.6345 14.7969 55.7283 14.8768 55.82 14.9709C55.9127 15.064 55.9973 15.1662 56.0747 15.2765C56.1511 15.3868 56.2163 15.5032 56.2683 15.6226C56.3213 15.7441 56.3529 15.8615 56.3651 15.9758C56.3865 16.1448 56.362 16.2885 56.2927 16.4049C56.2234 16.5213 56.1236 16.6164 55.9963 16.6893C55.8679 16.7631 55.7181 16.8168 55.5459 16.8522C55.3737 16.8886 55.1964 16.9109 55.0151 16.921C54.8225 16.9352 54.6014 16.9331 54.3528 16.918C54.1042 16.9018 53.8484 16.8856 53.5856 16.8684C53.4103 16.8572 53.228 16.8431 53.0374 16.8259C52.8459 16.8097 52.6533 16.7975 52.4597 16.7905C52.2661 16.7824 52.0735 16.7763 51.8851 16.7732C51.6955 16.7692 51.5172 16.7712 51.3481 16.7763C51.2829 16.7864 51.2411 16.7874 51.2218 16.7813C51.2034 16.7753 51.1698 16.7459 51.1219 16.6953C51.0526 16.6275 51.018 16.5395 51.02 16.4282C51.021 16.3179 51.0343 16.2227 51.0587 16.1428C51.0761 16.0892 51.1321 16.0446 51.2289 16.0102C51.3247 15.9748 51.4418 15.9454 51.5825 15.9222C51.722 15.8989 51.8738 15.8827 52.0389 15.8736C52.204 15.8655 52.366 15.8604 52.5259 15.8594C52.6839 15.8584 52.8306 15.8584 52.964 15.8594C53.0975 15.8604 53.1994 15.8625 53.2717 15.8635C53.2391 15.6661 53.2014 15.4678 53.1576 15.2694C53.1148 15.0701 53.0741 14.8798 53.0364 14.6977C52.9793 14.6946 52.8978 14.6957 52.7929 14.6997C52.6869 14.7048 52.5708 14.7088 52.4434 14.7139C52.316 14.7179 52.1866 14.724 52.0552 14.7311C51.9238 14.7371 51.8056 14.7432 51.6976 14.7473C51.6263 14.7483 51.5641 14.7503 51.5142 14.7523C51.4642 14.7544 51.4215 14.7523 51.3838 14.7473C51.3471 14.7422 51.3155 14.7291 51.289 14.7088C51.2625 14.6886 51.237 14.6562 51.2156 14.6127ZM53.6711 15.8817C53.7486 15.8989 53.878 15.9131 54.0614 15.9252C54.2438 15.9384 54.4404 15.9434 54.6513 15.9424C54.7868 15.9404 54.9234 15.9343 55.0609 15.9242C55.2005 15.9131 55.3238 15.8969 55.4318 15.8716C55.5408 15.8473 55.6274 15.8109 55.6926 15.7653C55.7568 15.7178 55.7843 15.6601 55.7762 15.5902C55.7619 15.5154 55.712 15.4395 55.6264 15.3615C55.5408 15.2846 55.4318 15.2118 55.2993 15.145C55.1669 15.0782 55.0191 15.0175 54.8531 14.9628C54.687 14.9082 54.5209 14.8636 54.3497 14.8292C54.1796 14.7938 54.0135 14.7655 53.8515 14.7452C53.6895 14.725 53.5458 14.7149 53.4215 14.7179C53.4236 14.728 53.4368 14.7857 53.4592 14.893C53.4806 15.0003 53.5071 15.1197 53.5356 15.2512C53.5632 15.3828 53.5896 15.5093 53.6141 15.6317C53.6385 15.7542 53.6569 15.8372 53.6711 15.8817Z" fill="#243645"/>
<path d="M53.5224 18.4744C53.6406 18.5371 53.7792 18.611 53.9361 18.699C54.093 18.7861 54.253 18.8832 54.4119 18.9895C54.5719 19.0957 54.7298 19.206 54.8836 19.3194C55.0375 19.4327 55.172 19.5451 55.2861 19.6523C55.3941 19.7758 55.444 19.9094 55.4349 20.0531C55.4267 20.1634 55.3788 20.2474 55.2902 20.303C55.2443 20.3273 55.1995 20.3476 55.1547 20.3617C55.1099 20.3759 55.0599 20.3759 55.0059 20.3607C54.9825 20.3546 54.9601 20.3435 54.9407 20.3314C54.9193 20.3172 54.8959 20.302 54.8704 20.2848C54.7125 20.1684 54.5413 20.0389 54.3538 19.8982C54.1664 19.7566 53.9789 19.624 53.7904 19.5015C53.6793 19.4287 53.5836 19.37 53.502 19.3224C53.4216 19.2759 53.3349 19.2172 53.2422 19.1473C53.1607 19.0846 53.0578 19.035 52.9325 18.9986C52.8072 18.9622 52.6696 18.9338 52.5209 18.9116C52.3915 18.8933 52.2559 18.8802 52.1174 18.8711C51.9788 18.862 51.8423 18.8559 51.7119 18.8518C51.5814 18.8478 51.4541 18.8438 51.3349 18.8407C51.2157 18.8367 51.1128 18.8306 51.0262 18.8225C51.0139 18.8215 51.0037 18.8205 50.9915 18.8195C50.8784 18.8043 50.7796 18.776 50.696 18.7345C50.6125 18.693 50.5707 18.6191 50.5707 18.5108C50.5707 18.4896 50.5748 18.4572 50.5819 18.4137C50.6013 18.3074 50.6329 18.2234 50.6787 18.1647C50.7246 18.106 50.7806 18.0625 50.8458 18.0352C50.8662 18.0281 50.9232 18.023 51.019 18.022C51.1158 18.02 51.231 18.021 51.3665 18.023C51.503 18.0261 51.6487 18.0321 51.8066 18.0423C51.9635 18.0534 52.1164 18.0645 52.2621 18.0767C52.4078 18.0888 52.5382 18.1 52.6523 18.1101C52.7664 18.1202 52.8479 18.1293 52.8948 18.1344C52.9345 18.105 52.9743 18.0757 53.015 18.0443C53.0548 18.0129 53.1026 17.9886 53.1577 17.9704C53.2096 17.9573 53.2789 17.9401 53.3665 17.9188C53.4552 17.8976 53.553 17.8743 53.6579 17.848C53.7639 17.8227 53.8739 17.7953 53.987 17.768C54.1011 17.7407 54.2112 17.7144 54.3171 17.6881C54.4231 17.6628 54.5199 17.6395 54.6086 17.6182C54.6962 17.597 54.7675 17.5808 54.8235 17.5687C54.8826 17.5565 54.9295 17.5423 54.9672 17.5241C55.0049 17.5059 55.0385 17.4998 55.0711 17.5039C55.1149 17.511 55.1628 17.5494 55.2127 17.6213C55.2392 17.6891 55.2535 17.7488 55.2556 17.8024C55.2576 17.8712 55.2423 17.9309 55.2127 17.9805C55.1822 18.0301 55.1435 18.0706 55.0956 18.102C55.0487 18.1333 54.9978 18.1576 54.9427 18.1769C54.8877 18.1961 54.8368 18.2123 54.7899 18.2244C54.7186 18.2436 54.6442 18.2609 54.5668 18.2791C54.4903 18.2973 54.417 18.3115 54.3477 18.3226C54.2784 18.3337 54.2163 18.3438 54.1602 18.3529C54.1052 18.3621 54.0655 18.3691 54.0421 18.3752C53.987 18.3863 53.93 18.3965 53.8699 18.4046C53.8108 18.4127 53.7558 18.4207 53.7048 18.4278C53.6528 18.4349 53.6121 18.443 53.5805 18.4501C53.5489 18.4572 53.5265 18.4653 53.5224 18.4744Z" fill="#243645"/>
<path d="M50.0134 20.2484C50.0154 20.2322 50.0236 20.2089 50.0358 20.1796C50.0633 20.1158 50.099 20.0733 50.1428 20.049C50.1866 20.0247 50.2335 20.0237 50.2834 20.046C50.2875 20.048 50.2905 20.049 50.2946 20.051C50.3242 20.0703 50.3445 20.0935 50.3537 20.1219C50.3629 20.1502 50.3659 20.1856 50.3639 20.2251C50.3618 20.2656 50.3557 20.3101 50.3466 20.3597C50.3364 20.4103 50.3303 20.4619 50.3282 20.5155C50.3262 20.5469 50.3313 20.5833 50.3425 20.6258C50.3537 20.6684 50.368 20.7098 50.3873 20.7523C50.4067 20.7948 50.4301 20.8343 50.4587 20.8697C50.4862 20.9052 50.5177 20.9345 50.5503 20.9568C50.5758 20.975 50.6013 20.9922 50.6258 21.0074C50.6502 21.0225 50.6767 21.0387 50.7042 21.0529C50.8458 21.1278 50.9813 21.1754 51.1138 21.1926C51.2473 21.2087 51.3705 21.2189 51.4847 21.2229C51.503 21.2229 51.5193 21.2229 51.5366 21.2219C51.6782 21.2249 51.8127 21.2138 51.9432 21.1865C52.0736 21.1592 52.205 21.1258 52.3385 21.0853C52.4709 21.0448 52.6075 21.0023 52.7471 20.9588C52.8867 20.9153 53.0374 20.8738 53.2015 20.8353C53.3237 20.806 53.4511 20.7898 53.5856 20.7878C53.7201 20.7857 53.8556 20.7959 53.9942 20.8212C54.1327 20.8454 54.2703 20.8809 54.4058 20.9274C54.5423 20.974 54.6707 21.0327 54.792 21.1045C54.8297 21.1268 54.8673 21.149 54.905 21.1713C54.9427 21.1936 54.9794 21.2209 55.0131 21.2533C55.1221 21.3433 55.2178 21.4476 55.2973 21.568C55.3778 21.6884 55.4359 21.819 55.4726 21.9606C55.5082 22.1023 55.5184 22.2541 55.5011 22.417C55.4848 22.58 55.4369 22.749 55.3564 22.923C55.3024 23.0384 55.2331 23.1588 55.1465 23.2833C55.011 23.4736 54.8867 23.594 54.7777 23.6476C54.6687 23.7002 54.5902 23.7073 54.5434 23.6699C54.4792 23.6203 54.4792 23.5343 54.5423 23.4098C54.5851 23.3258 54.6493 23.2438 54.7369 23.1629C54.7838 23.1204 54.8235 23.0769 54.8572 23.0313C54.8898 22.9858 54.9162 22.9413 54.9356 22.8987C55.0161 22.7277 55.0182 22.5618 54.9438 22.4019C54.8694 22.243 54.7553 22.0993 54.6045 21.9718C54.5892 21.9566 54.5729 21.9424 54.5515 21.9293C54.5311 21.9161 54.5118 21.903 54.4904 21.8898C54.3997 21.8321 54.3029 21.7856 54.202 21.7512C54.1011 21.7168 53.9993 21.6904 53.8984 21.6702C53.7965 21.651 53.7007 21.6399 53.61 21.6378C53.5183 21.6358 53.4378 21.6409 53.3675 21.654C53.1862 21.6834 53.0079 21.7208 52.8347 21.7684C52.6594 21.8139 52.4862 21.8584 52.3161 21.902C52.1449 21.9445 51.9758 21.9768 51.8087 22.0001C51.6416 22.0224 51.4765 22.0305 51.3135 22.0214C51.0853 22.0102 50.8611 21.9343 50.6359 21.7997C50.4912 21.7137 50.3629 21.6095 50.2508 21.4881C50.1489 21.3788 50.0684 21.2573 50.0093 21.1258C49.9482 20.9942 49.9207 20.8525 49.9237 20.7017C49.9197 20.6279 49.9217 20.5499 49.9288 20.469C49.937 20.388 49.9513 20.3061 49.9757 20.2241C49.989 20.2332 50.0012 20.2413 50.0134 20.2484Z" fill="#243645"/>
<path d="M15.8411 75.7634C15.8421 76.2512 15.7779 76.5811 15.6495 76.7531C15.5211 76.9252 15.3591 76.9889 15.1625 76.9454C14.758 76.8756 14.4585 76.7086 14.2628 76.4435C14.0672 76.1783 13.9938 75.8565 14.0437 75.477C14.0814 75.1876 14.1242 74.8759 14.1732 74.542C14.221 74.208 14.272 73.874 14.324 73.5411C14.3769 73.2072 14.4279 72.8853 14.4768 72.5747C14.5257 72.264 14.5736 71.9827 14.6153 71.7307L14.7998 70.32C14.7121 70.2815 14.6041 70.2562 14.4768 70.2441C14.3484 70.2319 14.2027 70.2269 14.0407 70.2289C13.8787 70.2309 13.7045 70.234 13.519 70.238C13.3326 70.2421 13.1441 70.236 12.9515 70.2198C12.9301 70.319 12.9006 70.4849 12.8649 70.7197C12.8303 70.9545 12.7915 71.2186 12.7487 71.5111C12.7049 71.8045 12.6632 72.1142 12.6204 72.4391C12.5776 72.7639 12.5378 73.0715 12.5001 73.361C12.4624 73.6504 12.4319 73.9044 12.4085 74.122C12.385 74.3396 12.3667 74.4883 12.3565 74.5703C12.3219 74.8324 12.2587 75.0317 12.167 75.1663C12.0753 75.3009 11.9713 75.39 11.8542 75.4295C11.737 75.4689 11.6137 75.4699 11.4792 75.4295C11.3457 75.389 11.2194 75.3293 11.1002 75.2493C10.981 75.1694 10.875 75.0783 10.7823 74.9741C10.6886 74.8698 10.6295 74.7747 10.604 74.6887C10.5898 74.6502 10.5877 74.5581 10.5979 74.4124C10.6081 74.2657 10.6244 74.0845 10.6478 73.867C10.6713 73.6494 10.7018 73.4025 10.7375 73.1272C10.7742 72.8519 10.8108 72.5645 10.8496 72.266C10.8944 71.923 10.9443 71.5769 10.9983 71.2297C11.0533 70.8826 11.1012 70.5699 11.142 70.2896C11.1827 70.0093 11.2184 69.7755 11.2479 69.5863C11.2775 69.3971 11.2948 69.2847 11.2999 69.2483C11.4273 68.4094 11.5546 67.5755 11.681 66.7457C11.8083 65.9159 11.9296 65.0911 12.0457 64.2684C12.0671 64.1054 12.117 63.9516 12.1955 63.8049C12.275 63.6591 12.3718 63.559 12.4848 63.5043C12.5979 63.4497 12.7212 63.4618 12.8547 63.5377C12.9882 63.6146 13.1247 63.7958 13.2633 64.0801C13.3428 64.2471 13.407 64.4202 13.4528 64.6013C13.4987 64.7824 13.5221 64.9322 13.5252 65.0516C13.5252 65.6952 13.4722 66.3298 13.3672 66.9552C13.2623 67.5816 13.1879 68.208 13.1431 68.8364C13.139 68.9376 13.2195 69.0095 13.3835 69.054C13.5486 69.0975 13.7391 69.1269 13.9541 69.141C14.1691 69.1552 14.3779 69.1613 14.5807 69.1592C14.7835 69.1572 14.921 69.1663 14.9923 69.1845L15.7697 64.8158C15.8247 64.6752 15.9236 64.5871 16.0673 64.5507C16.2109 64.5133 16.3617 64.5214 16.5206 64.574C16.6796 64.6266 16.8314 64.7177 16.9761 64.8462C17.1208 64.9747 17.2217 65.1356 17.2797 65.3269C17.2838 65.3643 17.2685 65.5505 17.2349 65.8865C17.2003 66.2225 17.1493 66.6455 17.0831 67.1565C17.0168 67.6676 16.9394 68.2343 16.8538 68.8577C16.7683 69.481 16.6806 70.0953 16.593 70.6995C16.4728 71.5485 16.3464 72.3915 16.214 73.2294C16.0815 74.0673 15.9603 74.9144 15.8411 75.7634Z" fill="#243645"/>
<path d="M17.4794 75.5458C17.2695 75.5924 17.1198 75.5671 17.0321 75.4679C16.9425 75.3687 16.8905 75.2382 16.8752 75.0753C16.86 74.9123 16.8661 74.7362 16.8956 74.547C16.9252 74.3578 16.9486 74.1948 16.9659 74.0602C16.973 74.0056 16.9944 73.8589 17.0301 73.62C17.0657 73.3812 17.1055 73.1059 17.1514 72.7943C17.1962 72.4826 17.242 72.1668 17.2889 71.846C17.3358 71.5262 17.3775 71.2571 17.4142 71.0415C17.4743 70.6539 17.5518 70.237 17.6475 69.7887C17.7433 69.3414 17.8574 68.889 17.9909 68.4336C18.1254 67.9772 18.2894 67.531 18.4851 67.0968C18.6797 66.6627 18.912 66.269 19.1799 65.9169C19.3144 65.7408 19.4683 65.5748 19.6415 65.4169C19.8147 65.2601 19.9991 65.1225 20.1948 65.0051C20.3904 64.8887 20.5921 64.7986 20.7989 64.7379C21.0058 64.6772 21.2045 64.659 21.397 64.6833C21.6793 64.7106 21.9166 64.829 22.1072 65.0375C22.2977 65.2459 22.4495 65.5111 22.5657 65.8339C22.6798 66.1567 22.7613 66.524 22.8102 66.9349C22.8591 67.3458 22.8826 67.7627 22.8826 68.1847C22.8887 68.636 22.8612 69.1451 22.8021 69.7128C22.742 70.2795 22.6727 70.8614 22.5952 71.4584C22.5433 71.8572 22.4832 72.2721 22.4118 72.7042C22.3405 73.1363 22.2753 73.5735 22.2131 74.0157C22.15 74.459 22.0889 74.8961 22.0277 75.3303C21.9656 75.7634 21.9157 76.1753 21.8739 76.5659C21.8718 76.7217 21.8617 76.8189 21.8433 76.8584C21.824 76.8968 21.7536 76.9596 21.6314 77.0446C21.4663 77.1711 21.2707 77.2024 21.0425 77.1407C20.8142 77.079 20.6237 76.997 20.4698 76.8948C20.3669 76.826 20.2997 76.6732 20.2661 76.4333C20.2325 76.1945 20.2182 75.9101 20.2253 75.5802C20.2314 75.2503 20.2538 74.8941 20.2946 74.5136C20.3343 74.1331 20.3781 73.7617 20.426 73.3994C20.4729 73.0381 20.5167 72.7052 20.5554 72.4026C20.5952 72.1 20.6257 71.8673 20.6471 71.7044C20.2712 71.675 19.8932 71.6487 19.5121 71.6274C19.13 71.6062 18.7663 71.5779 18.4188 71.5424C18.3934 71.6679 18.3649 71.8511 18.3343 72.0909C18.3027 72.3298 18.266 72.5949 18.2242 72.8833C18.1815 73.1717 18.1386 73.4652 18.0948 73.7627C18.052 74.0602 18.0093 74.3314 17.9685 74.5743C17.939 74.7362 17.9135 74.8729 17.8941 74.9852C17.8748 75.0975 17.8513 75.1937 17.8228 75.2726C17.7943 75.3515 17.7535 75.4133 17.7016 75.4568C17.6476 75.5013 17.5742 75.5306 17.4794 75.5458ZM20.7786 70.7986C20.8285 70.6307 20.8845 70.3412 20.9467 69.9314C21.0088 69.5215 21.0588 69.0742 21.0944 68.5915C21.1158 68.2819 21.1291 67.9661 21.1342 67.6453C21.1393 67.3245 21.128 67.0331 21.1026 66.772C21.0771 66.5119 21.0282 66.2963 20.9579 66.1263C20.8876 65.9563 20.7928 65.8642 20.6747 65.8491C20.5453 65.842 20.4087 65.9158 20.264 66.0717C20.1194 66.2275 19.9757 66.437 19.8351 66.6991C19.6935 66.9612 19.5579 67.2638 19.4255 67.6048C19.293 67.9459 19.1728 68.2991 19.0648 68.6613C18.9578 69.0246 18.86 69.3819 18.7724 69.734C18.6848 70.0862 18.6236 70.403 18.5859 70.6823C18.6043 70.6843 18.7143 70.6944 18.915 70.7106C19.1168 70.7278 19.342 70.743 19.5895 70.7561C19.8382 70.7703 20.0776 70.7824 20.3068 70.7936C20.5371 70.8047 20.694 70.8067 20.7786 70.7986Z" fill="#243645"/>
<path d="M23.4908 77.8926C23.445 77.8218 23.4144 77.6821 23.4002 77.4737C23.3849 77.2652 23.3839 77.0051 23.3971 76.6944C23.4104 76.3838 23.4297 76.0346 23.4582 75.647C23.4847 75.2595 23.5133 74.8516 23.5408 74.4236C23.5662 74.0127 23.5968 73.5887 23.6304 73.1525C23.6641 72.7164 23.6966 72.2903 23.7282 71.8754C23.7598 71.4605 23.7904 71.0608 23.822 70.6732C23.8536 70.2866 23.8821 69.9344 23.9045 69.6146C23.9147 69.4689 23.9269 69.2655 23.9422 69.0054C23.9585 68.7454 23.9738 68.46 23.9921 68.1493C24.0094 67.8386 24.0319 67.5198 24.0604 67.193C24.0889 66.8661 24.1276 66.5676 24.1765 66.2974C24.2265 66.0282 24.2815 65.8005 24.3426 65.6153C24.4037 65.4301 24.4822 65.3208 24.579 65.2874C24.7431 65.2348 24.9254 65.2196 25.1261 65.2409C25.3269 65.2621 25.5296 65.3046 25.7354 65.3674C26.6901 65.6457 27.3544 66.0666 27.7294 66.6303C28.1054 67.194 28.2592 67.8477 28.1889 68.5925C28.138 69.055 28.0096 69.4709 27.8038 69.8393C27.599 70.2077 27.3585 70.5355 27.0855 70.8229C26.8124 71.1103 26.5281 71.3492 26.2357 71.5404C25.9412 71.7327 25.6906 71.8835 25.4817 71.9948C25.4736 72.0586 25.4654 72.1213 25.4573 72.1851C25.4491 72.2488 25.443 72.3622 25.44 72.5271C25.4339 72.5716 25.4206 72.7427 25.4012 73.0392C25.3809 73.3347 25.3533 73.6909 25.3177 74.1038C25.283 74.5177 25.2433 74.9589 25.2015 75.4264C25.1588 75.895 25.116 76.3281 25.0732 76.7268C25.0304 77.1255 24.9937 77.4615 24.9631 77.7337C24.9326 78.006 24.9112 78.1497 24.8989 78.1669C24.8246 78.2488 24.7176 78.2974 24.581 78.3126C24.4445 78.3278 24.3049 78.3187 24.1613 78.2863C24.0166 78.2539 23.8831 78.2043 23.7578 78.1385C23.6325 78.0717 23.5377 77.9968 23.4745 77.9159L23.4908 77.8926ZM25.9718 70.5841C26.2561 70.3169 26.4863 69.9931 26.6616 69.6106C26.8368 69.2291 26.954 68.8435 27.0141 68.4559C27.0539 68.2222 27.063 67.9914 27.0417 67.7627C27.0203 67.535 26.9622 67.3205 26.8684 67.1201C26.7737 66.9197 26.6372 66.7437 26.4589 66.5919C26.2785 66.4401 26.0523 66.3186 25.7772 66.2286C25.7721 66.265 25.766 66.3814 25.7589 66.5777C25.7507 66.774 25.7426 67.0169 25.7334 67.3053C25.7232 67.5937 25.712 67.9125 25.6998 68.2596C25.6875 68.6067 25.6733 68.9457 25.657 69.2746C25.6417 69.6035 25.6285 69.9071 25.6152 70.1864C25.601 70.4657 25.5897 70.6823 25.5785 70.8371C25.6295 70.8067 25.6967 70.7673 25.7813 70.7177C25.8669 70.6691 25.93 70.6246 25.9718 70.5841Z" fill="#243645"/>
<path d="M28.409 78.5251C28.3621 78.4542 28.3315 78.3146 28.3173 78.1061C28.302 77.8977 28.301 77.6376 28.3142 77.3269C28.3275 77.0162 28.3468 76.6671 28.3754 76.2795C28.4018 75.8929 28.4304 75.4841 28.4579 75.056C28.4834 74.6452 28.5139 74.2211 28.5476 73.785C28.5812 73.3488 28.6138 72.9218 28.6454 72.5079C28.6759 72.093 28.7075 71.6922 28.7401 71.3056C28.7707 70.9191 28.7992 70.5669 28.8216 70.2471C28.8318 70.1014 28.844 69.898 28.8593 69.6379C28.8756 69.3778 28.8909 69.0924 28.9093 68.7818C28.9266 68.4711 28.949 68.1523 28.9775 67.8254C29.006 67.4986 29.0448 67.2 29.0947 66.9298C29.1436 66.6607 29.1986 66.433 29.2598 66.2478C29.3209 66.0626 29.4004 65.9533 29.4961 65.9199C29.6602 65.8673 29.8436 65.8521 30.0433 65.8733C30.244 65.8946 30.4468 65.9371 30.6526 65.9998C31.6073 66.2781 32.2716 66.6991 32.6475 67.2628C33.0225 67.8265 33.1763 68.4802 33.106 69.225C33.0551 69.6875 32.9267 70.1034 32.7209 70.4718C32.5161 70.8411 32.2756 71.169 32.0026 71.4554C31.7295 71.7418 31.4463 71.9816 31.1528 72.1729C30.8584 72.3652 30.6077 72.516 30.3988 72.6273C30.3907 72.691 30.3826 72.7538 30.3744 72.8175C30.3663 72.8813 30.3601 72.9946 30.3571 73.1596C30.351 73.2041 30.3377 73.3751 30.3184 73.6716C30.298 73.9671 30.2705 74.3234 30.2348 74.7362C30.2002 75.1501 30.1604 75.5914 30.1187 76.0589C30.0759 76.5264 30.0331 76.9606 29.9903 77.3593C29.9475 77.758 29.9108 78.094 29.8803 78.3662C29.8497 78.6384 29.8283 78.7821 29.8171 78.7993C29.7417 78.8813 29.6347 78.9299 29.4982 78.9451C29.3627 78.9592 29.222 78.9511 29.0784 78.9187C28.9347 78.8864 28.8002 78.8368 28.6749 78.771C28.5496 78.7042 28.4548 78.6293 28.3916 78.5484L28.409 78.5251ZM30.8879 71.2166C31.1732 70.9494 31.4025 70.6256 31.5777 70.2431C31.753 69.8615 31.8701 69.476 31.9303 69.0884C31.97 68.8546 31.9791 68.6229 31.9577 68.3952C31.9363 68.1675 31.8783 67.953 31.7845 67.7526C31.6898 67.5522 31.5533 67.3761 31.3749 67.2243C31.1946 67.0725 30.9684 66.9511 30.6933 66.861C30.6882 66.8975 30.6821 67.0138 30.675 67.2112C30.6679 67.4085 30.6587 67.6504 30.6495 67.9388C30.6393 68.2272 30.6281 68.546 30.6159 68.8931C30.6037 69.2402 30.5894 69.5792 30.5741 69.9081C30.5578 70.237 30.5446 70.5406 30.5313 70.8199C30.517 71.0992 30.5058 71.3158 30.4956 71.4706C30.5456 71.4402 30.6128 71.4008 30.6974 71.3522C30.783 71.3016 30.8461 71.2571 30.8879 71.2166Z" fill="#243645"/>
<path d="M35.3079 71.5364C35.4261 71.2753 35.5636 70.9717 35.7215 70.6246C35.8784 70.2765 36.0476 69.9263 36.23 69.5721C36.4113 69.2189 36.5937 68.8698 36.7781 68.5257C36.9625 68.1827 37.1408 67.8831 37.312 67.6291C37.5107 67.3883 37.7328 67.283 37.9784 67.3144C38.1699 67.3387 38.3207 67.4551 38.4328 67.6625C38.4827 67.7698 38.5245 67.8761 38.5571 67.9823C38.5897 68.0876 38.5978 68.2039 38.5805 68.3304C38.5734 68.3851 38.5602 68.4357 38.5398 68.4832C38.5194 68.5308 38.497 68.5865 38.4705 68.6462C38.2932 69.0095 38.0894 69.4041 37.8571 69.8292C37.6258 70.2542 37.4047 70.6792 37.1918 71.1022C37.0665 71.3532 36.9615 71.5688 36.878 71.7519C36.7934 71.9341 36.6875 72.1274 36.5591 72.3318C36.4429 72.5099 36.3502 72.7416 36.2809 73.027C36.2116 73.3124 36.1546 73.6271 36.1097 73.9702C36.071 74.2687 36.0394 74.5804 36.015 74.9032C35.9905 75.226 35.9712 75.5408 35.9539 75.8474C35.9365 76.154 35.9202 76.4455 35.9019 76.7238C35.8835 77.0021 35.8632 77.2409 35.8377 77.4392L35.8265 77.5212C35.7827 77.7823 35.7124 78.0059 35.6135 78.1901C35.5147 78.3753 35.3517 78.4532 35.1224 78.4229C35.0766 78.4168 35.0093 78.3996 34.9197 78.3692C34.6955 78.2944 34.5264 78.1942 34.4123 78.0697C34.2982 77.9452 34.2187 77.8015 34.1749 77.6396C34.1616 77.592 34.1627 77.4564 34.179 77.2328C34.1942 77.0091 34.2146 76.741 34.2421 76.4273C34.2696 76.1135 34.3043 75.7755 34.3471 75.4133C34.3899 75.052 34.4306 74.7028 34.4694 74.3669C34.5081 74.0319 34.5427 73.7334 34.5722 73.4703C34.6018 73.2072 34.6242 73.022 34.6374 72.9127C34.5855 72.8145 34.5315 72.7133 34.4765 72.6091C34.4215 72.5048 34.3776 72.3874 34.3491 72.2549C34.3277 72.1324 34.3012 71.9655 34.2686 71.755C34.236 71.5435 34.1993 71.3117 34.1586 71.0577C34.1168 70.8047 34.075 70.5416 34.0322 70.2694C33.9884 69.9972 33.9467 69.734 33.9059 69.4811C33.8651 69.2281 33.8285 68.9953 33.7959 68.7838C33.7633 68.5733 33.7357 68.4023 33.7174 68.2707C33.6981 68.1301 33.6736 68.0147 33.6451 67.9236C33.6155 67.8325 33.6043 67.7516 33.6145 67.6787C33.6277 67.5795 33.695 67.4824 33.8183 67.3873C33.9344 67.3468 34.0394 67.3326 34.1301 67.3448C34.2482 67.3599 34.3511 67.4095 34.4367 67.4945C34.5233 67.5795 34.5936 67.6807 34.6476 67.7971C34.7016 67.9135 34.7455 68.04 34.7791 68.1726C34.8127 68.3051 34.8412 68.4286 34.8626 68.5419C34.8962 68.7119 34.9289 68.889 34.9604 69.0712C34.992 69.2554 35.0185 69.4284 35.0389 69.5924C35.0593 69.7553 35.0766 69.903 35.0929 70.0336C35.1092 70.1641 35.1214 70.2582 35.1336 70.3149C35.154 70.4465 35.1703 70.5821 35.1856 70.7207C35.1999 70.8614 35.2131 70.9919 35.2253 71.1124C35.2386 71.2338 35.2498 71.332 35.2641 71.4079C35.2783 71.4838 35.2916 71.5263 35.3079 71.5364Z" fill="#243645"/>
<path d="M28.6516 63.8777C27.1681 63.8777 25.6306 63.7462 24.0829 63.4841C19.2534 62.6684 12.7958 60.4168 9.45691 54.3176C7.00955 49.8487 7.67488 45.0995 8.75795 40.6336C9.47015 37.7009 10.3882 35.508 11.6485 33.7299C12.7836 32.128 14.1743 30.8974 15.9034 29.9654C18.5036 28.5638 21.7416 27.8544 25.5308 27.8544C26.1105 27.8544 26.6913 27.8706 27.2649 27.9009C34.8159 28.2905 47.4408 32.0753 46.855 43.7849C46.6298 48.2791 45.3613 56.462 39.3917 60.7639C36.5643 62.801 32.8494 63.8777 28.6516 63.8777Z" fill="#FACFCE"/>
<path d="M25.5307 28.0447C26.1074 28.0447 26.684 28.0609 27.2546 28.0902C35.5544 28.5193 47.2166 32.718 46.6633 43.7748C46.3566 49.8801 44.5145 56.8364 39.2785 60.6091C36.2004 62.8273 32.4224 63.6875 28.6515 63.6875C27.1221 63.6875 25.5938 63.5458 24.1144 63.2959C18.2049 62.2991 12.5878 59.6406 9.62388 54.2265C7.24377 49.8791 7.81639 45.3282 8.94429 40.6782C9.55664 38.1563 10.4094 35.8086 11.8043 33.8403C12.8527 32.3618 14.2068 31.0978 15.9939 30.1334C18.8987 28.5689 22.2448 28.0447 25.5307 28.0447ZM25.5307 27.6642C21.7088 27.6642 18.4392 28.3817 15.8115 29.7984C14.057 30.7436 12.6449 31.9944 11.4915 33.6207C10.2169 35.4179 9.28967 37.6332 8.57238 40.5891C7.48013 45.0924 6.81072 49.8831 9.28763 54.4097C12.6642 60.5767 19.18 62.8506 24.0513 63.6723C25.6101 63.9355 27.1588 64.069 28.6525 64.069C32.8921 64.069 36.6446 62.9791 39.5046 60.9188C45.5385 56.5703 46.8202 48.3237 47.0464 43.7951C47.6404 31.9367 34.8973 28.1054 27.275 27.7107C26.682 27.6793 26.0951 27.6642 25.5307 27.6642Z" fill="#243645"/>
<path d="M15.5874 45.7219C16.1945 45.7219 16.6868 45.233 16.6868 44.6299C16.6868 44.0269 16.1945 43.538 15.5874 43.538C14.9802 43.538 14.488 44.0269 14.488 44.6299C14.488 45.233 14.9802 45.7219 15.5874 45.7219Z" fill="#243645"/>
<path d="M39.7328 48.8276C40.34 48.8276 40.8322 48.3387 40.8322 47.7357C40.8322 47.1326 40.34 46.6437 39.7328 46.6437C39.1257 46.6437 38.6335 47.1326 38.6335 47.7357C38.6335 48.3387 39.1257 48.8276 39.7328 48.8276Z" fill="#243645"/>
<path d="M27.4258 48.5655C26.9693 51.478 26.5944 54.4046 26.2989 57.3383" stroke="#243645" stroke-width="0.3767" stroke-miterlimit="10" stroke-linecap="round" stroke-linejoin="round"/>
<path d="M25.8017 46.919C25.7864 46.835 25.8231 46.7369 25.9026 46.7096C25.9413 46.6964 25.9831 46.7004 26.0228 46.7045C27.0458 46.8138 28.0697 46.9241 29.0927 47.0334C29.2089 47.0455 29.3301 47.0597 29.4299 47.1214C30.0015 47.4726 27.8792 48.6101 27.5501 48.7224C26.8929 48.945 25.9556 47.4534 25.8068 46.9413C25.8048 46.9332 25.8037 46.9271 25.8017 46.919Z" fill="#243645"/>
<path d="M24.4303 55.876C24.7889 57.7451 27.7151 58.151 28.3397 56.379" stroke="#243645" stroke-width="0.3767" stroke-miterlimit="10" stroke-linecap="round" stroke-linejoin="round"/>
<path d="M27.6029 43.1171C27.5897 42.6768 27.5775 42.2366 27.5643 41.7964" stroke="#F6AAB1" stroke-width="0.3767" stroke-miterlimit="10" stroke-linecap="round" stroke-linejoin="round"/>
<path d="M28.4457 44.8718C28.5218 44.6036 28.5674 44.3284 28.5816 44.0501" stroke="#F6AAB1" stroke-width="0.3767" stroke-miterlimit="10" stroke-linecap="round" stroke-linejoin="round"/>
<path d="M30.1768 43.5916C30.3634 43.2739 30.4658 42.9075 30.4729 42.5392" stroke="#F6AAB1" stroke-width="0.3767" stroke-miterlimit="10" stroke-linecap="round" stroke-linejoin="round"/>
<path d="M29.3219 41.174C29.4051 40.8229 29.4608 40.4646 29.4852 40.1054" stroke="#F6AAB1" stroke-width="0.3767" stroke-miterlimit="10" stroke-linecap="round" stroke-linejoin="round"/>
<path d="M26.1349 43.3579C26.1389 43.624 26.144 43.8902 26.148 44.1563" stroke="#F6AAB1" stroke-width="0.3767" stroke-miterlimit="10" stroke-linecap="round" stroke-linejoin="round"/>
<path d="M25.708 39.4506C25.7425 39.7208 25.7769 39.99 25.8124 40.2592" stroke="#F6AAB1" stroke-width="0.3767" stroke-miterlimit="10" stroke-linecap="round" stroke-linejoin="round"/>
<path d="M28.1091 38.5034C28.0503 38.7898 28.0249 39.0823 28.034 39.3737" stroke="#F6AAB1" stroke-width="0.3767" stroke-miterlimit="10" stroke-linecap="round" stroke-linejoin="round"/>
<path d="M31.5217 38.9851C31.4111 39.228 31.334 39.4871 31.2955 39.7512" stroke="#F6AAB1" stroke-width="0.3767" stroke-miterlimit="10" stroke-linecap="round" stroke-linejoin="round"/>
<path d="M26.6198 36.4278C26.6432 36.6687 26.6675 36.9085 26.6898 37.1494" stroke="#F6AAB1" stroke-width="0.3767" stroke-miterlimit="10" stroke-linecap="round" stroke-linejoin="round"/>
<path d="M30.3426 36.3843C30.299 36.7861 30.2046 37.1838 30.0637 37.5623" stroke="#F6AAB1" stroke-width="0.3767" stroke-miterlimit="10" stroke-linecap="round" stroke-linejoin="round"/>
<path d="M33.0837 36.6738C32.9706 37.1059 32.8554 37.537 32.7423 37.9691" stroke="#F6AAB1" stroke-width="0.3767" stroke-miterlimit="10" stroke-linecap="round" stroke-linejoin="round"/>
<path d="M24.9417 35.2914C24.9306 35.5818 24.9783 35.8753 25.0827 36.1465" stroke="#F6AAB1" stroke-width="0.3767" stroke-miterlimit="10" stroke-linecap="round" stroke-linejoin="round"/>
<path d="M26.9284 33.5791C26.8808 33.8301 26.8909 34.0902 26.9578 34.3371" stroke="#F6AAB1" stroke-width="0.3767" stroke-miterlimit="10" stroke-linecap="round" stroke-linejoin="round"/>
<path d="M32.5328 34.3432C32.4486 34.6508 32.403 34.9696 32.3959 35.2884" stroke="#F6AAB1" stroke-width="0.3767" stroke-miterlimit="10" stroke-linecap="round" stroke-linejoin="round"/>
<path d="M29.8463 33.9131C29.7895 34.1853 29.7672 34.4636 29.7773 34.7409" stroke="#F6AAB1" stroke-width="0.3767" stroke-miterlimit="10" stroke-linecap="round" stroke-linejoin="round"/>
<path d="M24.848 32.4933C25.0113 32.7665 25.0681 33.1005 25.0021 33.4111" stroke="#F6AAB1" stroke-width="0.3767" stroke-miterlimit="10" stroke-linecap="round" stroke-linejoin="round"/>
<path d="M28.4139 32.3729C28.422 32.6674 28.4088 32.9619 28.3744 33.2543" stroke="#F6AAB1" stroke-width="0.3767" stroke-miterlimit="10" stroke-linecap="round" stroke-linejoin="round"/>
<path d="M31.6178 32.9608C31.5671 33.1906 31.5153 33.4213 31.4646 33.651" stroke="#F6AAB1" stroke-width="0.3767" stroke-miterlimit="10" stroke-linecap="round" stroke-linejoin="round"/>
<path d="M34.6772 33.7684C34.5141 34.0821 34.3511 34.3948 34.1891 34.7085" stroke="#F6AAB1" stroke-width="0.3767" stroke-miterlimit="10" stroke-linecap="round" stroke-linejoin="round"/>
<path d="M34.0026 31.6695C33.962 31.9438 33.8849 32.214 33.7734 32.468" stroke="#F6AAB1" stroke-width="0.3767" stroke-miterlimit="10" stroke-linecap="round" stroke-linejoin="round"/>
<path d="M36.23 31.4833C36.0751 31.7242 35.9569 31.9893 35.8835 32.2656" stroke="#F6AAB1" stroke-width="0.3767" stroke-miterlimit="10" stroke-linecap="round" stroke-linejoin="round"/>
<path d="M32.3722 29.9198C32.2768 30.2032 32.1825 30.4876 32.0882 30.7719" stroke="#F6AAB1" stroke-width="0.3767" stroke-miterlimit="10" stroke-linecap="round" stroke-linejoin="round"/>
<path d="M29.703 29.5171C29.7091 29.8541 29.7152 30.1921 29.7212 30.5291" stroke="#F6AAB1" stroke-width="0.3767" stroke-miterlimit="10" stroke-linecap="round" stroke-linejoin="round"/>
<path d="M26.5361 29.6426C26.524 29.9968 26.5118 30.351 26.4996 30.7051" stroke="#F6AAB1" stroke-width="0.3767" stroke-miterlimit="10" stroke-linecap="round" stroke-linejoin="round"/>
<path d="M23.7058 29.2782C23.794 29.6152 23.8478 29.9593 23.863 30.3064" stroke="#F6AAB1" stroke-width="0.3767" stroke-miterlimit="10" stroke-linecap="round" stroke-linejoin="round"/>
<path d="M27.1577 45.2321C27.1496 45.4476 27.1415 45.6642 27.1344 45.8797" stroke="#F6AAB1" stroke-width="0.3767" stroke-miterlimit="10" stroke-linecap="round" stroke-linejoin="round"/>
<path d="M41.9398 50.2798C41.1776 50.1442 40.3982 50.1088 39.6258 50.1736C39.1439 50.214 38.5397 50.4316 38.5448 50.9113C38.5499 51.2513 38.88 51.4901 39.1908 51.6359C40.2718 52.1449 41.5475 52.2329 42.6886 51.8767C42.8588 51.8241 43.036 51.7543 43.1389 51.6096C43.2969 51.3889 43.2174 51.0641 43.033 50.8647C42.8476 50.6654 42.5847 50.5601 42.33 50.461" fill="#F6AAB1"/>
<path d="M14.8956 46.8006C14.1335 46.665 13.353 46.6296 12.5817 46.6934C12.0998 46.7339 11.4946 46.9514 11.5007 47.4311C11.5048 47.7721 11.8359 48.01 12.1456 48.1567C13.2277 48.6657 14.5023 48.7538 15.6445 48.3975C15.8136 48.3439 15.9909 48.2741 16.0938 48.1304C16.2528 47.9088 16.1733 47.5849 15.9878 47.3856C15.8024 47.1862 15.5395 47.081 15.2848 46.9818" fill="#F6AAB1"/>
<path d="M10.2985 29.7579C10.2791 29.7579 10.2598 29.7559 10.2394 29.7488C8.48896 29.1912 7.55871 28.3988 6.38088 27.396L6.20868 27.2492C5.0655 26.2777 3.69105 24.9359 3.2081 23.174C3.05424 22.6124 2.88919 21.5609 3.5158 20.8333C3.85814 20.4336 4.38387 20.215 4.99316 20.215C5.38237 20.215 5.7726 20.303 6.12106 20.471C6.73443 20.7645 7.11448 21.1369 7.57603 21.6631C7.41097 20.6208 7.52408 19.6341 7.90208 18.9753C8.16699 18.5149 8.54398 18.2173 9.02286 18.0908C9.16346 18.0534 9.30407 18.0352 9.44468 18.0352C10.8976 18.0352 11.9735 20.0642 12.0316 21.8858C12.1151 24.4956 11.5762 27.1784 10.4748 29.6446C10.4432 29.7154 10.3729 29.7579 10.2985 29.7579Z" fill="#F27C88"/>
<path d="M9.44452 18.2254C10.7945 18.2254 11.7869 20.2018 11.8419 21.8918C11.9235 24.4663 11.3845 27.1419 10.2993 29.5676C8.50408 28.9959 7.61765 28.1954 6.33386 27.1045C5.07656 26.0348 3.84169 24.7537 3.39338 23.1244C3.19266 22.3927 3.16515 21.5325 3.66135 20.9567C3.98943 20.5752 4.48459 20.4052 4.99403 20.4052C5.35369 20.4052 5.71947 20.4892 6.0394 20.643C6.81477 21.0144 7.20703 21.5315 7.92636 22.3603C7.43628 20.6218 7.67878 18.6444 9.07363 18.275C9.19997 18.2406 9.32429 18.2254 9.44452 18.2254ZM9.44452 17.8439C9.28863 17.8439 9.12968 17.8651 8.97379 17.9066C8.4511 18.0453 8.02318 18.3823 7.73687 18.8812C7.40472 19.459 7.26309 20.2423 7.31913 21.1055C6.99614 20.7827 6.65989 20.5175 6.20547 20.301C5.83052 20.1208 5.41178 20.0257 4.99505 20.0257C4.32667 20.0257 3.74896 20.2686 3.36993 20.7108C2.86355 21.2998 2.74027 22.1934 3.02352 23.2266C3.52073 25.039 4.92067 26.4072 6.08424 27.3959L6.25846 27.5437C7.45157 28.5607 8.39507 29.3642 10.1822 29.933C10.2209 29.9451 10.2606 29.9512 10.2993 29.9512C10.4481 29.9512 10.5867 29.8652 10.6509 29.7245C11.7645 27.232 12.3086 24.5199 12.2251 21.8817C12.1629 19.9306 11.0309 17.8439 9.44452 17.8439Z" fill="#243645"/>
<path d="M11.8409 21.8918C11.7818 20.05 10.6101 17.8682 9.07365 18.275C9.06754 18.276 9.06245 18.2791 9.05634 18.2811C9.52706 18.9834 9.90506 19.7485 10.1486 20.556C10.6906 22.3462 10.5684 24.2862 9.50872 25.8689C9.06449 26.5318 8.51125 27.1582 7.77664 27.5063C7.54535 27.6156 7.30591 27.6834 7.06443 27.7228C8.0069 28.5061 8.86173 29.1113 10.2994 29.5687C11.3845 27.142 11.9235 24.4663 11.8409 21.8918Z" fill="#EBCBD1"/>
<path d="M46.6643 43.7748C46.8283 40.4991 45.9205 37.8254 44.3453 35.674C44.87 38.4589 44.9393 41.3299 44.545 44.1351C44.0203 47.8663 42.6591 51.5063 40.4043 54.5514C38.1098 57.649 34.8595 60.179 31.0978 61.2183C27.2138 62.293 23.0395 61.8811 19.2564 60.607C15.947 59.4918 12.8262 57.6915 10.2769 55.3033C13.3662 59.9958 18.6145 62.3659 24.1164 63.2939C29.2424 64.1581 34.9543 63.7249 39.2805 60.607C44.5145 56.8364 46.3576 49.8801 46.6643 43.7748Z" fill="#ECD3D5"/>
</svg>
