<svg width="69" height="75" viewBox="0 0 69 75" fill="none" xmlns="http://www.w3.org/2000/svg">
<path d="M67.2303 3.08262C66.8036 1.64953 65.6386 0.606257 64.2377 0.400496C64.0692 0.375681 63.9007 0.363262 63.7331 0.363262C63.2792 0.363262 62.834 0.453257 62.418 0.622829C62.231 0.545281 62.0352 0.483225 61.8335 0.437731C61.5812 0.381896 61.3289 0.354995 61.0805 0.354995C60.6266 0.354995 60.1824 0.444951 59.7674 0.613489C59.4751 0.536974 59.178 0.498757 58.8809 0.498757C58.0198 0.498757 57.1674 0.821344 56.4884 1.44173C55.7062 2.15517 55.0389 2.54188 54.2547 2.7342C53.6595 2.87999 52.9834 2.95028 52.1895 2.95028C51.1783 2.95028 50.1175 2.83964 48.9952 2.72176C47.9393 2.6132 46.8541 2.40848 45.7065 2.19342C44.5356 1.97421 43.3257 1.74677 42.0593 1.60512C40.0545 1.37971 38.0224 1.26597 36.0186 1.26597C35.5247 1.26597 35.024 1.2732 34.5321 1.28768C33.7713 1.30939 33.0143 1.31247 32.2136 1.31557C30.6287 1.32385 28.9901 1.33318 27.3 1.48414C24.8744 1.70231 22.439 2.08799 20.0572 2.63082C19.8526 2.6515 19.6471 2.67111 19.4406 2.69179C18.2414 2.81173 17.1075 2.92447 16.031 2.92447C14.1081 2.92447 12.8943 2.56465 11.9698 1.72092L11.6649 1.44173C10.9859 0.82031 10.1326 0.498757 9.27143 0.498757C8.97431 0.498757 8.6772 0.536974 8.38496 0.613489C7.96997 0.444951 7.52576 0.354995 7.0718 0.354995C6.82242 0.354995 6.56914 0.381896 6.31879 0.437731C6.11714 0.483225 5.92231 0.545281 5.7343 0.622829C5.31834 0.453257 4.87315 0.363262 4.41823 0.363262C4.25165 0.363262 4.08311 0.375681 3.91459 0.400496C2.51279 0.606257 1.34673 1.6506 0.92103 3.08369C-0.145662 6.66848 0.227439 10.1788 1.99941 13.2373C3.29211 15.4687 5.27157 17.245 7.6748 18.3938C7.11174 20.8774 6.81853 23.4757 7.24715 26.1837C7.592 28.3685 8.35671 30.2948 9.52081 31.9078C9.61238 32.0339 9.70492 32.158 9.80136 32.28C8.38203 33.5653 7.25494 35.1214 6.46491 36.9029C5.09526 39.9914 4.69878 43.6558 5.35049 47.222C6.42497 53.1012 9.93482 57.5855 13.5684 61.556C14.072 62.106 14.6974 62.469 15.3628 62.6344C15.2741 62.7699 15.1865 62.9064 15.0988 63.0439C12.7287 66.7755 12.9128 70.7253 15.5654 73.1034C16.6136 74.0423 17.842 74.5396 19.1171 74.5396C19.8653 74.5396 20.5949 74.367 21.2807 74.0402C22.0581 74.4321 22.9076 74.6451 23.7872 74.6451C25.0117 74.6451 26.1817 74.2356 27.1792 73.515C27.4899 73.5801 27.8036 73.6132 28.1144 73.6132C29.5678 73.6132 30.8566 72.9349 31.7509 71.7624C31.7742 71.7634 31.7986 71.7634 31.823 71.7634C32.2331 71.7634 32.649 71.691 33.0514 71.538C33.4274 71.3953 33.7703 71.1937 34.0742 70.9435C34.3772 71.1937 34.7211 71.3963 35.0971 71.538C35.3961 71.6507 35.702 71.721 36.0079 71.7489C36.908 72.9483 38.2065 73.6349 39.6639 73.6349C40 73.6349 40.3214 73.5987 40.6263 73.5346C41.4651 74.1333 42.4275 74.5138 43.4426 74.6161C43.6257 74.6348 43.8098 74.644 43.991 74.644C44.8697 74.644 45.7192 74.4321 46.4946 74.0402C47.1804 74.3659 47.91 74.5386 48.6572 74.5386C49.9324 74.5386 51.1598 74.0433 52.209 73.1024C54.8645 70.7232 55.0457 66.7724 52.6727 63.0377C52.6006 62.924 52.5285 62.8112 52.4554 62.6996C53.2425 62.5838 53.9946 62.197 54.581 61.556C58.1366 57.6713 61.5851 53.2852 62.7366 47.5466C63.4496 43.9918 63.1204 40.314 61.8092 37.1883C61.0104 35.2848 59.8404 33.6324 58.349 32.279C58.3724 32.249 58.3977 32.2159 58.4211 32.1849C59.6213 30.6215 60.46 28.6632 60.8458 26.5208C61.3543 23.697 61.063 20.989 60.4766 18.3989C62.4599 17.456 64.1501 16.0859 65.4096 14.3685C67.6813 11.2697 68.449 7.18233 67.4135 3.70197L67.2303 3.08262Z" fill="#B6E1E6" stroke="#3E6060" stroke-width="0.7087" stroke-miterlimit="10" stroke-linecap="round" stroke-linejoin="round" stroke-dasharray="4.25 2.83"/>
<path d="M50.9708 30.5719C45.7835 29.4149 41.1114 28.8142 36.0634 28.5557V28.4192C35.3912 28.4316 34.7308 28.4492 34.0762 28.4719C33.4215 28.4502 32.761 28.4316 32.0889 28.4192V28.5557C27.0408 28.8142 22.3688 29.4149 17.1815 30.5719C15.8635 33.2148 15.4748 36.3074 15.7602 39.2821C16.0456 42.2558 16.974 45.1262 18.1644 47.8352C19.8244 51.6134 22.0513 55.1898 25.1179 57.7944C27.1392 59.5118 29.56 60.7671 32.0889 61.28V61.4392C32.7513 61.5271 33.4147 61.5498 34.0762 61.5229C34.7376 61.5498 35.401 61.5271 36.0634 61.4392V61.28C38.5933 60.7671 41.0121 59.5118 43.0334 57.7944C46.1001 55.1898 48.3279 51.6134 49.9879 47.8352C51.1773 45.1262 52.1067 42.2558 52.3921 39.2821C52.6765 36.3074 52.2888 33.2148 50.9708 30.5719Z" fill="#A29E9A"/>
<path d="M34.5915 61.8434C34.4161 61.8434 34.2408 61.8403 34.0654 61.8321C33.9125 61.8403 33.7372 61.8434 33.5618 61.8434C33.0465 61.8434 32.539 61.8114 32.0529 61.7472L31.7976 61.7132V61.5343C29.3701 60.9976 27.0029 59.791 24.9357 58.0363C22.1701 55.6882 19.803 52.2998 17.9004 47.9664C16.522 44.8293 15.7271 41.9984 15.4699 39.3131C15.1563 36.0365 15.6579 32.9625 16.9234 30.4272L16.9867 30.2979L17.1211 30.2689C22.0922 29.1595 26.6307 28.5381 31.7957 28.261V28.1048L32.0928 28.111C32.7659 28.1224 33.4284 28.14 34.0849 28.1628C34.722 28.141 35.3844 28.1224 36.0576 28.111L36.3537 28.1048V28.261C41.5216 28.5401 46.0601 29.1605 51.0293 30.2689L51.1637 30.2979L51.227 30.4272C52.4924 32.9625 52.9941 36.0354 52.6804 39.3131C52.4223 41.9994 51.6284 44.8293 50.2499 47.9664C48.3474 52.2998 45.9803 55.6882 43.2146 58.0363C41.1475 59.791 38.7803 60.9976 36.3527 61.5343V61.7132L36.0965 61.7472C35.6143 61.8114 35.1058 61.8434 34.5915 61.8434ZM34.0654 61.2148C34.2554 61.221 34.4239 61.2251 34.5915 61.2251C34.9928 61.2251 35.3883 61.2044 35.7722 61.163V61.0245L36.0089 60.9759C38.4257 60.4858 40.7919 59.3029 42.8523 57.5524C45.5468 55.2642 47.8584 51.9503 49.7239 47.7048C51.0741 44.6308 51.8514 41.866 52.1018 39.25C52.3989 36.1502 51.9401 33.2468 50.776 30.8438C45.802 29.7426 41.2537 29.1305 36.0498 28.8638L35.7722 28.8493V28.7335C35.2033 28.7459 34.6431 28.7604 34.0869 28.78C33.5141 28.7604 32.951 28.7459 32.3811 28.7335V28.8493L32.1045 28.8638C26.9016 29.1305 22.3533 29.7416 17.3773 30.8438C16.2142 33.2478 15.7554 36.1502 16.0525 39.25C16.3028 41.8649 17.0812 44.6308 18.4304 47.7048C20.2959 51.9503 22.6075 55.2652 25.302 57.5524C27.3623 59.3019 29.7285 60.4858 32.1454 60.9759L32.3821 61.0245V61.163C32.9247 61.2209 33.4975 61.2365 34.0654 61.2148Z" fill="#202B2B"/>
<path d="M42.5892 32.2862C40.073 30.4757 36.872 29.664 34.0849 30.3475C31.2989 29.664 28.0978 30.4757 25.5816 32.2862C25.3605 34.0067 25.4267 35.7872 25.679 37.4995C25.755 38.0134 25.8534 38.5397 26.0774 38.9574C26.3015 39.3741 26.6843 39.6625 27.0438 39.5385C27.2581 39.4651 27.4315 39.2076 27.5007 38.916C27.6234 41.136 27.9575 43.3342 28.4962 45.4259C28.544 45.6121 28.6005 45.8095 28.7193 45.9119C29.0388 46.1849 29.3691 45.5335 29.3895 45.0041C29.41 44.4747 29.3749 43.8191 29.6964 43.5524C29.4188 46.4889 30.1299 49.5836 31.5755 51.7187C31.8132 50.6889 32.0509 49.657 32.2886 48.6271C32.3344 51.0591 32.8039 53.4641 33.6212 55.6013C33.704 55.8184 33.8852 55.9539 34.081 55.9539H34.0878C34.2827 55.9539 34.4639 55.8184 34.5476 55.6013C35.365 53.4641 35.8335 51.058 35.8803 48.6271C36.118 49.657 36.3557 50.6889 36.5934 51.7187C38.0371 49.5836 38.7491 46.4878 38.4715 43.5524C38.794 43.8191 38.7589 44.4757 38.7794 45.0041C38.7998 45.5324 39.13 46.1849 39.4496 45.9119C39.5694 45.8095 39.6269 45.6121 39.6736 45.4259C40.2133 43.3353 40.5464 41.137 40.6692 38.916C40.7374 39.2066 40.9118 39.464 41.1261 39.5385C41.4855 39.6625 41.8674 39.3751 42.0924 38.9574C42.3165 38.5397 42.4149 38.0134 42.4909 37.4995C42.7441 35.7872 42.8094 34.0067 42.5892 32.2862Z" fill="#D2C9C1"/>
<path d="M34.0879 29.6537C34.0879 29.6537 28.7018 28.02 22.93 33.3295C22.93 33.3295 30.8566 34.3914 34.0879 39.9449C37.3201 34.3914 45.2458 33.3295 45.2458 33.3295C39.4739 28.02 34.0879 29.6537 34.0879 29.6537Z" fill="#827973"/>
<path d="M19.1512 32.2976C16.7714 32.9821 14.3097 33.7111 12.417 35.3872C9.37275 38.0827 8.44243 42.8245 9.33962 46.9232C10.2358 51.0219 12.6819 54.556 15.4436 57.5741C14.7588 55.6199 14.2328 53.6037 13.8762 51.5544C17.1163 56.9269 22.0552 61.1238 27.7013 63.3065C26.6171 62.1588 25.5329 61.0101 24.4487 59.8613C27.1568 61.7463 29.5532 64.1368 31.4947 66.8882C31.2044 59.3299 29.7461 51.8243 27.1967 44.7602C25.5865 40.2986 23.5349 35.9817 22.5481 31.3205C21.4152 31.6452 20.2832 31.9719 19.1512 32.2976Z" fill="#827973"/>
<path d="M31.8249 67.872L31.2619 67.0748C30.5128 66.0139 29.7013 65.012 28.8324 64.0752L27.601 63.5986C22.3397 61.5648 17.7222 57.8373 14.4598 53.02C14.7881 54.5296 15.2089 56.0195 15.7174 57.4681L16.2015 58.8485L15.2342 57.7918C11.8588 54.1046 9.83841 50.5736 9.05519 46.996C8.04987 42.4 9.29581 37.7513 12.2309 35.1518C14.2065 33.4024 16.7938 32.6579 19.0753 32.0013L22.7654 30.9395L22.8316 31.2548C23.5242 34.5222 24.7682 37.6841 25.9723 40.7415C26.4759 42.0185 26.9951 43.3388 27.4685 44.652C30.0413 51.7771 31.4927 59.2548 31.7869 66.8794L31.8249 67.872ZM22.2237 57.9448L24.6075 59.6033C27.1003 61.3383 29.2999 63.4611 31.1596 65.9229C30.7865 58.7058 29.3633 51.6282 26.924 44.8702C26.4535 43.5653 25.9343 42.2501 25.4345 40.9773C24.2597 37.9922 23.0459 34.9099 22.3309 31.7025L19.2263 32.5959C17.0023 33.2359 14.4812 33.9607 12.6021 35.6254C9.87835 38.0366 8.68015 42.5489 9.62117 46.8534C10.3041 49.9749 11.9737 53.0738 14.7121 56.2936C14.2396 54.7612 13.8626 53.1906 13.5869 51.6096L13.3161 50.0545L14.1198 51.3873C17.0851 56.3018 21.4444 60.1957 26.4983 62.4715L22.2237 57.9448Z" fill="#202B2B"/>
<path d="M30.164 61.2862C29.1889 55.5621 27.5104 49.9745 25.1841 44.7084C25.4316 44.879 25.68 45.0507 25.9274 45.2213C25.1306 42.2838 23.4979 39.6089 21.2992 37.635C20.742 37.1345 20.14 36.6651 19.726 36.0272C19.312 35.3882 19.122 34.5155 19.4698 33.8341C17.1114 33.3575 14.5796 34.2085 12.8154 35.9362C11.0502 37.663 10.0546 40.2034 10.002 42.7501C9.9504 45.2978 10.8116 47.83 12.2708 49.8525C12.3069 49.017 12.6907 48.2064 13.2986 47.6759C14.789 52.1158 17.5653 56.0584 21.1531 58.8346C20.8443 57.9775 21.118 56.9228 21.797 56.3572C23.7911 58.5761 26.0482 60.5282 28.5001 62.1516C28.9979 62.4804 29.7461 62.7513 30.0851 62.2436C30.2633 61.9738 30.2195 61.6108 30.164 61.2862Z" fill="#5E544D"/>
<path d="M49.0021 32.2976C51.3819 32.9821 53.8436 33.7111 55.7363 35.3872C58.7806 38.0827 59.7109 42.8245 58.8137 46.9232C57.9175 51.0219 55.4714 54.556 52.7097 57.5741C53.3945 55.6199 53.9205 53.6037 54.2771 51.5544C51.0361 56.9269 46.0981 61.1238 40.452 63.3065C41.5352 62.1588 42.6204 61.0101 43.7046 59.8613C40.9965 61.7463 38.6001 64.1368 36.6586 66.8882C36.9489 59.3299 38.4072 51.8243 40.9566 44.7602C42.5668 40.2986 44.6184 35.9817 45.6052 31.3205C46.7381 31.6452 47.8701 31.9719 49.0021 32.2976Z" fill="#827973"/>
<path d="M36.3284 67.8715L36.3664 66.8758C36.6596 59.2513 38.1121 51.7736 40.6848 44.6484C41.1582 43.3343 41.6784 42.0149 42.1811 40.738C43.3841 37.6805 44.6291 34.5186 45.3217 31.2513L45.388 30.9359L49.078 31.9978C51.3605 32.6544 53.9459 33.3978 55.9224 35.1483C58.8575 37.7477 60.1035 42.3965 59.0981 46.9925C58.3149 50.5701 56.2945 54.1011 52.9191 57.7882L51.9518 58.8449L52.4359 57.4646C52.9435 56.017 53.3653 54.526 53.6936 53.0164C50.4292 57.8347 45.8127 61.5622 40.5523 63.595L39.321 64.0717C38.4511 65.0085 37.6396 66.0104 36.8915 67.0713L36.3284 67.8715ZM45.8215 31.7031C45.1074 34.9105 43.8936 37.9928 42.7178 40.9778C42.2171 42.2496 41.6989 43.5659 41.2284 44.8708C38.7891 51.6288 37.3659 58.7064 36.9928 65.9235C38.8514 63.4616 41.052 61.3378 43.5449 59.6038L45.9286 57.9453L41.6531 62.4732C46.707 60.1974 51.0663 56.3034 54.0316 51.3889L54.8353 50.0561L54.5645 51.6112C54.2888 53.1932 53.9108 54.7638 53.4393 56.2951C56.1776 53.0753 57.8464 49.9766 58.5292 46.855C59.4722 42.5505 58.273 38.0383 55.5483 35.627C53.6702 33.9634 51.1491 33.2375 48.9251 32.5975L45.8215 31.7031Z" fill="#202B2B"/>
<path d="M37.9825 61.2862C38.9566 55.5621 40.6361 49.9745 42.9623 44.7084C42.7139 44.879 42.4665 45.0507 42.2181 45.2213C43.015 42.2838 44.6476 39.6089 46.8463 37.635C47.4035 37.1345 48.0055 36.6651 48.4195 36.0272C48.8335 35.3882 49.0235 34.5155 48.6757 33.8341C51.0341 33.3575 53.5669 34.2085 55.3311 35.9362C57.0963 37.663 58.0909 40.2034 58.1435 42.7501C58.1951 45.2978 57.3349 47.83 55.8747 49.8525C55.8386 49.017 55.4548 48.2064 54.8469 47.6759C53.3565 52.1158 50.5812 56.0584 46.9924 58.8346C47.3022 57.9775 47.0275 56.9228 46.3485 56.3572C44.3554 58.5761 42.0973 60.5282 39.6454 62.1516C39.1476 62.4804 38.3994 62.7513 38.0604 62.2436C37.8822 61.9738 37.9279 61.6108 37.9825 61.2862Z" fill="#5E544D"/>
<path d="M41.1387 59.1675C40.8163 60.1302 40.0555 60.7206 39.4398 60.4869C38.8242 60.2542 38.5865 59.2854 38.9099 58.3238C39.2323 57.3622 43.3198 48.927 43.3198 48.927C43.3198 48.927 41.4631 58.2059 41.1387 59.1675Z" fill="#C4BFBB"/>
<path d="M39.6876 59.595C40.0353 59.7265 40.5524 59.1325 40.8428 58.2681C41.1331 57.4038 41.0866 56.5964 40.739 56.4649C40.3914 56.3333 39.8742 56.9274 39.5839 57.7918C39.2936 58.6561 39.34 59.4634 39.6876 59.595Z" fill="#827973"/>
<path d="M48.7225 56.3696C48.5549 56.565 48.3572 56.7098 48.1575 56.8173C47.9587 56.9248 47.7581 56.9962 47.5691 57.0262C47.1882 57.0882 46.8541 56.9879 46.6417 56.7243C46.4284 56.4606 46.3748 56.0873 46.4488 55.7068C46.4868 55.5155 46.556 55.3222 46.6583 55.1371C46.7605 54.953 46.894 54.7762 47.044 54.6015C47.12 54.5157 47.2885 54.3565 47.5262 54.1424C47.6431 54.0339 47.7873 53.9191 47.9276 53.7764C48.0698 53.6337 48.2247 53.4797 48.3893 53.3153C48.553 53.1488 48.7381 52.9802 48.9124 52.7889C49.0868 52.5945 49.2661 52.3929 49.4511 52.1861C49.8369 51.7829 50.1759 51.3073 50.5441 50.8565C50.8968 50.3933 51.2144 49.9093 51.5251 49.4637C51.8066 48.9973 52.0677 48.5652 52.2888 48.1961C52.6921 47.4237 52.9561 46.9191 52.9561 46.9191C52.9561 46.9191 52.8266 47.4847 52.6298 48.3501C52.51 48.7771 52.357 49.2766 52.1943 49.8225C51.9985 50.3519 51.7998 50.934 51.5572 51.5068C51.2991 52.0683 51.0643 52.6628 50.7662 53.1881C50.624 53.4569 50.4847 53.7185 50.3503 53.9708C50.2119 54.222 50.06 54.4485 49.9246 54.6708C49.7862 54.891 49.6567 55.0978 49.5369 55.288C49.418 55.4793 49.2894 55.6355 49.1852 55.7823C48.9689 56.0677 48.8082 56.2755 48.7225 56.3696Z" fill="#C4BFBB"/>
<path d="M48.8072 55.4328C48.5033 55.7647 48.1857 56.0212 47.8944 56.1339C47.6012 56.2445 47.3606 56.2393 47.2349 56.0956C47.1093 55.9508 47.121 55.6996 47.2359 55.4132C47.3499 55.1257 47.5428 54.7773 47.8272 54.466C48.1175 54.1589 48.4049 53.9046 48.6708 53.766C48.9368 53.6285 49.1764 53.6027 49.3196 53.7247C49.4638 53.8477 49.4833 54.1 49.3937 54.4133C49.306 54.7266 49.115 55.1061 48.8072 55.4328Z" fill="#827973"/>
<path d="M57.3057 46.5199C57.2384 46.7712 57.1216 46.9945 56.9881 47.1817C56.8566 47.3699 56.7075 47.5208 56.539 47.6253C56.2107 47.8362 55.8688 47.8703 55.5785 47.7121C55.2872 47.5539 55.0973 47.2447 55.0135 46.8973C54.9755 46.7257 54.9521 46.5365 54.9551 46.3442C54.9619 46.1529 54.9979 45.9585 55.0515 45.759C55.1119 45.5635 55.3613 44.9834 55.5843 44.1532C55.8074 43.3249 55.9721 42.2414 55.9682 41.1526C55.976 40.0628 55.7928 38.9864 55.5775 38.2016C55.4626 37.8128 55.3632 37.4861 55.2726 37.2669C55.1889 37.0436 55.1411 36.9164 55.1411 36.9164C55.1411 36.9164 55.221 37.0239 55.3613 37.2131C55.5084 37.4003 55.6915 37.6857 55.9136 38.0403C56.3413 38.7527 56.8352 39.798 57.1381 40.9685C57.4537 42.1328 57.5901 43.4046 57.5638 44.4416C57.5375 45.4777 57.3816 46.2728 57.3057 46.5199Z" fill="#C4BFBB"/>
<path d="M56.9667 45.6649C56.9209 45.883 56.842 46.0816 56.7543 46.2553C56.6657 46.4279 56.578 46.5789 56.4679 46.6906C56.2556 46.917 56.0422 47.0111 55.8717 46.9346C55.7013 46.8601 55.6039 46.6358 55.5785 46.3494C55.5698 46.2067 55.56 46.0391 55.5775 45.8664C55.5941 45.6927 55.6302 45.5098 55.6691 45.3175C55.8542 44.5658 56.202 43.9598 56.5712 43.995C56.9375 44.028 57.1791 44.787 56.9667 45.6649Z" fill="#827973"/>
<path d="M51.6936 47.7524C51.5524 47.9385 51.3731 48.0698 51.188 48.1639C51.0049 48.2591 50.8198 48.3169 50.6435 48.3376C50.2899 48.3779 49.9752 48.2611 49.7658 47.9954C49.5564 47.7296 49.4813 47.3719 49.5164 47.0255C49.5349 46.8508 49.5807 46.6781 49.6567 46.5178C49.7327 46.3586 49.8369 46.2086 49.9509 46.0546C50.0113 45.9812 50.1447 45.8447 50.3366 45.6607C50.4302 45.5655 50.5529 45.4715 50.6601 45.3443C50.7711 45.2181 50.8919 45.0806 51.0215 44.9348C51.1481 44.7849 51.3001 44.638 51.4316 44.4633C51.5621 44.2865 51.6966 44.1014 51.8359 43.9132C52.1369 43.5451 52.358 43.1006 52.6249 42.6766L52.7223 42.5163L52.8012 42.3488C52.8548 42.2361 52.9074 42.1245 52.96 42.0149C53.0633 41.7926 53.1724 41.5744 53.2669 41.3604C53.4227 40.922 53.5786 40.5094 53.6984 40.1516C53.8835 39.4134 54.0053 38.9295 54.0053 38.9295C54.0053 38.9295 54.0277 39.4361 54.0637 40.2116C54.0511 40.5993 54.0199 41.0564 53.9907 41.563C53.9595 41.8101 53.9147 42.0656 53.8747 42.3313C53.8533 42.4647 53.8319 42.599 53.8104 42.7345L53.7773 42.9382L53.7257 43.1378C53.5796 43.6661 53.4676 44.2327 53.2591 44.7301C53.1626 44.9854 53.0691 45.2357 52.9785 45.4766C52.8831 45.7165 52.7632 45.9295 52.6629 46.1425C52.5577 46.3514 52.4583 46.5499 52.3668 46.7298C52.2752 46.9128 52.1651 47.0575 52.0794 47.1961C51.9031 47.468 51.7686 47.6635 51.6936 47.7524Z" fill="#C4BFBB"/>
<path d="M51.6878 46.8705C51.4325 47.1775 51.1598 47.4174 50.8938 47.5105C50.6259 47.6025 50.4009 47.5829 50.2733 47.4423C50.1457 47.2996 50.1359 47.0659 50.2158 46.8105C50.2957 46.552 50.4311 46.2356 50.66 45.9637C50.8958 45.6969 51.1247 45.4663 51.3556 45.3402C51.5855 45.2151 51.8095 45.1861 51.9635 45.2937C52.1174 45.4012 52.1719 45.6286 52.1271 45.9202C52.0833 46.2097 51.9508 46.5696 51.6878 46.8705Z" fill="#827973"/>
<path d="M45.991 52.7228C45.9627 52.85 45.9169 52.9709 45.8819 53.0898C45.8487 53.2087 45.8078 53.3225 45.7611 53.429C45.6675 53.643 45.5506 53.8322 45.4172 53.9884C45.1522 54.2996 44.8239 54.4836 44.4995 54.4443C44.1751 54.404 43.916 54.1393 43.7631 53.7247C43.6861 53.5179 43.6355 53.2728 43.617 53.0071C43.6072 52.8737 43.6053 52.7341 43.6121 52.5925C43.6189 52.4508 43.652 52.3092 43.6842 52.1634C43.7183 52.0176 43.8069 51.7281 43.9355 51.3351C44.0047 51.1408 44.0641 50.9133 44.1674 50.6776C44.2687 50.4418 44.3807 50.1864 44.4986 49.9145C44.6223 49.6457 44.7343 49.3541 44.8853 49.0676C45.0412 48.7854 45.2019 48.4897 45.3675 48.1888C45.4503 48.0389 45.5331 47.8889 45.6179 47.7369C45.7007 47.5849 45.8068 47.4454 45.9004 47.2975C46.0942 47.009 46.2891 46.7174 46.4839 46.4289L46.629 46.2149L46.7898 46.0133C46.8969 45.8799 47.0031 45.7486 47.1083 45.6173C47.3197 45.3578 47.5204 45.1013 47.722 44.8635C48.1584 44.4117 48.553 43.995 48.8969 43.6527C49.6275 43.023 50.1058 42.6095 50.1058 42.6095C50.1058 42.6095 49.7366 43.1254 49.1725 43.9143C48.9163 44.3269 48.6329 44.8191 48.3231 45.3381C48.1828 45.61 48.0493 45.8985 47.9071 46.186C47.8379 46.3307 47.7668 46.4755 47.6957 46.6234L47.5886 46.8426L47.4989 47.0742C47.3801 47.3813 47.2603 47.6894 47.1414 47.9954C47.0849 48.1495 47.0158 48.2953 46.971 48.4514C46.9252 48.6065 46.8784 48.7616 46.8336 48.9136C46.742 49.2155 46.6534 49.5113 46.5686 49.7956C46.4868 50.0789 46.441 50.3653 46.3797 50.6249C46.3222 50.8854 46.2686 51.1294 46.2179 51.3538C46.1653 51.5771 46.1517 51.7891 46.1195 51.97C46.066 52.3329 46.0212 52.5956 45.991 52.7228Z" fill="#C4BFBB"/>
<path d="M45.6354 51.848C45.5282 52.3205 45.3334 52.7259 45.1639 53.0185C44.9964 53.3111 44.8006 53.4817 44.6184 53.4496C44.4352 53.4166 44.3028 53.1818 44.2356 52.821C44.1722 52.4601 44.2268 51.9845 44.3447 51.4747C44.4518 50.9619 44.6846 50.54 44.9038 50.2608C45.1249 49.9816 45.3451 49.8493 45.5185 49.9186C45.6919 49.9879 45.7845 50.2422 45.7981 50.5886C45.8127 50.936 45.7338 51.3713 45.6354 51.848Z" fill="#827973"/>
<path d="M46.2277 44.6454C46.1887 44.7353 46.1351 44.8191 46.0884 44.8977C46.0445 44.9773 45.9929 45.0507 45.9374 45.1199C45.8224 45.2575 45.687 45.3733 45.5594 45.4715C45.2906 45.6628 44.9554 45.7724 44.6359 45.7041C44.3154 45.6349 44.0729 45.3795 43.9521 44.9783C43.8858 44.7767 43.8712 44.5513 43.8946 44.3104C43.9053 44.1904 43.9248 44.0664 43.954 43.9392C43.9842 43.8151 44.0339 43.6972 44.0865 43.5741C44.1888 43.3291 44.6048 42.6343 45.2389 41.8816C45.8682 41.1237 46.7099 40.3212 47.4921 39.5602C48.2812 38.7992 48.9923 38.0248 49.4541 37.3724C49.6771 37.0446 49.8632 36.7654 49.9684 36.5566C50.0824 36.3508 50.1486 36.233 50.1486 36.233C50.1486 36.233 50.1175 36.3653 50.0619 36.5979C50.0152 36.8357 49.9109 37.1615 49.7775 37.5627C49.4989 38.3547 48.9855 39.3742 48.4088 40.3554C47.8341 41.3429 47.2515 42.3117 46.8755 43.0965C46.4936 43.8802 46.3027 44.4654 46.2277 44.6454Z" fill="#C4BFBB"/>
<path d="M45.9968 43.8513C45.8984 44.0198 45.8078 44.176 45.7104 44.3135C45.614 44.451 45.4951 44.5637 45.4036 44.6629C45.2068 44.8542 44.9925 44.9525 44.8171 44.8894C44.6428 44.8264 44.5424 44.6061 44.5288 44.2804C44.5161 44.1149 44.5531 43.9413 44.5989 43.7458C44.6476 43.5515 44.7197 43.3478 44.8288 43.1565C45.2477 42.3624 45.8994 41.9932 46.1917 42.2259C46.4917 42.4616 46.3514 43.173 45.9968 43.8513Z" fill="#827973"/>
<path d="M57.0213 21.4998C56.7417 19.3181 56.0763 17.214 55.4363 15.1191C54.9356 13.4803 54.4203 11.7846 53.3458 10.4931C52.3502 9.29577 50.9406 8.54723 49.4813 8.15639C45.8322 7.18032 41.8041 8.4066 38.9644 11.0298C36.6275 13.1887 35.4936 14.0997 34.8194 17.3205C34.6295 18.2283 34.3528 18.2283 34.1619 17.3205C33.4878 14.0997 31.5239 13.1887 29.1859 11.0298C26.3473 8.4066 22.3192 7.17928 18.67 8.15639C17.2107 8.54723 15.8021 9.29577 14.8056 10.4931C13.7311 11.7846 13.2158 13.4803 12.7151 15.1191C12.075 17.214 11.4097 19.3181 11.1291 21.4998C10.8496 23.6825 10.9772 25.979 11.8675 27.9694C12.5913 29.5886 13.8762 30.9731 15.4358 31.61C15.7602 31.7434 15.6998 32.2355 15.355 32.2821C15.3472 32.2831 15.3384 32.2842 15.3316 32.2852C15.0033 32.3276 14.9205 32.7929 15.2186 32.9438C16.6565 33.6748 18.369 33.7969 19.9764 33.6046C21.9909 33.3626 23.9382 32.6833 25.9411 32.3431C27.8348 32.0215 29.8718 32.035 31.5697 32.9542C31.7265 33.039 31.9204 32.9873 32.0081 32.8249C33.1712 30.6391 34.9782 30.6391 36.1423 32.8249C36.23 32.9873 36.4239 33.039 36.5807 32.9542C38.2786 32.035 40.3156 32.0226 42.2093 32.3431C44.2122 32.6833 46.1595 33.3616 48.174 33.6046C49.7804 33.7979 51.4939 33.6748 52.9318 32.9438C53.2299 32.7929 53.1471 32.3276 52.8188 32.2852C52.811 32.2842 52.8022 32.2831 52.7954 32.2821C52.4506 32.2355 52.3902 31.7434 52.7145 31.61C54.2742 30.9741 55.5591 29.5896 56.2828 27.9694C57.1742 25.979 57.3018 23.6825 57.0213 21.4998Z" fill="#FAE8C7"/>
<path d="M49.5018 33.9943C49.5008 33.9943 49.5018 33.9943 49.5018 33.9943C49.0615 33.9943 48.6046 33.9665 48.1429 33.9117C46.9924 33.7731 45.8536 33.4918 44.7528 33.2209C43.9063 33.011 43.0305 32.7949 42.1655 32.6481C39.9532 32.2738 38.1189 32.4692 36.7151 33.2292C36.4258 33.3843 36.0449 33.2696 35.8891 32.977C35.3805 32.0205 34.7357 31.4942 34.0762 31.4942C33.4167 31.4942 32.7718 32.0205 32.2623 32.977C32.1074 33.2696 31.7265 33.3864 31.4372 33.2292C30.0344 32.4703 28.1991 32.2738 25.9868 32.6481C25.1208 32.7949 24.246 33.011 23.3995 33.2209C22.2977 33.4918 21.159 33.7731 20.0095 33.9117C19.5477 33.9665 19.0918 33.9943 18.6505 33.9943C17.2974 33.9943 16.1012 33.7348 15.0929 33.223C14.8445 33.0969 14.7072 32.8188 14.752 32.5303C14.7978 32.2356 15.016 32.0133 15.2975 31.9771C15.3365 31.9719 15.356 31.9668 15.3589 31.9378C15.3618 31.9151 15.3521 31.9068 15.3336 31.8985C13.7554 31.2554 12.3965 29.8709 11.6065 28.1017C10.7853 26.2664 10.5213 23.969 10.8437 21.4585C11.1116 19.3616 11.737 17.3205 12.341 15.3487L12.4403 15.0251C12.9547 13.3418 13.4798 11.6233 14.5893 10.2905C15.5411 9.14587 16.9282 8.30528 18.6009 7.85757C19.4523 7.62907 20.3426 7.51426 21.2466 7.51426C24.1564 7.51426 27.1217 8.71056 29.3808 10.7971C29.8815 11.2593 30.3608 11.6616 30.8245 12.0503C32.5419 13.4886 33.8979 14.6228 34.4493 17.2543C34.4649 17.3256 34.4795 17.3867 34.4931 17.4394C34.5077 17.3867 34.5223 17.3267 34.5369 17.2543C35.2003 14.0903 36.2846 13.0926 38.4442 11.1032L38.7764 10.7971C41.0345 8.71056 43.9988 7.51426 46.9106 7.51426C47.8146 7.51426 48.7049 7.62907 49.5564 7.85757C51.229 8.30528 52.6162 9.14484 53.5679 10.2905C54.6775 11.6233 55.2025 13.3417 55.71 15.0033L55.8153 15.3487C56.4192 17.3215 57.0446 19.3626 57.3125 21.4595C57.634 23.97 57.371 26.2664 56.5498 28.1028C55.7588 29.8719 54.3998 31.2564 52.8227 31.8995C52.8032 31.9078 52.7944 31.9161 52.7974 31.9388C52.8003 31.9678 52.8188 31.973 52.8363 31.9761C53.1393 32.0143 53.3575 32.2366 53.4033 32.5313C53.4481 32.8198 53.3107 33.0979 53.0613 33.224C52.0521 33.7348 50.8549 33.9943 49.5018 33.9943ZM40.0964 31.8426C40.7695 31.8426 41.4972 31.9078 42.2571 32.037C43.1435 32.188 44.029 32.4052 44.8853 32.6171C45.9695 32.8849 47.0927 33.161 48.2091 33.2954C48.6484 33.3481 49.0829 33.375 49.5008 33.375C50.7663 33.375 51.8787 33.1362 52.8071 32.6636C52.8198 32.6574 52.8275 32.6523 52.8256 32.6306C52.8197 32.5964 52.7954 32.5923 52.7857 32.5923L52.7584 32.5882C52.4691 32.5489 52.2509 32.3173 52.2158 32.0112C52.1817 31.7083 52.3405 31.4301 52.6113 31.3195C54.0511 30.7322 55.2931 29.4625 56.0208 27.835C56.7933 26.1072 57.0398 23.9317 56.7329 21.5411C56.4699 19.498 55.8542 17.4849 55.2581 15.5379L55.1587 15.2143C54.6619 13.591 54.1563 11.9355 53.1266 10.6978C52.0229 9.37229 50.4964 8.74675 49.4102 8.45723C48.6056 8.24113 47.7639 8.1326 46.9077 8.1326C44.1352 8.1326 41.3112 9.27413 39.1573 11.2635L38.8242 11.5695C36.6966 13.5299 35.7254 14.4233 35.1049 17.3877C35.0143 17.8178 34.8633 18.311 34.4912 18.311C34.119 18.311 33.968 17.8178 33.8784 17.3877C33.3719 14.9723 32.0879 13.897 30.4611 12.5363C29.9925 12.1423 29.5064 11.736 28.995 11.2645C26.8412 9.2741 24.0171 8.13361 21.2447 8.13361C20.3884 8.13361 19.5468 8.24221 18.7421 8.45831C17.6559 8.74782 16.1285 9.37337 15.0257 10.6989C13.9961 11.9366 13.4905 13.592 13.0005 15.1936L12.8953 15.54C12.2991 17.487 11.6825 19.5001 11.4204 21.5432C11.1145 23.9338 11.36 26.1103 12.1325 27.8371C12.8592 29.4645 14.1022 30.7343 15.542 31.3216C15.8128 31.4322 15.9716 31.7103 15.9375 32.0133C15.9025 32.3193 15.6833 32.5509 15.393 32.5902C15.3579 32.5944 15.3326 32.5985 15.3277 32.6326C15.3238 32.6544 15.3336 32.6595 15.3452 32.6657C16.2736 33.1372 17.3871 33.3771 18.6515 33.3771C19.0704 33.3771 19.5049 33.3502 19.9442 33.2975C21.0606 33.1631 22.1838 32.887 23.268 32.6192C24.1243 32.4083 25.0098 32.1901 25.8962 32.0391C28.2332 31.6421 30.1864 31.8582 31.7031 32.6792C31.7372 32.6854 31.7499 32.6833 31.7557 32.673C32.3724 31.5139 33.1965 30.8759 34.0771 30.8759C34.9578 30.8759 35.7819 31.5139 36.3985 32.673C36.4044 32.6833 36.4161 32.6853 36.4248 32.6853C37.473 32.1229 38.7004 31.8426 40.0964 31.8426Z" fill="#202B2B"/>
<path d="M32.3831 30.056C30.4144 30.1925 28.4661 30.6609 26.6356 31.4405C26.4057 31.5387 26.169 31.6431 25.9206 31.641C25.6712 31.6379 25.4063 31.4974 25.3303 31.2461C25.1959 30.8005 25.6897 30.4489 26.0979 30.2721C24.1691 31.5366 21.8584 31.9564 19.6013 32.1797C19.3247 32.2066 19.0363 32.2304 18.7772 32.1229C18.5181 32.0153 18.3018 31.7362 18.3476 31.4446C18.3934 31.154 18.7908 30.9752 18.973 31.1985C17.6102 30.6443 16.2464 30.0911 14.8835 29.5369C14.49 29.3767 14.0828 29.2092 13.7847 28.8907C13.4866 28.5722 13.3278 28.0625 13.5236 27.6654C13.7184 27.2684 14.3409 27.1629 14.5601 27.5445C12.7014 26.6966 11.6805 24.3805 11.8559 22.2412C12.0322 20.1008 13.2168 18.1694 14.7208 16.7322C18.03 13.5651 22.9407 12.5663 27.2367 13.8226C28.9132 14.3137 30.5488 15.1554 31.6934 16.544C32.839 17.9337 33.4157 19.9354 32.8634 21.6859C32.804 21.1472 33.4654 20.7595 33.9359 20.9705C34.4045 21.1824 34.6334 21.7738 34.6217 22.3156C34.61 22.8574 34.4113 23.3703 34.2515 23.8842C33.7703 25.43 33.6281 27.0936 33.8385 28.7056C33.9116 29.2712 33.9992 29.9371 33.6105 30.332C33.2745 30.6733 32.7328 30.634 32.2915 30.4778C31.8503 30.3217 31.4265 30.0684 30.9618 30.0529" fill="#D2C9C1"/>
<path d="M35.8248 30.056C37.7935 30.1925 39.7418 30.6609 41.5722 31.4405C41.8021 31.5387 42.0389 31.6431 42.2882 31.641C42.5366 31.6379 42.8026 31.4974 42.8776 31.2461C43.012 30.8005 42.5191 30.4489 42.11 30.2721C44.0388 31.5366 46.3495 31.9564 48.6066 32.1797C48.8832 32.2066 49.1716 32.2304 49.4307 32.1229C49.6898 32.0153 49.9071 31.7362 49.8603 31.4446C49.8145 31.154 49.418 30.9752 49.2349 31.1985C50.5977 30.6443 51.9615 30.0911 53.3244 29.5369C53.7179 29.3767 54.1251 29.2092 54.4232 28.8907C54.7213 28.5722 54.881 28.0625 54.6852 27.6654C54.4894 27.2684 53.8679 27.1629 53.6478 27.5445C55.5065 26.6966 56.5274 24.3805 56.352 22.2412C56.1757 20.1008 54.9911 18.1694 53.488 16.7322C50.1788 13.5651 45.2672 12.5663 40.9712 13.8226C39.2947 14.3137 37.6601 15.1554 36.5145 16.544C35.3689 17.9337 34.7922 19.9354 35.3455 21.6859C35.4039 21.1472 34.7425 20.7595 34.2729 20.9705C33.8034 21.1824 33.5745 21.7738 33.5862 22.3156C33.5979 22.8574 33.7976 23.3703 33.9573 23.8842C34.4376 25.43 34.5808 27.0936 34.3694 28.7056C34.2963 29.2712 34.2096 29.9371 34.5973 30.332C34.9334 30.6733 35.475 30.634 35.9163 30.4778C36.3566 30.3217 36.7804 30.0684 37.2451 30.0529" fill="#D2C9C1"/>
<path d="M21.8253 30.0043C26.9251 30.0043 31.0592 25.6162 31.0592 20.2033C31.0592 14.7903 26.9251 10.4022 21.8253 10.4022C16.7255 10.4022 12.5913 14.7903 12.5913 20.2033C12.5913 25.6162 16.7255 30.0043 21.8253 30.0043Z" fill="#DB84B6"/>
<path d="M21.8253 30.3134C16.5727 30.3134 12.3001 25.7774 12.3001 20.2033C12.3001 14.627 16.5736 10.092 21.8253 10.092C27.0769 10.092 31.3505 14.6281 31.3505 20.2033C31.3515 25.7774 27.0779 30.3134 21.8253 30.3134ZM21.8253 10.7103C16.8941 10.7103 12.8826 14.9683 12.8826 20.2033C12.8826 25.4373 16.8941 29.6952 21.8253 29.6952C26.7564 29.6952 30.768 25.4373 30.768 20.2033C30.768 14.9683 26.7564 10.7103 21.8253 10.7103Z" fill="#202B2B"/>
<path d="M21.8263 27.9353C25.8495 27.9353 29.1109 24.4736 29.1109 20.2033C29.1109 15.933 25.8495 12.4712 21.8263 12.4712C17.803 12.4712 14.5416 15.933 14.5416 20.2033C14.5416 24.4736 17.803 27.9353 21.8263 27.9353Z" fill="white"/>
<path d="M21.8253 28.2444C17.6482 28.2444 14.2494 24.6369 14.2494 20.2032C14.2494 15.7685 17.6482 12.162 21.8253 12.162C26.0034 12.162 29.4013 15.7685 29.4013 20.2032C29.4022 24.6369 26.0034 28.2444 21.8253 28.2444ZM21.8253 12.7792C17.9696 12.7792 14.8319 16.1097 14.8319 20.2032C14.8319 24.2957 17.9696 27.6251 21.8253 27.6251C25.682 27.6251 28.8187 24.2957 28.8187 20.2032C28.8187 16.1097 25.682 12.7792 21.8253 12.7792Z" fill="#202B2B"/>
<path d="M21.8263 23.5791C23.5829 23.5791 25.0069 22.0677 25.0069 20.2032C25.0069 18.3388 23.5829 16.8273 21.8263 16.8273C20.0697 16.8273 18.6457 18.3388 18.6457 20.2032C18.6457 22.0677 20.0697 23.5791 21.8263 23.5791Z" fill="#202B2B"/>
<path d="M46.328 30.0043C51.4278 30.0043 55.562 25.6162 55.562 20.2033C55.562 14.7903 51.4278 10.4022 46.328 10.4022C41.2283 10.4022 37.0941 14.7903 37.0941 20.2033C37.0941 25.6162 41.2283 30.0043 46.328 30.0043Z" fill="#DB84B6"/>
<path d="M46.328 30.3134C41.0745 30.3134 36.8019 25.7774 36.8019 20.2033C36.8019 14.627 41.0754 10.092 46.328 10.092C51.5807 10.092 55.8533 14.6281 55.8533 20.2033C55.8533 25.7774 51.5797 30.3134 46.328 30.3134ZM46.328 10.7103C41.3959 10.7103 37.3844 14.9683 37.3844 20.2033C37.3844 25.4373 41.3959 29.6952 46.328 29.6952C51.2592 29.6952 55.2707 25.4373 55.2707 20.2033C55.2698 14.9683 51.2582 10.7103 46.328 10.7103Z" fill="#202B2B"/>
<path d="M46.3271 27.9353C50.3503 27.9353 53.6117 24.4736 53.6117 20.2033C53.6117 15.933 50.3503 12.4712 46.3271 12.4712C42.3038 12.4712 39.0424 15.933 39.0424 20.2033C39.0424 24.4736 42.3038 27.9353 46.3271 27.9353Z" fill="white"/>
<path d="M46.328 28.2444C42.1499 28.2444 38.7521 24.6369 38.7521 20.2032C38.7521 15.7685 42.1499 12.162 46.328 12.162C50.5052 12.162 53.904 15.7685 53.904 20.2032C53.904 24.6369 50.5052 28.2444 46.328 28.2444ZM46.328 12.7792C42.4714 12.7792 39.3346 16.1097 39.3346 20.2032C39.3346 24.2957 42.4714 27.6251 46.328 27.6251C50.1837 27.6251 53.3214 24.2957 53.3214 20.2032C53.3204 16.1097 50.1837 12.7792 46.328 12.7792Z" fill="#202B2B"/>
<path d="M50.9094 21.4533C51.0858 21.4884 51.2942 21.7045 51.4549 21.9423C51.5348 22.0592 51.604 22.1802 51.6498 22.2701C51.6897 22.3621 51.715 22.4211 51.715 22.4211C51.715 22.4211 51.4929 22.5504 51.2387 22.6372C50.9805 22.7251 50.6727 22.7551 50.5188 22.6734C50.36 22.5927 50.246 22.4552 50.1837 22.3115C50.1223 22.1657 50.0921 22.0044 50.1457 21.8607C50.2324 21.5743 50.5617 21.3861 50.9094 21.4533Z" fill="#827973"/>
<path d="M50.0103 23.5533C50.1486 23.6609 50.2675 23.97 50.3064 24.2502C50.3513 24.5304 50.3454 24.8003 50.3454 24.8003C50.3454 24.8003 50.286 24.8075 50.1876 24.8044C50.0902 24.8013 49.9596 24.793 49.8252 24.7713C49.5573 24.7331 49.2758 24.6276 49.1638 24.4787C48.9543 24.1871 48.9553 23.7839 49.1599 23.574C49.2573 23.4571 49.4015 23.4075 49.5554 23.4034C49.7035 23.3951 49.87 23.4417 50.0103 23.5533Z" fill="#827973"/>
<path d="M48.3465 25.0381C48.4283 25.2035 48.402 25.5178 48.329 25.8022C48.2569 26.0824 48.137 26.3109 48.137 26.3109C48.137 26.3109 48.0815 26.2851 47.9938 26.2427C47.9071 26.1982 47.7961 26.1392 47.6821 26.0513C47.4542 25.8838 47.2438 25.6616 47.2067 25.4786C47.1678 25.2966 47.196 25.1136 47.2642 24.9698C47.2973 24.8985 47.3412 24.8354 47.3938 24.7858C47.4454 24.7299 47.5029 24.6855 47.573 24.6597C47.6412 24.6338 47.7133 24.6255 47.7863 24.6348C47.8565 24.6379 47.9276 24.6555 47.9977 24.6876C48.1331 24.7517 48.2656 24.8716 48.3465 25.0381Z" fill="#827973"/>
<path d="M46.2404 25.6047C46.2462 25.7939 46.0942 26.0731 45.9121 26.2819C45.7328 26.497 45.5312 26.6614 45.5312 26.6614C45.5312 26.6614 45.3627 26.4577 45.2263 26.2096C45.087 25.9655 44.9896 25.6626 45.0305 25.4775C45.1152 25.1239 45.4123 24.8695 45.6939 24.9119C45.84 24.9192 45.9676 25.0019 46.067 25.1301C46.1654 25.2593 46.2355 25.4165 46.2404 25.6047Z" fill="#827973"/>
<path d="M44.1089 25.1508C44.0388 25.3204 43.7904 25.4951 43.5352 25.6109C43.2838 25.7247 43.0403 25.7681 43.0403 25.7681C43.0403 25.7681 43.0247 25.705 43.0013 25.6068C42.9799 25.5085 42.9546 25.3772 42.9477 25.2294C42.9283 24.9357 42.9614 24.6224 43.0724 24.4777C43.1815 24.3319 43.3355 24.2409 43.4835 24.2068C43.6306 24.1747 43.7768 24.1944 43.9044 24.2699C44.0281 24.3536 44.107 24.4891 44.1489 24.639C44.1878 24.7951 44.182 24.9802 44.1089 25.1508Z" fill="#827973"/>
<path d="M42.3749 23.7569C42.2376 23.882 41.9483 23.9203 41.6735 23.9069C41.5372 23.8996 41.4076 23.8821 41.3112 23.8635C41.2176 23.8407 41.1602 23.8252 41.1602 23.8252C41.1602 23.8252 41.203 23.5595 41.2985 23.2948C41.394 23.0249 41.5625 22.7509 41.7193 22.6723C41.8781 22.5917 42.0505 22.5813 42.1947 22.6196C42.3389 22.6589 42.4772 22.7344 42.5503 22.8688C42.7091 23.1201 42.637 23.515 42.3749 23.7569Z" fill="#827973"/>
<path d="M41.3862 21.7035C41.2196 21.7501 40.9215 21.6559 40.6877 21.5143C40.4539 21.3757 40.261 21.2021 40.261 21.2021C40.261 21.2021 40.2971 21.1503 40.3536 21.0686C40.415 20.9901 40.5055 20.8867 40.6069 20.7884C40.8085 20.5899 41.055 20.4224 41.2313 20.4224C41.5878 20.4307 41.8723 20.684 41.9044 20.9849C41.9298 21.1359 41.8713 21.2889 41.7827 21.4181C41.695 21.5484 41.5567 21.657 41.3862 21.7035Z" fill="#827973"/>
<path d="M41.3277 19.3967C41.1514 19.3615 40.9429 19.1454 40.7822 18.9066C40.7023 18.7897 40.6332 18.6698 40.5874 18.5799C40.5474 18.4868 40.5221 18.4289 40.5221 18.4289C40.5221 18.4289 40.7442 18.2986 40.9985 18.2128C41.2566 18.1249 41.5645 18.0949 41.7184 18.1756C41.8772 18.2573 41.9911 18.3937 42.0535 18.5385C42.1148 18.6832 42.145 18.8456 42.0915 18.9893C42.0038 19.2747 41.6745 19.4618 41.3277 19.3967Z" fill="#827973"/>
<path d="M42.2269 17.2946C42.0885 17.1871 41.9697 16.879 41.9307 16.5988C41.8859 16.3176 41.8918 16.0488 41.8918 16.0488C41.8918 16.0488 41.9512 16.0405 42.0496 16.0446C42.147 16.0467 42.2775 16.056 42.4119 16.0766C42.6798 16.1159 42.9614 16.2204 43.0734 16.3703C43.2828 16.6619 43.2819 17.0651 43.0773 17.275C42.9799 17.3908 42.8357 17.4415 42.6818 17.4456C42.5327 17.4549 42.3662 17.4084 42.2269 17.2946Z" fill="#827973"/>
<path d="M43.8907 15.8109C43.8089 15.6465 43.8352 15.3322 43.9083 15.0479C43.9804 14.7676 44.1002 14.5391 44.1002 14.5391C44.1002 14.5391 44.1557 14.565 44.2434 14.6063C44.3301 14.6518 44.4411 14.7108 44.5551 14.7976C44.7831 14.9662 44.9935 15.1885 45.0305 15.3715C45.0694 15.5535 45.0412 15.7354 44.974 15.8802C44.9399 15.9515 44.896 16.0146 44.8434 16.0642C44.7918 16.119 44.7343 16.1645 44.6642 16.1904C44.596 16.2162 44.5239 16.2235 44.4509 16.2152C44.3807 16.211 44.3096 16.1945 44.2395 16.1625C44.1031 16.0963 43.9716 15.9763 43.8907 15.8109Z" fill="#827973"/>
<path d="M45.9968 15.2433C45.991 15.0551 46.1429 14.7748 46.3251 14.567C46.5043 14.3519 46.706 14.1875 46.706 14.1875C46.706 14.1875 46.8745 14.3912 47.0109 14.6394C47.1502 14.8823 47.2476 15.1863 47.2067 15.3714C47.122 15.725 46.8249 15.9794 46.5433 15.936C46.3972 15.9298 46.2696 15.8471 46.1702 15.7188C46.0718 15.5886 46.0017 15.4335 45.9968 15.2433Z" fill="#827973"/>
<path d="M48.1273 15.6982C48.1974 15.5276 48.4458 15.3539 48.7011 15.237C48.9524 15.1243 49.1959 15.0799 49.1959 15.0799C49.1959 15.0799 49.2115 15.143 49.2349 15.2412C49.2563 15.3405 49.2817 15.4717 49.2885 15.6196C49.308 15.9132 49.2748 16.2265 49.1638 16.3713C49.0547 16.5171 48.9008 16.607 48.7527 16.6422C48.6056 16.6732 48.4595 16.6546 48.3319 16.5781C48.2082 16.4954 48.1292 16.3599 48.0874 16.209C48.0494 16.0528 48.0552 15.8688 48.1273 15.6982Z" fill="#827973"/>
<path d="M49.8623 17.091C49.9996 16.9669 50.2889 16.9275 50.5636 16.942C50.7 16.9493 50.8296 16.9669 50.926 16.9855C51.0195 17.0083 51.077 17.0237 51.077 17.0237C51.077 17.0237 51.0342 17.2884 50.9387 17.5542C50.8432 17.823 50.6747 18.097 50.5178 18.1756C50.3591 18.2563 50.1866 18.2666 50.0425 18.2283C49.8983 18.19 49.76 18.1135 49.6869 17.9802C49.5281 17.7289 49.6002 17.3339 49.8623 17.091Z" fill="#827973"/>
<path d="M50.85 19.1444C51.0166 19.0979 51.3147 19.193 51.5485 19.3347C51.7823 19.4732 51.9752 19.6469 51.9752 19.6469C51.9752 19.6469 51.9391 19.6986 51.8826 19.7793C51.8213 19.8579 51.7307 19.9623 51.6293 20.0595C51.4287 20.257 51.1812 20.4255 51.0049 20.4245C50.6484 20.4173 50.3639 20.1629 50.3318 19.863C50.3065 19.711 50.3649 19.559 50.4536 19.4298C50.5422 19.3016 50.6796 19.1909 50.85 19.1444Z" fill="#827973"/>
<path d="M26.4768 21.4533C26.6532 21.4884 26.8616 21.7045 27.0224 21.9423C27.1023 22.0592 27.1714 22.1802 27.2172 22.2701C27.2571 22.3621 27.2825 22.4211 27.2825 22.4211C27.2825 22.4211 27.0604 22.5504 26.8061 22.6372C26.548 22.7251 26.2401 22.7551 26.0862 22.6734C25.9274 22.5927 25.8135 22.4552 25.7511 22.3115C25.6897 22.1657 25.6595 22.0044 25.7131 21.8607C25.7998 21.5743 26.1291 21.3861 26.4768 21.4533Z" fill="#827973"/>
<path d="M25.5777 23.5533C25.716 23.6609 25.8349 23.97 25.8739 24.2502C25.9187 24.5304 25.9128 24.8003 25.9128 24.8003C25.9128 24.8003 25.8534 24.8075 25.755 24.8044C25.6576 24.8013 25.5271 24.793 25.3926 24.7713C25.1247 24.7331 24.8432 24.6276 24.7312 24.4787C24.5217 24.1871 24.5227 23.7839 24.7273 23.574C24.8247 23.4571 24.9689 23.4075 25.1228 23.4034C25.2709 23.3951 25.4374 23.4417 25.5777 23.5533Z" fill="#827973"/>
<path d="M23.9138 25.0381C23.9957 25.2035 23.9694 25.5178 23.8963 25.8022C23.8242 26.0824 23.7044 26.3109 23.7044 26.3109C23.7044 26.3109 23.6489 26.2851 23.5612 26.2427C23.4745 26.1982 23.3635 26.1392 23.2495 26.0513C23.0215 25.8838 22.8111 25.6616 22.7741 25.4786C22.7351 25.2966 22.7634 25.1136 22.8306 24.9698C22.8647 24.8985 22.9085 24.8354 22.9611 24.7858C23.0128 24.7299 23.0702 24.6855 23.1404 24.6597C23.2086 24.6338 23.2806 24.6255 23.3537 24.6348C23.4238 24.6379 23.495 24.6555 23.5651 24.6876C23.7005 24.7517 23.833 24.8716 23.9138 25.0381Z" fill="#827973"/>
<path d="M21.8077 25.6047C21.8136 25.7939 21.6616 26.0731 21.4795 26.2819C21.3002 26.497 21.0986 26.6614 21.0986 26.6614C21.0986 26.6614 20.93 26.4577 20.7937 26.2096C20.6544 25.9655 20.5569 25.6626 20.5979 25.4775C20.6826 25.1239 20.9797 24.8695 21.2613 24.9119C21.4074 24.9192 21.535 25.0019 21.6344 25.1301C21.7327 25.2593 21.8029 25.4165 21.8077 25.6047Z" fill="#827973"/>
<path d="M19.6763 25.1508C19.6062 25.3204 19.3578 25.4951 19.1025 25.6109C18.8512 25.7247 18.6077 25.7681 18.6077 25.7681C18.6077 25.7681 18.5921 25.705 18.5687 25.6068C18.5473 25.5085 18.522 25.3772 18.5151 25.2294C18.4956 24.9357 18.5288 24.6224 18.6398 24.4777C18.7489 24.3319 18.9028 24.2409 19.0509 24.2068C19.198 24.1747 19.3441 24.1944 19.4717 24.2699C19.5955 24.3536 19.6744 24.4891 19.7163 24.639C19.7552 24.7951 19.7484 24.9802 19.6763 25.1508Z" fill="#827973"/>
<path d="M17.9423 23.7569C17.805 23.882 17.5157 23.9203 17.2409 23.9069C17.1046 23.8996 16.975 23.8821 16.8786 23.8635C16.785 23.8407 16.7276 23.8252 16.7276 23.8252C16.7276 23.8252 16.7704 23.5595 16.8659 23.2948C16.9614 23.0249 17.1299 22.7509 17.2867 22.6723C17.4455 22.5917 17.6179 22.5813 17.7621 22.6196C17.9063 22.6589 18.0446 22.7344 18.1177 22.8688C18.2765 23.1201 18.2044 23.515 17.9423 23.7569Z" fill="#827973"/>
<path d="M16.9536 21.7035C16.787 21.7501 16.4889 21.6559 16.2551 21.5143C16.0213 21.3757 15.8285 21.2021 15.8285 21.2021C15.8285 21.2021 15.8645 21.1503 15.921 21.0686C15.9824 20.9901 16.073 20.8867 16.1743 20.7884C16.3759 20.5899 16.6224 20.4224 16.7987 20.4224C17.1552 20.4307 17.4397 20.684 17.4718 20.9849C17.4972 21.1359 17.4387 21.2889 17.3501 21.4181C17.2624 21.5484 17.1241 21.657 16.9536 21.7035Z" fill="#827973"/>
<path d="M16.8951 19.3967C16.7188 19.3615 16.5103 19.1454 16.3496 18.9066C16.2697 18.7897 16.2006 18.6698 16.1548 18.5799C16.1148 18.4868 16.0895 18.4289 16.0895 18.4289C16.0895 18.4289 16.3116 18.2986 16.5659 18.2128C16.824 18.1249 17.1318 18.0949 17.2858 18.1756C17.4445 18.2573 17.5585 18.3937 17.6209 18.5385C17.6822 18.6832 17.7124 18.8456 17.6589 18.9893C17.5712 19.2747 17.2419 19.4618 16.8951 19.3967Z" fill="#827973"/>
<path d="M17.7943 17.2946C17.6559 17.1871 17.5371 16.879 17.4981 16.5988C17.4533 16.3176 17.4592 16.0488 17.4592 16.0488C17.4592 16.0488 17.5186 16.0405 17.617 16.0446C17.7144 16.0467 17.8449 16.056 17.9794 16.0766C18.2473 16.1159 18.5288 16.2204 18.6408 16.3703C18.8502 16.6619 18.8493 17.0651 18.6447 17.275C18.5473 17.3908 18.4031 17.4415 18.2492 17.4456C18.1001 17.4549 17.9336 17.4084 17.7943 17.2946Z" fill="#827973"/>
<path d="M19.4581 15.8109C19.3763 15.6465 19.4026 15.3322 19.4756 15.0479C19.5477 14.7676 19.6676 14.5391 19.6676 14.5391C19.6676 14.5391 19.7231 14.565 19.8108 14.6063C19.8975 14.6518 20.0085 14.7108 20.1225 14.7976C20.3504 14.9662 20.5609 15.1885 20.5979 15.3715C20.6368 15.5535 20.6086 15.7354 20.5404 15.8802C20.5073 15.9515 20.4634 16.0146 20.4108 16.0642C20.3592 16.119 20.3017 16.1645 20.2316 16.1904C20.1634 16.2162 20.0913 16.2235 20.0183 16.2152C19.9481 16.211 19.877 16.1945 19.8069 16.1625C19.6705 16.0963 19.539 15.9763 19.4581 15.8109Z" fill="#827973"/>
<path d="M21.5642 15.2433C21.5584 15.0551 21.7103 14.7748 21.8925 14.567C22.0717 14.3519 22.2734 14.1875 22.2734 14.1875C22.2734 14.1875 22.4419 14.3912 22.5783 14.6394C22.7176 14.8823 22.815 15.1863 22.7741 15.3714C22.6894 15.725 22.3922 15.9794 22.1107 15.936C21.9646 15.9298 21.837 15.8471 21.7376 15.7188C21.6392 15.5886 21.5691 15.4335 21.5642 15.2433Z" fill="#827973"/>
<path d="M23.6947 15.6982C23.7648 15.5276 24.0132 15.3539 24.2685 15.237C24.5198 15.1243 24.7633 15.0799 24.7633 15.0799C24.7633 15.0799 24.7789 15.143 24.8023 15.2412C24.8237 15.3405 24.8491 15.4717 24.8559 15.6196C24.8754 15.9132 24.8422 16.2265 24.7312 16.3713C24.6221 16.5171 24.4682 16.607 24.3201 16.6422C24.173 16.6732 24.0269 16.6546 23.8993 16.5781C23.7755 16.4954 23.6966 16.3599 23.6548 16.209C23.6158 16.0528 23.6226 15.8688 23.6947 15.6982Z" fill="#827973"/>
<path d="M25.4296 17.091C25.567 16.9669 25.8563 16.9275 26.131 16.942C26.2674 16.9493 26.3969 16.9669 26.4934 16.9855C26.5869 17.0083 26.6444 17.0237 26.6444 17.0237C26.6444 17.0237 26.6015 17.2884 26.506 17.5542C26.4106 17.823 26.242 18.097 26.0852 18.1756C25.9264 18.2563 25.754 18.2666 25.6098 18.2283C25.4656 18.19 25.3273 18.1135 25.2543 17.9802C25.0955 17.7289 25.1676 17.3339 25.4296 17.091Z" fill="#827973"/>
<path d="M26.4174 19.1444C26.584 19.0979 26.8821 19.193 27.1159 19.3347C27.3497 19.4732 27.5426 19.6469 27.5426 19.6469C27.5426 19.6469 27.5065 19.6986 27.45 19.7793C27.3887 19.8579 27.2981 19.9623 27.1968 20.0595C26.9951 20.257 26.7486 20.4255 26.5723 20.4245C26.2158 20.4173 25.9313 20.1629 25.8992 19.863C25.8739 19.711 25.9323 19.559 26.021 19.4298C26.1096 19.3016 26.247 19.1909 26.4174 19.1444Z" fill="#827973"/>
<path d="M46.3271 23.5791C48.0837 23.5791 49.5077 22.0677 49.5077 20.2032C49.5077 18.3388 48.0837 16.8273 46.3271 16.8273C44.5705 16.8273 43.1465 18.3388 43.1465 20.2032C43.1465 22.0677 44.5705 23.5791 46.3271 23.5791Z" fill="#202B2B"/>
<path d="M7.97385 7.3416C6.57692 7.10688 5.2891 6.22487 4.51271 4.97066C3.71585 7.64659 4.69487 10.701 6.59544 12.6532C8.49502 14.6043 11.1778 15.5369 13.8197 15.6485C17.4133 15.7995 20.9719 14.5536 24.5607 14.7883C27.674 14.992 30.7105 16.3486 33.0231 18.5695C33.026 16.5523 32.7942 14.5112 32.0957 12.6355C31.3972 10.7599 30.2049 9.05075 28.5771 8.00954C26.7067 6.8122 24.4243 6.57441 22.2422 6.67574C20.0601 6.77603 17.8907 7.18238 15.7066 7.1524C13.5216 7.12345 11.2441 6.60027 9.58899 5.08653C9.62114 6.06984 10.2592 6.99933 11.1301 7.33434C9.62211 7.58456 8.00795 6.73466 7.2822 5.31088C7.22278 6.05017 7.48385 6.81324 7.97385 7.3416Z" fill="#827973"/>
<path d="M33.3134 19.2672L32.8264 18.8008C30.5498 16.614 27.6079 15.2988 24.5422 15.0992C24.249 15.0796 23.9431 15.0713 23.6304 15.0713C22.1166 15.0713 20.5726 15.2988 19.0792 15.519C17.3588 15.7724 15.5791 16.035 13.8071 15.9605C10.8389 15.8354 8.20476 14.7404 6.39187 12.8782C4.31207 10.7431 3.44508 7.52848 4.23317 4.88047L4.41728 4.25903L4.75531 4.80291C5.34662 5.7583 6.25939 6.48932 7.28419 6.84915C7.05527 6.37042 6.94812 5.8255 6.99001 5.28783L7.07086 4.25077L7.53748 5.16685C8.04598 6.16567 9.05422 6.87707 10.1365 7.03734C9.63969 6.53689 9.32017 5.83479 9.29581 5.10274L9.27243 4.39447L9.77899 4.8556C11.1672 6.12429 13.2177 6.81294 15.7106 6.84706C15.7856 6.84706 15.8528 6.85324 15.9366 6.84807C17.1289 6.84807 18.3427 6.72196 19.5175 6.59892C20.404 6.5069 21.3217 6.41075 22.2296 6.36939C22.5316 6.35595 22.8287 6.34768 23.1122 6.34768C25.4199 6.34768 27.2562 6.80574 28.7281 7.74769C30.3033 8.75685 31.595 10.4526 32.3666 12.5246C33.0085 14.2483 33.3193 16.2273 33.3154 18.5734L33.3134 19.2672ZM23.6314 14.4499C23.9548 14.4499 24.2733 14.4602 24.5792 14.4799C27.5582 14.6743 30.4241 15.8788 32.7231 17.8868C32.6705 15.9171 32.3753 14.2307 31.824 12.749C31.0992 10.802 29.8932 9.21381 28.4261 8.27496C27.0487 7.39298 25.3108 6.96495 23.1122 6.96495C22.8365 6.96495 22.5481 6.97117 22.2539 6.98565C21.3616 7.02598 20.4527 7.12107 19.574 7.21309C18.3086 7.34441 17.0013 7.48299 15.7018 7.46231C13.433 7.43233 11.4993 6.87809 10.0527 5.85032C10.2797 6.39006 10.7103 6.84396 11.2276 7.04352L12.2962 7.45505L11.174 7.64116C10.986 7.67115 10.7921 7.68767 10.5982 7.68767C9.55006 7.68767 8.51163 7.22448 7.75959 6.46658C7.86285 6.70956 8.00507 6.93392 8.18236 7.12417L8.80387 7.79313L7.93006 7.64634C6.66269 7.43437 5.47325 6.71058 4.64425 5.6704C4.20784 7.97203 5.03197 10.6149 6.79908 12.4285C8.50968 14.1852 11.0074 15.2181 13.8324 15.337C15.5547 15.4115 17.3053 15.1519 19.0022 14.9017C20.5131 14.6815 22.0776 14.4499 23.6314 14.4499Z" fill="#202B2B"/>
<path d="M60.1785 7.3416C61.5754 7.10688 62.8642 6.22487 63.6406 4.97066C64.4374 7.64659 63.4575 10.701 61.5579 12.6532C59.6583 14.6043 56.9755 15.5369 54.3336 15.6485C50.7399 15.7995 47.1814 14.5536 43.5926 14.7883C40.4792 14.992 37.4428 16.3486 35.1302 18.5695C35.1263 16.5523 35.3591 14.5112 36.0576 12.6355C36.756 10.7599 37.9484 9.05075 39.5752 8.00954C41.4466 6.8122 43.729 6.57441 45.9111 6.67574C48.0932 6.77603 50.2626 7.18238 52.4467 7.1524C54.6307 7.12345 56.9092 6.60027 58.5643 5.08653C58.5312 6.06984 57.8941 6.99933 57.0232 7.33434C58.5312 7.58456 60.1453 6.73466 60.8711 5.31088C60.9295 6.05017 60.6694 6.81324 60.1785 7.3416Z" fill="#827973"/>
<path d="M34.8399 19.2664L34.8389 18.5705C34.835 16.2244 35.1448 14.2454 35.7878 12.5218C36.5583 10.4497 37.851 8.75294 39.4262 7.74482C40.8981 6.8039 42.7344 6.34481 45.0422 6.34481C45.3256 6.34481 45.6237 6.35308 45.9247 6.36652C46.8336 6.40788 47.7503 6.50402 48.6368 6.59605C49.8856 6.72633 51.1744 6.85763 52.4437 6.84419C54.9366 6.81007 56.9872 6.12148 58.3753 4.85279L58.8809 4.39159L58.8585 5.09986C58.8342 5.83192 58.5137 6.53402 58.0178 7.03446C59.1001 6.87523 60.1083 6.1628 60.6168 5.16398L61.0835 4.24789L61.1643 5.28496C61.2062 5.82263 61.1 6.36754 60.8701 6.84627C61.8949 6.48645 62.8067 5.75543 63.399 4.80003L63.7361 4.25616L63.9211 4.87759C64.7092 7.52664 63.8422 10.7402 61.7624 12.8754C59.9486 14.7386 57.3154 15.8326 54.3472 15.9577C52.5772 16.0321 50.7955 15.7695 49.0742 15.5162C47.5818 15.2959 46.0368 15.0685 44.5239 15.0685C44.2122 15.0685 43.9053 15.0778 43.6111 15.0964C40.5465 15.2959 37.6045 16.6112 35.328 18.798L34.8399 19.2664ZM45.0412 6.96517C42.8425 6.96517 41.1046 7.39327 39.7272 8.27525C38.2601 9.21409 37.0541 10.8033 36.3294 12.7492C35.778 14.2309 35.4828 15.9163 35.4302 17.887C37.7283 15.8791 40.5961 14.6755 43.5741 14.4801C43.879 14.4594 44.1985 14.4501 44.522 14.4501C46.0757 14.4501 47.6392 14.6818 49.1531 14.9041C50.8481 15.1543 52.5996 15.4127 54.3229 15.3393C57.1469 15.2204 59.6456 14.1875 61.3562 12.4308C63.1223 10.6172 63.9465 7.9733 63.511 5.6727C62.682 6.71288 61.4926 7.43667 60.2252 7.64864L59.3524 7.79549L59.9729 7.12648C60.1492 6.93622 60.2915 6.7129 60.3957 6.46888C59.6437 7.22472 58.6052 7.68997 57.557 7.68997C57.3632 7.68997 57.1703 7.67345 56.9813 7.64346L55.8591 7.45736L56.9268 7.04582C57.445 6.84627 57.8756 6.39236 58.1026 5.85262C56.6569 6.87936 54.7223 7.43359 52.4535 7.46461C51.153 7.48529 49.8467 7.34671 48.5812 7.2154C47.7026 7.12337 46.7937 7.02828 45.9014 6.98795C45.6052 6.97141 45.3178 6.96517 45.0412 6.96517Z" fill="#202B2B"/>
<path d="M33.3475 28.688H34.8048C34.8048 28.688 37.9182 30.4613 38.9518 31.9564C38.0565 31.9295 37.2324 32.5354 36.6917 33.2933C36.1511 34.0522 35.8364 34.959 35.4741 35.8296C35.1467 36.6165 34.7581 37.4023 34.1658 37.9823C34.1707 38.0423 34.1112 38.0961 34.0762 38.0641C34.0411 38.0961 33.9817 38.0423 33.9865 37.9823C33.3952 37.4023 33.0046 36.6165 32.6783 35.8296C32.3159 34.959 32.0012 34.0522 31.4596 33.2933C30.9189 32.5354 30.0958 31.9295 29.1996 31.9564C30.2341 30.4613 33.3475 28.688 33.3475 28.688Z" fill="#EA954D"/>
<path d="M33.9982 38.365L33.9904 38.3577C33.9213 38.3432 33.856 38.304 33.8073 38.2471C33.779 38.214 33.7557 38.1757 33.7401 38.1344C33.1244 37.5068 32.7318 36.6785 32.4279 35.9485C32.3636 35.7934 32.2993 35.6363 32.237 35.4802C31.9564 34.7843 31.6661 34.0657 31.2424 33.4701C30.6968 32.705 29.9565 32.248 29.259 32.248L28.6482 32.2655L28.9804 31.7848C30.0393 30.2545 33.0903 28.506 33.2199 28.4326L33.2803 28.3974H34.8769L34.9373 28.4326C35.0669 28.506 38.1179 30.2545 39.1768 31.7848L39.509 32.2655L38.8982 32.248C38.2007 32.248 37.4594 32.704 36.9148 33.4701C36.4891 34.0667 36.1998 34.7853 35.9202 35.4802C35.8569 35.6363 35.7936 35.7934 35.7293 35.9485C35.4253 36.6785 35.0328 37.5068 34.4171 38.1344C34.4005 38.1757 34.3781 38.213 34.3499 38.2471C34.3041 38.2998 34.2466 38.3371 34.1833 38.3546L34.1775 38.3567C34.1541 38.3629 34.1288 38.366 34.1044 38.366H33.9982V38.365ZM29.749 31.7206C30.4582 31.8819 31.1527 32.3793 31.6797 33.1186C32.1444 33.772 32.4474 34.5237 32.7406 35.2506C32.8029 35.4047 32.8653 35.5608 32.9286 35.7138C33.2033 36.3746 33.553 37.1149 34.0762 37.6712C34.5993 37.1159 34.949 36.3746 35.2227 35.7138C35.286 35.5608 35.3494 35.4057 35.4107 35.2516C35.7049 34.5247 36.0079 33.772 36.4726 33.1186C36.9996 32.3793 37.6951 31.883 38.4033 31.7206C37.3045 30.5067 35.1234 29.206 34.7337 28.9796H33.4167C33.0289 29.206 30.8478 30.5067 29.749 31.7206Z" fill="#202B2B"/>
<path d="M34.0762 5.5053C28.5703 5.29334 23.0323 5.99023 17.7271 7.56808C21.4464 8.31461 24.3367 10.4746 26.9454 13.3863C28.0413 14.6115 28.9872 15.9888 30.1601 17.1313C31.1732 18.1208 31.8883 19.1455 33.7576 19.159C35.627 19.1724 36.9791 18.1208 37.9932 17.1313C39.1661 15.9888 40.112 14.6105 41.2079 13.3863C43.8167 10.4746 46.706 8.31461 50.4263 7.56808C45.1191 5.99023 39.583 5.29334 34.0762 5.5053Z" fill="#A29E9A"/>
<path d="M33.7917 19.4691L33.7557 19.4681C32.0227 19.4557 31.2132 18.6296 30.3559 17.7558C30.2273 17.6245 30.0968 17.4922 29.9623 17.3598C29.2434 16.6588 28.6024 15.8657 27.9839 15.0975C27.5815 14.598 27.1646 14.0821 26.734 13.6003C23.8223 10.3484 20.9437 8.52965 17.6735 7.87307L16.449 7.62802L17.6481 7.27133C22.3601 5.87029 27.2377 5.15996 32.1444 5.15996C32.7893 5.15996 33.443 5.17341 34.0869 5.19719C34.7094 5.17341 35.363 5.15996 36.0089 5.15996C40.9157 5.15996 45.7932 5.87029 50.5052 7.27133L51.7044 7.62802L50.4799 7.87307C47.2106 8.52965 44.331 10.3494 41.4193 13.6003C40.9887 14.0821 40.5718 14.5981 40.1695 15.0964C39.5499 15.8647 38.9099 16.6598 38.191 17.3598C37.1837 18.3411 35.7741 19.4691 33.7917 19.4691ZM18.933 7.54535C21.8604 8.39424 24.5003 10.2068 27.1568 13.1733C27.5981 13.6665 28.0199 14.1886 28.4271 14.6943C29.035 15.448 29.6642 16.2276 30.3569 16.9038C30.4962 17.0393 30.6287 17.1758 30.7602 17.3102C31.5638 18.1312 32.2584 18.8394 33.7596 18.8508H33.7917C35.5715 18.8508 36.8661 17.8106 37.7955 16.9038C38.4891 16.2286 39.1174 15.448 39.7262 14.6943C40.1334 14.1886 40.5543 13.6665 40.9955 13.1733C43.653 10.2068 46.293 8.39424 49.2193 7.54535C44.9097 6.37179 40.4715 5.77824 36.0069 5.77824C35.3689 5.77824 34.722 5.79066 34.0849 5.81547C33.4274 5.79066 32.7806 5.77824 32.1425 5.77824C27.6809 5.77824 23.2417 6.37179 18.933 7.54535Z" fill="#202B2B"/>
<path d="M25.265 64.9671C25.3605 66.4354 25.9751 67.8591 26.961 68.8952C27.3175 69.2685 27.8163 69.6138 28.2907 69.4411C28.693 69.2943 28.9073 68.829 29.0106 68.3906C29.2795 67.2553 29.0895 66.0404 28.6696 64.9588C28.2488 63.8763 27.6117 62.9074 26.959 61.9645C26.3541 62.0348 25.8339 62.5032 25.5582 63.0791C25.2815 63.6529 25.2231 64.3219 25.265 64.9671Z" fill="#E4C799"/>
<path d="M28.0286 69.7782C27.5182 69.7782 27.0613 69.4101 26.7671 69.1009C25.7374 68.0194 25.0896 66.5201 24.9903 64.9867C24.9377 64.1885 25.0468 63.5009 25.3137 62.9456C25.6527 62.2384 26.2713 61.7524 26.9288 61.6749L27.0866 61.6553L27.1811 61.7918C27.8221 62.7192 28.4855 63.7191 28.9229 64.8482C29.2668 65.7312 29.6058 67.0753 29.2765 68.4629C29.1187 69.1267 28.8089 69.56 28.3793 69.7172C28.2683 69.7575 28.1494 69.7782 28.0286 69.7782ZM26.8392 62.2808C26.4193 62.3883 26.0326 62.7337 25.8037 63.2093C25.5826 63.6694 25.4939 64.2536 25.5397 64.9454C25.6303 66.3402 26.2187 67.703 27.1548 68.6863C27.4666 69.014 27.7773 69.195 28.0296 69.195C28.09 69.195 28.1465 69.1847 28.202 69.165C28.5294 69.0461 28.6833 68.5829 28.7466 68.3202C29.0388 67.0877 28.7281 65.8718 28.4173 65.0684C28.0247 64.0593 27.4286 63.139 26.8392 62.2808Z" fill="#202B2B"/>
<path d="M26.3473 63.7191C26.8139 64.4563 27.2834 65.1977 27.6419 66C28.0014 66.8024 28.2478 67.6761 28.243 68.5643C27.6234 68.5064 27.1363 67.9811 26.7934 67.43C26.1661 66.4219 25.8242 65.2162 25.8222 64.0086C25.8212 63.8959 25.8251 63.778 25.8729 63.6777C25.9216 63.5753 26.0258 63.4957 26.131 63.5185C26.2265 63.5381 26.2917 63.6322 26.3473 63.7191Z" fill="white"/>
<path d="M19.6091 70.3013C20.1965 70.1121 20.6017 69.5476 20.9086 68.9851C21.2924 68.283 21.5924 67.5303 21.7999 66.7496C22.023 65.9121 22.138 65.0219 21.9548 64.174C21.7717 63.3262 21.2534 62.5279 20.4946 62.2012C19.9208 63.0563 19.348 63.9124 18.7742 64.7675C18.3222 65.4417 17.8644 66.1272 17.6033 66.9068C17.3422 67.6864 17.2964 68.586 17.6598 69.318C18.0241 70.0501 18.8619 70.5402 19.6091 70.3013Z" fill="#E4C799"/>
<path d="M19.2135 70.6539C18.4966 70.6539 17.7738 70.1711 17.4172 69.4546C17.0539 68.7215 17.0276 67.7568 17.3451 66.8086C17.6218 65.9856 18.0952 65.2794 18.5511 64.598L20.3971 61.8435L20.5988 61.9293C21.3849 62.2684 22.0064 63.1028 22.2227 64.1079C22.3932 64.8978 22.3406 65.786 22.0639 66.8272C21.8506 67.6317 21.5418 68.4061 21.1472 69.1309C20.8677 69.6417 20.4127 70.3479 19.6889 70.5795C19.536 70.6281 19.3762 70.6539 19.2135 70.6539ZM20.5852 62.5672L18.9983 64.9361C18.5638 65.5854 18.1137 66.2565 17.8624 67.0041C17.5955 67.7992 17.6101 68.5922 17.9033 69.1805C18.1634 69.7048 18.7011 70.0698 19.2135 70.0698C19.3227 70.0698 19.4288 70.0522 19.5292 70.0212C20.0679 69.8485 20.439 69.2633 20.6718 68.8362C21.044 68.1548 21.3352 67.4259 21.5359 66.668C21.7872 65.7229 21.8369 64.9268 21.6879 64.235C21.5301 63.503 21.1161 62.8826 20.5852 62.5672Z" fill="#202B2B"/>
<path d="M18.3203 67.9956C18.2911 68.3244 18.3047 68.6677 18.4372 68.9665C18.5697 69.2663 18.8395 69.5125 19.1503 69.53C18.8648 68.6553 19.1824 67.6999 19.5331 66.852C19.8818 66.0052 20.2754 65.1067 20.1332 64.1947C19.3061 65.3362 18.4469 66.5615 18.3203 67.9956Z" fill="white"/>
<path d="M21.4385 63.7046C21.2067 64.8471 21.1609 66.031 21.3022 67.1891C21.3918 67.917 21.5613 68.6481 21.9334 69.2664C22.3065 69.8837 22.9105 70.3738 23.5973 70.4513C24.474 70.5506 25.3273 69.9508 25.7764 69.1443C26.2255 68.3378 26.3297 67.3648 26.3005 66.4301C26.2625 65.2431 26.0248 64.0624 25.6001 62.9622C25.2699 62.1082 24.7127 61.2138 23.8525 61.0762C23.2232 60.9749 22.5841 61.3347 22.1799 61.8569C21.7756 62.379 21.573 63.0439 21.4385 63.7046Z" fill="#E4C799"/>
<path d="M23.7892 70.7532C23.7882 70.7532 23.7892 70.7532 23.7892 70.7532C23.7161 70.7532 23.643 70.749 23.568 70.7408C22.8501 70.6591 22.1526 70.1669 21.7025 69.4235C21.3577 68.8517 21.1443 68.1538 21.0304 67.2263C20.8842 66.03 20.93 64.8244 21.1706 63.6436C21.2807 63.0977 21.4843 62.2984 21.9694 61.6728C22.4692 61.0266 23.2163 60.6802 23.8953 60.7898C24.7058 60.9191 25.3838 61.6325 25.8563 62.8536C26.2947 63.992 26.5372 65.1925 26.5762 66.4208C26.6132 67.6078 26.4301 68.5477 26.0141 69.2922C25.5192 70.1803 24.6454 70.7532 23.7892 70.7532ZM23.6391 61.3523C23.2008 61.3523 22.7234 61.617 22.3942 62.043C21.9841 62.5724 21.8058 63.2796 21.7064 63.7666C21.4814 64.8823 21.4366 66.0217 21.5749 67.1518C21.6772 67.9914 21.8662 68.6128 22.1652 69.1091C22.5257 69.7057 23.0731 70.0997 23.6265 70.1628C24.3522 70.2424 25.1111 69.7678 25.5416 68.9975C25.9021 68.3502 26.0609 67.5138 26.0277 66.4415C25.9907 65.2814 25.7628 64.1482 25.3478 63.0739C25.0731 62.3625 24.5841 61.4888 23.8135 61.3668C23.7551 61.3564 23.6966 61.3523 23.6391 61.3523Z" fill="#202B2B"/>
<path d="M22.967 62.5776C22.3435 63.5619 22.0435 64.7717 22.1292 65.9545C22.2149 67.1374 22.6855 68.2841 23.4443 69.1557C22.7946 67.0454 22.6299 64.7686 22.967 62.5776Z" fill="white"/>
<path d="M42.5142 64.9671C42.4187 66.4354 41.804 67.8591 40.8182 68.8952C40.4617 69.2685 39.9629 69.6138 39.4885 69.4411C39.0862 69.2943 38.8719 68.829 38.7686 68.3906C38.4997 67.2553 38.6897 66.0404 39.1095 64.9588C39.5304 63.8763 40.1675 62.9074 40.8202 61.9645C41.4251 62.0348 41.9453 62.5032 42.222 63.0791C42.4967 63.6529 42.5571 64.3219 42.5142 64.9671Z" fill="#E4C799"/>
<path d="M39.7496 69.7782C39.6297 69.7782 39.5109 69.7564 39.3989 69.7161C38.9703 69.559 38.6595 69.1257 38.5017 68.4619C38.1724 67.0743 38.5124 65.7302 38.8553 64.8471C39.2927 63.718 39.9561 62.7181 40.598 61.7907L40.6916 61.6542L40.8494 61.6738C41.5069 61.7514 42.1265 62.2384 42.4655 62.9446C42.7314 63.4998 42.8405 64.1864 42.7879 64.9857C42.6876 66.5191 42.0398 68.0204 41.0111 69.0999C40.7169 69.4101 40.26 69.7782 39.7496 69.7782ZM40.939 62.2808C40.3496 63.1379 39.7535 64.0582 39.3619 65.0684C39.0511 65.8708 38.7404 67.0867 39.0326 68.3202C39.0949 68.5839 39.2498 69.0461 39.5772 69.165C39.8655 69.2705 40.2386 69.0926 40.6244 68.6862C41.5605 67.704 42.1489 66.3391 42.2405 64.9453C42.2853 64.2536 42.1966 63.6704 41.9765 63.2093C41.7466 62.7337 41.3589 62.3893 40.939 62.2808Z" fill="#202B2B"/>
<path d="M41.4319 63.7191C40.9643 64.4563 40.4948 65.1977 40.1363 66C39.7778 66.8024 39.5304 67.6761 39.5353 68.5643C40.1548 68.5064 40.6429 67.9811 40.9848 67.43C41.6121 66.4219 41.9541 65.2162 41.957 64.0086C41.957 63.8959 41.9531 63.778 41.9054 63.6777C41.8566 63.5753 41.7534 63.4957 41.6482 63.5185C41.5517 63.5381 41.4865 63.6322 41.4319 63.7191Z" fill="white"/>
<path d="M48.1691 70.3013C47.5817 70.1121 47.1775 69.5476 46.8696 68.9851C46.4858 68.283 46.1858 67.5303 45.9783 66.7496C45.7562 65.9121 45.6402 65.0219 45.8234 64.174C46.0065 63.3262 46.5248 62.5279 47.2836 62.2012C47.8574 63.0563 48.4302 63.9124 49.004 64.7675C49.456 65.4417 49.9138 66.1272 50.1749 66.9068C50.436 67.6864 50.4818 68.586 50.1184 69.318C49.7551 70.0501 48.9163 70.5402 48.1691 70.3013Z" fill="#E4C799"/>
<path d="M48.5656 70.654C48.4029 70.654 48.2432 70.6292 48.0912 70.5806C47.3674 70.3479 46.9125 69.6428 46.6329 69.132C46.2384 68.4082 45.9296 67.6337 45.7162 66.8283C45.4396 65.787 45.387 64.8989 45.5574 64.1089C45.7737 63.1028 46.3962 62.2695 47.1823 61.9303L47.383 61.8445L49.2193 64.5846C49.6859 65.2804 50.1584 65.9856 50.435 66.8086C50.7526 67.7568 50.7273 68.7215 50.3629 69.4546C50.0044 70.1711 49.2836 70.654 48.5656 70.654ZM47.194 62.5673C46.6631 62.8826 46.2491 63.502 46.0903 64.2371C45.9422 64.9289 45.9909 65.724 46.2423 66.6701C46.4439 67.427 46.7342 68.1569 47.1073 68.8383C47.3392 69.2643 47.7103 69.8506 48.249 70.0233C48.8247 70.2073 49.5612 69.8175 49.8749 69.1827C50.1681 68.5933 50.1827 67.7992 49.9158 67.0051C49.6654 66.2575 49.2154 65.5865 48.7799 64.9371L47.194 62.5673Z" fill="#202B2B"/>
<path d="M49.4589 67.9956C49.4881 68.3244 49.4745 68.6677 49.342 68.9665C49.2095 69.2663 48.9397 69.5125 48.6289 69.53C48.9153 68.6553 48.5968 67.6999 48.2461 66.852C47.8973 66.0052 47.5038 65.1067 47.646 64.1947C48.473 65.3362 49.3322 66.5615 49.4589 67.9956Z" fill="white"/>
<path d="M46.3407 63.7046C46.5715 64.8471 46.6183 66.031 46.4761 67.1891C46.3865 67.917 46.2169 68.6481 45.8448 69.2664C45.4717 69.8837 44.8687 70.3738 44.181 70.4513C43.3043 70.5506 42.4509 69.9508 42.0018 69.1443C41.5527 68.3378 41.4485 67.3648 41.4777 66.4301C41.5157 65.2431 41.7534 64.0624 42.1791 62.9622C42.5084 62.1082 43.0656 61.2138 43.9258 61.0762C44.556 60.9749 45.1941 61.3347 45.5984 61.8569C46.0026 62.3801 46.2072 63.0439 46.3407 63.7046Z" fill="#E4C799"/>
<path d="M43.99 70.7532C43.1328 70.7532 42.2599 70.1793 41.7651 69.2922C41.3491 68.5467 41.166 67.6068 41.203 66.4208C41.242 65.1925 41.4845 63.991 41.9239 62.8536C42.3944 61.6325 43.0734 60.9191 43.8848 60.7898C44.5599 60.6813 45.31 61.0266 45.8097 61.6729C46.2949 62.2984 46.4985 63.0977 46.6095 63.6436C46.8482 64.8244 46.8959 66.03 46.7488 67.2263C46.6348 68.1538 46.4215 68.8517 46.0767 69.4235C45.6266 70.168 44.9291 70.6591 44.2112 70.7408C44.1371 70.7501 44.0621 70.7532 43.99 70.7532ZM44.14 61.3523C44.0816 61.3523 44.0241 61.3564 43.9657 61.3668C43.1961 61.4888 42.7061 62.3635 42.4314 63.0739C42.0164 64.1482 41.7885 65.2814 41.7524 66.4415C41.7183 67.5127 41.8771 68.3502 42.2375 68.9975C42.6671 69.7678 43.427 70.2435 44.1527 70.1628C44.706 70.0997 45.2535 69.7068 45.6149 69.1092C45.9149 68.6139 46.102 67.9914 46.2043 67.1518C46.3436 66.0207 46.2997 64.8823 46.0728 63.7666C45.9734 63.2796 45.7951 62.5724 45.386 62.043C45.0557 61.617 44.5784 61.3523 44.14 61.3523Z" fill="#202B2B"/>
<path d="M44.8112 62.5776C45.4347 63.5619 45.7347 64.7717 45.649 65.9545C45.5633 67.1374 45.0928 68.2841 44.3339 69.1557C44.9837 67.0454 45.1483 64.7686 44.8112 62.5776Z" fill="white"/>
<path d="M41.7554 14.2879C44.1859 12.5353 47.2613 12.1982 50.1973 12.0514C53.1334 11.9045 56.1679 11.8766 58.8526 10.6079C60.459 9.85004 61.8647 8.67858 63.1457 7.39956C62.7249 10.0248 60.6655 12.1021 58.3324 13.0812C55.9994 14.0594 53.4189 14.11 50.9143 13.9797C48.4088 13.8505 45.8887 13.5558 43.3997 13.8908" fill="#FAE8C7"/>
<path d="M26.7223 14.2879C24.2908 12.5353 21.2164 12.1982 18.2803 12.0514C15.3443 11.9045 12.3098 11.8766 9.62405 10.6079C8.01768 9.85004 6.61296 8.67858 5.33195 7.39956C5.75279 10.0248 7.81214 12.1021 10.1442 13.0812C12.4783 14.0594 15.0578 14.11 17.5634 13.9797C20.0689 13.8505 22.589 13.5558 25.077 13.8908" fill="#FAE8C7"/>
<path d="M33.9895 16.2638C32.5984 16.604 31.1712 15.7891 30.1133 14.6776C29.0554 13.5661 28.2498 12.161 27.2571 10.9678C26.094 9.56982 24.6727 8.4707 23.1199 7.76656C25.3682 7.67764 27.6322 8.74161 29.2074 10.6286C28.844 9.67115 28.2644 8.82847 27.5445 8.21016C28.6248 8.30425 29.5639 9.15722 30.2176 10.1726C30.8712 11.1869 31.2998 12.3729 31.8298 13.4824C32.3597 14.5918 33.029 15.6734 33.9895 16.2638Z" fill="#FAE8C7"/>
<path d="M33.9447 16.2638C35.3348 16.604 36.7629 15.7891 37.8208 14.6776C38.8787 13.5661 39.6843 12.161 40.677 10.9678C41.8392 9.56982 43.2604 8.4707 44.8132 7.76656C42.5649 7.67764 40.301 8.74161 38.7268 10.6286C39.0901 9.67115 39.6697 8.82847 40.3896 8.21016C39.3093 8.30425 38.3702 9.15722 37.7166 10.1726C37.0629 11.1869 36.6343 12.3729 36.1044 13.4824C35.5744 14.5918 34.9042 15.6734 33.9447 16.2638Z" fill="#FAE8C7"/>
<path d="M29.2366 58.3248C29.559 59.2864 29.3223 60.2553 28.7057 60.4879C28.09 60.7216 27.3302 60.1302 27.0068 59.1686C26.6843 58.206 24.8256 48.9291 24.8256 48.9291C24.8256 48.9291 28.9132 57.3632 29.2366 58.3248Z" fill="#C4BFBB"/>
<path d="M28.4011 59.628C28.7493 59.4963 28.7965 58.6893 28.5065 57.8254C28.2165 56.9615 27.6992 56.3679 27.351 56.4995C27.0029 56.6312 26.9557 57.4383 27.2457 58.3022C27.5356 59.1661 28.0529 59.7597 28.4011 59.628Z" fill="#827973"/>
<path d="M21.1044 54.6015C21.2534 54.7762 21.3859 54.953 21.4892 55.1371C21.5905 55.3222 21.6616 55.5155 21.6986 55.7068C21.7726 56.0873 21.7191 56.4606 21.5067 56.7243C21.2934 56.9879 20.9583 57.0882 20.5793 57.0262C20.3894 56.9962 20.1896 56.9248 19.9899 56.8173C19.7902 56.7098 19.5925 56.5661 19.4249 56.3696C19.3392 56.2745 19.1785 56.0677 18.9642 55.7802C18.8599 55.6334 18.7323 55.4773 18.6125 55.286C18.4927 55.0958 18.3631 54.8889 18.2248 54.6687C18.0894 54.4464 17.9384 54.2199 17.8001 53.9687C17.6656 53.7164 17.5263 53.4548 17.3831 53.186C17.086 52.6608 16.8503 52.0662 16.5921 51.5047C16.3496 50.9319 16.1508 50.3498 15.956 49.8204C15.7923 49.2745 15.6404 48.7751 15.5206 48.348C15.3228 47.4826 15.1932 46.917 15.1932 46.917C15.1932 46.917 15.4572 47.4216 15.8605 48.194C16.0836 48.5621 16.3427 48.9943 16.6243 49.4616C16.935 49.9073 17.2526 50.3901 17.6052 50.8544C17.9735 51.3062 18.3125 51.7809 18.6982 52.1841C18.8823 52.3909 19.0635 52.5925 19.2369 52.7869C19.4123 52.9782 19.5964 53.1467 19.7601 53.3132C19.9257 53.4776 20.0796 53.6327 20.2228 53.7743C20.363 53.918 20.5072 54.0318 20.6231 54.1403C20.8589 54.3564 21.0274 54.5157 21.1044 54.6015Z" fill="#C4BFBB"/>
<path d="M20.2676 54.5136C20.554 54.8269 20.7478 55.1763 20.8618 55.4648C20.9777 55.7512 20.9894 56.0035 20.8637 56.1473C20.7381 56.292 20.4965 56.2972 20.2033 56.1855C19.911 56.0728 19.5925 55.8153 19.2895 55.4813C18.9797 55.1536 18.7878 54.7721 18.6992 54.4588C18.6096 54.1455 18.629 53.8932 18.7722 53.7701C18.9154 53.6471 19.1561 53.674 19.422 53.8125C19.6889 53.9511 19.9763 54.2075 20.2676 54.5136Z" fill="#827973"/>
<path d="M13.094 45.7579C13.1476 45.9575 13.1836 46.1529 13.1904 46.3431C13.1953 46.5365 13.17 46.7247 13.1329 46.8963C13.0492 47.2438 12.8582 47.5529 12.567 47.7111C12.2767 47.8693 11.9347 47.8352 11.6065 47.6242C11.4379 47.5198 11.2889 47.3689 11.1583 47.1807C11.0239 46.9936 10.908 46.7712 10.8398 46.519C10.7638 46.2718 10.6089 45.4767 10.5836 44.4386C10.5563 43.4015 10.6917 42.1297 11.0083 40.9654C11.3123 39.795 11.8042 38.7497 12.2328 38.0373C12.4559 37.6826 12.639 37.3972 12.7861 37.2101C12.9264 37.0209 13.0053 36.9133 13.0053 36.9133C13.0053 36.9133 12.9576 37.0405 12.8738 37.2639C12.7842 37.4831 12.6858 37.8098 12.5699 38.1986C12.3536 38.9844 12.1705 40.0608 12.1783 41.1495C12.1744 42.2393 12.339 43.3229 12.5621 44.1501C12.7842 44.9825 13.0355 45.5615 13.094 45.7579Z" fill="#C4BFBB"/>
<path d="M12.4101 45.3349C12.4491 45.5293 12.4861 45.7123 12.5027 45.8871C12.5212 46.0618 12.5114 46.2294 12.5036 46.3731C12.4793 46.6626 12.3819 46.888 12.2104 46.9624C12.04 47.0369 11.8256 46.9417 11.6142 46.7142C11.5042 46.6026 11.4155 46.4506 11.3259 46.2759C11.2382 46.1011 11.1583 45.9026 11.1135 45.6823C10.8982 44.7993 11.1398 44.0352 11.5071 44.0021C11.8753 43.968 12.2241 44.5781 12.4101 45.3349Z" fill="#827973"/>
<path d="M18.1956 46.0546C18.3086 46.2086 18.4138 46.3586 18.4898 46.5178C18.5638 46.6781 18.6106 46.8508 18.6291 47.0255C18.6641 47.3729 18.5911 47.7307 18.3807 47.9954C18.1703 48.2601 17.8556 48.3779 17.502 48.3376C17.3257 48.3169 17.1406 48.2591 16.9574 48.1639C16.7733 48.0688 16.5931 47.9375 16.4519 47.7524C16.3788 47.6635 16.2434 47.468 16.0661 47.1961C15.9814 47.0575 15.8703 46.9128 15.7787 46.7298C15.6881 46.5488 15.5888 46.3514 15.4826 46.1425C15.3813 45.9305 15.2615 45.7175 15.167 45.4766C15.0764 45.2368 14.9838 44.9854 14.8874 44.7301C14.6779 44.2327 14.5669 43.6661 14.4208 43.1378L14.3701 42.9382L14.337 42.7345C14.3156 42.599 14.2932 42.4647 14.2727 42.3313C14.2318 42.0656 14.187 41.8101 14.1558 41.563C14.1266 41.0574 14.0944 40.5993 14.0827 40.2116C14.1178 39.4361 14.1412 38.9295 14.1412 38.9295C14.1412 38.9295 14.263 39.4134 14.448 40.1516C14.5688 40.5094 14.7237 40.922 14.8796 41.3604C14.9751 41.5744 15.0832 41.7926 15.1864 42.0149C15.24 42.1245 15.2917 42.2361 15.3452 42.3488L15.4251 42.5163L15.5216 42.6766C15.7875 43.1006 16.0096 43.5451 16.3106 43.9132C16.4499 44.1025 16.5843 44.2865 16.7149 44.4633C16.8474 44.638 16.9984 44.7859 17.125 44.9348C17.2546 45.0806 17.3754 45.2171 17.4864 45.3443C17.5945 45.4715 17.7163 45.5655 17.8098 45.6607C18.0008 45.8447 18.1352 45.9812 18.1956 46.0546Z" fill="#C4BFBB"/>
<path d="M17.4338 46.0092C17.6637 46.2842 17.8011 46.6006 17.8809 46.8601C17.9628 47.1166 17.954 47.3523 17.8264 47.494C17.6988 47.6356 17.4737 47.6532 17.2039 47.5601C16.937 47.466 16.6623 47.2252 16.4061 46.9171C16.1411 46.6131 16.0077 46.2511 15.9628 45.9606C15.918 45.669 15.9716 45.4395 16.1255 45.333C16.2794 45.2254 16.5045 45.2544 16.7344 45.3816C16.9662 45.5077 17.1961 45.7403 17.4338 46.0092Z" fill="#827973"/>
<path d="M24.4623 52.1634C24.4944 52.3092 24.5276 52.4497 24.5344 52.5924C24.5412 52.7351 24.5392 52.8737 24.5285 53.0071C24.509 53.2738 24.4594 53.5179 24.3834 53.7247C24.2305 54.1393 23.9713 54.404 23.646 54.4443C23.3216 54.4836 22.9933 54.2985 22.7283 53.9883C22.5958 53.8322 22.4789 53.643 22.3854 53.4289C22.3386 53.3214 22.2977 53.2087 22.2636 53.0898C22.2295 52.9709 22.1838 52.8499 22.1555 52.7228C22.1243 52.5956 22.0795 52.3329 22.025 51.969C21.9938 51.788 21.9792 51.5761 21.9266 51.3527C21.8769 51.1284 21.8233 50.8843 21.7649 50.6238C21.7035 50.3642 21.6577 50.0789 21.5769 49.7945C21.4911 49.5112 21.4015 49.2145 21.3119 48.9126C21.2661 48.7606 21.2203 48.6054 21.1736 48.4504C21.1288 48.2942 21.0606 48.1485 21.0041 47.9944C20.8852 47.6883 20.7654 47.3802 20.6466 47.0731L20.556 46.8415L20.4498 46.6223C20.3787 46.4744 20.3075 46.3297 20.2374 46.1849C20.0952 45.8975 19.9617 45.608 19.8224 45.3371C19.5117 44.818 19.2282 44.3258 18.973 43.9133C18.408 43.1243 18.0388 42.6084 18.0388 42.6084C18.0388 42.6084 18.5171 43.021 19.2486 43.6517C19.5935 43.9939 19.9871 44.4106 20.4225 44.8625C20.6251 45.1003 20.8258 45.3578 21.0362 45.6163C21.1414 45.7476 21.2486 45.8789 21.3548 46.0123L21.5165 46.2138L21.6606 46.4279C21.8545 46.7164 22.0493 47.008 22.2442 47.2965C22.3387 47.4443 22.4448 47.5829 22.5276 47.7359C22.6114 47.8869 22.6952 48.0378 22.777 48.1878C22.9426 48.4886 23.1043 48.7833 23.2592 49.0666C23.4102 49.353 23.5232 49.6456 23.646 49.9134C23.7638 50.1864 23.8749 50.4418 23.9781 50.6765C24.0814 50.9112 24.1399 51.1387 24.209 51.3341C24.3386 51.7281 24.4272 52.0176 24.4623 52.1634Z" fill="#C4BFBB"/>
<path d="M23.7346 51.4944C23.8515 52.0021 23.907 52.4767 23.8418 52.8355C23.7755 53.1963 23.6421 53.4289 23.4589 53.462C23.2768 53.4941 23.0809 53.3245 22.9144 53.0339C22.7439 52.7413 22.55 52.3391 22.4429 51.8676C22.3445 51.393 22.2666 50.9588 22.2812 50.6124C22.2958 50.267 22.3883 50.0137 22.5617 49.9444C22.7342 49.8762 22.9553 50.0075 23.1754 50.2857C23.3966 50.5628 23.6275 50.9815 23.7346 51.4944Z" fill="#827973"/>
<path d="M24.059 43.5731C24.1126 43.6951 24.1613 43.813 24.1925 43.9381C24.2207 44.0653 24.2412 44.1893 24.2519 44.3093C24.2743 44.5492 24.2606 44.7746 24.1944 44.9772C24.0736 45.3784 23.8301 45.6338 23.5105 45.7031C23.19 45.7713 22.8549 45.6617 22.587 45.4704C22.4585 45.3722 22.3231 45.2564 22.2091 45.1189C22.1516 45.0507 22.1019 44.9762 22.0571 44.8966C22.0104 44.818 21.9578 44.7343 21.9188 44.6443C21.8428 44.4644 21.6529 43.8802 21.272 43.0954C20.8959 42.3096 20.3134 41.3418 19.7386 40.3543C19.1619 39.3731 18.6495 38.3525 18.3709 37.5616C18.2365 37.1604 18.1323 36.8357 18.0855 36.5969C18.03 36.3642 17.9998 36.2319 17.9998 36.2319C17.9998 36.2319 18.0641 36.3487 18.18 36.5555C18.2842 36.7644 18.4722 37.0436 18.6944 37.3713C19.1561 38.0238 19.8672 38.7982 20.6553 39.5592C21.4376 40.3202 22.2792 41.1226 22.9085 41.8805C23.5417 42.6332 23.9567 43.3281 24.059 43.5731Z" fill="#C4BFBB"/>
<path d="M23.2563 43.1915C23.3645 43.3828 23.4375 43.5855 23.4843 43.7778C23.5301 43.9712 23.5661 44.1438 23.5534 44.3072C23.5388 44.6308 23.4385 44.85 23.2631 44.9131C23.0878 44.9762 22.8745 44.879 22.6777 44.6897C22.5861 44.5925 22.4682 44.4809 22.3728 44.3444C22.2763 44.209 22.1857 44.0539 22.0893 43.8864C21.7376 43.2133 21.5983 42.504 21.8974 42.2693C22.1906 42.0356 22.8404 42.4037 23.2563 43.1915Z" fill="#827973"/>
<path d="M31.2336 32.8311C31.9954 32.0618 33.0475 31.6265 34.0986 31.6462C35.1497 31.6658 36.1871 32.1404 36.9217 32.9376" stroke="#202B2B" stroke-width="0.5" stroke-miterlimit="10" stroke-linecap="round"/>
<path d="M32.2467 34.8867C32.7143 34.3987 33.3611 34.1081 34.0167 34.0906C34.6723 34.073 35.3318 34.3284 35.8228 34.7916" stroke="#202B2B" stroke-width="0.5" stroke-miterlimit="10" stroke-linecap="round"/>
<path d="M31.5648 31.4497C31.9058 31.3081 32.2458 31.1685 32.5867 31.0268C32.8536 30.9162 33.1391 30.7901 33.2939 30.5326C33.4021 30.3506 33.4118 30.0735 33.2443 29.9505C33.0884 29.8378 32.8751 29.9163 32.7036 30.0032C32.2769 30.2172 31.8639 30.4612 31.4665 30.7311C31.1898 30.9193 30.8888 31.1923 30.9307 31.5376C31.1362 31.6193 31.3612 31.5345 31.5648 31.4497Z" fill="#EED314"/>
<path d="M32.3802 33.4184C32.4416 33.5714 32.615 33.648 32.7708 33.6283C32.9257 33.6076 33.0641 33.5125 33.181 33.4019C33.293 33.2964 33.3962 33.1703 33.4333 33.0172C33.4703 32.8652 33.4235 32.6792 33.294 32.6006C33.1128 32.491 32.8916 32.6244 32.7231 32.7546C32.6189 32.8343 32.5117 32.9169 32.4387 33.0307C32.3656 33.1423 32.3305 33.2923 32.3802 33.4184Z" fill="#EED314"/>
<path d="M33.9378 36.3932C33.9544 36.0323 33.9174 35.6704 33.8326 35.321C33.7956 35.17 33.7245 34.9973 33.5803 34.9715C33.4712 34.9498 33.3621 35.0304 33.3105 35.1338C33.2589 35.2383 33.253 35.3592 33.2579 35.4771C33.2725 35.8359 33.3718 36.1905 33.5462 36.4986C33.6037 36.5989 33.6982 36.7075 33.8044 36.6734C33.9057 36.6424 33.933 36.5059 33.9378 36.3932Z" fill="#EED314"/>
<path d="M20.5794 19.4639C20.9576 19.4639 21.2642 19.1385 21.2642 18.737C21.2642 18.3356 20.9576 18.0101 20.5794 18.0101C20.2011 18.0101 19.8945 18.3356 19.8945 18.737C19.8945 19.1385 20.2011 19.4639 20.5794 19.4639Z" fill="white"/>
<path d="M23.6148 22.3663C23.8273 22.3663 23.9996 22.1835 23.9996 21.9579C23.9996 21.7323 23.8273 21.5495 23.6148 21.5495C23.4023 21.5495 23.23 21.7323 23.23 21.9579C23.23 22.1835 23.4023 22.3663 23.6148 22.3663Z" fill="white"/>
<path d="M44.8619 19.4629C45.2396 19.4629 45.5458 19.1379 45.5458 18.737C45.5458 18.3361 45.2396 18.0112 44.8619 18.0112C44.4843 18.0112 44.1781 18.3361 44.1781 18.737C44.1781 19.1379 44.4843 19.4629 44.8619 19.4629Z" fill="white"/>
<path d="M47.8964 22.3663C48.1089 22.3663 48.2812 22.1835 48.2812 21.9579C48.2812 21.7323 48.1089 21.5495 47.8964 21.5495C47.6839 21.5495 47.5116 21.7323 47.5116 21.9579C47.5116 22.1835 47.6839 22.3663 47.8964 22.3663Z" fill="white"/>
</svg>
