<svg width="12" height="12" viewBox="0 0 12 12" fill="none" xmlns="http://www.w3.org/2000/svg">
<path d="M10.9714 3.76677C10.6989 3.47924 10.3733 3.24436 10.0001 3.07057C9.79221 2.97367 9.57061 2.89573 9.34156 2.83991L9.32246 2.8357L9.31612 2.83465C9.25355 2.81885 9.19204 2.80621 9.13159 2.79567C9.12099 2.79357 9.10929 2.79146 9.09975 2.78936C9.03612 2.77882 8.97887 2.76934 8.92267 2.76302C8.90676 2.76092 8.89298 2.75987 8.87814 2.75776C8.83254 2.75249 8.77529 2.74617 8.71167 2.74195C8.69258 2.7409 8.6735 2.73985 8.65335 2.7388C8.60669 2.73669 8.55683 2.73353 8.49956 2.73248C8.4773 2.73248 8.45396 2.73248 8.43063 2.73248H8.4285H8.42002C8.37654 2.73248 8.33308 2.73248 8.2896 2.73459C8.26203 2.73564 8.2345 2.73669 8.20798 2.7388L8.19841 2.73985L8.18248 2.7409C8.14749 2.74196 8.11356 2.74512 8.0775 2.74828C8.04357 2.75144 8.00861 2.75565 7.97362 2.75987L7.9577 2.76197H7.95025C7.92268 2.76513 7.89403 2.76829 7.8654 2.77251C7.79647 2.78199 7.72547 2.79462 7.65654 2.80831C7.5558 2.82832 7.45185 2.8536 7.33732 2.8852C7.32247 2.88941 7.3087 2.89362 7.29279 2.89784C7.19841 2.92522 7.10084 2.95788 7.00328 2.99474C6.99162 2.99895 6.97996 3.00317 6.96723 3.00843C6.95981 2.98631 6.95241 2.96419 6.94393 2.94207C6.93014 2.90521 6.91531 2.8694 6.8994 2.83359L6.89409 2.82095L6.89196 2.81674C6.87923 2.78725 6.86756 2.75776 6.85377 2.72932C6.8315 2.68087 6.81133 2.64085 6.79649 2.61452L6.79118 2.60504L6.79015 2.60293C6.7753 2.57344 6.76152 2.54395 6.74562 2.51551C6.71486 2.46074 6.68626 2.41651 6.66717 2.38385L6.66607 2.3828C6.65441 2.36384 6.63854 2.33751 6.61733 2.30486C6.56961 2.2343 6.51868 2.16478 6.46672 2.09948C6.18677 1.74875 5.83365 1.47069 5.4169 1.27689C5.33313 1.23687 5.24404 1.20106 5.15496 1.16841C5.09558 1.14629 5.03408 1.12628 4.96409 1.10627C4.82624 1.06519 4.682 1.03359 4.53672 1.01147C4.51127 1.00726 4.4858 1.0041 4.46035 0.999884C4.27689 0.976713 4.08819 0.96724 3.90049 0.972507C3.80823 0.974613 3.71489 0.980931 3.62263 0.99041C3.52931 0.999889 3.44448 1.01252 3.36283 1.02622C3.30981 1.0357 3.2557 1.04623 3.20374 1.05781C2.93757 1.11574 2.67887 1.20316 2.43391 1.31586C2.33423 1.3622 2.23455 1.41381 2.14123 1.46858C1.99595 1.55284 1.85488 1.64764 1.72551 1.75085C1.68097 1.78561 1.63751 1.82247 1.59509 1.86039C1.5548 1.89515 1.51554 1.93096 1.47736 1.96783C0.915331 2.49445 0.513451 3.12008 0.283337 3.82996L0.272722 3.86261C0.0680584 4.50931 0.00654133 5.22867 0.0881948 6.0007C0.280133 7.79122 1.21544 9.5986 1.89942 10.9173L1.96732 11.0489C1.99807 11.1079 2.02882 11.1669 2.05852 11.2238L2.06169 11.2301L2.06382 11.2343C2.20274 11.505 2.42646 11.7177 2.70854 11.8504C2.88987 11.9347 3.08499 11.9821 3.30768 11.9968C3.34268 11.9989 3.37768 12 3.41797 12C3.46251 12 3.50814 12 3.5548 11.9979C3.79234 11.9884 4.08181 11.9452 4.44236 11.8673C4.51765 11.8504 4.59504 11.8336 4.67245 11.8157C4.70956 11.8073 4.74776 11.7978 4.78487 11.7894C4.8432 11.7746 4.89939 11.7609 4.95665 11.7462C4.98952 11.7377 5.02242 11.7293 5.05529 11.7209C5.36494 11.6398 5.64592 11.5597 5.81346 11.5113C5.86861 11.4944 5.90996 11.4829 5.93223 11.4765C6.37443 11.3596 6.76257 11.2438 7.11888 11.1237C7.25673 11.0763 7.40099 11.0247 7.54521 10.9699C7.92273 10.8267 8.28751 10.6645 8.62791 10.4886C8.70214 10.4496 8.77103 10.4128 8.8283 10.3801L8.85166 10.3675C8.92695 10.3253 9.01386 10.2779 9.10506 10.2232L9.10719 10.2221L9.11036 10.2211C9.16127 10.1905 9.21221 10.1589 9.26311 10.1273C9.2769 10.1189 9.28961 10.1105 9.30233 10.1021L9.31295 10.0957C9.35006 10.0726 9.38716 10.0473 9.42427 10.0231L9.42745 10.021C9.44441 10.0094 9.46032 9.99883 9.47728 9.9883C9.5197 9.95986 9.56106 9.93143 9.60136 9.90299L9.60667 9.89983C9.61621 9.89351 9.62683 9.88613 9.63637 9.87876C9.68621 9.84295 9.73711 9.80714 9.78589 9.76923C9.80073 9.75869 9.81557 9.74711 9.83042 9.73658L9.84317 9.72604C9.87604 9.70182 9.90786 9.67759 9.93967 9.65232C9.96194 9.63546 9.98313 9.61755 10.0065 9.6007C10.0351 9.57753 10.0659 9.55331 10.0945 9.52908L10.1072 9.51855C10.1252 9.50381 10.1422 9.49012 10.1591 9.47537C10.2047 9.43745 10.2482 9.39848 10.2927 9.36057C10.3139 9.34161 10.3341 9.32265 10.3553 9.30369L10.3691 9.29105C10.3914 9.27104 10.4126 9.25103 10.4349 9.23102C10.4624 9.20574 10.49 9.17941 10.5165 9.15308C10.5356 9.13517 10.5526 9.11726 10.5706 9.10041C10.5992 9.07197 10.63 9.04248 10.6576 9.01299L10.6661 9.00562L10.6681 9.00352C10.7349 8.93611 10.8029 8.86133 10.8707 8.78444L10.8749 8.78022C10.8824 8.7718 10.8898 8.76338 10.8972 8.75495C10.929 8.71809 10.9609 8.68122 10.9916 8.64436L11.016 8.61276C11.1623 8.43476 11.2938 8.24939 11.4073 8.06296L11.4136 8.05243C12.3129 6.57578 12.1528 5.01487 10.9714 3.76677Z" fill="#CADBE3"/>
<path d="M10.9187 2.79462C10.6461 2.50709 10.3195 2.27221 9.94728 2.09842C9.73943 2.00152 9.51783 1.92359 9.28878 1.86777L9.26969 1.86355L9.26334 1.8625C9.19972 1.8467 9.13926 1.83406 9.07881 1.82353C9.06715 1.82143 9.05654 1.81931 9.04593 1.81721C8.98231 1.80668 8.92505 1.79719 8.86885 1.79088C8.85401 1.78877 8.84023 1.78772 8.82432 1.78561C8.77978 1.78035 8.72145 1.77403 8.65889 1.76981C8.63874 1.76876 8.62072 1.76771 8.60057 1.76666C8.55391 1.76455 8.50299 1.76139 8.44679 1.76033C8.42452 1.76033 8.40013 1.76033 8.37786 1.76033H8.37469H8.36621C8.32273 1.76033 8.2792 1.76034 8.23572 1.76245C8.20921 1.7635 8.18062 1.76455 8.15411 1.76666L8.14563 1.76771L8.12971 1.76876C8.09471 1.76981 8.05974 1.77297 8.02369 1.77613C7.98975 1.77929 7.9558 1.78245 7.91974 1.78772L7.90492 1.78982H7.89748C7.86885 1.79298 7.8402 1.79614 7.81262 1.80036C7.74264 1.80984 7.67163 1.82248 7.60376 1.83617C7.50196 1.85618 7.39907 1.88146 7.28454 1.91306C7.26864 1.91727 7.25486 1.92148 7.24001 1.9257C7.14563 1.95308 7.047 1.98573 6.9505 2.02259C6.93778 2.0268 6.92612 2.03102 6.91445 2.03628C6.90703 2.01417 6.89857 1.99205 6.89115 1.96993C6.87631 1.93307 6.86246 1.89725 6.84656 1.86144L6.84021 1.8488L6.83918 1.84459C6.82645 1.8151 6.81478 1.78561 6.80099 1.75717C6.77872 1.70872 6.7575 1.6687 6.74371 1.64237L6.7384 1.63289L6.73737 1.63079C6.72252 1.6013 6.70764 1.57181 6.69174 1.54337C6.66205 1.4886 6.63344 1.44436 6.61329 1.41171L6.61226 1.41065C6.60165 1.39169 6.58572 1.36537 6.56346 1.33272C6.51574 1.26215 6.46586 1.19263 6.41284 1.12733C6.13289 0.776601 5.77981 0.498546 5.36412 0.304748C5.27929 0.264725 5.19126 0.228909 5.10219 0.196259C5.04174 0.174141 4.98024 0.154131 4.91132 0.134119C4.7724 0.0940958 4.62816 0.0625016 4.48395 0.0403834C4.4585 0.0361704 4.43199 0.0330084 4.40654 0.0298487C4.22308 0.005624 4.03431 -0.00385568 3.84661 0.00141056C3.75541 0.00351706 3.66213 0.00983416 3.56882 0.0203666C3.47656 0.0298459 3.3906 0.0414366 3.30895 0.0551288C3.25593 0.064608 3.20186 0.0751392 3.15096 0.086725C2.88479 0.144654 2.62606 0.232075 2.38004 0.345826C2.28035 0.391116 2.18171 0.442722 2.08839 0.497491C1.94205 0.581751 1.80211 0.676541 1.67273 0.779759C1.6282 0.814516 1.58363 0.851384 1.54122 0.889301C1.50198 0.924058 1.46172 0.959865 1.42355 0.996729C0.861518 1.52335 0.459605 2.14899 0.229491 2.85993L0.218877 2.89153C0.0152732 3.53822 -0.0472968 4.25759 0.035417 5.02962C0.227356 6.82014 1.16267 8.62751 1.84665 9.94617L1.91448 10.0778C1.94417 10.1368 1.97601 10.1958 2.00464 10.2527L2.00891 10.259L2.00994 10.2632C2.14992 10.5339 2.37262 10.7466 2.65576 10.8794C2.83603 10.9636 3.03218 11.011 3.25381 11.0258C3.2888 11.0279 3.32486 11.0289 3.3641 11.0289C3.40863 11.0289 3.4553 11.0289 3.50196 11.0268C3.73843 11.0173 4.02797 10.9741 4.38958 10.8962C4.46487 10.8804 4.54228 10.8625 4.61864 10.8446C4.65681 10.8362 4.69388 10.8267 4.731 10.8183C4.78932 10.8035 4.84557 10.7898 4.90284 10.7751C4.93571 10.7667 4.9696 10.7582 5.00141 10.7498C5.31212 10.6687 5.59316 10.5887 5.75965 10.5402C5.81585 10.5234 5.85719 10.5118 5.87945 10.5054C6.3206 10.3885 6.70873 10.2727 7.0661 10.1526C7.20396 10.1052 7.34815 10.0536 7.49237 9.99884C7.86989 9.8556 8.23363 9.6934 8.57403 9.51751C8.64826 9.47854 8.71828 9.44167 8.77448 9.41007L8.79778 9.39638C8.87414 9.35425 8.96111 9.30685 9.05124 9.25208L9.05441 9.25103L9.05655 9.24998C9.10745 9.21943 9.15937 9.18784 9.21027 9.15624C9.22405 9.14781 9.23577 9.13939 9.24956 9.13096L9.26011 9.12464C9.29722 9.10147 9.33438 9.07619 9.3715 9.05197L9.37467 9.04986C9.39163 9.03933 9.40754 9.02774 9.4245 9.01721C9.46586 8.98877 9.50722 8.96034 9.54858 8.9319L9.55279 8.92873C9.56339 8.92241 9.57401 8.91505 9.5825 8.90767C9.6334 8.87186 9.68327 8.83605 9.73311 8.79813C9.74795 8.7876 9.76173 8.77601 9.77764 8.76548L9.79032 8.75496C9.82214 8.73073 9.85504 8.7065 9.88579 8.68122C9.90806 8.66437 9.93032 8.64647 9.95259 8.62962C9.98228 8.60539 10.012 8.58222 10.0406 8.55799L10.0544 8.54746C10.0724 8.53377 10.0883 8.51902 10.1064 8.50428C10.1509 8.46636 10.1954 8.42845 10.2389 8.38948C10.2601 8.37052 10.2803 8.35156 10.3025 8.3326L10.3153 8.31996C10.3376 8.29995 10.3598 8.27994 10.3821 8.25993C10.4086 8.23465 10.4361 8.20831 10.4637 8.18198C10.4817 8.16302 10.4998 8.14618 10.5178 8.12827C10.5465 8.09983 10.5761 8.07034 10.6047 8.04085L10.6122 8.03242L10.6154 8.03032C10.6811 7.96291 10.749 7.88813 10.8168 7.81124L10.8211 7.80703C10.8285 7.79861 10.837 7.79018 10.8434 7.78175C10.8741 7.74489 10.906 7.70802 10.9367 7.67116L10.9621 7.63956C11.1074 7.46156 11.2389 7.2762 11.3534 7.08977L11.3598 7.07924C12.2591 5.60364 12.0979 4.04272 10.9187 2.79462Z" fill="white"/>
<path d="M3.38976 9.82012C3.28689 9.82012 3.14374 9.80854 3.0939 9.71059L2.92847 9.38934C2.28797 8.15494 1.41207 6.46448 1.24559 4.89724C1.10561 3.59964 1.47672 2.55376 2.34628 1.79016C2.77151 1.41731 3.35474 1.2035 3.94858 1.2035C4.57105 1.2035 5.12145 1.44786 5.46079 1.87231C5.93586 2.46951 5.96134 3.28893 5.9677 4.02726C6.58488 3.48273 7.21583 3.14358 7.84573 3.01719C8.01964 2.98244 8.19883 2.96348 8.37698 2.96348C9.03445 2.96348 9.63675 3.20362 10.0323 3.61965C10.5646 4.18208 10.7884 4.79929 10.6983 5.4502C10.5 6.87103 8.90931 7.92428 8.42682 8.21392C7.45758 8.79321 6.38974 9.1176 5.5679 9.33457L5.42156 9.37565C5.00163 9.49888 3.88816 9.82012 3.38976 9.82012Z" fill="#F27C88"/>
<path d="M3.94841 1.2801C4.50832 1.2801 5.05231 1.48232 5.4012 1.92047C5.89536 2.54188 5.88583 3.40555 5.89219 4.19759C6.44892 3.67939 7.11171 3.24229 7.86037 3.09168C8.02898 3.05797 8.20289 3.04113 8.37681 3.04113C8.97383 3.04113 9.56975 3.24335 9.97483 3.67307C11.5835 5.37407 9.96425 7.20566 8.38632 8.15043C7.50616 8.67705 6.53695 9.00145 5.5465 9.26266C5.35986 9.31216 3.95691 9.74399 3.38958 9.74399C3.26869 9.74399 3.18597 9.72399 3.16052 9.67659C2.49563 8.38215 1.50092 6.57793 1.31959 4.89063C1.19976 3.76049 1.44365 2.68407 2.39698 1.84779C2.81691 1.48021 3.39168 1.2801 3.94841 1.2801ZM3.94841 1.12948C3.3376 1.12948 2.73423 1.34961 2.29627 1.7351C1.40656 2.51556 1.028 3.58249 1.16904 4.90642C1.33871 6.48735 2.21775 8.18518 2.86144 9.42591L3.02583 9.74504C3.09476 9.87881 3.26761 9.8946 3.39062 9.8946C3.8413 9.8946 4.72462 9.65657 5.44359 9.45014L5.58786 9.40906C6.41606 9.18998 7.4913 8.86348 8.4669 8.27998C8.95682 7.98718 10.5708 6.91707 10.7733 5.46254C10.8677 4.78741 10.6365 4.15019 10.0883 3.56985C9.68003 3.13802 9.05653 2.89051 8.37998 2.89051C8.19546 2.89051 8.01202 2.90947 7.8328 2.94528C7.23154 3.06535 6.63022 3.375 6.04274 3.86582C6.03213 3.16014 5.977 2.3997 5.52314 1.82778C5.16789 1.38331 4.59527 1.12948 3.94841 1.12948Z" fill="#243645"/>
<path d="M10.6165 4.88851C10.3004 5.54679 9.84763 6.14082 9.31317 6.64111C8.70448 7.21092 7.99717 7.6733 7.22305 7.99454C6.53907 8.27786 5.81902 8.40741 5.07778 8.39793C4.0884 8.38424 2.99505 8.15989 2.13822 7.61115C2.47438 8.36844 2.85404 9.07833 3.16157 9.67763C3.30049 9.94726 5.32167 9.32373 5.54755 9.2637C6.53799 9.00249 7.5072 8.67809 8.38737 8.15147C9.59308 7.42999 10.819 6.19032 10.6165 4.88851Z" fill="#EBCBD1"/>
<g opacity="0.3">
<path opacity="0.3" d="M1.6023 4.04318C1.82287 3.46495 2.13143 2.92464 2.58636 2.49702C2.9978 2.11047 3.50895 1.77449 4.08264 1.70603C4.68497 1.63441 5.2756 1.94933 5.60009 2.45278C5.70719 2.61709 5.77613 2.79403 5.82597 2.9773C5.76447 2.59181 5.64355 2.22738 5.40177 1.92194C4.70613 1.04774 3.23855 1.11094 2.39762 1.84821C1.44535 2.68449 1.20034 3.76091 1.32017 4.89104C1.32547 4.93212 1.33189 4.97215 1.33719 5.01217C1.39127 4.68145 1.48247 4.35599 1.6023 4.04318Z" fill="#BBBDBF"/>
</g>
<g opacity="0.3">
<path opacity="0.3" d="M9.9399 3.63726C9.41498 3.11275 8.59312 2.94633 7.86142 3.09273C7.20608 3.22438 6.61541 3.57617 6.10534 4.01011C7.21561 3.28548 8.71616 3.1138 9.9399 3.63726Z" fill="#BBBDBF"/>
</g>
</svg>
