<svg width="13" height="24" viewBox="0 0 13 24" fill="none" xmlns="http://www.w3.org/2000/svg">
<path d="M8.68678 22.7289C8.83742 22.1038 8.7807 21.5227 8.70435 20.9314C8.66618 20.6404 8.62591 20.3462 8.58463 20.0562C8.57948 20.0214 8.5743 19.9609 8.56914 19.9015C8.54747 19.6422 8.51657 19.2856 8.34942 18.9382C8.23489 18.7004 8.07288 18.4831 7.88818 18.2874C8.15645 17.9123 8.20291 17.4655 8.22561 17.2308C8.23283 17.1601 8.24106 17.0874 8.24828 17.0474C8.35971 16.493 8.49899 15.9211 8.65995 15.3462C9.21093 13.3837 10.0488 11.2859 11.2973 8.74134C11.7482 7.82414 12.23 6.89668 12.6953 5.99998L12.6995 5.9928C12.8677 5.66999 13.3134 4.81325 12.6344 3.96471C12.2919 3.53634 11.8946 3.15615 11.5438 2.83128C11.322 2.58533 11.0414 2.40189 10.7246 2.29633C9.21923 1.80032 7.68804 1.31867 6.17026 0.867753C5.35101 0.623849 4.46056 0.953835 4.00244 1.66915C3.28947 2.78721 2.67968 3.98931 2.19371 5.24162C1.22794 7.72575 0.742959 10.4374 0.787326 13.0865C0.790422 13.231 0.78939 13.4093 0.787326 13.5979V13.6071C0.779072 14.7078 0.76776 16.0769 1.29088 17.0136C1.42398 17.2493 1.6066 17.4491 1.83669 17.61C1.59835 17.7904 1.41778 18.0333 1.30738 18.3294C1.16087 18.725 1.18046 19.1113 1.19491 19.3932C1.19903 19.4659 1.20313 19.5418 1.20416 19.6166C1.20829 20.2079 1.25473 20.8033 1.34347 21.3864C1.34863 21.4172 1.35587 21.4582 1.36412 21.5084C1.35587 21.6088 1.35894 21.7082 1.37338 21.8076C1.43942 22.2657 1.72009 22.5352 1.81295 22.6234C2.10289 22.9021 2.4238 23.1932 2.8035 23.436C3.05113 23.5939 3.30077 23.7148 3.54737 23.7978C3.73723 23.8613 3.93023 23.9023 4.12008 23.9208C5.17148 24.0232 6.23624 24.0263 7.28764 23.93C7.42487 23.9177 7.79122 23.8839 8.13171 23.6256C8.40823 23.4125 8.59598 23.1112 8.68678 22.7289Z" fill="#CADBE3"/>
<path d="M7.90261 21.9429C8.05222 21.3188 7.99546 20.7367 7.91911 20.1454C7.88093 19.8553 7.84073 19.5602 7.79946 19.2702C7.7943 19.2353 7.78912 19.1749 7.78396 19.1154C7.7623 18.8562 7.7324 18.4995 7.56525 18.1521C7.45072 17.9143 7.28767 17.6971 7.10401 17.5014C7.37228 17.1263 7.41771 16.6795 7.44144 16.4448C7.44763 16.3741 7.45588 16.3003 7.4631 16.2603C7.57557 15.7059 7.71482 15.1341 7.87578 14.5591C8.42573 12.5966 9.26458 10.4988 10.512 7.95426C10.9639 7.03603 11.4448 6.10961 11.9112 5.2129L11.9153 5.20471C12.0825 4.88292 12.5292 4.02618 11.8493 3.17662C11.5067 2.74825 11.1094 2.36804 10.7586 2.04318C10.5378 1.79722 10.2561 1.61379 9.93938 1.50823C8.43398 1.01223 6.9028 0.530571 5.38502 0.079656C4.5668 -0.164248 3.67535 0.165737 3.21827 0.881052C2.50426 1.99912 1.89547 3.20121 1.40846 4.45353C0.443733 6.93766 -0.0422441 9.65031 0.00315507 12.2984C0.00521866 12.4429 0.00421105 12.6212 0.00214745 12.8098V12.819C-0.00610694 13.9197 -0.0164108 15.2888 0.506711 16.2255C0.638781 16.4612 0.822457 16.661 1.05152 16.8219C0.814203 17.0023 0.632581 17.2452 0.523211 17.5413C0.375664 17.9369 0.39629 18.3232 0.410736 18.6051C0.414863 18.6778 0.418985 18.7547 0.418985 18.8295C0.423113 19.4208 0.470561 20.0162 0.559296 20.5993C0.564455 20.6301 0.570666 20.6711 0.579952 20.7213C0.570666 20.8217 0.573796 20.9211 0.589273 21.0205C0.654276 21.4776 0.935944 21.7471 1.02777 21.8363C1.31771 22.115 1.63959 22.4071 2.01826 22.649C2.26589 22.8068 2.5156 22.9277 2.7622 23.0097C2.95308 23.0732 3.14499 23.1142 3.33484 23.1327C4.38624 23.2351 5.45209 23.2382 6.50247 23.1419C6.64073 23.1296 7.00701 23.0958 7.34647 22.8375C7.62196 22.6264 7.80975 22.3251 7.90261 21.9429Z" fill="white"/>
<path d="M10.8931 3.91348C10.5887 3.46768 10.1016 3.15614 9.65589 2.84563C9.36286 2.64272 9.25759 2.62734 8.96353 2.52281C8.8067 2.46747 8.63341 2.56483 8.46936 2.59968C8.38475 2.61812 8.14841 2.72777 8.07412 2.7042C7.44266 2.50744 6.80919 2.31375 6.17464 2.12519C5.86304 2.03295 5.52457 2.15594 5.35123 2.42853C4.6723 3.49023 4.10174 4.62058 3.64672 5.79399C3.05653 7.31582 2.6572 8.91145 2.46013 10.5306C2.4106 10.9395 2.37344 11.3495 2.35074 11.7614C2.3332 12.0525 2.39823 12.4019 2.33323 12.6817C2.24553 13.064 1.9762 13.4565 1.83175 13.8254C1.68627 14.1913 1.55729 14.5633 1.44483 14.9404C1.37982 15.1607 1.31898 15.4005 1.39533 15.6178C1.44279 15.752 1.53773 15.8637 1.63678 15.9652C2.01854 16.3546 2.49212 16.5975 2.97294 16.8363C3.41145 17.0535 3.94491 17.0156 4.42057 17.0494C4.89829 17.0832 5.66285 17.2503 6.11066 17.0515C6.46147 16.8967 6.39749 16.4192 6.47075 16.0605C6.59147 15.4651 6.73695 14.8738 6.901 14.2886C7.55929 11.9438 8.53019 9.6985 9.60223 7.51362C9.86637 6.97662 10.1367 6.44372 10.4102 5.91184C10.5515 5.63822 10.6908 5.3646 10.8352 5.092C10.9353 4.90139 11.1273 4.65031 11.1438 4.431C11.152 4.31417 11.087 4.20657 11.023 4.10819C10.9807 4.04465 10.9374 3.97804 10.8931 3.91348Z" fill="#67C7C6" stroke="#243645" stroke-width="0.1704" stroke-miterlimit="10" stroke-linecap="round" stroke-linejoin="round"/>
<path d="M4.96623 22.1222C4.45962 22.1222 3.94688 22.0976 3.44026 22.0495C3.17406 22.0228 2.90372 21.9193 2.61276 21.7328C2.31457 21.5422 2.04112 21.2942 1.79142 21.0533C1.74087 21.0062 1.68721 20.9478 1.67586 20.8668C1.66658 20.7992 1.69131 20.7357 1.70679 20.6947C1.88425 20.2468 2.09272 19.8072 2.3259 19.388L2.41464 19.2189C2.58695 18.8869 2.76544 18.5426 3.19673 18.476C3.38039 18.4483 3.56923 18.4411 3.76012 18.435C3.97473 18.4288 4.18931 18.4217 4.39051 18.3807C4.61131 18.3356 4.81355 18.0671 4.99205 17.8303C5.05293 17.7494 5.10971 17.6735 5.16543 17.61C5.18193 17.5905 5.26444 17.5403 5.28817 17.5403C5.33047 17.5403 5.35938 17.5567 5.37589 17.5649C5.7267 17.7596 6.34576 18.1562 6.57275 18.6256C6.6522 18.7937 6.6718 19.015 6.68831 19.2108C6.6945 19.2866 6.70069 19.3604 6.70998 19.427C6.75022 19.7129 6.78946 20.0009 6.82661 20.2878C6.89161 20.791 6.93801 21.245 6.8307 21.6918C6.80903 21.784 6.7719 21.9009 6.67698 21.9736C6.59546 22.0361 6.49953 22.0484 6.39944 22.0577C5.92791 22.0997 5.44396 22.1222 4.96623 22.1222Z" fill="#67C7C6"/>
<path d="M5.29219 17.6254C5.30767 17.6254 5.32006 17.6325 5.33451 17.6397C5.73072 17.86 6.28994 18.2392 6.4932 18.6615C6.59638 18.8767 6.58914 19.2005 6.62319 19.4372C6.66446 19.7231 6.70265 20.0111 6.74083 20.297C6.80067 20.7531 6.85327 21.2214 6.747 21.6682C6.72533 21.7553 6.69442 21.8465 6.62426 21.9009C6.55925 21.9501 6.47358 21.9603 6.39207 21.9675C5.91744 22.0105 5.44078 22.032 4.96408 22.032C4.4585 22.032 3.95186 22.0074 3.44731 21.9583C3.17182 21.9316 2.9077 21.8137 2.65904 21.657C2.35878 21.4643 2.08431 21.2112 1.85112 20.9878C1.81191 20.9488 1.76961 20.9058 1.76239 20.8515C1.75619 20.8084 1.77273 20.7654 1.78821 20.7244C1.96361 20.2786 2.16893 19.8461 2.40109 19.4259C2.60538 19.057 2.75291 18.6297 3.20794 18.559C3.59899 18.4985 4.02511 18.5395 4.40687 18.4626C4.74014 18.396 5.00432 17.9256 5.23028 17.6623C5.24782 17.6448 5.26639 17.6254 5.29219 17.6254ZM5.29219 17.4501C5.29116 17.4501 5.28806 17.4501 5.28703 17.4501C5.18178 17.4532 5.12092 17.5239 5.09822 17.5506C5.04147 17.6161 4.98367 17.694 4.92176 17.775C4.7608 17.9892 4.55962 18.2546 4.37287 18.2935C4.18095 18.3325 3.97561 18.3386 3.75791 18.3458C3.56805 18.3519 3.37302 18.3581 3.18111 18.3878C2.70545 18.4606 2.5094 18.8408 2.33503 19.1769C2.30717 19.2333 2.27729 19.2886 2.24736 19.3429C2.01211 19.7672 1.80265 20.2099 1.62415 20.6608C1.60455 20.708 1.57462 20.7859 1.587 20.8761C1.60557 20.9939 1.68605 21.0718 1.72939 21.1138C1.98218 21.3557 2.2587 21.6078 2.56514 21.8035C2.86952 21.9972 3.15117 22.1048 3.43182 22.1325C3.93843 22.1817 4.45438 22.2063 4.96408 22.2063C5.4449 22.2063 5.93087 22.1847 6.40756 22.1407C6.4932 22.1335 6.62113 22.1212 6.7305 22.0392C6.84709 21.95 6.89149 21.8158 6.91728 21.7092C7.02872 21.2491 6.98223 20.7869 6.91414 20.2745C6.87802 19.9865 6.83781 19.6986 6.79757 19.4116C6.78725 19.347 6.78106 19.2753 6.7759 19.2005C6.75836 18.9976 6.7398 18.768 6.65209 18.5856C6.41581 18.0937 5.77813 17.6858 5.42009 17.487C5.40049 17.4757 5.3541 17.4501 5.29219 17.4501Z" fill="#243645"/>
<path d="M5.04454 1.21002C6.55818 1.65991 8.06562 2.13337 9.56483 2.62835C9.98993 2.76875 10.188 3.2545 9.97959 3.65008C8.91374 5.68124 7.86546 7.72779 6.99566 9.85119C6.56333 10.9057 6.17537 11.9787 5.85655 13.0711C5.69249 13.6286 5.54598 14.1912 5.42113 14.759C5.33859 15.1361 5.38292 16.0072 4.9929 16.1804C4.59049 16.3587 3.72997 16.165 3.2894 16.1343C2.70437 16.0923 1.81192 16.1312 1.54572 15.6526C1.09276 14.842 1.2062 13.1756 1.19072 12.2789C1.14739 9.75894 1.60348 7.23075 2.51662 4.87882C2.97267 3.70542 3.54223 2.57506 4.22012 1.51336C4.39552 1.24076 4.73293 1.11779 5.04454 1.21002Z" fill="#F6CD6C" stroke="#243645" stroke-width="0.1704" stroke-miterlimit="10" stroke-linecap="round" stroke-linejoin="round"/>
<path d="M1.73345 20.4221C1.76337 20.6229 1.81499 20.8474 1.9873 20.956C2.08429 21.0185 2.20296 21.0318 2.31749 21.0431C3.2946 21.1384 4.282 21.1405 5.26117 21.0513C5.34268 21.0441 5.42729 21.0339 5.49229 20.9857C5.56349 20.9314 5.59549 20.8402 5.6151 20.7531C5.7224 20.3052 5.6698 19.8369 5.60893 19.3809C5.53773 18.8295 5.45929 18.2802 5.37365 17.732C4.30264 17.5383 3.15841 17.4788 2.07811 17.6449C1.45181 17.7412 1.60242 18.2536 1.60655 18.8203C1.61068 19.3563 1.65297 19.8923 1.73345 20.4221Z" fill="#F6CD6C" stroke="#243645" stroke-width="0.1704" stroke-miterlimit="10" stroke-linecap="round" stroke-linejoin="round"/>
</svg>
