<svg width="71" height="46" viewBox="0 0 71 46" fill="none" xmlns="http://www.w3.org/2000/svg">
<path opacity="0.66" d="M18.7309 1.6358C12.3177 0.00423661 5.76212 3.85297 4.11889 10.2167C3.69053 11.8735 3.63146 13.5969 3.92755 15.2597C2.86123 16.5773 2.07782 18.117 1.64946 19.7728C0.00521407 26.1365 3.88483 32.6405 10.297 34.2721C14.9896 35.4665 19.8705 33.6703 22.7418 30.0498L44.6787 35.631C45.4397 40.1764 48.8473 44.0806 53.5409 45.276C59.9541 46.9065 66.5077 43.0578 68.1529 36.6942C68.5803 35.0373 68.6403 33.3139 68.3442 31.6511C69.4115 30.3335 70.194 28.7948 70.6224 27.138C72.2666 20.7744 68.388 14.2713 61.9748 12.6387C57.2812 11.4454 52.4003 13.2405 49.53 16.861L27.5932 11.2798C26.8311 6.73543 23.4235 2.8312 18.7309 1.6358Z" fill="#075C54"/>
<path d="M66.88 35.4331C67.3074 33.7763 67.3674 32.0529 67.0713 30.39C68.1387 29.0724 68.9211 27.5337 69.3495 25.8769C70.9937 19.5132 67.1151 13.0103 60.7019 11.3777C56.0083 10.1843 51.1274 11.9794 48.2571 15.6L26.3202 10.0187C25.5591 5.47437 22.1516 1.57013 17.459 0.374733C11.0458 -1.25683 4.49024 2.59184 2.84701 8.95553C2.41865 10.6123 2.35959 12.3358 2.65567 13.9987C1.58935 15.3163 0.805943 16.8559 0.377584 18.5117C-1.26666 24.8754 2.61295 31.3794 9.02511 33.011C13.7177 34.2054 18.5986 32.4093 21.4699 28.7887L43.4068 34.3699C44.1679 38.9153 47.5754 42.8195 52.2691 44.0149C58.6812 45.6455 65.2348 41.7958 66.88 35.4331Z" fill="white"/>
<path d="M64.5175 24.6474C65.48 20.9218 63.2181 17.1276 59.4626 16.1715C55.7071 15.2154 51.8845 17.4618 50.9209 21.1874C50.9036 21.251 50.8965 21.3136 50.8822 21.3772L21.2156 13.8282C21.2339 13.7656 21.2573 13.707 21.2746 13.6434C22.2361 9.91785 19.9743 6.12367 16.2187 5.16654C12.4653 4.21244 8.64053 6.45684 7.67697 10.1834C7.19367 12.0512 7.52335 13.9342 8.44213 15.4698C6.89251 16.3765 5.68986 17.8717 5.20656 19.7395C4.24504 23.4651 6.50791 27.2593 10.2624 28.2154C14.0169 29.1715 17.8406 26.9261 18.8042 23.1996C18.8204 23.1359 18.8275 23.0734 18.8428 23.0098L48.5095 30.5597C48.4912 30.6223 48.4678 30.6809 48.4515 30.7445C47.4879 34.4701 49.7508 38.2653 53.5053 39.2214C57.2598 40.1765 61.0845 37.931 62.0481 34.2055C62.5303 32.3377 62.2017 30.4537 61.2819 28.9181C62.8346 28.0094 64.0342 26.5152 64.5175 24.6474Z" fill="#FFEBBD"/>
<path d="M54.2806 36.2218C50.5272 35.2667 48.2633 31.4715 49.2258 27.746C49.2431 27.6824 49.2665 27.6238 49.2848 27.5602L19.6181 20.0112C19.6029 20.0748 19.5957 20.1374 19.5795 20.201C18.6169 23.9265 14.7923 26.172 11.0378 25.2179C7.80217 24.395 5.68068 21.463 5.7692 18.2857C5.53416 18.7401 5.34086 19.2247 5.20656 19.7396C4.24504 23.4651 6.50791 27.2593 10.2624 28.2155C14.0169 29.1716 17.8406 26.9261 18.8042 23.1996C18.8204 23.136 18.8275 23.0734 18.8428 23.0098L48.5095 30.5598C48.4912 30.6224 48.4678 30.681 48.4515 30.7446C47.4879 34.4701 49.7508 38.2653 53.5053 39.2214C57.2598 40.1765 61.0845 37.9311 62.0481 34.2056C62.1814 33.6886 62.2465 33.1727 62.2607 32.6619C60.7976 35.4878 57.5162 37.0447 54.2806 36.2218Z" fill="#DFB96D"/>
<path d="M53.2875 40.0654C49.2929 39.0487 46.793 35.1575 47.4574 31.1927L19.4584 24.0678C18.1183 27.8609 14.0393 30.0781 10.0446 29.0604C5.82616 27.9871 3.27434 23.7083 4.3549 19.5224C4.80972 17.7616 5.84139 16.2452 7.29537 15.178C6.53939 13.5495 6.37051 11.7271 6.82532 9.96629C7.9069 5.78037 12.22 3.24818 16.4375 4.32041C20.4321 5.33811 22.933 9.22824 22.2676 13.1931L50.2666 20.318C51.6077 16.5258 55.6857 14.3087 59.6814 15.3254C63.8998 16.3986 66.4527 20.6785 65.3701 24.8634C64.9153 26.6252 63.8836 28.1416 62.4306 29.2078C63.1876 30.8373 63.3555 32.6597 62.9007 34.4205C61.8191 38.6065 57.506 41.1396 53.2875 40.0654ZM18.1865 21.9405L49.6032 29.9357L49.3193 30.9151C48.4646 34.2145 50.4477 37.5402 53.726 38.3742C57.0043 39.2081 60.356 37.2404 61.1964 33.9874C61.6044 32.4083 61.3663 30.7656 60.5269 29.3633L60.0761 28.6091L60.8372 28.1648C62.2535 27.3369 63.2588 26.0103 63.6658 24.4312C64.5063 21.1782 62.5232 17.8535 59.2448 17.0185C55.9665 16.1846 52.615 18.1524 51.7745 21.4054L51.5395 22.4463L20.1227 14.4521L20.4067 13.4727C21.2624 10.1732 19.2803 6.84856 16.001 6.0146C12.7226 5.18065 9.37108 7.14738 8.53064 10.4014C8.12365 11.9805 8.35967 13.6221 9.2001 15.0255L9.65084 15.7787L8.88978 16.2229C7.47243 17.0518 6.46923 18.3775 6.06122 19.9565C5.21976 23.2106 7.2028 26.5353 10.4821 27.3693C13.7615 28.2032 17.112 26.2354 17.9525 22.9824L18.1865 21.9405Z" fill="#111D32"/>
</svg>
