<svg width="68" height="74" viewBox="0 0 68 74" fill="none" xmlns="http://www.w3.org/2000/svg">
<path d="M8.43654 73.814C8.3381 73.814 8.2428 73.8097 8.1475 73.8053C8.092 73.802 8.03857 73.7976 7.98726 73.7932H7.55581V73.4877H7.99985C8.06164 73.492 8.11191 73.4964 8.16322 73.4997C8.25329 73.5051 8.3454 73.5073 8.43756 73.5073V73.814H8.43654ZM9.33299 73.7365L9.28582 73.4342C9.56962 73.3873 9.84817 73.313 10.1152 73.2159L10.2126 73.5051C9.92778 73.6077 9.63354 73.6863 9.33299 73.7365ZM6.68346 73.4877C6.40489 73.3764 6.12951 73.2377 5.86665 73.074L6.01954 72.8121C6.26669 72.9671 6.52432 73.0958 6.78822 73.1995L6.68346 73.4877ZM11.0389 73.1155L10.8934 72.8481C11.1426 72.7019 11.3782 72.5305 11.594 72.3406L11.7835 72.5741C11.5541 72.7771 11.3028 72.9594 11.0389 73.1155ZM5.13357 72.525C4.91051 72.3297 4.69267 72.1103 4.48532 71.8713L4.70315 71.665C4.90108 71.8953 5.11157 72.1038 5.32207 72.2893L5.13357 72.525ZM12.4191 71.8975L12.1909 71.7054C12.2516 71.6279 12.3082 71.5471 12.3637 71.4675L12.3825 71.4402L12.4097 71.4238C12.57 71.3234 12.7365 71.2175 12.8988 71.104L13.0622 71.3594C12.904 71.4686 12.7417 71.5733 12.5846 71.6694C12.5312 71.748 12.4767 71.8232 12.4191 71.8975ZM3.91875 71.1444C3.75329 70.9097 3.59099 70.6565 3.42134 70.3706L3.67056 70.2091C3.83602 70.4895 3.99626 70.7352 4.15544 70.9633L3.91875 71.1444ZM13.7858 70.817L13.6078 70.5736C13.7449 70.4623 13.8748 70.3564 13.9963 70.256C14.1073 70.1654 14.2089 70.0836 14.3021 70.0061L14.4811 70.2506C14.389 70.3237 14.2885 70.4077 14.1858 70.4928C14.056 70.5976 13.9251 70.7057 13.7858 70.817ZM15.1964 69.7267L15.031 69.4746C15.2718 69.3021 15.5179 69.1297 15.7629 68.9583L15.9263 69.2126C15.6834 69.384 15.4384 69.5543 15.1964 69.7267ZM2.91869 69.6503L2.75007 69.4538C2.61498 69.2945 2.47461 69.1297 2.33429 68.9594L2.55525 68.7586C2.69663 68.9256 2.83594 69.0914 2.97104 69.2486L3.13754 69.4473L2.91869 69.6503ZM16.6594 68.6996L16.496 68.4464C16.7379 68.2784 16.9809 68.1059 17.227 67.9324L17.3915 68.1856C17.1464 68.3602 16.9013 68.5316 16.6594 68.6996ZM1.76145 68.2522C1.55619 67.9848 1.38132 67.7425 1.22633 67.5056L1.46826 67.3332C1.62011 67.5613 1.7887 67.7992 1.98977 68.0601L1.76145 68.2522ZM18.1192 67.665L17.9527 67.4129C18.1915 67.2404 18.4302 67.0636 18.6701 66.8835L18.8429 67.1324C18.602 67.3147 18.3611 67.4904 18.1192 67.665ZM0.729944 66.734C0.573906 66.459 0.440942 66.173 0.333077 65.886L0.607413 65.7747C0.710042 66.0475 0.834671 66.3182 0.983378 66.578L0.729944 66.734ZM19.555 66.59L19.3812 66.3411C19.621 66.1588 19.8587 65.9798 20.0975 65.8009L20.2692 66.0508C20.0315 66.2276 19.7938 66.4066 19.555 66.59ZM20.9855 65.5117L20.8137 65.2628C21.0536 65.0816 21.2934 64.9026 21.5311 64.7258L21.7018 64.9758C21.4641 65.1526 21.2243 65.3316 20.9855 65.5117ZM0.0816872 64.9758C0.0261839 64.6811 0 64.3831 0 64.0885L0.00108661 64.0328L0.294279 64.036V64.0885C0.294279 64.3646 0.319435 64.644 0.369702 64.919L0.0816872 64.9758ZM22.4192 64.442L22.2485 64.1921L22.9659 63.6585L23.1376 63.9083L22.4192 64.442ZM23.856 63.3725L23.6842 63.1236C23.923 62.9468 24.1618 62.7679 24.4016 62.5878L24.5733 62.8377C24.3335 63.0178 24.0916 63.1968 23.856 63.3725ZM0.392712 63.1542L0.104762 63.0887C0.168643 62.7864 0.259767 62.483 0.382294 62.1872L0.652475 62.3062C0.538327 62.5867 0.45031 62.8715 0.392712 63.1542ZM25.2886 62.3007L25.1168 62.0508C25.3546 61.8729 25.5912 61.6928 25.8311 61.5116L26.0049 61.7594C25.7651 61.9416 25.5263 62.1217 25.2886 62.3007ZM1.05043 61.516L0.801148 61.3523C0.882832 61.2137 0.976046 61.074 1.07344 60.9365C1.11219 60.8786 1.15302 60.8229 1.1991 60.7553C1.2368 60.6985 1.27345 60.6428 1.31115 60.5915L1.54995 60.7717C1.51225 60.8241 1.47664 60.8775 1.44103 60.931C1.39181 61.0009 1.35094 61.0609 1.31115 61.1165C1.21795 61.2497 1.12897 61.384 1.05043 61.516ZM26.716 61.2159L26.54 60.9681C26.7757 60.7869 27.0124 60.6058 27.2501 60.4213L27.425 60.6679C27.1883 60.8513 26.9516 61.0347 26.716 61.2159ZM28.1318 60.1157L27.9559 59.8702L28.6617 59.3168L28.8377 59.5635L28.1318 60.1157ZM2.09766 60.0721L1.87874 59.8668C2.0662 59.6507 2.27045 59.4325 2.50399 59.2022L2.70712 59.4238C2.47882 59.6486 2.27988 59.8625 2.09766 60.0721ZM29.5425 59.0101L29.3644 58.7646L30.0713 58.2134L30.2483 58.4579L29.5425 59.0101ZM3.35429 58.8027L3.1564 58.5769C3.3449 58.4 3.45697 58.2843 3.49676 58.2352C3.56902 58.1304 3.64754 58.0235 3.72399 57.9154L3.96068 58.0977C3.88318 58.2058 3.80673 58.3138 3.72923 58.4218C3.67478 58.4917 3.56059 58.6074 3.35429 58.8027ZM30.9541 57.9067L30.7772 57.6611C31.0138 57.4778 31.2484 57.2933 31.484 57.1089L31.66 57.3566C31.4244 57.5411 31.1887 57.7234 30.9541 57.9067ZM4.48954 57.3653L4.25387 57.1798C4.43399 56.9332 4.61306 56.6909 4.79423 56.4486L5.02568 56.6363C4.84556 56.8786 4.66757 57.1209 4.48954 57.3653ZM32.3679 56.8098L32.194 56.5621C32.4297 56.3809 32.6664 56.1976 32.9041 56.0142L33.0779 56.2619C32.8402 56.4453 32.6046 56.6265 32.3679 56.8098ZM5.56924 55.9138L5.33779 55.7239C5.52106 55.4827 5.7043 55.2448 5.88966 55.0047L6.119 55.1978C5.93364 55.4369 5.75041 55.6748 5.56924 55.9138ZM33.789 55.7195L33.6151 55.4707C33.8528 55.2906 34.0895 55.1083 34.3283 54.9293L34.5011 55.1771C34.2623 55.3571 34.0246 55.5372 33.789 55.7195ZM35.2153 54.6401L35.0446 54.3902C35.2834 54.2112 35.5232 54.0322 35.763 53.8565L35.9337 54.1064C35.695 54.2843 35.4551 54.4612 35.2153 54.6401ZM6.67611 54.4862L6.44786 54.2909L6.55677 54.1533C6.70653 53.9656 6.85627 53.7735 7.00708 53.5814L7.23533 53.7746C7.08452 53.9689 6.93483 54.161 6.78298 54.3498L6.67611 54.4862ZM36.6542 53.5771L36.4856 53.3272C36.7265 53.1504 36.9694 52.9757 37.2113 52.8011L37.3768 53.0543C37.1349 53.2257 36.8951 53.4014 36.6542 53.5771ZM7.78617 53.0532L7.55683 52.8633C7.73696 52.6243 7.91918 52.3842 8.09931 52.1408L8.33184 52.3285C8.15067 52.5719 7.96944 52.8142 7.78617 53.0532ZM38.1036 52.5348L37.9392 52.2805C38.1821 52.1091 38.4272 51.9378 38.6712 51.7664L38.8345 52.0218C38.5905 52.1899 38.3486 52.3602 38.1036 52.5348ZM8.87112 51.6016L8.63865 51.415C8.81877 51.1705 8.99787 50.9282 9.17485 50.6849L9.40943 50.8715C9.23036 51.1138 9.05229 51.3582 8.87112 51.6016ZM39.5707 51.5154L39.4085 51.2579C39.6556 51.0898 39.9038 50.9228 40.1509 50.758L40.3091 51.0155C40.063 51.1792 39.8158 51.3462 39.5707 51.5154ZM41.0526 50.5233L40.8976 50.2657C41.1448 50.1031 41.395 49.9394 41.6453 49.7779L41.7992 50.0376C41.549 50.1992 41.2998 50.3618 41.0526 50.5233ZM9.94666 50.1413L9.71209 49.9547C9.88907 49.7124 10.0692 49.469 10.2493 49.2245L10.4828 49.4123C10.3016 49.6556 10.1247 49.8991 9.94666 50.1413ZM42.5491 49.5519L42.3952 49.2912C42.6454 49.1307 42.8957 48.9691 43.1471 48.8098L43.3 49.0707C43.0507 49.23 42.7994 49.3915 42.5491 49.5519ZM11.0221 48.6843L10.7886 48.4966C10.9132 48.3285 11.04 48.1593 11.1667 47.9902C11.1625 47.9858 11.1583 47.9792 11.152 47.9738L11.2379 47.8952C11.24 47.893 11.2421 47.8897 11.2431 47.8887H11.2441L11.373 47.7729C11.4034 47.8068 11.4347 47.8428 11.4672 47.8799L11.5531 47.976L11.4756 48.0786C11.3227 48.2805 11.1719 48.4835 11.0221 48.6843ZM44.0508 48.5882L43.8979 48.3274L44.6499 47.8472L44.8027 48.108L44.0508 48.5882ZM45.5557 47.6267L45.4028 47.367C45.651 47.2066 45.9023 47.045 46.1515 46.8834L46.3065 47.1443C46.0552 47.3047 45.806 47.4663 45.5557 47.6267ZM10.6032 47.2327C10.4441 46.986 10.2912 46.7252 10.1393 46.4338L10.397 46.2876C10.5446 46.5713 10.6933 46.8224 10.8473 47.0614L10.6032 47.2327ZM47.0574 46.6586L46.9025 46.3989C47.1507 46.2374 47.3999 46.0747 47.6502 45.911L47.8062 46.1708C47.557 46.3345 47.3066 46.496 47.0574 46.6586ZM48.5529 45.6775L48.3948 45.421C48.6429 45.2562 48.8901 45.0914 49.1372 44.9244L49.2964 45.1808C49.0471 45.3489 48.8 45.5137 48.5529 45.6775ZM9.7351 45.6054C9.65132 45.4166 9.56964 45.23 9.49214 45.0531L9.3675 44.7694L9.63353 44.6395L9.75497 44.9157C9.83561 45.1034 9.91732 45.2856 10.0021 45.4755L9.7351 45.6054ZM50.0368 44.6799L49.8755 44.4234C50.1216 44.2565 50.3677 44.0862 50.6107 43.917L50.773 44.1713C50.529 44.3427 50.2819 44.5118 50.0368 44.6799ZM8.95178 43.9716C8.83763 43.7599 8.68577 43.4739 8.53497 43.1508L8.79889 43.0155C8.9476 43.3331 9.09522 43.6125 9.20937 43.821L8.95178 43.9716ZM51.5061 43.6572L51.3416 43.404C51.5835 43.2327 51.8255 43.0592 52.0663 42.8834L52.2339 43.1345C51.992 43.3091 51.7501 43.4848 51.5061 43.6572ZM52.9565 42.6041L52.7858 42.3541C53.0246 42.1762 53.2622 41.9973 53.4989 41.8161L53.6739 42.0627C53.4351 42.2461 53.1963 42.4251 52.9565 42.6041ZM8.17888 42.293C8.07102 41.9907 7.982 41.6895 7.91708 41.3959L8.20298 41.326C8.26686 41.6076 8.35063 41.8968 8.45431 42.1871L8.17888 42.293ZM54.3818 41.5149L54.2059 41.2693C54.4404 41.0859 54.6739 40.9003 54.9054 40.7126L55.0855 40.9538C54.852 41.1437 54.6174 41.3293 54.3818 41.5149ZM7.77575 40.466C7.77156 40.4104 7.76735 40.3535 7.76316 40.2979C7.75897 40.1866 7.75581 40.0785 7.75581 39.9694C7.75581 39.821 7.76106 39.6715 7.77153 39.5252L8.0637 39.547C8.05533 39.6867 8.05009 39.8297 8.05009 39.9705C8.05009 40.0752 8.0522 40.1768 8.05744 40.2826C8.06058 40.3361 8.06373 40.3896 8.06792 40.442L7.77575 40.466ZM55.783 40.3972L55.606 40.1506C55.8406 39.9683 56.0773 39.7839 56.3171 39.6005L56.4898 39.8482C56.2511 40.0316 56.0165 40.2128 55.783 40.3972ZM57.2019 39.308L57.0313 39.0581C57.269 38.8791 57.5098 38.7001 57.7476 38.5211L57.9193 38.771C57.6795 38.9478 57.4418 39.1268 57.2019 39.308ZM8.18834 38.6597L7.90142 38.5932C7.9653 38.2941 8.04907 37.9896 8.15274 37.6916L8.42919 37.7975C8.32865 38.0824 8.24804 38.3727 8.18834 38.6597ZM58.6346 38.234L58.4629 37.9863C58.7027 37.8084 58.9393 37.6294 59.1791 37.4483L59.3509 37.6971C59.1111 37.8782 58.8723 38.0572 58.6346 38.234ZM60.0651 37.1536L59.8902 36.9069C60.1258 36.7268 60.3604 36.5434 60.5961 36.3579L60.7741 36.6035C60.5363 36.7891 60.3007 36.9724 60.0651 37.1536ZM8.77166 36.9702L8.50877 36.8316C8.63862 36.5631 8.78735 36.288 8.94967 36.0174L9.19889 36.1811C9.0418 36.4431 8.89733 36.7083 8.77166 36.9702ZM61.4757 36.0414L61.2956 35.8002C61.5291 35.6092 61.7574 35.4171 61.9826 35.2294L62.1679 35.4673C61.9417 35.6583 61.7103 35.8504 61.4757 36.0414ZM9.69425 35.4368L9.45967 35.2523C9.63142 35.0144 9.81993 34.7732 10.021 34.5298L10.242 34.7295C10.0472 34.9664 9.86286 35.2054 9.69425 35.4368ZM62.8518 34.8878L62.6674 34.651C62.9502 34.4131 63.1639 34.2351 63.3608 34.078L63.5409 34.3214C63.3451 34.4785 63.1335 34.6531 62.8518 34.8878ZM10.8337 34.0551L10.6211 33.8433C10.8117 33.6359 11.018 33.4199 11.2484 33.1874L11.4536 33.4078C11.2243 33.637 11.0222 33.8499 10.8337 34.0551ZM64.2467 33.7811L64.0791 33.5301C64.1116 33.505 64.1461 33.481 64.1807 33.4603L64.2184 33.4395C64.4582 33.362 64.6928 33.2703 64.9128 33.1634L65.0353 33.4427C64.8091 33.5519 64.5714 33.6479 64.3242 33.7265C64.298 33.744 64.2739 33.7615 64.2467 33.7811ZM65.8239 32.9778L65.6584 32.7257C65.8961 32.5565 66.1171 32.3666 66.3171 32.1593L66.5245 32.3764C66.3108 32.5958 66.0752 32.7988 65.8239 32.9778ZM12.0903 32.7748L11.8893 32.5511C11.9301 32.5107 12.0359 32.4081 12.082 32.3634L12.5323 31.9191L12.7323 32.1396L12.2841 32.5838C12.237 32.6307 12.1322 32.7344 12.0903 32.7748ZM67.1088 31.6539L66.868 31.4793C67.0292 31.236 67.1706 30.974 67.2868 30.7034L67.5549 30.8267C67.4293 31.117 67.2805 31.3942 67.1088 31.6539ZM13.3743 31.5088L13.1732 31.2862C13.3879 31.0755 13.6036 30.8649 13.8172 30.6553L14.0172 30.8801C13.8036 31.0886 13.589 31.2981 13.3743 31.5088ZM14.6623 30.2515L14.4634 30.0277C14.6791 29.8193 14.8948 29.6098 15.1105 29.4013L15.3085 29.6272C15.0949 29.8346 14.8802 30.042 14.6623 30.2515ZM67.8502 29.935L67.5654 29.8619C67.6324 29.5759 67.6796 29.2801 67.7026 28.9789L67.9958 29.004C67.9717 29.3205 67.9215 29.6337 67.8502 29.935ZM15.9599 29.0029L15.7609 28.777C15.9787 28.5696 16.1954 28.3622 16.4122 28.156L16.6112 28.3819C16.3934 28.5882 16.1767 28.7955 15.9599 29.0029ZM67.7067 28.0829C67.6858 27.7882 67.6408 27.4935 67.5696 27.2043L67.8544 27.1279C67.9287 27.4346 67.977 27.7478 68 28.061L67.7067 28.0829ZM17.2647 27.7631L17.0667 27.536C17.2856 27.3298 17.5034 27.1235 17.7213 26.9194L17.9182 27.1475C17.7004 27.3516 17.4815 27.5568 17.2647 27.7631ZM18.5748 26.532L18.379 26.3039C18.5979 26.0987 18.8188 25.8946 19.0377 25.6905L19.2335 25.9186C19.0146 26.1227 18.7947 26.329 18.5748 26.532ZM67.2879 26.3606C67.1779 26.1009 67.046 25.84 66.8847 25.565L67.136 25.4056C67.3025 25.6938 67.4408 25.9655 67.5549 26.2384L67.2879 26.3606ZM19.8954 25.3096L19.6984 25.0804C19.9205 24.8763 20.1425 24.6744 20.3624 24.4736L20.5562 24.7027C20.3352 24.9046 20.1163 25.1077 19.8954 25.3096ZM66.4061 24.8043L66.3516 24.7191C66.2385 24.4812 66.1107 24.2356 65.9757 23.9879L66.2312 23.834C66.3684 24.085 66.4951 24.3328 66.6114 24.574L66.648 24.6307L66.4061 24.8043ZM21.2201 24.0992L21.0274 23.8679C21.2505 23.6659 21.4714 23.4662 21.6945 23.2643L21.8872 23.4967C21.6641 23.6976 21.4431 23.8973 21.2201 24.0992ZM65.5253 23.2054C65.3819 22.9674 65.229 22.7229 65.0457 22.4392L65.2887 22.2689C65.4751 22.5559 65.6291 22.8015 65.7746 23.0416L65.5253 23.2054ZM22.5563 22.8965L22.3637 22.664C22.5878 22.4632 22.8119 22.2645 23.035 22.0648L23.2266 22.2984C23.0014 22.497 22.7784 22.6978 22.5563 22.8965ZM23.8979 21.7058L23.7083 21.47C23.9324 21.2714 24.1576 21.0749 24.3827 20.8773L24.5733 21.111C24.3482 21.3085 24.123 21.506 23.8979 21.7058ZM64.5913 21.6326C64.4939 21.4405 64.3451 21.1502 64.1587 20.8436L64.4059 20.6798C64.5975 20.9952 64.7515 21.2943 64.851 21.4897L64.5913 21.6326ZM25.2488 20.5215L25.0603 20.2869C25.2855 20.0894 25.5117 19.894 25.7379 19.6975L25.9264 19.9344C25.7002 20.1287 25.474 20.3251 25.2488 20.5215ZM63.654 20.1134C63.4686 19.8766 63.2697 19.6582 63.0634 19.464L63.2602 19.237C63.477 19.441 63.6875 19.6692 63.8823 19.9191L63.654 20.1134ZM54.9201 19.6168L54.8331 19.3232C55.1149 19.2326 55.3965 19.1442 55.6772 19.0558L55.7631 19.3483C55.4814 19.4356 55.1997 19.5262 54.9201 19.6168ZM26.606 19.3472L26.4186 19.1115C26.6469 18.9161 26.8741 18.7218 27.1003 18.5286L27.2867 18.7655C27.0595 18.9597 26.8332 19.154 26.606 19.3472ZM54.9137 19.2839L54.6803 19.0962C54.8583 18.855 55.0384 18.6127 55.2164 18.3671L55.45 18.5516C55.2719 18.7982 55.0928 19.0427 54.9137 19.2839ZM56.6061 19.0296L56.4909 18.748C56.8198 18.6028 57.0763 18.497 57.3172 18.4031L57.4198 18.6913C57.1821 18.7829 56.9318 18.8877 56.6061 19.0296ZM62.3784 18.9281C62.1386 18.7699 61.8821 18.6356 61.6182 18.5276L61.725 18.2416C62.0067 18.3584 62.2769 18.5014 62.5345 18.6683L62.3784 18.9281ZM58.246 18.4119L58.1696 18.1161C58.4754 18.031 58.7634 17.9677 59.0503 17.9273L59.0912 18.2296C58.8158 18.2689 58.5403 18.3289 58.246 18.4119ZM60.7971 18.2765C60.6757 18.2514 60.55 18.2296 60.4253 18.2154C60.2693 18.1947 60.107 18.1838 59.9478 18.1794L59.9541 17.8738C60.1237 17.8771 60.2934 17.8902 60.4589 17.9098C60.5919 17.9262 60.7248 17.948 60.8536 17.9753L60.7971 18.2765ZM27.9716 18.186L27.7862 17.9469C28.0156 17.7548 28.2439 17.5606 28.4732 17.3696L28.6576 17.6086C28.4282 17.7996 28.1989 17.9917 27.9716 18.186ZM55.9777 17.8127L55.74 17.6315C55.9139 17.3848 56.0867 17.1382 56.2553 16.8872L56.4961 17.064C56.3254 17.3161 56.1537 17.566 55.9777 17.8127ZM29.3446 17.0324L29.1602 16.7933L29.2744 16.6973C29.4671 16.5379 29.6587 16.3775 29.8514 16.2193L30.0336 16.4593C29.8409 16.6187 29.6503 16.7759 29.4587 16.9363L29.3446 17.0324ZM56.9998 16.3077L56.7569 16.1352C56.9224 15.8798 57.0868 15.6233 57.2428 15.3712L57.4889 15.5382C57.3329 15.7925 57.1674 16.0512 56.9998 16.3077ZM30.7258 15.8897L30.5436 15.6484C30.7761 15.4596 31.0065 15.2686 31.2379 15.0809L31.4202 15.3243C31.1887 15.5131 30.9562 15.7019 30.7258 15.8897ZM32.1176 14.7611L31.9354 14.5177C32.169 14.33 32.4014 14.1434 32.6349 13.9556L32.8151 14.199C32.5826 14.3868 32.349 14.5723 32.1176 14.7611ZM57.9623 14.7557L57.7119 14.5963C57.8041 14.4403 57.8952 14.2831 57.9842 14.1248C58.0324 14.0408 58.0995 13.9306 58.177 13.8094L58.422 13.9775C58.3487 14.0943 58.2827 14.199 58.2377 14.2798C58.1466 14.4413 58.0544 14.5985 57.9623 14.7557ZM33.5146 13.6424L33.3366 13.3979C33.5711 13.2124 33.8047 13.0269 34.0403 12.8413L34.2163 13.0858C33.9838 13.2713 33.7492 13.4558 33.5146 13.6424ZM58.9048 13.2048L58.6555 13.0432C58.8178 12.7682 58.9602 12.5106 59.087 12.2541L59.3488 12.3949C59.2158 12.6591 59.0723 12.9232 58.9048 13.2048ZM34.9221 12.5314L34.744 12.2869C34.9818 12.1013 35.2153 11.918 35.451 11.7346L35.628 11.9791C35.3923 12.1636 35.1577 12.3469 34.9221 12.5314ZM59.7227 11.5458L59.4493 11.4323C59.5582 11.1474 59.6504 10.8593 59.7258 10.5788L60.0096 10.6574C59.9332 10.951 59.8358 11.2489 59.7227 11.5458ZM36.3337 11.4302L36.16 11.1835C36.3956 11.0012 36.6301 10.8168 36.8678 10.6356L37.0427 10.8811C36.806 11.0645 36.5694 11.2479 36.3337 11.4302ZM37.7507 10.3354L37.5768 10.0888L38.2868 9.54417L38.4607 9.78971L37.7507 10.3354ZM60.1876 9.73735L59.8965 9.69585C59.931 9.42736 59.9489 9.15456 59.9489 8.88935L59.9478 8.80309L60.2421 8.79876C60.2421 8.82822 60.2421 8.86097 60.2421 8.88935C60.2421 9.16875 60.2232 9.45468 60.1876 9.73735ZM39.1728 9.2462L38.999 8.99847L39.7111 8.45496L39.8849 8.70376L39.1728 9.2462ZM40.5971 8.16026L40.4242 7.91252L41.1374 7.37114L41.3102 7.61895L40.5971 8.16026ZM59.8692 7.91032C59.8221 7.61891 59.753 7.32755 59.663 7.0416L59.9426 6.94554C60.0379 7.24568 60.1101 7.55347 60.1604 7.86016L59.8692 7.91032ZM42.0234 7.07757L41.8517 6.82984L42.5659 6.28853L42.7376 6.53627L42.0234 7.07757ZM59.3383 6.20992C59.2137 5.95017 59.066 5.69043 58.8985 5.44159L59.1394 5.26586C59.3153 5.5278 59.4703 5.79848 59.6012 6.07569L59.3383 6.20992ZM43.4581 5.99269L43.28 5.74822L43.9932 5.20798L44.166 5.45685L43.4581 5.99269ZM44.8792 4.9166L44.7075 4.66887L45.4206 4.12749L45.5934 4.37523L44.8792 4.9166ZM58.3602 4.73868C58.1759 4.52804 57.9769 4.3196 57.7465 4.09805L57.9445 3.87322C58.1822 4.10024 58.3884 4.31525 58.577 4.53244L58.3602 4.73868ZM46.3065 3.83392L46.1327 3.58618L46.8449 3.04374L47.0187 3.29255L46.3065 3.83392ZM57.0847 3.49452C57.0197 3.43668 56.9569 3.37877 56.9265 3.3493C56.8668 3.28709 56.8145 3.23253 56.7632 3.18123L56.7443 3.16378L56.7318 3.13867C56.6627 2.99133 56.5935 2.85931 56.5254 2.73598L56.7789 2.58204C56.848 2.70319 56.9161 2.83308 56.9831 2.97933C57.0313 3.02626 57.0815 3.07646 57.1329 3.12994C57.1569 3.15286 57.2156 3.20851 57.2774 3.26417L57.0847 3.49452ZM47.7444 2.73265L47.5402 2.51223C47.5936 2.45875 47.6669 2.38451 47.7078 2.33976C47.8408 2.20225 47.9957 2.04289 48.1769 1.86827L48.3749 2.09529C48.2 2.26227 48.046 2.42273 47.9225 2.54933C47.8711 2.60281 47.7978 2.67808 47.7444 2.73265ZM56.0312 2.01129C55.8479 1.78973 55.6395 1.5845 55.4122 1.40223L55.5903 1.15889C55.8332 1.35425 56.0563 1.57252 56.2531 1.81044L56.0312 2.01129ZM49.0419 1.51688L48.866 1.26914C49.1132 1.07705 49.3677 0.904597 49.6211 0.755074L49.7645 1.02353C49.5226 1.16432 49.2786 1.33134 49.0419 1.51688ZM54.6907 0.919878C54.4372 0.779086 54.1734 0.662256 53.9042 0.569486L53.9974 0.278115C54.2812 0.376342 54.5619 0.501817 54.83 0.649157L54.6907 0.919878ZM50.5405 0.644827L50.4379 0.35672C50.7227 0.245396 51.017 0.160257 51.3092 0.101321L51.3668 0.401418C51.0893 0.45708 50.8128 0.53896 50.5405 0.644827ZM53.0706 0.363248C53.0235 0.3567 52.9722 0.347988 52.923 0.342531C52.6873 0.314155 52.4496 0.30101 52.2161 0.307559L52.2098 0.000866242C52.4549 -0.0034994 52.7093 0.00854341 52.9575 0.0391029C53.0109 0.0456513 53.0622 0.0521545 53.1136 0.0608858L53.0706 0.363248Z" fill="white"/>
<path d="M8.10767 71.342C6.70647 71.1695 5.84986 69.8478 5.15868 68.6232L5.13983 68.5916C5.04034 68.4497 4.72304 68.0776 4.5094 67.8265C4.02244 67.2546 3.46953 66.6052 3.09567 66.0082C3.03283 65.91 2.98359 65.8402 2.93018 65.7649C1.75833 64.1059 2.66836 62.8126 2.96892 62.3881C3.01185 62.3259 3.06526 62.2516 3.12705 62.1589C3.57945 61.4855 4.10934 60.9834 4.5785 60.5425C4.89791 60.2434 5.19639 59.9607 5.37652 59.7065C6.35044 58.3335 7.3296 57.0281 8.36845 55.7163C9.37694 54.4459 10.3666 53.099 11.3238 51.7915C12.3281 50.4273 13.3627 49.0139 14.4466 47.6519C14.5105 47.5711 14.5743 47.4925 14.6393 47.4128C14.1376 47.3015 13.6706 47.0679 13.2779 46.7209C12.5102 46.0464 12.0401 44.9714 11.6264 44.0251C11.5112 43.761 11.3918 43.4881 11.3112 43.3342C11.262 43.2426 11.2054 43.1421 11.1478 43.0341C10.7101 42.2406 10.1676 41.254 10.1132 40.1713C10.0042 37.959 11.7185 36.0851 13.4831 34.3541C13.5627 34.2777 13.6371 34.2046 13.7031 34.138C19.3497 28.5391 24.9231 23.4607 30.7426 18.6116C35.3075 14.8113 40.0588 11.2152 44.653 7.73794C46.0783 6.66072 47.5507 5.54524 48.9969 4.44073C49.066 4.38616 49.2503 4.1974 49.3708 4.07189C50.019 3.40176 51.106 2.27868 52.6779 2.47295C53.1795 2.53516 53.6477 2.72399 54.0728 3.0405C54.5944 3.42468 54.7986 3.88852 55.0384 4.42768C55.0426 4.43641 55.0468 4.44732 55.051 4.45605C55.0834 4.48661 55.119 4.52041 55.1473 4.54878C55.2436 4.63828 55.3536 4.74307 55.4615 4.85767C55.5463 4.94717 55.7086 5.09232 55.8678 5.23311C56.4406 5.74498 57.1548 6.38239 57.5433 7.27298C58.4848 9.43724 57.2857 11.3254 56.5684 12.4506C56.4343 12.6613 56.3087 12.8599 56.2092 13.0323C54.7409 15.6244 52.8894 18.0244 51.0987 20.3458C50.7814 20.7562 50.4662 21.1655 50.1562 21.5715C49.5907 22.3104 49.043 23.0952 48.5068 23.8962C49.2577 23.6605 50.0054 23.4215 50.7447 23.1857C51.4705 22.9544 52.1972 22.723 52.9208 22.496C53.5083 22.3104 54.0969 22.1216 54.6844 21.9339C55.408 21.7014 56.1348 21.4678 56.8606 21.2408C56.9349 21.2157 57.1349 21.1273 57.2815 21.0607C58.3549 20.5827 59.2482 20.228 60.1824 20.3437C60.3845 20.3688 60.5835 20.4157 60.7709 20.4845C61.925 20.9123 62.4842 22.0495 62.8916 22.8779C62.9461 22.9881 63.0172 23.1333 63.0508 23.1923C63.5157 23.9071 64.0948 24.7933 64.5567 25.7745C64.5912 25.8422 64.7002 26.0048 64.7714 26.1162C65.1599 26.7088 65.5997 27.3822 65.6531 28.252C65.6992 29.0335 65.5735 30.9063 63.3806 31.452C63.3723 31.4542 63.3628 31.4564 63.3544 31.4586C62.5889 31.9508 61.7867 32.6297 61.0107 33.2878C60.6453 33.5945 60.2683 33.9153 59.8902 34.2209C58.8712 35.0417 57.8219 35.8242 56.8103 36.5806C55.7777 37.3522 54.7096 38.15 53.7073 38.9642C50.373 41.6709 46.6982 44.0196 43.1429 46.2931C41.9448 47.0581 40.7059 47.8515 39.5163 48.6341C35.4541 51.3113 31.4474 54.4491 27.5726 57.4876L26.4227 58.387C24.7252 59.7141 23.0506 60.9583 21.4327 62.1621C20.2262 63.0582 18.979 63.9859 17.7098 64.9561C16.828 65.6306 15.9253 66.2615 15.0508 66.8716C14.4801 67.2688 13.8894 67.6814 13.3271 68.0917C13.1344 68.2325 12.9344 68.3952 12.7239 68.5698C12.2673 68.9442 11.75 69.3687 11.0986 69.7267C11.0326 69.7627 10.9687 69.7965 10.9048 69.8249C10.377 71.0134 9.22931 71.4085 8.269 71.355C8.21559 71.3539 8.16212 71.3496 8.10767 71.342Z" fill="white"/>
<path d="M52.3554 36.7653C52.3449 36.0897 51.0065 35.0048 50.5803 34.5137C50.3185 34.2136 49.3152 33.4354 49.3142 33.0163C49.3142 32.8209 50.5678 31.998 50.7803 31.8987C51.2663 31.6749 51.2463 31.5145 51.6767 31.6411C52.0328 31.7469 52.5386 32.882 52.7271 33.1243C53.2874 33.8446 53.9974 34.4286 54.5598 35.1457C53.8236 35.6826 53.0758 36.2065 52.3554 36.7653Z" fill="#FFB92E"/>
<path d="M56.7715 33.527C56.4846 33.7267 55.5746 34.6522 55.273 34.6239C55.118 34.6108 54.4468 33.622 54.2928 33.4495C53.5912 32.6484 53.0225 31.6476 52.2674 30.913C52.8916 30.4972 54.0907 29.0119 54.6541 29.24C55.1368 29.4364 55.7055 30.6151 56.0291 31.02C56.5548 31.6781 57.1685 32.2347 57.7099 32.8743C57.401 33.0948 57.0878 33.312 56.7715 33.527Z" fill="#FFB92E"/>
<path d="M58.7403 32.1191C58.1654 32.56 55.7662 29.1024 55.2531 28.5054C56.0814 28.0088 56.8072 27.4544 57.5245 26.7996C58.4807 28.047 59.1268 29.8872 60.2442 30.9306C59.7373 31.3191 59.2482 31.7306 58.7403 32.1191Z" fill="#FFB92E"/>
<path d="M59.7373 25.0815C60.0515 24.8469 60.3719 24.5915 60.6463 24.3055C61.2527 25.3751 62.0569 26.3072 62.5826 27.4357C63.2078 28.7847 63.1283 29.0892 61.726 29.863C60.6076 30.4774 60.7982 29.971 60.0724 28.765C59.5237 27.8504 58.9121 27.0067 58.2618 26.1663C58.7351 25.78 59.2462 25.4482 59.7373 25.0815Z" fill="#FFB92E"/>
<path d="M37.0407 28.8381C37.1936 28.5991 37.3485 28.3601 37.5056 28.1243C37.8962 28.4048 38.203 28.7192 38.5266 29.0859C37.8554 29.2496 37.181 29.4209 36.5327 29.661C36.6992 29.3849 36.8689 29.1109 37.0407 28.8381Z" fill="#FFB92E"/>
<path d="M39.2461 28.919C39.0052 28.6178 37.9371 27.8451 37.8816 27.557C37.824 27.271 38.8639 26.1185 39.0251 25.8926C39.4136 26.8705 40.7028 27.8691 41.4767 28.5185C40.7332 28.656 39.9844 28.7586 39.2461 28.919Z" fill="#FFB92E"/>
<path d="M42.6108 28.2773C41.5353 28.5228 40.4242 25.3665 39.4471 25.2868C39.8964 24.632 40.3226 23.9651 40.7447 23.2939C41.439 24.0383 43.081 25.3676 43.4266 26.3302C43.6863 27.0516 43.747 26.4994 43.2936 27.4052C43.1585 27.6693 42.9135 28.2085 42.6108 28.2773Z" fill="#FFB92E"/>
<path d="M45.0163 24.9668C44.7671 25.3248 44.5053 25.6719 44.2393 26.0179C43.3774 25.2332 42.6129 24.2978 41.8275 23.4323C40.7646 22.2623 41.5458 21.983 42.504 20.6766C43.1313 21.446 43.6654 22.258 44.3618 22.9663C45.2425 23.8558 45.7986 23.8372 45.0163 24.9668Z" fill="#FFB92E"/>
<path d="M44.0508 18.6367C44.188 18.4446 46.2092 20.5773 46.493 21.0695C46.3422 20.8075 47.0291 21.7494 47.0291 21.7483C47.0312 22.1402 46.1913 23.0831 45.9819 23.4324C45.2352 22.628 44.4728 21.8793 43.7953 21.0073C42.8664 19.8144 43.1837 19.8656 44.0508 18.6367Z" fill="#FFB92E"/>
<path d="M48.2869 19.8711C48.0062 20.2411 47.7392 20.622 47.4868 21.0138C46.8512 20.0173 45.8196 19.3396 45.2185 18.3584C45.0321 18.0561 44.6949 17.9066 44.7011 17.5956C44.7074 17.3762 45.5233 15.9355 45.7599 15.8373C46.3705 15.5819 47.3287 16.7813 47.9089 17.2987C48.1927 17.5519 48.8555 17.9218 49.0262 18.282C49.332 18.9347 48.778 19.2239 48.2869 19.8711Z" fill="#FFB92E"/>
<path d="M49.8598 17.7897C48.8429 16.8009 47.6837 15.5381 46.4584 14.8484C46.8909 14.2623 47.3381 13.6882 47.7873 13.1174C48.5696 13.9294 49.7195 14.4522 50.3876 15.3755C50.4945 15.5262 51.0421 15.8994 51.0526 16.0587C51.0683 16.2868 49.9771 17.6151 49.8598 17.7897Z" fill="#FFB92E"/>
<path d="M51.9218 14.8715C51.8035 15.0297 51.6862 15.1891 51.5699 15.3474C50.7321 14.5441 48.5382 13.015 48.5675 12.0906C48.5717 11.9498 49.4241 10.7383 49.4922 10.7306C49.7666 10.6946 50.3782 11.3572 50.5929 11.5361C51.3961 12.2117 52.0821 12.9026 52.9649 13.48C52.6182 13.946 52.2674 14.4065 51.9218 14.8715Z" fill="#FFB92E"/>
<path d="M52.8057 6.70761C52.901 6.58537 52.9952 6.46424 53.0895 6.34309C53.722 6.95428 54.963 7.89177 55.2971 8.68086C55.6081 9.41319 55.5851 9.11637 55.0363 10.1117C54.4499 9.53656 53.7356 9.17423 53.0947 8.67873C52.1177 7.92893 51.9564 7.79574 52.8057 6.70761Z" fill="#FFB92E"/>
<path d="M51.2526 8.60041C51.3647 8.47599 53.1523 9.92538 53.5523 10.2233C54.2362 10.7341 54.41 10.7276 54.3158 11.437C53.945 14.1928 51.0442 10.5071 50.0661 9.92757C50.441 9.46481 50.8547 9.03915 51.2526 8.60041Z" fill="#FFB92E"/>
<path d="M17.2123 43.6311C16.8982 43.797 16.6007 43.9847 16.3159 44.1997C15.7022 42.9795 15.0226 41.8227 14.4686 40.5741C15.9253 40.0568 16.0415 39.9869 16.7065 41.4766C16.9191 41.9536 17.6511 43.4008 17.2123 43.6311Z" fill="#FFB92E"/>
<path d="M18.5654 43.0624C18.4648 43.0984 18.3632 43.1345 18.2606 43.1727C17.8627 41.9885 17.5852 40.7006 16.8301 39.6911C17.1569 39.5655 17.5045 39.3582 17.8438 39.2599C18.7842 38.9893 18.4386 38.7972 19.0219 39.4553C19.6461 40.1604 19.9383 41.5388 20.3393 42.389C19.7738 42.6782 19.1581 42.8518 18.5654 43.0624Z" fill="#FFB92E"/>
<path d="M22.1144 41.5302C21.7594 41.6797 21.4044 41.8346 21.0609 42.0093C20.6472 40.8109 20.0713 39.713 19.5571 38.5648C20.8169 38.1119 21.2002 37.6393 21.9029 38.8945C22.3165 39.6301 22.8003 40.4082 23.3773 41.0172C22.9564 41.1864 22.5322 41.3523 22.1144 41.5302Z" fill="#FFB92E"/>
<path d="M28.0355 35.7642C28.1706 35.7227 28.3057 35.6823 28.4408 35.642C28.113 36.1669 27.87 36.7497 27.514 37.2562C27.3255 36.8687 27.1297 36.4856 26.9286 36.1047C27.2983 35.9934 27.6669 35.8777 28.0355 35.7642Z" fill="#FFB92E"/>
<path d="M26.0322 36.3713C26.4971 38.2201 27.4093 37.5881 25.9495 39.2209C25.5012 38.4667 25.1326 37.6504 24.7461 36.8613C25.1682 36.6768 25.5955 36.5142 26.0322 36.3713Z" fill="#FFB92E"/>
<path d="M23.9324 37.1766C24.4131 38.1567 25.7672 39.5297 24.9085 40.3166C23.6979 41.4189 22.7281 38.5911 22.2925 37.6874C22.8412 37.5269 23.3921 37.3687 23.9324 37.1766Z" fill="#FFB92E"/>
<path d="M10.5394 66.828C9.72885 67.1707 9.16652 67.6597 8.88272 67.1631C8.29103 66.1306 7.53802 65.204 6.74108 64.3385C7.38932 64.0176 7.6616 63.533 8.25434 63.7502C9.18009 64.0875 10.2368 65.9712 10.7813 66.7068C10.7007 66.7472 10.6211 66.7865 10.5394 66.828Z" fill="#FFB92E"/>
<path d="M12.7113 65.2259C12.2924 65.4944 11.906 65.7651 11.5353 66.1002C10.7153 64.8789 9.85765 63.8344 8.79262 62.826C9.04919 62.6 9.99588 61.4791 10.3802 61.5064C10.708 61.5293 11.2704 62.6175 11.4683 62.8773C11.995 63.5747 12.5134 64.3321 13.126 64.9542C12.9867 65.0447 12.8506 65.1365 12.7113 65.2259Z" fill="#FFB92E"/>
<path d="M15.6457 63.1054C15.5378 63.1763 14.1524 64.3299 14.0047 64.3233C13.7481 64.3124 13.1669 63.3815 13.0213 63.196C12.4223 62.4352 11.8945 61.5861 11.2222 60.8876C11.6693 60.5646 12.7344 59.4251 13.2518 59.376C13.7775 59.3247 13.7429 59.4404 14.2141 60.0636C14.8906 60.9597 15.4729 61.8655 16.25 62.6797C16.0489 62.8216 15.8467 62.9635 15.6457 63.1054Z" fill="#FFB92E"/>
<path d="M17.4668 61.7102C16.5745 62.459 15.0267 59.2633 14.3471 58.5702C15.0707 58.042 15.7786 57.492 16.4908 56.9463C16.9987 57.8609 17.7181 58.6161 18.2596 59.5067C19.1172 60.907 18.7025 60.6756 17.4668 61.7102Z" fill="#FFB92E"/>
<path d="M21.1028 59.1632C20.265 59.7264 20.1436 60.0625 19.5026 59.6664C19.2387 59.5037 18.9538 58.671 18.7821 58.4112C18.3004 57.6745 17.1904 56.8057 17.6124 56.1236C17.7265 55.9381 19.0335 55.0322 19.1738 55.0715C19.3497 55.1228 19.7403 55.7755 19.8482 55.9184C20.4325 56.6944 22.0736 58.5095 21.1028 59.1632Z" fill="#FFB92E"/>
<path d="M23.2779 57.3044C22.9648 57.5227 22.6685 57.7638 22.3878 58.0247C21.8652 56.7739 20.9248 55.4795 20.0304 54.4972C21.2766 53.6558 21.527 53.097 22.525 54.3052C23.1669 55.0845 23.679 55.831 24.433 56.5197C24.0571 56.7958 23.6602 57.0392 23.2779 57.3044Z" fill="#FFB92E"/>
<path d="M26.2583 55.0769C25.1619 56.0002 25.0718 55.8911 24.1084 54.7866C23.5586 54.1535 23.1878 53.2684 22.4903 52.7838C23.2611 52.2064 24.0267 51.6182 24.8016 51.0441C25.4844 52.141 26.1128 53.5849 26.9694 54.5192C26.7202 54.6883 26.4835 54.8739 26.2583 55.0769Z" fill="#FFB92E"/>
<path d="M29.4241 52.8317C28.3036 53.7266 28.0103 54.3509 27.1862 53.301C26.8793 52.9092 26.6856 52.346 26.4248 51.9083C26.0017 51.1978 25.5127 50.865 25.8049 50.2941C25.9641 49.9755 27.0794 49.1766 27.4009 49.0772C28.1601 48.8426 27.7684 48.7051 28.3779 49.3632C28.8795 49.9035 29.1676 50.7821 29.5247 51.4315C29.9729 52.2435 30.2462 52.1757 29.4241 52.8317Z" fill="#FFB92E"/>
<path d="M32.0097 50.9034C31.5406 51.2079 31.0609 51.496 30.6138 51.8333C30.0011 50.612 29.4451 49.2848 28.601 48.2163C29.3047 47.7175 29.9907 47.1926 30.6735 46.6621C31.1269 47.4894 31.6777 48.2076 32.2286 48.9607C33.0308 50.0543 33.2182 50.1209 32.0097 50.9034Z" fill="#FFB92E"/>
<path d="M35.1577 48.4684C34.5995 48.8537 34.0393 49.2313 33.5419 49.7006C32.9962 48.643 32.1197 47.0256 31.2777 46.1994C32.0505 45.6253 32.8674 45.1199 33.6329 44.5317C33.8675 45.2214 34.9902 47.9041 35.852 47.9904C35.6217 48.1508 35.3902 48.3112 35.1577 48.4684Z" fill="#FFB92E"/>
<path d="M38.3193 46.1413C37.6176 46.5943 36.9998 47.1782 36.318 47.6628C36.5296 46.8835 35.2362 45.5618 34.9367 44.9659C34.1639 43.4281 35.0393 43.3997 36.3641 42.6216C36.4531 42.9479 36.9736 43.3266 37.16 43.5853C37.7119 44.3372 38.0512 45.2278 38.7487 45.8717C38.6052 45.9612 38.4606 46.0507 38.3193 46.1413Z" fill="#FFB92E"/>
<path d="M40.7332 44.5295C39.7823 45.2749 39.8922 45.4277 39.2063 45.0152C38.3612 44.5077 37.9255 42.8454 37.1799 42.1284C37.9591 41.6318 38.6575 41.0108 39.4199 40.488C39.9205 41.6034 40.619 43.0899 41.395 44.01C41.173 44.1813 40.9531 44.3549 40.7332 44.5295Z" fill="#FFB92E"/>
<path d="M44.7483 41.8445C43.9178 42.4557 43.0109 42.9217 42.147 43.474C41.7584 42.7504 40.5154 41.0969 40.4609 40.3013C40.4054 39.4751 41.726 38.7591 42.4768 38.1414C42.8936 38.8191 44.2969 41.4712 45.0729 41.6099C44.9651 41.6873 44.8572 41.7649 44.7483 41.8445Z" fill="#FFB92E"/>
<path d="M47.5434 40.048C46.8878 40.4453 46.2186 40.8252 45.5787 41.2508C45.7484 40.4901 44.3022 38.985 43.9095 38.4197C43.3754 37.6502 43.3387 37.85 43.6969 37.1493C43.965 36.621 45.0625 36.0797 45.5515 35.6922C46.3673 37.0358 47.4816 38.1937 48.3372 39.5329C48.0764 39.7097 47.8104 39.8821 47.5434 40.048Z" fill="#FFB92E"/>
<path d="M49.5206 38.7526C48.6692 39.2852 48.2586 37.6655 47.6847 36.9343C47.4009 36.5708 46.9129 36.2216 46.6909 35.8199C46.2301 34.9839 46.226 35.3048 46.9213 34.6543C48.4084 33.2628 48.4702 33.5716 49.5865 34.8169C50.174 35.4707 51.0191 36.8033 51.7878 37.2017C51.0537 37.7572 50.2997 38.2636 49.5206 38.7526Z" fill="#FFB92E"/>
<path d="M9.45343 60.8897C14.6959 52.9235 21.5144 46.3728 27.4626 39.0386C28.1706 38.1633 28.8408 37.2116 29.4262 36.2413C29.5676 36.0066 30.2336 35.1182 30.2054 34.8661C30.0504 33.5248 26.8689 35.0014 25.9505 35.2983C22.0946 36.5447 18.3308 38.0421 14.5304 39.4598C16.5861 36.202 19.9362 33.4495 22.6915 30.8454C25.4918 28.2031 28.4146 25.6677 31.3574 23.2066C37.3957 18.161 43.5178 13.3305 49.8085 8.64504C46.6029 12.0895 44.2393 16.5065 41.4746 20.3264C39.7844 22.6609 38.2135 25.1417 36.6364 27.5635C36.1861 28.2555 33.5188 32.2555 35.5672 31.677C35.7044 31.6388 35.7452 31.2798 35.8782 31.1903C36.3798 30.8497 36.8647 30.614 37.4386 30.4295C38.7392 30.0115 40.0986 29.8369 41.4349 29.5903C42.6685 29.3632 43.5199 29.1952 44.7588 28.8372C48.0241 27.8909 51.5668 26.7592 54.6436 25.838C54.807 25.7878 54.7829 25.7954 54.9441 25.7485C54.92 25.755 54.8949 25.7638 54.8698 25.7703C55.7955 25.4909 57.7036 24.8492 58.3602 24.6538C58.6053 24.5818 58.6828 24.5578 58.5917 24.5851C58.6189 24.5763 58.6472 24.5676 58.6744 24.561C58.6733 24.5621 58.6566 24.5665 58.6744 24.561C55.0614 27.0843 51.7449 30.1305 48.0513 32.5393C44.1723 35.0692 40.7049 38.4339 36.8103 41.1221C31.9762 44.4552 27.2197 47.8844 22.525 51.4446C20.0546 53.3208 17.4239 54.9415 14.9514 56.8143C14.3073 57.3022 13.634 57.789 12.9983 58.2594C12.0673 58.9481 10.0472 59.9882 9.45343 60.8897Z" fill="#FFE12E"/>
<path d="M58.6734 24.5611C58.6744 24.5611 58.6744 24.5611 58.6734 24.5611C58.6472 24.5688 58.6189 24.5775 58.5917 24.5852C58.6828 24.5579 58.6063 24.5808 58.3602 24.6539C57.7057 24.8493 55.8092 25.4878 54.8803 25.7682C54.8981 25.7628 54.918 25.7563 54.9452 25.7497C54.9211 25.7563 54.896 25.765 54.8709 25.7715C54.8751 25.7715 54.8781 25.7693 54.8813 25.7682C54.787 25.7966 54.7819 25.7966 54.6447 25.8392C51.9994 26.6316 49.0074 27.5789 46.1463 28.4291C45.8824 28.6103 45.6165 28.7893 45.3484 28.965C41.4705 31.4938 38.0031 34.8597 34.1074 37.5457C29.2796 40.8756 24.5273 44.3026 19.8367 47.8606C16.163 52.0134 12.5364 56.2055 9.45444 60.8898C10.0482 59.9883 12.0683 58.9482 12.9993 58.2595C13.635 57.788 14.3084 57.3023 14.9524 56.8145C17.4249 54.9416 20.0556 53.3209 22.526 51.4447C27.2197 47.8846 31.9762 44.4554 36.8113 41.1222C40.707 38.434 44.1733 35.0693 48.0523 32.5394C51.7448 30.1296 55.0614 27.0834 58.6734 24.5611C58.6744 24.5611 58.6744 24.5611 58.6734 24.5611C58.6713 24.5622 58.6587 24.5655 58.6734 24.5611Z" fill="#EBC900"/>
<path d="M52.3533 37.1514C54.3744 35.511 56.515 34.0355 58.5424 32.4027C59.7614 31.4215 61.0055 30.2461 62.3219 29.4243C62.9115 29.0575 63.5115 29.3751 63.4529 28.3994C63.4288 28.0119 62.7984 27.2611 62.5816 26.8016C62.1973 25.9797 61.7082 25.2256 61.215 24.4703C60.9385 24.0458 60.4986 22.8267 60.0326 22.6542C59.4891 22.4534 58.0408 23.2763 57.5036 23.4433C56.1851 23.8547 54.874 24.2837 53.5566 24.6984C50.1761 25.7604 46.7485 26.9085 43.3251 27.7959C45.008 25.2616 46.5893 22.5505 48.4304 20.1407C50.4421 17.5071 52.6664 14.7644 54.3116 11.8645C54.9609 10.7185 56.0773 9.47437 55.5338 8.2247C55.2625 7.60042 54.3661 6.9761 53.8875 6.46968C53.6937 6.2645 53.3848 6.01242 53.2151 5.76903C53.1366 5.65444 52.8696 4.96792 52.7994 4.91444C51.9155 4.26396 51.0589 5.71552 50.2996 6.29615C44.1838 10.9685 38.0523 15.4684 32.1187 20.4103C26.2489 25.2987 20.6661 30.4054 15.2226 35.8046C14.3052 36.7126 12.2432 38.6095 12.3155 40.0534C12.3479 40.7039 12.9376 41.6458 13.2465 42.2319C13.6392 42.9806 14.1419 44.4747 14.7011 44.9648C15.5609 45.7211 17.0605 44.323 18.0962 43.9301C19.6147 43.3528 21.0201 42.639 22.5281 42.0387C20.4357 44.4246 18.1287 46.6281 16.1442 49.1198C14.0518 51.7512 12.1563 54.5496 10.0681 57.1821C9.0502 58.4655 8.09721 59.737 7.15051 61.074C6.51275 61.9733 5.53567 62.5791 4.93352 63.4773C4.39943 64.2719 4.44766 63.9641 4.94195 64.7532C5.47185 65.599 6.72537 66.8781 7.01545 67.3878C7.17044 67.6574 7.91817 69.0369 8.38419 69.0609C9.22093 69.1068 8.80935 68.429 9.13504 68.1213C9.36229 67.9041 9.79375 67.8462 10.0702 67.6945C10.8096 67.2896 11.3835 66.7046 12.0631 66.2091C13.501 65.1624 14.9891 64.1878 16.4049 63.104C19.4053 60.8099 22.1731 58.8399 25.098 56.5501C29.3937 53.1886 33.7953 49.684 38.3382 46.6925C43.0057 43.6169 47.9936 40.6897 52.3533 37.1514ZM51.4789 36.657C51.4684 35.9836 50.13 34.8965 49.7027 34.4054C49.442 34.1053 48.4377 33.3271 48.4377 32.9091C48.4377 32.7138 49.6923 31.8897 49.9049 31.7926C50.3887 31.5667 50.3688 31.4062 50.7992 31.5339C51.1563 31.6398 51.6621 32.7749 51.8516 33.0172C52.4119 33.7375 53.1209 34.3203 53.6843 35.0384C52.9481 35.5754 52.2015 36.0982 51.4789 36.657ZM55.896 33.4188C55.6101 33.6196 54.7001 34.5429 54.3985 34.5157C54.2435 34.5015 53.5702 33.5126 53.4183 33.3402C52.7167 32.5402 52.148 31.5394 51.3908 30.806C52.0171 30.3901 53.2162 28.9036 53.7796 29.1317C54.2624 29.3271 54.831 30.5058 55.1536 30.9108C55.6803 31.5689 56.294 32.1266 56.8333 32.765C56.5244 32.9866 56.2102 33.2038 55.896 33.4188ZM57.8638 32.0109C57.2878 32.4529 54.8908 28.9931 54.3776 28.3961C55.2039 27.8995 55.9296 27.3473 56.648 26.6903C57.6051 27.9377 58.2513 29.7767 59.3687 30.8223C58.8618 31.2108 58.3707 31.6223 57.8638 32.0109ZM58.8618 24.9745C59.176 24.7399 59.4954 24.4834 59.7708 24.1975C60.3761 25.2693 61.1804 26.1991 61.705 27.3287C62.3323 28.6777 62.2528 28.9811 60.8484 29.7549C59.7321 30.3694 59.9227 29.863 59.197 28.6581C58.6461 27.7445 58.0366 26.8987 57.3852 26.0583C57.8607 25.6719 58.3707 25.3402 58.8618 24.9745ZM36.1641 28.729C36.317 28.49 36.473 28.251 36.6301 28.0152C37.0208 28.2946 37.3265 28.6101 37.6501 28.9779C36.9789 29.1416 36.3055 29.3118 35.6562 29.552C35.8238 29.2769 35.9924 29.0019 36.1641 28.729ZM38.3706 28.8097C38.1287 28.5096 37.0605 27.7369 37.004 27.4477C36.9474 27.1606 37.9873 26.0103 38.1497 25.7844C38.5382 26.7623 39.8252 27.7598 40.6012 28.4092C39.8577 28.5467 39.1089 28.6504 38.3706 28.8097ZM41.7354 28.168C40.6588 28.4136 39.5467 25.2583 38.5717 25.1797C39.0199 24.5238 39.4482 23.8559 39.8703 23.1836C40.5635 23.929 42.2067 25.2605 42.5523 26.222C42.812 26.9435 42.8716 26.3912 42.4182 27.296C42.2831 27.5623 42.038 28.0993 41.7354 28.168ZM44.1399 24.8578C43.8906 25.2168 43.6298 25.5628 43.3617 25.9099C42.5009 25.1241 41.7375 24.1887 40.9521 23.3232C39.8891 22.1533 40.6693 21.8739 41.6286 20.5685C42.2548 21.3369 42.79 22.1511 43.4864 22.8572C44.366 23.7478 44.9221 23.7282 44.1399 24.8578ZM43.1753 18.5287C43.3115 18.3366 45.3316 20.4681 45.6175 20.9614C45.4656 20.7006 46.1516 21.6425 46.1516 21.6414C46.1547 22.0332 45.3159 22.974 45.1043 23.3254C44.3597 22.52 43.5974 21.7713 42.9198 20.8992C41.9909 19.7052 42.3082 19.7576 43.1753 18.5287ZM47.4104 19.763C47.1297 20.1319 46.8627 20.5139 46.6113 20.9057C45.9756 19.9082 44.9441 19.2305 44.3409 18.2493C44.1566 17.947 43.8183 17.7996 43.8256 17.4875C43.8319 17.267 44.6456 15.8275 44.8834 15.7281C45.4949 15.4728 46.4521 16.6733 47.0313 17.1906C47.3151 17.4438 47.98 17.8127 48.1497 18.1751C48.4544 18.8256 47.9026 19.1169 47.4104 19.763ZM48.9822 17.6817C47.9675 16.6918 46.8082 15.4291 45.5819 14.7393C46.0133 14.1532 46.4605 13.5802 46.9119 13.0083C47.6941 13.8204 48.844 14.3431 49.5101 15.2676C49.619 15.4182 50.1666 15.7914 50.1771 15.9497C50.1907 16.1778 49.1006 17.5071 48.9822 17.6817ZM51.0442 14.7622C50.928 14.9216 50.8107 15.0798 50.6934 15.2403C49.8557 14.4348 47.6607 12.9057 47.691 11.9813C47.6942 11.8405 48.5487 10.6302 48.6157 10.6214C48.8901 10.5854 49.5027 11.2479 49.7174 11.4291C50.5206 12.1025 51.2066 12.7933 52.0883 13.3729C51.7427 13.8378 51.3919 14.2984 51.0442 14.7622ZM51.9302 6.60065C52.0244 6.4795 52.1197 6.35731 52.214 6.23507C52.8465 6.84626 54.0875 7.78374 54.4216 8.57283C54.7337 9.30626 54.7106 9.00943 54.1619 10.0037C53.5754 9.43072 52.8612 9.06617 52.2203 8.57177C51.2422 7.81978 51.0788 7.68987 51.9302 6.60065ZM50.3772 8.49096C50.4892 8.36763 52.2768 9.81597 52.6769 10.115C53.3607 10.6247 53.5356 10.6182 53.4403 11.3287C53.0675 14.0834 50.1667 10.3977 49.1907 9.81812C49.5656 9.35427 49.9792 8.93189 50.3772 8.49096ZM16.3379 43.523C16.0227 43.6889 15.7242 43.8767 15.4394 44.0917C14.8268 42.8704 14.145 41.7146 13.591 40.4649C15.0477 39.9476 15.165 39.8778 15.83 41.3675C16.0436 41.8456 16.7756 43.2928 16.3379 43.523ZM17.6899 42.9534C17.5873 42.9894 17.4878 43.0276 17.3851 43.0647C16.9872 41.8805 16.7097 40.5915 15.9525 39.5841C16.2803 39.4564 16.628 39.2491 16.9673 39.1519C17.9088 38.8802 17.5631 38.6881 18.1465 39.3473C18.7706 40.0513 19.0617 41.4308 19.4639 42.28C18.8984 42.5703 18.2837 42.7438 17.6899 42.9534ZM21.2369 41.421C20.8829 41.5706 20.529 41.7277 20.1844 41.9001C19.7697 40.7028 19.1958 39.6038 18.6816 38.4546C19.9394 38.0038 20.3237 37.5301 21.0274 38.7842C21.439 39.5198 21.9249 40.3001 22.5019 40.9091C22.0809 41.0804 21.6568 41.2442 21.2369 41.421ZM27.16 35.6573C27.2951 35.6158 27.4302 35.5743 27.5653 35.5339C27.2375 36.06 26.9945 36.6428 26.6385 37.1481C26.4479 36.7618 26.2521 36.3765 26.051 35.9967C26.4228 35.8865 26.7924 35.7697 27.16 35.6573ZM25.1567 36.2619C25.6216 38.1107 26.5338 37.4788 25.0718 39.1116C24.6247 38.3574 24.256 37.5421 23.8696 36.753C24.2906 36.5697 24.72 36.4049 25.1567 36.2619ZM23.0548 37.0684C23.5355 38.0485 24.8917 39.4215 24.0309 40.2085C22.8224 41.3108 21.8527 38.4829 21.417 37.5803C21.9647 37.4177 22.5155 37.2605 23.0548 37.0684ZM8.57684 60.7804C13.8203 52.8131 20.6379 46.2647 26.5851 38.9293C27.2951 38.0551 27.9653 37.1023 28.5507 36.1321C28.6921 35.8974 29.3582 35.009 29.3288 34.7579C29.1728 33.4155 25.9913 34.8922 25.0739 35.1901C21.2191 36.4376 17.4553 37.9361 13.6549 39.3528C15.7106 36.0938 19.0586 33.3413 21.816 30.7383C24.6152 28.0971 27.537 25.5606 30.4819 23.0995C36.5192 18.0528 42.6412 13.2223 48.933 8.53793C45.7274 11.9813 43.3628 16.3983 40.5971 20.2193C38.9068 22.5538 37.338 25.0357 35.7609 27.4564C35.3096 28.1484 32.6412 32.1473 34.6896 31.57C34.8268 31.5318 34.8697 31.1726 35.0006 31.0832C35.5022 30.7426 35.9882 30.5069 36.561 30.3213C37.8638 29.9033 39.2221 29.7298 40.5594 29.4831C41.7909 29.2561 42.6434 29.087 43.8833 28.7279C47.1475 27.7828 50.6913 26.6509 53.7681 25.7309C53.9315 25.6818 53.9053 25.6894 54.0666 25.6403C54.0425 25.6468 54.0184 25.6556 53.9943 25.6621C54.92 25.3827 56.826 24.741 57.4847 24.5478C57.7287 24.4758 57.8062 24.4496 57.7162 24.4779C57.7434 24.4692 57.7706 24.4616 57.7989 24.455C57.7957 24.455 57.7801 24.4594 57.7979 24.455C54.1839 26.9795 50.8693 30.0234 47.1737 32.4332C43.2958 34.962 39.8294 38.3279 35.9327 41.0161C31.1018 44.3482 26.3442 47.7773 21.6484 51.3397C19.178 53.2147 16.5474 54.8344 14.0738 56.7084C13.4318 57.1951 12.7574 57.683 12.1207 58.1534C11.1908 58.8399 9.17062 59.8789 8.57684 60.7804ZM9.6639 66.7199C8.85229 67.0626 8.28992 67.5516 8.00612 67.055C7.41338 66.0236 6.66146 65.097 5.86557 64.2304C6.5138 63.9106 6.784 63.426 7.37883 63.6421C8.30353 63.9794 9.35917 65.8631 9.90582 66.5987C9.82519 66.638 9.74348 66.6795 9.6639 66.7199ZM11.8358 65.1177C11.4159 65.3851 11.0295 65.6557 10.6577 65.9908C9.8398 64.7695 8.98212 63.7272 7.91708 62.7166C8.17365 62.4917 9.11936 61.3698 9.50474 61.3971C9.83252 61.42 10.3948 62.5092 10.5917 62.7701C11.1185 63.4653 11.639 64.2238 12.2495 64.8448C12.1113 64.9376 11.973 65.0271 11.8358 65.1177ZM14.7692 62.9981C14.6602 63.0691 13.2758 64.2216 13.1292 64.2151C12.8716 64.2041 12.2893 63.2732 12.1458 63.0877C11.5468 62.3281 11.019 61.4778 10.3456 60.7815C10.7939 60.4552 11.8579 59.3169 12.3763 59.2677C12.902 59.2186 12.8674 59.3332 13.3376 59.9564C14.0141 60.8535 14.5964 61.7572 15.3745 62.5714C15.1734 62.7144 14.9713 62.8552 14.7692 62.9981ZM16.5903 61.6012C15.6981 62.3499 14.1492 59.1531 13.4716 58.4612C14.1942 57.934 14.9011 57.3829 15.6153 56.8383C16.1222 57.7529 16.8416 58.507 17.3841 59.3976C18.2407 60.7989 17.825 60.5676 16.5903 61.6012ZM20.2263 59.0538C19.3895 59.6169 19.2681 59.9531 18.6272 59.5581C18.3633 59.3954 18.0773 58.5627 17.9066 58.3018C17.4249 57.5662 16.3149 56.6964 16.7369 56.0142C16.85 55.8287 18.1559 54.9217 18.2973 54.9632C18.4732 55.0145 18.8628 55.6672 18.9717 55.8101C19.5571 56.5861 21.1981 58.4011 20.2263 59.0538ZM22.4024 57.1962C22.0893 57.4145 21.793 57.6557 21.5123 57.9177C20.9887 56.6669 20.0483 55.3703 19.1539 54.388C20.4012 53.5477 20.6504 52.9877 21.6484 54.1959C22.2893 54.9752 22.8035 55.7239 23.5555 56.4104C23.1816 56.6876 22.7847 56.931 22.4024 57.1962ZM25.3808 54.9687C24.2854 55.892 24.1942 55.7829 23.2329 54.6773C22.681 54.0443 22.3123 53.1591 21.6128 52.6756C22.3846 52.0982 23.1502 51.51 23.9262 50.9348C24.609 52.0317 25.2352 53.4756 26.0918 54.411C25.8436 54.5801 25.6059 54.7657 25.3808 54.9687ZM28.5476 52.7226C27.4281 53.6186 27.1349 54.2429 26.3107 53.1918C26.0039 52.8022 25.8091 52.2369 25.5473 51.7992C25.1252 51.0887 24.6351 50.7558 24.9273 50.185C25.0886 49.8663 26.2039 49.0674 26.5243 48.9681C27.2836 48.7334 26.8909 48.5959 27.5025 49.254C28.003 49.7954 28.2921 50.674 28.6481 51.3234C29.0963 52.1354 29.3697 52.0666 28.5476 52.7226ZM31.1322 50.7962C30.664 51.0996 30.1855 51.3867 29.7373 51.725C29.1257 50.5026 28.5675 49.1766 27.7234 48.107C28.4293 47.6082 29.1152 47.0854 29.7969 46.5528C30.2525 47.3801 30.8013 48.0982 31.3521 48.8524C32.1532 49.946 32.3428 50.0115 31.1322 50.7962ZM34.2822 48.3612C33.7241 48.7454 33.1638 49.1231 32.6664 49.5913C32.1197 48.5359 31.2442 46.9162 30.4012 46.09C31.1741 45.5159 31.992 45.0107 32.7564 44.4224C32.9921 45.1133 34.1136 47.7948 34.9755 47.8822C34.744 48.0415 34.5137 48.2019 34.2822 48.3612ZM37.4418 46.0333C36.7412 46.4862 36.1243 47.0701 35.4415 47.5558C35.6541 46.7765 34.3597 45.4549 34.0592 44.8579C33.2863 43.3212 34.1639 43.2928 35.4876 42.5157C35.5777 42.8399 36.0971 43.2196 36.2845 43.4772C36.8364 44.2292 37.1747 45.1208 37.8711 45.7637C37.7287 45.8532 37.5852 45.9427 37.4418 46.0333ZM39.8567 44.4213C38.9058 45.1645 39.0158 45.3195 38.3309 44.907C37.4847 44.3995 37.0491 42.7362 36.3045 42.0191C37.0826 41.5236 37.7811 40.9015 38.5435 40.3798C39.044 41.4941 39.7436 42.9806 40.5185 43.9007C40.2976 44.0731 40.0766 44.2456 39.8567 44.4213ZM43.8728 41.7364C43.0413 42.3465 42.1365 42.8125 41.2715 43.367C40.883 42.6423 39.6378 40.9888 39.5854 40.1921C39.5299 39.3659 40.8505 38.6499 41.5992 38.0322C42.016 38.7099 43.4193 41.3621 44.1964 41.5007C44.0875 41.5793 43.9807 41.6578 43.8728 41.7364ZM46.6668 39.9389C46.0102 40.3383 45.342 40.717 44.7032 41.1438C44.8708 40.382 43.4256 38.8769 43.034 38.3115C42.4999 37.5421 42.4632 37.7408 42.8193 37.0401C43.0905 36.5118 44.1849 35.9716 44.676 35.5841C45.4918 36.9277 46.6071 38.0868 47.4596 39.4237C47.1988 39.6005 46.9349 39.7719 46.6668 39.9389ZM48.6451 38.6433C47.7926 39.176 47.3831 37.5563 46.8082 36.825C46.5254 36.4627 46.0374 36.1134 45.8154 35.7107C45.3536 34.8758 45.3484 35.1967 46.0458 34.5462C47.5308 33.1547 47.5947 33.4624 48.711 34.7066C49.2975 35.3637 50.1436 36.6952 50.9123 37.0936C50.1782 37.6491 49.4221 38.1566 48.6451 38.6433Z" fill="#2C2C2C"/>
</svg>
