<svg width="55" height="67" viewBox="0 0 55 67" fill="none" xmlns="http://www.w3.org/2000/svg">
<path d="M52.6317 22.7439C50.9798 17.5274 48.4753 12.9384 45.3905 9.47417C41.756 5.39239 37.3754 2.9713 32.7215 2.4729C31.6712 2.36061 30.5976 2.34485 29.5303 2.4266C24.7096 2.79597 19.8208 5.16091 15.3912 9.26534C11.5229 12.8497 8.1872 17.5481 5.74546 22.8502C3.91389 26.8306 2.68822 30.9931 2.20136 34.8877C1.24465 42.546 2.96566 50.0585 7.04762 56.0403C9.08542 59.0268 11.6048 61.4794 14.5355 63.3292C17.6342 65.2854 21.0454 66.4742 24.6756 66.8633C26.1287 67.0199 27.6041 67.0416 29.0605 66.9303C35.3418 66.4476 41.3702 63.4769 46.0347 58.5628C48.2851 56.1929 50.1506 53.4517 51.5772 50.417C53.0431 47.3025 54.0051 43.9634 54.4388 40.4923C55.1351 34.9272 54.493 28.6242 52.6317 22.7439Z" fill="#E0C380"/>
<path d="M50.6864 20.37C49.0345 15.1526 46.5311 10.5645 43.4462 7.10034C39.8118 3.01856 35.4301 0.597461 30.7773 0.0980742C29.727 -0.0151991 28.6534 -0.029971 27.5861 0.0517828C22.7654 0.422137 17.8766 2.78708 13.447 6.89052C9.5787 10.4759 6.24404 15.1733 3.8023 20.4754C1.97073 24.4557 0.745063 28.6183 0.258204 32.5129C-0.698507 40.1712 1.02252 47.6837 5.10343 53.6655C7.14122 56.6519 9.66056 59.1046 12.5913 60.9544C15.69 62.9096 19.1011 64.0994 22.7313 64.4885C24.1845 64.6441 25.6599 64.6668 27.1162 64.5555C33.3976 64.0728 39.4259 61.1021 44.0904 56.188C46.3408 53.8172 48.2064 51.0769 49.634 48.0422C51.0989 44.9277 52.0619 41.5886 52.4956 38.1175C53.1909 32.5543 52.5488 26.2504 50.6864 20.37Z" fill="white"/>
<path d="M7.20604 21.8228C7.20604 21.8228 7.22623 23.4875 9.8625 22.3676C12.4998 21.2476 14.106 20.3158 14.8746 23.062C15.6453 25.8091 17.4322 26.2513 22.5899 24.6764C27.7487 23.0994 28.5471 23.4855 28.8234 31.8667C29.1976 43.2226 27.281 47.4994 27.4436 51.071C27.6148 54.8385 34.2512 55.6797 32.6258 48.3554C30.8719 40.4509 31.1706 31.4166 32.6131 28.0145C34.0556 24.6123 36.3485 27.4589 39.2016 27.455C42.0537 27.452 40.7504 23.2895 42.7904 22.6473C44.8292 22.0061 46.2696 22.9605 47.1349 21.3353H47.1359C48.8272 26.6778 49.4724 32.5001 48.8198 37.7245C47.0413 51.9555 35.5512 62.4141 23.1555 61.0844C10.7607 59.7546 2.15355 47.1389 3.93091 32.9089C4.38907 29.2496 5.53818 25.4397 7.20286 21.8219L7.20604 21.8228Z" fill="#A0382B"/>
<path d="M47.137 21.3354H47.1359C46.2706 22.9606 44.8303 22.0062 42.7914 22.6474C40.7515 23.2896 42.0548 27.4521 39.2027 27.4551C36.3496 27.459 34.0567 24.6134 32.6142 28.0146C31.1716 31.4177 30.8719 40.451 32.6269 48.3555C34.2522 55.6798 27.6159 54.8387 27.4447 51.0711C27.2821 47.4995 29.1976 43.2227 28.8245 31.8668C28.5481 23.4856 27.7487 23.0995 22.591 24.6765C17.4333 26.2524 15.6464 25.8092 14.8757 23.0621C14.1071 20.3149 12.5009 21.2477 9.86357 22.3677C7.22836 23.4876 7.20711 21.823 7.20711 21.823L7.20604 21.822C12.0183 11.3693 21.1442 2.51628 30.3531 3.50422C38.1971 4.34639 44.2212 12.1278 47.137 21.3354Z" fill="#FFBA1E"/>
<path d="M30.3712 3.50641C41.0247 12.0433 41.6062 17.5286 44.504 22.3866C45.6616 22.3492 46.5364 22.4595 47.1349 21.3356H47.136C44.2233 12.1359 38.2067 4.3594 30.3712 3.50641Z" fill="#CE9115"/>
<path d="M28.0793 3.64009C22.9971 4.29609 18.3336 6.85705 14.7874 10.2937C11.2412 13.7303 8.77823 18.0662 6.98174 22.5203C7.50049 23.0502 8.41574 23.0384 9.14391 22.802C9.87207 22.5646 10.529 22.147 11.2795 21.9795C12.3372 21.7431 13.3832 21.2605 14.1379 21.9864C14.864 22.6838 15.3211 24.4902 16.0928 25.1453C17.1484 26.0396 18.7833 26.0495 20.1524 25.6673C21.5227 25.2861 22.7643 24.5789 24.126 24.177C25.4877 23.7751 27.062 23.7791 28.1612 24.6262C27.838 23.2137 26.2701 22.145 24.7181 22.2819C23.5265 22.3863 22.5113 23.0856 21.4557 23.6097C20.4012 24.1337 19.0629 24.4823 18.0456 23.8973C17.2589 23.4461 16.9039 22.5685 16.653 21.7441C16.4032 20.9187 16.1768 20.0351 15.5241 19.4284C14.8703 18.8216 13.2567 18.5439 12.7369 19.2531C14.8268 12.2301 20.7201 6.27688 28.0889 3.74055C28.1697 3.52779 28.0028 3.85088 28.0793 3.64009Z" fill="#FFCC59"/>
<path d="M29.6196 35.9653C29.3826 41.0626 26.6719 46.3687 27.8264 51.3714C27.9784 52.0284 28.209 52.7051 28.7341 53.169C29.2593 53.632 30.2638 53.8979 30.8177 53.4645C29.7972 53.2074 29.119 52.2628 28.9159 51.3005C28.7129 50.3382 28.8904 49.3473 29.0435 48.3771C29.6919 44.2717 29.8822 40.1062 29.6196 35.9653Z" fill="#FFCC59"/>
<path d="M40.9301 24.1878C40.9248 24.7798 40.6016 25.3619 40.0871 25.7106C39.5716 26.0603 38.8753 26.1686 38.2651 25.9953C37.7293 25.8426 37.285 25.4959 36.7758 25.2792C35.3503 24.6714 33.4624 25.289 32.763 26.5902C32.6088 26.8778 32.5121 27.4462 32.3813 27.7426C32.7938 26.8296 33.8855 26.2218 34.9496 26.3144C36.2518 26.4267 37.3116 27.4462 38.6148 27.5338C39.4769 27.5919 40.3571 27.193 40.8376 26.5282C41.317 25.8633 41.316 24.9039 40.9301 24.1878Z" fill="#FFCC59"/>
<path d="M48.9048 30.0554L47.1891 21.9312C47.1891 21.9312 43.1061 21.9529 42.4374 22.8108C41.7688 23.6687 40.8355 26.5272 40.8355 26.5272C40.8355 26.5272 40.845 26.6178 40.861 26.7852C40.8248 26.8138 40.7898 26.8414 40.7547 26.868C40.17 27.3043 39.3653 27.4777 38.6329 27.325C37.9186 27.1753 37.3094 26.7458 36.6153 26.5272C35.2196 26.0898 34.0045 26.2139 33.2339 27.3762C34.1991 27.0413 35.2887 27.3348 36.2028 27.7741C37.117 28.2144 37.9558 28.8025 38.9305 29.1098C39.5981 29.3206 41.6678 29.3156 42.3173 29.1029C42.6064 36.9049 41.199 44.2746 37.1628 50.2732C31.7648 58.2959 26.7304 60.1299 23.1555 61.0834C23.1555 61.0834 31.8073 63.2119 41.3616 53.8674C50.917 44.5248 48.9048 30.0554 48.9048 30.0554Z" fill="#7B2623"/>
<path d="M7.22125 23.0837C4.12789 34.543 6.26665 47.1341 13.0104 57.1573C8.803 53.3523 5.70751 48.4086 4.45634 43.0848C2.89265 36.4362 4.12257 29.2536 7.22125 23.0837Z" fill="#CF6A34"/>
<path d="M47.762 21.1649C46.2249 16.3119 43.9203 12.0695 41.0959 8.89788C37.9717 5.39035 34.283 3.31795 30.4264 2.90426C25.9171 2.42063 21.1676 4.15715 16.6913 7.9257C12.6922 11.2924 9.11092 16.1434 6.60434 21.5855C4.88651 25.3196 3.73847 29.2112 3.28457 32.8399C2.40758 39.8589 3.96915 46.7203 7.67906 52.1574C11.4177 57.6369 16.8879 61.0203 23.0821 61.6852C24.3566 61.8221 25.628 61.8398 26.8898 61.7433C31.7616 61.37 36.4643 59.2799 40.4283 55.6709C45.3819 51.1626 48.5922 44.8134 49.4692 37.7944C50.1177 32.5966 49.5118 26.6907 47.762 21.1649ZM17.5682 8.82009C20.9784 5.94886 24.5235 4.33446 27.9496 4.07246C28.732 4.01237 29.5101 4.02221 30.2766 4.10495C33.7919 4.4822 37.1851 6.40489 40.0892 9.66716C42.7552 12.6615 44.944 16.6684 46.4311 21.2644C46.1175 21.7234 45.7466 21.7549 44.8388 21.7736C44.219 21.7864 43.4483 21.8012 42.5788 22.075C41.3181 22.472 41.0162 23.714 40.7493 24.8084C40.2997 26.6562 39.9319 26.8492 39.1995 26.8502C38.3544 26.8512 37.5327 26.5538 36.7375 26.2661C35.16 25.6948 33.1956 24.9847 32.004 27.7929C31.2535 29.5619 30.8027 32.7325 30.7655 36.4912C30.7262 40.5031 31.1599 44.7612 31.9837 48.4775C32.4685 50.6612 32.2176 52.3042 31.2949 52.9858C30.8112 53.3424 30.1479 53.3965 29.5186 53.1296C28.8627 52.8518 28.1431 52.1594 28.0931 51.0454C28.0368 49.7925 28.2547 48.3968 28.5321 46.6297C29.0296 43.4492 29.7121 39.0936 29.474 31.848C29.3145 27.0029 29.002 24.6852 27.5765 23.7603C26.3657 22.9753 24.6607 23.4067 22.3847 24.1031C19.4115 25.0113 17.6618 25.2023 16.7114 24.7217C16.1481 24.437 15.7771 23.8795 15.505 22.9113C15.1935 21.7982 14.7257 21.1383 14.0305 20.8359C12.9569 20.3671 11.7142 20.9029 10.142 21.5825C9.96346 21.6603 9.77957 21.7391 9.58929 21.8199C8.50395 22.2809 8.11171 22.1449 8.01816 22.0927C7.93737 22.0474 7.89802 21.9677 7.87782 21.9036C10.3079 16.6803 13.7435 12.039 17.5682 8.82009ZM48.1723 37.6555C46.4386 51.532 35.2504 61.7738 23.232 60.4845C11.2146 59.1951 2.84766 46.8563 4.58037 32.9778C4.97794 29.8042 5.92722 26.4178 7.33571 23.1191C7.99478 23.4934 8.93447 23.4264 10.1335 22.9172C10.3249 22.8354 10.5109 22.7547 10.6916 22.6768C11.9056 22.1528 12.9537 21.6997 13.4746 21.9273C13.7829 22.0622 14.0412 22.4946 14.2421 23.2136C14.6067 24.5148 15.1935 25.3314 16.0864 25.7825C17.4152 26.4533 19.3573 26.2986 22.7929 25.2496C24.9115 24.6025 26.1818 24.3306 26.8281 24.7502C27.7742 25.3639 28.0357 27.8303 28.1697 31.8855C28.4046 39.0246 27.7317 43.3201 27.2406 46.4563C26.9536 48.2855 26.7282 49.7304 26.7899 51.0956C26.8537 52.4844 27.6913 53.6851 28.9775 54.2298C29.5016 54.4515 30.0438 54.5391 30.5646 54.4997C31.1227 54.4574 31.6553 54.2653 32.1092 53.9304C32.8852 53.3572 34.0673 51.855 33.2636 48.2332C31.5118 40.3396 31.8254 31.52 33.219 28.2351C33.9344 26.5488 34.6168 26.796 36.2634 27.392C37.1287 27.7052 38.1099 28.0608 39.2016 28.0588C41.2936 28.0578 41.7156 26.3331 42.0218 25.0743C42.2684 24.0617 42.4693 23.385 42.9987 23.2186C43.6769 23.0048 44.2817 22.993 44.8664 22.9812C45.5159 22.9684 46.2228 22.9536 46.8329 22.5813C48.284 27.6392 48.7602 32.9502 48.1723 37.6555Z" fill="#542125"/>
</svg>
