<svg width="94" height="60" viewBox="0 0 94 60" fill="none" xmlns="http://www.w3.org/2000/svg">
<path d="M93.5834 50.8379C92.4166 45.3003 89.6066 43.2108 87.1926 42.4783C87.6487 39.3733 87.9603 35.2637 87.5052 30.833C86.8322 24.2839 84.6687 18.6299 81.0758 14.0306C74.8307 6.0373 64.4601 1.45105 50.2493 0.397322C48.4666 0.264853 46.7073 0.198621 45.0182 0.198621C37.0005 0.198621 29.9664 1.69894 24.1081 4.65942C19.0878 7.19639 14.884 10.8242 11.6128 15.4396C6.1598 23.1368 4.33431 31.96 3.78656 38.2543C1.27487 40.8696 0.0734868 44.5024 0.208896 49.0636C0.1529 50.9442 0.413531 53.0336 0.984694 55.2735L1.37873 56.823L2.02217 56.802C3.90364 58.8602 7.70021 58.9866 12.3275 59.1402C13.5432 59.1813 14.8005 59.2225 16.1119 59.2988C20.1864 59.5356 34.8411 59.6581 47.2112 59.6581C53.6366 59.6581 69.2178 59.6239 75.1432 59.2988C77.0135 59.1964 78.8125 59.1733 80.5525 59.1523C86.088 59.082 90.4587 59.0268 92.6304 56.3614C93.7452 54.9895 94.067 53.132 93.5834 50.8379ZM48.2467 27.8876C47.5136 26.7837 46.5454 25.5814 45.289 24.4544C46.2786 24.4675 47.3273 24.5538 48.4116 24.7104C52.9351 25.3607 56.5056 26.5308 59.0743 28.1977C58.1977 28.6192 57.4199 29.111 56.7398 29.6248C56.7133 29.5746 56.6858 29.5244 56.6583 29.4752C56.1808 28.6212 55.1963 27.4922 53.2171 26.9614C52.6052 26.7988 52.0127 26.7145 51.4557 26.7145C50.2116 26.7135 49.111 27.1259 48.2467 27.8876Z" fill="#FCFAFA" stroke="black" stroke-width="0.395" stroke-miterlimit="10"/>
<path d="M74.9029 49.8535C74.8693 50.4807 74.8083 51.0768 74.7227 51.6488L64.4489 49.6207L65.2715 42.3289C65.4355 40.3509 70.9079 25.9509 48.7038 22.7475C27.9515 19.7549 29.0674 41.8682 29.0674 41.8682C27.9963 47.6165 21.6341 48.6813 17.2104 48.7034C18.2906 41.1768 23.1928 14.9449 39.1406 14.4361C57.763 13.838 76.4382 21.3586 74.9029 49.8535Z" fill="#F9DC4B"/>
<path d="M84.012 47.7942L79.7491 47.0908L67.4371 45.0615L68.4226 37.7697C68.6191 35.7927 75.1768 21.3928 48.5663 18.1885C23.6968 15.1969 25.0346 37.3101 25.0346 37.3101C23.7508 43.0585 16.1261 44.1222 10.8258 44.1443C7.86205 44.1583 5.62628 43.8462 5.62628 43.8462C5.62628 43.8462 2.97103 -1.11989 50.0976 2.37348C97.2231 5.86784 84.012 47.7942 84.012 47.7942Z" fill="#ED1C24"/>
<path d="M79.964 45.2953C79.9243 45.9215 79.852 46.5177 79.7492 47.0907L67.4371 45.0615L68.4226 37.7697C68.6191 35.7927 75.1768 21.3928 48.5663 18.1884C23.6968 15.1968 25.0346 37.31 25.0346 37.31C23.7508 43.0584 16.1261 44.1221 10.8258 44.1442C12.1198 36.6176 17.9943 10.3858 37.1064 9.87696C59.4255 9.27984 81.8047 16.8005 79.964 45.2953Z" fill="#F9C000"/>
<path d="M2.93337 54.3483C3.62772 57.4633 9.23855 56.9154 16.23 57.3208C23.2193 57.7252 65.1616 57.8607 75.0302 57.3208C84.8988 56.7809 93.1231 58.4017 91.6153 51.2403C90.1085 44.081 85.4476 42.7292 79.965 45.2963C79.965 45.2963 83.9398 36.5152 72.0146 30.7056C60.0894 24.8951 54.7443 34.758 54.7443 34.758C54.7443 34.758 56.9373 30.0122 52.6877 28.8732C48.4391 27.7321 48.3016 32.4609 48.3016 32.4609C48.3016 32.4609 44.8757 20.8427 30.8939 22.058C16.9141 23.2743 17.5983 35.9733 17.5983 35.9733C17.5983 35.9733 -1.72655 33.4072 2.93337 54.3483Z" fill="#7CC4DC"/>
<path d="M91.6153 52.0743C90.1085 45.8142 85.4476 44.632 79.965 46.8769C79.965 46.8769 83.9398 39.1987 72.0146 34.1178C60.0894 29.0378 54.7442 37.6613 54.7442 37.6613C54.7442 37.6613 56.9373 33.5136 52.6877 32.5161C48.4391 31.5185 48.3016 35.6542 48.3016 35.6542C48.3016 35.6542 44.8757 25.4952 30.8939 26.558C16.9141 27.6227 17.5983 38.726 17.5983 38.726C17.5983 38.726 -1.72756 36.4821 2.93236 54.7909" stroke="#E2E2E2" stroke-width="0.395" stroke-miterlimit="10"/>
<path d="M35.286 44.1895C35.4458 46.1806 34.6375 47.8685 33.4778 47.9589C32.3172 48.0502 31.2482 46.5087 31.0873 44.5177C31.0191 43.6657 31.128 42.8728 31.3662 42.2336C31.6849 41.3766 32.2327 40.8025 32.8965 40.7493C33.8199 40.6791 34.6853 41.6405 35.0814 43.0375C35.1822 43.3967 35.2524 43.7821 35.286 44.1895Z" fill="white"/>
<path d="M35.0803 43.0375C34.7148 43.3697 34.2312 43.5915 33.6886 43.6327C32.6542 43.715 31.7256 43.1208 31.3662 42.2327C31.6849 41.3757 32.2327 40.8016 32.8965 40.7484C33.8199 40.6792 34.6853 41.6406 35.0803 43.0375Z" fill="#070000"/>
<path d="M55.7094 43.7579C55.8693 45.7489 56.9373 47.2904 58.0979 47.2001C59.2576 47.1097 60.069 45.4227 59.9071 43.4307C59.8389 42.5777 59.6047 41.812 59.2657 41.2179C58.8157 40.4221 58.1814 39.9404 57.5166 39.9905C56.5942 40.0638 55.8937 41.1477 55.7257 42.5898C55.685 42.9601 55.6768 43.3525 55.7094 43.7579Z" fill="white"/>
<path d="M55.7281 42.5899C56.1435 42.8608 56.6556 43.0043 57.1983 42.9622C58.2327 42.8809 59.0533 42.1503 59.2671 41.218C58.8171 40.4222 58.1828 39.9405 57.518 39.9907C56.5956 40.0639 55.8961 41.1478 55.7281 42.5899Z" fill="#070000"/>
<path d="M49.9143 45.4299C49.5193 48.1364 48.2772 50.9845 44.9429 51.2916C42.5849 51.5084 41.2735 49.997 40.568 48.2267C39.1996 44.7966 40.118 39.24 40.118 39.24H49.7687C49.7687 39.24 50.3358 42.5075 49.9143 45.4299Z" fill="#070000"/>
<path d="M49.9143 45.7529C49.5193 48.4594 48.2772 51.1459 44.9429 51.453C42.5849 51.6698 41.2736 50.4013 40.568 48.631C42.9972 46.9641 46.1758 45.5752 49.9143 45.7529Z" fill="#ED1C24"/>
<path d="M31.7206 18.7955C31.0985 19.1307 29.8503 19.6786 28.3353 19.9415C26.6381 20.2366 25.1619 20.1001 23.821 19.3214C22.6359 18.6319 21.6483 17.3213 21.2197 15.6173C20.4001 12.3547 22.3956 9.2738 26.6666 8.54623C28.1409 8.29534 29.3585 8.41375 29.9379 8.5703C29.8381 9.06305 29.7902 9.31093 29.6945 9.80367C28.9829 9.61601 28.1083 9.53974 26.8397 9.75651C23.7803 10.2784 22.1869 12.4159 22.8243 15.1717C23.4698 17.9585 25.5569 19.1989 28.2233 18.7383C29.1854 18.5717 29.8238 18.3399 30.1384 18.1232C29.9338 16.7934 29.8299 16.128 29.6253 14.7983C28.6662 14.9428 28.1867 15.0212 27.2307 15.1908C27.1472 14.7301 27.1054 14.4993 27.022 14.0387C28.6041 13.7597 29.3972 13.6373 30.9865 13.4265C31.2808 15.5731 31.4263 16.6469 31.7206 18.7955Z" fill="white"/>
<path d="M33.8321 7.87945C34.6517 7.64964 35.8602 7.44789 36.9842 7.37664C38.7568 7.26424 39.9368 7.54323 40.7451 8.14737C41.3733 8.61703 41.7673 9.37978 41.7816 10.2649C41.806 11.7371 40.792 12.7377 39.556 13.1893C39.557 13.2093 39.557 13.2173 39.558 13.2374C40.4825 13.5013 41.0628 14.3002 41.3784 15.4593C41.8009 17.0138 42.0799 18.1056 42.3039 18.5372C41.6981 18.5442 41.3957 18.5512 40.7899 18.5683C40.5955 18.2552 40.3124 17.2927 39.9459 15.9008C39.5407 14.3604 38.8525 13.7944 37.4454 13.8335C36.862 13.8706 36.5698 13.8927 35.9875 13.9379C36.1463 15.8838 36.2267 16.8582 36.3856 18.8061C35.8012 18.8523 35.509 18.8774 34.9246 18.9336C34.4868 14.5129 34.2689 12.3001 33.8321 7.87945ZM35.8989 12.837C36.5393 12.7858 36.859 12.7647 37.4994 12.7246C39.1732 12.6202 40.2066 11.7421 40.1628 10.4545C40.1139 9.0014 38.9054 8.39627 37.1726 8.50465C36.3825 8.55383 35.8419 8.6642 35.566 8.75352C35.6983 10.3873 35.7655 11.2042 35.8989 12.837Z" fill="white"/>
<path d="M51.2002 13.5842C49.3421 13.4256 48.4116 13.3694 46.5474 13.3052C46.4883 14.93 46.4598 15.7418 46.4008 17.3656C48.3922 17.4348 49.3869 17.4971 51.3712 17.6787C51.3254 18.1644 51.302 18.4103 51.2562 18.896C48.7109 18.6642 47.4332 18.5919 44.8767 18.5457C44.9601 14.0378 45.0029 11.7828 45.0864 7.27489C47.8669 7.32407 49.2566 7.40032 52.0258 7.64418C51.9821 8.1299 51.9597 8.37474 51.9159 8.86046C49.84 8.67781 48.8005 8.61463 46.7194 8.54238C46.6685 9.96642 46.641 10.6779 46.5901 12.102C48.4777 12.1672 49.4215 12.2244 51.305 12.385C51.2633 12.8637 51.2429 13.1035 51.2002 13.5842Z" fill="white"/>
<path d="M56.4109 15.9284C55.7145 17.2611 55.3754 17.9304 54.7177 19.2752C54.1171 19.1959 53.8167 19.1628 53.215 19.0936C55.2716 14.7893 56.3997 12.6628 58.8543 8.48601C59.6454 8.61146 60.0415 8.6747 60.8295 8.8172C61.7366 13.563 62.0859 15.9434 62.5786 20.6792C61.9657 20.5407 61.6603 20.4764 61.0453 20.349C60.8651 18.8627 60.7664 18.1171 60.5454 16.6298C58.8981 16.3127 58.0704 16.1702 56.4109 15.9284ZM60.4548 15.4537C60.2349 14.0908 60.1158 13.4115 59.8602 12.0476C59.737 11.2779 59.6688 10.5854 59.5945 9.91104C59.5721 9.90703 59.5609 9.90605 59.5385 9.90204C59.2596 10.5162 58.9389 11.1776 58.5896 11.8148C57.8953 13.0241 57.5573 13.6332 56.8955 14.8525C58.3239 15.0663 59.0356 15.1847 60.4548 15.4537Z" fill="white"/>
<path d="M68.5794 11.8179C67.0818 11.4175 66.3304 11.2329 64.8216 10.8916C64.9336 10.4089 64.9906 10.1681 65.1016 9.68535C68.8238 10.5253 70.6696 11.0321 74.3114 12.2334C74.1516 12.703 74.0742 12.9419 73.9144 13.4115C72.43 12.9218 71.6826 12.69 70.183 12.2615C69.0478 16.1171 68.4807 18.044 67.3465 21.8996C66.7733 21.736 66.4872 21.6577 65.912 21.5032C66.9789 17.6295 67.5124 15.6916 68.5794 11.8179Z" fill="white"/>
<path d="M14.1388 22.5871L15.7341 20.3993L17.3214 22.5871L19.2945 22.1364L17.9994 24.4246L19.2945 26.537L15.7341 25.2595L12.636 26.537L13.5605 24.0452L12.0811 22.1364L14.1388 22.5871Z" fill="#29ABE2"/>
<path d="M75.467 24.1716L77.0623 21.9839L78.6496 24.1716L80.6227 23.722L79.3277 26.0091L80.6227 28.1226L77.0623 26.8451L73.9652 28.1226L74.8887 25.6308L73.4094 23.722L75.467 24.1716Z" fill="#29ABE2"/>
</svg>
