<svg width="33" height="42" viewBox="0 0 33 42" fill="none" xmlns="http://www.w3.org/2000/svg">
<path d="M29.4932 42C29.4513 42 29.4115 41.999 29.3706 41.997C29.3297 41.999 29.2899 42 29.25 42C29.0028 42 28.7596 41.9723 28.5223 41.9199C28.1067 41.8843 27.6811 41.8576 27.2345 41.8309C26.5269 41.7874 25.7962 41.7439 25.0417 41.6549C23.2435 41.4424 21.9199 39.8605 22.0275 38.0501C22.0445 37.7783 22.0913 37.5153 22.1671 37.2661C21.1613 37.5785 20.1337 37.7427 19.1419 37.7427C18.6395 37.7427 18.1412 37.7001 17.6597 37.6191C15.2067 37.2018 13.0458 35.879 11.5766 33.8917C10.5459 32.4976 9.85121 30.886 9.53324 29.1944C8.89432 29.0737 8.2733 28.8968 7.67425 28.6624C4.91623 27.5828 2.67654 25.4897 1.68278 23.0585C0.747824 20.7716 0.743827 18.2524 1.6728 15.9675C2.87289 13.0143 5.24917 10.7066 8.13278 9.58249C6.49112 9.26315 5.30797 7.78801 5.38672 6.08053C5.46247 4.44917 6.64663 3.18362 8.21253 2.98094C8.33513 2.67642 8.5046 2.38871 8.71791 2.12868C9.3638 1.33574 10.3665 0.863146 11.3991 0.863146C12.7966 0.863146 13.9997 1.70946 14.4811 2.975C16.1736 3.15395 17.4544 4.54605 17.4574 6.2921C17.4594 7.77811 16.5364 9.01103 15.2187 9.4599C17.266 10.1866 19.2227 11.6815 20.6849 13.6579C21.2042 14.3579 21.9109 15.4069 22.3265 16.713C22.7511 16.7793 23.1559 16.8732 23.5476 16.9977C24.9949 17.4585 26.3993 18.3829 27.5017 19.6069C29.3786 21.6911 30.2876 24.6008 29.9926 27.5907C29.8889 28.6387 29.6437 29.662 29.2719 30.628C30.7999 30.6705 32.0788 31.7284 32.3997 33.2302C32.8074 35.1414 32.8074 37.0061 32.8084 38.6513C32.8084 39.4501 32.5114 40.2312 31.9741 40.8511C31.3402 41.5818 30.4361 42 29.4932 42Z" fill="#7C7A7A"/>
<path d="M28.5134 41.1379C28.4725 41.1379 28.4327 41.1369 28.3918 41.1359C28.3509 41.1369 28.311 41.1369 28.2711 41.1369C28.024 41.1369 27.7808 41.1112 27.5435 41.0568C27.1279 41.0212 26.7023 40.9955 26.2557 40.9678C25.548 40.9243 24.8174 40.8798 24.0629 40.7918C22.2637 40.5803 20.9401 38.9973 21.0477 37.187C21.0647 36.9151 21.1115 36.6521 21.1883 36.403C20.1815 36.7154 19.1549 36.8795 18.1631 36.8795C17.6607 36.8795 17.1614 36.838 16.6809 36.756C14.2269 36.3387 12.067 35.0158 10.5978 33.0295C9.56712 31.6365 8.87236 30.0229 8.5534 28.3312C7.91548 28.2116 7.29449 28.0336 6.69544 27.8003C3.93643 26.7206 1.69773 24.6256 0.703971 22.1953C-0.230983 19.9085 -0.23498 17.3903 0.693994 15.1044C1.89408 12.1521 4.27036 9.8435 7.15397 8.71935C5.51232 8.40099 4.32817 6.92487 4.40791 5.21838C4.48366 3.58702 5.66783 2.32049 7.23373 2.11879C7.35633 1.81427 7.52576 1.52556 7.73806 1.26554C8.38496 0.472598 9.38767 0 10.4203 0C11.8168 0 13.0208 0.847317 13.5013 2.11384C15.1948 2.29082 16.4756 3.6839 16.4786 5.42995C16.4806 6.91596 15.5576 8.14888 14.2399 8.59775C16.2872 9.32544 18.2439 10.8194 19.7061 12.7968C20.2254 13.4968 20.9321 14.5448 21.3467 15.8509C21.7724 15.9161 22.1771 16.011 22.5688 16.1356C24.0161 16.5963 25.4205 17.5218 26.5219 18.7448C28.3998 20.829 29.3078 23.7407 29.0128 26.7295C28.9091 27.7766 28.6639 28.7999 28.2931 29.7658C29.8211 29.8083 31.099 30.8662 31.4209 32.3681C31.8286 34.2812 31.8286 36.1439 31.8286 37.7891C31.8286 38.588 31.5326 39.3701 30.9943 39.989C30.3624 40.7187 29.4583 41.1379 28.5134 41.1379Z" fill="white"/>
<path d="M28.5143 40.2125C28.4735 40.2125 28.4326 40.2104 28.3918 40.2085C28.1565 40.2203 27.9203 40.1976 27.694 40.1402L27.5804 40.1304C27.4956 40.1235 27.4329 40.0493 27.4389 39.9643C27.4468 39.8802 27.5216 39.8189 27.6063 39.8249L27.7588 39.8407C27.9611 39.8921 28.1725 39.9138 28.3838 39.902H28.3927H28.4017C28.4386 39.9049 28.4765 39.9059 28.5134 39.9059L28.5473 39.905C28.635 39.904 28.7037 39.9702 28.7047 40.0552C28.7057 40.1403 28.6389 40.2095 28.5542 40.2105L28.5143 40.2125ZM26.6693 40.0661C26.6663 40.0661 26.6624 40.0651 26.6594 40.0651L26.2896 40.0424C26.1052 40.0315 25.9208 40.0216 25.7334 40.0098C25.6487 40.0038 25.5849 39.9306 25.5889 39.8466C25.5949 39.7616 25.6676 39.7003 25.7533 39.7023C25.9397 39.7151 26.1241 39.726 26.3085 39.7369L26.6783 39.7596C26.7631 39.7646 26.8278 39.8367 26.8228 39.9218C26.8178 40.0028 26.7501 40.0661 26.6693 40.0661ZM29.4453 39.9959C29.3875 39.9959 29.3327 39.9653 29.3058 39.9099C29.2689 39.8348 29.2998 39.7418 29.3765 39.7052C29.6347 39.5807 29.8619 39.4057 30.0543 39.1862L30.0643 39.1753C30.1211 39.1199 30.2098 39.116 30.2716 39.1664C30.3374 39.2208 30.3454 39.3167 30.2925 39.3819C30.2905 39.3829 30.2895 39.3859 30.2876 39.3869C30.0683 39.639 29.8081 39.8387 29.5131 39.9811C29.4912 39.991 29.4673 39.9959 29.4453 39.9959ZM24.8194 39.9386C24.8154 39.9386 24.8104 39.9386 24.8054 39.9386C24.5801 39.9178 24.3728 39.8961 24.1715 39.8743C24.0668 39.8605 23.9632 39.8427 23.8625 39.817C23.7798 39.7962 23.729 39.7131 23.7499 39.6311C23.7708 39.55 23.8545 39.5006 23.9373 39.5203C24.025 39.5421 24.1157 39.5579 24.2074 39.5688C24.4067 39.5925 24.6101 39.6133 24.8324 39.633C24.9181 39.641 24.9799 39.7161 24.9729 39.8001C24.9669 39.8782 24.8981 39.9386 24.8194 39.9386ZM23.0701 39.4274C23.0382 39.4274 23.0053 39.4165 22.9764 39.3968C22.7123 39.2 22.4929 38.9558 22.3245 38.6701C22.2806 38.5979 22.3056 38.504 22.3794 38.4605C22.4531 38.418 22.5478 38.4417 22.5906 38.5148C22.7392 38.765 22.9325 38.9795 23.1638 39.1525C23.2316 39.204 23.2445 39.2989 23.1937 39.3681C23.1638 39.4067 23.1169 39.4274 23.0701 39.4274ZM30.6274 38.6434C30.6105 38.6434 30.5945 38.6414 30.5786 38.6345C30.4979 38.6088 30.453 38.5228 30.4799 38.4417C30.5507 38.2291 30.5856 38.0096 30.5856 37.7901V37.5835C30.5856 37.4975 30.6554 37.4302 30.7401 37.4302C30.8258 37.4302 30.8946 37.4975 30.8946 37.5835V37.7901C30.8946 38.0432 30.8537 38.2953 30.773 38.5386C30.752 38.6028 30.6922 38.6434 30.6274 38.6434ZM22.153 37.8841C22.0773 37.8841 22.0106 37.8287 22.0006 37.7516C21.9826 37.6339 21.9756 37.5123 21.9756 37.3927C21.9756 37.3442 21.9767 37.2928 21.9797 37.2434C21.9896 37.0872 22.0135 36.9319 22.0514 36.7817C22.0723 36.6986 22.156 36.6492 22.2388 36.6699C22.3215 36.6917 22.3723 36.7737 22.3494 36.8568C22.3165 36.9873 22.2956 37.1237 22.2866 37.2612C22.2836 37.3057 22.2826 37.3501 22.2826 37.3927C22.2826 37.4975 22.2906 37.6052 22.3056 37.7091C22.3175 37.7931 22.2578 37.8702 22.174 37.8831C22.1671 37.884 22.16 37.8841 22.153 37.8841ZM30.7371 36.8162C30.6524 36.8162 30.5846 36.748 30.5826 36.664C30.5796 36.3318 30.5717 36.0322 30.5617 35.7495C30.5587 35.6644 30.6255 35.5942 30.7102 35.5903C30.7949 35.5863 30.8667 35.6536 30.8697 35.7376C30.8817 36.0233 30.8886 36.3259 30.8916 36.661C30.8926 36.7461 30.8248 36.8153 30.7401 36.8162C30.7381 36.8162 30.7381 36.8162 30.7371 36.8162ZM22.6066 36.1528C22.5737 36.1528 22.5398 36.142 22.5109 36.1202C22.4441 36.0678 22.4332 35.9709 22.486 35.9047C22.6335 35.7188 22.8069 35.5596 23.0033 35.4311C22.9933 35.3826 23.0073 35.3322 23.0431 35.2956C23.103 35.2333 23.1997 35.2314 23.2625 35.2897C23.2874 35.3124 23.3133 35.3372 23.3382 35.3619L23.4847 35.5052L23.3043 35.6061C23.082 35.7306 22.8877 35.8958 22.7282 36.0955C22.6963 36.1331 22.6524 36.1528 22.6066 36.1528ZM18.1621 35.9551C18.0983 35.9551 18.0345 35.9541 17.9717 35.9531C17.886 35.9501 17.8182 35.88 17.8212 35.7959C17.8222 35.7109 17.8939 35.6407 17.9787 35.6466C18.2767 35.6535 18.5807 35.6436 18.8867 35.616C18.9704 35.61 19.0462 35.6713 19.0542 35.7554C19.0632 35.8404 18.9994 35.9145 18.9146 35.9215C18.6615 35.9442 18.4093 35.9541 18.1621 35.9551ZM17.0507 35.877C17.0427 35.877 17.0357 35.877 17.0287 35.875C16.964 35.8651 16.9002 35.8552 16.8364 35.8453C16.5902 35.8038 16.344 35.7504 16.1038 35.6891C16.022 35.6684 15.9722 35.5843 15.9941 35.5023C16.0161 35.4202 16.0998 35.3708 16.1825 35.3925C16.4128 35.4529 16.652 35.5042 16.8882 35.5438C16.951 35.5547 17.0118 35.5646 17.0736 35.5715C17.1584 35.5853 17.2171 35.6634 17.2052 35.7455C17.1922 35.8216 17.1265 35.877 17.0507 35.877ZM19.8177 35.791C19.7449 35.791 19.6801 35.7406 19.6661 35.6684C19.6492 35.5843 19.704 35.5042 19.7878 35.4884C20.0818 35.4301 20.3808 35.3579 20.6749 35.2709C20.7556 35.2482 20.8424 35.2937 20.8663 35.3747C20.8902 35.4548 20.8443 35.5418 20.7616 35.5646C20.4586 35.6535 20.1516 35.7287 19.8476 35.788C19.8366 35.79 19.8277 35.791 19.8177 35.791ZM15.2605 35.4133C15.2416 35.4133 15.2236 35.4093 15.2057 35.4034C14.9117 35.2917 14.6226 35.1641 14.3435 35.0218C14.2678 34.9822 14.2378 34.8903 14.2777 34.8151C14.3166 34.74 14.4093 34.7113 14.485 34.7499C14.7542 34.8863 15.0333 35.0099 15.3164 35.1167C15.3951 35.1463 15.435 35.2353 15.4051 35.3144C15.3811 35.3757 15.3223 35.4133 15.2605 35.4133ZM21.5929 35.2709C21.5311 35.2709 21.4733 35.2353 21.4484 35.175C21.4175 35.0959 21.4564 35.0059 21.5361 34.9753C21.7913 34.8744 22.0454 34.7617 22.2936 34.6411L22.3683 34.6035L22.4411 34.647C22.466 34.6619 22.492 34.6767 22.5169 34.6935C22.5877 34.74 22.6096 34.8339 22.5638 34.9061C22.5189 34.9763 22.4242 34.9971 22.3524 34.9536C22.1222 35.0643 21.886 35.1671 21.6497 35.261C21.6318 35.2669 21.6128 35.2709 21.5929 35.2709ZM30.6654 34.9793C30.5856 34.9793 30.5178 34.917 30.5119 34.8359C30.4889 34.5235 30.459 34.217 30.4231 33.9283C30.4131 33.8442 30.4739 33.7681 30.5577 33.7572C30.6424 33.7473 30.7192 33.8076 30.7301 33.8917C30.766 34.1843 30.7959 34.4958 30.8198 34.8131C30.8268 34.8982 30.762 34.9713 30.6773 34.9773C30.6723 34.9792 30.6683 34.9793 30.6654 34.9793ZM13.6139 34.5759C13.585 34.5759 13.5551 34.5669 13.5282 34.5492C13.268 34.3781 13.0129 34.1903 12.7726 33.9906C12.7079 33.9362 12.6979 33.8403 12.7527 33.775C12.8075 33.7098 12.9042 33.7009 12.971 33.7552C13.2022 33.9471 13.4484 34.129 13.6986 34.2941C13.7694 34.3415 13.7893 34.4364 13.7425 34.5066C13.7135 34.5501 13.6647 34.5759 13.6139 34.5759ZM12.1945 33.3983C12.1536 33.3983 12.1128 33.3825 12.0829 33.3509C11.8666 33.1264 11.6602 32.8872 11.4689 32.641C11.416 32.5747 11.429 32.4779 11.4968 32.4264C11.5646 32.374 11.6612 32.3869 11.7131 32.4541C11.8984 32.6914 12.0978 32.9218 12.3062 33.1373C12.366 33.1986 12.3639 33.2965 12.3021 33.3538C12.2712 33.3845 12.2334 33.3983 12.1945 33.3983ZM30.4381 33.1541C30.3653 33.1541 30.2995 33.1007 30.2855 33.0285C30.2626 32.8911 30.2348 32.7566 30.2058 32.6232C30.173 32.4679 30.1241 32.3177 30.0603 32.1773C30.0254 32.1011 30.0603 32.0092 30.1381 31.9746C30.2158 31.94 30.3075 31.9746 30.3424 32.0517C30.4151 32.2119 30.471 32.3829 30.5089 32.5609C30.5378 32.6963 30.5657 32.8348 30.5906 32.9742C30.6065 33.0572 30.5497 33.1363 30.466 33.1521C30.456 33.1531 30.447 33.1541 30.4381 33.1541ZM26.1999 32.2336L26.0583 32.1041C25.9926 32.0438 25.9228 31.9835 25.854 31.9222L25.7474 31.8293L25.8311 31.7165C25.8929 31.6335 25.9527 31.5494 26.0115 31.4644C26.0593 31.3942 26.156 31.3754 26.2258 31.4239C26.2786 31.4595 26.3015 31.5208 26.2906 31.5781C26.3404 31.5574 26.4002 31.5633 26.4461 31.5989C26.5128 31.6523 26.5238 31.7482 26.471 31.8144C26.4072 31.8955 26.3474 31.9805 26.2956 32.0675L26.1999 32.2336ZM11.0622 31.9479C11.0114 31.9479 10.9605 31.9232 10.9316 31.8757C10.7651 31.6137 10.6096 31.3418 10.4671 31.066C10.4272 30.9908 10.4572 30.8979 10.5329 30.8603C10.6087 30.8208 10.7024 30.8504 10.7412 30.9256C10.8798 31.1935 11.0313 31.4585 11.1928 31.7126C11.2376 31.7838 11.2157 31.8787 11.1439 31.9242C11.119 31.939 11.0911 31.9479 11.0622 31.9479ZM29.6566 31.5326C29.6207 31.5326 29.5849 31.5198 29.554 31.4941C29.3387 31.3052 29.0875 31.1668 28.8084 31.0847C28.7256 31.061 28.6798 30.975 28.7047 30.8949C28.7286 30.8129 28.8144 30.7664 28.8961 30.7921C29.219 30.887 29.5091 31.0462 29.7593 31.2657C29.8221 31.322 29.8291 31.4189 29.7723 31.4822C29.7424 31.5139 29.6995 31.5326 29.6566 31.5326ZM27.0571 31.2884C27.0023 31.2884 26.9494 31.2597 26.9205 31.2083C26.8797 31.1342 26.9076 31.0413 26.9833 31.0007C27.2754 30.8425 27.5894 30.7427 27.9173 30.7061C28.003 30.6962 28.0798 30.7575 28.0898 30.8415C28.0987 30.9256 28.0379 31.0017 27.9522 31.0106C27.6651 31.0442 27.389 31.1302 27.1319 31.2696C27.107 31.2815 27.082 31.2884 27.0571 31.2884ZM26.6265 30.9226C26.6016 30.9226 26.5747 30.9167 26.5517 30.9038C26.477 30.8613 26.4501 30.7674 26.491 30.6952C26.6385 30.4322 26.777 30.1613 26.9006 29.8865C26.9355 29.8084 27.0282 29.7737 27.1049 29.8083C27.1837 29.843 27.2176 29.9339 27.1827 30.011C27.0541 30.2938 26.9126 30.5756 26.7611 30.8455C26.7322 30.894 26.6803 30.9226 26.6265 30.9226ZM10.2179 30.3116C10.1561 30.3116 10.1003 30.276 10.0744 30.2157C9.95779 29.929 9.85113 29.6333 9.76043 29.3377C9.73551 29.2566 9.78139 29.1696 9.86312 29.1459C9.94486 29.1212 10.0316 29.1667 10.0555 29.2477C10.1442 29.5355 10.2468 29.8232 10.3625 30.101C10.3934 30.1801 10.3555 30.2681 10.2768 30.3007C10.2568 30.3076 10.2369 30.3116 10.2179 30.3116ZM27.384 29.2458C27.3671 29.2458 27.3511 29.2438 27.3332 29.2379C27.2534 29.2102 27.2106 29.1232 27.2385 29.0431C27.3382 28.7593 27.4259 28.4667 27.5016 28.175C27.5226 28.0929 27.6063 28.0425 27.689 28.0653C27.7708 28.086 27.8216 28.1681 27.7997 28.2511C27.7229 28.5517 27.6322 28.8513 27.5296 29.1439C27.5086 29.2062 27.4478 29.2458 27.384 29.2458ZM9.67471 28.5567C9.60394 28.5567 9.53915 28.5072 9.5242 28.435C9.45941 28.1315 9.40658 27.823 9.3687 27.5146C9.35774 27.4315 9.41855 27.3544 9.50327 27.3445C9.588 27.3336 9.66478 27.3939 9.67574 27.478C9.71362 27.7766 9.76443 28.0761 9.82723 28.3708C9.84517 28.4538 9.79133 28.5349 9.7086 28.5527C9.69564 28.5557 9.68567 28.5567 9.67471 28.5567ZM27.8415 27.4661C27.8326 27.4661 27.8236 27.4661 27.8166 27.4641C27.7319 27.4493 27.6751 27.3712 27.689 27.2871C27.7259 27.0627 27.7558 26.8343 27.7788 26.6089C27.7857 26.5348 27.7927 26.4616 27.7977 26.3875C27.8047 26.3034 27.8794 26.2411 27.9641 26.2451C28.0489 26.253 28.1127 26.3251 28.1067 26.4102C28.1007 26.4853 28.0937 26.5615 28.0867 26.6376C28.0638 26.8689 28.0319 27.1052 27.9941 27.3356C27.9801 27.4137 27.9153 27.4661 27.8415 27.4661ZM8.70387 27.4177C8.69391 27.4177 8.68397 27.4157 8.674 27.4147C8.36501 27.3544 8.05796 27.2782 7.75993 27.1893C7.67819 27.1645 7.6314 27.0795 7.65632 26.9985C7.68024 26.9184 7.76695 26.8719 7.84869 26.8956C8.13675 26.9826 8.43474 27.0548 8.73277 27.1131C8.8165 27.1299 8.87133 27.21 8.85438 27.2941C8.84043 27.3672 8.77763 27.4177 8.70387 27.4177ZM6.93163 26.8858C6.9117 26.8858 6.89176 26.8828 6.87183 26.8739C6.58377 26.7552 6.29772 26.6228 6.01962 26.4804C5.94487 26.4408 5.91496 26.3489 5.95483 26.2728C5.9947 26.1996 6.08838 26.1699 6.16314 26.2095C6.43326 26.3479 6.71135 26.4764 6.99143 26.5911C7.07018 26.6237 7.1081 26.7137 7.07521 26.7918C7.05029 26.8502 6.99343 26.8858 6.93163 26.8858ZM5.28903 26.0375C5.26112 26.0375 5.23221 26.0305 5.20629 26.0137C4.94116 25.8476 4.68297 25.6667 4.43677 25.4778C4.36999 25.4264 4.35701 25.3305 4.40884 25.2633C4.46167 25.196 4.55738 25.1842 4.62615 25.2356C4.86537 25.4195 5.11758 25.5935 5.37274 25.7567C5.44551 25.8021 5.46641 25.897 5.42056 25.9672C5.38966 26.0137 5.33987 26.0375 5.28903 26.0375ZM27.9821 25.636C27.8983 25.636 27.8286 25.5678 27.8286 25.4838C27.8256 25.1803 27.8076 24.8767 27.7777 24.5801C27.7688 24.4961 27.8316 24.4209 27.9163 24.412C28 24.4021 28.0768 24.4654 28.0857 24.5495C28.1166 24.8559 28.1336 25.1694 28.1376 25.4798C28.1386 25.5649 28.0708 25.6341 27.9851 25.636H27.9821ZM3.82377 24.9153C3.7859 24.9153 3.74904 24.9004 3.71913 24.8737C3.48789 24.6602 3.26657 24.4358 3.06124 24.2044C3.00543 24.1411 3.01144 24.0452 3.07524 23.9888C3.13903 23.9315 3.23668 23.9374 3.29449 24.0017C3.49285 24.2251 3.70615 24.4427 3.93042 24.6493C3.99322 24.7076 3.9962 24.8036 3.93839 24.8658C3.9065 24.8995 3.86464 24.9153 3.82377 24.9153ZM27.7957 23.8079C27.7239 23.8079 27.6581 23.7575 27.6442 23.6853C27.5844 23.3887 27.5106 23.0931 27.4239 22.8083C27.399 22.7273 27.4448 22.6422 27.5276 22.6175C27.6083 22.5918 27.695 22.6383 27.719 22.7194C27.8097 23.015 27.8864 23.3195 27.9472 23.626C27.9652 23.7091 27.9103 23.7891 27.8266 23.8069C27.8146 23.8069 27.8046 23.8079 27.7957 23.8079ZM2.5998 23.538C2.55095 23.538 2.5031 23.5162 2.47319 23.4737C2.28879 23.2177 2.1193 22.9507 1.96879 22.6818C1.92793 22.6086 1.95388 22.5157 2.02963 22.4742C2.10439 22.4336 2.19908 22.4593 2.23994 22.5345C2.38447 22.7935 2.54794 23.0496 2.72536 23.2968C2.7752 23.364 2.75824 23.4599 2.68947 23.5093C2.66256 23.5281 2.63069 23.538 2.5998 23.538ZM27.2584 22.052C27.1966 22.052 27.1408 22.0174 27.1149 21.9591C26.9983 21.6812 26.8647 21.4064 26.7202 21.1444C26.6803 21.0702 26.7072 20.9773 26.783 20.9367C26.8567 20.8952 26.9515 20.9229 26.9923 20.998C27.1418 21.2689 27.2794 21.5537 27.401 21.8414C27.4339 21.9185 27.397 22.0085 27.3182 22.0411C27.2983 22.049 27.2774 22.052 27.2584 22.052ZM1.7047 21.9324C1.6439 21.9324 1.58604 21.8958 1.56113 21.8364C1.44451 21.5468 1.34087 21.2482 1.25615 20.9506C1.23322 20.8695 1.27909 20.7845 1.36182 20.7627C1.44455 20.74 1.52926 20.7855 1.55218 20.8685C1.63491 21.1553 1.73361 21.4429 1.84724 21.7218C1.87814 21.7999 1.84027 21.8899 1.76152 21.9205C1.74458 21.9294 1.72364 21.9324 1.7047 21.9324ZM26.3693 20.4434C26.3195 20.4434 26.2717 20.4206 26.2418 20.3771C26.0693 20.1309 25.8819 19.8917 25.6826 19.6653C25.6267 19.601 25.6347 19.5031 25.6985 19.4478C25.7633 19.3924 25.861 19.4003 25.9178 19.4636C26.1231 19.6979 26.3165 19.947 26.496 20.2021C26.5448 20.2713 26.5268 20.3682 26.4571 20.4157C26.4302 20.4345 26.3993 20.4434 26.3693 20.4434ZM1.20134 20.1656C1.12857 20.1656 1.06175 20.1122 1.04979 20.039C0.99796 19.7305 0.963069 19.4181 0.946125 19.1086C0.941141 19.0236 1.00698 18.9524 1.09171 18.9475C1.17743 18.9425 1.25013 19.0078 1.25512 19.0908C1.27206 19.3904 1.30596 19.692 1.3558 19.9876C1.36976 20.0716 1.31299 20.1507 1.22926 20.1656C1.21929 20.1656 1.21031 20.1656 1.20134 20.1656ZM25.1573 19.0562C25.1194 19.0562 25.0815 19.0424 25.0526 19.0147C24.8293 18.8091 24.5951 18.6143 24.3539 18.4353C24.2861 18.3849 24.2711 18.29 24.323 18.2208C24.3748 18.1545 24.4705 18.1397 24.5403 18.1901C24.7895 18.376 25.0327 18.5787 25.263 18.7893C25.3258 18.8486 25.3297 18.9445 25.2709 19.0068C25.239 19.0384 25.1982 19.0562 25.1573 19.0562ZM1.09864 18.3335C1.09565 18.3335 1.09269 18.3335 1.0897 18.3335C1.00498 18.3285 0.940191 18.2564 0.944178 18.1714C0.962119 17.8619 0.99701 17.5495 1.04784 17.242C1.0628 17.1579 1.14249 17.1016 1.22622 17.1164C1.30995 17.1293 1.36781 17.2084 1.35385 17.2924C1.30302 17.588 1.26912 17.8896 1.25317 18.1891C1.24918 18.2702 1.18137 18.3335 1.09864 18.3335ZM23.6741 17.9568C23.6482 17.9568 23.6213 17.9509 23.5963 17.936C23.3302 17.7838 23.0591 17.6463 22.786 17.5307C22.7082 17.4971 22.6714 17.4071 22.7053 17.33C22.7391 17.2519 22.8299 17.2163 22.9076 17.2499C23.1917 17.3705 23.4747 17.5119 23.7518 17.6721C23.8256 17.7156 23.8515 17.8095 23.8077 17.8816C23.7778 17.9311 23.7279 17.9568 23.6741 17.9568ZM21.9747 17.239C21.9607 17.239 21.9467 17.238 21.9338 17.2331C21.6507 17.1569 21.3517 17.0956 21.0447 17.0521C20.9599 17.0403 20.9012 16.9622 20.9131 16.8781C20.9261 16.7941 21.0038 16.7367 21.0885 16.7476C21.4065 16.7931 21.7195 16.8564 22.0155 16.9374C22.0972 16.9592 22.1461 17.0442 22.1222 17.1253C22.1043 17.1955 22.0415 17.239 21.9747 17.239ZM20.4078 16.6626C20.339 16.6626 20.2762 16.6171 20.2582 16.5479C20.1855 16.2681 20.0888 15.9804 19.9732 15.6956C19.9413 15.6175 19.9791 15.5275 20.0579 15.4959C20.1366 15.4653 20.2273 15.5018 20.2582 15.5809C20.3808 15.8775 20.4815 16.1781 20.5583 16.4708C20.5792 16.5538 20.5303 16.6359 20.4476 16.6577C20.4336 16.6616 20.4197 16.6626 20.4078 16.6626ZM1.40465 16.5232C1.3897 16.5232 1.37578 16.5222 1.36182 16.5173C1.28009 16.4945 1.23219 16.4095 1.25512 16.3284C1.33984 16.0328 1.44252 15.7372 1.55814 15.4514L1.56216 15.4425C1.59406 15.3644 1.68373 15.3269 1.76347 15.3575C1.84122 15.3901 1.88011 15.4801 1.84822 15.5572L1.84523 15.5661C1.7326 15.841 1.63389 16.1257 1.55316 16.4114C1.53322 16.4787 1.47144 16.5232 1.40465 16.5232ZM19.719 14.959C19.6632 14.959 19.6113 14.9314 19.5824 14.879C19.4419 14.6219 19.2884 14.3678 19.112 14.1028C19.0641 14.0316 19.0851 13.9377 19.1558 13.8903C19.2266 13.8438 19.3233 13.8636 19.3701 13.9338C19.5515 14.2067 19.7101 14.4687 19.8536 14.7336C19.8945 14.8088 19.8665 14.9017 19.7907 14.9422C19.7688 14.9531 19.7439 14.959 19.719 14.959ZM2.09144 14.8177C2.06752 14.8177 2.04355 14.8127 2.02063 14.8009C1.94487 14.7623 1.91599 14.6684 1.95486 14.5952C2.0974 14.3194 2.25591 14.0475 2.42337 13.7855C2.46922 13.7143 2.5649 13.6925 2.63666 13.738C2.70843 13.7835 2.73033 13.8784 2.68448 13.9496C2.52101 14.2047 2.36852 14.4677 2.22997 14.7356C2.20106 14.788 2.14626 14.8177 2.09144 14.8177ZM18.7053 13.4206C18.6584 13.4206 18.6126 13.3999 18.5827 13.3603C18.3983 13.1201 18.2029 12.8848 18.0016 12.6583C17.9438 12.5961 17.9508 12.4982 18.0145 12.4428C18.0783 12.3865 18.176 12.3914 18.2328 12.4557C18.4392 12.686 18.6395 12.9283 18.8289 13.1754C18.8807 13.2417 18.8678 13.3386 18.8 13.39C18.7701 13.4117 18.7382 13.4206 18.7053 13.4206ZM3.08321 13.2674C3.05031 13.2674 3.01743 13.2565 2.98952 13.2367C2.92174 13.1853 2.90879 13.0884 2.96062 13.0212C3.15 12.776 3.35432 12.5348 3.56364 12.3064C3.62145 12.2441 3.71912 12.2391 3.78192 12.2965C3.84471 12.3528 3.84971 12.4487 3.7919 12.512C3.58756 12.7355 3.39019 12.9698 3.20579 13.2071C3.17489 13.2476 3.13005 13.2674 3.08321 13.2674ZM17.4753 12.0483C17.4364 12.0483 17.3976 12.0335 17.3677 12.0048C17.1474 11.7942 16.9181 11.5906 16.6849 11.4017C16.6191 11.3473 16.6091 11.2524 16.664 11.1862C16.7178 11.1209 16.8154 11.111 16.8812 11.1654C17.1204 11.3602 17.3567 11.5688 17.583 11.7853C17.6448 11.8446 17.6457 11.9405 17.5869 12.0018C17.556 12.0325 17.5152 12.0483 17.4753 12.0483ZM4.33213 11.9109C4.29026 11.9109 4.24938 11.8941 4.21848 11.8624C4.16067 11.8002 4.16469 11.7033 4.22749 11.6449C4.45774 11.4343 4.6999 11.2316 4.94609 11.0428C5.01288 10.9914 5.11058 11.0043 5.1634 11.0705C5.21524 11.1367 5.20326 11.2336 5.13548 11.285C4.89626 11.4699 4.66107 11.6657 4.4378 11.8704C4.4069 11.898 4.37 11.9109 4.33213 11.9109ZM16.043 10.8826C16.0131 10.8826 15.9822 10.8747 15.9553 10.8569C15.7031 10.6829 15.4419 10.5227 15.1818 10.3774C15.108 10.3369 15.0801 10.2429 15.122 10.1688C15.1649 10.0956 15.2585 10.0679 15.3333 10.1095C15.6014 10.2588 15.8706 10.4259 16.1317 10.6038C16.2015 10.6523 16.2194 10.7482 16.1706 10.8174C16.1407 10.8609 16.0918 10.8826 16.043 10.8826ZM5.79538 10.7858C5.74454 10.7858 5.6947 10.762 5.6658 10.7165C5.61895 10.6454 5.64084 10.5504 5.71161 10.504C5.97575 10.3359 6.24886 10.1777 6.52396 10.0333C6.59972 9.9938 6.69246 10.0225 6.73233 10.0976C6.7722 10.1728 6.74329 10.2657 6.66754 10.3052C6.40041 10.4436 6.13523 10.5979 5.88006 10.761C5.85415 10.7788 5.82428 10.7858 5.79538 10.7858ZM14.4282 9.98688C14.4073 9.98688 14.3864 9.98193 14.3654 9.97303C14.0843 9.85043 13.7983 9.74464 13.5142 9.65763C13.4325 9.63193 13.3866 9.54593 13.4116 9.46486C13.4365 9.38478 13.5242 9.33928 13.6049 9.36399C13.8989 9.45495 14.197 9.5657 14.489 9.69324C14.5668 9.72587 14.6027 9.81782 14.5678 9.89395C14.5438 9.95228 14.487 9.98688 14.4282 9.98688ZM7.43603 9.9335C7.37423 9.9335 7.31737 9.8979 7.29245 9.83858C7.25956 9.75948 7.29748 9.66951 7.37623 9.63787C7.66628 9.51923 7.96431 9.41244 8.26134 9.32148C8.34308 9.29676 8.42979 9.34223 8.45371 9.42232C8.47863 9.50438 8.43279 9.58941 8.35205 9.61413C8.06399 9.70311 7.77588 9.80496 7.4948 9.92261C7.47586 9.92854 7.45497 9.9335 7.43603 9.9335ZM12.9062 9.25226C12.9042 9.25226 12.9022 9.25226 12.9012 9.25226C12.8155 9.25029 12.7487 9.1791 12.7517 9.09506C12.7617 8.82119 12.7666 8.52953 12.7696 8.17854C12.7706 8.0945 12.8394 8.02728 12.9241 8.02728H12.9251C13.0108 8.02827 13.0787 8.09748 13.0787 8.18152C13.0757 8.53548 13.0696 8.82812 13.0597 9.10496C13.0577 9.18702 12.9889 9.25226 12.9062 9.25226ZM8.35205 8.70849C8.35106 8.70849 8.35001 8.70849 8.34901 8.70849C8.26429 8.7075 8.19653 8.63729 8.19753 8.55325C8.20251 8.34365 8.2055 8.12121 8.2055 7.89183C8.13672 7.87206 8.08787 7.80879 8.09185 7.73463C8.09684 7.6506 8.1706 7.5863 8.25532 7.59026L8.51449 7.60411V7.84733C8.51449 8.09648 8.51247 8.33575 8.50749 8.5592C8.5055 8.64225 8.43678 8.70849 8.35205 8.70849ZM13.3737 7.84338C13.2959 7.84338 13.2281 7.78405 13.2211 7.70694C13.2112 7.62191 13.274 7.54579 13.3577 7.53788C13.6498 7.50822 13.9239 7.42021 14.1751 7.27981C14.2488 7.23829 14.3435 7.26302 14.3854 7.33816C14.4272 7.41034 14.4013 7.50426 14.3265 7.54578C14.0385 7.70793 13.7245 7.80778 13.3906 7.84338C13.3847 7.84338 13.3796 7.84338 13.3737 7.84338ZM7.32439 7.80777C7.31443 7.80777 7.30342 7.80778 7.29245 7.80482C6.96751 7.73561 6.66455 7.60411 6.39243 7.4133C6.32366 7.36386 6.30666 7.26893 6.3555 7.19874C6.40534 7.13052 6.50107 7.11373 6.57184 7.16316C6.80907 7.32926 7.07417 7.44396 7.35725 7.50427C7.44097 7.52305 7.49482 7.60412 7.47588 7.68618C7.45993 7.75835 7.39516 7.80777 7.32439 7.80777ZM14.9406 6.96146C14.9087 6.96146 14.8758 6.95157 14.8479 6.9318C14.7791 6.88137 14.7651 6.78645 14.816 6.71724C14.9884 6.48786 15.11 6.22783 15.1768 5.94606C15.1967 5.86399 15.2805 5.81259 15.3632 5.83236C15.4469 5.85313 15.4978 5.93418 15.4778 6.01723C15.4011 6.33955 15.2615 6.63816 15.0641 6.90214C15.0342 6.94169 14.9874 6.96146 14.9406 6.96146ZM5.84916 6.77756C5.79733 6.77756 5.74653 6.75185 5.71763 6.70538C5.5412 6.42657 5.42556 6.12107 5.37074 5.7948C5.35678 5.71076 5.41361 5.63264 5.49734 5.6188C5.58107 5.60397 5.66082 5.66034 5.67577 5.74438C5.72362 6.02913 5.82528 6.29804 5.97978 6.54323C6.02563 6.61541 6.00269 6.71031 5.93092 6.75481C5.906 6.76964 5.87707 6.77756 5.84916 6.77756ZM15.3622 5.22034C15.2874 5.22034 15.2217 5.16697 15.2107 5.09084C15.1648 4.80412 15.0652 4.53519 14.9117 4.29395C14.8658 4.22177 14.8887 4.12686 14.9605 4.08138C15.0322 4.03689 15.1279 4.05962 15.1728 4.1308C15.3492 4.40665 15.4638 4.71514 15.5157 5.04437C15.5296 5.12841 15.4718 5.20553 15.3871 5.21937C15.3791 5.22036 15.3711 5.22034 15.3622 5.22034ZM5.54917 5.00976C5.53821 5.00976 5.52725 5.00878 5.51529 5.00581C5.43156 4.98604 5.3797 4.90496 5.39963 4.82191C5.47339 4.49663 5.61193 4.19705 5.81028 3.93604C5.86112 3.86782 5.95685 3.85396 6.02662 3.90439C6.0944 3.95481 6.10836 4.05072 6.05753 4.11894C5.88608 4.34733 5.76544 4.60737 5.70066 4.89113C5.68471 4.96132 5.62094 5.00976 5.54917 5.00976ZM14.4023 3.70863C14.3734 3.70863 14.3425 3.70071 14.3166 3.68292C14.0773 3.52275 13.8102 3.41497 13.5222 3.36257C13.4394 3.34774 13.3837 3.26766 13.3986 3.18362C13.4145 3.10057 13.4953 3.04521 13.579 3.06103C13.9089 3.12134 14.2149 3.24493 14.489 3.42883C14.5608 3.47728 14.5787 3.5722 14.5309 3.6424C14.502 3.68491 14.4531 3.70863 14.4023 3.70863ZM6.62866 3.58308C6.57384 3.58308 6.52099 3.55438 6.49208 3.50297C6.45122 3.42882 6.47911 3.33489 6.55487 3.29435C6.84592 3.13913 7.16392 3.0462 7.50082 3.02346C7.58654 3.01852 7.66026 3.08082 7.66624 3.16585C7.67222 3.24989 7.60745 3.32304 7.52272 3.32996C7.22968 3.35072 6.95458 3.42982 6.7024 3.56428C6.67847 3.57713 6.65358 3.58308 6.62866 3.58308ZM12.646 3.30721C12.5733 3.30721 12.5085 3.25483 12.4945 3.18265C12.4736 3.07291 12.4527 2.96415 12.4307 2.85836C12.3919 2.67644 12.331 2.50441 12.2503 2.34325C12.2124 2.26712 12.2433 2.17615 12.3201 2.13759C12.3958 2.10101 12.4896 2.13167 12.5264 2.20681C12.6181 2.39071 12.6879 2.58944 12.7318 2.79509C12.7547 2.90384 12.7776 3.01457 12.7975 3.12629C12.8135 3.21033 12.7577 3.28943 12.674 3.30525C12.665 3.30722 12.656 3.30721 12.646 3.30721ZM8.1387 3.00466C8.12674 3.00466 8.1158 3.00368 8.10384 3.00071C8.02111 2.98193 7.96825 2.89987 7.98819 2.81781C8.06195 2.4945 8.20054 2.19591 8.3989 1.93094C8.44973 1.86371 8.5464 1.8489 8.61517 1.90031C8.68295 1.95074 8.69789 2.04563 8.64705 2.11484C8.47461 2.34521 8.35403 2.60523 8.29024 2.88603C8.2733 2.95622 8.20847 3.00466 8.1387 3.00466ZM11.8157 1.71442C11.7819 1.71442 11.7469 1.70255 11.718 1.67981C11.4948 1.49888 11.2386 1.37037 10.9556 1.29918C10.8718 1.27842 10.823 1.19535 10.8439 1.11329C10.8649 1.03122 10.9496 0.981797 11.0323 1.00355C11.3582 1.0866 11.6543 1.23392 11.9124 1.44253C11.9782 1.49592 11.9882 1.59181 11.9344 1.65806C11.9055 1.69365 11.8606 1.71442 11.8157 1.71442ZM9.20724 1.56413C9.15441 1.56413 9.10358 1.53844 9.07467 1.48999C9.03082 1.41782 9.05476 1.32289 9.12852 1.27939C9.41458 1.1123 9.72557 1.00257 10.0525 0.954125C10.1372 0.940283 10.216 0.998591 10.2289 1.08263C10.2419 1.16568 10.182 1.24379 10.0983 1.25763C9.81125 1.29916 9.53718 1.39704 9.287 1.54337C9.26208 1.5582 9.23415 1.56413 9.20724 1.56413Z" fill="#333333"/>
<path d="M28.7616 32.9278C28.5871 32.1121 27.3292 32.4571 27.5027 33.2718C27.714 34.2615 27.7778 35.268 27.7977 36.2755C27.1508 35.5132 26.5379 34.7193 25.8601 33.9857C25.1982 33.2699 24.4188 32.5372 23.5187 32.0804C26.7252 29.2449 27.4239 23.7931 24.4945 20.5413C23.7648 19.7325 22.788 19.0375 21.7394 18.7053C20.8563 18.4255 19.9144 18.3978 18.9964 18.4601C19.0083 17.9499 18.9605 17.4407 18.8379 16.9573C18.6007 16.016 18.0874 15.1667 17.5152 14.3936C16.372 12.8482 14.6406 11.4344 12.7378 10.9608C12.5564 10.9163 12.379 10.8847 12.2016 10.8629C12.1039 10.7769 11.9772 10.7186 11.8188 10.7028C11.5945 10.682 11.3732 10.6711 11.151 10.6681C11.1599 10.591 11.1679 10.5159 11.1758 10.4417C11.2735 9.60331 11.2885 8.75403 11.2925 7.90869C11.2955 7.32338 11.2984 6.7252 11.2845 6.12407C11.8995 6.10528 12.5135 6.08553 13.1275 6.08454C13.9687 6.08059 13.9687 4.78737 13.1275 4.78935C12.4926 4.79033 11.8567 4.81209 11.2207 4.83186C11.1749 4.26632 11.1011 3.70573 10.9845 3.16195C10.8091 2.34627 9.55115 2.69231 9.72658 3.50601C9.81828 3.9351 9.87608 4.39186 9.91396 4.86248C9.19032 4.86941 8.46671 4.85557 7.74506 4.79031C6.90679 4.71418 6.91476 6.0074 7.74506 6.08551C8.48664 6.15274 9.23022 6.16561 9.9748 6.15572C9.98576 6.6649 9.98476 7.17012 9.98775 7.65558C9.99074 8.48608 9.9708 9.31659 9.90003 10.1441C9.88208 10.3547 9.85716 10.5633 9.82228 10.771C6.89282 11.2475 4.33416 13.3515 3.21082 16.1139C2.54798 17.7453 2.55495 19.5576 3.21879 21.184C3.99526 23.0833 5.80437 24.5554 7.68824 25.293C8.76573 25.7132 9.92495 25.8764 11.0782 25.8121C10.9885 27.7925 11.5846 29.8114 12.7856 31.4358C13.8342 32.8556 15.3912 33.8047 17.1335 34.0994C18.8738 34.394 20.7437 33.8898 22.2628 32.9891C23.4369 33.3045 24.347 34.2536 25.1414 35.1256C25.6906 35.7287 26.1949 36.3724 26.7162 37.0002C25.9358 36.9518 25.1554 36.9112 24.3779 36.8203C23.5436 36.7214 23.5536 38.0176 24.3779 38.1145C25.5959 38.2578 26.8239 38.2756 28.0429 38.3943C28.1545 38.4427 28.2702 38.4516 28.3798 38.4289C28.4047 38.4328 28.4306 38.4338 28.4555 38.4378C28.8094 38.4793 29.1075 38.1125 29.1075 37.7902C29.1115 36.1618 29.1034 34.5275 28.7616 32.9278ZM8.58132 24.2262C6.8689 23.7338 5.29504 22.4554 4.50561 20.8686C3.83679 19.522 3.90556 17.9737 4.42287 16.5934C5.19635 14.5241 6.99749 12.9323 9.08968 12.2847C8.92621 12.8581 9.84621 13.3377 10.3047 12.7632C11.3902 11.4028 13.4076 12.4695 14.4991 13.2407C15.9603 14.271 17.3946 15.9172 17.6657 17.7304C17.7106 18.03 17.7236 18.3276 17.7096 18.6232C16.1228 18.9228 14.5239 19.5971 13.3896 20.6906C13.2561 20.8191 13.1355 20.9536 13.0238 21.092C12.9002 21.1276 12.7826 21.2028 12.685 21.3283C11.9573 22.2765 11.4838 23.3581 11.2486 24.4842C10.3525 24.5554 9.44551 24.4754 8.58132 24.2262ZM13.6936 23.8901C13.6887 23.8268 13.6757 23.7605 13.6508 23.6923C13.0567 22.0609 15.0343 20.922 16.2693 20.4059C16.6391 20.2536 17.0358 20.1162 17.4464 20.0054C16.9989 21.3352 16.036 22.5118 14.8738 23.2682C14.501 23.5104 14.1033 23.717 13.6936 23.8901ZM22.5677 31.1837C22.3495 31.3785 22.1152 31.5574 21.869 31.7225C21.8132 31.7482 21.7624 31.7828 21.7165 31.8204C20.4885 32.5926 18.9685 32.9881 17.5441 32.8506C16.037 32.7063 14.7472 31.8323 13.8352 30.6696C12.7208 29.2468 12.2394 27.4138 12.3989 25.643C15.2715 25.0547 17.8711 23.0902 18.7173 20.2467C18.7662 20.0816 18.809 19.9115 18.8469 19.7395C19.8616 19.6327 20.8892 19.7177 21.7863 20.1014C23.8396 20.9833 25.0058 23.2415 25.0607 25.3731C25.1155 27.5433 24.1934 29.7283 22.5677 31.1837Z" fill="#333333"/>
</svg>
