<svg width="76" height="75" viewBox="0 0 76 75" fill="none" xmlns="http://www.w3.org/2000/svg">
<path d="M36.0623 75C33.987 75 32.1023 73.9737 30.9557 72.3445C27.5151 71.9833 24.4121 71.3302 21.7135 70.3962L18.9629 69.4451V64.2765C8.41323 59.4601 7.07387 50.7511 7.00596 47.0813C6.98199 45.7851 7.08587 44.507 7.31758 43.257C2.79428 41.1001 1.0016 37.8286 0.308471 35.2784C-0.794139 31.2213 1.20626 28.1234 3.97377 23.8366C4.9805 22.2776 6.22796 20.3454 7.59823 17.9888C12.4711 9.61189 22.031 7.89035 25.9161 7.53922C29.5035 5.28297 33.5615 4.09416 37.7022 4.09416C41.843 4.09416 45.9 5.28297 49.4864 7.53922C53.3735 7.89035 62.9314 9.61189 67.8043 17.9888C69.1756 20.3444 70.423 22.2766 71.4247 23.8296C74.1962 28.1234 76.1967 31.2213 75.0961 35.2784C74.404 37.8286 72.6092 41.1001 68.0849 43.257C68.3156 44.507 68.4205 45.7861 68.3975 47.0813C68.3306 50.7501 66.9904 59.4591 56.4417 64.2755V69.4441L53.6911 70.3962C50.9945 71.3302 47.8905 71.9833 44.4458 72.3445C43.3003 73.9737 41.4166 75 39.3392 75H36.0623Z" fill="#B24349"/>
<path d="M36.0623 70.9048C33.987 70.9048 32.1023 69.8785 30.9557 68.2493C27.5151 67.8881 24.4121 67.235 21.7135 66.302L18.9629 65.35V60.1814C8.41323 55.3649 7.07387 46.6559 7.00596 42.9871C6.98199 41.691 7.08587 40.4129 7.31758 39.1628C2.79428 37.0049 1.0016 33.7344 0.308471 31.1842C-0.794139 27.1272 1.20626 24.0292 3.97377 19.7414C4.9805 18.1824 6.22796 16.2502 7.59823 13.8946C12.4711 5.51773 22.031 3.7962 25.9161 3.44407C29.5035 1.18782 33.5615 0 37.7022 0C41.843 0 45.9 1.18882 49.4864 3.44407C53.3735 3.7952 62.9314 5.51673 67.8043 13.8946C69.1756 16.2502 70.423 18.1824 71.4247 19.7354C74.1962 24.0292 76.1967 27.1272 75.0961 31.1842C74.404 33.7344 72.6092 37.0049 68.0849 39.1628C68.3156 40.4129 68.4205 41.692 68.3975 42.9871C68.3306 46.6559 66.9904 55.3649 56.4417 60.1814V65.35L53.6911 66.302C50.9945 67.2361 47.8905 67.8891 44.4458 68.2503C43.3003 69.8795 41.4166 70.9058 39.3392 70.9058H36.0623V70.9048Z" fill="white"/>
<path d="M62.8315 16.813C60.3577 12.5614 55.8714 10.6683 52.4836 9.82357C53.9418 11.4337 55.2291 13.2987 56.2988 15.3935C58.6198 19.9371 60.2199 25.4177 61.0568 31.6908C61.5791 32.2165 62.5019 33.2559 63.3678 34.7707C66.8455 33.7886 68.8729 32.1122 69.538 29.6623C69.9445 28.1625 68.9898 26.5975 66.5968 22.8896C65.5611 21.2844 64.2717 19.289 62.8315 16.813Z" fill="#9E7147"/>
<path d="M58.8265 33.4405L58.4101 33.0873L58.3431 32.5436C57.5661 26.3878 56.0381 21.0496 53.8059 16.6776C50.3233 9.85768 44.3018 5.7866 37.7022 5.7866C31.1005 5.7866 25.0801 9.85768 21.5965 16.6776C21.0362 17.7731 20.5228 18.9328 20.0524 20.1467C18.6452 23.7784 17.6425 27.9308 17.0592 32.5436L16.9943 33.0873L16.5778 33.4405C16.449 33.5528 13.8762 35.8342 13.0312 39.9614C12.8475 40.8483 12.7467 41.8234 12.7667 42.8798C12.8126 45.5454 13.6595 49.3707 17.4107 52.4816C21.6304 55.9769 28.4558 57.7486 37.7012 57.7486C46.9465 57.7486 53.772 55.9769 57.9907 52.4816C61.7419 49.3707 62.5888 45.5454 62.6368 42.8798C62.7496 36.8574 58.8635 33.4736 58.8265 33.4405ZM25.176 32.8094C26.3575 32.8094 27.3143 33.7705 27.3143 34.9563C27.3143 36.1411 26.3575 37.1012 25.176 37.1012C23.9974 37.1012 23.0397 36.1401 23.0397 34.9563C23.0397 33.7715 23.9974 32.8094 25.176 32.8094ZM45.808 45.9637C45.6972 46.1573 44.6295 47.8618 41.3156 47.8618C39.468 47.8618 38.3483 47.1525 37.7022 46.4693C37.054 47.1525 35.9354 47.8618 34.0867 47.8618C30.7749 47.8618 29.7053 46.1573 29.5964 45.9637C29.3657 45.5594 29.5055 45.0437 29.908 44.813C30.3105 44.5813 30.8238 44.7197 31.0536 45.126C31.0715 45.1501 31.7577 46.1744 34.0867 46.1744C36.0073 46.1744 36.6884 45.126 36.8602 44.7859V42.1926C35.6168 41.7562 33.885 40.6195 34.1057 39.6544C34.3864 38.4365 41.017 38.4365 41.2956 39.6544C41.5174 40.6195 39.7846 41.7572 38.5431 42.1926V44.7899C38.7059 45.117 39.3891 46.1754 41.3147 46.1754C43.6447 46.1754 44.3309 45.1511 44.3578 45.1069C44.5895 44.7037 45.0979 44.5722 45.5014 44.804C45.9049 45.0357 46.0387 45.5604 45.808 45.9637ZM50.2264 37.1012C49.0469 37.1012 48.0901 36.1401 48.0901 34.9563C48.0901 33.7715 49.0469 32.8094 50.2264 32.8094C51.4069 32.8094 52.3627 33.7705 52.3627 34.9563C52.3627 36.1401 51.4069 37.1012 50.2264 37.1012Z" fill="#D3975E"/>
<path opacity="0.8" d="M61.5951 47.7685C60.8989 49.3676 59.7734 51.0049 57.9927 52.4806C53.773 55.9759 46.9485 57.7476 37.7032 57.7476C28.4578 57.7476 21.6315 55.9759 17.4129 52.4806C15.6311 51.0049 14.5055 49.3676 13.8094 47.7685C14.4695 48.6744 15.3135 49.5623 16.3732 50.3999C20.8096 53.8952 27.9834 55.6669 37.7032 55.6669C47.4219 55.6669 54.596 53.8952 59.0324 50.3999C60.093 49.5623 60.9339 48.6744 61.5951 47.7685Z" fill="#9E7147"/>
<path d="M19.1057 15.3935C20.1723 13.3037 21.4567 11.4428 22.9119 9.83359C19.5202 10.6833 15.0338 12.5804 12.5719 16.813C11.1317 19.288 9.84442 21.2844 8.80773 22.8885C6.41475 26.5965 5.45788 28.1615 5.86637 29.6613C6.53153 32.1112 8.55596 33.7866 12.0366 34.7697C12.9005 33.2549 13.8253 32.2165 14.3466 31.6898C15.1846 25.4177 16.7846 19.9371 19.1057 15.3935Z" fill="#9E7147"/>
<path d="M24.1623 61.612C26.6571 62.3935 29.5415 62.9172 32.7614 63.175V61.3251C32.7614 61 32.8104 60.687 32.8963 60.3901C29.5155 60.1413 26.6282 59.6296 24.1623 58.9254V61.612Z" fill="#AE6344"/>
<path d="M42.642 61.3251V63.175C45.863 62.9172 48.7493 62.3945 51.2421 61.612V58.9254C48.7743 59.6296 45.887 60.1413 42.5052 60.3901C42.5931 60.687 42.642 61 42.642 61.3251Z" fill="#AE6344"/>
<path d="M40.0303 60.5235C39.2773 60.5486 38.5012 60.5626 37.7022 60.5626C36.9022 60.5626 36.1272 60.5496 35.3721 60.5235C35.1474 60.7191 35.0016 61.004 35.0016 61.3251V64.6166C35.0016 65.2035 35.479 65.6831 36.0633 65.6831H39.3402C39.9254 65.6831 40.4018 65.2045 40.4018 64.6166V61.3251C40.4008 61.004 40.256 60.7181 40.0303 60.5235Z" fill="#FFCF01"/>
<path d="M32.9712 31.7681C32.9712 38.2238 27.7608 43.4586 21.3339 43.4586C18.082 43.4586 15.1436 42.1193 13.0313 39.9614C13.8762 35.8341 16.449 33.5528 16.5779 33.4405L16.9943 33.0873L17.0593 32.5436C17.6426 27.9307 18.6452 23.7784 20.0525 20.1467C20.4729 20.1006 20.9004 20.0775 21.3328 20.0775C27.7607 20.0775 32.9712 25.3103 32.9712 31.7681Z" fill="#F9EEEE"/>
<path d="M25.176 37.1012C26.3559 37.1012 27.3124 36.1405 27.3124 34.9553C27.3124 33.7702 26.3559 32.8094 25.176 32.8094C23.9962 32.8094 23.0398 33.7702 23.0398 34.9553C23.0398 36.1405 23.9962 37.1012 25.176 37.1012Z" fill="#5B161A"/>
<path d="M50.2265 37.1012C51.4063 37.1012 52.3628 36.1405 52.3628 34.9553C52.3628 33.7702 51.4063 32.8094 50.2265 32.8094C49.0466 32.8094 48.0901 33.7702 48.0901 34.9553C48.0901 36.1405 49.0466 37.1012 50.2265 37.1012Z" fill="#5B161A"/>
<path d="M45.5025 44.804C45.1 44.5722 44.5926 44.7026 44.3609 45.1069C44.3339 45.1501 43.6458 46.1734 41.3157 46.1734C39.3882 46.1734 38.7071 45.117 38.5423 44.7889V42.1926C39.7857 41.7572 41.5174 40.6185 41.2977 39.6544C41.0181 38.4355 34.3875 38.4355 34.1068 39.6544C33.8851 40.6175 35.6189 41.7572 36.8624 42.1926V44.7869C36.6896 45.127 36.0075 46.1744 34.0889 46.1744C31.7588 46.1744 31.0716 45.1511 31.0546 45.126C30.8249 44.7217 30.3116 44.5823 29.9091 44.814C29.5066 45.0457 29.3668 45.5614 29.5975 45.9657C29.7084 46.1603 30.7761 47.8628 34.0889 47.8628C35.9376 47.8628 37.0551 47.1535 37.7032 46.4713C38.3494 47.1535 39.47 47.8628 41.3167 47.8628C44.6295 47.8628 45.6982 46.1603 45.8091 45.9657C46.0388 45.5604 45.905 45.0357 45.5025 44.804Z" fill="#5B161A"/>
<path d="M65.2505 15.3935C60.6513 7.48606 50.7268 6.47782 48.5106 6.35141C45.2867 4.16438 41.5863 2.97155 37.7022 2.97155C33.8151 2.97155 30.1148 4.16438 26.8929 6.35141C24.6767 6.47782 14.7542 7.48505 10.153 15.3935C8.74577 17.8122 7.47542 19.7786 6.45771 21.3576C3.848 25.4006 2.40974 27.6278 3.16279 30.4017C4.06565 33.7284 6.65344 36.0589 10.8541 37.352C10.2988 38.9271 9.92532 40.7921 9.96427 42.932C10.0352 46.7833 11.5872 54.3446 21.9222 58.191V63.2292L22.6772 63.491C25.5876 64.4973 29.0153 65.1473 32.8674 65.4373C33.2329 66.8699 34.5253 67.9323 36.0623 67.9323H39.3392C40.8773 67.9323 42.1686 66.8689 42.5342 65.4373C46.3903 65.1473 49.8201 64.4973 52.7264 63.491L53.4834 63.2292V58.191C63.8163 54.3436 65.3664 46.7833 65.4383 42.932C65.4782 40.7921 65.1027 38.9271 64.5474 37.352C68.7481 36.0589 71.3359 33.7284 72.2388 30.4017C72.9918 27.6268 71.5536 25.4006 68.9459 21.3576C67.9272 19.7786 66.6577 17.8122 65.2505 15.3935ZM5.86641 29.6613C5.45893 28.1615 6.41479 26.5965 8.80777 22.8885C9.84346 21.2844 11.1308 19.288 12.5719 16.813C15.0338 12.5804 19.5192 10.6833 22.9119 9.8336C21.4568 11.4418 20.1734 13.3027 19.1057 15.3935C16.7846 19.9371 15.1846 25.4177 14.3467 31.6908C13.8253 32.2165 12.9005 33.2559 12.0366 34.7707C8.556 33.7876 6.53157 32.1112 5.86641 29.6613ZM32.7625 61.3251V63.175C29.5416 62.9172 26.6583 62.3935 24.1634 61.612V58.9253C26.6293 59.6296 29.5167 60.1413 32.8974 60.3901C32.8115 60.687 32.7625 61 32.7625 61.3251ZM40.4009 64.6166C40.4009 65.2035 39.9245 65.6831 39.3392 65.6831H36.0623C35.4781 65.6831 35.0007 65.2045 35.0007 64.6166V61.3251C35.0007 61.004 35.1465 60.7191 35.3712 60.5235C36.1262 60.5486 36.9013 60.5626 37.7013 60.5626C38.5003 60.5626 39.2763 60.5496 40.0294 60.5235C40.2551 60.7191 40.3999 61.004 40.3999 61.3251V64.6166H40.4009ZM51.2432 61.612C48.7503 62.3945 45.863 62.9172 42.643 63.175V61.3251C42.643 61 42.5941 60.687 42.5062 60.3901C45.888 60.1413 48.7753 59.6296 51.2432 58.9253V61.612ZM57.9907 52.4806C53.7721 55.9759 46.9456 57.7476 37.7022 57.7476C28.4559 57.7476 21.6296 55.9749 17.4119 52.4806C13.6606 49.3716 12.8146 45.5433 12.7657 42.8808C12.6568 36.9136 16.4221 33.5769 16.5779 33.4415L16.9924 33.0873L17.0613 32.5456C17.8373 26.3888 19.3644 21.0506 21.5966 16.6786C25.0802 9.85767 31.1026 5.78659 37.7022 5.78659C44.3019 5.78659 50.3233 9.85767 53.806 16.6786C56.0401 21.0506 57.5662 26.3888 58.3432 32.5456L58.4101 33.0873L58.8247 33.4415C58.8646 33.4756 62.7477 36.8584 62.6378 42.8808C62.5899 45.5433 61.743 49.3706 57.9907 52.4806ZM69.5381 29.6613C68.8729 32.1112 66.8465 33.7866 63.3679 34.7697C62.502 33.2549 61.5792 32.2165 61.0568 31.6898C60.2199 25.4177 58.6209 19.9361 56.2988 15.3925C55.2291 13.2977 53.9418 11.4337 52.4837 9.82256C55.8724 10.6673 60.3587 12.5604 62.8316 16.812C64.2717 19.287 65.5601 21.2834 66.5968 22.8875C68.9898 26.5975 69.9446 28.1615 69.5381 29.6613Z" fill="#5B161A"/>
</svg>
