<svg width="54" height="44" viewBox="0 0 54 44" fill="none" xmlns="http://www.w3.org/2000/svg">
<path d="M32.1698 42.8705L32.1892 42.8654C40.2845 40.6276 45.4151 36.7005 47.686 33.0287C47.6941 33.0348 47.7033 33.041 47.7105 33.0461C48.3758 33.4664 49.1945 33.5935 49.9559 33.3957C50.66 33.2112 51.263 32.7714 51.6677 32.1307C52.2993 31.1087 52.2104 29.8345 51.5389 28.917C52.5517 28.6505 53.3377 27.854 53.584 26.8587C53.7761 26.1134 53.6678 25.3416 53.2784 24.6794C52.889 24.0172 52.2656 23.5487 51.5216 23.358C51.2058 23.2781 50.8869 23.2053 50.5639 23.1407C51.3325 22.5779 51.7985 21.6472 51.7423 20.6405C51.6442 19.0629 50.2849 17.8574 48.7131 17.9527C47.8853 18.004 47.04 18.1208 46.1887 18.3033C46.111 18.1495 46.0323 17.9948 45.9516 17.842C49.2251 10.0237 44.8805 3.64355 44.6822 3.36062C44.0098 2.39602 42.8661 1.87114 41.6969 1.99005C40.7679 2.08538 39.8573 2.24739 38.9917 2.47393C35.2777 3.44264 32.7861 5.41796 31.1815 7.25081C27.7046 6.94226 24.7213 7.57477 23.4918 7.89562C23.3232 7.9397 23.1924 7.97552 23.1035 8.00217C23.0135 8.02165 22.8817 8.05447 22.7131 8.09752C21.4836 8.41838 18.5719 9.32456 15.6837 11.2927C13.3934 10.4737 10.2558 9.96525 6.54281 10.9319C5.67614 11.1585 4.80335 11.4608 3.94486 11.8329C2.86664 12.2993 2.12259 13.3152 2.00301 14.4879C1.96827 14.8324 1.27028 22.5267 7.92562 27.7556C7.92971 27.9278 7.93481 28.1021 7.94196 28.2764C7.11107 28.5306 6.3149 28.8412 5.56883 29.201C4.14721 29.8858 3.5463 31.6028 4.23411 33.0431C4.66847 33.939 5.52694 34.5222 6.47026 34.6371C6.21987 34.8513 5.9766 35.0696 5.7395 35.2962C5.18352 35.8251 4.86669 36.5396 4.84829 37.3074C4.82785 38.0752 5.10997 38.804 5.62098 39.3402C6.33638 40.1069 7.4095 40.4196 8.42334 40.1572C8.28332 41.2878 8.82802 42.4462 9.89398 43.0407C10.5348 43.3903 11.2757 43.4815 11.9809 43.297C12.7423 43.0991 13.3954 42.5876 13.7674 41.9039C13.7736 41.8916 13.7807 41.8824 13.7868 41.868C17.553 43.9664 23.9405 44.89 32.0972 42.8911L32.1698 42.8705Z" fill="#10181E"/>
<path d="M49.5552 21.3846C49.2384 21.3047 48.9205 21.2319 48.5976 21.1663C49.3661 20.6056 49.8322 19.6727 49.776 18.6661C49.6779 17.0885 48.3186 15.883 46.7467 15.9793C45.9189 16.0296 45.0727 16.1474 44.2223 16.3299C44.1447 16.1761 44.065 16.0214 43.9842 15.8697C47.2577 8.04927 42.9131 1.67016 42.7159 1.38724C42.0434 0.421608 40.8998 -0.102249 39.7306 0.0166612C38.8016 0.111994 37.891 0.274968 37.0253 0.500487C33.3114 1.46817 30.8197 3.44455 29.2152 5.27843C25.7383 4.96988 22.755 5.60132 21.5255 5.92218C21.3558 5.96625 21.2261 6.00316 21.1372 6.02879C21.0472 6.04929 20.9154 6.08109 20.7457 6.12414C19.5162 6.44499 16.6055 7.35017 13.7163 9.31834C11.426 8.4993 8.28943 7.99082 4.57646 8.95952C3.70979 9.18402 2.837 9.48746 1.97851 9.85854C0.899269 10.325 0.156242 11.3418 0.0366664 12.5145C0.00191795 12.8579 -0.69611 20.5522 5.95821 25.7822C5.9623 25.9545 5.96846 26.1277 5.97561 26.302C5.14472 26.5572 4.34857 26.8688 3.60148 27.2276C2.18089 27.9123 1.57995 29.6294 2.26776 31.0697C2.70212 31.9656 3.55958 32.5478 4.50391 32.6637C4.25352 32.8779 4.01028 33.0973 3.77215 33.3228C3.2172 33.8507 2.9004 34.5652 2.88201 35.334C2.86157 36.1018 3.1426 36.8306 3.65463 37.3678C4.37004 38.1335 5.44315 38.4472 6.45699 38.1848C6.31697 39.3144 6.86167 40.4728 7.92763 41.0683C8.56843 41.4169 9.30938 41.5071 10.0146 41.3225C10.776 41.1247 11.4291 40.6143 11.8011 39.9295C11.8072 39.9193 11.8133 39.908 11.8205 39.8957C15.5856 41.994 21.9742 42.9166 30.1309 40.9166L30.2034 40.8982L30.2218 40.892C38.3182 38.6553 43.4487 34.7282 45.7196 31.0563C45.7278 31.0615 45.737 31.0676 45.7441 31.0737C46.4095 31.494 47.2281 31.6222 47.9895 31.4223C48.6937 31.2388 49.2967 30.798 49.7014 30.1573C50.333 29.1363 50.2441 27.8621 49.5726 26.9437C50.5844 26.6771 51.3713 25.8817 51.6176 24.8863C51.8098 24.1421 51.7015 23.3682 51.3111 22.707C50.9206 22.0437 50.2982 21.5763 49.5552 21.3846Z" fill="white"/>
<path d="M40.0608 3.25084C34.7361 3.79618 31.9317 6.78635 30.6399 8.75862C26.1031 7.86577 21.9537 9.17687 21.9537 9.17687C21.9537 9.17687 17.692 10.0574 14.164 13.0527C12.0791 11.963 8.17702 10.7196 3.26217 12.8446C3.26217 12.8446 2.53249 19.9485 9.21952 24.1021C8.98241 29.1907 10.4203 34.1798 11.7306 35.7492C13.6397 38.0382 19.873 40.0812 29.3593 37.7532C38.7761 35.1515 43.227 30.3244 43.784 27.3937C44.1652 25.3815 42.9991 20.3226 40.3214 15.9937C44.1458 9.09893 40.0608 3.25084 40.0608 3.25084Z" fill="#EDB166"/>
<path d="M29.3592 37.7552C36.918 35.6682 41.2749 32.146 42.9888 29.3209C40.8446 29.2481 37.8664 28.4618 36.0381 26.6997C33.2367 24.0027 28.513 23.5219 25.4041 24.2005C22.2941 24.8791 18.111 29.5279 17.462 32.596C17.0501 34.5446 14.6556 36.0003 12.9621 36.8029C15.699 38.5773 21.3763 39.7132 29.3592 37.7552Z" fill="#F4CA9E"/>
<path d="M23.9968 13.3643C24.2737 13.1224 24.2676 12.698 24.24 12.3311C24.15 11.1297 24.0601 9.92826 23.9702 8.72686C22.7264 8.9329 21.9527 9.1769 21.9527 9.1769C21.9527 9.1769 21.7738 9.21477 21.4642 9.29678C21.7422 10.4459 21.9343 11.6258 22.4882 12.6632C22.6385 12.9461 22.8255 13.2239 23.0994 13.3889C23.3744 13.554 23.7556 13.5755 23.9968 13.3643Z" fill="#E28E31"/>
<path d="M17.9689 10.6131C18.2939 11.508 18.6363 12.3988 18.9858 13.2855C19.1728 13.7601 19.5122 14.3269 20.0129 14.2429C20.339 14.1906 20.5556 13.8523 20.5904 13.5222C20.6241 13.1922 20.5209 12.8652 20.4299 12.5474C20.1755 11.6392 20.0364 10.7012 20.0058 9.75813C19.4099 9.97135 18.715 10.2523 17.9689 10.6131Z" fill="#E28E31"/>
<path d="M27.6351 12.0318C27.7506 11.8442 27.7516 11.6104 27.7455 11.389C27.7179 10.4029 27.6167 9.42189 27.4522 8.44909C26.6897 8.44294 25.9723 8.48294 25.3213 8.54957C25.3274 8.5711 25.3335 8.59158 25.3387 8.61414C25.5165 9.3563 25.6933 10.0964 25.8711 10.8376C25.9774 11.2845 26.1011 11.7581 26.4363 12.0707C26.7726 12.3824 27.396 12.4213 27.6351 12.0318Z" fill="#E28E31"/>
<path d="M10.1536 20.6394C10.1536 20.6394 12.1905 17.2423 12.166 15.9947C12.1404 14.7452 6.67677 13.6606 6.14225 14.8159C5.60774 15.9711 7.98595 20.5471 10.1536 20.6394Z" fill="#E28E31"/>
<path d="M37.7132 13.4535C37.7132 13.4535 34.2844 11.4812 33.6998 10.3782C33.1172 9.27623 37.3606 5.65967 38.3887 6.40798C39.4169 7.1563 39.562 12.3146 37.7132 13.4535Z" fill="#E28E31"/>
<path d="M12.2089 26.8226C12.3571 26.388 12.3152 25.859 11.9922 25.534C10.9845 25.6642 10.0841 26.1583 9.24301 26.7518C9.3074 27.8487 9.44022 28.9107 9.62009 29.9061C10.2497 29.2767 10.867 28.6319 11.4546 27.9625C11.7561 27.6191 12.0607 27.2572 12.2089 26.8226Z" fill="#E28E31"/>
<path d="M16.161 33.415C16.3951 32.9424 16.254 32.2382 15.7491 32.0875C15.4487 31.9952 15.1288 32.1254 14.8549 32.2802C13.5273 33.0275 12.6136 34.3929 11.4046 35.2848C11.5129 35.46 11.6222 35.622 11.7306 35.7511C11.9646 36.032 12.2651 36.3109 12.6289 36.5774C13.3474 35.7963 14.1487 35.092 15.0215 34.4893C15.4548 34.1879 15.926 33.8896 16.161 33.415Z" fill="#E28E31"/>
<path d="M10.498 33.3126C10.732 32.9846 11.0141 32.6842 11.3085 32.4054C11.9432 31.8026 14.6045 30.3952 14.2948 29.3507C13.8196 27.7443 11.5241 29.7309 10.9885 30.2281C10.6104 30.5797 10.3335 31.0277 9.96454 31.3916C9.95636 31.3988 9.94612 31.407 9.93896 31.4142C10.1066 32.103 10.2956 32.7427 10.498 33.3126Z" fill="#E28E31"/>
<path d="M38.5962 18.5994C38.4705 19.0413 38.6922 19.522 39.0326 19.8296C39.3729 20.1381 39.8134 20.3052 40.2457 20.4569C41.0838 20.7542 41.9351 21.0156 42.7916 21.2575C42.4655 20.3011 42.0649 19.3098 41.5887 18.3165C40.5656 18.213 39.5395 18.2191 38.5962 18.5994Z" fill="#E28E31"/>
<path d="M43.784 27.3947C43.8156 27.2286 43.833 27.0329 43.8432 26.8279C42.3541 26.6392 40.8927 25.8929 39.3699 25.8868C39.0561 25.8868 38.7137 25.9309 38.4961 26.1554C38.1292 26.5357 38.3468 27.2204 38.7812 27.5187C39.2166 27.817 39.7725 27.8468 40.2968 27.8981C41.3515 27.9995 42.394 28.221 43.3996 28.5521C43.5887 28.1441 43.7165 27.7555 43.784 27.3947Z" fill="#E28E31"/>
<path d="M41.7512 22.2079C41.0429 22.0347 38.0719 21.4196 38.4378 23.0577C38.6739 24.1207 41.6827 24.051 42.5299 24.2673C42.9213 24.3667 43.3138 24.4898 43.6777 24.663C43.5765 24.0654 43.4314 23.4145 43.2443 22.7307C43.2331 22.7276 43.2219 22.7266 43.2116 22.7235C42.7119 22.5882 42.252 22.3299 41.7512 22.2079Z" fill="#E28E31"/>
<path d="M29.5033 38.3108C29.5002 38.3108 29.4972 38.3119 29.4941 38.3119C20.155 40.6039 13.5109 38.7823 11.2901 36.1191C9.85719 34.4001 8.47437 29.3341 8.63279 24.4106C2.02139 20.0909 2.68367 12.8589 2.69184 12.7841C2.7133 12.5791 2.84414 12.3997 3.03424 12.3166C3.76702 11.9989 4.51102 11.7416 5.24687 11.5509C9.03854 10.5617 12.0964 11.4064 14.0852 12.373C16.9479 10.0553 20.1447 9.04764 21.4161 8.71552C21.6174 8.66426 21.7523 8.63247 21.8075 8.62016C21.8627 8.60376 21.9956 8.56586 22.1959 8.51255C23.4673 8.18247 26.75 7.49975 30.3741 8.12608C31.6424 6.31167 33.9041 4.08005 37.6958 3.09186C38.4316 2.89915 39.2073 2.76076 40.0004 2.6808C40.2068 2.65927 40.4082 2.75053 40.5277 2.92275C40.5696 2.98323 44.6587 8.97692 40.9815 15.9762C43.511 20.1986 44.7629 25.3004 44.3449 27.5003C43.698 30.9107 38.7801 35.747 29.5094 38.3077C29.5084 38.3098 29.5054 38.3098 29.5033 38.3108ZM3.81098 13.2382C3.76294 14.6559 3.96017 20.1616 9.52093 23.6151C9.69774 23.7258 9.79996 23.9227 9.79178 24.1318C9.55365 29.2531 11.0468 34.0362 12.17 35.3842C13.8389 37.3841 19.7554 39.5184 29.2161 37.1996C38.6053 34.6041 42.7363 29.8497 43.2228 27.287C43.5499 25.5618 42.5319 20.6557 39.8369 16.2981C39.7286 16.1207 39.7224 15.8963 39.8236 15.7148C42.9704 10.041 40.4807 5.07542 39.7673 3.86274C39.1541 3.93962 38.5553 4.0544 37.986 4.20304C36.6257 4.55875 35.3247 5.13284 34.1678 5.93651C33.1662 6.63254 32.2147 7.00872 32.9148 8.38029C33.1795 8.89898 33.572 9.33772 33.8939 9.82156C34.2557 10.3638 34.5275 10.9605 34.7994 11.553C31.7405 8.45002 26.4127 8.59969 22.4852 9.62273C22.2593 9.68218 22.1336 9.72114 22.1254 9.72421C22.107 9.72934 22.0876 9.73546 22.0692 9.73854C22.061 9.74161 21.9322 9.76722 21.7064 9.8277C18.6342 10.6283 15.3127 12.2305 13.381 14.8271C13.054 15.2678 12.772 15.7384 12.4909 16.2099C12.1741 16.7399 11.8583 17.2699 11.5404 17.8029C11.3759 16.8557 11.6028 15.8932 11.6948 14.9388C11.7561 14.3094 11.8368 13.2115 11.3779 12.6939C11.0437 12.3146 10.4704 12.3873 10.0033 12.3453C8.48869 12.2069 7.01493 12.2777 5.53506 12.6641C4.96376 12.8107 4.38433 13.0045 3.81098 13.2382Z" fill="#BD6C29"/>
<path d="M31.4278 29.7011C31.389 29.7113 31.3502 29.7216 31.3103 29.7308C29.347 30.187 27.8651 29.37 26.9453 28.4392C26.5937 29.7021 25.6964 31.1393 23.7597 31.699C23.7209 31.7102 23.682 31.7205 23.6432 31.7307C21.3958 32.3171 19.9986 30.8236 19.5694 29.9348C19.4314 29.6509 19.55 29.3085 19.8351 29.168C20.1162 29.0317 20.4617 29.1486 20.5996 29.4346C20.6855 29.6078 21.4939 31.1065 23.356 30.6196C23.3846 30.6114 23.4142 30.6032 23.4439 30.596C26.0827 29.8333 25.9928 27.0922 25.9877 26.9764C25.9764 26.7058 26.1543 26.4618 26.4159 26.3941C26.4169 26.3941 26.4169 26.3941 26.418 26.3941C26.6796 26.3265 26.9524 26.4526 27.0741 26.6945C27.1252 26.797 28.3772 29.2357 31.0538 28.6135C31.0835 28.6063 31.1131 28.5981 31.1417 28.5909C33.059 28.0907 32.9792 26.2875 32.9751 26.2106C32.9567 25.8939 33.199 25.6243 33.5127 25.6049C33.8295 25.5864 34.0984 25.8294 34.1178 26.1441C34.172 27.1282 33.6763 29.1168 31.4278 29.7011Z" fill="#3B3432"/>
<path d="M17.8586 24.009C19.4204 24.009 20.6864 22.739 20.6864 21.1725C20.6864 19.606 19.4204 18.3361 17.8586 18.3361C16.2968 18.3361 15.0306 19.606 15.0306 21.1725C15.0306 22.739 16.2968 24.009 17.8586 24.009Z" fill="#3B3432"/>
<path d="M18.1365 21.7936C18.6124 21.7936 18.9981 21.4067 18.9981 20.9294C18.9981 20.4521 18.6124 20.0652 18.1365 20.0652C17.6607 20.0652 17.275 20.4521 17.275 20.9294C17.275 21.4067 17.6607 21.7936 18.1365 21.7936Z" fill="white"/>
<path d="M19.7963 22.3933C20.0633 22.3933 20.2797 22.1763 20.2797 21.9085C20.2797 21.6407 20.0633 21.4236 19.7963 21.4236C19.5293 21.4236 19.3129 21.6407 19.3129 21.9085C19.3129 22.1763 19.5293 22.3933 19.7963 22.3933Z" fill="white"/>
<path d="M31.3532 20.4917C32.915 20.4917 34.1811 19.2218 34.1811 17.6553C34.1811 16.0888 32.915 14.8189 31.3532 14.8189C29.7914 14.8189 28.5253 16.0888 28.5253 17.6553C28.5253 19.2218 29.7914 20.4917 31.3532 20.4917Z" fill="#3B3432"/>
<path d="M31.6312 18.2755C32.107 18.2755 32.4927 17.8886 32.4927 17.4113C32.4927 16.9341 32.107 16.5472 31.6312 16.5472C31.1553 16.5472 30.7696 16.9341 30.7696 17.4113C30.7696 17.8886 31.1553 18.2755 31.6312 18.2755Z" fill="white"/>
<path d="M33.2909 18.8742C33.5579 18.8742 33.7744 18.6572 33.7744 18.3894C33.7744 18.1216 33.5579 17.9045 33.2909 17.9045C33.0239 17.9045 32.8075 18.1216 32.8075 18.3894C32.8075 18.6572 33.0239 18.8742 33.2909 18.8742Z" fill="white"/>
<path d="M27.4982 23.7854C26.3168 23.4419 25.0689 23.7669 24.2032 24.6444C23.8057 25.0472 23.5419 25.5249 23.7637 25.9975C24.055 26.6177 24.8543 27.0297 25.5502 27.2809C26.2922 27.5484 27.0822 27.3424 27.6004 26.7448C28.0869 26.1882 28.5846 25.4378 28.5376 24.7551C28.5018 24.2302 28.0399 23.9412 27.4982 23.7854Z" fill="#3B3432"/>
<path d="M16.7609 28.8821C16.7322 28.8903 16.6996 28.8903 16.6689 28.8832C16.6045 28.8678 10.2496 27.4163 4.92289 29.9862C4.8258 30.0323 4.71444 29.9933 4.66845 29.8969C4.62246 29.8026 4.66229 29.6868 4.75734 29.6407C10.2118 27.0123 16.6924 28.4956 16.7568 28.509C16.86 28.5336 16.9224 28.6371 16.8988 28.7396C16.8815 28.8124 16.8263 28.8657 16.7609 28.8821Z" fill="#3B3432"/>
<path d="M5.7886 35.5892C5.72422 35.6067 5.65161 35.5872 5.60153 35.5359C5.52897 35.4591 5.53307 35.3391 5.6087 35.2643C10.7024 30.4228 17.7328 30.2003 17.8034 30.1973C17.9096 30.1952 17.9965 30.2793 17.9985 30.3838C18.0006 30.4905 17.9219 30.5765 17.8115 30.5796C17.7431 30.5817 10.8537 30.8061 5.87032 35.5431C5.84784 35.5656 5.81926 35.581 5.7886 35.5892Z" fill="#3B3432"/>
<path d="M9.34105 38.7291C9.29608 38.7414 9.24604 38.7363 9.20107 38.7127C9.10909 38.6604 9.07537 38.5446 9.12647 38.4513C11.7408 33.6908 17.0021 32.1614 17.0552 32.1481C17.1533 32.1122 17.2617 32.1778 17.2903 32.2803C17.3179 32.3828 17.2596 32.4863 17.1585 32.515C17.1063 32.5304 11.9952 34.0198 9.46063 38.6368C9.43406 38.685 9.39113 38.7168 9.34105 38.7291Z" fill="#3B3432"/>
<path d="M36.0555 23.852C36.0851 23.8448 36.1137 23.8294 36.1362 23.8089C36.1853 23.7638 41.0317 19.3918 46.9317 19.0361C47.038 19.0279 47.1168 18.9377 47.1106 18.8321C47.1045 18.7275 47.0135 18.6466 46.9093 18.6527C40.8682 19.0197 35.9288 23.4809 35.8797 23.526C35.8021 23.5967 35.7959 23.7177 35.8664 23.7966C35.9165 23.8499 35.9891 23.8694 36.0555 23.852Z" fill="#3B3432"/>
<path d="M48.895 24.3513C48.9594 24.3328 49.0135 24.2836 49.0319 24.2129C49.0575 24.1104 48.9972 24.0058 48.894 23.9802C42.0946 22.2396 35.8449 25.4768 35.7836 25.5096C35.6896 25.5599 35.6548 25.6736 35.7039 25.768C35.753 25.8602 35.8633 25.8981 35.9614 25.8479C36.0227 25.8161 42.1477 22.6466 48.801 24.3503C48.8327 24.3595 48.8654 24.3595 48.895 24.3513Z" fill="#3B3432"/>
<path d="M47.316 28.8277C47.362 28.8175 47.4029 28.7877 47.4305 28.7436C47.4857 28.6545 47.4581 28.5376 47.3692 28.4812C42.7742 25.5987 37.4352 26.834 37.3831 26.8463C37.2799 26.8616 37.2185 26.9733 37.241 27.0769C37.2655 27.1804 37.3688 27.243 37.472 27.2204C37.5241 27.2061 42.7119 26.0108 47.1668 28.8062C47.2149 28.8339 47.267 28.8411 47.316 28.8277Z" fill="#3B3432"/>
</svg>
