<svg width="33" height="51" viewBox="0 0 33 51" fill="none" xmlns="http://www.w3.org/2000/svg">
<path d="M26.5434 36.9726C26.627 36.5941 26.7085 36.0852 26.5883 35.4983C26.3692 34.4207 25.6113 33.8095 25.3638 33.6092C25.2496 33.5171 25.1314 33.426 25.0092 33.336C25.0459 33.2125 25.0714 33.087 25.0856 32.9606C26.2287 32.6388 27.2372 31.9072 27.8831 30.9025C28.2641 30.3105 28.3395 29.5729 28.0859 28.9152C28.6391 28.73 29.1484 28.4396 29.5722 28.0541C30.2161 27.4702 30.5716 26.763 30.809 26.2945C31.1564 25.6064 31.1156 24.7747 30.7051 24.1261C30.5278 23.8448 30.2894 23.61 30.0123 23.436C31.3184 22.7752 32.273 21.5408 32.5776 20.1141C32.7263 19.4068 32.5195 18.6691 32.0183 18.1379C31.5211 17.6138 30.7947 17.3608 30.0775 17.464C30.0001 17.4751 29.9227 17.4731 29.8453 17.459C29.7719 17.4458 29.6506 17.4114 29.5284 17.377C29.5039 17.3699 29.4775 17.3618 29.451 17.3558C29.5967 16.9743 29.7026 16.5756 29.7658 16.1668C29.9155 15.1873 29.8208 14.1441 29.4897 13.1505C29.3053 12.601 29.0629 12.1174 28.746 11.6732C28.7206 11.6378 28.6879 11.5943 28.6502 11.5457C28.6105 11.4121 28.5586 11.2826 28.4954 11.1581C28.2285 10.6401 27.7568 10.2414 27.2015 10.0613C26.6361 9.87815 26.0331 9.9247 25.5023 10.1908C24.9715 10.4579 24.5763 10.9143 24.3898 11.4769C24.3053 11.7339 24.0933 12.0607 23.8682 12.4068C23.7734 12.5535 23.6746 12.7063 23.5748 12.8702C23.3506 12.4685 23.0033 12.1386 22.5754 11.9373C21.9754 11.657 21.3549 11.3818 20.7039 11.1774C21.1603 10.9507 21.5689 10.6876 21.9417 10.38C22.7567 9.70714 23.3018 8.86832 23.6084 7.81498C23.7867 7.2018 23.8549 6.61188 23.9161 6.09078C23.9711 5.61824 24.022 5.17302 24.1443 4.86137C24.5895 3.72405 24.0189 2.43697 22.8718 1.99479C22.1454 1.7145 21.36 1.83998 20.7681 2.25888C20.6835 2.27811 20.6112 2.29531 20.5562 2.31049C19.9918 2.46328 19.4621 2.70005 18.9333 3.03093C17.9747 3.63298 17.178 4.43639 16.6309 5.35111C16.3548 5.81454 16.1419 6.30833 15.9942 6.81628C15.8709 6.75861 15.7558 6.70902 15.6499 6.66349C15.5184 6.60683 15.384 6.54915 15.2994 6.50361C15.1986 6.44897 15.1079 6.37815 15.0345 6.29821C14.5435 5.76092 13.8171 5.49682 13.0918 5.59295C12.3705 5.68806 11.7409 6.1272 11.4047 6.76872C10.6671 8.18127 10.6314 9.88523 11.3099 11.3261C11.368 11.4496 11.4302 11.569 11.4974 11.6863C11.0267 11.5163 10.5031 11.5022 10.0202 11.6651C9.28567 11.9089 8.72539 12.5272 8.55424 13.278C8.42078 13.8618 8.23843 14.6622 8.37087 15.5698C8.4707 16.2559 8.74675 16.9146 9.16037 17.4924C9.09415 17.5197 9.02893 17.551 8.96475 17.5844C8.32191 17.9254 7.8869 18.5578 7.8003 19.2763C7.64239 20.5947 8.01428 21.9324 8.80687 22.9847C8.63368 23.2103 8.50327 23.4694 8.42789 23.7507C8.24757 24.4215 8.39832 25.147 8.82926 25.6904C8.84148 25.7066 8.85372 25.7218 8.86594 25.7379C8.46455 25.6155 8.01326 25.5336 7.52833 25.5639C6.48104 25.6287 5.04662 26.2115 4.17253 28.6035L4.10227 28.7927C3.73551 29.7722 3.06209 31.5632 4.00241 33.0122C3.98814 33.0567 3.97488 33.1002 3.96062 33.1447C3.84856 33.4938 3.74158 33.8419 3.63461 34.1991L3.58779 34.3559C3.52157 34.5775 3.45736 34.7981 3.39522 35.0187C3.33715 35.219 3.28215 35.4194 3.22205 35.6319C2.77175 37.2599 2.37442 38.9082 2.0423 40.5302C2.03925 40.5434 2.03621 40.5525 2.03621 40.5535C1.99036 40.7782 1.94244 41.018 1.90271 41.2719C1.87316 41.445 1.84572 41.6322 1.8233 41.8305C1.82229 41.8396 1.82121 41.8497 1.8202 41.8588C1.72341 42.7917 1.78458 43.5699 2.01482 44.3257C2.05353 44.4512 2.09833 44.5767 2.1513 44.7102C2.75645 46.2138 4.00443 47.1518 5.02421 47.8004C5.92683 48.3752 6.9018 48.9013 7.92056 49.3637C8.94034 49.8272 10.0528 50.2491 11.2274 50.6174C11.9324 50.838 14.0799 51.5089 16.1307 50.2855C16.3569 50.1489 16.5769 49.9921 16.798 49.81C17.1199 49.5398 17.4347 49.2545 17.7343 48.958C17.936 48.7587 18.1408 48.5441 18.3516 48.3114C18.5299 48.1141 18.7082 47.9087 18.8814 47.7013C19.3052 47.1923 19.73 46.6297 20.1762 45.9872C20.6703 45.2769 21.1542 44.5412 21.6167 43.7945C21.7267 43.6144 21.8378 43.4343 21.9458 43.2552C22.067 43.0538 22.1862 42.8504 22.2952 42.6632L22.3624 42.5479C22.5458 42.2332 22.7313 41.9023 22.9238 41.5492C22.9564 41.4895 22.989 41.4308 23.0226 41.3711C23.1601 41.3559 23.3027 41.3306 23.4505 41.2891C24.3908 41.0291 24.9206 40.3299 25.0958 40.0992C25.7947 39.1784 26.2949 38.0978 26.5434 36.9726Z" fill="#CADBE3"/>
<path d="M24.7678 35.131C24.8513 34.7526 24.9318 34.2436 24.8126 33.6567C24.5925 32.5791 23.8356 31.968 23.587 31.7676C23.4729 31.6755 23.3547 31.5845 23.2325 31.4944C23.2692 31.371 23.2957 31.2455 23.3089 31.119C24.4519 30.7973 25.4605 30.0657 26.1074 29.0609C26.4885 28.469 26.5628 27.7303 26.3101 27.0736C26.8633 26.8874 27.3717 26.5981 27.7966 26.2125C28.4394 25.6287 28.796 24.9214 29.0333 24.4519C29.3807 23.7638 29.34 22.9331 28.9294 22.2835C28.7511 22.0022 28.5138 21.7685 28.2367 21.5934C29.5417 20.9327 30.4962 19.6982 30.8009 18.2705C30.9506 17.5632 30.7428 16.8256 30.2415 16.2943C29.7444 15.7692 29.018 15.5172 28.3018 15.6204C28.2244 15.6316 28.146 15.6296 28.0685 15.6154C27.9962 15.6012 27.875 15.5678 27.7527 15.5334C27.7283 15.5263 27.7008 15.5182 27.6743 15.5112C27.82 15.1307 27.9269 14.732 27.9891 14.3222C28.1398 13.3428 28.0441 12.2995 27.713 11.3059C27.5296 10.7555 27.2861 10.2728 26.9693 9.82758C26.9438 9.79217 26.9113 9.74967 26.8736 9.70009C26.8338 9.56652 26.7828 9.437 26.7187 9.31255C26.4518 8.79448 25.9801 8.3958 25.4249 8.21671C24.8595 8.03356 24.2563 8.0801 23.7256 8.34622C23.1948 8.61436 22.7995 9.07071 22.6141 9.63229H22.6131C22.5285 9.8893 22.3167 10.2161 22.0925 10.5622C21.9978 10.7089 21.899 10.8617 21.7981 11.0246C21.575 10.6239 21.2276 10.293 20.7987 10.0927C20.1986 9.81139 19.5792 9.53718 18.9282 9.33279C19.3847 9.10613 19.7931 8.84305 20.166 8.53443C20.981 7.86155 21.5261 7.02272 21.8317 5.96938C22.01 5.35619 22.0782 4.7673 22.1394 4.24619C22.1944 3.77366 22.2464 3.32743 22.3686 3.01679C22.8128 1.87946 22.2433 0.593396 21.0952 0.150204C20.3688 -0.13008 19.5833 -0.00460808 18.9924 0.4143C18.9079 0.433525 18.8345 0.450729 18.7795 0.465907C18.2151 0.618697 17.6854 0.854457 17.1577 1.18634C16.199 1.78941 15.4023 2.59181 14.8553 3.50754C14.5782 3.97097 14.3652 4.46475 14.2185 4.9727C14.0953 4.91502 13.9801 4.86545 13.8731 4.81992C13.7427 4.76325 13.6073 4.70557 13.5237 4.66004C13.4219 4.60439 13.3322 4.53457 13.2579 4.45464C12.7668 3.91734 12.0404 3.65324 11.315 3.74937C10.5948 3.84448 9.9642 4.28363 9.62903 4.92515C8.89043 6.33769 8.8558 8.04166 9.53327 9.48254C9.59134 9.60598 9.65348 9.72538 9.72174 9.84276C9.25107 9.67176 8.72742 9.6586 8.24453 9.8205C7.51 10.0654 6.94866 10.6826 6.77751 11.4334C6.64507 12.0182 6.46272 12.8176 6.59414 13.7263C6.695 14.4123 6.97108 15.071 7.3847 15.6488C7.31848 15.6761 7.25224 15.7075 7.18908 15.7409C6.54624 16.0819 6.11021 16.7143 6.02463 17.4327C5.86673 18.7511 6.23755 20.0888 7.03015 21.1411C6.85798 21.3678 6.72761 21.6268 6.65222 21.9071C6.47088 22.578 6.62266 23.3035 7.05359 23.8468C7.06582 23.863 7.07699 23.8782 7.08922 23.8944C6.68783 23.7719 6.23657 23.69 5.75266 23.7203C4.70537 23.7851 3.27092 24.3679 2.3958 26.76L2.32654 26.9492C1.95876 27.9286 1.28536 29.7196 2.22568 31.1686C2.21142 31.2131 2.19816 31.2576 2.18389 31.3011C2.07285 31.6502 1.96492 31.9983 1.85795 32.3555L1.81206 32.5123C1.74482 32.7339 1.68067 32.9545 1.61955 33.1741C1.56046 33.3755 1.5054 33.5748 1.44631 33.7873C0.995004 35.4153 0.597691 37.0637 0.265576 38.6847C0.26252 38.6978 0.260477 38.7069 0.260477 38.7079C0.214633 38.9326 0.165775 39.1724 0.126044 39.4263C0.0964999 39.5994 0.0689904 39.7866 0.0465777 39.9839C0.045559 39.993 0.0445497 40.0031 0.0435309 40.0122C-0.0522324 40.9451 0.00887173 41.7233 0.238092 42.4791C0.277824 42.6056 0.322659 42.7311 0.375635 42.8636C0.979759 44.3672 2.22771 45.3052 3.24748 45.9538C4.15112 46.5285 5.12508 47.0547 6.14383 47.5181C7.16463 47.9816 8.27712 48.4035 9.45175 48.7718C10.1567 48.9924 12.3043 49.6633 14.355 48.4399C14.5812 48.3033 14.8023 48.1465 15.0223 47.9634C15.3453 47.6932 15.6591 47.4078 15.9596 47.1114C16.1603 46.912 16.3651 46.6975 16.577 46.4648C16.7553 46.2675 16.9335 46.0621 17.1057 45.8547C17.5305 45.3457 17.9553 44.7831 18.4005 44.1406C18.8956 43.4313 19.3796 42.6946 19.8411 41.9489C19.9511 41.7688 20.0631 41.5887 20.1711 41.4086C20.2913 41.2082 20.4116 41.0048 20.5196 40.8176L20.5878 40.7013C20.7701 40.3866 20.9556 40.0567 21.1491 39.7026C21.1817 39.6439 21.2133 39.5842 21.2469 39.5245C21.3845 39.5093 21.5271 39.483 21.6759 39.4425C22.6152 39.1825 23.1459 38.4823 23.3201 38.2526C24.0179 37.3369 24.5192 36.2562 24.7678 35.131Z" fill="white"/>
<path d="M13.7489 36.2916C13.6368 33.9218 14.9653 31.714 16.5372 29.9271C18.1092 28.1411 19.9755 26.5991 21.3142 24.635C23.1805 21.899 23.8835 18.5538 24.3002 15.2754" stroke="#243645" stroke-width="0.2795" stroke-miterlimit="10" stroke-linecap="round" stroke-linejoin="round"/>
<path d="M23.3507 12.8409C23.7195 11.9889 24.4234 11.2634 24.7331 10.3234C24.6598 10.544 25.0367 10.9538 25.1498 11.1116C25.3474 11.3889 25.486 11.6763 25.596 12.0031C25.8079 12.6396 25.8864 13.3246 25.7855 13.9894C25.6337 14.982 25.0571 15.924 24.1861 16.435C23.7174 15.8279 23.311 15.15 23.1643 14.3992C23.0491 13.8062 23.151 13.3043 23.3507 12.8409Z" fill="#67C7C6" stroke="#243645" stroke-width="0.2795" stroke-miterlimit="10" stroke-linecap="round" stroke-linejoin="round"/>
<path d="M20.596 20.1677C19.9399 19.3997 19.6485 18.397 19.3805 17.4266C20.4309 17.6887 21.5352 17.9993 22.2759 18.7845C22.5754 19.1022 22.7965 19.4908 22.9258 19.9066C23.0267 20.2284 23.1988 20.8831 23.0073 21.1968C22.7873 21.56 22.119 21.222 21.8327 21.0925C21.359 20.878 20.9322 20.5613 20.596 20.1677Z" fill="#67C7C6" stroke="#243645" stroke-width="0.2795" stroke-miterlimit="10" stroke-linecap="round" stroke-linejoin="round"/>
<path d="M15.6468 27.1211C15.2495 26.1943 15.2688 25.1521 15.3004 24.1453C16.2265 24.7028 17.1892 25.3241 17.6629 26.2914C17.8545 26.683 17.9502 27.1191 17.9502 27.5542C17.9502 27.8912 17.9197 28.5661 17.6446 28.8119C17.3257 29.0953 16.7868 28.5762 16.5525 28.3678C16.1643 28.0237 15.8516 27.5967 15.6468 27.1211Z" fill="#67C7C6" stroke="#243645" stroke-width="0.2795" stroke-miterlimit="10" stroke-linecap="round" stroke-linejoin="round"/>
<path d="M25.0999 22.7742C25.7529 23.0039 26.3479 23.4694 27.0386 23.4592C26.8358 23.8609 26.6259 24.2738 26.2918 24.5763C25.7488 25.0691 24.9348 25.1996 24.2207 25.0256C23.5055 24.8516 22.8821 24.4073 22.3737 23.8781C21.8633 23.3479 22.3044 23.1446 22.7506 22.929C23.4719 22.584 24.4122 22.5314 25.0999 22.7742Z" fill="#67C7C6" stroke="#243645" stroke-width="0.2795" stroke-miterlimit="10" stroke-linecap="round" stroke-linejoin="round"/>
<path d="M18.4137 23.7052C18.1336 22.9948 18.0093 22.2258 17.6711 21.5398C18.2742 21.4376 18.9048 21.5924 19.4305 21.903C19.9551 22.2147 20.3799 22.6741 20.709 23.1861C21.0472 23.7092 21.2418 24.6229 20.9759 25.2078C20.9607 25.2381 20.9453 25.2705 20.9168 25.2887C20.8852 25.3099 20.8455 25.31 20.8078 25.31C20.219 25.31 19.6668 25.3241 19.2053 24.9184C18.8416 24.5986 18.589 24.1504 18.4137 23.7052Z" fill="#67C7C6" stroke="#243645" stroke-width="0.2795" stroke-miterlimit="10" stroke-linecap="round" stroke-linejoin="round"/>
<path d="M18.9272 31.6381C19.6618 31.4135 20.3443 31.03 21.0941 30.865C20.7997 30.3338 20.2852 29.9392 19.7127 29.7257C19.1401 29.5122 18.5136 29.4687 17.9064 29.5314C17.284 29.5951 16.4424 30.013 16.149 30.5847C16.1327 30.6151 16.1195 30.6475 16.1225 30.6809C16.1256 30.7183 16.1501 30.7497 16.1735 30.779C16.5403 31.2364 16.8734 31.6735 17.4796 31.7797C17.9574 31.8617 18.4678 31.7787 18.9272 31.6381Z" fill="#67C7C6" stroke="#243645" stroke-width="0.2795" stroke-miterlimit="10" stroke-linecap="round" stroke-linejoin="round"/>
<path d="M22.3166 26.8308C22.6793 27.017 22.9829 27.2993 23.3313 27.5097C23.6074 27.6767 23.911 27.7981 24.2268 27.8679C23.7908 28.5469 23.0267 29.0063 22.2188 29.0761C21.4109 29.1459 20.5786 28.8242 20.0316 28.2302C19.7249 27.8993 19.4814 27.528 19.1452 27.2264C19.9185 26.4908 21.3895 26.3562 22.3166 26.8308Z" fill="#67C7C6" stroke="#243645" stroke-width="0.2795" stroke-miterlimit="10" stroke-linecap="round" stroke-linejoin="round"/>
<path d="M26.464 17.5126C26.8684 17.5592 27.2525 17.718 27.6539 17.7929C27.9728 17.8536 28.2988 17.8597 28.6187 17.8141C28.4516 18.6014 27.8994 19.2995 27.168 19.6476C26.4365 19.9957 25.5431 19.9856 24.8197 19.6223C24.4163 19.4189 24.0556 19.1579 23.6349 18.993C24.0964 18.0337 25.4269 17.3932 26.464 17.5126Z" fill="#67C7C6" stroke="#243645" stroke-width="0.2795" stroke-miterlimit="10" stroke-linecap="round" stroke-linejoin="round"/>
<path d="M11.2773 32.315C13.0602 30.351 13.486 27.5138 13.4025 24.8708C13.3179 22.2278 12.8065 19.5879 13.049 16.9541C13.3872 13.2861 15.1619 9.90751 17.1373 6.78999" stroke="#243645" stroke-width="0.2795" stroke-miterlimit="10" stroke-linecap="round" stroke-linejoin="round"/>
<path d="M19.6882 5.3582C19.9765 4.36456 19.8859 3.24545 20.2883 2.2174C20.1936 2.45822 19.5782 2.54626 19.3673 2.60393C19.0006 2.70411 18.6756 2.85487 18.3486 3.06028C17.7129 3.45996 17.1576 3.99422 16.7725 4.63979C16.1969 5.60307 16.0238 6.81831 16.4109 7.87064C17.2473 7.67737 18.0806 7.37786 18.7408 6.83248C19.2614 6.40143 19.5313 5.89853 19.6882 5.3582Z" fill="#67C7C6" stroke="#243645" stroke-width="0.2795" stroke-miterlimit="10" stroke-linecap="round" stroke-linejoin="round"/>
<path d="M16.8489 13.6078C17.9614 13.4065 18.9251 12.7467 19.8471 12.0982C18.756 11.5872 17.5824 11.0792 16.3864 11.2361C15.9015 11.2998 15.4339 11.4799 15.0274 11.747C14.7116 11.9545 14.0983 12.3977 14.0382 12.8024C13.9689 13.2709 14.7859 13.449 15.1242 13.538C15.6855 13.6847 16.2794 13.7111 16.8489 13.6078Z" fill="#67C7C6" stroke="#243645" stroke-width="0.2795" stroke-miterlimit="10" stroke-linecap="round" stroke-linejoin="round"/>
<path d="M16.1664 23.0768C17.1678 22.5577 17.8942 21.645 18.5829 20.7546C17.3879 20.5856 16.1154 20.445 15.0192 20.9458C14.574 21.1492 14.1828 21.4578 13.8721 21.8322C13.6327 22.1226 13.1773 22.7267 13.2415 23.1304C13.3138 23.5979 14.1482 23.5291 14.4976 23.5139C15.0773 23.4906 15.6519 23.3429 16.1664 23.0768Z" fill="#67C7C6" stroke="#243645" stroke-width="0.2795" stroke-miterlimit="10" stroke-linecap="round" stroke-linejoin="round"/>
<path d="M11.1113 12.6931C10.3849 12.4341 9.54135 12.4169 8.95149 11.9221C8.84044 12.4118 8.72843 12.9137 8.80076 13.4105C8.91792 14.218 9.5271 14.901 10.2667 15.2531C11.0074 15.6052 11.8601 15.6599 12.6751 15.5607C13.4931 15.4616 13.2578 14.9779 13.0245 14.478C12.6496 13.6716 11.8763 12.9663 11.1113 12.6931Z" fill="#67C7C6" stroke="#243645" stroke-width="0.2795" stroke-miterlimit="10" stroke-linecap="round" stroke-linejoin="round"/>
<path d="M16.2122 18.1895C16.9589 17.7737 17.614 17.1979 18.3923 16.8438C17.9461 16.3328 17.2921 16.0221 16.6187 15.923C15.9442 15.8228 15.2515 15.9209 14.6025 16.1304C13.9393 16.3439 13.1213 16.9945 12.9349 17.6856C12.9247 17.722 12.9165 17.7605 12.9277 17.7969C12.941 17.8374 12.9746 17.8657 13.0062 17.892C13.5145 18.3049 13.9801 18.7046 14.6668 18.6793C15.2087 18.66 15.7446 18.4506 16.2122 18.1895Z" fill="#67C7C6" stroke="#243645" stroke-width="0.2795" stroke-miterlimit="10" stroke-linecap="round" stroke-linejoin="round"/>
<path d="M10.1251 24.6674C9.65244 23.9581 9.33662 23.1486 8.80686 22.4788C9.43951 22.2278 10.1628 22.2491 10.8087 22.4666C11.4546 22.6842 12.0251 23.0869 12.505 23.5675C12.996 24.0593 13.4239 25.0094 13.2711 25.7086C13.2629 25.745 13.2517 25.7835 13.2262 25.8098C13.1967 25.8401 13.1529 25.8503 13.1121 25.8584C12.4703 25.995 11.8723 26.1386 11.2733 25.8037C10.8016 25.5416 10.4206 25.1116 10.1251 24.6674Z" fill="#67C7C6" stroke="#243645" stroke-width="0.2795" stroke-miterlimit="10" stroke-linecap="round" stroke-linejoin="round"/>
<path d="M10.6233 18.143C10.1781 18.0479 9.71561 18.0792 9.26532 18.0165C8.90773 17.9669 8.56034 17.8576 8.23841 17.6967C8.13144 18.5882 8.46354 19.5211 9.10943 20.1485C9.75533 20.7758 10.7017 21.0824 11.5962 20.9559C12.0954 20.8851 12.5701 20.7364 13.0744 20.7121C12.9328 19.5353 11.7603 18.3858 10.6233 18.143Z" fill="#67C7C6" stroke="#243645" stroke-width="0.2795" stroke-miterlimit="10" stroke-linecap="round" stroke-linejoin="round"/>
<path d="M13.6816 7.19977C13.2986 6.95591 12.8544 6.82235 12.4551 6.60581C12.1382 6.43481 11.851 6.21018 11.6085 5.9471C11.1928 6.74343 11.1714 7.73302 11.5535 8.54655C11.9365 9.35907 12.7138 9.97832 13.5961 10.1726C14.0881 10.2809 14.5853 10.3082 15.0651 10.462C15.3504 9.3105 14.6596 7.82409 13.6816 7.19977Z" fill="#67C7C6" stroke="#243645" stroke-width="0.2795" stroke-miterlimit="10" stroke-linecap="round" stroke-linejoin="round"/>
<path d="M20.1508 36.8046C19.8482 37.4238 19.5273 38.037 19.1941 38.6401C19.0189 38.9619 18.8396 39.2816 18.6562 39.5983C18.6348 39.6337 18.6155 39.6691 18.5941 39.7035C18.4841 39.8938 18.371 40.085 18.2569 40.2742C18.152 40.4483 18.045 40.6233 17.938 40.7974C17.5 41.5046 17.0425 42.2008 16.5668 42.8838C16.1929 43.4221 15.8037 43.9473 15.3881 44.4461C15.2332 44.6313 15.0743 44.8134 14.9143 44.9925C14.7422 45.1817 14.5639 45.3679 14.3825 45.548C14.1278 45.8 13.862 46.0408 13.5849 46.2735C13.4575 46.3788 13.3281 46.4708 13.1977 46.5498C12.2666 47.1042 11.2193 47.0041 10.1211 46.6611C8.12838 46.0367 6.21107 45.2111 4.45167 44.0909C3.63157 43.5688 2.80846 42.9435 2.4468 42.045C2.41726 41.9711 2.39077 41.8972 2.36733 41.8224C2.2135 41.3154 2.20738 40.7781 2.26138 40.2408C2.27972 40.0911 2.30008 39.9373 2.32555 39.7896C2.35917 39.575 2.40196 39.3605 2.44475 39.1511C2.44577 39.144 2.44777 39.1389 2.44879 39.1319C2.77581 37.5351 3.15988 35.9485 3.59489 34.3761C3.65092 34.1788 3.70496 33.9805 3.76303 33.7822C3.82313 33.5707 3.88321 33.3602 3.94739 33.1487C3.96471 33.0941 3.98 33.0395 3.99732 32.9838C4.0992 32.6469 4.20108 32.3109 4.31009 31.975C4.47411 31.4468 4.64728 30.9217 4.82556 30.3985L12.8147 32.8907L20.1508 36.8046Z" fill="#F6CD6C" stroke="#243645" stroke-width="0.2795" stroke-miterlimit="10" stroke-linecap="round" stroke-linejoin="round"/>
<path d="M19.1941 38.6401C19.0189 38.9619 18.8396 39.2816 18.6562 39.5983C18.6348 39.6337 18.6155 39.6691 18.5941 39.7035C13.7621 37.4076 8.86185 35.216 3.94735 33.1478C3.96467 33.0931 3.97997 33.0385 3.99728 32.9828C4.09916 32.6459 4.20104 32.3099 4.31005 31.974C7.44681 33.2955 10.5774 34.6665 13.6897 36.0811C15.5316 36.9179 17.3685 37.7699 19.1941 38.6401Z" fill="#4CBBE6" stroke="#243645" stroke-width="0.2795" stroke-miterlimit="10" stroke-linecap="round" stroke-linejoin="round"/>
<path d="M18.2569 40.2743C18.1519 40.4483 18.045 40.6234 17.938 40.7974C15.5714 39.6864 13.1794 38.5855 10.7649 37.5018C8.32193 36.406 5.9299 35.3627 3.59593 34.3762C3.65196 34.1789 3.70593 33.9805 3.764 33.7822C6.11937 34.7779 8.52874 35.8312 10.988 36.9352C11.6217 37.2185 12.2462 37.5028 12.8778 37.7902C14.6851 38.6108 16.4802 39.4395 18.2569 40.2743Z" fill="#F27C88" stroke="#243645" stroke-width="0.2795" stroke-miterlimit="10" stroke-linecap="round" stroke-linejoin="round"/>
<path d="M18.4208 35.8808C17.6018 37.5797 16.8295 39.317 15.6498 40.8045C14.7512 41.9357 13.6296 42.8464 12.2716 43.3726C11.0909 43.8299 9.8072 43.9766 8.54801 43.8744C6.22932 43.6872 3.98093 42.6602 2.24395 41.1222C2.26127 41.359 2.29692 41.5937 2.36619 41.8214C2.38962 41.8963 2.41614 41.9701 2.44466 42.044C2.80632 42.9425 3.63049 43.5688 4.45059 44.091C6.20999 45.2111 8.1273 46.0357 10.12 46.6601C11.2172 47.0031 12.2645 47.1033 13.1956 46.5488C13.326 46.4698 13.4564 46.3778 13.5827 46.2725C13.8598 46.0408 14.1267 45.798 14.3814 45.547C14.5638 45.3669 14.7411 45.1807 14.9122 44.9915C15.0732 44.8124 15.2311 44.6313 15.386 44.4451C15.8026 43.9463 16.1918 43.4211 16.5646 42.8838C17.3073 41.8183 18.0042 40.7235 18.6551 39.5983C19.1839 38.6846 19.6851 37.7527 20.1507 36.8046L18.4208 35.8808Z" fill="#EED8BC"/>
<path d="M20.926 32.6408C21.3651 32.8968 21.7909 33.1721 22.1791 33.4857C22.3736 33.6426 22.5703 33.8267 22.6253 34.0949C22.6609 34.273 22.6304 34.4682 22.5886 34.6554C22.4083 35.47 22.0446 36.2572 21.5393 36.923C21.4119 37.091 21.2622 37.261 21.0757 37.3126C20.9321 37.352 20.7905 37.3146 20.6571 37.2731C20.0835 37.095 19.5415 36.838 19.0016 36.582C16.6574 35.471 14.3703 34.2203 11.9793 33.2277C9.53223 32.2108 6.99956 31.3952 4.57899 30.3136C4.41293 30.2387 4.24182 30.1598 4.12874 30.009C3.70799 29.4505 4.24994 28.1786 4.48833 27.5279C4.73385 26.8581 5.15662 25.9768 5.89217 25.9312C6.48407 25.8958 7.2023 26.3734 7.73817 26.5646C10.284 27.4733 12.7922 28.4852 15.2301 29.6447C16.4822 30.2407 17.7169 30.8752 18.9282 31.5531C19.5772 31.9184 20.2679 32.2584 20.926 32.6408Z" fill="#4CBBE6" stroke="#243645" stroke-width="0.2795" stroke-miterlimit="10" stroke-linecap="round" stroke-linejoin="round"/>
<path d="M22.5887 34.6565C22.6304 34.4693 22.6609 34.274 22.6253 34.0959C22.5703 33.8277 22.3747 33.6436 22.1791 33.4867C22.0283 33.3643 21.8694 33.25 21.7094 33.1387C20.8669 33.8136 19.8777 34.2355 18.7784 34.3286C17.725 34.4166 16.6666 34.2355 15.6468 33.9815C14.3214 33.6497 13.0143 33.2307 11.7541 32.7046C9.10231 31.5976 6.63994 30.1072 4.04313 28.8889C3.94736 29.328 3.93109 29.749 4.12974 30.011C4.24181 30.1608 4.41294 30.2407 4.579 30.3156C6.99957 31.3973 9.53122 32.2128 11.9793 33.2297C14.3703 34.2224 16.6574 35.474 19.0016 36.584C19.5415 36.84 20.0845 37.097 20.6571 37.2751C20.7905 37.3166 20.9331 37.3541 21.0757 37.3146C21.2622 37.263 21.412 37.093 21.5393 36.925C22.0446 36.2582 22.4083 35.47 22.5887 34.6565Z" fill="#CDE0E9"/>
</svg>
