<svg width="61" height="73" viewBox="0 0 61 73" fill="none" xmlns="http://www.w3.org/2000/svg">
<path d="M59.5091 57.2183L59.1228 55.9102L56.3144 46.3999L56.0615 45.5417L55.6123 44.0201L55.4021 43.3062L54.9006 41.6086L54.8942 41.5888L52.1316 32.2298L51.9097 31.4784L51.5533 30.2692L51.3431 29.5553L50.9067 28.0792C51.7614 26.6436 52.2597 24.9806 52.329 23.28C52.4197 21.0713 51.7806 18.8961 50.5289 17.156C50.4479 17.0443 50.3636 16.9316 50.2771 16.8208C50.2494 16.7862 50.2206 16.7516 50.1928 16.717L50.1822 16.7041L50.164 16.6814C50.1139 16.6191 50.0637 16.5578 50.0125 16.4965C49.9795 16.458 49.9453 16.4194 49.9122 16.3818L49.893 16.3601L49.8674 16.3314C49.8237 16.281 49.7799 16.2316 49.7351 16.1831C49.6977 16.1426 49.6604 16.103 49.623 16.0645L49.5996 16.0397L49.5729 16.0111C49.5313 15.9676 49.4897 15.9241 49.447 15.8815C49.4054 15.84 49.3627 15.7985 49.32 15.758L49.2933 15.7323L49.2677 15.7066C49.2283 15.668 49.1888 15.6294 49.1482 15.5919C49.1013 15.5484 49.0543 15.5059 49.0063 15.4633L48.9786 15.4386L48.953 15.4149C48.9156 15.3803 48.8772 15.3467 48.8388 15.3131C48.7854 15.2666 48.7321 15.2221 48.6777 15.1776L48.652 15.1558L48.6296 15.1371C48.5923 15.1054 48.555 15.0748 48.5166 15.0431C48.4589 14.9967 48.3981 14.9502 48.3384 14.9037L48.316 14.8859L48.2946 14.8691C48.2583 14.8414 48.2231 14.8128 48.1858 14.7861C48.1196 14.7366 48.0503 14.6872 47.982 14.6388L47.9681 14.6289L47.9489 14.616C47.9158 14.5913 47.8817 14.5676 47.8475 14.5438C47.7611 14.4835 47.6832 14.4331 47.6138 14.3886L47.5957 14.3758C47.5637 14.355 47.5306 14.3332 47.4986 14.3125C47.4079 14.2551 47.3236 14.2047 47.2457 14.1573L47.2318 14.1484C47.202 14.1296 47.171 14.1118 47.1412 14.094C47.0441 14.0376 46.9544 13.9872 46.8712 13.9417L46.8605 13.9358C46.8328 13.92 46.804 13.9051 46.7762 13.8903C46.6663 13.831 46.5639 13.7796 46.4871 13.741L46.4817 13.7381C46.455 13.7242 46.4284 13.7113 46.4028 13.6985C46.311 13.654 46.2139 13.6085 46.0976 13.5551L46.0944 13.5541C46.0709 13.5433 46.0453 13.5314 46.0218 13.5205C45.9237 13.477 45.8223 13.4345 45.7039 13.3861C45.6772 13.3742 45.6548 13.3653 45.6313 13.3564C45.5289 13.3159 45.42 13.2743 45.2995 13.2318C45.277 13.2229 45.2568 13.216 45.2365 13.2091C45.1245 13.1695 45.0103 13.131 44.8865 13.0924C44.8673 13.0865 44.8492 13.0806 44.8321 13.0756C44.7147 13.039 44.5942 13.0044 44.4672 12.9708C44.4522 12.9669 44.4373 12.9629 44.4234 12.9589C44.3007 12.9263 44.1727 12.8957 44.0436 12.867C44.0297 12.864 44.0169 12.8611 44.003 12.8581C43.8782 12.8314 43.7459 12.8047 43.6125 12.781C43.6018 12.779 43.5901 12.777 43.5794 12.7751C43.446 12.7523 43.3095 12.7315 43.1729 12.7137C43.1654 12.7128 43.1569 12.7118 43.1505 12.7108C43.0128 12.693 42.8709 12.6782 42.729 12.6673C42.7258 12.6673 42.7237 12.6673 42.7194 12.6663C42.4697 12.6455 42.2179 12.6356 41.9703 12.6356C41.6011 12.6356 41.2373 12.6574 40.8809 12.7019C39.5951 10.4457 37.8207 8.40696 35.6599 6.71924C32.8046 4.48873 29.4627 3.0195 25.9959 2.47077C24.9684 2.30862 23.912 2.22558 22.8589 2.22558C20.0142 2.22558 17.1278 2.83067 14.5136 3.9746L14.4795 3.98943C14.3109 4.06358 14.1434 4.1397 13.9641 4.22473L13.9524 4.23068L13.9001 4.25439C13.7443 4.32854 13.5874 4.40666 13.4178 4.49268L13.3954 4.50454L13.3314 4.53717C13.1841 4.61429 13.0315 4.69536 12.8768 4.7794L12.8629 4.78632C12.832 4.80412 12.8 4.82092 12.768 4.83872C12.6271 4.91683 12.4841 4.9989 12.3422 5.08294C12.2995 5.10766 12.258 5.13335 12.2163 5.15807C12.0808 5.23914 11.9475 5.3222 11.8162 5.40426C11.7693 5.43393 11.7212 5.46557 11.6721 5.49622C11.5388 5.58223 11.4171 5.66231 11.2987 5.7424C11.2507 5.77502 11.2027 5.80864 11.1536 5.84325L11.1408 5.85215C11.0106 5.94212 10.8964 6.0222 10.7918 6.09833C10.7438 6.13392 10.6947 6.16951 10.6457 6.20609L10.6201 6.22587C10.5315 6.29211 10.4152 6.37913 10.2957 6.47207C10.2445 6.51161 10.1922 6.55314 10.141 6.59368L10.109 6.61839C10.0151 6.69353 9.91369 6.77461 9.80912 6.86161C9.75683 6.90512 9.70347 6.9496 9.65119 6.99508L9.6128 7.0287L9.59466 7.04352C9.50716 7.11768 9.42073 7.19184 9.33643 7.26797C9.28095 7.3174 9.22545 7.36881 9.1689 7.41924L9.12728 7.4578L9.08993 7.49241C9.01844 7.55766 8.94697 7.62391 8.87655 7.69114C8.81679 7.74848 8.75808 7.80681 8.69833 7.86515L8.6546 7.90766L8.60871 7.95215C8.54789 8.01147 8.48814 8.07079 8.42945 8.13111C8.3633 8.19834 8.29927 8.26655 8.23525 8.33477L8.19256 8.38026L8.14668 8.4287C8.09653 8.4811 8.04639 8.5345 7.99731 8.58789C7.90981 8.68281 7.83085 8.77376 7.76149 8.85483L7.73163 8.88944L7.69639 8.929C7.65692 8.9725 7.6185 9.01698 7.58115 9.06147C7.44244 9.2256 7.30695 9.38973 7.17998 9.55089C5.10781 12.1838 3.81564 15.3961 3.44539 18.8407C3.13382 21.7347 3.49021 24.6326 4.47614 27.311C3.28107 28.8939 2.38688 30.8515 1.90672 32.9733C1.28037 35.7407 1.42228 38.5288 2.30578 40.8236C2.35593 40.9531 2.41035 41.0856 2.47117 41.228C2.48717 41.2646 2.50212 41.2992 2.51812 41.3338L2.52773 41.3555C2.55974 41.4257 2.60242 41.5226 2.65257 41.6264C2.67178 41.6679 2.69205 41.7085 2.71125 41.748L2.72301 41.7708C2.76462 41.8548 2.80729 41.9388 2.84997 42.0229C2.87451 42.0694 2.89906 42.1168 2.92467 42.1643C2.97055 42.2493 3.01748 42.3333 3.06443 42.4164L3.07192 42.4293C3.09433 42.4678 3.11672 42.5074 3.13913 42.5459C3.18821 42.63 3.24262 42.7199 3.30344 42.8178L3.3152 42.8366C3.33227 42.8633 3.34827 42.89 3.36535 42.9177C3.44324 43.0413 3.52008 43.1569 3.5969 43.2697C3.59797 43.2716 3.60011 43.2746 3.60224 43.2776C3.76977 43.5228 3.95222 43.7689 4.14429 44.0102C4.15709 44.027 4.16883 44.0418 4.18164 44.0567L4.18056 44.0547C4.26166 44.1565 4.34593 44.2584 4.43022 44.3572L4.46653 44.3988L4.47718 44.4106C4.56147 44.5085 4.64791 44.6064 4.7354 44.7013L4.74609 44.7122L4.77702 44.7468C4.87199 44.8496 4.96908 44.9524 5.06618 45.0513C5.06618 45.0513 5.06618 45.0513 5.06618 45.0523L5.0822 45.0681C5.62212 45.6159 6.21645 46.1231 6.84813 46.5759C7.80632 47.263 8.85199 47.8236 9.93716 48.2369C10.2295 52.5882 9.87849 56.9375 8.89149 61.1929L8.85733 61.3372C8.58097 62.5227 8.23632 63.9969 8.67807 65.5837C9.27774 67.7371 11.3168 69.2993 13.5256 69.2993C13.8265 69.2993 14.1274 69.2706 14.4229 69.2132C16.1302 68.884 17.5376 67.6254 18.0978 65.9288C18.3101 65.2861 18.4061 64.6039 18.3997 63.7843C18.3997 63.4125 18.3805 63.0714 18.356 62.6967L17.9473 56.3265L17.862 54.9927C17.8396 54.6487 17.8289 54.3431 17.8289 54.0584C17.8395 52.6841 18.133 52.0414 18.3816 51.9099C18.3933 51.904 18.4062 51.8971 18.4211 51.8902L19.7293 53.3218L20.7216 54.4084L20.7419 54.4292L21.3629 55.1094L28.5301 62.9557L29.4296 63.9405L31.1166 65.7874L31.7386 66.4676L36.8561 72.0706C37.3458 72.6075 38.0565 72.9308 38.8141 72.9624C39.194 72.9782 39.5855 72.9891 40.0433 72.996C40.0433 72.996 40.0444 72.996 40.0454 72.996C40.2514 72.999 40.452 73 40.6419 73H40.7593H40.787H40.7827C41.0313 72.999 41.2576 72.997 41.4742 72.9921C43.7939 72.9426 45.9663 72.6826 47.9307 72.2209L47.9702 72.212C48.014 72.2021 48.0567 72.1912 48.0994 72.1814C48.2221 72.1517 48.3415 72.121 48.46 72.0914C48.5176 72.0765 48.5752 72.0617 48.6318 72.0469C48.7513 72.0152 48.8708 71.9826 48.9882 71.949C49.0223 71.9391 49.0565 71.9292 49.0917 71.9193L49.1258 71.9094C49.5323 71.7918 49.9346 71.6633 50.3209 71.5278L50.3369 71.5229C50.3625 71.514 50.3871 71.5051 50.4127 71.4962C50.5279 71.4546 50.6421 71.4131 50.7552 71.3706C50.7989 71.3538 50.8405 71.339 50.8811 71.3231C50.9921 71.2806 51.103 71.2381 51.2119 71.1936C51.2407 71.1817 51.2684 71.1709 51.2972 71.159L51.3228 71.1481C51.8222 70.9435 52.3088 70.721 52.7719 70.4857L52.7911 70.4768C52.8135 70.465 52.8369 70.4541 52.8583 70.4422C52.9596 70.3898 53.0589 70.3374 53.157 70.284L53.2392 70.2395L53.2445 70.2366C53.3459 70.1812 53.4451 70.1258 53.5433 70.0705L53.5828 70.0477C53.904 69.8638 54.2209 69.669 54.5228 69.4683L54.5623 69.4426C54.6541 69.3813 54.7437 69.32 54.8323 69.2587L54.8952 69.2152C54.9849 69.153 55.0702 69.0916 55.1556 69.0293L55.1951 69.0007L55.2015 68.9947C55.5632 68.7288 55.9153 68.446 56.2461 68.1553L56.2557 68.1474L56.2877 68.1188C56.3635 68.0515 56.4371 67.9863 56.5075 67.921L56.5406 67.8903L56.5491 67.8815C56.6601 67.7796 56.7657 67.6788 56.8682 67.5789C56.8703 67.577 56.8724 67.575 56.8746 67.572C56.977 67.4721 57.0752 67.3723 57.1701 67.2744L57.1926 67.2497C57.2694 67.1696 57.343 67.0925 57.4134 67.0144L57.439 66.9857L57.4294 66.9956C57.439 66.9867 57.4465 66.9778 57.454 66.9689C57.4668 66.956 57.4764 66.9442 57.4871 66.9323C57.5255 66.8898 57.5607 66.8492 57.597 66.8087L57.6172 66.787L57.6524 66.7454L57.677 66.7168C57.7036 66.6861 57.7314 66.6545 57.7581 66.6248C57.7623 66.6199 57.7666 66.6149 57.7698 66.61C57.7869 66.5902 57.8029 66.5704 57.8189 66.5507L57.8264 66.5428L57.8413 66.525C58.0216 66.3094 58.1945 66.0909 58.3545 65.8734L58.3631 65.8625C58.4089 65.8002 58.457 65.735 58.5029 65.6707L58.5316 65.6292C58.5775 65.5639 58.6213 65.5017 58.6629 65.4394L58.6842 65.4097L58.6885 65.4048C58.8656 65.1428 59.0331 64.8758 59.1889 64.6098L59.1953 64.598L59.2124 64.5703C59.2455 64.51 59.2786 64.4546 59.3095 64.3993L59.3319 64.3577L59.3341 64.3538C59.365 64.2974 59.3959 64.242 59.4248 64.1877L59.4386 64.1619C59.5293 63.9919 59.6168 63.8159 59.6979 63.6439L59.7022 63.6379L59.715 63.6113C59.715 63.6103 59.7161 63.6083 59.7171 63.6063C59.7395 63.5579 59.7609 63.5104 59.7833 63.4629L59.8067 63.4096C59.826 63.367 59.8462 63.3216 59.8654 63.2781L59.8825 63.2375L59.8868 63.2296C59.9476 63.0892 60.0031 62.9478 60.0554 62.8114L60.0703 62.7738C60.0853 62.7362 60.0981 62.7007 60.1119 62.6641L60.1311 62.6117C60.1439 62.5761 60.1546 62.5444 60.1663 62.5128L60.1866 62.4535C60.1973 62.4248 60.209 62.3922 60.2176 62.3615L60.2304 62.323L60.2336 62.3151C60.2528 62.2548 60.2709 62.1984 60.288 62.144L60.2997 62.1055C60.3083 62.0788 60.3157 62.053 60.3221 62.0273L60.3232 62.0254L60.336 61.9819C60.336 61.9799 60.3371 61.9779 60.3371 61.9759L60.3552 61.9146L60.3691 61.8662C60.3744 61.8454 60.3797 61.8257 60.3851 61.8069C60.3893 61.791 60.3936 61.7723 60.3989 61.7535L60.4096 61.7139C60.4171 61.6823 60.4235 61.6546 60.4299 61.6309L60.4374 61.5992C60.4384 61.5983 60.4384 61.5953 60.4384 61.5943L60.4406 61.5893L60.447 61.5587L60.4534 61.529C60.4577 61.5112 60.4608 61.4964 60.464 61.4826L60.4662 61.4737C60.4683 61.4598 60.4715 61.448 60.4726 61.4381C60.4736 61.4351 60.4747 61.4321 60.4747 61.4302C60.4768 61.4213 60.4779 61.4134 60.4801 61.4054L60.4811 61.3985C60.5483 61.0347 60.5281 60.6629 60.4224 60.307L59.5091 57.2183Z" fill="#E0C380"/>
<path d="M57.9811 54.9927L57.5948 53.6857L54.7874 44.1753L54.5335 43.3171L54.0843 41.7955L53.8741 41.0816L53.3726 39.3841L53.3662 39.3643L50.6036 30.0052L50.3817 29.2538L50.0253 28.0446L49.8151 27.3308L49.3787 25.8546C50.2334 24.419 50.7317 22.756 50.801 21.0554C50.8917 18.8467 50.2526 16.6715 49.001 14.9324C48.9199 14.8197 48.8356 14.707 48.7491 14.5962C48.7214 14.5616 48.6937 14.527 48.6649 14.4924L48.6542 14.4796L48.635 14.4568C48.5848 14.3945 48.5357 14.3332 48.4835 14.2719C48.4504 14.2334 48.4162 14.1948 48.3832 14.1573L48.3639 14.1355L48.3384 14.1068C48.2946 14.0564 48.2508 14.007 48.206 13.9585C48.1687 13.918 48.1313 13.8784 48.094 13.8399L48.0705 13.8152L48.0439 13.7865C48.0022 13.743 47.9606 13.6995 47.919 13.657C47.8774 13.6154 47.8347 13.5739 47.792 13.5334L47.7653 13.5077L47.7397 13.482C47.7003 13.4434 47.6608 13.4049 47.6202 13.3673C47.5733 13.3238 47.5263 13.2813 47.4794 13.2387L47.4506 13.214L47.425 13.1903C47.3876 13.1557 47.3503 13.1221 47.3119 13.0885C47.2575 13.042 47.2041 12.9975 47.1507 12.953L47.1241 12.9313L47.1017 12.9125C47.0643 12.8808 47.027 12.8502 46.9886 12.8185C46.9309 12.7721 46.8701 12.7256 46.8104 12.6791L46.788 12.6613L46.7666 12.6445C46.7314 12.6169 46.6951 12.5882 46.6589 12.5615C46.5916 12.5121 46.5233 12.4626 46.454 12.4142L46.4401 12.4043L46.4209 12.3914C46.3878 12.3667 46.3537 12.343 46.3195 12.3193C46.2331 12.2589 46.1552 12.2085 46.0858 12.164L46.0667 12.1512C46.0346 12.1304 46.0016 12.1087 45.9696 12.0879C45.8799 12.0305 45.7956 11.9801 45.7167 11.9327L45.7028 11.9238C45.6729 11.905 45.642 11.8872 45.6121 11.8694C45.515 11.813 45.4254 11.7626 45.3421 11.7171L45.3315 11.7112C45.3037 11.6954 45.276 11.6796 45.2472 11.6647C45.1373 11.6054 45.0348 11.554 44.958 11.5154L44.9516 11.5125C44.9249 11.4986 44.8982 11.4858 44.8726 11.4729C44.7809 11.4284 44.6838 11.383 44.5685 11.3296L44.5653 11.3286C44.5408 11.3177 44.5163 11.3058 44.4917 11.295C44.3935 11.2514 44.2922 11.2089 44.1737 11.1605C44.1471 11.1486 44.1236 11.1397 44.1012 11.1308C43.9987 11.0893 43.8888 11.0488 43.7693 11.0063C43.7469 10.9974 43.7256 10.9904 43.7064 10.9835C43.5954 10.944 43.4802 10.9064 43.3564 10.8668C43.3372 10.8609 43.3191 10.855 43.302 10.85C43.1836 10.8135 43.064 10.7788 42.936 10.7452C42.921 10.7413 42.9072 10.7373 42.8922 10.7334C42.7695 10.7007 42.6415 10.6701 42.5124 10.6414C42.4985 10.6385 42.4857 10.6355 42.4718 10.6325C42.347 10.6058 42.2147 10.5791 42.0813 10.5554C42.0696 10.5534 42.0589 10.5514 42.0482 10.5495C41.9148 10.5267 41.7783 10.506 41.6417 10.4882C41.6342 10.4872 41.6268 10.4862 41.6193 10.4852C41.4816 10.4674 41.3397 10.4526 41.1989 10.4417C41.1957 10.4417 41.1935 10.4417 41.1893 10.4407C40.9396 10.42 40.6878 10.4101 40.4413 10.4101C40.071 10.4101 39.7083 10.4318 39.3519 10.4763C38.0661 8.22008 36.2916 6.18138 34.132 4.49366C31.2755 2.26314 27.9336 0.79393 24.4679 0.2452C23.4404 0.0830522 22.3851 0 21.3319 0C18.4862 0 15.6009 0.605084 12.9867 1.74901L12.9526 1.76384C12.784 1.838 12.6165 1.91413 12.4372 1.99916L12.4254 2.00509L12.3732 2.02882C12.2174 2.10298 12.0605 2.18108 11.8909 2.2671L11.8685 2.27896L11.8055 2.31159C11.6572 2.38772 11.5046 2.46879 11.351 2.55382L11.3392 2.56074C11.3072 2.57854 11.2752 2.59535 11.2443 2.61315C11.1034 2.69126 10.9604 2.77331 10.8185 2.85735C10.7758 2.88207 10.7331 2.90778 10.6915 2.9325C10.556 3.01357 10.4226 3.09662 10.2925 3.17868C10.2455 3.20834 10.1964 3.23998 10.1484 3.27063C10.015 3.35665 9.89339 3.43674 9.77495 3.51683C9.72693 3.54945 9.67786 3.58306 9.62984 3.61767L9.61597 3.62657C9.4858 3.71654 9.37164 3.79662 9.26813 3.87374C9.21905 3.90835 9.16994 3.94493 9.12193 3.98052L9.09526 4.0003C9.00669 4.06655 8.8904 4.15354 8.7709 4.24648C8.71968 4.28603 8.66737 4.32756 8.61616 4.36809L8.58415 4.3938C8.49025 4.46894 8.38891 4.54903 8.28434 4.63702C8.23099 4.68053 8.17869 4.726 8.12641 4.77049L8.08798 4.80411L8.06985 4.81993C7.98235 4.89409 7.89592 4.96725 7.81162 5.04437C7.75507 5.09381 7.6996 5.14521 7.64412 5.19663L7.6025 5.23519L7.56515 5.2698C7.49366 5.33505 7.42218 5.4013 7.35069 5.46853C7.29094 5.52587 7.23223 5.5842 7.17247 5.64254L7.12874 5.68505L7.08394 5.72954C7.02312 5.78886 6.96333 5.84818 6.90464 5.90849C6.83849 5.97573 6.77449 6.04396 6.71047 6.11218L6.66778 6.15765L6.6219 6.20609C6.57175 6.25849 6.52158 6.31189 6.4725 6.36528C6.38607 6.4602 6.30713 6.55115 6.23671 6.63222L6.20789 6.66683L6.17269 6.70639C6.13321 6.74989 6.0948 6.79438 6.05745 6.83887C5.91874 7.003 5.78429 7.16712 5.65732 7.32828C3.58408 9.9612 2.29298 13.1735 1.92273 16.6182C1.61115 19.5121 1.96752 22.41 2.95452 25.0884C1.75945 26.6713 0.865292 28.6289 0.385131 30.7507C-0.241214 33.518 -0.100374 36.3062 0.784191 38.601C0.834341 38.7305 0.888758 38.863 0.949579 39.0054C0.965584 39.0419 0.980529 39.0766 0.996535 39.1112L1.00614 39.1329C1.03708 39.2031 1.08084 39.3 1.13099 39.4038C1.15019 39.4453 1.17046 39.4859 1.18967 39.5254L1.20035 39.5482C1.24196 39.6322 1.28464 39.7162 1.32838 39.8003C1.35186 39.8468 1.37748 39.8942 1.40308 39.9417C1.44897 40.0267 1.4959 40.1108 1.54392 40.1938L1.55033 40.2066C1.57274 40.2462 1.59514 40.2847 1.61754 40.3233C1.66663 40.4073 1.72104 40.4973 1.78293 40.5952L1.79469 40.614C1.81176 40.6407 1.82776 40.6674 1.84483 40.6951C1.92379 40.8187 1.99953 40.9343 2.07636 41.047C2.07849 41.049 2.07956 41.052 2.0817 41.0549C2.24922 41.3001 2.43168 41.5464 2.62374 41.7876C2.63655 41.8044 2.64829 41.8192 2.66109 41.8341L2.66002 41.8321C2.74111 41.9339 2.82542 42.0358 2.90971 42.1356L2.94599 42.1771L2.95559 42.189C3.03989 42.2869 3.12739 42.3848 3.21382 42.4797L3.2245 42.4906L3.25543 42.5251C3.3504 42.628 3.44856 42.7308 3.54459 42.8297L3.56061 42.8455C4.10053 43.3932 4.69485 43.9004 5.32547 44.3533C6.28366 45.0404 7.32933 45.601 8.41449 46.0143C8.70686 50.3656 8.35582 54.7149 7.36776 58.9703L7.33467 59.1146C7.05724 60.3001 6.7126 61.7742 7.15541 63.3611C7.75508 65.5145 9.79309 67.0766 12.0018 67.0766C12.3027 67.0766 12.6036 67.048 12.8992 66.9906C14.6064 66.6614 16.0139 65.4028 16.574 63.7062C16.7864 63.0635 16.8824 62.3813 16.876 61.5617C16.876 61.1899 16.8568 60.8488 16.8323 60.4741L16.4236 54.1039L16.3382 52.7701C16.3158 52.426 16.3062 52.1205 16.3052 51.8368C16.3158 50.4625 16.6093 49.8198 16.8568 49.6873C16.8686 49.6814 16.8814 49.6745 16.8974 49.6675L18.2045 51.0992L19.1979 52.1858L19.2171 52.2075L19.8381 52.8868L27.0064 60.7331L27.9059 61.7179L29.5928 63.5648L30.2149 64.245L35.3334 69.848C35.8232 70.3849 36.5338 70.7082 37.2914 70.7408C37.6713 70.7566 38.0629 70.7665 38.5206 70.7734C38.5217 70.7734 38.5217 70.7734 38.5228 70.7734C38.7287 70.7764 38.9293 70.7774 39.1203 70.7774H39.2377H39.2654H39.2611C39.5098 70.7764 39.736 70.7744 39.9526 70.7695C42.2723 70.72 44.4448 70.46 46.4081 69.9983L46.4476 69.9894C46.4913 69.9795 46.534 69.9686 46.5767 69.9587C46.6994 69.9291 46.8189 69.8984 46.9373 69.8687C46.9949 69.8539 47.0515 69.8391 47.1091 69.8243C47.2286 69.7926 47.3481 69.76 47.4655 69.7264C47.4996 69.7165 47.5338 69.7066 47.569 69.6967L47.6032 69.6868C48.0097 69.5692 48.412 69.4406 48.7982 69.3052L48.8153 69.3003C48.8398 69.2914 48.8655 69.2825 48.89 69.2736C49.0052 69.233 49.1194 69.1905 49.2325 69.148C49.2763 69.1312 49.3179 69.1164 49.3595 69.1005C49.4705 69.058 49.5814 69.0155 49.6903 68.971C49.7191 68.9591 49.7468 68.9483 49.7756 68.9364L49.8012 68.9255C50.3006 68.7209 50.7872 68.4984 51.2503 68.2641L51.2695 68.2542C51.2919 68.2423 51.3143 68.2315 51.3367 68.2196C51.4381 68.1672 51.5373 68.1148 51.6365 68.0614L51.7187 68.0169L51.724 68.0139C51.8243 67.9586 51.9246 67.9032 52.0228 67.8478L52.0633 67.8251C52.3834 67.6402 52.7004 67.4454 53.0023 67.2447L53.0418 67.219C53.1336 67.1577 53.2232 67.0964 53.3117 67.0351L53.3758 66.9916C53.4643 66.9293 53.5508 66.868 53.6351 66.8058L53.6735 66.7771L53.682 66.7711C54.0427 66.5052 54.3948 66.2224 54.7266 65.9317L54.7362 65.9238L54.7683 65.8952C54.8451 65.8279 54.9176 65.7627 54.9881 65.6974L55.0211 65.6668L55.0307 65.6579C55.1406 65.556 55.2463 65.4552 55.3487 65.3553C55.3508 65.3533 55.353 65.3514 55.3562 65.3484C55.4575 65.2485 55.5568 65.1487 55.6496 65.0508L55.6742 65.0261C55.7499 64.946 55.8225 64.8679 55.894 64.7908L55.9196 64.7621L55.911 64.772C55.9196 64.7631 55.9281 64.7542 55.9345 64.7453C55.9473 64.7324 55.9569 64.7206 55.9676 64.7087C56.006 64.6662 56.0412 64.6257 56.0775 64.5851L56.0978 64.5634L56.134 64.5218L56.1586 64.4932C56.1852 64.4625 56.213 64.4309 56.2386 64.4012C56.2429 64.3963 56.2461 64.3913 56.2503 64.3864C56.2674 64.3666 56.2834 64.3469 56.3005 64.3271L56.3069 64.3191L56.3218 64.3004C56.5022 64.0848 56.6739 63.8663 56.8361 63.6488L56.8436 63.6379C56.8905 63.5756 56.9375 63.5104 56.9834 63.4461L57.0122 63.4046C57.0581 63.3394 57.1018 63.2771 57.1445 63.2148L57.1648 63.1851L57.168 63.1802C57.3462 62.9182 57.5137 62.6512 57.6695 62.3852L57.6759 62.3734L57.6919 62.3457C57.7271 62.2854 57.7591 62.229 57.7901 62.1737L57.8125 62.1322L57.8146 62.1272C57.8455 62.0709 57.8765 62.0155 57.9053 61.9611L57.9192 61.9354C58.0099 61.7653 58.0984 61.5893 58.1795 61.4173L58.1827 61.4114L58.1955 61.3847C58.1966 61.3837 58.1966 61.3817 58.1977 61.3797C58.2201 61.3313 58.2425 61.2838 58.2638 61.2364L58.2873 61.183C58.3076 61.1395 58.3257 61.095 58.346 61.0505L58.3641 61.01L58.3673 61.0021C58.4281 60.8617 58.4847 60.7203 58.537 60.5838L58.5519 60.5463C58.5669 60.5087 58.5786 60.4731 58.5925 60.4375L58.6117 60.3841C58.6255 60.3485 58.6351 60.3169 58.6469 60.2852L58.6672 60.2259C58.6778 60.1973 58.6885 60.1646 58.6981 60.134L58.7109 60.0954L58.7141 60.0875C58.7344 60.0272 58.7515 59.9708 58.7685 59.9174L58.7802 59.8789C58.7888 59.8522 58.7962 59.8265 58.8027 59.8008L58.8037 59.7988L58.8165 59.7553C58.8176 59.7533 58.8176 59.7514 58.8176 59.7504L58.8357 59.6881L58.8496 59.6396C58.8549 59.6189 58.8603 59.5991 58.8656 59.5803C58.8699 59.5645 58.8752 59.5457 58.8795 59.5269L58.8901 59.4874C58.8987 59.4557 58.9051 59.428 58.9115 59.4043L58.9179 59.3727C58.919 59.3717 58.919 59.3687 58.92 59.3677L58.9211 59.3628L58.9286 59.3321L58.935 59.3025C58.9382 59.2847 58.9414 59.2699 58.9446 59.256L58.9467 59.2471C58.9499 59.2333 58.9521 59.2214 58.9542 59.2115C58.9542 59.2085 58.9553 59.2056 58.9563 59.2036C58.9574 59.1957 58.9584 59.1868 58.9606 59.1789L58.9617 59.172C59.0289 58.8081 59.0086 58.4364 58.904 58.0804L57.9811 54.9927Z" fill="white"/>
<path d="M13.2695 41.7866L37.4109 68.2127C54.4385 68.9344 56.2589 58.7468 56.2589 58.7468L45.9183 23.7229L27.1322 26.0177L13.2695 41.7866Z" fill="#FFBA1E"/>
<path d="M45.3922 67.6234C55.0499 65.5075 56.2599 58.7458 56.2599 58.7458L45.9194 23.722L35.12 25.0409C34.5651 25.4393 34.0423 25.8753 33.5611 26.3499C30.3536 29.5049 28.7957 34.3258 29.9022 38.5377C31.9808 39.2535 34.3848 38.6484 36.1774 37.4392C37.97 36.2291 39.2537 34.4889 40.4007 32.729C41.3024 33.5645 42.9904 33.6485 44.1983 33.2699C45.2749 36.0906 46.6343 38.7937 47.712 41.6135C49.4982 46.2901 51.0795 51.0052 50.5022 55.9369C50.0039 60.1695 48.2049 64.2598 45.3922 67.6234Z" fill="#CE9115"/>
<path d="M20.4015 45.3607C21.2572 44.6479 21.7737 43.5969 21.7929 42.5311C23.9664 41.9309 25.8465 40.4924 26.4152 38.4576C26.985 36.4228 25.8508 33.9837 23.7039 33.3065C22.7031 32.9901 21.635 33.0741 20.6352 33.4083L15.4569 39.299C15.3705 39.6697 15.3086 40.0464 15.2776 40.4261C15.141 42.1049 15.4537 43.6868 16.2913 45.0918L17.4448 46.3544C18.5171 46.388 19.6023 46.0271 20.4015 45.3607Z" fill="#CE9115"/>
<path d="M54.0971 62.8242C52.8657 63.019 51.629 63.1881 50.386 63.3284C51.3708 61.9937 52.313 60.6273 53.2072 59.2293C54.2187 59.0533 55.2271 58.8575 56.229 58.645L55.9772 57.7907C55.2708 57.94 54.5602 58.0794 53.8485 58.2109C54.3681 57.3685 54.8664 56.5173 55.3476 55.6581L54.7672 53.6905C53.523 53.9318 52.2714 54.1463 51.0144 54.3312C51.0411 54.2887 51.0678 54.2472 51.0945 54.2047C51.9427 52.8304 52.7398 51.4343 53.4889 50.0195C53.5508 50.0067 53.6105 49.9928 53.6724 49.9799L53.2285 48.4781C53.0994 48.7342 52.9682 48.9903 52.8348 49.2444C51.294 49.5558 49.7415 49.8227 48.1804 50.0482C49.1066 48.4366 49.9688 46.7983 50.7616 45.1363C51.2268 45.0414 51.6909 44.9425 52.154 44.8397L51.9011 43.9815C51.6781 44.0299 51.4551 44.0794 51.2321 44.1268C51.3783 43.8085 51.5202 43.4881 51.6611 43.1688L51.2407 41.746C50.8715 42.625 50.4852 43.498 50.0787 44.3641C48.7033 44.637 47.3193 44.8753 45.9269 45.0789C46.7602 43.5919 47.5391 42.0842 48.2594 40.5556C49.0895 40.3994 49.9154 40.2294 50.7392 40.0484L50.4863 39.1932C49.8994 39.3217 49.3104 39.4433 48.7214 39.56C49.1098 38.7018 49.4769 37.8367 49.829 36.9676L49.1994 34.834C47.8784 35.098 46.5511 35.3303 45.2152 35.53C45.9141 34.0173 46.5564 32.4848 47.1433 30.9365C47.4303 30.8851 47.7163 30.8317 48.0022 30.7773L47.7494 29.9201C47.6672 29.9359 47.585 29.9518 47.5029 29.9676C47.5509 29.8341 47.5978 29.7006 47.6448 29.5672L47.1817 27.9981C46.9405 28.7218 46.6887 29.4426 46.423 30.1604C44.9463 30.4135 43.4599 30.6271 41.9661 30.8011C42.9605 28.534 43.8323 26.2263 44.576 23.8861L43.5357 24.0126C42.7781 26.3519 41.8903 28.6576 40.8777 30.9227C39.3476 31.0809 37.81 31.1956 36.2681 31.2717C37.3448 29.0708 38.303 26.8275 39.1395 24.5495L38.081 24.679C37.2381 26.9293 36.2756 29.146 35.1947 31.3192C33.5397 31.3795 31.8795 31.3913 30.216 31.3557C31.315 29.3655 32.3127 27.3366 33.2111 25.2742L32.1206 25.4077C31.2297 27.4148 30.2405 29.3892 29.1564 31.3261C27.0448 31.2559 24.9449 31.1056 22.8578 30.8821L22.1397 31.6988C24.2993 31.946 26.475 32.1131 28.6602 32.1981C28.3113 32.8012 27.9549 33.4023 27.5879 33.9975C27.1237 34.749 26.6457 35.4915 26.1559 36.2251C23.7221 36.0422 21.3063 35.7555 18.913 35.3689L18.2215 36.1559C20.6512 36.5642 23.1074 36.8707 25.5797 37.0695C24.7443 38.2826 23.8725 39.47 22.9666 40.6308C20.3972 40.349 17.8502 39.9506 15.3342 39.4394L14.6577 40.2086C17.1823 40.7375 19.7378 41.1528 22.3168 41.4514C21.397 42.5963 20.4388 43.7126 19.4497 44.8031C18.0562 44.5698 16.6712 44.3009 15.2968 43.9993L16.3308 45.1314C17.1278 45.2945 17.9281 45.4457 18.7316 45.5852C18.3976 45.9431 18.0583 46.297 17.7168 46.649L18.341 47.3322C18.8425 46.8171 19.3377 46.2961 19.8232 45.7671C21.5795 46.0489 23.3475 46.2772 25.1252 46.4503C24.1446 47.5893 23.1277 48.6986 22.0767 49.7782C21.4781 49.6794 20.8816 49.5726 20.2862 49.4609L21.2796 50.5485C21.2914 50.5504 21.302 50.5524 21.3127 50.5544C21.3084 50.5593 21.3031 50.5643 21.2978 50.5692L21.9188 51.2494C22.0895 51.0804 22.2602 50.9103 22.4288 50.7383C23.9952 50.9864 25.5712 51.1911 27.1557 51.3543C26.285 52.2718 25.3898 53.1675 24.47 54.0425L25.4602 55.1271C27.0064 55.3634 28.5621 55.5612 30.1253 55.7135C29.4136 56.4382 28.6869 57.15 27.9454 57.8471L28.5653 58.5263C29.5043 57.6464 30.4219 56.7456 31.3129 55.8222C32.9828 55.9616 34.6612 56.0536 36.346 56.0971C36.6128 56.104 36.8785 56.1079 37.1452 56.1129C36.1678 57.2697 35.1552 58.3988 34.1063 59.4972C32.4247 59.4122 30.7506 59.2787 29.086 59.0978L29.9855 60.0825C31.0813 60.1893 32.1814 60.2773 33.2847 60.3426C32.7555 60.8785 32.2177 61.4074 31.6725 61.9284L32.2945 62.6087C33.0511 61.8889 33.7916 61.1543 34.5161 60.4058C35.0805 60.4306 35.6461 60.4523 36.2127 60.4671C36.9649 60.4869 37.715 60.4958 38.4662 60.4958C38.8813 60.4958 39.2964 60.4929 39.7114 60.4869C38.7586 61.6121 37.7727 62.7105 36.7515 63.7793C35.5447 63.7229 34.3411 63.6409 33.1418 63.5351L34.022 64.4991C34.6569 64.5475 35.2918 64.592 35.9288 64.6276C35.6194 64.941 35.3068 65.2515 34.992 65.5609L35.614 66.2422C36.138 65.73 36.6555 65.2129 37.1634 64.6869C37.6083 64.7057 38.0522 64.7206 38.4971 64.7314C39.2494 64.7512 39.9995 64.7611 40.7507 64.7611C41.1551 64.7611 41.5606 64.7581 41.965 64.7522C40.8702 65.9505 39.7349 67.1142 38.5612 68.2433C39.0147 68.2502 39.4575 68.2483 39.8886 68.2394C41.0442 67.1023 42.1635 65.9307 43.2412 64.7255C44.9633 64.676 46.6802 64.5752 48.3896 64.4239C47.5658 65.4789 46.7122 66.5121 45.8308 67.5235C46.3964 67.3881 46.932 67.2368 47.4388 67.0707C48.2007 66.1641 48.9423 65.2416 49.6604 64.3023C50.8085 64.1837 51.9513 64.0393 53.0898 63.8742C53.4633 63.5252 53.8015 63.1722 54.0971 62.8242ZM54.8749 54.5794C54.2806 55.662 53.6575 56.7338 53.0055 57.7927C52.8721 58.0072 52.7366 58.2198 52.6022 58.4324C51.0091 58.7003 49.4064 58.9208 47.7963 59.0978C48.7001 57.8649 49.5686 56.6052 50.3945 55.3189C51.8958 55.1113 53.3907 54.8661 54.8749 54.5794ZM36.4474 41.047C36.7216 40.6228 36.9927 40.1957 37.2584 39.7657C37.7951 38.8966 38.3094 38.0176 38.8066 37.1327C40.4242 37.0171 42.0354 36.8549 43.6381 36.6492C42.9755 38.0008 42.2702 39.3375 41.5179 40.6545C39.8363 40.8354 38.145 40.9669 36.4474 41.047ZM40.9663 41.6056C40.7273 42.01 40.485 42.4124 40.2375 42.8128C39.6026 43.8421 38.94 44.8535 38.2549 45.8501C36.5008 45.945 34.7391 45.9856 32.9732 45.9727C33.9751 44.6676 34.9354 43.3309 35.8477 41.9616C37.5603 41.8943 39.2676 41.7747 40.9663 41.6056ZM36.4271 39.3257C36.059 39.9219 35.6802 40.5101 35.2961 41.0945C33.6838 41.1498 32.0673 41.1597 30.4465 41.1241C31.2702 39.9476 32.063 38.7492 32.8174 37.5262C32.8526 37.4679 32.8867 37.4105 32.923 37.3522C34.515 37.3463 36.1028 37.2988 37.6862 37.2069C37.2786 37.9178 36.8604 38.6247 36.4271 39.3257ZM32.3575 42.0337C33.1353 42.0337 33.9132 42.0219 34.69 42.0011C33.7734 43.3507 32.8131 44.6696 31.8091 45.9559C31.6597 45.9529 31.5114 45.952 31.363 45.948C29.8873 45.9104 28.417 45.8333 26.952 45.7206C27.9496 44.5085 28.9099 43.2686 29.8276 41.9971C29.9193 41.9991 30.0122 42.0031 30.105 42.0051C30.8573 42.0238 31.6074 42.0337 32.3575 42.0337ZM32.286 46.8537C32.7203 46.8596 33.1546 46.8645 33.5889 46.8645C34.9322 46.8645 36.2735 46.8319 37.6105 46.7706C36.6053 48.1845 35.5511 49.5627 34.4478 50.9044C34.2291 50.9004 34.0103 50.8985 33.7916 50.8925C32.2156 50.852 30.6449 50.766 29.0817 50.6394C30.1925 49.4114 31.2606 48.1489 32.286 46.8537ZM38.8002 46.7073C40.6056 46.5986 42.4035 46.4335 44.1919 46.212C43.9742 46.5788 43.7533 46.9446 43.5282 47.3085C42.8048 48.4801 42.0482 49.63 41.2608 50.7581C39.3935 50.8718 37.5198 50.9251 35.6397 50.9172C36.7419 49.5508 37.7961 48.1459 38.8002 46.7073ZM41.7996 51.6133C43.3457 51.5105 44.8865 51.3661 46.4188 51.1803C46.3345 51.3197 46.2512 51.4591 46.1659 51.5975C45.436 52.779 44.6731 53.9377 43.8782 55.0757C42.2798 55.1746 40.6771 55.23 39.0691 55.2389C40.0166 54.0574 40.9257 52.8482 41.7996 51.6133ZM44.4181 55.93C46.009 55.8232 47.5936 55.6729 49.1696 55.4781C48.3319 56.7546 47.458 58.0053 46.5425 59.2263C44.9324 59.3786 43.3148 59.4873 41.6918 59.5486C42.6372 58.3701 43.5453 57.1629 44.4181 55.93ZM52.2938 50.2598C51.6515 51.4423 50.976 52.6109 50.2633 53.7647C50.1107 54.0119 49.9538 54.2571 49.7991 54.5023C48.2306 54.7099 46.6546 54.8731 45.0711 54.9927C45.7359 54.0228 46.3793 53.038 46.9982 52.0365C47.2052 51.7013 47.4079 51.3641 47.6096 51.027C49.1802 50.8144 50.7424 50.5593 52.2938 50.2598ZM49.5985 45.3676C48.7982 47.0069 47.9307 48.6225 46.9982 50.2113C45.4894 50.4071 43.9731 50.5623 42.4505 50.677C43.1089 49.716 43.7459 48.7411 44.3583 47.7494C44.7041 47.1898 45.038 46.6253 45.3678 46.0587C46.7858 45.863 48.1975 45.6336 49.5985 45.3676ZM44.7542 45.244C42.9915 45.4764 41.2181 45.6554 39.4372 45.776C39.9974 44.9465 40.5426 44.106 41.0687 43.2538C41.4304 42.6675 41.7815 42.0753 42.1261 41.482C43.7981 41.2922 45.4616 41.0529 47.1145 40.7652C46.3836 42.2789 45.5961 43.7729 44.7542 45.244ZM49.3093 35.7219C48.778 37.0882 48.1986 38.4398 47.5786 39.7785C45.9535 40.0741 44.3156 40.3243 42.6692 40.524C43.4108 39.1981 44.1097 37.8555 44.7617 36.496C46.2875 36.2795 47.8038 36.0204 49.3093 35.7219ZM41.5457 31.7423C43.0576 31.5762 44.5621 31.3696 46.0581 31.1234C45.4616 32.6648 44.8076 34.1884 44.098 35.6942C42.5145 35.9097 40.9214 36.0778 39.3209 36.2034C40.1169 34.7351 40.8585 33.2481 41.5457 31.7423ZM35.8114 32.1843C37.3629 32.117 38.9101 32.0063 40.4498 31.856C39.7563 33.3519 39.0061 34.8271 38.2026 36.2824C36.6277 36.3853 35.0464 36.4456 33.4608 36.4614C34.2963 35.0564 35.0795 33.6288 35.8114 32.1843ZM28.4159 34.4395C28.8662 33.7108 29.3015 32.9752 29.7241 32.2347C29.7486 32.2357 29.7732 32.2367 29.7977 32.2367C30.55 32.2565 31.3001 32.2653 32.0513 32.2653C32.9465 32.2653 33.8407 32.2505 34.7338 32.2238C33.9954 33.6574 33.2036 35.0723 32.3628 36.4653C31.7013 36.4634 31.0408 36.4564 30.3792 36.4396C29.3261 36.412 28.2751 36.3635 27.2262 36.2983C27.6306 35.6833 28.0286 35.0644 28.4159 34.4395ZM26.6542 37.1515C27.8824 37.2346 29.1159 37.2939 30.3515 37.3255C30.8413 37.3384 31.331 37.3453 31.8197 37.3493C31.0269 38.6217 30.1946 39.8695 29.325 41.0915C27.5602 41.0292 25.8028 40.9135 24.055 40.7445C24.9566 39.5728 25.8241 38.3745 26.6542 37.1515ZM20.537 44.9821C21.5282 43.8737 22.4843 42.7367 23.4062 41.574C25.1615 41.7549 26.9263 41.8835 28.6987 41.9576C27.78 43.2103 26.8228 44.4343 25.8252 45.6277C24.0518 45.4675 22.288 45.252 20.537 44.9821ZM23.1885 49.9582C24.247 48.8548 25.2682 47.7188 26.2541 46.5561C27.8685 46.6925 29.4904 46.7825 31.1187 46.829C30.0954 48.0995 29.0273 49.3353 27.9187 50.5376C26.3341 50.3883 24.756 50.1945 23.1885 49.9582ZM30.9138 54.8968C29.1276 54.7366 27.351 54.5211 25.5883 54.2502C26.5251 53.3455 27.4353 52.4171 28.322 51.467C30.1125 51.6251 31.9125 51.729 33.719 51.7764C32.8142 52.8423 31.8784 53.8824 30.9138 54.8968ZM36.3706 55.2112C34.9408 55.1736 33.5152 55.1015 32.095 54.9937C33.066 53.9546 34.006 52.8897 34.9151 51.7992C35.2833 51.8041 35.6503 51.8061 36.0184 51.8061C37.5518 51.8061 39.0808 51.7636 40.6045 51.6835C39.7317 52.8946 38.8183 54.0781 37.8719 55.2349C37.3714 55.2319 36.871 55.2241 36.3706 55.2112ZM36.2372 59.5813C35.9342 59.5733 35.6311 59.5615 35.327 59.5506C36.3685 58.4383 37.3747 57.2964 38.3446 56.1247C38.4289 56.1247 38.5132 56.1267 38.5975 56.1267C40.1425 56.1267 41.6854 56.0842 43.2219 56.0021C42.3395 57.2242 41.4176 58.4185 40.4605 59.5862C39.0552 59.6178 37.6478 59.6168 36.2372 59.5813ZM42.7727 63.8495C41.3589 63.8831 39.9408 63.8821 38.5217 63.8456C38.3403 63.8406 38.1589 63.8327 37.9775 63.8268C39.0008 62.7332 39.9899 61.6101 40.9449 60.4602C42.5732 60.4138 44.1951 60.3208 45.8116 60.1844C44.8396 61.4381 43.8248 62.6591 42.7727 63.8495ZM49.1237 63.4629C47.4367 63.628 45.7433 63.7467 44.0414 63.8119C45.0925 62.5968 46.1019 61.3471 47.0718 60.0687C48.7075 59.9056 50.3358 59.695 51.9545 59.4389C51.055 60.8102 50.1117 62.1529 49.1237 63.4629Z" fill="#F9C45A"/>
<path d="M46.7293 16.3344C44.7414 13.5699 40.8297 11.9841 37.8644 13.562C35.6044 8.00353 30.0954 3.70069 24.0069 2.73769C17.9185 1.7747 11.4982 4.19109 7.85645 8.81526C4.21469 13.4404 3.49975 20.0855 6.05848 25.5313C3.14337 28.4143 1.85442 33.868 3.34826 37.7477C4.5668 40.9115 7.60567 43.4308 10.9849 44.1239C11.5217 49.2542 11.2016 54.4618 10.031 59.5012C9.78349 60.565 9.49857 61.6734 9.79307 62.7283C10.0865 63.7823 11.1866 64.7364 12.3369 64.5139C13.135 64.3597 13.7208 63.6873 13.9598 62.9656C14.1989 62.2438 14.1529 61.4707 14.1039 60.7173C13.9395 58.1486 13.7742 55.581 13.6098 53.0133C13.4797 50.9785 13.5853 48.5117 15.4921 47.4943C16.2593 47.085 17.2089 47 17.911 46.4997C18.8105 45.86 19.0762 44.6706 18.8564 43.6404C18.7689 43.2281 18.6163 42.8356 18.4275 42.4559C20.3961 41.0361 21.7587 38.9312 21.7064 36.5929C23.1128 38.5288 25.6203 39.6045 28.036 39.5422C28.0424 39.8062 28.0157 40.0721 27.9656 40.3262C27.8002 41.1518 27.4321 41.9438 27.3734 42.7812C27.3147 43.6186 27.6764 44.5747 28.5205 44.8812C29.5715 45.2619 30.7409 44.3918 31.0621 43.3893C31.3844 42.3867 31.1357 41.3159 31.0173 40.2768C30.965 39.822 30.948 39.3425 31.0088 38.8827C32.5954 38.2094 33.9687 37.0714 34.9354 35.6843C36.3631 33.6347 37.1879 31.0344 37.1026 28.527C40.4978 29.1826 44.2111 28.0979 46.3302 25.5649C48.4493 23.0328 48.7182 19.0988 46.7293 16.3344Z" fill="#A0382B"/>
<path d="M46.7293 16.3344C44.7756 13.6174 40.9663 12.0414 38.0213 13.485C36.187 17.5495 32.5016 20.8983 28.0286 22.4209C32.8014 22.2281 37.4835 20.4642 41.0463 17.5149C42.077 19.6841 41.8743 22.2073 40.0817 23.897C38.288 25.5867 35.3526 26.1315 32.9945 25.212C34.9962 29.5553 34.037 34.7925 30.7676 38.4151C30.949 38.5387 31.1379 38.6465 31.331 38.7394C32.78 38.0543 34.0338 36.9785 34.9344 35.6863C36.362 33.6367 37.1869 31.0364 37.1015 28.5291C40.4968 29.1846 44.21 28.1 46.3291 25.5669C48.4493 23.0329 48.7182 19.0988 46.7293 16.3344Z" fill="#7B2623"/>
<path d="M14.6224 3.83618C11.9602 4.90991 9.5925 6.61147 7.85645 8.81629C4.21469 13.4414 3.49975 20.0865 6.05848 25.5323C3.14337 28.4154 1.85442 33.869 3.34826 37.7487C4.05143 39.5739 5.36065 41.1835 6.99213 42.3531C5.47268 38.9105 5.08216 35.0347 5.97206 31.4042C6.38606 29.7155 6.72858 27.6857 8.32272 26.782C8.19468 29.239 10.0577 31.6524 12.5535 32.4542C11.0468 27.05 12.9461 21.5211 17.4799 17.8006C14.1807 17.8441 10.9785 20.1093 10.2914 23.1001C7.96953 16.811 9.47405 9.4362 14.1145 4.36712C14.2789 4.18717 14.4485 4.01019 14.6224 3.83618Z" fill="#CF6A34"/>
<path d="M19.8797 32.6065C20.2094 36.2053 18.2546 39.9061 14.9853 41.8726C15.8015 41.8528 16.4577 42.6181 16.4834 43.3754C16.5079 44.1328 16.1857 44.989 15.49 45.3874C11.2229 47.8295 11.9282 57.7848 12.0093 60.0618C12.036 60.8241 12.0125 61.6091 11.6999 62.315C11.4449 62.8924 10.9615 63.4105 10.349 63.6419C10.8473 64.2054 11.5814 64.5683 12.3369 64.422C13.135 64.2677 13.7208 63.5954 13.9598 62.8727C14.1989 62.1509 14.153 61.3777 14.1039 60.6243C13.9396 58.0567 13.7742 55.488 13.6099 52.9204C13.4797 50.8856 13.5853 48.4188 15.4921 47.4014C16.2593 46.9921 17.2089 46.9071 17.911 46.4068C18.8105 45.7671 19.0762 44.5777 18.8564 43.5475C18.7689 43.1352 18.6163 42.7426 18.4275 42.363C20.3961 40.9422 21.7587 38.8382 21.7064 36.499C21.9038 36.7699 22.1226 37.024 22.3595 37.2603C22.0063 35.1089 20.8208 34.0015 19.8797 32.6065Z" fill="#7B2623"/>
<path d="M56.8393 58.5985L47.0814 25.5531C49.1514 22.7639 49.2272 18.8042 47.2286 16.0259C46.1744 14.5587 44.5846 13.3821 42.8698 12.7968C41.2362 12.2392 39.5973 12.2421 38.1813 12.7948C37.0119 10.2054 35.1467 7.86614 32.7576 6.00045C30.1914 3.99536 27.1995 2.67742 24.1072 2.189C21.0107 1.69861 17.7872 2.03674 14.7878 3.16584C11.7884 4.29494 9.2233 6.13492 7.37094 8.48804C5.52179 10.8372 4.36832 13.7153 4.03541 16.8109C3.71637 19.779 4.17307 22.7481 5.35747 25.4226C3.99381 26.8849 2.9716 28.9038 2.46369 31.1521C1.91631 33.5685 2.02942 35.978 2.78274 37.9366C4.02156 41.1509 6.99216 43.7156 10.4269 44.5708C10.9049 49.54 10.5741 54.5211 9.44417 59.3836L9.40897 59.5338C9.15715 60.6155 8.89679 61.7347 9.21049 62.8668C9.5338 64.0265 10.6862 65.1022 12.0008 65.1022C12.1523 65.1022 12.3049 65.0874 12.4596 65.0587C13.4071 64.8748 14.2021 64.1343 14.5339 63.1268C14.8071 62.2973 14.7516 61.4391 14.7025 60.6817L14.2095 52.9778C14.0889 51.1051 14.1604 48.845 15.7898 47.9749C16.0736 47.8236 16.4044 47.7188 16.7544 47.6071C17.0169 47.5241 17.2847 47.439 17.5482 47.3303L36.9511 68.5696C37.0588 68.6882 37.2157 68.7594 37.3821 68.7664C37.9615 68.7901 38.5324 68.8029 39.0915 68.8029C42.3534 68.8029 45.2557 68.3857 47.7408 67.5591C50.0968 66.7751 52.0847 65.6233 53.6489 64.1353C56.3336 61.5824 56.8297 58.9446 56.85 58.8339C56.8671 58.7577 56.8628 58.6766 56.8393 58.5985ZM16.367 46.5561C15.9786 46.6797 15.5764 46.8063 15.1912 47.0109C12.9899 48.1855 12.8693 50.853 13.0102 53.045L13.5032 60.749C13.548 61.445 13.5949 62.1638 13.3847 62.8015C13.1841 63.4116 12.7242 63.8693 12.2131 63.9682C11.4011 64.1254 10.5912 63.368 10.3735 62.5889C10.1292 61.7119 10.3597 60.7242 10.5827 59.7691L10.6179 59.6179C11.8034 54.5142 12.1288 49.2839 11.5825 44.0695C11.5579 43.8293 11.368 43.6315 11.1141 43.5791C7.94393 42.9276 5.0491 40.5092 3.91271 37.5609C2.51491 33.9284 3.67369 28.7021 6.49597 25.911C6.6603 25.7488 6.70406 25.5125 6.60802 25.3088C5.39375 22.7244 4.91679 19.8235 5.22943 16.9207C5.54101 14.0218 6.61655 11.3325 8.34087 9.14355C10.062 6.95851 12.4478 5.24805 15.2392 4.19705C17.2004 3.45849 19.263 3.08378 21.3138 3.08378C22.1823 3.08378 23.0477 3.15101 23.9034 3.28647C26.7855 3.74226 29.579 4.97516 31.9819 6.85172C34.388 8.73125 36.2276 11.119 37.3 13.7568C37.3619 13.9091 37.4931 14.0297 37.6596 14.0851C37.8249 14.1405 38.0085 14.1256 38.1621 14.0436C40.93 12.5704 44.5035 14.2453 46.2278 16.6419C48.0086 19.1176 47.8891 22.6799 45.9429 25.1131C45.9429 25.1141 45.9418 25.1151 45.9407 25.1161C45.9119 25.1527 45.882 25.1882 45.8532 25.2228C43.9465 27.5018 40.4786 28.6101 37.2231 27.9803C37.0439 27.9457 36.855 27.9892 36.7142 28.099C36.5733 28.2087 36.4933 28.3719 36.4997 28.5429C36.5808 30.8841 35.8253 33.3767 34.4286 35.3808C33.6838 36.4496 32.684 37.3523 31.5562 37.9831C31.2958 38.1284 31.029 38.2599 30.7569 38.3756C30.5681 38.4557 30.4369 38.6218 30.4113 38.8126C30.3504 39.2634 30.3525 39.7608 30.4176 40.3332C30.44 40.528 30.4667 40.7237 30.4934 40.9195C30.6054 41.7431 30.7122 42.5232 30.4849 43.2281C30.3398 43.6809 29.9631 44.1021 29.5245 44.2999C29.2439 44.4264 28.9803 44.4462 28.7381 44.3592C28.179 44.1565 27.9304 43.4288 27.9731 42.8148C28.004 42.367 28.1395 41.9191 28.2836 41.4435C28.3828 41.1153 28.4853 40.7761 28.5568 40.4252C28.6186 40.1187 28.6453 39.8161 28.6368 39.5245C28.6325 39.3771 28.5653 39.2357 28.449 39.1339C28.3337 39.0321 28.1769 38.9777 28.019 38.9817C27.1568 39.0034 26.2989 38.8679 25.4954 38.601C24.1585 38.1551 22.9773 37.3414 22.2058 36.2775C22.0564 36.0729 21.7801 35.9829 21.5261 36.0581C21.2721 36.1322 21.1015 36.3527 21.1068 36.5999C21.1516 38.6099 20.0408 40.5824 18.0593 42.013C17.8385 42.1722 17.7659 42.451 17.8822 42.6863C18.069 43.0611 18.1949 43.4081 18.2674 43.7452C18.4339 44.5204 18.2738 45.5358 17.545 46.0538C17.4981 46.0875 17.4447 46.1211 17.3828 46.1567C17.0905 46.3267 16.7394 46.4385 16.367 46.5561ZM52.79 63.3611C49.574 66.4192 44.3626 67.9052 37.699 67.6669L18.5566 46.7123C18.5694 46.7005 18.5811 46.6876 18.5939 46.6748C18.6163 46.653 18.6377 46.6313 18.659 46.6095C18.6889 46.5798 18.7177 46.5482 18.7454 46.5166C18.7657 46.4938 18.786 46.4711 18.8052 46.4474C18.8319 46.4137 18.8586 46.3801 18.8852 46.3455C18.9034 46.3218 18.9215 46.2981 18.9386 46.2743C18.9642 46.2368 18.9898 46.1992 19.0133 46.1616C19.0282 46.1389 19.0442 46.1152 19.0581 46.0914C19.0848 46.0479 19.1082 46.0034 19.1328 45.9579C19.1435 45.9382 19.1552 45.9194 19.1648 45.8996C19.1989 45.8344 19.2299 45.7671 19.2587 45.6989C19.2608 45.693 19.263 45.688 19.2651 45.6821C19.2918 45.6188 19.3163 45.5556 19.3387 45.4903C19.3462 45.4666 19.3536 45.4428 19.3611 45.4191C19.3761 45.3716 19.3921 45.3232 19.4049 45.2747C19.4123 45.2461 19.4187 45.2174 19.4262 45.1887C19.4369 45.1432 19.4486 45.0987 19.4571 45.0523C19.4635 45.0216 19.4689 44.99 19.4742 44.9593C19.4817 44.9149 19.4892 44.8694 19.4956 44.8239C19.4998 44.7923 19.5041 44.7596 19.5073 44.727C19.5116 44.6815 19.5158 44.6361 19.519 44.5906C19.5212 44.5579 19.5233 44.5253 19.5244 44.4917C19.5254 44.4452 19.5265 44.3988 19.5265 44.3513C19.5265 44.3187 19.5276 44.287 19.5265 44.2534C19.5254 44.205 19.5233 44.1555 19.5201 44.1071C19.5191 44.0764 19.5169 44.0448 19.5148 44.0132C19.5105 43.9588 19.503 43.9054 19.4966 43.851C19.4934 43.8243 19.4913 43.7976 19.487 43.7719C19.4753 43.6909 19.4614 43.6098 19.4433 43.5287C19.3792 43.2301 19.2843 42.9305 19.1541 42.6201C20.6778 41.4178 21.7 39.911 22.1076 38.3004C22.1343 38.1927 22.1589 38.0849 22.1802 37.9771C23.5513 39.2091 25.4453 39.9842 27.3958 40.087C27.3883 40.1315 27.3809 40.176 27.3723 40.2215C27.3115 40.524 27.2198 40.8246 27.1237 41.143C27.0661 41.3338 27.0074 41.5276 26.9541 41.7233C26.8666 42.0516 26.7951 42.3897 26.7705 42.7427C26.7663 42.8059 26.7631 42.8702 26.7631 42.9355C26.7599 43.4555 26.889 44.0092 27.1739 44.4719C27.4236 44.8773 27.7928 45.2125 28.2975 45.3954C28.8491 45.5961 29.4712 45.5615 30.0495 45.3005C30.7868 44.9663 31.394 44.293 31.6341 43.5455C31.9328 42.6151 31.8069 41.6818 31.6831 40.7791C31.6575 40.5913 31.6319 40.4024 31.6106 40.2146C31.5796 39.9447 31.5658 39.6965 31.5658 39.4681C31.5658 39.391 31.569 39.3168 31.5722 39.2436C33.1001 38.5258 34.4617 37.379 35.4348 35.9829C36.8273 33.9857 37.6361 31.5426 37.7012 29.1846C39.2697 29.3803 40.8734 29.239 42.3822 28.7674C42.4857 28.7357 42.5871 28.7021 42.6884 28.6665C42.7204 28.6556 42.7524 28.6438 42.7845 28.6319C42.8538 28.6072 42.9232 28.5815 42.9915 28.5557C43.0277 28.5419 43.063 28.5281 43.0992 28.5142C43.1654 28.4885 43.2305 28.4618 43.2956 28.4342C43.3297 28.4203 43.3628 28.4065 43.3969 28.3916C43.4727 28.359 43.5485 28.3254 43.6232 28.2908C43.6445 28.2819 43.6648 28.272 43.685 28.2631C43.7789 28.2196 43.8718 28.1741 43.9635 28.1277C43.9902 28.1148 44.0158 28.1009 44.0414 28.0871C44.1086 28.0525 44.1737 28.0179 44.2399 27.9823C44.2719 27.9645 44.305 27.9457 44.337 27.9279C44.3957 27.8943 44.4544 27.8617 44.513 27.8261C44.545 27.8073 44.5781 27.7885 44.6101 27.7688C44.672 27.7312 44.7318 27.6926 44.7926 27.6541C44.8182 27.6373 44.8449 27.6214 44.8705 27.6056C44.9559 27.5502 45.0391 27.4939 45.1212 27.4365C45.1373 27.4257 45.1522 27.4148 45.1682 27.4029C45.2354 27.3555 45.3016 27.308 45.3667 27.2586C45.3944 27.2378 45.4222 27.2161 45.4499 27.1953C45.5033 27.1548 45.5555 27.1133 45.6068 27.0717C45.6356 27.049 45.6644 27.0253 45.6921 27.0025C45.7444 26.959 45.7967 26.9155 45.8479 26.871C45.8724 26.8493 45.8981 26.8285 45.9226 26.8068C45.9898 26.7455 46.0581 26.6851 46.1232 26.6228C46.1296 26.6169 46.136 26.612 46.1424 26.606C46.1435 26.6051 46.1435 26.604 46.1445 26.604L55.6389 58.7617C55.5226 59.261 54.9166 61.3392 52.79 63.3611Z" fill="#542125"/>
</svg>
