<svg width="100" height="37" viewBox="0 0 100 37" fill="none" xmlns="http://www.w3.org/2000/svg">
<path d="M29.419 36.2739C29.1275 36.2565 28.8297 36.2391 28.5371 36.214L28.5591 35.9092C28.9373 35.9386 29.3197 35.9625 29.6968 35.981L29.6822 36.2848C29.5944 36.2826 29.5067 36.2772 29.419 36.2739ZM30.566 36.3164L30.5713 36.0115C30.8617 36.0181 31.1584 36.0203 31.4489 36.0203L31.4499 36.3262C31.1553 36.3262 30.8586 36.324 30.566 36.3164ZM27.6565 36.1346C27.364 36.1041 27.0683 36.0682 26.7779 36.0312L26.8144 35.7284C27.1017 35.7644 27.3942 35.7981 27.6857 35.8297L27.6565 36.1346ZM32.3327 36.3131L32.3254 36.0094C32.6169 36.0006 32.9104 35.9897 33.2019 35.9767L33.2155 36.2826C32.9209 36.2957 32.6263 36.3066 32.3327 36.3131ZM25.9034 35.907C25.614 35.8645 25.3194 35.8134 25.0311 35.7622L25.0791 35.4628C25.3685 35.5128 25.66 35.5607 25.9462 35.6054L25.9034 35.907ZM34.0972 36.2282L34.0763 35.9244C34.3668 35.9026 34.6593 35.8787 34.9518 35.8526L34.978 36.1564C34.6844 36.1836 34.3908 36.2075 34.0972 36.2282ZM24.1629 35.5967C23.8735 35.5368 23.582 35.4736 23.2968 35.4072L23.3616 35.11C23.6436 35.1753 23.932 35.2374 24.2193 35.2973L24.1629 35.5967ZM35.8566 36.0648L35.8252 35.7611C36.1146 35.7273 36.405 35.6914 36.6955 35.65L36.7341 35.9538C36.4426 35.9919 36.1491 36.03 35.8566 36.0648ZM22.4359 35.1993C22.1486 35.1263 21.8613 35.0479 21.5814 34.9695L21.6565 34.6745C21.9365 34.7529 22.2218 34.8301 22.506 34.902L22.4359 35.1993ZM37.6096 35.8221L37.5647 35.5204C37.852 35.4758 38.1414 35.4269 38.4298 35.3735L38.4809 35.6751C38.1884 35.7273 37.899 35.7764 37.6096 35.8221ZM20.7299 34.718C20.4499 34.6309 20.1658 34.5394 19.8858 34.4458L19.9756 34.1541C20.2546 34.2477 20.5345 34.338 20.8135 34.4241L20.7299 34.718ZM39.3491 35.5085L39.2927 35.208C39.58 35.1503 39.8662 35.0915 40.1535 35.0272L40.2152 35.3245C39.9258 35.3898 39.6364 35.4497 39.3491 35.5085ZM19.0489 34.1551C18.771 34.0549 18.4931 33.9504 18.2184 33.8426L18.3207 33.5552C18.5934 33.6629 18.8692 33.7675 19.145 33.8655L19.0489 34.1551ZM41.076 35.1242L41.0102 34.8269C41.2934 34.7583 41.5786 34.6864 41.8617 34.6102L41.9327 34.9064C41.6475 34.9815 41.3623 35.0545 41.076 35.1242ZM17.393 33.5106C17.1245 33.3984 16.8487 33.2808 16.576 33.1599L16.6899 32.8779C16.9626 32.9977 17.2352 33.1164 17.5016 33.2263L17.393 33.5106ZM42.7894 34.669L42.7089 34.375C42.99 34.2923 43.271 34.203 43.5468 34.1116L43.6367 34.4033C43.3577 34.497 43.0725 34.5863 42.7894 34.669ZM15.7674 32.7897C15.4989 32.6645 15.2314 32.535 14.9661 32.4032L15.0914 32.1266C15.3558 32.2584 15.6211 32.3858 15.8886 32.5121L15.7674 32.7897ZM44.4735 34.1061L44.3753 33.8187C44.647 33.7163 44.9228 33.6085 45.1934 33.4953L45.302 33.7806C45.0283 33.8927 44.7504 34.0027 44.4735 34.1061ZM14.1721 32.0004C13.9067 31.8643 13.6435 31.7249 13.3834 31.5834L13.5191 31.3134C13.7782 31.4538 14.0384 31.5899 14.3016 31.726L14.1721 32.0004ZM46.119 33.4267L46.003 33.1469C46.2663 33.0282 46.5348 32.8997 46.8012 32.7701L46.9255 33.0467C46.657 33.1774 46.3854 33.3058 46.119 33.4267ZM12.6029 31.1555C12.3438 31.0117 12.0858 30.8636 11.8288 30.7167L11.9708 30.4488C12.2268 30.5958 12.4828 30.7439 12.7419 30.8865L12.6029 31.1555ZM56.77 33.43C56.4754 33.4104 56.1787 33.3886 55.8883 33.3624L55.9134 33.0565C56.2007 33.0826 56.4953 33.1055 56.7878 33.124L56.77 33.43ZM57.6528 33.4702L57.6633 33.1665C57.8712 33.173 58.0812 33.1795 58.2922 33.1828C58.3747 33.1839 58.4573 33.185 58.5388 33.1861L58.5367 33.491C58.4531 33.491 58.3706 33.4898 58.2859 33.4876C58.076 33.4844 57.8628 33.4789 57.6528 33.4702ZM55.0086 33.2699C54.715 33.2351 54.4194 33.1959 54.1311 33.1534L54.1728 32.8507C54.457 32.8932 54.7505 32.9324 55.041 32.9662L55.0086 33.2699ZM59.4205 33.4844L59.4143 33.1806C59.7016 33.1741 59.9962 33.1632 60.2918 33.1512L60.3044 33.4572C60.0056 33.4703 59.7089 33.4789 59.4205 33.4844ZM53.2577 33.0097C52.9662 32.9574 52.6736 32.8997 52.3884 32.8388L52.4469 32.5415C52.7301 32.6014 53.0195 32.658 53.3068 32.7092L53.2577 33.0097ZM61.185 33.406L61.1663 33.1001C61.4578 33.0805 61.7503 33.0597 62.0397 33.0336L62.0637 33.3375C61.7732 33.3636 61.4807 33.3875 61.185 33.406ZM47.7216 32.6319L47.5785 32.364C47.8125 32.2301 48.0538 32.0744 48.3213 31.8936L48.4811 32.1474C48.2095 32.3346 47.9609 32.4936 47.7216 32.6319ZM62.9444 33.2558L62.9162 32.9509C63.2077 32.9215 63.5002 32.8878 63.7896 32.8562L63.8199 33.1599C63.5295 33.1926 63.2369 33.2253 62.9444 33.2558ZM51.5213 32.6177C51.2475 32.5306 50.9728 32.4326 50.6782 32.3161L50.7837 32.0309C51.0699 32.1452 51.3385 32.241 51.6049 32.3248L51.5213 32.6177ZM11.0609 30.2659C10.8039 30.1145 10.549 29.9632 10.2962 29.8097L10.4413 29.5462C10.6942 29.6975 10.9491 29.85 11.2051 30.0013L11.0609 30.2659ZM64.6964 33.0554L64.6619 32.7506C64.9534 32.7147 65.246 32.6776 65.5333 32.6406L65.5698 32.9444C65.2804 32.9814 64.9889 33.0184 64.6964 33.0554ZM49.8602 31.9557C49.6209 31.8447 49.3952 31.7325 49.1811 31.6301L49.1195 31.5986L49.1498 31.5333L49.0421 31.3754L49.1675 31.2839L49.3002 31.3492C49.5164 31.4559 49.7421 31.5659 49.9793 31.677L49.8602 31.9557ZM66.4432 32.8322L66.4077 32.5284C66.6532 32.4968 66.9008 32.4653 67.1453 32.4348L67.2821 32.4174L67.3166 32.7211L67.1798 32.7386C66.9353 32.769 66.6908 32.8006 66.4432 32.8322ZM68.1911 32.6112L68.1555 32.3074C68.4429 32.2693 68.7354 32.2323 69.029 32.1931L69.0655 32.4958C68.7719 32.5339 68.4805 32.5731 68.1911 32.6112ZM9.53454 29.3469C9.27962 29.1902 9.02681 29.0356 8.77503 28.8777L8.92647 28.6153C9.1772 28.7721 9.42902 28.9277 9.68394 29.0834L9.53454 29.3469ZM69.9389 32.3738L69.9002 32.0711C70.1875 32.0309 70.479 31.9884 70.7694 31.9438L70.8123 32.2453C70.5197 32.29 70.2283 32.3325 69.9389 32.3738ZM71.6836 32.1114L71.6397 31.8098C71.928 31.763 72.2174 31.714 72.5068 31.665L72.5559 31.9666C72.2634 32.0167 71.973 32.0646 71.6836 32.1114ZM8.01966 28.4062L7.2643 27.9326L7.4158 27.6724L8.17117 28.1449L8.01966 28.4062ZM73.4241 31.8109L73.3729 31.5115C73.6602 31.4582 73.9496 31.4026 74.2379 31.3482L74.2934 31.6476C74.0019 31.7042 73.7125 31.7597 73.4241 31.8109ZM75.1573 31.4701L75.0988 31.1707C75.3841 31.1097 75.6724 31.0466 75.9576 30.9801L76.0213 31.2796C75.734 31.346 75.4467 31.4081 75.1573 31.4701ZM6.51633 27.4427C6.27395 27.2772 6.02633 27.1019 5.785 26.9211L5.95525 26.6718C6.19554 26.8503 6.43899 27.0235 6.6751 27.1879L6.51633 27.4427ZM76.8832 31.0738L76.8153 30.7765C77.0994 30.7068 77.3836 30.6339 77.6667 30.5577L77.7399 30.8539C77.4536 30.929 77.1684 31.003 76.8832 31.0738ZM78.5924 30.6165L78.513 30.3214C78.7961 30.2409 79.0761 30.1559 79.3572 30.0688L79.4407 30.3607C79.1597 30.4478 78.8766 30.5338 78.5924 30.6165ZM5.07351 26.3713C4.84262 26.1884 4.61073 25.9945 4.38089 25.7986L4.56581 25.5612C4.7946 25.7572 5.0244 25.9466 5.2532 26.1284L5.07351 26.3713ZM80.2838 30.0863L80.194 29.7945C80.4729 29.6997 80.7519 29.6007 81.0246 29.5016L81.1217 29.7901C80.848 29.8913 80.5659 29.9904 80.2838 30.0863ZM81.9512 29.4787L81.8489 29.1912C82.1184 29.0878 82.3931 28.9811 82.6721 28.8711L82.7776 29.1564C82.4966 29.2675 82.2207 29.3742 81.9512 29.4787ZM3.70491 25.203C3.48656 25.0016 3.26613 24.7958 3.04883 24.5878L3.24631 24.3624C3.46152 24.5693 3.67983 24.7751 3.89818 24.9733L3.70491 25.203ZM83.5998 28.8254L83.4922 28.5402C83.7607 28.4291 84.0323 28.3169 84.3071 28.1993L84.4168 28.4824C84.143 28.6 83.8693 28.7154 83.5998 28.8254ZM2.40633 23.9519C2.28618 23.8289 2.16603 23.7026 2.04484 23.5774C1.95499 23.4815 1.86724 23.3858 1.78366 23.2899L2.00097 23.0841C2.08141 23.1778 2.16602 23.2693 2.25482 23.3629C2.37287 23.4881 2.49195 23.6122 2.6121 23.7331L2.40633 23.9519ZM85.2327 28.1285L85.1178 27.8476C85.3852 27.729 85.6537 27.607 85.9233 27.4818L86.0434 27.7606C85.7707 27.8858 85.5022 28.0099 85.2327 28.1285ZM86.8448 27.3773L86.7204 27.1008C86.9837 26.9712 87.2469 26.8394 87.5102 26.7033L87.6408 26.9777C87.3754 27.1138 87.1101 27.2477 86.8448 27.3773ZM1.21952 22.567C1.03983 22.31 0.878943 22.0444 0.737905 21.7754L0.994879 21.6295C1.12965 21.8843 1.28429 22.1413 1.45667 22.3851L1.21952 22.567ZM88.4286 26.5596L88.2927 26.2896C88.5539 26.1459 88.814 26.001 89.0637 25.8573L89.2069 26.123C88.9541 26.27 88.6908 26.4159 88.4286 26.5596ZM0.361752 20.924C0.256234 20.6278 0.171636 20.324 0.113131 20.0203L0.400458 19.9593C0.457918 20.2467 0.537307 20.5353 0.637602 20.8162L0.361752 20.924ZM89.9758 25.6668L89.8253 25.4033C90.0782 25.2476 90.33 25.0875 90.5745 24.9275L90.7301 25.1866C90.4846 25.3489 90.2297 25.5089 89.9758 25.6668ZM91.4719 24.6836L91.3078 24.431C91.5533 24.2579 91.7947 24.0826 92.0256 23.9084L92.1979 24.1566C91.9639 24.3319 91.7216 24.5094 91.4719 24.6836ZM0.00447466 19.0882C-0.00283847 18.9075 -0.000758697 18.7268 0.00759916 18.546C0.0149123 18.4143 0.0264253 18.2782 0.0420963 18.1464L0.331464 18.1834C0.315793 18.3097 0.307429 18.436 0.299071 18.5634C0.290713 18.7333 0.290762 18.9053 0.29703 19.0752L0.00447466 19.0882ZM92.9052 23.6024L92.7266 23.3596C92.9596 23.1735 93.1883 22.9851 93.414 22.7956L93.5989 23.0341C93.3712 23.2257 93.1392 23.4151 92.9052 23.6024ZM94.2822 22.4527L94.0952 22.2164C94.3209 22.0204 94.5444 21.8233 94.7659 21.6274L94.9581 21.8592C94.7346 22.0574 94.511 22.2545 94.2822 22.4527ZM0.502801 17.3102L0.220767 17.2253C0.306435 16.9237 0.413986 16.6254 0.541443 16.3445L0.807855 16.4762C0.686666 16.743 0.582201 17.0228 0.502801 17.3102ZM95.6247 21.2637L95.4345 21.0318L95.5087 20.9632C95.7072 20.7868 95.9057 20.6104 96.1022 20.434L96.2933 20.6659C96.0959 20.8423 95.8974 21.0187 95.6999 21.1962L95.6247 21.2637ZM1.23623 15.7064L0.996983 15.53C1.16623 15.2774 1.36156 15.0325 1.57259 14.806L1.78264 15.0172C1.58205 15.235 1.39921 15.4658 1.23623 15.7064ZM96.9599 20.0562L96.7614 19.8319C96.9776 19.6229 97.1887 19.4083 97.3872 19.1971L97.5961 19.4116C97.3945 19.6261 97.1813 19.8439 96.9599 20.0562ZM2.42303 14.4271L2.24436 14.1832C2.47734 13.9981 2.72916 13.825 2.99348 13.6649L3.14078 13.9306C2.88586 14.083 2.64556 14.2496 2.42303 14.4271ZM98.2 18.7311L97.9774 18.5308C98.1717 18.2945 98.3493 18.0561 98.5123 17.822L98.7515 17.9983C98.5833 18.2411 98.3985 18.4883 98.2 18.7311ZM3.91285 13.5288L3.79686 13.249C4.06013 13.1303 4.34115 13.0192 4.63263 12.9212L4.72356 13.2141C4.44148 13.3078 4.16881 13.4145 3.91285 13.5288ZM5.55934 12.967L5.4883 12.6708C5.76516 12.599 6.04724 12.5326 6.35334 12.4683L6.41182 12.7677C6.10884 12.832 5.83097 12.8951 5.55934 12.967ZM7.27373 12.6044L7.22463 12.3039C7.43985 12.2669 7.64983 12.231 7.85355 12.1972L8.09382 12.1558L8.14088 12.4596L7.90055 12.4977C7.69578 12.5314 7.4879 12.5674 7.27373 12.6044ZM99.2311 17.21L98.9752 17.0598C99.1183 16.793 99.2426 16.5209 99.3449 16.2519L99.6187 16.3641C99.5111 16.6461 99.3816 16.9291 99.2311 17.21ZM9.01217 12.2996L8.95682 12.0001C9.29845 11.9294 9.56276 11.8575 9.78947 11.7769L9.88346 12.0687C9.64631 12.1537 9.36738 12.2255 9.01217 12.2996ZM10.7078 11.7116L10.5918 11.4296C10.8738 11.3022 11.1361 11.1803 11.3921 11.0561L11.5143 11.3338C11.2605 11.4579 10.9888 11.5842 10.7078 11.7116ZM12.3115 10.9342L12.1809 10.6609C12.4504 10.5183 12.7115 10.3756 12.9529 10.2352L13.096 10.503C12.8505 10.6446 12.5873 10.7905 12.3115 10.9342ZM99.883 15.4658L99.5957 15.3994C99.6563 15.1228 99.6918 14.8441 99.7054 14.5686L99.7075 14.5163L100 14.5316L99.9969 14.5861C99.9833 14.8778 99.9446 15.1729 99.883 15.4658ZM13.8608 10.0327L13.704 9.77352C13.8054 9.70711 13.9025 9.6407 14.0007 9.57319C14.1439 9.47193 14.2881 9.37067 14.4312 9.26723L14.5983 9.51873C14.4531 9.62326 14.3089 9.72453 14.1637 9.82579C14.0666 9.89656 13.9631 9.96516 13.8608 10.0327ZM99.6647 13.6312C99.626 13.3426 99.5612 13.0519 99.4724 12.7634L99.7524 12.6697C99.8454 12.9735 99.9144 13.2827 99.9551 13.5887L99.6647 13.6312ZM15.3171 8.98633L15.1468 8.73699C15.3809 8.5606 15.6169 8.38094 15.8531 8.19584L16.0286 8.44192C15.7904 8.62593 15.5553 8.80776 15.3171 8.98633ZM16.7307 7.88772L16.552 7.64383C16.7839 7.45982 17.0159 7.27472 17.2509 7.08527L17.4306 7.33026C17.1945 7.51753 16.9626 7.70371 16.7307 7.88772ZM99.1423 11.9446C99.0096 11.6833 98.8529 11.4318 98.6774 11.1999L98.9083 11.0104C99.0942 11.2575 99.2604 11.5232 99.4025 11.7998L99.1423 11.9446ZM18.1285 6.77061L17.9488 6.52781C18.1818 6.34271 18.4147 6.15759 18.6498 5.97032L18.8275 6.21531C18.5924 6.40149 18.3594 6.58551 18.1285 6.77061ZM98.0913 10.5542C97.8792 10.3582 97.6494 10.1797 97.407 10.0229L97.5606 9.76372C97.8176 9.92922 98.062 10.1176 98.2866 10.3266L98.0913 10.5542ZM86.1197 9.66789C85.8491 9.65374 85.5848 9.63633 85.3257 9.61782L85.3466 9.31295C85.6036 9.33146 85.8669 9.34887 86.1354 9.36303L86.2211 9.36738L86.2075 9.67334L86.1197 9.66789ZM87.0892 9.71255L87.0986 9.40659C87.2428 9.41203 87.3869 9.41639 87.5374 9.42074C87.6732 9.42728 87.8184 9.42729 87.971 9.42294L87.9772 9.72886C87.8205 9.73104 87.669 9.73106 87.528 9.7267C87.3786 9.72235 87.2324 9.71799 87.0892 9.71255ZM84.445 9.54379C84.1452 9.51439 83.8495 9.48173 83.5664 9.4458L83.6009 9.14309C83.883 9.17902 84.1744 9.21062 84.4722 9.24002L84.445 9.54379ZM88.8642 9.67663L88.8412 9.37177C89.093 9.34999 89.3699 9.32059 89.7125 9.28248L89.7438 9.58625C89.3991 9.62545 89.1191 9.65485 88.8642 9.67663ZM82.6899 9.32276C82.3921 9.27594 82.0985 9.22258 81.8165 9.16705L81.8718 8.86764C82.1497 8.92208 82.4391 8.97433 82.7337 9.02115L82.6899 9.32276ZM19.5305 5.66874L19.3571 5.42156C19.5922 5.23973 19.8283 5.0601 20.0696 4.88045L20.2409 5.12976C20.0017 5.30832 19.7646 5.488 19.5305 5.66874ZM80.9503 8.97652C80.6578 8.90466 80.3695 8.82625 80.0916 8.7435L80.172 8.44844C80.4457 8.5301 80.7299 8.6074 81.0172 8.67817L80.9503 8.97652ZM90.6193 9.48062L90.5849 9.17795C90.8764 9.14311 91.1668 9.10718 91.4614 9.07451L91.4927 9.37718C91.1992 9.40985 90.9087 9.44469 90.6193 9.48062ZM96.6454 9.62001C96.3831 9.50895 96.1084 9.41856 95.8294 9.35432L95.8932 9.0571C96.1889 9.1257 96.4793 9.2204 96.7561 9.33581L96.6454 9.62001ZM92.3651 9.289L92.3401 8.98523C92.6545 8.95801 92.9439 8.93622 93.2239 8.92206L93.2385 9.22802C92.9606 9.24218 92.6764 9.26069 92.3651 9.289ZM79.2454 8.46369L79.2025 8.44737C78.9393 8.35047 78.6739 8.2503 78.4148 8.14686L78.5182 7.86157C78.7762 7.96392 79.0395 8.0641 79.3007 8.15882L79.3415 8.17408L79.2454 8.46369ZM94.1109 9.20407V8.9003C94.393 8.89812 94.6698 8.90682 94.9372 8.92206L95.001 8.92426L94.9822 9.23022L94.9226 9.22586C94.6593 9.21171 94.3857 9.20407 94.1109 9.20407ZM77.5926 7.8104C77.321 7.6939 77.0483 7.5698 76.7798 7.44785L76.8989 7.16801C77.1642 7.28995 77.4359 7.41082 77.7044 7.52624L77.5926 7.8104ZM20.9566 4.6017L20.7895 4.35127C21.0318 4.17815 21.2752 4.00721 21.5228 3.83627L21.6837 4.09106C21.4382 4.25983 21.1979 4.43076 20.9566 4.6017ZM75.9764 7.06347C75.71 6.93064 75.4436 6.79454 75.1824 6.65517L75.3172 6.38191C75.5752 6.52019 75.8395 6.65736 76.1007 6.78802L75.9764 7.06347ZM22.4213 3.59999L22.2687 3.33978C22.5174 3.18082 22.7744 3.0262 23.0346 2.87812L23.1766 3.14487C22.9207 3.29186 22.6669 3.44538 22.4213 3.59999ZM74.403 6.22295C74.1471 6.07705 73.888 5.9235 73.6352 5.76889L73.7825 5.5054C74.0332 5.65892 74.2902 5.81026 74.5441 5.95616L74.403 6.22295ZM47.7279 4.28923L47.6349 4.21952C47.5649 4.16726 47.4949 4.1172 47.4259 4.0682L47.591 3.81557C47.6297 3.84279 47.6704 3.8733 47.7112 3.90379C47.8522 3.78184 47.9859 3.67076 48.1175 3.56733L48.291 3.81341C48.1395 3.931 47.9838 4.06274 47.8156 4.21081L47.7279 4.28923ZM23.9518 2.72461L23.8223 2.45021C24.0845 2.3152 24.3551 2.18348 24.6267 2.05936L24.7437 2.33917C24.4763 2.4622 24.2109 2.59177 23.9518 2.72461ZM72.8767 5.2931C72.6291 5.13414 72.3783 4.96535 72.1318 4.79658L72.2927 4.54289C72.5361 4.71057 72.7858 4.875 73.0302 5.03506L72.8767 5.2931ZM46.6852 3.59238C46.4345 3.44212 46.1775 3.29515 45.9184 3.15361L46.0552 2.88357C46.3175 3.0262 46.5797 3.17644 46.8325 3.32779L46.6852 3.59238ZM49.0139 3.31908L48.8666 3.05452C49.1195 2.90209 49.3827 2.75401 49.646 2.61356L49.7808 2.88466C49.5206 3.02403 49.2626 3.171 49.0139 3.31908ZM25.5503 1.98858L25.4416 1.70548C25.7154 1.59224 25.9943 1.48556 26.2732 1.3843L26.3694 1.67391C26.0946 1.773 25.8198 1.8797 25.5503 1.98858ZM71.3994 4.28594C71.156 4.11718 70.9073 3.95278 70.6608 3.7949L70.8154 3.53466C71.064 3.69363 71.3148 3.86132 71.5613 4.03009L71.3994 4.28594ZM45.1369 2.74637C44.8758 2.61789 44.6083 2.49378 44.3387 2.37292L44.4526 2.09202C44.7253 2.21288 44.997 2.34026 45.2613 2.47091L45.1369 2.74637ZM27.2009 1.39081L27.1153 1.09901C27.3953 1.01082 27.6826 0.925903 27.9678 0.847509L28.0419 1.14367C27.7599 1.22097 27.4778 1.3048 27.2009 1.39081ZM50.5664 2.48942L50.4442 2.21177C50.7117 2.08438 50.9854 1.96135 51.258 1.84593L51.3677 2.13013C51.0992 2.24337 50.8296 2.36421 50.5664 2.48942ZM43.527 2.03105C43.2574 1.92434 42.9806 1.82088 42.7037 1.72289L42.7999 1.43218C43.0788 1.53235 43.3588 1.63687 43.6325 1.74575L43.527 2.03105ZM69.9086 3.33214C69.6526 3.1808 69.3946 3.03493 69.1407 2.89992L69.2744 2.62771C69.5325 2.76708 69.7947 2.91405 70.0538 3.06649L69.9086 3.33214ZM28.8924 0.92699L28.8276 0.629735C29.1149 0.563318 29.4064 0.501275 29.6958 0.444657L29.7491 0.745168C29.4649 0.801786 29.1755 0.86275 28.8924 0.92699ZM41.87 1.44418C41.5942 1.35707 41.3111 1.27432 41.029 1.19484L41.1022 0.899776C41.3895 0.97817 41.6757 1.06308 41.9547 1.15018L41.87 1.44418ZM52.1858 1.80782L52.0865 1.51821C52.3623 1.41695 52.6454 1.31897 52.9275 1.2286L53.0153 1.5204C52.7353 1.61077 52.4574 1.70765 52.1858 1.80782ZM30.612 0.594912L30.5692 0.292208C30.8585 0.247567 31.1542 0.207272 31.4468 0.173519L31.4792 0.476223C31.1898 0.509976 30.8993 0.550271 30.612 0.594912ZM40.1786 0.97816C39.8955 0.911743 39.6071 0.849692 39.3219 0.791986L39.3773 0.491475C39.6667 0.549181 39.9593 0.6134 40.2445 0.680906L40.1786 0.97816ZM68.3551 2.49487C68.0897 2.36639 67.8222 2.24227 67.5569 2.12468L67.6697 1.84268C67.9382 1.96027 68.2109 2.08766 68.4783 2.21832L68.3551 2.49487ZM32.3515 0.390197L32.3285 0.0853329C32.6189 0.062468 32.9167 0.0428929 33.2113 0.0276496L33.2259 0.333577C32.9324 0.346642 32.6388 0.365154 32.3515 0.390197ZM38.458 0.635184C38.1717 0.587277 37.8792 0.545905 37.5929 0.508886L37.6274 0.206215C37.9189 0.243234 38.2135 0.285677 38.5029 0.334673L38.458 0.635184ZM34.0972 0.308556L34.0951 0.00149948C34.3877 -0.00176693 34.6844 0.000415991 34.979 0.00694882L34.9738 0.312909C34.6823 0.306376 34.3887 0.304201 34.0972 0.308556ZM36.7216 0.411994C36.4312 0.385863 36.1376 0.364064 35.8482 0.347732L35.8649 0.0418046C36.1564 0.0581367 36.4541 0.0799101 36.7477 0.10713L36.7216 0.411994ZM53.8542 1.26777L53.7789 0.972711C54.0621 0.894317 54.3525 0.819194 54.6388 0.752777L54.7035 1.04894C54.4194 1.11644 54.1331 1.18938 53.8542 1.26777ZM66.7451 1.78715C66.4735 1.68154 66.1956 1.58135 65.9208 1.4888L66.0118 1.197C66.2907 1.29063 66.5717 1.39518 66.8486 1.5008L66.7451 1.78715ZM55.5592 0.866017L55.5059 0.565506C55.7953 0.508888 56.0899 0.458795 56.3793 0.414154L56.4221 0.715761C56.1348 0.761491 55.8455 0.810488 55.5592 0.866017ZM65.0851 1.22531C64.8051 1.14474 64.5219 1.06853 64.2398 1.00212L64.3057 0.704863C64.5909 0.773457 64.8813 0.848601 65.1634 0.932439L65.0851 1.22531ZM57.2903 0.601425L57.26 0.297658C57.5536 0.264993 57.8492 0.237768 58.1418 0.217081L58.1627 0.521944C57.8733 0.54372 57.5797 0.56985 57.2903 0.601425ZM63.3853 0.817006C63.099 0.761477 62.8086 0.712478 62.5223 0.671103L62.5631 0.368433C62.8546 0.410896 63.1491 0.459903 63.4375 0.515432L63.3853 0.817006ZM59.035 0.47732L59.0266 0.172456C59.3223 0.163745 59.6201 0.159395 59.9126 0.16375L59.9084 0.469677C59.62 0.466411 59.3265 0.469698 59.035 0.47732ZM61.6542 0.565506C61.3658 0.536108 61.0723 0.51323 60.7829 0.497987L60.7975 0.19206C61.0921 0.208392 61.3888 0.231244 61.6813 0.260642L61.6542 0.565506Z" fill="white"/>
<path d="M29.5401 33.8318C25.7843 33.6271 22.0797 32.7931 18.5328 31.3504C14.9107 29.8783 11.6094 27.8052 8.41667 25.8018C6.86315 24.8263 5.23966 23.4642 3.71435 21.8571C2.2559 20.3208 2.22141 18.9162 2.44708 18.0093C2.78557 16.6548 3.84489 15.701 5.59377 15.174C6.51418 14.8964 7.38345 14.7527 8.22237 14.6122C9.23472 14.4445 10.1091 14.2997 10.9 13.9546C12.0973 13.4297 13.8587 12.6164 15.3077 11.606C16.4925 10.7807 17.6208 9.877 18.8139 8.92103C20.2013 7.81045 21.6367 6.66066 23.1861 5.62956C26.6034 3.34852 31.0372 2.23031 35.6685 2.47965C39.4902 2.68761 43.2052 3.845 46.1295 5.74061C46.4262 5.93333 46.7583 6.20552 47.1762 6.54741C47.3434 6.68569 47.5942 6.88931 47.8438 7.0853C48.0215 6.91762 48.198 6.74666 48.3276 6.61818C48.9158 6.04547 49.4235 5.55117 49.9521 5.22671C52.8795 3.44216 56.6604 2.49161 60.3284 2.619C60.4423 2.62336 60.5572 2.62882 60.6721 2.63535C64.1406 2.82262 67.3824 4.01705 70.5814 6.2872C73.0699 8.05324 75.6661 9.41967 78.5255 10.466C80.5638 11.214 82.9437 11.6398 86.0163 11.8053C86.4738 11.8292 86.9492 11.8499 87.4716 11.8651C88.4891 11.8956 89.5882 11.7617 90.7541 11.618C92.082 11.4568 93.4548 11.2859 94.8202 11.3621C96.3487 11.4438 97.2096 12.4531 97.5063 13.3688C98.107 15.2252 96.7404 16.7811 96.2243 17.3669C95.6247 18.0506 95.0062 18.5994 94.9989 18.6048C94.7252 18.8476 94.4504 19.0937 94.1746 19.3398C93.1173 20.2849 92.0235 21.2637 90.8513 22.1532C87.6753 24.566 83.7148 26.2134 80.6192 27.3817C76.1749 29.0574 71.2103 29.7716 66.9039 30.3095C66.532 30.3563 66.158 30.4031 65.785 30.4521C63.3685 30.7635 60.8706 31.0847 58.3267 31.0422C57.9255 31.0346 57.5243 31.0205 57.1347 30.9998C55.6094 30.9181 54.1248 30.7199 52.7227 30.414C51.8086 30.2125 50.9414 29.7879 50.1767 29.4123C49.8079 29.2326 49.2939 28.9811 48.9534 28.8614C48.6661 29.0345 48.2377 29.3491 47.9556 29.5571C47.4186 29.9512 46.8639 30.3606 46.2924 30.6514C44.7379 31.4407 43.2293 32.0309 41.681 32.449C37.5282 33.577 33.4443 34.0419 29.5401 33.8318Z" fill="white"/>
<path d="M10.4194 16.6549C17.4244 14.4065 22.0139 7.10825 29.1295 5.5567C32.7401 4.7695 36.7331 4.85336 40.2737 6.00205C42.08 6.58892 43.6775 7.67553 45.2153 8.80135C46.0835 9.43721 46.8461 10.4324 47.917 9.94787C49.3483 9.29785 50.4818 7.54486 51.9695 6.77725C53.3329 6.07389 54.9041 5.59484 56.4012 5.3357C60.4935 4.63234 64.3819 5.59917 67.7846 8.03592C74.2369 12.6546 81.291 14.4925 89.0868 14.4054C81.5908 16.6701 73.9601 17.6588 66.2082 18.4242C59.4362 19.0895 53.7309 17.4726 47.1523 16.8139C40.7554 16.1737 34.7648 18.7106 28.5225 19.5696C25.2943 20.0139 21.9178 19.5653 18.6812 19.3061C15.2315 19.0296 11.4422 18.3894 8.16805 17.1906C8.93384 17.0719 9.6787 16.8912 10.4194 16.6549Z" fill="#E060AE"/>
<path d="M89.5767 16.277C85.2055 20.2512 79.0322 22.4266 73.4544 23.6744C67.5924 24.9864 60.787 26.2886 54.7923 25.5025C53.2597 25.2999 51.7407 24.9537 50.3177 24.3266C49.6439 24.0304 48.6608 23.2008 47.9075 23.2465C47.0143 23.2998 46.12 24.491 45.3762 24.9711C44.1068 25.7921 42.6442 26.4715 41.2223 26.9354C35.8419 28.6883 30.1784 29.2654 24.6372 27.9327C17.7963 26.2864 11.6344 22.7162 6.27183 18.0964C7.87027 18.128 9.78945 18.9174 11.3513 19.2941C13.1096 19.7198 14.777 20.1956 16.577 20.4058C19.8826 20.7912 23.3375 21.1472 26.665 21.0547C34.0617 20.8489 40.8462 17.0229 48.385 18.3218C51.5558 18.8695 54.7244 19.5424 57.9318 19.8156C62.0585 20.1673 66.0504 19.7384 70.1436 19.2549C77.2165 18.4209 84.0522 17.4606 90.8409 15.1316C90.4125 15.5051 89.9904 15.8851 89.5767 16.277Z" fill="#E060AE"/>
<path d="M94.6865 13.9652C92.4204 13.8422 89.8389 14.5456 87.3953 14.4715C84.1221 14.3735 80.8041 14.0654 77.6929 12.9265C74.6234 11.8029 71.8517 10.3439 69.172 8.44281C66.4453 6.508 63.5691 5.34082 60.2417 5.22541C57.1931 5.1187 53.8604 5.86344 51.2131 7.47705C50.4682 7.93217 48.7914 10.0009 47.9807 10.1054C47.3549 10.186 45.4179 8.3492 44.8067 7.95396C39.0649 4.23134 30.2819 3.98636 24.5327 7.82221C21.8039 9.64378 19.3853 11.8965 16.6982 13.7714C15.2231 14.8003 13.4993 15.642 11.8642 16.3573C10.0381 17.1543 8.14289 17.1162 6.28745 17.6759C4.78512 18.1288 4.35157 18.8224 5.49242 20.0233C6.73461 21.3332 8.18787 22.6136 9.6996 23.5642C12.8422 25.5382 16.016 27.5307 19.4407 28.9232C26.5448 31.8097 33.7535 31.9098 41.0488 29.9282C42.4937 29.5362 43.8508 28.9918 45.1954 28.3091C46.285 27.756 47.9034 26.1163 48.8907 26.198C50.2049 26.3047 51.8524 27.5622 53.2346 27.8627C54.9271 28.2329 56.6363 28.4072 58.3632 28.4355C61.1119 28.4834 63.8773 28.0631 66.604 27.7223C70.9752 27.1768 75.6149 26.4974 79.7656 24.9317C82.9917 23.7155 86.5992 22.1541 89.3761 20.0473C90.7635 18.9944 92.0694 17.7739 93.3795 16.6186C93.5206 16.4934 96.2045 14.0469 94.6865 13.9652ZM11.0159 18.0776C18.0208 15.8314 22.6125 8.53211 29.7271 6.98165C33.3377 6.19445 37.3317 6.27719 40.8723 7.42697C42.6786 8.01275 44.275 9.09938 45.8128 10.2252C46.682 10.86 47.4447 11.8573 48.5145 11.3728C49.9468 10.7217 51.0783 8.96872 52.5692 8.20221C53.9315 7.49993 55.5038 7.01758 57.0009 6.76062C61.0921 6.05726 64.9805 7.02413 68.3832 9.46087C74.8355 14.0796 81.8895 15.9164 89.6864 15.8282C82.1894 18.0951 74.5587 19.0837 66.8068 19.8469C60.0358 20.5144 54.3295 18.8964 47.7508 18.2388C41.3539 17.5986 35.3634 20.1355 29.1211 20.9946C25.894 21.4388 22.5163 20.9902 19.2808 20.7311C15.8311 20.4534 12.0419 19.8132 8.76767 18.6144C9.53137 18.4968 10.2762 18.315 11.0159 18.0776ZM90.1732 17.7009C85.801 21.6751 79.6287 23.8483 74.0509 25.0971C68.1899 26.4092 61.3835 27.7125 55.3889 26.9242C53.8573 26.7217 52.3372 26.3776 50.9132 25.7505C50.2404 25.4532 49.2584 24.6235 48.502 24.6682C47.6098 24.7237 46.7176 25.9149 45.9727 26.395C44.7033 27.2149 43.2407 27.8943 41.8178 28.3581C36.4385 30.11 30.7739 30.6893 25.2337 29.3555C18.3928 27.7103 12.231 24.139 6.86835 19.5182C8.46679 19.5508 10.3859 20.3391 11.9489 20.718C13.7061 21.1426 15.3725 21.6174 17.1746 21.8297C20.4791 22.2151 23.9351 22.57 27.2605 22.4775C34.6593 22.2706 41.4438 18.4468 48.9815 19.7457C52.1523 20.2923 55.3209 20.9663 58.5293 21.2395C62.655 21.5912 66.6469 21.1622 70.7402 20.6788C77.812 19.8448 84.6487 18.8845 91.4363 16.5555C91.009 16.9279 90.5869 17.3101 90.1732 17.7009Z" fill="#2C2C2C"/>
</svg>
