<svg width="25" height="27" viewBox="0 0 25 27" fill="none" xmlns="http://www.w3.org/2000/svg">
<path d="M23.8702 21.2955C23.4788 20.5792 22.9271 20.0773 22.3502 19.5844C22.0667 19.3419 21.7772 19.0985 21.4888 18.859C21.4545 18.83 21.398 18.7779 21.3425 18.7258C21.0994 18.4984 20.7676 18.1878 20.3126 18.0015C20 17.8732 19.6621 17.8041 19.3212 17.7751C19.2536 17.194 18.9156 16.7342 18.7361 16.4927C18.6826 16.4206 18.6272 16.3454 18.5999 16.3004C18.2338 15.6822 17.8747 15.025 17.5358 14.3458C16.3798 12.0285 15.3762 9.34062 14.3817 5.88529C14.0236 4.63901 13.6857 3.35665 13.3599 2.11638L13.3569 2.10536C13.2399 1.65954 12.9281 0.475387 11.5614 0.245967C10.8705 0.129754 10.1715 0.105702 9.56323 0.0936801C9.14362 0.0485975 8.72101 0.11272 8.33166 0.280026C6.4858 1.07949 4.62883 1.91802 2.80919 2.77058C1.82775 3.23042 1.26894 4.29338 1.44747 5.35432C1.72889 7.01136 2.1818 8.66037 2.79306 10.2543C4.00447 13.4131 5.86343 16.3845 8.16926 18.848C8.29534 18.9823 8.44565 19.1526 8.60602 19.3309L8.61409 19.3399C9.54711 20.3858 10.7071 21.6882 12.0012 22.131C12.328 22.2433 12.671 22.2773 13.026 22.2342C12.9554 22.6059 12.9927 22.9866 13.141 23.3593C13.3407 23.8572 13.6887 24.2048 13.9429 24.4583C14.0095 24.5244 14.078 24.5925 14.1426 24.6627C14.652 25.2177 15.2057 25.7397 15.7867 26.2155C15.818 26.2406 15.8594 26.2746 15.9098 26.3137C15.9875 26.4159 16.0752 26.5081 16.174 26.5892C16.6279 26.9649 17.1232 26.9839 17.2866 26.9889C17.799 27.008 18.3518 27.012 18.9177 26.9208C19.2848 26.8617 19.6258 26.7655 19.9284 26.6353C20.1604 26.5351 20.3782 26.4119 20.5739 26.2696C21.6531 25.4792 22.6618 24.5835 23.5736 23.6067C23.6927 23.4785 24.0104 23.1379 24.1103 22.6079C24.191 22.1761 24.1113 21.7343 23.8702 21.2955Z" fill="#CADBE3"/>
<path d="M22.4561 21.214C22.0637 20.4976 21.5129 19.9957 20.936 19.5028C20.6525 19.2604 20.362 19.0159 20.0746 18.7775C20.0403 18.7494 19.9838 18.6963 19.9283 18.6442C19.6853 18.4178 19.3534 18.1063 18.8985 17.9199C18.5858 17.7917 18.2479 17.7226 17.9069 17.6935C17.8394 17.1124 17.5014 16.6526 17.3219 16.4112C17.2684 16.338 17.213 16.2629 17.1858 16.2188C16.8196 15.6007 16.4605 14.9435 16.1216 14.2642C14.9656 11.947 13.9621 9.25905 12.9675 5.80373C12.6094 4.55744 12.2715 3.27509 11.9447 2.03582L11.9427 2.0248C11.8247 1.57898 11.513 0.394813 10.1462 0.165393C9.45629 0.0491803 8.7573 0.0251353 8.14806 0.0141151C7.72946 -0.0309675 7.30683 0.0321528 6.91748 0.200461C5.07161 0.999925 3.21364 1.83847 1.395 2.69103C0.413567 3.15087 -0.146251 4.21381 0.0332919 5.27575C0.313702 6.93279 0.767612 8.5808 1.37786 10.1747C2.59028 13.3335 4.44925 16.306 6.75507 18.7685C6.88015 18.9027 7.03146 19.073 7.19184 19.2514L7.19991 19.2604C8.13192 20.3063 9.29189 21.6087 10.587 22.0525C10.9128 22.1637 11.2568 22.1987 11.6108 22.1557C11.5412 22.5273 11.5785 22.9081 11.7268 23.2797C11.9265 23.7776 12.2745 24.1253 12.5287 24.3787C12.5943 24.4449 12.6639 24.513 12.7284 24.5831C13.2378 25.1381 13.7906 25.6611 14.3726 26.136C14.4039 26.161 14.4452 26.1951 14.4956 26.2342C14.5733 26.3363 14.661 26.4285 14.7599 26.5096C15.2138 26.8853 15.7091 26.9044 15.8725 26.9094C16.3849 26.9284 16.9366 26.9324 17.5025 26.8423C17.8706 26.7831 18.2115 26.687 18.5141 26.5567C18.7461 26.4555 18.9641 26.3323 19.1587 26.1901C20.238 25.3996 21.2477 24.505 22.1585 23.5272C22.2785 23.3989 22.5962 23.0583 22.6961 22.5284C22.7778 22.0946 22.6971 21.6528 22.4561 21.214Z" fill="white"/>
<path d="M9.87392 1.66676C9.20618 1.50146 8.47894 1.61766 7.79305 1.70181C7.34318 1.75691 7.22917 1.83105 6.86303 1.98032C6.66835 2.06047 6.58766 2.29891 6.4636 2.46922C6.40005 2.55739 6.27096 2.85894 6.17917 2.90102C5.4146 3.24765 4.65103 3.59829 3.8915 3.95495C3.51728 4.13027 3.30343 4.532 3.37202 4.93674C3.63932 6.51163 4.066 8.05946 4.63892 9.5512C5.3813 11.4867 6.36779 13.3291 7.56609 15.0252C7.86869 15.453 8.1844 15.8718 8.51323 16.2805C8.74522 16.569 9.10631 16.8445 9.28485 17.1631C9.52793 17.5989 9.60965 18.196 9.78718 18.6669C9.9637 19.1347 10.1594 19.5946 10.3752 20.0454C10.5023 20.3099 10.6486 20.5864 10.9068 20.7277C11.0662 20.8148 11.2518 20.8399 11.4323 20.8529C12.1263 20.9 12.7819 20.7277 13.4386 20.5493C14.0377 20.385 14.5108 19.8992 14.9879 19.5295C15.468 19.1588 16.3324 18.6709 16.5856 18.1069C16.7843 17.665 16.3163 17.2683 16.0792 16.8686C15.6838 16.2044 15.3157 15.5241 14.9697 14.8329C13.5879 12.0638 12.5862 9.12441 11.7319 6.15698C11.5211 5.42764 11.3214 4.6963 11.1247 3.96296C11.0238 3.58627 10.9229 3.20958 10.8251 2.83189C10.7575 2.5664 10.7242 2.16667 10.5517 1.94727C10.46 1.83006 10.3067 1.78297 10.1624 1.7439C10.0686 1.71685 9.97076 1.6908 9.87392 1.66676Z" fill="#67C7C6" stroke="#243645" stroke-width="0.2214" stroke-miterlimit="10" stroke-linecap="round" stroke-linejoin="round"/>
<path d="M16.4 25.5332C16.2366 25.5332 16.0762 25.5291 15.9239 25.5241C15.8361 25.5211 15.7353 25.5121 15.6546 25.443C15.589 25.3899 15.5588 25.3127 15.5386 25.2566C15.3228 24.6846 15.1432 24.0935 15.004 23.4994L14.9445 23.267C14.8224 22.8072 14.6974 22.3313 15.0484 21.9055C15.1967 21.7242 15.3722 21.5569 15.5477 21.3896C15.7413 21.2042 15.9421 21.0139 16.0944 20.8075C16.2648 20.5801 16.2265 20.1553 16.1922 19.7806C16.1801 19.6544 16.17 19.5342 16.168 19.427C16.166 19.3929 16.164 19.3138 16.2255 19.2567C16.2406 19.2426 16.3112 19.2106 16.3304 19.2066C16.6249 19.1404 17.0708 19.0603 17.5166 19.0603C17.8555 19.0603 18.1409 19.1074 18.3649 19.1996C18.5847 19.2897 18.7915 19.4831 18.9741 19.6544C19.0457 19.7205 19.1154 19.7846 19.1799 19.8397C19.4644 20.0762 19.7478 20.3146 20.0282 20.554C20.5204 20.9748 20.9521 21.3645 21.2305 21.8755C21.294 21.9897 21.3526 22.1259 21.3254 22.2722C21.3022 22.3984 21.2214 22.4926 21.1357 22.5848C20.2854 23.4974 19.3433 24.334 18.3336 25.0723C18.0613 25.2717 17.7183 25.4029 17.2826 25.472C17.0274 25.5131 16.7389 25.5332 16.4 25.5332Z" fill="#67C7C6"/>
<path d="M17.5166 19.1712C17.8091 19.1712 18.0915 19.2073 18.3225 19.3014C18.6039 19.4176 18.8743 19.7292 19.1073 19.9246C19.3907 20.16 19.6742 20.3984 19.9546 20.6379C20.3994 21.0186 20.8523 21.4153 21.1327 21.9283C21.1871 22.0284 21.2366 22.1396 21.2144 22.2518C21.1952 22.353 21.1236 22.4342 21.054 22.5093C20.2057 23.419 19.2707 24.2485 18.2661 24.9839C17.9826 25.1912 17.6316 25.3044 17.2634 25.3625C16.979 25.4086 16.6834 25.4226 16.4 25.4226C16.2376 25.4226 16.0792 25.4186 15.9289 25.4126C15.8583 25.4096 15.7817 25.4046 15.7282 25.3595C15.6849 25.3235 15.6647 25.2694 15.6445 25.2173C15.4307 24.6482 15.2531 24.0662 15.1149 23.4741C14.9929 22.9531 14.7649 22.4262 15.1361 21.9753C15.4539 21.5896 15.8916 21.269 16.1862 20.8743C16.4444 20.5297 16.2921 19.8625 16.281 19.4237C16.28 19.3926 16.281 19.3586 16.3032 19.3375C16.3173 19.3245 16.3365 19.3195 16.3557 19.3155C16.6825 19.2413 17.1091 19.1712 17.5166 19.1712ZM17.5166 18.9498C17.0627 18.9498 16.6078 19.031 16.3052 19.0981C16.2729 19.1061 16.2063 19.1201 16.1478 19.1762C16.052 19.2664 16.0551 19.3886 16.0561 19.4287C16.0591 19.5379 16.0702 19.6611 16.0813 19.7893C16.1125 20.1269 16.1508 20.5467 16.0056 20.7411C15.8583 20.9394 15.6697 21.1188 15.471 21.3091C15.2965 21.4754 15.117 21.6457 14.9626 21.8341C14.5763 22.3039 14.7155 22.8299 14.8376 23.2937C14.8588 23.3709 14.8789 23.448 14.8971 23.5242C15.0383 24.1233 15.2189 24.7184 15.4347 25.2944C15.4569 25.3545 15.4952 25.4547 15.585 25.5299C15.701 25.626 15.8442 25.632 15.9209 25.634C16.0732 25.639 16.2346 25.6441 16.4 25.6441C16.7449 25.6441 17.0395 25.623 17.2997 25.5809C17.7526 25.5078 18.1128 25.3706 18.3992 25.1612C19.4139 24.4188 20.3621 23.5773 21.2184 22.6586C21.2921 22.5785 21.404 22.4592 21.4353 22.2909C21.4696 22.1086 21.3969 21.9443 21.3304 21.8211C21.0419 21.2941 20.6031 20.8964 20.1008 20.4676C19.8204 20.2271 19.5369 19.9887 19.2525 19.7523C19.189 19.6992 19.1214 19.6361 19.0518 19.5709C18.8622 19.3936 18.6473 19.1932 18.4093 19.0941C18.1702 18.9989 17.8697 18.9498 17.5166 18.9498Z" fill="#243645"/>
<path d="M2.03956 4.04353C3.85416 3.19298 5.68085 2.36947 7.52066 1.57201C8.04215 1.3456 8.64331 1.63913 8.78553 2.18613C9.51581 5.00429 10.2764 7.81946 11.2689 10.5585C11.7611 11.918 12.3119 13.2584 12.9443 14.5608C13.2661 15.225 13.609 15.8792 13.9762 16.5214C14.2203 16.9482 15.007 17.7326 14.7861 18.2255C14.5592 18.7324 13.5828 19.2754 13.138 19.6181C12.5499 20.0729 11.7389 20.8603 11.0793 20.6349C9.95863 20.2512 8.6413 18.5822 7.86059 17.7476C5.66673 15.4033 3.93587 12.6313 2.78901 9.64079C2.21709 8.14806 1.78941 6.60021 1.52211 5.02533C1.45251 4.62059 1.66635 4.21885 2.03956 4.04353Z" fill="#F6CD6C" stroke="#243645" stroke-width="0.2214" stroke-miterlimit="10" stroke-linecap="round" stroke-linejoin="round"/>
<path d="M15.3328 24.9788C15.5335 25.1431 15.7726 25.3114 16.0288 25.2694C16.173 25.2463 16.2981 25.1592 16.4151 25.073C17.4197 24.3387 18.3548 23.5082 19.2031 22.5995C19.2727 22.5244 19.3453 22.4432 19.3635 22.342C19.3847 22.2298 19.3363 22.1186 19.2818 22.0184C19.0014 21.5045 18.5485 21.1088 18.1036 20.7281C17.565 20.2682 17.0213 19.8154 16.4716 19.3696C15.2945 20.0889 14.1628 20.9986 13.2852 22.0655C12.7748 22.6856 13.3558 23.0413 13.844 23.5733C14.305 24.0762 14.8033 24.5461 15.3328 24.9788Z" fill="#F6CD6C" stroke="#243645" stroke-width="0.2214" stroke-miterlimit="10" stroke-linecap="round" stroke-linejoin="round"/>
</svg>
