<svg width="40" height="39" viewBox="0 0 40 39" fill="none" xmlns="http://www.w3.org/2000/svg">
<path d="M19.9715 1.02573C20.681 1.02573 21.3963 1.0639 22.1106 1.14115C24.6489 1.41481 27.0576 2.16037 29.2692 3.35644C31.4035 4.51062 33.2632 6.03433 34.7972 7.88382C36.3312 9.7333 37.4622 11.8173 38.1591 14.0773C38.8802 16.4183 39.1025 18.8458 38.8183 21.291C38.8009 21.4362 38.7815 21.5879 38.7593 21.7415C38.7535 21.7778 38.7477 21.8131 38.7419 21.8504L38.7361 21.8839C38.7226 21.9751 38.7081 22.0784 38.6887 22.1882C38.681 22.2329 38.6733 22.2776 38.6665 22.3213L38.6578 22.3651L38.6549 22.3818C38.6395 22.4647 38.625 22.5475 38.6095 22.6294C38.5989 22.6816 38.5892 22.7318 38.5776 22.784L38.5699 22.823L38.5679 22.8286C38.5525 22.9087 38.5361 22.9878 38.5187 23.0669C38.5042 23.1274 38.4906 23.1879 38.4771 23.2475L38.4713 23.2689C38.452 23.3462 38.4355 23.4225 38.4162 23.4979C38.3988 23.5686 38.3804 23.6384 38.363 23.7101C38.3427 23.7818 38.3253 23.8544 38.304 23.9251C38.2837 23.9986 38.2644 24.0712 38.2431 24.1438C38.2238 24.2118 38.2045 24.2788 38.1832 24.3458C38.161 24.4212 38.1378 24.4966 38.1136 24.572C38.0943 24.6344 38.074 24.6977 38.0527 24.7591C38.0285 24.8382 38.0015 24.9164 37.9754 24.9946C37.9551 25.0504 37.9358 25.1063 37.9164 25.1612L37.9145 25.1649C37.8855 25.2468 37.8555 25.3297 37.8256 25.4116C37.8101 25.4507 37.7956 25.4898 37.7801 25.5289L37.7686 25.5586C37.7347 25.6471 37.7009 25.7355 37.6651 25.8239C37.6554 25.8518 37.6439 25.8798 37.6313 25.9077L37.6207 25.9347C37.5849 26.0222 37.5424 26.1246 37.497 26.2307C37.4902 26.2465 37.4825 26.2623 37.4767 26.2781V26.2791C36.7594 27.934 35.7774 29.4922 34.5846 30.8809C35.6459 31.5539 36.7324 32.0426 37.2505 32.2408C38.3128 32.6141 39.0116 33.6491 38.8801 34.7791C38.8038 35.4446 38.452 36.0161 37.9474 36.4024C37.9464 36.4024 37.9464 36.4024 37.9464 36.4024C37.872 36.4601 37.7947 36.5122 37.7135 36.5606C37.4515 36.7179 37.1567 36.8306 36.8455 36.8855C36.7266 36.9097 36.6038 36.9329 36.4724 36.9562C36.4376 36.9627 36.4037 36.9683 36.3699 36.9739L36.3341 36.9804C36.2375 36.9972 36.1418 37.0139 36.0471 37.0288C36.0016 37.0363 35.9561 37.0428 35.9107 37.0493L35.8846 37.053C35.7976 37.066 35.7106 37.0791 35.6236 37.0902C35.5676 37.0977 35.5135 37.1051 35.4574 37.1116C35.3733 37.1228 35.2892 37.1331 35.2061 37.1424H35.2022C35.1481 37.148 35.0969 37.1545 35.0428 37.1601C34.9567 37.1694 34.8707 37.1777 34.7846 37.1843L34.7508 37.187C34.7131 37.1908 34.6754 37.1936 34.6377 37.1973C34.5488 37.2047 34.455 37.2112 34.34 37.2187L34.3236 37.2196C34.2956 37.2215 34.2685 37.2233 34.2405 37.2243C34.1109 37.2327 33.9795 37.2382 33.8529 37.2438C33.8239 37.2448 33.7968 37.2448 33.7688 37.2457H33.7523C33.6566 37.2485 33.5629 37.2513 33.4681 37.2522C33.4324 37.2522 33.3966 37.2522 33.3618 37.2522H33.3309C33.2971 37.2522 33.2652 37.2522 33.2313 37.2522C33.184 37.2522 33.1376 37.2522 33.0902 37.2513C33.0409 37.2513 32.9935 37.2503 32.9452 37.2494C32.8679 37.2475 32.7925 37.2457 32.7161 37.2429C32.6697 37.241 32.6214 37.2392 32.575 37.2373C32.4967 37.2336 32.4194 37.2299 32.3411 37.2252L32.3169 37.2233C32.2831 37.2215 32.2492 37.2196 32.2154 37.2178C32.1284 37.2112 32.0415 37.2047 31.9545 37.1973L31.939 37.1964C31.9139 37.1945 31.8878 37.1926 31.8636 37.1898C31.7814 37.1824 31.6993 37.174 31.6181 37.1656C31.4682 37.1489 31.3155 37.1303 31.1686 37.1098C31.1483 37.107 31.128 37.1042 31.1077 37.1005L31.1019 37.0995C31.0052 37.0856 30.9173 37.0726 30.8303 37.0586C30.808 37.0549 30.7868 37.0511 30.7655 37.0474L30.7491 37.0446C30.664 37.0297 30.5809 37.0148 30.4978 36.999C30.4717 36.9944 30.4437 36.9888 30.4195 36.9832C30.3344 36.9674 30.2484 36.9488 30.1633 36.9311L30.1498 36.9283L30.1024 36.918C30.0058 36.8966 29.9082 36.8743 29.8154 36.851L29.7951 36.8464C28.9696 36.6435 28.1818 36.3652 27.4433 36.0161C26.8324 36.2684 26.207 36.489 25.5739 36.677L25.5671 36.6788L25.5382 36.6872C25.4357 36.7179 25.3323 36.7468 25.2346 36.7747L25.1979 36.7849L25.1892 36.7868C24.8915 36.8687 24.5889 36.9441 24.2854 37.0121L24.2709 37.0148C24.24 37.0223 24.2081 37.0288 24.1752 37.0363C24.0882 37.0558 24.0003 37.0744 23.9133 37.0921C23.8814 37.0986 23.8485 37.1051 23.8147 37.1116L23.7886 37.1172C23.6311 37.148 23.4716 37.1777 23.3159 37.2038L23.285 37.2094C23.2531 37.214 23.2212 37.2206 23.1864 37.2261C23.1168 37.2373 23.0453 37.2485 22.9747 37.2597L22.9592 37.2615C22.8983 37.2708 22.8365 37.2801 22.7766 37.2885C22.7041 37.2987 22.6316 37.308 22.5591 37.3183C22.4866 37.3285 22.4151 37.3369 22.3416 37.3453C22.2575 37.3555 22.1754 37.3648 22.0922 37.3741C21.9772 37.3862 21.8748 37.3965 21.7771 37.4058C21.7269 37.4104 21.6766 37.4142 21.6263 37.4188L21.5964 37.4207C21.5152 37.4272 21.432 37.4337 21.3508 37.4393C21.2919 37.443 21.232 37.4477 21.173 37.4514C21.0715 37.457 20.969 37.4626 20.8675 37.4672L20.8434 37.4681C20.8144 37.47 20.7834 37.4709 20.7544 37.4719C20.6278 37.4765 20.4954 37.4802 20.3475 37.483C20.3098 37.483 20.2711 37.484 20.2334 37.484H20.2006C20.1377 37.484 20.0749 37.4849 20.0111 37.4849C19.9773 37.4849 19.9415 37.4849 19.9058 37.4849H19.8883C19.8449 37.4849 19.8014 37.4849 19.7598 37.484C19.6312 37.4821 19.5046 37.4793 19.3838 37.4756C19.3654 37.4756 19.348 37.4747 19.3297 37.4737C19.1982 37.47 19.059 37.4626 18.9015 37.4542C18.8686 37.4533 18.8367 37.4505 18.8029 37.4486L18.772 37.4467C18.6666 37.4402 18.5583 37.4318 18.451 37.4235L18.4249 37.4216C18.3911 37.4188 18.3573 37.416 18.3225 37.4132C18.161 37.3993 18.0199 37.3862 17.8856 37.3713C15.3473 37.0977 12.9395 36.3521 10.7279 35.1561C8.59363 34.0009 6.73292 32.4782 5.1999 30.6287C3.6659 28.7792 2.53495 26.6951 1.83803 24.4352C1.11598 22.0933 0.893714 19.6667 1.17886 17.2215C1.46304 14.7773 2.23826 12.4577 3.47938 10.3281C4.67796 8.27289 6.26024 6.48111 8.18088 5.00487C10.1005 3.52864 12.2667 2.43868 14.6126 1.76851C16.367 1.27612 18.1591 1.02573 19.9715 1.02573ZM18.1736 34.9764C18.2993 34.9904 18.4259 35.0025 18.5525 35.0127C18.5893 35.0155 18.6269 35.0192 18.6646 35.022C18.7584 35.0295 18.8502 35.036 18.944 35.0416C18.9817 35.0444 19.0184 35.0462 19.0561 35.049C19.1799 35.0565 19.3046 35.062 19.4283 35.0667C19.4409 35.0667 19.4534 35.0676 19.4679 35.0676C19.5781 35.0714 19.6893 35.0732 19.8014 35.0751C19.843 35.076 19.8845 35.076 19.928 35.076C19.958 35.076 19.9889 35.076 20.0188 35.076C20.0739 35.076 20.1281 35.076 20.1832 35.076C20.2267 35.0751 20.2692 35.0751 20.3117 35.0751C20.4296 35.0732 20.5476 35.0704 20.6646 35.0658C20.6965 35.0648 20.7293 35.063 20.7632 35.0611C20.8511 35.0574 20.94 35.0527 21.028 35.0472C21.0783 35.0444 21.1295 35.0406 21.1817 35.0369C21.2522 35.0323 21.3228 35.0267 21.3953 35.0211C21.4475 35.0164 21.4987 35.0127 21.5519 35.0081C21.6437 34.9997 21.7336 34.9904 21.8235 34.9811C21.897 34.9736 21.9685 34.9643 22.041 34.9559C22.1028 34.9485 22.1667 34.941 22.2276 34.9336C22.2914 34.9252 22.3541 34.9159 22.416 34.9075C22.4692 34.9001 22.5214 34.8926 22.5745 34.8843C22.6403 34.874 22.707 34.8638 22.7727 34.8535C22.8085 34.848 22.8462 34.8405 22.882 34.834C23.0202 34.8107 23.1564 34.7856 23.2937 34.7586C23.3295 34.7512 23.3652 34.7446 23.4 34.7372C23.4764 34.7214 23.5518 34.7055 23.6272 34.6888C23.6591 34.6823 23.69 34.6748 23.7219 34.6683C23.9858 34.6097 24.2468 34.5445 24.5068 34.4738C24.5193 34.4701 24.5319 34.4663 24.5454 34.4626C24.6344 34.4384 24.7213 34.4133 24.8074 34.3872C24.819 34.3844 24.8287 34.3807 24.8393 34.3779C25.7808 34.0987 26.6894 33.7385 27.5545 33.3066C28.2698 33.7627 29.219 34.2187 30.4224 34.5147C30.4262 34.5157 30.4311 34.5166 30.4359 34.5175C30.5133 34.5361 30.5906 34.5548 30.6679 34.5715C30.6853 34.5752 30.7017 34.579 30.7172 34.5827C30.7858 34.5976 30.8554 34.6115 30.925 34.6246C30.9453 34.6292 30.9666 34.633 30.9888 34.6376C31.0545 34.6497 31.1231 34.6618 31.1908 34.6739C31.213 34.6776 31.2362 34.6814 31.2585 34.6851C31.33 34.6972 31.4035 34.7083 31.4798 34.7195C31.4972 34.7223 31.5137 34.7251 31.533 34.7279C31.6538 34.7446 31.7756 34.7595 31.9013 34.7735C31.968 34.7809 32.0356 34.7875 32.1033 34.793C32.1275 34.7949 32.1535 34.7968 32.1777 34.7996C32.2483 34.8051 32.3198 34.8107 32.3942 34.8163C32.4281 34.8182 32.4638 34.82 32.4986 34.8228C32.5624 34.8266 32.6262 34.8303 32.692 34.8321C32.7306 34.834 32.7693 34.8349 32.8089 34.8368C32.8708 34.8387 32.9356 34.8405 32.9994 34.8414C33.0399 34.8414 33.0805 34.8424 33.1211 34.8433C33.1588 34.8433 33.1965 34.8433 33.2342 34.8433C33.2622 34.8433 33.2932 34.8433 33.3222 34.8433C33.3599 34.8433 33.3995 34.8433 33.4382 34.8424C33.5165 34.8414 33.5957 34.8396 33.6769 34.8377C33.704 34.8368 33.732 34.8368 33.761 34.8359C33.8693 34.8321 33.9795 34.8266 34.0906 34.82C34.1167 34.8182 34.1467 34.8163 34.1737 34.8145C34.2588 34.8089 34.3419 34.8033 34.428 34.7958C34.4695 34.7921 34.5121 34.7884 34.5536 34.7847C34.6271 34.7782 34.7005 34.7716 34.775 34.7633C34.8214 34.7586 34.8678 34.753 34.9151 34.7474C34.9867 34.74 35.0582 34.7307 35.1326 34.7214C35.18 34.7149 35.2274 34.7093 35.2747 34.7018C35.3492 34.6916 35.4245 34.6813 35.4999 34.6692C35.5463 34.6627 35.5927 34.6553 35.6401 34.6478C35.7232 34.6348 35.8073 34.6208 35.8914 34.606C35.9311 34.5994 35.9717 34.592 36.0122 34.5855C36.1369 34.5631 36.2635 34.5389 36.3911 34.5129C36.3911 34.5129 32.9636 33.2423 30.927 31.0717C32.7432 29.5145 34.2076 27.5673 35.1674 25.3474C35.1732 25.3353 35.179 25.3232 35.1848 25.3101C35.2206 25.2254 35.2554 25.1389 35.2902 25.0542C35.3037 25.0216 35.3163 24.9899 35.3298 24.9574C35.3598 24.881 35.3907 24.8047 35.4187 24.7274C35.4361 24.6846 35.4526 24.6427 35.4681 24.599C35.4942 24.5283 35.5212 24.4566 35.5454 24.3849C35.5627 24.3356 35.5811 24.2863 35.5985 24.2369C35.6207 24.169 35.644 24.101 35.6652 24.0331C35.6836 23.9782 35.7 23.9242 35.7184 23.8702C35.7387 23.805 35.759 23.7399 35.7783 23.6747C35.7967 23.6161 35.8131 23.5584 35.8305 23.4997C35.8489 23.4364 35.8672 23.3731 35.8846 23.3108C35.902 23.2484 35.9185 23.1861 35.934 23.1237C35.9514 23.0632 35.9659 23.0018 35.9813 22.9413C35.9978 22.8752 36.0132 22.8082 36.0287 22.7421C36.0422 22.6834 36.0557 22.6257 36.0692 22.5661C36.0857 22.4963 36.0983 22.4256 36.1137 22.3539C36.1253 22.2981 36.136 22.2422 36.1476 22.1864C36.1631 22.1101 36.1756 22.0328 36.1901 21.9565C36.1997 21.9053 36.2094 21.855 36.2171 21.8029C36.2326 21.7145 36.2452 21.627 36.2587 21.5376C36.2645 21.4967 36.2722 21.4557 36.278 21.4148C36.2974 21.2844 36.3138 21.1541 36.3293 21.0229C37.3394 12.3423 30.8506 4.51714 21.8361 3.54446C21.2145 3.47744 20.5979 3.44487 19.9879 3.44487C11.7361 3.44487 4.62575 9.41869 3.68622 17.5008C2.66935 26.1786 9.15909 34.0037 18.1736 34.9764ZM19.9715 0C18.0586 0 16.1563 0.267137 14.3159 0.793035C11.8376 1.5023 9.55056 2.65183 7.5236 4.21184C5.4947 5.77092 3.82538 7.66322 2.5572 9.83476C1.24649 12.0845 0.4278 14.5334 0.127187 17.1164C-0.174393 19.6984 0.0614294 22.2618 0.823111 24.7349C1.55966 27.1224 2.75441 29.3237 4.37347 31.2765C5.99349 33.2302 7.95758 34.8387 10.2127 36.058C12.5489 37.3211 15.0931 38.1095 17.7734 38.398C17.9146 38.4138 18.0653 38.4278 18.2345 38.4418C18.2712 38.4445 18.309 38.4483 18.3466 38.4511L18.3698 38.4529C18.4829 38.4622 18.597 38.4697 18.7101 38.4771L18.74 38.479C18.7748 38.4808 18.8106 38.4836 18.8463 38.4855C19.0107 38.4948 19.1576 38.5013 19.2987 38.5069C19.319 38.5069 19.3393 38.5078 19.3596 38.5078C19.4862 38.5116 19.6187 38.5144 19.7511 38.5162C19.7956 38.5171 19.842 38.5171 19.8883 38.5171H19.9058C19.9435 38.5171 19.9811 38.5171 20.0169 38.5171C20.0836 38.5171 20.1513 38.5171 20.217 38.5171L20.2489 38.5162C20.2895 38.5162 20.3301 38.5162 20.3716 38.5153C20.5263 38.5125 20.6684 38.5088 20.8018 38.5041C20.8366 38.5023 20.8695 38.5013 20.9043 38.4995L20.9236 38.4985C21.0299 38.4939 21.1382 38.4883 21.2436 38.4818C21.3064 38.4781 21.3692 38.4743 21.4321 38.4697C21.5181 38.4641 21.605 38.4576 21.6911 38.4501L21.7201 38.4483C21.7742 38.4436 21.8283 38.4399 21.8834 38.4343C21.9849 38.425 22.0951 38.4148 22.2159 38.4017C22.3029 38.3924 22.3919 38.3822 22.4779 38.3719C22.5552 38.3626 22.6316 38.3533 22.7079 38.3431C22.7833 38.3338 22.8607 38.3226 22.9361 38.3114C23.0018 38.3021 23.0665 38.2928 23.1303 38.2826L23.1458 38.2807C23.2212 38.2686 23.2956 38.2575 23.37 38.2454C23.4077 38.2398 23.4435 38.2333 23.4793 38.2267L23.5083 38.2221C23.6736 38.1942 23.8398 38.1634 24.0051 38.1309L24.0303 38.1262C24.066 38.1188 24.1018 38.1123 24.1375 38.1048C24.2284 38.0862 24.3202 38.0666 24.413 38.0462C24.4469 38.0387 24.4807 38.0313 24.5145 38.0238L24.529 38.021C24.847 37.9494 25.1679 37.8693 25.4831 37.7837L25.4888 37.7818L25.5265 37.7716C25.5285 37.7716 25.5295 37.7716 25.5304 37.7706C25.6339 37.7418 25.7421 37.7111 25.8513 37.6785L25.8842 37.6683L25.8929 37.6664C26.4042 37.5138 26.9165 37.3397 27.4182 37.1461C28.0919 37.4337 28.8024 37.6701 29.5331 37.8498C29.5351 37.8498 29.536 37.8507 29.538 37.8507L29.5583 37.8554C29.6568 37.8796 29.7603 37.9038 29.8656 37.927C29.8666 37.927 29.8675 37.927 29.8695 37.928L29.9178 37.9382L29.9304 37.941C30.0232 37.9605 30.115 37.9801 30.2078 37.9978C30.2339 38.0024 30.2629 38.0089 30.2919 38.0145C30.3827 38.0322 30.4727 38.048 30.5626 38.0639L30.578 38.0657C30.6022 38.0694 30.6264 38.0741 30.6505 38.0778C30.7443 38.0936 30.839 38.1076 30.9405 38.1225C30.9666 38.1262 30.9908 38.1299 31.0159 38.1337C31.1744 38.156 31.3378 38.1755 31.4992 38.1932C31.5862 38.2025 31.6751 38.2119 31.7631 38.2193C31.7911 38.2212 31.822 38.2239 31.852 38.2267L31.8645 38.2277C31.9564 38.2351 32.0472 38.2426 32.141 38.2491C32.1777 38.2509 32.2145 38.2537 32.2522 38.2556L32.2782 38.2565C32.3594 38.2612 32.4426 38.2658 32.5276 38.2696C32.5769 38.2714 32.6281 38.2733 32.6784 38.2751C32.7596 38.2779 32.8408 38.2798 32.923 38.2817C32.9752 38.2826 33.0255 38.2835 33.0767 38.2845C33.1289 38.2845 33.1792 38.2845 33.2304 38.2845C33.2652 38.2845 33.299 38.2845 33.3328 38.2845H33.3628C33.4014 38.2845 33.4401 38.2845 33.4807 38.2835C33.5696 38.2826 33.6644 38.2807 33.7803 38.277H33.7939C33.8258 38.277 33.8577 38.2761 33.8925 38.2742C34.0288 38.2696 34.167 38.263 34.3062 38.2547C34.3381 38.2528 34.37 38.2509 34.4038 38.2481H34.4164C34.5353 38.2407 34.6348 38.2333 34.7276 38.2258C34.7692 38.2221 34.8117 38.2184 34.8533 38.2146L34.8861 38.2118C34.975 38.2044 35.0659 38.196 35.1568 38.1858C35.2129 38.1802 35.2689 38.1737 35.325 38.1672C35.326 38.1672 35.3318 38.1662 35.3327 38.1662C35.4178 38.1569 35.5077 38.1467 35.5966 38.1346C35.6556 38.1271 35.7126 38.1188 35.7725 38.1113C35.8634 38.0983 35.9543 38.0853 36.0471 38.0713L36.0731 38.0676C36.1205 38.0601 36.1698 38.0527 36.2181 38.0452C36.3187 38.0294 36.4192 38.0117 36.5216 37.994L36.5535 37.9894C36.5893 37.9829 36.627 37.9764 36.6666 37.9698C36.802 37.9456 36.9257 37.9214 37.0484 37.8972C37.4843 37.8181 37.8981 37.6627 38.276 37.4356C38.3891 37.3676 38.4984 37.2922 38.6047 37.2122C38.6047 37.2122 38.6047 37.2122 38.6047 37.2112C38.6066 37.2112 38.6066 37.2103 38.6076 37.2103C39.3577 36.636 39.8303 35.8151 39.9376 34.8982C40.1203 33.3215 39.173 31.8387 37.6304 31.2886C37.3278 31.1723 36.7807 30.933 36.1602 30.6035C37.0871 29.3823 37.8565 28.0681 38.4558 26.684C38.4645 26.6644 38.4732 26.6458 38.48 26.6263C38.5293 26.5127 38.5737 26.4057 38.6105 26.3145L38.6221 26.2902C38.6337 26.2595 38.6463 26.2288 38.6598 26.1972C38.6955 26.1041 38.7313 26.0101 38.767 25.917L38.7787 25.8881C38.7951 25.8463 38.8115 25.8034 38.8279 25.7616C38.8589 25.675 38.8898 25.5875 38.9207 25.5009L38.9227 25.4991C38.943 25.4386 38.9643 25.3799 38.9846 25.3213C39.0126 25.2385 39.0416 25.1556 39.0677 25.0728C39.088 25.0067 39.1112 24.9406 39.1315 24.8745C39.1556 24.7945 39.1807 24.7153 39.2049 24.6353C39.2252 24.5646 39.2465 24.4929 39.2668 24.4221C39.2881 24.3449 39.3103 24.2686 39.3315 24.1913C39.3518 24.1159 39.3722 24.0396 39.3925 23.9642C39.4128 23.8888 39.4311 23.8153 39.4495 23.7408C39.4698 23.6608 39.4881 23.5798 39.5074 23.4988L39.5123 23.4774C39.5287 23.4132 39.5423 23.3489 39.5568 23.2847C39.5761 23.2019 39.5925 23.1172 39.6099 23.0325L39.6119 23.026L39.6196 22.9878C39.6322 22.9329 39.6418 22.877 39.6534 22.8221C39.6708 22.7356 39.6853 22.6471 39.7027 22.5596L39.7047 22.5438L39.7124 22.5019C39.7221 22.4554 39.7307 22.4061 39.7385 22.3577C39.7578 22.2413 39.7733 22.1333 39.7878 22.0393L39.7936 22.0077C39.7994 21.9686 39.8061 21.9276 39.8119 21.8857C39.8351 21.7247 39.8564 21.5646 39.8728 21.4101C40.1744 18.8281 39.9386 16.2647 39.1769 13.7906C38.4413 11.4031 37.2466 9.20275 35.6266 7.24902C34.0066 5.29528 32.0434 3.68687 29.7883 2.46753C27.452 1.20445 24.9069 0.416994 22.2266 0.127518C21.4794 0.0418849 20.7196 0 19.9715 0ZM18.2915 33.9581C9.87438 33.0497 3.79443 25.7169 4.73783 17.6115C5.60971 10.1177 12.1633 4.46688 19.9822 4.46688C20.5563 4.46688 21.1372 4.49852 21.7114 4.56089C30.1286 5.46934 36.2094 12.8021 35.266 20.9065C35.2505 21.0248 35.2361 21.1485 35.2167 21.2742C35.2148 21.2938 35.2109 21.3133 35.208 21.3328C35.2051 21.3524 35.2032 21.371 35.1993 21.3906C35.1868 21.4734 35.1751 21.5562 35.1606 21.6381C35.1558 21.6679 35.15 21.6968 35.1442 21.7266L35.1346 21.7824L35.1307 21.8001C35.1191 21.8662 35.1084 21.9323 35.0949 21.9974C35.0872 22.0356 35.0795 22.0728 35.0727 22.1101L35.0631 22.1547L35.0611 22.1603C35.0476 22.2255 35.036 22.2897 35.0215 22.3539C35.0099 22.4014 35.0002 22.4489 34.9886 22.4954L34.9838 22.5177C34.9683 22.5801 34.9548 22.6425 34.9383 22.7039C34.9248 22.7616 34.9103 22.8184 34.8949 22.8752C34.8794 22.9338 34.8649 22.9915 34.8494 23.0502C34.832 23.1097 34.8156 23.1684 34.7982 23.227C34.7827 23.2819 34.7663 23.3368 34.7498 23.3918C34.7315 23.4523 34.7131 23.5137 34.6928 23.5742C34.6764 23.6254 34.6619 23.6757 34.6445 23.7268C34.6242 23.7901 34.6029 23.8544 34.5807 23.9177C34.5652 23.9623 34.5507 24.007 34.5333 24.0526C34.5082 24.1224 34.484 24.1885 34.4599 24.2555C34.4492 24.2835 34.4396 24.3123 34.428 24.3402L34.4144 24.3756C34.3874 24.4473 34.3594 24.519 34.3313 24.5897C34.3236 24.6064 34.3178 24.6223 34.311 24.6381L34.2936 24.68C34.2608 24.76 34.2279 24.8401 34.1931 24.9192L34.1902 24.9276L34.1796 24.9527C33.3 26.9846 31.9293 28.835 30.2126 30.3057C30.001 30.4872 29.8724 30.7422 29.8579 31.0159C29.8424 31.2886 29.941 31.5567 30.1305 31.7587C30.8863 32.5647 31.8046 33.2507 32.6891 33.8064C32.6456 33.8045 32.6021 33.8018 32.5586 33.7999L32.5286 33.798C32.5064 33.7971 32.4842 33.7962 32.4629 33.7943C32.3972 33.7897 32.3305 33.785 32.2667 33.7785L32.2299 33.7757L32.199 33.7738C32.1371 33.7682 32.0762 33.7617 32.0163 33.7552C31.9051 33.7431 31.792 33.7291 31.6818 33.7133L31.6625 33.7105L31.6345 33.7068C31.5659 33.6966 31.4992 33.6873 31.4344 33.6761L31.3958 33.6696L31.3745 33.6659C31.3126 33.6556 31.2508 33.6444 31.1918 33.6333L31.1338 33.6221C31.071 33.6091 31.0081 33.597 30.9482 33.583L30.9289 33.5793L30.9047 33.5737C30.8332 33.5579 30.7636 33.5421 30.6949 33.5253L30.6795 33.5225C29.7486 33.2926 28.8932 32.9333 28.1393 32.453C27.9604 32.3404 27.7565 32.2827 27.5516 32.2827C27.3834 32.2827 27.2152 32.3209 27.0615 32.3981C26.2515 32.8039 25.397 33.14 24.5222 33.4006L24.5068 33.4052L24.4923 33.409C24.4111 33.4332 24.328 33.4574 24.2468 33.4797L24.2294 33.4843L24.2091 33.489C23.9674 33.556 23.721 33.6175 23.4764 33.6724L23.4657 33.6742C23.4396 33.6798 23.4136 33.6863 23.3884 33.6919C23.3169 33.7077 23.2473 33.7226 23.1748 33.7366C23.1526 33.7412 23.1294 33.7459 23.1062 33.7506L23.0752 33.7571C22.9467 33.7822 22.8181 33.8055 22.6925 33.8278L22.6461 33.8362C22.6268 33.839 22.6074 33.8427 22.5881 33.8464C22.5311 33.8557 22.475 33.8641 22.417 33.8725L22.4025 33.8744C22.3522 33.8818 22.3039 33.8892 22.2556 33.8958C22.1966 33.9041 22.1386 33.9125 22.0777 33.92C22.0188 33.9274 21.9608 33.9339 21.9028 33.9414C21.8361 33.9497 21.7674 33.9581 21.6998 33.9646C21.6157 33.9739 21.5306 33.9823 21.4446 33.9898C21.4069 33.9926 21.3692 33.9963 21.3315 33.9991L21.2987 34.0019C21.232 34.0065 21.1652 34.0121 21.0995 34.0168C21.0502 34.0196 21.0028 34.0224 20.9555 34.0261C20.8733 34.0307 20.7902 34.0354 20.7071 34.0391L20.6578 34.041C20.6443 34.041 20.6307 34.0419 20.6162 34.0428C20.5157 34.0466 20.4084 34.0493 20.2856 34.0512C20.2586 34.0521 20.2306 34.0521 20.2045 34.0521H20.1658C20.1155 34.0521 20.0652 34.0531 20.0121 34.0531C19.984 34.0531 19.9551 34.0531 19.9271 34.0531H19.9096C19.8758 34.0531 19.842 34.0531 19.8091 34.0521C19.7009 34.0512 19.5955 34.0484 19.4959 34.0456L19.4659 34.0447H19.4582C19.3548 34.041 19.2408 34.0354 19.1112 34.0279C19.089 34.027 19.0639 34.0251 19.0416 34.0242L19.0078 34.0223C18.9198 34.0168 18.8318 34.0102 18.7458 34.0037L18.7178 34.0019C18.6936 34 18.6666 33.9981 18.6415 33.9954C18.5139 33.9805 18.3969 33.9693 18.2915 33.9581Z" fill="#51332A"/>
<path d="M20.0024 35.0751C29.0729 35.0751 36.4259 27.9944 36.4259 19.26C36.4259 10.5255 29.0729 3.44487 20.0024 3.44487C10.932 3.44487 3.5789 10.5255 3.5789 19.26C3.5789 27.9944 10.932 35.0751 20.0024 35.0751Z" fill="#FE7165"/>
<path d="M36.3892 34.512C36.3892 34.512 30.1392 32.198 29.5022 28.4748L25.8098 31.7782C25.8098 31.7773 28.8652 36.0422 36.3892 34.512Z" fill="#FE7165"/>
<path d="M18.4191 15.9761C17.9204 13.3867 15.0911 11.432 12.3837 11.8062C9.67621 12.1803 7.53326 14.8238 7.8126 17.444C7.98563 19.0766 8.96673 20.55 10.2088 21.6726C11.4509 22.796 12.9491 23.6151 14.4319 24.4249C17.0688 25.863 19.7056 27.3029 22.3425 28.741C23.9191 27.329 25.5197 25.5828 26.8285 23.9372C28.1373 22.2906 29.1696 20.3927 29.4886 18.3431C29.8076 16.2926 29.3523 14.0801 27.9778 12.4838C26.6053 10.8875 24.2526 10.0349 22.1956 10.6445C20.0217 11.2887 18.0828 13.8111 18.4191 15.9761Z" fill="white"/>
<path d="M20.0199 35.5898C19.3858 35.5898 18.7497 35.5554 18.1128 35.4865C8.82178 34.484 2.10874 26.3889 3.15073 17.4412C3.65433 13.1065 5.88235 9.22044 9.42107 6.49973C12.9608 3.77902 17.3878 2.54758 21.8902 3.03253C31.1803 4.03592 37.8932 12.1301 36.8522 21.0778C36.4066 24.9099 34.5778 28.445 31.6848 31.0913C33.6373 32.9287 36.5477 34.0214 36.5796 34.0335C36.7991 34.1154 36.9373 34.3258 36.9189 34.5529C36.9006 34.78 36.7295 34.9671 36.4975 35.0136C32.1942 35.8886 29.275 34.9289 27.5255 33.893C25.1815 35.0136 22.622 35.5889 20.0199 35.5898ZM19.9899 3.95494C12.0135 3.95494 5.11774 9.74541 4.20913 17.5548C3.23286 25.9403 9.52356 33.5272 18.2326 34.4663C21.3741 34.8061 24.5136 34.2457 27.3119 32.8477C27.483 32.7621 27.6898 32.7723 27.8503 32.8747C29.1735 33.718 31.3561 34.5706 34.573 34.2653C33.3667 33.6612 31.7312 32.6913 30.5287 31.4115C30.434 31.31 30.3857 31.176 30.3924 31.0401C30.3992 30.9042 30.464 30.7757 30.5703 30.6855C33.502 28.1723 35.3579 24.7191 35.7958 20.9633C36.772 12.5778 30.4814 4.99091 21.7723 4.05081C21.174 3.98659 20.5786 3.95494 19.9899 3.95494Z" fill="#51332A"/>
<path d="M22.3426 29.2548C22.2537 29.2548 22.1628 29.2325 22.0806 29.1878L14.17 24.8708C12.6805 24.0582 11.1397 23.2177 9.84443 22.0468C8.36167 20.7064 7.45117 19.0906 7.28298 17.4961C6.97656 14.6079 9.32441 11.7122 12.3083 11.2989C14.5673 10.9862 16.8919 12.1366 18.1282 13.9517C18.7285 12.252 20.2432 10.6864 22.0391 10.154C24.2101 9.51084 26.8208 10.3346 28.3887 12.1562C29.7883 13.7832 30.3818 16.0655 30.0154 18.4185C29.7129 20.3611 28.7831 22.3223 27.252 24.2481C25.834 26.0324 24.2198 27.76 22.7061 29.1161C22.6046 29.2074 22.474 29.2548 22.3426 29.2548ZM13.0719 12.2716C12.867 12.2716 12.6631 12.2855 12.4591 12.3135C10.0146 12.6523 8.08909 15.0249 8.34138 17.3919C8.48443 18.7406 9.27803 20.1284 10.5733 21.2993C11.7757 22.3865 13.2594 23.1963 14.6948 23.9791L22.2633 28.11C23.6524 26.8338 25.111 25.2552 26.4062 23.6263C27.8261 21.8401 28.6854 20.0372 28.9619 18.2677C29.2789 16.233 28.758 14.1937 27.569 12.8114C26.268 11.2998 24.124 10.611 22.3523 11.1351C20.3524 11.7271 18.6666 14.0876 18.9479 15.9007C18.9904 16.1772 18.7962 16.4359 18.51 16.4825C18.223 16.529 17.9513 16.3457 17.8982 16.0701C17.4825 13.9256 15.3135 12.2716 13.0719 12.2716Z" fill="#51332A"/>
</svg>
