<svg width="62" height="68" viewBox="0 0 62 68" fill="none" xmlns="http://www.w3.org/2000/svg">
<path d="M18.5338 13.4649C18.529 13.4687 18.5242 13.4714 18.5203 13.4752C18.5048 13.4854 18.4913 13.4956 18.4768 13.5059C18.3106 13.6315 18.1415 13.7627 17.9715 13.8995C17.9715 13.8995 17.9705 13.9004 17.9695 13.9013C17.8313 14.0121 17.6931 14.1256 17.5521 14.2428C17.5318 14.2596 17.5124 14.2763 17.4921 14.2931C17.4525 14.3266 17.4139 14.3601 17.3743 14.3936C17.3588 14.4066 17.3443 14.4187 17.3308 14.4317C17.2535 14.4978 17.1762 14.5657 17.0998 14.6336C17.0834 14.6485 17.067 14.6634 17.0496 14.6773C17.0071 14.7164 16.9646 14.7546 16.9211 14.7937C16.9104 14.8039 16.8999 14.8132 16.8892 14.8234C16.2698 15.3864 15.6456 16.0191 15.0475 16.7244C14.9702 16.8156 14.8948 16.9068 14.8214 16.997C14.8156 17.0045 14.8098 17.011 14.804 17.0175C15.7075 15.8963 16.9559 14.5796 18.5338 13.4649ZM18.5328 12.4405C18.4333 12.4405 18.3357 12.4535 18.2391 12.4796C18.1125 12.514 17.9956 12.5707 17.8941 12.6452C16.4795 13.6464 15.1557 14.9062 13.9633 16.3894C13.6049 16.8351 13.6899 17.4781 14.1518 17.8252C14.345 17.9712 14.575 18.042 14.8049 18.042C15.1199 18.042 15.433 17.907 15.6427 17.6502L15.6456 17.6465L15.6592 17.6307C15.6601 17.6288 15.6611 17.6279 15.663 17.626C15.7403 17.5293 15.806 17.4492 15.8708 17.3748C16.3993 16.7514 16.9877 16.1438 17.6207 15.5687L17.6362 15.5557L17.6535 15.5399C17.6931 15.5036 17.7347 15.4664 17.7743 15.4301L17.8081 15.4003L17.8227 15.3873C17.8961 15.3222 17.9685 15.2589 18.0429 15.1956L18.0632 15.1779L18.0845 15.1593C18.1222 15.1268 18.1599 15.0951 18.1976 15.0626L18.2536 15.0151C18.385 14.9044 18.5184 14.7955 18.6527 14.6885C18.6527 14.6876 18.6526 14.6876 18.6546 14.6876C18.8169 14.5573 18.9773 14.4326 19.128 14.3182L19.1561 14.2986L19.1599 14.2959C19.1657 14.2921 19.1715 14.2875 19.1773 14.2838L19.1802 14.2819C19.2112 14.2596 19.2401 14.2363 19.2662 14.2112C19.3358 14.1488 19.3938 14.0791 19.4421 14.0046C19.5426 13.8483 19.6006 13.6641 19.6006 13.4668C19.6006 12.915 19.1474 12.4647 18.5792 12.4423C18.5628 12.4405 18.5464 12.4405 18.5328 12.4405Z" fill="#51332A"/>
<path d="M31.5707 8.51293C31.5611 8.51293 31.5524 8.51386 31.5447 8.51479C31.4248 8.5213 31.305 8.52968 31.1823 8.53898C30.2402 8.61621 29.3464 8.75299 28.5134 8.92699C28.498 8.92978 28.4835 8.93257 28.468 8.9363C28.411 8.94839 28.354 8.96049 28.2961 8.97258C28.2748 8.97724 28.2526 8.98282 28.2304 8.98747C28.1289 9.0098 28.0264 9.03307 27.925 9.05726C27.9076 9.06191 27.8892 9.06563 27.8718 9.07028C27.8187 9.08238 27.7685 9.09448 27.7173 9.1075C27.6931 9.11402 27.667 9.1196 27.6428 9.12611C27.4621 9.17078 27.2853 9.2173 27.1114 9.26382H27.1105C26.8969 9.32244 26.6882 9.382 26.4862 9.44341C26.4689 9.44806 26.4534 9.45457 26.436 9.45922C26.4302 9.46109 26.4244 9.46295 26.4186 9.46481C28.2661 8.84232 30.0991 8.59481 31.5707 8.51293ZM31.5717 7.48847C31.5611 7.48847 31.5505 7.48847 31.5389 7.48847C31.5254 7.48847 31.5137 7.4894 31.5002 7.49033C29.5551 7.60013 27.7269 7.93789 26.0688 8.49804C25.52 8.68321 25.2262 9.25917 25.4107 9.79047C25.5596 10.2185 25.9741 10.4902 26.4195 10.4902C26.5268 10.4902 26.637 10.4744 26.7452 10.4409L26.7607 10.4372C26.7665 10.4353 26.7713 10.4334 26.7761 10.4316L26.7896 10.4279L26.8147 10.4195C26.9983 10.3636 27.1955 10.3078 27.3974 10.2529C27.3994 10.2529 27.4013 10.252 27.4032 10.252C27.5694 10.2064 27.7405 10.1617 27.9086 10.1199L27.9801 10.1022C28.0293 10.0901 28.0777 10.078 28.127 10.0668L28.1521 10.0612L28.1772 10.0557C28.2738 10.0333 28.3705 10.011 28.469 9.98867L28.4893 9.98494L28.5328 9.97564C28.5859 9.96354 28.64 9.95238 28.6951 9.94028L28.7173 9.93563L28.7376 9.93191C29.587 9.75512 30.4402 9.63136 31.2702 9.56344C31.3727 9.55506 31.4789 9.54762 31.6065 9.54018C31.6094 9.54018 31.6123 9.54018 31.6143 9.54018L31.6335 9.53925H31.6355C31.6712 9.53739 31.707 9.53366 31.7418 9.52808C32.2761 9.4462 32.6675 8.98561 32.6337 8.45524C32.6182 8.20773 32.5129 7.98535 32.3496 7.81693C32.194 7.65689 31.9872 7.54523 31.7543 7.50708C31.6935 7.49313 31.6326 7.48847 31.5717 7.48847Z" fill="#51332A"/>
<path d="M13.3826 19.0208C13.3121 19.1371 13.2406 19.2544 13.172 19.3735C13.2212 19.286 13.2928 19.1669 13.3826 19.0208ZM13.3826 17.9964C13.3488 17.9964 13.315 17.9982 13.2812 18.001C13.1285 18.015 12.9845 18.0596 12.858 18.1294C12.7295 18.1992 12.6144 18.296 12.5226 18.4169C12.4994 18.4486 12.4772 18.4811 12.4569 18.5146C12.3796 18.6412 12.3062 18.7631 12.2405 18.8775C11.9564 19.3716 12.141 19.995 12.655 20.2695C12.8183 20.357 12.9971 20.3988 13.1701 20.3988C13.544 20.3988 13.9064 20.21 14.1006 19.8741C14.1595 19.7754 14.2194 19.6721 14.2871 19.5614C14.3876 19.4051 14.4456 19.2199 14.4456 19.0217C14.4456 18.7891 14.3653 18.5742 14.2301 18.402C14.1924 18.3546 14.1489 18.309 14.1035 18.2681C13.9624 18.1434 13.7865 18.054 13.5904 18.0168C13.5228 18.0029 13.4532 17.9964 13.3826 17.9964Z" fill="#51332A"/>
<path d="M38.6951 1.02446C39.6778 1.02446 40.6827 1.10355 41.6828 1.25987C44.1893 1.6516 46.6572 2.57835 49.0226 4.01501C51.0489 5.24603 52.6529 6.56359 53.7921 7.93139C56.0919 10.694 56.0571 13.1663 55.6233 14.7536C55.3682 15.6841 54.9063 16.5476 54.2492 17.3171C54.1052 17.4855 53.9526 17.6474 53.7941 17.8038C53.8057 17.8205 53.8173 17.8372 53.8298 17.854L53.8492 17.881C53.9062 17.961 53.9603 18.042 54.0125 18.1201L54.0328 18.1518L54.0395 18.1611C54.0946 18.2429 54.142 18.3192 54.1884 18.3918L54.2086 18.4244L54.2144 18.4346C54.2579 18.5035 54.3024 18.5733 54.3449 18.644L54.3526 18.6589C54.3661 18.6793 54.3787 18.7007 54.3922 18.7221C54.4338 18.7928 54.4753 18.8654 54.5168 18.9371C54.5362 18.9706 54.5546 19.0041 54.5739 19.0366C54.6096 19.1018 54.6453 19.1669 54.6811 19.233C54.7033 19.2748 54.7265 19.3167 54.7478 19.3595C54.772 19.407 54.7961 19.4544 54.8203 19.5019C54.8502 19.5605 54.8812 19.621 54.9111 19.6815C54.9333 19.7289 54.9565 19.7773 54.9788 19.8247C55.001 19.8722 55.0242 19.9187 55.0445 19.9662C55.0744 20.0332 55.1053 20.1002 55.1333 20.1662C55.1556 20.2174 55.1788 20.2686 55.2 20.3207C55.2155 20.3579 55.2309 20.3951 55.2464 20.4314C55.2802 20.5152 55.3131 20.6008 55.3469 20.6873C55.3614 20.7208 55.373 20.7552 55.3855 20.7887C55.4193 20.879 55.4522 20.9702 55.486 21.0688L55.4928 21.0865C55.5015 21.1116 55.5112 21.1367 55.5179 21.1609C55.5382 21.2205 55.5575 21.2809 55.5788 21.3433C55.5865 21.3656 55.5923 21.3879 55.5991 21.4103L55.6049 21.428C55.6367 21.5303 55.6667 21.6336 55.6967 21.7322C55.7054 21.7639 55.715 21.7946 55.7218 21.8262C55.7498 21.9267 55.7788 22.0318 55.8049 22.137L55.8087 22.1528C55.8145 22.1779 55.8204 22.204 55.8271 22.2291C55.8754 22.4292 55.9199 22.6348 55.9585 22.8395C55.9643 22.8665 55.9682 22.8944 55.974 22.9223L55.9769 22.9363C55.9972 23.0451 56.0146 23.1549 56.031 23.2629C56.0368 23.2973 56.0426 23.3326 56.0465 23.368C56.0639 23.4741 56.0764 23.5857 56.0909 23.6993L56.0938 23.7197C56.0967 23.7476 56.0996 23.7746 56.1035 23.8016C56.1112 23.8705 56.118 23.9393 56.1238 24.0091C56.1267 24.037 56.1286 24.0659 56.1305 24.0938L56.1335 24.1152C56.1431 24.2306 56.1508 24.3441 56.1556 24.4539C56.1595 24.493 56.1614 24.5311 56.1634 24.5702C56.1682 24.68 56.1721 24.7926 56.175 24.9061V24.9135C56.1769 24.9517 56.1769 24.9889 56.1769 25.0261C56.1789 25.1359 56.1789 25.2494 56.1769 25.3732V25.3983C56.1769 25.4281 56.1769 25.4579 56.1769 25.4886C56.175 25.5611 56.1721 25.6328 56.1692 25.7063C56.1682 25.7389 56.1663 25.7724 56.1653 25.8049L56.1634 25.8273C56.1576 25.9445 56.1508 26.0636 56.1431 26.1808C56.1402 26.2208 56.1363 26.2618 56.1325 26.3027C56.1228 26.4218 56.1122 26.5474 56.0987 26.674L56.0958 26.6973C56.0929 26.7261 56.089 26.7549 56.0861 26.7829C56.0774 26.861 56.0677 26.9392 56.0571 27.0192C56.0552 27.0359 56.0532 27.0536 56.0503 27.0704L56.0494 27.075C56.0291 27.222 56.0078 27.3709 55.9827 27.5198C55.9788 27.5449 55.974 27.571 55.9702 27.5961L55.9663 27.611L55.9585 27.6603C55.9489 27.7133 55.9402 27.7673 55.9305 27.8203C55.3942 30.6955 53.9902 33.4665 51.8702 35.8336C51.4982 36.2486 51.1165 36.6589 50.7271 37.0618C51.2064 37.3847 51.7253 37.715 52.278 38.0481C55.2444 39.8337 57.7433 42.2427 59.5029 45.0128C59.5289 45.0537 59.554 45.0946 59.5801 45.1347C60.3783 46.4122 60.8431 47.8712 60.9223 49.3544C61.0025 50.8627 60.6846 52.3682 60.0014 53.7099C59.7058 54.2896 59.3772 54.8572 59.0158 55.4043C58.8593 56.4167 58.4757 57.3863 57.8911 58.2432C57.1461 59.3319 56.1054 60.1898 54.885 60.722C54.8038 60.7574 54.7207 60.7927 54.6386 60.8253C54.0511 61.0644 53.4365 61.2105 52.8065 61.2617C52.191 61.6246 51.5649 61.9493 50.9339 62.2322C50.2846 62.5234 49.6246 62.8593 48.9144 63.2594C48.3337 63.587 47.7201 63.8903 47.0833 64.1648C46.6833 64.6347 46.2117 65.0404 45.6716 65.3744C45.5962 65.42 45.5199 65.4665 45.4435 65.5112C44.3371 66.156 43.0627 66.4975 41.7582 66.4975C40.6451 66.4975 39.5503 66.2528 38.5531 65.7847C37.8815 65.7605 37.209 65.7019 36.548 65.6089C35.2793 65.4312 34.0647 64.9948 32.9796 64.3351C32.7206 64.3527 32.4607 64.362 32.2017 64.362C29.8991 64.362 27.6236 63.6623 25.7925 62.3913C24.5653 61.5483 23.6608 60.5387 23.1014 59.3914C23.0994 59.3877 23.0956 59.383 23.0946 59.3784C22.3593 57.8506 22.3052 56.1506 22.9448 54.7139C22.9468 54.7111 22.9487 54.7074 22.9487 54.7046C23.7411 52.9469 25.5567 51.7652 27.466 51.7652C27.4709 51.7652 27.4767 51.7652 27.4806 51.7652C27.4777 51.3837 27.4844 51.0022 27.5008 50.618C27.5347 49.8633 27.5443 49.1515 27.5289 48.4955C27.2612 48.529 26.9935 48.5597 26.7288 48.5886C26.0282 48.664 25.3209 48.7012 24.6261 48.7012C22.1138 48.7012 19.7397 48.2229 17.5675 47.2822C17.5163 47.2599 17.4661 47.2366 17.4149 47.2133L17.3675 47.1929L17.3559 47.1873C17.3318 47.1761 17.3057 47.165 17.2805 47.1529C17.1395 47.0887 16.9975 47.0207 16.8612 46.9547L16.8564 46.9519C16.84 46.9444 16.8245 46.9361 16.81 46.9295C16.7365 46.8933 16.6641 46.856 16.5906 46.8198C16.5645 46.8058 16.5394 46.7928 16.5133 46.7797L16.493 46.7686C16.3742 46.7072 16.2612 46.6448 16.152 46.5853C16.1162 46.5657 16.0795 46.5453 16.0437 46.5248C15.9404 46.4662 15.8331 46.4038 15.7306 46.3415L15.7152 46.3322C15.6843 46.3136 15.6534 46.295 15.6215 46.2764C15.5577 46.2373 15.4939 46.1982 15.4321 46.1582C15.406 46.1414 15.3799 46.1256 15.3548 46.1089L15.3335 46.0949C15.2262 46.0261 15.1287 45.9609 15.035 45.8986C15.0021 45.8762 14.9702 45.853 14.9354 45.8307C14.9354 45.8307 14.9316 45.8288 14.9316 45.8279C14.8369 45.7618 14.7431 45.6948 14.6504 45.6287C14.6185 45.6055 14.5866 45.5813 14.5538 45.558C14.4649 45.491 14.3711 45.4203 14.2783 45.3468L14.259 45.3329C14.2368 45.3152 14.2136 45.2975 14.1924 45.2798C14.1363 45.2351 14.0822 45.1905 14.0271 45.1458C14.0049 45.1272 13.9836 45.1105 13.9633 45.0919L13.9469 45.0788C13.8561 45.0025 13.7672 44.9281 13.685 44.8555C13.658 44.8313 13.63 44.8071 13.6039 44.7839C13.5208 44.7094 13.4367 44.6322 13.3555 44.5559L13.342 44.5438C13.3217 44.5243 13.3015 44.5057 13.2812 44.4861C13.1285 44.34 12.9768 44.1884 12.8309 44.0358C12.8125 44.0162 12.7942 43.9967 12.7758 43.9771L12.7661 43.9678C12.6908 43.8878 12.6173 43.8069 12.5468 43.7278C12.5246 43.7036 12.5023 43.6785 12.4811 43.6533C12.4115 43.5752 12.341 43.4933 12.2724 43.4096L12.2598 43.3947C12.2434 43.3761 12.2279 43.3565 12.2124 43.3379C12.1709 43.2886 12.1313 43.2393 12.0917 43.1881C12.0743 43.1676 12.0579 43.1472 12.0424 43.1258L12.0289 43.109C11.9631 43.0262 11.9042 42.949 11.8472 42.8727C11.825 42.8438 11.8018 42.814 11.7815 42.7833C11.7264 42.7089 11.6723 42.6335 11.6201 42.5591C11.597 42.5265 11.5738 42.493 11.5516 42.4605C11.5197 42.4139 11.4887 42.3674 11.4568 42.3218C11.4153 42.2604 11.3757 42.199 11.3361 42.1367C11.3071 42.092 11.279 42.0483 11.251 42.0045C11.223 41.9589 11.195 41.9133 11.1679 41.8687C11.1322 41.811 11.0983 41.7533 11.0645 41.6965C11.0384 41.65 11.0095 41.6026 10.9834 41.556L10.9814 41.5523C10.9582 41.5132 10.935 41.4732 10.9138 41.4341C10.878 41.3681 10.8413 41.3011 10.8056 41.235C10.7872 41.2015 10.7698 41.168 10.7524 41.1355C10.7138 41.061 10.6761 40.9875 10.6384 40.9131C10.6259 40.8908 10.6162 40.8675 10.6046 40.8452L10.5988 40.834C10.563 40.7605 10.5273 40.687 10.4915 40.6107L10.4877 40.6004L10.4712 40.5669C10.4345 40.4888 10.3978 40.4069 10.3582 40.3176L10.3543 40.3092L10.3379 40.2729C10.3012 40.1873 10.2635 40.098 10.2268 40.0068C10.2258 40.0059 10.2248 40.0049 10.2248 40.004L10.2142 39.9798C10.2065 39.9593 10.1978 39.9389 10.19 39.9193C9.7552 39.9947 9.3156 40.0329 8.88174 40.0329C8.07297 40.0329 7.28736 39.9026 6.54527 39.6467C4.94029 39.0949 2.8029 37.7243 1.73614 34.3355C1.20855 32.657 0.987282 30.6378 1.07908 28.333C1.18537 25.6421 1.78736 23.1568 2.87055 20.946C4.84465 16.9096 8.157 13.9106 12.4492 12.2767C14.6532 11.4374 16.5907 11.1555 17.6739 11.0606C19.3397 9.89562 20.6818 9.24708 21.1447 9.03679C21.5863 8.78743 22.8994 8.08957 24.8397 7.42521C25.4378 6.73014 26.5152 5.60799 28.0555 4.497C29.4479 3.49301 30.9504 2.69187 32.5187 2.11498C34.4947 1.39199 36.5722 1.02446 38.6951 1.02446ZM8.88558 37.6173C9.66922 37.6173 10.4558 37.4294 11.1727 37.0944C11.3921 36.9921 11.6269 36.873 11.8694 36.7352C12.0038 37.4685 12.2182 38.2724 12.5545 39.0959C12.5564 39.1033 12.5603 39.1107 12.5632 39.1182C12.5932 39.1917 12.6241 39.2643 12.656 39.3378C12.6608 39.3499 12.6676 39.362 12.6724 39.3741C12.7024 39.4429 12.7333 39.5109 12.7661 39.5797C12.771 39.5927 12.7787 39.6039 12.7835 39.6169C12.8125 39.6774 12.8415 39.7379 12.8715 39.7984C12.883 39.8207 12.8927 39.8421 12.9034 39.8644C12.9343 39.9249 12.9652 39.9854 12.998 40.0459C13.0115 40.0738 13.0261 40.1017 13.0415 40.1287C13.0696 40.1827 13.1005 40.2376 13.1304 40.2906C13.1497 40.3241 13.1681 40.3576 13.1874 40.3911C13.2087 40.4292 13.2309 40.4674 13.2531 40.5055C13.2812 40.5521 13.3092 40.5995 13.3382 40.646C13.3595 40.6833 13.3836 40.7195 13.4058 40.7568C13.428 40.7931 13.4512 40.8293 13.4734 40.8647C13.5063 40.9149 13.5391 40.9643 13.572 41.0145C13.5981 41.0527 13.6242 41.0899 13.6493 41.128C13.6686 41.155 13.687 41.182 13.7063 41.208C13.7488 41.2685 13.7923 41.329 13.8368 41.3895C13.8561 41.4137 13.8725 41.4379 13.8899 41.4621C13.9392 41.5263 13.9885 41.5905 14.0368 41.6547C14.0542 41.6761 14.0706 41.6975 14.088 41.7189C14.1209 41.7589 14.1537 41.7989 14.1866 41.8389C14.202 41.8584 14.2184 41.878 14.2349 41.8966C14.2909 41.9627 14.347 42.0287 14.404 42.0948C14.4223 42.1143 14.4397 42.1348 14.4581 42.1543C14.5161 42.2195 14.575 42.2846 14.6369 42.3488C14.6543 42.3684 14.6716 42.387 14.69 42.4056C14.8069 42.5284 14.9277 42.6503 15.0543 42.7703C15.0746 42.7889 15.0939 42.8075 15.1142 42.8261C15.1808 42.8885 15.2485 42.9499 15.3171 43.0113C15.3374 43.0308 15.3606 43.0504 15.3828 43.0699C15.4504 43.1313 15.5229 43.1918 15.5944 43.2514C15.6166 43.27 15.6379 43.2877 15.6601 43.3063C15.7055 43.3435 15.75 43.3798 15.7963 43.4161C15.8186 43.4347 15.8418 43.4524 15.8659 43.471C15.9394 43.5287 16.0147 43.5863 16.092 43.644C16.1172 43.6636 16.1452 43.6831 16.1713 43.7026C16.2466 43.7575 16.323 43.8124 16.4013 43.8664C16.4293 43.886 16.4573 43.9055 16.4863 43.9241C16.5655 43.979 16.6486 44.033 16.7317 44.086C16.7578 44.1037 16.7858 44.1214 16.8129 44.1381C16.865 44.1716 16.9172 44.2042 16.9713 44.2358C16.9994 44.2535 17.0303 44.2712 17.0603 44.2889C17.1453 44.341 17.2332 44.3912 17.3221 44.4424C17.3521 44.4591 17.382 44.4759 17.411 44.4926C17.5057 44.5447 17.5994 44.5959 17.696 44.6462C17.7241 44.661 17.7511 44.675 17.7791 44.689C17.84 44.7197 17.8999 44.7513 17.9618 44.782C17.9753 44.7885 17.9898 44.795 18.0033 44.8015C18.1202 44.8592 18.2381 44.9151 18.3579 44.97C18.3821 44.9811 18.4073 44.9914 18.4314 45.0025C18.4884 45.0286 18.5444 45.0546 18.6014 45.0798C20.4982 45.9023 22.5574 46.2866 24.6291 46.2866C25.2369 46.2866 25.8466 46.2531 26.4544 46.1889C27.4052 46.0875 28.5473 45.933 29.8092 45.6995C30.0759 47.2962 30.0759 49.2036 30.0102 50.7222C29.9165 52.8362 30.1707 54.9512 30.7842 56.9722C30.6953 56.8233 30.6083 56.6744 30.5214 56.5293C29.8498 55.3922 28.8555 54.1975 27.4989 54.1835C27.4892 54.1835 27.4796 54.1835 27.4699 54.1835C26.5211 54.1835 25.633 54.8265 25.2542 55.6677C24.8735 56.5218 24.9692 57.5221 25.375 58.3651C25.7857 59.2053 26.4766 59.892 27.2593 60.4298C28.6884 61.4236 30.447 61.9474 32.2056 61.9474C32.6888 61.9474 33.1719 61.9084 33.6492 61.8274C34.5749 62.556 35.6968 63.0491 36.9143 63.2203C37.7105 63.3329 38.4806 63.3822 39.2207 63.3832C39.9928 63.8447 40.877 64.0829 41.763 64.0829C42.5882 64.0829 43.4134 63.8754 44.1488 63.4464C44.2058 63.4129 44.2628 63.3785 44.3207 63.3432C44.8048 63.0435 45.1856 62.65 45.4571 62.208C46.3635 61.8572 47.1065 61.4841 47.6524 61.1751C48.3781 60.7657 49.1173 60.3852 49.8797 60.0428C50.4604 59.7822 51.2189 59.397 52.0567 58.8601C52.135 58.8657 52.2133 58.8676 52.2925 58.8676C52.7515 58.8676 53.2182 58.7829 53.6704 58.5996C53.7323 58.5745 53.795 58.5484 53.855 58.5224C55.4773 57.8161 56.5083 56.2622 56.5876 54.5725C57.005 53.9854 57.3983 53.3452 57.7538 52.6483C58.7694 50.6543 58.6235 48.2853 57.435 46.3824C57.4128 46.3471 57.3896 46.3108 57.3674 46.2745C55.7711 43.7585 53.5506 41.6612 50.9542 40.098C49.6893 39.3378 48.1627 38.3329 46.9722 37.2842C48.1878 36.1788 49.1985 35.1237 49.9744 34.2574C51.7311 32.2959 52.9901 29.9437 53.4655 27.3942C53.4771 27.3346 53.4858 27.276 53.4955 27.2165C53.4994 27.1904 53.5052 27.1643 53.5091 27.1383C53.5293 27.0127 53.5486 26.888 53.566 26.7642C53.568 26.7484 53.5709 26.7326 53.5738 26.7168C53.5815 26.6507 53.5893 26.5847 53.597 26.5195C53.6009 26.4888 53.6037 26.4591 53.6066 26.4283C53.6182 26.3241 53.6279 26.2199 53.6356 26.1176C53.6385 26.0841 53.6414 26.0496 53.6433 26.0161C53.6511 25.9175 53.6569 25.8198 53.6607 25.723C53.6627 25.6886 53.6646 25.6551 53.6665 25.6216C53.6685 25.5621 53.6704 25.5016 53.6723 25.442C53.6723 25.4104 53.6723 25.3788 53.6733 25.3462C53.6743 25.2494 53.6743 25.1545 53.6733 25.0596C53.6723 25.0261 53.6724 24.9935 53.6704 24.9601C53.6685 24.867 53.6646 24.7758 53.6607 24.6846C53.6588 24.6521 53.6569 24.6204 53.6559 24.5879C53.6511 24.4948 53.6434 24.4027 53.6356 24.3115C53.6337 24.2817 53.6298 24.2529 53.6279 24.2231C53.6221 24.1664 53.6163 24.1105 53.6105 24.0547C53.6066 24.0268 53.6037 23.9989 53.6008 23.971C53.5892 23.8798 53.5786 23.7895 53.5651 23.7002C53.5612 23.6723 53.5573 23.6434 53.5515 23.6155C53.538 23.5262 53.5245 23.4378 53.5081 23.3503C53.5032 23.3243 53.4984 23.2973 53.4926 23.2712C53.4607 23.1028 53.4269 22.9381 53.3873 22.7753C53.3805 22.7502 53.3747 22.726 53.3679 22.7009C53.3476 22.6162 53.3244 22.5324 53.3022 22.4487C53.2945 22.4236 53.2877 22.3975 53.2819 22.3724C53.2578 22.2887 53.2327 22.2068 53.2076 22.1249C53.2008 22.1016 53.193 22.0784 53.1863 22.0551C53.1708 22.0067 53.1544 21.9574 53.138 21.909C53.1293 21.8839 53.1196 21.8588 53.1129 21.8346C53.0858 21.7574 53.0578 21.682 53.0298 21.6066C53.0201 21.5787 53.0095 21.5508 52.9998 21.5238C52.9727 21.454 52.9447 21.3852 52.9167 21.3163C52.9051 21.2865 52.8926 21.2568 52.88 21.227C52.8617 21.1851 52.8442 21.1432 52.8259 21.1023C52.8027 21.0474 52.7776 20.9934 52.7544 20.9385C52.7351 20.8994 52.7186 20.8613 52.6993 20.8231C52.68 20.7841 52.6616 20.745 52.6423 20.7059C52.6191 20.6566 52.595 20.6082 52.5708 20.5598C52.5505 20.5207 52.5312 20.4817 52.5099 20.4435C52.4906 20.4091 52.4732 20.3747 52.4549 20.3402C52.4268 20.2863 52.3959 20.2332 52.3669 20.1793C52.3515 20.1523 52.336 20.1244 52.3205 20.0983C52.2867 20.0388 52.2529 19.9801 52.2181 19.9215C52.2056 19.9001 52.193 19.8796 52.1794 19.8582C52.1456 19.8006 52.1098 19.7429 52.0741 19.6852C52.0664 19.674 52.0586 19.6628 52.0538 19.6517C52.0123 19.5875 51.9707 19.5242 51.9292 19.4609C51.9215 19.4498 51.9137 19.4386 51.907 19.4274C51.8615 19.3604 51.8171 19.2944 51.7707 19.2292C51.7669 19.2227 51.762 19.2162 51.7572 19.2097C51.2421 18.4774 50.6759 17.8521 50.1232 17.3301C50.3783 17.2157 50.6121 17.0975 50.8257 16.9803C51.964 16.3559 52.8655 15.3557 53.2017 14.1367C54.1419 10.7005 50.4672 7.74343 47.6892 6.05648C45.7325 4.86733 43.5709 3.99919 41.2876 3.64189C40.3871 3.50139 39.5232 3.43718 38.6999 3.43718C30.7398 3.43718 26.4234 9.40154 26.3664 9.4797C26.1722 9.53925 25.9838 9.60066 25.8002 9.66301C25.7963 9.66394 25.7924 9.66487 25.7886 9.66673C23.6405 10.3906 22.3235 11.176 22.3235 11.176C22.3235 11.176 20.906 11.7771 19.072 13.0732C19.0691 13.076 19.0662 13.0779 19.0614 13.0806C18.9058 13.1914 18.7464 13.3068 18.585 13.4277C18.4768 13.4277 9.2953 13.4956 5.14805 21.9751C4.16149 23.9914 3.68319 26.1985 3.59526 28.4251C3.46964 31.5851 3.92376 36.176 7.39848 37.3717C7.87582 37.5401 8.38022 37.6173 8.88558 37.6173ZM38.6951 0C36.4417 0 34.2377 0.38987 32.1447 1.15937C30.4837 1.76977 28.8952 2.61743 27.4226 3.67911C25.9654 4.72962 24.8977 5.79129 24.2165 6.55707C22.4067 7.19724 21.1563 7.85044 20.6528 8.13144C20.1262 8.37243 18.8604 8.99679 17.2902 10.0696C16.0167 10.2018 14.1537 10.5293 12.0627 11.3248C7.51446 13.0574 4.00395 16.234 1.911 20.5114C0.768867 22.8469 0.133066 25.4662 0.020978 28.2958C-0.0756493 30.7141 0.162044 32.8468 0.723449 34.6342C1.9168 38.4315 4.35663 39.9817 6.19158 40.6135C7.04963 40.9094 7.956 41.0592 8.88652 41.0592C9.0991 41.0592 9.31267 41.0517 9.52718 41.035C9.56487 41.1159 9.60354 41.195 9.64219 41.2741L9.64702 41.2843C9.66055 41.3095 9.67118 41.3337 9.68471 41.3588C9.72433 41.4397 9.76583 41.5198 9.80738 41.5988C9.82574 41.6342 9.84509 41.6705 9.86441 41.7058C9.90403 41.7784 9.94175 41.8501 9.98136 41.9208C10.0055 41.9627 10.0306 42.0055 10.0548 42.0492L10.0567 42.0529C10.0857 42.1032 10.1156 42.1543 10.1446 42.2046C10.1804 42.2651 10.2171 42.3274 10.2558 42.3898C10.2857 42.4391 10.3157 42.4874 10.3466 42.5368C10.3756 42.5842 10.4065 42.6317 10.4374 42.6801C10.4809 42.747 10.5234 42.8131 10.5688 42.8792C10.6017 42.9285 10.6364 42.9787 10.6703 43.029C10.6944 43.0643 10.7195 43.0997 10.7437 43.1351C10.8007 43.2151 10.8587 43.297 10.9177 43.377C10.9418 43.4095 10.965 43.4412 10.9892 43.4738C11.051 43.5575 11.1157 43.6412 11.1853 43.7296L11.1979 43.7455C11.2162 43.7687 11.2336 43.792 11.253 43.8152C11.2955 43.8701 11.339 43.9232 11.3834 43.9762C11.4018 43.9985 11.4182 44.0199 11.4375 44.0413L11.4491 44.0553C11.5226 44.1437 11.5979 44.2321 11.6733 44.3177C11.6974 44.3447 11.7206 44.3717 11.7448 44.3977C11.8201 44.4833 11.8994 44.5708 11.9815 44.6573L11.9892 44.6657C12.0105 44.688 12.0299 44.7094 12.0501 44.7308C12.2076 44.8965 12.3709 45.0602 12.5371 45.2175C12.5593 45.2389 12.5816 45.2603 12.6028 45.2807L12.6164 45.2928C12.7043 45.3747 12.7942 45.4575 12.8831 45.5385C12.9121 45.5636 12.943 45.5897 12.971 45.6157C13.0609 45.6939 13.1546 45.7748 13.2521 45.8558L13.2676 45.8688C13.2898 45.8874 13.315 45.907 13.3391 45.9274C13.3981 45.9758 13.458 46.0242 13.5188 46.0716C13.543 46.0912 13.5691 46.1117 13.5942 46.1312L13.6116 46.1452C13.7111 46.2224 13.8107 46.2987 13.9083 46.3713C13.9421 46.3964 13.9769 46.4215 14.0116 46.4476C14.1102 46.5192 14.2117 46.5909 14.3141 46.6616C14.316 46.6625 14.317 46.6634 14.318 46.6644C14.3537 46.6886 14.3885 46.7127 14.4242 46.7379C14.5247 46.8058 14.6291 46.8747 14.7441 46.9491L14.7634 46.9612C14.7924 46.9798 14.8223 46.9984 14.8504 47.017C14.918 47.0598 14.9866 47.1017 15.0552 47.1436C15.0881 47.164 15.1219 47.1845 15.1557 47.205L15.1712 47.2143C15.2813 47.2803 15.3954 47.3464 15.5075 47.4097C15.5471 47.432 15.5847 47.4534 15.6224 47.4748C15.7393 47.539 15.8611 47.6051 15.9867 47.6711L16.007 47.6823C16.035 47.6972 16.064 47.7121 16.092 47.727C16.1693 47.766 16.2467 47.8051 16.3259 47.8442C16.3433 47.8535 16.3626 47.8628 16.3829 47.8721C16.5269 47.9428 16.6767 48.0135 16.8264 48.0824C16.8544 48.0954 16.8815 48.1066 16.9095 48.1196L16.9192 48.1243L16.9627 48.1438C17.0177 48.1689 17.0757 48.195 17.1346 48.2211C19.444 49.2222 21.966 49.7312 24.6291 49.7312C25.2369 49.7312 25.8543 49.7033 26.4689 49.6493C26.4631 49.9517 26.4534 50.2625 26.4398 50.5798C26.436 50.6663 26.4331 50.7538 26.4292 50.8403C24.5054 51.1921 22.7893 52.4947 21.9757 54.3017L21.9718 54.3119C21.2114 56.0184 21.2693 58.0227 22.1313 59.8148L22.1399 59.8306C22.7777 61.1389 23.799 62.2815 25.174 63.2278C27.1839 64.6235 29.6807 65.3911 32.2046 65.3911C32.3728 65.3911 32.5419 65.3884 32.71 65.3809C33.8521 66.0248 35.0909 66.4444 36.3963 66.6277C37.0215 66.7161 37.6602 66.7748 38.296 66.8045C39.3792 67.2782 40.5726 67.5266 41.7611 67.5266C43.2607 67.5266 44.7256 67.1339 45.9982 66.3914C46.0832 66.3421 46.1682 66.2909 46.2513 66.2397C46.8098 65.8945 47.3104 65.4805 47.7433 65.0069C48.3366 64.7435 48.9115 64.4551 49.4555 64.148C50.1358 63.7647 50.7668 63.4437 51.3861 63.1654C51.9794 62.8993 52.5737 62.596 53.1544 62.262C53.8067 62.1847 54.4434 62.0219 55.0531 61.7744C55.1449 61.7381 55.2358 61.699 55.3266 61.6599C56.7306 61.0477 57.9249 60.0632 58.782 58.8108C59.4043 57.8999 59.8352 56.8549 60.0343 55.7775C60.3696 55.2545 60.6788 54.7139 60.958 54.1659C61.7204 52.6687 62.077 50.9874 61.9861 49.306C61.8972 47.6553 61.3813 46.0316 60.4932 44.6117C60.4672 44.5708 60.4401 44.5271 60.4121 44.4833C58.5684 41.5774 55.9508 39.054 52.8442 37.1837C52.6732 37.0814 52.5061 36.979 52.3418 36.8767C52.4548 36.7538 52.5659 36.6301 52.678 36.5073C54.9207 34.0015 56.4088 31.0612 56.9799 28.0064C56.9905 27.946 57.0002 27.8864 57.0108 27.8259L57.0185 27.7822L57.0205 27.7682C57.0253 27.7422 57.0301 27.7143 57.035 27.6873C57.0601 27.531 57.0843 27.3728 57.1055 27.2183C57.1055 27.2174 57.1055 27.2165 57.1055 27.2155C57.1094 27.1951 57.1113 27.1737 57.1142 27.1541C57.1267 27.0685 57.1355 26.9848 57.1451 26.902C57.149 26.8703 57.1529 26.8387 57.1558 26.8061L57.1586 26.7838C57.1731 26.6489 57.1848 26.5158 57.1954 26.3874C57.1983 26.3437 57.2021 26.3009 57.206 26.2581C57.2147 26.1325 57.2224 26.005 57.2272 25.8784L57.2282 25.857C57.2302 25.8207 57.2321 25.7845 57.233 25.7482C57.2359 25.6691 57.2379 25.5918 57.2408 25.5146C57.2418 25.4802 57.2417 25.4467 57.2417 25.4123V25.389C57.2437 25.2587 57.2437 25.1368 57.2417 25.0177C57.2417 24.9768 57.2408 24.9368 57.2398 24.8968V24.8875C57.2359 24.7665 57.2321 24.6446 57.2263 24.5264C57.2244 24.4855 57.2224 24.4436 57.2186 24.4018C57.2128 24.2836 57.2031 24.1608 57.1934 24.037L57.1924 24.0165C57.1895 23.9868 57.1866 23.9542 57.1847 23.9226C57.177 23.8472 57.1692 23.7728 57.1625 23.6983C57.1586 23.6685 57.1548 23.6378 57.1509 23.6071L57.149 23.5867C57.1335 23.4657 57.119 23.3447 57.1016 23.2303C57.0958 23.1921 57.09 23.1549 57.0842 23.1168C57.0668 23.0005 57.0466 22.8823 57.0253 22.7651L57.0214 22.7483C57.0166 22.7185 57.0108 22.6888 57.005 22.6581C56.9635 22.4366 56.9142 22.2142 56.8639 21.9993C56.8562 21.9723 56.8504 21.9434 56.8437 21.9165L56.8398 21.9006C56.8117 21.7871 56.7808 21.6736 56.7509 21.5647C56.7412 21.5303 56.7316 21.4959 56.7229 21.4624C56.6919 21.3545 56.6591 21.2437 56.6243 21.1339L56.6185 21.1172C56.6108 21.093 56.603 21.0669 56.5953 21.0418C56.574 20.9739 56.5528 20.9088 56.5305 20.8445C56.5209 20.8176 56.5112 20.7897 56.5025 20.7617L56.4968 20.745C56.4591 20.6389 56.4242 20.5403 56.3875 20.4435C56.374 20.4082 56.3615 20.3709 56.346 20.3337C56.3112 20.2416 56.2745 20.1486 56.2368 20.0583C56.2214 20.0192 56.2049 19.9792 56.1875 19.9392C56.1643 19.8834 56.1402 19.8275 56.1161 19.7726C56.0861 19.701 56.0542 19.6284 56.0194 19.5568C55.9972 19.5047 55.9721 19.4544 55.9489 19.4032C55.9257 19.3521 55.8996 19.3 55.8745 19.2479C55.8426 19.1818 55.8107 19.1176 55.7778 19.0534C55.7517 19.0022 55.7247 18.951 55.6986 18.8989C55.6745 18.8543 55.6503 18.8077 55.6271 18.7631C55.5894 18.6924 55.5508 18.6216 55.5111 18.5509C55.4908 18.5146 55.4715 18.4793 55.4503 18.443C55.4068 18.3658 55.3614 18.2876 55.316 18.2113C55.3025 18.188 55.288 18.1648 55.2735 18.1415L55.2647 18.1266C55.2193 18.0513 55.172 17.9759 55.1256 17.9015C55.8513 17.0333 56.3643 16.0619 56.6513 15.0142C57.148 13.1988 57.1983 10.3851 54.6222 7.28936C53.4095 5.83223 51.7166 4.43838 49.5908 3.14687C47.1045 1.63578 44.5005 0.660638 41.8548 0.246576C40.7967 0.0837424 39.7338 0 38.6951 0ZM8.88558 36.5929C8.48844 36.5929 8.10675 36.5315 7.75116 36.4086C4.82142 35.4 4.5528 30.9988 4.6533 28.4652C4.74219 26.2385 5.23015 24.2026 6.1056 22.4133C7.70381 19.1455 10.2732 16.8156 13.7392 15.4878C16.3703 14.4801 18.5638 14.455 18.586 14.455C18.8198 14.454 19.0479 14.3777 19.2324 14.241C19.3803 14.1302 19.5339 14.0195 19.6876 13.9106L19.6924 13.9078L19.6982 13.9041C21.4027 12.701 22.7381 12.1232 22.7506 12.1176C22.7951 12.0981 22.8386 12.0767 22.8801 12.0525C22.8917 12.046 24.1411 11.3118 26.1355 10.6391L26.1471 10.6354C26.3278 10.5749 26.5094 10.5163 26.6891 10.4604C26.9114 10.3916 27.1047 10.2539 27.237 10.0687C27.2477 10.0538 28.2835 8.6339 30.2238 7.24004C32.7825 5.40049 35.634 4.46722 38.6961 4.46722C39.4865 4.46722 40.3001 4.53142 41.1127 4.6589C43.1409 4.97526 45.1594 5.73918 47.1171 6.9274C49.3444 8.28032 52.9612 10.9824 52.1679 13.8799C51.9253 14.7667 51.2422 15.5743 50.2942 16.0945C50.0923 16.2061 49.8826 16.3103 49.67 16.4052C49.3541 16.5476 49.1299 16.8305 49.0719 17.1617C49.012 17.493 49.126 17.8307 49.3753 18.0661C49.9425 18.603 50.4459 19.1818 50.873 19.7885L50.8856 19.8061C50.9281 19.8657 50.9677 19.9262 51.0093 19.9867L51.0189 20.0015L51.0306 20.0183C51.0682 20.075 51.1059 20.1327 51.1426 20.1904L51.1532 20.2081L51.1629 20.2221C51.1948 20.2732 51.2267 20.3253 51.2596 20.3784L51.2711 20.3951L51.2934 20.4351C51.3253 20.4882 51.3552 20.5421 51.3881 20.5952C51.4016 20.6194 51.4141 20.6445 51.4296 20.6696C51.4557 20.718 51.4828 20.7664 51.5089 20.8148C51.5263 20.8464 51.5417 20.8771 51.5581 20.9088C51.5774 20.9441 51.5948 20.9795 51.6132 21.0148C51.6354 21.0586 51.6567 21.1023 51.6789 21.147C51.6963 21.1823 51.7128 21.2167 51.7301 21.253C51.7466 21.2875 51.762 21.3219 51.7774 21.3572C51.7997 21.4066 51.8219 21.4549 51.8432 21.5043C51.8606 21.5415 51.876 21.5796 51.8925 21.6178C51.904 21.6448 51.9137 21.6717 51.9253 21.6978C51.9504 21.7601 51.9756 21.8225 51.9997 21.8848C52.0094 21.9099 52.019 21.9341 52.0277 21.9593C52.0519 22.0244 52.0751 22.0914 52.1012 22.1649L52.1099 22.19C52.1147 22.204 52.1205 22.2179 52.1253 22.2319C52.1398 22.2756 52.1534 22.3203 52.1679 22.364L52.1814 22.4022L52.1882 22.4264C52.2113 22.5017 52.2345 22.5771 52.2548 22.6487C52.2616 22.672 52.2683 22.6943 52.2741 22.7176C52.2944 22.7911 52.3147 22.8674 52.335 22.9446L52.3389 22.9623C52.3428 22.9791 52.3485 22.9949 52.3524 23.0116C52.3872 23.1586 52.42 23.3085 52.4481 23.4592C52.451 23.4769 52.4548 23.4955 52.4587 23.5132L52.4616 23.5299C52.4761 23.6099 52.4886 23.6909 52.5012 23.77C52.5051 23.7951 52.5089 23.8211 52.5138 23.8472C52.5244 23.9244 52.534 24.0063 52.5447 24.0919L52.5476 24.117C52.5495 24.1338 52.5515 24.1505 52.5534 24.1673C52.5592 24.2185 52.565 24.2687 52.5689 24.3208C52.5708 24.3366 52.5727 24.3534 52.5727 24.3701L52.5766 24.399C52.5843 24.4874 52.5901 24.5692 52.5949 24.6502C52.5959 24.679 52.5978 24.7079 52.5998 24.7377C52.6036 24.8186 52.6065 24.9033 52.6075 24.9889V24.9954C52.6094 25.0233 52.6094 25.0512 52.6094 25.0792C52.6114 25.1592 52.6114 25.2448 52.6094 25.3397V25.3769C52.6094 25.3937 52.6094 25.4104 52.6094 25.4272C52.6075 25.482 52.6056 25.5369 52.6036 25.5918C52.6027 25.6151 52.6017 25.6384 52.6008 25.6616L52.5998 25.6849C52.5959 25.7742 52.5901 25.8645 52.5843 25.9529C52.5814 25.9836 52.5785 26.0143 52.5766 26.0459C52.5688 26.1362 52.5601 26.232 52.5495 26.3306L52.5466 26.3586C52.5447 26.3772 52.5428 26.3958 52.5408 26.4144C52.5331 26.4739 52.5263 26.5344 52.5186 26.5958L52.5167 26.6116L52.5128 26.6386C52.4974 26.754 52.479 26.8703 52.4597 26.9838L52.451 27.0397L52.4481 27.0564C52.4442 27.0797 52.4403 27.1029 52.4355 27.1271C52.4307 27.1578 52.4248 27.1885 52.419 27.2211C51.9958 29.4896 50.8711 31.6948 49.1695 33.5967C48.2496 34.624 47.264 35.6168 46.2427 36.5482C46.0272 36.7436 45.9064 37.0162 45.9103 37.3019C45.9122 37.5866 46.0369 37.8574 46.2552 38.0491C47.2969 38.9675 48.6893 39.9519 50.3899 40.9754C52.8896 42.48 54.9874 44.5001 56.4591 46.817C56.4794 46.8505 56.5006 46.884 56.5209 46.9165C57.5461 48.557 57.6495 50.5333 56.7972 52.2044C56.4813 52.826 56.1141 53.4317 55.7083 54.003C55.5972 54.1603 55.5334 54.3445 55.5247 54.5343C55.4619 55.864 54.6338 57.0662 53.4163 57.5965C53.3631 57.6198 53.3109 57.6421 53.2559 57.6645C52.9496 57.7891 52.6259 57.8515 52.2915 57.8515C52.2365 57.8515 52.1804 57.8506 52.1253 57.8468C52.1031 57.8459 52.078 57.845 52.0558 57.845C51.8461 57.845 51.6403 57.9045 51.4663 58.0171C50.8015 58.4433 50.1165 58.8155 49.4304 59.1235C48.6787 59.4612 47.9211 59.8464 47.1152 60.3005C46.4765 60.6606 45.7856 60.9853 45.0599 61.2663C44.8425 61.3501 44.6609 61.5008 44.542 61.6944C44.342 62.0191 44.0744 62.2861 43.7458 62.489C43.6966 62.5188 43.6472 62.5485 43.5989 62.5783C43.052 62.8975 42.4152 63.0659 41.7649 63.0659C41.0653 63.0659 40.3813 62.877 39.7831 62.5206C39.615 62.4201 39.4208 62.3662 39.2237 62.3662C38.5048 62.3652 37.781 62.3141 37.0699 62.2136C36.0698 62.0731 35.1199 61.6674 34.3237 61.0412C34.1333 60.8904 33.8956 60.8095 33.6521 60.8095C33.5903 60.8095 33.5294 60.8141 33.4676 60.8253C33.0559 60.8951 32.6337 60.9304 32.2085 60.9304C30.648 60.9304 29.1135 60.4605 27.8844 59.6064C27.8825 59.6054 27.8815 59.6045 27.8796 59.6036C27.1558 59.1058 26.6389 58.5456 26.3404 57.939C26.0379 57.3062 25.9983 56.6121 26.234 56.0799C26.4611 55.5783 26.981 55.2145 27.4718 55.2145H27.4863C28.3463 55.2238 29.1096 56.2139 29.5986 57.0429C29.6005 57.0438 29.6015 57.0457 29.6025 57.0476C29.6633 57.1499 29.7252 57.2541 29.787 57.3583L29.8614 57.4858C30.0557 57.8143 30.4151 58.0041 30.7871 58.0041C30.9263 58.0041 31.0664 57.978 31.2017 57.9222C31.6993 57.7194 31.9592 57.1909 31.8085 56.6921C31.2326 54.7939 30.9862 52.8027 31.0761 50.7724C31.1688 48.6974 31.0963 46.9379 30.8625 45.5431C30.8171 45.2696 30.6586 45.0258 30.4228 44.8667C30.2421 44.7448 30.0295 44.6815 29.8121 44.6815C29.7455 44.6815 29.6788 44.6871 29.6121 44.7001C28.5261 44.9011 27.4255 45.0612 26.3404 45.1775C25.7703 45.2379 25.1963 45.2696 24.632 45.2696C22.6299 45.2696 20.7485 44.8937 19.0421 44.1539C19.0121 44.1409 18.9812 44.1269 18.9512 44.1139C18.929 44.1037 18.9068 44.0935 18.8846 44.0832L18.873 44.0786L18.8159 44.0525C18.7058 44.0023 18.5956 43.9502 18.4884 43.8971L18.4643 43.885L18.4507 43.8794C18.3937 43.8506 18.3377 43.8227 18.2816 43.7938C18.2652 43.7855 18.2488 43.7762 18.2333 43.7678L18.2062 43.7538C18.1144 43.7064 18.0275 43.6589 17.9453 43.6133C17.9183 43.5975 17.8893 43.5826 17.8632 43.5668C17.784 43.5221 17.7028 43.4747 17.6236 43.4272L17.6052 43.417C17.5849 43.404 17.5627 43.3919 17.5424 43.3788C17.4931 43.3491 17.4448 43.3202 17.3994 43.2895C17.3839 43.2802 17.3694 43.2709 17.354 43.2616L17.325 43.2421C17.2429 43.189 17.1694 43.1406 17.1018 43.0941C17.0757 43.0764 17.0516 43.0597 17.0274 43.0429C16.953 42.9918 16.8824 42.9415 16.8148 42.8922C16.7916 42.8745 16.7675 42.8569 16.7433 42.8392C16.6767 42.7889 16.609 42.7387 16.5375 42.6819L16.5133 42.6624C16.4998 42.6521 16.4872 42.6428 16.4747 42.6326C16.4341 42.6 16.3926 42.5675 16.353 42.534C16.3394 42.5237 16.3269 42.5126 16.3133 42.5023L16.294 42.4847C16.2254 42.4279 16.1597 42.3721 16.1007 42.32C16.0804 42.3023 16.0611 42.2846 16.0409 42.2679C15.98 42.213 15.9181 42.1562 15.8591 42.1004L15.8447 42.0883C15.8312 42.0752 15.8186 42.0631 15.8051 42.0492C15.692 41.9422 15.5818 41.8315 15.4765 41.7207L15.4388 41.6807L15.4282 41.6696C15.3722 41.6109 15.3181 41.5514 15.2668 41.4946C15.2514 41.476 15.2349 41.4583 15.2195 41.4397C15.1692 41.383 15.1181 41.3234 15.0669 41.262L15.0495 41.2415L15.0233 41.2099C14.9934 41.1736 14.9644 41.1373 14.9345 41.101C14.9248 41.0889 14.9151 41.0759 14.9064 41.0638L14.889 41.0434C14.8417 40.9819 14.7982 40.9252 14.7566 40.8703C14.7402 40.8489 14.7248 40.8265 14.7074 40.8051C14.6687 40.7502 14.6291 40.6963 14.5904 40.6414C14.5731 40.6172 14.5566 40.593 14.5393 40.5688C14.517 40.5344 14.4929 40.5009 14.4716 40.4665C14.4407 40.4209 14.4107 40.3762 14.3817 40.3306C14.3605 40.298 14.3412 40.2655 14.3199 40.2329C14.2996 40.1994 14.2783 40.1659 14.259 40.1333C14.2339 40.0915 14.2078 40.0487 14.1827 40.0059C14.1624 39.9714 14.1421 39.937 14.1228 39.9035L14.1209 39.8998C14.1035 39.8709 14.087 39.8421 14.0716 39.8133C14.0435 39.763 14.0165 39.7146 13.9904 39.6653C13.9769 39.6411 13.9643 39.6151 13.9508 39.5909C13.9218 39.5351 13.8938 39.4802 13.8657 39.4253L13.8455 39.3843L13.8377 39.3666C13.8097 39.3108 13.7826 39.2559 13.7575 39.201L13.7507 39.188L13.7411 39.1666C13.7131 39.1052 13.6841 39.0428 13.657 38.9805L13.6493 38.9647L13.6425 38.947C13.6126 38.88 13.5846 38.813 13.5575 38.7469L13.5556 38.7441L13.5498 38.7283C13.2705 38.0454 13.0589 37.3177 12.9217 36.5631C12.8608 36.2328 12.6357 35.9508 12.3197 35.8103C12.1777 35.7471 12.025 35.7164 11.8743 35.7164C11.6868 35.7164 11.4984 35.7638 11.3332 35.8587C11.1312 35.9732 10.9225 36.0802 10.7128 36.1788C10.1205 36.4477 9.4895 36.5929 8.88558 36.5929Z" fill="#51332A"/>
<path d="M34.0898 8.51573C34.2666 8.52689 34.4087 8.53806 34.5121 8.54829C34.371 8.5362 34.2299 8.52503 34.0898 8.51573ZM34.0889 7.49127C33.5333 7.49127 33.0646 7.90626 33.0279 8.4478C32.9892 9.01167 33.4309 9.50017 34.0174 9.53832C34.1585 9.54762 34.2889 9.55786 34.4135 9.5681C34.4454 9.57089 34.4792 9.57182 34.5121 9.57182C35.0561 9.57182 35.5189 9.17357 35.5711 8.6432C35.6262 8.08026 35.1972 7.58153 34.6126 7.52756C34.4725 7.51453 34.3198 7.50337 34.1585 7.4922C34.1353 7.4922 34.113 7.49127 34.0889 7.49127Z" fill="#51332A"/>
<path d="M33.9923 61.7632C31.6858 62.2536 29.1725 61.7651 27.2544 60.4317C26.4708 59.8939 25.7809 59.2072 25.3702 58.367C24.9644 57.524 24.8687 56.5237 25.2494 55.6695C25.6321 54.82 26.5336 54.1724 27.4941 54.1854C28.8507 54.2003 29.845 55.3941 30.5166 56.5311C31.0934 57.496 31.6616 58.5782 32.6095 59.169C32.7516 59.5319 32.91 59.8864 33.0743 60.2447C33.0927 60.2893 33.1178 60.3359 33.1352 60.3805C33.37 60.8755 33.6541 61.3389 33.9923 61.7632Z" fill="#69564A"/>
<path d="M33.9923 61.7632C31.6858 62.2536 29.1725 61.7651 27.2544 60.4317C26.4708 59.8939 25.7809 59.2072 25.3702 58.367C24.9644 57.524 24.8687 56.5237 25.2494 55.6695C25.6321 54.82 26.5336 54.1724 27.4941 54.1854C28.8507 54.2003 29.845 55.3941 30.5166 56.5311C31.0934 57.496 31.6616 58.5782 32.6095 59.169C32.7516 59.5319 32.91 59.8864 33.0743 60.2447C33.0927 60.2893 33.1178 60.3359 33.1352 60.3805C33.37 60.8755 33.6541 61.3389 33.9923 61.7632Z" fill="white"/>
<path d="M32.2085 62.4545C30.333 62.4545 28.4594 61.8935 26.9472 60.842C26.0012 60.1916 25.3094 59.4305 24.8958 58.5819C24.3953 57.5426 24.3498 56.4092 24.7672 55.4704C25.2446 54.4106 26.351 53.6792 27.466 53.6792C27.4796 53.6792 27.4902 53.6792 27.5018 53.6792C28.7937 53.6932 29.9629 54.5688 30.9736 56.2808C31.0335 56.3804 31.0944 56.4855 31.1562 56.5898C31.6471 57.4225 32.1544 58.2832 32.8956 58.7447L33.0395 58.835L33.1004 58.9904C33.2221 59.2974 33.3623 59.6212 33.5546 60.04L33.5632 60.0595C33.569 60.0735 33.5767 60.0865 33.5835 60.1004C33.5961 60.1274 33.6077 60.1544 33.6193 60.1805C33.8396 60.6429 34.1053 61.0719 34.4097 61.4561L34.9102 62.0861L34.1063 62.2573C33.4821 62.3903 32.8443 62.4545 32.2085 62.4545ZM27.468 54.6897C26.7674 54.6897 26.0408 55.1829 25.7316 55.8705C25.435 56.5339 25.4784 57.389 25.8465 58.1548C26.1818 58.8424 26.7578 59.4705 27.5588 60.0214C29.1358 61.1175 31.1572 61.6097 33.0965 61.3966C32.9361 61.1398 32.7893 60.8699 32.6569 60.5908L32.6463 60.5657C32.6414 60.5527 32.6337 60.5387 32.6269 60.5257C32.6134 60.4978 32.6018 60.4698 32.5892 60.4429C32.4201 60.0763 32.2897 59.7785 32.1766 59.4994C31.305 58.8945 30.7427 57.9389 30.2421 57.0903C30.1803 56.988 30.1204 56.8856 30.0605 56.7842C29.2459 55.4043 28.3801 54.7009 27.4873 54.6916C27.4805 54.6907 27.4748 54.6897 27.468 54.6897Z" fill="#51332A"/>
<path d="M57.3616 46.2773C55.7653 43.7613 53.5448 41.664 50.9484 40.1008C48.9173 38.8791 46.2089 37.0265 45.3064 35.3777L38.7676 42.2902L29.1502 43.5733C30.0527 45.2221 30.1069 48.4202 30.0054 50.724C29.875 53.6709 30.4161 56.6186 31.6684 59.3105C31.6858 59.3496 31.7041 59.3877 31.7225 59.4259C32.681 61.4496 34.6242 62.9003 36.9094 63.2222C41.9051 63.9247 45.8397 62.1968 47.6467 61.1779C48.3723 60.7685 49.1115 60.388 49.8739 60.0456C51.7524 59.2016 55.5044 57.055 57.7481 52.6501C58.7636 50.6561 58.6177 48.2871 57.4292 46.3843C57.407 46.3489 57.3848 46.3126 57.3616 46.2773Z" fill="#69564A"/>
<path d="M39.2507 63.8987C38.4757 63.8987 37.6689 63.8466 36.8321 63.7284C34.3797 63.3832 32.2877 61.8544 31.2384 59.638C31.219 59.5989 31.2017 59.5589 31.1823 59.5189C29.9291 56.8233 29.3377 53.7741 29.473 50.7008C29.616 47.4553 29.3348 45.0081 28.6807 43.8106C28.5995 43.6626 28.5975 43.4868 28.6768 43.3379C28.757 43.189 28.9058 43.0867 29.0778 43.0643L38.5048 41.8063L44.913 35.0315C45.03 34.9078 45.202 34.8473 45.3749 34.8678C45.5469 34.8892 45.6967 34.9897 45.7779 35.1376C46.434 36.3351 48.3694 37.943 51.2305 39.6644C53.939 41.2946 56.2165 43.4877 57.8166 46.0084C57.8389 46.0456 57.863 46.0828 57.8862 46.12C59.1907 48.2062 59.3163 50.7315 58.2264 52.8744C55.9353 57.3714 52.1514 59.5868 50.1 60.508C49.3937 60.8244 48.6786 61.1882 47.9162 61.6181C46.29 62.5374 43.2095 63.8987 39.2507 63.8987ZM29.9155 43.9892C30.5871 45.8074 30.6325 48.6016 30.5388 50.7464C30.4083 53.6615 30.9668 56.5507 32.1544 59.1011C32.1727 59.1393 32.1901 59.1765 32.2075 59.2137C33.1062 61.1119 34.8928 62.4201 36.9868 62.7151C41.7804 63.3888 45.5556 61.7641 47.379 60.736C48.1694 60.2903 48.9134 59.9116 49.6507 59.5812C51.5745 58.7178 55.1246 56.6391 57.2726 52.4249C58.2032 50.5966 58.0921 48.4369 56.9741 46.6485C56.9528 46.6132 56.9306 46.5788 56.9093 46.5443C55.3952 44.1595 53.2375 42.0818 50.6672 40.5353C48.7781 39.3973 46.4098 37.7811 45.2319 36.2198L39.1638 42.6354C39.0797 42.7238 38.9666 42.7815 38.8439 42.7973L29.9155 43.9892Z" fill="#51332A"/>
<path d="M52.9621 48.2555C51.3098 45.8483 48.295 42.0408 43.8743 38.6771L39.0855 42.8689L32.7863 44.3019C33.168 49.7154 34.7237 54.2626 35.8504 56.9359C36.7181 58.9932 38.7927 60.3619 41.0992 60.32C44.6019 60.2568 47.6708 58.5633 47.6708 58.5633C47.6708 58.5633 50.8576 57.0838 52.8926 54.3371C54.2318 52.5301 54.2337 50.1081 52.9621 48.2555Z" fill="white"/>
<path d="M40.9997 60.8262C38.5579 60.8262 36.3026 59.3505 35.3653 57.1257C34.1594 54.2664 32.6434 49.7266 32.2636 44.3354L32.2337 43.9083L38.8333 42.4065L43.8511 38.0146L44.2 38.2808C48.6033 41.6305 51.6335 45.4026 53.3998 47.9773C54.7942 50.0104 54.7623 52.6845 53.3187 54.6311C51.2847 57.3769 48.2004 58.8759 47.9153 59.0109C47.639 59.1616 44.6106 60.7629 41.1079 60.8262C41.0731 60.8253 41.0364 60.8262 40.9997 60.8262ZM33.3439 44.6936C33.7613 49.7647 35.1933 54.03 36.3384 56.7451C37.1278 58.6173 39.0391 59.8539 41.0905 59.8139C44.4203 59.7543 47.3809 58.1399 47.4109 58.1241L47.4428 58.1064C47.4737 58.0925 50.5358 56.6465 52.4655 54.043C53.6569 52.4342 53.682 50.2197 52.5244 48.5337C50.8479 46.0893 48.0033 42.5396 43.8966 39.3406L39.3386 43.3305L33.3439 44.6936Z" fill="#51332A"/>
<path d="M54.7555 45.946C56.4823 48.637 56.4301 52.0397 56.577 54.0365C56.7151 55.9263 55.6426 57.7426 53.8501 58.5242C53.7892 58.5503 53.7274 58.5763 53.6656 58.6015C51.4644 59.4938 48.9067 58.0701 48.812 55.7719C48.7666 54.7018 49.2478 53.5071 50.9011 52.4249C50.9011 52.4249 49.7241 45.9572 46.8843 40.6702C46.8823 40.6712 51.2808 40.5316 54.7555 45.946Z" fill="white"/>
<path d="M32.8588 57.0541C34.9305 59.5087 37.1307 61.8302 38.7579 63.0752C40.2991 64.2541 42.4597 64.4309 44.1429 63.4483C44.1999 63.4148 44.257 63.3804 44.315 63.345C46.3238 62.1019 46.5499 59.2649 44.6367 57.8887C43.7449 57.2485 42.45 56.9545 40.588 57.6561C40.588 57.6561 35.7151 53.0623 32.794 47.8172" fill="#69564A"/>
<path d="M47.3104 15.3045C36.204 2.90216 22.3197 11.1778 22.3197 11.1778C22.3197 11.1778 7.38012 17.5227 11.7206 33.3585C11.7206 33.3585 10.5601 41.5951 18.5976 45.0816C21.051 46.1461 23.7758 46.4755 26.4504 46.1898C29.5705 45.8567 34.7392 44.9607 39.4836 42.5535C44.228 40.1464 47.9191 36.5482 49.9696 34.2592C51.7262 32.2978 52.9853 29.9455 53.4607 27.396C55.0193 19.0431 47.3104 15.3045 47.3104 15.3045Z" fill="white"/>
<path d="M50.1184 17.332C46.976 18.7473 40.7204 19.5549 34.7111 8.5697C34.7111 8.5697 34.6474 8.5604 34.5266 8.54923C34.3739 8.53621 34.1333 8.51667 33.8193 8.50085C33.3168 8.47852 32.6269 8.46642 31.8143 8.50085C31.6094 8.50922 31.3978 8.52132 31.1833 8.539C29.4218 8.68229 27.8255 9.03867 26.4881 9.44342C26.4485 9.45645 26.4031 9.47041 26.3635 9.48343C25.9703 9.60347 25.6001 9.73001 25.2571 9.85469C27.0119 14.0614 29.1116 18.1378 31.5263 22.0328C32.7448 23.9979 34.2077 26.0441 36.4563 26.7773C38.9473 27.5933 41.6403 26.5707 44.2695 26.4516C47.4254 26.3055 50.6034 27.5961 52.7611 29.8051C53.0713 29.0272 53.307 28.2214 53.4607 27.397C54.367 22.5399 52.1379 19.2404 50.1184 17.332ZM39.5551 20.3747C40.2759 21.6932 39.7493 23.3196 38.383 24.0119C37.0147 24.706 35.3276 24.2027 34.6068 22.8851L34.2251 22.1872C33.1641 22.7092 31.8636 22.311 31.3079 21.2968C30.7465 20.2705 31.1524 19.0022 32.2172 18.4616C33.0656 18.0317 34.0734 18.1946 34.7285 18.7994C34.9025 18.6458 35.0986 18.5128 35.3141 18.403C36.6795 17.7107 38.3704 18.2122 39.0913 19.5307L39.5551 20.3747Z" fill="#69564A"/>
<path d="M18.5985 45.0807C19.3909 45.425 20.2151 45.6929 21.0568 45.8865C20.3862 42.9238 21.077 39.67 22.9874 37.2461C24.5769 35.2251 26.9752 33.6656 27.6844 31.225C28.328 29.0244 27.4032 26.7056 26.4089 24.6269C24.4387 20.5059 22.1361 16.5327 19.5262 12.7596C19.2237 12.9615 18.9068 13.1839 18.5821 13.4286C18.5483 13.4538 18.5116 13.4798 18.4768 13.5049C17.3743 14.3387 16.1665 15.405 15.0475 16.7225C14.9093 16.8835 14.7818 17.0445 14.6571 17.2017C14.1682 17.827 13.7885 18.3825 13.5227 18.7947C13.3594 19.0525 13.2396 19.2544 13.1642 19.3837C13.1053 19.4861 13.0773 19.5419 13.0773 19.5419C19.0875 30.5271 14.8571 35.038 11.8684 36.7334C12.3603 39.4197 13.9247 43.055 18.5985 45.0807ZM19.9861 29.2235C19.2653 27.905 19.7919 26.2785 21.1573 25.5863C21.3737 25.4755 21.5988 25.3964 21.8278 25.3443C21.6809 24.4818 22.111 23.5895 22.9584 23.1596C24.0232 22.619 25.3402 23.0144 25.9007 24.0398C26.4553 25.054 26.0611 26.313 25.0136 26.8592L25.3963 27.557C26.1181 28.8755 25.5944 30.5001 24.2252 31.1942C22.8608 31.8875 21.1698 31.385 20.448 30.0674L19.9861 29.2235Z" fill="#69564A"/>
<path d="M24.6291 46.8002C22.4183 46.8002 20.2866 46.3759 18.3782 45.5496C14.0397 43.6673 12.3149 40.432 11.6317 38.05C10.9795 35.7741 11.1293 33.8619 11.1805 33.3967C10.191 29.7315 10.1408 26.2618 11.0317 23.0805C11.7506 20.5096 13.0831 18.1257 14.9896 15.9968C18.099 12.5242 21.6617 10.9043 22.0704 10.7247C22.456 10.5004 25.8592 8.58737 30.591 8.08212C33.4918 7.77227 36.2872 8.06258 38.8971 8.9456C42.1244 10.0371 45.0686 12.0394 47.6476 14.8979C48.0757 15.1212 49.7985 16.0842 51.3774 17.8884C53.0327 19.7782 54.827 22.9772 53.9844 27.4882C53.51 30.0284 52.2606 32.4857 50.3725 34.5951C48.1143 37.1158 44.4357 40.6218 39.7319 43.0085C35.0281 45.3943 29.9455 46.3331 26.5085 46.7006C25.8785 46.7667 25.2504 46.8002 24.6291 46.8002ZM32.8676 8.98375C32.1602 8.98375 31.4394 9.02283 30.7089 9.10006C26.0234 9.59973 22.6337 11.5947 22.5999 11.6142L22.569 11.6328L22.5352 11.6468C22.4984 11.6626 18.846 13.2453 15.7694 16.6937C11.6762 21.2856 10.4867 26.848 12.2347 33.2283L12.2618 33.3269L12.2473 33.4274C12.2453 33.4469 11.9816 35.4428 12.6695 37.8127C13.5798 40.9512 15.6486 43.2402 18.817 44.6145C21.0867 45.599 23.7063 45.9674 26.3925 45.6808C29.7368 45.3235 34.6793 44.4126 39.2372 42.1004C43.7942 39.7881 47.3693 36.3789 49.5657 33.9243C51.331 31.9535 52.4964 29.6645 52.9361 27.3048C53.5516 24.011 52.7621 21.0744 50.588 18.576C48.9483 16.689 47.0892 15.7697 47.0698 15.7613L46.9761 15.7158L46.9075 15.6385C42.9467 11.216 38.2304 8.98375 32.8676 8.98375Z" fill="#51332A"/>
<path d="M24.2271 31.1961C22.8599 31.8893 21.1679 31.385 20.448 30.0684L19.9852 29.2235C19.2653 27.9069 19.79 26.2776 21.1563 25.5844C22.5236 24.8912 24.2155 25.3964 24.9354 26.7121L25.3982 27.557C26.1181 28.8736 25.5934 30.502 24.2271 31.1961Z" fill="#51332A"/>
<path d="M23.9739 27.1132C25.1768 27.1132 26.1519 26.1742 26.1519 25.0159C26.1519 23.8576 25.1768 22.9186 23.9739 22.9186C22.7711 22.9186 21.796 23.8576 21.796 25.0159C21.796 26.1742 22.7711 27.1132 23.9739 27.1132Z" fill="white"/>
<path d="M38.385 24.0138C39.7522 23.3205 40.276 21.6913 39.5561 20.3747L39.0933 19.5307C38.3744 18.2141 36.6814 17.7088 35.3151 18.403C33.9488 19.0962 33.4241 20.7254 34.143 22.0421L34.6058 22.886C35.3257 24.2026 37.0167 24.707 38.385 24.0138Z" fill="#51332A"/>
<path d="M33.2337 22.4161C34.4366 22.4161 35.4117 21.4771 35.4117 20.3188C35.4117 19.1605 34.4366 18.2215 33.2337 18.2215C32.0309 18.2215 31.0558 19.1605 31.0558 20.3188C31.0558 21.4771 32.0309 22.4161 33.2337 22.4161Z" fill="white"/>
<path d="M31.306 27.6045C31.306 27.6045 31.0055 27.7022 30.6886 27.9273C30.0943 28.3516 30.1639 29.2514 30.8229 29.5789C31.2461 29.7892 31.7969 29.899 32.395 29.5957C32.9932 29.2924 33.2106 28.7927 33.2685 28.3377C33.3613 27.6305 32.6298 27.0648 31.9302 27.2974C31.5592 27.4221 31.306 27.6045 31.306 27.6045Z" fill="#51332A"/>
<path d="M31.3099 34.437C31.0906 34.437 30.8867 34.3067 30.8074 34.0983C30.7089 33.8322 30.8518 33.5381 31.1282 33.4423C32.9603 32.8068 32.8453 31.4501 32.8434 31.4362C32.8231 31.2296 32.9342 31.0305 33.1246 30.9328C33.3168 30.836 33.5487 30.8602 33.7149 30.9933C33.7565 31.0258 34.8474 31.8437 36.4031 30.7653C36.6418 30.5997 36.9742 30.6518 37.1462 30.8816C37.3182 31.1114 37.2631 31.4315 37.0254 31.5971C35.7644 32.4709 34.5981 32.4448 33.8096 32.1843C33.5874 32.9575 32.9506 33.8982 31.4887 34.4053C31.4307 34.4267 31.3698 34.437 31.3099 34.437Z" fill="#51332A"/>
<path d="M24.6291 46.8002C22.4183 46.8002 20.2866 46.3759 18.3782 45.5496C14.0397 43.6673 12.3149 40.432 11.6317 38.05C10.9795 35.7741 11.1293 33.8619 11.1805 33.3967C10.191 29.7315 10.1408 26.2618 11.0317 23.0805C11.7506 20.5096 13.0831 18.1257 14.9896 15.9968C18.099 12.5242 21.6617 10.9043 22.0704 10.7247C22.456 10.5004 25.8592 8.58737 30.591 8.08212C33.4918 7.77227 36.2872 8.06258 38.8971 8.9456C42.1244 10.0371 45.0686 12.0394 47.6476 14.8979C48.0757 15.1212 49.7985 16.0842 51.3774 17.8884C53.0327 19.7782 54.827 22.9772 53.9844 27.4882C53.51 30.0284 52.2606 32.4857 50.3725 34.5951C48.1143 37.1158 44.4357 40.6218 39.7319 43.0085C35.0281 45.3943 29.9455 46.3331 26.5085 46.7006C25.8785 46.7667 25.2504 46.8002 24.6291 46.8002ZM32.8676 8.98375C32.1602 8.98375 31.4394 9.02283 30.7089 9.10006C26.0234 9.59973 22.6337 11.5947 22.5999 11.6142L22.569 11.6328L22.5352 11.6468C22.4984 11.6626 18.846 13.2453 15.7694 16.6937C11.6762 21.2856 10.4867 26.848 12.2347 33.2283L12.2618 33.3269L12.2473 33.4274C12.2453 33.4469 11.9816 35.4428 12.6695 37.8127C13.5798 40.9512 15.6486 43.2402 18.817 44.6145C21.0867 45.599 23.7063 45.9674 26.3925 45.6808C29.7368 45.3235 34.6793 44.4126 39.2372 42.1004C43.7942 39.7881 47.3693 36.3789 49.5657 33.9243C51.331 31.9535 52.4964 29.6645 52.9361 27.3048C53.5516 24.011 52.7621 21.0744 50.588 18.576C48.9483 16.689 47.0892 15.7697 47.0698 15.7613L46.9761 15.7158L46.9075 15.6385C42.9467 11.216 38.2304 8.98375 32.8676 8.98375Z" fill="#51332A"/>
<path d="M18.5831 13.4296C18.5831 13.4296 9.31561 13.4473 5.14324 21.9769C4.15668 23.9933 3.67838 26.2004 3.59045 28.427C3.46483 31.5869 3.91895 36.1779 7.39367 37.3736C8.6276 37.7988 9.9939 37.6462 11.1737 37.0953C14.1073 35.7257 19.5745 31.4194 13.0783 19.5428C13.0773 19.5428 14.9809 15.954 18.5831 13.4296Z" fill="#69564A"/>
<path d="M26.3607 9.48435C26.3607 9.48435 31.6171 2.13451 41.2818 3.64467C43.5651 4.00197 45.7267 4.86918 47.6834 6.05926C50.4614 7.74621 54.1361 10.7033 53.196 14.1395C52.8597 15.3594 51.9582 16.3587 50.8199 16.9831C47.9868 18.5388 41.2074 20.4454 34.7102 8.56876C34.7112 8.56876 30.561 8.05141 26.3607 9.48435Z" fill="#69564A"/>
<path d="M8.88174 38.1272C8.30584 38.1272 7.74056 38.0379 7.21394 37.8555C5.5017 37.2656 4.29577 35.8969 3.63194 33.7847C3.16812 32.3099 2.9749 30.5001 3.05703 28.4065C3.15559 25.9733 3.69475 23.7365 4.66102 21.7583C6.89118 17.1999 10.5534 15.0384 13.2329 14.0269C16.1307 12.9336 18.4836 12.9169 18.5812 12.9169L20.2209 12.9141L18.8952 13.8446C15.9481 15.9093 14.1576 18.7342 13.6783 19.5484C16.4718 24.7405 17.3057 29.0783 16.1558 32.4457C15.1866 35.2893 13.0357 36.7948 11.4037 37.5568C10.594 37.9346 9.7253 38.1272 8.88174 38.1272ZM16.8593 14.1181C15.978 14.2614 14.8282 14.5229 13.5836 14.9956C9.96683 16.3699 7.28832 18.7928 5.6244 22.1947C4.71804 24.0472 4.21268 26.1501 4.12185 28.4456C4.04262 30.4247 4.22138 32.121 4.6504 33.4869C5.21181 35.2707 6.19452 36.4152 7.57146 36.8897C8.6015 37.2451 9.83057 37.1512 10.9398 36.6338C12.3873 35.9574 14.2928 34.6268 15.1461 32.1247C16.2196 28.9778 15.3654 24.8242 12.6048 19.7801L12.4762 19.5447L12.6019 19.3083C12.6714 19.1799 14.1131 16.5001 16.8593 14.1181Z" fill="#51332A"/>
<path d="M46.4726 18.6561C45.7006 18.6561 44.8802 18.5556 44.0192 18.3137C40.4846 17.3208 37.2399 14.2047 34.3749 9.05168C33.4057 8.97166 29.9658 8.79859 26.5403 9.9682L24.9924 10.4958L25.9229 9.19497C25.9799 9.11681 27.323 7.25865 29.8991 5.57542C32.28 4.01873 36.2021 2.33364 41.3678 3.14036C43.6077 3.49022 45.8291 4.32672 47.9674 5.62659C49.8072 6.7441 51.2489 7.92115 52.25 9.12333C53.682 10.8456 54.1748 12.5763 53.711 14.2707C53.3602 15.5539 52.4026 16.7058 51.0846 17.4288C49.9618 18.0447 48.3704 18.6561 46.4726 18.6561ZM32.8105 7.96209C33.9613 7.96209 34.7073 8.05142 34.7788 8.05979L35.0523 8.09422L35.1808 8.32963C37.9395 13.3737 41.0141 16.4015 44.3159 17.3283C46.9422 18.0652 49.1598 17.305 50.5561 16.5374C51.6277 15.9484 52.4017 15.0263 52.6809 14.0074C53.0539 12.6452 52.6288 11.2169 51.418 9.76257C50.4904 8.64878 49.1386 7.54803 47.3993 6.49101C45.3827 5.26557 43.2946 4.47652 41.1949 4.149C37.3259 3.54419 33.7265 4.30811 30.4953 6.42029C29.3976 7.13769 28.5376 7.89231 27.9221 8.50363C29.8025 8.0691 31.5485 7.96209 32.8105 7.96209Z" fill="#51332A"/>
<path d="M52.2819 59.3831C51.5118 59.3831 50.7445 59.1746 50.0759 58.7643C48.984 58.0971 48.3289 57.0141 48.2786 55.7933C48.2206 54.4162 48.9048 53.2084 50.3145 52.1979C50.0372 50.845 48.8255 45.4036 46.4098 40.9056C46.2736 40.6544 46.378 40.3446 46.6379 40.2152C46.8978 40.0859 47.2196 40.1836 47.3549 40.4348C50.1986 45.7302 51.3746 52.0695 51.4238 52.3366C51.4596 52.5357 51.3726 52.7357 51.1997 52.8492C49.9203 53.6848 49.2951 54.6618 49.3405 55.7514C49.3782 56.6316 49.8537 57.4142 50.646 57.8989C51.4896 58.4154 52.5409 58.501 53.4588 58.1297C53.5178 58.1055 53.5738 58.0813 53.6308 58.0571C55.1991 57.3742 56.1692 55.7719 56.0445 54.0719C55.9141 52.2826 55.2754 49.4474 54.2463 46.0912C54.1623 45.8195 54.3236 45.5348 54.6048 45.4538C54.886 45.3738 55.1826 45.5292 55.2667 45.8009C55.8754 47.7847 56.9248 51.488 57.1075 54.0002C57.2621 56.1264 56.0407 58.1316 54.0705 58.9904C54.0048 59.0192 53.9381 59.0472 53.8714 59.0741C53.3612 59.2816 52.8211 59.3831 52.2819 59.3831Z" fill="#51332A"/>
<path d="M41.7543 64.5965C40.5784 64.5965 39.3976 64.2178 38.4274 63.4762C36.3799 61.9093 33.8019 58.982 32.4472 57.3769C32.2617 57.1573 32.2964 56.8345 32.5245 56.6558C32.7525 56.4772 33.0869 56.5107 33.2734 56.7303C35.5644 59.4463 37.6313 61.5576 39.0903 62.6732C40.4769 63.733 42.3969 63.8689 43.8685 63.0091C43.9216 62.9784 43.9738 62.9458 44.027 62.9133C44.8647 62.395 45.3855 61.511 45.4213 60.5499C45.4532 59.6464 45.0522 58.8257 44.3188 58.299C43.4115 57.6468 42.222 57.5909 40.7823 58.1325C40.588 58.206 40.3648 58.1622 40.216 58.0217C40.015 57.8319 35.2503 53.3135 32.3235 48.0591C32.1853 47.8098 32.2819 47.499 32.5419 47.365C32.8018 47.231 33.1245 47.325 33.2617 47.5744C35.7489 52.0406 39.7232 56.0761 40.7262 57.0606C42.3873 56.5134 43.8096 56.653 44.9556 57.4774C45.973 58.2078 46.5296 59.3402 46.4852 60.5852C46.4369 61.8823 45.7344 63.0752 44.6029 63.7749C44.542 63.813 44.4812 63.8493 44.4203 63.8847C43.6038 64.362 42.681 64.5965 41.7543 64.5965Z" fill="#51332A"/>
</svg>
