<svg width="50" height="41" viewBox="0 0 50 41" fill="none" xmlns="http://www.w3.org/2000/svg">
<path d="M15.4717 30.1075L11.793 31.6034L12.0691 33.1792C12.321 34.6553 13.147 35.9608 14.3975 36.8567C15.4486 37.6098 16.6992 38.009 18.0131 38.009C18.2588 38.009 18.5058 37.9939 18.7491 37.966L20.4157 37.7734L20.8962 33.9904C21.7137 33.8128 22.4692 33.4171 23.0641 32.8508L47.3787 40.7975L47.4943 40.4772L47.7643 40.5619L47.7887 40.4923L48.2412 40.6188V39.2286L48.3957 38.7957C52.5684 27.1264 48.4188 14.3036 38.0699 6.8872C32.8413 3.14014 26.6431 1.16042 20.1432 1.16042C13.9925 1.16042 8.0692 2.95331 3.00968 6.34875C2.95493 6.38588 2.9002 6.42418 2.84545 6.46363C2.81869 6.48336 2.7907 6.50309 2.76272 6.52166L0.760324 7.87239L2.45007 9.34153L16.0313 27.7878C15.6068 28.5038 15.4219 29.3103 15.4717 30.1075ZM16.9182 33.9393C16.8683 33.9091 16.8196 33.8766 16.771 33.843C16.7235 33.8093 16.6773 33.7734 16.6335 33.7363L16.9608 33.6039L16.9182 33.9393ZM20.3974 29.9555L20.3804 30.0043C20.3622 30.0553 20.3391 30.1006 20.3086 30.1389C20.176 30.3072 19.9875 30.3257 19.9121 30.3257C19.8585 30.3257 19.8062 30.3176 19.7576 30.3025L19.5994 30.2538L19.5057 30.1226C19.4048 29.9822 19.3707 29.7583 19.5155 29.5726C19.5459 29.5331 19.5848 29.4995 19.6335 29.4682L19.6809 29.438L19.7357 29.4183C19.7466 29.4148 19.7576 29.4113 19.7685 29.4078L19.8318 29.3904L19.9765 29.3881L20.1018 29.4206L20.2138 29.4821L20.3159 29.5819L20.3768 29.6967L20.4047 29.8244L20.3974 29.9555ZM15.5946 15.5069L13.9705 15.9514L14.0095 16.0721C13.5594 16.2589 13.119 16.4654 12.6883 16.6929L6.7967 8.69052L7.1641 8.4445L7.05461 8.34353C11.0266 6.10737 15.5107 4.93418 20.1408 4.93418C25.7769 4.93418 31.1539 6.65279 35.6928 9.90549C44.1586 15.9723 47.8434 26.2085 45.1999 35.8436L44.9992 35.7879L44.9201 36.0095L35.2719 32.8566C35.3789 32.404 35.4629 31.9468 35.5249 31.4873L35.6575 31.4896L35.6514 29.8697L35.7159 28.2439L35.5833 28.2416C35.5383 27.7809 35.4702 27.3213 35.3789 26.8664L35.5055 26.8293L34.9714 25.2882L34.5043 23.7275L34.3777 23.7646C34.1843 23.3399 33.9702 22.9233 33.7354 22.5171L33.8437 22.444L32.8328 21.1339L31.8826 19.7912L31.7756 19.8632C31.4544 19.5174 31.1162 19.1855 30.7622 18.8675L30.8401 18.7689L29.4581 17.8197L28.1187 16.8205L28.0409 16.9192C27.6224 16.6825 27.1942 16.4654 26.7562 16.267L26.7988 16.1475L25.1833 15.652L23.5823 15.0915L23.5397 15.211C23.0653 15.1089 22.586 15.0288 22.1042 14.9708L22.1067 14.8443L20.4011 14.8513L18.7053 14.7921L18.7028 14.9174C18.2199 14.9615 17.7393 15.0265 17.2625 15.1124L17.2235 14.9917L15.5946 15.5069Z" fill="#6B5951"/>
<path d="M14.7114 28.9471L11.0327 30.4429L11.3088 32.0188C11.5606 33.4949 12.3866 34.8004 13.6372 35.6962C14.6883 36.4494 15.9389 36.8485 17.2527 36.8485C17.4985 36.8485 17.7454 36.8335 17.9887 36.8056L19.6554 36.613L20.1359 32.83C20.9534 32.6524 21.7089 32.2567 22.3037 31.6904L46.6184 39.6371L46.734 39.3168L47.004 39.4015L47.0284 39.3319L47.4809 39.4584V38.0681L47.6354 37.6353C51.8081 25.966 47.6585 13.1431 37.3096 5.72677C32.0809 1.97972 25.8828 0 19.3829 0C13.2321 0 7.30887 1.79289 2.24935 5.18833C2.19461 5.22546 2.13987 5.26375 2.08513 5.30321C2.05836 5.32294 2.03037 5.34267 2.00239 5.36123L0 6.71199L1.68974 8.18111L15.271 26.6274C14.8464 27.3434 14.6615 28.1499 14.7114 28.9471ZM16.1579 32.7789C16.108 32.7487 16.0593 32.7162 16.0107 32.6826C15.9632 32.6489 15.917 32.613 15.8732 32.5758L16.2004 32.4435L16.1579 32.7789ZM19.6371 28.7951L19.6201 28.8439C19.6018 28.8949 19.5787 28.9402 19.5483 28.9785C19.4157 29.1467 19.2272 29.1653 19.1517 29.1653C19.0982 29.1653 19.0459 29.1572 18.9972 29.1421L18.8391 29.0933L18.7454 28.9622C18.6444 28.8218 18.6104 28.5978 18.7551 28.4122C18.7855 28.3727 18.8245 28.3391 18.8731 28.3077L18.9206 28.2776L18.9753 28.2578C18.9863 28.2544 18.9972 28.2509 19.0082 28.2474L19.0714 28.23L19.2162 28.2277L19.3415 28.2601L19.4534 28.3216L19.5556 28.4214L19.6164 28.5363L19.6444 28.664L19.6371 28.7951ZM14.8343 14.3465L13.2102 14.7909L13.2491 14.9116C12.799 15.0985 12.3587 15.305 11.928 15.5325L6.03638 7.5301L6.40377 7.28408L6.29429 7.18311C10.2662 4.94695 14.7503 3.77376 19.3804 3.77376C25.0166 3.77376 30.3936 5.49236 34.9325 8.74507C43.3983 14.8118 47.0831 25.048 44.4396 34.6832L44.2389 34.6275L44.1598 34.8491L34.5116 31.6962C34.6186 31.2436 34.7026 30.7864 34.7646 30.3269L34.8972 30.3292L34.8911 28.7093L34.9556 27.0835L34.823 27.0811C34.778 26.6204 34.7099 26.1609 34.6186 25.706L34.7451 25.6689L34.2111 24.1278L33.7439 22.5671L33.6174 22.6042C33.424 22.1794 33.2099 21.7629 32.9751 21.3567L33.0834 21.2836L32.0724 19.9735L31.1223 18.6308L31.0153 18.7028C30.6941 18.357 30.3559 18.0251 30.0019 17.7071L30.0798 17.6085L28.6978 16.6593L27.3584 15.6601L27.2805 15.7588C26.8621 15.522 26.4338 15.305 25.9959 15.1066L26.0385 14.9871L24.4229 14.4916L22.822 13.9311L22.7794 14.0506C22.305 13.9485 21.8256 13.8684 21.3439 13.8104L21.3463 13.6839L19.6408 13.6908L17.9449 13.6317L17.9425 13.757C17.4595 13.8011 16.979 13.8661 16.5021 13.952L16.4632 13.8313L14.8343 14.3465Z" fill="white"/>
<path d="M17.7296 34.7795L18.378 29.6759L13.4207 31.6916C13.5764 32.606 14.0849 33.4647 14.9219 34.0647C15.7588 34.6646 16.7673 34.8909 17.7296 34.7795Z" fill="#A31624"/>
<path d="M17.3695 30.0866L13.4207 31.6915C13.5679 32.5549 14.0338 33.3672 14.7905 33.9602C16.4401 33.4577 17.7174 32.0269 17.3695 30.0866Z" fill="#C52831"/>
<path d="M14.8233 34.1888C13.9851 33.5877 13.428 32.7092 13.2589 31.7159L13.2382 31.5953L18.5751 29.4252L17.8768 34.9187L17.749 34.9338C16.7028 35.0557 15.6639 34.7911 14.8233 34.1888ZM13.6044 31.7867C13.7832 32.6501 14.2832 33.4113 15.0204 33.9393C15.7588 34.4685 16.6651 34.7133 17.5836 34.6367L18.1821 29.9254L13.6044 31.7867Z" fill="#231F20"/>
<path d="M19.1785 28.6605L3.28093 7.06938L3.73226 6.76766L19.5276 28.2172L45.5235 36.7151L45.3447 37.2118L19.1785 28.6605Z" fill="#231F20"/>
<path d="M5.7213 9.82889C6.33564 10.5751 7.01689 11.2911 7.56676 12.0825C8.70543 13.721 9.66284 15.4466 11.0728 16.8971C11.2893 17.1188 11.4682 17.359 11.6312 17.6061C16.3732 14.5194 22.8268 14.4834 27.6747 17.9566C32.576 21.4692 34.3278 27.4873 32.4398 32.7313C32.424 32.7754 32.4033 32.8195 32.3863 32.8636C32.7889 32.9251 33.1916 33.0156 33.5882 33.1409C38.0139 34.5428 41.1209 35.7264 45.5004 36.9414C49.2461 26.4649 45.7388 14.4579 35.9519 7.4442C26.1479 0.41891 13.0533 0.561645 3.54371 6.94173C3.47802 6.98583 3.41597 7.03341 3.34906 7.07751C3.95489 7.64264 4.48286 8.31219 4.9123 9.05719C4.14224 7.72153 5.53152 9.59796 5.7213 9.82889Z" fill="#A31624"/>
<path d="M20.5994 12.853C32.4897 13.6479 34.2463 25.4426 39.1842 33.1955C40.2438 34.6565 43.1866 34.6588 43.8934 33.7606C45.2242 32.9332 46.189 31.9178 46.8605 30.7853C47.6646 22.0402 43.8605 13.1141 35.9531 7.44767C26.1492 0.422383 13.0545 0.565118 3.54493 6.9452C3.47924 6.9893 3.41719 7.03688 3.35028 7.08098C3.95611 7.64611 4.48409 8.3157 4.91352 9.0607C4.14103 7.72271 5.5303 9.59913 5.72129 9.83006C6.33564 10.5762 7.01689 11.2922 7.56676 12.0836C8.41346 13.3021 9.1604 14.5681 10.0667 15.7332C13.3501 13.6502 16.9948 12.3784 20.5994 12.853Z" fill="#E59CA7"/>
<path d="M46.6975 24.896C44.8179 18.0077 39.273 10.3662 32.5298 7.10188C23.2368 2.49726 14.3829 2.85701 4.25538 8.0813C4.49382 8.38998 4.71643 8.71605 4.91472 9.0607C4.14223 7.72272 5.5315 9.59914 5.7225 9.83007C6.33684 10.5762 7.01809 11.2922 7.56796 12.0836C8.41466 13.3021 9.16162 14.5681 10.0679 15.7332C13.3513 13.6514 16.996 12.3784 20.6006 12.853C32.4909 13.6479 34.2476 25.4426 39.1854 33.1955C40.245 34.6565 43.1878 34.6588 43.8946 33.7606C45.2255 32.9332 46.1902 31.9179 46.8617 30.7853C47.0417 28.8172 46.976 26.8421 46.6975 24.896Z" fill="#C52831"/>
<path d="M15.4936 8.77406C15.0739 8.72532 13.4255 8.84253 13.3781 9.21503C13.3306 9.58753 14.9024 10.0772 15.3221 10.126C15.7418 10.1747 16.1201 9.91127 16.1676 9.53761C16.2138 9.16395 15.9121 8.8228 15.4936 8.77406Z" fill="#FFBBC2"/>
<path d="M10.1202 8.15205C10.5399 8.20079 12.1105 8.68937 12.063 9.06187C12.0156 9.43553 10.3672 9.55154 9.94749 9.5028C9.52779 9.45406 9.22608 9.11291 9.27474 8.73925C9.32219 8.36675 9.70054 8.10331 10.1202 8.15205Z" fill="#FFBBC2"/>
<path d="M14.4377 11.247C14.2722 10.8756 13.3428 9.57244 12.9803 9.71981C12.6178 9.86719 12.9596 11.4106 13.1251 11.7808C13.2905 12.1521 13.7187 12.3331 14.0812 12.1857C14.445 12.0372 14.6043 11.6171 14.4377 11.247Z" fill="#FFBBC2"/>
<path d="M12.3161 6.49731C12.4815 6.86749 12.8234 8.40969 12.462 8.55706C12.1007 8.70444 11.1689 7.40013 11.0034 7.02995C10.838 6.65977 10.9973 6.23852 11.3599 6.0923C11.7224 5.94609 12.1506 6.12597 12.3161 6.49731Z" fill="#FFBBC2"/>
<path d="M11.6664 11.6113C11.9195 11.2887 12.6385 9.8695 12.3234 9.64321C12.0083 9.41809 10.7784 10.4718 10.5253 10.7944C10.2723 11.117 10.3222 11.5614 10.6361 11.7866C10.9499 12.0117 11.4122 11.9339 11.6664 11.6113Z" fill="#FFBBC2"/>
<path d="M14.917 7.48365C14.664 7.80625 13.4341 8.85993 13.1178 8.63364C12.8027 8.40852 13.5216 6.98815 13.7759 6.66671C14.0289 6.34411 14.4912 6.26636 14.8063 6.49148C15.1202 6.71777 15.17 7.16105 14.917 7.48365Z" fill="#FFBBC2"/>
<path d="M12.737 9.63163C13.0339 9.63163 13.2747 9.40197 13.2747 9.1187C13.2747 8.83542 13.0339 8.6058 12.737 8.6058C12.44 8.6058 12.1993 8.83542 12.1993 9.1187C12.1993 9.40197 12.44 9.63163 12.737 9.63163Z" fill="#FFBBC2"/>
<path d="M28.0262 7.23068C27.7477 7.19819 26.6504 7.27592 26.6175 7.52426C26.5859 7.77259 27.6321 8.09752 27.9107 8.13001C28.1892 8.1625 28.4423 7.98727 28.4727 7.73894C28.5031 7.4906 28.306 7.26317 28.0262 7.23068Z" fill="#FFBBC2"/>
<path d="M24.4497 6.81757C24.7282 6.85007 25.7745 7.17499 25.7428 7.42333C25.7112 7.67166 24.6139 7.7494 24.3353 7.71691C24.0567 7.68441 23.8548 7.45698 23.8876 7.20865C23.918 6.96031 24.1711 6.78508 24.4497 6.81757Z" fill="#FFBBC2"/>
<path d="M27.3243 8.87731C27.2148 8.63013 26.5956 7.76215 26.3548 7.86079C26.1139 7.95943 26.3414 8.98639 26.4509 9.2324C26.5616 9.47957 26.8462 9.59913 27.0871 9.50165C27.328 9.40418 27.435 9.12332 27.3243 8.87731Z" fill="#FFBBC2"/>
<path d="M25.9119 5.71515C26.0226 5.96232 26.2501 6.98932 26.0093 7.0868C25.7684 7.18427 25.1492 6.31626 25.0385 6.07024C24.9278 5.82307 25.0348 5.54341 25.2757 5.44594C25.5166 5.34846 25.8012 5.46798 25.9119 5.71515Z" fill="#FFBBC2"/>
<path d="M25.4789 9.11987C25.648 8.90519 26.126 7.96059 25.9168 7.80974C25.7076 7.66004 24.8888 8.36095 24.7197 8.57563C24.5506 8.79031 24.5847 9.08506 24.7939 9.23592C25.0032 9.38561 25.3098 9.33339 25.4789 9.11987Z" fill="#FFBBC2"/>
<path d="M27.643 6.37285C27.4739 6.58753 26.6552 7.28958 26.446 7.13872C26.2355 6.98902 26.7148 6.04327 26.8827 5.82859C27.0518 5.61391 27.3584 5.56286 27.5676 5.71256C27.7781 5.86225 27.8121 6.15816 27.643 6.37285Z" fill="#FFBBC2"/>
<path d="M26.1917 7.8016C26.3893 7.8016 26.5494 7.64888 26.5494 7.46046C26.5494 7.27204 26.3893 7.11928 26.1917 7.11928C25.9942 7.11928 25.8341 7.27204 25.8341 7.46046C25.8341 7.64888 25.9942 7.8016 26.1917 7.8016Z" fill="#FFBBC2"/>
<path d="M38.7536 16.1533C38.3898 16.1115 36.9641 16.2113 36.9239 16.5351C36.8826 16.8577 38.2426 17.2801 38.6051 17.323C38.9677 17.3648 39.2949 17.1374 39.3363 16.8148C39.3764 16.491 39.1173 16.1951 38.7536 16.1533Z" fill="#FFBBC2"/>
<path d="M34.1052 15.616C34.4678 15.6578 35.8278 16.0814 35.7865 16.404C35.7451 16.7266 34.3193 16.8275 33.9568 16.7846C33.5943 16.7428 33.3327 16.4469 33.3741 16.1243C33.4154 15.8017 33.7427 15.5731 34.1052 15.616Z" fill="#FFBBC2"/>
<path d="M37.8412 18.292C37.6976 17.9717 36.8935 16.8426 36.5796 16.9702C36.2658 17.0979 36.5614 18.4324 36.7062 18.7538C36.8497 19.0741 37.2195 19.2308 37.5334 19.1031C37.8472 18.9755 37.9835 18.6134 37.8412 18.292Z" fill="#FFBBC2"/>
<path d="M36.0042 14.1829C36.1478 14.5043 36.4434 15.8376 36.1307 15.9653C35.8181 16.0929 35.0127 14.965 34.8692 14.6447C34.7256 14.3244 34.8631 13.9612 35.177 13.8336C35.4908 13.7071 35.8619 13.8626 36.0042 14.1829Z" fill="#FFBBC2"/>
<path d="M35.4422 18.6076C35.6624 18.3291 36.2828 17.1002 36.0115 16.9052C35.739 16.7103 34.6758 17.6224 34.4556 17.9009C34.2366 18.1794 34.2792 18.5635 34.5517 18.7585C34.8242 18.9546 35.2232 18.8861 35.4422 18.6076Z" fill="#FFBBC2"/>
<path d="M38.2548 15.037C38.0346 15.3166 36.9713 16.2276 36.6988 16.0326C36.4263 15.8377 37.048 14.6088 37.2682 14.3303C37.4871 14.0517 37.8862 13.9844 38.1587 14.1794C38.4312 14.3732 38.475 14.7585 38.2548 15.037Z" fill="#FFBBC2"/>
<path d="M36.368 16.896C36.6246 16.896 36.8327 16.6975 36.8327 16.4527C36.8327 16.2079 36.6246 16.0094 36.368 16.0094C36.1113 16.0094 35.9033 16.2079 35.9033 16.4527C35.9033 16.6975 36.1113 16.896 36.368 16.896Z" fill="#FFBBC2"/>
<path d="M41.5211 27.7113C41.1586 27.6695 39.7316 27.7705 39.6915 28.0931C39.6501 28.4157 41.0102 28.8392 41.3727 28.881C41.7353 28.9228 42.0625 28.6953 42.1039 28.3727C42.144 28.0501 41.8837 27.7542 41.5211 27.7113Z" fill="#FFBBC2"/>
<path d="M36.8728 27.1739C37.2353 27.2157 38.5954 27.6393 38.554 27.9619C38.5127 28.2845 37.0857 28.3855 36.7244 28.3437C36.3607 28.3019 36.1003 28.006 36.1417 27.6834C36.1818 27.3596 36.5091 27.1322 36.8728 27.1739Z" fill="#FFBBC2"/>
<path d="M40.6076 29.8511C40.464 29.5308 39.6599 28.4017 39.346 28.5305C39.0322 28.6582 39.3278 29.9927 39.4725 30.3129C39.6161 30.6332 39.9859 30.7899 40.2998 30.6634C40.6136 30.5346 40.7511 30.1714 40.6076 29.8511Z" fill="#FFBBC2"/>
<path d="M38.7718 25.742C38.9153 26.0623 39.211 27.3968 38.8971 27.5244C38.5832 27.6521 37.7791 26.5241 37.6356 26.2027C37.492 25.8813 37.6307 25.5192 37.9433 25.3916C38.2584 25.2651 38.6295 25.4206 38.7718 25.742Z" fill="#FFBBC2"/>
<path d="M38.2098 30.1667C38.4287 29.8882 39.0504 28.6593 38.7779 28.4644C38.5054 28.2694 37.4421 29.1804 37.2232 29.4589C37.003 29.7374 37.0456 30.1215 37.3193 30.3176C37.5906 30.5125 37.9896 30.4452 38.2098 30.1667Z" fill="#FFBBC2"/>
<path d="M41.0212 26.5949C40.8022 26.8734 39.7377 27.7843 39.4652 27.5894C39.1927 27.3944 39.8144 26.1655 40.0345 25.887C40.2547 25.6085 40.6525 25.5401 40.925 25.7362C41.1975 25.9323 41.2413 26.3164 41.0212 26.5949Z" fill="#FFBBC2"/>
<path d="M39.1355 28.4551C39.3929 28.4551 39.6015 28.2561 39.6015 28.0106C39.6015 27.7652 39.3929 27.5662 39.1355 27.5662C38.8782 27.5662 38.6696 27.7652 38.6696 28.0106C38.6696 28.2561 38.8782 28.4551 39.1355 28.4551Z" fill="#FFBBC2"/>
<path d="M3.70429 7.15874C13.4012 0.653327 26.2939 0.852905 35.7877 7.65655C45.268 14.4498 49.0612 26.1841 45.2376 36.8671C45.3532 36.8985 45.4603 36.9321 45.5783 36.9634C45.6415 36.9808 45.6999 37.0075 45.7632 37.0273C49.6597 26.1296 45.7899 14.1643 36.1198 7.23534C26.4338 0.294762 13.2808 0.0905119 3.388 6.72822C3.30649 6.78392 3.22619 6.8431 3.14468 6.89764C3.28215 7.01716 3.41475 7.14135 3.5437 7.27132C3.59723 7.23419 3.64955 7.19588 3.70429 7.15874Z" fill="#231F20"/>
<path d="M27.5092 18.1678C32.2087 21.5354 34.0845 27.3538 32.1795 32.6477C32.1576 32.7092 32.1284 32.7684 32.1052 32.8288C32.2902 32.8508 32.4763 32.8798 32.6612 32.9146C32.6734 32.8821 32.688 32.8508 32.7014 32.8183C34.6843 27.3086 32.7306 21.2522 27.8413 17.7477C23.0057 14.2838 16.4632 14.1492 11.4888 17.3845C11.5959 17.5284 11.6895 17.6792 11.7784 17.8313C16.5593 14.7097 22.8572 14.835 27.5092 18.1678Z" fill="#231F20"/>
<path d="M36.182 7.59115L35.7416 7.27522L19.1741 28.2906L19.6146 28.6065L36.182 7.59115Z" fill="#231F20"/>
<path d="M18.8597 29.1502L28.0713 3.50569L28.5932 3.67627L19.9315 27.7901L41.7985 13.1385L42.1148 13.569L18.8597 29.1502Z" fill="#231F20"/>
<path d="M19.114 28.8276L19.5592 2.17116L20.1103 2.17814L19.6772 28.1128L45.6683 20.4933L45.8301 20.9958L19.114 28.8276Z" fill="#231F20"/>
<path d="M19.1906 28.7301L11.0338 3.40936L11.5606 3.25502L19.6006 28.2102L46.9663 28.6257L46.9578 29.1513L19.1906 28.7301Z" fill="#231F20"/>
<path d="M19.2223 28.6906L3.32352 7.10071L3.77486 6.79783L19.5702 28.2485L45.5661 36.7464L45.3873 37.2431L19.2223 28.6906Z" fill="#231F20"/>
<path d="M19.1522 30.8968C20.4274 30.8968 21.4612 29.9107 21.4612 28.6943C21.4612 27.4779 20.4274 26.4918 19.1522 26.4918C17.877 26.4918 16.8433 27.4779 16.8433 28.6943C16.8433 29.9107 17.877 30.8968 19.1522 30.8968Z" fill="#A31624"/>
<path d="M19.3524 30.2085C20.377 30.2085 21.2076 29.4162 21.2076 28.4388C21.2076 27.4615 20.377 26.6692 19.3524 26.6692C18.3278 26.6692 17.4972 27.4615 17.4972 28.4388C17.4972 29.4162 18.3278 30.2085 19.3524 30.2085Z" fill="#C52831"/>
<path d="M18.6992 28.5908C19.0176 28.5908 19.2758 28.3446 19.2758 28.0408C19.2758 27.737 19.0176 27.4908 18.6992 27.4908C18.3807 27.4908 18.1225 27.737 18.1225 28.0408C18.1225 28.3446 18.3807 28.5908 18.6992 28.5908Z" fill="#E59CA7"/>
<path d="M17.6663 30.581C16.5763 29.8 16.3561 28.3182 17.1749 27.2784C17.9936 26.2387 19.5471 26.0286 20.6359 26.8096C21.7259 27.5906 21.9473 29.0724 21.1286 30.1122C20.3098 31.152 18.7563 31.362 17.6663 30.581ZM20.44 27.0591C19.4948 26.3814 18.1469 26.5636 17.4364 27.4664C16.726 28.3692 16.9182 29.6538 17.8634 30.3315C18.8099 31.0092 20.1566 30.827 20.867 29.9242C21.5775 29.0214 21.3853 27.7368 20.44 27.0591Z" fill="#231F20"/>
</svg>
