<svg width="69" height="77" viewBox="0 0 69 77" fill="none" xmlns="http://www.w3.org/2000/svg">
<path d="M65.0413 48.3374L65.1832 48.2509C65.8639 47.8344 66.34 47.1814 66.5243 46.4087C66.7087 45.6371 66.5801 44.8412 66.1617 44.1671C65.7433 43.492 65.0849 43.0181 64.3079 42.836C63.8936 42.7374 63.4621 42.7294 63.0488 42.8089C62.8776 42.1851 62.6902 41.5583 62.4927 40.9415C60.795 35.6625 57.6507 28.4326 52.3133 23.9635C50.6095 22.5368 48.2949 20.599 45.3167 19.604C46.5222 17.6169 47.1816 15.3069 47.2768 12.7313C47.444 8.18164 44.9095 4.49727 40.497 2.87744C36.0612 1.24855 31.5129 1.95484 27.2341 2.81908C25.7552 3.1179 24.18 3.5626 22.5542 4.14212C17.3728 5.98732 11.8146 9.1958 8.39484 12.3157C5.41264 15.0363 3.82231 18.9792 4.24371 22.6072C4.61851 25.8338 6.50161 28.5483 9.54661 30.2506C10.67 30.8794 11.8441 31.2316 13.0039 31.3986C12.7902 31.4348 12.5785 31.4901 12.3708 31.5646C9.36126 32.6381 9.04213 36.7903 9.1252 40.7101C9.20421 44.4096 9.79177 48.5387 10.6589 51.4855C11.5827 54.6276 12.7729 57.7405 14.103 60.5003C13.4303 61.1573 13.1082 62.0869 13.2369 63.0186C13.3453 63.8023 13.7555 64.4996 14.3917 64.9785C15.0278 65.4574 15.8139 65.6626 16.605 65.553L16.7712 65.5318C15.4533 66.3166 14.9387 67.9928 15.6295 69.3872C16.3011 70.7415 17.8874 71.3783 19.3187 70.8692C19.4251 70.831 19.5305 70.7867 19.6308 70.7374C19.9671 70.5734 20.3115 70.4074 20.664 70.2424C20.7075 70.2867 20.7511 70.331 20.7936 70.3752C20.6113 70.5704 20.4422 70.7545 20.2852 70.9306C19.1881 72.151 19.2945 74.0314 20.5252 75.1221C21.3427 75.8455 22.4904 76.0668 23.5226 75.6996C23.9906 75.5325 24.413 75.2498 24.7433 74.8816C24.9681 74.6311 25.2204 74.3584 25.5111 74.0546C30.6236 77.0457 36.6244 77.7631 43.3485 76.1865C44.7161 75.8666 46.0744 75.4662 47.3862 74.9983C53.5795 72.7929 58.5168 69.1508 61.2883 64.7461C62.127 63.414 62.8108 61.9461 63.3213 60.3816C63.925 60.452 64.4325 60.5194 64.8701 60.5868C65.3614 60.6623 65.8689 60.614 66.3369 60.448C67.3691 60.0807 68.1137 59.1833 68.2818 58.1078C68.533 56.4909 67.4137 54.9717 65.7859 54.7222C65.4222 54.6659 65.0119 54.6095 64.5622 54.5532C65.097 54.4164 65.6359 54.2846 66.1637 54.1608C66.2741 54.1356 66.3845 54.1024 66.4909 54.0652C67.9222 53.5551 68.7387 52.062 68.3902 50.5921C68.2068 49.8204 67.7338 49.1655 67.0551 48.7479C66.4463 48.3767 65.7413 48.2328 65.0413 48.3374Z" fill="#CADBE3"/>
<path d="M60.8649 46.4389L61.0067 46.3524C61.6874 45.9369 62.1635 45.2829 62.3479 44.5112C62.5322 43.7395 62.4035 42.9437 61.9852 42.2696C61.5668 41.5945 60.9084 41.1206 60.1315 40.9375C59.7172 40.8399 59.2856 40.8309 58.8723 40.9104C58.7011 40.2866 58.5138 39.6598 58.3162 39.043C56.6175 33.764 53.4742 26.5331 48.1369 22.065C46.433 20.6393 44.1184 18.7005 41.1392 17.7055C42.3457 15.7184 43.0052 13.4084 43.1004 10.8328C43.2675 6.28314 40.733 2.59876 36.3205 0.978928C31.8847 -0.649962 27.3365 0.0573333 23.0577 0.92158C21.5787 1.22039 20.0036 1.6651 18.3777 2.24462C13.1964 4.09082 7.63716 7.2983 4.21838 10.4182C1.23618 13.1388 -0.355221 17.0817 0.0671891 20.7097C0.441989 23.9363 2.32515 26.6508 5.37015 28.3541C6.49354 28.9829 7.66754 29.3351 8.82739 29.5021C8.61366 29.5383 8.40197 29.5927 8.1933 29.6681C5.18476 30.7416 4.86567 34.8938 4.94874 38.8136C5.02775 42.5131 5.61525 46.6422 6.48236 49.5891C7.40619 52.7311 8.59646 55.844 9.92649 58.6028C9.25388 59.2608 8.93177 60.1904 9.06042 61.1211C9.16881 61.9058 9.57901 62.6031 10.2152 63.081C10.8513 63.5609 11.6364 63.7651 12.4285 63.6565L12.5946 63.6353C11.2757 64.4201 10.7622 66.0963 11.4531 67.4897C12.1247 68.845 13.7109 69.4808 15.1423 68.9728C15.2486 68.9345 15.354 68.8902 15.4543 68.8409C15.7895 68.6769 16.135 68.5109 16.4875 68.3459C16.5311 68.3902 16.5736 68.4345 16.6172 68.4777C16.4348 68.6739 16.2657 68.857 16.1076 69.0341C15.0116 70.2545 15.1179 72.1349 16.3487 73.2246C17.1662 73.949 18.3139 74.1703 19.3461 73.8031C19.8131 73.6361 20.2355 73.3533 20.5657 72.9851C20.7916 72.7336 21.0439 72.4619 21.3346 72.1581C26.4471 75.1482 32.4479 75.8666 39.172 74.29C40.5395 73.9701 41.8969 73.5696 43.2097 73.1018C49.4031 70.8964 54.3403 67.2543 57.1118 62.8496C57.9495 61.5175 58.6343 60.0496 59.1448 58.4851C59.7476 58.5555 60.2561 58.6229 60.6937 58.6903C61.185 58.7658 61.6925 58.7175 62.1605 58.5515C63.1927 58.1842 63.9362 57.2868 64.1044 56.2113C64.3566 54.5944 63.2372 53.0752 61.6094 52.8247C61.2457 52.7694 60.8355 52.712 60.3857 52.6567C60.9206 52.5198 61.4584 52.3881 61.9872 52.2643C62.0976 52.2391 62.208 52.2059 62.3144 52.1677C63.7447 51.6586 64.5622 50.1656 64.2137 48.6956C64.0304 47.9239 63.5573 47.269 62.8786 46.8514C62.2698 46.4782 61.5638 46.3353 60.8649 46.4389Z" fill="white"/>
<path d="M32.5076 72.1319C28.086 72.1319 24.1232 70.7978 20.7308 68.1689C14.0999 63.0286 10.5626 52.8821 9.35004 48.757C7.7617 43.3572 7.43955 34.5618 8.76553 32.8052C8.95901 32.5486 9.18796 32.4188 9.44525 32.4188C9.45538 32.4188 9.53238 32.4239 9.54251 32.4249C13.2307 32.9007 16.7913 34.9321 18.6714 37.6234C20.8827 36.7089 24.031 35.4864 27.0781 34.3032C31.1006 32.7418 35.6417 30.9781 36.2323 30.5857C36.2505 26.8782 37.6333 21.8446 38.7708 20.2862C38.8124 20.2278 38.8792 20.1956 38.9491 20.1956C38.9643 20.1956 38.9785 20.1966 38.9937 20.1996C41.987 20.7993 44.3301 22.7602 46.2122 24.3357C51.0035 28.3481 53.8915 35.0407 55.4697 39.9475C57.053 44.8674 59.0404 54.1809 54.5773 61.278C50.3451 68.0039 41.9141 70.5986 38.4851 71.4015C36.4136 71.8864 34.4029 72.1319 32.5076 72.1319Z" fill="#B0B9C2"/>
<path d="M38.9492 20.4139C41.7804 20.9804 43.9432 22.7229 46.0684 24.5027C50.7139 28.3924 53.6272 34.9401 55.2591 40.0139C57.4157 46.7186 58.2737 54.9848 54.3889 61.1603C51.035 66.4907 44.5043 69.7645 38.4346 71.1872C36.4218 71.659 34.4404 71.9126 32.5097 71.9126C28.3302 71.9126 24.3887 70.7254 20.8686 67.9958C15.3145 63.6907 11.5847 55.5704 9.56282 48.6946C7.81342 42.7495 7.58855 32.6381 9.44634 32.6381C9.46863 32.6381 9.49194 32.6392 9.51423 32.6422C12.9502 33.0839 16.6708 35.0297 18.5904 37.8951C24.2165 35.5559 36.4542 31.0445 36.4542 30.6742C36.4502 27.0301 37.8461 21.9261 38.9492 20.4139ZM38.9492 19.9743C38.8084 19.9743 38.6747 20.0407 38.5906 20.1564C37.448 21.7229 36.0602 26.7252 36.0126 30.4589C35.1435 30.9358 30.8241 32.612 26.987 34.102C24.0169 35.255 20.9507 36.4453 18.7505 37.3518C16.8096 34.6836 13.2511 32.6794 9.57092 32.2055C9.52838 32.2005 9.48688 32.1975 9.44535 32.1975C9.21743 32.1975 8.88517 32.28 8.58837 32.6724C7.08917 34.6594 7.64322 43.7406 9.13634 48.8174C10.356 52.9625 13.9126 63.1605 20.5962 68.3409C24.0281 71.0021 28.0364 72.3513 32.5097 72.3513C34.4222 72.3513 36.4492 72.1027 38.5349 71.6148C41.9911 70.8049 50.489 68.188 54.7637 61.3927C59.2755 54.2212 57.2749 44.8362 55.6804 39.8801C54.0931 34.9452 51.1859 28.2143 46.354 24.1667C44.4527 22.575 42.0864 20.594 39.0353 19.9833C39.0069 19.9773 38.9786 19.9743 38.9492 19.9743Z" fill="#243645"/>
<path d="M40.1192 22.3879C42.686 23.0449 44.9774 24.714 46.3773 26.9496C46.5779 27.2716 45.0068 27.0633 44.9511 27.0764C44.5428 27.175 44.3787 27.6448 43.9928 27.8169C43.5724 28.005 43.0781 27.7595 42.6557 27.9447C42.288 28.1066 42.0712 28.5564 41.6781 28.5674C41.5545 28.5715 41.4452 28.5252 41.3236 28.5161C40.6176 28.4638 40.2337 29.5444 39.5134 29.5695C39.3787 29.5735 39.2693 26.5411 39.2723 26.2624C39.2845 25.031 39.4192 23.8015 39.6755 22.5972C39.6957 22.5076 39.7231 22.406 39.8062 22.3628C39.873 22.3286 39.9541 22.3446 40.028 22.3628C40.0574 22.3728 40.0888 22.3799 40.1192 22.3879Z" fill="#FACFCE"/>
<path d="M39.4942 29.4558C39.086 27.1116 39.1731 24.6678 39.7495 22.2984" stroke="#243645" stroke-width="0.437" stroke-miterlimit="10" stroke-linecap="round" stroke-linejoin="round"/>
<path d="M9.811 41.2424C10.1271 42.002 10.7886 41.1076 11.3842 41.0915C11.6111 41.0854 11.8441 41.1347 12.0629 41.0733C12.5572 40.9345 12.7598 40.3127 13.2288 40.1035C13.4699 39.9958 13.7464 40.0139 14.0098 39.9958C14.5153 39.9606 15.0086 39.7765 15.4168 39.4787C15.514 39.4082 15.8605 39.1939 15.8747 39.0792C15.896 38.9253 15.5617 38.548 15.4736 38.4223C14.8658 37.553 14.0696 36.8276 13.2045 36.2169C12.3901 35.6424 11.3467 35.2409 10.4563 34.7932C9.34607 34.2358 9.62968 34.595 9.41797 35.6434C9.18701 36.7843 9.265 38.0279 9.39466 39.1758C9.46962 39.8378 9.5689 40.523 9.7796 41.1579C9.78972 41.187 9.79986 41.2152 9.811 41.2424Z" fill="#FACFCE"/>
<path d="M16.055 39.1517C14.4828 37.0197 12.2432 35.3808 9.72798 34.5196" stroke="#243645" stroke-width="0.437" stroke-miterlimit="10" stroke-linecap="round" stroke-linejoin="round"/>
<path d="M20.2862 55.837C21.0962 55.837 21.7529 55.1847 21.7529 54.3801C21.7529 53.5755 21.0962 52.9233 20.2862 52.9233C19.4761 52.9233 18.8194 53.5755 18.8194 54.3801C18.8194 55.1847 19.4761 55.837 20.2862 55.837Z" fill="#243645"/>
<path d="M48.9472 45.627C49.7573 45.627 50.414 44.9748 50.414 44.1702C50.414 43.3656 49.7573 42.7133 48.9472 42.7133C48.1372 42.7133 47.4805 43.3656 47.4805 44.1702C47.4805 44.9748 48.1372 45.627 48.9472 45.627Z" fill="#243645"/>
<path d="M35.7968 52.2472C37.0397 55.9849 38.384 59.6884 39.8295 63.3516" stroke="#243645" stroke-width="0.437" stroke-miterlimit="10" stroke-linecap="round" stroke-linejoin="round"/>
<path d="M32.8602 51.2723C32.7914 51.1817 32.7721 51.0439 32.8511 50.9624C32.8886 50.9232 32.9402 50.903 32.9909 50.8839C34.2743 50.396 35.5567 49.908 36.8392 49.42C36.9861 49.3637 37.139 49.3074 37.294 49.3204C38.1874 49.3939 36.3631 52.0269 36.0409 52.3579C35.3967 53.0189 33.3687 51.8126 32.8795 51.2944C32.8734 51.2884 32.8663 51.2803 32.8602 51.2723Z" fill="#243645"/>
<path d="M50.3563 49.3838C53.1014 47.7036 56.6945 45.5053 59.4406 43.8251" stroke="#243645" stroke-width="0.437" stroke-miterlimit="10" stroke-linecap="round" stroke-linejoin="round"/>
<path d="M51.1271 52.4454C54.4487 51.2079 57.8512 50.1816 61.3045 49.3737" stroke="#243645" stroke-width="0.437" stroke-miterlimit="10" stroke-linecap="round" stroke-linejoin="round"/>
<path d="M52.2141 54.8118C55.647 55.1689 58.8693 55.4064 61.1505 55.7565" stroke="#243645" stroke-width="0.437" stroke-miterlimit="10" stroke-linecap="round" stroke-linejoin="round"/>
<path d="M22.5907 59.2749C19.3958 59.7115 15.2152 60.281 12.0193 60.7176" stroke="#243645" stroke-width="0.437" stroke-miterlimit="10" stroke-linecap="round" stroke-linejoin="round"/>
<path d="M23.9542 62.1252C20.5982 63.2671 17.3141 64.6213 14.1323 66.1778" stroke="#243645" stroke-width="0.437" stroke-miterlimit="10" stroke-linecap="round" stroke-linejoin="round"/>
<path d="M24.6288 64.6394C22.2068 67.0823 19.8719 69.2987 18.3352 71.0091" stroke="#243645" stroke-width="0.437" stroke-miterlimit="10" stroke-linecap="round" stroke-linejoin="round"/>
<path d="M33.1732 47.1251C32.9047 46.6402 32.6373 46.1542 32.3679 45.6683" stroke="#9FA9B0" stroke-width="0.437" stroke-miterlimit="10" stroke-linecap="round" stroke-linejoin="round"/>
<path d="M35.1288 48.6101C35.0602 48.267 34.9524 47.932 34.8092 47.6141" stroke="#9FA9B0" stroke-width="0.437" stroke-miterlimit="10" stroke-linecap="round" stroke-linejoin="round"/>
<path d="M36.3294 46.1914C36.3556 45.7286 36.2608 45.2598 36.0561 44.8442" stroke="#9FA9B0" stroke-width="0.437" stroke-miterlimit="10" stroke-linecap="round" stroke-linejoin="round"/>
<path d="M33.9775 43.9709C33.8691 43.5303 33.7233 43.0986 33.544 42.6811" stroke="#9FA9B0" stroke-width="0.437" stroke-miterlimit="10" stroke-linecap="round" stroke-linejoin="round"/>
<path d="M31.6699 48.2308C31.828 48.5266 31.9871 48.8214 32.1451 49.1172" stroke="#9FA9B0" stroke-width="0.437" stroke-miterlimit="10" stroke-linecap="round" stroke-linejoin="round"/>
<path d="M28.9359 44.0997C29.1315 44.3814 29.3259 44.6642 29.5215 44.9459" stroke="#9FA9B0" stroke-width="0.437" stroke-miterlimit="10" stroke-linecap="round" stroke-linejoin="round"/>
<path d="M31.0784 41.671C31.1776 42.0241 31.3174 42.3662 31.4957 42.6882" stroke="#9FA9B0" stroke-width="0.437" stroke-miterlimit="10" stroke-linecap="round" stroke-linejoin="round"/>
<path d="M35.1789 40.2665C35.195 40.6015 35.2585 40.9355 35.3674 41.2534" stroke="#9FA9B0" stroke-width="0.437" stroke-miterlimit="10" stroke-linecap="round" stroke-linejoin="round"/>
<path d="M28.2117 40.194C28.3778 40.4496 28.5419 40.7061 28.7081 40.9617" stroke="#9FA9B0" stroke-width="0.437" stroke-miterlimit="10" stroke-linecap="round" stroke-linejoin="round"/>
<path d="M32.3568 38.0248C32.5411 38.4997 32.6637 38.9978 32.7235 39.5038" stroke="#9FA9B0" stroke-width="0.437" stroke-miterlimit="10" stroke-linecap="round" stroke-linejoin="round"/>
<path d="M35.5922 36.7893C35.7137 37.3377 35.8353 37.886 35.9569 38.4343" stroke="#9FA9B0" stroke-width="0.437" stroke-miterlimit="10" stroke-linecap="round" stroke-linejoin="round"/>
<path d="M25.6782 39.8771C25.8332 40.2091 26.056 40.5099 26.3306 40.7554" stroke="#9FA9B0" stroke-width="0.437" stroke-miterlimit="10" stroke-linecap="round" stroke-linejoin="round"/>
<path d="M26.9141 36.8286C27.0052 37.1365 27.1673 37.4232 27.3841 37.6596" stroke="#9FA9B0" stroke-width="0.437" stroke-miterlimit="10" stroke-linecap="round" stroke-linejoin="round"/>
<path d="M33.6311 34.4924C33.7141 34.8848 33.8469 35.2681 34.0231 35.6293" stroke="#9FA9B0" stroke-width="0.437" stroke-miterlimit="10" stroke-linecap="round" stroke-linejoin="round"/>
<path d="M30.3743 35.5408C30.4686 35.8768 30.6033 36.2028 30.7745 36.5076" stroke="#9FA9B0" stroke-width="0.437" stroke-miterlimit="10" stroke-linecap="round" stroke-linejoin="round"/>
<path d="M10.5829 26.6548C9.14752 26.6548 7.88636 26.356 6.83489 25.7674C4.02997 24.1989 3.22065 21.9663 3.03426 20.3686C2.72024 17.6682 3.94793 14.6932 6.23826 12.6035C10.5262 8.69173 17.85 5.00132 23.6503 3.83021C25.8191 3.39155 28.1286 2.96395 30.4311 2.96395C32.2322 2.96395 33.8195 3.22453 35.2812 3.76179C38.4701 4.9329 40.2316 7.47232 40.1121 10.7251C39.9632 14.8129 38.1166 17.9318 34.7748 19.7448C32.5482 20.9522 30.3136 21.4713 27.9463 22.0186C27.3517 22.1565 26.752 22.2943 26.1472 22.4462C26.0895 23.7582 25.7836 25.1024 25.4574 26.362C25.4402 26.4294 25.3915 26.4868 25.3247 26.5109C25.2983 26.521 25.27 26.527 25.2437 26.527C25.2011 26.527 25.1606 26.5149 25.1241 26.4918L21.9667 24.4947C21.6284 24.2814 21.2161 24.1767 20.7066 24.1767C19.488 24.1767 17.9766 24.7884 16.6436 25.3287C15.895 25.6316 15.1879 25.9183 14.6044 26.0662C13.0343 26.4687 11.7559 26.6548 10.5829 26.6548Z" fill="#4CBBE6"/>
<path d="M30.4311 3.18434C32.0478 3.18434 33.6524 3.39763 35.2063 3.9681C38.2087 5.07079 40.0108 7.49149 39.8923 10.7171C39.7515 14.5342 38.0679 17.7075 34.6704 19.5507C31.8574 21.078 28.9694 21.5026 25.9325 22.2742C25.8961 23.6174 25.58 25.0038 25.2437 26.3077C25.0684 26.1961 24.8922 26.0854 24.717 25.9737C23.8397 25.4193 22.9635 24.864 22.0852 24.3096C21.6892 24.0581 21.2202 23.9564 20.7076 23.9564C18.7485 23.9564 16.1523 25.4455 14.5498 25.853C13.2906 26.1739 11.9251 26.4325 10.5819 26.4325C9.31364 26.4325 8.06567 26.2021 6.9433 25.5743C1.56137 22.563 2.55205 16.2627 6.38717 12.7645C10.353 9.14654 17.6322 5.26799 23.6948 4.04457C25.898 3.60087 28.1762 3.18434 30.4311 3.18434ZM30.4311 2.74467C28.1104 2.74467 25.7876 3.17428 23.6077 3.61495C17.772 4.79311 10.4046 8.50564 6.08836 12.4425C3.74737 14.5785 2.49329 17.625 2.81542 20.3948C3.00687 22.0428 3.84156 24.3458 6.72752 25.9596C7.8114 26.5663 9.11007 26.8742 10.5829 26.8742C11.7752 26.8742 13.0708 26.685 14.6612 26.2806C15.2588 26.1286 15.973 25.8389 16.7296 25.533C18.0435 25.0008 19.5325 24.3981 20.7086 24.3981C21.1735 24.3981 21.5464 24.4907 21.8492 24.6819L24.3715 26.2775L24.4789 26.346L24.9246 26.6277L25.0056 26.679C25.0775 26.7243 25.1596 26.7474 25.2427 26.7474C25.2984 26.7474 25.3531 26.7373 25.4058 26.7172C25.5375 26.6649 25.6367 26.5542 25.6722 26.4174C25.9872 25.197 26.284 23.8991 26.36 22.6213C26.9101 22.4855 27.455 22.3588 27.9949 22.234C30.3774 21.6816 32.6262 21.1615 34.8811 19.938C38.2948 18.0858 40.18 14.9025 40.334 10.7342C40.4575 7.37981 38.6443 4.76293 35.3592 3.55761C33.8722 3.01028 32.2606 2.74467 30.4311 2.74467Z" fill="#243645"/>
<path d="M35.2062 3.96909C34.6471 3.76385 34.0819 3.60991 33.5116 3.49019C33.7719 3.7236 34.0322 3.95601 34.2986 4.18239C34.3564 4.23169 34.3878 4.28903 34.3989 4.34839C34.4749 4.42687 34.5519 4.50334 34.6258 4.58383C36.7581 6.92303 37.7761 10.3247 37.2545 13.4406C37.0063 14.9176 36.4269 16.3472 35.3025 17.3765C34.2105 18.3756 32.8035 18.9651 31.3985 19.3887C29.876 19.8485 28.3048 20.1272 26.7469 20.4401C25.2193 20.747 23.7566 21.1202 22.3294 21.7521C20.4898 22.566 18.7404 23.5842 16.8431 24.2683C15.1372 24.8841 13.2855 25.2453 11.4693 25.2805C8.94493 25.3298 6.41653 24.6959 4.35817 23.2884C4.95988 24.1587 5.80875 24.9414 6.94328 25.5763C9.25185 26.8671 12.1004 26.4777 14.5497 25.854C16.5716 25.3398 20.1778 23.1033 22.0852 24.3106C22.9614 24.865 23.8387 25.4203 24.7169 25.9747C24.8922 26.0854 25.0684 26.197 25.2436 26.3087C25.5799 25.0058 25.896 23.6184 25.9325 22.2752C28.9694 21.5046 31.8564 21.079 34.6704 19.5517C38.0679 17.7075 39.7524 14.5353 39.8922 10.7181C40.0108 7.49249 38.2087 5.07179 35.2062 3.96909Z" fill="#CDE0E9"/>
<path d="M13.1022 16.3643C13.1751 15.8784 13.2308 15.3985 13.2723 14.9236C13.3128 14.4487 13.3675 13.9628 13.4354 13.4657C13.4445 13.4174 13.4405 13.3621 13.4243 13.2997C13.4081 13.2374 13.399 13.174 13.3949 13.1106C13.3919 13.0472 13.405 12.9838 13.4344 12.9214C13.4638 12.859 13.5266 12.8047 13.6208 12.7585C13.7595 12.69 13.8943 12.683 14.0239 12.7373C14.1536 12.7916 14.2772 12.8822 14.3957 13.008C14.5365 13.1649 14.6895 13.3943 14.8536 13.6951C15.0177 13.996 15.1858 14.34 15.358 14.7254C15.5292 15.1107 15.7034 15.5192 15.8787 15.9498C16.0539 16.3804 16.2211 16.8 16.3821 17.2085C16.53 17.5837 16.6688 17.9318 16.7995 18.2558C16.9291 18.5788 17.0436 18.8524 17.1439 19.0758C17.1682 19.1251 17.1946 19.1824 17.2209 19.2468C17.2472 19.3122 17.2645 19.3766 17.2726 19.443C17.2797 19.5084 17.2766 19.5708 17.2614 19.6312C17.2472 19.6915 17.2128 19.7449 17.1571 19.7901C17.1267 19.8143 17.0771 19.8394 17.0092 19.8676C16.9413 19.8958 16.8664 19.9169 16.7874 19.932C16.7084 19.9471 16.6314 19.9551 16.5554 19.9561C16.4814 19.9561 16.4186 19.9431 16.369 19.9149C16.2008 19.8264 16.06 19.7046 15.9496 19.5497C15.8372 19.3947 15.744 19.2257 15.668 19.0426C15.592 18.8595 15.5242 18.6713 15.4644 18.4782C15.4046 18.286 15.3449 18.1059 15.2851 17.9389C15.1747 17.635 15.0612 17.3252 14.9447 17.0103C14.8272 16.6954 14.7128 16.3925 14.6013 16.1017C14.4899 15.811 14.3805 15.5403 14.2742 15.2898C14.1678 15.0393 14.0695 14.827 13.9794 14.6509C13.9753 14.7827 13.9652 14.9286 13.952 15.0896C13.9379 15.2496 13.9247 15.4055 13.9105 15.5564C13.8963 15.7073 13.8852 15.8462 13.8751 15.973C13.8649 16.0997 13.8609 16.1913 13.8629 16.2496C13.8659 16.313 13.8649 16.3784 13.8589 16.4448C13.8538 16.5112 13.8528 16.5776 13.8578 16.644C13.8629 16.7104 13.8771 16.7789 13.9024 16.8473C13.9267 16.9157 13.9672 16.9861 14.026 17.0555C14.0999 17.1521 14.1334 17.2376 14.1283 17.3111C14.1232 17.3845 14.0918 17.4489 14.0371 17.5043C13.9814 17.5596 13.9095 17.5998 13.8213 17.625C13.7322 17.6501 13.641 17.6632 13.5499 17.6632C13.4172 17.6582 13.2764 17.623 13.1255 17.5566C12.9745 17.4912 12.8185 17.4087 12.6595 17.3091C12.4123 17.1511 12.1722 16.973 11.9372 16.7738C11.7022 16.5756 11.4966 16.4136 11.3224 16.2889C11.3568 16.3865 11.4054 16.5153 11.4672 16.6742C11.528 16.8342 11.5939 17.0093 11.6668 17.2014C11.7377 17.3926 11.8137 17.5948 11.8907 17.8071C11.9666 18.0194 12.0426 18.2287 12.1176 18.4359C12.153 18.5335 12.2016 18.6603 12.2655 18.8162C12.3283 18.9722 12.3961 19.1392 12.47 19.3173C12.544 19.4954 12.618 19.6774 12.6929 19.8646C12.7679 20.0517 12.8307 20.2268 12.8834 20.3898C12.9158 20.4823 12.9451 20.5618 12.9705 20.6312C12.9948 20.6997 13.0059 20.762 13.0039 20.8184C12.9999 20.8747 12.9786 20.921 12.937 20.9592C12.8955 20.9965 12.8236 21.0276 12.7203 21.0508C12.6554 21.0679 12.5764 21.0176 12.4862 20.9019C12.3961 20.7862 12.2989 20.6343 12.2006 20.4491C12.1104 20.2932 12.0223 20.1242 11.9332 19.9411C11.8451 19.7589 11.764 19.5839 11.69 19.4159C11.6161 19.2478 11.5503 19.0979 11.4936 18.9661C11.4358 18.8343 11.3943 18.7408 11.3679 18.6854C11.141 18.2025 10.8979 17.6773 10.6366 17.1089C10.3752 16.5414 10.1443 15.9921 9.93965 15.4619L9.75831 14.9628C9.68639 14.8522 9.65501 14.7566 9.66514 14.6751C9.67527 14.5936 9.71375 14.5211 9.78162 14.4578C9.86367 14.3773 9.9731 14.3169 10.1129 14.2767C10.2527 14.2364 10.3631 14.2344 10.4482 14.2696C10.5242 14.3008 10.6365 14.3662 10.7824 14.4658C10.9303 14.5664 11.0914 14.6831 11.2676 14.819C11.4439 14.9548 11.6272 15.1007 11.8187 15.2596C12.0091 15.4186 12.1895 15.5715 12.3607 15.7174C12.5309 15.8643 12.6828 15.9961 12.8165 16.1138C12.9502 16.2315 13.0444 16.313 13.1022 16.3643Z" fill="white"/>
<path d="M17.621 15.5424C17.7264 15.8352 17.8388 16.142 17.9573 16.462C18.0769 16.7829 18.1974 17.0948 18.3189 17.3976C18.4415 17.7005 18.5601 17.9832 18.6745 18.2428C18.788 18.5034 18.8953 18.7177 18.9936 18.8827C19.0098 18.9098 19.023 18.934 19.0341 18.9561C19.0452 18.9782 19.0554 19.0004 19.0625 19.0235C19.104 19.1382 19.1081 19.2338 19.0747 19.3113C19.0402 19.3887 18.9845 19.4471 18.9085 19.4863C18.8873 19.5004 18.8488 19.5175 18.792 19.5376C18.6482 19.5889 18.4973 19.601 18.3392 19.5729C18.1802 19.5457 18.0546 19.4672 17.9624 19.3374C17.9128 19.271 17.8398 19.1221 17.7436 18.8907C17.6463 18.6593 17.539 18.3917 17.4194 18.0878C17.2999 17.784 17.1763 17.46 17.0497 17.1159C16.9221 16.7729 16.8046 16.4519 16.6962 16.1531C16.5989 15.8824 16.5148 15.648 16.446 15.4448C16.3771 15.2426 16.3274 15.1017 16.2981 15.0212C16.0661 14.3783 15.8372 13.7173 15.6113 13.0392L15.5212 12.7897C15.4806 12.675 15.4573 12.5643 15.4553 12.4576C15.4533 12.352 15.5181 12.2755 15.6488 12.2283C15.7521 12.191 15.8858 12.179 16.0519 12.191C16.1644 12.1971 16.2576 12.2363 16.3325 12.3098C16.4075 12.3832 16.4845 12.4838 16.5635 12.6116C16.6182 12.7092 16.6871 12.8722 16.7701 13.1026C16.8481 13.3209 16.9342 13.5704 17.0254 13.8521C17.1176 14.1338 17.2077 14.3974 17.2979 14.6449L17.621 15.5424Z" fill="white"/>
<path d="M21.6405 19.437C21.6193 19.4511 21.5858 19.4662 21.5392 19.4833C21.4409 19.5185 21.3538 19.5226 21.2799 19.4974C21.206 19.4722 21.1543 19.4189 21.1249 19.3384L21.1188 19.3213C21.1057 19.268 21.1097 19.2207 21.132 19.1805C21.1533 19.1402 21.1867 19.101 21.2323 19.0628C21.2759 19.0235 21.3306 18.9833 21.3934 18.942C21.4572 18.8998 21.5169 18.8525 21.5767 18.7992C21.6111 18.767 21.6436 18.7227 21.676 18.6664C21.7074 18.609 21.7357 18.5486 21.757 18.4822C21.7783 18.4158 21.7914 18.3484 21.7955 18.279C21.7995 18.2096 21.7945 18.1452 21.7793 18.0858C21.7681 18.0375 21.757 17.9923 21.7439 17.948C21.7307 17.9037 21.7175 17.8584 21.7003 17.8132C21.6152 17.5777 21.5058 17.3785 21.3721 17.2155C21.2384 17.0526 21.1077 16.9057 20.9831 16.7759L20.9233 16.7195C20.7684 16.5606 20.6053 16.4227 20.4361 16.305C20.2669 16.1873 20.0896 16.0736 19.9073 15.9639C19.7229 15.8543 19.5366 15.7406 19.3441 15.6249C19.1516 15.5082 18.9501 15.3744 18.7394 15.2235C18.5813 15.1108 18.4284 14.979 18.2825 14.827C18.1367 14.6751 17.9999 14.5081 17.8722 14.327C17.7446 14.1459 17.6271 13.9558 17.5187 13.7576C17.4124 13.5593 17.3222 13.3591 17.2493 13.1579C17.226 13.0945 17.2037 13.0321 17.1804 12.9688C17.1591 12.9054 17.1409 12.841 17.1298 12.7726C17.0822 12.5693 17.0608 12.3701 17.0659 12.1739C17.0699 11.9777 17.1034 11.7966 17.1693 11.6316C17.2331 11.4656 17.3313 11.3187 17.464 11.191C17.5977 11.0632 17.7689 10.9616 17.9766 10.8871C18.1154 10.8378 18.2744 10.8006 18.4557 10.7754C18.7363 10.7402 18.9562 10.7543 19.1162 10.8167C19.2752 10.8801 19.3715 10.9545 19.4018 11.0411C19.4434 11.1558 19.3857 11.2413 19.2297 11.2966C19.1253 11.3338 18.9957 11.3449 18.8397 11.3288C18.7576 11.3197 18.6826 11.3187 18.6137 11.3268C18.5449 11.3348 18.4841 11.3479 18.4324 11.367C18.2237 11.4415 18.1042 11.5934 18.0728 11.8208C18.0414 12.0492 18.0606 12.3067 18.1315 12.5925C18.1366 12.6237 18.1447 12.6559 18.1569 12.6901C18.1691 12.7243 18.1812 12.7585 18.1934 12.7937C18.2501 12.9486 18.32 13.0985 18.4051 13.2434C18.4902 13.3883 18.5813 13.5261 18.6775 13.6569C18.7738 13.7877 18.8711 13.9054 18.9713 14.0091C19.0706 14.1137 19.1648 14.1982 19.2529 14.2636C19.4788 14.4357 19.7088 14.5956 19.9448 14.7415C20.1808 14.8874 20.4138 15.0313 20.6427 15.1731C20.8747 15.315 21.0955 15.4629 21.3072 15.6168C21.52 15.7718 21.7165 15.9388 21.9008 16.1199C22.1541 16.3724 22.3516 16.6914 22.4904 17.0767C22.5796 17.3232 22.6312 17.5747 22.6444 17.8283C22.6545 18.0576 22.6282 18.278 22.5644 18.4883C22.5005 18.6996 22.386 18.8857 22.2229 19.0477C22.15 19.1322 22.0649 19.2147 21.9697 19.2942C21.8735 19.3736 21.7691 19.4431 21.6527 19.5034L21.6405 19.437Z" fill="white"/>
<path d="M25.2041 18.1673C25.1828 18.1814 25.1484 18.1965 25.1028 18.2136C25.0036 18.2488 24.9175 18.2528 24.8435 18.2277C24.7696 18.2025 24.7169 18.1492 24.6885 18.0687L24.6825 18.0516C24.6693 17.9983 24.6734 17.951 24.6956 17.9107C24.7169 17.8705 24.7503 17.8313 24.7949 17.792C24.8405 17.7538 24.8942 17.7135 24.957 17.6713C25.0208 17.629 25.0816 17.5817 25.1403 17.5284C25.1748 17.4972 25.2072 17.453 25.2396 17.3966C25.271 17.3393 25.2983 17.2779 25.3196 17.2125C25.3409 17.1461 25.3551 17.0787 25.3591 17.0093C25.3632 16.9398 25.3581 16.8755 25.3429 16.8151C25.3308 16.7678 25.3207 16.7215 25.3075 16.6772C25.2943 16.633 25.2801 16.5877 25.2639 16.5414C25.1788 16.306 25.0694 16.1068 24.9357 15.9438C24.801 15.7808 24.6723 15.6339 24.5467 15.5041L24.4859 15.4478C24.332 15.2888 24.1689 15.151 23.9997 15.0333C23.8306 14.9155 23.6533 14.8019 23.4709 14.6922C23.2876 14.5825 23.1002 14.4688 22.9077 14.3531C22.7163 14.2374 22.5137 14.1026 22.302 13.9517C22.1439 13.839 21.991 13.7072 21.8461 13.5553C21.6992 13.4034 21.5625 13.2364 21.4359 13.0543C21.3082 12.8732 21.1907 12.683 21.0833 12.4848C20.976 12.2866 20.8858 12.0874 20.8119 11.8862C20.7906 11.8228 20.7663 11.7604 20.744 11.697C20.7218 11.6336 20.7045 11.5692 20.6933 11.5018C20.6457 11.2986 20.6245 11.0994 20.6285 10.9032C20.6326 10.707 20.667 10.5259 20.7319 10.3609C20.7957 10.1949 20.895 10.048 21.0287 9.92023C21.1614 9.79246 21.3315 9.68983 21.5402 9.61639C21.679 9.56709 21.838 9.52985 22.0184 9.5047C22.2989 9.46949 22.5198 9.48357 22.6788 9.54595C22.8388 9.60934 22.9341 9.6838 22.9655 9.77032C23.007 9.88502 22.9492 9.97054 22.7932 10.0259C22.6889 10.0631 22.5603 10.0732 22.4033 10.0581C22.3212 10.048 22.2463 10.048 22.1774 10.0561C22.1085 10.0651 22.0477 10.0782 21.995 10.0963C21.7874 10.1707 21.6679 10.3227 21.6365 10.5501C21.605 10.7784 21.6233 11.035 21.6952 11.3217C21.6992 11.3529 21.7084 11.3851 21.7205 11.4203C21.7327 11.4545 21.7449 11.4888 21.757 11.524C21.8137 11.6789 21.8836 11.8288 21.9687 11.9737C22.0528 12.1186 22.1439 12.2554 22.2412 12.3872C22.3374 12.518 22.4347 12.6357 22.5339 12.7393C22.6342 12.844 22.7274 12.9285 22.8165 12.9939C23.0424 13.1659 23.2724 13.3259 23.5084 13.4718C23.7435 13.6187 23.9764 13.7626 24.2074 13.9034C24.4373 14.0453 24.6581 14.1932 24.8709 14.3471C25.0836 14.501 25.2811 14.6691 25.4635 14.8502C25.7177 15.1027 25.9142 15.4216 26.053 15.807C26.1432 16.0535 26.1949 16.304 26.207 16.5585C26.2192 16.7879 26.1908 17.0083 26.128 17.2185C26.0642 17.4288 25.9497 17.616 25.7866 17.7779C25.7126 17.8625 25.6276 17.9449 25.5324 18.0234C25.4371 18.1029 25.3328 18.1723 25.2163 18.2327L25.2041 18.1673Z" fill="white"/>
<path d="M26.7175 8.48151C26.6881 8.38191 26.6993 8.2984 26.753 8.22999C26.8077 8.16258 26.8846 8.12836 26.9849 8.12736C27.0872 8.12736 27.2007 8.16861 27.3294 8.25312C27.457 8.33663 27.5816 8.48151 27.7001 8.68474C27.8804 8.98356 28.0587 9.3508 28.2349 9.78745C28.4122 10.2231 28.5875 10.6728 28.7617 11.1356C28.8488 11.3771 28.9471 11.6437 29.0554 11.9355C29.1628 12.2273 29.2813 12.522 29.409 12.8199C29.5366 13.1177 29.6764 13.4054 29.8274 13.6821C29.9793 13.9578 30.1475 14.1972 30.3308 14.3964C30.3896 14.4669 30.4463 14.5232 30.505 14.5675C30.5638 14.6117 30.6205 14.6359 30.6783 14.6419C30.736 14.648 30.7886 14.6319 30.8383 14.5946C30.8869 14.5574 30.9305 14.494 30.969 14.4025C30.9963 14.334 31.0085 14.2425 31.0065 14.1268C31.0034 14.0111 30.9923 13.8793 30.971 13.7304C30.9285 13.4668 30.8606 13.169 30.7664 12.836C30.6722 12.5039 30.5739 12.181 30.4706 11.8671C30.3663 11.5542 30.271 11.2694 30.1819 11.0129C30.0917 10.7563 30.031 10.5722 29.9965 10.4615C29.8962 10.1667 29.7969 9.87698 29.6966 9.59125C29.5964 9.30551 29.5042 9.0399 29.4181 8.79139C29.332 8.54289 29.253 8.32054 29.1821 8.12234C29.1101 7.92414 29.0524 7.76516 29.0089 7.64443C29.0231 7.57501 29.0524 7.49653 29.096 7.41001C29.1396 7.32348 29.1933 7.244 29.254 7.17357C29.3178 7.10314 29.3857 7.0478 29.4597 7.00857C29.5326 6.96933 29.6076 6.96229 29.6815 6.98744C29.7625 7.01058 29.8476 7.10013 29.9398 7.25507C30.032 7.41001 30.1241 7.59815 30.2163 7.81748C30.3146 8.0348 30.4088 8.27024 30.5 8.52378C30.5911 8.77631 30.6762 9.01878 30.7532 9.25019C30.8302 9.48159 30.8971 9.69086 30.9528 9.87397C31.0105 10.0581 31.053 10.1899 31.0814 10.2704C31.1695 10.5501 31.2577 10.8288 31.3448 11.1054C31.4309 11.3821 31.5089 11.6628 31.5788 11.9455C31.6477 12.2283 31.7064 12.514 31.756 12.8018C31.8037 13.0895 31.832 13.3803 31.8411 13.675C31.8452 13.8873 31.834 14.0906 31.8067 14.2848C31.7793 14.4789 31.7216 14.654 31.6335 14.8079C31.5464 14.9629 31.4197 15.0896 31.2577 15.1892C31.0956 15.2889 30.8839 15.3432 30.6266 15.3512C30.427 15.3573 30.2376 15.314 30.0603 15.2224C29.883 15.1299 29.7099 15.0031 29.5417 14.8431C29.3209 14.6298 29.1182 14.3723 28.9339 14.0684C28.7485 13.7646 28.5814 13.4567 28.4335 13.1428C28.2846 12.8299 28.1549 12.5331 28.0425 12.2514C27.9321 11.9707 27.844 11.7403 27.7791 11.5622C27.6657 11.2664 27.5522 10.9636 27.4418 10.6567C27.3314 10.3499 27.2301 10.0581 27.1369 9.78342C27.0437 9.50876 26.9596 9.25823 26.8846 9.03185C26.8127 8.80749 26.755 8.62338 26.7175 8.48151Z" fill="white"/>
<g opacity="0.3">
<path opacity="0.3" d="M23.2208 68.4345C20.4401 66.2281 18.1771 63.4542 16.3011 60.4631C14.3268 57.3119 12.7395 53.9143 11.5026 50.4151C10.439 47.4078 9.63168 44.2929 9.16977 41.1357C8.94286 39.5853 8.80814 38.0108 8.89019 36.4432C8.95704 35.1584 9.16878 33.8465 9.72287 32.6744C9.65399 32.6643 9.5841 32.6512 9.51421 32.6422C7.58247 32.3937 7.79314 42.6781 9.5628 48.6946C11.5847 55.5704 15.3145 63.6897 20.8686 67.9958C23.164 69.7756 25.6377 70.8974 28.24 71.4639C26.447 70.6781 24.7615 69.6579 23.2208 68.4345Z" fill="#BBBDBF"/>
</g>
<path d="M46.0684 24.5027C45.9681 24.4192 45.8678 24.3347 45.7665 24.2512C46.902 25.9073 47.8532 27.6841 48.618 29.5393C49.5864 31.8846 50.2671 34.3344 50.8344 36.8024C51.7987 41.0069 52.5777 45.3262 52.4197 49.6544C52.3427 51.7874 52.0378 53.9143 51.3946 55.9537C50.7179 58.1078 49.6736 60.1099 48.3527 61.942C46.9618 63.8718 45.2621 65.5801 43.3465 66.9967C41.7379 68.188 39.9692 69.1619 38.1459 69.9879C36.3509 70.8018 34.4789 71.4789 32.5523 71.9116C34.4698 71.9075 36.435 71.655 38.4346 71.1862C44.5044 69.7635 51.035 66.4897 54.3889 61.1593C58.2737 54.9838 57.4157 46.7176 55.2591 40.0129C53.6272 34.9401 50.7139 28.3924 46.0684 24.5027Z" fill="#D4D8DB"/>
</svg>
