<svg width="78" height="38" viewBox="0 0 78 38" fill="none" xmlns="http://www.w3.org/2000/svg">
<path d="M24.4387 36.8706C23.9471 36.9656 23.436 36.8628 23.0353 36.5914C22.6375 36.3219 22.3698 35.906 22.2818 35.4213C22.2271 35.1266 22.1958 34.8396 22.1665 34.5614C22.1606 34.5003 22.1538 34.4383 22.146 34.3782C22.0003 34.3917 21.8547 34.4044 21.71 34.416C20.3594 34.5275 18.9912 34.5769 17.6435 34.5643C16.3319 34.5507 15.0438 34.5197 13.7039 34.2725C11.2831 33.8266 8.77817 32.9715 6.25962 31.7316C5.58234 31.3972 4.95387 31.0191 4.345 30.6527C3.92671 30.3996 3.53189 30.1621 3.12532 29.9392C3.04909 29.8985 2.97285 29.8568 2.89662 29.8151C2.03853 29.3507 0.97032 28.7749 0.293037 27.727C-0.0285015 27.2287 -0.0880966 26.6422 0.131801 26.1158C0.272535 25.7794 0.516849 25.4973 0.824705 25.2985C1.0837 24.9912 1.44335 24.7741 1.86555 24.6868C2.43338 24.5695 3.04812 24.2215 3.79968 23.5894C4.51996 22.9836 5.21091 22.2798 5.91263 21.4412C6.50586 20.7316 7.07664 19.9832 7.60928 19.2173C7.89466 18.8063 8.19273 18.404 8.48006 18.0143C8.9482 17.3822 9.38898 16.7821 9.78284 16.1578C10.1093 15.6372 10.3859 15.074 10.6801 14.4788C10.9224 13.9863 11.1726 13.4764 11.4628 12.9742C12.0922 11.8788 12.8633 10.8531 13.8172 9.84008C15.7533 7.78102 18.05 6.37924 20.4571 5.78401C20.636 5.73942 20.8197 5.6987 21.0064 5.66284C22.2525 5.42436 23.4927 5.41371 24.5404 5.43504C25.6291 5.45636 26.9857 5.48447 28.305 5.89357C29.5189 6.27067 30.4776 6.88723 31.5429 7.69961C31.6641 7.79268 31.7862 7.88475 31.9103 7.97685C32.5974 8.49452 33.3069 9.0277 33.9363 9.6937C33.9666 9.71405 33.997 9.73636 34.0263 9.75769C34.2276 9.76059 34.4387 9.75477 34.6576 9.74798C35.3457 9.72762 36.1246 9.70436 36.9485 9.95738C37.4234 10.1018 37.8241 10.4469 38.046 10.9026C38.2698 11.3601 38.2942 11.8865 38.1134 12.349C37.8124 13.1158 37.4175 13.8913 36.9347 14.6611C37.0247 14.8578 37.1175 15.0537 37.2143 15.2446C37.3745 15.5597 37.4401 15.898 37.4088 16.2305C37.5358 16.8791 37.5955 17.5199 37.6531 18.1432C37.6824 18.4515 37.7098 18.7433 37.744 19.0225C37.7567 19.1194 37.7674 19.2144 37.7801 19.3104C37.8808 20.1063 37.9844 20.9284 37.9267 21.8164C37.8613 22.8391 37.6717 23.8357 37.3638 24.7779C36.7325 26.7052 35.6574 28.4589 34.254 29.85C32.918 31.1733 31.1559 32.2134 29.0204 32.9386C28.6461 33.0656 28.263 33.1867 27.8711 33.2992C27.9678 33.6433 28.0568 34.004 28.1115 34.3947C28.2464 35.3796 27.5974 36.2657 26.6035 36.4557C26.2096 36.5313 25.806 36.4809 25.4571 36.318C25.1991 36.5924 24.8482 36.792 24.4387 36.8706Z" fill="white"/>
<path d="M56.8917 30.292C56.6288 30.5712 56.274 30.768 55.8801 30.8427C54.8862 31.0336 53.9509 30.451 53.7056 29.4874C53.6088 29.1035 53.557 28.739 53.5179 28.3823C53.1124 28.4211 52.7116 28.4511 52.3168 28.4714C50.0602 28.5887 48.0371 28.2747 46.2984 27.5398C44.4748 26.7672 42.8172 25.537 41.5086 23.9811C40.8694 23.222 40.3192 22.367 39.8736 21.4422C39.4865 20.6395 39.2745 19.8378 39.0692 19.0632C39.0448 18.9682 39.0194 18.8751 38.995 18.7811C38.9217 18.5097 38.8376 18.2295 38.7487 17.9319C38.5688 17.3337 38.3832 16.7162 38.2571 16.0677C38.1036 15.771 38.0372 15.4327 38.0685 15.0798C38.087 14.8675 38.0987 14.6513 38.1085 14.4361C37.3716 13.9 36.7129 13.3261 36.146 12.7251C35.805 12.3635 35.63 11.8642 35.6652 11.3572C35.7004 10.8522 35.9428 10.3859 36.3298 10.0757C37.0003 9.53665 37.7323 9.27104 38.3763 9.03644C38.5825 8.96082 38.7809 8.88809 38.9666 8.81151C38.9862 8.78048 39.0047 8.74949 39.0262 8.71846C39.3614 7.86731 39.8188 7.11017 40.2626 6.37632C40.3427 6.24448 40.4218 6.1136 40.5 5.98273C41.1832 4.8359 41.8409 3.90817 42.8251 3.11034C43.8972 2.2427 45.1443 1.71631 46.147 1.29364C47.1116 0.887452 48.2668 0.43861 49.5109 0.199162C49.6966 0.164263 49.8843 0.134187 50.0661 0.108012C52.523 -0.228378 55.1794 0.224363 57.7507 1.41869C59.0173 2.00714 60.1168 2.6741 61.1127 3.45739C61.5711 3.81802 61.9942 4.19802 62.4037 4.5664C62.9002 5.00942 63.3683 5.43017 63.8668 5.79273C64.4678 6.22801 65.1011 6.62063 65.7726 7.03457C66.186 7.28953 66.613 7.55319 67.0333 7.82948C67.8142 8.34327 68.6254 8.82607 69.4414 9.26522C70.409 9.7858 71.314 10.1813 72.2112 10.477C73.1465 10.7853 73.8472 10.8822 74.4189 10.7804C74.844 10.7058 75.2584 10.7736 75.6142 10.9636C75.9748 11.0334 76.3091 11.205 76.5651 11.4658C76.9658 11.873 77.1319 12.4391 77.0205 13.0208C76.785 14.2442 76.011 15.1739 75.3884 15.9213C75.3327 15.9882 75.278 16.056 75.2232 16.121C74.9291 16.4777 74.6515 16.8451 74.3573 17.2339C73.9312 17.7981 73.4895 18.3817 72.9872 18.943C71.1156 21.0243 69.1111 22.7441 67.0333 24.0528C65.883 24.777 64.6975 25.2821 63.4847 25.7794C62.2405 26.2883 60.9505 26.7488 59.6565 27.1443C59.5177 27.186 59.377 27.2287 59.2363 27.2694C59.2529 27.3285 59.2685 27.3886 59.2871 27.4487C59.3643 27.7172 59.4434 27.9945 59.504 28.2873C59.6037 28.7701 59.5108 29.2548 59.2431 29.6512C58.9733 30.0516 58.5365 30.3357 58.0449 30.4297C57.6354 30.5082 57.2357 30.452 56.8917 30.292Z" fill="white"/>
<path d="M77.5112 11.7285C77.2551 11.4677 76.9219 11.2962 76.5603 11.2264C76.2065 11.0364 75.7901 10.9675 75.365 11.0431C74.7933 11.1439 74.0926 11.048 73.1573 10.7397C72.2601 10.4431 71.355 10.0466 70.3875 9.52793C69.5714 9.08781 68.7622 8.60601 67.9794 8.09124C67.5591 7.81593 67.1321 7.55127 66.7187 7.29728C66.0472 6.8814 65.4139 6.49071 64.8138 6.05447C64.3144 5.69287 63.8463 5.27216 63.3508 4.82816C62.9403 4.46075 62.5162 4.08073 62.0588 3.7201C61.0619 2.93681 59.9624 2.26985 58.6968 1.68141C56.1265 0.488043 53.4691 0.0343556 51.0121 0.369777C50.8293 0.394982 50.6437 0.426974 50.457 0.461873C49.2129 0.701321 48.0577 1.14919 47.0931 1.55538C46.0913 1.97901 44.8423 2.50541 43.7711 3.37305C42.787 4.16992 42.1293 5.09767 41.4461 6.24547C41.3679 6.37634 41.2888 6.50816 41.2096 6.63903C40.7659 7.37288 40.3075 8.12904 39.9723 8.9802C39.9518 9.01122 39.9323 9.04128 39.9137 9.07327C39.729 9.15083 39.5286 9.22352 39.3234 9.2972C38.7673 9.50078 38.1467 9.72667 37.5564 10.1309C36.8576 9.97484 36.1969 9.99324 35.6037 10.0107C35.3857 10.0165 35.1746 10.0233 34.9723 10.0204C34.944 9.99809 34.9127 9.97579 34.8824 9.9564C34.253 9.28943 33.5435 8.75722 32.8564 8.23955C32.7333 8.14649 32.6101 8.05538 32.4889 7.96231C31.4237 7.14994 30.4649 6.53241 29.2511 6.15627C27.9307 5.7462 26.5762 5.71907 25.4855 5.69774C24.4378 5.67738 23.1976 5.68706 21.9525 5.92554C21.7668 5.96044 21.5811 6.00117 21.4022 6.04479C18.9961 6.64099 16.6994 8.04372 14.7624 10.1028C13.8075 11.1158 13.0373 12.1415 12.4079 13.236C12.1177 13.7391 11.8675 14.2481 11.6251 14.7405C11.331 15.3367 11.0544 15.899 10.7279 16.4196C10.335 17.0458 9.89329 17.6439 9.42515 18.277C9.1388 18.6667 8.84072 19.069 8.55437 19.48C8.02173 20.2449 7.45099 20.9933 6.85873 21.7039C6.15702 22.5425 5.46511 23.2453 4.74482 23.8502C3.99229 24.4823 3.37853 24.8322 2.8107 24.9495C2.38752 25.0368 2.02784 25.253 1.77081 25.5612C1.46198 25.759 1.21762 26.0411 1.07689 26.3785C0.856993 26.9029 0.916647 27.4914 1.23819 27.9887C1.91547 29.0376 2.98368 29.6144 3.84177 30.0768C3.91898 30.1195 3.99522 30.1602 4.07047 30.2019C4.47704 30.4239 4.87281 30.6624 5.29111 30.9144C5.899 31.2818 6.5274 31.6599 7.20566 31.9934C9.72324 33.2343 12.2291 34.0893 14.6499 34.5352C15.9888 34.7814 17.277 34.8134 18.5885 34.8261C19.9363 34.8396 21.3045 34.7902 22.6552 34.6787C22.7998 34.6671 22.9464 34.6544 23.092 34.6399C23.0989 34.701 23.1057 34.7621 23.1125 34.8241C23.1419 35.1023 23.1731 35.3883 23.2269 35.684C23.3158 36.1687 23.5826 36.5846 23.9804 36.8531C24.3801 37.1246 24.8932 37.2273 25.3839 37.1333C25.7934 37.0548 27.1547 36.7911 27.5486 36.7164C28.5435 36.5264 29.1915 35.6404 29.0566 34.6545C29.0029 34.2648 28.9139 33.9051 28.8162 33.56C29.2071 33.4456 29.5912 33.3263 29.9655 33.1993C32.102 32.4742 33.8631 31.435 35.1991 30.1098C36.6025 28.7187 37.6776 26.965 38.3089 25.0378C38.6168 24.0964 38.8073 23.0999 38.8718 22.0771C38.9295 21.1882 38.825 20.3651 38.7253 19.5712C38.7135 19.4742 38.7018 19.3783 38.6891 19.2823C38.6549 19.0041 38.6275 18.7123 38.5992 18.404C38.5405 17.7806 38.4809 17.1399 38.3539 16.4913C38.3852 16.1588 38.3196 15.8214 38.1594 15.5054C38.0616 15.3154 37.9698 15.1196 37.8799 14.9208C38.0431 14.661 38.1945 14.4022 38.3372 14.1424C38.5679 14.3305 38.8054 14.5156 39.0536 14.6959C39.0448 14.9111 39.0331 15.1283 39.0136 15.3406C38.9833 15.6925 39.0497 16.0299 39.2022 16.3275C39.3282 16.977 39.5139 17.5935 39.6938 18.1926C39.7837 18.4902 39.8677 18.7704 39.9401 19.0419C39.9645 19.1359 39.9899 19.229 40.0143 19.323C40.2205 20.0985 40.4326 20.8983 40.8187 21.7029C41.2643 22.6278 41.8146 23.4828 42.4537 24.2419C43.7634 25.7968 45.4199 27.027 47.2445 27.7996C48.9822 28.5354 51.0062 28.8495 53.2619 28.7322C53.6558 28.7119 54.0565 28.6818 54.463 28.643C54.5011 28.9978 54.554 29.3643 54.6497 29.7472C54.896 30.7118 55.8303 31.2944 56.8242 31.1035C57.2181 31.0278 58.5795 30.768 58.989 30.6895C59.4816 30.5955 59.9165 30.3114 60.1872 29.9111C60.454 29.5146 60.5469 29.0298 60.4482 28.5471C60.3876 28.2533 60.3084 27.9771 60.2312 27.7085C60.2146 27.6474 60.197 27.5883 60.1804 27.5282C60.3221 27.4875 60.4618 27.4458 60.6006 27.4032C61.8965 27.0086 63.1847 26.5472 64.4307 26.0372C65.6436 25.5409 66.8271 25.0358 67.9774 24.3117C70.0562 23.0039 72.0607 21.2842 73.9313 19.2028C74.4346 18.6415 74.8763 18.0579 75.3024 17.4927C75.5966 17.105 75.8732 16.7375 76.1674 16.3808C76.2221 16.3149 76.2768 16.248 76.3325 16.1811C76.9551 15.4337 77.7291 14.504 77.9646 13.2806C78.079 12.7018 77.9129 12.1347 77.5112 11.7285Z" fill="#7C7A7A"/>
<path d="M76.5641 11.4658C76.3081 11.2051 75.9738 11.0344 75.6132 10.9637C75.2584 10.7737 74.8431 10.7048 74.4179 10.7804C73.8462 10.8813 73.1454 10.7853 72.2101 10.477C71.313 10.1814 70.408 9.78583 69.4404 9.26524C68.6244 8.8261 67.8132 8.3433 67.0323 7.82951C66.6121 7.55322 66.185 7.28859 65.7716 7.0346C65.0992 6.62066 64.4669 6.22804 63.8658 5.79276C63.3674 5.4302 62.8992 5.00945 62.4028 4.56643C61.9933 4.19804 61.5691 3.81902 61.1117 3.45742C60.1149 2.67413 59.0154 2.00813 57.7497 1.41872C55.1784 0.225362 52.521 -0.227379 50.065 0.108042C49.8823 0.133247 49.6956 0.164292 49.5099 0.199192C48.2658 0.43864 47.1106 0.887481 46.146 1.29367C45.1433 1.71731 43.8952 2.24273 42.8241 3.11037C41.8399 3.9082 41.1822 4.83593 40.4991 5.98276C40.4209 6.11363 40.3417 6.24548 40.2615 6.37635C39.8178 7.1102 39.3605 7.86734 39.0253 8.71849C39.0047 8.74855 38.9852 8.77955 38.9656 8.81154C38.7809 8.88812 38.5815 8.96085 38.3753 9.03647C37.8202 9.23811 37.1996 9.46399 36.6093 9.86824C35.9105 9.71216 35.2489 9.73055 34.6566 9.74801C34.4377 9.75479 34.2276 9.76062 34.0253 9.75771C33.9959 9.73638 33.9657 9.71311 33.9354 9.69372C33.305 9.02675 32.5964 8.49454 31.9094 7.97687C31.7853 7.88477 31.6631 7.7927 31.5419 7.69963C30.4756 6.88725 29.5179 6.26972 28.304 5.89359C26.9846 5.48449 25.6291 5.45735 24.5394 5.43506C23.4917 5.4147 22.2515 5.42438 21.0054 5.66286C20.8197 5.69873 20.635 5.73944 20.4562 5.78404C18.049 6.37829 15.7523 7.78104 13.8163 9.8401C12.8614 10.8532 12.0903 11.8798 11.4619 12.9743C11.1716 13.4764 10.9214 13.9863 10.679 14.4788C10.3849 15.074 10.1083 15.6373 9.78188 16.1578C9.38802 16.7831 8.94725 17.3822 8.47911 18.0143C8.19178 18.404 7.8937 18.8063 7.60833 19.2174C7.07569 19.9832 6.50491 20.7316 5.91167 21.4412C5.20996 22.2798 4.51901 22.9836 3.79872 23.5895C3.04618 24.2206 2.43242 24.5695 1.8646 24.6868C1.44142 24.7741 1.08176 24.9903 0.823751 25.2986C0.515895 25.4973 0.27158 25.7794 0.130846 26.1158C-0.0890515 26.6422 -0.0294565 27.2287 0.292082 27.727C0.969365 28.7749 2.03758 29.3517 2.89567 29.8151C2.9719 29.8568 3.04814 29.8985 3.12437 29.9392C3.53093 30.1622 3.92576 30.4006 4.34405 30.6527C4.95292 31.0191 5.58132 31.3982 6.2586 31.7317C8.77716 32.9716 11.283 33.8266 13.7029 34.2725C15.0428 34.5197 16.3309 34.5507 17.6424 34.5643C18.9902 34.5769 20.3584 34.5275 21.7091 34.416C21.8537 34.4044 21.9993 34.3918 22.145 34.3782C22.1528 34.4393 22.1596 34.5003 22.1655 34.5614C22.1948 34.8396 22.2271 35.1266 22.2808 35.4213C22.3698 35.906 22.6366 36.3219 23.0343 36.5914C23.4341 36.8628 23.9462 36.9656 24.4378 36.8706C24.8473 36.7921 26.2087 36.5293 26.6025 36.4537C27.5965 36.2637 28.2454 35.3777 28.1105 34.3927C28.0558 34.002 27.9669 33.6424 27.8701 33.2973C28.2611 33.1848 28.6451 33.0637 29.0194 32.9367C31.1558 32.2115 32.917 31.1723 34.253 29.8481C35.6564 28.456 36.7305 26.7033 37.3629 24.776C37.6707 23.8338 37.8603 22.8372 37.9258 21.8145C37.9834 20.9265 37.8788 20.1044 37.7792 19.3085C37.7665 19.2125 37.7557 19.1175 37.743 19.0206C37.7088 18.7414 37.6814 18.4496 37.6521 18.1413C37.5944 17.518 37.5348 16.8772 37.4078 16.2286C37.439 15.8961 37.3736 15.5587 37.2133 15.2427C37.1156 15.0527 37.0237 14.8569 36.9338 14.6591C37.097 14.4003 37.2485 14.1395 37.3912 13.8797C37.6209 14.0678 37.8593 14.2539 38.1075 14.4342C38.0978 14.6494 38.086 14.8656 38.0674 15.0779C38.0372 15.4298 38.1026 15.7691 38.2561 16.0657C38.3821 16.7143 38.5679 17.3318 38.7477 17.93C38.8366 18.2276 38.9207 18.5077 38.9939 18.7792C39.0184 18.8732 39.0438 18.9663 39.0683 19.0613C39.2735 19.8359 39.4866 20.6376 39.8726 21.4402C40.3183 22.3651 40.8685 23.2201 41.5076 23.9792C42.8172 25.5341 44.4738 26.7653 46.2975 27.5379C48.0361 28.2728 50.0602 28.5869 52.3158 28.4696C52.7097 28.4492 53.1104 28.4191 53.517 28.3804C53.5561 28.7361 53.6088 29.1016 53.7046 29.4855C53.9499 30.4491 54.8852 31.0327 55.8792 30.8408C56.273 30.7661 57.6344 30.5063 58.0439 30.4268C58.5355 30.3328 58.9714 30.0488 59.2421 29.6484C59.5089 29.2519 59.6018 28.7672 59.5031 28.2844C59.4425 27.9906 59.3633 27.7144 59.2861 27.4458C59.2675 27.3857 59.2518 27.3256 59.2352 27.2665C59.376 27.2258 59.5168 27.1831 59.6555 27.1414C60.9495 26.7459 62.2396 26.2854 63.4837 25.7765C64.6965 25.2782 65.882 24.7741 67.0323 24.05C69.1101 22.7412 71.1146 21.0224 72.9861 18.9401C73.4895 18.3788 73.9312 17.7952 74.3564 17.231C74.6505 16.8423 74.9281 16.4749 75.2223 16.1181C75.277 16.0532 75.3317 15.9853 75.3874 15.9184C76.01 15.171 76.784 14.2413 77.0196 13.0179C77.131 12.4391 76.9658 11.873 76.5641 11.4658Z" fill="white"/>
<path d="M36.7912 10.7989L36.712 10.7737C36.7061 10.7717 36.7003 10.7698 36.6944 10.7678C36.5644 10.7281 36.4285 10.6951 36.2888 10.667C36.2067 10.6515 36.1529 10.573 36.1686 10.4925C36.1852 10.4101 36.2644 10.3558 36.3465 10.3723C36.4755 10.3956 36.6025 10.4266 36.7257 10.4615C36.8273 10.384 36.9338 10.3093 37.0443 10.2395C37.1146 10.1949 37.2084 10.2153 37.2534 10.2841C37.2983 10.3539 37.2778 10.4469 37.2075 10.4915C37.0882 10.5681 36.9739 10.6505 36.8664 10.7349C36.8634 10.7388 36.8596 10.7417 36.8547 10.7465L36.7912 10.7989Z" fill="#333333"/>
<path d="M17.7627 34.0166C17.7617 34.0166 17.7617 34.0166 17.7607 34.0166L17.6493 34.0156C17.3815 34.0127 17.1147 34.0088 16.8489 34.003C16.7648 34.002 16.6984 33.9332 16.7003 33.8498C16.7023 33.7674 16.7687 33.7005 16.8557 33.7034C17.1206 33.7093 17.3864 33.7132 17.6522 33.7151L17.7637 33.716C17.8467 33.718 17.9142 33.7839 17.9132 33.8673C17.9142 33.9507 17.8457 34.0166 17.7627 34.0166ZM18.6745 34.0146C18.5915 34.0146 18.524 33.9487 18.523 33.8663C18.522 33.7839 18.5885 33.7161 18.6726 33.7151C18.9736 33.7103 19.2785 33.7035 19.5805 33.6928C19.6636 33.6879 19.733 33.7539 19.7359 33.8372C19.7398 33.9206 19.6743 33.9894 19.5913 33.9933C19.2863 34.003 18.9785 34.0098 18.6745 34.0146ZM15.941 33.972C15.938 33.972 15.9361 33.972 15.9332 33.972C15.6077 33.9545 15.3077 33.9332 15.0174 33.9041C14.9334 33.8954 14.8727 33.8217 14.8806 33.7393C14.8884 33.6569 14.9636 33.5968 15.0467 33.6036C15.333 33.6327 15.6272 33.655 15.9478 33.6715C16.0318 33.6753 16.0953 33.7451 16.0905 33.8285C16.0875 33.909 16.0211 33.972 15.941 33.972ZM20.4943 33.9507C20.4151 33.9507 20.3487 33.8896 20.3438 33.8091C20.3389 33.7258 20.4034 33.656 20.4865 33.6511C20.7885 33.6327 21.0934 33.6133 21.3925 33.591C21.4765 33.5832 21.5488 33.6463 21.5547 33.7296C21.5625 33.812 21.499 33.8848 21.4159 33.8906C21.1139 33.9138 20.807 33.9342 20.5031 33.9507C20.5001 33.9507 20.4972 33.9507 20.4943 33.9507ZM14.129 33.7878C14.1212 33.7878 14.1133 33.7868 14.1055 33.7859C14.0049 33.7684 13.9062 33.7529 13.8055 33.7335C13.6062 33.6976 13.4029 33.6569 13.2025 33.6153C13.1214 33.5968 13.0686 33.5173 13.0862 33.4359C13.1038 33.3554 13.1849 33.3021 13.267 33.3205C13.4634 33.3622 13.6638 33.402 13.8612 33.4378C13.9589 33.4563 14.0557 33.4727 14.1544 33.4882C14.2365 33.5028 14.2932 33.5784 14.2795 33.6608C14.2658 33.7345 14.2023 33.7878 14.129 33.7878ZM12.3464 33.4117C12.3336 33.4117 12.322 33.4107 12.3093 33.4088C12.017 33.3341 11.7189 33.2536 11.4247 33.1693C11.3446 33.146 11.2977 33.0627 11.3221 32.9822C11.3456 32.9027 11.4297 32.8571 11.5098 32.8814C11.801 32.9657 12.0952 33.0452 12.3835 33.117C12.4656 33.1373 12.5145 33.2187 12.4939 33.2992C12.4754 33.368 12.4148 33.4117 12.3464 33.4117ZM10.597 32.9076C10.5804 32.9076 10.5657 32.9056 10.5491 32.8988C10.2627 32.8048 9.97149 32.7059 9.68318 32.6002C9.60499 32.5731 9.56396 32.4858 9.59328 32.4083C9.62065 32.3298 9.70861 32.29 9.78679 32.3191C10.0722 32.4219 10.3595 32.5208 10.6429 32.6138C10.723 32.639 10.7651 32.7243 10.7397 32.8038C10.7191 32.8669 10.6605 32.9076 10.597 32.9076ZM8.88469 32.2862C8.86514 32.2862 8.84659 32.2823 8.82802 32.2755C8.54851 32.164 8.2641 32.0467 7.9836 31.9246C7.9064 31.8916 7.87122 31.8024 7.90445 31.7268C7.93768 31.6502 8.02761 31.6163 8.10481 31.6492C8.38237 31.7704 8.66382 31.8858 8.9404 31.9963C9.01761 32.0264 9.05573 32.1146 9.02445 32.1921C9.00197 32.2513 8.94528 32.2862 8.88469 32.2862ZM7.21345 31.5649C7.19293 31.5649 7.16949 31.5601 7.14897 31.5484C6.93591 31.4495 6.71993 31.3458 6.50492 31.2401C6.44432 31.2111 6.38469 31.18 6.32507 31.15C6.25079 31.1122 6.22149 31.022 6.26059 30.9484C6.2987 30.8737 6.3896 30.8446 6.46388 30.8834C6.52252 30.9125 6.58113 30.9425 6.64074 30.9716C6.85282 31.0763 7.06785 31.18 7.27895 31.278C7.3542 31.3129 7.38649 31.402 7.3513 31.4777C7.32589 31.5319 7.27111 31.5649 7.21345 31.5649ZM5.59602 30.7312C5.57061 30.7312 5.54322 30.7254 5.52074 30.7109C5.24806 30.5548 4.98325 30.3948 4.73502 30.2465C4.66367 30.2029 4.64021 30.1098 4.68419 30.04C4.72719 29.9692 4.82097 29.946 4.89232 29.9886C5.1386 30.1379 5.40153 30.295 5.67225 30.452C5.74457 30.4927 5.76999 30.5848 5.72796 30.6575C5.69962 30.704 5.64879 30.7312 5.59602 30.7312ZM4.03328 29.8015C4.00689 29.8015 3.97953 29.7947 3.95705 29.7812C3.74986 29.66 3.56516 29.5543 3.3912 29.4603C3.3179 29.4196 3.24362 29.3798 3.16739 29.3381C3.09409 29.2994 3.06674 29.2082 3.10583 29.1355C3.1459 29.0628 3.23874 29.0347 3.31204 29.0744C3.3873 29.1152 3.46155 29.1559 3.53681 29.1966C3.71272 29.2926 3.89939 29.3992 4.10952 29.5223C4.18086 29.565 4.20529 29.6561 4.16326 29.7279C4.1359 29.7744 4.08508 29.8015 4.03328 29.8015ZM2.44806 28.9106C2.42069 28.9106 2.39238 28.9029 2.36795 28.8903C2.0728 28.7099 1.82257 28.5364 1.60561 28.359C1.54111 28.3057 1.53134 28.2126 1.58509 28.1477C1.63884 28.0827 1.73366 28.074 1.79816 28.1273C2.00535 28.296 2.24379 28.4618 2.52722 28.6324C2.59856 28.676 2.62202 28.7691 2.57804 28.8389C2.54872 28.8854 2.49888 28.9106 2.44806 28.9106ZM1.0632 27.7512C1.01825 27.7512 0.973304 27.7308 0.943007 27.6921C0.877526 27.6067 0.813998 27.5185 0.757313 27.4293C0.626352 27.2277 0.557919 27.0125 0.552055 26.7915C0.5501 26.7091 0.615581 26.6402 0.699631 26.6373C0.781726 26.6354 0.852113 26.7013 0.854067 26.7837C0.857976 26.9495 0.91174 27.1123 1.01143 27.2675C1.0642 27.3489 1.12185 27.4293 1.18245 27.5069C1.23522 27.5728 1.22154 27.6669 1.15703 27.7182C1.12967 27.7405 1.09643 27.7512 1.0632 27.7512ZM1.06517 26.139C1.02315 26.139 0.981095 26.1226 0.951775 26.0886C0.896068 26.0266 0.901969 25.9316 0.965495 25.8763C1.01534 25.8337 1.0681 25.7939 1.12381 25.7571L1.19515 25.7115L1.24985 25.6475C1.37495 25.4973 1.53331 25.3809 1.71901 25.3024C1.79621 25.2704 1.88513 25.3053 1.91836 25.3809C1.95061 25.4575 1.9154 25.5467 1.83819 25.5787C1.69648 25.6388 1.57631 25.726 1.48249 25.8395L1.39844 25.9403L1.28797 26.0101C1.24399 26.0382 1.20392 26.0692 1.1658 26.1022C1.13746 26.1284 1.10133 26.139 1.06517 26.139ZM2.64646 25.3179C2.58684 25.3179 2.53113 25.285 2.5067 25.2268C2.47347 25.1502 2.50966 25.062 2.58687 25.029C2.83608 24.9243 3.08919 24.7857 3.35893 24.6073C3.42832 24.5618 3.52217 24.5812 3.56908 24.649C3.61599 24.7178 3.59641 24.8119 3.52702 24.8574C3.24067 25.0455 2.97288 25.1929 2.70509 25.3053C2.68653 25.315 2.666 25.3179 2.64646 25.3179ZM4.17108 24.3407C4.1271 24.3407 4.08408 24.3214 4.05476 24.2865C4.001 24.2215 4.00982 24.1275 4.07432 24.0742C4.10169 24.0528 4.12904 24.0286 4.1564 24.0063C4.3548 23.8386 4.55514 23.6631 4.74963 23.4809C4.8112 23.4237 4.90605 23.4266 4.96372 23.4876C5.02138 23.5487 5.01843 23.6428 4.95686 23.7009C4.75846 23.8841 4.5552 24.0654 4.35289 24.236C4.32455 24.2593 4.29517 24.2835 4.26878 24.3058C4.23946 24.3281 4.20528 24.3407 4.17108 24.3407ZM5.49926 23.1047C5.46115 23.1047 5.42401 23.0902 5.39469 23.0621C5.3341 23.0058 5.33214 22.9109 5.3898 22.8498C5.59211 22.6404 5.79636 22.4174 5.99866 22.1867C6.05437 22.1237 6.14916 22.1178 6.21269 22.1712C6.27621 22.2245 6.28209 22.3205 6.22736 22.3844C6.02212 22.6171 5.81394 22.8449 5.60968 23.0562C5.58036 23.0892 5.53933 23.1047 5.49926 23.1047ZM6.69747 21.7417C6.66424 21.7417 6.63097 21.7311 6.60263 21.7088C6.53715 21.6564 6.52742 21.5614 6.5802 21.4974C6.76882 21.2657 6.95744 21.0292 7.1402 20.7907C7.19102 20.7248 7.28578 20.7122 7.35321 20.7626C7.42065 20.813 7.43239 20.907 7.38059 20.973C7.19588 21.2134 7.0053 21.4538 6.8157 21.6874C6.7854 21.7243 6.74145 21.7417 6.69747 21.7417ZM7.80376 20.306C7.77346 20.306 7.74222 20.2963 7.71583 20.2779C7.64742 20.2294 7.63175 20.1364 7.68159 20.0675C7.80962 19.8911 7.93866 19.7098 8.06473 19.5285C8.11066 19.4626 8.15758 19.3957 8.20449 19.3298C8.25238 19.2619 8.34716 19.2455 8.41655 19.2939C8.48496 19.3405 8.50157 19.4355 8.4527 19.5033C8.40676 19.5683 8.35989 19.6342 8.31395 19.7001C8.1869 19.8824 8.05692 20.0646 7.92694 20.2439C7.89762 20.2837 7.85067 20.306 7.80376 20.306ZM8.86029 18.8315C8.82902 18.8315 8.79771 18.8228 8.77034 18.8024C8.7029 18.7549 8.68825 18.6609 8.73711 18.594L8.92376 18.34C9.04202 18.1791 9.15933 18.0211 9.27367 17.863C9.32352 17.7971 9.41732 17.7816 9.48573 17.8311C9.55219 17.8795 9.5688 17.9726 9.51896 18.0405C9.40364 18.1985 9.28635 18.3565 9.16809 18.5184L8.98246 18.7714C8.95314 18.8112 8.90623 18.8315 8.86029 18.8315ZM9.92458 17.3648C9.89527 17.3648 9.86398 17.357 9.83857 17.3396C9.76918 17.293 9.75161 17.198 9.7995 17.1302C9.96662 16.8878 10.1142 16.6648 10.251 16.4467L10.293 16.3808C10.337 16.3091 10.4308 16.2877 10.5012 16.3304C10.5725 16.374 10.596 16.4671 10.552 16.5369L10.509 16.6057C10.3692 16.8277 10.2187 17.0546 10.0487 17.3008C10.0193 17.3425 9.97247 17.3648 9.92458 17.3648ZM10.8677 15.8205C10.8442 15.8205 10.8198 15.8137 10.7983 15.803C10.724 15.7642 10.6957 15.6741 10.7338 15.6004C10.8706 15.3387 11.0026 15.0711 11.1394 14.7948C11.1755 14.7202 11.2665 14.6901 11.3417 14.726C11.417 14.7619 11.4472 14.853 11.4111 14.9267C11.2743 15.2049 11.1403 15.4754 11.0025 15.7391C10.9752 15.7914 10.9214 15.8205 10.8677 15.8205ZM11.6779 14.2015C11.6554 14.2015 11.632 14.1948 11.6095 14.1841C11.5352 14.1473 11.5059 14.0561 11.544 13.9824C11.6867 13.7042 11.8167 13.4628 11.9428 13.2437L11.9799 13.1798C12.0219 13.108 12.1148 13.0828 12.1871 13.1245C12.2584 13.1662 12.2848 13.2583 12.2428 13.33L12.2066 13.393C12.0834 13.6063 11.9544 13.8438 11.8147 14.1181C11.7863 14.1705 11.7336 14.2015 11.6779 14.2015ZM12.5897 12.6379C12.5604 12.6379 12.5321 12.6291 12.5057 12.6127C12.4363 12.5661 12.4167 12.4731 12.4636 12.4042C12.6298 12.1541 12.8096 11.903 12.9943 11.6587C13.0442 11.5918 13.139 11.5792 13.2064 11.6287C13.2729 11.6791 13.2866 11.7722 13.2357 11.839C13.054 12.0795 12.88 12.3247 12.7158 12.57C12.6874 12.6126 12.6386 12.6379 12.5897 12.6379ZM13.6834 11.1915C13.6492 11.1915 13.6139 11.1798 13.5856 11.1566C13.5221 11.1023 13.5133 11.0092 13.566 10.9452C13.7576 10.7174 13.9629 10.4867 14.175 10.2618C14.2316 10.2007 14.3274 10.1978 14.389 10.254C14.4506 10.3103 14.4535 10.4053 14.3968 10.4663C14.1896 10.6883 13.9873 10.9152 13.7987 11.1372C13.7684 11.1721 13.7254 11.1915 13.6834 11.1915ZM34.4993 10.6011C34.4181 10.6011 34.3507 10.5361 34.3488 10.4557C34.3458 10.3723 34.4123 10.3035 34.4954 10.3006L34.6742 10.2957C34.9156 10.2889 35.1639 10.2812 35.4141 10.286C35.4971 10.288 35.5636 10.3548 35.5626 10.4382C35.5606 10.5206 35.4923 10.5895 35.4082 10.5846C35.1649 10.5817 34.9205 10.5885 34.685 10.5962L34.5042 10.6011C34.5022 10.6011 34.5012 10.6011 34.4993 10.6011ZM33.6295 10.4857C33.5972 10.4857 33.565 10.4751 33.5366 10.4547L33.5043 10.4305C33.4887 10.4179 33.4731 10.4072 33.4565 10.3965L33.3666 10.3316L33.3128 10.2744C33.1731 10.128 33.0255 9.98258 32.8603 9.83135C32.7987 9.7761 32.7958 9.6811 32.8515 9.62003C32.9082 9.55896 33.004 9.55507 33.0656 9.61033C33.2366 9.76543 33.3891 9.91475 33.5337 10.0689L33.5747 10.1135L33.6256 10.1474C33.6471 10.1619 33.6676 10.1765 33.6881 10.192L33.7203 10.2162C33.7858 10.2676 33.7985 10.3616 33.7477 10.4276C33.7194 10.4654 33.6745 10.4857 33.6295 10.4857ZM14.9236 9.86821C14.8835 9.86821 14.8444 9.8527 14.8151 9.82168C14.7564 9.76157 14.7584 9.66755 14.819 9.60938C15.0409 9.39708 15.2705 9.19153 15.5002 8.99571C15.5637 8.94142 15.6595 8.94918 15.7142 9.01316C15.769 9.07521 15.7611 9.17023 15.6966 9.22451C15.4709 9.41549 15.2461 9.6181 15.0281 9.82555C14.9988 9.85464 14.9617 9.86821 14.9236 9.86821ZM32.27 9.28558C32.2377 9.28558 32.2036 9.27395 32.1752 9.25262C31.9397 9.06455 31.7012 8.88521 31.4578 8.70199C31.3914 8.65158 31.3777 8.5585 31.4295 8.49064C31.4794 8.42569 31.5742 8.41213 31.6416 8.46254C31.8869 8.64673 32.1273 8.82898 32.3648 9.01802C32.4303 9.06939 32.4411 9.16439 32.3883 9.22934C32.359 9.26424 32.315 9.28558 32.27 9.28558ZM16.3104 8.69617C16.2635 8.69617 16.2185 8.67582 16.1882 8.6351C16.1384 8.56918 16.1521 8.47514 16.2185 8.42473C16.4658 8.24151 16.7199 8.06506 16.973 7.90123C17.0424 7.85664 17.1372 7.87604 17.1831 7.94584C17.2281 8.01467 17.2085 8.10773 17.1382 8.15329C16.8899 8.31324 16.6417 8.48579 16.3993 8.66513C16.3729 8.68646 16.3407 8.69617 16.3104 8.69617ZM30.8236 8.18527C30.7933 8.18527 30.7611 8.17558 30.7337 8.15619C30.4659 7.95746 30.2245 7.78976 29.9958 7.64047C29.9264 7.59588 29.9059 7.50182 29.9518 7.433C29.9978 7.36417 30.0916 7.34382 30.1619 7.38939C30.3955 7.54159 30.6418 7.71316 30.9145 7.91383C30.9819 7.96521 30.9956 8.05829 30.9457 8.12518C30.9145 8.16299 30.8695 8.18527 30.8236 8.18527ZM17.837 7.71316C17.7832 7.71316 17.7324 7.68506 17.704 7.63562C17.6639 7.56291 17.6894 7.4718 17.7637 7.43205C18.0344 7.28276 18.3119 7.14315 18.5866 7.01713C18.6628 6.9832 18.7527 7.01615 18.7879 7.09079C18.8231 7.16544 18.7898 7.25559 18.7136 7.29049C18.4458 7.41263 18.1751 7.54934 17.9112 7.69378C17.8868 7.70639 17.8614 7.71316 17.837 7.71316ZM29.2951 7.20422C29.2707 7.20422 29.2462 7.19937 29.2247 7.18774C28.952 7.0462 28.6852 6.92697 28.4115 6.82518C28.3334 6.7961 28.2933 6.70884 28.3227 6.63129C28.352 6.55373 28.4389 6.51398 28.5171 6.54306C28.8035 6.6497 29.081 6.77283 29.3645 6.92115C29.4387 6.95993 29.4671 7.05105 29.428 7.12472C29.4026 7.17514 29.3498 7.20422 29.2951 7.20422ZM19.4916 6.95799C19.43 6.95799 19.3723 6.92019 19.3489 6.85912C19.3196 6.78156 19.3596 6.69431 19.4388 6.66619C19.7281 6.56053 20.0242 6.46552 20.3164 6.38505C20.3975 6.36276 20.4816 6.40928 20.5031 6.48878C20.5246 6.56827 20.4787 6.65165 20.3976 6.67395C20.1122 6.75247 19.8248 6.84458 19.5424 6.94734C19.5258 6.95412 19.5082 6.95799 19.4916 6.95799ZM27.5935 6.57312C27.5808 6.57312 27.5701 6.57215 27.5583 6.56827C27.2837 6.50526 26.9866 6.45098 26.6768 6.41026C26.5938 6.3996 26.5351 6.32397 26.5458 6.24157C26.5576 6.16014 26.6338 6.10101 26.7169 6.11264C27.0375 6.15529 27.3443 6.21055 27.6287 6.2755C27.7099 6.29586 27.7607 6.37633 27.7411 6.4568C27.7235 6.52659 27.662 6.57312 27.5935 6.57312ZM21.2449 6.47813C21.1736 6.47813 21.109 6.42673 21.0963 6.355C21.0816 6.27356 21.1364 6.19504 21.2185 6.17953C21.5087 6.12718 21.8156 6.08357 22.1333 6.05255C22.2163 6.04383 22.2906 6.10393 22.2994 6.18633C22.3082 6.2697 22.2467 6.34337 22.1636 6.3521C21.8547 6.38215 21.5547 6.42482 21.2732 6.47523C21.2635 6.47813 21.2547 6.47813 21.2449 6.47813ZM25.7894 6.32689C25.7855 6.32689 25.7826 6.32688 25.7796 6.32591C25.4405 6.30556 25.118 6.29684 24.8747 6.29006C24.7906 6.28812 24.7251 6.21929 24.7271 6.13592C24.729 6.05352 24.8014 5.98761 24.8825 5.99051C25.1278 5.99633 25.4552 6.00601 25.7992 6.02637C25.8823 6.03122 25.9458 6.10296 25.9409 6.18633C25.936 6.26486 25.8686 6.32689 25.7894 6.32689ZM23.0558 6.29006C22.9747 6.29006 22.9083 6.22703 22.9053 6.14657C22.9014 6.06417 22.9669 5.99439 23.05 5.99051C23.3119 5.97985 23.5817 5.97498 23.8768 5.97498H23.9687C24.0517 5.97498 24.1192 6.04285 24.1192 6.12622C24.1182 6.20862 24.0507 6.27456 23.9677 6.27456C23.9667 6.27456 23.9667 6.27456 23.9667 6.27456H23.8768C23.5865 6.27456 23.3197 6.27939 23.0627 6.29006C23.0607 6.29006 23.0578 6.29006 23.0558 6.29006Z" fill="#333333"/>
<path d="M22.8204 34.2153C22.7441 34.2153 22.6776 34.1581 22.6698 34.0815L22.6366 33.7791L22.3327 33.8081C22.2496 33.8169 22.1753 33.7558 22.1665 33.6734C22.1587 33.591 22.2203 33.5173 22.3043 33.5086L22.9044 33.4504L22.9699 34.0466C22.9796 34.129 22.9191 34.2027 22.836 34.2124C22.8311 34.2144 22.8253 34.2153 22.8204 34.2153Z" fill="#333333"/>
<path d="M24.0752 36.3577C23.8817 36.3577 23.6882 36.316 23.5171 36.2356C23.4419 36.2007 23.4096 36.1105 23.4458 36.0359C23.481 35.9612 23.5709 35.9292 23.6461 35.9641C23.7771 36.0252 23.9257 36.0582 24.0762 36.0582C24.1426 36.0582 24.2111 36.0514 24.2765 36.0378L24.299 36.033C24.3821 36.0145 24.4613 36.0679 24.4798 36.1493C24.4984 36.2297 24.4456 36.3102 24.3635 36.3277L24.3342 36.3335C24.2491 36.35 24.1622 36.3577 24.0752 36.3577C24.0762 36.3577 24.0762 36.3577 24.0752 36.3577ZM23.0569 35.715C22.9992 35.715 22.9435 35.682 22.918 35.6258C22.875 35.5298 22.8438 35.429 22.8242 35.3224C22.7988 35.1808 22.7754 35.0267 22.7529 34.8386C22.7421 34.7562 22.8027 34.6816 22.8858 34.6719C22.9688 34.6612 23.0441 34.7204 23.0539 34.8037C23.0754 34.986 23.0979 35.1333 23.1223 35.2681C23.1379 35.3505 23.1614 35.429 23.1946 35.5027C23.2289 35.5793 23.1946 35.6675 23.1184 35.7014C23.0989 35.7111 23.0784 35.715 23.0569 35.715Z" fill="#333333"/>
<path d="M24.9822 35.9496C24.946 35.9496 24.9089 35.9351 24.8796 35.9089C24.818 35.8517 24.8151 35.7577 24.8718 35.6956L25.2578 35.2856L25.7689 35.524C25.8442 35.5589 25.8765 35.6501 25.8413 35.7237C25.8051 35.7984 25.7152 35.8314 25.6399 35.7965L25.3282 35.651L25.0946 35.9011C25.0633 35.9331 25.0232 35.9496 24.9822 35.9496Z" fill="#333333"/>
<path d="M26.4491 35.9234C26.3768 35.9234 26.3123 35.8711 26.2996 35.7974C26.2859 35.7159 26.3416 35.6384 26.4247 35.6239L26.4423 35.6209C26.6661 35.5773 26.8625 35.4746 27.0091 35.3214C27.0667 35.2613 27.1616 35.2593 27.2232 35.3165C27.2838 35.3747 27.2857 35.4688 27.229 35.5289C27.0384 35.7276 26.7863 35.8604 26.4999 35.9147L26.4765 35.9195C26.4667 35.9215 26.4579 35.9234 26.4491 35.9234ZM27.4215 34.8948C27.4176 34.8948 27.4137 34.8948 27.4098 34.8939C27.3267 34.8881 27.2642 34.8154 27.2701 34.733C27.272 34.7068 27.273 34.6796 27.273 34.6535C27.273 34.605 27.2691 34.5556 27.2622 34.5081C27.2417 34.3539 27.2124 34.1959 27.1743 34.0262C27.1557 33.9448 27.2075 33.8653 27.2886 33.8459C27.3707 33.8275 27.4518 33.8789 27.4704 33.9594C27.5105 34.1387 27.5408 34.3045 27.5632 34.4664C27.572 34.5284 27.5759 34.5904 27.5759 34.6525C27.5759 34.6864 27.575 34.7213 27.573 34.7553C27.5672 34.8348 27.4997 34.8948 27.4215 34.8948Z" fill="#333333"/>
<path d="M27.1274 33.4068C27.0619 33.4068 27.0013 33.3632 26.9827 33.2973L26.8195 32.7185L27.4001 32.5508C27.4802 32.5275 27.5643 32.5731 27.5877 32.6526C27.6102 32.7321 27.5652 32.8154 27.4851 32.8387L27.1919 32.9231L27.275 33.2148C27.2965 33.2943 27.2505 33.3777 27.1704 33.4C27.1557 33.4049 27.142 33.4068 27.1274 33.4068Z" fill="#333333"/>
<path d="M28.3129 32.5837C28.2494 32.5837 28.1888 32.544 28.1682 32.479C28.1438 32.4005 28.1878 32.3162 28.267 32.291C28.4282 32.2406 28.5875 32.1882 28.7429 32.1349C28.8709 32.0913 28.997 32.0477 29.1211 32.0021C29.1993 31.974 29.2873 32.0128 29.3156 32.0913C29.344 32.1688 29.3039 32.2561 29.2257 32.2832C29.0986 32.3307 28.9706 32.3753 28.8406 32.419C28.6833 32.4732 28.522 32.5256 28.3588 32.577C28.3442 32.5808 28.3285 32.5837 28.3129 32.5837ZM30.0163 31.9565C29.9577 31.9565 29.9029 31.9226 29.8775 31.8654C29.8443 31.7898 29.8785 31.7016 29.9557 31.6686C30.2333 31.5484 30.507 31.4204 30.7689 31.2867C30.8432 31.2489 30.935 31.2779 30.9731 31.3516C31.0113 31.4253 30.9819 31.5164 30.9077 31.5542C30.6408 31.69 30.3604 31.8199 30.077 31.943C30.0574 31.9536 30.0369 31.9565 30.0163 31.9565ZM31.6338 31.1335C31.583 31.1335 31.5321 31.1083 31.5038 31.0618C31.4608 30.991 31.4833 30.8979 31.5556 30.8562C31.8156 30.7011 32.0677 30.5363 32.3081 30.3686C32.3746 30.3201 32.4704 30.3357 32.5183 30.4035C32.5672 30.4704 32.5515 30.5644 32.4831 30.6129C32.2378 30.7864 31.9779 30.9551 31.713 31.1131C31.6876 31.1267 31.6602 31.1335 31.6338 31.1335ZM33.1135 30.0894C33.0705 30.0894 33.0275 30.071 32.9982 30.0351C32.9434 29.9721 32.9522 29.8781 33.0157 29.8238C33.2376 29.6396 33.4506 29.4448 33.649 29.248L33.6744 29.2228C33.7341 29.1636 33.8289 29.1617 33.8895 29.2208C33.9491 29.2799 33.9491 29.375 33.8895 29.4341L33.8631 29.4603C33.6578 29.6638 33.4379 29.8636 33.2112 30.0536C33.1828 30.0768 33.1487 30.0894 33.1135 30.0894ZM34.3976 28.8137C34.3634 28.8137 34.3283 28.802 34.299 28.7788C34.2355 28.7245 34.2276 28.6305 34.2814 28.5674C34.4729 28.3425 34.6596 28.1069 34.8345 27.8665C34.8834 27.7996 34.9782 27.7841 35.0456 27.8326C35.114 27.882 35.1287 27.9751 35.0798 28.043C34.9 28.2892 34.7094 28.5306 34.512 28.7603C34.4827 28.7972 34.4406 28.8137 34.3976 28.8137ZM35.4639 27.3547C35.4365 27.3547 35.4092 27.3469 35.3848 27.3324C35.3134 27.2888 35.291 27.1976 35.3349 27.1259C35.4903 26.8748 35.6389 26.614 35.7757 26.3513C35.8148 26.2776 35.9067 26.2495 35.981 26.2864C36.0543 26.3251 36.0835 26.4163 36.0444 26.49C35.9037 26.7585 35.7513 27.027 35.592 27.2839C35.5636 27.3304 35.5138 27.3547 35.4639 27.3547ZM36.2985 25.7551C36.278 25.7551 36.2585 25.7513 36.239 25.7425C36.1617 25.7105 36.1256 25.6223 36.1588 25.5457C36.2761 25.2753 36.3846 24.9941 36.4813 24.7149C36.5087 24.6364 36.5947 24.5957 36.6739 24.6219C36.753 24.649 36.795 24.7343 36.7687 24.8119C36.668 25.0998 36.5576 25.3858 36.4374 25.664C36.4129 25.7212 36.3582 25.7551 36.2985 25.7551ZM36.8879 24.0499C36.8742 24.0499 36.8625 24.0489 36.8498 24.0451C36.7696 24.0247 36.7198 23.9433 36.7413 23.8628C36.8146 23.5788 36.8781 23.286 36.928 22.9932C36.9426 22.9118 37.0218 22.8565 37.1029 22.8711C37.1859 22.8856 37.2417 22.9632 37.227 23.0456C37.1742 23.3461 37.1107 23.6456 37.0345 23.9384C37.0169 24.0053 36.9544 24.0499 36.8879 24.0499ZM37.1967 22.2749C37.1918 22.2749 37.187 22.2749 37.183 22.2739C37.099 22.2671 37.0384 22.1935 37.0453 22.1111C37.056 21.9947 37.0657 21.8774 37.0726 21.7611C37.0823 21.6128 37.0872 21.4577 37.0872 21.2997C37.0872 21.2754 37.0872 21.2502 37.0872 21.226C37.0863 21.1426 37.1527 21.0747 37.2368 21.0747C37.3208 21.0767 37.3893 21.1397 37.3893 21.2221C37.3902 21.2473 37.3902 21.2744 37.3902 21.2997C37.3902 21.4625 37.3844 21.6244 37.3746 21.7795C37.3668 21.8988 37.357 22.019 37.3463 22.1392C37.3404 22.2167 37.2739 22.2749 37.1967 22.2749ZM37.1889 20.4747C37.1107 20.4747 37.0462 20.4155 37.0384 20.338C37.011 20.0491 36.9768 19.7747 36.9358 19.4461C36.925 19.3637 36.9847 19.2891 37.0677 19.2784C37.1498 19.2677 37.226 19.3269 37.2368 19.4083C37.2788 19.7408 37.313 20.0181 37.3404 20.3108C37.3482 20.3923 37.2866 20.4669 37.2036 20.4737C37.1987 20.4747 37.1938 20.4747 37.1889 20.4747ZM36.9827 18.6822C36.9055 18.6822 36.84 18.6231 36.8322 18.5455C36.8224 18.4398 36.8117 18.3322 36.8019 18.2237C36.7843 18.0288 36.7667 17.8398 36.7462 17.6488C36.7374 17.5654 36.799 17.4927 36.882 17.483C36.9651 17.4753 37.0394 17.5344 37.0482 17.6178C37.0687 17.8087 37.0863 18.0017 37.1039 18.1897C37.1156 18.3051 37.1244 18.4117 37.1351 18.5164C37.143 18.5998 37.0814 18.6725 36.9974 18.6812C36.9925 18.6812 36.9885 18.6822 36.9827 18.6822ZM36.7843 16.8887C36.711 16.8887 36.6455 16.8345 36.6347 16.7608C36.6142 16.6328 36.5928 16.5087 36.5693 16.3914L36.5468 16.2712L36.5585 16.1501C36.5605 16.1229 36.5624 16.0948 36.5624 16.0667C36.5624 16.0037 36.5546 15.9397 36.5419 15.8767C36.5243 15.7962 36.5771 15.7167 36.6592 15.6983C36.7413 15.6799 36.8214 15.7332 36.839 15.8146C36.8576 15.898 36.8654 15.9823 36.8654 16.0667C36.8654 16.1035 36.8634 16.1423 36.8605 16.1782L36.8527 16.2567L36.8683 16.3333C36.8918 16.4535 36.9152 16.5824 36.9348 16.7152C36.9485 16.7976 36.8918 16.8733 36.8087 16.8868C36.7999 16.8878 36.7911 16.8887 36.7843 16.8887Z" fill="#333333"/>
<path d="M36.3259 15.17C36.2683 15.17 36.2135 15.137 36.1881 15.0818L35.9663 14.5971L36.2487 14.1453C36.2927 14.0755 36.3865 14.0522 36.4569 14.0978C36.5283 14.1404 36.5507 14.2335 36.5067 14.3043L36.3093 14.6184L36.4637 14.9557C36.4979 15.0323 36.4647 15.1215 36.3885 15.1554C36.368 15.1651 36.3464 15.17 36.3259 15.17Z" fill="#333333"/>
<path d="M36.9768 13.3145C36.9534 13.3145 36.9299 13.3087 36.9084 13.298C36.8331 13.2602 36.8038 13.1701 36.8419 13.0964C36.9084 12.9645 36.9738 12.8298 37.0364 12.695L37.1244 12.505L37.2769 12.6485C37.3853 12.7493 37.4977 12.8521 37.6091 12.95C37.6707 13.0052 37.6776 13.1002 37.6228 13.1623C37.5671 13.2243 37.4723 13.2302 37.4088 13.1759C37.3453 13.1216 37.2837 13.0654 37.2231 13.0091C37.1869 13.0838 37.1507 13.1575 37.1126 13.2311C37.0853 13.2845 37.0306 13.3145 36.9768 13.3145Z" fill="#333333"/>
<path d="M38.8083 14.693C38.8063 14.693 38.8035 14.693 38.8015 14.693C38.7174 14.6901 38.6539 14.6193 38.6568 14.5359L38.6734 14.1656L38.3715 13.9466C38.304 13.8971 38.2904 13.8031 38.3402 13.7362C38.3901 13.6693 38.4839 13.6557 38.5523 13.7052L38.9823 14.0183L38.9608 14.5495C38.9559 14.631 38.8884 14.693 38.8083 14.693Z" fill="#333333"/>
<path d="M50.9661 27.9421C50.9632 27.9421 50.9632 27.9421 50.9613 27.9421C50.6514 27.9324 50.3426 27.915 50.0445 27.8869C49.9605 27.8791 49.8989 27.8064 49.9067 27.7231C49.9136 27.6407 49.9869 27.5805 50.071 27.5883C50.3642 27.6135 50.6652 27.6319 50.9701 27.6406C51.0522 27.6435 51.1186 27.7124 51.1157 27.7948C51.1147 27.8772 51.0473 27.9421 50.9661 27.9421ZM51.8751 27.9412C51.793 27.9412 51.7265 27.8762 51.7236 27.7958C51.7216 27.7124 51.7871 27.6435 51.8702 27.6406C52.0041 27.6368 52.137 27.6329 52.2729 27.6251C52.437 27.6154 52.6042 27.6057 52.7723 27.5941C52.8563 27.5873 52.9277 27.6503 52.9345 27.7337C52.9404 27.8161 52.8768 27.8888 52.7928 27.8947C52.6227 27.9063 52.4537 27.9169 52.2885 27.9247C52.1497 27.9324 52.0139 27.9383 51.879 27.9421C51.877 27.9412 51.8761 27.9412 51.8751 27.9412ZM49.1562 27.7754C49.1474 27.7754 49.1396 27.7744 49.1318 27.7725C48.8259 27.7231 48.5219 27.6639 48.2297 27.5941C48.1476 27.5737 48.0977 27.4933 48.1182 27.4119C48.1378 27.3314 48.2199 27.281 48.301 27.3014C48.5864 27.3692 48.8825 27.4284 49.1816 27.4768C49.2627 27.4894 49.3184 27.567 49.3057 27.6484C49.293 27.7221 49.2295 27.7754 49.1562 27.7754ZM47.3911 27.3517C47.3745 27.3517 47.3589 27.3488 47.3432 27.344C47.0618 27.2519 46.7833 27.1482 46.5155 27.0357L46.4803 27.0192C46.405 26.9873 46.3689 26.899 46.4011 26.8225C46.4343 26.7468 46.5233 26.711 46.6005 26.7439L46.6347 26.7594C46.8947 26.869 47.1644 26.9698 47.4371 27.059C47.5162 27.0852 47.5602 27.1695 47.5338 27.249C47.5133 27.311 47.4537 27.3517 47.3911 27.3517ZM45.7209 26.6431C45.6974 26.6431 45.673 26.6373 45.6495 26.6257C45.3808 26.4841 45.113 26.331 44.854 26.1681C44.7836 26.1235 44.7612 26.0304 44.8061 25.9606C44.8511 25.8908 44.9449 25.8685 45.0153 25.9131C45.2684 26.0721 45.5294 26.2224 45.7923 26.36C45.8656 26.3988 45.8939 26.489 45.8548 26.5626C45.8264 26.614 45.7746 26.6431 45.7209 26.6431ZM44.1835 25.6834C44.1523 25.6834 44.121 25.6727 44.0936 25.6533C43.8483 25.473 43.607 25.282 43.3753 25.0833C43.3118 25.029 43.3049 24.935 43.3587 24.871C43.4134 24.809 43.5082 24.8022 43.5727 24.8555C43.7985 25.0494 44.035 25.2365 44.2735 25.4119C44.3409 25.4614 44.3555 25.5544 44.3057 25.6223C44.2754 25.662 44.2285 25.6834 44.1835 25.6834ZM42.8065 24.5055C42.7684 24.5055 42.7293 24.492 42.7 24.4629C42.4831 24.2477 42.2729 24.0237 42.0726 23.795C42.0178 23.7319 42.0247 23.6369 42.0882 23.5826C42.1517 23.5274 42.2475 23.5351 42.3022 23.5982C42.4977 23.8211 42.7029 24.0412 42.914 24.2506C42.9737 24.3097 42.9746 24.4047 42.915 24.4639C42.8847 24.492 42.8456 24.5055 42.8065 24.5055ZM41.6211 23.1406C41.5741 23.1406 41.5272 23.1202 41.4979 23.0795C41.318 22.8362 41.146 22.5812 40.9838 22.3214C40.9408 22.2506 40.9633 22.1576 41.0337 22.1149C41.105 22.0713 41.1988 22.0936 41.2428 22.1644C41.4002 22.4174 41.5683 22.6656 41.7432 22.9031C41.7931 22.969 41.7784 23.063 41.7109 23.1134C41.6836 23.1309 41.6523 23.1406 41.6211 23.1406ZM40.6672 21.6079C40.6115 21.6079 40.5597 21.5788 40.5323 21.5265C40.4776 21.4218 40.4238 21.3142 40.372 21.2066C40.2938 21.0447 40.2186 20.8712 40.1482 20.6928C40.1189 20.6152 40.157 20.528 40.2342 20.4979C40.3124 20.4689 40.4004 20.5057 40.4307 20.5832C40.4981 20.7568 40.5714 20.9216 40.6467 21.0776C40.6965 21.1823 40.7493 21.287 40.802 21.3898C40.8402 21.4625 40.8108 21.5546 40.7365 21.5914C40.7141 21.6031 40.6897 21.6079 40.6672 21.6079ZM39.9977 19.9337C39.9332 19.9337 39.8716 19.8911 39.8531 19.8261C39.7622 19.5236 39.682 19.2202 39.6117 18.9527C39.5911 18.8712 39.638 18.7898 39.7191 18.7685C39.7993 18.7481 39.8824 18.7956 39.9029 18.8761C39.9743 19.1417 40.0534 19.4432 40.1424 19.7418C40.1658 19.8203 40.1209 19.9056 40.0407 19.9279C40.027 19.9308 40.0124 19.9337 39.9977 19.9337ZM39.5159 18.1936C39.4504 18.1936 39.3888 18.1509 39.3702 18.086C39.3409 17.9842 39.3087 17.8805 39.2774 17.7748L39.2725 17.7603C39.2198 17.5819 39.166 17.4016 39.1123 17.2193C39.0898 17.1408 39.1357 17.0574 39.2159 17.0342C39.297 17.0119 39.38 17.0574 39.4035 17.1369C39.4562 17.3182 39.5081 17.4956 39.5618 17.674L39.5667 17.6895C39.5989 17.7942 39.6292 17.8999 39.6605 18.0017C39.684 18.0811 39.639 18.1645 39.5579 18.1878C39.5432 18.1907 39.5295 18.1936 39.5159 18.1936ZM39.0272 16.4564C38.9588 16.4564 38.8963 16.4089 38.8806 16.3401C38.8513 16.2111 38.823 16.0851 38.7995 15.963L38.7848 15.8864L38.7487 15.8166C38.692 15.708 38.6529 15.5907 38.6314 15.4695C38.6167 15.3871 38.6734 15.3096 38.7555 15.295C38.8386 15.2805 38.9158 15.3367 38.9304 15.4172C38.9471 15.5093 38.9764 15.5985 39.0194 15.6799L39.0751 15.7875L39.0976 15.9058C39.1201 16.0231 39.1474 16.1471 39.1758 16.2712C39.1953 16.3527 39.1445 16.4331 39.0624 16.4525C39.0507 16.4545 39.0389 16.4564 39.0272 16.4564Z" fill="#333333"/>
<path d="M54.1923 28.2194C54.1161 28.2194 54.0496 28.1612 54.0418 28.0846L54.0095 27.7841L53.7046 27.8132C53.6215 27.821 53.5482 27.7599 53.5385 27.6775C53.5316 27.5951 53.5922 27.5214 53.6763 27.5137L54.2773 27.4555L54.3419 28.0497C54.3516 28.1321 54.291 28.2068 54.2079 28.2155C54.2021 28.2194 54.1972 28.2194 54.1923 28.2194Z" fill="#333333"/>
<path d="M55.5009 30.3328C55.3084 30.3328 55.1247 30.292 54.9527 30.2155C54.8774 30.1815 54.8432 30.0914 54.8784 30.0167C54.9136 29.9421 55.0035 29.9081 55.0797 29.943C55.2723 30.0303 55.4941 30.0526 55.7179 30.0109L55.7355 30.007C55.8185 29.9886 55.8977 30.0419 55.9153 30.1234C55.9329 30.2058 55.8802 30.2843 55.7971 30.3017L55.7765 30.3056C55.6837 30.3231 55.5918 30.3328 55.5009 30.3328ZM54.4786 29.7075C54.4229 29.7075 54.3702 29.6774 54.3418 29.6241C54.3008 29.5378 54.2666 29.4477 54.2422 29.3527C54.2011 29.1947 54.1678 29.0289 54.1375 28.8476C54.1239 28.7662 54.1796 28.6896 54.2627 28.675C54.3458 28.6615 54.4239 28.7167 54.4366 28.7991C54.465 28.9717 54.4982 29.1297 54.5373 29.28C54.5559 29.3546 54.5823 29.4244 54.6145 29.4923C54.6516 29.5659 54.6214 29.6561 54.5451 29.6929C54.5236 29.7026 54.5001 29.7075 54.4786 29.7075Z" fill="#333333"/>
<path d="M56.4167 29.9246C56.3806 29.9246 56.3434 29.9101 56.3141 29.8839C56.2535 29.8267 56.2496 29.7327 56.3053 29.6707L56.6923 29.2615L57.2025 29.4991C57.2787 29.5349 57.311 29.6241 57.2758 29.6988C57.2406 29.7744 57.1497 29.8064 57.0735 29.7715L56.7627 29.626L56.5291 29.8762C56.4988 29.9081 56.4568 29.9246 56.4167 29.9246Z" fill="#333333"/>
<path d="M57.8846 29.8995C57.8123 29.8995 57.7468 29.8471 57.7351 29.7744C57.7204 29.692 57.7771 29.6144 57.8582 29.5999L57.8827 29.596C58.0987 29.5553 58.2961 29.4477 58.4397 29.2945C58.4974 29.2335 58.5912 29.2296 58.6538 29.2868C58.7153 29.344 58.7183 29.438 58.6606 29.4981C58.474 29.6978 58.2179 29.8384 57.9413 29.8907L57.911 29.8965C57.9012 29.8985 57.8925 29.8995 57.8846 29.8995ZM58.8385 28.8583C58.8366 28.8583 58.8336 28.8583 58.8317 28.8583C58.7486 28.8554 58.6841 28.7856 58.687 28.7022C58.687 28.6896 58.687 28.678 58.687 28.6654C58.687 28.5965 58.6802 28.5258 58.6665 28.4569C58.6381 28.3222 58.6029 28.1768 58.5551 28.0003C58.5345 27.9208 58.5814 27.8384 58.6616 27.8161C58.7417 27.7958 58.8258 27.8414 58.8482 27.9228C58.8971 28.105 58.9333 28.2553 58.9626 28.3968C58.9812 28.485 58.99 28.5752 58.99 28.6644C58.99 28.6809 58.99 28.6964 58.989 28.7138C58.9851 28.7953 58.9187 28.8583 58.8385 28.8583Z" fill="#333333"/>
<path d="M58.4935 27.377C58.428 27.377 58.3674 27.3343 58.3489 27.2684L58.1866 26.6906L58.7652 26.521C58.8454 26.4996 58.9303 26.5433 58.9528 26.6228C58.9763 26.7032 58.9313 26.7866 58.8502 26.8099L58.558 26.8952L58.6401 27.187C58.6636 27.2665 58.6167 27.3498 58.5365 27.3712C58.5209 27.376 58.5072 27.377 58.4935 27.377Z" fill="#333333"/>
<path d="M59.681 26.5549C59.6165 26.5549 59.5548 26.5142 59.5373 26.4502C59.5109 26.3717 59.5558 26.2864 59.636 26.2621C59.9233 26.172 60.2136 26.0789 60.4989 25.983C60.5791 25.9568 60.6641 25.9985 60.6915 26.078C60.7179 26.1565 60.6759 26.2418 60.5947 26.268C60.3084 26.3649 60.0152 26.459 59.7259 26.5491C59.7102 26.553 59.6956 26.5549 59.681 26.5549ZM61.4069 25.9762C61.3453 25.9762 61.2877 25.9384 61.2642 25.8773C61.2359 25.7988 61.2759 25.7125 61.3561 25.6853C61.6395 25.5835 61.9258 25.4769 62.2063 25.3703C62.2845 25.3402 62.3725 25.379 62.4028 25.4566C62.4321 25.5341 62.393 25.6204 62.3148 25.6514C62.0323 25.759 61.7441 25.8647 61.4577 25.9675C61.4421 25.9752 61.4235 25.9762 61.4069 25.9762ZM63.1084 25.3276C63.0478 25.3276 62.9911 25.2927 62.9667 25.2336C62.9354 25.158 62.9735 25.0698 63.0497 25.0387L63.1582 24.9942C63.4036 24.8933 63.6459 24.7935 63.8883 24.6907C63.9655 24.6597 64.0544 24.6946 64.0877 24.7702C64.1199 24.8468 64.0838 24.935 64.0065 24.968C63.7642 25.0707 63.5189 25.1715 63.2736 25.2714L63.1641 25.316C63.1465 25.3247 63.1269 25.3276 63.1084 25.3276ZM64.7816 24.6122C64.7249 24.6122 64.6701 24.5802 64.6437 24.5249C64.6085 24.4493 64.6418 24.3602 64.717 24.3262C65.0083 24.1905 65.2741 24.0625 65.5292 23.9307C65.6025 23.8919 65.6953 23.921 65.7325 23.9937C65.7716 24.0674 65.7423 24.1575 65.669 24.1963C65.4109 24.3311 65.1412 24.4619 64.8451 24.5977C64.8246 24.6074 64.8031 24.6122 64.7816 24.6122ZM66.3932 23.7727C66.3424 23.7727 66.2925 23.7465 66.2641 23.7C66.2202 23.6292 66.2436 23.5361 66.315 23.4945C66.402 23.4421 66.488 23.3898 66.574 23.3355C66.7421 23.2317 66.9102 23.1202 67.0773 23.0107C67.1467 22.9632 67.2405 22.9826 67.2864 23.0514C67.3343 23.1203 67.3148 23.2133 67.2464 23.2599C67.0773 23.3723 66.9053 23.4828 66.7372 23.5895C66.6492 23.6447 66.5603 23.698 66.4723 23.7513C66.4479 23.7659 66.4205 23.7727 66.3932 23.7727ZM67.9071 22.7674C67.8611 22.7674 67.8132 22.746 67.7849 22.7053C67.735 22.6394 67.7497 22.5444 67.8181 22.495C68.0595 22.3214 68.3018 22.1402 68.5403 21.954C68.6058 21.9017 68.7006 21.9133 68.7534 21.9783C68.8052 22.0432 68.7935 22.1373 68.727 22.1896C68.4866 22.3767 68.2403 22.5619 67.996 22.7373C67.9696 22.7577 67.9374 22.7674 67.9071 22.7674ZM69.3408 21.6525C69.2978 21.6525 69.2557 21.6331 69.2244 21.5982C69.1707 21.5352 69.1795 21.4402 69.244 21.3869C69.4717 21.1959 69.7024 20.9972 69.9281 20.7965C69.9897 20.7413 70.0855 20.7461 70.1412 20.8082C70.1988 20.8692 70.192 20.9642 70.1295 21.0214C69.9027 21.224 69.6701 21.4247 69.4395 21.6176C69.4102 21.6409 69.3759 21.6525 69.3408 21.6525ZM70.6963 20.4437C70.6563 20.4437 70.6162 20.4282 70.5869 20.3981C70.5282 20.337 70.5302 20.242 70.5907 20.1848C70.8077 19.9793 71.0237 19.767 71.2358 19.5537C71.2954 19.4946 71.3912 19.4936 71.4517 19.5528C71.5114 19.6109 71.5114 19.705 71.4528 19.7651C71.2387 19.9812 71.0188 20.1945 70.8009 20.4029C70.7716 20.4301 70.7335 20.4437 70.6963 20.4437ZM71.9747 19.1573C71.9385 19.1573 71.9014 19.1437 71.8721 19.1175C71.8105 19.0593 71.8075 18.9653 71.8632 18.9042C72.0255 18.7317 72.1877 18.5552 72.349 18.3778C72.389 18.3303 72.4301 18.2848 72.4721 18.2373C72.5268 18.1752 72.6216 18.1684 72.6852 18.2217C72.7487 18.276 72.7555 18.3701 72.7008 18.4341C72.6597 18.4816 72.6167 18.53 72.5737 18.5756C72.4134 18.7559 72.2483 18.9343 72.087 19.1078C72.0548 19.1417 72.0147 19.1573 71.9747 19.1573ZM73.1631 17.7874C73.1318 17.7874 73.0985 17.7768 73.0702 17.7554C73.0047 17.705 72.992 17.611 73.0448 17.5451C73.2373 17.2998 73.4308 17.0458 73.5941 16.8287C73.6459 16.7618 73.7397 16.7482 73.8081 16.7986C73.8736 16.849 73.8882 16.9421 73.8384 17.0099C73.6722 17.2281 73.4787 17.4821 73.2842 17.7302C73.253 17.768 73.208 17.7874 73.1631 17.7874ZM74.2645 16.3469C74.2333 16.3469 74.2 16.3372 74.1726 16.3168C74.1061 16.2664 74.0935 16.1714 74.1443 16.1055C74.2938 15.9116 74.4307 15.74 74.5597 15.5839C74.6125 15.5229 74.6633 15.4589 74.716 15.3959C74.7708 15.3329 74.8646 15.3232 74.9301 15.3755C74.9936 15.4279 75.0033 15.5229 74.9506 15.5868C74.8988 15.6499 74.847 15.7129 74.7961 15.7739C74.6681 15.9281 74.5342 16.0968 74.3857 16.2877C74.3554 16.3265 74.3105 16.3469 74.2645 16.3469ZM75.4021 14.9354C75.3709 14.9354 75.3386 14.9257 75.3112 14.9063C75.2448 14.8549 75.2301 14.7619 75.2819 14.694C75.4803 14.4313 75.6386 14.1889 75.7686 13.9572C75.8097 13.8845 75.9015 13.8564 75.9738 13.8971C76.0471 13.9378 76.0745 14.028 76.0344 14.1007C75.8986 14.346 75.7315 14.599 75.5243 14.8743C75.494 14.9131 75.4481 14.9354 75.4021 14.9354ZM76.2543 13.3475C76.2396 13.3475 76.226 13.3465 76.2114 13.3416C76.1312 13.3194 76.0852 13.236 76.1087 13.1565C76.137 13.0586 76.1615 12.9597 76.18 12.8618C76.1927 12.7949 76.1996 12.727 76.1996 12.665C76.1996 12.5593 76.1811 12.4566 76.1478 12.3625C76.1205 12.284 76.1605 12.1977 76.2387 12.1696C76.3159 12.1425 76.4038 12.1822 76.4322 12.2607C76.4791 12.3877 76.5016 12.5235 76.5016 12.665C76.5016 12.7464 76.4928 12.8327 76.4772 12.918C76.4566 13.0247 76.4312 13.1332 76.399 13.2399C76.3794 13.3058 76.3188 13.3475 76.2543 13.3475ZM75.6601 11.8488C75.6425 11.8488 75.625 11.8458 75.6083 11.839C75.5585 11.8206 75.5057 11.8071 75.4519 11.7964L75.322 11.7722L75.2056 11.7101C75.0776 11.6413 74.9389 11.6044 74.7864 11.6006C74.7033 11.5977 74.6378 11.5288 74.6407 11.4455C74.6427 11.3621 74.7111 11.2971 74.7961 11.3C74.9955 11.3068 75.1812 11.3563 75.3503 11.4464L75.4256 11.4871L75.5086 11.5036C75.578 11.5172 75.6464 11.5346 75.7119 11.5589C75.7901 11.587 75.8302 11.6723 75.8019 11.7518C75.7804 11.8109 75.7217 11.8488 75.6601 11.8488ZM73.8843 11.6675C73.8833 11.6675 73.8824 11.6675 73.8814 11.6675C73.5911 11.6607 73.2872 11.6248 72.95 11.5569C72.8689 11.5385 72.8161 11.46 72.8327 11.3786C72.8493 11.2971 72.9304 11.2448 73.0116 11.2622C73.3302 11.3262 73.6165 11.3611 73.8872 11.366C73.9713 11.3669 74.0368 11.4358 74.0358 11.5182C74.0339 11.6006 73.9674 11.6675 73.8843 11.6675ZM72.1017 11.3253C72.0861 11.3253 72.0704 11.3224 72.0548 11.3175C72.0176 11.3059 71.9795 11.2942 71.9414 11.2816C71.6922 11.1992 71.4381 11.1071 71.1889 11.0121C71.1107 10.9811 71.0716 10.8948 71.1019 10.8173C71.1312 10.7397 71.2202 10.7019 71.2974 10.731C71.5437 10.827 71.7919 10.9152 72.0362 10.9957C72.0733 11.0083 72.1105 11.0208 72.1466 11.0315C72.2268 11.0567 72.2698 11.1411 72.2453 11.2196C72.2258 11.2855 72.1652 11.3253 72.1017 11.3253ZM70.4051 10.6699C70.3836 10.6699 70.3621 10.666 70.3425 10.6564C70.0728 10.5342 69.7923 10.4014 69.5157 10.2608C69.4405 10.2221 69.4121 10.1319 69.4502 10.0582C69.4883 9.98453 69.5792 9.95641 69.6535 9.99422C69.9281 10.1328 70.2018 10.2637 70.4676 10.383C70.5439 10.4169 70.5781 10.5061 70.5439 10.5817C70.5165 10.637 70.4617 10.6699 70.4051 10.6699ZM37.9434 10.0989C37.8838 10.0989 37.8281 10.065 37.8036 10.0068C37.7714 9.93121 37.8075 9.84299 37.8848 9.81003C38.1125 9.71405 38.3431 9.63071 38.5659 9.55024C38.6245 9.52892 38.6822 9.50661 38.7418 9.48625C38.82 9.45717 38.907 9.49692 38.9363 9.57447C38.9657 9.653 38.9246 9.73831 38.8474 9.76739C38.7878 9.78872 38.7291 9.811 38.6705 9.83136C38.4496 9.91182 38.2238 9.9952 38.001 10.0873C37.9834 10.095 37.9629 10.0989 37.9434 10.0989ZM68.7808 9.85076C68.7563 9.85076 68.7299 9.84493 68.7075 9.83136C68.4426 9.68497 68.1768 9.53182 67.9129 9.37865C67.8425 9.33503 67.8181 9.24292 67.8611 9.17215C67.9031 9.10042 67.9969 9.07619 68.0692 9.11884C68.3273 9.27201 68.5921 9.42323 68.855 9.56865C68.9273 9.60839 68.9557 9.70051 68.9137 9.77225C68.8863 9.82169 68.8335 9.85076 68.7808 9.85076ZM39.5559 9.34182C39.5295 9.34182 39.5022 9.33598 39.4787 9.32144C39.4064 9.27975 39.383 9.1867 39.425 9.11497L39.4406 9.08781C39.4543 9.06745 39.467 9.04517 39.4826 9.02385L39.5169 8.97343L39.5383 8.91622C39.6155 8.71846 39.7035 8.52167 39.8042 8.3113C39.8404 8.23569 39.9303 8.20466 40.0055 8.23956C40.0818 8.27543 40.113 8.36559 40.0769 8.44023C39.9782 8.64381 39.8941 8.83479 39.8188 9.02577L39.7759 9.12659L39.7318 9.19156C39.7211 9.20707 39.7113 9.22258 39.7006 9.241L39.684 9.26715C39.6576 9.31659 39.6077 9.34182 39.5559 9.34182ZM67.2151 8.9269C67.1868 8.9269 67.1575 8.91913 67.133 8.90459C66.9415 8.78341 66.7479 8.66029 66.5613 8.53621C66.4977 8.49452 66.4323 8.45187 66.3678 8.41115C66.2984 8.36462 66.2779 8.27155 66.3238 8.20175C66.3688 8.13292 66.4625 8.11258 66.5339 8.15814C66.5984 8.2008 66.6639 8.24247 66.7284 8.28512C66.9141 8.40824 67.1066 8.5304 67.2952 8.65061C67.3656 8.69423 67.3881 8.78731 67.3431 8.85711C67.3148 8.9017 67.2649 8.9269 67.2151 8.9269ZM65.6817 7.94875C65.6543 7.94875 65.6269 7.94196 65.6005 7.92742L65.3249 7.75582C65.1539 7.65016 64.9907 7.54935 64.8285 7.44853C64.7571 7.40394 64.7356 7.31088 64.7806 7.24011C64.8245 7.17031 64.9194 7.14898 64.9888 7.19357C65.151 7.29439 65.3142 7.3952 65.4803 7.49699L65.7618 7.67246C65.8322 7.71608 65.8547 7.80916 65.8097 7.87896C65.7804 7.92355 65.7305 7.94875 65.6817 7.94875ZM40.3652 7.72577C40.3397 7.72577 40.3143 7.71996 40.2909 7.70639C40.2176 7.66567 40.1922 7.57357 40.2332 7.50087C40.3837 7.23815 40.5391 6.98125 40.6965 6.71853C40.7395 6.64776 40.8333 6.62355 40.9046 6.66717C40.976 6.70886 41.0004 6.8019 40.9574 6.87267C40.8001 7.13344 40.6466 7.38745 40.4971 7.64823C40.4697 7.69864 40.4179 7.72577 40.3652 7.72577ZM64.1424 6.9803C64.114 6.9803 64.0837 6.97255 64.0583 6.95607C63.8032 6.78836 63.5765 6.63128 63.3605 6.47618L63.3039 6.43449C63.2374 6.38505 63.2227 6.29104 63.2736 6.22415C63.3234 6.15726 63.4172 6.14367 63.4856 6.19311L63.5413 6.23382C63.7524 6.38699 63.9763 6.54016 64.2265 6.70593C64.2959 6.75246 64.3154 6.84552 64.2675 6.91435C64.2392 6.95701 64.1912 6.9803 64.1424 6.9803ZM41.2946 6.17178C41.2672 6.17178 41.2399 6.16499 41.2154 6.15045C41.1441 6.10683 41.1216 6.01474 41.1646 5.943C41.3425 5.65509 41.5067 5.40497 41.667 5.17813C41.7158 5.11124 41.8097 5.09379 41.8781 5.14129C41.9465 5.1888 41.9631 5.28283 41.9152 5.35069C41.7588 5.57366 41.5985 5.81794 41.4246 6.10004C41.3952 6.1456 41.3454 6.17178 41.2946 6.17178ZM62.6852 5.89744C62.651 5.89744 62.6158 5.88582 62.5865 5.86061C62.3578 5.66479 62.1321 5.46411 61.9034 5.2586C61.8408 5.20237 61.8359 5.10737 61.8907 5.0463C61.9483 4.98522 62.0431 4.97939 62.1056 5.03562C62.3334 5.24017 62.5562 5.4389 62.7829 5.63278C62.8464 5.68707 62.8543 5.78015 62.8005 5.84413C62.7712 5.87903 62.7282 5.89744 62.6852 5.89744ZM42.3472 4.69827C42.313 4.69827 42.2778 4.68567 42.2485 4.66143C42.1849 4.60715 42.1771 4.51309 42.2309 4.45008C42.44 4.20869 42.6501 3.99058 42.8769 3.787C42.9384 3.72981 43.0342 3.73466 43.0909 3.79671C43.1476 3.85778 43.1427 3.95181 43.0811 4.00901C42.8642 4.20483 42.6609 4.41423 42.4615 4.64495C42.4332 4.68082 42.3902 4.69827 42.3472 4.69827ZM61.3267 4.69341C61.2906 4.69341 61.2554 4.68179 61.2251 4.65658C60.9895 4.45106 60.7795 4.27657 60.582 4.12146L60.5331 4.08267C60.4667 4.03129 60.455 3.93727 60.5068 3.87135C60.5586 3.80543 60.6533 3.79476 60.7188 3.84614L60.7707 3.88588C60.972 4.04389 61.186 4.22131 61.4264 4.4307C61.488 4.48596 61.4948 4.58 61.4411 4.64398C61.4088 4.67791 61.3678 4.69341 61.3267 4.69341ZM59.893 3.57858C59.8637 3.57858 59.8324 3.56985 59.806 3.5524C59.5627 3.38469 59.3076 3.22184 59.0496 3.06576C58.9782 3.02214 58.9558 2.93003 58.9997 2.85926C59.0418 2.7885 59.1356 2.76522 59.2069 2.80788C59.4708 2.96686 59.7308 3.13457 59.979 3.30519C60.0474 3.35269 60.065 3.44673 60.0171 3.51459C59.9869 3.55628 59.9399 3.57858 59.893 3.57858ZM43.691 3.48453C43.6431 3.48453 43.5962 3.46226 43.5669 3.42057C43.518 3.35271 43.5356 3.25964 43.604 3.21117C43.8425 3.04443 44.1073 2.87963 44.3888 2.72258C44.4611 2.68284 44.554 2.70707 44.594 2.78075C44.6361 2.85345 44.6106 2.94457 44.5364 2.98432C44.2637 3.13749 44.0086 3.29551 43.778 3.4574C43.7516 3.47582 43.7203 3.48453 43.691 3.48453ZM58.3361 2.63921C58.3127 2.63921 58.2872 2.63436 58.2657 2.62078C58.0048 2.48312 57.7341 2.34934 57.4585 2.21846C57.3832 2.18356 57.35 2.09438 57.3871 2.01877C57.4223 1.94412 57.5123 1.91213 57.5875 1.948C57.868 2.07887 58.1446 2.21653 58.4085 2.3571C58.4828 2.39587 58.5101 2.48699 58.47 2.56067C58.4427 2.61108 58.3909 2.63921 58.3361 2.63921ZM45.2723 2.58975C45.2146 2.58975 45.1609 2.55777 45.1345 2.50348C45.0993 2.42883 45.1305 2.33965 45.2068 2.30281C45.5176 2.15836 45.8176 2.02749 46.0424 1.93055C46.1196 1.89759 46.2086 1.93345 46.2418 2.00906C46.274 2.08565 46.2389 2.17485 46.1626 2.20684C45.9388 2.30281 45.6427 2.42981 45.3358 2.57522C45.3163 2.58589 45.2938 2.58975 45.2723 2.58975ZM46.9445 1.87046C46.8839 1.87046 46.8272 1.83458 46.8028 1.77641C46.7715 1.69886 46.8096 1.61161 46.8878 1.57962C47.1927 1.4565 47.4732 1.35182 47.7439 1.25584C47.8221 1.22773 47.9101 1.26941 47.9384 1.34696C47.9648 1.42549 47.9237 1.51079 47.8456 1.53891C47.5787 1.63294 47.3012 1.73765 47.0012 1.85786C46.9826 1.86658 46.963 1.87046 46.9445 1.87046ZM56.6884 1.86851C56.6688 1.86851 56.6493 1.86561 56.6317 1.85786C56.3512 1.7454 56.0658 1.64069 55.7853 1.54568C55.7062 1.52048 55.6631 1.43519 55.6895 1.35667C55.7159 1.27814 55.8029 1.23547 55.8811 1.26164C56.1685 1.35858 56.4587 1.46522 56.7451 1.57962C56.8213 1.61064 56.8594 1.69885 56.8282 1.77544C56.8057 1.8336 56.748 1.86851 56.6884 1.86851ZM54.9614 1.29365C54.9487 1.29365 54.936 1.29171 54.9233 1.2888C54.6311 1.21028 54.3359 1.1424 54.0457 1.0852C53.9626 1.06872 53.9089 0.988273 53.9265 0.907811C53.9431 0.826379 54.0223 0.774021 54.1053 0.789532C54.4024 0.848667 54.7034 0.918484 55.0025 0.997008C55.0826 1.0193 55.1305 1.10171 55.109 1.1812C55.0904 1.24906 55.0279 1.29365 54.9614 1.29365ZM48.6636 1.27037C48.5972 1.27037 48.5365 1.22675 48.517 1.16179C48.4945 1.08133 48.5405 0.997952 48.6206 0.976624C48.9265 0.888407 49.2285 0.81571 49.5178 0.756575C49.5989 0.740094 49.678 0.792445 49.6956 0.873877C49.7122 0.955309 49.6605 1.03482 49.5774 1.0513C49.2969 1.10849 49.0027 1.17924 48.7046 1.26552C48.69 1.26843 48.6753 1.27037 48.6636 1.27037ZM53.1739 0.94272C53.1681 0.94272 53.1622 0.941744 53.1554 0.941744C52.8563 0.903936 52.5553 0.877768 52.2591 0.863227C52.1751 0.85838 52.1116 0.78761 52.1164 0.70424C52.1204 0.622808 52.1917 0.559799 52.2748 0.562707C52.5778 0.578218 52.8876 0.605347 53.1925 0.644124C53.2756 0.654788 53.3352 0.729437 53.3254 0.811838C53.3146 0.887454 53.2502 0.94272 53.1739 0.94272ZM50.4472 0.914585C50.3709 0.914585 50.3055 0.857389 50.2967 0.780804C50.2879 0.697434 50.3475 0.62376 50.4315 0.614066C50.7335 0.581106 51.0434 0.559783 51.3522 0.552027C51.4362 0.54815 51.5056 0.615034 51.5076 0.697435C51.5105 0.780806 51.445 0.849638 51.36 0.852547C51.06 0.860302 50.758 0.879709 50.4648 0.913639C50.4579 0.913639 50.4521 0.914585 50.4472 0.914585Z" fill="#333333"/>
<path d="M33.2171 11.4775C28.1174 4.49182 17.9601 5.39533 13.2631 13.237C6.60069 24.3573 1.94086 26.5589 1.94086 26.5589C1.94086 26.5589 9.93531 34.0884 23.1682 32.7787C23.2024 32.7739 23.2357 32.7709 23.2699 32.7641L24.0557 32.6691C24.5463 32.5993 25.0232 32.5179 25.4864 32.421L26.2566 32.2406C35.287 29.9354 38.2747 21.9289 34.8423 14.3082L33.2171 11.4775Z" fill="#E08F13"/>
<path d="M23.8925 20.6501C22.489 18.7287 19.6939 18.9769 18.4019 21.1348C16.5694 24.1953 15.2861 24.8003 15.2861 24.8003C15.2861 24.8003 17.4861 26.8719 21.1276 26.5122C21.1364 26.5103 21.1462 26.5103 21.155 26.5084L21.3719 26.4832C21.5068 26.4628 21.6368 26.4405 21.7648 26.4144L21.9769 26.3649C24.4622 25.7309 25.2832 23.5274 24.3391 21.4315L23.8925 20.6501Z" fill="#C1740E"/>
<path d="M36.883 11.8759C36.9846 11.617 36.8282 11.2903 36.5604 11.2089C35.543 10.8987 34.5061 11.1498 33.4711 11.0354C33.4682 11.0354 33.4653 11.0354 33.4623 11.0354C33.4018 10.9704 33.3412 10.9064 33.2786 10.8444C33.2219 10.7891 33.1613 10.7503 33.0988 10.7251C32.4156 9.96123 31.5497 9.35535 30.7386 8.73686C29.8551 8.06408 28.9862 7.47564 27.9112 7.14119C26.8088 6.79898 25.6565 6.76604 24.513 6.74277C23.2562 6.71854 22.0013 6.74956 20.7757 7.05202C18.4331 7.6327 16.413 8.99861 14.7809 10.7319C13.9443 11.6199 13.2152 12.5651 12.6073 13.6208C11.9994 14.6785 11.5518 15.8156 10.9019 16.848C10.2256 17.9251 9.42024 18.9178 8.69409 19.9609C8.14093 20.7568 7.5516 21.5294 6.92807 22.2749C6.23417 23.1047 5.48066 23.889 4.64994 24.587C3.92184 25.1996 3.08231 25.7716 2.13333 25.9674C1.91636 26.012 1.79227 26.1516 1.74536 26.3135C1.43262 26.3814 1.18339 26.6809 1.40231 27.0193C1.94667 27.8607 2.9035 28.3251 3.76061 28.7933C4.80243 29.3623 5.77679 30.0322 6.84402 30.5586C9.0772 31.6589 11.4893 32.5343 13.9433 32.9861C15.1757 33.2119 16.4072 33.2439 17.6562 33.2546C18.9726 33.2682 20.289 33.2197 21.6006 33.1121C22.1254 33.0685 22.6522 33.0113 23.178 32.9415C23.4663 33.6356 23.4438 34.4567 23.5777 35.1866C23.6999 35.8517 24.7368 35.651 24.6147 34.987C24.4808 34.2599 24.4632 33.4931 24.2374 32.7835C24.5677 32.7272 24.8971 32.6671 25.2255 32.6002C25.2265 32.606 25.2274 32.6138 25.2294 32.6196C25.3809 33.3438 25.6663 34.0331 25.7659 34.7679C25.8588 35.4378 26.8938 35.2361 26.8039 34.5701C26.7022 33.8343 26.4188 33.146 26.2653 32.4209C26.2614 32.4044 26.2575 32.3889 26.2526 32.3734C27.0443 32.1834 27.8252 31.9585 28.5933 31.6996C30.3339 31.1093 32.011 30.2232 33.3206 28.9232C34.6048 27.6503 35.547 26.0847 36.1089 24.3737C36.3875 23.5216 36.5536 22.6268 36.6103 21.733C36.667 20.8692 36.5399 20.0346 36.4344 19.1815C36.3191 18.2431 36.2819 17.2067 36.062 16.2393C36.1099 16.1219 36.1109 15.9824 36.0356 15.834C35.8148 15.4017 35.6193 14.9557 35.4268 14.5069C35.4727 14.4729 35.5157 14.4284 35.5528 14.3721C36.0806 13.5869 36.539 12.7551 36.883 11.8759ZM35.2362 17.8756C35.3574 18.9003 35.547 19.9551 35.5714 20.9865C35.6252 23.2375 34.7817 25.4643 33.4184 27.2442C32.0032 29.0899 29.9127 30.2009 27.7215 30.8911C25.4297 31.6124 22.9952 31.9895 20.6018 32.1427C18.9052 32.2512 17.1596 32.2832 15.464 32.1359C13.7938 31.9924 12.189 31.5387 10.6126 30.989C8.95896 30.4132 7.34834 29.7181 5.84033 28.8282C5.19628 28.4472 4.57174 28.0468 3.91498 27.6862C3.52699 27.471 3.03252 27.2335 2.66798 26.9136C4.49362 26.4056 5.98593 24.9098 7.20563 23.5497C8.66672 21.921 9.91478 20.1043 11.1775 18.3245C12.5995 16.3207 13.3589 13.9611 14.9695 12.0775C16.5352 10.2434 18.4722 8.79116 20.8217 8.12129C21.9475 7.79944 23.1135 7.76551 24.2755 7.78296C25.3398 7.79944 26.409 7.813 27.4421 8.09413C28.4311 8.36169 29.2344 8.89682 30.0319 9.51531C30.9594 10.2337 31.9621 10.8996 32.6639 11.8536C32.744 11.9621 32.8408 12.0213 32.9385 12.0426C33.5366 12.7958 33.9334 13.6732 34.3117 14.5621C34.2735 14.7046 34.296 14.8656 34.4133 15.0129C34.5237 15.1544 34.6176 15.3067 34.6987 15.4676C34.7329 15.5471 34.769 15.6285 34.8052 15.708C35.0808 16.3905 35.1541 17.1854 35.2362 17.8756Z" fill="#333333"/>
<path d="M29.5785 11.4057C29.3947 10.761 28.3569 10.9549 28.5416 11.6054C28.8045 12.5293 27.8066 13.5016 27.101 12.5593C26.7277 12.0601 26.0288 12.6078 26.2321 13.1167C26.0025 13.2292 25.7747 13.3465 25.5431 13.457C24.9274 13.743 25.3955 14.6823 26.0112 14.3944C26.3142 14.2529 26.6074 14.0958 26.9114 13.9563C26.969 13.9291 27.016 13.8952 27.056 13.8593C27.1371 13.8952 27.2212 13.9243 27.3072 13.9485C27.318 14.0348 27.3502 14.1153 27.401 14.1841C27.3971 14.2083 27.3932 14.2355 27.3893 14.2597C27.3668 14.4187 27.3287 14.5777 27.2974 14.7357C27.2417 15.0158 27.5202 15.2785 27.7822 15.2979C28.0939 15.3222 28.2943 15.0973 28.35 14.8181C28.4076 14.5214 28.4947 14.1627 28.4272 13.869C28.4937 13.8409 28.5601 13.8079 28.6237 13.7701C29.4407 13.298 29.8326 12.3015 29.5785 11.4057Z" fill="#333333"/>
<path d="M23.1516 19.8368C22.0776 18.9032 20.4826 18.9876 19.4613 19.9386C18.6384 20.7054 18.1048 21.7485 17.4832 22.6684C17.0385 23.3286 16.4071 24.3126 15.4796 24.1391C14.9431 24.0382 14.7907 24.6868 15.0887 25.0145C15.1239 25.1056 15.1894 25.187 15.291 25.2442C17.318 26.362 19.5707 27.0396 21.8801 26.4492C22.7157 26.235 23.4771 25.9151 24.0332 25.2452C24.4446 24.7479 24.6303 24.0761 24.6723 23.4459C24.7603 22.0984 24.171 20.7228 23.1516 19.8368ZM23.3041 21.7562C22.5437 22.4949 21.8068 23.2957 20.9184 23.8861C20.4219 24.2147 19.8932 24.4309 19.343 24.5327C19.5697 24.4221 19.7896 24.3078 19.9997 24.1866C21.2497 23.4682 22.5965 22.2642 22.5818 20.7121C22.8926 20.9913 23.1321 21.3588 23.3041 21.7562ZM18.8064 22.5715C19.428 21.605 20.2489 19.9706 21.6416 20.2381C21.5683 20.3137 21.5224 20.4233 21.5283 20.5687C21.5703 21.8619 20.3799 22.7761 19.3508 23.349C18.8748 23.6146 18.3422 23.8589 17.7871 24.0363C18.1859 23.5584 18.521 23.0165 18.8064 22.5715ZM23.2444 24.5462C22.7949 25.2074 21.8596 25.4081 21.1256 25.5457C20.5178 25.6611 19.9108 25.6659 19.3117 25.5903C19.9089 25.5137 20.4924 25.3295 21.0592 25.0222C22.0316 24.4929 22.8281 23.7009 23.612 22.9254C23.6139 22.9428 23.6158 22.9583 23.6178 22.9748C23.6706 23.5167 23.5513 24.0925 23.2444 24.5462Z" fill="#333333"/>
<path d="M40.2762 10.1241C42.3853 1.75603 52.1507 -1.15708 59.4542 4.38415C69.8148 12.2423 74.9662 12.5641 74.9662 12.5641C74.9662 12.5641 70.3748 22.5047 57.6012 26.1807C57.5689 26.1885 57.5358 26.1991 57.5006 26.2049L56.7363 26.4066C56.2565 26.5239 55.7805 26.6237 55.3153 26.7052L54.5334 26.8234C45.287 28.0207 39.5081 21.6952 39.8306 13.3552L40.2762 10.1241Z" fill="#92A6C1"/>
<path d="M52.3745 15.1913C52.956 12.8899 55.6427 12.0882 57.652 13.6121C60.5009 15.7749 61.919 15.8631 61.919 15.8631C61.919 15.8631 60.6554 18.5979 57.1409 19.608C57.1321 19.6109 57.1233 19.6128 57.1145 19.6158L56.9034 19.671C56.7705 19.704 56.6405 19.7311 56.5135 19.7534L56.2975 19.7864C53.7525 20.116 52.1644 18.3749 52.2524 16.0803L52.3745 15.1913Z" fill="#607A96"/>
<path d="M39.1954 13.6732C39.252 13.71 39.3077 13.7362 39.3634 13.7507C39.3517 14.2374 39.339 14.725 39.2969 15.2087C39.2823 15.3735 39.3351 15.5035 39.424 15.5946C39.5833 16.5718 39.9391 17.548 40.1844 18.4602C40.4072 19.29 40.6026 20.1121 40.9789 20.8944C41.3679 21.702 41.8566 22.4707 42.4361 23.159C43.5991 24.5395 45.0622 25.6437 46.7324 26.3523C48.4359 27.0726 50.3251 27.2762 52.1634 27.1802C52.9716 27.1385 53.7808 27.0571 54.5871 26.9407C54.5881 26.9582 54.5901 26.9737 54.593 26.9902C54.723 27.7201 54.7181 28.4647 54.8999 29.184C55.066 29.8354 56.103 29.6406 55.9378 28.9853C55.7551 28.2659 55.7599 27.5214 55.63 26.7924C55.629 26.7866 55.628 26.7788 55.6251 26.773C55.9554 26.7129 56.2848 26.6489 56.6122 26.5782C56.6698 27.3208 56.9405 28.0391 57.0891 28.7642C57.2259 29.4254 58.2619 29.2276 58.126 28.5655C57.9765 27.8394 57.6481 27.0852 57.6549 26.3339C58.169 26.2049 58.6792 26.0634 59.1835 25.9093C60.4403 25.5254 61.6805 25.0823 62.8973 24.5841C64.0515 24.1129 65.1832 23.6292 66.2417 22.9632C68.3488 21.637 70.2585 19.9337 71.918 18.0879C72.7126 17.2048 73.3635 16.2228 74.117 15.3096C74.7376 14.5573 75.45 13.774 75.6406 12.791C75.7158 12.3974 75.3738 12.2113 75.0571 12.2636C74.9516 12.1298 74.7844 12.0465 74.5665 12.0853C73.6107 12.2539 72.6178 12.0339 71.7118 11.7343C70.6797 11.3941 69.6858 10.9462 68.729 10.4314C67.8709 9.96998 67.0353 9.46976 66.2212 8.93561C65.1559 8.23568 64.0368 7.6133 63.0038 6.862C62.0118 6.14269 61.1714 5.2547 60.2087 4.49855C59.249 3.74337 58.2179 3.13552 57.1086 2.61979C54.9419 1.61352 52.5543 1.09294 50.1628 1.42061C48.9119 1.5922 47.7361 2.02651 46.578 2.51317C45.5254 2.95813 44.4699 3.41568 43.5757 4.13984C42.702 4.84655 42.1185 5.71322 41.5516 6.66423C41.0307 7.53671 40.4551 8.41986 40.1062 9.38056C40.0583 9.42806 40.0163 9.48624 39.986 9.55798C39.9498 9.63941 39.9176 9.72181 39.8853 9.80421C39.8824 9.80615 39.8794 9.80615 39.8765 9.80906C38.9598 10.2967 37.9014 10.446 37.0755 11.11C36.8566 11.2864 36.836 11.6461 37.0266 11.8497C37.6726 12.538 38.4115 13.14 39.1954 13.6732ZM40.3896 14.6387C40.3926 14.5505 40.3955 14.4623 40.3994 14.375C40.4131 14.1967 40.4424 14.0212 40.4932 13.8496C40.546 13.6683 40.5069 13.5113 40.418 13.392C40.4365 12.4284 40.4756 11.4687 40.7473 10.5468C40.8304 10.4906 40.8978 10.4014 40.931 10.2695C41.2252 9.12465 41.9055 8.13679 42.4967 7.12859C43.0059 6.25998 43.5493 5.46602 44.3663 4.85141C45.2205 4.20868 46.2066 3.80151 47.1888 3.39242C48.2619 2.94648 49.3565 2.5471 50.5205 2.4298C52.953 2.18356 55.2967 2.81464 57.439 3.93917C59.6399 5.09278 61.231 7.00064 63.3029 8.33457C65.1432 9.52017 66.9854 10.7445 68.9518 11.7169C70.5947 12.5283 72.5395 13.363 74.4267 13.1604C74.2068 13.5918 73.8365 13.995 73.5579 14.3382C73.0849 14.917 72.6558 15.518 72.2014 16.1093C71.1361 17.4937 69.9008 18.7326 68.5824 19.8794C67.3255 20.971 66.0061 21.9841 64.5108 22.7363C62.9931 23.4973 61.3609 24.1129 59.7464 24.6393C57.4673 25.3829 55.067 25.9325 52.6697 26.109C50.3769 26.2786 48.0196 26.0198 46.0121 24.8313C44.078 23.6835 42.4595 21.9278 41.664 19.8193C41.2995 18.8538 41.0786 17.8049 40.8069 16.8093C40.6222 16.1365 40.3916 15.3726 40.3896 14.6387Z" fill="#333333"/>
<path d="M43.6265 8.71459C43.5542 8.04763 44.5901 7.845 44.6625 8.51585C44.7661 9.46976 46.058 10.0049 46.3571 8.86971C46.5311 8.21631 47.526 8.56625 47.354 9.21673C47.1184 10.1067 46.3366 10.6941 45.3974 10.5555C44.465 10.4188 43.7262 9.63943 43.6265 8.71459Z" fill="#333333"/>
<path d="M52.7019 18.0753C52.9775 18.6444 53.4026 19.1999 53.9714 19.5091C54.7386 19.926 55.5674 19.9415 56.4216 19.8319C58.7857 19.5256 60.623 18.0656 62.0832 16.277C62.1565 16.1869 62.1868 16.087 62.1848 15.9891C62.3382 15.5742 61.9532 15.0294 61.4939 15.3222C60.6983 15.8272 59.7415 15.1457 59.0809 14.6979C58.1583 14.0735 57.2718 13.3028 56.2192 12.8957C54.9135 12.3896 53.4017 12.9015 52.7557 14.1637C52.1429 15.361 52.1116 16.8548 52.7019 18.0753ZM53.6157 14.7638C54.1845 16.2092 55.885 16.8296 57.3158 17.0342C57.5562 17.0681 57.8035 17.0952 58.0547 17.1127C57.5054 17.2213 56.9346 17.2164 56.3512 17.0943C55.3035 16.8761 54.3204 16.404 53.3362 16.0008C53.3469 15.5684 53.429 15.138 53.6157 14.7638ZM59.3115 16.0783C58.73 16.119 58.1446 16.09 57.6022 16.0182C56.4333 15.866 54.9849 15.4569 54.5383 14.2413C54.4884 14.1046 54.4044 14.0202 54.3076 13.9776C55.5019 13.2156 56.877 14.4274 57.8162 15.0943C58.2492 15.4017 58.7632 15.7817 59.3115 16.0783ZM53.5033 17.2475C53.4984 17.231 53.4935 17.2154 53.4887 17.1999C54.509 17.6284 55.5449 18.0705 56.6474 18.2023C57.2875 18.2779 57.8973 18.2324 58.4817 18.0831C57.954 18.3749 57.3871 18.594 56.7812 18.7122C56.0472 18.8538 55.1041 19.0147 54.4396 18.5668C53.9841 18.2595 53.6567 17.77 53.5033 17.2475Z" fill="#333333"/>
</svg>
