<svg width="52" height="82" viewBox="0 0 52 82" fill="none" xmlns="http://www.w3.org/2000/svg">
<path d="M51.8602 50.2137C51.3068 46.5018 49.0603 43.3936 45.3614 41.2274C43.5634 40.1733 41.4458 39.6227 39.2104 39.6357C40.8693 38.7448 42.1403 37.2202 42.6926 35.4133C42.9506 34.5714 42.7772 33.6555 42.2279 32.9578C41.9679 32.6304 41.6414 32.3732 41.2755 32.197C42.5122 31.6945 43.5664 30.8486 44.2457 29.7655C44.9209 28.6883 45.1457 27.5361 45.311 26.6923C45.4894 25.7733 45.1659 24.8103 44.4725 24.1847C43.772 23.55 42.7711 23.3238 41.8782 23.5891C41.7189 23.6211 41.1899 23.524 40.8391 23.4589C40.6839 23.4309 40.5206 23.3999 40.3513 23.3718C41.2826 23.0745 42.1544 22.594 42.8921 21.9494C44.5632 20.4928 45.4753 18.3066 45.3302 16.1043C45.2727 15.2254 44.7859 14.4266 44.024 13.9681C43.265 13.5126 42.3277 13.4535 41.5184 13.8099C41.2916 13.909 41.0507 13.9701 40.8048 13.9921C40.6314 14.0071 40.4037 14.0061 40.1598 14.0061C39.7708 14.0051 39.3 14.0041 38.7891 14.0652C39.0168 13.0812 39.0753 12.0441 38.9483 11.013C38.7619 9.51346 38.1874 8.0179 37.2833 6.68652C36.7915 5.96177 36.2432 5.36015 35.6052 4.84762C35.5326 4.78956 35.4329 4.71548 35.318 4.63139C35.2958 4.61437 35.2726 4.59735 35.2515 4.58234C34.8131 3.7705 33.9664 3.20091 32.9717 3.15586C32.245 3.12483 31.5515 3.37609 31.0174 3.8636C30.4822 4.3511 30.1698 5.01679 30.1386 5.73654C30.1134 6.32615 29.8997 7.01686 29.6729 7.74962C29.4451 8.48338 29.1891 9.31525 29.0662 10.2192C28.8636 11.7308 29.0853 13.1002 29.7425 14.4055C30.2837 15.4796 31.0507 16.4416 32.119 17.3816C32.125 17.4407 32.1321 17.4987 32.1381 17.5568C30.5568 17.1053 28.913 17.0943 27.3316 17.1384C26.3691 17.1654 25.4832 17.7029 25.0236 18.5388C24.56 19.3787 24.5822 20.4108 25.0781 21.2286C25.6304 22.1416 26.3116 23.2667 27.2298 24.3038C26.5767 24.4009 25.9448 24.5881 25.3562 24.8654C24.5862 25.2278 24.0258 25.9385 23.8555 26.7673C23.6852 27.5982 23.923 28.4711 24.4905 29.1018C24.7626 29.4061 25.0226 29.7955 25.2917 30.2199C25.0569 30.1509 24.8211 30.0838 24.5872 30.0187C23.66 29.7625 22.6562 30.0167 21.9627 30.6834C21.2723 31.3501 20.9871 32.3401 21.2179 33.2661C21.6261 34.9098 22.1844 37.1601 23.67 38.997C24.2647 39.7318 24.9934 40.3735 25.8037 40.884C25.711 41.0882 25.6203 41.2914 25.5336 41.4936C24.9268 40.7709 24.2224 40.0972 23.3939 39.5126C22.0968 38.5966 20.6202 38.005 19.0056 37.7527C14.1094 36.99 8.76768 39.4815 6.01419 43.811C2.7245 48.9854 2.37979 54.8034 4.98614 61.104C7.90594 68.1633 14.0842 74.628 18.5964 79.3489C18.9824 79.7543 19.3594 80.1477 19.7232 80.5311C20.2312 81.0657 20.9004 81.41 21.6584 81.5292C23.3475 81.7924 25.5235 81.0927 32.7399 76.535C32.9868 76.3788 33.1662 76.2647 33.2579 76.2096C36.7119 74.1345 41.1505 71.2405 44.8484 67.2533C47.3207 64.5836 52.9567 57.5833 51.8602 50.2137Z" fill="#CADBE3"/>
<path d="M48.6006 47.0614C48.0483 43.3495 45.8007 40.2413 42.1019 38.0751C40.3038 37.022 38.1863 36.4704 35.9508 36.4834C37.6098 35.5925 38.8807 34.0679 39.433 32.261C39.691 31.4191 39.5187 30.5032 38.9684 29.8055C38.7094 29.4791 38.3818 29.2209 38.016 29.0447C39.2536 28.5432 40.3079 27.6973 40.9862 26.6132C41.6614 25.536 41.8872 24.3849 42.0504 23.541C42.2298 22.622 41.9063 21.659 41.2119 21.0334C40.5115 20.3987 39.5116 20.1725 38.6187 20.4378C38.4604 20.4688 37.9303 20.3727 37.5785 20.3076C37.4243 20.2786 37.2621 20.2486 37.0917 20.2205C38.024 19.9232 38.8948 19.4417 39.6336 18.7981C41.3046 17.3416 42.2168 15.1553 42.0706 12.953C42.0132 12.0741 41.5263 11.2753 40.7644 10.8168C40.0055 10.3613 39.0681 10.3012 38.2588 10.6576C38.031 10.7567 37.7912 10.8188 37.5453 10.8398C37.3719 10.8548 37.1441 10.8538 36.9002 10.8538C36.5112 10.8528 36.0405 10.8518 35.5296 10.9129C35.7583 9.92786 35.8168 8.89178 35.6888 7.86071C35.5033 6.36116 34.9268 4.86561 34.0238 3.53423C33.5319 2.80948 32.9837 2.20885 32.3457 1.69532C32.2731 1.63726 32.1733 1.56319 32.0594 1.4791C32.0362 1.46208 32.0131 1.44606 31.9929 1.43005C31.5535 0.618205 30.7069 0.0476129 29.7121 0.0025662C28.9864 -0.028466 28.292 0.222795 27.7568 0.710301C27.2227 1.19781 26.9103 1.8635 26.879 2.58324C26.8538 3.17385 26.6401 3.86357 26.4133 4.59633C26.1856 5.33009 25.9296 6.16195 25.8077 7.06589C25.6051 8.57746 25.8258 9.94688 26.4829 11.2522C27.0241 12.3263 27.7901 13.2893 28.8594 14.2283C28.8665 14.2874 28.8726 14.3454 28.8786 14.4035C27.2973 13.952 25.6544 13.941 24.0721 13.9841C23.1085 14.0111 22.2247 14.5487 21.7641 15.3845C21.3004 16.2244 21.3216 17.2565 21.8185 18.0743C22.3708 18.9873 23.0521 20.1124 23.9713 21.1505C23.3172 21.2466 22.6853 21.4348 22.0967 21.7121C21.3257 22.0745 20.7653 22.7852 20.5959 23.6141C20.4266 24.4449 20.6634 25.3178 21.2299 25.9485C21.503 26.2518 21.763 26.6412 22.0322 27.0666C21.7973 26.9976 21.5625 26.9305 21.3287 26.8654C20.4014 26.6092 19.3966 26.8634 18.7042 27.5301C18.0128 28.1968 17.7276 29.1858 17.9584 30.1128C18.3655 31.7565 18.9249 34.0068 20.4105 35.8427C21.0061 36.5775 21.7338 37.2192 22.5441 37.7297C22.4514 37.9339 22.3607 38.1371 22.274 38.3403C21.6683 37.6176 20.9628 36.9439 20.1343 36.3593C18.8372 35.4433 17.3607 34.8517 15.7461 34.5995C10.8509 33.8367 5.50813 36.3282 2.75463 40.6587C-0.534044 45.8321 -0.879701 51.6511 1.72665 57.9517C4.64644 65.011 10.8247 71.4757 15.3359 76.1966C15.7239 76.601 16.0998 76.9954 16.4637 77.3788C16.9716 77.9134 17.6409 78.2587 18.3988 78.3769C20.088 78.6401 22.2639 77.9414 29.4793 73.3827C29.7272 73.2265 29.9067 73.1124 29.9994 73.0573C33.4523 70.9822 37.891 68.0882 41.5899 64.1011C44.0622 61.4313 49.6982 54.431 48.6006 47.0614Z" fill="white"/>
<path d="M23.6539 49.9334C22.3819 46.1284 23.5299 41.9321 25.2675 38.3143C27.005 34.6966 29.3332 31.3401 30.6102 27.5371C32.389 22.2407 31.997 16.4777 31.1665 10.9559" stroke="#243645" stroke-width="0.4496" stroke-miterlimit="10" stroke-linecap="round" stroke-linejoin="round"/>
<path d="M18.9974 75.7201C18.7505 75.7201 18.5611 75.654 18.4371 75.5239L17.3032 74.3347C12.9412 69.769 6.96552 63.5165 4.23822 56.9246C1.98564 51.479 2.25773 46.4918 5.05053 42.0992C6.92618 39.1472 10.5162 37.1641 13.9843 37.1641C15.6836 37.1641 17.2639 37.6456 18.556 38.5586C21.4304 40.5877 22.5683 44.2385 23.553 47.4958C25.5647 44.2475 27.913 41.908 30.5406 40.5386C32.2459 39.6497 34.1316 39.1792 35.9921 39.1792C37.7206 39.1792 39.3554 39.6017 40.719 40.4005C43.7285 42.1633 45.4751 44.5368 45.9085 47.4558C46.86 53.8474 41.3097 60.4092 39.5862 62.2692C36.1202 66.005 31.8871 68.7609 28.5883 70.745C28.4825 70.808 28.2809 70.9352 28.0058 71.1083C24.8733 73.0884 20.5304 75.7201 18.9974 75.7201Z" fill="#F27C88"/>
<path d="M13.9864 37.3894C15.5617 37.3894 17.1047 37.8088 18.4271 38.7428C21.3771 40.8259 22.4414 44.6049 23.4845 48.0484C25.2503 45.0834 27.5775 42.3395 30.6475 40.7388C32.2812 39.886 34.1518 39.4045 35.9942 39.4045C37.6118 39.4045 39.2083 39.7759 40.6062 40.5947C49.7929 45.9753 45.0892 56.0057 39.4209 62.117C36.2572 65.5286 32.4505 68.1633 28.4725 70.5528C27.642 71.0513 20.8842 75.4959 18.9985 75.4959C18.8211 75.4959 18.6861 75.4559 18.6044 75.3698C14.0478 70.5708 7.39795 63.9639 4.44892 56.8395C2.47652 52.0696 2.16106 47.0674 5.24413 42.2194C7.09559 39.3074 10.6171 37.3894 13.9864 37.3894ZM13.9864 36.9399C10.4437 36.9399 6.77706 38.965 4.86009 41.9801C2.02697 46.4368 1.74782 51.494 4.02963 57.0107C6.77406 63.6426 12.7658 69.9121 17.142 74.4909C17.5321 74.8973 17.91 75.2937 18.2749 75.6791C18.4432 75.8563 18.6871 75.9464 18.9985 75.9464C20.5738 75.9464 24.7061 73.4638 28.1308 71.2996C28.404 71.1274 28.6035 71.0012 28.7073 70.9382C32.0201 68.9481 36.2704 66.1812 39.7556 62.4223C41.4972 60.5454 47.1029 53.9155 46.1364 47.4248C45.6919 44.4357 43.908 42.0072 40.837 40.2083C39.4371 39.3884 37.763 38.956 35.9942 38.956C34.0964 38.956 32.1754 39.4355 30.4368 40.3414C27.8889 41.6698 25.6011 43.8931 23.6276 46.9583C22.6621 43.791 21.4859 40.3505 18.6891 38.3764C17.3577 37.4364 15.732 36.9399 13.9864 36.9399Z" fill="#243645"/>
<path d="M44.9562 45.0813C44.423 48.3517 43.2105 51.511 41.5234 54.3629C39.6004 57.6163 37.1099 60.5283 34.1528 62.9008C31.5334 65.002 28.5582 66.4755 25.3158 67.3694C20.9881 68.5637 15.9336 68.9661 11.499 67.6577C13.932 70.5297 16.491 73.1444 18.6035 75.3687C19.5529 76.3688 27.5634 71.0973 28.4715 70.5517C32.4495 68.1613 36.2573 65.5275 39.42 62.116C43.7488 57.4512 47.5061 50.5029 44.9562 45.0813Z" fill="#EBCBD1"/>
<g opacity="0.3">
<path opacity="0.3" d="M4.59201 52.7893C4.81273 49.9894 5.46685 47.2456 6.90105 44.807C8.19616 42.6028 9.99318 40.4946 12.408 39.4705C14.9448 38.3944 17.9211 39.025 19.9781 40.8079C20.6494 41.3915 21.1785 42.0752 21.6341 42.807C20.8741 41.2023 19.8784 39.7678 18.4271 38.7418C14.2777 35.8127 7.96135 37.9439 5.24413 42.2184C2.16106 47.0664 2.47652 52.0686 4.44892 56.8375C4.51947 57.0077 4.60211 57.1759 4.6777 57.345C4.49124 55.8395 4.47207 54.3059 4.59201 52.7893Z" fill="#BBBDBF"/>
</g>
<g opacity="0.3">
<path opacity="0.3" d="M40.4006 40.4856C37.4405 38.8649 33.649 39.1742 30.6475 40.7388C27.9575 42.1413 25.839 44.4207 24.1679 46.9563C28.0845 42.3916 34.4008 39.7488 40.4006 40.4856Z" fill="#BBBDBF"/>
</g>
<path d="M28.5017 7.4223C28.7094 5.86868 29.5217 4.36913 29.5943 2.7004C29.5761 3.09281 30.3774 3.58732 30.6354 3.79353C31.0839 4.15491 31.4417 4.56033 31.7693 5.04283C32.4072 5.9828 32.8497 7.05992 32.9898 8.18909C33.1984 9.87384 32.6935 11.6667 31.5113 12.894C30.4681 12.1192 29.4955 11.2002 28.913 10.044C28.4534 9.12907 28.3879 8.26817 28.5017 7.4223Z" fill="#67C7C6" stroke="#243645" stroke-width="0.4496" stroke-miterlimit="10" stroke-linecap="round" stroke-linejoin="round"/>
<path d="M27.385 20.593C25.966 19.64 25.0306 18.1414 24.1477 16.6829C25.976 16.6329 27.9172 16.6379 29.4824 17.5798C30.1164 17.9612 30.6535 18.4938 31.0557 19.1104C31.3671 19.5889 31.9476 20.576 31.7824 21.1746C31.5919 21.8663 30.3471 21.62 29.823 21.538C28.9532 21.4038 28.1137 21.0825 27.385 20.593Z" fill="#67C7C6" stroke="#243645" stroke-width="0.4496" stroke-miterlimit="10" stroke-linecap="round" stroke-linejoin="round"/>
<path d="M22.5271 34.151C21.4547 32.8246 21.0062 31.1188 20.596 29.4661C22.3588 29.9546 24.2112 30.5282 25.4267 31.8866C25.9185 32.4372 26.2754 33.1029 26.4749 33.8106C26.6291 34.3582 26.8901 35.4723 26.5545 35.9949C26.1665 36.5995 25.0518 35.9999 24.5741 35.7677C23.7849 35.3853 23.0784 34.8327 22.5271 34.151Z" fill="#67C7C6" stroke="#243645" stroke-width="0.4496" stroke-miterlimit="10" stroke-linecap="round" stroke-linejoin="round"/>
<path d="M35.9116 22.7922C37.0787 22.8703 38.2609 23.3578 39.3816 23.0284C39.2355 23.7742 39.0834 24.54 38.6792 25.1857C38.0221 26.2348 36.7582 26.8154 35.5145 26.8564C34.2718 26.8975 33.0533 26.457 31.9819 25.8273C30.9075 25.1957 31.5314 24.6651 32.1603 24.1136C33.1762 23.2216 34.682 22.7101 35.9116 22.7922Z" fill="#67C7C6" stroke="#243645" stroke-width="0.4496" stroke-miterlimit="10" stroke-linecap="round" stroke-linejoin="round"/>
<path d="M25.46 27.3389C24.6779 26.3099 24.1225 25.1146 23.2578 24.1506C24.1921 23.7122 25.2887 23.6771 26.2855 23.9454C27.2822 24.2147 28.1853 24.7703 28.9563 25.452C29.7464 26.1507 30.4832 27.5491 30.3179 28.6213C30.3088 28.6773 30.2967 28.7354 30.2584 28.7784C30.2171 28.8265 30.1527 28.8455 30.0912 28.8635C29.1327 29.1308 28.2417 29.4031 27.3044 28.9526C26.5666 28.5982 25.9508 27.9836 25.46 27.3389Z" fill="#67C7C6" stroke="#243645" stroke-width="0.4496" stroke-miterlimit="10" stroke-linecap="round" stroke-linejoin="round"/>
<path d="M29.9409 40.0131C31.0314 39.3144 31.9678 38.3814 33.1117 37.7728C32.387 37.042 31.3691 36.6336 30.34 36.5445C29.311 36.4564 28.2709 36.6696 27.3104 37.047C26.3257 37.4324 25.1495 38.4935 24.9349 39.5566C24.9228 39.6127 24.9147 39.6717 24.9349 39.7248C24.957 39.7839 25.0115 39.8249 25.0629 39.8619C25.8712 40.4405 26.613 41.0011 27.6491 40.898C28.4664 40.8179 29.2576 40.4505 29.9409 40.0131Z" fill="#67C7C6" stroke="#243645" stroke-width="0.4496" stroke-miterlimit="10" stroke-linecap="round" stroke-linejoin="round"/>
<path d="M33.2478 30.6544C33.9241 30.7925 34.5469 31.1139 35.2111 31.3C35.7362 31.4462 36.2865 31.5063 36.8318 31.4762C36.4337 32.7786 35.4026 33.8737 34.1206 34.3532C32.8386 34.8327 31.3349 34.6866 30.1708 33.9688C29.5207 33.5684 28.9543 33.0749 28.2689 32.7375C29.1881 31.1889 31.5213 30.303 33.2478 30.6544Z" fill="#67C7C6" stroke="#243645" stroke-width="0.4496" stroke-miterlimit="10" stroke-linecap="round" stroke-linejoin="round"/>
<path d="M35.711 13.6127C36.3934 13.5046 37.0898 13.5887 37.7782 13.5296C38.3224 13.4836 38.8576 13.3464 39.3575 13.1272C39.4462 14.4846 38.8697 15.8711 37.8397 16.768C36.8106 17.6659 35.3512 18.0553 34.0067 17.79C33.2568 17.6429 32.5514 17.3796 31.7894 17.3025C32.1019 15.5337 33.9705 13.888 35.711 13.6127Z" fill="#67C7C6" stroke="#243645" stroke-width="0.4496" stroke-miterlimit="10" stroke-linecap="round" stroke-linejoin="round"/>
<path d="M12.4545 45.2915C12.516 45.2225 12.5784 45.1484 12.6419 45.0693C12.7064 44.9902 12.774 44.9182 12.8455 44.8531C12.9161 44.788 12.9927 44.735 13.0703 44.6949C13.1479 44.6549 13.2356 44.6419 13.3313 44.6539C13.5672 44.794 13.806 44.9282 14.0459 45.0593C14.2444 45.1624 14.4481 45.2705 14.6557 45.3836C14.8623 45.4968 15.0548 45.6059 15.2321 45.713C15.4922 45.8691 15.6877 46.0113 15.8188 46.1454C16.0455 46.4167 16.1423 46.5889 16.0979 46.669C16.0939 46.678 16.0879 46.686 16.0838 46.695C15.9901 46.7931 15.852 46.8121 15.6686 46.7481C15.4852 46.684 15.2866 46.5899 15.0719 46.4638C14.9872 46.4137 14.9056 46.3627 14.828 46.3126C14.7514 46.2615 14.6728 46.2125 14.5952 46.1645C14.4319 46.0633 14.2848 45.9823 14.1548 45.9212C14.0237 45.8601 13.9239 45.8501 13.8534 45.8902C13.8403 45.8972 13.806 45.9422 13.7486 46.0273C13.6921 46.1114 13.6226 46.2155 13.5389 46.3406C13.4361 46.4928 13.3232 46.662 13.2003 46.8472C13.0763 47.0324 12.9685 47.2075 12.8757 47.3737C12.8022 47.4978 12.7387 47.6049 12.6873 47.697C12.6359 47.7891 12.6056 47.8552 12.5966 47.8962C12.6006 47.8912 12.6722 47.9273 12.8143 48.0024C12.9564 48.0774 13.1166 48.1715 13.295 48.2816C13.4008 48.3467 13.5087 48.4178 13.6166 48.4939C13.7244 48.5699 13.8171 48.643 13.8917 48.7141C13.9683 48.7852 14.0237 48.8562 14.058 48.9283C14.0923 49.0004 14.0922 49.0685 14.057 49.1305C14.0489 49.1445 14.0398 49.1586 14.0328 49.1726C13.9763 49.2386 13.9088 49.2777 13.8292 49.2887C13.7506 49.2997 13.6639 49.2937 13.5712 49.2697C13.4784 49.2456 13.3817 49.2086 13.2839 49.1576C13.1832 49.1055 13.0874 49.0514 12.9906 48.9924C12.8989 48.9363 12.8072 48.8793 12.7165 48.8222C12.649 48.7802 12.5875 48.7411 12.5331 48.7071C12.4787 48.6721 12.4252 48.645 12.3708 48.626C12.2116 48.5629 12.0987 48.5709 12.0342 48.653C11.7913 49.0174 11.5464 49.3778 11.2995 49.7321C11.0515 50.0865 10.8066 50.4469 10.5627 50.8113C10.479 50.9364 10.3984 51.0575 10.3198 51.1746C10.2422 51.2918 10.1646 51.4149 10.089 51.545C10.0386 51.6221 9.9892 51.6812 9.94385 51.7262C9.89749 51.7703 9.84307 51.8303 9.78059 51.9074C9.73322 51.9785 9.68584 52.0165 9.63645 52.0235C9.58707 52.0305 9.51954 52.0325 9.43185 52.0285C9.35223 52.0145 9.25855 51.9825 9.15171 51.9334C9.04488 51.8834 8.93799 51.8223 8.83116 51.7472C8.71727 51.6672 8.61548 51.5831 8.52881 51.497C8.44213 51.4109 8.39175 51.3298 8.37865 51.2547C8.36051 51.1696 8.37964 51.0615 8.43709 50.9324C8.49252 50.8033 8.57316 50.6571 8.67798 50.4939C8.7828 50.3308 8.90677 50.1516 9.04788 49.9544C9.18898 49.7582 9.33714 49.55 9.49134 49.3297C9.74835 48.9583 10.0225 48.5709 10.3158 48.1685C10.6081 47.7661 10.8882 47.3827 11.1583 47.0203C11.4264 46.657 11.6694 46.3316 11.8871 46.0433C12.1037 45.756 12.263 45.5438 12.3658 45.4077C12.396 45.3696 12.4252 45.3306 12.4545 45.2915Z" fill="white"/>
<path d="M13.3978 53.8895C13.1962 53.8474 13.0652 53.7753 13.0048 53.6742C12.9443 53.5731 12.9261 53.464 12.9473 53.3459C12.9685 53.2278 13.0138 53.1097 13.0823 52.9905C13.1509 52.8714 13.2083 52.7683 13.2537 52.6812C13.2728 52.6462 13.3243 52.5541 13.4089 52.4019C13.4936 52.2508 13.5913 52.0766 13.7002 51.8794C13.8101 51.6822 13.9209 51.482 14.0327 51.2778C14.1446 51.0735 14.2414 50.9054 14.322 50.7702C14.4611 50.525 14.6213 50.2657 14.8018 49.9904C14.9822 49.7161 15.1777 49.4429 15.3873 49.1726C15.598 48.9013 15.8278 48.646 16.0747 48.4028C16.3216 48.1615 16.5837 47.9543 16.8578 47.7821C16.9959 47.696 17.143 47.62 17.3023 47.5529C17.4615 47.4868 17.6248 47.4358 17.7891 47.3987C17.9544 47.3617 18.1167 47.3437 18.2759 47.3447C18.4361 47.3457 18.5823 47.3727 18.7153 47.4278C18.9128 47.5018 19.0621 47.627 19.1649 47.8062C19.2687 47.9863 19.3372 48.1986 19.3725 48.4448C19.4077 48.6911 19.4158 48.9634 19.3936 49.2597C19.3715 49.556 19.3332 49.8543 19.2757 50.1536C19.2193 50.4729 19.1306 50.8273 19.0076 51.2177C18.8847 51.6071 18.7536 52.0065 18.6125 52.4139C18.5178 52.6862 18.415 52.9685 18.3001 53.2608C18.1852 53.5531 18.0723 53.8494 17.9644 54.1517C17.8556 54.453 17.7468 54.7514 17.6399 55.0467C17.5341 55.341 17.4373 55.6233 17.3547 55.8915C17.3345 56.0027 17.3144 56.0697 17.2912 56.0938C17.269 56.1168 17.1935 56.1448 17.0655 56.1768C16.8911 56.2279 16.6976 56.2019 16.4849 56.0998C16.2723 55.9976 16.0999 55.8885 15.9669 55.7734C15.8782 55.6973 15.8348 55.5702 15.8379 55.392C15.8409 55.2138 15.8701 55.0086 15.9255 54.7774C15.9809 54.5461 16.0566 54.3009 16.1533 54.0446C16.2501 53.7874 16.3458 53.5371 16.4456 53.2949C16.5454 53.0526 16.6351 52.8304 16.7188 52.6272C16.8014 52.4239 16.8659 52.2688 16.9092 52.1597C16.5937 52.0466 16.2753 51.9294 15.9558 51.8093C15.6363 51.6892 15.3339 51.5631 15.0487 51.4329C15.0013 51.512 14.9399 51.6291 14.8633 51.7853C14.7867 51.9404 14.701 52.1116 14.6052 52.2988C14.5085 52.485 14.4117 52.6742 14.3129 52.8654C14.2132 53.0566 14.1215 53.2308 14.0368 53.3859C13.9753 53.488 13.927 53.5741 13.8866 53.6462C13.8463 53.7183 13.805 53.7753 13.7637 53.8204C13.7213 53.8654 13.672 53.8945 13.6165 53.9065C13.5611 53.9165 13.4885 53.9115 13.3978 53.8895ZM17.1733 51.555C17.2418 51.4489 17.3365 51.2597 17.4555 50.9875C17.5744 50.7152 17.6883 50.4139 17.7992 50.0845C17.8677 49.8733 17.9332 49.6551 17.9917 49.4328C18.0522 49.2096 18.0955 49.0054 18.1217 48.8182C18.1479 48.631 18.1509 48.4718 18.1308 48.3387C18.1106 48.2056 18.0582 48.1215 17.9735 48.0854C17.8798 48.0524 17.7649 48.0734 17.6258 48.1485C17.4867 48.2236 17.3386 48.3347 17.1793 48.4809C17.0201 48.627 16.8538 48.8012 16.6814 49.0024C16.5081 49.2036 16.3408 49.4138 16.1795 49.634C16.0193 49.8553 15.8661 50.0735 15.722 50.2907C15.5768 50.508 15.4599 50.7072 15.3702 50.8894C15.3863 50.8964 15.475 50.9354 15.6383 51.0055C15.8016 51.0745 15.985 51.1486 16.1896 51.2247C16.3922 51.3008 16.5887 51.3709 16.7802 51.4369C16.9697 51.501 17.1007 51.54 17.1733 51.555Z" fill="white"/>
<path d="M22.9101 52.4059C23.287 52.0055 23.6307 51.5941 23.9421 51.1746C24.2535 50.7552 24.574 50.3278 24.9016 49.8893C24.9348 49.8473 24.96 49.7932 24.9751 49.7261C24.9913 49.6591 25.0145 49.595 25.0427 49.5329C25.0709 49.4699 25.1163 49.4168 25.1778 49.3718C25.2393 49.3267 25.3269 49.3057 25.4438 49.3057C25.6162 49.3057 25.7532 49.3608 25.8591 49.4729C25.9649 49.585 26.0485 49.7281 26.111 49.9043C26.1826 50.1205 26.235 50.4109 26.2673 50.7782C26.2995 51.1436 26.3186 51.553 26.3237 52.0055C26.3277 52.458 26.3257 52.9325 26.3146 53.429C26.3036 53.9265 26.2905 54.409 26.2753 54.8805C26.2622 55.3119 26.2531 55.7143 26.2451 56.0867C26.238 56.4601 26.2391 56.7775 26.2491 57.0397C26.2542 57.0988 26.2572 57.1659 26.2572 57.2409C26.2562 57.316 26.2421 57.3871 26.2159 57.4542C26.1896 57.5212 26.1493 57.5803 26.0959 57.6333C26.0425 57.6864 25.9649 57.7204 25.8641 57.7394C25.8087 57.7485 25.726 57.7515 25.6172 57.7455C25.5083 57.7405 25.3954 57.7254 25.2795 57.7014C25.1636 57.6784 25.0538 57.6474 24.953 57.6113C24.8522 57.5743 24.7776 57.5302 24.7282 57.4792C24.5559 57.31 24.445 57.1218 24.3936 56.9176C24.3422 56.7144 24.3241 56.5062 24.3362 56.2939C24.3503 56.0817 24.3775 55.8695 24.4168 55.6573C24.4561 55.4451 24.4874 55.2449 24.5116 55.0567C24.5539 54.7133 24.5952 54.3629 24.6355 54.0056C24.6768 53.6492 24.7131 53.3038 24.7474 52.9725C24.7807 52.6402 24.8069 52.3298 24.824 52.0385C24.8411 51.7472 24.8492 51.496 24.8472 51.2858C24.7716 51.4079 24.6829 51.542 24.579 51.6852C24.4762 51.8303 24.3745 51.9685 24.2737 52.1026C24.1729 52.2367 24.0812 52.3599 23.9985 52.473C23.9139 52.5861 23.8554 52.6692 23.8231 52.7232C23.7899 52.7843 23.7506 52.8444 23.7053 52.9024C23.6599 52.9615 23.6206 53.0226 23.5853 53.0866C23.5521 53.1507 23.5269 53.2208 23.5148 53.2978C23.5017 53.3759 23.5067 53.463 23.5329 53.5591C23.5601 53.6893 23.549 53.7864 23.4976 53.8514C23.4452 53.9155 23.3706 53.9585 23.2718 53.9786C23.1731 53.9986 23.0643 53.9946 22.9443 53.9665C22.8254 53.9385 22.7125 53.8975 22.6067 53.8434C22.4575 53.7613 22.3164 53.6452 22.1864 53.495C22.0584 53.3449 21.9365 53.1767 21.8236 52.9905C21.6533 52.6982 21.5081 52.3899 21.3892 52.0676C21.2702 51.7452 21.1634 51.474 21.0666 51.2517C21.0384 51.3588 21.0021 51.502 20.9588 51.6792C20.9145 51.8573 20.8661 52.0525 20.8126 52.2638C20.7592 52.476 20.7018 52.7002 20.6393 52.9325C20.5758 53.1657 20.5143 53.3959 20.4528 53.6242C20.4246 53.7313 20.3894 53.8724 20.3511 54.0486C20.3128 54.2248 20.2734 54.413 20.2321 54.6152C20.1918 54.8174 20.1475 55.0236 20.1001 55.2339C20.0537 55.4441 20.0024 55.6373 19.9469 55.8115C19.9207 55.9136 19.8965 56.0006 19.8774 56.0777C19.8562 56.1528 19.824 56.2139 19.7796 56.2599C19.7343 56.306 19.6727 56.33 19.5921 56.332C19.5125 56.334 19.4007 56.309 19.2566 56.2549C19.1618 56.2219 19.1053 56.1238 19.0822 55.9616C19.059 55.7994 19.06 55.6042 19.0801 55.379C19.0922 55.1848 19.1144 54.9806 19.1477 54.7654C19.1809 54.5501 19.2182 54.3469 19.2596 54.1537C19.2989 53.9615 19.3362 53.7904 19.3694 53.6392C19.4017 53.489 19.4249 53.3809 19.4349 53.3159C19.5388 52.7533 19.6587 52.1436 19.7947 51.488C19.9318 50.8323 20.087 50.2136 20.2583 49.63C20.3158 49.4489 20.3732 49.2687 20.4317 49.0875C20.4397 48.9463 20.475 48.8442 20.5385 48.7822C20.602 48.7201 20.6857 48.6851 20.7905 48.676C20.9185 48.66 21.0586 48.6801 21.2118 48.7341C21.364 48.7882 21.4688 48.8562 21.5262 48.9393C21.5776 49.0144 21.6392 49.1405 21.7158 49.3197C21.7924 49.4979 21.873 49.7011 21.9606 49.9273C22.0483 50.1536 22.139 50.3958 22.2338 50.6521C22.3285 50.9084 22.4212 51.1526 22.5089 51.3849C22.5976 51.6171 22.6782 51.8253 22.7498 52.0105C22.8213 52.1957 22.8778 52.3268 22.9101 52.4059Z" fill="white"/>
<path d="M28.6096 53.7143C28.6126 54.0476 28.6167 54.397 28.6247 54.7624C28.6318 55.1287 28.6459 55.4861 28.6661 55.8355C28.6862 56.1848 28.7114 56.5112 28.7406 56.8145C28.7709 57.1178 28.8142 57.3711 28.8726 57.5723C28.8817 57.6043 28.8888 57.6343 28.8938 57.6604C28.8978 57.6854 28.9008 57.7124 28.9019 57.7384C28.9039 57.8686 28.8626 57.9677 28.7759 58.0337C28.6892 58.0998 28.5834 58.1399 28.4554 58.1539C28.4191 58.1609 28.3546 58.1639 28.2649 58.1639C28.0361 58.1629 27.8184 58.1178 27.6118 58.0277C27.4052 57.9386 27.2732 57.8095 27.2157 57.6443C27.1835 57.5582 27.1623 57.3811 27.1543 57.1128C27.1462 56.8445 27.1421 56.5352 27.1431 56.1858C27.1441 55.8355 27.1502 55.4651 27.1613 55.0737C27.1724 54.6813 27.1845 54.3159 27.1976 53.9765C27.2097 53.6692 27.2217 53.4019 27.2349 53.1737C27.248 52.9455 27.2561 52.7853 27.2591 52.6942C27.2873 51.9634 27.3276 51.2157 27.378 50.4529C27.381 50.3578 27.3851 50.2637 27.3881 50.1686C27.3941 50.0375 27.4173 49.9193 27.4586 49.8132C27.5 49.7071 27.5987 49.6571 27.7559 49.6601C27.8789 49.6631 28.025 49.7021 28.1954 49.7752C28.3123 49.8212 28.3959 49.8943 28.4494 49.9964C28.5008 50.0975 28.5461 50.2256 28.5824 50.3828C28.6036 50.4999 28.6167 50.6901 28.6187 50.9504C28.6217 51.1987 28.6186 51.4809 28.6106 51.7983C28.6015 52.1156 28.5985 52.4139 28.6006 52.6952C28.6036 53.0346 28.6066 53.3749 28.6096 53.7143Z" fill="white"/>
<path d="M33.2992 56.0457C33.5391 56.0477 33.7416 56.0817 33.9059 56.1458C34.0702 56.2099 34.1609 56.2869 34.1781 56.377C34.1922 56.4541 34.1448 56.5312 34.0339 56.6063C33.9231 56.6814 33.7396 56.7414 33.4816 56.7815C33.3032 56.8085 33.1077 56.8345 32.893 56.8575C32.6783 56.8806 32.4687 56.9036 32.2641 56.9276C32.005 56.9576 31.7703 56.9927 31.5586 57.0327C31.479 57.0467 31.3792 57.0707 31.2603 57.1038C31.1423 57.1378 31.0154 57.1588 30.8813 57.1689C30.8632 57.1699 30.845 57.1719 30.8269 57.1729C30.6928 57.1829 30.5507 57.1679 30.3995 57.1288C30.2494 57.0888 30.0941 57.0067 29.9379 56.8836C29.8089 56.7845 29.7263 56.6623 29.69 56.5172C29.6527 56.371 29.6316 56.2239 29.6265 56.0737C29.6044 55.5061 29.5811 54.9375 29.56 54.37C29.5499 54.3409 29.5398 54.3119 29.5317 54.2829C29.5287 54.2038 29.5207 54.0937 29.5076 53.9495C29.4945 53.8054 29.4814 53.6382 29.4703 53.446C29.4582 53.2538 29.4471 53.0466 29.435 52.8244C29.4229 52.6021 29.4138 52.3769 29.4048 52.1486C29.3967 51.9394 29.3907 51.7352 29.3866 51.536C29.3836 51.3368 29.3816 51.1426 29.3816 50.9524C29.3856 50.7632 29.3886 50.573 29.3917 50.3828C29.3977 50.1736 29.433 50.0385 29.4965 49.9764C29.56 49.9143 29.6376 49.8783 29.7273 49.8673C29.7414 49.8673 29.7555 49.8663 29.7696 49.8653C29.8523 49.8613 29.943 49.8853 30.0418 49.9374C30.1405 49.9894 30.2342 50.0655 30.327 50.1636C30.4197 50.2617 30.5023 50.3828 30.5759 50.527C30.6485 50.6721 30.6979 50.8353 30.7221 51.0165C30.8339 52.0495 30.9317 52.8924 31.0103 53.5441C31.0889 54.1958 31.1524 54.7093 31.1998 55.0817C31.2472 55.4551 31.2865 55.7203 31.3177 55.8775C31.35 56.0357 31.3772 56.1358 31.3984 56.1798C31.4437 56.1888 31.4991 56.1938 31.5646 56.1938C31.6302 56.1938 31.7027 56.1898 31.7814 56.1818C31.8509 56.1808 31.9214 56.1768 31.9909 56.1688C32.0605 56.1608 32.1351 56.1528 32.2137 56.1438C32.378 56.1238 32.5433 56.1027 32.7086 56.0807C32.8043 56.0747 32.9021 56.0657 33.0039 56.0547C33.1006 56.0437 33.2004 56.0407 33.2992 56.0457Z" fill="white"/>
<path d="M35.4268 52.0515C35.448 51.8433 35.4712 51.6021 35.4954 51.3258C35.5186 51.0495 35.5488 50.7682 35.584 50.4809C35.6193 50.1936 35.6526 49.9093 35.6869 49.628C35.7201 49.3467 35.7594 49.0975 35.8058 48.8793C35.8733 48.661 35.9963 48.5249 36.1787 48.4668C36.3198 48.4228 36.4619 48.4478 36.607 48.5439C36.6766 48.597 36.7421 48.65 36.7985 48.7071C36.855 48.7641 36.9003 48.8352 36.9305 48.9213C36.9426 48.9583 36.9507 48.9954 36.9517 49.0334C36.9527 49.0715 36.9548 49.1145 36.9558 49.1615C36.9477 49.4539 36.9276 49.7762 36.8923 50.1276C36.857 50.4799 36.8237 50.8283 36.7915 51.1726C36.7723 51.3768 36.7582 51.552 36.7491 51.6982C36.7391 51.8443 36.7149 52.0055 36.6756 52.1807C36.6363 52.3348 36.6323 52.516 36.6635 52.7252C36.6937 52.9335 36.7441 53.1577 36.8126 53.3959C36.8721 53.6032 36.9427 53.8154 37.0233 54.0336C37.1039 54.2518 37.1865 54.463 37.2692 54.6673C37.3508 54.8715 37.4284 55.0667 37.502 55.2529C37.5756 55.4401 37.633 55.6012 37.6733 55.7394C37.6794 55.7584 37.6845 55.7774 37.6905 55.7954C37.7359 55.9806 37.7429 56.1498 37.7117 56.305C37.6794 56.4601 37.5514 56.5702 37.3247 56.6323C37.2793 56.6443 37.2107 56.6563 37.116 56.6683C36.8832 56.6964 36.6927 56.6874 36.5475 56.6433C36.4024 56.5993 36.2855 56.5292 36.1968 56.4361C36.1716 56.4091 36.1323 56.319 36.0819 56.1658C36.0305 56.0137 35.9731 55.8295 35.9066 55.6132C35.84 55.397 35.7756 55.1628 35.7111 54.9095C35.6466 54.6563 35.583 54.412 35.5226 54.1788C35.4621 53.9445 35.4087 53.7353 35.3603 53.5521C35.3119 53.3679 35.2797 53.2388 35.2605 53.1627C35.19 53.1126 35.1164 53.0596 35.0418 53.0065C34.9672 52.9535 34.8997 52.8864 34.8402 52.8063C34.7909 52.7302 34.7243 52.6261 34.6417 52.494C34.559 52.3619 34.4683 52.2157 34.3706 52.0555C34.2718 51.8954 34.172 51.7302 34.0692 51.557C33.9664 51.3849 33.8687 51.2177 33.7749 51.0565C33.6802 50.8954 33.5966 50.7472 33.522 50.6121C33.4464 50.4769 33.3869 50.3668 33.3406 50.2827C33.2942 50.1916 33.2488 50.1185 33.2055 50.0635C33.1621 50.0074 33.1359 49.9554 33.1269 49.9033C33.1127 49.8332 33.142 49.7512 33.2105 49.6591C33.2871 49.604 33.3587 49.57 33.4292 49.556C33.5189 49.5379 33.6066 49.548 33.6903 49.583C33.7739 49.62 33.8505 49.6701 33.92 49.7351C33.9886 49.8002 34.0531 49.8733 34.1115 49.9544C34.17 50.0355 34.2224 50.1105 34.2688 50.1806C34.3373 50.2857 34.4089 50.3958 34.4804 50.5099C34.552 50.6241 34.6185 50.7332 34.678 50.8363C34.7374 50.9404 34.7899 51.0325 34.8372 51.1156C34.8846 51.1987 34.9219 51.2567 34.9451 51.2918C34.9965 51.3738 35.0479 51.4589 35.0973 51.547C35.1477 51.6361 35.194 51.7182 35.2384 51.7953C35.2817 51.8724 35.319 51.9334 35.3502 51.9795C35.3845 52.0245 35.4097 52.0495 35.4268 52.0515Z" fill="white"/>
<path d="M17.9856 59.2881C17.9957 59.246 18.0058 59.201 18.0139 59.1539C18.0219 59.1069 18.0351 59.0618 18.0492 59.0188C18.0633 58.9758 18.0824 58.9367 18.1056 58.9037C18.1277 58.8696 18.16 58.8446 18.2003 58.8296L18.5642 58.8496C18.665 58.8526 18.7678 58.8586 18.8736 58.8676C18.9784 58.8757 19.0782 58.8877 19.1699 58.9017C19.305 58.9227 19.4108 58.9517 19.4863 58.9888C19.6244 59.0699 19.6899 59.1319 19.6829 59.174L19.6809 59.188C19.6567 59.247 19.6012 59.2771 19.5156 59.2791C19.4299 59.2811 19.3332 59.2741 19.2263 59.258C19.184 59.251 19.1427 59.244 19.1024 59.236C19.0631 59.229 19.0227 59.221 18.9834 59.215C18.9008 59.202 18.8282 59.195 18.7647 59.195C18.7012 59.194 18.6599 59.21 18.6398 59.241C18.6347 59.247 18.6297 59.2731 18.6226 59.3201C18.6145 59.3672 18.6045 59.4262 18.5944 59.4963C18.5813 59.5814 18.5661 59.6765 18.55 59.7796C18.5329 59.8837 18.5208 59.9798 18.5138 60.0689C18.5057 60.136 18.4996 60.195 18.4946 60.2441C18.4906 60.2931 18.4895 60.3272 18.4926 60.3472C18.4926 60.3442 18.5248 60.3452 18.5893 60.3482C18.6538 60.3512 18.7274 60.3602 18.81 60.3732C18.8594 60.3812 18.9099 60.3912 18.9603 60.4032C19.0107 60.4153 19.057 60.4303 19.0953 60.4473C19.1326 60.4643 19.1639 60.4853 19.186 60.5104C19.2092 60.5354 19.2173 60.5654 19.2122 60.5984L19.2092 60.6215C19.1951 60.6605 19.1759 60.6885 19.1477 60.7076C19.1195 60.7266 19.0862 60.7396 19.0489 60.7466C19.0116 60.7526 18.9713 60.7546 18.928 60.7506C18.8846 60.7466 18.8413 60.7416 18.798 60.7346L18.674 60.7146C18.6438 60.7106 18.6155 60.7055 18.5914 60.7015C18.5672 60.6975 18.543 60.6975 18.5208 60.7005C18.4543 60.7056 18.416 60.7326 18.4049 60.7806C18.3727 60.9848 18.3394 61.1871 18.3031 61.3883C18.2688 61.5885 18.2356 61.7917 18.2023 61.9949C18.1913 62.065 18.1812 62.133 18.1711 62.1991C18.16 62.2642 18.151 62.3322 18.1439 62.4033C18.1368 62.4464 18.1288 62.4814 18.1207 62.5094C18.1106 62.5374 18.1006 62.5745 18.0915 62.6195C18.0844 62.6586 18.0743 62.6856 18.0602 62.6986C18.0451 62.7126 18.024 62.7276 17.9968 62.7447C17.9705 62.7567 17.9362 62.7637 17.8959 62.7667C17.8556 62.7697 17.8153 62.7677 17.772 62.7607C17.7256 62.7537 17.6833 62.7427 17.645 62.7276C17.6067 62.7116 17.5805 62.6906 17.5664 62.6636C17.5482 62.6325 17.5401 62.5845 17.5391 62.5184C17.5391 62.4534 17.5432 62.3743 17.5533 62.2842C17.5634 62.1941 17.5755 62.092 17.5926 61.9789C17.6087 61.8658 17.6248 61.7466 17.6419 61.6215C17.6681 61.4103 17.6994 61.1881 17.7327 60.9558C17.7659 60.7236 17.7982 60.5023 17.8315 60.2921C17.8627 60.0819 17.8919 59.8927 17.9181 59.7245C17.9443 59.5564 17.9645 59.4332 17.9776 59.3541L17.9856 59.2881Z" fill="white"/>
<path d="M20.079 61.127C20.0538 61.2822 20.0286 61.4453 20.0034 61.6165C19.9792 61.7877 19.955 61.9549 19.9359 62.119C19.9167 62.2832 19.9006 62.4364 19.8875 62.5795C19.8734 62.7227 19.8683 62.8428 19.8724 62.9399C19.8724 62.9559 19.8734 62.9699 19.8724 62.9819C19.8724 62.9939 19.8714 63.0059 19.8694 63.019C19.8593 63.08 19.8381 63.1231 19.8038 63.1491C19.7706 63.1751 19.7313 63.1881 19.6879 63.1871C19.6759 63.1881 19.6547 63.1861 19.6234 63.1821C19.5478 63.1701 19.4773 63.1391 19.4148 63.088C19.3513 63.038 19.314 62.9729 19.305 62.8928C19.2989 62.8508 19.303 62.7677 19.3171 62.6416C19.3312 62.5154 19.3483 62.3703 19.3695 62.2071C19.3906 62.044 19.4148 61.8698 19.442 61.6866C19.4692 61.5034 19.4964 61.3322 19.5206 61.174C19.5428 61.0309 19.564 60.9058 19.5831 60.7997C19.6013 60.6935 19.6133 60.6185 19.6204 60.5754C19.6738 60.2341 19.7333 59.8857 19.7998 59.5303L19.821 59.3982C19.8311 59.3371 19.8472 59.2831 19.8734 59.235C19.8966 59.187 19.944 59.169 20.0155 59.18C20.0709 59.188 20.1324 59.216 20.204 59.2611C20.2524 59.2901 20.2836 59.3301 20.2997 59.3812C20.3158 59.4322 20.3249 59.4953 20.328 59.5704C20.329 59.6274 20.3189 59.7165 20.2997 59.8377C20.2816 59.9538 20.2584 60.0849 20.2312 60.2321C20.204 60.3792 20.1788 60.5184 20.1586 60.6495L20.079 61.127Z" fill="white"/>
<path d="M21.109 61.3492C21.1019 61.3542 21.0939 61.3792 21.0859 61.4253C21.0778 61.4713 21.0677 61.5274 21.0597 61.5944C21.0496 61.6615 21.0405 61.7346 21.0324 61.8127C21.0223 61.8908 21.0143 61.9648 21.0073 62.0359C20.9982 62.107 20.9911 62.1701 20.9841 62.2241C20.977 62.2792 20.9719 62.3142 20.9699 62.3292C20.9467 62.4563 20.9246 62.6045 20.9054 62.7737C20.8843 62.9418 20.8631 63.106 20.842 63.2652C20.8329 63.3202 20.8268 63.3803 20.8228 63.4454C20.8187 63.5104 20.8076 63.5715 20.7915 63.6306C20.7734 63.6886 20.7482 63.7387 20.7129 63.7797C20.6786 63.8218 20.6263 63.8438 20.5567 63.8488C20.465 63.8528 20.3975 63.8318 20.3541 63.7867C20.3108 63.7407 20.2826 63.6826 20.2664 63.6135C20.2503 63.5445 20.2443 63.4704 20.2463 63.3933C20.2483 63.3152 20.2533 63.2492 20.2584 63.1931C20.2705 63.067 20.2836 62.9228 20.3038 62.7597C20.3239 62.5975 20.3431 62.4313 20.3642 62.2632C20.3854 62.095 20.4065 61.9278 20.4307 61.7626C20.4549 61.5985 20.4761 61.4493 20.4942 61.3182C20.5124 61.187 20.5275 61.0779 20.5406 60.9928C20.5547 60.9077 20.5618 60.8567 20.5648 60.8417C20.5839 60.7005 20.6031 60.5634 20.6232 60.4292C20.6434 60.2951 20.6605 60.17 20.6786 60.0539C20.6948 59.9377 20.7099 59.8326 20.726 59.7385C20.7411 59.6444 20.7533 59.5643 20.7633 59.5013C20.7684 59.4672 20.7724 59.4422 20.7754 59.4252C20.7784 59.4082 20.7815 59.3942 20.7845 59.3822C20.7885 59.3701 20.7935 59.3591 20.7996 59.3471C20.8066 59.3361 20.8197 59.3191 20.8389 59.2971C20.8076 59.236 20.7935 59.186 20.7966 59.1459C20.7996 59.1059 20.8158 59.0758 20.842 59.0548C20.8682 59.0338 20.9064 59.0218 20.9558 59.0188C21.0052 59.0158 21.0616 59.0168 21.1272 59.0238C21.2541 59.0368 21.3862 59.0668 21.5243 59.1129C21.6614 59.1599 21.7853 59.223 21.8972 59.3021C22.0081 59.3822 22.1008 59.4783 22.1733 59.5914C22.2469 59.7045 22.2832 59.8336 22.2812 59.9808C22.2792 60.152 22.2499 60.3041 22.1904 60.4353C22.132 60.5664 22.0574 60.6775 21.9657 60.7676C21.875 60.8587 21.7752 60.9308 21.6644 60.9858C21.5565 61.0409 21.4487 61.0789 21.3459 61.0999C21.4396 61.4173 21.5384 61.7336 21.6412 62.0479C21.745 62.3622 21.8438 62.6786 21.9425 62.9969C21.9526 63.052 21.9657 63.114 21.9839 63.1841C22.001 63.2542 22.0131 63.3232 22.0212 63.3913C22.0292 63.4594 22.0292 63.5235 22.0221 63.5805C22.0141 63.6386 21.9919 63.6806 21.9526 63.7056C21.9073 63.7357 21.8639 63.7467 21.8256 63.7377C21.7853 63.7287 21.75 63.7076 21.7198 63.6766C21.6896 63.6456 21.6614 63.6085 21.6402 63.5665C21.619 63.5245 21.6019 63.4864 21.5878 63.4524C21.5364 63.3162 21.491 63.1491 21.4497 62.9509C21.4094 62.7527 21.3691 62.5514 21.3308 62.3462C21.2925 62.141 21.2552 61.9508 21.2189 61.7736C21.1826 61.5965 21.1443 61.4603 21.106 61.3672L21.109 61.3492ZM21.1695 60.8197C21.2501 60.8287 21.3247 60.8136 21.3943 60.7726C21.4628 60.7316 21.5263 60.6755 21.5817 60.6054C21.6371 60.5344 21.6825 60.4533 21.7198 60.3622C21.7551 60.2711 21.7813 60.179 21.7924 60.0879C21.8065 59.9968 21.8064 59.9087 21.7943 59.8256C21.7823 59.7425 21.7541 59.6745 21.7087 59.6204C21.6634 59.5694 21.5998 59.5193 21.5182 59.4693C21.4366 59.4192 21.3519 59.3842 21.2642 59.3641C21.2763 59.3882 21.2854 59.4082 21.2945 59.4252C21.3025 59.4422 21.3055 59.4672 21.3035 59.5013C21.3025 59.5043 21.2995 59.5353 21.2935 59.5934C21.2874 59.6524 21.2793 59.7255 21.2713 59.8126C21.2612 59.9007 21.2511 59.9978 21.2421 60.1039C21.231 60.21 21.2209 60.3121 21.2108 60.4082C21.1997 60.5053 21.1907 60.5914 21.1846 60.6665C21.1786 60.7416 21.1705 60.7916 21.1695 60.8197Z" fill="white"/>
<path d="M23.1258 64.1691C23.1127 64.1701 23.0945 64.1691 23.0693 64.1651C23.0169 64.1571 22.9776 64.1391 22.9504 64.1091C22.9242 64.08 22.9141 64.044 22.9212 64.002L22.9222 63.992C22.9302 63.9659 22.9434 63.9459 22.9625 63.9329C22.9817 63.9199 23.0058 63.9109 23.035 63.9049C23.0643 63.8989 23.0985 63.8939 23.1368 63.8899C23.1751 63.8858 23.2134 63.8798 23.2527 63.8708C23.2749 63.8648 23.3011 63.8528 23.3283 63.8358C23.3566 63.8178 23.3838 63.7978 23.409 63.7727C23.4342 63.7487 23.4584 63.7217 23.4755 63.6916C23.4956 63.6626 23.5077 63.6316 23.5158 63.6026C23.5228 63.5785 23.5289 63.5555 23.535 63.5325C23.54 63.5105 23.545 63.4864 23.5491 63.4624C23.5692 63.3373 23.5692 63.2232 23.5491 63.118C23.5289 63.0129 23.5077 62.9168 23.4835 62.8287L23.4704 62.7897C23.4412 62.6816 23.4029 62.5815 23.3566 62.4884C23.3092 62.3953 23.2588 62.3022 23.2054 62.2091C23.1499 62.117 23.0955 62.0209 23.038 61.9228C22.9806 61.8247 22.9242 61.7166 22.8667 61.5985C22.8244 61.5104 22.7891 61.4153 22.7619 61.3122C22.7347 61.2101 22.7135 61.103 22.7014 60.9918C22.6883 60.8807 22.6833 60.7676 22.6833 60.6545C22.6843 60.5404 22.6934 60.4303 22.7095 60.3231C22.7145 60.2891 22.7206 60.2561 22.7256 60.223C22.7307 60.189 22.7397 60.157 22.7498 60.1229C22.779 60.0208 22.8183 59.9277 22.8677 59.8416C22.9171 59.7566 22.9766 59.6845 23.0461 59.6264C23.1157 59.5684 23.1943 59.5273 23.285 59.5013C23.3757 59.4773 23.4755 59.4723 23.5863 59.4893C23.6589 59.5013 23.7396 59.5233 23.8262 59.5544C23.9593 59.6064 24.053 59.6655 24.1084 59.7325C24.1639 59.7996 24.1881 59.8557 24.181 59.9007C24.1709 59.9618 24.1246 59.9858 24.0419 59.9728C23.9865 59.9638 23.926 59.9377 23.8605 59.8927C23.8273 59.8687 23.794 59.8507 23.7607 59.8376C23.7285 59.8246 23.6972 59.8166 23.67 59.8116C23.5601 59.7946 23.4694 59.8326 23.3989 59.9267C23.3283 60.0208 23.2749 60.139 23.2366 60.2831C23.2316 60.2981 23.2275 60.3141 23.2235 60.3322C23.2215 60.3512 23.2175 60.3692 23.2155 60.3872C23.2013 60.4703 23.1963 60.5534 23.1993 60.6375C23.2014 60.7216 23.2074 60.8047 23.2195 60.8867C23.2295 60.9688 23.2437 61.0439 23.2628 61.114C23.283 61.184 23.3031 61.2441 23.3263 61.2952C23.3848 61.4263 23.4472 61.5524 23.5158 61.6735C23.5843 61.7947 23.6529 61.9148 23.7204 62.0329C23.7879 62.151 23.8504 62.2702 23.9079 62.3893C23.9643 62.5094 24.0107 62.6315 24.0479 62.7557C24.0993 62.9289 24.1094 63.1181 24.0762 63.3213C24.055 63.4524 24.0167 63.5765 23.9613 63.6926C23.9099 63.7967 23.8454 63.8878 23.7647 63.9659C23.6851 64.044 23.5894 64.0991 23.4775 64.1321C23.4241 64.1521 23.3667 64.1671 23.3042 64.1801C23.2427 64.1922 23.1792 64.1982 23.1137 64.1972L23.1258 64.1691Z" fill="white"/>
<path d="M25.7442 60.193C25.7432 60.2211 25.7442 60.2371 25.7482 60.2431C25.7523 60.2491 25.7532 60.2661 25.7522 60.2981C25.6928 60.8507 25.6313 61.3913 25.5658 61.9178C25.5305 62.1841 25.5013 62.4604 25.4781 62.7447C25.4549 63.03 25.4207 63.3093 25.3774 63.5845C25.3562 63.7247 25.33 63.8598 25.2997 63.989C25.2846 64.046 25.2564 64.0861 25.2151 64.1091C25.1738 64.1321 25.1264 64.1401 25.074 64.1311C25.0105 64.1211 24.95 64.0881 24.8966 64.031C24.8421 63.9739 24.82 63.8979 24.8291 63.8028C24.8432 63.6556 24.8553 63.5075 24.8654 63.3593C24.8775 63.2111 24.8885 63.058 24.9027 62.9008C24.9168 62.7437 24.9319 62.5785 24.948 62.4043C24.9651 62.2301 24.9843 62.0439 25.0064 61.8437C25.0236 61.6976 25.0417 61.5524 25.0609 61.4123C25.081 61.2711 25.1001 61.134 25.1223 60.9999C25.1475 60.8347 25.1747 60.6805 25.203 60.5344C25.2302 60.3882 25.2624 60.2531 25.2977 60.127C25.2856 60.126 25.2745 60.1229 25.2634 60.1199C25.2524 60.1169 25.2403 60.1139 25.2252 60.1109C25.198 60.1069 25.1697 60.1029 25.1415 60.1009C25.1143 60.0979 25.0871 60.0949 25.0639 60.0909C25.0014 60.0819 24.952 60.0679 24.9147 60.0489C24.8442 60.0188 24.7907 59.9838 24.7575 59.9418C24.7232 59.9007 24.7081 59.8637 24.7142 59.8296C24.7222 59.7776 24.7686 59.7506 24.8542 59.7486C24.9893 59.7506 25.1183 59.7576 25.2402 59.7686C25.3622 59.7806 25.4923 59.7896 25.6293 59.7986C25.6696 59.8016 25.723 59.8066 25.7875 59.8116C25.8521 59.8176 25.9206 59.8256 25.9911 59.8367C26.0677 59.8487 26.1403 59.8637 26.2108 59.8827C26.2794 59.9017 26.3288 59.9247 26.359 59.9548C26.4114 59.9998 26.4336 60.0489 26.4245 60.1009C26.4145 60.165 26.364 60.207 26.2733 60.2271C26.224 60.2391 26.1746 60.2431 26.1262 60.2401C26.0758 60.2371 26.0244 60.2311 25.973 60.2231L25.8581 60.205C25.839 60.202 25.8208 60.199 25.8007 60.196C25.7775 60.194 25.7593 60.192 25.7442 60.193Z" fill="white"/>
</svg>
