<svg width="34" height="32" viewBox="0 0 34 32" fill="none" xmlns="http://www.w3.org/2000/svg">
<path d="M9.4951 30.8936C8.88954 30.1139 5.75527 25.9689 3.55001 20.9375C2.22448 17.9127 1.48081 15.1206 1.34273 12.6397C1.15732 9.30082 2.041 6.49803 3.97012 4.30764C5.52544 2.54183 7.40725 1.33364 9.41625 0.815149C11.3148 0.325027 13.2853 0.445381 15.1158 1.16442C17.5459 2.11923 19.4543 4.00241 20.5146 6.36889C22.921 5.36516 25.6135 5.29084 28.0426 6.24565C29.8721 6.96566 31.392 8.21786 32.4364 9.86628C33.54 11.6086 34.0785 13.7677 33.9908 16.1107C33.8823 19.0181 32.5903 21.6595 30.1483 23.9644C28.3326 25.6783 25.863 27.2074 22.8095 28.5095C17.7284 30.6754 12.5831 31.5647 11.6028 31.7212L10.2999 31.9286L9.4951 30.8936Z" fill="#7C7A7A"/>
<path d="M8.17651 30.3751C7.56996 29.5944 4.43661 25.4504 2.23135 20.4181C0.905823 17.3942 0.16221 14.6022 0.0241346 12.1193C-0.161281 8.78235 0.722367 5.97855 2.6505 3.78817C4.20681 2.02236 6.08861 0.814175 8.09663 0.296661C9.99615 -0.194439 11.9667 -0.0740918 13.7962 0.644949C16.2253 1.60074 18.1357 3.48297 19.1959 5.84944C21.6024 4.84572 24.2949 4.77135 26.724 5.72811C28.5535 6.44618 30.0733 7.69937 31.1168 9.3468C32.2214 11.0891 32.7589 13.2482 32.6711 15.5922C32.5646 18.4987 31.2716 21.141 28.8296 23.4449C27.014 25.1589 24.5444 26.6879 21.4909 27.99C16.4098 30.156 11.2635 31.0452 10.2842 31.2017L8.98127 31.4091L8.17651 30.3751Z" fill="white"/>
<path d="M9.29689 30.6236L8.86197 30.065C8.84323 30.0405 8.83237 30.0112 8.83139 29.9818C8.80279 29.9721 8.77713 29.9564 8.75741 29.931C8.643 29.7832 8.45364 29.5367 8.20511 29.1972C8.15481 29.1288 8.17157 29.0339 8.23864 28.9849C8.30767 28.9351 8.40338 28.9507 8.45269 29.0182C8.70024 29.3547 8.88565 29.5993 9.00006 29.7441C9.02077 29.7686 9.02961 29.7989 9.03257 29.8282C9.05919 29.837 9.08582 29.8537 9.10456 29.8791L9.42805 30.2959L9.63122 30.2636C9.71406 30.2489 9.79395 30.3066 9.80579 30.3898C9.82058 30.471 9.7624 30.5492 9.67955 30.5629L9.29689 30.6236ZM10.5603 30.4162C10.4873 30.4162 10.4222 30.3643 10.4104 30.291C10.3956 30.2088 10.4508 30.1295 10.5337 30.1149C10.8187 30.065 11.1225 30.0102 11.4331 29.9476C11.516 29.931 11.5968 29.9848 11.6136 30.066C11.6314 30.1491 11.5761 30.2284 11.4933 30.246C11.1796 30.3076 10.8749 30.3643 10.5869 30.4142C10.578 30.4152 10.5701 30.4162 10.5603 30.4162ZM12.3622 30.064C12.2932 30.064 12.228 30.0151 12.2142 29.9437C12.1945 29.8625 12.2477 29.7822 12.3306 29.7637C12.6245 29.7001 12.9263 29.6316 13.2232 29.5621C13.305 29.5426 13.3869 29.5944 13.4076 29.6756C13.4274 29.7578 13.3751 29.838 13.2942 29.8586C12.9944 29.928 12.6926 29.9965 12.3957 30.0601C12.3829 30.062 12.373 30.064 12.3622 30.064ZM14.1483 29.6463C14.0802 29.6463 14.0181 29.6003 14.0004 29.5318C13.9797 29.4516 14.03 29.3684 14.1108 29.3479C14.4067 29.2735 14.7036 29.1963 14.9955 29.117C15.0783 29.0965 15.1612 29.1424 15.1838 29.2236C15.2045 29.3048 15.1582 29.388 15.0763 29.4085C14.7804 29.4878 14.4817 29.5661 14.1858 29.6404C14.1739 29.6443 14.1611 29.6463 14.1483 29.6463ZM15.9206 29.1689C15.8535 29.1689 15.7924 29.1268 15.7736 29.0603C15.751 28.9801 15.7963 28.8959 15.8772 28.8725C16.174 28.7883 16.468 28.7003 16.754 28.6132C16.8339 28.5887 16.9206 28.6337 16.9453 28.713C16.97 28.7932 16.9246 28.8773 16.8447 28.9018C16.5557 28.9908 16.2589 29.0788 15.963 29.164C15.9492 29.1679 15.9354 29.1689 15.9206 29.1689ZM17.6732 28.6318C17.6091 28.6318 17.5489 28.5907 17.5282 28.5271C17.5025 28.4479 17.5449 28.3628 17.6268 28.3373C17.9177 28.2405 18.2097 28.1426 18.4908 28.0438C18.5726 28.0164 18.6584 28.0575 18.687 28.1368C18.7136 28.216 18.6723 28.3031 18.5933 28.3295C18.3083 28.4293 18.0154 28.5291 17.7215 28.6249C17.7047 28.6288 17.689 28.6318 17.6732 28.6318ZM7.79583 28.5173C7.74849 28.5173 7.70015 28.4958 7.67057 28.4547C7.49698 28.2082 7.32142 27.9538 7.14981 27.7005C7.10247 27.631 7.12222 27.5371 7.19225 27.4892C7.26227 27.4432 7.35694 27.4627 7.40329 27.5312C7.57589 27.7836 7.75048 28.035 7.9211 28.2796C7.96943 28.3481 7.95264 28.443 7.8836 28.4909C7.85598 28.5095 7.82542 28.5173 7.79583 28.5173ZM19.404 28.0272C19.3429 28.0272 19.2847 27.9891 19.261 27.9284C19.2305 27.8501 19.2709 27.7631 19.3498 27.7337C19.6378 27.6271 19.9248 27.5165 20.2029 27.405C20.2808 27.3747 20.3696 27.4128 20.4001 27.4892C20.4317 27.5674 20.3942 27.6564 20.3153 27.6868C20.0352 27.7983 19.7463 27.9098 19.4573 28.0174C19.4405 28.0233 19.4228 28.0272 19.404 28.0272ZM21.1073 27.3502C21.0481 27.3502 20.9919 27.316 20.9672 27.2583C20.9337 27.182 20.9702 27.092 21.0462 27.0587L21.0817 27.044C21.3509 26.9296 21.6221 26.8092 21.8825 26.6909C21.9584 26.6566 22.0502 26.6899 22.0857 26.7662C22.1202 26.8415 22.0866 26.9315 22.0107 26.9668C21.7464 27.0871 21.4751 27.2064 21.202 27.3218L21.1684 27.3365C21.1497 27.3463 21.127 27.3502 21.1073 27.3502ZM6.77009 27.0088C6.72078 27.0088 6.67146 26.9843 6.64187 26.9393C6.47618 26.684 6.30854 26.4248 6.14778 26.1694C6.1034 26.099 6.12509 26.0051 6.19708 25.9601C6.26809 25.9161 6.3618 25.9386 6.40717 26.009C6.56694 26.2634 6.73364 26.5206 6.89933 26.774C6.9447 26.8435 6.92495 26.9374 6.85394 26.9843C6.8283 27 6.79869 27.0088 6.77009 27.0088ZM22.7741 26.5891C22.7179 26.5891 22.6636 26.5588 22.637 26.505C22.5985 26.4287 22.6291 26.3387 22.706 26.3005C22.9812 26.1655 23.2554 26.0276 23.5177 25.8887C23.5917 25.8486 23.6844 25.8769 23.7238 25.9513C23.7633 26.0246 23.7347 26.1166 23.6617 26.1557C23.3954 26.2956 23.1193 26.4365 22.8412 26.5735C22.8195 26.5842 22.7978 26.5891 22.7741 26.5891ZM24.3925 25.7331C24.3403 25.7331 24.288 25.7067 24.2603 25.6578C24.2179 25.5844 24.2426 25.4925 24.3166 25.4504C24.5838 25.2978 24.8472 25.1413 25.0977 24.9847C25.1687 24.9407 25.2634 24.9622 25.3097 25.0336C25.3531 25.1041 25.3315 25.197 25.2604 25.242C25.006 25.4005 24.7397 25.558 24.4695 25.7126C24.4448 25.7263 24.4192 25.7331 24.3925 25.7331ZM5.79768 25.4651C5.74442 25.4651 5.69508 25.4396 5.66549 25.3917C5.5067 25.1295 5.34991 24.8664 5.19704 24.6052C5.15562 24.5328 5.18028 24.4398 5.25327 24.3978C5.32625 24.3557 5.41992 24.3802 5.46233 24.4535C5.61322 24.7118 5.77002 24.9749 5.92782 25.2352C5.97221 25.3066 5.94856 25.4005 5.87557 25.4426C5.85092 25.4582 5.82431 25.4651 5.79768 25.4651ZM25.9469 24.7675C25.8975 24.7675 25.8492 24.7451 25.8196 24.702C25.7732 24.6326 25.79 24.5386 25.8601 24.4917C26.1135 24.3185 26.363 24.1424 26.5997 23.9653C26.6678 23.9145 26.7635 23.9291 26.8148 23.9947C26.8651 24.0622 26.8503 24.1571 26.7842 24.207C26.5426 24.388 26.291 24.566 26.0326 24.7411C26.006 24.7587 25.9764 24.7675 25.9469 24.7675ZM4.87848 23.8881C4.82523 23.8881 4.77395 23.8607 4.74437 23.8098C4.59544 23.5437 4.44747 23.2727 4.30644 23.0076C4.26699 22.9332 4.29562 22.8423 4.36959 22.8032C4.44454 22.764 4.53622 22.7924 4.57666 22.8648C4.71671 23.1289 4.8637 23.397 5.01164 23.6621C5.05306 23.7355 5.0264 23.8284 4.95144 23.8685C4.92876 23.8822 4.90413 23.8881 4.87848 23.8881ZM27.4114 23.6738C27.3671 23.6738 27.3227 23.6542 27.2931 23.619C27.2398 23.5545 27.2497 23.4596 27.3138 23.4048C27.5495 23.2101 27.7803 23.0105 27.9963 22.81C28.0574 22.7532 28.1541 22.7562 28.2123 22.8178C28.2695 22.8794 28.2665 22.9753 28.2054 23.0321C27.9825 23.2356 27.7498 23.441 27.5101 23.6386C27.4815 23.6621 27.445 23.6738 27.4114 23.6738ZM28.7518 22.4324C28.7143 22.4324 28.6758 22.4187 28.6472 22.3903C28.5851 22.3336 28.5831 22.2377 28.6413 22.1761C28.8533 21.955 29.0545 21.729 29.2429 21.504C29.2971 21.4384 29.3918 21.4306 29.4579 21.4834C29.523 21.5363 29.5319 21.6312 29.4786 21.6967C29.2853 21.9276 29.0792 22.1585 28.8632 22.3844C28.8336 22.4167 28.7932 22.4324 28.7518 22.4324ZM4.02045 22.2798C3.96324 22.2798 3.90995 22.2485 3.88332 22.1966C3.74229 21.9217 3.60623 21.6458 3.47802 21.3768C3.44153 21.3005 3.47305 21.2095 3.54899 21.1743C3.62493 21.1381 3.71668 21.1694 3.75318 21.2448C3.88139 21.5118 4.01745 21.7877 4.15553 22.0596C4.19399 22.134 4.16246 22.226 4.08751 22.2641C4.06679 22.2749 4.04313 22.2798 4.02045 22.2798ZM29.9175 21.0315C29.8879 21.0315 29.8554 21.0217 29.8298 21.0041C29.7607 20.9552 29.744 20.8613 29.7933 20.7918C29.9698 20.5453 30.1345 20.2919 30.2854 20.0395C30.3278 19.9671 30.4225 19.9426 30.4955 19.9857C30.5665 20.0287 30.5921 20.1226 30.5497 20.1931C30.3939 20.4533 30.2233 20.7125 30.0428 20.9669C30.0132 21.008 29.9649 21.0315 29.9175 21.0315ZM3.23043 20.6363C3.17224 20.6363 3.11702 20.603 3.09138 20.5472C3.02826 20.4083 2.96612 20.2684 2.90399 20.1275C2.84284 19.9866 2.78368 19.8478 2.72352 19.7088C2.69097 19.6306 2.72846 19.5415 2.80539 19.5102C2.8833 19.478 2.97305 19.5132 3.0056 19.5905C3.06379 19.7294 3.12297 19.8673 3.1851 20.0062C3.24625 20.1471 3.30739 20.285 3.37051 20.423C3.40503 20.4983 3.37051 20.5883 3.29358 20.6225C3.27287 20.6323 3.25114 20.6363 3.23043 20.6363ZM30.8495 19.4662C30.8288 19.4662 30.8051 19.4613 30.7844 19.4515C30.7095 19.4144 30.6759 19.3244 30.7124 19.249C30.8426 18.979 30.961 18.7012 31.0635 18.4243C31.0931 18.3461 31.1819 18.306 31.2598 18.3353C31.3387 18.3627 31.3791 18.4508 31.3515 18.529C31.245 18.8147 31.1227 19.1003 30.9886 19.3791C30.961 19.4339 30.9058 19.4662 30.8495 19.4662ZM2.52036 18.9585C2.45921 18.9585 2.40196 18.9213 2.37829 18.8607C2.26586 18.574 2.1564 18.2864 2.05679 18.0047C2.02819 17.9254 2.07063 17.8384 2.15051 17.8119C2.22941 17.7836 2.31715 17.8246 2.34477 17.9029C2.44536 18.1827 2.55089 18.4684 2.66332 18.7521C2.69291 18.8303 2.65347 18.9184 2.57556 18.9477C2.55879 18.9555 2.54008 18.9585 2.52036 18.9585ZM31.4817 17.763C31.4699 17.763 31.4561 17.7601 31.4433 17.7581C31.3614 17.7366 31.3121 17.6534 31.3338 17.5722C31.4107 17.2856 31.4728 16.9902 31.5202 16.6977C31.535 16.6145 31.6129 16.5568 31.6957 16.5705C31.7795 16.5852 31.8358 16.6625 31.8219 16.7446C31.7736 17.0489 31.7095 17.3521 31.6306 17.6485C31.6119 17.717 31.5508 17.763 31.4817 17.763ZM1.90786 17.2445C1.84375 17.2445 1.78362 17.2024 1.76291 17.1379C1.66823 16.8454 1.57945 16.5499 1.4966 16.2623C1.4749 16.1811 1.52129 16.097 1.60315 16.0755C1.68402 16.053 1.76783 16.099 1.7915 16.1792C1.87139 16.4648 1.96017 16.7564 2.05287 17.0469C2.0795 17.1261 2.03511 17.2113 1.95325 17.2357C1.93846 17.2426 1.92364 17.2445 1.90786 17.2445ZM31.7737 15.9688C31.7697 15.9688 31.7658 15.9688 31.7638 15.9688C31.679 15.963 31.6159 15.8906 31.6198 15.8084C31.6247 15.7233 31.6297 15.6392 31.6336 15.555C31.6395 15.3965 31.6415 15.238 31.6415 15.0854C31.6415 15.0267 31.6415 14.9681 31.6405 14.9103C31.6395 14.8262 31.7056 14.7577 31.7904 14.7557C31.8772 14.7557 31.9442 14.8223 31.9452 14.9054C31.9472 14.9661 31.9472 15.0248 31.9472 15.0854C31.9472 15.242 31.9442 15.4044 31.9373 15.5668C31.9344 15.6538 31.9295 15.7409 31.9245 15.827C31.9206 15.9072 31.8536 15.9688 31.7737 15.9688ZM1.41178 15.4924C1.34275 15.4924 1.28063 15.4454 1.26485 15.376C1.19186 15.0757 1.12577 14.7744 1.06758 14.4809C1.0518 14.3987 1.10606 14.3194 1.18791 14.3028C1.27175 14.2852 1.35164 14.34 1.36742 14.4221C1.42561 14.7127 1.49072 15.0091 1.56173 15.3046C1.58244 15.3858 1.53115 15.468 1.44929 15.4875C1.43548 15.4914 1.42461 15.4924 1.41178 15.4924ZM31.746 14.1502C31.6671 14.1502 31.602 14.0905 31.5951 14.0123C31.5665 13.711 31.5261 13.4126 31.4738 13.124C31.4581 13.0408 31.5153 12.9625 31.5971 12.9469C31.6809 12.9322 31.7598 12.987 31.7756 13.0702C31.8298 13.3676 31.8703 13.6747 31.8989 13.9849C31.9068 14.068 31.8446 14.1414 31.7598 14.1502C31.7549 14.1502 31.75 14.1502 31.746 14.1502ZM1.06168 13.707C0.987714 13.707 0.921597 13.6523 0.911734 13.5769C0.866366 13.2707 0.828912 12.9645 0.800311 12.6652C0.793407 12.582 0.856519 12.5077 0.939364 12.5008C1.02418 12.492 1.09717 12.5536 1.10605 12.6378C1.13268 12.9313 1.17014 13.2316 1.21452 13.5329C1.22636 13.616 1.16819 13.6924 1.08534 13.7051C1.07745 13.7061 1.06859 13.707 1.06168 13.707ZM31.4225 12.3609C31.3565 12.3609 31.2933 12.3169 31.2746 12.2504C31.1957 11.9608 31.1001 11.6751 30.9955 11.4012C30.9649 11.323 31.0044 11.2349 31.0833 11.2055C31.1622 11.1752 31.2499 11.2144 31.2795 11.2926C31.389 11.5763 31.4876 11.8718 31.5715 12.1702C31.5922 12.2514 31.5458 12.3345 31.464 12.356C31.4482 12.3599 31.4354 12.3609 31.4225 12.3609ZM0.894999 11.8962C0.81314 11.8962 0.746083 11.8326 0.743124 11.7495C0.737207 11.5871 0.734215 11.4237 0.734215 11.2633C0.734215 11.1185 0.737193 10.9727 0.741138 10.8309C0.744097 10.7477 0.817053 10.6822 0.898912 10.6841C0.982744 10.6871 1.04885 10.7575 1.04687 10.8407C1.04194 10.9806 1.03899 11.1224 1.03899 11.2642C1.03899 11.4217 1.04192 11.5812 1.04784 11.7407C1.05178 11.8238 0.984767 11.8952 0.901922 11.8972C0.897977 11.8962 0.896972 11.8962 0.894999 11.8962ZM30.7657 10.6675C30.7105 10.6675 30.6562 10.6372 30.6296 10.5834C30.5102 10.3505 30.3781 10.1187 30.2381 9.89662C30.2183 9.86825 30.1996 9.83792 30.1799 9.80857C30.1345 9.73912 30.1552 9.64518 30.2262 9.5992C30.2972 9.5542 30.3919 9.57474 30.4383 9.64518C30.458 9.67453 30.4767 9.70584 30.4964 9.73519C30.6414 9.96509 30.7795 10.2038 30.9018 10.4484C30.9403 10.5227 30.9107 10.6137 30.8357 10.6519C30.812 10.6616 30.7894 10.6675 30.7657 10.6675ZM0.954172 10.0786C0.949241 10.0786 0.943332 10.0786 0.938401 10.0776C0.855556 10.0688 0.793421 9.99443 0.802297 9.91127C0.832871 9.60214 0.878235 9.29497 0.933465 8.99855C0.948259 8.91735 1.02812 8.86157 1.11195 8.87722C1.19479 8.89287 1.25002 8.97213 1.23523 9.05333C1.18 9.34291 1.13662 9.64127 1.10605 9.94161C1.09914 10.0208 1.03209 10.0786 0.954172 10.0786ZM29.7706 9.14236C29.7262 9.14236 29.6818 9.12279 29.6522 9.08659C29.4629 8.85572 29.2597 8.63363 29.0456 8.42623C28.9855 8.36851 28.9845 8.27167 29.0447 8.21199C29.1039 8.15231 29.1995 8.15135 29.2617 8.20906C29.4826 8.42527 29.6936 8.65518 29.8899 8.89388C29.9441 8.95844 29.9333 9.05528 29.8692 9.10713C29.8386 9.13257 29.8051 9.14236 29.7706 9.14236ZM1.28754 8.29221C1.27472 8.29221 1.26188 8.28929 1.24709 8.28636C1.16621 8.26484 1.11792 8.1807 1.1406 8.10048C1.22345 7.8021 1.32008 7.50665 1.42659 7.22197C1.45618 7.14371 1.54393 7.10457 1.62283 7.13294C1.70272 7.16229 1.74221 7.25035 1.71361 7.32861C1.60906 7.60449 1.51536 7.89112 1.43646 8.17972C1.41674 8.24722 1.3546 8.29221 1.28754 8.29221ZM28.4647 7.87057C28.4322 7.87057 28.3987 7.8608 28.3701 7.8383C28.1363 7.65536 27.8878 7.48416 27.6314 7.32861C27.5604 7.28361 27.5367 7.19068 27.5811 7.11828C27.6264 7.04785 27.7201 7.02631 27.7912 7.07034C28.0574 7.23175 28.3149 7.40979 28.5585 7.59958C28.6246 7.65045 28.6364 7.74633 28.5841 7.81187C28.5535 7.85198 28.5101 7.87057 28.4647 7.87057ZM18.9365 7.08989C18.8803 7.08989 18.8271 7.05958 18.7985 7.00773C18.762 6.9324 18.7916 6.84141 18.8665 6.80325C19.1437 6.66434 19.4287 6.53816 19.7177 6.42663C19.7956 6.39631 19.8853 6.43542 19.9149 6.51271C19.9455 6.59097 19.906 6.67903 19.8271 6.70936C19.549 6.81697 19.2719 6.93924 19.0036 7.07326C18.9819 7.085 18.9582 7.08989 18.9365 7.08989ZM26.9075 6.91673C26.8848 6.91673 26.8631 6.91186 26.8414 6.90207C26.6786 6.82577 26.51 6.75337 26.3414 6.68685C26.2319 6.64283 26.1185 6.60075 26.008 6.56358C25.9291 6.53619 25.8857 6.45011 25.9143 6.37086C25.9419 6.29162 26.0287 6.24955 26.1076 6.27694C26.223 6.31705 26.3394 6.36011 26.4528 6.40511C26.6293 6.47359 26.8029 6.54794 26.9725 6.62914C27.0485 6.66436 27.0811 6.75435 27.0436 6.83066C27.0179 6.88544 26.9627 6.91673 26.9075 6.91673ZM1.93055 6.59099C1.90886 6.59099 1.88421 6.58607 1.8635 6.57531C1.78854 6.53911 1.75599 6.44716 1.79445 6.37281C1.92957 6.09595 2.08145 5.823 2.24123 5.56278C2.2866 5.49234 2.38028 5.46887 2.45228 5.51289C2.52427 5.55692 2.54698 5.65084 2.5026 5.72128C2.34677 5.97368 2.20078 6.23782 2.06961 6.50587C2.04298 6.55967 1.98776 6.59099 1.93055 6.59099ZM18.4809 6.58119C18.4207 6.58119 18.3645 6.54597 18.3399 6.48727C18.2255 6.21335 18.0962 5.94042 17.9552 5.67922C17.9158 5.60389 17.9444 5.51291 18.0193 5.47378C18.0933 5.43367 18.186 5.46204 18.2245 5.53639C18.3694 5.80542 18.5036 6.08717 18.6219 6.37185C18.6535 6.44913 18.617 6.53815 18.5391 6.56946C18.5223 6.57826 18.5016 6.58119 18.4809 6.58119ZM20.6428 6.43054C20.5757 6.43054 20.5136 6.38652 20.4948 6.31999C20.4741 6.23977 20.5195 6.15563 20.6004 6.13313C20.8992 6.049 21.2049 5.97953 21.5087 5.92573C21.5925 5.91203 21.6724 5.96682 21.6872 6.04801C21.701 6.13117 21.6458 6.20943 21.5629 6.22508C21.269 6.27693 20.9722 6.34444 20.6832 6.42466C20.6694 6.42858 20.6556 6.43054 20.6428 6.43054ZM25.1786 6.31802C25.1667 6.31802 25.1559 6.31705 25.1431 6.31411C24.8521 6.24563 24.5543 6.19183 24.2574 6.15466C24.1736 6.14389 24.1134 6.06758 24.1242 5.98442C24.1361 5.90225 24.213 5.8426 24.2959 5.85336C24.6046 5.89249 24.9133 5.94823 25.2141 6.01867C25.2969 6.03823 25.3472 6.12042 25.3275 6.20162C25.3097 6.2701 25.2476 6.31802 25.1786 6.31802ZM22.4446 6.1116C22.3657 6.1116 22.2997 6.05097 22.2938 5.97075C22.2859 5.88759 22.35 5.81421 22.4348 5.80834C22.7435 5.78486 23.0561 5.77606 23.3658 5.78389C23.4497 5.78584 23.5157 5.85529 23.5148 5.93845C23.5128 6.02258 23.4417 6.0891 23.3589 6.08617C23.0581 6.07932 22.7573 6.08716 22.4565 6.10966C22.4535 6.11064 22.4486 6.1116 22.4446 6.1116ZM2.88822 5.04333C2.85764 5.04333 2.82409 5.03354 2.79648 5.01202C2.72941 4.96212 2.71564 4.86722 2.76692 4.79972C2.905 4.61873 3.05191 4.43971 3.2028 4.26851C3.25606 4.20688 3.30736 4.1482 3.3616 4.09048C3.4188 4.02885 3.5145 4.02394 3.57861 4.07971C3.64074 4.13645 3.6447 4.23133 3.58848 4.29395C3.53621 4.35069 3.4859 4.40841 3.43462 4.4671C3.28767 4.63439 3.14364 4.80853 3.00951 4.98168C2.9819 5.02277 2.93457 5.04333 2.88822 5.04333ZM17.6229 4.97679C17.5736 4.97679 17.5242 4.95429 17.4946 4.91027C17.3299 4.66081 17.1495 4.41918 16.9601 4.19026C16.9068 4.12569 16.9167 4.02983 16.9808 3.977C17.0459 3.9232 17.1435 3.93298 17.1968 3.99755C17.3921 4.23527 17.5785 4.4857 17.7511 4.74201C17.7974 4.81147 17.7767 4.90636 17.7077 4.95234C17.6811 4.96995 17.6525 4.97679 17.6229 4.97679ZM4.1161 3.69231C4.07566 3.69231 4.03426 3.67664 4.00468 3.64436C3.94649 3.58371 3.94846 3.48882 4.00961 3.43012C4.23645 3.21686 4.47215 3.01141 4.70885 2.8226C4.77296 2.7688 4.86963 2.77956 4.92387 2.84413C4.97713 2.90967 4.96722 3.00456 4.90015 3.05837C4.67134 3.24229 4.44156 3.44187 4.22162 3.65024C4.19105 3.67763 4.15259 3.69231 4.1161 3.69231ZM16.464 3.57199C16.4246 3.57199 16.3861 3.55536 16.3556 3.52602C16.1435 3.31568 15.9186 3.11413 15.6868 2.92727C15.6227 2.87445 15.6119 2.77957 15.6661 2.71402C15.7184 2.65043 15.8151 2.63967 15.8811 2.6925C16.1198 2.8862 16.3535 3.09457 16.5735 3.31273C16.6336 3.37241 16.6336 3.4673 16.5735 3.52697C16.5419 3.55534 16.5035 3.57199 16.464 3.57199ZM5.54124 2.55164C5.49193 2.55164 5.44361 2.52816 5.41501 2.48414C5.36669 2.41566 5.38643 2.32074 5.45546 2.27477C5.71584 2.10161 5.98406 1.94021 6.25331 1.7964C6.32727 1.75727 6.42097 1.78367 6.4614 1.85802C6.50085 1.93139 6.47325 2.02432 6.39928 2.06345C6.13792 2.20335 5.87854 2.35987 5.62606 2.52716C5.6014 2.54281 5.57083 2.55164 5.54124 2.55164ZM15.0438 2.42446C15.0152 2.42446 14.9846 2.41664 14.96 2.40001C14.7095 2.23761 14.4461 2.08693 14.1808 1.94997C14.1059 1.91182 14.0763 1.82086 14.1157 1.74651C14.1542 1.67216 14.2459 1.6428 14.3219 1.68194C14.5971 1.82183 14.8672 1.97834 15.1276 2.14758C15.1976 2.19356 15.2184 2.2875 15.171 2.35696C15.1414 2.40098 15.0941 2.42446 15.0438 2.42446ZM7.15378 1.68877C7.09362 1.68877 7.0374 1.65355 7.01274 1.59485C6.97921 1.51854 7.01766 1.42952 7.09557 1.39724C7.38158 1.27887 7.67649 1.17322 7.97335 1.08615C8.05324 1.06267 8.13906 1.1067 8.16273 1.1879C8.18739 1.26811 8.14199 1.35223 8.06112 1.37571C7.77412 1.46082 7.48907 1.5616 7.21193 1.67704C7.19319 1.68487 7.17351 1.68877 7.15378 1.68877ZM13.4145 1.59291C13.3967 1.59291 13.378 1.58899 13.3593 1.58312C13.0802 1.4755 12.7922 1.38158 12.5042 1.3043C12.4233 1.28376 12.374 1.20061 12.3967 1.11941C12.4194 1.03821 12.5022 0.990295 12.5831 1.0128C12.882 1.09204 13.1798 1.18984 13.4707 1.30039C13.5486 1.33169 13.5881 1.41878 13.5575 1.49704C13.5338 1.55574 13.4766 1.59291 13.4145 1.59291ZM8.90928 1.1693C8.8363 1.1693 8.77123 1.11845 8.75939 1.04605C8.74263 0.9629 8.79887 0.883652 8.88171 0.868C9.18844 0.812237 9.49811 0.771147 9.80681 0.749625C9.89163 0.743755 9.96456 0.806378 9.97048 0.89051C9.9764 0.973665 9.91333 1.04702 9.8295 1.05289C9.53067 1.07441 9.23183 1.11256 8.93595 1.16637C8.92609 1.16833 8.91717 1.1693 8.90928 1.1693ZM11.6471 1.1243C11.6402 1.1243 11.6314 1.12432 11.6235 1.12236C11.3286 1.07736 11.0268 1.04997 10.7279 1.03725C10.6451 1.03333 10.579 0.963865 10.583 0.879733C10.5859 0.796578 10.6569 0.732001 10.7408 0.734936C11.0504 0.746675 11.3641 0.776027 11.6708 0.823964C11.7547 0.835703 11.8118 0.912983 11.798 0.996137C11.7862 1.07049 11.7211 1.1243 11.6471 1.1243Z" fill="#333333"/>
<path d="M30.457 15.513C30.7489 7.6172 22.7642 5.0795 17.8457 9.23135C17.1287 2.8627 9.56122 -0.71488 4.32026 5.23604C-2.38627 12.8491 9.00497 27.8394 9.93205 29.0329C11.4312 28.7932 30.0822 25.6147 30.457 15.513Z" fill="#E1395B"/>
<path d="M30.4827 13.7618C30.1207 10.8132 27.9529 8.32645 25.0928 7.49393C22.5167 6.74261 19.5086 7.30218 17.5233 9.14234C17.0252 9.60507 17.6781 10.4386 18.1801 9.97485C19.5924 8.66394 21.5245 8.0975 23.4359 8.25305C25.5316 8.42132 27.3897 9.55222 28.5111 11.3102C29.6571 13.1063 29.6857 15.3378 29.1325 17.3325C28.8405 18.3832 28.4214 19.4388 27.8208 20.3554C27.2014 21.2985 26.368 22.0655 25.4596 22.7297C24.4418 23.4713 23.3175 24.0544 22.1942 24.6179C20.917 25.2577 19.623 25.8397 18.2837 26.3435C15.5912 27.3561 12.7715 28.0644 9.90447 28.3637C9.22198 28.4341 9.38273 29.479 10.0642 29.4066C15.1346 28.8773 20.0856 27.1086 24.4912 24.5924C26.4962 23.4478 28.2567 21.9902 29.2932 19.8996C30.2262 18.0252 30.7391 15.8485 30.4827 13.7618Z" fill="#333333"/>
<path d="M5.48405 3.93197C7.78301 2.03018 11.081 1.69365 13.738 3.02901C16.1346 4.23132 17.9385 6.68586 18.115 9.37322C18.1594 10.0482 17.107 10.2116 17.0627 9.53267C16.9384 7.61914 15.9215 5.89245 14.4234 4.70677C12.7784 3.40467 10.6451 2.9664 8.61437 3.48489C6.5383 4.01317 4.97712 5.62149 4.00171 7.45089C3.48788 8.41352 3.06279 9.46812 2.86948 10.5423C2.66927 11.6517 2.74521 12.7747 2.94936 13.8773C3.17719 15.1079 3.59338 16.2975 4.02339 17.4715C4.51158 18.8049 5.05301 20.108 5.68125 21.3837C6.94267 23.9536 8.50688 26.3837 10.3887 28.5506C10.8354 29.0671 9.99714 29.7167 9.55036 29.2021C6.22274 25.3711 3.83798 20.7184 2.36648 15.8925C1.69583 13.6963 1.42164 11.4364 2.11005 9.20985C2.72547 7.21317 3.85574 5.27712 5.48405 3.93197Z" fill="#333333"/>
<path d="M25.3906 11.8121C24.7564 11.5489 24.3659 12.5311 24.9981 12.7933C26.0919 13.2482 26.1905 14.5582 26.0643 15.5775C25.9282 16.684 25.4606 17.9929 24.5661 18.7227C24.0365 19.1561 24.6934 19.9866 25.222 19.5542C27.2211 17.9215 28.3868 13.0565 25.3906 11.8121Z" fill="#333333"/>
</svg>
