<svg width="63" height="57" viewBox="0 0 63 57" fill="none" xmlns="http://www.w3.org/2000/svg">
<path d="M62.7941 16.7532C61.7275 11.0064 55.8385 4.46534 46.6183 2.97689C44.9147 2.4748 43.0593 2.22031 41.0981 2.22031C40.5221 2.22031 39.9278 2.24209 39.3336 2.28665C33.7536 2.69862 29.1697 5.36457 26.0788 9.99826C25.3082 11.151 24.7289 12.2809 24.2971 13.2772C22.2088 12.6761 20.1771 12.373 18.2233 12.373C14.659 12.373 11.3394 13.4049 8.62262 15.3578C6.21256 17.0899 4.28663 19.534 3.05221 22.4247C1.63716 25.7383 1.18402 29.5174 1.77718 33.0667C2.42592 36.9507 4.23427 40.2772 7.00558 42.6866C11.5275 46.6192 18.7545 49.9387 28.4845 52.5531C34.8319 54.2594 40.1202 55.0804 41.3258 55.2567L45.6361 56.4748C45.9525 56.5639 46.2731 56.6075 46.5894 56.6075C47.7833 56.6075 48.9151 55.9984 49.489 54.9754L53.638 47.5699C54.0216 46.8846 54.1061 46.0913 53.8816 45.3535C54.1018 44.6266 54.0291 43.8294 53.6294 43.1263C53.6273 43.1214 53.4231 42.7599 53.1795 42.2628C53.5375 42.0013 53.9051 41.6596 54.1905 41.1952C54.1905 41.1952 54.1905 41.1952 54.1905 41.1942C54.1926 41.1922 54.1937 41.1902 54.1948 41.1883C54.7602 40.2663 54.7815 39.2809 54.5368 38.0757C54.8264 38.1827 55.0797 38.2599 55.2635 38.3154C56.1282 38.5778 56.9276 38.7283 57.0153 38.7451C57.2279 38.7848 57.4428 38.8036 57.6565 38.8036C58.3053 38.8036 58.9444 38.6243 59.4894 38.2827C60.2141 37.8271 60.7111 37.122 60.8692 36.3238C60.8981 36.1792 61.5821 32.7151 62.1721 28.6301C63.0014 22.8625 63.2056 18.9765 62.7941 16.7532Z" fill="#E0C380"/>
<path d="M61.27 14.5339C60.2045 8.78707 54.3145 2.24602 45.0953 0.757576C43.3906 0.255486 41.5352 0 39.5751 0C38.998 0 38.4048 0.0217732 37.8106 0.0663374C32.2306 0.478309 27.6455 3.14525 24.5547 7.77795C23.7852 8.93068 23.2048 10.0606 22.7741 11.0569C20.6858 10.4568 18.653 10.1527 16.7003 10.1527C13.136 10.1527 9.81642 11.1846 7.09855 13.1375C4.68955 14.8696 2.76364 17.3127 1.52922 20.2044C0.11417 23.518 -0.339012 27.2971 0.254153 30.8464C0.902894 34.7304 2.71127 38.0569 5.48151 40.4663C10.0045 44.3988 17.2315 47.7184 26.9616 50.3338C33.309 52.0401 38.5972 52.8611 39.8017 53.0374L44.1131 54.2564C44.4284 54.3456 44.7501 54.3881 45.0664 54.3881C46.2592 54.3881 47.3921 53.7801 47.966 52.7561L52.1139 45.3505C52.4976 44.6652 52.582 43.872 52.3586 43.1352C52.5777 42.4083 52.5061 41.6111 52.1064 40.908C52.1043 40.903 51.9001 40.5406 51.6564 40.0444C52.0134 39.783 52.3811 39.4413 52.6675 38.9769V38.9759C52.6696 38.9739 52.6696 38.9719 52.6718 38.9699C53.2372 38.0479 53.2585 37.0626 53.0138 35.8574C53.3034 35.9643 53.5567 36.0415 53.7405 36.097C54.6052 36.3594 55.4046 36.51 55.4923 36.5268C55.7049 36.5664 55.9198 36.5862 56.1335 36.5862C56.7823 36.5862 57.4214 36.407 57.9665 36.0643C58.6911 35.6098 59.188 34.9037 59.3462 34.1055C59.3751 33.9609 60.058 30.4968 60.649 26.4117C61.4773 20.6421 61.6815 16.7571 61.27 14.5339Z" fill="white"/>
<path d="M49.2122 43.9562L45.0643 51.3618L40.5295 50.0793L44.8335 42.3182L47.9158 43.4719L49.2122 43.9562Z" fill="#7B2623"/>
<path d="M44.314 36.408L49.8267 37.4766C49.52 37.9747 47.5225 38.4025 47.9831 39.684C48.4437 40.9664 49.2111 42.3192 49.2111 42.3192L47.9136 43.472V43.473L44.8313 42.3192C40.6834 39.3275 44.314 36.408 44.314 36.408Z" fill="#7B2623"/>
<path d="M51.5186 30.6414C51.5186 30.6414 52.9262 31.6377 53.1848 32.3507C53.1848 32.3507 49.676 33.3469 49.2133 34.3442C49.2133 34.3442 50.1356 36.9794 49.8278 37.4776L44.3151 36.409C43.4109 35.3404 44.3151 33.4895 44.3151 33.4895C45.1017 31.2108 47.6774 30.9266 48.8296 30.6424C49.9817 30.3552 51.5186 30.6414 51.5186 30.6414Z" fill="#7B2623"/>
<path d="M58.0509 15.0469C58.8952 19.6033 56.1292 33.5608 56.1292 33.5608C56.1292 33.5608 53.4402 33.0627 53.1837 32.3507C52.9262 31.6386 51.5175 30.6414 51.5175 30.6414C55.7092 13.9823 51.4994 5.95379 44.3162 3.70478C52.2507 4.89712 57.2065 10.4884 58.0509 15.0469Z" fill="#7B2623"/>
<path d="M44.3179 3.70478C51.5022 5.95378 55.711 13.9823 51.5193 30.6414C51.5193 30.6414 49.9824 30.3552 48.8292 30.6414C47.6782 30.9256 45.1024 31.2108 44.3147 33.4885C44.3147 33.4885 43.4105 35.3394 44.3147 36.408C44.3147 36.408 40.6841 39.3274 44.8331 42.3182L40.5302 50.0793C40.5302 50.0793 17.7067 46.9459 7.71592 38.2599C-2.2749 29.5728 5.02476 6.50043 24.8525 15.0459C24.8525 15.0459 27.0574 3.89592 38.0699 3.08287C40.293 2.91847 42.408 3.10761 44.3147 3.70378C44.3158 3.70477 44.3158 3.70478 44.3179 3.70478ZM37.5345 41.6785C42.9905 33.2756 48.3782 12.8444 37.5345 12.27C30.0905 11.8749 27.4421 21.17 27.4421 21.17C8.15625 16.3382 8.07715 33.3954 18.3234 37.4765C25.0556 40.1583 30.6174 41.4636 37.5345 41.6785Z" fill="#A0382B"/>
<path d="M37.5327 12.2691C48.3764 12.8435 42.9887 33.2747 37.5327 41.6775C30.6156 41.4636 25.0538 40.1584 18.3206 37.4756C8.07433 33.3935 8.1534 16.3363 27.4393 21.1691C27.4393 21.17 30.0887 11.8739 37.5327 12.2691Z" fill="#7B2623"/>
<path d="M21.2298 13.5862C15.6711 13.7971 10.3006 16.6363 7.27704 20.963C4.2535 25.2907 3.65499 30.992 5.72412 35.7782C3.78645 32.3388 2.60011 28.4231 3.2403 24.5886C3.87942 20.7541 6.13666 17.1117 9.59839 14.93C13.0601 12.7483 17.3876 12.0442 21.2298 13.5862Z" fill="#CF6A34"/>
<path d="M45.6233 30.9643C43.4665 32.0408 42.0482 34.2818 42.0867 36.5516C41.423 37.4429 41.1879 38.564 41.3867 39.6315C41.5865 40.6991 42.2502 41.6855 43.195 42.3203C42.4373 44.7138 41.5844 47.1144 40.8256 49.507C41.6956 47.0015 42.9781 44.4059 44.609 42.2519C43.6268 41.5874 42.9791 40.4991 42.8584 39.378C42.7376 38.257 43.1566 37.0953 43.9795 36.2644C43.6215 35.3236 43.6375 34.363 43.9838 33.4183C44.3301 32.4735 44.7212 31.508 45.6233 30.9643Z" fill="#CF6A34"/>
<path d="M39.9139 12.2571C40.1458 12.1264 44.3333 13.1049 45.0825 18.6328C45.8317 24.1618 43.6984 30.0304 41.4604 33.3262C41.4604 33.3262 43.9517 25.872 43.8021 20.3154C43.6546 14.7587 39.9139 12.2571 39.9139 12.2571Z" fill="#CF6A34"/>
<path d="M46.7839 36.7487C46.008 37.5478 45.5399 38.5956 45.4747 39.6681C45.4095 40.7406 45.7526 41.83 46.428 42.7034C45.8488 42.5559 45.3133 42.4757 44.734 42.3281C43.5531 42.0271 43.1031 40.7684 42.9888 39.6384C42.8744 38.5075 43.3361 37.3389 44.2125 36.5437C44.9446 36.6318 46.0508 36.6615 46.7839 36.7487Z" fill="#A0382B"/>
<path d="M46.3255 43.2491C44.5727 45.4348 43.5499 48.1165 43.4323 50.8369C42.5153 50.4765 41.6699 50.3051 40.7518 49.9456C41.4604 47.2639 42.9022 44.8168 44.7854 42.6777C45.3026 42.8193 45.8082 43.1065 46.3255 43.2491Z" fill="#A0382B"/>
<path d="M58.6419 14.9517C58.1791 12.4561 56.5824 9.81893 54.261 7.7155C52.4078 6.03691 49.2047 3.88695 44.4572 3.16303C42.5324 2.56884 40.3692 2.35591 38.0222 2.52921C33.3218 2.87681 29.4485 5.14068 26.8215 9.07718C25.4107 11.1915 24.7182 13.2346 24.4318 14.2625C20.4025 12.6433 16.6757 12.2195 13.3444 13.0018C10.2578 13.7267 7.61794 15.4954 5.70592 18.1148C3.56197 21.0531 2.46541 24.9312 2.69626 28.7558C2.9378 32.7715 4.57517 36.2901 7.30587 38.6649C11.5179 42.3281 18.3804 45.4555 27.7022 47.961C34.2933 49.7326 39.8434 50.5437 40.397 50.623L44.889 51.8935C44.9478 51.9104 45.0055 51.9183 45.0643 51.9183C45.2834 51.9183 45.4907 51.8064 45.5965 51.6182L49.7455 44.2126C49.8235 44.073 49.8342 43.9106 49.7754 43.764C49.7166 43.6174 49.5937 43.4996 49.4377 43.4412L48.9995 43.2768L49.6279 42.7192C49.8224 42.5479 49.8694 42.2785 49.7444 42.0587C49.7358 42.0458 48.9931 40.7327 48.5527 39.5066C48.4127 39.1155 48.6735 38.8837 49.4794 38.4262C49.8385 38.2222 50.1495 38.044 50.3269 37.7825C50.3322 37.7756 50.3376 37.7677 50.3429 37.7607C50.3451 37.7578 50.3483 37.7548 50.3493 37.7508C50.3568 37.7389 50.3632 37.7241 50.3707 37.7102C50.3761 37.6993 50.3825 37.6884 50.3878 37.6765C50.6101 37.1853 50.438 36.093 49.8727 34.4224C50.2457 34.0559 51.4352 33.4687 52.9699 32.9963C53.6614 33.5875 55.1021 33.9351 56.0138 34.1035C56.0523 34.1104 56.0918 34.1144 56.1313 34.1144C56.25 34.1144 56.3675 34.0817 56.4669 34.0183C56.6005 33.9351 56.6914 33.8054 56.7202 33.6588C56.8325 33.0864 59.4948 19.5528 58.6419 14.9517ZM8.12561 37.8548C5.61936 35.6761 4.11667 32.4229 3.89116 28.6934C3.67527 25.1065 4.69913 21.4779 6.69879 18.7367C9.10992 15.431 12.5749 13.7416 16.6811 13.7416C19.1232 13.7416 21.7919 14.3397 24.5996 15.5489C24.7674 15.6212 24.9629 15.6173 25.1264 15.539C25.291 15.4598 25.4086 15.3152 25.4417 15.1468C25.4471 15.1191 26.005 12.4007 27.8614 9.63176C30.3143 5.97551 33.7642 3.95826 38.1184 3.63739C40.3222 3.47399 42.3411 3.67404 44.1227 4.23159C44.1313 4.23456 44.1409 4.23654 44.1494 4.23951C47.811 5.39422 50.3194 7.98092 51.6094 11.9313C53.0758 16.4253 52.8898 22.5089 51.0579 30.0174C50.4562 29.9531 49.4922 29.9026 48.6735 30.1056C48.5474 30.1373 48.4031 30.1679 48.2449 30.2026C46.9571 30.4809 44.5641 30.9988 43.7529 33.2934C43.6375 33.5429 42.962 35.1067 43.5627 36.3257C43.0571 36.8486 42.2053 37.938 42.2459 39.3165C42.278 40.4484 42.8947 41.5061 44.0799 42.4647L40.195 49.4712C38.7532 49.2523 33.8038 48.4462 28.0356 46.8964C19.026 44.4731 12.142 41.3476 8.12561 37.8548ZM44.7607 50.6962L41.3899 49.7426L45.1156 43.0233L48.3764 44.2423L44.7607 50.6962ZM45.1391 41.8339C44.0447 41.0278 43.4729 40.1731 43.444 39.2907C43.4109 38.245 44.143 37.3765 44.5074 37.012L48.3806 37.7627C47.7426 38.1786 47.0458 38.8332 47.4156 39.8582C47.7426 40.7683 48.2118 41.6992 48.4779 42.2013L47.78 42.8212L45.1391 41.8339ZM48.6425 34.5144C48.9375 35.3602 49.1758 36.2574 49.2603 36.7991L44.6806 35.9118C44.2959 35.2305 44.6667 34.1163 44.8602 33.7173C44.8698 33.6974 44.8783 33.6776 44.8837 33.6578C45.479 31.9406 47.3076 31.5445 48.5175 31.283C48.6831 31.2464 48.8413 31.2127 48.9835 31.1781C49.8021 30.9751 50.8912 31.1088 51.2674 31.1642C51.5934 31.4058 51.9888 31.7406 52.2699 32.0446C51.0494 32.4427 49.086 33.2082 48.6617 34.1252C48.6051 34.248 48.5976 34.3867 48.6425 34.5144ZM55.6494 32.8884C54.7281 32.6665 53.8966 32.3556 53.7459 32.1575C53.7437 32.1506 53.7395 32.1436 53.7373 32.1367C53.7363 32.1347 53.7352 32.1328 53.7341 32.1308C53.4797 31.493 52.66 30.7919 52.1865 30.4254C55.7754 15.8638 52.7434 8.90885 48.8969 5.59327C50.888 6.46871 52.3843 7.56894 53.4231 8.51073C55.5681 10.4537 57.0398 12.8701 57.4598 15.1399C58.1813 19.0319 56.1538 30.2264 55.6494 32.8884Z" fill="#542125"/>
<path d="M43.0539 14.9646C41.8986 12.9394 40.0528 11.8461 37.5669 11.7144C34.2933 11.5421 31.399 13.1157 29.191 16.2688C28.0078 17.9603 27.326 19.6607 27.0321 20.4975C22.8842 19.529 19.385 19.5101 16.6234 20.442C14.0733 21.3026 12.281 22.9416 11.4388 25.1817C10.6062 27.397 10.8114 30.0441 12.001 32.4427C13.2461 34.9512 15.406 36.9199 18.0822 37.9865C25.1296 40.793 30.7578 42.024 37.5113 42.2329C37.5177 42.2329 37.5252 42.2329 37.5316 42.2329C37.7411 42.2329 37.9367 42.1309 38.0446 41.9646C40.2922 38.5044 42.3849 33.3033 43.505 28.3913C44.2745 25.0222 45.2396 18.7991 43.0539 14.9646ZM37.1982 41.1109C30.7621 40.8752 25.3327 39.666 18.5578 36.9664C16.1531 36.0088 14.2122 34.2371 13.0922 31.9792C12.0298 29.8381 11.8406 27.4941 12.5717 25.5471C13.292 23.6328 14.8342 22.2285 17.0348 21.4858C18.2596 21.0728 19.6533 20.8659 21.2094 20.8659C23.0199 20.8659 25.0506 21.1461 27.2843 21.7057C27.4382 21.7443 27.6017 21.7245 27.7407 21.6502C27.8785 21.5759 27.9801 21.4541 28.0207 21.3115C28.0271 21.2887 28.6855 19.0249 30.2149 16.8501C32.1996 14.0267 34.6502 12.671 37.4995 12.8235C39.5665 12.9335 41.0372 13.8029 41.9948 15.4845C45.2759 21.2412 41.3215 34.558 37.1982 41.1109Z" fill="#542125"/>
</svg>
