<svg width="74" height="122" viewBox="0 0 74 122" fill="none" xmlns="http://www.w3.org/2000/svg">
<path d="M71.5242 52.906C72.6568 51.5892 74.3018 49.159 73.0472 47.2699C72.608 46.6095 71.9034 46.2186 71.1032 46.1935C71.0565 46.0693 71.0087 45.9741 70.9731 45.9039C70.6173 45.1994 69.9605 44.7254 69.1675 44.6031C69.0312 44.5821 68.8919 44.5721 68.7527 44.5721C68.0206 44.5721 67.3709 44.8556 66.7995 45.3096C66.3308 44.8246 65.7574 44.5791 65.0813 44.5791C64.6706 44.5791 64.2588 44.6873 63.8918 44.8937C62.6616 45.5862 62.2579 47.0133 62.5284 50.089C58.7727 51.4359 57.0158 56.0077 55.5924 59.9081L54.6571 61.0125C54.7313 52.471 54.6296 40.5053 53.6729 33.5092C52.7518 26.7607 49.2208 22.751 46.0192 20.4501C47.8777 18.9158 48.746 16.7722 48.506 14.1806C48.2163 11.0388 46.0975 8.51739 42.5837 7.02517C43.7753 4.79737 43.8698 3.79622 43.5862 2.98647C43.3666 2.35812 42.8837 1.86506 42.2594 1.63456C41.9839 1.53234 41.6911 1.48121 41.3911 1.48121C41.1441 1.48121 40.6459 1.48123 39.924 1.89012C39.5316 1.22669 38.9673 0.733607 38.1631 0.557227C37.9964 0.522151 37.8256 0.502115 37.6548 0.502115C37.1393 0.502115 36.7143 0.643424 36.3635 0.869912C35.9711 0.631398 35.5258 0.510128 35.0266 0.510128C33.7038 0.510128 32.9606 1.36698 32.5336 2.33807C31.8473 1.77586 31.1011 1.42408 30.307 1.42408C29.8495 1.42408 29.4134 1.53132 29.0107 1.74478C28.3438 2.09955 27.8852 2.70285 27.7216 3.44345C27.5548 4.20008 27.6016 5.25334 28.8826 7.31278C28.8125 7.34986 28.7423 7.38896 28.6722 7.42805C25.4258 9.24596 23.606 12.0319 23.6792 15.0715C23.7351 17.3554 24.7274 19.2555 26.5371 20.6265C21.8399 25.0009 19.3673 33.1775 19.164 45.021L18.1788 44.0419C18.1158 43.9106 18.0608 43.7793 18.011 43.642C16.8855 40.5534 15.4144 36.5147 12.2453 35.1838C12.4344 32.6634 12.0399 31.4608 10.9267 30.8335C10.5708 30.633 10.1713 30.5268 9.77067 30.5268C9.17488 30.5268 8.70007 30.7152 8.32287 31.0169C7.85824 30.7072 7.33564 30.5198 6.75206 30.5198C6.61988 30.5198 6.48569 30.5308 6.35453 30.5499C5.58692 30.6691 4.94945 31.1281 4.6058 31.8106C4.59564 31.8306 4.58445 31.8496 4.57428 31.8737C3.90021 31.9619 3.29733 32.3307 2.92114 32.8979C1.7743 34.6246 3.17529 36.7532 4.17065 37.9197C4.12998 37.9799 4.08932 38.041 4.04967 38.1021L0.923297 36.1208L2.6944 41.4243C2.69948 41.4413 2.71473 41.4844 2.73811 41.5496C2.40769 43.5078 2.65779 45.5993 3.46099 47.5084C5.11923 51.4509 10.0187 55.692 16.8581 55.692C17.7385 55.692 18.6211 55.6179 19.5015 55.4705C19.8289 59.873 20.3159 63.6742 20.624 66.0914C20.7368 66.9723 20.8253 67.757 20.8751 68.233C21.3001 72.2807 22.0402 81.2671 22.5374 87.28H17.1041L18.314 102.814L23.4128 102.636L26.1701 121.072L53.5702 119.507V101.801L59.9134 101.727L58.7086 87.28H55.264L54.6469 74.2911C55.2528 74.3502 55.8588 74.252 56.4627 74.252C56.4638 74.252 56.4637 74.252 56.4648 74.252C64.5831 74.252 70.3926 69.2683 72.3548 64.6022C74.0293 60.6226 73.5871 56.1871 71.3585 53.1335L71.5242 52.906Z" fill="#FCFAFA" stroke="black" stroke-miterlimit="10"/>
<path d="M64.8861 52.6864C64.8861 52.6864 63.9284 47.1534 64.8861 46.6143C65.8439 46.0751 66.2556 49.6488 66.2556 49.6488C66.2556 49.6488 67.6241 46.3688 68.8574 46.5582C70.0886 46.7486 68.0348 50.5268 68.0348 50.5268C68.0348 50.5268 70.7301 47.395 71.3676 48.3531C72.0041 49.3121 69.9503 51.6742 69.9503 51.6742L67.9749 54.3039L64.8861 52.6864Z" fill="#ED1C24"/>
<path d="M49.966 65.3688C49.966 65.3688 55.442 66.1774 57.3585 60.9161C59.2749 55.6548 61.1914 51.0669 65.7076 51.7424C70.2248 52.4158 72.8255 58.3526 70.4983 63.8845C68.1721 69.4175 60.1086 74.4473 50.999 71.4609L49.966 65.3688Z" fill="#546C1E"/>
<path d="M65.1769 51.6864C65.1769 51.6864 64.8861 64.5009 51.6822 67.6076" stroke="#44C6A8" stroke-width="0.5925" stroke-miterlimit="10" stroke-linecap="round" stroke-linejoin="round"/>
<path d="M68.7821 53.2296C68.7821 53.2296 72.5389 68.1999 51.6822 70.2693" stroke="#44C6A8" stroke-width="0.5925" stroke-miterlimit="10" stroke-linecap="round" stroke-linejoin="round"/>
<path d="M9.92827 37.5448C9.92827 37.5448 10.7162 32.996 9.92827 32.5531C9.14134 32.1101 8.80378 35.0494 8.80378 35.0494C8.80378 35.0494 7.6793 32.3506 6.66463 32.507C5.652 32.6633 7.33972 35.77 7.33972 35.77C7.33972 35.77 5.12331 33.1955 4.60073 33.9832C4.07611 34.7719 5.76586 36.715 5.76586 36.715L7.39058 38.8767L9.92827 37.5448Z" fill="#ED1C24"/>
<path d="M22.1961 47.9723C22.1961 47.9723 17.6942 48.6378 16.1183 44.3114C14.5424 39.9861 12.9665 36.214 9.2535 36.7682C5.53949 37.3244 3.40035 42.2049 5.31378 46.7527C7.22722 51.3005 13.8571 55.4374 21.3472 52.9811L22.1961 47.9723Z" fill="#546C1E"/>
<path d="M8.27612 37.0268C8.27612 37.0268 10.3329 48.0385 21.7799 50.4277" stroke="#44C6A8" stroke-width="0.5925" stroke-miterlimit="10" stroke-linecap="round" stroke-linejoin="round"/>
<path d="M4.59972 40.8069C4.59972 40.8069 8.38284 52.2034 21.7789 51.6964" stroke="#44C6A8" stroke-width="0.5925" stroke-miterlimit="10" stroke-linecap="round" stroke-linejoin="round"/>
<path d="M25.1341 99.1134L28.235 118.97L52.0431 117.639V98.448L25.1341 99.1134Z" fill="#A54A26"/>
<path d="M32.8874 9.36717C32.8874 9.36717 28.4993 4.26417 29.9613 3.4875C31.4244 2.71283 33.7882 7.48109 33.7882 7.48109C33.7882 7.48109 33.7882 2.49035 35.0266 2.49035C36.2649 2.49035 36.3767 6.70543 36.3767 6.70543C36.3767 6.70543 36.7143 2.26787 37.7269 2.49035C38.7406 2.71283 38.7406 5.92475 38.7406 5.92475C38.7406 5.92475 40.653 3.15578 41.5538 3.4875C42.4546 3.82122 39.191 8.81297 39.191 8.81297L32.8874 9.36717Z" fill="#ED1C24"/>
<path d="M36.8272 21.1265C42.2289 21.0223 46.9556 19.2404 46.5062 14.3589C46.0558 9.47842 39.9607 7.69556 35.6875 7.59234C31.4132 7.48912 25.5733 10.3653 25.6851 15.0254C25.797 19.6844 30.974 21.2367 36.8272 21.1265Z" fill="#7CC4DC"/>
<path d="M36.1094 18.9087C39.9779 18.8456 50.1073 22.2359 51.6822 33.7727C53.2571 45.3096 52.4702 70.8255 52.4702 70.8255L53.4828 91.9019L25.009 92.7899C25.009 92.7899 23.546 74.3742 22.8699 67.9403C22.1937 61.5065 15.0209 19.2404 36.1094 18.9087Z" fill="#5F8305"/>
<path d="M19.2697 88.7843L20.1695 100.549L57.759 99.4933L56.8592 88.7843H19.2697Z" fill="#C95D2D"/>
<path d="M30.5287 20.2225C30.5287 20.2225 25.7115 46.3077 30.5287 89.4657" stroke="#44C6A8" stroke-width="0.5925" stroke-miterlimit="10" stroke-linecap="round" stroke-linejoin="round"/>
<path d="M43.8149 21.3691C43.8149 21.3691 49.8755 54.6217 47.6306 89.4658" stroke="#44C6A8" stroke-width="0.5925" stroke-miterlimit="10" stroke-linecap="round" stroke-linejoin="round"/>
<path d="M36.1094 18.9087L38.5149 89.4657" stroke="#44C6A8" stroke-width="0.5925" stroke-miterlimit="10" stroke-linecap="round" stroke-linejoin="round"/>
<path d="M28.9548 63.8756L34.7592 64.2805V79.1445L29.2232 80.0735L29.8485 84.7757H47.6306L46.7298 78.1885L43.8048 78.5392L42.4536 53.7088H32.5499L28.9548 63.8756Z" fill="#F9C000"/>
<path d="M29.6625 9.14969C29.6625 9.14969 28.3499 16.1137 31.7813 19.6764" stroke="black" stroke-width="0.395" stroke-miterlimit="10"/>
<path d="M35.6874 7.59223C35.6874 7.59223 32.6526 13.3697 33.9997 19.095" stroke="black" stroke-width="0.395" stroke-miterlimit="10"/>
<path d="M39.0802 7.99915C39.0802 7.99915 39.859 14.6896 38.339 19.0951" stroke="black" stroke-width="0.395" stroke-miterlimit="10"/>
<path d="M42.4587 9.14969C42.4587 9.14969 45.2323 15.1296 41.9625 20.3709" stroke="black" stroke-width="0.395" stroke-miterlimit="10"/>
<path d="M19.2697 91.8138L57.759 92.6446" stroke="black" stroke-width="0.395" stroke-miterlimit="10"/>
<path d="M34.0698 105.298C34.019 107.292 33.0389 108.886 31.8778 108.858C30.7167 108.829 29.8159 107.189 29.8658 105.196C29.8871 104.343 30.0782 103.566 30.3833 102.956C30.7889 102.139 31.3939 101.623 32.0588 101.639C32.984 101.662 33.7404 102.705 33.9875 104.134C34.0495 104.499 34.079 104.89 34.0698 105.298Z" fill="white"/>
<path d="M33.9875 104.133C33.588 104.426 33.0857 104.596 32.5417 104.583C31.5067 104.558 30.6466 103.874 30.3823 102.955C30.7879 102.138 31.3929 101.622 32.0578 101.638C32.983 101.662 33.7394 102.705 33.9875 104.133Z" fill="#070000"/>
<path d="M44.6568 105.556C44.606 107.55 45.5047 109.189 46.6668 109.217C47.8289 109.245 48.81 107.651 48.8609 105.658C48.8822 104.804 48.7297 104.019 48.4562 103.395C48.0922 102.557 47.5137 102.014 46.8488 101.997C45.9236 101.976 45.1153 102.981 44.7961 104.396C44.7147 104.759 44.667 105.148 44.6568 105.556Z" fill="white"/>
<path d="M44.7961 104.397C45.1804 104.707 45.6735 104.903 46.2174 104.916C47.2534 104.942 48.1451 104.301 48.4552 103.396C48.0912 102.558 47.5127 102.015 46.8478 101.998C45.9226 101.977 45.1143 102.983 44.7961 104.397Z" fill="#070000"/>
<path d="M37.3111 108.709C37.3111 108.709 38.6704 115.717 42.7586 108.859" stroke="black" stroke-width="0.395" stroke-miterlimit="10"/>
<path d="M34.0698 105.298C34.019 107.292 33.0389 108.886 31.8778 108.858C30.7167 108.829 29.8159 107.189 29.8658 105.196C29.8871 104.343 30.0782 103.566 30.3833 102.956C30.7889 102.139 31.3939 101.623 32.0588 101.639C32.984 101.662 33.7404 102.705 33.9875 104.134C34.0495 104.499 34.079 104.89 34.0698 105.298Z" fill="white"/>
<path d="M33.9875 104.133C33.588 104.426 33.0857 104.596 32.5417 104.583C31.5067 104.558 30.6466 103.874 30.3823 102.955C30.7879 102.138 31.3929 101.622 32.0578 101.638C32.983 101.662 33.7394 102.705 33.9875 104.133Z" fill="#070000"/>
<path d="M44.6568 105.556C44.606 107.55 45.5047 109.189 46.6668 109.217C47.8289 109.245 48.81 107.651 48.8609 105.658C48.8822 104.804 48.7297 104.019 48.4562 103.395C48.0922 102.557 47.5137 102.014 46.8488 101.997C45.9236 101.976 45.1153 102.981 44.7961 104.396C44.7147 104.759 44.667 105.148 44.6568 105.556Z" fill="white"/>
<path d="M44.7961 104.397C45.1804 104.707 45.6735 104.903 46.2174 104.916C47.2534 104.942 48.1451 104.301 48.4552 103.396C48.0912 102.558 47.5127 102.015 46.8478 101.998C45.9226 101.977 45.1143 102.983 44.7961 104.397Z" fill="#070000"/>
<path d="M37.3111 108.709C37.3111 108.709 38.6704 115.717 42.7586 108.859" stroke="black" stroke-width="0.395" stroke-miterlimit="10"/>
<path d="M39.0858 47.1929L37.474 47.283L30.8136 38.2558L31.3525 47.6251L29.7407 47.7152L29.0414 35.5567L30.6532 35.4667L37.3327 44.5347L36.7914 35.1237L38.3865 35.0345L39.0858 47.1929Z" fill="white"/>
<path d="M35.1182 39.1193C35.0885 38.6032 35.1624 38.1335 35.34 37.71C35.5207 37.2864 35.7849 36.9525 36.1323 36.7084C36.483 36.4641 36.8904 36.329 37.3546 36.3031C38.072 36.263 38.6657 36.4789 39.1357 36.9509C39.609 37.4226 39.8693 38.0707 39.9167 38.8951L39.9204 38.9584C39.9499 39.4713 39.8774 39.9377 39.7029 40.3577C39.5315 40.7743 39.2689 41.1065 38.9151 41.3542C38.5646 41.6017 38.1524 41.7387 37.6785 41.7652C36.9644 41.8051 36.3707 41.5892 35.8974 41.1174C35.4274 40.6455 35.1688 40.0005 35.1218 39.1826L35.1182 39.1193ZM36.03 39.1758C36.0636 39.7601 36.2253 40.2215 36.515 40.5603C36.808 40.8988 37.1818 41.0554 37.6362 41.03C38.0939 41.0044 38.4472 40.8056 38.6961 40.4335C38.9448 40.0582 39.0506 39.5476 39.0134 38.9016C38.9802 38.3239 38.8154 37.8642 38.5189 37.5226C38.2255 37.1776 37.8516 37.0177 37.3972 37.0431C36.9524 37.068 36.6039 37.2649 36.3516 37.6339C36.0993 38.003 35.9921 38.5169 36.03 39.1758Z" fill="white"/>
</svg>
