<svg width="43" height="46" viewBox="0 0 43 46" fill="none" xmlns="http://www.w3.org/2000/svg">
<path d="M40.5279 8.61234L40.4659 8.55781L40.3613 8.48819C40.3369 8.47078 40.3126 8.45453 40.2883 8.43712C40.236 8.40115 40.1824 8.364 40.1277 8.33035L40.1082 8.31761C40.0863 8.30484 40.0644 8.29205 40.0425 8.27929C39.9501 8.22591 39.8552 8.17372 39.7567 8.1273C39.6971 8.09945 39.6375 8.0716 39.5766 8.04723C39.5365 8.02983 39.4951 8.01589 39.4562 8.00081C39.393 7.97644 39.3285 7.95439 39.2531 7.93119C39.2214 7.92074 39.1898 7.91145 39.1582 7.90449L39.1411 7.89868C39.0706 7.87895 39 7.86157 38.927 7.84648C38.8918 7.83836 38.8541 7.8314 38.8078 7.82212C38.7288 7.80819 38.6497 7.79772 38.5791 7.78844C38.5426 7.7838 38.5061 7.77918 38.4696 7.77686C38.3504 7.76526 38.2385 7.76061 38.1266 7.76061H29.4228V5.00005C29.4228 4.64149 29.3717 4.29106 29.2719 3.95571L29.8327 3.42077L27.8499 1.95867C27.8231 1.93779 27.7963 1.92037 27.7696 1.9018C27.7112 1.86119 27.6528 1.82175 27.592 1.78345C27.5628 1.76373 27.5311 1.74748 27.4983 1.72775C27.4022 1.67089 27.3085 1.62101 27.2222 1.57923C27.1467 1.54326 27.0701 1.50612 26.985 1.47246C26.946 1.45506 26.9059 1.44115 26.8609 1.42491C26.7879 1.39822 26.7137 1.37037 26.6443 1.35065C26.603 1.33672 26.5628 1.32625 26.5154 1.31233C26.4363 1.29028 26.356 1.27172 26.2757 1.25316C26.232 1.24387 26.1894 1.23459 26.1468 1.22879C26.0616 1.21255 25.9741 1.20212 25.8901 1.19051C25.8512 1.18587 25.8123 1.18121 25.7721 1.17773C25.6395 1.16496 25.5167 1.16034 25.3962 1.16034H5.20649C5.08606 1.16034 4.96318 1.16497 4.82694 1.1789C4.78923 1.18122 4.75153 1.18587 4.71139 1.19051C4.6238 1.20212 4.53742 1.21371 4.45835 1.22879C4.41943 1.23575 4.38051 1.24271 4.33063 1.25316C4.24669 1.27056 4.16397 1.29146 4.07882 1.31467C4.04111 1.32511 4.0034 1.33554 3.96325 1.34831C3.88662 1.37152 3.80999 1.3982 3.73091 1.42721C3.69077 1.44229 3.65062 1.45623 3.61169 1.47363C3.51194 1.51425 3.41218 1.56065 3.31973 1.60707C3.25648 1.6384 3.19565 1.67321 3.13604 1.70803L3.11902 1.7173C3.07888 1.74051 3.03873 1.76372 2.9998 1.78809C2.94263 1.82406 2.8879 1.86122 2.83924 1.89603C2.81004 1.91576 2.78084 1.93546 2.75165 1.9575L0.761499 3.4138L1.32959 3.95571C1.22983 4.29106 1.17875 4.64265 1.17875 5.00005V34.0202C1.17875 36.1367 2.984 37.8599 5.20406 37.8599H5.92786V42.9249C5.92786 44.6203 7.37302 46 9.1515 46H21.4464C22.7918 46 23.9474 45.2086 24.4304 44.09C25.1116 44.6296 25.9643 44.9289 26.8718 44.9417C27.5932 45.6101 28.5554 46 29.5845 46C30.6137 46 31.5771 45.6101 32.2973 44.9417C33.3264 44.9255 34.285 44.5448 35.0015 43.8602C35.7302 43.164 36.1206 42.2403 36.1352 41.2807C36.8359 40.5914 37.2471 39.6736 37.2471 38.6907C37.2471 38.6861 37.2471 38.6814 37.2471 38.6745H38.1242C40.1447 38.6745 41.7882 37.1056 41.7882 35.1794V11.2534C41.7882 10.9993 41.7602 10.7498 41.7055 10.5072L42.3222 9.92936L40.5279 8.61234ZM37.8371 34.9055H34.0563L32.6233 34.9009L32.1793 36.2017L31.3995 37.9782L33.2315 38.6919L31.4007 39.4078L32.1647 41.1507L30.34 40.4185L29.5882 42.1684L28.8364 40.4185L27.0117 41.1507L27.7757 39.4078L25.9449 38.6919L27.7781 37.9759L27.0056 36.2214L26.5543 34.9044H20.7201V42.2299H9.88503V34.0886H5.2077C5.16999 34.0886 5.13594 34.0573 5.13594 34.0202V5.00005C5.13594 4.99193 5.13593 4.97568 5.15539 4.95479C5.16026 4.95247 5.16635 4.94782 5.17243 4.94318L5.18702 4.93507L25.3902 4.9316L25.4242 4.93854C25.4279 4.9397 25.4303 4.94202 25.4339 4.94318L25.4388 4.94782C25.4425 4.95014 25.4461 4.95248 25.451 4.95596C25.4704 4.97569 25.4704 4.99193 25.4704 5.00005V11.5319H37.8383V34.9055H37.8371Z" fill="#6B5951"/>
<path d="M39.7676 7.452L39.7056 7.39747L39.601 7.32785C39.5766 7.31044 39.5523 7.29419 39.528 7.27678C39.4757 7.24081 39.4222 7.20366 39.3674 7.17001L39.3479 7.15726C39.326 7.1445 39.3041 7.13171 39.2822 7.11895C39.1898 7.06557 39.0949 7.01337 38.9964 6.96696C38.9368 6.93911 38.8772 6.91126 38.8163 6.88689C38.7762 6.86949 38.7348 6.85555 38.6959 6.84047C38.6327 6.8161 38.5682 6.79405 38.4928 6.77085C38.4611 6.7604 38.4295 6.75111 38.3979 6.74415L38.3808 6.73834C38.3103 6.71861 38.2397 6.70123 38.1668 6.68614C38.1315 6.67802 38.0938 6.67106 38.0475 6.66178C37.9685 6.64785 37.8894 6.63738 37.8188 6.6281C37.7823 6.62346 37.7458 6.61884 37.7094 6.61652C37.5901 6.60492 37.4782 6.60027 37.3663 6.60027H28.6625V3.83971C28.6625 3.48115 28.6114 3.13072 28.5116 2.79537L29.0724 2.26043L27.0896 0.798332C27.0628 0.777445 27.036 0.760027 27.0093 0.74146C26.9509 0.700847 26.8925 0.661406 26.8317 0.623113C26.8025 0.603386 26.7709 0.587136 26.738 0.56741C26.6419 0.510551 26.5482 0.460665 26.4619 0.418891C26.3864 0.382919 26.3098 0.345774 26.2247 0.312123C26.1857 0.294717 26.1456 0.28081 26.1006 0.264564C26.0276 0.237876 25.9534 0.210032 25.8841 0.190305C25.8427 0.17638 25.8025 0.165914 25.7551 0.151989C25.676 0.129942 25.5957 0.111382 25.5155 0.0928154C25.4717 0.0835323 25.4291 0.0742537 25.3865 0.0684518C25.3014 0.0522064 25.2138 0.0417751 25.1298 0.0301712C25.0909 0.0255296 25.052 0.0208685 25.0118 0.0173874C24.8792 0.00462313 24.7564 0 24.636 0H4.44497C4.32454 0 4.20168 0.00463135 4.06544 0.018556C4.02773 0.0208768 3.99002 0.0255296 3.94987 0.0301712C3.86229 0.0417751 3.77593 0.0533667 3.69686 0.0684518C3.65793 0.0754141 3.61899 0.0823719 3.56911 0.0928154C3.48518 0.110221 3.40245 0.131119 3.3173 0.154326C3.27959 0.16477 3.24188 0.175204 3.20174 0.187968C3.1251 0.211176 3.04847 0.237857 2.9694 0.266866C2.92925 0.281951 2.8891 0.295886 2.85017 0.313292C2.75042 0.353905 2.65068 0.400309 2.55823 0.446725C2.49498 0.478055 2.43415 0.512873 2.37454 0.547685L2.35751 0.556963C2.31736 0.580171 2.27723 0.603384 2.2383 0.627752C2.18113 0.663724 2.12638 0.700877 2.07772 0.735688C2.04853 0.755415 2.01932 0.775117 1.99013 0.797164L0 2.25345L0.568086 2.79537C0.468335 3.13072 0.417234 3.48231 0.417234 3.83971V32.8598C0.417234 34.9764 2.22248 36.6995 4.44254 36.6995H5.16634V41.7646C5.16634 43.4599 6.6115 44.8397 8.38998 44.8397H20.6849C22.0303 44.8397 23.1859 44.0483 23.6689 42.9297C24.3501 43.4692 25.2028 43.7686 26.1103 43.7814C26.8317 44.4497 27.7939 44.8397 28.823 44.8397C29.8522 44.8397 30.8156 44.4497 31.5358 43.7814C32.5649 43.7651 33.5235 43.3845 34.24 42.6999C34.9686 42.0036 35.3591 41.08 35.3737 40.1203C36.0744 39.4311 36.4856 38.5132 36.4856 37.5304C36.4856 37.5257 36.4856 37.5211 36.4856 37.5141H37.3627C39.3832 37.5141 41.0267 35.9453 41.0267 34.019V10.093C41.0267 9.83892 40.9987 9.58943 40.9439 9.34691L41.5607 8.76901L39.7676 7.452ZM37.0768 33.7452H33.296L31.863 33.7406L31.419 35.0414L30.6392 36.8179L32.4712 37.5315L30.6404 38.2475L31.4044 39.9904L29.5797 39.2582L28.8279 41.0081L28.0761 39.2582L26.2514 39.9904L27.0154 38.2475L25.1846 37.5315L27.0178 36.8156L26.2453 35.0611L25.794 33.744H19.9598V41.0695H9.12473V32.9283H4.4474C4.40969 32.9283 4.37564 32.897 4.37564 32.8598V3.83971C4.37564 3.83159 4.37563 3.81534 4.3951 3.79445C4.39996 3.79213 4.40605 3.78748 4.41214 3.78284L4.42673 3.77473L24.6299 3.77126L24.6639 3.7782C24.6676 3.77936 24.67 3.78168 24.6737 3.78284L24.6785 3.78748C24.6822 3.7898 24.6858 3.79214 24.6907 3.79562C24.7102 3.81535 24.7101 3.83159 24.7101 3.83971V10.3715H37.078V33.7452H37.0768Z" fill="white"/>
<path d="M26.4638 32.8623C26.4638 33.8254 25.6463 34.6052 24.6391 34.6052H4.44812C3.43966 34.6052 2.62341 33.8254 2.62341 32.8623V3.84214C2.62341 2.88018 3.43966 2.10043 4.44812 2.10043H24.6391C25.6476 2.10043 26.4638 2.88018 26.4638 3.84214V32.8623Z" fill="#AF1524"/>
<path d="M21.3393 17.0785C19.275 11.5331 14.9528 9.98277 9.62591 7.78384C7.62117 6.95532 5.35853 6.12101 3.6871 4.73899C3.2881 4.40828 2.95114 4.05437 2.63851 3.69001C2.63364 3.74223 2.62148 3.78978 2.62148 3.842V32.8621C2.62148 33.8252 3.43774 34.605 4.44619 34.605H22.7577C23.0874 28.6325 23.3161 22.3862 21.3393 17.0785Z" fill="#C52831"/>
<path d="M24.6372 34.815H4.4462C3.3161 34.815 2.39765 33.9401 2.39765 32.861V3.84084C2.39765 2.76284 3.3161 1.88673 4.4462 1.88673H24.6372C25.766 1.88673 26.6857 2.76284 26.6857 3.84084V32.861C26.6857 33.9401 25.766 34.815 24.6372 34.815ZM4.4462 2.31143C3.56182 2.31143 2.84288 2.9984 2.84288 3.84084V32.861C2.84288 33.7046 3.56182 34.3903 4.4462 34.3903H24.6372C25.5215 34.3903 26.2405 33.7034 26.2405 32.861V3.84084C26.2405 2.99724 25.5215 2.31143 24.6372 2.31143H4.4462Z" fill="#231F20"/>
<path d="M4.44619 2.09994C4.0265 2.09994 3.64088 2.23685 3.3319 2.46313L8.44593 7.34024H20.6374L25.7502 2.46313C25.4425 2.23685 25.0568 2.09994 24.6372 2.09994H4.44619Z" fill="#AF1524"/>
<path d="M5.16267 2.09994C4.81111 2.09994 4.48997 2.21481 4.23086 2.40395L8.50676 6.48273H18.7008L22.9755 2.40395C22.7188 2.21481 22.3952 2.09994 22.0449 2.09994H5.16267Z" fill="#C52831"/>
<path d="M20.7299 7.55293H8.3547L2.99615 2.44256L3.19809 2.29521C3.56059 2.02832 3.99243 1.88673 4.44739 1.88673H24.6384C25.0946 1.88673 25.5252 2.02716 25.8877 2.29521L26.0884 2.44256L20.7299 7.55293ZM8.53839 7.12936H20.5462L25.4011 2.49709C25.1675 2.37525 24.9072 2.31143 24.6384 2.31143H4.44739C4.17734 2.31143 3.91702 2.37525 3.68346 2.49709L8.53839 7.12936Z" fill="#231F20"/>
<path d="M14.5424 23.0303C17.9029 23.0303 20.6272 20.4317 20.6272 17.2261C20.6272 14.0205 17.9029 11.4218 14.5424 11.4218C11.1818 11.4218 8.4576 14.0205 8.4576 17.2261C8.4576 20.4317 11.1818 23.0303 14.5424 23.0303Z" fill="#FABF09"/>
<path d="M14.5417 23.2425C12.8569 23.2425 11.273 22.6171 10.0821 21.4811C8.89116 20.3439 8.23427 18.8342 8.23427 17.2248C8.23427 15.6176 8.89116 14.1079 10.0821 12.9708C11.273 11.8347 12.8569 11.2082 14.5417 11.2082C16.2265 11.2082 17.8103 11.8347 19.0025 12.9708C21.4622 15.3159 21.4622 19.1324 19.0025 21.4799C17.8103 22.6171 16.2253 23.2425 14.5417 23.2425ZM14.5417 11.6352C12.9761 11.6352 11.5041 12.2165 10.3972 13.2713C9.28895 14.3284 8.6795 15.7325 8.6795 17.2259C8.6795 18.7194 9.28895 20.1246 10.3972 21.1805C11.5041 22.2365 12.9761 22.819 14.5417 22.819C16.1073 22.819 17.5804 22.2365 18.6874 21.1805C20.9732 19.0002 20.9732 15.4528 18.6874 13.2713C17.5792 12.2165 16.1073 11.6352 14.5417 11.6352Z" fill="#231F20"/>
<path d="M14.575 13.647L10.8088 17.2401L14.5747 20.8318L18.3409 17.2388L14.575 13.647Z" fill="#C52831"/>
<path d="M14.5417 21.1167L10.4628 17.2248L14.5417 13.334L18.6217 17.2248L14.5417 21.1167ZM11.0918 17.2259L14.5417 20.5191L17.9928 17.2259L14.5417 13.9362L11.0918 17.2259Z" fill="#231F20"/>
<path d="M10.4049 29.6464L8.83817 31.1405L10.4036 32.6342L11.9703 31.1401L10.4049 29.6464Z" fill="#FABF09"/>
<path d="M10.4008 32.9607L8.52135 31.1679L10.4008 29.3752L12.2815 31.1679L10.4008 32.9607ZM9.15026 31.1691L10.4008 32.3631L11.6526 31.1691L10.4008 29.9774L9.15026 31.1691Z" fill="#231F20"/>
<path d="M14.5454 29.6457L12.9787 31.1398L14.5441 32.6335L16.1108 31.1394L14.5454 29.6457Z" fill="#FABF09"/>
<path d="M14.5417 32.9607L12.6622 31.1679L14.5417 29.3752L16.4223 31.1679L14.5417 32.9607ZM13.2899 31.1691L14.5404 32.3631L15.7922 31.1691L14.5404 29.9774L13.2899 31.1691Z" fill="#231F20"/>
<path d="M18.668 29.6994L17.1026 31.1931L18.6693 32.6872L20.2347 31.1935L18.668 29.6994Z" fill="#FABF09"/>
<path d="M18.6825 32.9607L16.8019 31.1679L18.6825 29.3752L20.562 31.1679L18.6825 32.9607ZM17.4308 31.1691L18.6825 32.3631L19.9331 31.1691L18.6825 29.9774L17.4308 31.1691Z" fill="#231F20"/>
<path d="M3.43043 6.94142L4.74056 32.9608H3.3319L3.43043 6.94142Z" fill="#F4606E"/>
<path d="M14.7643 3.02975H6.24048L9.54198 5.79728L8.83522 4.2911L14.7643 3.02975Z" fill="#F4606E"/>
<path d="M38.8717 34.0226C38.8717 34.814 38.1977 35.4569 37.3669 35.4569H20.7219C19.8911 35.4569 19.2184 34.8128 19.2184 34.0226V10.0966C19.2184 9.30408 19.8911 8.66239 20.7219 8.66239H37.3669C38.1977 8.66239 38.8717 9.30524 38.8717 10.0966V34.0226Z" fill="#AF1524"/>
<path d="M34.6475 21.0088C32.9456 16.4392 29.3826 15.1593 24.9911 13.3479C23.338 12.6656 21.4731 11.9775 20.0949 10.838C19.7664 10.5665 19.4878 10.2741 19.2299 9.97353C19.2263 10.0153 19.2166 10.0547 19.2166 10.0965V34.0225C19.2166 34.8139 19.8893 35.4568 20.7201 35.4568H35.8165C36.0878 30.5344 36.2763 25.3846 34.6475 21.0088Z" fill="#C52831"/>
<path d="M37.3663 35.6308H20.7213C19.7907 35.6308 19.0341 34.9079 19.0341 34.0214V10.0953C19.0341 9.20762 19.7907 8.48587 20.7213 8.48587H37.3663C38.2969 8.48587 39.0535 9.20762 39.0535 10.0953V34.0214C39.0535 34.9079 38.2969 35.6308 37.3663 35.6308ZM20.7213 8.83631C19.9927 8.83631 19.4003 9.40142 19.4003 10.0965V34.0225C19.4003 34.7164 19.9927 35.2827 20.7213 35.2827H37.3663C38.095 35.2827 38.6874 34.7164 38.6874 34.0225V10.0965C38.6874 9.40142 38.095 8.83631 37.3663 8.83631H20.7213Z" fill="#231F20"/>
<path d="M20.7213 8.66301C20.3759 8.66301 20.0584 8.77556 19.8029 8.96238L24.0192 12.9843H34.0697L38.2847 8.96238C38.0317 8.77556 37.713 8.66301 37.3675 8.66301H20.7213Z" fill="#AF1524"/>
<path d="M21.3125 8.66301C21.023 8.66301 20.7578 8.757 20.5449 8.91365L24.0703 12.2753H32.4737L35.9978 8.91365C35.7861 8.757 35.5197 8.66301 35.2302 8.66301H21.3125Z" fill="#C52831"/>
<path d="M34.1451 13.1576H23.9425L19.5255 8.9454L19.691 8.82354C19.9902 8.60423 20.3467 8.48823 20.7213 8.48823H37.3663C37.7422 8.48823 38.0974 8.60423 38.3954 8.82354L38.5609 8.9454L34.1451 13.1576ZM24.0946 12.8072H33.993L37.9952 8.98949C37.803 8.88853 37.5889 8.83633 37.3663 8.83633H20.7213C20.4987 8.83633 20.2858 8.88853 20.0924 8.98949L24.0946 12.8072Z" fill="#231F20"/>
<path d="M29.045 25.9162C31.8157 25.9162 34.0617 23.7737 34.0617 21.1308C34.0617 18.4879 31.8157 16.3453 29.045 16.3453C26.2743 16.3453 24.0283 18.4879 24.0283 21.1308C24.0283 23.7737 26.2743 25.9162 29.045 25.9162Z" fill="#FABF09"/>
<path d="M29.0444 26.0924C27.6552 26.0924 26.3499 25.576 25.3683 24.6396C24.3853 23.7032 23.8452 22.457 23.8452 21.1318C23.8452 19.8078 24.3866 18.5615 25.3683 17.6263C26.3499 16.6898 27.6552 16.1734 29.0444 16.1734C30.4324 16.1734 31.7377 16.6898 32.7206 17.6263C34.7485 19.5595 34.7485 22.7076 32.7206 24.6408C31.7377 25.5749 30.4324 26.0924 29.0444 26.0924ZM29.0444 16.5204C27.7525 16.5204 26.5397 17.0008 25.6274 17.8711C24.7138 18.7414 24.2102 19.8995 24.2102 21.1306C24.2102 22.3641 24.7138 23.5222 25.6274 24.3925C26.5397 25.2628 27.7538 25.7432 29.0444 25.7432C30.3351 25.7432 31.5479 25.2628 32.4615 24.3925C34.3458 22.595 34.3458 19.6697 32.4615 17.8722C31.5479 17.0019 30.3339 16.5204 29.0444 16.5204Z" fill="#231F20"/>
<path d="M29.0365 18.1695L25.9327 21.1318L29.0382 24.0925L32.142 21.1302L29.0365 18.1695Z" fill="#C52831"/>
<path d="M29.0444 24.3402L25.6809 21.1306L29.0444 17.9233L32.4068 21.1306L29.0444 24.3402ZM26.1991 21.1306L29.0432 23.8459L31.8873 21.1306L29.0432 18.4176L26.1991 21.1306Z" fill="#231F20"/>
<path d="M25.6167 31.4222L24.3259 32.6528L25.6168 33.8848L26.9075 32.6543L25.6167 31.4222Z" fill="#FABF09"/>
<path d="M25.631 34.1037L24.0812 32.6265L25.631 31.147L27.1808 32.6265L25.631 34.1037ZM24.5995 32.6254L25.631 33.6094L26.6626 32.6254L25.631 31.6414L24.5995 32.6254Z" fill="#231F20"/>
<path d="M29.0292 31.4229L27.7385 32.6534L29.0293 33.8855L30.3201 32.6549L29.0292 31.4229Z" fill="#FABF09"/>
<path d="M29.0444 34.1037L27.4946 32.6265L29.0444 31.147L30.5942 32.6265L29.0444 34.1037ZM28.0116 32.6254L29.0432 33.6094L30.0748 32.6254L29.0432 31.6414L28.0116 32.6254Z" fill="#231F20"/>
<path d="M32.4425 31.4228L31.1518 32.6533L32.4426 33.8854L33.7334 32.6548L32.4425 31.4228Z" fill="#FABF09"/>
<path d="M32.4566 34.1037L30.9068 32.6265L32.4566 31.147L34.0064 32.6265L32.4566 34.1037ZM31.4251 32.6254L32.4566 33.6094L33.4882 32.6254L32.4566 31.6414L31.4251 32.6254Z" fill="#231F20"/>
<path d="M19.8844 12.6528L20.9634 34.1037H19.8029L19.8844 12.6528Z" fill="#F4606E"/>
<path d="M29.2269 9.4281H22.2006L24.9218 11.7094L24.3391 10.4678L29.2269 9.4281Z" fill="#F4606E"/>
<path d="M21.8008 41.7659C21.8008 42.3507 21.3032 42.8265 20.6889 42.8265H8.39406C7.78096 42.8265 7.2822 42.3507 7.2822 41.7659V24.0932C7.2822 23.5084 7.77974 23.0326 8.39406 23.0326H20.6889C21.302 23.0326 21.8008 23.5084 21.8008 24.0932V41.7659Z" fill="#AF1524"/>
<path d="M18.6813 32.1543C17.4247 28.7776 14.7923 27.8341 11.5479 26.4951C10.3278 25.9891 8.94955 25.4821 7.93136 24.6408C7.68928 24.4389 7.48371 24.2242 7.29272 24.0014C7.29029 24.0304 7.283 24.0606 7.283 24.0919V41.7646C7.283 42.3494 7.78053 42.8252 8.39485 42.8252H19.5462C19.7457 39.192 19.8844 35.386 18.6813 32.1543Z" fill="#C52831"/>
<path d="M20.6897 42.956H8.39363C7.70632 42.956 7.14676 42.4211 7.14676 41.7667V24.0939C7.14676 23.4395 7.70511 22.9046 8.39363 22.9046H20.6885C21.3758 22.9046 21.9354 23.4395 21.9354 24.0939V41.7667C21.9366 42.4211 21.377 42.956 20.6897 42.956ZM8.39363 23.161C7.85473 23.161 7.41802 23.5799 7.41802 24.0928V41.7655C7.41802 42.2795 7.85473 42.6973 8.39363 42.6973H20.6885C21.2262 42.6973 21.6641 42.2807 21.6641 41.7655V24.0928C21.6641 23.5811 21.2262 23.161 20.6885 23.161H8.39363Z" fill="#231F20"/>
<path d="M8.39427 23.0326C8.13881 23.0326 7.90403 23.1162 7.71548 23.2543L10.8309 26.226H18.255L21.3679 23.2543C21.1806 23.1162 20.9458 23.0326 20.6904 23.0326H8.39427Z" fill="#AF1524"/>
<path d="M8.83034 23.0331C8.61624 23.0331 8.4204 23.1039 8.26348 23.2187L10.8679 25.7031H17.0756L19.6788 23.2187C19.5219 23.1027 19.3261 23.0331 19.112 23.0331H8.83034Z" fill="#C52831"/>
<path d="M18.3103 26.3547H10.7743L7.51168 23.2426L7.63456 23.1521C7.85595 22.9884 8.11871 22.9026 8.39485 22.9026H20.6897C20.9671 22.9026 21.2286 22.9884 21.45 23.1521L21.5716 23.2426L18.3103 26.3547ZM10.8862 26.0959H18.1984L21.1544 23.2739C21.0121 23.1996 20.8539 23.1602 20.6897 23.1602H8.39363C8.2294 23.1602 8.07126 23.1984 7.92893 23.2739L10.8862 26.0959Z" fill="#231F20"/>
<path d="M14.5421 35.7794C16.5885 35.7794 18.2475 34.197 18.2475 32.2449C18.2475 30.2928 16.5885 28.7103 14.5421 28.7103C12.4957 28.7103 10.8367 30.2928 10.8367 32.2449C10.8367 34.197 12.4957 35.7794 14.5421 35.7794Z" fill="#FABF09"/>
<path d="M14.5417 35.9093C13.5162 35.9093 12.5515 35.5264 11.8265 34.8348C11.1015 34.1432 10.7013 33.223 10.7013 32.2448C10.7013 31.2666 11.1015 30.3453 11.8265 29.6548C12.5515 28.9644 13.5162 28.5803 14.5417 28.5803C15.5672 28.5803 16.5318 28.9632 17.2581 29.6548C18.7555 31.0821 18.7555 33.4075 17.2581 34.836C16.5318 35.5264 15.5672 35.9093 14.5417 35.9093ZM14.5417 28.8391C13.588 28.8391 12.6914 29.1953 12.0175 29.8358C11.3424 30.4798 10.9713 31.3362 10.9713 32.2448C10.9713 33.1534 11.3424 34.0097 12.0175 34.6538C12.6914 35.2955 13.588 35.6505 14.5417 35.6505C15.4954 35.6505 16.3919 35.2943 17.0671 34.6538C18.4587 33.3251 18.4587 31.1633 17.0671 29.8358C16.3919 29.1941 15.4954 28.8391 14.5417 28.8391Z" fill="#231F20"/>
<path d="M14.5362 30.0572L12.2436 32.2441L14.5362 34.431L16.8288 32.2441L14.5362 30.0572Z" fill="#C52831"/>
<path d="M14.5417 34.6155L12.0576 32.2448L14.5417 29.8764L17.0257 32.2448L14.5417 34.6155ZM12.4408 32.2448L14.5417 34.2488L16.6437 32.2448L14.5417 30.2408L12.4408 32.2448Z" fill="#231F20"/>
<path d="M12.0149 39.823L11.0618 40.7322L12.0149 41.6415L12.9681 40.7322L12.0149 39.823Z" fill="#FABF09"/>
<path d="M12.0211 41.8273L10.8764 40.7353L12.0211 39.6434L13.1658 40.7353L12.0211 41.8273ZM11.2584 40.7353L12.0199 41.4629L12.7814 40.7353L12.0199 40.0078L11.2584 40.7353Z" fill="#231F20"/>
<path d="M14.5476 39.7925L13.5939 40.7012L14.5465 41.6109L15.5002 40.7022L14.5476 39.7925Z" fill="#FABF09"/>
<path d="M14.5417 41.8273L13.397 40.7353L14.5417 39.6434L15.6876 40.7353L14.5417 41.8273ZM13.7802 40.7353L14.5417 41.4629L15.3032 40.7353L14.5417 40.0078L13.7802 40.7353Z" fill="#231F20"/>
<path d="M17.0571 39.8231L16.104 40.7323L17.0571 41.6416L18.0103 40.7323L17.0571 39.8231Z" fill="#FABF09"/>
<path d="M17.0634 41.8273L15.9187 40.7353L17.0634 39.6434L18.2081 40.7353L17.0634 41.8273ZM16.3007 40.7353L17.0622 41.4629L17.8237 40.7353L17.0622 40.0078L16.3007 40.7353Z" fill="#231F20"/>
<path d="M7.77567 25.9834L8.57245 41.8273H7.71484L7.77567 25.9834Z" fill="#F4606E"/>
<path d="M14.6779 23.5987H9.48723L11.4981 25.2848L11.0674 24.3669L14.6779 23.5987Z" fill="#F4606E"/>
<path d="M24.9462 36.4489C25.76 37.2264 28.0384 38.2255 28.7963 37.5026C29.5542 36.7796 28.5043 34.6085 27.6905 33.8311C26.8767 33.0536 25.6018 33.0107 24.8452 33.7336C24.0861 34.4577 24.1323 35.6714 24.9462 36.4489Z" fill="#FFDDBB"/>
<path d="M28.0165 37.8019C27.0287 37.8019 25.5617 37.1057 24.9096 36.4826C24.0764 35.6888 24.0301 34.4402 24.8075 33.6976C25.1651 33.3576 25.6505 33.1696 26.1748 33.1696C26.7453 33.1696 27.3109 33.3982 27.7282 33.7951C28.5785 34.6062 29.6052 36.8028 28.834 37.5396C28.6491 37.7137 28.3741 37.8019 28.0165 37.8019ZM26.1735 33.2694C25.6784 33.2694 25.2198 33.4458 24.8817 33.7707C24.1457 34.4728 24.1919 35.6586 24.9826 36.4129C25.62 37.0221 27.0531 37.7021 28.0153 37.7021C28.345 37.7021 28.5943 37.6232 28.7573 37.4665C29.4738 36.7842 28.4556 34.634 27.6516 33.867C27.255 33.4876 26.7161 33.2694 26.1735 33.2694Z" fill="#BA9E85"/>
<path d="M26.6577 36.9189C27.1103 37.3494 28.3754 37.9052 28.7963 37.5037C29.2172 37.1022 28.6345 35.8966 28.182 35.4637C27.7294 35.0332 27.0215 35.0077 26.6006 35.4092C26.1797 35.8107 26.2052 36.486 26.6577 36.9189Z" fill="#FFC32C"/>
<path d="M28.3632 37.694C27.8085 37.6916 26.9862 37.3018 26.62 36.9525C26.148 36.5034 26.1225 35.7944 26.564 35.3755C26.7672 35.1806 27.0433 35.0738 27.3401 35.0738C27.6625 35.0738 27.9837 35.2026 28.2197 35.4277C28.6904 35.8791 29.2865 37.1068 28.8328 37.5396C28.7257 37.6417 28.5676 37.694 28.3632 37.694ZM27.3389 35.1736C27.0701 35.1736 26.8207 35.2711 26.637 35.4451C26.2368 35.8257 26.2624 36.4721 26.693 36.8817C27.0372 37.2101 27.8413 37.5907 28.362 37.5907C28.5384 37.5907 28.671 37.5501 28.7573 37.4665C29.1466 37.0975 28.5834 35.9186 28.143 35.4997C27.9277 35.2931 27.6333 35.1736 27.3389 35.1736Z" fill="#BA9E85"/>
<path d="M29.9641 41.2355C29.1503 40.458 28.1005 38.287 28.8583 37.564C29.6162 36.8411 31.8934 37.8402 32.7085 38.6177C33.5223 39.3928 33.5685 40.6101 32.8094 41.333C32.0516 42.0559 30.7779 42.0106 29.9641 41.2355Z" fill="#FFDDBB"/>
<path d="M31.481 41.898C30.9105 41.898 30.3448 41.6694 29.9276 41.2702C29.0785 40.4615 28.0518 38.2626 28.8218 37.528C29.0055 37.354 29.2804 37.2623 29.6381 37.2623C30.6258 37.2623 32.0929 37.9608 32.7461 38.5816C33.5794 39.3777 33.6256 40.6262 32.8471 41.3666C32.4895 41.71 32.0041 41.898 31.481 41.898ZM29.6368 37.3644C29.3072 37.3644 29.0578 37.4433 28.8948 37.5977C28.1783 38.2823 29.1977 40.4324 30.0006 41.1995C30.3983 41.5801 30.9385 41.7982 31.4798 41.7982C31.9749 41.7982 32.4335 41.6195 32.7717 41.2969C33.5076 40.5949 33.4614 39.409 32.6695 38.6524C32.0321 38.0444 30.5991 37.3644 29.6368 37.3644Z" fill="#BA9E85"/>
<path d="M29.4716 39.6045C29.0191 39.1716 28.4364 37.966 28.8573 37.5645C29.2782 37.1607 30.5445 37.7188 30.9958 38.1493C31.4472 38.5798 31.4739 39.2552 31.0518 39.6567C30.6309 40.0605 29.9241 40.035 29.4716 39.6045Z" fill="#FFC32C"/>
<path d="M30.3156 39.9943C29.9933 39.9943 29.6721 39.8655 29.4361 39.6381C28.9641 39.189 28.3681 37.9613 28.8218 37.5285C28.9288 37.4264 29.087 37.3741 29.2914 37.3741C29.8461 37.3741 30.6684 37.7641 31.0346 38.1133C31.2633 38.3315 31.3946 38.6169 31.4056 38.9128C31.4165 39.2122 31.3046 39.4884 31.0917 39.6926C30.8874 39.8876 30.6124 39.9943 30.3156 39.9943ZM29.2914 37.4763C29.115 37.4763 28.9824 37.5169 28.896 37.5981C28.5067 37.9694 29.0699 39.1461 29.5103 39.5673C29.7268 39.7738 30.02 39.891 30.3156 39.891C30.5845 39.891 30.8338 39.7959 31.0175 39.6218C31.2097 39.4362 31.3107 39.1867 31.301 38.9151C31.2912 38.6436 31.1696 38.3848 30.9603 38.1853C30.6161 37.8569 29.812 37.4763 29.2914 37.4763Z" fill="#BA9E85"/>
<path d="M29.9641 33.8311C29.1503 34.6086 28.1005 36.7797 28.8583 37.5026C29.6162 38.2255 31.8934 37.2264 32.7085 36.4489C33.5223 35.6715 33.5673 34.4566 32.8094 33.7336C32.0516 33.0107 30.7779 33.0548 29.9641 33.8311Z" fill="#FFDDBB"/>
<path d="M29.6381 37.8019C29.2804 37.8019 29.0055 37.7137 28.8218 37.5385C28.0506 36.8016 29.0773 34.6062 29.9276 33.7939C30.3448 33.3971 30.9117 33.1685 31.481 33.1685C32.0041 33.1685 32.4895 33.3565 32.8471 33.6965C33.6244 34.4403 33.5794 35.6888 32.7461 36.4837C32.0917 37.1068 30.6246 37.8019 29.6381 37.8019ZM31.481 33.2694C30.9385 33.2694 30.3996 33.4876 30.0018 33.8682C29.1977 34.634 28.1795 36.7854 28.896 37.4677C29.059 37.6244 29.3084 37.7032 29.6368 37.7032C30.6003 37.7032 32.0321 37.0233 32.6707 36.4141C33.4626 35.6598 33.5076 34.4739 32.7717 33.7719C32.4347 33.4458 31.9749 33.2694 31.481 33.2694Z" fill="#BA9E85"/>
<path d="M29.4716 35.4637C29.0191 35.8942 28.4364 37.1022 28.8573 37.5037C29.2782 37.9052 30.5433 37.3494 30.9958 36.9189C31.4484 36.486 31.4739 35.8107 31.0518 35.4092C30.6321 35.0077 29.9241 35.0332 29.4716 35.4637Z" fill="#FFC32C"/>
<path d="M29.2914 37.694C29.087 37.6916 28.9289 37.6417 28.8218 37.5396C28.3681 37.1068 28.9654 35.8779 29.4361 35.4277C29.6721 35.2038 29.9933 35.0738 30.3169 35.0738C30.6137 35.0738 30.8886 35.1806 31.0918 35.3755C31.3059 35.5797 31.4178 35.8559 31.4068 36.1553C31.3959 36.4524 31.2633 36.7355 31.0358 36.9536C30.6684 37.3017 29.8449 37.694 29.2914 37.694ZM30.3156 35.1736C30.02 35.1736 29.7269 35.2943 29.5103 35.4997C29.0688 35.9186 28.5068 37.0975 28.896 37.4665C28.9824 37.5501 29.115 37.5907 29.2914 37.5907C29.812 37.5907 30.6161 37.2101 30.9604 36.8817C31.1696 36.6821 31.29 36.4222 31.301 36.1495C31.3119 35.8803 31.211 35.6285 31.0176 35.4451C30.8327 35.2711 30.5845 35.1736 30.3156 35.1736Z" fill="#BA9E85"/>
<path d="M24.9462 38.6177C25.76 37.8402 28.0384 36.8411 28.7963 37.564C29.5542 38.2846 28.5056 40.458 27.6905 41.2355C26.8767 42.0106 25.6031 42.0559 24.8452 41.333C24.0874 40.6101 24.1324 39.3928 24.9462 38.6177Z" fill="#FFDDBB"/>
<path d="M26.1736 41.8981C25.6505 41.8981 25.1651 41.7101 24.8063 41.3678C24.0289 40.6263 24.0752 39.3777 24.9084 38.5828C25.5617 37.962 27.0287 37.2635 28.0153 37.2635C28.3729 37.2635 28.6479 37.354 28.8315 37.5292C29.3072 37.9829 29.0663 38.8938 28.8814 39.3963C28.6187 40.1099 28.1552 40.8653 27.727 41.2703C27.3098 41.6683 26.7441 41.8981 26.1736 41.8981ZM28.0165 37.3644C27.0543 37.3644 25.6213 38.0444 24.9839 38.6536C24.1919 39.4079 24.1457 40.5938 24.8829 41.2958C25.2211 41.6172 25.6797 41.7971 26.1748 41.7971C26.7173 41.7971 27.2562 41.579 27.654 41.1984C28.0712 40.7992 28.525 40.0623 28.7841 39.3603C28.9617 38.8799 29.1941 38.0119 28.7598 37.5965C28.5943 37.4445 28.345 37.3644 28.0165 37.3644Z" fill="#BA9E85"/>
<path d="M26.6577 38.1493C27.1103 37.7188 28.3754 37.1607 28.7963 37.5645C29.2172 37.966 28.6345 39.1716 28.182 39.6045C27.7294 40.035 27.0215 40.0605 26.6018 39.6567C26.1797 39.2552 26.2052 38.5798 26.6577 38.1493Z" fill="#FFC32C"/>
<path d="M27.3389 39.9943C27.0421 39.9943 26.7672 39.8876 26.5628 39.6926C26.1225 39.2737 26.148 38.5636 26.6188 38.1133C26.9849 37.7641 27.8085 37.3741 28.362 37.3741C28.5676 37.3741 28.7257 37.4264 28.8315 37.5285C29.2865 37.9613 28.6892 39.1902 28.2184 39.6381C27.9825 39.8655 27.6613 39.9943 27.3389 39.9943ZM28.3632 37.4763C27.8426 37.4763 27.0397 37.8569 26.6942 38.1853C26.2636 38.596 26.238 39.2412 26.6383 39.6218C26.8219 39.7959 27.0701 39.891 27.3402 39.891C27.6358 39.891 27.9289 39.7727 28.1455 39.5673C28.5858 39.1461 29.149 37.9694 28.7586 37.5981C28.6722 37.5169 28.5396 37.4763 28.3632 37.4763Z" fill="#BA9E85"/>
<path d="M32.3752 35.683C31.2244 35.683 28.8717 36.5104 28.8717 37.5327C28.8717 38.555 31.2244 39.3847 32.3752 39.3847C33.5259 39.3847 34.459 38.555 34.459 37.5327C34.459 36.5104 33.5259 35.683 32.3752 35.683Z" fill="#FFDDBB"/>
<path d="M32.3752 39.4345C31.1733 39.4345 28.8194 38.5735 28.8194 37.5327C28.8194 36.4918 31.1745 35.6331 32.3752 35.6331C33.5539 35.6331 34.5125 36.4848 34.5125 37.5327C34.5125 38.5817 33.5539 39.4345 32.3752 39.4345ZM32.3752 35.7329C31.239 35.7329 28.9252 36.5672 28.9252 37.5327C28.9252 38.5004 31.239 39.3347 32.3752 39.3347C33.4955 39.3347 34.4067 38.5283 34.4067 37.5327C34.4067 36.5394 33.4955 35.7329 32.3752 35.7329Z" fill="#BA9E85"/>
<path d="M30.8181 36.5057C30.1782 36.5057 28.8717 36.9653 28.8717 37.5327C28.8717 38.1013 30.1782 38.5619 30.8181 38.5619C31.4567 38.5619 31.9762 38.1024 31.9762 37.5327C31.9762 36.9664 31.4567 36.5057 30.8181 36.5057Z" fill="#FFC32C"/>
<path d="M30.8181 38.6118C30.1514 38.6118 28.8182 38.1454 28.8182 37.5327C28.8182 36.92 30.1502 36.4558 30.8181 36.4558C31.4859 36.4558 32.0284 36.9386 32.0284 37.5327C32.0284 38.1291 31.4847 38.6118 30.8181 38.6118ZM30.8181 36.5556C30.194 36.5556 28.924 37.0093 28.924 37.5327C28.924 38.0583 30.194 38.512 30.8181 38.512C31.4275 38.512 31.9238 38.0723 31.9238 37.5327C31.9238 36.9954 31.4275 36.5556 30.8181 36.5556Z" fill="#BA9E85"/>
<path d="M25.2795 35.683C26.4303 35.683 28.7829 36.5104 28.7829 37.5327C28.7829 38.555 26.4303 39.3847 25.2795 39.3847C24.1287 39.3847 23.1957 38.555 23.1957 37.5327C23.1957 36.5104 24.1287 35.683 25.2795 35.683Z" fill="#FFDDBB"/>
<path d="M25.2794 39.4345C24.1007 39.4345 23.1421 38.5828 23.1421 37.5327C23.1421 36.486 24.1007 35.6331 25.2794 35.6331C26.4813 35.6331 28.8352 36.4918 28.8352 37.5327C28.8352 38.5735 26.4813 39.4345 25.2794 39.4345ZM25.2794 35.7329C24.1591 35.7329 23.2479 36.5394 23.2479 37.5327C23.2479 38.5271 24.1591 39.3347 25.2794 39.3347C26.4156 39.3347 28.7306 38.5004 28.7306 37.5327C28.7306 36.5672 26.4156 35.7329 25.2794 35.7329Z" fill="#BA9E85"/>
<path d="M26.8366 36.5057C27.4764 36.5057 28.7841 36.9653 28.7841 37.5327C28.7841 38.1013 27.4764 38.5619 26.8366 38.5619C26.1979 38.5619 25.6785 38.1024 25.6785 37.5327C25.6785 36.9664 26.1967 36.5057 26.8366 36.5057Z" fill="#FFC32C"/>
<path d="M26.8365 38.6118C26.1687 38.6118 25.6261 38.1291 25.6261 37.5327C25.6261 36.9386 26.1687 36.4558 26.8365 36.4558C27.5032 36.4558 28.8364 36.92 28.8364 37.5327C28.8364 38.1454 27.5032 38.6118 26.8365 38.6118ZM26.8365 36.5556C26.2271 36.5556 25.7308 36.9954 25.7308 37.5327C25.7308 38.0723 26.2271 38.512 26.8365 38.512C27.4606 38.512 28.7306 38.0583 28.7306 37.5327C28.7306 37.0093 27.4594 36.5556 26.8365 36.5556Z" fill="#BA9E85"/>
<path d="M30.7682 40.9187C30.7682 39.8199 29.8996 37.5757 28.8279 37.5757C27.7562 37.5757 26.8876 39.8199 26.8876 40.9187C26.8876 42.0153 27.7562 42.9065 28.8279 42.9065C29.8996 42.9065 30.7682 42.0153 30.7682 40.9187Z" fill="#FFDDBB"/>
<path d="M28.8267 42.9563C27.7282 42.9563 26.8341 42.0431 26.8341 40.9187C26.8341 39.7722 27.7367 37.5257 28.8267 37.5257C29.9166 37.5257 30.8193 39.7722 30.8193 40.9187C30.8205 42.0431 29.9264 42.9563 28.8267 42.9563ZM28.8267 37.6255C27.8134 37.6255 26.9387 39.8326 26.9387 40.9187C26.9387 41.9863 27.7854 42.8565 28.8267 42.8565C29.868 42.8565 30.7146 41.9863 30.7146 40.9187C30.7146 39.8326 29.8412 37.6255 28.8267 37.6255Z" fill="#BA9E85"/>
<path d="M29.9057 39.4323C29.9057 38.8231 29.424 37.5757 28.8279 37.5757C28.2331 37.5757 27.7501 38.8219 27.7501 39.4323C27.7501 40.0426 28.2331 40.5381 28.8279 40.5381C29.4228 40.5381 29.9057 40.0415 29.9057 39.4323Z" fill="#FFC32C"/>
<path d="M28.8267 40.588C28.2038 40.588 27.6966 40.0693 27.6966 39.4322C27.6966 38.7975 28.1856 37.5257 28.8267 37.5257C29.469 37.5257 29.958 38.7975 29.958 39.4322C29.958 40.0681 29.4507 40.588 28.8267 40.588ZM28.8267 37.6255C28.2756 37.6255 27.8012 38.8381 27.8012 39.4322C27.8012 40.0148 28.261 40.4859 28.8267 40.4859C29.3923 40.4859 29.8522 40.0148 29.8522 39.4322C29.8522 38.8381 29.3777 37.6255 28.8267 37.6255Z" fill="#BA9E85"/>
<path d="M30.7682 34.149C30.7682 35.2479 29.8996 37.4921 28.8279 37.4921C27.7562 37.4921 26.8876 35.2479 26.8876 34.149C26.8876 33.0525 27.7562 32.1613 28.8279 32.1613C29.8996 32.1613 30.7682 33.0525 30.7682 34.149Z" fill="#FFDDBB"/>
<path d="M28.8267 37.542C27.7367 37.542 26.8341 35.2955 26.8341 34.149C26.8341 33.0246 27.7282 32.1113 28.8267 32.1113C29.9252 32.1113 30.8193 33.0246 30.8193 34.149C30.8205 35.2955 29.9179 37.542 28.8267 37.542ZM28.8267 32.2112C27.7866 32.2112 26.9387 33.0814 26.9387 34.149C26.9387 35.2328 27.8121 37.4422 28.8267 37.4422C29.8412 37.4422 30.7146 35.2328 30.7146 34.149C30.7146 33.0814 29.868 32.2112 28.8267 32.2112Z" fill="#BA9E85"/>
<path d="M29.9057 35.6355C29.9057 36.2447 29.424 37.4921 28.8279 37.4921C28.2331 37.4921 27.7501 36.2458 27.7501 35.6355C27.7501 35.024 28.2331 34.5296 28.8279 34.5296C29.4228 34.5296 29.9057 35.024 29.9057 35.6355Z" fill="#FFC32C"/>
<path d="M28.8267 37.542C28.1856 37.542 27.6966 36.2702 27.6966 35.6354C27.6966 34.9984 28.2038 34.4797 28.8267 34.4797C29.4507 34.4797 29.958 34.9984 29.958 35.6354C29.958 36.2702 29.469 37.542 28.8267 37.542ZM28.8267 34.5795C28.261 34.5795 27.8012 35.0529 27.8012 35.6354C27.8012 36.2296 28.2756 37.4422 28.8267 37.4422C29.3777 37.4422 29.8522 36.2296 29.8522 35.6354C29.8522 35.0529 29.3923 34.5795 28.8267 34.5795Z" fill="#BA9E85"/>
<path d="M28.9411 39.1074C29.7896 39.1074 30.4775 38.4512 30.4775 37.6418C30.4775 36.8324 29.7896 36.1762 28.9411 36.1762C28.0925 36.1762 27.4046 36.8324 27.4046 37.6418C27.4046 38.4512 28.0925 39.1074 28.9411 39.1074Z" fill="#BC0A0A"/>
<path d="M28.941 39.1572C28.0652 39.1572 27.3523 38.4772 27.3523 37.6406C27.3523 36.8063 28.0652 36.1263 28.941 36.1263C29.8169 36.1263 30.5297 36.8063 30.5297 37.6406C30.5297 38.4772 29.8169 39.1572 28.941 39.1572ZM28.941 36.2272C28.1223 36.2272 27.4569 36.862 27.4569 37.6417C27.4569 38.4238 28.1223 39.0586 28.941 39.0586C29.7585 39.0586 30.4239 38.4238 30.4239 37.6417C30.4239 36.862 29.7585 36.2272 28.941 36.2272Z" fill="#BA9E85"/>
</svg>
