<svg width="67" height="123" viewBox="0 0 67 123" fill="none" xmlns="http://www.w3.org/2000/svg">
<path d="M66.1064 72.9979C64.7243 69.395 59.1677 68.6391 54.7517 68.6391C54.0368 68.6391 53.5795 68.6622 53.5591 68.6632L52.8992 68.6973L52.6792 68.876C49.247 69.924 46.9993 71.6286 46.0939 73.8562C45.0093 74.2698 43.4826 75.0147 41.6973 76.3448C39.8315 77.7352 38.0401 79.49 36.3423 81.5881L35.8728 73.5751C39.1879 72.8142 44.8667 70.2965 47.8528 64.2732H47.8813L48.4109 63.0736C48.8824 62.0245 59.9315 37.1876 57.4007 21.6396L57.0931 19.7463L55.1672 19.9782C54.9422 20.0043 50.3398 20.6016 45.6214 23.8562C44.8209 21.9066 43.9419 20.6116 43.89 20.5343L42.8532 19.0225C42.8532 19.0225 41.2023 19.935 41.183 19.9451C43.7281 16.6493 45.9473 14.8082 47.2305 13.9017C47.4678 13.9549 47.7132 13.98 47.9607 13.98C49.797 13.98 51.291 12.5093 51.291 10.6994C51.291 8.88937 49.797 7.41667 47.9607 7.41667C46.4483 7.41667 45.1682 8.41652 44.7648 9.7828C43.0192 10.9784 41.3581 12.5726 39.8906 14.2119C40.9416 11.7514 41.9835 10.1061 42.6852 9.14735C42.9286 9.12225 43.17 9.07006 43.4032 8.99276C45.1427 8.41653 46.0817 6.55135 45.4971 4.83673C45.0419 3.50057 43.7739 2.60107 42.342 2.60107C41.9814 2.60107 41.625 2.65932 41.2797 2.77276C40.4375 3.05183 39.7561 3.63808 39.3599 4.42311C39.3589 4.42512 39.3579 4.42614 39.3579 4.42915C39.528 3.5889 39.3681 2.6834 38.8365 1.92246C38.2152 1.03403 37.1896 0.502976 36.0938 0.502976C35.4186 0.502976 34.7657 0.702736 34.2066 1.0812C32.9611 1.92646 32.4824 3.46641 32.9346 4.81562C32.0109 7.23195 31.5352 10.0649 31.3061 12.7101C31.0026 12.4963 30.694 12.2935 30.3834 12.1038L28.7916 11.126L27.6916 12.6218C27.5684 12.7894 25.1028 16.1685 22.9752 20.8807C21.8651 19.9441 20.9261 19.3106 20.1368 18.9633L18.6142 18.2927L17.664 19.6449C17.5897 19.7513 16.228 21.7028 15.1108 24.3119C12.1369 22.3724 9.30259 21.1537 6.65667 20.6809L4.83569 20.3556L4.35497 22.1174C4.29081 22.3493 2.80999 27.9168 3.72354 35.8244C4.55561 43.0292 7.62013 53.6261 17.4705 63.3778C19.0542 67.0208 22.6116 72.6034 29.7947 73.7549L29.8874 79.5151C26.2526 75.2878 22.9426 73.4507 20.919 72.6626C20.0166 70.3607 17.6722 68.5628 14.1616 67.5148L14.0822 67.4495L13.909 67.4434C13.8948 67.4394 10.1642 66.3884 10.1642 66.3884L10.5267 67.4335C6.48556 67.6272 2.08386 68.5999 0.872932 71.7531L0.552119 72.5903L1.66527 74.6613C1.77118 75.361 2.10016 76.5406 3.1074 77.7071C4.84996 79.7269 7.74946 80.7498 11.7234 80.7498C11.978 80.7498 12.2398 80.7458 12.5097 80.7368L13.0525 80.7197L13.0759 80.7037C14.5343 80.5923 18.1131 80.1134 20.0492 78.0866C24.2248 80.4768 27.8566 85.6407 30.0575 90.121L30.0666 90.6792L11.8477 91.0707L11.7316 92.8867C11.7163 93.1086 11.4006 98.3809 13.0688 104.516C15.3328 112.839 20.1837 119.121 27.0979 121.962L27.4686 122.497H44.1813L44.5255 121.984C45.049 121.79 57.3355 116.727 57.1634 92.3024L57.1491 90.1943L37.2813 90.5717C38.0676 89.1021 39.2805 87.0181 40.8611 84.9601C42.842 82.3812 44.8596 80.4838 46.8781 79.3234C48.8071 81.3903 52.4541 81.8541 53.9186 81.9605L53.9359 81.9696L54.2761 81.9786C54.3627 81.9826 54.4299 81.9836 54.4767 81.9856L60.3155 82.1422L59.5282 81.4987C61.3757 81.0099 62.829 80.1586 63.8709 78.9519C64.8781 77.7854 65.2071 76.6059 65.313 75.9062L66.4251 73.8351L66.1064 72.9979ZM39.0738 5.25031C39.0229 5.5053 39.0035 5.76428 39.0137 6.02328C37.9932 7.37651 37.1092 8.94858 36.3525 10.5628C36.6611 8.89136 37.0379 7.6526 37.3373 6.83143C37.5634 6.74208 37.7804 6.62764 37.984 6.4891C38.4648 6.16184 38.8314 5.73318 39.0738 5.25031Z" fill="#FCFAFA" stroke="black" stroke-miterlimit="10"/>
<path d="M17.9808 74.078C17.9808 74.078 24.9235 75.0357 31.6208 85.8254L31.8326 90.4081C31.8326 90.4081 27.1468 78.1839 17.9808 75.3178V74.078Z" fill="#546C1E"/>
<path d="M14.9641 70.7361L13.3173 69.3989C13.3173 69.3989 4.1136 68.9201 2.75703 72.4558L3.62781 74.078C3.62781 74.078 3.62782 79.0432 12.4445 78.7571C12.4445 78.7571 17.0947 75.9874 14.9641 70.7361Z" fill="#29ABE2"/>
<path d="M13.3163 69.4546L14.0913 71.8027H12.3478L14.0913 73.8104H12.3478L14.0913 74.6607L11.863 75.0853L14.0913 75.8714L11.863 76.7899L14.0913 77.4385L12.4445 78.7666C12.4445 78.7666 19.2263 78.6009 19.3231 75.0673C19.4198 71.5316 15.3511 70.0278 13.3163 69.4546Z" fill="#5F8305"/>
<path d="M48.5341 75.3239C48.5341 75.3239 41.8256 76.2825 35.1263 87.0712L34.7994 91.6539C34.7994 91.6539 39.3671 79.4287 48.5331 76.5646V75.3239H48.5341Z" fill="#546C1E"/>
<path d="M52.0182 71.9812L53.665 70.644C53.665 70.644 62.8687 70.1672 64.2243 73.7008L63.3525 75.3241C63.3525 75.3241 63.3525 80.2892 54.5378 80.0021C54.5378 80.0021 49.8876 77.2334 52.0182 71.9812Z" fill="#29ABE2"/>
<path d="M53.6651 70.5775L52.889 72.8061H54.6336L52.889 73.81H54.6336L52.889 75.2827L55.1174 76.0185L52.889 76.9602L55.1174 77.955L52.889 78.6446L54.5368 79.9929C54.5368 79.9929 47.754 79.774 47.6562 76.2414C47.5605 72.7067 51.6302 71.1517 53.6651 70.5775Z" fill="#5F8305"/>
<path d="M47.9607 9.40231C47.2335 9.40231 46.6439 9.98356 46.6439 10.7013C46.6439 10.7786 46.652 10.8539 46.6652 10.9292C41.02 14.3093 35.9156 22.9667 35.9156 22.9667L36.3504 23.5028C41.1127 15.5601 45.7191 12.431 47.0543 11.643C47.2906 11.8638 47.6093 11.9993 47.9607 11.9993C48.6899 11.9993 49.2786 11.4191 49.2786 10.7013C49.2786 9.98356 48.6899 9.40231 47.9607 9.40231Z" fill="#F9C000"/>
<path d="M41.9224 4.65507C41.2319 4.88395 40.8611 5.6208 41.0944 6.29942C41.1188 6.37371 41.1514 6.44296 41.1881 6.50921C36.931 11.4874 34.892 21.2963 34.892 21.2963L35.4786 21.6667C37.4218 12.6419 40.7766 8.22985 41.7869 7.06133C42.0833 7.19686 42.4285 7.22599 42.7615 7.11657C43.452 6.88668 43.8218 6.15184 43.5896 5.47121C43.3574 4.79058 42.6119 4.42619 41.9224 4.65507Z" fill="#F9C000"/>
<path d="M35.3483 2.71751C34.7484 3.12509 34.5987 3.93222 35.0112 4.52451C35.056 4.58775 35.1059 4.64496 35.1598 4.70017C32.4549 10.6391 33.2319 20.6227 33.2319 20.6227L33.898 20.8204C33.2503 11.6169 35.2444 6.464 35.8901 5.06961C36.2119 5.11981 36.5531 5.05254 36.8434 4.85678C37.4432 4.45021 37.5929 3.64108 37.1815 3.0508C36.769 2.46052 35.9481 2.30994 35.3483 2.71751Z" fill="#F9C000"/>
<path d="M35.9166 29.0623C35.9166 29.0623 38.5991 23.6453 42.2228 21.6436C42.2228 21.6436 45.5562 26.5024 44.8331 31.5027L39.7591 36.2189L35.9166 29.0623Z" fill="#F9C000"/>
<path d="M28.0165 28.9318C28.0165 28.9318 22.2185 22.0512 19.318 20.7763C19.318 20.7763 16.1282 25.3108 15.6934 29.6224L21.8549 35.3456L28.0165 28.9318Z" fill="#F9C000"/>
<path d="M6.29919 22.3884C6.29919 22.3884 0.471635 43.6937 19.1733 61.7635H46.5726C46.5726 61.7635 57.8804 36.8473 55.4147 21.6988C55.4147 21.6988 45.4136 23.039 40.3387 32.5718C40.3387 32.5718 38.1643 19.157 29.3211 13.728C29.3211 13.728 22.2185 23.296 21.9282 32.5427C21.9272 32.5427 14.1565 23.7929 6.29919 22.3884Z" fill="#29ABE2"/>
<path d="M31.6921 65.7791L32.1769 95.8954H35.2129L33.453 65.7791H31.6921Z" fill="#546C1E"/>
<path d="M18.0857 58.7971C18.0857 58.7971 20.5859 72.4077 33.0894 71.979C33.0894 71.979 45.2659 71.5494 47.4403 58.7971L44.0702 60.6182L42.8736 57.724L41.1341 60.832L39.0687 57.724L37.4381 60.832L35.9156 58.2601L34.8167 60.5097L32.7625 58.4749L31.965 60.2959L29.8263 58.2601L28.5227 60.5097L26.7822 58.3665L25.4785 61.0469L24.0639 57.723L22.9772 60.6172L21.2378 57.723L20.477 60.831L18.0857 58.7971Z" fill="#5F8305"/>
<path d="M13.74 92.6316C13.74 92.6316 12.4251 112.961 27.8729 118.984H43.8147C43.8147 118.984 55.319 114.879 55.155 91.5525L13.74 92.6316Z" fill="#ED1C24"/>
<path d="M13.7124 96.7506L55.0735 95.9184" stroke="#E2E2E2" stroke-width="0.395" stroke-miterlimit="10"/>
<path d="M3.62781 74.0781L12.3477 73.1576" stroke="#44C6A8" stroke-width="0.5925" stroke-miterlimit="10" stroke-linecap="round" stroke-linejoin="round"/>
<path d="M63.3525 75.3239L54.6346 74.5449" stroke="#44C6A8" stroke-width="0.5925" stroke-miterlimit="10" stroke-linecap="round" stroke-linejoin="round"/>
<path d="M6.29917 22.6334C6.29917 22.6334 10.1397 52.2748 20.478 60.8319" stroke="black" stroke-width="0.395" stroke-miterlimit="10"/>
<path d="M55.4137 21.9438C55.4137 21.9438 48.8784 48.675 44.0703 60.6182" stroke="black" stroke-width="0.395" stroke-miterlimit="10"/>
<path d="M28.5888 43.3306L27.1146 43.3298L21.5203 34.7562L21.5155 43.3267L20.0412 43.3259L20.0475 32.2041L21.5217 32.2049L27.1313 40.8167L27.1361 32.208L28.595 32.2088L28.5888 43.3306ZM32.7672 43.3328L31.3005 43.332L31.3068 32.2102L32.7734 32.211L32.7672 43.3328ZM43.6389 39.8097C43.5007 40.986 43.0648 41.8947 42.3311 42.536C41.6026 43.1721 40.6323 43.4899 39.4203 43.4892C38.1065 43.4885 37.0526 43.0169 36.2587 42.0744C35.4699 41.1318 35.0759 39.8713 35.0768 38.2926L35.0774 37.2232C35.078 36.1894 35.2618 35.2806 35.6289 34.4965C36.0011 33.7125 36.526 33.1119 37.2035 32.6947C37.881 32.2724 38.6654 32.0615 39.5565 32.0619C40.738 32.0626 41.685 32.3941 42.3975 33.0565C43.1101 33.7138 43.5246 34.6256 43.6411 35.7918L42.1668 35.791C42.04 34.9048 41.7629 34.2631 41.3353 33.8656C40.9129 33.4682 40.3197 33.2693 39.5559 33.2688C38.6189 33.2683 37.8828 33.6142 37.3477 34.3065C36.8177 34.9988 36.5524 35.984 36.5517 37.2622L36.5511 38.3392C36.5504 39.5461 36.8019 40.5062 37.3057 41.2194C37.8094 41.9326 38.5145 42.2895 39.421 42.29C40.2357 42.2904 40.8597 42.1074 41.2927 41.741C41.7309 41.3695 42.0215 40.7255 42.1646 39.8089L43.6389 39.8097ZM51.9353 38.2024L47.1153 38.1998L47.1131 42.1414L52.7122 42.1444L52.7115 43.3436L45.6458 43.3398L45.652 32.218L52.6414 32.2218L52.6407 33.4287L47.118 33.4257L47.116 37.0006L51.9359 37.0032L51.9353 38.2024Z" fill="white"/>
<path d="M29.3201 13.7883L31.6921 30.3713" stroke="#44C6A8" stroke-width="0.5925" stroke-miterlimit="10" stroke-linecap="round" stroke-linejoin="round"/>
<path d="M14.8276 103.281L54.6346 102.609" stroke="#E2E2E2" stroke-width="0.395" stroke-miterlimit="10"/>
<path d="M17.2078 109.736L52.3604 109.478" stroke="#E2E2E2" stroke-width="0.395" stroke-miterlimit="10"/>
<path d="M22.0545 115.471H48.5341" stroke="#E2E2E2" stroke-miterlimit="10"/>
<path d="M23.9702 103.83C24.1301 105.822 23.3225 107.51 22.1625 107.601C21.0025 107.691 19.9311 106.15 19.7702 104.157C19.7019 103.306 19.8109 102.512 20.0492 101.873C20.368 101.016 20.9169 100.442 21.5809 100.389C22.5047 100.317 23.3694 101.28 23.7655 102.678C23.8674 103.037 23.9376 103.423 23.9702 103.83Z" fill="white"/>
<path d="M23.7655 102.679C23.3999 103.011 22.9162 103.233 22.3733 103.274C21.3396 103.356 20.4098 102.762 20.0502 101.873C20.369 101.016 20.918 100.442 21.582 100.389C22.5057 100.317 23.3694 101.28 23.7655 102.679Z" fill="#070000"/>
<path d="M44.4023 103.399C44.5612 105.391 45.6305 106.933 46.7905 106.843C47.9505 106.752 48.7622 105.065 48.6003 103.072C48.5331 102.219 48.2978 101.453 47.9597 100.859C47.5085 100.062 46.8751 99.5807 46.209 99.6308C45.2863 99.7031 44.5856 100.787 44.4186 102.231C44.3758 102.6 44.3687 102.993 44.4023 103.399Z" fill="white"/>
<path d="M44.4192 102.231C44.8338 102.502 45.346 102.645 45.8889 102.603C46.9246 102.521 47.7455 101.791 47.9594 100.859C47.5082 100.062 46.8747 99.5807 46.2086 99.6308C45.2869 99.7031 44.5863 100.787 44.4192 102.231Z" fill="#070000"/>
<path d="M29.4474 105.359C29.4474 105.359 36.3871 120.512 40.8 104.507L29.4474 105.359Z" fill="#070000"/>
</svg>
