<svg width="72" height="79" viewBox="0 0 72 79" fill="none" xmlns="http://www.w3.org/2000/svg">
<path d="M71.7219 23.4137L69.174 17.6903C68.8812 17.0305 68.3708 16.473 67.7177 16.0974C64.4051 14.1916 58.373 11.6855 49.7875 8.64889C40.6895 5.42743 31.7694 2.69487 31.6804 2.66704C31.3008 2.55079 30.9115 2.49514 30.5297 2.49514C29.0917 2.49514 27.7372 3.28211 27.1496 4.57089C27.1056 4.66529 22.77 14.1538 17.7695 25.1646C16.2907 28.4189 14.8901 31.5072 13.5915 34.3749C12.0623 34.513 10.6382 34.9701 9.42531 35.7163C8.11379 36.5242 7.06927 37.652 6.40332 38.9785C5.21191 41.3504 5.42318 43.9637 6.94167 45.6351C7.29341 46.0226 7.68054 46.3326 8.08376 46.583C6.44087 50.2407 5.11218 53.2197 4.12451 55.4654C3.40709 57.096 2.85913 58.3609 2.49559 59.2254C2.29184 59.7103 2.14276 60.077 2.03981 60.3463C1.96903 60.5351 1.91649 60.6851 1.87467 60.8173C1.35993 62.4906 2.16528 63.8211 3.08967 64.5088C6.90413 67.3367 14.251 70.5701 24.9308 74.1235C32.7088 76.7109 39.3372 78.4976 39.6149 78.5731C39.9484 78.6625 40.2927 78.7072 40.6369 78.7072C40.9683 78.7072 41.2985 78.6655 41.6202 78.583L48.1435 76.9027C49.2459 76.6185 50.1424 75.8753 50.5693 74.8915L56.2143 61.8437C56.9328 61.6251 57.5826 61.3727 58.1585 61.0885C60.5735 59.8971 61.4357 58.2755 61.7327 57.1258C62.4716 54.2611 61.7284 52.2966 60.8695 51.0843L71.7359 25.9764C72.093 25.1537 72.0876 24.2345 71.7219 23.4137Z" fill="#E0C380"/>
<path d="M70.0083 20.9186L67.4603 15.1951C67.1665 14.5353 66.6571 13.9779 66.0029 13.6013C62.6914 11.6964 56.6582 9.1904 48.0728 6.15376C38.9747 2.9323 30.0557 0.199731 29.9667 0.171908C29.586 0.0556493 29.1978 0 28.8161 0C27.378 0 26.0236 0.786987 25.4359 2.07577C25.3919 2.17017 21.0563 11.6587 16.0558 22.6685C14.577 25.9227 13.1754 29.011 11.8778 31.8787C10.3486 32.0179 8.92447 32.4739 7.71161 33.2212C6.40009 34.029 5.3556 35.1568 4.68965 36.4834C3.49824 38.8553 3.70951 41.4686 5.228 43.1409C5.57974 43.5275 5.96687 43.8375 6.36901 44.0889C4.7272 47.7466 3.39851 50.7256 2.41085 52.9713C1.69342 54.6019 1.14546 55.8668 0.781922 56.7303C0.57817 57.2162 0.42909 57.5819 0.326141 57.8512C0.255364 58.0399 0.201754 58.19 0.161004 58.3221C-0.353738 59.9955 0.450542 61.326 1.376 62.0146C5.19046 64.8416 12.5373 68.076 23.2172 71.6293C30.9951 74.2168 37.6235 76.0034 37.9012 76.0779C38.2347 76.1674 38.579 76.2121 38.9232 76.2121C39.2546 76.2121 39.5849 76.1703 39.9066 76.0879L46.4299 74.4076C47.5312 74.1234 48.4277 73.3801 48.8545 72.3964L54.5006 59.3486C55.2191 59.13 55.8689 58.8776 56.4448 58.5934C58.8598 57.401 59.722 55.7804 60.018 54.6307C60.7579 51.7659 60.0148 49.8005 59.1558 48.5892L70.0211 23.4823C70.3793 22.6595 70.3739 21.7394 70.0083 20.9186Z" fill="white"/>
<path d="M54.4159 38.107L50.3494 47.2179L49.2545 49.6673C46.9039 47.204 41.9066 46.5562 37.2385 47.672C34.2766 48.3805 31.3147 48.2076 28.6734 47.0589L36.445 30.8523L54.4159 38.107Z" fill="#CF6A34"/>
<path d="M36.445 30.8533L28.6734 47.06C26.5394 46.1309 24.6156 44.5649 23.0703 42.3102C19.614 37.2674 14.3432 40.7095 13.0414 38.1081C13.4521 37.1989 13.8671 36.2807 14.2853 35.3566C15.9968 31.5717 17.7577 27.6885 19.4381 23.9911L36.445 30.8533Z" fill="#CF6A34"/>
<path d="M46.7634 9.3325L36.445 30.8533L19.4392 23.9901C24.4976 12.855 28.8161 3.40331 28.8161 3.40331C28.8161 3.40331 37.6385 6.1021 46.7634 9.3325Z" fill="#CF6A34"/>
<path d="M46.7634 9.33255C53.514 11.7193 60.4287 14.3992 64.0662 16.4919L54.4159 38.1071L36.4449 30.8533L46.7634 9.33255Z" fill="#CF6A34"/>
<path d="M64.0662 16.4928L66.6142 22.2164L54.8213 49.4666L53.7811 51.8703C52.3055 51.0356 50.1124 50.8756 50.1124 50.8756C49.8904 50.4335 49.6009 50.031 49.2545 49.6683L50.3494 47.2189L54.4159 38.1081L64.0662 16.4928Z" fill="#7B2623"/>
<path d="M53.7811 51.8713L54.8213 49.4676C54.8213 49.4676 57.3703 50.2745 56.4491 53.8387C56.0577 55.3501 53.7853 56.1152 51.7789 56.5007C50.0706 56.8286 48.5575 56.8813 48.5575 56.8813C48.5575 56.8813 49.2524 54.9934 47.6299 53.3121C47.113 52.7765 46.3613 52.2628 45.276 51.8375C40.7838 50.0767 38.7967 50.7176 34.9951 52.7189C31.1925 54.7191 29.0327 56.1847 26.7002 52.0501C24.3678 47.9155 21.1721 46.6833 17.629 47.2199C14.0859 47.7555 11.6054 46.9546 12.6735 44.073C13.2054 42.6371 12.4011 42.2347 11.2891 42.0032C10.1674 41.7726 8.73255 41.714 8.03872 40.9509C6.6575 39.4296 8.44086 34.4086 14.2875 35.3576C14.2875 35.3576 11.7427 35.5076 13.0446 38.109C14.3465 40.7104 19.6172 37.2684 23.0735 42.3112C24.6177 44.5658 26.5415 46.1319 28.6767 47.0609C31.3179 48.2096 34.2809 48.3835 37.2417 47.674C41.9109 46.5581 46.9071 47.205 49.2577 49.6693C49.6041 50.032 49.8937 50.4354 50.1157 50.8766C50.1124 50.8766 52.3055 51.0356 53.7811 51.8713Z" fill="#FFBA1E"/>
<path d="M51.7778 56.4997L45.4476 71.1304L38.9243 72.8107L47.6288 53.3111C49.2524 54.9913 48.5564 56.8803 48.5564 56.8803C48.5564 56.8803 50.0695 56.8276 51.7778 56.4997Z" fill="#C52146"/>
<path d="M45.2755 51.8365C46.3618 52.2618 47.1125 52.7756 47.6293 53.3111L38.9248 72.8108C38.9248 72.8108 12.0982 65.6057 3.67466 59.3616C3.55777 59.2741 6.95401 51.6209 11.2886 42.0013C12.4006 42.2328 13.2049 42.6352 12.673 44.071C11.6049 46.9527 14.0853 47.7536 17.6285 47.218C21.1716 46.6814 24.3662 47.9136 26.6997 52.0482C29.0332 56.1828 31.1919 54.7182 34.9946 52.7169C38.7961 50.7167 40.7822 50.0758 45.2755 51.8365Z" fill="#F15352"/>
<path d="M12.8966 46.3972C9.16043 50.508 7.006 55.8281 6.89876 61.2018C5.57009 61.2515 4.33258 60.7556 3.54545 59.762C6.29396 54.0802 8.53844 47.684 11.2869 42.0022C11.7695 42.3619 12.7196 43.1688 12.6993 43.7431C12.68 44.3184 12.5116 44.8808 12.4709 45.4542C12.4301 46.0265 12.458 45.9908 12.8966 46.3972Z" fill="#F17979"/>
<path d="M37.557 51.8117C35.9099 52.4079 34.4664 53.4154 32.8182 54.0116C31.1721 54.6078 29.1163 54.7032 27.8048 53.6042C26.9683 52.9017 26.5973 51.8554 26.0386 50.9462C25.0338 49.3086 23.3287 48.0527 21.378 47.5161C19.4306 46.9795 17.6172 46.7529 15.8113 47.6174C18.8998 47.5081 21.9968 49.0115 23.6579 51.4261C24.4611 52.5947 24.9362 53.9322 25.704 55.1216C26.4718 56.311 27.659 57.3981 29.1453 57.5491C30.8278 57.719 32.5297 56.6588 34.1501 57.1119C35.2128 57.409 35.9763 58.3281 36.2702 59.3198C36.5629 60.3115 36.4514 61.3688 36.2262 62.3753C35.5152 65.56 33.6686 68.5182 31.0444 70.6774C33.4144 71.8042 35.8241 72.5504 38.4525 72.9509C41.3029 66.3331 44.2272 59.8455 47.0776 53.2267C44.4653 51.2801 40.6798 50.6829 37.557 51.8117Z" fill="#C52146"/>
<path d="M64.0662 16.4928L58.2915 17.7607L52.1028 31.9036L41.9345 28.1972C41.9345 28.1972 36.7034 31.0331 36.9286 30.8543C37.1538 30.6754 54.417 38.108 54.417 38.108L64.0662 16.4928Z" fill="#7B2623"/>
<path d="M46.5918 9.60377L40.8986 10.7008L34.7109 24.8436L25.066 21.328C25.066 21.328 19.6601 24.0616 19.8853 23.8837C20.1105 23.7059 36.4257 30.7907 36.4257 30.7907L46.5918 9.60377Z" fill="#7B2623"/>
<path d="M53.781 38.3803L48.0063 39.6482L44.609 47.4147L48.9564 49.1874L53.781 38.3803Z" fill="#7B2623"/>
<path d="M36.031 31.048L30.2563 32.316L24.6038 44.5698L28.6734 46.9457L36.031 31.048Z" fill="#7B2623"/>
<path d="M58.4341 17.7598L48.5854 14.4082L42.076 28.1963L52.2465 31.9026L58.4341 17.7598Z" fill="#A0382B"/>
<path d="M48.0063 39.6482L38.1264 36.2628L32.5651 48.0427L44.609 47.4147L48.0063 39.6482Z" fill="#A0382B"/>
<path d="M30.2563 32.3159L20.3293 28.9345L15.5765 39.2388L20.9105 40.4421L24.9791 43.757L30.2563 32.3159Z" fill="#A0382B"/>
<path d="M40.8996 10.7007L31.2782 7.70682L25.067 21.329L34.712 24.8445L40.8996 10.7007Z" fill="#A0382B"/>
<path d="M22.2359 46.3445C20.7067 45.6211 18.9169 45.3837 17.2311 45.6798C16.6971 45.7732 16.1695 45.9192 15.6269 45.9123C15.0842 45.9053 14.5051 45.7126 14.2263 45.2813C13.6869 44.4496 14.5373 43.3913 14.3604 42.4354C14.236 41.7667 13.614 41.258 12.9373 40.9976C12.2607 40.7373 11.5196 40.6717 10.8012 40.5425C10.0816 40.4123 9.34379 40.1967 8.83227 39.7118C8.38187 39.2845 8.24246 38.7032 8.37544 38.1359C7.8371 38.4767 7.83279 39.5021 7.97971 40.0288C8.17917 40.7452 8.7572 41.3613 9.49393 41.6445C10.3465 41.9714 11.4274 41.9009 12.0515 42.5308C12.548 43.0316 12.5566 43.7908 12.4934 44.4685C12.4322 45.1471 12.3422 45.8765 12.71 46.4657C13.006 46.9407 13.5625 47.2378 14.1373 47.368C14.7132 47.4972 15.3148 47.4783 15.9046 47.4525C17.6665 47.374 19.4402 47.2368 21.1818 47.4882C22.9233 47.7396 24.6638 48.4282 25.7512 49.714C25.022 48.2722 23.7641 47.0679 22.2359 46.3445Z" fill="#FFCC59"/>
<path d="M38.3506 49.7915C36.1833 50.2128 34.2402 51.3048 32.4514 52.5141C31.3308 53.2713 30.0525 54.1298 28.6938 53.8714C28.9126 54.4199 29.1742 54.6803 29.8026 54.733C30.4311 54.7856 31.0552 54.6038 31.6396 54.3832C33.8069 53.5684 35.6857 52.209 37.8133 51.3098C39.9409 50.4105 42.6133 49.9335 44.5897 51.0912C42.95 49.713 40.5157 49.3702 38.3506 49.7915Z" fill="#FFCC59"/>
<path d="M67.2372 21.9779L64.6882 16.2544C64.6818 16.2385 64.6732 16.2226 64.6657 16.2077C64.6636 16.2057 64.6625 16.2027 64.6614 16.1997C64.6443 16.1709 64.626 16.1431 64.6046 16.1172C64.6003 16.1133 64.5981 16.1093 64.5938 16.1053C64.5724 16.0795 64.5488 16.0566 64.5231 16.0348C64.5199 16.0318 64.5156 16.0288 64.5123 16.0248C64.4855 16.003 64.4555 15.9831 64.4266 15.9652C64.4244 15.9642 64.4223 15.9632 64.4212 15.9622C61.2705 14.1498 55.4121 11.7233 47.0047 8.75021C37.9688 5.5516 29.1153 2.8389 29.0273 2.81107C28.6927 2.70873 28.3324 2.86076 28.1962 3.16085C28.1523 3.25525 23.8188 12.7408 18.8193 23.7486C17.052 27.6368 15.3867 31.3084 13.8671 34.6699C11.1368 34.3798 8.8312 35.3268 7.63121 37.2584C6.73041 38.7082 6.68428 40.4292 7.52181 41.3513C8.2092 42.1065 9.33523 42.3063 10.3454 42.4712C8.13953 47.371 6.40546 51.2542 5.18724 54.0206C4.47625 55.6373 3.93364 56.8883 3.57654 57.7389C3.38673 58.19 3.24409 58.5398 3.15401 58.7773C3.00709 59.1598 2.85697 59.5553 3.25268 59.8494C6.80547 62.4816 13.8628 65.566 24.2306 69.016C31.9206 71.5746 38.6691 73.393 38.7356 73.4109C38.7517 73.4149 38.7667 73.4169 38.7817 73.4199C38.7967 73.4219 38.8085 73.4258 38.8224 73.4278C38.8525 73.4318 38.8846 73.4338 38.9157 73.4348C38.9179 73.4348 38.92 73.4348 38.9232 73.4348C38.9543 73.4348 38.9876 73.4328 39.0187 73.4288C39.0315 73.4268 39.0422 73.4238 39.0551 73.4219C39.0712 73.4189 39.0873 73.4169 39.1045 73.4129L45.6278 71.7326C45.8294 71.68 45.9956 71.5438 46.0728 71.363L52.27 57.0403C55.1076 56.4401 56.7333 55.4137 57.1033 53.9848C57.795 51.3119 56.6893 49.8174 55.6738 49.1774L67.2394 22.4498C67.3048 22.2968 67.3048 22.1279 67.2372 21.9779ZM49.7264 46.9805L49.009 48.5852C46.3773 46.5681 41.75 45.951 37.0702 47.0699C34.4396 47.6999 31.8605 47.5816 29.5667 46.737L36.7892 31.675L53.5408 38.4359L49.7264 46.9805ZM23.6397 41.9754C21.437 38.7629 18.5008 38.6913 16.3561 38.6396C14.9984 38.6058 14.2038 38.5601 13.7942 38.0613C14.1631 37.2465 14.533 36.4248 14.9084 35.598C16.4054 32.2842 18.0504 28.6593 19.7963 24.8158L35.5538 31.1762L28.3463 46.2054C26.5083 45.2714 24.9265 43.8534 23.6397 41.9754ZM54.0566 37.2803L37.3361 30.5323L47.1194 10.1274C54.7108 12.8272 60.122 15.052 63.2223 16.7492L54.0566 37.2803ZM29.1946 4.17836C31.2568 4.81828 38.4235 7.06495 45.8594 9.68127L36.1007 30.0335L20.3185 23.6631C24.5373 14.3783 28.2316 6.28493 29.1946 4.17836ZM4.44732 59.129C4.83982 58.1135 6.39369 54.4866 11.6762 42.7554C11.9046 42.8369 12.0494 42.9273 12.1095 43.0287C12.2038 43.1847 12.177 43.4828 12.0344 43.8683C11.5636 45.1392 11.6676 46.1607 12.3443 46.9049C13.259 47.9085 15.1228 48.2295 17.7341 47.835C21.3448 47.2885 24.0826 48.7611 26.1008 52.3383C27.0263 53.9798 27.9925 54.889 29.1378 55.2001C30.8171 55.6552 32.5329 54.743 34.7055 53.5893C34.9072 53.483 35.1131 53.3727 35.3243 53.2614C38.9962 51.3287 40.7806 50.7544 45.0111 52.4128C45.75 52.703 46.3602 53.0537 46.832 53.4582L38.5307 72.0546C34.6477 70.9795 12.3293 64.6617 4.44732 59.129ZM44.9457 70.6108L40.0739 71.8658L47.7629 54.6436C48.2497 55.7009 47.9355 56.6309 47.9194 56.6776C47.8476 56.8724 47.884 57.087 48.0159 57.252C48.1436 57.411 48.3452 57.5034 48.5564 57.5034C48.565 57.5034 48.5736 57.5034 48.5811 57.5034C48.6304 57.5014 49.5173 57.4686 50.7012 57.3086L44.9457 70.6108ZM55.4808 50.7405C56.0041 51.4321 56.1135 52.4536 55.7928 53.6927C55.5472 54.6406 54.076 55.4197 51.6492 55.8867C51.6492 55.8867 51.6492 55.8867 51.6481 55.8867C51.6459 55.8867 51.6438 55.8877 51.6406 55.8877C50.7709 56.0546 49.9473 56.148 49.3671 56.1987C49.4304 55.3769 49.2856 54.106 48.1543 52.9196C48.1511 52.9166 48.1478 52.9126 48.1446 52.9097C48.1393 52.9047 48.135 52.8997 48.1296 52.8937C48.1253 52.8898 48.1199 52.8848 48.1157 52.8808C48.1114 52.8768 48.1071 52.8719 48.1007 52.8669C47.468 52.2211 46.6057 51.6805 45.5355 51.2612C40.7902 49.401 38.5779 50.1115 34.6584 52.1743C34.4461 52.2866 34.2369 52.3969 34.0343 52.5052C32.1394 53.5118 30.6434 54.3067 29.5152 54.0007C28.7549 53.795 28.0279 53.0617 27.2933 51.759C25.0037 47.7009 21.7148 45.9659 17.5164 46.6019C15.4574 46.9129 13.9475 46.7301 13.3738 46.0991C13.0242 45.7145 13.0006 45.1004 13.3073 44.2737C13.5883 43.5155 13.5808 42.9094 13.2848 42.4195C12.8912 41.7687 12.088 41.5292 11.4307 41.3921C11.4264 41.3911 11.4221 41.3911 11.4178 41.3901C11.4146 41.3901 11.4124 41.3891 11.4103 41.3891C11.1615 41.3384 10.9009 41.2957 10.65 41.254C9.80814 41.1168 8.93736 40.9747 8.55024 40.5475C8.14702 40.1043 8.12558 38.9586 8.79581 37.8815C9.64943 36.5062 11.0092 36.0273 12.206 35.9051C11.8628 36.5599 11.9379 37.3876 12.429 38.3693C12.4333 38.3793 12.4387 38.3882 12.4441 38.3972L12.4451 38.3982C13.1722 39.8092 14.7722 39.8489 16.3185 39.8867C18.3636 39.9364 20.6821 39.993 22.4997 42.6441C24.0665 44.9315 26.0472 46.6068 28.385 47.6244C28.3882 47.6254 28.3903 47.6263 28.3946 47.6283C28.3957 47.6283 28.3968 47.6293 28.3978 47.6303C28.3989 47.6303 28.401 47.6313 28.4032 47.6313C31.126 48.8118 34.238 49.0353 37.4058 48.2772C42.0181 47.1752 46.6819 47.9165 48.7484 50.0807C48.7484 50.0807 48.7484 50.0807 48.7494 50.0817C49.0572 50.4036 49.3092 50.7594 49.499 51.1379C49.602 51.3426 49.8154 51.4798 50.0577 51.4976C50.0781 51.4986 52.1049 51.6547 53.4282 52.4029C53.8851 52.6602 54.1864 52.9524 54.3237 53.2703C54.4298 53.5138 54.6829 53.6619 54.9489 53.6619C55.0325 53.6619 55.1183 53.647 55.1998 53.6162C55.5451 53.487 55.7135 53.1233 55.5741 52.8043C55.3843 52.3691 55.0593 51.9806 54.6036 51.6437L55.1462 50.3907C55.2588 50.4851 55.3746 50.5994 55.4808 50.7405ZM54.2207 49.1774C54.2057 49.2053 54.1918 49.2331 54.181 49.2639C54.1767 49.2728 54.1746 49.2828 54.1725 49.2917L53.4325 51.0008C52.3462 50.5557 51.1494 50.3649 50.55 50.2923C50.3998 50.038 50.225 49.7945 50.032 49.562L50.9725 47.4574V47.4564L64.0662 18.1274L65.8871 22.2193L54.2207 49.1774Z" fill="#542125"/>
</svg>
