<svg width="56" height="42" viewBox="0 0 56 42" fill="none" xmlns="http://www.w3.org/2000/svg">
<path d="M53.9006 25.9487C53.5302 25.7637 53.1485 25.6424 52.778 25.5646C52.6987 24.7751 52.4157 24.0776 51.9343 23.5095C51.7511 20.8348 51.3227 17.5374 49.9558 14.4795C47.158 8.22233 40.5813 3.59465 33.2016 2.69094C32.2673 2.57671 31.3106 2.52011 30.3559 2.52213C27.3129 2.53022 24.171 3.14987 21.2684 4.31235C18.3902 5.46573 15.7227 7.16397 13.5518 9.22207C9.68233 12.8925 7.28145 18.1014 6.6942 24.0301C6.02656 24.1777 5.39964 24.485 4.88873 24.9358C3.46794 26.1893 3.01809 28.2646 3.79566 29.982C4.66176 31.8945 6.41537 32.3302 7.69366 32.4768C7.68247 32.5769 7.67534 32.6779 7.67534 32.78L7.67636 32.9822C7.66211 33.5928 7.656 34.1993 7.65804 34.7856C7.65804 34.8533 7.657 34.9716 7.65496 35.1394C7.65293 35.3284 7.65193 35.5498 7.65294 35.8035C7.65294 36.0774 7.65601 36.3726 7.65906 36.689C7.66313 37.0125 7.66922 37.3188 7.67838 37.6069C7.68754 37.898 7.69874 38.1558 7.70891 38.3771C7.72825 38.7502 7.76286 38.9948 7.82799 39.2131C7.99694 39.7913 8.38065 40.2735 8.90886 40.5707C9.30069 40.7911 9.74035 40.9063 10.1841 40.9053C10.2899 40.9053 10.4436 40.9002 10.6176 40.8669C10.8263 40.8295 11.0237 40.7628 11.209 40.6698C11.5998 40.9275 12.0415 41.063 12.4995 41.062C12.9992 41.061 13.4673 40.8992 13.8541 40.5939C14.2999 40.2412 14.5777 39.7276 14.6378 39.1454C14.6398 39.1242 14.6418 39.1029 14.6439 39.0817C14.6612 38.8179 14.6693 38.5439 14.6683 38.2639C14.6673 37.8626 14.65 37.4512 14.6235 37.0388C14.8118 37.6958 15.1182 38.2963 15.5507 38.83C15.9863 39.3607 16.5186 39.759 17.1343 40.0157C17.5547 40.1906 18.0055 40.2786 18.4706 40.2776C18.7821 40.2765 19.0986 40.2361 19.4161 40.1552C19.7245 40.0764 20.0064 39.9723 20.267 39.8479C20.2863 39.8591 20.3006 39.8682 20.3056 39.8712C20.6415 40.0936 21.0405 40.2058 21.4903 40.2048C21.6623 40.2048 21.8221 40.1886 21.9778 40.1573C21.9992 40.1552 22.0226 40.1522 22.0399 40.1512C22.0623 40.1502 22.0908 40.1492 22.1233 40.1492H22.2882C22.3116 40.1492 22.3401 40.1502 22.3676 40.1512C22.6994 40.1643 23.0586 40.1482 23.4006 40.0905C23.4271 40.0865 23.4535 40.0794 23.479 40.0734C23.6042 40.2442 23.7517 40.3999 23.9237 40.5323C24.3492 40.8568 24.8448 41.0286 25.3588 41.0266C25.7852 41.0256 26.1862 40.9073 26.5353 40.6839C26.6493 40.8537 26.7887 41.0084 26.9546 41.1388C27.1928 41.3278 27.4665 41.4592 27.7637 41.532C27.9622 41.6038 28.1739 41.6412 28.3896 41.6402C28.4741 41.6402 28.5606 41.6331 28.6461 41.621C28.8792 41.5876 29.1092 41.53 29.3321 41.4481C29.5 41.3854 29.6598 41.3137 29.8104 41.2328C30.2338 41.0226 30.589 40.7264 30.8679 40.3503C30.9727 40.2088 31.0643 40.0592 31.1457 39.9025C31.2729 40.0572 31.4205 40.1936 31.5844 40.3069C31.9324 40.5515 32.3426 40.6758 32.766 40.6748C32.9848 40.6738 33.2077 40.6394 33.4255 40.5697C33.4346 40.5667 33.4438 40.5646 33.4519 40.5616C33.4733 40.5545 33.4967 40.5464 33.5181 40.5383C33.7369 40.5454 33.9578 40.5373 34.1776 40.5131C34.6834 40.4575 35.1556 40.2957 35.5821 40.0319C35.8212 40.1199 36.0839 40.1643 36.3668 40.1633C36.5388 40.1633 36.6986 40.1471 36.8543 40.1158C36.8756 40.1138 36.8991 40.1108 36.9164 40.1097C36.9387 40.1087 36.9673 40.1077 37.0008 40.1077H37.1647C37.1881 40.1077 37.2166 40.1087 37.2441 40.1097C37.5759 40.1229 37.9351 40.1067 38.2771 40.0491C38.3036 40.0451 38.33 40.038 38.3555 40.0329C38.4806 40.2038 38.6282 40.3594 38.8002 40.4908C39.2257 40.8163 39.7213 40.9872 40.2353 40.9851C40.736 40.9841 41.2042 40.8224 41.5899 40.5171C41.6418 40.4767 41.6896 40.4332 41.7364 40.3898C41.772 40.4211 41.8067 40.4534 41.8453 40.4828C42.2698 40.8072 42.7654 40.9781 43.2804 40.9771C43.7801 40.975 44.2483 40.8133 44.635 40.509C44.7775 40.3958 44.9017 40.2644 45.0075 40.1209C45.1093 40.134 45.2131 40.1401 45.321 40.1401C45.493 40.1401 45.6527 40.1239 45.8085 40.0926C45.8298 40.0905 45.8532 40.0875 45.8705 40.0865C45.8919 40.0855 45.9214 40.0845 45.954 40.0845H46.1189C46.1423 40.0845 46.1708 40.0845 46.1983 40.0855C46.2359 40.0865 46.2746 40.0865 46.3122 40.0875C46.3275 40.129 46.3408 40.1714 46.3581 40.2118C46.5209 40.6192 46.7855 40.972 47.1244 41.2338C47.5051 41.528 47.9671 41.6796 48.4597 41.6776C48.6256 41.6776 48.7946 41.6594 48.9655 41.624C48.9767 41.622 48.9879 41.619 49.0001 41.6159C49.4103 41.5219 49.7736 41.3258 50.0576 41.0498C50.2113 41.0963 50.371 41.1267 50.5339 41.1378C51.1079 41.1802 51.6646 40.9791 52.0941 40.5828C52.545 40.1724 52.7831 39.6013 52.7648 38.9705C52.7567 38.7249 52.717 38.4732 52.6457 38.2205C52.5938 38.0375 52.5287 37.8545 52.4524 37.6746C52.4208 37.5998 52.3933 37.5321 52.373 37.4734C52.3506 37.4098 52.3231 37.3471 52.2936 37.2854C52.0402 36.7709 51.7827 36.2574 51.5262 35.7611C51.4997 35.7085 51.4722 35.6559 51.4458 35.6034C51.4906 35.5488 51.5344 35.4932 51.5761 35.4356C51.8356 35.0807 52.0279 34.6734 52.148 34.2235C52.2722 33.7535 52.2966 33.2481 52.2162 32.7143C52.2091 32.6688 52.1989 32.6244 52.1908 32.5799C52.9063 32.499 54.8705 32.2443 55.6959 30.5036C56.5671 28.675 55.4415 26.7149 53.9006 25.9487Z" fill="#CADBE3"/>
<path d="M50.483 23.4266C50.1125 23.2426 49.7319 23.1213 49.3604 23.0425C49.2821 22.253 48.9981 21.5555 48.5177 20.9874C48.3335 18.3127 47.905 15.0153 46.5382 11.9575C43.7404 5.70026 37.1637 1.07257 29.785 0.168865C28.8497 0.0546383 27.893 -0.00196942 26.9383 5.22909e-05C23.8963 0.00914998 20.7534 0.627797 17.8508 1.79028C14.9736 2.94367 12.3051 4.64088 10.1352 6.69899C6.26471 10.3704 3.86385 15.5793 3.2766 21.508C2.60998 21.6566 1.982 21.9629 1.47109 22.4137C0.0503109 23.6672 -0.399541 25.7425 0.378022 27.4599C1.24413 29.3725 2.99773 29.8092 4.27603 29.9547C4.26585 30.0548 4.25771 30.1549 4.25873 30.258V30.4601C4.24448 31.0707 4.23837 31.6782 4.24041 32.2635C4.24041 32.3312 4.2394 32.4505 4.23736 32.6173C4.23533 32.8063 4.23429 33.0277 4.23531 33.2824C4.23633 33.5564 4.23838 33.8516 4.24143 34.168C4.2455 34.4914 4.25159 34.7977 4.26075 35.0858C4.27093 35.3779 4.2811 35.6347 4.29128 35.8561C4.31164 36.2281 4.34624 36.4727 4.41036 36.6921C4.57931 37.2703 4.96299 37.7514 5.49222 38.0486C5.88304 38.269 6.32374 38.3852 6.76646 38.3842C6.87231 38.3842 7.02599 38.3792 7.20104 38.3458C7.40968 38.3084 7.60711 38.2417 7.79133 38.1487C8.18316 38.4065 8.62487 38.5419 9.08184 38.5409C9.58257 38.5399 10.0497 38.3782 10.4365 38.0729C10.8822 37.7201 11.1601 37.2056 11.2202 36.6243C11.2232 36.6031 11.2242 36.5819 11.2262 36.5606C11.2446 36.2968 11.2517 36.0219 11.2517 35.7429C11.2497 35.3416 11.2324 34.9301 11.2069 34.5177C11.3942 35.1758 11.7016 35.7752 12.1331 36.3089C12.5687 36.8396 13.101 37.2389 13.7167 37.4947C14.137 37.6696 14.5879 37.7575 15.053 37.7565C15.3644 37.7555 15.6809 37.714 15.9995 37.6342C16.3069 37.5553 16.5888 37.4512 16.8503 37.3269C16.8687 37.338 16.8829 37.3471 16.888 37.3501C17.2239 37.5725 17.6228 37.6847 18.0727 37.6837C18.2457 37.6837 18.4044 37.6675 18.5612 37.6362C18.5826 37.6342 18.6049 37.6311 18.6222 37.6291C18.6446 37.6281 18.6731 37.6281 18.7067 37.6281H18.8706C18.894 37.6281 18.9225 37.6291 18.95 37.6301C19.2818 37.6443 19.641 37.6271 19.983 37.5695C20.0094 37.5654 20.0359 37.5584 20.0624 37.5533C20.1865 37.7241 20.3341 37.8798 20.5071 38.0112C20.9315 38.3357 21.4272 38.5076 21.9422 38.5055C22.3676 38.5045 22.7696 38.3862 23.1177 38.1629C23.2327 38.3327 23.3721 38.4873 23.537 38.6177C23.7751 38.8068 24.0499 38.9392 24.3461 39.01C24.5456 39.0817 24.7573 39.1191 24.972 39.1181C25.0575 39.1181 25.143 39.112 25.2285 39.0989C25.4626 39.0655 25.6916 39.0069 25.9144 38.9261C26.0824 38.8634 26.2422 38.7916 26.3928 38.7107C26.8162 38.5005 27.1724 38.2043 27.4502 37.8283C27.5561 37.6867 27.6467 37.5361 27.7291 37.3794C27.8563 37.5341 28.0039 37.6706 28.1667 37.7838C28.5158 38.0284 28.9249 38.1538 29.3483 38.1517C29.5671 38.1517 29.79 38.1174 30.0078 38.0476C30.017 38.0456 30.0262 38.0426 30.0343 38.0395C30.0557 38.0324 30.0791 38.0244 30.1005 38.0163C30.3193 38.0234 30.5401 38.0153 30.76 37.991C31.2668 37.9354 31.738 37.7737 32.1655 37.5098C32.4046 37.5978 32.6672 37.6423 32.9502 37.6413C33.1232 37.6413 33.282 37.6251 33.4387 37.5937C33.4601 37.5917 33.4825 37.5887 33.4998 37.5867C33.5221 37.5857 33.5507 37.5857 33.5842 37.5857H33.7481C33.7725 37.5857 33.8 37.5867 33.8285 37.5877C34.1593 37.6018 34.5185 37.5846 34.8605 37.527C34.887 37.523 34.9134 37.5159 34.9399 37.5109C35.064 37.6817 35.2116 37.8374 35.3846 37.9688C35.809 38.2933 36.3047 38.4651 36.8197 38.4631C37.3194 38.4621 37.7875 38.3003 38.1743 37.995C38.2252 37.9546 38.273 37.9111 38.3198 37.8677C38.3565 37.899 38.39 37.9314 38.4287 37.9607C38.8531 38.2862 39.3498 38.457 39.8637 38.455C40.3645 38.454 40.8317 38.2922 41.2184 37.987C41.3619 37.8738 41.485 37.7423 41.5919 37.5988C41.6926 37.6109 41.7965 37.618 41.9043 37.618C42.0763 37.618 42.2361 37.6018 42.3929 37.5705C42.4143 37.5685 42.4366 37.5654 42.4539 37.5644C42.4763 37.5634 42.5048 37.5634 42.5384 37.5624H42.7023C42.7257 37.5624 42.7542 37.5634 42.7817 37.5644C42.8193 37.5665 42.858 37.5654 42.8967 37.5665C42.9109 37.6089 42.9252 37.6504 42.9415 37.6908C43.1043 38.0982 43.3699 38.4509 43.7078 38.7128C44.0884 39.0069 44.5505 39.1585 45.0431 39.1565C45.209 39.1565 45.3779 39.1383 45.5489 39.1029C45.5611 39.1009 45.5723 39.0979 45.5835 39.0959C45.9947 39.0009 46.358 38.8058 46.641 38.5298C46.7946 38.5763 46.9555 38.6066 47.1173 38.6177C47.6913 38.6592 48.248 38.459 48.6775 38.0628C49.1284 37.6534 49.3675 37.0812 49.3482 36.4505C49.3411 36.2048 49.3004 35.9531 49.2291 35.7004C49.1772 35.5174 49.1131 35.3345 49.0368 35.1546C49.0052 35.0797 48.9777 35.012 48.9564 34.9534C48.934 34.8897 48.9075 34.827 48.877 34.7654C48.6246 34.2508 48.366 33.7383 48.1106 33.241C48.0841 33.1884 48.0567 33.1359 48.0302 33.0833C48.075 33.0287 48.1177 32.9731 48.1594 32.9155C48.42 32.5607 48.6113 32.1523 48.7314 31.7035C48.8566 31.2334 48.88 30.728 48.7996 30.1933C48.7925 30.1488 48.7823 30.1043 48.7742 30.0588C49.4897 29.979 51.4539 29.7242 52.2803 27.9835C53.1505 26.1529 52.0249 24.1928 50.483 23.4266Z" fill="white"/>
<path d="M21.7416 20.392C22.184 20.392 22.5426 20.0358 22.5426 19.5965C22.5426 19.1571 22.184 18.8009 21.7416 18.8009C21.2993 18.8009 20.9407 19.1571 20.9407 19.5965C20.9407 20.0358 21.2993 20.392 21.7416 20.392Z" fill="white"/>
<path d="M16.5053 25.0763C16.5033 25.0763 17.3287 21.7628 17.4518 21.4474C17.9485 20.1858 18.6171 18.9849 19.4751 17.9296C22.1711 14.618 27.0278 13.0633 30.9207 15.2862C34.2661 17.1977 35.9861 21.7476 36.4675 25.3594C38.0023 25.0753 39.5381 24.7903 41.0728 24.5052C40.8113 21.2492 39.9309 18.0014 38.1722 15.2407C36.4146 12.4801 33.7328 10.239 30.5717 9.33733C27.325 8.41038 23.7721 8.94411 20.6954 10.33C18.3413 11.3904 16.1776 12.9754 14.7426 15.1113C12.878 17.8871 12.3804 21.3625 12.4496 24.6973C12.4516 24.7893 12.4608 24.8954 12.534 24.952C12.591 24.9955 12.6704 24.9965 12.7427 24.9945C13.9447 24.9631 15.1548 25.1238 16.3567 25.0925L16.5053 25.0763Z" fill="#FACFCE" stroke="#243645" stroke-width="0.2435" stroke-miterlimit="10" stroke-linecap="round" stroke-linejoin="round"/>
<path d="M38.8782 25.2192L38.8985 25.3405L38.7754 25.3355C38.7764 25.2364 38.582 21.1859 38.5494 20.7735C38.4436 19.4301 38.0609 18.2969 37.6609 17.2719C36.807 15.0793 35.7068 12.8828 33.4546 11.6626C31.3621 10.5295 29.009 10.297 27.403 10.301C27.17 10.302 26.9318 10.3081 26.6977 10.3182C21.6853 10.5457 17.3904 12.9768 15.4912 16.6623C14.6913 18.215 14.445 19.7515 14.1845 21.379C14.0114 22.4555 13.8333 23.5685 13.4822 24.7017C13.4659 24.7512 13.4201 24.7866 13.3692 24.7886C13.3692 24.7886 9.18932 24.9695 9.18729 24.9695C9.15574 24.9695 9.1242 24.9574 9.10181 24.9352C9.07738 24.9119 9.06311 24.8796 9.06311 24.8462L9.056 22.4131C9.171 20.449 9.30228 18.2312 10.147 16.257C11.1709 13.8683 13.1575 11.9821 14.9396 10.4031C15.9319 9.52469 17.0046 8.60784 18.2636 7.90732C20.12 6.87322 22.4323 6.28389 25.3309 6.10497C25.8866 6.0706 26.4423 6.0524 26.9817 6.05139C29.6431 6.0433 32.0806 6.43451 34.226 7.21287C37.2213 8.29953 39.671 10.1777 41.1193 12.4996C42.3171 14.4192 42.8433 16.6078 43.3522 18.7235C43.8153 20.6461 44.2936 22.6335 44.2957 24.6501C44.2957 24.7138 44.2468 24.7664 44.1847 24.7724C42.4301 24.9534 40.6592 25.1849 38.9189 25.4618L38.8782 25.2192Z" fill="#F27C88"/>
<path d="M26.9811 6.17437C29.4369 6.16729 31.8978 6.49986 34.1827 7.32876C36.9784 8.34265 39.5004 10.14 41.0138 12.565C42.1903 14.4502 42.7196 16.6205 43.2325 18.7524C43.6997 20.6953 44.1699 22.6584 44.1719 24.6508C42.4081 24.8327 40.6495 25.0632 38.8989 25.3412C38.9081 25.3402 38.7035 21.1492 38.673 20.765C38.5733 19.4954 38.2394 18.4178 37.7774 17.2291C36.9133 15.0133 35.7806 12.7843 33.515 11.5562C31.681 10.5635 29.4908 10.1743 27.4034 10.1804C27.1653 10.1804 26.9271 10.1864 26.692 10.1976C22.0959 10.4068 17.4417 12.6115 15.3817 16.6084C14.0291 19.2326 14.2327 21.8689 13.3635 24.6669L9.18667 24.8479L9.17956 22.4137C9.30169 20.3445 9.43806 18.2298 10.2614 16.3062C11.2395 14.0216 13.1142 12.1869 15.0225 10.4958C16.0504 9.586 17.1099 8.69241 18.324 8.01513C20.4267 6.84355 22.8978 6.37856 25.3384 6.22795C25.8839 6.19459 26.4325 6.17639 26.9811 6.17437ZM26.98 5.92772C26.4386 5.92974 25.8809 5.94793 25.3221 5.9823C22.4042 6.16224 20.0756 6.75763 18.2019 7.79982C16.9328 8.50742 15.8092 9.46672 14.8566 10.3118C13.0643 11.8999 11.0654 13.7962 10.0334 16.2091C9.17955 18.2035 9.04826 20.4315 8.93224 22.3986C8.93122 22.4036 8.93124 22.4087 8.93124 22.4137L8.93835 24.8479C8.93937 24.9146 8.96582 24.9783 9.01569 25.0248C9.06149 25.0693 9.12255 25.0935 9.18667 25.0925C9.19074 25.0925 9.19381 25.0925 9.19789 25.0925L13.3747 24.9116C13.4806 24.9075 13.5701 24.8378 13.6017 24.7387C13.9569 23.5975 14.135 22.4805 14.308 21.3988C14.5675 19.7815 14.8118 18.2551 15.6026 16.7196C17.4529 13.128 21.8119 10.6646 26.7032 10.4422C26.9363 10.4311 27.1724 10.426 27.4045 10.425C28.9952 10.42 31.3269 10.6504 33.397 11.7705C35.6136 12.9714 36.7016 15.1457 37.5464 17.316C37.9423 18.3319 38.3229 19.455 38.4257 20.7822C38.4582 21.1916 38.6476 25.1228 38.6516 25.3291C38.6506 25.3452 38.6516 25.3624 38.6547 25.3786C38.674 25.4999 38.7798 25.5868 38.8989 25.5858C38.9122 25.5858 38.9244 25.5848 38.9376 25.5828C40.6759 25.3068 42.4448 25.0753 44.1974 24.8944C44.3236 24.8812 44.4192 24.7751 44.4192 24.6498C44.4172 22.619 43.9378 20.6235 43.4727 18.6938C42.9618 16.568 42.4336 14.3704 41.2245 12.4336C39.761 10.0884 37.2899 8.19203 34.2671 7.09626C32.1085 6.31386 29.6567 5.92064 26.98 5.92772Z" fill="#243645"/>
<path d="M43.0123 25.5851C42.9869 25.5851 42.9604 25.5781 42.94 25.5629C42.9126 25.5437 42.8932 25.5134 42.8892 25.479C42.7894 24.7603 42.7039 24.0254 42.6134 23.246C42.192 19.6019 41.7136 15.4705 39.5662 12.6432C36.7826 8.97983 31.929 6.6215 27.2025 6.63464C26.2112 6.63768 25.2271 6.74179 24.2775 6.94599C18.4336 8.19742 14.3606 11.0369 12.1724 15.3876C10.6753 18.3636 10.0168 22.3949 9.72775 25.2526C9.72164 25.3152 9.6677 25.3628 9.60562 25.3628C9.60359 25.3628 5.19976 25.1525 5.19976 25.1525C5.13463 25.1495 5.08374 25.0969 5.08171 25.0322C4.93922 18.1584 7.21084 12.1428 11.4773 8.09634C15.591 4.19343 21.2283 1.94629 26.944 1.93012C27.8183 1.92709 28.6946 1.97864 29.5485 2.08377C36.2656 2.9066 42.2388 7.09054 44.7659 12.7412C46.4961 16.6118 46.6304 21.0312 46.7474 24.9301C46.7495 24.9948 46.7006 25.0504 46.6365 25.0565C45.4315 25.1697 44.2204 25.3476 43.0367 25.5831C43.0276 25.5851 43.0194 25.5851 43.0123 25.5851Z" fill="#67C7C6"/>
<path d="M26.9444 2.05212C27.8075 2.0501 28.6726 2.09963 29.5316 2.20476C36.0625 3.00536 42.1049 7.0973 44.6513 12.7904C46.3499 16.5882 46.4975 20.8156 46.6237 24.9328C45.4105 25.047 44.2035 25.2239 43.0107 25.4615C42.4316 21.2695 42.2799 16.011 39.6643 12.5691C36.9011 8.932 32.1116 6.49786 27.2019 6.51202C26.2178 6.51505 25.2295 6.61613 24.2515 6.82538C19.2075 7.90497 14.5391 10.4068 12.0608 15.3327C10.6177 18.2015 9.92253 22.0822 9.60397 25.2391L5.20526 25.0299C5.07702 18.8566 6.93137 12.5771 11.5621 8.18397C15.5823 4.37001 21.247 2.0683 26.9444 2.05212ZM26.9444 1.80548C24.1303 1.81357 21.2216 2.38773 18.5317 3.4653C15.8652 4.53377 13.3961 6.10464 11.3912 8.00606C7.09828 12.0768 4.81443 18.1247 4.95793 25.0339C4.95997 25.1633 5.0638 25.2684 5.19305 25.2745L9.59176 25.4837C9.59685 25.4837 9.60092 25.4837 9.605 25.4837C9.7312 25.4837 9.83806 25.3887 9.85027 25.2624C10.1383 22.4158 10.7948 18.3997 12.2827 15.4409C14.4536 11.1256 18.4971 8.30729 24.3034 7.06495C25.2448 6.86278 26.2208 6.75967 27.204 6.75664C31.8927 6.7435 36.7077 9.08262 39.4679 12.7166C41.596 15.5167 42.0723 19.6299 42.4926 23.2588C42.5822 24.0382 42.6677 24.7751 42.7674 25.4949C42.7776 25.5616 42.8142 25.6222 42.8702 25.6616C42.913 25.692 42.9628 25.7071 43.0147 25.7071C43.031 25.7071 43.0463 25.7051 43.0626 25.7021C44.2421 25.4666 45.4502 25.2896 46.6491 25.1764C46.7794 25.1643 46.8781 25.0541 46.874 24.9237C46.756 21.0127 46.6217 16.5811 44.8813 12.6883C42.3359 6.99824 36.3251 2.78702 29.5651 1.95913C28.7041 1.85501 27.8227 1.80346 26.9444 1.80548Z" fill="#243645"/>
<path d="M16.658 21.5424C15.9975 20.8105 14.9461 20.5538 13.9935 20.5103C13.0328 20.4668 12.0018 20.6063 11.1316 21.036C11.0461 21.0784 10.928 21.0794 10.8578 21.0016C10.0538 20.0928 8.93323 19.6238 7.71702 19.7239C6.91401 19.7896 6.14663 20.0888 5.47594 20.5295C5.26119 22.0165 5.17366 23.5267 5.2042 25.0309L9.60291 25.2401C9.61716 25.1046 9.63243 24.9662 9.6477 24.8277L12.4496 24.7064C12.4526 24.7973 12.4618 24.8984 12.534 24.955C12.591 24.9985 12.6704 24.9995 12.7427 24.9975C13.9447 24.9662 15.1548 25.1269 16.3567 25.0956L16.5043 25.0773C16.5033 25.0773 16.8687 23.6035 17.1506 22.528C17.0702 22.1651 16.9134 21.8244 16.658 21.5424Z" fill="#DCD9DA"/>
<path d="M44.6523 12.7904C44.5067 12.4669 44.35 12.1495 44.1831 11.8362C44.2686 12.1313 44.3469 12.4285 44.41 12.7277C44.7093 14.1429 44.7662 15.6491 44.3612 17.0501C44.0436 18.1479 43.4249 19.4388 42.1924 19.6976C41.538 19.834 40.8601 19.7734 40.2088 19.9291C39.533 20.0898 38.9559 20.4416 38.5193 20.9763C38.1641 21.411 37.8048 22.0761 37.2308 22.25C36.7678 22.3905 36.2711 22.2823 35.7907 22.2742C36.1123 23.3245 36.3362 24.3768 36.4675 25.3594L38.8816 24.9126C38.8938 25.1764 38.9009 25.3412 38.8989 25.3412C40.2352 25.1289 41.5776 24.9449 42.9231 24.7882C42.9516 25.0157 42.9811 25.2411 43.0117 25.4625C44.2045 25.2249 45.4105 25.048 46.6247 24.9338C46.4985 20.8156 46.3509 16.5882 44.6523 12.7904Z" fill="#DCD9DA"/>
<g opacity="0.3">
<path opacity="0.3" d="M5.70597 24.5881C5.83523 21.4969 6.51916 18.432 7.73232 15.5834C8.94039 12.7469 10.7021 10.1217 12.987 8.02826C15.2209 5.98128 17.9475 4.4933 20.8206 3.53299C23.6856 2.57571 26.7368 2.13901 29.7585 2.23505C29.6832 2.22494 29.6079 2.21281 29.5305 2.20371C23.0006 1.40412 16.1919 3.79075 11.5611 8.18393C6.93032 12.5771 5.07597 18.8565 5.20421 25.0298L5.69069 25.0521C5.69578 24.8984 5.69885 24.7427 5.70597 24.5881Z" fill="#BBBDBF"/>
</g>
<path d="M6.96895 33.052C6.96997 33.3158 6.97199 33.5938 6.97504 33.8839C6.97911 34.174 6.98626 34.4581 6.99644 34.7351C7.00866 35.012 7.02187 35.2718 7.03816 35.5134C7.05444 35.754 7.07888 35.9552 7.11043 36.1159C7.11552 36.1412 7.11958 36.1654 7.12264 36.1856C7.12467 36.2069 7.12671 36.2281 7.12671 36.2483C7.12671 36.3524 7.10229 36.4303 7.05344 36.4818C7.00357 36.5344 6.9435 36.5657 6.87022 36.5758C6.84884 36.5809 6.81324 36.5839 6.76235 36.5839C6.63208 36.5839 6.50791 36.5506 6.38883 36.4838C6.27077 36.4171 6.1924 36.3181 6.15576 36.1887C6.13439 36.122 6.11912 35.9814 6.10793 35.7682C6.09673 35.5559 6.08657 35.3112 6.07945 35.0333C6.07029 34.7563 6.06418 34.4621 6.06112 34.1508C6.05705 33.8394 6.055 33.5493 6.05398 33.2804C6.05296 33.0368 6.05399 32.8245 6.05603 32.6436C6.05806 32.4616 6.05907 32.3353 6.05907 32.2625C6.05704 31.6823 6.06417 31.0879 6.07842 30.4824L6.0774 30.257C6.0774 30.1529 6.09166 30.0589 6.11914 29.9729C6.14662 29.887 6.2209 29.8446 6.33997 29.8446C6.43361 29.8446 6.54454 29.8718 6.6738 29.9285C6.76234 29.9648 6.82546 30.0225 6.86515 30.1023C6.90383 30.1832 6.93637 30.2853 6.96284 30.4096C6.97912 30.5026 6.98728 30.6532 6.98728 30.8605C6.9883 31.0576 6.98422 31.282 6.97709 31.5337C6.96997 31.7854 6.96691 32.0219 6.96793 32.2453L6.96895 33.052Z" fill="#243645"/>
<path d="M9.13477 30.0295C9.14088 30.076 9.14701 30.1033 9.15515 30.1114C9.16329 30.1195 9.1704 30.1498 9.17549 30.2014C9.22536 31.1344 9.26708 32.0462 9.30066 32.9378C9.31287 33.3886 9.3373 33.8536 9.37496 34.3327C9.41261 34.8119 9.43298 35.2839 9.434 35.751C9.43502 35.9895 9.4279 36.22 9.41263 36.4434C9.40245 36.5415 9.36582 36.6153 9.30374 36.6648C9.24165 36.7143 9.1653 36.7396 9.07676 36.7396C8.96786 36.7396 8.85997 36.7002 8.75616 36.6203C8.65031 36.5404 8.59334 36.4202 8.58316 36.2594C8.56586 36.0108 8.54753 35.7621 8.52514 35.5134C8.50377 35.2647 8.48342 35.008 8.46408 34.7442C8.44474 34.4793 8.4254 34.2013 8.40606 33.9082C8.38672 33.615 8.36944 33.3007 8.35214 32.964C8.34095 32.7154 8.33177 32.4718 8.3277 32.2332C8.32159 31.9946 8.31751 31.7621 8.31751 31.5337C8.31649 31.2537 8.31955 30.9888 8.32667 30.7412C8.3338 30.4915 8.35009 30.258 8.37553 30.0417C8.35416 30.0417 8.33585 30.0407 8.31652 30.0376C8.2982 30.0356 8.27682 30.0336 8.25036 30.0336C8.20354 30.0336 8.15673 30.0356 8.10991 30.0376C8.06208 30.0407 8.0183 30.0417 7.97657 30.0417C7.87174 30.0417 7.78524 30.0316 7.71807 30.0113C7.59288 29.981 7.49517 29.9355 7.428 29.8759C7.36083 29.8162 7.32523 29.7586 7.32523 29.701C7.32523 29.6131 7.39545 29.5554 7.5359 29.5302C7.76083 29.4978 7.97555 29.4756 8.18215 29.4624C8.38774 29.4493 8.60554 29.4311 8.83555 29.4099C8.90272 29.4048 8.99231 29.3977 9.10222 29.3897C9.21214 29.3816 9.32713 29.3775 9.44621 29.3765C9.5775 29.3765 9.7027 29.3826 9.82178 29.3957C9.94187 29.4079 10.0304 29.4351 10.0884 29.4766C10.1882 29.5383 10.237 29.6131 10.238 29.702C10.238 29.8102 10.1658 29.8931 10.0192 29.9517C9.94085 29.983 9.86044 30.0022 9.77699 30.0103C9.69353 30.0184 9.60703 30.0225 9.51848 30.0235H9.32306C9.29252 30.0235 9.25896 30.0235 9.22537 30.0235C9.19179 30.0235 9.16124 30.0245 9.13477 30.0295Z" fill="#243645"/>
<path d="M15.342 35.2668C15.4723 35.2304 15.5792 35.1707 15.6657 35.0868C15.7512 35.0039 15.8214 34.9049 15.8763 34.7917C15.9303 34.6774 15.972 34.5541 15.9995 34.4217C16.028 34.2893 16.0473 34.1528 16.0575 34.0133C16.0738 33.8313 16.0789 33.6555 16.0758 33.4846C16.0728 33.3138 16.0687 33.1611 16.0626 33.0257C15.9792 33.0105 15.8998 33.0115 15.8244 33.0307C15.7491 33.0489 15.6728 33.0661 15.5934 33.0813C15.5151 33.0975 15.4316 33.1055 15.3431 33.1055C15.2545 33.1055 15.1548 33.0833 15.0459 33.0368C14.9512 32.9954 14.9003 32.9317 14.8922 32.8468C14.8841 32.7619 14.9329 32.6871 15.0377 32.6244C15.0947 32.593 15.1731 32.5698 15.2718 32.5536C15.3705 32.5374 15.4743 32.5263 15.5843 32.5182C15.6942 32.5102 15.8 32.5041 15.9018 32.5011C16.0046 32.498 16.0891 32.492 16.1563 32.4808C16.313 32.4596 16.4402 32.4444 16.5399 32.4364C16.6397 32.4283 16.7191 32.4394 16.7781 32.4707C16.8392 32.5011 16.8819 32.5556 16.9084 32.6335C16.9338 32.7113 16.9531 32.8225 16.9643 32.9681C16.9694 33.0661 16.9766 33.1652 16.9847 33.2632C16.9928 33.3623 17.003 33.4472 17.0132 33.52C17.0549 33.8 17.0651 34.0659 17.0427 34.3165C17.0203 34.5683 16.9521 34.7967 16.8412 35.0009C16.7292 35.2061 16.5674 35.384 16.3567 35.5346C16.1461 35.6852 15.8763 35.8035 15.5476 35.8864C15.1364 35.9915 14.7609 35.9733 14.421 35.8318C14.081 35.6903 13.7889 35.4699 13.5426 35.1697C13.2546 34.8129 13.0521 34.4055 12.932 33.9476C12.814 33.4887 12.7722 33.0237 12.8068 32.5526C12.8414 32.0805 12.9523 31.6246 13.1355 31.1839C13.3198 30.7422 13.5671 30.3661 13.8785 30.0548C14.02 29.9143 14.196 29.791 14.4067 29.6838C14.6174 29.5767 14.8403 29.4978 15.0754 29.4483C15.3095 29.3987 15.5415 29.3836 15.7715 29.4038C16.0015 29.424 16.2051 29.4958 16.3832 29.6201C16.4667 29.6767 16.5206 29.7394 16.544 29.8061C16.5674 29.8738 16.5348 29.9355 16.4463 29.9931C16.4107 30.0184 16.3608 30.0265 16.2977 30.0164C16.2346 30.0063 16.1624 29.9921 16.082 29.9739C16.0016 29.9557 15.9079 29.9426 15.8041 29.9315C15.6993 29.9214 15.5893 29.9315 15.4723 29.9598C15.3553 29.9891 15.2291 30.0447 15.0927 30.1286C14.9573 30.2125 14.8169 30.3348 14.6713 30.4955C14.4383 30.7503 14.2571 31.0495 14.1299 31.3952C14.0037 31.7399 13.9172 32.1018 13.8714 32.4808C13.8256 32.8751 13.8266 33.2663 13.8744 33.6544C13.9233 34.0426 14.0352 34.3954 14.2144 34.7108C14.3558 34.9595 14.5299 35.1283 14.7365 35.2182C14.9431 35.3082 15.1395 35.3244 15.3278 35.2668H15.342Z" fill="#243645"/>
<path d="M17.5648 35.2688C17.575 35.1394 17.5821 34.9979 17.5862 34.8452C17.5903 34.6926 17.5933 34.5278 17.5933 34.3519C17.5923 34.1963 17.5913 34.0345 17.5882 33.8657C17.5841 33.6969 17.5801 33.5251 17.574 33.3492C17.5628 33.0904 17.5536 32.8296 17.5485 32.5678C17.5424 32.306 17.5383 32.0512 17.5343 31.8026C17.5312 31.5539 17.5282 31.3194 17.5241 31.099C17.5211 30.8786 17.519 30.6805 17.519 30.5046C17.518 30.3702 17.5221 30.2802 17.5302 30.2368C17.5373 30.1923 17.5485 30.167 17.5607 30.1589C17.5729 30.1508 17.5852 30.1458 17.5954 30.1427C17.6066 30.1407 17.6167 30.1104 17.6269 30.0538C17.632 30.0326 17.634 30.0043 17.634 29.9689C17.634 29.9426 17.635 29.9224 17.6381 29.9062C17.6412 29.89 17.6523 29.8698 17.6727 29.8435C17.7144 29.797 17.8213 29.7627 17.9933 29.7414C18.1653 29.7202 18.3607 29.7091 18.5795 29.7081C18.6273 29.7081 18.6742 29.7091 18.721 29.7111C18.7678 29.7131 18.8156 29.7141 18.8625 29.7141C19.0762 29.7242 19.2726 29.7404 19.4538 29.7637C19.6339 29.7869 19.7601 29.8132 19.8334 29.8456C19.8588 29.8557 19.8894 29.8809 19.924 29.9204C19.9576 29.9598 19.9748 30.0032 19.9748 30.0497C19.9748 30.0599 19.9698 30.0811 19.9596 30.1134C19.9179 30.2024 19.8334 30.26 19.7052 30.2833C19.5769 30.3075 19.4354 30.3196 19.2787 30.3196C19.2054 30.3196 19.1352 30.3196 19.067 30.3166C18.9998 30.3146 18.9286 30.3136 18.8563 30.3136H18.6762C18.6029 30.3136 18.5368 30.3166 18.4808 30.3217C18.4228 30.3267 18.376 30.3399 18.3393 30.3611V30.4541C18.3403 30.5269 18.3424 30.6239 18.3485 30.7452C18.3546 30.8665 18.3627 30.9979 18.3729 31.1374C18.3892 31.2668 18.4004 31.3962 18.4085 31.5256C18.4177 31.655 18.4258 31.7712 18.433 31.8743C18.4411 31.9785 18.4513 32.0967 18.4615 32.2322C18.4869 32.2625 18.55 32.2777 18.6497 32.2777C18.7169 32.2777 18.7912 32.2736 18.8685 32.2655C18.9469 32.2575 19.0273 32.2534 19.1108 32.2534C19.1586 32.2534 19.2044 32.2554 19.2482 32.2605C19.293 32.2655 19.3357 32.2736 19.3774 32.2827C19.4609 32.308 19.5148 32.3414 19.5382 32.3798C19.5617 32.4182 19.5739 32.4586 19.5739 32.5001V32.5304C19.5739 32.588 19.5606 32.6406 19.5352 32.6901C19.5097 32.7396 19.4436 32.777 19.3398 32.8033C19.2726 32.8195 19.1973 32.8336 19.1169 32.8468C19.0365 32.8599 18.9571 32.87 18.8787 32.8781C18.8004 32.8862 18.7261 32.8923 18.6559 32.8943C18.5856 32.8973 18.5266 32.8983 18.4788 32.8983L18.4798 33.1541C18.4798 33.2572 18.4808 33.3603 18.4808 33.4604C18.4808 33.5604 18.4839 33.6636 18.49 33.7667C18.49 33.8647 18.492 33.9607 18.495 34.0537C18.4971 34.1467 18.4991 34.2428 18.4991 34.3408C18.5001 34.4389 18.4991 34.5349 18.4961 34.6279C18.494 34.7209 18.493 34.8169 18.493 34.915L18.494 35.0858C18.494 35.1434 18.5001 35.1819 18.5144 35.2021C18.5276 35.2233 18.5622 35.2354 18.6202 35.2405C18.7403 35.2405 18.8533 35.2364 18.9571 35.2273C19.0619 35.2193 19.1657 35.2152 19.2706 35.2152C19.3754 35.2152 19.4751 35.2213 19.5718 35.2344C19.6685 35.2466 19.7682 35.2718 19.8731 35.3072C20.0145 35.3588 20.0848 35.4235 20.0848 35.5013C20.0858 35.5377 20.0695 35.5741 20.039 35.6105C19.9555 35.7045 19.8354 35.7641 19.6787 35.7904C19.522 35.8167 19.3652 35.8308 19.2085 35.8308C19.1454 35.8308 19.0853 35.8298 19.0243 35.8278C18.9642 35.8258 18.9113 35.8248 18.8645 35.8248H18.6996C18.6009 35.8248 18.5225 35.8278 18.4655 35.8328C18.4085 35.8379 18.3597 35.844 18.3169 35.849C18.2752 35.8541 18.2355 35.8612 18.1999 35.8692C18.1633 35.8773 18.1185 35.8814 18.0666 35.8814C17.9831 35.8814 17.9251 35.8713 17.8936 35.851C17.863 35.8298 17.8213 35.8045 17.7684 35.7732C17.6686 35.7166 17.6055 35.657 17.577 35.5953C17.5485 35.5336 17.5333 35.476 17.5333 35.4245C17.5333 35.383 17.5373 35.3486 17.5445 35.3234C17.5526 35.2971 17.5597 35.2789 17.5648 35.2688Z" fill="#243645"/>
<path d="M21.9951 29.9935C22.0002 30.04 22.0073 30.0673 22.0154 30.0754C22.0225 30.0835 22.0297 30.1128 22.0358 30.1654C22.0846 31.0974 22.1274 32.0102 22.161 32.9007C22.1722 33.3516 22.1966 33.8166 22.2342 34.2967C22.2729 34.7759 22.2922 35.2479 22.2943 35.715C22.2943 35.9525 22.2871 36.184 22.2729 36.4064C22.2627 36.5055 22.2261 36.5782 22.165 36.6288C22.1019 36.6783 22.0266 36.7026 21.9371 36.7036C21.8282 36.7036 21.7203 36.6642 21.6165 36.5843C21.5116 36.5034 21.4546 36.3841 21.4434 36.2234C21.4261 35.9748 21.4078 35.7261 21.3864 35.4774C21.3651 35.2287 21.3437 34.972 21.3243 34.7082C21.305 34.4433 21.2867 34.1653 21.2674 33.8722C21.247 33.579 21.2307 33.2646 21.2134 32.927C21.2012 32.6784 21.1931 32.4347 21.188 32.1962C21.1829 31.9576 21.1788 31.7251 21.1778 31.4967C21.1768 31.2167 21.1799 30.9518 21.188 30.7031C21.1951 30.4545 21.2104 30.221 21.2368 30.0036C21.2154 30.0036 21.1961 30.0026 21.1778 30.0006C21.1585 29.9976 21.1371 29.9966 21.1117 29.9966C21.0648 29.9966 21.017 29.9986 20.9702 30.0006C20.9234 30.0026 20.8786 30.0046 20.8369 30.0046C20.732 30.0046 20.6455 29.9945 20.5784 29.9743C20.4532 29.944 20.3565 29.8985 20.2883 29.8389C20.2211 29.7792 20.1865 29.7216 20.1865 29.664C20.1855 29.576 20.2557 29.5184 20.3972 29.4921C20.6211 29.4608 20.8369 29.4376 21.0425 29.4244C21.248 29.4113 21.4669 29.3931 21.6969 29.3718C21.764 29.3668 21.8526 29.3597 21.9625 29.3516C22.0724 29.3435 22.1874 29.3395 22.3075 29.3385C22.4378 29.3385 22.563 29.3446 22.6831 29.3577C22.8032 29.3698 22.8917 29.3971 22.9497 29.4386C23.0495 29.5012 23.0983 29.576 23.0983 29.664C23.0983 29.7732 23.026 29.8561 22.8795 29.9137C22.8021 29.945 22.7207 29.9652 22.6373 29.9733C22.5538 29.9814 22.4683 29.9854 22.3798 29.9854H22.1843C22.1528 29.9854 22.1202 29.9854 22.0856 29.9854C22.051 29.9854 22.0215 29.9875 21.9951 29.9935Z" fill="#243645"/>
<path d="M24.9741 37.2612C24.9527 37.2662 24.9221 37.2693 24.8804 37.2693C24.7919 37.2693 24.7216 37.249 24.6687 37.2076C24.6168 37.1662 24.5904 37.1096 24.5904 37.0368V37.0216C24.5954 36.9751 24.6117 36.9387 24.6412 36.9124C24.6707 36.8862 24.7074 36.8649 24.7542 36.8457C24.801 36.8275 24.856 36.8103 24.9181 36.7952C24.9801 36.78 25.0432 36.7588 25.1063 36.7325C25.142 36.7163 25.1817 36.6911 25.2234 36.6547C25.2651 36.6183 25.3038 36.5768 25.3394 36.5293C25.3761 36.4828 25.4056 36.4323 25.43 36.3777C25.4524 36.3231 25.4666 36.2705 25.4717 36.218C25.4768 36.1765 25.4809 36.1361 25.4839 36.0977C25.486 36.0593 25.488 36.0188 25.488 35.9774C25.487 35.7651 25.4564 35.5751 25.3954 35.4063C25.3343 35.2375 25.2733 35.0838 25.2102 34.9443L25.1786 34.8816C25.1002 34.7108 25.0097 34.5541 24.9069 34.4126C24.8041 34.2711 24.6962 34.1296 24.5812 33.9901C24.4662 33.8495 24.3481 33.707 24.227 33.5594C24.1069 33.4118 23.9838 33.2481 23.8586 33.0671C23.7639 32.9327 23.6805 32.7841 23.6072 32.6214C23.5339 32.4586 23.4708 32.2858 23.421 32.1048C23.3711 31.9239 23.3314 31.7379 23.3019 31.5488C23.2734 31.3598 23.2581 31.1748 23.2571 30.9939C23.2571 30.9363 23.2571 30.8797 23.2571 30.823C23.2571 30.7664 23.2622 30.7088 23.2724 30.6522C23.2927 30.4763 23.3334 30.3105 23.3925 30.1549C23.4525 29.9992 23.5309 29.8637 23.6296 29.7505C23.7283 29.6363 23.8494 29.5463 23.9919 29.4806C24.1344 29.4149 24.3013 29.3826 24.4886 29.3816C24.6138 29.3816 24.7522 29.3967 24.9028 29.4271C25.1379 29.4786 25.3099 29.5514 25.4208 29.6474C25.5297 29.7435 25.5857 29.8294 25.5857 29.9072C25.5857 30.0113 25.5165 30.0629 25.375 30.0639C25.2804 30.0639 25.1745 30.0356 25.0544 29.98C24.9913 29.9487 24.9313 29.9274 24.8733 29.9143C24.8153 29.9011 24.7644 29.8951 24.7176 29.8951C24.5293 29.8951 24.3898 29.983 24.2993 30.1569C24.2087 30.3308 24.1507 30.542 24.1252 30.7907C24.1202 30.817 24.1171 30.8453 24.1171 30.8756C24.1171 30.9059 24.1171 30.9383 24.1181 30.9686C24.1181 31.1091 24.1314 31.2486 24.1578 31.3891C24.1843 31.5286 24.2179 31.6641 24.2576 31.7965C24.2962 31.9279 24.341 32.0502 24.3919 32.1614C24.4418 32.2726 24.4926 32.3676 24.5445 32.4445C24.6758 32.6466 24.8153 32.8397 24.9608 33.0227C25.1084 33.2066 25.2529 33.3876 25.3974 33.5655C25.542 33.7444 25.6753 33.9243 25.8015 34.1083C25.9267 34.2923 26.0366 34.4823 26.1312 34.6784C26.2625 34.9524 26.3287 35.2637 26.3297 35.6105C26.3307 35.8328 26.3002 36.0492 26.2371 36.2564C26.1801 36.4434 26.0956 36.6122 25.9847 36.7618C25.8727 36.9124 25.7282 37.0297 25.5511 37.1136C25.4677 37.1601 25.376 37.2015 25.2773 37.2389C25.1776 37.2753 25.0738 37.3016 24.9639 37.3178L24.9741 37.2612Z" fill="#243645"/>
<path d="M29.4562 36.3312C29.3565 36.3625 29.2761 36.3554 29.214 36.312C29.1509 36.2685 29.1031 36.2079 29.0685 36.133C29.0339 36.0582 29.0094 35.9754 28.9972 35.8844C28.984 35.7944 28.9769 35.7156 28.9769 35.6478C28.9809 35.4457 28.983 35.2223 28.983 34.9756C28.982 34.729 28.9809 34.4702 28.9799 34.1983C28.9799 33.9264 28.9759 33.6443 28.9698 33.3512C28.9637 33.058 28.9575 32.7639 28.9514 32.4687C28.9392 32.034 28.9372 31.6307 28.9433 31.2607C28.9504 30.8897 28.9738 30.5875 29.0155 30.355C29.0613 30.1164 29.1591 29.9193 29.3066 29.7637C29.4542 29.608 29.6303 29.5008 29.8349 29.4432C30.0791 29.3704 30.3325 29.3674 30.5941 29.4331C30.8546 29.4998 31.0684 29.6393 31.2332 29.8516C31.3981 30.0629 31.4907 30.3014 31.5121 30.5663C31.5294 30.7836 31.5192 30.9726 31.4826 31.1334C31.447 31.2941 31.4001 31.4306 31.3432 31.5417C31.2851 31.6529 31.2241 31.7439 31.1559 31.8147C31.0887 31.8844 31.0307 31.9431 30.9839 31.9896C31.0419 32.031 31.1284 32.1048 31.2424 32.2109C31.3574 32.3161 31.4744 32.4535 31.5925 32.6213C31.7106 32.7902 31.8134 32.9903 31.8999 33.2228C31.9864 33.4553 32.0301 33.7201 32.0312 34.0153C32.0332 34.5187 31.965 34.922 31.8276 35.2283C31.6902 35.5346 31.5121 35.7661 31.2943 35.9218C31.0765 36.0775 30.8312 36.1704 30.5625 36.1998C30.2939 36.2291 30.0323 36.221 29.7758 36.1745C29.7351 36.2008 29.6862 36.2281 29.6313 36.2574C29.5763 36.2867 29.5193 36.3099 29.4562 36.3312ZM30.2837 29.9769C30.1951 29.9254 30.1178 29.9102 30.0526 29.9315C29.9875 29.9527 29.9325 29.9911 29.8888 30.0487C29.844 30.1063 29.8094 30.173 29.7829 30.2509C29.7565 30.3287 29.7392 30.3985 29.728 30.4611C29.7178 30.5339 29.7127 30.63 29.7127 30.7492C29.7137 30.8685 29.7147 30.9918 29.7188 31.1192C29.7209 31.2456 29.7269 31.3719 29.7351 31.4963C29.7442 31.6206 29.7504 31.7217 29.7565 31.7995C29.7565 31.8561 29.7727 31.8915 29.8043 31.9046C29.8348 31.9178 29.8766 31.9259 29.9295 31.9309C29.9763 31.941 30.0303 31.9441 30.0893 31.938C30.1483 31.9319 30.2073 31.9016 30.2653 31.844C30.3539 31.756 30.4312 31.6277 30.4984 31.4589C30.5656 31.29 30.5941 31.0717 30.5829 30.8018C30.5829 30.7351 30.5758 30.6593 30.5615 30.5764C30.5483 30.4935 30.5299 30.4136 30.5065 30.3358C30.4831 30.258 30.4516 30.1872 30.4149 30.1225C30.3793 30.0558 30.3366 30.0083 30.2837 29.9769ZM29.7982 32.59C29.7931 32.8751 29.7931 33.147 29.7962 33.4068C29.7992 33.6655 29.8033 33.9233 29.8063 34.1801C29.8104 34.4368 29.8104 34.6966 29.8084 34.9584C29.8064 35.2202 29.7982 35.4901 29.7839 35.7712C29.9824 35.7863 30.1585 35.754 30.3132 35.6761C30.4658 35.5973 30.5951 35.4851 30.6989 35.3365C30.8038 35.1889 30.8811 35.0181 30.932 34.823C30.9839 34.6289 31.0063 34.4227 31.0002 34.2053C30.9941 33.9769 30.9635 33.7545 30.9086 33.5372C30.8526 33.3198 30.7803 33.1268 30.6908 32.959C30.6022 32.7902 30.4964 32.6577 30.3722 32.5587C30.2501 32.4606 30.1178 32.4171 29.9763 32.4283C29.904 32.4394 29.8582 32.4515 29.8399 32.4677C29.8226 32.4808 29.8084 32.5223 29.7982 32.59Z" fill="#243645"/>
<path d="M32.4433 35.2253C32.4535 35.0959 32.4616 34.9544 32.4657 34.8018C32.4698 34.6491 32.4728 34.4844 32.4718 34.3085C32.4718 34.1528 32.4698 33.9911 32.4667 33.8222C32.4627 33.6544 32.4586 33.4816 32.4525 33.3057C32.4413 33.0469 32.4321 32.7861 32.427 32.5243C32.4219 32.2625 32.4168 32.0078 32.4128 31.7591C32.4097 31.5104 32.4067 31.2759 32.4026 31.0555C32.3995 30.8352 32.3975 30.637 32.3975 30.4612C32.3965 30.3267 32.4006 30.2367 32.4087 30.1933C32.4168 30.1488 32.427 30.1235 32.4392 30.1154C32.4514 30.1074 32.4637 30.1023 32.4738 30.0993C32.485 30.0972 32.4952 30.0669 32.5054 30.0103C32.5105 29.9891 32.5125 29.9608 32.5125 29.9254C32.5125 29.8991 32.5135 29.8789 32.5166 29.8627C32.5196 29.8466 32.5308 29.8263 32.5512 29.8001C32.5929 29.7536 32.6998 29.7192 32.8718 29.698C33.0438 29.6767 33.2392 29.6656 33.458 29.6646C33.5058 29.6646 33.5526 29.6656 33.5995 29.6686C33.6463 29.6707 33.6941 29.6717 33.7409 29.6717C33.9547 29.6818 34.1511 29.698 34.3322 29.7212C34.5124 29.7445 34.6386 29.7718 34.7119 29.8031C34.7373 29.8132 34.7678 29.8385 34.8024 29.8779C34.836 29.9173 34.8534 29.9608 34.8534 30.0073C34.8534 30.0174 34.8482 30.0386 34.8381 30.071C34.7963 30.1599 34.7119 30.2175 34.5836 30.2408C34.4564 30.265 34.3139 30.2772 34.1572 30.2772C34.0849 30.2772 34.0137 30.2772 33.9455 30.2741C33.8783 30.2721 33.8071 30.2711 33.7348 30.2711H33.5547C33.4814 30.2711 33.4163 30.2741 33.3593 30.2792C33.3023 30.2843 33.2544 30.2974 33.2178 30.3186V30.4116C33.2188 30.4844 33.2219 30.5814 33.227 30.7027C33.2331 30.8241 33.2412 30.9555 33.2514 31.095C33.2677 31.2243 33.2789 31.3537 33.288 31.4831C33.2962 31.6125 33.3043 31.7288 33.3114 31.8319C33.3196 31.936 33.3297 32.0543 33.3399 32.1897C33.3654 32.22 33.4285 32.2352 33.5282 32.2352C33.5954 32.2352 33.6697 32.2312 33.747 32.2231C33.8254 32.215 33.9058 32.2109 33.9893 32.2109C34.0371 32.2109 34.0829 32.213 34.1267 32.218C34.1714 32.2231 34.2142 32.2312 34.2559 32.2403C34.3394 32.2655 34.3933 32.2989 34.4167 32.3373C34.4401 32.3757 34.4523 32.4161 34.4523 32.4576V32.4879C34.4523 32.5455 34.4391 32.5981 34.4137 32.6476C34.3882 32.6972 34.3221 32.7346 34.2183 32.7608C34.1511 32.777 34.0758 32.7912 33.9954 32.8043C33.915 32.8175 33.8356 32.8276 33.7572 32.8357C33.6788 32.8437 33.6056 32.8498 33.5343 32.8518C33.4631 32.8538 33.4051 32.8559 33.3573 32.8559L33.3582 33.1116C33.3593 33.2147 33.3593 33.3178 33.3593 33.4179C33.3593 33.518 33.3623 33.6211 33.3684 33.7242C33.3684 33.8222 33.3705 33.9183 33.3735 34.0113C33.3766 34.1043 33.3776 34.2003 33.3776 34.2984C33.3786 34.3964 33.3776 34.4924 33.3746 34.5854C33.3725 34.6784 33.3715 34.7745 33.3715 34.8725L33.3725 35.0434C33.3725 35.101 33.3796 35.1394 33.3928 35.1596C33.4061 35.1798 33.4407 35.193 33.4987 35.198C33.6188 35.198 33.7318 35.194 33.8356 35.1849C33.9404 35.1768 34.0442 35.1727 34.1491 35.1727C34.2539 35.1727 34.3536 35.1788 34.4503 35.192C34.547 35.2041 34.6467 35.2294 34.7516 35.2647C34.893 35.3163 34.9632 35.381 34.9632 35.4588C34.9643 35.4952 34.948 35.5316 34.9175 35.568C34.834 35.662 34.7139 35.7216 34.5572 35.7479C34.4015 35.7742 34.2437 35.7884 34.088 35.7884C34.0249 35.7884 33.9638 35.7873 33.9028 35.7853C33.8427 35.7833 33.7898 35.7823 33.743 35.7823H33.5791C33.4794 35.7823 33.401 35.7853 33.344 35.7904C33.287 35.7954 33.2382 35.8015 33.1954 35.8065C33.1537 35.8116 33.114 35.8187 33.0784 35.8268C33.0417 35.8349 32.997 35.8389 32.9451 35.8389C32.8616 35.8389 32.8036 35.8288 32.7731 35.8086C32.7415 35.7874 32.6998 35.7621 32.6468 35.7307C32.5471 35.6741 32.484 35.6145 32.4555 35.5528C32.427 35.4912 32.4117 35.4335 32.4117 35.382C32.4117 35.3405 32.4158 35.3072 32.424 35.2809C32.4311 35.2546 32.4382 35.2364 32.4433 35.2253Z" fill="#243645"/>
<path d="M36.8736 29.9509C36.8787 29.9974 36.8858 30.0247 36.894 30.0328C36.9021 30.0409 36.9082 30.0702 36.9143 30.1218C36.9642 31.0548 37.0059 31.9666 37.0395 32.8582C37.0507 33.309 37.0751 33.774 37.1138 34.2531C37.1514 34.7323 37.1718 35.2054 37.1728 35.6724C37.1739 35.9099 37.1657 36.1414 37.1515 36.3638C37.1413 36.4629 37.1056 36.5357 37.0436 36.5862C36.9805 36.6357 36.9052 36.66 36.8156 36.661C36.7067 36.661 36.5988 36.6216 36.495 36.5417C36.3902 36.4608 36.3332 36.3416 36.322 36.1808C36.3057 35.9322 36.2864 35.6835 36.265 35.4348C36.2436 35.1862 36.2223 34.9294 36.2029 34.6656C36.1836 34.4007 36.1653 34.1227 36.1459 33.8296C36.1266 33.5364 36.1093 33.2221 36.092 32.8844C36.0808 32.6358 36.0716 32.3922 36.0665 32.1536C36.0614 31.915 36.0574 31.6825 36.0563 31.4541C36.0553 31.1741 36.0594 30.9092 36.0665 30.6606C36.0737 30.4119 36.0889 30.1784 36.1154 29.9611C36.094 29.9611 36.0747 29.96 36.0563 29.958C36.037 29.955 36.0156 29.954 35.9902 29.954C35.9434 29.954 35.8956 29.956 35.8487 29.958C35.8019 29.96 35.7571 29.9621 35.7154 29.9621C35.6106 29.9621 35.5241 29.952 35.4569 29.9317C35.3317 29.9014 35.235 29.8559 35.1679 29.7963C35.0997 29.7366 35.0651 29.679 35.0651 29.6214C35.064 29.5335 35.1343 29.4758 35.2757 29.4496C35.4996 29.4182 35.7154 29.395 35.921 29.3818C36.1276 29.3687 36.3454 29.3505 36.5754 29.3293C36.6426 29.3242 36.7311 29.3171 36.841 29.3091C36.9509 29.301 37.066 29.2969 37.1861 29.2959C37.3163 29.2959 37.4415 29.302 37.5616 29.3151C37.6817 29.3272 37.7702 29.3545 37.8282 29.396C37.928 29.4576 37.9769 29.5335 37.9769 29.6214C37.9769 29.7306 37.9046 29.8135 37.758 29.8711C37.6807 29.9024 37.5993 29.9226 37.5158 29.9307C37.4324 29.9388 37.3469 29.9429 37.2583 29.9429H37.0629C37.0314 29.9429 36.9988 29.9429 36.9642 29.9429C36.9296 29.9429 36.9001 29.9449 36.8736 29.9509Z" fill="#243645"/>
<path d="M39.9187 29.9418C39.9238 29.9883 39.9309 30.0156 39.939 30.0237C39.9472 30.0308 39.9543 30.0611 39.9594 30.1127C40.0093 31.0457 40.051 31.9575 40.0846 32.849C40.0968 33.2999 40.1212 33.7649 40.1589 34.244C40.1965 34.7232 40.2169 35.1962 40.2179 35.6623C40.2189 35.9008 40.2118 36.1313 40.1966 36.3547C40.1854 36.4527 40.1497 36.5265 40.0876 36.5761C40.0255 36.6256 39.9492 36.6509 39.8607 36.6509C39.7518 36.6509 39.6439 36.6114 39.5401 36.5316C39.4342 36.4517 39.3773 36.3314 39.3661 36.1707C39.3498 35.922 39.3315 35.6734 39.3091 35.4247C39.2867 35.176 39.2673 34.9193 39.248 34.6554C39.2276 34.3906 39.2093 34.1126 39.19 33.8195C39.1706 33.5263 39.1533 33.2119 39.136 32.8753C39.1248 32.6267 39.1157 32.383 39.1106 32.1445C39.1055 31.9059 39.1014 31.6734 39.1014 31.445C39.1004 31.165 39.1035 30.9011 39.1106 30.6525C39.1177 30.4028 39.134 30.1703 39.1595 29.9529C39.1381 29.9529 39.1187 29.9519 39.1004 29.9489C39.0821 29.9469 39.0597 29.9449 39.0343 29.9449C38.9874 29.9449 38.9406 29.9469 38.8928 29.9489C38.846 29.9519 38.8022 29.9529 38.7605 29.9529C38.6557 29.9529 38.5692 29.9428 38.502 29.9226C38.3768 29.8923 38.2791 29.8468 38.2119 29.7872C38.1437 29.7275 38.1091 29.6699 38.1091 29.6123C38.1091 29.5243 38.1783 29.4667 38.3198 29.4415C38.5447 29.4091 38.7595 29.3869 38.9661 29.3737C39.1717 29.3606 39.3895 29.3424 39.6195 29.3212C39.6866 29.3161 39.7752 29.309 39.8861 29.3009C39.995 29.2929 40.11 29.2888 40.2301 29.2878C40.3604 29.2878 40.4856 29.2939 40.6057 29.307C40.7258 29.3201 40.8143 29.3464 40.8723 29.3879C40.9721 29.4495 41.0209 29.5243 41.0209 29.6133C41.0219 29.7215 40.9497 29.8043 40.8031 29.863C40.7247 29.8943 40.6443 29.9135 40.5609 29.9216C40.4774 29.9297 40.3909 29.9337 40.3024 29.9347H40.107C40.0764 29.9347 40.0429 29.9347 40.0093 29.9347C39.9736 29.9337 39.9441 29.9368 39.9187 29.9418Z" fill="#243645"/>
<path d="M41.3975 35.2001C41.4077 35.0707 41.4148 34.9291 41.4189 34.7765C41.424 34.6239 41.426 34.4591 41.426 34.2832C41.425 34.1275 41.424 33.9658 41.4199 33.797C41.4169 33.6292 41.4128 33.4563 41.4067 33.2804C41.3955 33.0217 41.3863 32.7609 41.3812 32.5001C41.3751 32.2383 41.3711 31.9825 41.367 31.7338C41.3639 31.4852 41.3599 31.2506 41.3568 31.0303C41.3537 30.8099 41.3517 30.6118 41.3517 30.4359C41.3507 30.3015 41.3548 30.2115 41.3629 30.168C41.37 30.1235 41.3812 30.0983 41.3934 30.0902C41.4057 30.0821 41.4179 30.077 41.428 30.074C41.4392 30.072 41.4494 30.0417 41.4596 29.9851C41.4647 29.9638 41.4667 29.9365 41.4667 29.9002C41.4667 29.8749 41.4677 29.8536 41.4708 29.8375C41.4728 29.8213 41.485 29.8011 41.5054 29.7748C41.5471 29.7283 41.654 29.6939 41.826 29.6727C41.998 29.6515 42.1934 29.6404 42.4122 29.6393C42.459 29.6393 42.5069 29.6404 42.5537 29.6434C42.6005 29.6454 42.6483 29.6464 42.6951 29.6464C42.9089 29.6565 43.1053 29.6727 43.2854 29.696C43.4666 29.7192 43.5928 29.7465 43.6661 29.7778C43.6915 29.789 43.722 29.8132 43.7556 29.8526C43.7902 29.8921 43.8075 29.9355 43.8075 29.982C43.8075 29.9932 43.8025 30.0134 43.7913 30.0457C43.7505 30.1347 43.6661 30.1923 43.5378 30.2155C43.4096 30.2398 43.2671 30.2519 43.1114 30.2529C43.0381 30.2529 42.9669 30.2519 42.8997 30.2499C42.8325 30.2479 42.7613 30.2469 42.689 30.2469H42.5079C42.4356 30.2469 42.3695 30.2499 42.3135 30.255C42.2555 30.26 42.2087 30.2732 42.172 30.2944V30.3874C42.172 30.4591 42.1751 30.5562 42.1812 30.6785C42.1873 30.8008 42.1954 30.9312 42.2056 31.0707C42.2219 31.2001 42.2331 31.3295 42.2412 31.4589C42.2504 31.5883 42.2585 31.7045 42.2657 31.8086C42.2738 31.9118 42.284 32.031 42.2941 32.1655C42.3196 32.1968 42.3827 32.212 42.4824 32.211C42.5496 32.211 42.6229 32.2069 42.7013 32.1988C42.7796 32.1907 42.86 32.1867 42.9435 32.1867C42.9913 32.1867 43.0361 32.1887 43.0809 32.1938C43.1257 32.1988 43.1684 32.2069 43.2101 32.216C43.2936 32.2423 43.3475 32.2746 43.3709 32.3131C43.3943 32.3525 43.4066 32.3919 43.4066 32.4333V32.4647C43.4066 32.5213 43.3933 32.5749 43.3679 32.6234C43.3424 32.6729 43.2763 32.7103 43.1725 32.7366C43.1053 32.7528 43.03 32.7669 42.9496 32.7801C42.8692 32.7932 42.7898 32.8033 42.7114 32.8114C42.6331 32.8195 42.5588 32.8256 42.4875 32.8286C42.4183 32.8306 42.3583 32.8326 42.3114 32.8326L42.3125 33.0884C42.3125 33.1925 42.3135 33.2946 42.3135 33.3947C42.3135 33.4947 42.3165 33.5979 42.3226 33.701C42.3226 33.799 42.3237 33.895 42.3277 33.988C42.3298 34.081 42.3318 34.1771 42.3318 34.2751C42.3328 34.3732 42.3308 34.4692 42.3287 34.5622C42.3267 34.6552 42.3257 34.7512 42.3257 34.8493L42.3267 35.0201C42.3267 35.0777 42.3328 35.1162 42.3471 35.1364C42.3603 35.1576 42.3949 35.1697 42.4529 35.1748C42.573 35.1748 42.686 35.1707 42.7898 35.1627C42.8946 35.1546 42.9974 35.1505 43.1022 35.1495C43.2081 35.1495 43.3078 35.1556 43.4045 35.1687C43.5012 35.1819 43.601 35.2061 43.7058 35.2415C43.8473 35.2931 43.9175 35.3578 43.9175 35.4356C43.9175 35.472 43.9022 35.5084 43.8706 35.5438C43.7882 35.6378 43.6681 35.6974 43.5114 35.7237C43.3546 35.75 43.1979 35.7641 43.0412 35.7641C42.9781 35.7641 42.918 35.7631 42.857 35.7611C42.7969 35.7591 42.744 35.7581 42.6972 35.7581H42.5323C42.4336 35.7581 42.3552 35.7611 42.2982 35.7661C42.2402 35.7712 42.1913 35.7773 42.1496 35.7823C42.1079 35.7884 42.0682 35.7944 42.0326 35.8025C41.9959 35.8096 41.9512 35.8136 41.8992 35.8147C41.8158 35.8147 41.7578 35.8046 41.7262 35.7843C41.6957 35.7641 41.654 35.7378 41.601 35.7065C41.5013 35.6499 41.4382 35.5903 41.4097 35.5286C41.3812 35.4669 41.366 35.4093 41.366 35.3577C41.366 35.3163 41.37 35.2829 41.3771 35.2567C41.3853 35.2294 41.3924 35.2112 41.3975 35.2001Z" fill="#243645"/>
<path d="M45.4299 33.0429C45.4197 33.053 45.4125 33.0975 45.4105 33.1753C45.4075 33.2531 45.4085 33.3492 45.4115 33.4634C45.4146 33.5776 45.4187 33.6999 45.4248 33.8324C45.4298 33.9648 45.4359 34.0901 45.441 34.2094C45.4471 34.3287 45.4512 34.4348 45.4543 34.5278C45.4573 34.6208 45.4594 34.6805 45.4594 34.7067C45.4543 34.9241 45.4573 35.1758 45.4695 35.4608C45.4807 35.7459 45.4899 36.0229 45.495 36.2918C45.495 36.3858 45.5001 36.4859 45.5113 36.595C45.5225 36.7032 45.5214 36.8083 45.5082 36.9094C45.496 37.0115 45.4665 37.1004 45.4197 37.1783C45.3728 37.2561 45.2914 37.3087 45.1774 37.335C45.0268 37.3663 44.9077 37.3501 44.8243 37.2854C44.7408 37.2218 44.6767 37.1338 44.6329 37.0216C44.5892 36.9094 44.5576 36.7901 44.5413 36.6607C44.5251 36.5313 44.5149 36.4201 44.5098 36.3261C44.4925 36.1138 44.4793 35.8702 44.4681 35.5953C44.4569 35.3203 44.4457 35.0413 44.4345 34.7553C44.4233 34.4702 44.4151 34.1872 44.4131 33.9082C44.409 33.6282 44.405 33.3775 44.3989 33.1541C44.3928 32.9307 44.3897 32.7477 44.3897 32.6021C44.3887 32.4566 44.3887 32.3707 44.3887 32.3454C44.3826 32.1068 44.3775 31.8733 44.3744 31.6459C44.3714 31.4184 44.3673 31.2051 44.3642 31.009C44.3612 30.8129 44.3592 30.633 44.3592 30.4723C44.3582 30.3115 44.3582 30.1771 44.3582 30.0689C44.3571 30.0113 44.3571 29.9689 44.3571 29.9406C44.3571 29.9123 44.3581 29.887 44.3612 29.8668C44.3632 29.8455 44.3694 29.8253 44.3765 29.8041C44.3846 29.7829 44.4009 29.7515 44.4274 29.7101C44.3602 29.6171 44.3225 29.5372 44.3174 29.4695C44.3123 29.4028 44.3297 29.3482 44.3683 29.3068C44.407 29.2653 44.468 29.235 44.5485 29.2168C44.6289 29.1976 44.7246 29.1865 44.8335 29.1804C45.0472 29.1693 45.2751 29.1844 45.5153 29.2249C45.7545 29.2653 45.9784 29.3371 46.185 29.4402C46.3906 29.5443 46.5697 29.6788 46.7214 29.8466C46.873 30.0154 46.9677 30.2206 47.0053 30.4642C47.047 30.7492 47.0379 31.009 46.9758 31.2415C46.9137 31.475 46.8201 31.6792 46.6929 31.8521C46.5646 32.026 46.417 32.1725 46.2512 32.2928C46.0842 32.4121 45.9184 32.5031 45.7514 32.5668C45.9926 33.0692 46.24 33.5665 46.4944 34.0608C46.7488 34.5551 46.9992 35.0535 47.2465 35.5559C47.277 35.6438 47.3168 35.7439 47.3646 35.8551C47.4114 35.9663 47.4511 36.0775 47.4827 36.1887C47.5142 36.2999 47.5315 36.405 47.5346 36.504C47.5376 36.6021 47.5101 36.6779 47.4531 36.7295C47.3859 36.7921 47.3178 36.8204 47.2496 36.8154C47.1824 36.8103 47.1183 36.7861 47.0582 36.7416C46.9982 36.6981 46.9453 36.6435 46.8974 36.5788C46.8506 36.5141 46.8109 36.4555 46.7804 36.405C46.6593 36.1927 46.5392 35.9268 46.4181 35.6084C46.297 35.29 46.1779 34.9665 46.0588 34.638C45.9397 34.3095 45.8267 34.0032 45.7199 33.7181C45.612 33.4331 45.5133 33.2188 45.4237 33.0732L45.4299 33.0429ZM45.3881 32.1493C45.5245 32.1442 45.6436 32.0977 45.7484 32.0128C45.8532 31.9269 45.9407 31.8177 46.014 31.6853C46.0873 31.5529 46.1412 31.4063 46.1769 31.2456C46.2125 31.0849 46.2298 30.9272 46.2267 30.7715C46.2237 30.6158 46.2013 30.4713 46.1596 30.3358C46.1168 30.2014 46.0517 30.0952 45.9631 30.0184C45.8736 29.9456 45.7555 29.8789 45.6059 29.8172C45.4563 29.7556 45.3067 29.7192 45.1561 29.7101C45.1815 29.7465 45.2039 29.7768 45.2222 29.8031C45.2405 29.8294 45.2517 29.8698 45.2578 29.9274C45.2578 29.9325 45.2599 29.984 45.266 30.0831C45.2721 30.1811 45.2792 30.3045 45.2874 30.4521C45.2955 30.5996 45.3057 30.7634 45.3159 30.9413C45.326 31.1192 45.3372 31.2911 45.3443 31.4538C45.3515 31.6166 45.3616 31.7621 45.3688 31.8895C45.3759 32.0169 45.383 32.1028 45.3881 32.1493Z" fill="#243645"/>
<path d="M2.76062 23.8572C3.50663 23.1992 4.73099 23.1577 5.52077 23.7632C5.70498 23.0182 5.9635 22.2722 6.44388 21.6718C6.92528 21.0723 7.66417 20.6346 8.43562 20.6741C9.75056 20.7408 10.6421 22.1388 10.7205 23.4448C11.5377 22.2985 12.6796 21.136 14.0923 21.1926C15.5762 21.2523 16.7323 22.9636 16.2255 24.3495C17.0529 24.212 17.9109 24.0766 18.719 24.301C19.5271 24.5264 20.267 25.2199 20.2548 26.0528C20.2364 27.1314 19.0589 27.8087 17.9953 28.027C16.9145 28.2484 15.8021 28.2292 14.6989 28.209C11.5662 28.1524 8.29415 28.3353 5.1147 28.0968C3.92189 28.0068 2.70262 27.8946 2.14794 26.6705C1.72048 25.7273 1.98305 24.5426 2.76062 23.8572Z" fill="white" stroke="#243645" stroke-width="0.2435" stroke-miterlimit="10" stroke-linecap="round" stroke-linejoin="round"/>
<path d="M32.5278 25.7778C32.7578 25.2876 33.2799 24.9782 33.8173 24.8832C34.3536 24.7872 34.9053 24.8762 35.4365 24.9995C35.0793 24.306 35.4335 23.3457 36.1571 23.0455C36.8807 22.7453 37.8171 23.1678 38.0644 23.9078C38.2618 22.6492 38.5824 21.2118 39.7182 20.6205C40.4887 20.2191 41.4871 20.3586 42.1741 20.8904C42.861 21.4211 43.2376 22.2954 43.2457 23.1597C43.6773 22.5765 44.2157 22.0437 44.8965 21.789C45.5774 21.5343 46.4191 21.6131 46.9341 22.1226C47.6251 22.8059 47.5071 23.9441 47.2027 24.863C48.022 24.8206 48.882 24.7872 49.6158 25.1521C50.3486 25.516 50.8758 26.4268 50.5267 27.1627C50.1919 27.8683 49.2892 28.0644 48.5096 28.1513C46.2196 28.404 43.8014 28.3454 41.4596 28.2463C40.0347 28.1847 30.9503 29.1551 32.5278 25.7778Z" fill="white" stroke="#243645" stroke-width="0.2435" stroke-miterlimit="10" stroke-linecap="round" stroke-linejoin="round"/>
<path d="M21.7416 20.3923C22.184 20.3923 22.5426 20.0361 22.5426 19.5967C22.5426 19.1574 22.184 18.8012 21.7416 18.8012C21.2993 18.8012 20.9407 19.1574 20.9407 19.5967C20.9407 20.0361 21.2993 20.3923 21.7416 20.3923Z" fill="#243645"/>
<path d="M31.7492 20.3637C32.1916 20.3637 32.5502 20.0076 32.5502 19.5682C32.5502 19.1288 32.1916 18.7727 31.7492 18.7727C31.3069 18.7727 30.9483 19.1288 30.9483 19.5682C30.9483 20.0076 31.3069 20.3637 31.7492 20.3637Z" fill="#243645"/>
<path d="M25.3547 20.0676C25.4157 22.066 28.1983 22.1479 28.1372 20.0595" stroke="#243645" stroke-width="0.3246" stroke-miterlimit="10" stroke-linecap="round" stroke-linejoin="round"/>
</svg>
