<svg width="40" height="62" viewBox="0 0 40 62" fill="none" xmlns="http://www.w3.org/2000/svg">
<path d="M36.668 35.2172C37.2579 34.6648 37.7022 33.9933 37.968 33.236C38.5397 31.6034 38.0785 30.4906 37.5917 29.8434C37.5565 29.7971 37.5201 29.7519 37.4825 29.7079C38.9148 26.2863 38.7934 22.7478 37.1025 19.5972C35.2369 16.1166 31.6269 13.5901 26.9815 12.4334C27.0203 12.3466 27.0579 12.2609 27.0931 12.174C27.1198 12.1103 27.1453 12.0466 27.172 11.9806L27.1878 11.9401C27.2121 11.8799 27.2364 11.8209 27.257 11.763C27.308 11.6263 27.3578 11.4897 27.4051 11.3473C27.4148 11.3206 27.4245 11.2905 27.4318 11.2628L27.4391 11.2384C27.4779 11.118 27.5143 11.0011 27.5495 10.876L27.5787 10.773C27.6187 10.6317 27.6552 10.4893 27.6879 10.3492L27.6928 10.3249C27.7717 9.98445 27.8324 9.64287 27.8712 9.31751L28.1929 6.68912L27.7365 6.75163C26.9584 3.55007 23.9444 1.15671 20.355 1.15671C16.7645 1.15671 13.7493 3.55121 12.9736 6.75509L12.5439 6.71226L12.8183 9.12878C12.8207 9.15425 12.8231 9.18203 12.8268 9.20751L12.8328 9.26076C12.8498 9.40781 12.8717 9.56184 12.8972 9.71931L12.9032 9.75634C12.9554 10.0655 13.0258 10.3793 13.1084 10.6896C13.1181 10.7255 13.129 10.7626 13.1387 10.7996L13.1496 10.8355C13.1763 10.9293 13.2043 11.0242 13.2322 11.1134C13.254 11.1829 13.2747 11.25 13.3002 11.3253C13.3196 11.3832 13.339 11.4411 13.3596 11.4978L13.3657 11.5152C13.4774 11.8348 13.6073 12.1578 13.7493 12.4739L13.7651 12.5075C13.793 12.5712 13.8221 12.6314 13.85 12.6916C9.58941 13.9213 6.23312 16.2613 4.43055 19.3274C3.20456 21.4128 2.1303 24.7869 3.5056 29.4184C3.34901 29.5632 3.22155 29.7091 3.1208 29.8434C2.63405 30.4883 2.17279 31.6011 2.74451 33.2337C3.06254 34.138 3.64518 34.9277 4.4269 35.5356L0.758653 36.0439L4.23027 39.2732L3.4097 43.8307L4.07975 43.496C3.93773 44.8774 4.66847 46.1962 6.13116 47.1642C6.0644 47.2186 6.00006 47.2754 5.93694 47.3356C5.28995 47.9528 4.92944 48.7667 4.8906 49.6178C4.28974 50.2442 3.94016 51.0628 3.94016 51.9359C3.94016 52.8089 4.28974 53.6275 4.8906 54.254C4.93066 55.1038 5.28995 55.919 5.93694 56.5362C6.57542 57.1441 7.41905 57.4972 8.32822 57.5354C8.96307 58.0901 9.78606 58.4177 10.6673 58.4397C11.4405 59.9751 13.4616 61.0427 15.8942 61.0427C17.7149 61.0427 19.3063 60.4429 20.315 59.4981C21.3079 60.5471 22.983 61.2233 24.9179 61.2233C27.1235 61.2233 28.9904 60.3433 29.8971 59.036C30.6303 58.9411 31.3076 58.6308 31.8478 58.1584C32.7569 58.1202 33.6006 57.7693 34.2391 57.1614C34.886 56.5443 35.2466 55.7303 35.2866 54.8792C35.8875 54.2528 36.2371 53.4342 36.2371 52.5612C36.2371 51.6858 35.8875 50.8694 35.2866 50.2407C35.2466 49.3931 34.8873 48.578 34.2403 47.9608C34.2148 47.9365 34.1893 47.9134 34.1638 47.8902C34.8885 47.7721 35.5221 47.5394 36.0562 47.1932C37.6985 46.1256 38.439 44.6261 38.0894 43.0815C37.9255 42.3532 37.5225 41.6909 36.9278 41.1258L36.5284 38.9027L40 35.6757L36.668 35.2172ZM20.3563 4.92101C22.3579 4.92101 23.9869 6.47605 23.9869 8.38425C23.9869 8.48846 23.9808 8.60773 23.9699 8.73973L23.9541 8.88447C23.9298 9.08362 23.8946 9.29205 23.8461 9.49931L23.8376 9.53405C23.8157 9.62552 23.7915 9.71813 23.766 9.81076L23.7465 9.8814C23.7223 9.96245 23.698 10.0447 23.6713 10.1269L23.647 10.2021C23.6142 10.2982 23.5802 10.3944 23.5438 10.4916C23.5305 10.5252 23.5171 10.5599 23.5038 10.5935L23.4844 10.641C23.4661 10.6861 23.4479 10.7313 23.4285 10.7776C23.403 10.8401 23.3751 10.9027 23.3496 10.9594L23.312 11.0405C23.2501 11.1759 23.193 11.294 23.1384 11.4006L23.0255 11.6043C22.8131 11.9876 22.5813 12.3373 22.3361 12.6441L20.4012 15.071L18.4663 12.7588C18.1689 12.4033 17.8946 11.9957 17.6518 11.5476L17.5486 11.36C17.4952 11.2512 17.4382 11.1342 17.3763 10.9965L17.3653 10.9721C17.2694 10.7567 17.182 10.5391 17.1056 10.3202L17.0983 10.3006C17.0849 10.2612 17.0704 10.2218 17.0594 10.1883C17.0437 10.1419 17.0291 10.0968 17.0133 10.0447C16.9927 9.97981 16.9745 9.91614 16.9575 9.85709L16.9296 9.75751C16.8749 9.55372 16.83 9.35108 16.796 9.15192L16.7924 9.12878C16.779 9.04657 16.7669 8.96319 16.7572 8.88213L16.739 8.69224C16.7293 8.57066 16.7244 8.46993 16.7244 8.38425C16.7269 6.47605 18.3546 4.92101 20.3563 4.92101ZM15.8954 57.2819C15.2897 57.2819 14.8381 57.1533 14.5541 57.0236L16.8276 55.4651L17.426 56.924C17.1796 57.0792 16.6601 57.2819 15.8954 57.2819ZM33.8361 44.0889C33.8276 44.0935 33.6273 44.2197 33.0082 44.2197C31.9692 44.2197 30.4943 43.8562 29.13 43.283L30.4737 42.6091C31.0454 42.7851 31.6426 42.9344 32.2617 43.0387C33.3602 43.2216 33.9672 43.6084 34.1723 43.8168C34.1092 43.8851 34.0036 43.98 33.8361 44.0889ZM33.7511 32.6571L33.6042 31.8951L34.2172 32.0688C34.1201 32.3224 33.9465 32.5146 33.7511 32.6571ZM33.2656 29.4439L32.1282 31.4714L32.5069 31.5802L30.6424 33.8728C30.2455 34.3615 29.7952 34.8177 29.2963 35.2391L26.1135 35.6803L27.1708 36.6622C26.7265 36.8972 26.2629 37.108 25.7797 37.2955L20.9693 39.1678L25.8696 40.8121C26.3758 40.9834 26.9693 41.237 27.541 41.4836C27.995 41.6781 28.4878 41.8912 29.0122 42.0938L28.8229 43.1522C28.642 43.0711 28.4636 42.9842 28.29 42.8962L24.7298 41.098L25.4241 44.8844C25.6729 46.2414 25.9278 47.5915 26.1815 48.9011L26.9742 52.9768L29.3339 50.1296L29.9032 51.4531L31.0782 50.9806L30.5866 52.1049L31.7677 52.5658L30.5866 53.0266L31.0782 54.1486L29.902 53.6785L29.2793 55.1282L25.2202 52.3145L26.4838 57.0838C26.2532 57.2401 25.7215 57.4636 24.9179 57.4636C24.1653 57.4636 23.6507 57.2645 23.3994 57.1128L24.4469 54.8329L21.4876 54.7808C20.8734 54.7692 20.2361 54.731 19.5928 54.665L18.1992 54.5249L20.1548 53.1841L13.0477 53.7746L11.2439 53.0509L10.7583 54.1799L10.2728 53.0509L9.09659 53.521L9.58942 52.399L8.40834 51.9382L9.58942 51.4774L9.0978 50.353L10.2728 50.8255L10.7583 49.6965L11.2439 50.8255L13.0295 50.1087L15.0979 50.5927L15.3831 48.5097C15.5276 47.456 15.6635 46.3572 15.7885 45.2375L16.1466 42.029L13.0428 43.3108C11.6687 43.8805 10.2425 44.2197 9.2289 44.2197C8.60983 44.2197 8.40955 44.0935 8.39984 44.0889C8.23233 43.98 8.12672 43.8851 8.06481 43.8179C8.24568 43.6327 8.73729 43.3154 9.5882 43.1185L10.6297 42.865L10.9829 41.9086L11.7476 40.174L10.0361 39.5048L10.0313 39.2107L10.5641 39.2836L10.9489 37.7344L12.7697 36.5001L11.0606 34.9265C10.7183 34.6127 10.3978 34.2734 10.1077 33.9203L10.0798 33.8867L10.1624 33.7779L9.92929 33.7038L8.26267 31.6821L8.5103 31.6254L7.72615 29.6292C6.44311 26.3628 6.49167 23.5179 7.86939 21.1731C9.46075 18.4706 12.8826 16.508 17.2597 15.7901L20.4509 15.2667L23.6591 15.6535C28.3434 16.2185 31.9631 18.2819 33.5884 21.3144C34.9249 23.7992 34.8096 26.687 33.2656 29.4439Z" fill="#6B5951"/>
<path d="M35.9093 34.0593C36.4993 33.507 36.9435 32.8354 37.2094 32.0781C37.7811 30.4455 37.3198 29.3328 36.8331 28.6867C36.7979 28.6403 36.7615 28.5952 36.7238 28.5512C38.1562 25.1296 38.0348 21.5911 36.3439 18.4405C34.4782 14.9599 30.8682 12.4334 26.2228 11.2766C26.2617 11.1898 26.2993 11.1041 26.3345 11.0173C26.3612 10.9536 26.3867 10.8899 26.4134 10.8239L26.4292 10.7834C26.4534 10.7232 26.4777 10.6641 26.4983 10.6063C26.5493 10.4696 26.5991 10.333 26.6464 10.1906C26.6562 10.1639 26.6659 10.1338 26.6731 10.106L26.6804 10.0817C26.7193 9.96131 26.7557 9.84437 26.7909 9.71932L26.82 9.61625C26.8601 9.47499 26.8965 9.33257 26.9293 9.19246L26.9341 9.16815C27.013 8.82773 27.0737 8.48616 27.1126 8.1608L27.4342 5.53237L26.9778 5.59491C26.1997 2.39335 23.1857 0 19.5964 0C16.0058 0 12.9906 2.3945 12.215 5.59838L11.7853 5.55555L12.0596 7.97207C12.062 7.99754 12.0645 8.02532 12.0681 8.0508L12.0742 8.10405C12.0912 8.2511 12.113 8.40509 12.1385 8.56257L12.1446 8.59963C12.1968 8.90879 12.2672 9.22258 12.3497 9.53289C12.3594 9.56878 12.3703 9.60584 12.3801 9.64289L12.391 9.67879C12.4177 9.77258 12.4456 9.86752 12.4735 9.95667C12.4954 10.0261 12.516 10.0933 12.5415 10.1685C12.5609 10.2264 12.5803 10.2844 12.601 10.3411L12.6071 10.3584C12.7187 10.678 12.8486 11.0011 12.9906 11.3172L13.0064 11.3508C13.0343 11.4145 13.0635 11.4747 13.0914 11.5349C8.83076 12.7646 5.47447 15.1046 3.6719 18.1707C2.44591 20.2561 1.37165 23.6302 2.74694 28.2617C2.59036 28.4064 2.4629 28.5523 2.36215 28.6855C1.8754 29.3316 1.41414 30.4432 1.98586 32.0758C2.30389 32.9801 2.88653 33.7698 3.66825 34.3777L0 34.886L3.47161 38.1153L2.65105 42.6728L3.32109 42.3382C3.17907 43.7195 3.90981 45.0384 5.3725 46.0063C5.30574 46.0608 5.2414 46.1175 5.17828 46.1777C4.5313 46.7949 4.17079 47.6088 4.13195 48.4599C3.53109 49.0863 3.1815 49.905 3.1815 50.778C3.1815 51.6511 3.53109 52.4697 4.13195 53.0961C4.172 53.946 4.5313 54.7611 5.17828 55.3783C5.81677 55.9862 6.6604 56.3393 7.56957 56.3775C8.20441 56.9322 9.02741 57.2599 9.90866 57.2819C10.6819 58.8172 12.7029 59.8848 15.1355 59.8848C16.9563 59.8848 18.5476 59.285 19.5563 58.3402C20.5493 59.3892 22.2244 60.0654 24.1593 60.0654C26.3648 60.0654 28.2317 59.1854 29.1385 57.8782C29.8716 57.7832 30.549 57.4729 31.0891 57.0005C31.9983 56.9623 32.8419 56.6114 33.4804 56.0036C34.1274 55.3864 34.4879 54.5724 34.528 53.7213C35.1288 53.0949 35.4784 52.2763 35.4784 51.4033C35.4784 50.5279 35.1288 49.7116 34.528 49.0828C34.4879 48.2353 34.1286 47.4201 33.4816 46.803C33.4561 46.7786 33.4306 46.7555 33.4052 46.7323C34.1298 46.6142 34.7635 46.3815 35.2976 46.0353C36.9399 44.9677 37.6803 43.4683 37.3308 41.9236C37.1669 41.1953 36.7639 40.533 36.1691 39.968L35.7697 37.7448L39.2413 34.5178L35.9093 34.0593ZM19.5976 3.76313C21.5992 3.76313 23.2282 5.31817 23.2282 7.22637C23.2282 7.33058 23.2222 7.44985 23.2112 7.58185L23.1955 7.72659C23.1712 7.92575 23.136 8.13417 23.0874 8.34143L23.0789 8.37617C23.0571 8.46764 23.0328 8.56025 23.0073 8.65288L22.9879 8.72352C22.9636 8.80457 22.9393 8.88679 22.9126 8.969L22.8884 9.04426C22.8556 9.14037 22.8216 9.23647 22.7852 9.33374C22.7718 9.36732 22.7585 9.40203 22.7451 9.43561L22.7257 9.4831C22.7075 9.52826 22.6893 9.57339 22.6699 9.61971C22.6444 9.68224 22.6165 9.74478 22.591 9.80151L22.5533 9.88257C22.4914 10.018 22.4344 10.1362 22.3798 10.2427L22.2669 10.4465C22.0544 10.8297 21.8226 11.1794 21.5774 11.4862L19.6425 13.9132L17.7076 11.6009C17.4103 11.2454 17.1359 10.8378 16.8932 10.3897L16.79 10.2022C16.7366 10.0933 16.6795 9.97637 16.6176 9.83858L16.6067 9.81423C16.5108 9.59887 16.4234 9.3812 16.3469 9.16236L16.3396 9.14268C16.3263 9.10331 16.3117 9.06396 16.3008 9.03038C16.285 8.98406 16.2704 8.93888 16.2547 8.88677C16.234 8.82193 16.2158 8.75826 16.1988 8.69921L16.1709 8.59963C16.1163 8.39585 16.0714 8.1932 16.0374 7.99405L16.0337 7.9709C16.0204 7.88869 16.0083 7.80531 15.9985 7.72426L15.9803 7.53436C15.9706 7.41278 15.9658 7.31206 15.9658 7.22637C15.9682 5.31817 17.596 3.76313 19.5976 3.76313ZM15.1367 56.124C14.531 56.124 14.0794 55.9954 13.7954 55.8657L16.0689 54.3073L16.6674 55.7662C16.421 55.9213 15.9014 56.124 15.1367 56.124ZM33.0774 42.931C33.0689 42.9356 32.8686 43.0618 32.2496 43.0618C31.2105 43.0618 29.7357 42.6983 28.3713 42.1251L29.7151 41.4512C30.2868 41.6272 30.884 41.7766 31.503 41.8808C32.6016 42.0637 33.2085 42.4505 33.4137 42.6589C33.3505 42.7272 33.2449 42.8221 33.0774 42.931ZM32.9924 31.4992L32.8456 30.7373L33.4586 30.9109C33.3615 31.1645 33.1879 31.3568 32.9924 31.4992ZM32.5069 28.286L31.3695 30.3135L31.7483 30.4223L29.8838 32.715C29.4868 33.2036 29.0365 33.6598 28.5376 34.0813L25.3549 34.5224L26.4122 35.5043C25.9679 35.7393 25.5042 35.9501 25.0211 36.1377L20.2106 38.01L25.1109 39.6542C25.6171 39.8256 26.2107 40.0791 26.7824 40.3257C27.2364 40.5203 27.7292 40.7333 28.2536 40.936L28.0642 41.9943C27.8834 41.9132 27.7049 41.8264 27.5313 41.7384L23.9711 39.9402L24.6654 43.7265C24.9143 45.0835 25.1692 46.4336 25.4229 47.7432L26.2155 51.8189L28.5752 48.9717L29.1445 50.2952L30.3196 49.8227L29.8279 50.9471L31.009 51.4079L29.8279 51.8687L30.3196 52.9907L29.1433 52.5206L28.5206 53.9703L24.4615 51.1566L25.7251 55.926C25.4945 56.0823 24.9628 56.3057 24.1593 56.3057C23.4067 56.3057 22.892 56.1066 22.6407 55.9549L23.6883 53.675L20.7289 53.6229C20.1147 53.6114 19.4774 53.5731 18.8341 53.5071L17.4406 53.367L19.3961 52.0262L12.289 52.6167L10.4852 51.893L9.9997 53.022L9.51416 51.893L8.33793 52.3631L8.83076 51.2412L7.64969 50.7803L8.83076 50.3195L8.33915 49.1952L9.51416 49.6676L9.9997 48.5386L10.4852 49.6676L12.2708 48.9509L14.3392 49.4349L14.6245 47.3518C14.7689 46.2981 14.9049 45.1993 15.0299 44.0796L15.388 40.8711L12.2842 42.1529C10.9101 42.7226 9.48381 43.0618 8.47024 43.0618C7.85118 43.0618 7.6509 42.9356 7.64119 42.931C7.47367 42.8221 7.36807 42.7272 7.30616 42.66C7.48702 42.4748 7.97864 42.1575 8.82955 41.9607L9.87103 41.7071L10.2243 40.7507L10.989 39.0162L9.27745 38.3469L9.2726 38.0528L9.80548 38.1258L10.1903 36.5765L12.011 35.3422L10.3019 33.7686C9.95964 33.4548 9.63918 33.1156 9.34907 32.7624L9.32116 32.7288L9.4037 32.62L9.17064 32.5459L7.50402 30.5242L7.75165 30.4675L6.9675 28.4713C5.68446 25.2049 5.73302 22.36 7.11074 20.0153C8.70209 17.3127 12.1239 15.3501 16.5011 14.6322L19.6923 14.1089L22.9005 14.4956C27.5847 15.0607 31.2044 17.124 32.8298 20.1565C34.1662 22.6413 34.0509 25.5291 32.5069 28.286Z" fill="white"/>
<path d="M25.3513 50.4816C26.0456 51.1439 27.9866 51.9972 28.6336 51.3789C29.2793 50.7641 28.3847 48.9115 27.6916 48.2491C26.9985 47.5868 25.9109 47.5498 25.2651 48.1658C24.6182 48.7841 24.657 49.8193 25.3513 50.4816Z" fill="#FFDDBB"/>
<path d="M27.9684 51.636C27.1259 51.636 25.8745 51.0431 25.3185 50.5117C24.6084 49.8355 24.5684 48.7679 25.2311 48.1368C25.5358 47.845 25.9497 47.6841 26.3964 47.6841C26.882 47.6841 27.3651 47.8809 27.7207 48.2202C28.4454 48.9103 29.3206 50.7826 28.6627 51.4113C28.5073 51.5607 28.273 51.636 27.9684 51.636ZM26.3976 47.7709C25.9752 47.7709 25.5844 47.9226 25.2955 48.1982C24.6679 48.798 24.7068 49.8088 25.3829 50.4503C25.9267 50.9702 27.1478 51.5515 27.9684 51.5515C28.2488 51.5515 28.4612 51.4831 28.6008 51.35C29.2114 50.7664 28.3434 48.9323 27.6576 48.2792C27.319 47.9562 26.8601 47.7709 26.3976 47.7709Z" fill="#BA9E85"/>
<path d="M26.8092 50.8822C27.1952 51.2481 28.2743 51.724 28.6324 51.3801C28.9917 51.0385 28.494 50.0092 28.1092 49.641C27.7232 49.2751 27.1199 49.2542 26.7618 49.5958C26.4025 49.9374 26.4244 50.514 26.8092 50.8822Z" fill="#FFC32C"/>
<path d="M28.2645 51.5422C27.7923 51.5422 27.0907 51.2075 26.7788 50.9111C26.3758 50.5267 26.3539 49.9223 26.7302 49.5657C26.9038 49.3978 27.1381 49.3074 27.3918 49.3074C27.6673 49.3074 27.9404 49.4186 28.1419 49.6108C28.5437 49.9952 29.0523 51.042 28.6663 51.4113C28.5728 51.497 28.4393 51.5422 28.2645 51.5422ZM27.3905 49.3943C27.1611 49.3943 26.9487 49.4753 26.7921 49.6247C26.451 49.9501 26.4729 50.5001 26.8407 50.8509C27.1344 51.1311 27.819 51.4565 28.2633 51.4565C28.4138 51.4565 28.5267 51.4206 28.6008 51.35C28.9321 51.0338 28.4527 50.0288 28.0764 49.6722C27.8931 49.4962 27.6418 49.3943 27.3905 49.3943Z" fill="#BA9E85"/>
<path d="M29.6289 54.562C28.9346 53.8997 28.04 52.0494 28.687 51.4323C29.3327 50.8174 31.2749 51.6696 31.9692 52.3319C32.6635 52.9919 32.7024 54.0305 32.0554 54.6454C31.4084 55.2625 30.3232 55.2243 29.6289 54.562Z" fill="#FFDDBB"/>
<path d="M30.9216 55.127C30.4361 55.127 29.953 54.9325 29.5973 54.5932C28.8727 53.9008 27.9975 52.0285 28.6554 51.4021C28.812 51.2527 29.0463 51.1763 29.3509 51.1763C30.1921 51.1763 31.4436 51.7715 32.0008 52.3006C32.7109 52.9791 32.7497 54.0444 32.0869 54.6754C31.7823 54.9661 31.3683 55.127 30.9216 55.127ZM29.3509 51.262C29.0705 51.262 28.8581 51.3303 28.7185 51.4611C28.108 52.0447 28.9759 53.8788 29.6605 54.5319C30.0003 54.8549 30.4592 55.0402 30.9216 55.0402C31.3441 55.0402 31.7349 54.8885 32.0238 54.6152C32.6514 54.0154 32.6126 53.0046 31.9364 52.3608C31.3926 51.8432 30.1703 51.262 29.3509 51.262Z" fill="#BA9E85"/>
<path d="M29.2092 53.1718C28.8232 52.8036 28.3268 51.7742 28.6861 51.4326C29.0442 51.0911 30.1233 51.5635 30.5093 51.9328C30.8953 52.3022 30.9159 52.8754 30.5578 53.2169C30.1985 53.5608 29.5952 53.54 29.2092 53.1718Z" fill="#FFC32C"/>
<path d="M29.9287 53.5041C29.6532 53.5041 29.3801 53.3929 29.1786 53.2007C28.7768 52.8186 28.2682 51.7719 28.6554 51.4025C28.7465 51.3145 28.8812 51.2717 29.056 51.2717C29.5282 51.2717 30.2298 51.604 30.5417 51.9004C30.736 52.088 30.8488 52.3277 30.8586 52.5836C30.8683 52.8371 30.7736 53.0745 30.5903 53.2482C30.4167 53.4138 30.1812 53.5041 29.9287 53.5041ZM29.0548 51.3574C28.9043 51.3574 28.7914 51.3909 28.7173 51.4616C28.3859 51.7777 28.8654 52.7827 29.2405 53.1417C29.425 53.3177 29.6763 53.4172 29.9275 53.4172C30.157 53.4172 30.3694 53.3362 30.526 53.1868C30.6898 53.0305 30.7772 52.8163 30.7675 52.5847C30.759 52.352 30.6558 52.1297 30.4774 51.9606C30.1849 51.6839 29.499 51.3574 29.0548 51.3574Z" fill="#BA9E85"/>
<path d="M29.6289 48.2503C28.9346 48.9126 28.04 50.7653 28.687 51.3801C29.3328 51.9973 31.2749 51.1451 31.9692 50.4827C32.6636 49.8204 32.7024 48.7841 32.0566 48.167C31.4097 47.551 30.3233 47.5869 29.6289 48.2503Z" fill="#FFDDBB"/>
<path d="M29.3509 51.636C29.0463 51.636 28.812 51.5619 28.6542 51.4125C27.9963 50.7861 28.8727 48.9115 29.5961 48.2214C29.9518 47.8821 30.4349 47.6852 30.9205 47.6852C31.3671 47.6852 31.7799 47.8462 32.0858 48.138C32.7485 48.7714 32.7097 49.8366 31.9996 50.5128C31.4436 51.0431 30.1921 51.636 29.3509 51.636ZM30.9217 47.7709C30.4592 47.7709 30.0004 47.9562 29.6605 48.2792C28.9759 48.9323 28.1068 50.7664 28.7185 51.35C28.8581 51.4831 29.0705 51.5515 29.3509 51.5515C30.1715 51.5515 31.3938 50.9702 31.9377 50.4503C32.6126 49.8077 32.6514 48.7968 32.0238 48.1982C31.7349 47.9215 31.3441 47.7709 30.9217 47.7709Z" fill="#BA9E85"/>
<path d="M29.2093 49.641C28.8245 50.0092 28.3268 51.0386 28.6861 51.3801C29.0442 51.724 30.1233 51.2493 30.5093 50.8822C30.8953 50.514 30.916 49.9374 30.5579 49.5958C30.1986 49.2543 29.5953 49.274 29.2093 49.641Z" fill="#FFC32C"/>
<path d="M29.056 51.5422C28.88 51.5422 28.7465 51.497 28.6542 51.4113C28.2682 51.0431 28.7756 49.9952 29.1786 49.6108C29.3801 49.4186 29.6532 49.3074 29.9288 49.3074C30.1825 49.3074 30.4167 49.4001 30.5903 49.5657C30.7724 49.7393 30.8683 49.9756 30.8586 50.2303C30.8489 50.4839 30.7372 50.7259 30.543 50.9111C30.2298 51.2099 29.5282 51.5422 29.056 51.5422ZM29.9288 49.3943C29.6775 49.3943 29.4274 49.4962 29.2429 49.6722C28.8666 50.03 28.3872 51.0338 28.7186 51.35C28.7926 51.4206 28.9055 51.4565 29.056 51.4565C29.4991 51.4565 30.1849 51.1311 30.4774 50.8509C30.6559 50.6819 30.759 50.4595 30.7675 50.2268C30.776 49.9964 30.6911 49.7833 30.526 49.6247C30.3694 49.4753 30.1582 49.3943 29.9288 49.3943Z" fill="#BA9E85"/>
<path d="M25.3513 52.3319C26.0456 51.6696 27.9866 50.8139 28.6336 51.4322C29.2793 52.0471 28.3847 53.902 27.6916 54.562C26.9973 55.2243 25.9109 55.2614 25.2639 54.6454C24.6181 54.0282 24.657 52.9919 25.3513 52.3319Z" fill="#FFDDBB"/>
<path d="M26.3977 55.127C25.951 55.127 25.5382 54.9661 25.2324 54.6743C24.5696 54.0432 24.6084 52.978 25.3198 52.2995C25.8757 51.7703 27.1272 51.1751 27.9696 51.1751C28.2743 51.1751 28.5085 51.2492 28.6651 51.4009C29.0693 51.7853 28.8654 52.5634 28.7076 52.993C28.4831 53.6009 28.0873 54.2436 27.7232 54.5921C27.3663 54.9325 26.8832 55.127 26.3977 55.127ZM27.9684 51.262C27.1478 51.262 25.9267 51.8409 25.3829 52.3608C24.7068 53.0058 24.6679 54.0166 25.2955 54.6152C25.5832 54.8885 25.9752 55.0402 26.3977 55.0402C26.8601 55.0402 27.319 54.8549 27.6589 54.5319C28.0145 54.1926 28.4017 53.5639 28.6214 52.9641C28.7732 52.5542 28.971 51.8131 28.6008 51.46C28.4624 51.3303 28.2488 51.262 27.9684 51.262Z" fill="#BA9E85"/>
<path d="M26.8092 51.9317C27.1952 51.5635 28.2743 51.0899 28.6324 51.4315C28.9917 51.7731 28.4952 52.8024 28.1092 53.1706C27.7232 53.5388 27.1199 53.5597 26.7618 53.2158C26.4025 52.8753 26.4244 52.3011 26.8092 51.9317Z" fill="#FFC32C"/>
<path d="M27.3905 53.5041C27.1381 53.5041 26.9026 53.4138 26.7302 53.2482C26.3539 52.8881 26.3758 52.2848 26.7788 51.9027C27.0907 51.604 27.7923 51.2717 28.2645 51.2717C28.4393 51.2717 28.5741 51.3145 28.6651 51.4025C29.0523 51.7707 28.5437 52.8186 28.1419 53.2007C27.9392 53.3929 27.6661 53.5041 27.3905 53.5041ZM28.2645 51.3574C27.8203 51.3574 27.1356 51.6827 26.8419 51.9606C26.4741 52.3115 26.4523 52.8603 26.7933 53.1868C26.9499 53.3362 27.1624 53.4172 27.3918 53.4172C27.6443 53.4172 27.8943 53.3177 28.0788 53.1417C28.4551 52.7816 28.9346 51.7777 28.602 51.4616C28.5279 51.3921 28.4138 51.3574 28.2645 51.3574Z" fill="#BA9E85"/>
<path d="M31.6852 49.8285C30.7032 49.8285 28.6979 50.5337 28.6979 51.4067C28.6979 52.2775 30.7032 52.985 31.6852 52.985C32.6672 52.985 33.4623 52.2775 33.4623 51.4067C33.4623 50.5337 32.6672 49.8285 31.6852 49.8285Z" fill="#FFDDBB"/>
<path d="M31.6852 53.0266C30.6607 53.0266 28.653 52.2937 28.653 51.4079C28.653 50.5221 30.6607 49.7868 31.6852 49.7868C32.6903 49.7868 33.5072 50.5152 33.5072 51.4079C33.5072 52.3006 32.6903 53.0266 31.6852 53.0266ZM31.6852 49.8714C30.7165 49.8714 28.7428 50.5812 28.7428 51.4067C28.7428 52.23 30.7165 52.9421 31.6852 52.9421C32.6405 52.9421 33.4174 52.252 33.4174 51.4067C33.4174 50.5592 32.6405 49.8714 31.6852 49.8714Z" fill="#BA9E85"/>
<path d="M30.3572 50.5291C29.8122 50.5291 28.6979 50.9227 28.6979 51.4067C28.6979 51.8907 29.8122 52.2821 30.3572 52.2821C30.9022 52.2821 31.3441 51.8907 31.3441 51.4067C31.3441 50.9227 30.9022 50.5291 30.3572 50.5291Z" fill="#FFC32C"/>
<path d="M30.3572 52.3249C29.7879 52.3249 28.653 51.9289 28.653 51.4067C28.653 50.8845 29.7891 50.4862 30.3572 50.4862C30.9253 50.4862 31.389 50.8995 31.389 51.4067C31.389 51.9138 30.9265 52.3249 30.3572 52.3249ZM30.3572 50.573C29.8256 50.573 28.7416 50.9598 28.7416 51.4079C28.7416 51.856 29.8243 52.2404 30.3572 52.2404C30.8768 52.2404 31.2992 51.8675 31.2992 51.4079C31.3004 50.9459 30.8768 50.573 30.3572 50.573Z" fill="#BA9E85"/>
<path d="M25.6353 49.8285C26.6173 49.8285 28.6226 50.5337 28.6226 51.4067C28.6226 52.2775 26.6173 52.985 25.6353 52.985C24.6533 52.985 23.8583 52.2775 23.8583 51.4067C23.8583 50.5337 24.6533 49.8285 25.6353 49.8285Z" fill="#FFDDBB"/>
<path d="M25.6353 53.0266C24.6303 53.0266 23.8134 52.3006 23.8134 51.4079C23.8134 50.5152 24.6303 49.7868 25.6353 49.7868C26.6598 49.7868 28.6675 50.5221 28.6675 51.4079C28.6675 52.2937 26.6598 53.0266 25.6353 53.0266ZM25.6353 49.8714C24.68 49.8714 23.9032 50.5592 23.9032 51.4067C23.9032 52.252 24.68 52.9421 25.6353 52.9421C26.604 52.9421 28.5777 52.23 28.5777 51.4067C28.5765 50.5812 26.6028 49.8714 25.6353 49.8714Z" fill="#BA9E85"/>
<path d="M26.9621 50.5291C27.5071 50.5291 28.6214 50.9227 28.6214 51.4067C28.6214 51.8907 27.5071 52.2821 26.9621 52.2821C26.4171 52.2821 25.9752 51.8907 25.9752 51.4067C25.9752 50.9227 26.4171 50.5291 26.9621 50.5291Z" fill="#FFC32C"/>
<path d="M26.9621 52.3249C26.3928 52.3249 25.9291 51.9138 25.9291 51.4067C25.9291 50.8995 26.3928 50.4862 26.9621 50.4862C27.5302 50.4862 28.6663 50.8845 28.6663 51.4067C28.6663 51.9289 27.5314 52.3249 26.9621 52.3249ZM26.9621 50.573C26.4426 50.573 26.0201 50.9459 26.0201 51.4079C26.0201 51.8664 26.4426 52.2404 26.9621 52.2404C27.4938 52.2404 28.5765 51.856 28.5765 51.4079C28.5765 50.9598 27.4938 50.573 26.9621 50.573Z" fill="#BA9E85"/>
<path d="M30.3148 54.2922C30.3148 53.3555 29.5743 51.4426 28.6603 51.4426C27.7463 51.4426 27.0058 53.3555 27.0058 54.2922C27.0058 55.2289 27.7463 55.9862 28.6603 55.9862C29.5731 55.9862 30.3148 55.2289 30.3148 54.2922Z" fill="#FFDDBB"/>
<path d="M28.6603 56.029C27.7232 56.029 26.9609 55.2486 26.9609 54.2922C26.9609 53.3126 27.7305 51.3997 28.6603 51.3997C29.5901 51.3997 30.3584 53.3126 30.3584 54.2922C30.3584 55.2497 29.5961 56.029 28.6603 56.029ZM28.6603 51.4866C27.796 51.4866 27.0507 53.3681 27.0507 54.2933C27.0507 55.2045 27.7729 55.9445 28.6603 55.9445C29.5476 55.9445 30.2698 55.2045 30.2698 54.2933C30.2686 53.3681 29.5245 51.4866 28.6603 51.4866Z" fill="#BA9E85"/>
<path d="M29.5792 53.0266C29.5792 52.5067 29.1677 51.4438 28.6603 51.4438C28.1529 51.4438 27.7414 52.5067 27.7414 53.0266C27.7414 53.5465 28.1529 53.968 28.6603 53.968C29.1677 53.9669 29.5792 53.5465 29.5792 53.0266Z" fill="#FFC32C"/>
<path d="M28.6603 54.0096C28.1286 54.0096 27.6965 53.5684 27.6965 53.0254C27.6965 52.4823 28.1128 51.3997 28.6603 51.3997C29.2077 51.3997 29.6241 52.4835 29.6241 53.0254C29.6241 53.5673 29.1907 54.0096 28.6603 54.0096ZM28.6603 51.4866C28.1905 51.4866 27.7863 52.5183 27.7863 53.0266C27.7863 53.5221 28.1784 53.9239 28.6603 53.9239C29.1422 53.9239 29.5343 53.521 29.5343 53.0266C29.5343 52.5171 29.1288 51.4866 28.6603 51.4866Z" fill="#BA9E85"/>
<path d="M30.3148 48.5213C30.3148 49.4581 29.5743 51.3709 28.6603 51.3709C27.7463 51.3709 27.0058 49.4581 27.0058 48.5213C27.0058 47.5846 27.7463 46.825 28.6603 46.825C29.5731 46.825 30.3148 47.5846 30.3148 48.5213Z" fill="#FFDDBB"/>
<path d="M28.6603 51.4137C27.7305 51.4137 26.9609 49.4986 26.9609 48.5213C26.9609 47.5626 27.7232 46.7821 28.6603 46.7821C29.5961 46.7821 30.3584 47.5626 30.3584 48.5213C30.3584 49.4986 29.5901 51.4137 28.6603 51.4137ZM28.6603 46.8678C27.7729 46.8678 27.0507 47.61 27.0507 48.5213C27.0507 49.4441 27.796 51.328 28.6603 51.328C29.5245 51.328 30.2698 49.4441 30.2698 48.5213C30.2686 47.61 29.5476 46.8678 28.6603 46.8678Z" fill="#BA9E85"/>
<path d="M29.5792 49.788C29.5792 50.3079 29.1677 51.3709 28.6603 51.3709C28.1529 51.3709 27.7414 50.3079 27.7414 49.788C27.7414 49.2681 28.1529 48.8455 28.6603 48.8455C29.1677 48.8443 29.5792 49.2681 29.5792 49.788Z" fill="#FFC32C"/>
<path d="M28.6603 51.4136C28.1128 51.4136 27.6965 50.3299 27.6965 49.788C27.6965 49.2461 28.1286 48.8015 28.6603 48.8015C29.192 48.8015 29.6241 49.2449 29.6241 49.788C29.6241 50.331 29.2065 51.4136 28.6603 51.4136ZM28.6603 48.8872C28.1784 48.8872 27.7863 49.2924 27.7863 49.7868C27.7863 50.294 28.1905 51.3268 28.6603 51.3268C29.13 51.3268 29.5343 50.2928 29.5343 49.7868C29.5343 49.2924 29.1422 48.8872 28.6603 48.8872Z" fill="#BA9E85"/>
<path d="M28.7574 52.7488C29.4807 52.7488 30.0671 52.1894 30.0671 51.4994C30.0671 50.8094 29.4807 50.25 28.7574 50.25C28.034 50.25 27.4476 50.8094 27.4476 51.4994C27.4476 52.1894 28.034 52.7488 28.7574 52.7488Z" fill="#BC0A0A"/>
<path d="M28.7574 52.7915C28.0096 52.7915 27.4027 52.2126 27.4027 51.5005C27.4027 50.7884 28.0096 50.2071 28.7574 50.2071C29.5039 50.2071 30.112 50.7884 30.112 51.5005C30.112 52.2126 29.5039 52.7915 28.7574 52.7915ZM28.7574 50.2916C28.0594 50.2916 27.4925 50.8324 27.4925 51.4993C27.4925 52.1639 28.0606 52.7047 28.7574 52.7047C29.4541 52.7047 30.0222 52.1639 30.0222 51.4993C30.0222 50.8324 29.4541 50.2916 28.7574 50.2916Z" fill="#BA9E85"/>
<path d="M8.84656 37.6302C9.54088 38.2902 11.4818 39.1459 12.1288 38.5276C12.7746 37.9127 11.88 36.0601 11.1869 35.3978C10.4937 34.7355 9.40614 34.6984 8.76037 35.3144C8.11339 35.9316 8.15345 36.9679 8.84656 37.6302Z" fill="#FFDDBB"/>
<path d="M11.4648 38.7834C10.6224 38.7834 9.37093 38.1906 8.81498 37.6591C8.10488 36.9806 8.06604 35.9154 8.7288 35.2843C9.03348 34.9925 9.4474 34.8316 9.8941 34.8316C10.3796 34.8316 10.8627 35.0261 11.2184 35.3654C11.9431 36.0578 12.8183 37.9301 12.1616 38.5588C12.0038 38.7082 11.7695 38.7834 11.4648 38.7834ZM9.8941 34.9184C9.47168 34.9184 9.08081 35.0701 8.79191 35.3457C8.16435 35.9432 8.2032 36.954 8.87932 37.5978C9.42312 38.1177 10.6443 38.6966 11.4648 38.6966C11.7452 38.6966 11.9576 38.6306 12.0972 38.4974C12.7078 37.9139 11.8399 36.0798 11.1541 35.4267C10.8154 35.1037 10.3566 34.9184 9.8941 34.9184Z" fill="#BA9E85"/>
<path d="M10.3056 38.0285C10.6916 38.3967 11.7707 38.8726 12.1288 38.5287C12.4881 38.1872 11.9904 37.1578 11.6056 36.7896C11.2196 36.4214 10.6163 36.4006 10.2582 36.7445C9.89891 37.0849 9.92076 37.6615 10.3056 38.0285Z" fill="#FFC32C"/>
<path d="M11.7598 38.6885C11.2876 38.6885 10.586 38.3562 10.274 38.0597C9.87101 37.6753 9.84916 37.0709 10.2255 36.712C10.399 36.5464 10.6333 36.4561 10.887 36.4561C11.1626 36.4561 11.4357 36.5672 11.6372 36.7595C12.0389 37.1416 12.5476 38.1906 12.1615 38.56C12.0693 38.6456 11.9346 38.6885 11.7598 38.6885ZM10.887 36.5418C10.6576 36.5418 10.4452 36.6228 10.2886 36.7722C9.94749 37.0975 9.96934 37.6475 10.3371 37.9984C10.6309 38.2786 11.3167 38.6016 11.7598 38.604C11.9103 38.604 12.0232 38.568 12.0972 38.4974C12.4286 38.1813 11.9491 37.1763 11.5728 36.8173C11.3883 36.6437 11.1383 36.5418 10.887 36.5418Z" fill="#BA9E85"/>
<path d="M13.1254 41.7095C12.4311 41.0471 11.5365 39.1945 12.1835 38.5797C12.8293 37.9625 14.7714 38.817 15.4657 39.477C16.1601 40.1394 16.1989 41.1757 15.5519 41.7928C14.9049 42.4088 13.8197 42.3729 13.1254 41.7095Z" fill="#FFDDBB"/>
<path d="M14.4181 42.2756C13.9326 42.2756 13.4495 42.0811 13.0938 41.7395C12.3692 41.0494 11.494 39.1771 12.1519 38.5484C12.3085 38.399 12.5427 38.3249 12.8474 38.3249C13.6886 38.3249 14.9401 38.9178 15.4973 39.4492C16.2074 40.1278 16.2474 41.193 15.5846 41.8241C15.2775 42.1147 14.8636 42.2756 14.4181 42.2756ZM12.8462 38.4106C12.5658 38.4106 12.3534 38.4766 12.2138 38.6098C11.6032 39.1933 12.4711 41.0274 13.1557 41.6805C13.4956 42.0035 13.9557 42.1888 14.4169 42.1888C14.8393 42.1888 15.2302 42.0371 15.5191 41.7615C16.1467 41.1641 16.1078 40.1532 15.4317 39.5095C14.8891 38.9896 13.6668 38.4106 12.8462 38.4106Z" fill="#BA9E85"/>
<path d="M12.7057 40.3192C12.3197 39.951 11.8233 38.9216 12.1826 38.5801C12.5406 38.2362 13.6198 38.7109 14.0058 39.0803C14.3906 39.4462 14.4124 40.0228 14.0543 40.3644C13.695 40.7083 13.0917 40.6851 12.7057 40.3192Z" fill="#FFC32C"/>
<path d="M13.424 40.6515C13.1484 40.6515 12.8753 40.5404 12.6738 40.3481C12.272 39.966 11.7634 38.917 12.1507 38.5476C12.2417 38.4619 12.3764 38.4191 12.5512 38.4191C13.0234 38.4191 13.725 38.7514 14.037 39.0478C14.2312 39.2331 14.3441 39.4751 14.3538 39.7287C14.3635 39.9846 14.2688 40.2219 14.0855 40.3933C13.9119 40.5612 13.6777 40.6515 13.424 40.6515ZM12.5512 38.5036C12.4007 38.5036 12.2878 38.5395 12.2138 38.6102C11.8824 38.9263 12.3619 39.9313 12.7369 40.2879C12.9214 40.4639 13.1727 40.5658 13.424 40.5658C13.6534 40.5658 13.8658 40.4848 14.0224 40.3354C14.1875 40.1768 14.2725 39.9649 14.264 39.7333C14.2555 39.5006 14.1523 39.2783 13.9739 39.1092C13.6801 38.829 12.9955 38.5036 12.5512 38.5036Z" fill="#BA9E85"/>
<path d="M13.1254 35.3978C12.4311 36.0601 11.5365 37.9127 12.1835 38.5276C12.8292 39.1447 14.7714 38.2902 15.4657 37.6302C16.16 36.9679 16.1989 35.9316 15.5531 35.3144C14.9061 34.6996 13.8197 34.7355 13.1254 35.3978Z" fill="#FFDDBB"/>
<path d="M12.8474 38.7834C12.8462 38.7834 12.8462 38.7834 12.8474 38.7834C12.5427 38.7834 12.3072 38.7093 12.1506 38.5599C11.4927 37.9312 12.3691 36.0589 13.0926 35.3665C13.4482 35.0272 13.9314 34.8327 14.4169 34.8327C14.8636 34.8327 15.2763 34.9937 15.5822 35.2854C16.245 35.9165 16.2061 36.9817 15.496 37.6603C14.9401 38.1906 13.6886 38.7834 12.8474 38.7834ZM14.4181 34.9184C13.9569 34.9184 13.4968 35.1037 13.1569 35.4267C12.4723 36.0798 11.6032 37.9138 12.2138 38.4974C12.3534 38.6282 12.5658 38.6966 12.8462 38.6966C13.6667 38.6966 14.8891 38.1176 15.4329 37.5977C16.1078 36.9528 16.1466 35.942 15.5191 35.3457C15.2314 35.0701 14.8405 34.9184 14.4181 34.9184Z" fill="#BA9E85"/>
<path d="M12.7057 36.7884C12.3209 37.1567 11.8233 38.186 12.1826 38.5276C12.5419 38.8715 13.6198 38.3968 14.0058 38.0274C14.3905 37.6615 14.4124 37.0849 14.0543 36.7433C13.695 36.3994 13.0917 36.4202 12.7057 36.7884Z" fill="#FFC32C"/>
<path d="M12.5512 38.6885C12.3764 38.6885 12.2417 38.6456 12.1507 38.56C11.7646 38.1894 12.2732 37.1416 12.675 36.7595C12.8765 36.5672 13.1496 36.4561 13.4252 36.4561C13.6777 36.4561 13.9132 36.5464 14.0867 36.712C14.2688 36.8856 14.3647 37.123 14.355 37.3766C14.3453 37.6325 14.2336 37.8745 14.0394 38.0597C13.7262 38.3562 13.0234 38.6885 12.5512 38.6885ZM13.424 36.5418C13.1727 36.5418 12.9214 36.6437 12.7381 36.8197C12.3619 37.1775 11.8824 38.1813 12.2138 38.4974C12.2878 38.568 12.4007 38.6016 12.5512 38.604C12.9955 38.604 13.6813 38.2786 13.9739 37.9984C14.1523 37.8293 14.2555 37.607 14.264 37.3743C14.2725 37.1438 14.1875 36.9308 14.0224 36.7722C13.8658 36.624 13.6534 36.5418 13.424 36.5418Z" fill="#BA9E85"/>
<path d="M8.84656 39.4782C9.54088 38.8182 11.4818 37.9625 12.1288 38.5808C12.7746 39.1957 11.88 41.0483 11.1869 41.7106C10.4925 42.3729 9.40614 42.41 8.76037 41.794C8.11339 41.1757 8.15345 40.1405 8.84656 39.4782Z" fill="#FFDDBB"/>
<path d="M9.8941 42.2756C9.4474 42.2756 9.03469 42.1147 8.7288 41.8229C8.06604 41.1918 8.10488 40.1266 8.81498 39.4481C9.37093 38.9166 10.6236 38.3237 11.4648 38.3237C11.7695 38.3237 12.0038 38.3978 12.1604 38.5472C12.5646 38.9339 12.3606 39.7121 12.2028 40.1416C11.9783 40.7495 11.5826 41.3921 11.2184 41.7384C10.8627 42.0811 10.3796 42.2756 9.8941 42.2756ZM11.4648 38.4106C10.6443 38.4106 9.42312 38.9895 8.87932 39.5094C8.2032 40.1544 8.16435 41.1652 8.79191 41.7615C9.0796 42.0371 9.47168 42.1888 9.8941 42.1888C10.3566 42.1888 10.8154 42.0035 11.1553 41.6805C11.5109 41.3412 11.8982 40.7102 12.1179 40.1127C12.2696 39.7028 12.4675 38.9617 12.0972 38.6086C11.9576 38.4754 11.7452 38.4106 11.4648 38.4106Z" fill="#BA9E85"/>
<path d="M10.3056 39.0803C10.6916 38.7121 11.7707 38.2362 12.1288 38.5801C12.4881 38.9216 11.9904 39.951 11.6056 40.3192C11.2196 40.6851 10.6163 40.7082 10.2582 40.3644C9.89891 40.0228 9.92076 39.4462 10.3056 39.0803Z" fill="#FFC32C"/>
<path d="M10.887 40.6515C10.6345 40.6515 10.399 40.5612 10.2255 40.3956C9.84916 40.0355 9.87101 39.4322 10.274 39.0478C10.586 38.7514 11.2876 38.4191 11.7598 38.4191C11.9346 38.4191 12.0693 38.4619 12.1603 38.5476C12.5476 38.9181 12.0389 39.966 11.6372 40.3481C11.4357 40.5404 11.1626 40.6515 10.887 40.6515ZM11.7598 38.5036C11.3155 38.5036 10.6309 38.829 10.3371 39.1092C9.97055 39.46 9.9487 40.0089 10.2886 40.3354C10.4452 40.4848 10.6576 40.5658 10.887 40.5658C11.1395 40.5658 11.3895 40.4639 11.574 40.2879C11.9503 39.9301 12.4298 38.9263 12.0972 38.6102C12.0244 38.5395 11.9103 38.5036 11.7598 38.5036Z" fill="#BA9E85"/>
<path d="M15.1805 36.976C14.1985 36.976 12.1932 37.6811 12.1932 38.5519C12.1932 39.4249 14.1985 40.1301 15.1805 40.1301C16.1625 40.1301 16.9576 39.4249 16.9576 38.5519C16.9588 37.6823 16.1625 36.976 15.1805 36.976Z" fill="#FFDDBB"/>
<path d="M15.1804 40.174C14.1559 40.174 12.1482 39.4411 12.1482 38.553C12.1482 37.6661 14.1559 36.9343 15.1804 36.9343C16.1855 36.9343 17.0024 37.6603 17.0024 38.553C17.0036 39.4481 16.1855 40.174 15.1804 40.174ZM15.1804 37.0188C14.2118 37.0188 12.2381 37.7286 12.2381 38.5518C12.2381 39.3774 14.2118 40.0872 15.1804 40.0872C16.1357 40.0872 16.9126 39.3994 16.9126 38.5518C16.9126 37.7066 16.1357 37.0188 15.1804 37.0188Z" fill="#BA9E85"/>
<path d="M13.8525 37.6777C13.3075 37.6777 12.1932 38.069 12.1932 38.553C12.1932 39.0393 13.3075 39.4307 13.8525 39.4307C14.3976 39.4307 14.8394 39.0393 14.8394 38.553C14.8406 38.069 14.3988 37.6777 13.8525 37.6777Z" fill="#FFC32C"/>
<path d="M13.8525 39.4735C13.2844 39.4735 12.1482 39.0752 12.1482 38.553C12.1482 38.0331 13.2844 37.6348 13.8525 37.6348C14.4218 37.6348 14.8855 38.0458 14.8855 38.553C14.8855 39.0613 14.423 39.4735 13.8525 39.4735ZM13.8525 37.7205C13.3208 37.7205 12.2381 38.1049 12.2381 38.553C12.2381 39.0034 13.3208 39.3878 13.8525 39.3878C14.372 39.3878 14.7944 39.015 14.7944 38.553C14.7956 38.0933 14.3732 37.7205 13.8525 37.7205Z" fill="#BA9E85"/>
<path d="M9.13061 36.976C10.1126 36.976 12.1179 37.6811 12.1179 38.5519C12.1179 39.4249 10.1126 40.1301 9.13061 40.1301C8.1486 40.1301 7.35354 39.4249 7.35354 38.5519C7.35354 37.6823 8.14982 36.976 9.13061 36.976Z" fill="#FFDDBB"/>
<path d="M9.13058 40.174C8.12551 40.174 7.30859 39.4481 7.30859 38.553C7.30859 37.6603 8.12551 36.9343 9.13058 36.9343C10.1551 36.9343 12.1628 37.6672 12.1628 38.553C12.1628 39.4411 10.1563 40.174 9.13058 40.174ZM9.13058 37.0188C8.17528 37.0188 7.39842 37.7066 7.39842 38.5518C7.39842 39.3994 8.17528 40.0872 9.13058 40.0872C10.0992 40.0872 12.073 39.3774 12.073 38.5518C12.073 37.7297 10.1004 37.0188 9.13058 37.0188Z" fill="#BA9E85"/>
<path d="M10.4586 37.6777C11.0036 37.6777 12.1179 38.069 12.1179 38.553C12.1179 39.0393 11.0036 39.4307 10.4586 39.4307C9.91354 39.4307 9.4717 39.0393 9.4717 38.553C9.4717 38.069 9.91354 37.6777 10.4586 37.6777Z" fill="#FFC32C"/>
<path d="M10.4586 39.4735C9.88925 39.4735 9.42557 39.0625 9.42557 38.553C9.42557 38.0458 9.88804 37.6348 10.4586 37.6348C11.0266 37.6348 12.1628 38.0331 12.1628 38.553C12.1628 39.0752 11.0266 39.4735 10.4586 39.4735ZM10.4586 37.7205C9.93902 37.7205 9.5166 38.0933 9.5166 38.553C9.5166 39.0138 9.93902 39.3878 10.4586 39.3878C10.9902 39.3878 12.073 39.0034 12.073 38.553C12.073 38.1049 10.9902 37.7205 10.4586 37.7205Z" fill="#BA9E85"/>
<path d="M13.81 41.4385C13.81 40.5018 13.0696 38.589 12.1556 38.589C11.2415 38.589 10.5011 40.5018 10.5011 41.4385C10.5011 42.3753 11.2415 43.1348 12.1556 43.1348C13.0696 43.1348 13.81 42.3741 13.81 41.4385Z" fill="#FFDDBB"/>
<path d="M12.1567 43.1776C11.2196 43.1776 10.4573 42.3972 10.4573 41.4385C10.4573 40.4612 11.2269 38.5461 12.1567 38.5461C13.0865 38.5461 13.8561 40.4612 13.8561 41.4385C13.8549 42.3972 13.0926 43.1776 12.1567 43.1776ZM12.1567 38.6317C11.2925 38.6317 10.5472 40.5156 10.5472 41.4385C10.5472 42.3497 11.2694 43.0919 12.1567 43.0919C13.0441 43.0919 13.7663 42.3497 13.7663 41.4385C13.7651 40.5156 13.0198 38.6317 12.1567 38.6317Z" fill="#BA9E85"/>
<path d="M13.0744 40.1718C13.0744 39.6519 12.6629 38.589 12.1555 38.589C11.6481 38.589 11.2366 39.6519 11.2366 40.1718C11.2366 40.6917 11.6481 41.1143 12.1555 41.1143C12.6641 41.1155 13.0744 40.6917 13.0744 40.1718Z" fill="#FFC32C"/>
<path d="M12.1567 41.1582C11.625 41.1582 11.1929 40.7171 11.1929 40.1717C11.1929 39.631 11.6105 38.5461 12.1567 38.5461C12.7029 38.5461 13.1205 39.6322 13.1205 40.1717C13.1193 40.7171 12.6884 41.1582 12.1567 41.1582ZM12.1567 38.6317C11.6869 38.6317 11.2827 39.6657 11.2827 40.1717C11.2827 40.6696 11.6748 41.0714 12.1567 41.0714C12.6386 41.0714 13.0307 40.6685 13.0307 40.1717C13.0307 39.6657 12.6252 38.6317 12.1567 38.6317Z" fill="#BA9E85"/>
<path d="M13.81 35.6687C13.81 36.6054 13.0696 38.5183 12.1556 38.5183C11.2415 38.5183 10.5011 36.6054 10.5011 35.6687C10.5011 34.732 11.2415 33.9724 12.1556 33.9724C13.0696 33.9736 13.81 34.7331 13.81 35.6687Z" fill="#FFDDBB"/>
<path d="M12.1567 38.5622C11.2269 38.5622 10.4573 36.6471 10.4573 35.6698C10.4573 34.7111 11.2196 33.9307 12.1567 33.9307C13.0926 33.9307 13.8561 34.7111 13.8561 35.6698C13.8549 36.6459 13.0865 38.5622 12.1567 38.5622ZM12.1567 34.0164C11.2694 34.0164 10.5472 34.7586 10.5472 35.6698C10.5472 36.5927 11.2925 38.4766 12.1567 38.4766C13.021 38.4766 13.7663 36.5927 13.7663 35.6698C13.7651 34.7574 13.0428 34.0164 12.1567 34.0164Z" fill="#BA9E85"/>
<path d="M13.0744 36.9354C13.0744 37.4553 12.6629 38.5183 12.1555 38.5183C11.6481 38.5183 11.2366 37.4553 11.2366 36.9354C11.2366 36.4155 11.6481 35.9929 12.1555 35.9929C12.6641 35.9929 13.0744 36.4155 13.0744 36.9354Z" fill="#FFC32C"/>
<path d="M12.1567 38.5622C11.6093 38.5622 11.1929 37.4762 11.1929 36.9366C11.1929 36.3912 11.625 35.9501 12.1567 35.9501C12.6884 35.9501 13.1205 36.3912 13.1205 36.9366C13.1193 37.4762 12.7029 38.5622 12.1567 38.5622ZM12.1567 36.0358C11.6748 36.0358 11.2827 36.4387 11.2827 36.9354C11.2827 37.4426 11.6869 38.4754 12.1567 38.4754C12.6265 38.4754 13.0307 37.4414 13.0307 36.9354C13.0307 36.4387 12.6386 36.0358 12.1567 36.0358Z" fill="#BA9E85"/>
<path d="M12.2526 39.895C12.976 39.895 13.5624 39.3357 13.5624 38.6457C13.5624 37.9557 12.976 37.3963 12.2526 37.3963C11.5293 37.3963 10.9429 37.9557 10.9429 38.6457C10.9429 39.3357 11.5293 39.895 12.2526 39.895Z" fill="#BC0A0A"/>
<path d="M12.2526 39.939C11.5061 39.939 10.898 39.3601 10.898 38.6457C10.898 37.9336 11.5049 37.3546 12.2526 37.3546C13.0004 37.3546 13.6073 37.9336 13.6073 38.6457C13.6073 39.3601 13.0004 39.939 12.2526 39.939ZM12.2526 37.4403C11.5559 37.4403 10.9878 37.981 10.9878 38.6457C10.9878 39.3126 11.5559 39.8533 12.2526 39.8533C12.9506 39.8533 13.5175 39.3126 13.5175 38.6457C13.5175 37.981 12.9506 37.4403 12.2526 37.4403Z" fill="#BA9E85"/>
<path d="M6.69319 49.8552C7.38751 50.5175 9.32968 51.3708 9.97544 50.7548C10.6212 50.1377 9.72782 48.2851 9.0335 47.6228C8.34039 46.9605 7.25399 46.9234 6.60701 47.5417C5.96003 48.1577 5.99887 49.1929 6.69319 49.8552Z" fill="#FFDDBB"/>
<path d="M9.31022 51.0107C8.46902 51.0107 7.21754 50.4155 6.66038 49.8841C5.95028 49.2079 5.91144 48.1426 6.57299 47.5093C6.87888 47.2175 7.2928 47.0588 7.73828 47.0588C8.22382 47.0588 8.70693 47.2534 9.06259 47.5926C9.78726 48.2827 10.6624 50.1573 10.0045 50.7838C9.85038 50.9343 9.61611 51.0107 9.31022 51.0107ZM7.73949 47.1445C7.31707 47.1445 6.92622 47.2962 6.63732 47.5718C6.00976 48.1715 6.04982 49.1824 6.72472 49.8262C7.26852 50.3437 8.49087 50.925 9.31022 50.925C9.59061 50.925 9.80304 50.8567 9.94264 50.7236C10.5544 50.14 9.6853 48.3082 9.00069 47.6551C8.66202 47.3321 8.20197 47.1445 7.73949 47.1445Z" fill="#BA9E85"/>
<path d="M8.15222 50.2558C8.53701 50.6217 9.61612 51.0976 9.97421 50.756C10.3335 50.4121 9.83704 49.3828 9.45104 49.0169C9.06625 48.6487 8.46176 48.6278 8.10367 48.9694C7.74437 49.3133 7.76622 49.8876 8.15222 50.2558Z" fill="#FFC32C"/>
<path d="M9.60519 50.9158C9.133 50.9158 8.43139 50.5835 8.11943 50.2847C7.71643 49.9003 7.6958 49.2959 8.07088 48.9392C8.24446 48.7737 8.47873 48.681 8.73121 48.681C9.00676 48.681 9.27987 48.7922 9.48137 48.9844C9.88315 49.3688 10.3918 50.4155 10.0045 50.7849C9.91593 50.8706 9.7812 50.9158 9.60519 50.9158ZM8.73243 48.7679C8.50422 48.7679 8.29058 48.8513 8.13521 49.0006C7.79412 49.3237 7.81597 49.8737 8.18376 50.2245C8.47751 50.5047 9.16213 50.8301 9.6064 50.8301C9.75692 50.8301 9.86981 50.7942 9.94385 50.7236C10.2752 50.4075 9.79576 49.4047 9.42068 49.0458C9.23496 48.8698 8.98491 48.7679 8.73243 48.7679Z" fill="#BA9E85"/>
<path d="M10.9708 53.9379C10.2765 53.2756 9.38191 51.4229 10.0289 50.8058C10.6747 50.1909 12.6168 51.0431 13.3111 51.7055C14.0055 52.3655 14.0443 53.4041 13.3985 54.0189C12.7516 54.6361 11.6652 54.5979 10.9708 53.9379Z" fill="#FFDDBB"/>
<path d="M12.2635 54.5006C11.778 54.5006 11.2949 54.3061 10.9392 53.9668C10.2146 53.2744 9.33938 51.4021 9.99729 50.7756C10.1539 50.6263 10.3881 50.5498 10.6928 50.5498C11.534 50.5498 12.7855 51.145 13.3427 51.6742C14.0528 52.3527 14.0916 53.418 13.4288 54.0513C13.1242 54.3396 12.7102 54.5006 12.2635 54.5006ZM10.6928 50.6355C10.4124 50.6355 10.2 50.7039 10.0604 50.837C9.44985 51.4183 10.3178 53.2524 11.0036 53.9054C11.3422 54.2285 11.8023 54.4137 12.2648 54.4137C12.6872 54.4137 13.078 54.262 13.3657 53.9888C13.9933 53.389 13.9544 52.3782 13.2795 51.7344C12.7345 51.2168 11.5134 50.6355 10.6928 50.6355Z" fill="#BA9E85"/>
<path d="M10.5512 52.5454C10.1664 52.1795 9.66872 51.1501 10.028 50.8062C10.3861 50.4646 11.4664 50.9371 11.8512 51.3064C12.2372 51.6746 12.2579 52.249 11.8998 52.5928C11.5405 52.9344 10.9372 52.9136 10.5512 52.5454Z" fill="#FFC32C"/>
<path d="M11.2706 52.8777C10.9951 52.8777 10.722 52.7688 10.5205 52.5766C10.1187 52.1922 9.6101 51.1454 9.99731 50.7761C10.0884 50.6904 10.2231 50.6452 10.3979 50.6452C10.8701 50.6452 11.5717 50.9776 11.8836 51.2763C12.0779 51.4616 12.1907 51.7036 12.2005 51.9572C12.2102 52.213 12.1143 52.4481 11.9322 52.6217C11.7586 52.7873 11.5243 52.8777 11.2706 52.8777ZM10.3979 50.7309C10.2474 50.7309 10.1345 50.7668 10.0604 50.8375C9.72906 51.1536 10.2085 52.1563 10.5848 52.5152C10.7693 52.6912 11.0194 52.7908 11.2706 52.7908C11.5001 52.7908 11.7125 52.7098 11.8691 52.5604C12.0342 52.4041 12.1203 52.1899 12.1106 51.9583C12.1021 51.7279 11.999 51.5055 11.8205 51.3342C11.5268 51.0574 10.8422 50.7309 10.3979 50.7309Z" fill="#BA9E85"/>
<path d="M10.9709 47.6239C10.2766 48.2862 9.38195 50.1388 10.0277 50.756C10.6735 51.3708 12.6156 50.5186 13.31 49.8563C14.0043 49.194 14.0431 48.1577 13.3961 47.5429C12.7516 46.9246 11.6652 46.9628 10.9709 47.6239Z" fill="#FFDDBB"/>
<path d="M10.6928 51.0107C10.3882 51.0107 10.1539 50.9343 9.99731 50.7849C9.3394 50.1585 10.2158 48.2839 10.9393 47.5938C11.2949 47.2545 11.778 47.06 12.2636 47.06C12.7103 47.06 13.123 47.2209 13.4276 47.5104C14.0904 48.1437 14.0516 49.209 13.3415 49.8852C12.7855 50.4167 11.534 51.0107 10.6928 51.0107ZM12.2636 47.1445C11.8011 47.1445 11.341 47.3321 11.0024 47.6551C10.3178 48.3082 9.44865 50.14 10.0604 50.7235C10.2 50.8567 10.4124 50.925 10.6928 50.925C11.5134 50.925 12.7345 50.3437 13.2783 49.8262C13.9545 49.1812 13.9921 48.1704 13.3657 47.5718C13.0768 47.295 12.686 47.1445 12.2636 47.1445Z" fill="#BA9E85"/>
<path d="M10.5512 49.0169C10.1652 49.3828 9.66871 50.4121 10.0268 50.756C10.3861 51.0976 11.4652 50.6228 11.85 50.2558C12.2348 49.8876 12.2566 49.3133 11.8986 48.9694C11.5405 48.6278 10.9372 48.6475 10.5512 49.0169Z" fill="#FFC32C"/>
<path d="M10.3979 50.9158C10.2231 50.9158 10.0884 50.8706 9.99731 50.7849C9.6101 50.4167 10.1187 49.3688 10.5205 48.9844C10.722 48.7922 10.9963 48.681 11.2706 48.681C11.5231 48.681 11.7586 48.7737 11.9322 48.9392C12.1143 49.1129 12.2102 49.3491 12.2005 49.6039C12.1907 49.8575 12.0779 50.0995 11.8836 50.2847C11.5717 50.5835 10.8701 50.9158 10.3979 50.9158ZM11.2706 48.7679C11.0182 48.7679 10.7681 48.8698 10.5836 49.0458C10.2073 49.4059 9.72784 50.4075 10.0604 50.7236C10.1345 50.7942 10.2474 50.8301 10.3979 50.8301C10.8422 50.8301 11.5268 50.5047 11.8205 50.2245C11.999 50.0555 12.1021 49.8331 12.1106 49.6027C12.1191 49.3723 12.0342 49.1569 11.8691 49.0006C11.7125 48.8513 11.5001 48.7679 11.2706 48.7679Z" fill="#BA9E85"/>
<path d="M6.69319 51.7055C7.38751 51.0432 9.32968 50.1898 9.97544 50.8058C10.6212 51.423 9.7266 53.2756 9.0335 53.9379C8.33917 54.5979 7.25278 54.6373 6.60701 54.019C5.96003 53.4041 5.99887 52.3655 6.69319 51.7055Z" fill="#FFDDBB"/>
<path d="M7.73954 54.5006C7.29406 54.5006 6.88013 54.3397 6.57424 54.0502C5.9127 53.4168 5.95032 52.3516 6.66164 51.673C7.21758 51.1439 8.46906 50.5487 9.31147 50.5487C9.61615 50.5487 9.85042 50.6251 10.007 50.7745C10.4124 51.1612 10.2073 51.937 10.0495 52.3666C9.82493 52.9745 9.42922 53.6171 9.06507 53.9657C8.70819 54.3061 8.22508 54.5006 7.73954 54.5006ZM9.31026 50.6356C8.4897 50.6356 7.26857 51.2168 6.72476 51.7344C6.04986 52.3794 6.01102 53.3902 6.63737 53.9888C6.92626 54.2621 7.31712 54.4138 7.73954 54.4138C8.20202 54.4138 8.66207 54.2285 9.00073 53.9055C9.35639 53.5662 9.74361 52.9375 9.96331 52.3377C10.115 51.9278 10.3129 51.189 9.94268 50.8359C9.8043 50.7039 9.59066 50.6356 9.31026 50.6356Z" fill="#BA9E85"/>
<path d="M8.15228 51.3053C8.53707 50.9371 9.61619 50.4635 9.97549 50.8051C10.3336 51.149 9.83711 52.1783 9.45232 52.5442C9.06632 52.9124 8.46303 52.9333 8.10374 52.5917C7.74444 52.2489 7.76628 51.6746 8.15228 51.3053Z" fill="#FFC32C"/>
<path d="M8.73369 52.8777C8.48 52.8777 8.24573 52.7873 8.07215 52.6217C7.69585 52.2616 7.7177 51.6584 8.1207 51.2763C8.43266 50.9776 9.13426 50.6452 9.60645 50.6452C9.78125 50.6452 9.91598 50.6904 10.007 50.7761C10.3942 51.1443 9.88563 52.1922 9.48385 52.5766C9.28113 52.7688 9.00802 52.8777 8.73369 52.8777ZM9.60524 50.7309C9.16097 50.7309 8.47635 51.0563 8.1826 51.3342C7.8148 51.685 7.79417 52.2339 8.13405 52.5604C8.29063 52.7098 8.50306 52.7908 8.73248 52.7908C8.98375 52.7908 9.23379 52.6912 9.4183 52.5152C9.79459 52.1551 10.2741 51.1536 9.94148 50.8375C9.86986 50.768 9.75576 50.7309 9.60524 50.7309Z" fill="#BA9E85"/>
<path d="M13.0271 49.2022C12.0451 49.2022 10.0398 49.9096 10.0398 50.7803C10.0398 51.6511 12.0451 52.3585 13.0271 52.3585C14.0091 52.3585 14.8042 51.6511 14.8042 50.7803C14.8042 49.9096 14.0079 49.2022 13.0271 49.2022Z" fill="#FFDDBB"/>
<path d="M13.0271 52.4025C12.0026 52.4025 9.99488 51.6672 9.99488 50.7814C9.99488 49.8957 12.0026 49.1604 13.0271 49.1604C14.0322 49.1604 14.8491 49.8887 14.8491 50.7814C14.8491 51.6742 14.0309 52.4025 13.0271 52.4025ZM13.0271 49.2449C12.0584 49.2449 10.0847 49.9547 10.0847 50.7803C10.0847 51.6059 12.0584 52.3157 13.0271 52.3157C13.9824 52.3157 14.7592 51.6255 14.7592 50.7803C14.7592 49.935 13.9824 49.2449 13.0271 49.2449Z" fill="#BA9E85"/>
<path d="M11.6991 49.9026C11.1541 49.9026 10.0398 50.2963 10.0398 50.7803C10.0398 51.2643 11.1541 51.658 11.6991 51.658C12.2442 51.658 12.686 51.2643 12.686 50.7803C12.686 50.2963 12.2442 49.9026 11.6991 49.9026Z" fill="#FFC32C"/>
<path d="M11.6991 51.6985C11.131 51.6985 9.99488 51.3025 9.99488 50.7803C9.99488 50.2581 11.131 49.8598 11.6991 49.8598C12.2684 49.8598 12.7321 50.2731 12.7321 50.7803C12.7321 51.2874 12.2684 51.6985 11.6991 51.6985ZM11.6991 49.9466C11.1675 49.9466 10.0847 50.3333 10.0847 50.7814C10.0847 51.2295 11.1675 51.6163 11.6991 51.6163C12.2187 51.6163 12.6411 51.2411 12.6411 50.7814C12.6411 50.3218 12.2187 49.9466 11.6991 49.9466Z" fill="#BA9E85"/>
<path d="M6.976 49.2022C7.958 49.2022 9.96328 49.9096 9.96328 50.7803C9.96328 51.6511 7.958 52.3585 6.976 52.3585C5.99521 52.3585 5.19891 51.6511 5.19891 50.7803C5.19891 49.9096 5.99521 49.2022 6.976 49.2022Z" fill="#FFDDBB"/>
<path d="M6.97602 52.4025C5.97095 52.4025 5.15403 51.6742 5.15403 50.7814C5.15403 49.8887 5.97095 49.1604 6.97602 49.1604C8.00051 49.1604 10.0082 49.8957 10.0082 50.7814C10.0082 51.6672 8.00172 52.4025 6.97602 52.4025ZM6.97602 49.2449C6.02072 49.2449 5.24385 49.935 5.24385 50.7803C5.24385 51.6255 6.02072 52.3157 6.97602 52.3157C7.94467 52.3157 9.91839 51.6059 9.91839 50.7803C9.91839 49.9547 7.94589 49.2449 6.97602 49.2449Z" fill="#BA9E85"/>
<path d="M8.30397 49.9026C8.84898 49.9026 9.9633 50.2963 9.9633 50.7803C9.9633 51.2643 8.84898 51.658 8.30397 51.658C7.75895 51.658 7.31711 51.2643 7.31711 50.7803C7.31711 50.2963 7.75895 49.9026 8.30397 49.9026Z" fill="#FFC32C"/>
<path d="M8.30397 51.6985C7.73467 51.6985 7.2722 51.2874 7.2722 50.7803C7.2722 50.2731 7.73467 49.8598 8.30397 49.8598C8.87326 49.8598 10.0082 50.2581 10.0082 50.7803C10.0082 51.3025 8.87326 51.6985 8.30397 51.6985ZM8.30397 49.9466C7.78444 49.9466 7.36203 50.3218 7.36203 50.7814C7.36203 51.2411 7.78565 51.6163 8.30397 51.6163C8.83563 51.6163 9.9196 51.2295 9.9196 50.7814C9.9196 50.3333 8.83685 49.9466 8.30397 49.9466Z" fill="#BA9E85"/>
<path d="M11.6554 53.6657C11.6554 52.729 10.915 50.8162 10.0009 50.8162C9.08813 50.8162 8.34647 52.729 8.34647 53.6657C8.34647 54.6025 9.08692 55.3598 10.0009 55.3598C10.9162 55.3598 11.6554 54.6025 11.6554 53.6657Z" fill="#FFDDBB"/>
<path d="M10.0021 55.4026C9.06626 55.4026 8.30275 54.6245 8.30275 53.6657C8.30275 52.6885 9.07233 50.7734 10.0021 50.7734C10.9319 50.7734 11.7015 52.6885 11.7015 53.6657C11.7015 54.6256 10.9392 55.4026 10.0021 55.4026ZM10.0021 50.8602C9.13788 50.8602 8.39258 52.7418 8.39258 53.6669C8.39258 54.5782 9.11481 55.3204 10.0021 55.3204C10.8895 55.3204 11.6117 54.5782 11.6117 53.6669C11.6117 52.7418 10.8664 50.8602 10.0021 50.8602Z" fill="#BA9E85"/>
<path d="M10.9211 52.4002C10.9211 51.8803 10.5096 50.8173 10.0022 50.8173C9.49478 50.8173 9.08329 51.8803 9.08329 52.4002C9.08329 52.9201 9.49478 53.3415 10.0022 53.3415C10.5096 53.3404 10.9211 52.9201 10.9211 52.4002Z" fill="#FFC32C"/>
<path d="M10.0022 53.3832C9.47051 53.3832 9.03838 52.9421 9.03838 52.399C9.03838 51.856 9.45473 50.7734 10.0022 50.7734C10.5496 50.7734 10.966 51.8571 10.966 52.399C10.966 52.9409 10.5338 53.3832 10.0022 53.3832ZM10.0022 50.8602C9.53241 50.8602 9.1282 51.8942 9.1282 52.4002C9.1282 52.8958 9.52027 53.2975 10.0022 53.2975C10.4841 53.2975 10.8761 52.8946 10.8761 52.4002C10.8761 51.893 10.4707 50.8602 10.0022 50.8602Z" fill="#BA9E85"/>
<path d="M11.6554 47.8949C11.6554 48.8316 10.915 50.7445 10.0009 50.7445C9.08813 50.7445 8.34647 48.8316 8.34647 47.8949C8.34647 46.9581 9.08692 46.1986 10.0009 46.1986C10.9162 46.1986 11.6554 46.9581 11.6554 47.8949Z" fill="#FFDDBB"/>
<path d="M10.0021 50.7872C9.07233 50.7872 8.30275 48.8721 8.30275 47.8948C8.30275 46.9361 9.06505 46.1557 10.0021 46.1557C10.9392 46.1557 11.7015 46.9361 11.7015 47.8948C11.7015 48.8721 10.9319 50.7872 10.0021 50.7872ZM10.0021 46.2414C9.11481 46.2414 8.39258 46.9836 8.39258 47.8948C8.39258 48.82 9.13788 50.7016 10.0021 50.7016C10.8664 50.7016 11.6117 48.82 11.6117 47.8948C11.6117 46.9836 10.8895 46.2414 10.0021 46.2414Z" fill="#BA9E85"/>
<path d="M10.9211 49.1616C10.9211 49.6815 10.5096 50.7445 10.0022 50.7445C9.49478 50.7445 9.08329 49.6815 9.08329 49.1616C9.08329 48.6417 9.49478 48.2202 10.0022 48.2202C10.5096 48.2202 10.9211 48.6417 10.9211 49.1616Z" fill="#FFC32C"/>
<path d="M10.0022 50.7872C9.45473 50.7872 9.03838 49.7035 9.03838 49.1616C9.03838 48.6197 9.47051 48.1774 10.0022 48.1774C10.5338 48.1774 10.966 48.6185 10.966 49.1616C10.966 49.7046 10.5496 50.7872 10.0022 50.7872ZM10.0022 48.2607C9.52027 48.2607 9.1282 48.666 9.1282 49.1604C9.1282 49.6676 9.53241 50.7004 10.0022 50.7004C10.4719 50.7004 10.8761 49.6664 10.8761 49.1604C10.8761 48.666 10.4841 48.2607 10.0022 48.2607Z" fill="#BA9E85"/>
<path d="M10.0993 52.1223C10.8226 52.1223 11.409 51.563 11.409 50.873C11.409 50.183 10.8226 49.6236 10.0993 49.6236C9.37593 49.6236 8.78953 50.183 8.78953 50.873C8.78953 51.563 9.37593 52.1223 10.0993 52.1223Z" fill="#BC0A0A"/>
<path d="M10.0993 52.1651C9.35276 52.1651 8.74462 51.5862 8.74462 50.8741C8.74462 50.162 9.35276 49.5807 10.0993 49.5807C10.8458 49.5807 11.4539 50.162 11.4539 50.8741C11.4539 51.5862 10.8458 52.1651 10.0993 52.1651ZM10.0993 49.6653C9.40131 49.6653 8.83444 50.2083 8.83444 50.8729C8.83444 51.5376 9.40131 52.0806 10.0993 52.0806C10.7972 52.0806 11.3641 51.5376 11.3641 50.8729C11.3641 50.2083 10.796 49.6653 10.0993 49.6653Z" fill="#BA9E85"/>
<path d="M24.0761 37.7369C25.9831 37.6686 28.6268 39.6659 31.812 40.1974C34.9971 40.7266 36.4634 42.8003 34.0879 44.3426C31.7112 45.8872 24.5325 42.8976 24.0773 41.0403C23.6221 39.1842 22.7117 37.7867 24.0761 37.7369Z" fill="#EFB27F"/>
<path d="M31.2967 41.6284C30.322 41.5022 28.9334 41.3887 27.9684 41.7141C27.2582 41.9538 27.1162 43.0375 27.5265 43.6338C29.8583 44.6377 32.7424 45.2167 34.0874 44.3413C34.4843 44.0854 34.7647 43.8122 34.9565 43.5343C34.006 42.5176 32.6223 41.7998 31.2967 41.6284Z" fill="#FBD1AB"/>
<path d="M32.2496 44.9434C29.1361 44.9434 24.3001 42.7041 23.9008 41.0784C23.7903 40.6256 23.6483 40.1915 23.5245 39.8094C23.2331 38.9143 23.0219 38.2693 23.3157 37.8733C23.4614 37.6788 23.7078 37.577 24.0707 37.5631C25.0782 37.5341 26.2423 38.0262 27.5945 38.6074C28.8593 39.1528 30.2953 39.7677 31.843 40.0259C33.7633 40.3443 35.1617 41.2474 35.4044 42.3231C35.5792 43.0943 35.1471 43.8608 34.1894 44.4826C33.7208 44.7894 33.069 44.9434 32.2496 44.9434ZM24.1715 37.9081H24.0828C23.8401 37.9173 23.6847 37.9718 23.6094 38.0737C23.4189 38.3296 23.6277 38.9687 23.868 39.7086C23.9942 40.0954 24.1375 40.5365 24.2516 41.002C24.5793 42.3359 29.1774 44.5995 32.2496 44.5995C32.9937 44.5995 33.5788 44.4641 33.9854 44.2012C34.8266 43.6536 35.1944 43.0294 35.0512 42.3961C34.8388 41.457 33.5545 40.6592 31.7811 40.3651C30.1873 40.0988 28.7307 39.4736 27.4452 38.9224C26.1767 38.3782 25.0806 37.9081 24.1715 37.9081Z" fill="#231F20"/>
<path d="M16.6449 37.7369C14.7379 37.6685 12.0954 39.6659 8.91025 40.1974C5.72511 40.7265 4.25878 42.8003 6.63428 44.3426C9.011 45.8872 16.1897 42.8976 16.6449 41.0403C17.1001 39.1831 18.0105 37.7867 16.6449 37.7369Z" fill="#EFB27F"/>
<path d="M7.76504 43.9036C9.00559 43.7832 10.4768 43.6327 11.551 42.9518C12.6022 42.2849 13.8962 39.829 12.0596 39.2454C11.0813 39.6414 10.0301 40.0096 8.9097 40.1972C5.96733 40.6858 4.49978 42.4921 6.16397 43.9812C6.69563 43.98 7.22973 43.9557 7.76504 43.9036Z" fill="#FBD1AB"/>
<path d="M16.6443 37.7374C15.7036 37.7062 14.5832 38.174 13.3062 38.7216C14.5177 39.8459 14.8478 41.8421 13.4216 43.1112C12.9749 43.5095 12.4699 43.8372 11.9297 44.1174C14.2482 43.3439 16.4028 42.032 16.6443 41.042C17.0995 39.1848 18.0099 37.7872 16.6443 37.7374Z" fill="#FBD1AB"/>
<path d="M8.47269 44.9434C7.65334 44.9434 7.00029 44.7894 6.53296 44.4849C5.57402 43.8631 5.1431 43.0965 5.31789 42.3254C5.56066 41.2486 6.95902 40.3466 8.87812 40.0282C10.4258 39.77 11.8618 39.1551 13.1266 38.6097C14.4788 38.0285 15.6393 37.5352 16.6504 37.5653C17.0121 37.5792 17.2598 37.6811 17.4042 37.8756C17.6967 38.2716 17.4867 38.9154 17.1954 39.8116C17.0704 40.1937 16.9296 40.6279 16.8179 41.0807C16.4222 42.7052 11.585 44.9434 8.47269 44.9434ZM16.5497 37.908C15.6405 37.908 14.5456 38.3782 13.2759 38.9235C11.9904 39.4758 10.5338 40.0999 8.94124 40.3663C7.16659 40.6604 5.88234 41.4581 5.67113 42.3972C5.52668 43.0306 5.89569 43.6546 6.73688 44.2023C7.14352 44.4652 7.72739 44.6007 8.47269 44.6007C11.5437 44.6007 16.1418 42.337 16.4695 41.0031C16.5836 40.5376 16.7269 40.0965 16.8531 39.7097C17.0947 38.9698 17.3022 38.3307 17.1117 38.0748C17.0352 37.9729 16.881 37.9185 16.6383 37.9092H16.5497V37.908Z" fill="#231F20"/>
<path d="M13.8495 37.063C13.8495 37.063 13.3433 46.2241 11.7253 53.6508C19.1067 56.1588 25.1225 55.6274 28.4594 53.6508C26.5889 44.9713 25.2742 36.7735 25.2742 36.7735L13.8495 37.063Z" fill="#AF1524"/>
<path d="M23.0049 55.2474C23.8182 54.1891 24.3754 52.9838 24.3936 51.4727C24.4227 49.0887 23.8388 46.7034 22.4538 44.6863C20.7265 42.1645 18.9021 41.0633 15.9088 40.188C15.1125 39.9552 14.4024 39.5256 13.7105 39.0544C13.4689 42.1598 12.8802 48.3464 11.7246 53.6495C16.0411 55.1177 19.8841 55.5392 23.0049 55.2474Z" fill="#C52831"/>
<path d="M21.1028 55.5091C18.1556 55.5091 14.9789 54.9394 11.6639 53.8128L11.5158 53.763L11.5474 53.6159C13.1424 46.2865 13.6631 37.1427 13.668 37.0524L13.6765 36.8937L25.4265 36.595L25.4508 36.7444C25.4642 36.8278 26.7861 45.0371 28.6348 53.6148L28.6602 53.7329L28.5534 53.7966C26.661 54.9174 24.0852 55.5091 21.1028 55.5091ZM11.9322 53.5395C15.155 54.6187 18.2406 55.1652 21.1028 55.1652C23.9614 55.1652 26.4316 54.6129 28.256 53.5662C26.5566 45.6624 25.3064 38.0979 25.1194 36.9482L14.0188 37.2284C13.9423 38.4708 13.3949 46.7439 11.9322 53.5395Z" fill="#231F20"/>
<path d="M20.2722 55.0895L19.7442 38.7818L19.3826 38.7925L19.9107 55.1002L20.2722 55.0895Z" fill="#231F20"/>
<path d="M21.7207 43.1046H17.3982C17.2986 43.1046 17.2185 43.0282 17.2185 42.9333C17.2185 42.8384 17.2986 42.7619 17.3982 42.7619H21.7207C21.8214 42.7619 21.9003 42.8384 21.9003 42.9333C21.9003 43.0282 21.8214 43.1046 21.7207 43.1046Z" fill="#231F20"/>
<path d="M21.7207 44.5161H17.3982C17.2986 44.5161 17.2185 44.4374 17.2185 44.3424C17.2185 44.2498 17.2986 44.1734 17.3982 44.1734H21.7207C21.8214 44.1734 21.9003 44.2498 21.9003 44.3424C21.9015 44.4374 21.8214 44.5161 21.7207 44.5161Z" fill="#231F20"/>
<path d="M15.1373 57.8343C17.0218 57.8343 18.5495 56.9603 18.5495 55.8821C18.5495 54.8039 17.0218 53.9299 15.1373 53.9299C13.2529 53.9299 11.7252 54.8039 11.7252 55.8821C11.7252 56.9603 13.2529 57.8343 15.1373 57.8343Z" fill="#EFB27F"/>
<path d="M17.0656 56.6195C17.4989 54.4728 12.9907 54.3848 11.755 55.7059C11.7453 55.765 11.7246 55.8217 11.7246 55.882C11.7246 56.9588 13.2529 57.8342 15.138 57.8342C15.5543 57.8342 15.9488 57.7844 16.3179 57.7079C16.6954 57.4405 16.9709 57.0896 17.0656 56.6195Z" fill="#FBD1AB"/>
<path d="M15.1368 58.0055C13.1558 58.0055 11.545 57.0537 11.545 55.8819C11.545 54.7078 13.1558 53.7561 15.1368 53.7561C17.1166 53.7561 18.7285 54.7078 18.7285 55.8819C18.7298 57.0537 17.1166 58.0055 15.1368 58.0055ZM15.1368 54.0999C13.3536 54.0999 11.9031 54.8977 11.9031 55.8819C11.9031 56.8638 13.3536 57.6616 15.1368 57.6616C16.9187 57.6616 18.3692 56.8638 18.3692 55.8819C18.3692 54.8989 16.9187 54.0999 15.1368 54.0999Z" fill="#231F20"/>
<path d="M24.1611 58.0161C26.0455 58.0161 27.5732 57.141 27.5732 56.0616C27.5732 54.9821 26.0455 54.1071 24.1611 54.1071C22.2766 54.1071 20.7489 54.9821 20.7489 56.0616C20.7489 57.141 22.2766 58.0161 24.1611 58.0161Z" fill="#EFB27F"/>
<path d="M25.9655 57.7149C26.1524 57.4485 26.2702 57.1695 26.2398 56.9125C26.1027 55.743 25.1049 55.3435 23.9966 55.3273C22.9636 55.3134 21.6017 55.3979 20.7532 56.0394C20.7532 56.0487 20.7496 56.0556 20.7496 56.0626C20.7496 57.1417 22.2766 58.0171 24.1617 58.0171C24.8257 58.0147 25.4399 57.9024 25.9655 57.7149Z" fill="#FBD1AB"/>
<path d="M24.1605 58.1873C22.1795 58.1873 20.5687 57.2355 20.5687 56.0614C20.5687 54.8896 22.1807 53.9379 24.1605 53.9379C26.1403 53.9379 27.7523 54.8896 27.7523 56.0614C27.7535 57.2343 26.1415 58.1873 24.1605 58.1873ZM24.1605 54.2817C22.3786 54.2817 20.928 55.0795 20.928 56.0614C20.928 57.0456 22.3786 57.8434 24.1605 57.8434C25.9424 57.8434 27.393 57.0456 27.393 56.0614C27.393 55.0795 25.9424 54.2817 24.1605 54.2817Z" fill="#231F20"/>
<path d="M6.77388 29.2287C6.77388 29.2287 3.09106 28.7539 4.02936 31.4264C4.96646 34.0999 9.16881 33.9703 9.03407 33.1065C8.89812 32.245 6.77388 29.2287 6.77388 29.2287Z" fill="#FBD1AB"/>
<path d="M7.71283 33.831C6.2028 33.831 4.42695 33.105 3.85765 31.4816C3.61003 30.7788 3.64644 30.2079 3.96325 29.7876C4.43908 29.1577 5.4223 29.0246 6.16396 29.0246C6.52812 29.0246 6.78667 29.0582 6.79638 29.0593L6.8765 29.0697L6.9214 29.1334C7.0088 29.2585 9.07114 32.1949 9.20951 33.0841C9.23015 33.215 9.18888 33.3424 9.09177 33.45C8.87692 33.6886 8.36103 33.831 7.71283 33.831ZM6.16518 29.3673C5.62745 29.3673 4.66364 29.4484 4.257 29.9891C4.0118 30.3145 3.99239 30.7811 4.20117 31.3728C4.78624 33.0413 6.6847 33.4894 7.71405 33.4894C7.71405 33.4894 7.71405 33.4894 7.71526 33.4894C8.31612 33.4894 8.70455 33.3562 8.82351 33.2242C8.85992 33.1837 8.86114 33.1536 8.8575 33.1339C8.75432 32.4739 7.28921 30.2705 6.67257 29.3893C6.57182 29.38 6.38975 29.3673 6.16518 29.3673Z" fill="#231F20"/>
<path d="M32.4238 29.2287C32.4238 29.2287 36.1054 28.7539 35.1683 31.4264C34.2312 34.0999 30.0276 33.9703 30.1624 33.1065C30.2983 32.245 32.4238 29.2287 32.4238 29.2287Z" fill="#EFB27F"/>
<path d="M31.4837 33.8312C30.8355 33.8312 30.3196 33.6887 30.1023 33.4491C30.004 33.3402 29.9639 33.214 29.9846 33.0832C30.1242 32.1939 32.1853 29.2587 32.2727 29.1325L32.3176 29.0688L32.3977 29.0584C32.4086 29.0572 32.6672 29.0236 33.0313 29.0236C33.773 29.0236 34.7562 29.1568 35.2321 29.7867C35.5489 30.2081 35.5853 30.7778 35.3377 31.4806C34.7696 33.1052 32.9925 33.8312 31.4837 33.8312ZM32.5252 29.3895C31.9098 30.2706 30.4434 32.4741 30.3402 33.1341C30.3366 33.155 30.3378 33.1839 30.3742 33.2244C30.4932 33.3553 30.8816 33.4896 31.4825 33.4896C32.5118 33.4896 34.4103 33.0415 34.9966 31.373C35.2041 30.7801 35.1847 30.3147 34.9395 29.9893C34.5329 29.4497 33.5691 29.3675 33.0301 29.3675C32.8068 29.3675 32.6235 29.3802 32.5252 29.3895Z" fill="#231F20"/>
<path d="M25.0229 7.2265C25.0229 10.0842 22.5952 14.527 19.5994 14.527C16.6049 14.527 14.176 10.0842 14.176 7.2265C14.176 4.36999 16.6036 2.05307 19.5994 2.05307C22.594 2.05423 25.0229 4.37115 25.0229 7.2265Z" fill="#281006"/>
<path d="M18.924 14.4435C19.5443 13.1594 19.9715 11.8556 20.1087 11.0126C20.6161 7.89329 18.9701 4.41733 15.8566 3.4887C14.8224 4.43122 14.1754 5.75701 14.1754 7.22752C14.1754 9.86635 16.2487 13.8495 18.924 14.4435Z" fill="#38190B"/>
<path d="M16.2086 7.0307C16.5666 7.0307 16.8568 6.65902 16.8568 6.20051C16.8568 5.742 16.5666 5.3703 16.2086 5.3703C15.8506 5.3703 15.5604 5.742 15.5604 6.20051C15.5604 6.65902 15.8506 7.0307 16.2086 7.0307Z" fill="#592D1C"/>
<path d="M19.5977 14.6994C16.5048 14.6994 13.9945 10.179 13.9945 7.22753C13.9945 4.28071 16.5084 1.88273 19.5977 1.88273C22.6869 1.88273 25.2008 4.28071 25.2008 7.22753C25.202 10.1778 22.6918 14.6994 19.5977 14.6994ZM19.5977 2.22545C16.7075 2.22545 14.355 4.46943 14.355 7.22636C14.355 9.97635 16.7548 14.3543 19.5977 14.3543C22.4417 14.3543 24.8415 9.97635 24.8415 7.22636C24.8415 4.47059 22.489 2.22545 19.5977 2.22545Z" fill="#190903"/>
<path d="M23.9038 11.1645C24.4694 10.1154 24.8494 8.9668 24.9744 7.93859C20.9262 8.4087 16.7736 8.1389 14.2136 7.86796C14.3265 8.88921 14.6967 10.0402 15.2539 11.0938C16.668 11.2131 18.354 11.3069 20.17 11.3069C21.3729 11.3069 22.6304 11.2641 23.9038 11.1645Z" fill="#AD1A29"/>
<path d="M20.0267 8.1922C17.769 8.18409 15.7163 8.02659 14.2136 7.86796C14.3265 8.88921 14.6967 10.0402 15.2539 11.0938C16.5867 11.2062 18.1635 11.293 19.8592 11.3023C20.2926 10.2602 20.5293 8.94367 20.0267 8.1922Z" fill="#C52831"/>
<path d="M20.1705 11.4781C18.5779 11.4781 16.9186 11.4052 15.2386 11.2651L15.1391 11.2558L15.0929 11.1701C14.5273 10.1002 14.151 8.93308 14.0332 7.88519L14.009 7.67215L14.2311 7.69646C15.6355 7.84583 17.8132 8.02183 20.2166 8.02183C21.899 8.02183 23.4928 7.93614 24.9506 7.76593L25.1776 7.73929L25.1509 7.95699C25.0234 9.01067 24.635 10.1778 24.0621 11.2419L24.0159 11.3264L23.9164 11.3345C22.7183 11.4295 21.4571 11.4781 20.1705 11.4781ZM15.3697 10.9316C18.3133 11.1748 21.1792 11.2002 23.789 11.0022C24.2794 10.0678 24.6229 9.06276 24.7661 8.13413C23.3556 8.28929 21.8286 8.36685 20.2178 8.36685C17.9236 8.36685 15.8346 8.20591 14.4192 8.06233C14.5528 8.98632 14.8866 9.99372 15.3697 10.9316Z" fill="#8C0619"/>
<path d="M19.5983 38.8414C27.2863 38.8414 33.5187 33.8897 33.5187 27.7813C33.5187 21.673 27.2863 16.7212 19.5983 16.7212C11.9102 16.7212 5.67782 21.673 5.67782 27.7813C5.67782 33.8897 11.9102 38.8414 19.5983 38.8414Z" fill="#EFB27F"/>
<path d="M26.4668 31.8813C25.361 29.0606 19.8307 29.2204 17.3496 28.1714C16.103 27.6457 15.1137 27.0378 14.0843 26.2053C13.7372 25.9262 11.9844 28.5697 11.7999 28.7723C10.535 30.163 9.04079 31.9067 7.34383 33.0299C9.69627 36.4897 14.3016 38.8425 19.5989 38.8425C21.3772 38.8425 23.0717 38.5669 24.6351 38.0852C26.3552 36.4387 27.4197 34.3105 26.4668 31.8813Z" fill="#FBD1AB"/>
<path d="M19.5977 39.0138C11.823 39.0138 5.49637 33.9747 5.49637 27.7812C5.49637 21.5865 11.8217 16.5485 19.5977 16.5485C27.3736 16.5485 33.699 21.5876 33.699 27.7812C33.699 33.9759 27.3736 39.0138 19.5977 39.0138ZM19.5977 16.8924C12.0208 16.8924 5.85688 21.7775 5.85688 27.7812C5.85688 33.7848 12.0208 38.6699 19.5977 38.6699C27.1745 38.6699 33.3385 33.7848 33.3385 27.7812C33.3397 21.7775 27.1745 16.8924 19.5977 16.8924Z" fill="#231F20"/>
<path d="M7.36258 33.0601C7.36258 33.0601 11.7895 28.1507 11.9704 21.1675C15.1203 24.171 18.388 25.4783 25.3603 26.7578C31.6881 27.9203 33.0234 30.7189 33.0234 30.7189C39.2698 22.4608 33.5198 12.6165 20.193 12.6257C8.82042 12.6327 -0.955934 20.0455 7.36258 33.0601Z" fill="#281006"/>
<path d="M9.56759 25.5002C10.217 22.4781 9.92689 21.3908 11.108 18.4683C11.3131 17.9612 14.4218 21.2831 17.3654 22.8428C20.1196 24.3017 24.7614 24.978 27.9441 24.6653C27.4233 23.0975 26.4195 21.8829 25.1425 20.7135C24.5841 20.2017 25.2906 19.4525 25.9279 19.7431C28.4272 20.8802 30.8864 22.0149 32.9585 23.7066C32.4802 21.7254 32.3831 19.4872 30.742 17.777C29.1725 16.1398 27.3214 14.5894 24.9325 13.978C21.2594 13.0355 17.4188 13.274 13.6413 13.5253C5.83622 15.7936 1.00509 22.3021 6.84857 32.2113C8.26149 30.2232 8.99708 28.1587 9.56759 25.5002Z" fill="#38190B"/>
<path d="M11.7246 15.2169C11.7246 15.2169 4.28125 21.7718 6.87889 29.0688C4.97436 27.5913 3.59542 18.3062 11.7246 15.2169Z" fill="#592D1C"/>
<path d="M7.33654 33.3517L7.20787 33.1503C2.86835 26.3593 3.82487 21.7578 5.39195 19.0935C7.79781 15.0027 13.4689 12.4589 20.1912 12.4542C26.9147 12.4542 32.2897 15.012 34.5875 19.2973C36.5102 22.8833 35.9931 27.0841 33.1673 30.8195L32.9876 31.0592L32.859 30.7905C32.8444 30.7639 31.4679 28.0544 25.3258 26.929C18.4494 25.6645 15.1598 24.3411 12.1361 21.5633C11.8047 28.3242 7.5429 33.1248 7.49799 33.1746L7.33654 33.3517ZM20.2106 12.7969C13.6 12.8016 8.05028 15.2783 5.70755 19.2614C3.55661 22.9192 4.13683 27.5832 7.38267 32.7613C8.16924 31.8025 11.6324 27.2532 11.7902 21.1627L11.7999 20.7621L12.0973 21.0446C15.1841 23.9891 18.2916 25.2847 25.3938 26.5885C30.7117 27.5646 32.5494 29.672 33.0386 30.398C35.6399 26.8282 36.0902 22.8509 34.2682 19.4525C32.0323 15.2841 26.7776 12.7969 20.2106 12.7969Z" fill="#190903"/>
<path d="M6.94446 34.7169L7.65941 36.1017L9.2617 36.3229L8.10369 37.4021L8.3768 38.9212L6.94446 38.2045L5.51212 38.9212L5.78644 37.4021L4.62721 36.3229L6.22828 36.1017L6.94446 34.7169Z" fill="#D37529"/>
<path d="M5.27302 39.2361L5.59226 37.4611L4.24003 36.2036L6.10936 35.9454L6.94449 34.329L7.77961 35.9454L9.64773 36.2036L8.29672 37.4611L8.61596 39.2361L6.94449 38.3967L5.27302 39.2361ZM6.94449 38.0099L8.13771 38.6074L7.9095 37.3407L8.87451 36.4433L7.54049 36.2581L6.94449 35.1071L6.34848 36.2581L5.01446 36.4433L5.97948 37.3407L5.75127 38.6074L6.94449 38.0099Z" fill="#231F20"/>
<path d="M6.94508 34.746C7.32721 34.746 7.63698 34.4505 7.63698 34.086C7.63698 33.7215 7.32721 33.426 6.94508 33.426C6.56296 33.426 6.25319 33.7215 6.25319 34.086C6.25319 34.4505 6.56296 34.746 6.94508 34.746Z" fill="#D37529"/>
<path d="M6.9445 34.9184C6.46381 34.9184 6.07295 34.5455 6.07295 34.0858C6.07295 33.6262 6.46381 33.2557 6.9445 33.2557C7.42518 33.2557 7.81604 33.6262 7.81604 34.0858C7.81604 34.5455 7.42518 34.9184 6.9445 34.9184ZM6.9445 33.5995C6.66289 33.5995 6.43346 33.8172 6.43346 34.0858C6.43346 34.3545 6.66289 34.5745 6.9445 34.5745C7.22611 34.5745 7.45553 34.3556 7.45553 34.0858C7.45553 33.816 7.22733 33.5995 6.9445 33.5995Z" fill="#231F20"/>
<path d="M32.2994 34.3487L33.0156 35.7324L34.6166 35.9547L33.4574 37.0327L33.7305 38.553L32.2994 37.8363L30.8683 38.553L31.1402 37.0327L29.9822 35.9547L31.582 35.7324L32.2994 34.3487Z" fill="#D37529"/>
<path d="M33.9696 38.8668L32.2994 38.0296L30.6291 38.8668L30.9472 37.0918L29.5949 35.8366L31.4643 35.5761L32.2994 33.9608L33.1345 35.5761L35.0026 35.8366L33.6504 37.0918L33.9696 38.8668ZM30.3694 36.074L31.3332 36.9713L31.1062 38.2404L32.2982 37.6406L33.4902 38.2404L33.262 36.9713L34.227 36.074L32.893 35.891L32.297 34.7378L31.6997 35.891L30.3694 36.074Z" fill="#231F20"/>
<path d="M32.2999 34.379C32.6814 34.379 32.9906 34.084 32.9906 33.7202C32.9906 33.3563 32.6814 33.0613 32.2999 33.0613C31.9185 33.0613 31.6093 33.3563 31.6093 33.7202C31.6093 34.084 31.9185 34.379 32.2999 34.379Z" fill="#D37529"/>
<path d="M32.2994 34.5502C31.8187 34.5502 31.4279 34.1773 31.4279 33.72C31.4279 33.2615 31.8187 32.8874 32.2994 32.8874C32.7801 32.8874 33.171 33.2603 33.171 33.72C33.171 34.1762 32.7801 34.5502 32.2994 34.5502ZM32.2994 33.2314C32.0178 33.2314 31.7884 33.4502 31.7884 33.72C31.7884 33.9898 32.0178 34.2063 32.2994 34.2063C32.581 34.2063 32.8104 33.9886 32.8104 33.72C32.8104 33.4513 32.581 33.2314 32.2994 33.2314Z" fill="#231F20"/>
<path d="M15.3188 32.1476C15.1198 32.1476 14.9595 31.9936 14.9595 31.8037C14.9595 30.8403 14.1366 30.0553 13.1254 30.0553C12.1143 30.0553 11.2925 30.8403 11.2925 31.8037C11.2925 31.9936 11.1311 32.1476 10.932 32.1476C10.7329 32.1476 10.5727 31.9936 10.5727 31.8037C10.5727 30.4605 11.7173 29.3686 13.1254 29.3686C14.5347 29.3686 15.6794 30.4605 15.6794 31.8037C15.6794 31.9947 15.5179 32.1476 15.3188 32.1476Z" fill="#231F20"/>
<path d="M19.1934 36.0855C17.7611 36.0855 16.6395 35.3329 16.6395 34.373C16.6395 34.1808 16.7997 34.0268 16.9988 34.0268C17.1979 34.0268 17.3581 34.1808 17.3581 34.373C17.3581 34.9276 18.1981 35.3977 19.1922 35.3977C20.1864 35.3977 21.0251 34.9276 21.0251 34.373C21.0251 34.1808 21.1866 34.0268 21.3857 34.0268C21.5847 34.0268 21.7462 34.1808 21.7462 34.373C21.7474 35.3317 20.6246 36.0855 19.1934 36.0855Z" fill="#231F20"/>
<path d="M27.2146 32.1476C27.0155 32.1476 26.854 31.9936 26.854 31.8037C26.854 30.8403 26.0323 30.0553 25.0211 30.0553C24.01 30.0553 23.1882 30.8403 23.1882 31.8037C23.1882 31.9936 23.0268 32.1476 22.8289 32.1476C22.6299 32.1476 22.4696 31.9936 22.4696 31.8037C22.4696 30.4605 23.6143 29.3686 25.0224 29.3686C26.4304 29.3686 27.5763 30.4605 27.5763 31.8037C27.5751 31.9947 27.4136 32.1476 27.2146 32.1476Z" fill="#231F20"/>
<path d="M10.603 29.4867C10.5751 29.4867 10.5484 29.4798 10.5217 29.4659C10.4331 29.423 10.3979 29.3211 10.444 29.2355C10.478 29.1718 11.3143 27.6665 13.7263 27.9085C13.8258 27.9178 13.8974 28.0023 13.8877 28.0961C13.8768 28.191 13.7869 28.2605 13.6898 28.2501C11.5316 28.0371 10.7948 29.3373 10.7645 29.3941C10.7317 29.4531 10.6686 29.4867 10.603 29.4867Z" fill="#231F20"/>
<path d="M27.5666 29.4868C27.5011 29.4868 27.4379 29.4532 27.4064 29.3941C27.376 29.3374 26.6392 28.0371 24.481 28.2502C24.3802 28.2617 24.2941 28.1911 24.2831 28.0961C24.2734 28.0023 24.345 27.9178 24.4434 27.9086C26.8577 27.6666 27.6916 29.173 27.7256 29.2355C27.7705 29.3212 27.7365 29.4231 27.6479 29.4659C27.6237 29.4798 27.5945 29.4868 27.5666 29.4868Z" fill="#231F20"/>
<path d="M12.1555 34.563C12.6436 34.563 13.0392 34.1856 13.0392 33.72C13.0392 33.2545 12.6436 32.8771 12.1555 32.8771C11.6675 32.8771 11.2718 33.2545 11.2718 33.72C11.2718 34.1856 11.6675 34.563 12.1555 34.563Z" fill="#F976A0"/>
<path d="M26.0153 34.563C26.5033 34.563 26.8989 34.1856 26.8989 33.72C26.8989 33.2545 26.5033 32.8771 26.0153 32.8771C25.5272 32.8771 25.1316 33.2545 25.1316 33.72C25.1316 34.1856 25.5272 34.563 26.0153 34.563Z" fill="#F976A0"/>
<path d="M21.7207 41.4246H17.3982C17.2986 41.4246 17.2185 41.3481 17.2185 41.2532C17.2185 41.1582 17.2986 41.0818 17.3982 41.0818H21.7207C21.8214 41.0818 21.9003 41.1582 21.9003 41.2532C21.9003 41.3481 21.8214 41.4246 21.7207 41.4246Z" fill="#231F20"/>
</svg>
