<svg width="72" height="51" viewBox="0 0 72 51" fill="none" xmlns="http://www.w3.org/2000/svg">
<path d="M67.4034 20.1381C67.7004 20.0934 67.9887 20.0311 68.2681 19.9475C70.8181 19.1889 72.4151 16.5263 71.9053 13.8899C71.471 11.6406 69.4279 10.1196 66.4406 9.82011C66.3083 9.80649 66.175 9.7958 66.0436 9.78899C65.1652 9.73939 64.3073 9.81525 63.4779 10.0166C64.5191 8.70566 64.87 6.91533 64.371 5.45175C63.9308 4.15739 62.8857 3.21311 61.5053 2.86107C61.1896 2.77939 60.8681 2.72978 60.5475 2.71325C58.5043 2.59655 56.5621 3.74894 55.3533 5.79698C55.1288 6.17624 54.7592 6.8667 54.4572 7.73317C52.4945 6.40574 50.2239 5.62387 47.7592 5.48383C45.0709 5.3331 42.3729 5.96716 39.9533 7.32085C38.4758 8.14648 37.1513 9.2162 36.0248 10.4853C33.3983 7.39184 29.6493 5.44299 25.6483 5.21737C23.614 5.10165 21.6276 5.43327 19.7963 6.18402C19.6021 5.09971 19.2483 4.20308 19.0434 3.74018C18.0777 1.57059 16.2806 0.205235 14.2365 0.0895099C13.9178 0.0710329 13.5924 0.0846479 13.2708 0.129382C11.858 0.323877 10.7109 1.14464 10.1247 2.37969C9.46191 3.77811 9.60505 5.59762 10.4874 7.01646C9.68838 6.72277 8.84328 6.55065 7.96484 6.4991C7.83347 6.4923 7.70017 6.48743 7.56782 6.48646C4.56486 6.44659 2.35996 7.72734 1.66976 9.91153C0.86093 12.474 2.14129 15.2991 4.58935 16.3406C4.85601 16.4553 5.13641 16.5506 5.42661 16.6284C3.50307 17.597 2.32073 19.3319 2.32367 21.3089C2.32858 23.5913 4.00409 25.2796 6.40018 25.4157C7.2296 25.4624 8.0678 25.3126 8.82467 24.9801C9.63055 24.6261 10.2884 24.1515 10.8619 23.6419C11.1492 25.1356 11.6404 26.6556 12.3365 28.1999C13.9022 31.6716 16.5179 35.2757 20.111 38.9127C26.163 45.0383 33.0748 49.3561 34.3983 50.1584L35.5317 50.8479L36.6836 50.1866C38.0268 49.4155 45.0415 45.2649 51.2435 39.2891C54.9249 35.7415 57.6289 32.2017 59.2779 28.7688C59.7847 27.7176 60.1906 26.677 60.5014 25.6433C61.1583 26.5039 61.9377 27.3918 63.07 28.0531C63.7838 28.4693 64.5994 28.7144 65.4279 28.761C67.8249 28.8972 69.6847 27.4083 69.9494 25.1415C70.1789 23.1761 69.2034 21.3197 67.4034 20.1381Z" fill="#7C7A7A"/>
<path d="M65.9749 20.0569C66.272 20.0132 66.5622 19.95 66.8396 19.8673C69.3906 19.1078 70.9877 16.4461 70.4769 13.8088C70.0436 11.5594 68.0004 10.0385 65.0122 9.73896C64.8808 9.72534 64.7465 9.71561 64.6151 9.70686C63.7367 9.65727 62.8788 9.73506 62.0514 9.93539C63.0916 8.62547 63.4416 6.83417 62.9426 5.37157C62.5024 4.0772 61.4573 3.13196 60.0769 2.77895C59.7612 2.6992 59.4396 2.64863 59.119 2.63112C57.0758 2.51637 55.1347 3.66875 53.9249 5.71581C53.7013 6.09508 53.3308 6.78652 53.0278 7.65299C51.0661 6.32459 48.7954 5.54174 46.3307 5.40365C43.6434 5.25097 40.9444 5.88504 38.5248 7.23872C37.0483 8.06435 35.7238 9.13603 34.5963 10.4041C31.9689 7.31069 28.2199 5.36281 24.2218 5.13525C22.1855 5.02049 20.2012 5.35308 18.3678 6.10189C18.1737 5.01758 17.8218 4.12193 17.6149 3.66C16.6492 1.48943 14.8531 0.124081 12.81 0.00738335C12.4894 -0.0101212 12.1639 0.00350068 11.8423 0.0482346C10.4286 0.241757 9.2835 1.06349 8.69624 2.29756C8.03349 3.69598 8.1766 5.51549 9.05994 6.93433C8.26092 6.64065 7.41484 6.46852 6.53738 6.41892C6.40503 6.41017 6.27169 6.40531 6.13933 6.40434C3.13638 6.36446 0.932492 7.64522 0.242293 9.8294C-0.567514 12.3938 0.714834 15.2169 3.16092 16.2594C3.42857 16.3732 3.70897 16.4685 3.99819 16.5463C2.07465 17.5158 0.892288 19.2498 0.89621 21.2268C0.899151 23.5092 2.57461 25.1984 4.97266 25.3346C5.80208 25.3812 6.63936 25.2305 7.3972 24.8979C8.20211 24.5439 8.85996 24.0703 9.43447 23.5608C9.72173 25.0535 10.2139 26.5745 10.909 28.1188C12.4747 31.5905 15.0914 35.1945 18.6836 38.8325C24.7346 44.9562 31.6453 49.274 32.9699 50.0783L34.1042 50.7668L35.2562 50.1055C36.5993 49.3333 43.614 45.1838 49.8141 39.2089C53.4974 35.6593 56.2014 32.1195 57.8514 28.6867C58.3563 27.6364 58.7631 26.5949 59.0739 25.5631C59.7308 26.4237 60.5092 27.3116 61.6415 27.9719C62.3553 28.3872 63.171 28.6322 64.0004 28.6799C66.3955 28.8151 68.2563 27.3262 68.521 25.0594C68.7514 23.095 67.775 21.2375 65.9749 20.0569Z" fill="white"/>
<path d="M34.2846 49.7894C34.2316 49.7894 34.1806 49.7632 34.1522 49.7145C34.111 49.6416 34.1346 49.5492 34.2081 49.5084L34.7307 49.2079C34.8032 49.166 34.8924 49.1145 34.9964 49.0532C35.0679 49.0124 35.161 49.0357 35.2042 49.1077C35.2463 49.1797 35.2228 49.2721 35.1503 49.3139C35.0463 49.3751 34.9571 49.4267 34.8836 49.4685L34.361 49.769C34.3365 49.7826 34.3101 49.7894 34.2846 49.7894ZM33.5032 49.5142C33.4777 49.5142 33.4483 49.5074 33.4248 49.4928L33.3562 49.451C33.1954 49.3518 32.9287 49.1894 32.5797 48.9687C32.5091 48.9239 32.4885 48.8305 32.5336 48.7596C32.5787 48.6905 32.6728 48.6691 32.7434 48.7138C33.0905 48.9346 33.3542 49.097 33.515 49.1933L33.5826 49.2351C33.6552 49.2779 33.6767 49.3713 33.6336 49.4423C33.6061 49.488 33.5552 49.5142 33.5032 49.5142ZM35.8571 48.8685C35.8042 48.8685 35.7552 48.8422 35.7258 48.7965C35.6836 48.7246 35.7052 48.6312 35.7777 48.5894C36.0287 48.4357 36.2885 48.2762 36.5513 48.1119C36.6219 48.0691 36.716 48.0905 36.7601 48.1605C36.8052 48.2296 36.7836 48.3239 36.713 48.3686C36.4503 48.532 36.1895 48.6934 35.9346 48.8461C35.9111 48.8617 35.8826 48.8685 35.8571 48.8685ZM31.8964 48.4989C31.8679 48.4989 31.8375 48.4911 31.812 48.4746C31.563 48.3122 31.3071 48.142 31.0513 47.9718C30.9826 47.9252 30.963 47.8308 31.011 47.7618C31.0571 47.6937 31.1522 47.6743 31.2228 47.7219C31.4767 47.8911 31.7306 48.0604 31.9797 48.2228C32.0493 48.2685 32.0699 48.3618 32.0218 48.4309C31.9934 48.4746 31.9444 48.4989 31.8964 48.4989ZM37.4013 47.9047C37.3513 47.9047 37.3022 47.8804 37.2738 47.8357C37.2277 47.7667 37.2483 47.6733 37.3189 47.6276C37.5699 47.4671 37.8268 47.3008 38.0807 47.1336C38.1513 47.0879 38.2444 47.1073 38.2924 47.1764C38.3375 47.2454 38.318 47.3388 38.2483 47.3845C37.9934 47.5527 37.7346 47.721 37.4827 47.8804C37.4572 47.897 37.4297 47.9047 37.4013 47.9047ZM30.3826 47.4866C30.3532 47.4866 30.3218 47.4778 30.2954 47.4613C30.0562 47.296 29.8071 47.1229 29.5473 46.942C29.4787 46.8934 29.462 46.8 29.5111 46.731C29.5601 46.6619 29.6541 46.6474 29.7228 46.696C29.9816 46.8759 30.2297 47.049 30.4689 47.2124C30.5375 47.259 30.5562 47.3543 30.5071 47.4224C30.4777 47.4632 30.4307 47.4866 30.3826 47.4866ZM38.9238 46.907C38.8748 46.907 38.8258 46.8846 38.7974 46.8409C38.7503 46.7728 38.7699 46.6785 38.8376 46.6318C39.0817 46.4684 39.3317 46.2982 39.5895 46.1222C39.6581 46.0746 39.7542 46.0911 39.8013 46.1592C39.8503 46.2282 39.8317 46.3216 39.763 46.3702C39.5042 46.5472 39.2523 46.7174 39.0091 46.8807C38.9836 46.8983 38.9532 46.907 38.9238 46.907ZM28.8924 46.4412C28.862 46.4412 28.8306 46.4314 28.8032 46.413C28.563 46.2399 28.3179 46.0629 28.066 45.8771C27.9983 45.8275 27.9836 45.7342 28.0336 45.6661C28.0836 45.598 28.1787 45.5844 28.2463 45.635C28.4973 45.8178 28.7434 45.9958 28.9816 46.1679C29.0483 46.2175 29.065 46.3118 29.016 46.3789C28.9865 46.4207 28.9395 46.4412 28.8924 46.4412ZM40.4248 45.8771C40.3777 45.8771 40.3297 45.8548 40.3003 45.8129C40.2513 45.7458 40.268 45.6515 40.3366 45.6029C40.5788 45.4327 40.8258 45.2587 41.0768 45.0778C41.1444 45.0282 41.2395 45.0437 41.2895 45.1108C41.3395 45.177 41.3238 45.2723 41.2562 45.3219C41.0033 45.5037 40.7552 45.6778 40.5131 45.8489C40.4846 45.8684 40.4542 45.8771 40.4248 45.8771ZM27.4247 45.3656C27.3943 45.3656 27.361 45.354 27.3336 45.3345C27.0944 45.1556 26.8522 44.9718 26.6081 44.7841C26.5424 44.7335 26.5297 44.6392 26.5806 44.573C26.6326 44.5079 26.7267 44.4952 26.7934 44.5468C27.0385 44.7335 27.2806 44.9173 27.5179 45.0943C27.5836 45.1439 27.5973 45.2392 27.5463 45.3053C27.5179 45.3433 27.4708 45.3656 27.4247 45.3656ZM41.9023 44.8142C41.8552 44.8142 41.8091 44.7938 41.7807 44.753C41.7307 44.6878 41.7454 44.5915 41.8111 44.5419C42.0513 44.3659 42.2944 44.185 42.5405 44.0003C42.6062 43.9507 42.7033 43.9633 42.7543 44.0294C42.8043 44.0956 42.7905 44.1909 42.7248 44.2405C42.4817 44.4233 42.2356 44.6061 41.9925 44.7841C41.966 44.8065 41.9336 44.8142 41.9023 44.8142ZM25.9806 44.258C25.9493 44.258 25.9159 44.2473 25.8865 44.2249C25.6483 44.0372 25.4071 43.8466 25.1728 43.6589C25.1081 43.6064 25.0983 43.5121 25.1512 43.4469C25.2042 43.3818 25.2993 43.372 25.365 43.4246C25.5983 43.6113 25.8365 43.8019 26.0757 43.9886C26.1424 44.0411 26.1532 44.1354 26.1012 44.2006C26.0718 44.2385 26.0257 44.258 25.9806 44.258ZM43.3562 43.7221C43.3111 43.7221 43.265 43.7017 43.2356 43.6628C43.1846 43.5967 43.1974 43.5024 43.2631 43.4518C43.4993 43.269 43.7395 43.0813 43.9787 42.8936C44.0444 42.8411 44.1395 42.8527 44.1925 42.9179C44.2444 42.9821 44.2327 43.0783 44.1679 43.1299C43.9297 43.3185 43.6876 43.5072 43.4503 43.6891C43.4209 43.7124 43.3885 43.7221 43.3562 43.7221ZM24.564 43.1192C24.5296 43.1192 24.4953 43.1065 24.4659 43.0842C24.2335 42.8936 23.9963 42.6971 23.7649 42.5017C23.7012 42.4472 23.6943 42.3529 23.7482 42.2887C23.8022 42.2265 23.8973 42.2177 23.962 42.2712C24.1924 42.4647 24.4277 42.6602 24.6601 42.8508C24.7238 42.9043 24.7336 42.9996 24.6796 43.0647C24.6502 43.1007 24.6081 43.1192 24.564 43.1192ZM44.7837 42.596C44.7415 42.596 44.6964 42.5766 44.667 42.5406C44.6131 42.4764 44.6238 42.3801 44.6885 42.3286C44.9219 42.139 45.1582 41.9454 45.3915 41.7538C45.4553 41.7004 45.5503 41.7091 45.6052 41.7733C45.6591 41.8375 45.6513 41.9318 45.5866 41.9863C45.3542 42.1778 45.117 42.3723 44.8797 42.562C44.8523 42.5863 44.818 42.596 44.7837 42.596ZM23.1718 41.9483C23.1365 41.9483 23.1012 41.9357 23.0718 41.9114C22.8424 41.713 22.611 41.5107 22.3865 41.3133C22.3247 41.2559 22.3188 41.1626 22.3737 41.0994C22.4296 41.0381 22.5257 41.0313 22.5895 41.0867C22.813 41.2851 23.0424 41.4854 23.2718 41.6829C23.3355 41.7383 23.3414 41.8326 23.2875 41.8968C23.2581 41.9318 23.215 41.9483 23.1718 41.9483ZM46.1856 41.4368C46.1425 41.4368 46.0993 41.4183 46.0699 41.3843C46.015 41.3211 46.0238 41.2258 46.0876 41.1713C46.318 40.9749 46.5523 40.7755 46.7748 40.5801C46.8385 40.5246 46.9337 40.5305 46.9896 40.5937C47.0455 40.6569 47.0386 40.7512 46.9749 40.8076C46.7503 41.0041 46.518 41.2034 46.2856 41.4018C46.2562 41.4252 46.2209 41.4368 46.1856 41.4368ZM21.81 40.7444C21.7737 40.7444 21.7384 40.7308 21.708 40.7045C21.4816 40.4993 21.2551 40.2922 21.0365 40.088C20.9757 40.0296 20.9728 39.9353 21.0306 39.875C21.0875 39.8138 21.1835 39.8118 21.2453 39.8672C21.463 40.0715 21.6865 40.2776 21.913 40.4828C21.9748 40.5382 21.9786 40.6326 21.9227 40.6948C21.8924 40.7269 21.8522 40.7444 21.81 40.7444ZM47.5552 40.2426C47.5141 40.2426 47.4719 40.2251 47.4435 40.192C47.3856 40.1308 47.3905 40.0345 47.4533 39.9791C47.6797 39.7758 47.9072 39.5706 48.1259 39.3693C48.1866 39.312 48.2817 39.3158 48.3395 39.3761C48.3964 39.4374 48.3945 39.5327 48.3327 39.5901C48.1121 39.7924 47.8856 39.9985 47.6582 40.2037C47.6278 40.23 47.5915 40.2426 47.5552 40.2426ZM20.4825 39.5045C20.4443 39.5045 20.4061 39.4899 20.3767 39.4617C20.1571 39.2526 19.9375 39.0377 19.7237 38.8277C19.6639 38.7683 19.6639 38.674 19.7237 38.6147C19.7835 38.5554 19.8796 38.5554 19.9395 38.6147C20.1522 38.8238 20.3698 39.0377 20.5885 39.2448C20.6492 39.3032 20.6502 39.3985 20.5924 39.4588C20.562 39.4889 20.5227 39.5045 20.4825 39.5045ZM48.8915 39.0095C48.8513 39.0095 48.8101 38.9939 48.7807 38.9638C48.7229 38.9035 48.7249 38.8082 48.7856 38.7498C48.8866 38.6545 48.9856 38.5602 49.0846 38.464C49.2033 38.3502 49.3219 38.2364 49.4376 38.1197C49.4974 38.0614 49.5935 38.0613 49.6533 38.1216C49.7111 38.1819 49.7111 38.2763 49.6513 38.3356C49.5347 38.4494 49.417 38.5651 49.2974 38.6798C49.1964 38.7761 49.0964 38.8714 48.9964 38.9677C48.967 38.9949 48.9287 39.0095 48.8915 39.0095ZM19.1904 38.2276C19.1502 38.2276 19.111 38.2121 19.0816 38.1819C18.8679 37.9641 18.6551 37.7453 18.4482 37.5265C18.3904 37.4662 18.3933 37.3709 18.4551 37.3135C18.5169 37.2561 18.6129 37.259 18.6698 37.3203C18.8757 37.5362 19.0865 37.755 19.2992 37.9719C19.3581 38.0312 19.358 38.1275 19.2973 38.1848C19.2669 38.2131 19.2286 38.2276 19.1904 38.2276ZM50.1886 37.7375C50.1493 37.7375 50.1112 37.7229 50.0817 37.6947C50.0219 37.6354 50.02 37.5411 50.0798 37.4818C50.2935 37.2649 50.5053 37.0461 50.7102 36.8321C50.768 36.7709 50.8631 36.7689 50.9258 36.8244C50.9866 36.8827 50.9896 36.977 50.9318 37.0383C50.7249 37.2552 50.5121 37.475 50.2984 37.6928C50.267 37.7229 50.2268 37.7375 50.1886 37.7375ZM17.9394 36.9119C17.8982 36.9119 17.857 36.8944 17.8276 36.8623C17.6208 36.6386 17.4159 36.4091 17.2179 36.1864C17.163 36.1242 17.1688 36.0289 17.2316 35.9725C17.2943 35.918 17.3914 35.9239 17.4463 35.9871C17.6443 36.2098 17.8472 36.4363 18.0521 36.659C18.109 36.7203 18.1051 36.8156 18.0414 36.873C18.012 36.8983 17.9757 36.9119 17.9394 36.9119ZM51.4395 36.4227C51.4023 36.4227 51.3661 36.4091 51.3376 36.3838C51.2759 36.3274 51.2719 36.2321 51.3278 36.1709C51.5327 35.9472 51.7366 35.7206 51.9317 35.4989C51.9886 35.4366 52.0827 35.4308 52.1474 35.4843C52.2102 35.5397 52.216 35.6341 52.1621 35.6973C51.965 35.9209 51.7592 36.1485 51.5533 36.3741C51.5229 36.4062 51.4807 36.4227 51.4395 36.4227ZM16.7384 35.5524C16.6943 35.5524 16.6512 35.5329 16.6218 35.4979C16.4227 35.2645 16.2266 35.0301 16.0374 34.7977C15.9845 34.7335 15.9943 34.6392 16.0609 34.5857C16.1247 34.5332 16.2208 34.5429 16.2747 34.6071C16.461 34.8366 16.6561 35.071 16.8532 35.3024C16.9081 35.3657 16.8992 35.4609 16.8345 35.5144C16.807 35.5397 16.7728 35.5524 16.7384 35.5524ZM52.6395 35.0612C52.6062 35.0612 52.5719 35.0486 52.5425 35.0253C52.4788 34.9728 52.47 34.8775 52.5229 34.8133C52.719 34.5818 52.9131 34.3475 53.0984 34.117C53.1523 34.0518 53.2484 34.0421 53.3131 34.0946C53.3788 34.1462 53.3886 34.2414 53.3356 34.3066C53.1484 34.5381 52.9533 34.7734 52.7553 35.0087C52.7268 35.0438 52.6837 35.0612 52.6395 35.0612ZM15.5904 34.1462C15.5443 34.1462 15.4992 34.1257 15.4698 34.0868C15.2825 33.8476 15.0972 33.6045 14.9168 33.3643C14.8668 33.2972 14.8816 33.2029 14.9492 33.1533C15.0169 33.1037 15.1119 33.1182 15.1619 33.1844C15.3404 33.4236 15.5247 33.6648 15.711 33.903C15.7629 33.9672 15.7502 34.0625 15.6835 34.1141C15.6551 34.1355 15.6217 34.1462 15.5904 34.1462ZM53.7807 33.6502C53.7494 33.6502 53.717 33.6405 53.6876 33.62C53.6219 33.5685 53.6102 33.4752 53.6602 33.4081C53.8445 33.1688 54.0278 32.9247 54.2043 32.6855C54.2523 32.6194 54.3474 32.6038 54.4151 32.6534C54.4827 32.702 54.4984 32.7954 54.4484 32.8644C54.2719 33.1046 54.0886 33.3507 53.9023 33.5918C53.8709 33.6307 53.8258 33.6502 53.7807 33.6502ZM14.5051 32.6923C14.458 32.6923 14.41 32.6699 14.3816 32.6271C14.2051 32.3792 14.0326 32.1254 13.8659 31.8774C13.8198 31.8074 13.8394 31.714 13.9071 31.6683C13.9786 31.6226 14.0727 31.642 14.1188 31.7111C14.2845 31.9571 14.4561 32.207 14.6306 32.454C14.6786 32.5221 14.662 32.6164 14.5933 32.6641C14.5679 32.6826 14.5365 32.6923 14.5051 32.6923ZM54.8523 32.1866C54.8229 32.1866 54.7925 32.1779 54.7651 32.1604C54.6964 32.1137 54.6788 32.0193 54.7259 31.9513C54.8984 31.7023 55.067 31.4504 55.2298 31.2015C55.2749 31.1324 55.369 31.112 55.4386 31.1568C55.5102 31.2015 55.5308 31.2958 55.4857 31.3649C55.3209 31.6177 55.1504 31.8715 54.9768 32.1205C54.9465 32.1643 54.8984 32.1866 54.8523 32.1866ZM13.4992 31.184C13.4482 31.184 13.3982 31.1587 13.3698 31.114C13.207 30.8543 13.0482 30.5937 12.8963 30.335C12.8531 30.264 12.8776 30.1716 12.9511 30.1289C13.0237 30.087 13.1159 30.1113 13.159 30.1833C13.31 30.44 13.4659 30.6977 13.6286 30.9535C13.6737 31.0245 13.6502 31.1179 13.5796 31.1616C13.5541 31.1772 13.5257 31.184 13.4992 31.184ZM55.8386 30.6666C55.8121 30.6666 55.7837 30.6589 55.7602 30.6462C55.6886 30.6025 55.6651 30.5101 55.7082 30.4381C55.8651 30.1804 56.019 29.9178 56.1641 29.6611C56.2043 29.5882 56.2974 29.5619 56.371 29.6018C56.4445 29.6426 56.471 29.735 56.4298 29.807C56.2837 30.0686 56.1278 30.3321 55.968 30.5937C55.9406 30.6404 55.8905 30.6666 55.8386 30.6666ZM12.5796 29.6212C12.5247 29.6212 12.4737 29.593 12.4453 29.5425C12.3002 29.2741 12.1571 29.0017 12.0227 28.7363C11.9845 28.6614 12.0149 28.571 12.0894 28.533C12.1659 28.497 12.256 28.5272 12.2943 28.6011C12.4266 28.8647 12.5669 29.134 12.712 29.3985C12.7522 29.4715 12.7257 29.5629 12.6502 29.6028C12.6286 29.6164 12.6041 29.6212 12.5796 29.6212ZM56.7278 29.0873C56.7043 29.0873 56.6798 29.0825 56.6592 29.0708C56.5847 29.0329 56.5553 28.9424 56.5925 28.8676C56.7004 28.6594 56.8073 28.4484 56.9063 28.2393C56.9347 28.179 56.9631 28.1197 56.9916 28.0604C57.0268 27.9836 57.118 27.9525 57.1935 27.9875C57.269 28.0215 57.3023 28.1129 57.2671 28.1878C57.2386 28.2481 57.2092 28.3094 57.1798 28.3697C57.0788 28.5807 56.972 28.7956 56.8631 29.0047C56.8367 29.0572 56.7818 29.0873 56.7278 29.0873ZM11.7678 28.002C11.709 28.002 11.6541 27.969 11.6286 27.9136L11.5845 27.8163C11.4727 27.5693 11.3659 27.3204 11.2669 27.0753C11.2355 26.9994 11.2727 26.9109 11.3512 26.8808C11.4276 26.8487 11.5168 26.8866 11.5492 26.9625C11.6472 27.2046 11.7521 27.4507 11.8619 27.6938L11.9051 27.7891C11.9394 27.8649 11.9061 27.9544 11.8286 27.9884C11.809 27.9991 11.7884 28.002 11.7678 28.002ZM64.3034 27.9505C64.221 27.9505 64.1377 27.9486 64.0534 27.9437C63.969 27.9398 63.9053 27.8688 63.9102 27.7862C63.9151 27.7025 63.9867 27.6393 64.07 27.6442C64.371 27.6607 64.6661 27.6452 64.9455 27.5985C65.0288 27.5849 65.1073 27.6403 65.12 27.7229C65.1347 27.8037 65.0788 27.8815 64.9955 27.8961C64.772 27.932 64.5396 27.9505 64.3034 27.9505ZM63.1631 27.8008C63.1494 27.8008 63.1377 27.7998 63.1239 27.7959C62.8181 27.7132 62.523 27.6004 62.2446 27.4584C62.17 27.4215 62.1416 27.3301 62.1798 27.2561C62.218 27.1822 62.3092 27.1531 62.3837 27.191C62.6445 27.3233 62.919 27.4283 63.2033 27.5032C63.2837 27.5255 63.3328 27.6082 63.3093 27.6879C63.2916 27.756 63.2308 27.8008 63.1631 27.8008ZM65.8406 27.6354C65.7818 27.6354 65.7279 27.6033 65.7024 27.5469C65.6671 27.472 65.7004 27.3826 65.7769 27.3485C66.0436 27.227 66.2877 27.0704 66.5014 26.8827C66.5632 26.8273 66.6602 26.8331 66.7161 26.8963C66.772 26.9576 66.7661 27.0539 66.7034 27.1093C66.4671 27.3164 66.1965 27.4896 65.9034 27.6228C65.8838 27.6335 65.8612 27.6354 65.8406 27.6354ZM57.4965 27.4477C57.4769 27.4477 57.4572 27.4439 57.4386 27.4361C57.3612 27.404 57.3249 27.3155 57.3563 27.2387C57.4739 26.9615 57.5837 26.6795 57.6877 26.4033C57.7161 26.3255 57.8033 26.2856 57.8818 26.3138C57.9612 26.343 58.0023 26.4286 57.9729 26.5074C57.87 26.7884 57.7553 27.0733 57.6367 27.3544C57.6131 27.4137 57.5553 27.4477 57.4965 27.4477ZM61.5426 26.9946C61.5122 26.9946 61.4808 26.9848 61.4523 26.9654C61.2082 26.7845 60.9778 26.5881 60.7445 26.3644C60.6847 26.3051 60.6837 26.2108 60.7416 26.1514C60.8014 26.0902 60.8975 26.0902 60.9583 26.1475C61.1798 26.3634 61.3994 26.5511 61.6337 26.7233C61.7004 26.7729 61.7151 26.8672 61.6651 26.9343C61.6357 26.9741 61.5906 26.9946 61.5426 26.9946ZM67.1828 26.4558C67.1563 26.4558 67.1298 26.448 67.1053 26.4344C67.0327 26.3906 67.0093 26.2973 67.0524 26.2273C67.1985 25.9861 67.3131 25.7206 67.3886 25.4366C67.4092 25.355 67.4926 25.3083 67.573 25.3297C67.6554 25.3501 67.7034 25.4328 67.6808 25.5135C67.5965 25.8247 67.473 26.1184 67.3122 26.3839C67.2837 26.4286 67.2338 26.4558 67.1828 26.4558ZM11.0835 26.3265C11.0208 26.3265 10.9619 26.2885 10.9394 26.2263C10.8374 25.9375 10.7394 25.6467 10.6502 25.3608C10.6266 25.282 10.6708 25.1965 10.7512 25.1722C10.8325 25.1488 10.9168 25.1935 10.9413 25.2733C11.0286 25.5553 11.1256 25.8422 11.2276 26.1252C11.2551 26.203 11.2139 26.2895 11.1345 26.3177C11.1168 26.3235 11.1012 26.3265 11.0835 26.3265ZM58.1259 25.7508C58.1092 25.7508 58.0945 25.7488 58.0788 25.744C57.9994 25.7196 57.9543 25.6341 57.9798 25.5543C58.0102 25.4571 58.0406 25.3618 58.07 25.2645L58.2425 24.6908C58.2661 24.612 58.3504 24.5663 58.4308 24.5896C58.5122 24.6149 58.5573 24.6986 58.5328 24.7783L58.3602 25.3521C58.3308 25.4503 58.2994 25.5475 58.269 25.6467C58.2484 25.7099 58.1896 25.7508 58.1259 25.7508ZM60.2347 25.741C60.1915 25.741 60.1485 25.7216 60.1181 25.6866C59.9769 25.5184 59.8337 25.3375 59.6651 25.1167L59.5514 24.9699C59.5004 24.9028 59.5141 24.8084 59.5808 24.7579C59.6474 24.7073 59.7425 24.7209 59.7925 24.787L59.9073 24.9349C60.072 25.1517 60.2132 25.3277 60.3504 25.4931C60.4053 25.5563 60.3975 25.6516 60.3308 25.705C60.3033 25.7294 60.27 25.741 60.2347 25.741ZM67.6592 24.7306H67.6563C67.572 24.7287 67.5063 24.6606 67.5073 24.577C67.5083 24.5517 67.5083 24.5245 67.5083 24.4992C67.5083 24.2356 67.4799 23.9711 67.425 23.7134C67.4073 23.6308 67.4593 23.551 67.5426 23.5335C67.624 23.516 67.7043 23.5676 67.722 23.6493C67.7838 23.9284 67.8132 24.2142 67.8132 24.4982C67.8132 24.5264 67.8132 24.5556 67.8112 24.5818C67.8093 24.6655 67.7426 24.7306 67.6592 24.7306ZM5.30208 24.6071C5.21874 24.6071 5.15113 24.54 5.15015 24.4584C5.15015 24.3747 5.21781 24.3066 5.30016 24.3066C5.59428 24.3037 5.88739 24.2707 6.17464 24.2084C6.257 24.19 6.33739 24.2425 6.35602 24.3232C6.37366 24.4049 6.32272 24.4846 6.23939 24.5031C5.93155 24.5692 5.6158 24.6052 5.30208 24.6071C5.30306 24.6071 5.30306 24.6071 5.30208 24.6071ZM10.5492 24.5974C10.4816 24.5974 10.4188 24.5517 10.4021 24.4836C10.3247 24.1861 10.256 23.8875 10.1962 23.5948C10.1796 23.5131 10.2335 23.4334 10.3149 23.4159C10.3982 23.3993 10.4776 23.4528 10.4943 23.5345C10.5531 23.8223 10.6217 24.117 10.6962 24.4088C10.7168 24.4885 10.6688 24.5712 10.5864 24.5916C10.5737 24.5955 10.561 24.5974 10.5492 24.5974ZM4.39624 24.5187C4.38644 24.5187 4.37561 24.5177 4.36482 24.5147C4.04718 24.4496 3.74521 24.3475 3.46874 24.2133C3.39423 24.1763 3.36287 24.0869 3.39915 24.012C3.43542 23.9381 3.52761 23.906 3.60212 23.9429C3.85604 24.0664 4.13446 24.1598 4.4276 24.2201C4.51093 24.2376 4.56286 24.3173 4.5462 24.399C4.52953 24.47 4.46683 24.5187 4.39624 24.5187ZM59.122 24.3086C59.0759 24.3086 59.0298 24.2882 59.0004 24.2483L58.7759 23.9536C58.7386 24.0052 58.6729 24.0314 58.6073 24.0129C58.5259 23.9886 58.4808 23.905 58.5053 23.8243L58.6621 23.306L59.2435 24.0674C59.2955 24.1326 59.2808 24.2279 59.2141 24.2784C59.1857 24.2989 59.1534 24.3086 59.122 24.3086ZM7.06977 24.223C7.01193 24.223 6.95602 24.19 6.93053 24.1326C6.89621 24.0577 6.93053 23.9682 7.007 23.9342C7.27661 23.8136 7.53248 23.6755 7.7864 23.5131C7.85601 23.4674 7.95211 23.4888 7.99721 23.5578C8.04231 23.6269 8.0217 23.7222 7.95209 23.7669C7.68542 23.9381 7.41584 24.082 7.13152 24.2094C7.11192 24.2181 7.09036 24.223 7.06977 24.223ZM2.78347 23.7241C2.74621 23.7241 2.70996 23.7105 2.68055 23.6852C2.44427 23.4693 2.24328 23.2213 2.08348 22.9471C2.0423 22.8751 2.06682 22.7828 2.13936 22.741C2.21191 22.6991 2.30503 22.7234 2.34718 22.7964C2.49228 23.0453 2.67266 23.268 2.88639 23.4635C2.94816 23.5199 2.95307 23.6152 2.8962 23.6765C2.86483 23.7076 2.82366 23.7241 2.78347 23.7241ZM8.60308 23.2534C8.55896 23.2534 8.51485 23.234 8.48543 23.199C8.43249 23.1348 8.44033 23.0405 8.50602 22.986C8.58151 22.9238 8.65803 22.8567 8.73646 22.7876L9.18447 22.3899C9.24623 22.3344 9.34329 22.3403 9.39917 22.4025C9.45505 22.4648 9.45019 22.5601 9.38744 22.6155L8.93937 23.0133C8.85898 23.0852 8.77762 23.1543 8.70115 23.2185C8.67174 23.2418 8.63641 23.2534 8.60308 23.2534ZM67.2877 22.9763C67.2289 22.9763 67.1749 22.9432 67.1484 22.8878C67.0279 22.6272 66.8779 22.3743 66.7014 22.1371C66.6514 22.07 66.6661 21.9756 66.7338 21.926C66.8004 21.8764 66.8965 21.892 66.9465 21.9581C67.1347 22.2129 67.2945 22.4833 67.4239 22.7614C67.4583 22.8382 67.4259 22.9277 67.3494 22.9617C67.3289 22.9724 67.3083 22.9763 67.2877 22.9763ZM10.1737 22.8275C10.1012 22.8275 10.0374 22.7769 10.0237 22.705L9.89428 22.033C9.87859 22.0252 9.86391 22.0145 9.85215 22.0009C9.79431 21.9387 9.80015 21.8434 9.86388 21.7869L10.1148 21.5642L10.3227 22.6486C10.3394 22.7303 10.2845 22.809 10.2021 22.8246C10.1933 22.8265 10.1816 22.8275 10.1737 22.8275ZM1.8805 22.1847C1.81187 22.1847 1.75012 22.138 1.73444 22.069C1.67071 21.8006 1.6374 21.5166 1.63642 21.2268C1.63642 21.1918 1.63736 21.1626 1.63834 21.1334C1.6403 21.0498 1.706 20.9856 1.79326 20.9866C1.87757 20.9876 1.94324 21.0566 1.94226 21.1393C1.94128 21.1665 1.93932 21.1937 1.93932 21.22C1.94128 21.4923 1.97071 21.7529 2.03052 21.999C2.04915 22.0807 1.99816 22.1623 1.91581 22.1808C1.90502 22.1827 1.89325 22.1847 1.8805 22.1847ZM66.22 21.5234C66.1818 21.5234 66.1436 21.5098 66.1161 21.4826C65.9043 21.2861 65.672 21.1023 65.421 20.936C65.3514 20.8903 65.3318 20.797 65.3799 20.7279C65.4259 20.6579 65.52 20.6394 65.5896 20.6851C65.8553 20.8612 66.1004 21.0547 66.3239 21.2618C66.3847 21.3192 66.3877 21.4135 66.3308 21.4757C66.3004 21.5078 66.2602 21.5234 66.22 21.5234ZM64.7455 20.4634C64.7161 20.4634 64.6867 20.4547 64.6612 20.4381L63.9004 19.9392C63.8318 19.8926 63.8122 19.7992 63.8573 19.7302C63.9053 19.6611 63.9994 19.6417 64.069 19.6884L64.8289 20.1863C64.8985 20.232 64.919 20.3273 64.871 20.3963C64.8426 20.4401 64.7945 20.4634 64.7455 20.4634ZM1.91288 20.3934C1.89915 20.3934 1.88836 20.3915 1.87464 20.3885C1.79327 20.3681 1.74422 20.2854 1.76579 20.2057C1.84324 19.9052 1.95503 19.6115 2.10209 19.3315C2.14032 19.2575 2.2315 19.2284 2.30602 19.2663C2.38053 19.3042 2.40992 19.3956 2.3707 19.4695C2.23639 19.7302 2.1315 20.0025 2.06092 20.2806C2.04229 20.3477 1.98052 20.3934 1.91288 20.3934ZM63.9171 19.6174C63.8426 19.6174 63.7769 19.5629 63.7671 19.489C63.7534 19.4063 63.8121 19.3305 63.8935 19.3169L64.7965 19.1826C64.8798 19.17 64.9563 19.2274 64.97 19.3101C64.9818 19.3917 64.9249 19.4686 64.8416 19.4822L63.9396 19.6154C63.9308 19.6164 63.924 19.6174 63.9171 19.6174ZM65.72 19.349C65.6465 19.349 65.5818 19.2964 65.57 19.2206C65.5583 19.1389 65.6151 19.0621 65.6984 19.0494L65.822 19.031C66.072 18.993 66.3142 18.9395 66.5396 18.8734L66.5661 18.8647C66.6455 18.8403 66.7308 18.8851 66.7553 18.9648C66.7798 19.0436 66.7348 19.1292 66.6544 19.1535L66.6259 19.1613C66.3857 19.2332 66.1298 19.2896 65.8661 19.3285L65.7426 19.348C65.7348 19.349 65.7269 19.349 65.72 19.349ZM67.4455 18.8014C67.3926 18.8014 67.3406 18.7742 67.3132 18.7266C67.271 18.6536 67.2965 18.5612 67.37 18.5204C67.6239 18.3774 67.8632 18.2073 68.0818 18.0118C68.1446 17.9564 68.2406 17.9622 68.2975 18.0235C68.3533 18.0857 68.3484 18.181 68.2847 18.2374C68.0504 18.4465 67.7926 18.6303 67.521 18.784C67.4965 18.7966 67.472 18.8014 67.4455 18.8014ZM2.73542 18.7966C2.70208 18.7966 2.66775 18.7859 2.63932 18.7626C2.57363 18.7091 2.56483 18.6157 2.61777 18.5505C2.81287 18.3133 3.03541 18.0906 3.27953 17.8883C3.34326 17.8348 3.43935 17.8436 3.49327 17.9087C3.54818 17.9719 3.53835 18.0663 3.47365 18.1207C3.24521 18.3104 3.03643 18.5194 2.85408 18.7412C2.82369 18.7771 2.77954 18.7966 2.73542 18.7966ZM4.12367 17.6384C4.07073 17.6384 4.02072 17.6111 3.99131 17.5625C3.95013 17.4915 3.97465 17.3991 4.0472 17.3563C4.14132 17.3038 4.23543 17.2513 4.33347 17.2027L4.86286 16.9353C4.93737 16.8983 5.02954 16.9275 5.06679 17.0014C5.10503 17.0753 5.07664 17.1667 5.00115 17.2037L4.4717 17.4711C4.37954 17.5178 4.28836 17.5664 4.20111 17.617C4.17562 17.6306 4.15015 17.6384 4.12367 17.6384ZM68.7945 17.6063C68.7642 17.6063 68.7328 17.5965 68.7053 17.5781C68.6367 17.5285 68.623 17.4342 68.673 17.3671C68.8475 17.1337 68.9975 16.8808 69.121 16.6163C69.1573 16.5414 69.2475 16.5084 69.323 16.5443C69.3995 16.5784 69.4318 16.6678 69.3965 16.7437C69.2642 17.0267 69.1034 17.2961 68.9171 17.546C68.8877 17.5849 68.8416 17.6063 68.7945 17.6063ZM5.74524 16.8108C5.68936 16.8108 5.63838 16.7816 5.60995 16.7281C5.57171 16.6542 5.60112 16.5638 5.67661 16.5258L6.24232 16.2409C6.24232 16.2361 6.24329 16.2322 6.24525 16.2283C6.26584 16.1476 6.35012 16.0999 6.43051 16.1223L6.90013 16.2468L5.81388 16.7943C5.79231 16.8059 5.76779 16.8108 5.74524 16.8108ZM5.51091 16.1826C5.49817 16.1826 5.48545 16.1816 5.47172 16.1777L4.59131 15.9424C4.51092 15.922 4.46193 15.8393 4.48546 15.7576C4.50605 15.6779 4.59033 15.6312 4.67072 15.6526L5.55113 15.8879C5.6325 15.9084 5.67957 15.991 5.658 16.0707C5.63937 16.1388 5.57856 16.1826 5.51091 16.1826ZM69.5593 15.9764C69.5465 15.9764 69.5357 15.9754 69.524 15.9725C69.4416 15.954 69.3907 15.8724 69.4112 15.7907C69.4779 15.5077 69.5171 15.2159 69.526 14.9261C69.5279 14.8425 69.5995 14.7783 69.6828 14.7793C69.7651 14.7822 69.8318 14.8513 69.8289 14.9349C69.82 15.2451 69.7779 15.5573 69.7054 15.8607C69.6887 15.9307 69.6279 15.9764 69.5593 15.9764ZM3.75603 15.6915C3.73936 15.6915 3.72075 15.6895 3.70409 15.6818C3.61879 15.6516 3.53444 15.6185 3.45306 15.5825C3.24816 15.495 3.04718 15.391 2.85797 15.2733C2.78836 15.2286 2.7658 15.1352 2.80992 15.0642C2.85501 14.9942 2.94916 14.9728 3.02073 15.0175C3.19622 15.1265 3.38246 15.2247 3.57364 15.3064C3.64913 15.3385 3.72855 15.3696 3.80797 15.3997C3.88738 15.4299 3.92761 15.5145 3.8982 15.5933C3.87663 15.6536 3.81877 15.6915 3.75603 15.6915ZM2.22559 14.7355C2.18736 14.7355 2.15011 14.721 2.12069 14.6928C1.89618 14.4749 1.69618 14.2328 1.52069 13.9712C1.47559 13.9031 1.49521 13.8088 1.56384 13.7631C1.63442 13.7173 1.72855 13.7358 1.77561 13.8058C1.93835 14.049 2.12658 14.2746 2.33246 14.4778C2.39423 14.5371 2.39422 14.6315 2.3354 14.6908C2.305 14.72 2.26579 14.7355 2.22559 14.7355ZM69.6103 14.1812C69.5387 14.1812 69.474 14.1306 69.4612 14.0577L69.4504 14.0042C69.3995 13.7358 69.3152 13.4771 69.2024 13.2331C69.1671 13.1582 69.1995 13.0677 69.2759 13.0337C69.3514 12.9987 69.4416 13.0317 69.4769 13.1066C69.6004 13.3721 69.6926 13.6541 69.7475 13.9459L69.7602 14.0042C69.7739 14.0859 69.7191 14.1647 69.6367 14.1793C69.6279 14.1812 69.6191 14.1812 69.6103 14.1812ZM1.2227 13.2399C1.16289 13.2399 1.10697 13.2048 1.08148 13.1455C0.963829 12.8567 0.875588 12.5562 0.818725 12.2508C0.803039 12.1682 0.857987 12.0894 0.93936 12.0739C1.02269 12.0583 1.10113 12.1128 1.1178 12.1944C1.17074 12.4813 1.25405 12.7624 1.36386 13.0318C1.39425 13.1096 1.35797 13.1971 1.27954 13.2282C1.26092 13.2369 1.2423 13.2399 1.2227 13.2399ZM68.8543 12.5582C68.8112 12.5582 68.7681 12.5407 68.7377 12.5037C68.5563 12.2868 68.3455 12.0846 68.1063 11.9027C68.0406 11.8512 68.0269 11.7578 68.0779 11.6917C68.1298 11.6255 68.2249 11.6129 68.2926 11.6635C68.5484 11.8599 68.7779 12.0777 68.972 12.3121C69.0259 12.3763 69.0161 12.4716 68.9514 12.5241C68.9229 12.5475 68.8886 12.5582 68.8543 12.5582ZM34.5787 11.9922L34.4199 11.8055C34.365 11.7422 34.3748 11.646 34.4395 11.5935C34.4738 11.5643 34.518 11.5516 34.5611 11.5594L35.0238 11.0362C35.0797 10.974 35.1758 10.9681 35.2395 11.0226C35.3012 11.079 35.3091 11.1733 35.2532 11.2366L34.5787 11.9922ZM59.3504 11.6576L59.821 11.0644C59.8739 10.9983 59.969 10.9876 60.0357 11.0392C60.0768 11.0712 60.0965 11.1199 60.0935 11.1685L60.2798 11.1228C60.3622 11.1024 60.4435 11.152 60.4641 11.2327C60.4847 11.3144 60.4347 11.3951 60.3533 11.4155L59.3504 11.6576ZM0.894242 11.4729C0.893261 11.4729 0.891273 11.4729 0.890292 11.4729C0.806959 11.4719 0.740314 11.4028 0.741294 11.3202C0.748157 11.009 0.786397 10.6959 0.856005 10.3934C0.875613 10.3127 0.957941 10.2612 1.03833 10.2806C1.12167 10.2991 1.17167 10.3798 1.15304 10.4615C1.08834 10.7445 1.05208 11.0353 1.04521 11.327C1.04423 11.4087 0.975615 11.4729 0.894242 11.4729ZM67.4269 11.4554C67.4043 11.4554 67.3818 11.4505 67.3593 11.4379C67.1053 11.3105 66.8288 11.1977 66.5386 11.1033C66.4582 11.078 66.4151 10.9915 66.4406 10.9127C66.4671 10.834 66.5524 10.7912 66.6318 10.8174C66.9377 10.9166 67.2279 11.0353 67.4955 11.1685C67.571 11.2064 67.6004 11.2978 67.5622 11.3717C67.5357 11.4242 67.4828 11.4554 67.4269 11.4554ZM61.2034 11.2035C61.1347 11.2035 61.072 11.1578 61.0563 11.0897C61.0357 11.009 61.0857 10.9273 61.1671 10.9069L62.0523 10.692C62.1337 10.6715 62.2171 10.7211 62.2357 10.8028C62.2563 10.8826 62.2063 10.9652 62.1249 10.9847L61.2396 11.2006C61.2269 11.2025 61.2151 11.2035 61.2034 11.2035ZM33.9483 11.1665C33.9052 11.1665 33.8611 11.1481 33.8317 11.1131L33.7973 11.0703C33.614 10.8573 33.4248 10.6463 33.2326 10.444C33.1738 10.3827 33.1767 10.2884 33.2375 10.2301C33.2993 10.1717 33.3944 10.1746 33.4532 10.2359C33.6513 10.442 33.8444 10.6579 34.0297 10.8758L34.065 10.9176C34.1189 10.9808 34.112 11.0761 34.0473 11.1306C34.0189 11.1539 33.9827 11.1665 33.9483 11.1665ZM65.7024 10.8845C65.6926 10.8845 65.6828 10.8845 65.674 10.8826C65.4279 10.8349 65.169 10.798 64.9072 10.7707C64.867 10.7669 64.8279 10.7639 64.7877 10.76C64.7044 10.7523 64.6426 10.6803 64.6484 10.5967C64.6563 10.514 64.7289 10.4527 64.8132 10.4595C64.8553 10.4625 64.8965 10.4664 64.9387 10.4712C65.2083 10.4984 65.4779 10.5373 65.7328 10.5869C65.8151 10.6025 65.87 10.6813 65.8524 10.7639C65.8387 10.8349 65.774 10.8845 65.7024 10.8845ZM62.9818 10.8096C62.9073 10.8096 62.8416 10.7552 62.8318 10.6803C62.8191 10.5976 62.8778 10.5218 62.9612 10.5091C63.2651 10.4664 63.5759 10.4401 63.8867 10.4314C63.9671 10.4284 64.0396 10.4946 64.0416 10.5782C64.0435 10.6618 63.9778 10.7299 63.8935 10.7318C63.5955 10.7406 63.2955 10.7649 63.0034 10.8077C62.9955 10.8096 62.9886 10.8096 62.9818 10.8096ZM35.7532 10.619C35.715 10.619 35.6768 10.6045 35.6473 10.5753C35.5875 10.5179 35.5856 10.4226 35.6454 10.3623C35.8591 10.1445 36.0807 9.9315 36.3081 9.72825C36.3699 9.67184 36.466 9.67671 36.5219 9.73895C36.5797 9.80021 36.5748 9.89551 36.5121 9.95191C36.2895 10.1513 36.0718 10.3594 35.863 10.5743C35.8326 10.6044 35.7924 10.619 35.7532 10.619ZM60.5063 10.5976C60.473 10.5976 60.4396 10.5869 60.4122 10.5646C60.3455 10.514 60.3347 10.4187 60.3857 10.3526L60.9514 9.64267C61.0033 9.57849 61.0975 9.56681 61.1651 9.61835C61.2298 9.67087 61.2406 9.76423 61.1896 9.83035L60.6259 10.5403C60.5955 10.5772 60.5514 10.5976 60.5063 10.5976ZM32.6944 9.85564C32.6581 9.85564 32.6198 9.84106 32.5924 9.8148C32.3718 9.61253 32.1434 9.4151 31.913 9.22644C31.8483 9.17393 31.8385 9.07961 31.8924 9.01446C31.9453 8.95027 32.0405 8.94054 32.1061 8.99402C32.3424 9.1856 32.5757 9.38788 32.7993 9.59405C32.861 9.65142 32.865 9.74575 32.8081 9.80799C32.7767 9.83911 32.7355 9.85564 32.6944 9.85564ZM1.30599 9.7263C1.28246 9.7263 1.25991 9.72047 1.23736 9.70977C1.16383 9.67379 1.13348 9.58238 1.17171 9.50847C1.31191 9.2284 1.48934 8.96485 1.70111 8.72854C1.75797 8.6663 1.85306 8.66047 1.91581 8.7159C1.97855 8.77133 1.98441 8.86565 1.92951 8.92887C1.73637 9.14573 1.5727 9.38593 1.4423 9.64169C1.41583 9.69615 1.36187 9.7263 1.30599 9.7263ZM37.1032 9.40539C37.0591 9.40539 37.015 9.38496 36.9846 9.348C36.9317 9.28285 36.9434 9.18853 37.0091 9.13602C37.2473 8.94736 37.4964 8.76257 37.7474 8.58947C37.816 8.54182 37.911 8.55933 37.9591 8.6274C38.0071 8.6945 37.9895 8.7898 37.9209 8.83648C37.6768 9.00666 37.4326 9.18657 37.1983 9.37134C37.1689 9.39566 37.1356 9.40539 37.1032 9.40539ZM61.6141 9.16129C61.5867 9.16129 61.5593 9.15352 61.5347 9.13796C61.4632 9.09517 61.4406 9.0018 61.4857 8.93081C61.6396 8.68477 61.77 8.42124 61.872 8.14797C61.8994 8.0692 61.9867 8.02836 62.0661 8.05753C62.1455 8.08573 62.1857 8.17229 62.1563 8.25106C62.0484 8.54377 61.9092 8.82579 61.7435 9.08933C61.7151 9.13601 61.6651 9.16129 61.6141 9.16129ZM53.168 8.96972C53.1386 8.96972 53.1082 8.96096 53.0827 8.94443L52.4396 8.50876C52.4043 8.48445 52.3671 8.46014 52.3308 8.43583C52.2622 8.39013 52.2425 8.29676 52.2886 8.22772C52.3357 8.15867 52.4308 8.13922 52.4994 8.18492C52.5376 8.20923 52.5739 8.2355 52.6102 8.25981L53.2543 8.69548C53.3239 8.74216 53.3415 8.83649 53.2945 8.90456C53.2641 8.94832 53.217 8.96972 53.168 8.96972ZM11.1678 8.78202C11.1149 8.78202 11.0658 8.75577 11.0364 8.71007L10.558 7.93986C10.5149 7.86984 10.5364 7.77649 10.609 7.73272C10.6796 7.68896 10.7737 7.7123 10.8178 7.78232L11.2953 8.55154C11.3414 8.62156 11.3178 8.71493 11.2472 8.75869C11.2227 8.77328 11.1933 8.78202 11.1678 8.78202ZM31.2856 8.71103C31.2542 8.71103 31.2238 8.70131 31.1964 8.6838C30.9522 8.50973 30.7012 8.34246 30.4463 8.18492C30.3758 8.14116 30.3532 8.04781 30.3993 7.97779C30.4424 7.9068 30.5365 7.8854 30.6081 7.92916C30.8669 8.08962 31.1238 8.26176 31.3718 8.43778C31.4404 8.48543 31.4562 8.57975 31.4081 8.6488C31.3777 8.68867 31.3326 8.71103 31.2856 8.71103ZM53.6621 8.70033C53.6455 8.70033 53.6288 8.6984 53.6121 8.69159C53.5327 8.66534 53.4915 8.57879 53.517 8.50099L53.7308 7.89319C53.7592 7.80761 53.7905 7.72398 53.8209 7.64326C53.8504 7.56546 53.9386 7.52657 54.017 7.55574C54.0955 7.58492 54.1347 7.67243 54.1053 7.74925C54.0759 7.82705 54.0464 7.90875 54.017 7.98947L53.8043 8.59921C53.7837 8.66145 53.7239 8.70033 53.6621 8.70033ZM10.357 8.50488C10.3384 8.50488 10.3227 8.50195 10.3041 8.49514L9.44818 8.18298C9.36975 8.1538 9.32957 8.06726 9.358 7.98849C9.38741 7.91069 9.47562 7.87081 9.55308 7.89999L10.409 8.21313C10.4874 8.24133 10.5276 8.32788 10.4982 8.40568C10.4767 8.46792 10.4178 8.50488 10.357 8.50488ZM2.49618 8.38234C2.44716 8.38234 2.40014 8.36095 2.36974 8.31816C2.32268 8.25009 2.33935 8.15575 2.40798 8.1081C2.657 7.93597 2.93346 7.7833 3.23052 7.6559C3.30797 7.62381 3.39719 7.65785 3.42955 7.7337C3.46386 7.81053 3.42859 7.89903 3.35211 7.93306C3.0727 8.05171 2.81384 8.19466 2.58247 8.35609C2.556 8.37457 2.52559 8.38234 2.49618 8.38234ZM38.5983 8.37262C38.5474 8.37262 38.4964 8.34733 38.468 8.30065C38.4248 8.22966 38.4483 8.1363 38.5199 8.09254C38.6415 8.0196 38.766 7.94862 38.8905 7.8786C39.0326 7.79983 39.1777 7.72008 39.3238 7.64617C39.3983 7.60727 39.4895 7.63547 39.5287 7.70938C39.567 7.78329 39.5385 7.87471 39.464 7.91361C39.3209 7.98655 39.1777 8.0624 39.0385 8.1402C38.9179 8.20827 38.7954 8.27925 38.6768 8.35024C38.6533 8.3658 38.6268 8.37262 38.5983 8.37262ZM51.6386 7.98654C51.6131 7.98654 51.5866 7.9807 51.5641 7.96709C51.3013 7.82024 51.0337 7.68216 50.7661 7.55574C50.6896 7.52073 50.6562 7.42932 50.6925 7.35444C50.7278 7.27956 50.819 7.24746 50.8954 7.28247C51.1699 7.41278 51.4464 7.5538 51.7141 7.70453C51.7866 7.74635 51.8131 7.83776 51.7719 7.90972C51.7435 7.95932 51.6915 7.98654 51.6386 7.98654ZM8.64622 7.8786C8.62857 7.8786 8.61291 7.87568 8.59428 7.86985C8.31683 7.7726 8.02859 7.68993 7.73643 7.62575C7.65408 7.60825 7.6031 7.52656 7.62172 7.44585C7.63937 7.36416 7.72172 7.31359 7.80309 7.3311C8.10702 7.3982 8.40605 7.48377 8.69625 7.58588C8.77566 7.61311 8.81681 7.69869 8.78935 7.77746C8.76681 7.84067 8.707 7.8786 8.64622 7.8786ZM29.7395 7.75314C29.7159 7.75314 29.6904 7.74732 29.6689 7.73565C29.4032 7.59367 29.1316 7.46141 28.862 7.33693C28.7845 7.30386 28.7512 7.21343 28.7855 7.13855C28.8208 7.06172 28.912 7.02962 28.9875 7.06366C29.2649 7.18911 29.5424 7.32623 29.813 7.47015C29.8865 7.51002 29.914 7.60144 29.8748 7.67438C29.8473 7.72495 29.7944 7.75314 29.7395 7.75314ZM4.15407 7.65492C4.08643 7.65492 4.02366 7.61019 4.00699 7.54212C3.9864 7.46043 4.03542 7.37971 4.11679 7.35929C4.40797 7.28636 4.71581 7.22995 5.03346 7.19397C5.11581 7.18425 5.19133 7.24357 5.20113 7.32623C5.21191 7.40986 5.15114 7.48377 5.06781 7.49349C4.76389 7.5285 4.46972 7.58199 4.19129 7.65104C4.17855 7.65395 4.16584 7.65492 4.15407 7.65492ZM40.217 7.54018C40.1582 7.54018 40.1022 7.50615 40.0777 7.44877C40.0434 7.37389 40.0778 7.28442 40.1552 7.25135C40.4366 7.12882 40.7238 7.01504 41.0111 6.91196C41.0905 6.88376 41.1768 6.92363 41.2052 7.00142C41.2336 7.08019 41.1934 7.16674 41.114 7.19397C40.8336 7.29511 40.5522 7.40791 40.2768 7.52655C40.2572 7.53628 40.2366 7.54018 40.217 7.54018ZM6.86973 7.48474C6.86483 7.48474 6.85994 7.48377 6.85405 7.48377C6.72856 7.47113 6.6031 7.46043 6.47761 7.45362C6.36094 7.44779 6.24228 7.44293 6.12659 7.44196C6.08542 7.44001 6.04526 7.44001 6.00506 7.44001H5.95994C5.87563 7.44001 5.80801 7.37389 5.80801 7.29123C5.80703 7.20759 5.87467 7.14049 5.95899 7.13951H6.00506C6.04624 7.13951 6.08841 7.13952 6.12959 7.14049C6.25116 7.14147 6.37267 7.14632 6.49424 7.1541C6.62464 7.16091 6.75704 7.17161 6.88547 7.18425C6.9688 7.19398 7.02861 7.26788 7.02076 7.35054C7.0139 7.42736 6.9462 7.48474 6.86973 7.48474ZM62.2357 7.47405C62.2288 7.47405 62.222 7.47405 62.2151 7.47307C62.1318 7.46141 62.0739 7.38556 62.0857 7.30387C62.1102 7.12493 62.122 6.94697 62.122 6.77095C62.122 6.65911 62.117 6.5463 62.1063 6.43544C62.0994 6.35278 62.1602 6.27888 62.2446 6.2711C62.3279 6.26332 62.4024 6.32459 62.4092 6.40725C62.422 6.52686 62.4269 6.64939 62.4269 6.77095C62.4269 6.96058 62.4131 7.15313 62.3867 7.3447C62.3739 7.41959 62.3092 7.47405 62.2357 7.47405ZM17.6433 7.26594C17.5708 7.26594 17.5061 7.21537 17.4943 7.14244L17.3335 6.25165C17.3179 6.16899 17.3737 6.09216 17.4561 6.07563C17.5375 6.06202 17.6168 6.11647 17.6335 6.19719L17.7933 7.08894C17.808 7.16966 17.7532 7.24843 17.6698 7.26302C17.661 7.26496 17.6512 7.26594 17.6433 7.26594ZM10.208 7.2426C10.158 7.2426 10.107 7.21731 10.0796 7.17063L9.69136 6.54728C9.65999 6.49671 9.62958 6.44614 9.60017 6.39363C9.55997 6.32069 9.58546 6.22831 9.65899 6.18843C9.73154 6.14759 9.8247 6.17287 9.86489 6.24678C9.89235 6.2954 9.92176 6.34208 9.94921 6.38876L10.3384 7.01212C10.3815 7.08214 10.359 7.1755 10.2884 7.21926C10.2639 7.23384 10.2364 7.2426 10.208 7.2426ZM18.313 7.23384C18.2532 7.23384 18.1973 7.19884 18.1728 7.14049C18.1404 7.06367 18.1776 6.97613 18.2541 6.94404L18.6512 6.78165C18.8022 6.71941 18.9551 6.66008 19.1071 6.60465C19.1855 6.57645 19.2728 6.6173 19.3012 6.69413C19.3296 6.77192 19.2894 6.85944 19.211 6.88764C19.0639 6.9421 18.9139 6.99948 18.7669 7.05977L18.3708 7.22218C18.3522 7.23093 18.3336 7.23384 18.313 7.23384ZM49.9915 7.21633C49.9729 7.21633 49.9553 7.21245 49.9366 7.20661C49.6592 7.10061 49.3719 7.00433 49.0846 6.91876C49.0033 6.89542 48.9582 6.8118 48.9827 6.73205C49.0072 6.65231 49.0905 6.60757 49.1709 6.63091C49.466 6.71844 49.7602 6.81665 50.0464 6.92557C50.1249 6.95474 50.1641 7.04226 50.1346 7.12006C50.1101 7.17938 50.0533 7.21633 49.9915 7.21633ZM54.3229 7.01601C54.3004 7.01601 54.2769 7.01116 54.2563 7.00046C54.1808 6.9635 54.1504 6.87404 54.1857 6.79916C54.3386 6.48505 54.4778 6.239 54.567 6.08729C54.5866 6.0552 54.6062 6.02215 54.6258 5.99005C54.669 5.91809 54.7631 5.89572 54.8347 5.93948C54.9053 5.98227 54.9298 6.07466 54.8857 6.14662C54.866 6.17677 54.8494 6.20789 54.8298 6.23901C54.7425 6.38585 54.6082 6.6241 54.4602 6.92945C54.4327 6.98391 54.3788 7.01601 54.3229 7.01601ZM28.0826 7.00337C28.064 7.00337 28.0473 7.00046 28.0287 6.99365C27.7493 6.88862 27.462 6.79137 27.1757 6.70579C27.0963 6.68148 27.0493 6.59784 27.0738 6.51713C27.0983 6.43836 27.1826 6.39265 27.2639 6.41697C27.5561 6.50546 27.8493 6.60368 28.1365 6.71162C28.2149 6.7408 28.2542 6.82832 28.2248 6.90515C28.2012 6.96739 28.1444 7.00337 28.0826 7.00337ZM41.9297 6.92557C41.8641 6.92557 41.8033 6.88376 41.7846 6.81763C41.7621 6.73789 41.8082 6.65425 41.8886 6.63091C42.1837 6.54728 42.4827 6.47337 42.7827 6.40919C42.8641 6.39169 42.9464 6.44322 42.963 6.5249C42.9817 6.60562 42.9287 6.68634 42.8474 6.70385C42.5552 6.76608 42.2601 6.84 41.9729 6.92071C41.9582 6.9246 41.9444 6.92557 41.9297 6.92557ZM48.2445 6.7019C48.2337 6.7019 48.2239 6.70093 48.2131 6.69801C47.9219 6.63578 47.6229 6.58327 47.3258 6.54145C47.2425 6.52978 47.1847 6.45294 47.1964 6.37028C47.2082 6.2886 47.2866 6.23122 47.369 6.24191C47.6748 6.2847 47.9788 6.33916 48.2768 6.40334C48.3592 6.42182 48.4121 6.50158 48.3935 6.58327C48.3778 6.65328 48.315 6.7019 48.2445 6.7019ZM20.0257 6.61729C19.96 6.61729 19.8993 6.57354 19.8806 6.50741C19.8581 6.42767 19.9041 6.34402 19.9845 6.32166C20.2796 6.23802 20.5806 6.16509 20.8806 6.10382C20.9629 6.08729 21.0423 6.13884 21.06 6.22053C21.0776 6.30222 21.0238 6.38196 20.9434 6.39849C20.6492 6.45879 20.3551 6.53074 20.0679 6.61146C20.0532 6.61535 20.0404 6.61729 20.0257 6.61729ZM43.7121 6.54728C43.6376 6.54728 43.5729 6.49281 43.5611 6.41793C43.5494 6.33527 43.6081 6.25942 43.6905 6.24678C43.9944 6.20496 44.3023 6.1719 44.6082 6.14856C44.6935 6.14273 44.7641 6.20594 44.7709 6.28958C44.7768 6.37224 44.7131 6.44517 44.6297 6.45101C44.3317 6.47143 44.0307 6.50449 43.7336 6.5463C43.7268 6.54727 43.719 6.54728 43.7121 6.54728ZM26.3405 6.48018C26.3277 6.48018 26.3179 6.47823 26.3061 6.47531C26.0139 6.40918 25.7159 6.35083 25.4218 6.30513C25.3385 6.29151 25.2816 6.21468 25.2963 6.133C25.3081 6.05034 25.3865 5.99394 25.4699 6.00658C25.7718 6.05424 26.0748 6.11258 26.3738 6.18162C26.4571 6.20107 26.5071 6.28179 26.4885 6.36251C26.4708 6.43253 26.4091 6.48018 26.3405 6.48018ZM46.4405 6.44808C46.4356 6.44808 46.4337 6.44808 46.4288 6.44808C46.3758 6.44419 46.3248 6.44128 46.2709 6.43739C46.0317 6.42377 45.7876 6.41697 45.5484 6.41697H45.5287C45.4444 6.41697 45.3768 6.34987 45.3768 6.26623C45.3768 6.1826 45.4444 6.11647 45.5287 6.11647H45.5454C45.7925 6.11647 46.0425 6.12328 46.2895 6.1369C46.3434 6.13884 46.3974 6.14273 46.4503 6.14662C46.5346 6.15245 46.5974 6.22442 46.5925 6.30805C46.5866 6.38779 46.5199 6.44808 46.4405 6.44808ZM21.8091 6.25165C21.7345 6.25165 21.6688 6.19621 21.66 6.12133C21.6492 6.03867 21.7071 5.96184 21.7904 5.95115C22.0934 5.91225 22.4032 5.88405 22.71 5.86752C22.7934 5.86363 22.8649 5.92683 22.8698 6.00949C22.8747 6.09215 22.81 6.16315 22.7267 6.16704C22.4277 6.18454 22.1267 6.21178 21.8306 6.2497C21.8237 6.25165 21.8159 6.25165 21.8091 6.25165ZM24.5404 6.19815C24.5355 6.19815 24.5316 6.19719 24.5267 6.19719C24.4061 6.18649 24.2836 6.17774 24.161 6.1719C23.9845 6.16023 23.8042 6.1544 23.6267 6.15149C23.5424 6.14954 23.4767 6.08145 23.4777 5.99879C23.4786 5.91613 23.5463 5.85098 23.6296 5.85098C23.6306 5.85098 23.6306 5.85098 23.6316 5.85098C23.814 5.8539 23.9973 5.86071 24.1796 5.87044C24.3041 5.87822 24.4306 5.88794 24.5542 5.89767C24.6385 5.90448 24.6993 5.97741 24.6934 6.06104C24.6846 6.13787 24.6189 6.19815 24.5404 6.19815ZM62.0553 5.69344C61.9935 5.69344 61.9367 5.65747 61.9121 5.5962C61.8092 5.32683 61.668 5.07397 61.4906 4.84836C61.4396 4.7832 61.4514 4.68887 61.5171 4.63733C61.5828 4.58579 61.6788 4.59745 61.7298 4.66358C61.9249 4.91156 62.0808 5.1897 62.1975 5.48825C62.2269 5.56702 62.1877 5.6526 62.1093 5.68372C62.0906 5.69053 62.0739 5.69344 62.0553 5.69344ZM9.37272 5.64191C9.309 5.64191 9.24722 5.59911 9.22761 5.5359C9.13349 5.23637 9.07174 4.92811 9.04331 4.6208C9.03449 4.53814 9.09627 4.46423 9.18058 4.45645C9.26293 4.44867 9.33741 4.50993 9.34526 4.59259C9.37173 4.87948 9.43055 5.16733 9.51879 5.44643C9.54428 5.52618 9.49919 5.61078 9.4188 5.63509C9.40311 5.63898 9.38841 5.64191 9.37272 5.64191ZM17.2767 5.49506C17.21 5.49506 17.1492 5.4513 17.1306 5.38614C17.0502 5.10024 16.9551 4.81724 16.8492 4.53912C16.8198 4.46132 16.859 4.3738 16.9375 4.34462C17.0169 4.31545 17.1041 4.35434 17.1345 4.43214C17.2433 4.71805 17.3414 5.01173 17.4228 5.30348C17.4453 5.38419 17.3992 5.46686 17.3188 5.48923C17.3041 5.49409 17.2904 5.49506 17.2767 5.49506ZM55.2788 5.48144C55.2455 5.48144 55.2112 5.46978 55.1827 5.44741C55.1171 5.39393 55.1072 5.29959 55.1611 5.23443C55.3631 4.99131 55.5808 4.7657 55.8082 4.56537C55.871 4.50896 55.9671 4.5148 56.0229 4.57801C56.0798 4.64025 56.0739 4.73555 56.0102 4.79195C55.7935 4.98061 55.5866 5.19457 55.3964 5.42602C55.367 5.46297 55.3229 5.48144 55.2788 5.48144ZM56.6425 4.29211C56.5896 4.29211 56.5406 4.26585 56.5112 4.22014C56.467 4.14818 56.4906 4.05677 56.5621 4.01301C56.8337 3.84768 57.12 3.71251 57.4102 3.60845C57.4896 3.58123 57.5759 3.62207 57.6043 3.70084C57.6327 3.77864 57.5915 3.86421 57.5131 3.89241C57.2425 3.98966 56.9749 4.11609 56.719 4.27071C56.6945 4.28433 56.668 4.29211 56.6425 4.29211ZM60.9533 4.28724C60.923 4.28724 60.8916 4.27849 60.8651 4.26001C60.6327 4.09761 60.3729 3.96535 60.0935 3.8681C60.0141 3.84185 59.9729 3.75529 59.9994 3.67652C60.0278 3.59775 60.1151 3.55692 60.1935 3.58415C60.5004 3.69015 60.7847 3.83503 61.0406 4.01397C61.1082 4.06162 61.1249 4.15595 61.0759 4.22403C61.0484 4.2639 61.0014 4.28724 60.9533 4.28724ZM9.209 3.8545C9.20116 3.8545 9.1943 3.85254 9.18842 3.85254C9.10607 3.84087 9.04721 3.76599 9.05701 3.68333C9.09917 3.36241 9.18056 3.05609 9.29625 2.77212C9.3286 2.69627 9.41778 2.65834 9.49425 2.68946C9.57269 2.72155 9.60994 2.80907 9.57857 2.88687C9.47268 3.1475 9.39722 3.42757 9.358 3.72126C9.3482 3.79906 9.28351 3.8545 9.209 3.8545ZM16.6257 3.80878C16.5708 3.80878 16.5169 3.77864 16.4904 3.72613C16.3522 3.46064 16.1962 3.20779 16.0276 2.97439C15.9796 2.90632 15.9953 2.81199 16.062 2.76337C16.1306 2.71475 16.2257 2.7303 16.2747 2.79837C16.4521 3.04344 16.6159 3.30893 16.76 3.589C16.7982 3.66291 16.7689 3.75432 16.6943 3.79225C16.6738 3.80295 16.6502 3.80878 16.6257 3.80878ZM58.3465 3.69014C58.271 3.69014 58.2053 3.63471 58.1965 3.55788C58.1857 3.4762 58.2455 3.40034 58.3278 3.38964C58.5749 3.35949 58.8268 3.35075 59.0778 3.36534C59.1425 3.36923 59.2072 3.37409 59.2719 3.3809C59.3563 3.38965 59.4151 3.46355 59.4072 3.54719C59.3994 3.62985 59.3229 3.68917 59.2406 3.68139C59.1808 3.67458 59.12 3.66973 59.0592 3.66584C58.8278 3.65319 58.5945 3.66096 58.366 3.68916C58.3592 3.69014 58.3524 3.69014 58.3465 3.69014ZM15.5649 2.34618C15.5257 2.34618 15.4865 2.33159 15.4571 2.30242C15.2443 2.09139 15.0169 1.9037 14.7796 1.74325C14.711 1.69657 14.6913 1.60127 14.7384 1.53417C14.7864 1.46609 14.8815 1.44664 14.9502 1.49332C15.2051 1.66544 15.4472 1.86578 15.6718 2.08945C15.7316 2.14877 15.7316 2.2431 15.6718 2.30242C15.6414 2.33159 15.6021 2.34618 15.5649 2.34618ZM9.89721 2.2042C9.86387 2.2042 9.83056 2.19253 9.80212 2.17016C9.73644 2.11862 9.72564 2.02331 9.77956 1.95816C9.98055 1.71212 10.2158 1.49721 10.4825 1.32022C10.5521 1.27257 10.6472 1.29201 10.6943 1.36106C10.7403 1.42913 10.7227 1.52443 10.6521 1.57014C10.4119 1.73157 10.1972 1.92509 10.0168 2.14876C9.98643 2.18474 9.94231 2.2042 9.89721 2.2042ZM14.0639 1.33966C14.0443 1.33966 14.0247 1.3348 14.0051 1.328C13.7335 1.21616 13.4502 1.13642 13.1639 1.08877C13.0825 1.07418 13.0257 0.996386 13.0394 0.91567C13.0541 0.83301 13.1315 0.777581 13.2139 0.790223C13.5227 0.842737 13.8296 0.928306 14.1227 1.04889C14.2002 1.08001 14.2364 1.1685 14.2041 1.24533C14.1806 1.30465 14.1237 1.33966 14.0639 1.33966ZM11.3865 1.20644C11.3227 1.20644 11.2629 1.16462 11.2414 1.10141C11.2169 1.02166 11.2609 0.937059 11.3423 0.912747C11.5354 0.851481 11.7384 0.805775 11.9463 0.776601C12.0541 0.761041 12.1639 0.75132 12.2727 0.74354C12.3561 0.740623 12.4286 0.802857 12.4335 0.885518C12.4384 0.969151 12.3737 1.04112 12.2914 1.04598C12.1894 1.05182 12.0865 1.06251 11.9865 1.07612C11.7973 1.10141 11.61 1.14322 11.4325 1.19963C11.4169 1.20352 11.4012 1.20644 11.3865 1.20644Z" fill="#333333"/>
<path d="M56.8866 16.5336C52.8003 4.63829 39.4845 5.36767 34.5532 14.3076C29.8423 5.25098 16.5482 4.19874 12.1697 15.991C6.56774 31.0829 32.0767 46.9352 34.1355 48.1858C36.2257 46.9867 62.117 31.7558 56.8866 16.5336Z" fill="#AA6A80"/>
<path d="M27.0336 31.6372C26.4953 30.4508 26.009 28.5214 25.5737 25.848C25.4443 25.1167 25.3434 24.4409 25.2708 23.8204C24.6493 24.894 24.2934 26.2137 24.2032 27.7803L23.9581 32.0408C23.9375 32.3928 23.7738 32.561 23.463 32.5435C23.2316 32.5309 23.0453 32.4541 22.9071 32.3169C22.7659 32.1779 22.7041 31.9931 22.7169 31.7626L23.1178 24.7851C23.1571 24.1093 23.3051 22.8703 23.5659 21.0673C23.812 19.4958 23.961 18.255 24.012 17.3506C24.1542 17.0656 24.3865 16.9324 24.711 16.9509C24.912 16.9625 25.0787 17.0413 25.21 17.1862C25.3414 17.3321 25.4012 17.5052 25.3905 17.7045L25.3865 17.7736C25.1649 18.1003 24.9855 19.4919 24.8424 21.9484L24.7943 22.7779L25.7503 21.1451C26.3405 20.0842 26.8894 19.1769 27.3992 18.4193C27.8757 17.6754 28.2159 17.3097 28.4179 17.3214C28.664 17.336 28.8748 17.4011 29.0473 17.5188C29.2199 17.6364 29.2993 17.7959 29.2875 17.9943L28.6767 18.8832C27.4101 20.6764 26.6973 21.714 26.5404 21.997C26.5257 22.2586 26.5051 22.4881 26.4777 22.6875L26.4159 23.377C26.3777 24.0373 26.5738 25.284 27.0051 27.1191C27.4346 28.9541 27.8111 30.1726 28.1326 30.7756L28.41 31.2074C28.6816 31.6236 28.8081 31.9844 28.7915 32.2907C28.7807 32.4599 28.7071 32.597 28.5689 32.7069C28.4307 32.8129 28.2767 32.8625 28.1052 32.8528C27.7473 32.8314 27.3914 32.4268 27.0336 31.6372Z" fill="white"/>
<path d="M29.9561 31.8482C29.9767 31.4797 30.2267 31.3085 30.7061 31.3357L30.963 31.3503L31.1933 31.3873C31.3169 31.3941 31.4051 31.361 31.4561 31.2861C31.5071 31.2113 31.5375 31.0751 31.5502 30.8758C31.5649 30.6132 31.5718 30.2067 31.5737 29.6514C31.5473 29.2809 31.5306 28.6177 31.5247 27.6627C31.5198 25.3044 31.5512 23.5277 31.6208 22.3306C31.6473 21.9018 31.6777 21.5098 31.713 21.1578L31.8042 19.984C31.8326 19.4773 31.8336 19.0543 31.8071 18.714C31.5561 18.7616 31.3767 18.7811 31.2679 18.7752C30.8973 18.7538 30.7208 18.5593 30.7434 18.1908C30.7532 18.006 30.8786 17.8504 31.1188 17.7259C31.359 17.6015 31.659 17.5178 32.0179 17.476C32.6453 17.3885 33.1973 17.3583 33.6777 17.3856C33.862 17.3963 34.0179 17.4702 34.1424 17.6083C34.266 17.7463 34.3248 17.901 34.3149 18.0692C34.3032 18.2384 34.2463 18.3804 34.1375 18.4971C34.0297 18.6148 33.8993 18.6692 33.7444 18.6595C33.6503 18.6546 33.5738 18.643 33.5139 18.6245L33.3277 18.6138C33.1737 18.6041 33.06 18.6332 32.9855 18.6974C32.912 18.7626 32.8689 18.888 32.8591 19.0718C32.7738 20.5617 32.7375 22.8091 32.7502 25.8131C32.7492 26.3674 32.765 27.1852 32.7953 28.2647C32.8326 28.9736 32.8287 29.6991 32.7875 30.4352L32.7356 31.3104C32.8316 31.2997 32.9856 31.3007 33.2032 31.3134C33.8522 31.3503 34.163 31.6372 34.1306 32.175L34.1228 32.3131L33.5199 32.6719C33.5042 32.6709 33.4552 32.6719 33.3689 32.6748C33.2826 32.6778 33.1248 32.6729 32.8924 32.6583C32.3944 32.6622 32.0777 32.6583 31.9385 32.6515C30.5894 32.5776 29.9287 32.3092 29.9561 31.8482Z" fill="white"/>
<path d="M35.7287 32.9141C35.5444 32.7507 35.4434 32.5445 35.4268 32.2965L35.7042 31.9192C35.7973 31.9241 35.9415 31.963 36.1395 32.0359C36.3679 32.0952 36.5454 32.1283 36.6699 32.1351C36.9474 32.1526 37.2071 32.0437 37.4454 31.8103C37.6836 31.5779 37.8699 31.2637 37.9993 30.8709C38.2434 30.1454 38.3817 29.4919 38.415 28.9074C38.4748 27.8941 38.2111 26.8088 37.6238 25.6506L37.3954 25.1984C37.1297 24.6752 36.9081 24.2075 36.7297 23.7971C36.5503 23.3877 36.4062 22.9481 36.2934 22.4804C36.1434 21.8696 36.0836 21.2657 36.1189 20.6676C36.1572 19.9927 36.3522 19.2945 36.7052 18.5758C36.8787 18.2316 37.116 17.9564 37.416 17.7492C37.715 17.5421 38.0434 17.4487 38.3993 17.4692C38.6777 17.4867 38.9317 17.5888 39.1621 17.7794C39.3905 17.968 39.4993 18.1869 39.4846 18.4329C39.4768 18.571 39.4179 18.6751 39.3032 18.746C39.1915 18.8161 39.0572 18.8472 38.9013 18.8375C38.7317 18.8277 38.5719 18.7733 38.4219 18.6731C38.0817 18.6682 37.7924 18.9532 37.5581 19.524C37.3571 20.053 37.2474 20.4926 37.2268 20.8456C37.2013 21.291 37.2444 21.7442 37.3572 22.2032C37.4709 22.6661 37.6238 23.0852 37.8219 23.4664L38.2787 24.4165L39.0042 25.9832C39.1954 26.4247 39.3414 26.9353 39.4395 27.509C39.5385 28.0847 39.5719 28.6643 39.5385 29.2478C39.4836 30.1843 39.216 31.0625 38.7336 31.8823C38.4934 32.3004 38.1679 32.6281 37.7581 32.8674C37.3474 33.1047 36.9032 33.2116 36.4238 33.1834L36.4189 33.2525C36.1444 33.1922 35.913 33.0794 35.7287 32.9141Z" fill="white"/>
<path d="M41.4631 33.2388C41.2787 33.0755 41.1768 32.8693 41.1601 32.6223L41.4376 32.243C41.5307 32.2498 41.6758 32.2887 41.8738 32.3607C42.1033 32.42 42.2787 32.4531 42.4032 32.4609C42.6817 32.4774 42.9405 32.3675 43.1797 32.1351C43.417 31.9026 43.6032 31.5886 43.7336 31.1957C43.9777 30.4702 44.117 29.8167 44.1493 29.2322C44.2082 28.2179 43.9445 27.1336 43.3592 25.9754L43.1287 25.5232C42.864 24.999 42.6425 24.5323 42.464 24.1219C42.2856 23.7125 42.1395 23.2719 42.0287 22.8051C41.8767 22.1954 41.8179 21.5905 41.8522 20.9934C41.8905 20.3176 42.0856 19.6203 42.4395 18.9007C42.614 18.5564 42.8513 18.2812 43.1503 18.074C43.4503 17.8679 43.7778 17.7745 44.1337 17.795C44.4131 17.8105 44.666 17.9136 44.8954 18.1032C45.1248 18.2928 45.2327 18.5117 45.218 18.7577C45.2101 18.8958 45.1513 18.9998 45.0376 19.0698C44.9248 19.1408 44.7905 19.171 44.6366 19.1632C44.465 19.1535 44.3052 19.0981 44.1572 18.9969C43.815 18.993 43.5258 19.277 43.2924 19.8488C43.0905 20.3769 42.9807 20.8174 42.9601 21.1704C42.9346 21.6148 42.9787 22.069 43.0925 22.5289C43.2042 22.9909 43.3591 23.41 43.5552 23.7912L44.0131 24.7423L44.7375 26.308C44.9297 26.7495 45.0748 27.2601 45.1748 27.8338C45.2719 28.4095 45.3052 28.9891 45.2719 29.5716C45.217 30.5091 44.9493 31.3872 44.4689 32.207C44.2268 32.6242 43.9013 32.9529 43.4915 33.1912C43.0817 33.4295 42.6366 33.5354 42.1581 33.5082L42.1542 33.5782C41.8778 33.517 41.6474 33.4042 41.4631 33.2388Z" fill="white"/>
<path d="M57.6788 20.3876C57.5258 18.4057 56.9915 16.4666 56.1572 14.6597C54.5062 11.0927 51.4298 8.06629 47.3935 7.49642C44.615 7.10452 41.5748 7.96613 39.1591 9.29746C37.9865 9.94415 36.8169 10.7649 35.9767 11.8142C35.6071 12.2732 35.2905 12.7731 34.965 13.2632C34.8052 13.5073 34.6434 13.7922 34.4444 14.0276C33.3316 10.8038 30.1394 8.46889 27.0306 7.32137C25.3473 6.69996 23.4963 6.41114 21.712 6.70191C19.7914 7.01505 17.9766 8.23259 16.5305 9.47055C13.4305 12.1196 11.6207 16.0532 11.4609 20.089C11.2747 24.789 13.5492 29.0407 16.1845 32.7896C17.3031 34.3795 18.5256 35.8937 19.7933 37.368C21.1011 38.888 22.3875 40.4177 23.8718 41.7714C25.362 43.1289 26.9659 44.5225 28.7237 45.53C30.259 46.411 32.0875 46.9867 33.4238 48.1751C33.7453 48.461 34.1846 48.286 34.3365 48.0049C34.4277 48.0107 34.5238 47.9874 34.6267 47.9271C39.2306 45.1517 43.267 41.5759 47.315 38.0808C49.114 36.5278 50.8503 34.9601 52.4033 33.1581C53.9827 31.324 55.3474 29.3052 56.3533 27.1045C57.3121 25.0088 57.8572 22.6962 57.6788 20.3876ZM55.5091 26.3741C53.6278 30.8514 50.0954 34.2687 46.4787 37.3933C42.5414 40.793 38.6149 44.2823 34.1394 46.9799C34.0345 47.0412 33.964 47.1229 33.9228 47.2133C32.262 45.8839 30.1326 45.2625 28.3816 44.0605C26.2267 42.5804 24.1698 40.7814 22.4541 38.817C19.213 35.1021 15.9119 31.2881 13.8913 26.7505C12.1737 22.8946 12.058 18.5904 13.8393 14.7355C14.6825 12.9112 15.9776 11.3056 17.5296 10.0258C18.9512 8.85303 20.7071 7.79011 22.5924 7.66369C24.962 7.50517 27.3512 8.38818 29.3218 9.63976C31.2326 10.8544 33.0346 12.6622 33.5885 14.9106C33.6973 15.3531 34.2012 15.4027 34.4748 15.1897C34.6061 15.2082 34.7463 15.18 34.8796 15.0866C35.5002 14.6383 35.8963 13.7845 36.314 13.1679C36.8983 12.3063 37.5601 11.6567 38.4013 11.0362C40.366 9.58627 42.7895 8.77231 45.2111 8.52238C49.3582 8.09546 52.7807 10.7318 54.7092 14.1793C55.6807 15.9161 56.2896 17.8397 56.5494 19.806C56.8484 22.067 56.3856 24.2862 55.5091 26.3741Z" fill="#333333"/>
<path d="M59.518 4.92616C57.9514 4.52549 56.5974 5.5748 55.8533 6.8361C55.2337 7.88638 54.7268 9.27216 54.7749 10.5062C54.7925 10.9186 55.1905 11.1043 55.4964 11.0362C55.5935 11.3202 55.8847 11.5244 56.2092 11.3144C57.5886 10.4226 59.2425 9.88676 60.2935 8.56322C61.2405 7.37194 61.2602 5.37155 59.518 4.92616Z" fill="#FBA6AC"/>
<path d="M59.518 4.92616C57.9514 4.52549 56.5974 5.5748 55.8533 6.8361C55.2337 7.88638 54.7268 9.27216 54.7749 10.5062C54.7925 10.9186 55.1905 11.1043 55.4964 11.0362C55.5935 11.3202 55.8847 11.5244 56.2092 11.3144C57.5886 10.4226 59.2425 9.88676 60.2935 8.56322C61.2405 7.37194 61.2602 5.37155 59.518 4.92616ZM59.116 8.28218C58.1925 9.17491 56.9298 9.61739 55.8474 10.2884C55.8788 9.41706 56.2033 8.52918 56.568 7.75801C57.0356 6.76511 57.8102 5.89183 58.9955 5.91809C59.4641 5.92878 59.8739 6.22247 59.9023 6.70871C59.9347 7.30678 59.5278 7.88443 59.116 8.28218Z" fill="#333333"/>
<path d="M66.3004 24.8026C66.4877 23.2087 65.2563 22.0213 63.8955 21.4602C62.7622 20.9944 61.3092 20.6842 60.0817 20.9011C59.6729 20.9721 59.5406 21.3892 59.6514 21.6819C59.3808 21.8152 59.218 22.1293 59.469 22.4191C60.5484 23.6551 61.3082 25.2052 62.772 26.0591C64.0926 26.8283 66.0936 26.5745 66.3004 24.8026Z" fill="#FBA6AC"/>
<path d="M66.3004 24.8026C66.4877 23.2087 65.2563 22.0213 63.8955 21.4602C62.7622 20.9944 61.3092 20.6842 60.0817 20.9011C59.6729 20.9721 59.5406 21.3892 59.6514 21.6819C59.3808 21.8152 59.218 22.1293 59.469 22.4191C60.5484 23.6551 61.3082 25.2052 62.772 26.0591C64.0926 26.8283 66.0936 26.5745 66.3004 24.8026ZM62.8955 24.8629C61.8779 24.0762 61.2632 22.8956 60.4455 21.9251C61.321 21.8366 62.2524 22.035 63.072 22.2878C64.1279 22.6146 65.1043 23.2564 65.2386 24.4253C65.2926 24.8863 65.0544 25.3297 64.573 25.4211C63.9799 25.5349 63.3485 25.214 62.8955 24.8629Z" fill="#333333"/>
<path d="M68.2838 14.225C67.9808 12.6603 66.173 12.0836 64.7877 11.9436C63.7249 11.8376 62.6602 11.9766 61.6739 12.3821C60.6328 12.8081 59.6975 13.4324 58.7367 14.0013C58.5847 14.0908 58.5043 14.2191 58.4778 14.3553C58.2808 14.5333 58.1984 14.8347 58.4298 15.0866C59.317 16.0542 60.6171 16.6999 61.8181 17.192C63.1475 17.7376 64.7749 18.1674 66.1975 17.7424C67.671 17.3048 68.572 15.7197 68.2838 14.225Z" fill="#FBA6AC"/>
<path d="M68.2838 14.225C67.9808 12.6603 66.173 12.0836 64.7877 11.9436C63.7249 11.8376 62.6602 11.9766 61.6739 12.3821C60.6328 12.8081 59.6975 13.4324 58.7367 14.0013C58.5847 14.0908 58.5043 14.2191 58.4778 14.3553C58.2808 14.5333 58.1984 14.8347 58.4298 15.0866C59.317 16.0542 60.6171 16.6999 61.8181 17.192C63.1475 17.7376 64.7749 18.1674 66.1975 17.7424C67.671 17.3048 68.572 15.7197 68.2838 14.225ZM66.874 16.0241C66.5553 16.522 66.0093 16.7359 65.4436 16.8186C64.0524 17.0199 62.4916 16.3985 61.2798 15.7848C60.7004 15.4902 60.0886 15.1459 59.5935 14.7258C60.7984 13.9926 62.0171 13.1805 63.4406 13.0074C64.5828 12.8684 66.4916 12.9967 67.121 14.1394C67.4377 14.7151 67.2063 15.5067 66.874 16.0241Z" fill="#333333"/>
<path d="M10.9619 5.7693C11.855 7.20273 13.4354 7.92236 14.705 8.96388C15.0021 9.20798 15.3149 9.03875 15.4433 8.76743C15.7404 8.86954 16.158 8.72951 16.2208 8.32301C16.4119 7.10061 16.0678 5.66816 15.5717 4.5537C14.9776 3.21752 13.7521 2.02136 12.1502 2.24309C10.3688 2.48815 10.1589 4.47882 10.9619 5.7693Z" fill="#FBA6AC"/>
<path d="M10.9619 5.7693C11.855 7.20273 13.4354 7.92236 14.705 8.96388C15.0021 9.20798 15.3149 9.03875 15.4433 8.76743C15.7404 8.86954 16.158 8.72951 16.2208 8.32301C16.4119 7.10061 16.0678 5.66816 15.5717 4.5537C14.9776 3.21752 13.7521 2.02136 12.1502 2.24309C10.3688 2.48815 10.1589 4.47882 10.9619 5.7693ZM11.5648 3.97021C11.6472 3.49175 12.0884 3.24474 12.555 3.28753C13.7364 3.39451 14.4051 4.35045 14.757 5.39003C15.0306 6.19621 15.2501 7.1152 15.1825 7.98362C14.1854 7.19591 12.9805 6.6134 12.1648 5.62245C11.8011 5.18095 11.4648 4.56147 11.5648 3.97021Z" fill="#333333"/>
<path d="M6.49035 22.8713C8.0433 22.1886 8.97664 20.7328 10.1894 19.6281C10.4727 19.3694 10.3472 19.0387 10.0933 18.8754C10.2364 18.5982 10.1541 18.1684 9.75509 18.0507C8.56096 17.6977 7.08151 17.8397 5.90112 18.1762C4.4864 18.5797 3.12561 19.6203 3.12855 21.2249C3.13247 23.0084 5.09132 23.4869 6.49035 22.8713Z" fill="#FBA6AC"/>
<path d="M6.49035 22.8713C8.0433 22.1886 8.97664 20.7328 10.1894 19.6281C10.4727 19.3694 10.3472 19.0387 10.0933 18.8754C10.2364 18.5982 10.1541 18.1684 9.75509 18.0507C8.56096 17.6977 7.08151 17.8397 5.90112 18.1762C4.4864 18.5797 3.12561 19.6203 3.12855 21.2249C3.13247 23.0084 5.09132 23.4869 6.49035 22.8713ZM4.77663 22.0349C4.308 21.8891 4.12366 21.4203 4.22857 20.9681C4.49621 19.8216 5.54032 19.2945 6.6266 19.0903C7.46974 18.9308 8.41781 18.8404 9.27566 19.0251C8.35408 19.8974 7.60699 21.0022 6.50698 21.6693C6.01678 21.9659 5.35212 22.2139 4.77663 22.0349Z" fill="#333333"/>
<path d="M4.04428 14.2231C5.40801 14.8046 7.07368 14.5624 8.45702 14.1705C9.70506 13.8165 11.0707 13.3225 12.0649 12.4609C12.3237 12.2363 12.2786 11.927 12.1031 11.7277C12.0904 11.5896 12.0266 11.4525 11.8864 11.3465C10.9953 10.6735 10.1364 9.94804 9.1521 9.4054C8.22073 8.89388 7.17758 8.63325 6.10895 8.61866C4.71679 8.60019 2.85501 8.96973 2.37364 10.4907C1.91579 11.9436 2.63054 13.6201 4.04428 14.2231Z" fill="#FBA6AC"/>
<path d="M4.04428 14.2231C5.40801 14.8046 7.07368 14.5624 8.45702 14.1705C9.70506 13.8165 11.0707 13.3225 12.0649 12.4609C12.3237 12.2363 12.2786 11.927 12.1031 11.7277C12.0904 11.5896 12.0266 11.4525 11.8864 11.3465C10.9953 10.6735 10.1364 9.94804 9.1521 9.4054C8.22073 8.89388 7.17758 8.63325 6.10895 8.61866C4.71679 8.60019 2.85501 8.96973 2.37364 10.4907C1.91579 11.9436 2.63054 13.6201 4.04428 14.2231ZM3.5384 10.5383C4.29527 9.47347 6.208 9.56197 7.32565 9.82941C8.72075 10.163 9.83843 11.1063 10.9502 11.9708C10.409 12.3316 9.76291 12.6049 9.15408 12.8324C7.87858 13.306 6.25703 13.7465 4.89722 13.3887C4.34525 13.2428 3.82759 12.9686 3.56778 12.4376C3.29817 11.8852 3.15899 11.0742 3.5384 10.5383Z" fill="#333333"/>
</svg>
