<svg width="59" height="42" viewBox="0 0 59 42" fill="none" xmlns="http://www.w3.org/2000/svg">
<path d="M8.6823 40.06C5.62205 39.3427 2.9577 37.4708 1.17952 34.788C0.593009 33.9032 0.605786 32.7776 1.20998 31.9201C1.78469 31.1054 2.78578 30.6796 3.75837 30.814C3.90082 30.8238 4.0423 30.8433 4.18279 30.8755C4.49421 30.9485 4.7909 31.0811 5.06303 31.2662C5.33123 31.4494 5.60041 31.5751 5.86173 31.6356C6.23505 31.7233 6.88837 31.7281 7.79024 31.1824C5.71929 29.0805 4.10615 26.7748 3.07264 24.4165C1.66189 21.2007 1.31019 17.8505 2.05389 14.7311C2.70425 11.9977 4.13365 9.54689 6.30185 7.44882C8.32761 5.48718 10.9075 3.92021 13.9756 2.79078C20.0951 0.53582 27.5448 0.248358 34.9503 1.98587C42.3558 3.72142 48.8879 7.28509 53.3422 12.0211C55.5733 14.393 57.1737 16.9403 58.1001 19.5938C59.0923 22.4325 59.2652 25.2585 58.6129 27.9919C57.9615 30.7263 56.5321 33.1752 54.3649 35.2752C52.3382 37.2359 49.7573 38.8019 46.6912 39.9323C40.5717 42.1882 33.121 42.4738 25.7155 40.7382C23.1543 40.1379 20.6796 39.3125 18.3444 38.2815C16.1948 39.6916 13.7152 40.4313 11.2375 40.3806C10.3759 40.364 9.51637 40.2568 8.6823 40.06Z" fill="#7C7A7A"/>
<path d="M7.93466 39.1976C4.87343 38.4804 2.21008 36.6074 0.430918 33.9247C-0.154605 33.0398 -0.142773 31.9143 0.462399 31.0558C1.03712 30.2421 2.03718 29.8172 3.00978 29.9507C3.15321 29.9595 3.29272 29.9799 3.43419 30.0131C3.7466 30.0862 4.04329 30.2167 4.31444 30.4029C4.5846 30.587 4.85381 30.7108 5.11415 30.7722C5.48747 30.8599 6.14176 30.8648 7.04362 30.319C4.97169 28.2181 3.36054 25.9124 2.32507 23.5532C0.915292 20.3364 0.563574 16.9881 1.30727 13.8678C1.95763 11.1334 3.38703 8.68451 5.55524 6.5845C7.58099 4.62383 10.1618 3.05684 13.227 1.92741C19.3475 -0.32755 26.7972 -0.614044 34.2037 1.12151C41.6092 2.85805 48.1423 6.42174 52.5956 11.1568C54.8267 13.5296 56.428 16.0769 57.3535 18.7295C58.3447 21.5691 58.5186 24.3942 57.8663 27.1286C57.2139 29.862 55.7855 32.3119 53.6163 34.4109C51.5916 36.3726 49.0107 37.9395 45.9446 39.0699C39.8241 41.3239 32.3744 41.6114 24.9689 39.8739C22.4077 39.2746 19.933 38.4502 17.5978 37.4182C15.4482 38.8283 12.9677 39.5669 10.491 39.5172C9.62742 39.4997 8.76775 39.3915 7.93466 39.1976Z" fill="white"/>
<path d="M34.4954 40.3094H34.4748C34.1781 40.3094 33.8774 40.3055 33.5798 40.2987C33.4953 40.2977 33.4295 40.2275 33.4314 40.1437C33.4334 40.0629 33.5012 39.9966 33.5828 39.9966C33.5847 39.9966 33.5866 39.9966 33.5876 39.9966C33.8824 40.0044 34.1811 40.0083 34.4758 40.0083H34.4964C34.5809 40.0083 34.6487 40.0765 34.6487 40.1584C34.6477 40.2422 34.5799 40.3094 34.4954 40.3094ZM35.4081 40.2977C35.3265 40.2977 35.2588 40.2324 35.2568 40.1515C35.2539 40.0677 35.3207 39.9985 35.4051 39.9956C35.7087 39.9888 36.0123 39.9761 36.3139 39.9625C36.3984 39.9586 36.4701 40.0219 36.473 40.1057C36.4779 40.1895 36.4121 40.2597 36.3296 40.2636C36.026 40.2792 35.7185 40.2899 35.413 40.2977C35.411 40.2977 35.41 40.2977 35.4081 40.2977ZM32.6701 40.2665C32.6671 40.2665 32.6652 40.2665 32.6632 40.2665C32.3586 40.2529 32.0512 40.2353 31.7466 40.2139C31.6631 40.2071 31.5992 40.1359 31.6041 40.0521C31.61 39.9693 31.6827 39.907 31.7672 39.9108C32.0698 39.9313 32.3753 39.9498 32.676 39.9644C32.7595 39.9693 32.8233 40.0395 32.8194 40.1223C32.8184 40.2051 32.7506 40.2665 32.6701 40.2665ZM37.2344 40.2071C37.1548 40.2071 37.088 40.1467 37.0821 40.0677C37.0743 39.9839 37.1391 39.9118 37.2226 39.906C37.5242 39.8826 37.8278 39.8553 38.1284 39.8261C38.2129 39.8144 38.2866 39.8777 38.2964 39.9605C38.3043 40.0434 38.2433 40.1174 38.1589 40.1262C37.8563 40.1564 37.5498 40.1837 37.2452 40.2071C37.2413 40.2071 37.2374 40.2071 37.2344 40.2071ZM30.8477 40.1389C30.8427 40.1389 30.8379 40.1389 30.833 40.1389C30.5294 40.1116 30.2229 40.0784 29.9223 40.0434C29.8378 40.0336 29.7788 39.9586 29.7867 39.8758C29.7965 39.7929 29.8741 39.7335 29.9566 39.7432C30.2563 39.7773 30.5598 39.8095 30.8614 39.8377C30.9449 39.8455 31.0059 39.9196 30.999 40.0024C30.9911 40.0804 30.9253 40.1389 30.8477 40.1389ZM39.0489 40.0229C38.9743 40.0229 38.9085 39.9664 38.8996 39.8904C38.8869 39.8075 38.9468 39.7325 39.0303 39.7218C39.3329 39.6828 39.6345 39.6389 39.9292 39.5922C40.0127 39.5795 40.0913 39.636 40.105 39.7179C40.1178 39.8007 40.0608 39.8777 39.9773 39.8913C39.6797 39.9371 39.3741 39.981 39.0696 40.02C39.0637 40.021 39.0558 40.0229 39.0489 40.0229ZM29.0331 39.9303C29.0263 39.9303 29.0184 39.9303 29.0125 39.9293C28.7119 39.8874 28.4083 39.8426 28.1058 39.7939C28.0223 39.7793 27.9663 39.7013 27.98 39.6204C27.9928 39.5376 28.0714 39.4811 28.1549 39.4947C28.4545 39.5435 28.7561 39.5883 29.0538 39.6302C29.1373 39.6409 29.1962 39.7179 29.1854 39.7997C29.1727 39.8758 29.1078 39.9303 29.0331 39.9303ZM40.8536 39.7393C40.7809 39.7393 40.7161 39.6887 40.7043 39.6165C40.6886 39.5337 40.7436 39.4548 40.8262 39.4392C41.1238 39.3836 41.4235 39.3242 41.7162 39.2608C41.7978 39.2423 41.8803 39.295 41.897 39.3758C41.9166 39.4577 41.8646 39.5376 41.7811 39.5561C41.4853 39.6195 41.1837 39.6799 40.8811 39.7374C40.8723 39.7384 40.8625 39.7393 40.8536 39.7393ZM27.2294 39.6409C27.2215 39.6409 27.2117 39.6409 27.2029 39.638C26.9052 39.5834 26.6026 39.5249 26.303 39.4635C26.2205 39.447 26.1674 39.3661 26.1841 39.2852C26.2018 39.2033 26.2824 39.1517 26.3659 39.1683C26.6626 39.2287 26.9622 39.2872 27.2579 39.3408C27.3414 39.3563 27.3964 39.4353 27.3807 39.5171C27.3669 39.5902 27.3021 39.6409 27.2294 39.6409ZM42.6387 39.3544C42.5709 39.3544 42.5081 39.3096 42.4914 39.2394C42.4707 39.1595 42.5199 39.0767 42.6014 39.0562C42.8971 38.9831 43.1928 38.9052 43.4806 38.8253C43.5612 38.8038 43.6447 38.8496 43.6683 38.9295C43.6899 39.0104 43.6447 39.0932 43.5632 39.1157C43.2724 39.1965 42.9727 39.2755 42.6761 39.3495C42.6633 39.3524 42.6505 39.3544 42.6387 39.3544ZM25.4424 39.2735C25.4296 39.2735 25.4188 39.2725 25.408 39.2706C25.3137 39.2492 25.2214 39.2277 25.128 39.2053C24.9237 39.1585 24.7194 39.1088 24.516 39.0582C24.4345 39.0377 24.3843 38.9568 24.4049 38.875C24.4266 38.795 24.5081 38.7453 24.5906 38.7658C24.793 38.8165 24.9944 38.8662 25.1968 38.913C25.2901 38.9344 25.3824 38.9568 25.4748 38.9773C25.5573 38.9948 25.6084 39.0767 25.5888 39.1585C25.5731 39.2268 25.5112 39.2735 25.4424 39.2735ZM44.3953 38.8623C44.3314 38.8623 44.2705 38.8204 44.2508 38.757C44.2253 38.6771 44.2705 38.5923 44.3501 38.568C44.6379 38.4764 44.9268 38.3799 45.2117 38.2805C45.2903 38.2523 45.3767 38.2942 45.4052 38.3731C45.4337 38.452 45.3914 38.5388 45.3119 38.5651C45.027 38.6664 44.7323 38.7629 44.4415 38.8555C44.4267 38.8594 44.41 38.8623 44.3953 38.8623ZM10.8406 38.833C10.7571 38.833 10.6894 38.7658 10.6884 38.683C10.6884 38.5992 10.7552 38.5319 10.8397 38.531C11.1383 38.5271 11.4399 38.5105 11.7386 38.4842C11.8231 38.4754 11.8967 38.5368 11.9046 38.6196C11.9125 38.7025 11.8515 38.7765 11.7671 38.7853C11.4596 38.8126 11.1481 38.8301 10.8426 38.834C10.8426 38.8331 10.8416 38.833 10.8406 38.833ZM23.6691 38.8311C23.6554 38.8311 23.6426 38.8292 23.6289 38.8253C23.3331 38.7453 23.0354 38.6606 22.7476 38.5748C22.667 38.5505 22.6218 38.4666 22.6454 38.3867C22.669 38.3078 22.7535 38.261 22.8351 38.2854C23.1229 38.3721 23.4176 38.4559 23.7104 38.5349C23.7919 38.5563 23.8391 38.6401 23.8165 38.721C23.7978 38.7873 23.7369 38.8311 23.6691 38.8311ZM9.92801 38.8038C9.92408 38.8038 9.92011 38.8038 9.91716 38.8038C9.60966 38.7824 9.30021 38.7483 8.99566 38.7025C8.91313 38.6898 8.85616 38.6128 8.86992 38.53C8.88171 38.4471 8.95931 38.3906 9.04183 38.4033C9.33754 38.4491 9.63815 38.4813 9.93779 38.5037C10.0213 38.5095 10.0852 38.5806 10.0783 38.6635C10.0734 38.7444 10.0076 38.8038 9.92801 38.8038ZM12.6582 38.6615C12.5855 38.6615 12.5206 38.6099 12.5078 38.5378C12.4941 38.4549 12.5491 38.377 12.6316 38.3614C12.9244 38.3088 13.221 38.2454 13.5118 38.1704C13.5934 38.1499 13.6769 38.1967 13.6975 38.2776C13.7192 38.3575 13.67 38.4403 13.5885 38.4608C13.2898 38.5388 12.9872 38.6041 12.6847 38.6576C12.6758 38.6615 12.666 38.6615 12.6582 38.6615ZM8.12818 38.5329C8.11541 38.5329 8.10561 38.531 8.09383 38.529C7.79517 38.4579 7.49453 38.376 7.20177 38.2805C7.12219 38.2552 7.07801 38.1704 7.10355 38.0915C7.12909 38.0116 7.21549 37.9687 7.29507 37.993C7.57997 38.0856 7.87178 38.1665 8.16356 38.2338C8.24412 38.2542 8.29618 38.3351 8.27653 38.416C8.25983 38.4851 8.19695 38.5329 8.12818 38.5329ZM21.9184 38.3117C21.9027 38.3117 21.888 38.3088 21.8713 38.3039C21.5825 38.2104 21.2897 38.1148 21.0018 38.0135C20.9223 37.9872 20.881 37.9005 20.9075 37.8225C20.935 37.7436 21.0225 37.7017 21.1011 37.729C21.387 37.8274 21.6768 37.9239 21.9646 38.0164C22.0452 38.0418 22.0884 38.1266 22.0629 38.2055C22.0422 38.2698 21.9823 38.3117 21.9184 38.3117ZM46.1155 38.2561C46.0556 38.2561 45.9986 38.2201 45.975 38.1607C45.9445 38.0827 45.9829 37.995 46.0605 37.9648C46.3444 37.8547 46.6254 37.7387 46.8995 37.6198C46.9761 37.5867 47.0655 37.6208 47.0999 37.6978C47.1333 37.7747 47.0979 37.8634 47.0203 37.8966C46.7443 38.0164 46.4583 38.1324 46.1725 38.2445C46.1538 38.2532 46.1342 38.2561 46.1155 38.2561ZM14.4236 38.2035C14.3607 38.2035 14.3017 38.1646 14.2801 38.1022C14.2526 38.0233 14.2959 37.9365 14.3745 37.9102C14.6564 37.8118 14.9383 37.7027 15.2134 37.5828C15.29 37.5506 15.3804 37.5857 15.4138 37.6617C15.4472 37.7377 15.4119 37.8274 15.3352 37.8605C15.0533 37.9833 14.7625 38.0954 14.4736 38.1957C14.4569 38.1996 14.4403 38.2035 14.4236 38.2035ZM6.3903 37.9745C6.37163 37.9745 6.35294 37.9706 6.33231 37.9628C6.04839 37.8459 5.76742 37.7163 5.49332 37.576C5.41866 37.538 5.38917 37.4473 5.42748 37.3733C5.46678 37.2992 5.55819 37.27 5.63285 37.308C5.89909 37.4444 6.17512 37.5711 6.4502 37.6851C6.52781 37.7173 6.56415 37.806 6.53271 37.882C6.50716 37.9395 6.45022 37.9745 6.3903 37.9745ZM20.1933 37.7163C20.1737 37.7163 20.158 37.7124 20.1393 37.7065C19.8505 37.6003 19.5626 37.4883 19.2836 37.3782C19.206 37.348 19.1677 37.2593 19.1981 37.1823C19.2286 37.1043 19.318 37.0673 19.3956 37.0975C19.6736 37.2076 19.9595 37.3168 20.2444 37.423C20.323 37.4522 20.3633 37.5399 20.3358 37.6179C20.3122 37.6783 20.2552 37.7163 20.1933 37.7163ZM47.7905 37.5321C47.7336 37.5321 47.6805 37.5019 47.654 37.4473C47.6167 37.3713 47.6491 37.2817 47.7237 37.2456C47.9978 37.1141 48.2709 36.9776 48.5332 36.8383C48.6079 36.7993 48.7003 36.8276 48.7396 36.9006C48.7789 36.9747 48.7513 37.0653 48.6767 37.1043C48.4104 37.2466 48.1344 37.384 47.8573 37.5175C47.8357 37.5272 47.8131 37.5321 47.7905 37.5321ZM16.0976 37.4785C16.0416 37.4785 15.9895 37.4512 15.962 37.3986C15.9217 37.3255 15.9503 37.2329 16.0249 37.194C16.2882 37.0556 16.5515 36.9055 16.8069 36.7467C16.8776 36.7019 16.971 36.7243 17.0162 36.7944C17.0613 36.8646 17.0397 36.9582 16.968 37.004C16.7067 37.1647 16.4375 37.3197 16.1673 37.462C16.1457 37.4737 16.1212 37.4785 16.0976 37.4785ZM4.76832 37.1462C4.74081 37.1462 4.71331 37.1384 4.68875 37.1238C4.42742 36.963 4.17197 36.7896 3.92243 36.6083C3.85562 36.5586 3.84091 36.465 3.89101 36.3968C3.94111 36.3306 4.03541 36.316 4.10418 36.3657C4.34585 36.543 4.5964 36.7106 4.84987 36.8675C4.92158 36.9114 4.94318 37.0049 4.89898 37.0751C4.86852 37.1199 4.8194 37.1462 4.76832 37.1462ZM18.4957 37.0439C18.475 37.0439 18.4564 37.04 18.4358 37.0312C18.1558 36.9123 17.8738 36.7895 17.5968 36.6648C17.5211 36.6307 17.4867 36.5401 17.5221 36.4651C17.5565 36.389 17.6469 36.3559 17.7225 36.39C17.9976 36.5138 18.2776 36.6366 18.5576 36.7535C18.6332 36.7857 18.6686 36.8743 18.6372 36.9513C18.6116 37.0088 18.5546 37.0439 18.4957 37.0439ZM49.4047 36.6814C49.3516 36.6814 49.3015 36.6551 49.272 36.6063C49.2298 36.5342 49.2543 36.4417 49.326 36.3998C49.5884 36.2477 49.8467 36.0899 50.0982 35.9281C50.168 35.8813 50.2623 35.9018 50.3085 35.9729C50.3537 36.0421 50.334 36.1357 50.2633 36.1815C50.0088 36.3462 49.7465 36.506 49.4803 36.6609C49.4557 36.6746 49.4302 36.6814 49.4047 36.6814ZM3.30056 36.0723C3.26519 36.0723 3.22885 36.0597 3.20036 36.0353C2.96851 35.8365 2.7406 35.6251 2.52447 35.4077C2.46651 35.3473 2.4665 35.2518 2.52741 35.1943C2.58734 35.1349 2.68265 35.1358 2.74159 35.1953C2.9538 35.4068 3.17382 35.6134 3.40076 35.8063C3.46363 35.8609 3.46954 35.9564 3.41551 36.0207C3.38505 36.0548 3.34281 36.0723 3.30056 36.0723ZM50.9333 35.6942C50.8871 35.6942 50.841 35.6738 50.8095 35.6328C50.7614 35.5646 50.7771 35.4701 50.8459 35.4214C51.0905 35.246 51.3341 35.0647 51.5689 34.8805C51.6338 34.8279 51.73 34.8386 51.7831 34.9049C51.8351 34.9692 51.8234 35.0647 51.7585 35.1173C51.5208 35.3035 51.2732 35.4896 51.0227 35.666C50.9962 35.6845 50.9647 35.6942 50.9333 35.6942ZM2.01755 34.7831C1.97432 34.7831 1.93204 34.7655 1.90158 34.7295C1.70411 34.4985 1.5116 34.2559 1.33182 34.0094C1.28172 33.9411 1.29739 33.8466 1.3642 33.7979C1.43199 33.7482 1.52732 33.7638 1.57742 33.83C1.75426 34.0727 1.94186 34.3085 2.13441 34.5356C2.18747 34.5989 2.17965 34.6934 2.11481 34.748C2.08632 34.7724 2.05193 34.7831 2.01755 34.7831ZM52.3647 34.5687C52.3225 34.5687 52.2802 34.5521 52.2497 34.518C52.1947 34.4557 52.2006 34.3602 52.2645 34.3046C52.4895 34.1087 52.7095 33.907 52.9198 33.7024L52.9286 33.6946C52.9895 33.6351 53.0848 33.6371 53.1447 33.6965C53.2037 33.757 53.2027 33.8525 53.1418 33.9109L53.13 33.9197C52.9188 34.1263 52.6938 34.3329 52.4649 34.5317C52.4364 34.557 52.4001 34.5687 52.3647 34.5687ZM0.971266 33.3048C0.911338 33.3048 0.854353 33.2697 0.830775 33.2103C0.736462 32.9842 0.687345 32.7464 0.687345 32.5067C0.687345 32.418 0.694218 32.3293 0.707972 32.2426C0.721726 32.1607 0.79832 32.1033 0.880843 32.115C0.963367 32.1286 1.02235 32.2056 1.00958 32.2884C0.997793 32.3595 0.991893 32.4336 0.991893 32.5077C0.991893 32.7084 1.03214 32.9062 1.11074 33.0963C1.14414 33.1732 1.10582 33.2619 1.02919 33.2931C1.01052 33.3019 0.989932 33.3048 0.971266 33.3048ZM53.6694 33.3029C53.633 33.3029 53.5967 33.2892 53.5672 33.2629C53.5053 33.2064 53.5004 33.1118 53.5573 33.0485C53.7617 32.8263 53.9601 32.5993 54.1488 32.3703C54.2018 32.306 54.2971 32.2962 54.3629 32.3498C54.4288 32.4024 54.4376 32.4969 54.3845 32.5622C54.193 32.7942 53.9906 33.029 53.7814 33.2541C53.7519 33.2863 53.7106 33.3029 53.6694 33.3029ZM54.8217 31.8967C54.7913 31.8967 54.7599 31.8879 54.7333 31.8684C54.6646 31.8197 54.6488 31.7261 54.6979 31.6589C54.8738 31.4153 55.0427 31.1639 55.2009 30.9134C55.2451 30.8433 55.3404 30.8208 55.4122 30.8647C55.4829 30.9095 55.5055 31.0031 55.4593 31.0742C55.2992 31.3305 55.1263 31.5848 54.9465 31.8333C54.916 31.8762 54.8689 31.8967 54.8217 31.8967ZM5.39312 31.8041C5.39116 31.8041 5.38819 31.8041 5.38623 31.8041C5.21529 31.7973 5.04728 31.7739 4.88518 31.7349C4.73979 31.7018 4.59346 31.655 4.44806 31.5965C4.37143 31.5644 4.33312 31.4757 4.36357 31.3997C4.39599 31.3217 4.48537 31.2857 4.56397 31.3159C4.69365 31.3695 4.82627 31.4114 4.953 31.4406C5.0984 31.4747 5.24871 31.4961 5.39804 31.502C5.48253 31.5049 5.54736 31.5761 5.54441 31.6599C5.54146 31.7408 5.47368 31.8041 5.39312 31.8041ZM6.29598 31.6998C6.23015 31.6998 6.16727 31.655 6.15057 31.5878C6.12797 31.5078 6.17612 31.425 6.25766 31.4036C6.52291 31.3334 6.797 31.2243 7.07405 31.082C7.14871 31.043 7.24107 31.0722 7.2784 31.1453C7.3177 31.2194 7.29019 31.311 7.21454 31.35C6.91686 31.503 6.62216 31.618 6.33627 31.695C6.32153 31.6989 6.30973 31.6998 6.29598 31.6998ZM1.22371 31.5965C1.19031 31.5965 1.15692 31.5858 1.12843 31.5634C1.06261 31.5117 1.05181 31.4172 1.10486 31.3509C1.30921 31.0956 1.58034 30.8939 1.88587 30.7653C1.96348 30.7331 2.05289 30.7692 2.08531 30.8462C2.11773 30.9232 2.08137 31.0118 2.00376 31.044C1.7444 31.1522 1.5165 31.3227 1.34261 31.539C1.31118 31.577 1.26693 31.5965 1.22371 31.5965ZM3.70926 31.1639C3.68372 31.1639 3.65717 31.158 3.63359 31.1434C3.49802 31.0654 3.35461 31.0089 3.20528 30.9728C3.11097 30.9524 3.01465 30.9378 2.92034 30.9339L2.90271 30.9329C2.87619 30.928 2.84867 30.9251 2.82116 30.9222C2.73864 30.9125 2.67773 30.8384 2.68559 30.7555C2.69541 30.6717 2.77106 30.6133 2.85456 30.6211C2.88305 30.625 2.91347 30.6279 2.94295 30.6327C3.05199 30.6376 3.16403 30.6532 3.27406 30.6795C3.45286 30.7205 3.62281 30.7887 3.7859 30.8822C3.85958 30.9232 3.88316 31.0157 3.8419 31.0878C3.81439 31.1385 3.76231 31.1639 3.70926 31.1639ZM7.91892 30.8851C7.87078 30.8851 7.82561 30.8647 7.79515 30.8238C7.74603 30.7565 7.76177 30.662 7.82759 30.6123C7.92092 30.545 8.0142 30.4739 8.10852 30.3999C8.05547 30.3511 8.00638 30.3014 7.95627 30.2537C7.89536 30.1943 7.89437 30.0997 7.95429 30.0403C8.01422 29.9789 8.10853 29.9789 8.16944 30.0373C8.25982 30.125 8.35122 30.2128 8.44161 30.2995L8.56537 30.4164L8.43471 30.5246C8.29226 30.6425 8.14883 30.7536 8.00736 30.8569C7.97985 30.8774 7.94937 30.8851 7.91892 30.8851ZM55.7894 30.3619C55.7658 30.3619 55.7403 30.356 55.7167 30.3433C55.643 30.3034 55.6155 30.2127 55.6548 30.1377C55.7983 29.8756 55.9329 29.6056 56.0566 29.3357C56.091 29.2607 56.1804 29.2276 56.257 29.2617C56.3337 29.2958 56.3681 29.3854 56.3327 29.4614C56.206 29.7372 56.0675 30.013 55.923 30.2829C55.8955 30.3336 55.8434 30.3619 55.7894 30.3619ZM7.41985 29.6534C7.38055 29.6534 7.34027 29.6368 7.30982 29.6057C7.0986 29.3854 6.88839 29.1613 6.68699 28.9352C6.63099 28.8729 6.63591 28.7773 6.69976 28.7208C6.76166 28.6653 6.85891 28.6711 6.91491 28.7344C7.11434 28.9566 7.32164 29.1788 7.5309 29.3971C7.58886 29.4585 7.58788 29.553 7.52598 29.6105C7.49553 29.6388 7.45816 29.6534 7.41985 29.6534ZM56.5439 28.714C56.5262 28.714 56.5085 28.7101 56.4899 28.7043C56.4103 28.675 56.371 28.5873 56.4005 28.5094C56.5056 28.2307 56.6028 27.9451 56.6893 27.6596C56.7119 27.5807 56.7983 27.5349 56.8789 27.5592C56.9585 27.5826 57.0047 27.6664 56.9811 27.7463C56.8927 28.0377 56.7935 28.331 56.6854 28.6156C56.6628 28.676 56.6068 28.714 56.5439 28.714ZM6.20561 28.2979C6.1614 28.2979 6.11714 28.2784 6.08767 28.2424C5.89315 28.0085 5.69964 27.7678 5.51593 27.529C5.46288 27.4627 5.47665 27.3682 5.54345 27.3176C5.61025 27.2659 5.70553 27.2786 5.75662 27.3448C5.93935 27.5807 6.12995 27.8184 6.32152 28.0504C6.37654 28.1147 6.36771 28.2092 6.30287 28.2628C6.27438 28.2862 6.23902 28.2979 6.20561 28.2979ZM57.0675 26.9794C57.0567 26.9794 57.0469 26.9784 57.0341 26.9745C56.9526 26.956 56.9005 26.8751 56.9201 26.7933C56.987 26.5029 57.044 26.2067 57.0901 25.9143C57.1039 25.8315 57.1825 25.7759 57.266 25.7886C57.3495 25.8013 57.4055 25.8792 57.3918 25.962C57.3446 26.2622 57.2856 26.5633 57.2168 26.8615C57.2011 26.9307 57.1383 26.9794 57.0675 26.9794ZM5.09445 26.8576C5.04631 26.8576 4.99918 26.8352 4.97069 26.7943C4.79189 26.5438 4.61998 26.2885 4.45591 26.0371C4.41072 25.9669 4.43135 25.8734 4.50209 25.8285C4.57184 25.7827 4.66616 25.8032 4.71135 25.8734C4.87345 26.1219 5.04532 26.3733 5.22019 26.6208C5.26931 26.6881 5.25164 26.7835 5.18386 26.8323C5.15537 26.8479 5.12491 26.8576 5.09445 26.8576ZM4.10711 25.3325C4.05406 25.3325 4.00204 25.3052 3.97454 25.2585C3.81833 24.9934 3.66798 24.7235 3.52848 24.4584C3.49016 24.3853 3.51866 24.2937 3.59234 24.2557C3.667 24.2168 3.75835 24.245 3.79765 24.3191C3.93617 24.5802 4.08355 24.8453 4.23681 25.1064C4.28004 25.1786 4.25551 25.2702 4.18183 25.313C4.15923 25.3257 4.13167 25.3325 4.10711 25.3325ZM57.3524 25.1903C57.3485 25.1903 57.3436 25.1902 57.3387 25.1893C57.2552 25.1815 57.1933 25.1084 57.2002 25.0246C57.2257 24.7293 57.2443 24.4292 57.2502 24.13C57.2522 24.0482 57.321 23.9809 57.4055 23.9829C57.49 23.9858 57.5568 24.054 57.5538 24.1378C57.547 24.4428 57.5303 24.7498 57.5027 25.0519C57.4978 25.1308 57.431 25.1903 57.3524 25.1903ZM3.26027 23.7266C3.2023 23.7266 3.14828 23.6954 3.12175 23.6398C3.06674 23.519 3.01273 23.4001 2.95968 23.2793C2.89091 23.1214 2.82116 22.9597 2.7573 22.7998C2.72685 22.7219 2.76517 22.6342 2.84377 22.604C2.9204 22.5738 3.00979 22.6098 3.04122 22.6878C3.10312 22.8447 3.17092 23.0035 3.23772 23.1594C3.29077 23.2774 3.34376 23.3952 3.39878 23.5132C3.43316 23.5882 3.39977 23.6779 3.32413 23.712C3.30448 23.7217 3.2809 23.7266 3.26027 23.7266ZM57.3918 23.3787C57.3112 23.3787 57.2434 23.3163 57.2405 23.2345C57.2267 22.9392 57.2031 22.639 57.1707 22.3418C57.1609 22.259 57.2218 22.183 57.3053 22.1732C57.3878 22.1654 57.4634 22.2249 57.4723 22.3087C57.5067 22.6127 57.5313 22.9197 57.545 23.2208C57.5489 23.3046 57.4831 23.3758 57.3996 23.3797C57.3967 23.3787 57.3947 23.3787 57.3918 23.3787ZM2.58239 22.0436C2.51952 22.0436 2.45959 22.0037 2.43896 21.9413C2.34072 21.6519 2.25035 21.3586 2.16979 21.0672C2.1472 20.9863 2.19435 20.9035 2.27491 20.8811C2.35546 20.8596 2.43901 20.9054 2.46259 20.9863C2.54118 21.2728 2.63155 21.5622 2.72684 21.8458C2.75435 21.9247 2.71114 22.0095 2.63156 22.0358C2.61584 22.0417 2.59909 22.0436 2.58239 22.0436ZM57.1913 21.5788C57.1196 21.5788 57.0548 21.5262 57.042 21.4531C56.9899 21.1617 56.93 20.8655 56.8593 20.5741C56.8387 20.4932 56.8897 20.4114 56.9723 20.3919C57.0528 20.3724 57.1363 20.4231 57.156 20.504C57.2267 20.8022 57.2896 21.1033 57.3407 21.4015C57.3564 21.4823 57.3004 21.5603 57.2168 21.5759C57.209 21.5779 57.2011 21.5788 57.1913 21.5788ZM2.09712 20.2964C2.02737 20.2964 1.96351 20.2477 1.94877 20.1765C1.88491 19.8783 1.82889 19.5753 1.7837 19.2761C1.76994 19.1933 1.82791 19.1173 1.91141 19.1036C1.99394 19.0919 2.07253 19.1485 2.08531 19.2313C2.1305 19.5246 2.18551 19.8199 2.24642 20.1142C2.26607 20.1951 2.21206 20.2759 2.13052 20.2935C2.11971 20.2964 2.10792 20.2964 2.09712 20.2964ZM56.7708 19.816C56.706 19.816 56.6441 19.7731 56.6245 19.7088C56.5596 19.4905 56.4879 19.2703 56.4113 19.0529C56.3887 18.9867 56.3651 18.9204 56.3415 18.8561C56.313 18.7772 56.3543 18.6904 56.4339 18.6622C56.5125 18.6339 56.5999 18.6758 56.6284 18.7538C56.652 18.82 56.6765 18.8873 56.6991 18.9545C56.7758 19.1767 56.8495 19.3999 56.9163 19.6221C56.9408 19.7029 56.8956 19.7867 56.8141 19.8101C56.7993 19.813 56.7846 19.816 56.7708 19.816ZM1.82495 18.5043C1.74636 18.5043 1.68058 18.4449 1.67468 18.3669C1.64718 18.0629 1.63044 17.7549 1.62258 17.4528C1.62061 17.369 1.68646 17.2999 1.76996 17.2989C1.85347 17.293 1.92418 17.3622 1.92712 17.446C1.934 17.7423 1.95073 18.0424 1.97725 18.3406C1.98413 18.4244 1.92225 18.4975 1.83874 18.5043C1.83481 18.5043 1.82986 18.5043 1.82495 18.5043ZM56.1519 18.1106C56.092 18.1106 56.036 18.0765 56.0114 18.0181C55.8945 17.7442 55.7698 17.4694 55.6391 17.1985C55.6018 17.1225 55.6342 17.0328 55.7098 16.9968C55.7845 16.9607 55.8769 16.9929 55.9132 17.0669C56.0468 17.3417 56.1726 17.6214 56.2914 17.8992C56.3239 17.9771 56.2885 18.0658 56.2109 18.098C56.1922 18.1067 56.1706 18.1106 56.1519 18.1106ZM1.7837 16.6947C1.78075 16.6947 1.7788 16.6947 1.77782 16.6947C1.69333 16.6908 1.62752 16.6206 1.63145 16.5368C1.6452 16.2318 1.66877 15.9258 1.70119 15.6228C1.71101 15.5399 1.78567 15.4805 1.87016 15.4893C1.95367 15.499 2.01358 15.5731 2.00376 15.6559C1.97232 15.9512 1.94875 16.2513 1.93696 16.5495C1.93205 16.6304 1.86425 16.6947 1.7837 16.6947ZM55.3601 16.4774C55.3051 16.4774 55.254 16.4481 55.2255 16.3984C55.083 16.1373 54.9318 15.8742 54.7766 15.6169C54.7324 15.5448 54.7549 15.4532 54.8276 15.4094C54.8984 15.3665 54.9927 15.3889 55.0359 15.461C55.195 15.7221 55.3493 15.9892 55.4937 16.2542C55.535 16.3273 55.5075 16.4189 55.4328 16.4579C55.4092 16.4715 55.3837 16.4774 55.3601 16.4774ZM54.417 14.924C54.3669 14.924 54.3187 14.9007 54.2892 14.8568C54.1242 14.6093 53.9503 14.3618 53.7725 14.1172C53.7224 14.0499 53.7391 13.9554 53.8059 13.9057C53.8747 13.857 53.9699 13.8726 54.0191 13.9398C54.1998 14.1864 54.3767 14.4397 54.5437 14.6892C54.5909 14.7594 54.5712 14.8529 54.5015 14.8987C54.4759 14.9162 54.4455 14.924 54.417 14.924ZM1.98415 14.8938C1.97432 14.8938 1.96643 14.8938 1.95759 14.8909C1.87506 14.8773 1.81906 14.7974 1.83478 14.7165C1.87703 14.4855 1.9252 14.2526 1.97923 14.0246C1.99692 13.9564 2.01264 13.8872 2.03032 13.82C2.05095 13.7391 2.13248 13.6894 2.215 13.7108C2.29556 13.7313 2.34563 13.8122 2.32402 13.894C2.30731 13.9593 2.29062 14.0275 2.27491 14.0938C2.22087 14.317 2.17373 14.544 2.13346 14.7691C2.12068 14.8432 2.05587 14.8938 1.98415 14.8938ZM53.3442 13.4584C53.299 13.4584 53.2547 13.438 53.2253 13.4C53.0406 13.168 52.8461 12.9332 52.6496 12.7032C52.5936 12.6408 52.6024 12.5444 52.6673 12.4898C52.7301 12.4352 52.8284 12.444 52.8815 12.5083C53.0819 12.7402 53.2774 12.977 53.465 13.2138C53.5161 13.2781 53.5053 13.3746 53.4404 13.4253C53.4109 13.4477 53.3766 13.4584 53.3442 13.4584ZM2.43015 13.1378C2.41443 13.1378 2.3997 13.1349 2.38398 13.13C2.30342 13.1047 2.26016 13.0199 2.2857 12.939C2.38198 12.6506 2.48616 12.3611 2.6011 12.0795C2.63156 12.0016 2.72092 11.9636 2.79952 11.9948C2.87713 12.0259 2.91448 12.1127 2.88304 12.1906C2.77105 12.4664 2.66692 12.75 2.57556 13.0335C2.55591 13.0979 2.49401 13.1378 2.43015 13.1378ZM52.1613 12.0776C52.12 12.0776 52.0778 12.061 52.0483 12.0279C51.9874 11.9626 51.9275 11.8963 51.8646 11.831C51.7212 11.679 51.5738 11.5241 51.4235 11.373C51.3656 11.3136 51.3665 11.2181 51.4265 11.1587C51.4874 11.1012 51.5827 11.1021 51.6426 11.1616C51.7929 11.3146 51.9433 11.4705 52.0877 11.6245C52.1496 11.6917 52.2114 11.7579 52.2733 11.8232C52.3303 11.8856 52.3254 11.9821 52.2635 12.0376C52.235 12.0639 52.1967 12.0776 52.1613 12.0776ZM3.11192 11.4578C3.08932 11.4578 3.06673 11.4529 3.04512 11.4422C2.97046 11.4071 2.93904 11.3155 2.97539 11.2415C3.10801 10.9676 3.25242 10.6948 3.40567 10.4297C3.44595 10.3576 3.53928 10.3313 3.61296 10.3722C3.68665 10.4141 3.71217 10.5067 3.66993 10.5788C3.52257 10.838 3.38017 11.106 3.25049 11.3721C3.22298 11.4276 3.1689 11.4578 3.11192 11.4578ZM50.8832 10.7815C50.8459 10.7815 50.8075 10.7669 50.7791 10.7386C50.5629 10.534 50.3389 10.3274 50.112 10.1257C50.0491 10.0702 50.0442 9.9756 50.1002 9.91226C50.1552 9.85087 50.2525 9.84504 50.3154 9.90156C50.5443 10.1052 50.7722 10.3128 50.9883 10.5194C51.0502 10.5779 51.0512 10.6734 50.9932 10.7338C50.9628 10.7659 50.9245 10.7815 50.8832 10.7815ZM4.01279 9.88401C3.9843 9.88401 3.95487 9.87525 3.92933 9.85965C3.85957 9.81288 3.83994 9.7203 3.88513 9.64916C4.05313 9.39775 4.23191 9.14535 4.41562 8.90075C4.46671 8.83546 4.56104 8.82085 4.6298 8.87152C4.69661 8.92122 4.71033 9.01478 4.65925 9.08299C4.47848 9.32272 4.30362 9.56924 4.13955 9.81579C4.11205 9.85867 4.0629 9.88401 4.01279 9.88401ZM49.5245 9.57023C49.4901 9.57023 49.4557 9.55852 49.4262 9.53416C49.1973 9.34316 48.9596 9.15022 48.7238 8.9641C48.657 8.91147 48.6462 8.81696 48.6983 8.75167C48.7514 8.68541 48.8456 8.67469 48.9115 8.72731C49.1522 8.91539 49.3909 9.10929 49.6237 9.30419C49.6876 9.35779 49.6964 9.45233 49.6424 9.51665C49.611 9.55173 49.5687 9.57023 49.5245 9.57023ZM48.0931 8.44372C48.0627 8.44372 48.0312 8.433 48.0027 8.41351C47.763 8.23518 47.5135 8.05684 47.2669 7.88338C47.1991 7.83563 47.1814 7.74113 47.2296 7.67292C47.2787 7.60471 47.373 7.58812 47.4428 7.63685C47.6913 7.81128 47.9428 7.9906 48.1854 8.17185C48.2523 8.22155 48.267 8.31606 48.2159 8.38329C48.1855 8.42325 48.1403 8.44372 48.0931 8.44372ZM5.1092 8.43397C5.07482 8.43397 5.03846 8.4223 5.00997 8.39891C4.94611 8.34434 4.93827 8.24882 4.99132 8.18645C5.18878 7.95647 5.39604 7.72649 5.60923 7.50528C5.66719 7.44486 5.76352 7.44391 5.82443 7.50043C5.88534 7.5589 5.88731 7.6544 5.82935 7.71482C5.62108 7.93213 5.41767 8.15626 5.22511 8.38136C5.19466 8.41742 5.15145 8.43397 5.1092 8.43397ZM46.5999 7.40007C46.5714 7.40007 46.5409 7.39127 46.5153 7.37568C46.2677 7.21099 46.0094 7.04631 45.752 6.88552C45.6813 6.84167 45.6587 6.74811 45.7029 6.67795C45.7481 6.60681 45.8424 6.58538 45.9141 6.62923C46.1744 6.79197 46.4338 6.95762 46.6844 7.12329C46.7541 7.17006 46.7737 7.26364 46.7275 7.33283C46.6981 7.3757 46.649 7.40007 46.5999 7.40007ZM6.36769 7.12427C6.32643 7.12427 6.28617 7.10675 6.2567 7.07654C6.19972 7.01514 6.20167 6.91964 6.26258 6.86215C6.4846 6.65556 6.71549 6.45089 6.95028 6.25405C7.01414 6.19948 7.11136 6.20728 7.16441 6.27159C7.21943 6.33493 7.21258 6.43045 7.14774 6.48405C6.91687 6.67894 6.68798 6.87967 6.47185 7.08237C6.44336 7.10965 6.40502 7.12427 6.36769 7.12427ZM45.0525 6.43727C45.025 6.43727 44.9985 6.43045 44.9739 6.41681C44.7156 6.26479 44.4503 6.11374 44.1851 5.96757C44.1114 5.92664 44.0849 5.83407 44.1261 5.76196C44.1664 5.68984 44.2597 5.66156 44.3334 5.70346C44.5996 5.85061 44.8678 6.00363 45.1281 6.15662C45.2018 6.19852 45.2264 6.29108 45.1832 6.36319C45.1547 6.41094 45.1036 6.43727 45.0525 6.43727ZM7.76074 5.95101C7.71358 5.95101 7.66842 5.93054 7.63895 5.89156C7.58787 5.82627 7.60063 5.72978 7.66743 5.68009C7.90911 5.49688 8.15866 5.31563 8.41115 5.14217C8.47992 5.09442 8.57521 5.11294 8.62335 5.18116C8.67149 5.24937 8.65381 5.34389 8.58504 5.39067C8.33648 5.5612 8.08986 5.73856 7.85212 5.91981C7.82461 5.94222 7.79217 5.95101 7.76074 5.95101ZM43.4561 5.55631C43.4325 5.55631 43.407 5.55048 43.3844 5.53781C43.1162 5.39846 42.8431 5.26107 42.5739 5.12757C42.4972 5.09053 42.4668 4.99991 42.5051 4.92585C42.5405 4.85179 42.6318 4.82059 42.7084 4.85763C42.9806 4.99113 43.2566 5.12949 43.5268 5.27079C43.6015 5.30977 43.63 5.40041 43.5907 5.47447C43.5622 5.52709 43.5101 5.55631 43.4561 5.55631ZM9.25991 4.92192C9.20981 4.92192 9.15972 4.89561 9.13123 4.85078C9.08604 4.78062 9.10865 4.68708 9.17938 4.64226C9.43678 4.48244 9.70102 4.32554 9.97118 4.17547C10.0429 4.13357 10.1363 4.1599 10.1775 4.23201C10.2198 4.30509 10.1932 4.39768 10.1206 4.4386C9.8553 4.5877 9.59296 4.74264 9.34146 4.89953C9.3169 4.91317 9.28938 4.92192 9.25991 4.92192ZM41.8145 4.75238C41.7928 4.75238 41.7712 4.74749 41.7506 4.73775C41.4765 4.61204 41.1975 4.48636 40.9195 4.36747C40.8428 4.33336 40.8084 4.24467 40.8408 4.16866C40.8743 4.09168 40.9637 4.05756 41.0413 4.09069C41.3203 4.21055 41.6022 4.33726 41.8793 4.46394C41.9549 4.49902 41.9884 4.58867 41.952 4.66468C41.9265 4.72022 41.8714 4.75238 41.8145 4.75238ZM40.1365 4.02734C40.1168 4.02734 40.0992 4.02346 40.0795 4.01664C39.7985 3.90262 39.5127 3.79152 39.2317 3.68335C39.1531 3.65412 39.1138 3.56643 39.1442 3.48847C39.1727 3.41052 39.2611 3.37249 39.3407 3.40173C39.6246 3.50794 39.9115 3.62198 40.1945 3.73697C40.2721 3.76718 40.3094 3.85586 40.2779 3.93381C40.2534 3.99228 40.1964 4.02734 40.1365 4.02734ZM10.8495 4.02639C10.7935 4.02639 10.7405 3.99714 10.7139 3.94452C10.6756 3.87046 10.7041 3.77885 10.7788 3.74182C11.047 3.60442 11.3259 3.46898 11.6059 3.34034C11.6816 3.30526 11.772 3.33841 11.8073 3.41344C11.8417 3.48848 11.8103 3.5791 11.7337 3.61418C11.4586 3.74184 11.1826 3.87534 10.9183 4.00885C10.8967 4.02151 10.8741 4.02639 10.8495 4.02639ZM38.429 3.38031C38.4104 3.38031 38.3946 3.37738 38.376 3.37056C38.093 3.27019 37.8022 3.17177 37.5144 3.07724C37.4348 3.05093 37.3906 2.96516 37.4171 2.88623C37.4436 2.8073 37.5291 2.76442 37.6087 2.78976C37.8995 2.88623 38.1923 2.98467 38.4782 3.08602C38.5577 3.11428 38.599 3.201 38.5705 3.27896C38.5499 3.34133 38.49 3.38031 38.429 3.38031ZM12.5059 3.2624C12.4459 3.2624 12.3889 3.22731 12.3654 3.16884C12.332 3.09283 12.3683 3.00416 12.4459 2.972C12.725 2.85506 13.0118 2.74102 13.2996 2.63286C13.3782 2.60362 13.4667 2.64263 13.4952 2.72059C13.5256 2.79854 13.4853 2.88623 13.4067 2.91546C13.1238 3.02266 12.8409 3.13474 12.5638 3.24973C12.5452 3.25753 12.5245 3.2624 12.5059 3.2624ZM36.6911 2.80924C36.6754 2.80924 36.6607 2.8073 36.6459 2.80243C36.3571 2.71472 36.0624 2.62799 35.7716 2.54614C35.69 2.52372 35.6438 2.43991 35.6674 2.36C35.689 2.27912 35.7735 2.23333 35.8541 2.25672C36.1468 2.33857 36.4435 2.42531 36.7343 2.51399C36.8139 2.53835 36.8591 2.62312 36.8355 2.70206C36.8159 2.76637 36.7559 2.80924 36.6911 2.80924ZM14.2123 2.61825C14.1504 2.61825 14.0905 2.5783 14.0689 2.5169C14.0424 2.437 14.0846 2.35124 14.1652 2.32396C14.453 2.22748 14.7458 2.13392 15.0385 2.04524C15.1191 2.02186 15.2046 2.0657 15.2281 2.14561C15.2527 2.22552 15.2075 2.31032 15.127 2.33371C14.8372 2.42142 14.5473 2.51497 14.2614 2.61144C14.2457 2.61632 14.23 2.61825 14.2123 2.61825ZM34.9306 2.31518C34.9168 2.31518 34.9051 2.31227 34.8923 2.30837C34.5976 2.23334 34.2999 2.16023 34.0081 2.09104C33.9256 2.07058 33.8745 1.98971 33.8952 1.90883C33.9148 1.82795 33.9963 1.77631 34.0788 1.79677C34.3736 1.86499 34.6732 1.93903 34.9699 2.01699C35.0505 2.03746 35.1006 2.1193 35.079 2.20018C35.0603 2.2684 34.9984 2.31518 34.9306 2.31518ZM15.96 2.09009C15.8932 2.09009 15.8314 2.04524 15.8137 1.978C15.793 1.8981 15.8392 1.81429 15.9208 1.79285C16.2125 1.71587 16.5121 1.63988 16.8098 1.56972C16.8914 1.54925 16.9739 1.59992 16.9935 1.68177C17.0132 1.76266 16.9631 1.84453 16.8806 1.86401C16.5849 1.9332 16.2892 2.00726 16.0003 2.08619C15.9866 2.08814 15.9718 2.09009 15.96 2.09009ZM33.1515 1.89518C33.1416 1.89518 33.1308 1.89422 33.121 1.89227C32.8253 1.8299 32.5266 1.76753 32.2289 1.71101C32.1454 1.69542 32.0914 1.61648 32.1072 1.53364C32.1248 1.45179 32.2025 1.39916 32.286 1.41475C32.5866 1.47127 32.8882 1.53267 33.1839 1.59699C33.2664 1.61356 33.3195 1.69443 33.3018 1.77628C33.2841 1.84645 33.2222 1.89518 33.1515 1.89518ZM17.7353 1.67009C17.6655 1.67009 17.6017 1.62037 17.5869 1.55021C17.5702 1.46835 17.6233 1.38846 17.7058 1.37189C18.0015 1.3105 18.3041 1.25301 18.6067 1.20039C18.6892 1.1848 18.7678 1.24034 18.7826 1.3222C18.7983 1.40406 18.7423 1.48201 18.6598 1.4976C18.3601 1.55022 18.0614 1.6077 17.7667 1.66714C17.7569 1.66909 17.7461 1.67009 17.7353 1.67009ZM31.3566 1.55411C31.3497 1.55411 31.3399 1.55217 31.332 1.55119C31.0334 1.50149 30.7308 1.45277 30.4341 1.40892C30.3506 1.39723 30.2916 1.32022 30.3054 1.23837C30.3171 1.15554 30.3958 1.09806 30.4783 1.11073C30.7769 1.15458 31.0805 1.20233 31.3831 1.253C31.4666 1.26762 31.5216 1.34461 31.5078 1.42647C31.4951 1.5015 31.4312 1.55411 31.3566 1.55411ZM19.5341 1.35533C19.4604 1.35533 19.3946 1.30073 19.3848 1.2257C19.371 1.14384 19.43 1.06686 19.5135 1.05419C19.8131 1.01034 20.1167 0.970402 20.4222 0.934346C20.5057 0.924601 20.5813 0.983057 20.5912 1.06686C20.601 1.14872 20.5411 1.22473 20.4576 1.23447C20.1579 1.26955 19.8534 1.31049 19.5567 1.35337C19.5488 1.35434 19.541 1.35533 19.5341 1.35533ZM29.5519 1.28904C29.544 1.28904 29.5381 1.28906 29.5322 1.28809C29.2316 1.25106 28.9281 1.21695 28.6274 1.18674C28.5429 1.17797 28.483 1.1039 28.4908 1.02106C28.4997 0.939208 28.5744 0.878789 28.6588 0.886585C28.9614 0.916794 29.2679 0.950905 29.5685 0.987935C29.653 0.998655 29.712 1.07369 29.7012 1.15653C29.6913 1.23448 29.6265 1.28904 29.5519 1.28904ZM21.3476 1.13898C21.27 1.13898 21.2042 1.07954 21.1964 1.00159C21.1875 0.918754 21.2504 0.845662 21.3339 0.836891C21.6365 0.81058 21.944 0.784264 22.2485 0.764774C22.333 0.756979 22.4048 0.822288 22.4107 0.906094C22.4166 0.988925 22.3517 1.06102 22.2682 1.06686C21.9656 1.08733 21.662 1.11169 21.3624 1.138C21.3575 1.138 21.3526 1.13898 21.3476 1.13898ZM27.7334 1.10683C27.7285 1.10683 27.7246 1.10683 27.7216 1.10683C27.42 1.08344 27.1145 1.06199 26.8129 1.04542C26.7284 1.04152 26.6645 0.970398 26.6694 0.887567C26.6743 0.803761 26.747 0.740423 26.8305 0.745295C27.1341 0.761862 27.4416 0.782308 27.7452 0.805695C27.8287 0.813491 27.8916 0.8866 27.8867 0.968456C27.8778 1.04642 27.812 1.10683 27.7334 1.10683ZM23.1691 1.01815C23.0885 1.01815 23.0207 0.954792 23.0178 0.872935C23.0138 0.790104 23.0797 0.71996 23.1632 0.716062C23.4648 0.704368 23.7733 0.695597 24.0798 0.690725C24.1613 0.690725 24.233 0.755048 24.235 0.838854C24.235 0.92266 24.1692 0.990857 24.0856 0.991831C23.7811 0.996704 23.4756 1.00646 23.1769 1.01815C23.174 1.01815 23.172 1.01815 23.1691 1.01815ZM25.909 1.00548C25.9081 1.00548 25.9051 1.00548 25.9032 1.00548C25.6006 0.995737 25.295 0.989884 24.9934 0.987935C24.9109 0.986961 24.8421 0.918741 24.8431 0.83591C24.8441 0.752104 24.9119 0.685847 24.9954 0.685847C24.9964 0.685847 24.9964 0.685847 24.9964 0.685847C25.2999 0.688771 25.6074 0.69463 25.914 0.704375C25.9984 0.706324 26.0633 0.777435 26.0613 0.860266C26.0584 0.942123 25.9916 1.00548 25.909 1.00548Z" fill="#333333"/>
<path d="M33.7173 3.15821C19.2335 -0.235919 5.64169 4.77196 3.3605 14.3482C2.03718 19.8999 4.80857 25.7692 10.1922 30.3814C8.23231 32.4961 5.64659 33.8545 3.11784 32.1268C3.0078 32.0517 2.89971 32.0283 2.80441 32.043C2.40948 31.9104 1.90744 32.3372 2.19628 32.7728C4.06484 35.594 7.11725 37.3549 10.5331 37.4221C13.0324 37.4718 15.4443 36.5461 17.3551 34.9966C19.8298 36.1855 22.5491 37.1532 25.4541 37.8353C39.937 41.2294 53.5289 36.2215 55.8101 26.6453C58.0922 17.07 48.2002 6.55527 33.7173 3.15821Z" fill="#4BC7C8"/>
<path d="M10.0047 19.9408C10.0577 19.7206 10.2247 19.6436 10.5017 19.7089L10.6687 19.7478C10.7021 19.7664 10.7444 19.78 10.7906 19.7917C10.8643 19.8083 10.9241 19.7985 10.9664 19.7595C11.0096 19.7215 11.046 19.6436 11.0745 19.5227C11.2602 18.7412 11.4685 17.6644 11.6983 16.2914C11.9498 14.8647 12.1611 13.7928 12.333 13.0755C12.3949 12.8163 12.4538 12.5844 12.5137 12.3739L12.6965 11.6742C12.7692 11.3702 12.8153 11.1149 12.836 10.9063C12.7259 10.919 12.6149 10.9122 12.5029 10.8859C12.2888 10.8342 12.2092 10.7007 12.2632 10.4795C12.2887 10.3694 12.3792 10.2885 12.5324 10.2369C12.6857 10.1852 12.8743 10.1667 13.0963 10.1794C13.5021 10.2067 13.8371 10.2515 14.1063 10.3139C14.2173 10.3402 14.3027 10.3996 14.3656 10.4912C14.4275 10.5838 14.4452 10.6803 14.4216 10.7826C14.397 10.8839 14.3469 10.9638 14.2683 11.0223C14.1917 11.0837 14.1053 11.1002 14.0139 11.0798C13.9579 11.0661 13.9117 11.0515 13.8773 11.034L13.7663 11.0077C13.673 10.9863 13.6013 10.9901 13.5492 11.0223C13.4971 11.0545 13.4588 11.1246 13.4333 11.2367C13.2005 12.2112 12.9401 13.5676 12.6532 15.3061C12.3379 17.1265 12.0717 18.4859 11.8575 19.3873L11.7327 19.9116C11.7985 19.9174 11.8928 19.935 12.0127 19.9632C12.4017 20.0548 12.5599 20.2614 12.4833 20.583L12.4626 20.6658L12.0599 20.8188C12.05 20.8169 12.0215 20.812 11.9734 20.8061C11.9262 20.8003 11.8329 20.7808 11.6944 20.7467C11.3741 20.6921 11.1786 20.6551 11.103 20.6385C10.3053 20.4485 9.93982 20.2175 10.0047 19.9408Z" fill="#333333"/>
<path d="M16.6507 21.9735C16.574 21.8624 16.5495 21.7484 16.578 21.6286C16.5986 21.5457 16.6399 21.4483 16.7057 21.3382C16.7656 21.2154 16.801 21.1218 16.8177 21.0565C17.0122 20.2389 17.3393 18.6554 17.8021 16.3069C18.1823 14.2985 18.5095 12.7208 18.7826 11.5709C18.8032 11.4881 18.8513 11.4286 18.927 11.3936C19.0046 11.3585 19.0891 11.3507 19.1824 11.3731C19.2934 11.3984 19.3818 11.4618 19.4467 11.5582C19.5115 11.6567 19.5311 11.7599 19.5056 11.8701C19.373 12.4206 19.204 13.2558 18.9967 14.3716C18.7521 15.6063 18.5782 16.4394 18.475 16.8702L18.4505 17.0397L18.4102 17.2064L18.3876 17.3018L18.3709 17.3711C18.2078 18.177 17.9367 19.3765 17.5584 20.9659L17.473 21.3245L18.5438 21.5769C18.7049 21.7601 18.7688 21.9219 18.7374 22.0593C18.7128 22.1607 18.6568 22.2425 18.5684 22.3029C18.48 22.3643 18.3896 22.3848 18.2972 22.3643C18.2707 22.3565 18.2216 22.336 18.1518 22.301L18.0988 22.2746C18.0408 22.2698 17.9514 22.2542 17.8316 22.2269L17.5948 22.1704C17.5329 22.146 17.4592 22.1236 17.3757 22.1051C17.2569 22.1938 17.1134 22.2181 16.9474 22.1792C16.8236 22.1519 16.7263 22.0827 16.6507 21.9735Z" fill="#333333"/>
<path d="M20.9262 23.099C20.7621 22.8846 20.6384 22.6196 20.5588 22.299C20.4075 21.7396 20.3711 21.0127 20.4468 20.1181C20.4969 19.4983 20.5902 18.7928 20.7307 18.0005L20.8918 17.2648L21.0687 16.5203C21.1168 16.2796 21.1806 15.9872 21.2612 15.6471C21.3938 15.0956 21.5323 14.6132 21.6807 14.202C21.8222 13.7693 22.0196 13.3551 22.2711 12.9575C22.5089 12.6145 22.786 12.3982 23.1013 12.3076C23.286 12.2735 23.4619 12.2745 23.6289 12.3144C24.1201 12.4294 24.463 12.713 24.6594 13.168C24.8707 13.6748 24.9649 14.2049 24.9394 14.7623C24.9335 15.4406 24.8706 16.0769 24.7498 16.6694C24.6309 17.332 24.5032 17.9518 24.3647 18.5316L24.177 19.317C24.1397 19.4739 24.0464 19.7634 23.898 20.1853C23.7801 20.5167 23.6917 20.8012 23.6347 21.0409L23.621 21.0965C23.5041 21.3411 23.4029 21.6373 23.3204 21.9871C23.2585 22.2454 23.1386 22.4978 22.9638 22.7472C22.7859 22.9977 22.5737 23.1945 22.3232 23.3407C22.0668 23.5132 21.8094 23.5687 21.5491 23.5083C21.2976 23.4479 21.0902 23.3124 20.9262 23.099ZM22.3507 22.3545C22.5344 22.0778 22.7024 21.726 22.8596 21.3011C23.0138 20.8762 23.176 20.3919 23.3449 19.8501C23.4196 19.6152 23.5031 19.3093 23.5925 18.9321L23.8814 17.6595C23.9816 17.1595 24.0719 16.5261 24.1574 15.7592C24.234 15.1063 24.2281 14.5148 24.1407 13.9788C24.1034 13.7274 24.0307 13.5208 23.9206 13.3591C23.8126 13.1973 23.6809 13.0979 23.5227 13.0609C23.2909 13.0063 23.0767 13.1456 22.8802 13.4789C22.6513 13.8239 22.4598 14.2156 22.3056 14.6542C22.1346 15.1297 21.9921 15.5867 21.8772 16.0252L21.7534 16.4774C21.7141 16.6041 21.667 16.7776 21.6149 16.9978L21.6011 17.0533C21.4557 17.6692 21.3378 18.4439 21.2533 19.3746C21.1099 20.6326 21.1227 21.5525 21.2867 22.1353C21.3938 22.5007 21.5511 22.7073 21.7554 22.756C21.9421 22.7969 22.1395 22.6664 22.3507 22.3545Z" fill="#333333"/>
<path d="M26.0152 24.2344C26.0103 23.1839 26.1095 21.309 26.3128 18.6087C26.5103 15.7242 26.6213 14.0062 26.6439 13.4585C26.7225 13.2928 26.8689 13.2344 27.0811 13.285C27.2392 13.3211 27.2943 13.9555 27.2461 15.1863C27.2039 16.4288 27.1194 17.8281 26.9946 19.3805L26.7883 21.9112C27.2 20.8422 27.5133 20.0421 27.7285 19.5101C28.2059 18.2812 28.5862 17.2609 28.8681 16.4482C29.1501 15.6355 29.3799 14.8569 29.5568 14.1124C29.7405 13.9614 29.9291 13.9078 30.1226 13.9545L30.379 14.1757L29.7267 15.9873C29.543 16.5467 29.1815 17.5543 28.6402 19.0101L28.2973 19.8911C28.0016 20.6765 27.7187 21.4152 27.4456 22.108C27.0595 23.1157 26.7579 23.8056 26.5407 24.1827C26.4346 24.3805 26.3541 24.4741 26.2991 24.4614C26.1674 24.4293 26.0731 24.3542 26.0152 24.2344Z" fill="#333333"/>
<path d="M29.9537 25.0851C29.8063 25.0013 29.7582 24.8552 29.8093 24.6427L31.7181 16.6285C31.7545 16.4716 31.783 16.231 31.8026 15.9055C31.8046 15.6053 31.8281 15.3627 31.8724 15.1795L31.8831 15.1366C32.1022 14.9173 32.2565 14.778 32.3488 14.7224C32.4785 14.7526 32.6553 14.7751 32.8754 14.7868C33.0807 14.7965 33.2566 14.8179 33.404 14.853C33.5523 14.8871 33.6859 14.9651 33.8028 15.084C33.9217 15.2038 33.9679 15.3247 33.9394 15.4436C33.8726 15.7194 33.6269 15.8071 33.2006 15.7077L33.0051 15.6619C32.952 15.6404 32.8891 15.6199 32.8145 15.6014C32.731 15.5819 32.6779 15.5761 32.6583 15.581C32.5836 15.8928 32.5129 16.2748 32.4441 16.724L32.3802 17.1167L32.227 17.8827C32.1867 18.0581 32.1081 18.3203 31.9971 18.673L31.7839 19.438L31.9883 19.4428C32.1867 19.4311 32.3459 19.4399 32.4677 19.4672C32.5689 19.4906 32.6524 19.553 32.7172 19.6504C32.7811 19.7469 32.8027 19.8473 32.7781 19.9476C32.7526 20.0587 32.6937 20.1493 32.6033 20.2205C32.5129 20.2906 32.4166 20.315 32.3154 20.2907L32.1514 20.237L31.9696 20.1942C31.8301 20.162 31.726 20.1727 31.6552 20.2224L30.6404 24.4848L31.4283 24.6271C31.9558 24.7509 32.1926 24.9321 32.1366 25.1719L32.1229 25.2274C32.0413 25.3248 31.9175 25.3901 31.7525 25.4242C31.5874 25.4583 31.4342 25.4681 31.2898 25.4535L30.828 25.3599L30.3978 25.2586C30.218 25.2196 30.0716 25.1602 29.9537 25.0851Z" fill="#333333"/>
<path d="M36.7599 26.7378C36.7048 26.657 36.6901 26.5712 36.7107 26.4786L37.0576 25.1484C37.2295 24.5569 37.3493 24.1136 37.4191 23.8193C37.482 23.5532 37.534 23.1488 37.5762 22.6041C37.6057 22.0671 37.6549 21.6559 37.7227 21.3704C37.8062 21.0215 37.8504 20.6093 37.8563 20.1347C37.8612 19.6611 37.8346 19.1973 37.7757 18.747C37.7207 18.3163 37.6971 17.8622 37.705 17.3828C37.7109 16.9043 37.7551 16.495 37.8356 16.153C37.8514 16.0896 37.9005 16.0438 37.9869 16.0136C38.0714 15.9854 38.1559 15.9805 38.2384 16C38.3406 16.0234 38.4143 16.152 38.4555 16.3859C38.5105 16.6509 38.5361 17.0115 38.5351 17.4676C38.5351 17.9226 38.5331 18.1945 38.5331 18.2812L38.486 19.2762L38.4801 19.9155C38.543 19.7742 38.6127 19.5861 38.6884 19.3512C38.9251 18.6018 39.1471 17.984 39.3515 17.4978C39.4988 17.1625 39.6364 16.9131 39.7631 16.7494C39.9046 16.5681 40.0402 16.4931 40.1698 16.5242C40.4194 16.5837 40.5333 16.6587 40.5127 16.7503C40.3879 17.2746 40.0923 18.0201 39.6266 18.9887C39.1609 19.9574 38.8642 20.7087 38.7385 21.2427L38.6579 21.4571C38.6058 21.5906 38.5813 21.6725 38.5852 21.7017L38.5312 21.9229C38.4379 22.3185 38.3072 22.9295 38.1402 23.754L37.7315 25.5957L37.6833 25.9183L37.6322 26.2564L37.5497 26.6014C37.5232 26.7115 37.4535 26.7953 37.3424 26.8519C37.2324 26.9084 37.1116 26.92 36.9809 26.8908C36.8876 26.8704 36.8149 26.8187 36.7599 26.7378Z" fill="#333333"/>
<path d="M40.8251 27.7649C40.6601 27.5505 40.5383 27.2845 40.4577 26.9649C40.3084 26.4055 40.2701 25.6786 40.3457 24.783C40.3968 24.1632 40.4911 23.4587 40.6316 22.6645L40.7908 21.9307L40.9696 21.1862C41.0177 20.9435 41.0816 20.6531 41.1621 20.313C41.2928 19.7615 41.4323 19.2791 41.5796 18.8669C41.7221 18.4352 41.9196 18.0201 42.1721 17.6225C42.4098 17.2795 42.6849 17.0641 43.0022 16.9725C43.1859 16.9384 43.3618 16.9404 43.5278 16.9793C44.019 17.0953 44.3639 17.3789 44.5584 17.833C44.7706 18.3388 44.8648 18.8708 44.8393 19.4282C44.8344 20.1065 44.7706 20.7428 44.6487 21.3353C44.5299 21.997 44.4031 22.6177 44.2646 23.1975L44.0769 23.983C44.0396 24.1389 43.9473 24.4283 43.797 24.8503C43.6781 25.1816 43.5916 25.4671 43.5337 25.7058L43.5209 25.7614C43.404 26.006 43.3038 26.3032 43.2203 26.6521C43.1584 26.9093 43.0395 27.1627 42.8627 27.4132C42.6859 27.6636 42.4727 27.8604 42.2231 28.0047C41.9658 28.1791 41.7083 28.2337 41.449 28.1742C41.1975 28.1148 40.9892 27.9783 40.8251 27.7649ZM42.2507 27.0204C42.4344 26.7437 42.6033 26.3909 42.7586 25.967C42.9138 25.5431 43.0749 25.0578 43.2439 24.516C43.3195 24.2812 43.4021 23.9752 43.4915 23.598L43.7802 22.3254C43.8805 21.8235 43.9719 21.1911 44.0573 20.4251C44.134 19.7722 44.129 19.1787 44.0406 18.6447C44.0023 18.3914 43.9306 18.1867 43.8216 18.025C43.7125 17.8632 43.5789 17.7638 43.4217 17.7268C43.1898 17.6722 42.9766 17.8106 42.7792 18.1439C42.5513 18.4888 42.3597 18.8815 42.2064 19.3201C42.0335 19.7946 41.8911 20.2517 41.7761 20.6902L41.6533 21.1423C41.613 21.27 41.5679 21.4435 41.5139 21.6637L41.5011 21.7183C41.3547 22.3351 41.2378 23.1089 41.1533 24.0405C41.0099 25.2985 41.0197 26.2184 41.1847 26.8012C41.2928 27.1666 41.451 27.3732 41.6553 27.4209C41.841 27.4638 42.0394 27.3303 42.2507 27.0204Z" fill="#333333"/>
<path d="M45.8306 28.2677C45.589 27.6781 45.4828 26.996 45.5093 26.2262C45.529 25.4056 45.6214 24.5422 45.7874 23.6408C45.9318 22.8203 46.1194 21.9374 46.3454 20.9902L46.6175 19.8452C46.703 19.5256 46.7885 19.1855 46.8749 18.8269C46.817 18.7353 46.8032 18.6359 46.8288 18.5238C46.8553 18.4147 46.9211 18.326 47.0242 18.2578C47.1284 18.1906 47.2325 18.1681 47.3337 18.1925C47.6677 18.2714 47.7571 18.6359 47.5999 19.2898C47.4987 19.7127 47.3327 20.5186 47.0979 21.7055C46.8641 22.8944 46.6971 23.7003 46.5959 24.1222C46.6136 24.2528 46.6009 24.5023 46.5567 24.8706C46.5134 25.239 46.4633 25.5391 46.4093 25.7691C46.3611 25.9708 46.3336 26.2291 46.3268 26.5429C46.3209 26.8566 46.3434 27.1802 46.3896 27.5115C46.4338 27.8614 46.5281 28.1624 46.6726 28.4158C46.8189 28.6682 46.9987 28.8193 47.2119 28.8699C47.3416 28.8992 47.4605 28.8846 47.5676 28.8212C47.6756 28.7598 47.7621 28.6536 47.8269 28.5045C47.9438 28.2599 48.0312 28.0134 48.0911 27.7658L48.7327 25.0743C48.8132 24.7342 48.883 24.2947 48.9439 23.7549C49.0265 23.1633 49.1021 22.7199 49.1718 22.4256L49.1945 22.3282C49.2298 22.1821 49.2573 22.0475 49.277 21.9257L49.3585 21.5223C49.4194 21.265 49.499 20.8714 49.5952 20.3403C49.6699 19.8618 49.7456 19.4622 49.8222 19.1416C49.8458 19.0403 49.9194 18.9643 50.0452 18.9165C50.169 18.8678 50.2957 18.8581 50.4254 18.8892L50.6975 19.2878L50.6415 19.5227C50.616 19.6328 50.5649 19.7624 50.4913 19.9095C50.392 20.159 50.339 20.3013 50.3301 20.3373C50.1307 21.1734 49.9018 22.3389 49.6444 23.8319C49.3595 25.3959 49.1158 26.6062 48.9115 27.4618C48.8024 27.9227 48.659 28.3164 48.4832 28.6429C48.3771 28.8426 48.2602 28.9927 48.1334 29.0999C48.0047 29.2061 47.8456 29.2851 47.6579 29.3387C47.4781 29.3932 47.263 29.3913 47.0134 29.3318C46.4397 29.1974 46.0448 28.8426 45.8306 28.2677Z" fill="#333333"/>
<path d="M56.3975 19.894C56.1893 19.4048 55.9672 18.9 55.7108 18.4147C55.7148 18.3221 55.6902 18.2325 55.6302 18.1584C55.5281 18.0347 55.4338 17.908 55.3385 17.7794C55.2383 17.6254 55.1342 17.4743 55.0222 17.3301C54.6901 16.837 54.3796 16.3283 54.0446 15.844C53.4944 15.0508 52.9217 14.2712 52.3234 13.5121C51.1603 12.0445 49.8831 10.6685 48.4429 9.46506C46.9044 8.18069 45.1862 7.13994 43.3716 6.28531C41.4746 5.39463 39.5068 4.65305 37.7021 3.58014C37.5596 3.49536 37.423 3.48953 37.3061 3.53143C35.6812 2.85319 33.8038 2.69532 32.1072 2.35522C29.7376 1.87967 27.3227 1.59706 24.904 1.53859C22.4804 1.48012 20.0538 1.7023 17.695 2.26068C15.3215 2.82199 13.1405 3.89588 10.9733 4.97171C9.01335 5.94522 7.01312 7.12336 5.55521 8.77512C4.22402 10.2856 3.4597 12.2774 3.04806 14.2157C2.61678 16.2446 2.5883 18.366 3.00681 20.3988C3.45774 22.5972 4.64056 24.6826 5.96487 26.4767C6.53173 27.2426 7.14378 27.9403 7.87569 28.5533C8.47202 29.0541 9.13126 29.5131 9.6598 30.0891C9.02025 30.9671 8.14684 31.6229 7.0593 31.9776C5.62103 32.4463 4.05014 32.3167 2.61286 31.9114C2.22873 31.8051 1.99393 32.1267 2.01162 32.4346C1.92025 32.5448 1.87997 32.6968 1.93498 32.8741C3.96565 39.5153 12.9136 37.8333 17.5683 35.0375C18.7786 36.3589 20.5873 37.0518 22.2702 37.5624C24.0965 38.114 26.0043 38.4579 27.8925 38.7396C30.4105 39.1177 32.9736 39.1927 35.5103 39.0076C37.8671 38.8361 40.1994 38.3761 42.4943 37.8284C46.7344 36.815 50.9775 35.1271 53.8206 31.7048C56.5017 28.4802 58.1148 23.9235 56.3975 19.894ZM54.4199 29.0941C53.3363 30.969 51.8372 32.5555 50.0285 33.7561C48.1914 34.9761 46.1125 35.7771 44.0003 36.394C39.3436 37.7495 34.4876 38.3985 29.6433 37.9493C27.6401 37.7641 25.6183 37.3821 23.6672 36.9027C21.8733 36.4612 19.9261 35.8648 18.5399 34.5912C18.3945 34.4577 18.2599 34.3105 18.1322 34.1605C18.0762 34.0962 18.0173 34.0523 17.9564 34.026C17.809 33.8876 17.5919 33.835 17.3708 33.9763C13.5266 36.4427 5.23593 38.5554 3.07067 33.0622C4.51974 33.3682 6.0376 33.3711 7.45523 32.9092C8.76775 32.4814 9.85331 31.619 10.6078 30.5042C10.763 30.4175 10.8741 30.2655 10.8632 30.0939C10.9605 29.9254 11.0509 29.7519 11.1324 29.5745C11.4036 28.9869 10.5164 28.5026 10.2443 29.0912C10.2257 29.1302 10.206 29.1682 10.1864 29.2072C9.58417 28.6127 8.89254 28.1109 8.25003 27.5515C7.34424 26.7622 6.63883 25.7507 5.99731 24.7469C4.81251 22.8935 3.96766 20.8831 3.77019 18.6856C3.58549 16.611 3.87431 14.4944 4.56889 12.5318C4.89505 11.6119 5.3548 10.7309 5.92068 9.93476C6.54648 9.05479 7.39828 8.35025 8.27264 7.72658C10.1206 6.40908 12.2426 5.37904 14.3224 4.47472C16.5888 3.49049 18.9672 2.8941 21.4272 2.66023C23.8646 2.42732 26.3344 2.52868 28.761 2.8298C29.9419 2.975 31.1168 3.17669 32.283 3.41836C33.3528 3.63957 34.4365 3.78381 35.4995 4.03815C36.3316 4.23597 37.1509 4.502 37.874 4.96196C38.0017 5.04284 38.1245 5.05942 38.2316 5.03018C39.6974 5.79418 41.2388 6.41102 42.7409 7.10388C44.5318 7.93121 46.2197 8.9398 47.7414 10.194C49.1551 11.3604 50.4087 12.7159 51.5434 14.1494C52.1142 14.8715 52.6545 15.6179 53.1801 16.3732C53.4395 16.7454 53.6821 17.1333 53.9327 17.5172C53.9533 17.5942 53.9925 17.6712 54.0544 17.7404C54.0918 17.7803 54.1272 17.8213 54.1626 17.8641C54.2912 18.0561 54.4248 18.2461 54.5624 18.4284C54.8856 18.9546 55.141 19.5422 55.3788 20.0811C55.7835 20.9991 56.0399 21.9219 56.1008 22.9266C56.2344 25.0929 55.4907 27.2358 54.4199 29.0941Z" fill="#333333"/>
<path d="M25.7715 4.63837C23.1317 4.2213 20.4763 4.77674 17.9829 5.63624C17.3669 5.84867 17.6597 6.81146 18.2776 6.59805C20.5922 5.79897 23.0826 5.2289 25.5387 5.61577C26.1802 5.7181 26.4179 4.7407 25.7715 4.63837Z" fill="#333333"/>
<path d="M17.0427 6.3769C16.9552 6.09333 16.6812 5.99297 16.41 6.04267C15.7272 6.16838 15.1368 6.46656 14.624 6.92847C14.1406 7.36601 14.8784 8.054 15.3579 7.62133C15.7439 7.27344 16.1978 7.09705 16.7077 7.0035C16.9789 6.95478 17.1164 6.61565 17.0427 6.3769Z" fill="#333333"/>
<path d="M14.453 32.918C13.8203 33.8252 12.3526 33.9129 11.3515 33.9821C10.7021 34.026 10.7355 35.0316 11.3898 34.9858C12.8192 34.8874 14.4658 34.6594 15.3411 33.4004C15.7134 32.8664 14.8194 32.3898 14.453 32.918Z" fill="#333333"/>
</svg>
