<svg width="41" height="36" viewBox="0 0 41 36" fill="none" xmlns="http://www.w3.org/2000/svg">
<path d="M38.9711 5.84136C38.3223 5.22252 37.4651 4.86485 36.5413 4.82602C35.8728 4.24483 35.0008 3.90601 34.0721 3.90601C33.1421 3.90601 32.2701 4.24483 31.6029 4.82602C30.6791 4.86485 29.8219 5.22252 29.1719 5.84136C29.0843 5.92372 29.0029 6.01197 28.9252 6.10138C27.5179 5.35194 26.0144 4.78486 24.4567 4.41661C23.8289 2.51183 22.154 1.17648 20.1596 1.17648C18.1689 1.17648 16.4952 2.50948 15.865 4.4119C12.7902 5.1284 9.96819 6.61082 7.6371 8.74384C5.14691 11.0216 3.38565 13.884 2.51611 17.0583C1.62562 17.9689 1.35921 19.4054 1.1335 20.6208C1.06936 20.9678 1.00276 21.329 0.947257 21.5137C0.614245 22.622 0.756082 23.7903 1.3444 24.7998C1.87106 25.7045 2.70112 26.3857 3.70386 26.7445C3.14884 27.3669 2.82939 28.1599 2.82939 29.0034C2.82939 29.8905 3.1846 30.7223 3.79513 31.3588C3.83583 32.2212 4.20091 33.0495 4.85954 33.6765C5.50829 34.2954 6.36549 34.6519 7.28929 34.6919C7.95778 35.2743 8.82855 35.6119 9.75852 35.6119C10.6885 35.6119 11.5605 35.2743 12.2277 34.6919C13.1515 34.6519 14.0087 34.2954 14.6575 33.6777C15.3161 33.0506 15.6812 32.2224 15.7219 31.3588C16.3324 30.7223 16.6876 29.8905 16.6876 29.0034C16.6876 28.9117 16.6839 28.8222 16.6765 28.7328C17.8026 28.7834 18.9459 28.8081 20.0967 28.8081C25.5458 28.8081 30.1709 28.2552 36.0615 26.9034C37.2382 26.6328 38.2335 25.9421 38.8663 24.9562C39.4977 23.9703 39.6889 22.8103 39.4052 21.6867C39.3559 21.4949 39.2992 21.1267 39.2511 20.829C39.0451 19.5419 38.7811 17.896 37.7537 16.9383C37.6699 16.6406 37.5761 16.3441 37.4762 16.05C38.0374 15.8841 38.548 15.5912 38.9699 15.19C39.6272 14.5629 39.9936 13.7358 40.0343 12.8722C40.6448 12.2346 41 11.4027 41 10.5157C41 9.62738 40.6448 8.79677 40.0343 8.1591C39.9948 7.29554 39.6297 6.46845 38.9711 5.84136ZM35.2598 10.9839L35.7594 12.1251L34.5655 11.6463L33.818 13.3864L32.3281 14.2229L33.0755 15.7888C33.4949 16.6677 33.8193 17.5901 34.0376 18.5313L34.3003 19.6595L34.9688 19.8313C35.1032 20.249 35.2192 20.9761 35.287 21.4032C35.3635 21.8879 35.4239 22.2573 35.5078 22.5844C35.5411 22.7173 35.5201 22.8444 35.4449 22.9608C35.3696 23.0773 35.2611 23.1538 35.1205 23.1856C29.5592 24.4633 25.2053 24.9844 20.0942 24.9844C17.9716 24.9844 15.8847 24.8938 13.8916 24.715L11.4334 24.4938L11.7073 26.7892L10.9426 28.5317L12.1426 29.0011L10.9426 29.4693L11.4433 30.6094L10.2482 30.1317L9.75481 31.2788L9.26146 30.1317L8.06632 30.6094L8.56584 29.4693L7.36699 29.0011L8.56707 28.5317L7.86158 26.9245L11.2645 24.6456L6.95998 23.6491C6.20638 23.475 5.64273 23.3197 5.29738 23.2173L5.15678 23.1785C4.98534 23.1314 4.89284 23.022 4.84473 22.9397C4.79663 22.8573 4.74853 22.7232 4.79786 22.5608C4.90887 22.1867 4.99027 21.7491 5.07784 21.2808C5.15431 20.869 5.28505 20.1654 5.41825 19.7866L6.02385 19.5619L6.25448 18.563C7.52116 13.0675 12.2092 8.78621 17.9185 7.90852L19.5737 7.65439L19.6033 6.05668C19.6169 5.36019 20.019 4.99783 20.1571 4.99783C20.2953 4.99783 20.6986 5.36254 20.7109 6.05668L20.7393 7.65554L22.3932 7.91086C24.7145 8.27087 26.9321 9.20268 28.8068 10.6051L29.8651 11.3875L31.0269 10.7674L32.8794 10.0415L32.3799 8.90268L33.5738 9.3815L34.0672 8.23324L34.5605 9.3815L35.7557 8.9015L35.2549 10.0439L36.455 10.5121L35.2598 10.9839Z" fill="#6B5951"/>
<path d="M38.2002 4.66488C37.5515 4.04603 36.6943 3.68836 35.7705 3.64954C35.102 3.06834 34.23 2.72952 33.3012 2.72952C32.3713 2.72952 31.4993 3.06834 30.832 3.64954C29.9082 3.68836 29.051 4.04603 28.401 4.66488C28.3135 4.74724 28.2321 4.83548 28.1544 4.9249C26.7471 4.17546 25.2436 3.60837 23.6858 3.24012C23.058 1.33534 21.3831 0 19.3887 0C17.3981 0 15.7244 1.33299 15.0941 3.23542C12.0193 3.95192 9.19733 5.43433 6.86624 7.56736C4.37605 9.84509 2.61479 12.7075 1.74526 15.8818C0.854757 16.7924 0.588349 18.2289 0.36264 19.4443C0.298505 19.7914 0.231901 20.1525 0.176399 20.3373C-0.156613 21.4455 -0.0147765 22.6138 0.573545 23.6233C1.1002 24.528 1.93026 25.2092 2.933 25.568C2.37798 26.1904 2.05854 26.9834 2.05854 27.827C2.05854 28.714 2.41375 29.5458 3.02427 30.1823C3.06497 31.0447 3.43005 31.873 4.08868 32.5001C4.73743 33.1189 5.59463 33.4754 6.51843 33.5154C7.18692 34.0978 8.05769 34.4354 8.98766 34.4354C9.91763 34.4354 10.7896 34.0978 11.4569 33.5154C12.3807 33.4754 13.2379 33.1189 13.8866 32.5012C14.5453 31.8742 14.9103 31.0459 14.951 30.1823C15.5616 29.5458 15.9168 28.714 15.9168 27.827C15.9168 27.7352 15.9131 27.6458 15.9057 27.5563C17.0318 27.6069 18.1751 27.6316 19.3258 27.6316C24.7749 27.6316 29.4001 27.0787 35.2907 25.7269C36.4673 25.4563 37.4627 24.7657 38.0954 23.7797C38.7269 22.7938 38.9181 21.6338 38.6344 20.5102C38.585 20.3184 38.5283 19.9502 38.4802 19.6525C38.2742 18.3654 38.0103 16.7195 36.9829 15.7618C36.899 15.4641 36.8053 15.1676 36.7054 14.8735C37.2666 14.7076 37.7772 14.4147 38.199 14.0135C38.8564 13.3864 39.2227 12.5593 39.2634 11.6958C39.8739 11.0581 40.2291 10.2263 40.2291 9.33917C40.2291 8.4509 39.8739 7.62029 39.2634 6.98262C39.2239 6.11905 38.8589 5.29196 38.2002 4.66488ZM34.489 9.80743L34.9885 10.9487L33.7946 10.4698L33.0472 12.2099L31.5572 13.0464L32.3047 14.6123C32.724 15.4912 33.0484 16.4136 33.2667 17.3548L33.5294 18.483L34.1979 18.6548C34.3324 19.0725 34.4483 19.7996 34.5161 20.2267C34.5926 20.7114 34.653 21.0808 34.7369 21.4079C34.7702 21.5408 34.7492 21.6679 34.674 21.7844C34.5988 21.9008 34.4902 21.9773 34.3496 22.0091C28.7883 23.2868 24.4345 23.808 19.3234 23.808C17.2007 23.808 15.1138 23.7174 13.1207 23.5385L10.6626 23.3174L10.9364 25.6127L10.1717 27.3552L11.3718 27.8246L10.1717 28.2929L10.6724 29.4329L9.47731 28.9552L8.98395 30.1023L8.49061 28.9552L7.29546 29.4329L7.79498 28.2929L6.59613 27.8246L7.79621 27.3552L7.09072 25.7481L10.4936 23.4691L6.18912 22.4726C5.43553 22.2985 4.87187 22.1432 4.52653 22.0409L4.38592 22.002C4.21448 21.9549 4.12198 21.8456 4.07388 21.7632C4.02577 21.6808 3.97767 21.5467 4.027 21.3843C4.13801 21.0102 4.21941 20.5726 4.30698 20.1043C4.38345 19.6925 4.51419 18.989 4.6474 18.6101L5.25299 18.3854L5.48362 17.3866C6.7503 11.8911 11.4384 7.60972 17.1477 6.73204L18.8029 6.47791L18.8325 4.8802C18.846 4.1837 19.2481 3.82134 19.3863 3.82134C19.5244 3.82134 19.9277 4.18605 19.9401 4.8802L19.9684 6.47906L21.6224 6.73437C23.9436 7.09439 26.1612 8.0262 28.036 9.4286L29.0942 10.211L30.256 9.59096L32.1086 8.86505L31.609 7.7262L32.803 8.20502L33.2963 7.05676L33.7897 8.20383L34.9848 7.72501L34.4841 8.86742L35.6841 9.33565L34.489 9.80743Z" fill="white"/>
<path d="M19.3905 7.74865C20.7072 7.74865 21.7747 6.47973 21.7747 4.91443C21.7747 3.34913 20.7072 2.0802 19.3905 2.0802C18.0738 2.0802 17.0064 3.34913 17.0064 4.91443C17.0064 6.47973 18.0738 7.74865 19.3905 7.74865Z" fill="#F9761E"/>
<path d="M19.7667 2.12491C19.6434 2.1002 19.5188 2.07903 19.3893 2.07903C18.0733 2.07903 17.0052 3.34849 17.0052 4.91443C17.0052 5.20385 17.0533 5.47799 17.1199 5.74153C18.8158 5.01326 20.0985 3.80968 19.7667 2.12491Z" fill="#FB921D"/>
<path d="M19.3887 7.91794C17.9765 7.91794 16.8282 6.56964 16.8282 4.91428C16.8282 3.25775 17.9765 1.91063 19.3887 1.91063C20.8009 1.91063 21.9492 3.25775 21.9492 4.91428C21.9504 6.57081 20.8009 7.91794 19.3887 7.91794ZM19.3887 2.24712C18.1713 2.24712 17.1822 3.44482 17.1822 4.91547C17.1822 6.38493 18.1713 7.58144 19.3887 7.58144C20.606 7.58144 21.5964 6.38493 21.5964 4.91547C21.5964 3.44364 20.6073 2.24712 19.3887 2.24712Z" fill="#231F20"/>
<path d="M19.3819 4.82032C10.5077 4.82032 3.31466 11.8076 3.31466 20.428C3.31466 20.7962 3.33316 21.1609 3.35783 21.5245C7.99656 22.5834 13.4888 23.201 19.3819 23.201C25.275 23.201 30.7672 22.5845 35.4059 21.5245C35.4318 21.1609 35.4503 20.7974 35.4503 20.428C35.4491 11.8088 28.256 4.82032 19.3819 4.82032Z" fill="#AF1524"/>
<path d="M19.8 4.83207C19.6606 4.82736 19.5225 4.82032 19.3819 4.82032C10.5077 4.82032 3.31466 11.8076 3.31466 20.428C3.31466 20.7962 3.33316 21.1609 3.35783 21.5245C7.99656 22.5834 13.4888 23.201 19.3819 23.201C20.7386 23.201 22.0706 23.1657 23.3805 23.101C24.6311 16.7702 23.7246 10.1311 19.8 4.83207Z" fill="#D3404E"/>
<path d="M14.8055 6.27317C14.8055 6.27317 6.87484 11.2569 5.71176 16.7842C4.38958 16.5618 4.38958 16.5618 4.38958 16.5618C4.38958 16.5618 6.55786 8.99563 14.8055 6.27317Z" fill="#F4606E"/>
<path d="M19.7994 4.83261C19.66 4.8279 19.5219 4.82087 19.3813 4.82087C19.2012 4.82087 19.0236 4.82792 18.8448 4.83498C12.3979 8.83278 11.3298 15.9872 11.1732 22.7862C13.783 23.0557 16.5334 23.2016 19.38 23.2016C20.7368 23.2016 22.0688 23.1663 23.3787 23.1016C24.6305 16.7707 23.724 10.1316 19.7994 4.83261Z" fill="#C52831"/>
<path d="M19.3813 23.3691C13.6831 23.3691 8.12674 22.7879 3.31656 21.6867L3.18952 21.6585L3.18089 21.5361C3.15129 21.1126 3.13649 20.7608 3.13649 20.429C3.13649 11.731 10.4233 4.65428 19.3801 4.65428C28.3369 4.65428 35.6237 11.7322 35.6237 20.429C35.6237 20.7596 35.6089 21.1126 35.5793 21.5361L35.5707 21.6585L35.4448 21.6867C30.6347 22.7879 25.0795 23.3691 19.3813 23.3691ZM3.525 21.3879C8.27968 22.4632 13.7596 23.0303 19.3813 23.0303C25.0031 23.0303 30.4817 22.4632 35.2376 21.3879C35.2611 21.0267 35.2722 20.7196 35.2722 20.4278C35.2722 11.9158 28.1432 4.98841 19.3813 4.98841C10.6194 4.98841 3.49047 11.9158 3.49047 20.4278C3.49047 20.7196 3.50157 21.0279 3.525 21.3879Z" fill="#231F20"/>
<path d="M19.3264 25.5505C9.74794 25.5505 4.3001 23.7916 3.88939 23.6798C2.63998 23.3387 1.91722 22.0974 2.27367 20.908C2.63011 19.7173 2.75345 16.7855 4.00163 17.1231C4.14223 17.1608 18.3261 20.8962 34.8558 17.0996C36.1188 16.8102 36.2125 19.7926 36.516 20.9974C36.8206 22.201 36.0436 23.4139 34.7806 23.7034C28.7531 25.0881 24.2377 25.5505 19.3264 25.5505Z" fill="#064756"/>
<path d="M26.7328 25.1341C27.3902 24.9176 28.1598 24.7941 28.6063 24.2823C30.9818 21.5692 29.5351 19.2327 27.2693 18.9821C23.8578 18.4856 20.3304 18.9727 16.8942 18.9021C16.2331 18.8879 15.6287 18.8009 15.049 18.6726C8.41468 18.2844 4.07812 17.1443 4.00042 17.1243C2.75101 16.7867 2.6289 19.7186 2.27246 20.9092C1.91601 22.0998 2.63877 23.3399 3.88818 23.681C4.2989 23.7928 9.74673 25.5517 19.3252 25.5517C21.8141 25.5506 24.2007 25.4305 26.7328 25.1341Z" fill="#085A70"/>
<path d="M4.07263 18.4772C4.07263 18.4772 -0.368767 24.3786 15.8539 24.581C5.44785 24.7068 0.161584 23.3692 4.07263 18.4772Z" fill="#248BA3"/>
<path d="M19.3258 25.7198C11.1202 25.7198 5.83636 24.428 3.94559 23.8727L3.83952 23.8433C2.50007 23.4774 1.72058 22.1408 2.10292 20.8632C2.18679 20.582 2.25956 20.1902 2.33603 19.7737C2.58394 18.4395 2.86392 16.9289 3.80745 16.9289C3.88515 16.9289 3.96656 16.9406 4.04796 16.9618C4.10963 16.9783 10.3308 18.6337 19.4146 18.6337C24.7293 18.6337 29.9094 18.063 34.8121 16.9371C34.8824 16.9206 34.9527 16.9124 35.0193 16.9124C36.0147 16.9124 36.2823 18.5925 36.4982 19.9408C36.5598 20.3278 36.6178 20.6949 36.6856 20.9584C36.8435 21.5855 36.7362 22.2315 36.3835 22.7821C36.0307 23.3327 35.4745 23.7174 34.8183 23.868C29.0942 25.1822 24.6047 25.7198 19.3258 25.7198ZM3.80868 17.2642C3.16239 17.2642 2.88612 18.7489 2.68384 19.8325C2.60491 20.2561 2.5309 20.6573 2.4421 20.9549C2.11402 22.0561 2.78375 23.2044 3.93696 23.5197L4.04919 23.5515C5.92516 24.1033 11.167 25.3845 19.3258 25.3845C24.5763 25.3845 29.0411 24.8504 34.7381 23.5421C35.303 23.4127 35.7816 23.0809 36.085 22.6079C36.3884 22.135 36.4809 21.5785 36.344 21.0396C36.2737 20.7608 36.2132 20.3879 36.1503 19.9925C35.9542 18.7678 35.6977 17.0783 34.8948 17.2654C29.9637 18.3983 24.7564 18.9713 19.4146 18.9713C10.2827 18.9713 4.01466 17.303 3.95176 17.2854C3.90242 17.2701 3.85432 17.2642 3.80868 17.2642Z" fill="#231F20"/>
<path d="M19.3819 22.7033C21.33 22.7033 22.9093 21.1968 22.9093 19.3385C22.9093 17.4801 21.33 15.9736 19.3819 15.9736C17.4337 15.9736 15.8544 17.4801 15.8544 19.3385C15.8544 21.1968 17.4337 22.7033 19.3819 22.7033Z" fill="#F4606E"/>
<path d="M19.8216 22.282C21.5259 22.282 22.9075 20.9641 22.9075 19.3384C22.9075 17.7126 21.5259 16.3947 19.8216 16.3947C18.1173 16.3947 16.7357 17.7126 16.7357 19.3384C16.7357 20.9641 18.1173 22.282 19.8216 22.282Z" fill="#C52831"/>
<path d="M19.3813 22.8702C17.3401 22.8702 15.6787 21.2855 15.6787 19.3384C15.6787 17.39 17.3401 15.8041 19.3813 15.8041C21.4226 15.8041 23.0839 17.39 23.0839 19.3384C23.0839 21.2855 21.4226 22.8702 19.3813 22.8702ZM19.3813 16.1406C17.5337 16.1406 16.0315 17.5759 16.0315 19.3384C16.0315 21.1008 17.5337 22.5338 19.3813 22.5338C21.2289 22.5338 22.7312 21.1008 22.7312 19.3384C22.7312 17.5759 21.2289 16.1406 19.3813 16.1406Z" fill="#231F20"/>
<path d="M19.3819 20.5221C20.1577 20.5221 20.7867 19.9221 20.7867 19.1821C20.7867 18.442 20.1577 17.842 19.3819 17.842C18.606 17.842 17.9771 18.442 17.9771 19.1821C17.9771 19.9221 18.606 20.5221 19.3819 20.5221Z" fill="#FB921D"/>
<path d="M19.3813 20.6902C18.5093 20.6902 17.8001 20.0137 17.8001 19.1831C17.8001 18.3513 18.5093 17.6748 19.3813 17.6748C20.2533 17.6748 20.9625 18.3513 20.9625 19.1831C20.9625 20.0125 20.2533 20.6902 19.3813 20.6902ZM19.3813 18.0101C18.7042 18.0101 18.1529 18.536 18.1529 19.1819C18.1529 19.8278 18.7042 20.3526 19.3813 20.3526C20.0585 20.3526 20.6098 19.8278 20.6098 19.1819C20.6098 18.536 20.0585 18.0101 19.3813 18.0101Z" fill="#231F20"/>
<path d="M29.9391 8.39796C30.6446 9.07093 32.6168 9.93802 33.2742 9.31094C33.9315 8.68386 33.0213 6.8026 32.3171 6.12963C31.6116 5.45784 30.5077 5.41903 29.8515 6.04611C29.1941 6.6732 29.2336 7.72499 29.9391 8.39796Z" fill="#FFDDBB"/>
<path d="M32.5982 9.57095C31.7423 9.57095 30.4707 8.96738 29.9058 8.42735C29.1843 7.74027 29.1436 6.6567 29.817 6.01433C30.1266 5.71902 30.5471 5.55551 31.001 5.55551C31.4944 5.55551 31.9852 5.75431 32.3466 6.09903C33.083 6.80141 33.9722 8.70502 33.3037 9.34152C33.1459 9.49446 32.9078 9.57095 32.5982 9.57095ZM31.0023 5.64491C30.573 5.64491 30.1759 5.79904 29.8823 6.07788C29.2447 6.68731 29.2842 7.71439 29.9711 8.36736C30.5237 8.89444 31.7645 9.48506 32.5982 9.48506C32.8832 9.48506 33.099 9.41563 33.2408 9.28034C33.8612 8.68737 32.9794 6.82495 32.2825 6.16139C31.9384 5.83314 31.4722 5.64491 31.0023 5.64491Z" fill="#BA9E85"/>
<path d="M31.4203 8.80507C31.8126 9.17685 32.909 9.66039 33.2729 9.31215C33.638 8.9639 33.1323 7.91796 32.7413 7.545C32.3491 7.17205 31.7361 7.1509 31.3722 7.49797C31.0072 7.84622 31.0294 8.43094 31.4203 8.80507Z" fill="#FFC32C"/>
<path d="M32.8979 9.47563C32.4181 9.47563 31.7052 9.13796 31.3883 8.83442C30.9788 8.44381 30.9566 7.82969 31.3389 7.46732C31.5153 7.2979 31.7534 7.20612 32.0111 7.20612C32.2911 7.20612 32.5686 7.31791 32.7734 7.51321C33.1816 7.90381 33.6984 8.96737 33.3062 9.34268C33.2124 9.43092 33.0768 9.47563 32.8979 9.47563ZM32.0111 7.29319C31.778 7.29319 31.5622 7.37673 31.4031 7.5285C31.0565 7.85793 31.0787 8.41675 31.4524 8.77324C31.7509 9.05795 32.4465 9.38857 32.8979 9.38857C33.0509 9.38857 33.1656 9.35208 33.2408 9.28031C33.5775 8.95913 33.0903 7.93908 32.708 7.57554C32.5217 7.39671 32.2664 7.29319 32.0111 7.29319Z" fill="#BA9E85"/>
<path d="M34.2855 12.5452C33.58 11.8734 32.671 9.991 33.3284 9.36391C33.9846 8.73918 35.958 9.60507 36.6635 10.278C37.369 10.9498 37.4084 12.004 36.751 12.6287C36.0937 13.2558 34.991 13.217 34.2855 12.5452Z" fill="#FFDDBB"/>
<path d="M35.599 13.1181C35.1057 13.1181 34.6148 12.9205 34.2534 12.5758C33.5171 11.8722 32.6278 9.96981 33.2963 9.33331C33.4554 9.18154 33.6935 9.10388 34.003 9.10388C34.8578 9.10388 36.1294 9.70862 36.6955 10.2463C37.417 10.9357 37.4565 12.0181 36.7831 12.6605C36.4723 12.9546 36.0529 13.1181 35.599 13.1181ZM34.0018 9.19095C33.7169 9.19095 33.5011 9.26037 33.3592 9.39449C32.7388 9.98628 33.6207 11.8499 34.3163 12.5134C34.6617 12.8417 35.1279 13.0299 35.5978 13.0299C36.027 13.0299 36.4242 12.877 36.7177 12.5981C37.3554 11.9887 37.3159 10.9616 36.6289 10.3075C36.0776 9.78157 34.8356 9.19095 34.0018 9.19095Z" fill="#BA9E85"/>
<path d="M33.8591 11.1314C33.4669 10.7585 32.9624 9.71256 33.3275 9.36431C33.6914 9.01724 34.7878 9.4984 35.1801 9.87254C35.5723 10.2467 35.5932 10.8302 35.2294 11.1785C34.8643 11.5267 34.2513 11.5055 33.8591 11.1314Z" fill="#FFC32C"/>
<path d="M34.5901 11.4691C34.3101 11.4691 34.0326 11.3585 33.8279 11.1632C33.4197 10.7725 32.9029 9.70899 33.2963 9.33368C33.3888 9.24544 33.5257 9.20073 33.7033 9.20073C34.1831 9.20073 34.896 9.53839 35.213 9.84076C35.4103 10.0302 35.525 10.2761 35.5349 10.5337C35.5448 10.7925 35.4486 11.0326 35.2623 11.209C35.0847 11.3773 34.8467 11.4691 34.5901 11.4691ZM33.7021 9.28779C33.5492 9.28779 33.4344 9.32309 33.3592 9.39486C33.0225 9.71605 33.5097 10.7361 33.8908 11.1008C34.0783 11.2796 34.3336 11.382 34.5889 11.382C34.822 11.382 35.0378 11.2984 35.197 11.1467C35.3647 10.9878 35.4523 10.7702 35.4424 10.5349C35.4338 10.2996 35.3289 10.0749 35.1476 9.90194C34.8504 9.61957 34.1535 9.28779 33.7021 9.28779Z" fill="#BA9E85"/>
<path d="M34.2855 6.13085C33.58 6.80382 32.671 8.68626 33.3284 9.31216C33.9858 9.93807 35.958 9.07215 36.6635 8.39919C37.369 7.72622 37.4085 6.67325 36.7523 6.04734C36.0949 5.42026 34.991 5.45789 34.2855 6.13085Z" fill="#FFDDBB"/>
<path d="M34.0031 9.57094C33.6935 9.57094 33.4554 9.49447 33.2951 9.3427C32.6266 8.70621 33.5171 6.80259 34.2522 6.10021C34.6136 5.75549 35.1045 5.55665 35.5978 5.55665C36.0517 5.55665 36.471 5.72021 36.7819 6.01551C37.4553 6.65907 37.4158 7.74146 36.6943 8.42972C36.1294 8.96857 34.8578 9.57094 34.0031 9.57094ZM35.599 5.64491C35.1291 5.64491 34.6629 5.83314 34.3176 6.16139C33.6219 6.82495 32.7388 8.68855 33.3592 9.28033C33.5011 9.41563 33.7169 9.48506 34.0018 9.48506C34.8356 9.48506 36.0776 8.89444 36.6301 8.36854C37.3159 7.71322 37.3554 6.68614 36.7177 6.07788C36.4254 5.79787 36.0283 5.64491 35.599 5.64491Z" fill="#BA9E85"/>
<path d="M33.8591 7.54499C33.4682 7.91794 32.9625 8.96388 33.3275 9.31213C33.6914 9.66038 34.7879 9.17918 35.1801 8.80505C35.5723 8.43092 35.5933 7.8462 35.2294 7.49795C34.8643 7.15088 34.2513 7.17086 33.8591 7.54499Z" fill="#FFC32C"/>
<path d="M33.7034 9.47563C33.5245 9.47563 33.3889 9.42974 33.2951 9.34268C32.9029 8.96855 33.4185 7.90381 33.8279 7.51321C34.0327 7.31791 34.3102 7.20612 34.5902 7.20612C34.8479 7.20612 35.086 7.29908 35.2624 7.46732C35.4474 7.6438 35.5448 7.88378 35.5349 8.14261C35.5251 8.40027 35.4116 8.64618 35.2143 8.83442C34.896 9.13796 34.1819 9.47563 33.7034 9.47563ZM34.5902 7.29319C34.3349 7.29319 34.0808 7.39671 33.8933 7.57554C33.511 7.94026 33.0238 8.95913 33.3605 9.28031C33.4357 9.35208 33.5504 9.38857 33.7034 9.38857C34.1536 9.38857 34.8504 9.05796 35.1477 8.77442C35.329 8.60147 35.4338 8.37558 35.4424 8.14028C35.4511 7.90615 35.3647 7.68851 35.197 7.5285C35.0379 7.37673 34.8233 7.29319 34.5902 7.29319Z" fill="#BA9E85"/>
<path d="M29.939 10.2781C30.6445 9.6051 32.6167 8.73803 33.2741 9.36394C33.9303 9.98985 33.0212 11.8734 32.317 12.5452C31.6115 13.217 30.5076 13.2558 29.8515 12.6288C29.1941 12.0029 29.2335 10.9499 29.939 10.2781Z" fill="#FFDDBB"/>
<path d="M31.0022 13.1181C30.5484 13.1181 30.129 12.9546 29.8182 12.6593C29.1448 12.0169 29.1842 10.9345 29.907 10.2451C30.4719 9.70741 31.7435 9.10267 32.5995 9.10267C32.909 9.10267 33.1471 9.18033 33.3062 9.3321C33.7169 9.72388 33.5097 10.5133 33.3494 10.9498C33.1212 11.5675 32.7191 12.2204 32.3491 12.5746C31.9865 12.9205 31.4956 13.1181 31.0022 13.1181ZM32.5982 9.19093C31.7645 9.19093 30.5237 9.78154 29.9711 10.3074C29.2841 10.9628 29.2447 11.9899 29.8823 12.5981C30.1746 12.8769 30.573 13.0299 31.0022 13.0299C31.4722 13.0299 31.9384 12.8417 32.2837 12.5134C32.6451 12.1687 33.0385 11.5298 33.2618 10.9216C33.416 10.5051 33.617 9.7533 33.2408 9.39328C33.1002 9.26034 32.8831 9.19093 32.5982 9.19093Z" fill="#BA9E85"/>
<path d="M31.4203 9.87135C31.8126 9.4984 32.909 9.01602 33.2729 9.36309C33.638 9.71134 33.1335 10.7572 32.7413 11.1302C32.3491 11.5043 31.7361 11.5255 31.3722 11.1773C31.0072 10.8302 31.0294 10.2467 31.4203 9.87135Z" fill="#FFC32C"/>
<path d="M32.0111 11.4691C31.7546 11.4691 31.5153 11.3773 31.3402 11.209C30.9578 10.8443 30.98 10.2313 31.3895 9.84191C31.7065 9.53837 32.4194 9.20073 32.8992 9.20073C33.0768 9.20073 33.2137 9.24544 33.3062 9.33368C33.6996 9.70781 33.1828 10.7725 32.7746 11.162C32.5686 11.3584 32.2911 11.4691 32.0111 11.4691ZM32.8979 9.28779C32.4465 9.28779 31.7509 9.6184 31.4524 9.90194C31.0787 10.2584 31.0565 10.8161 31.4031 11.1467C31.5622 11.2984 31.778 11.382 32.0111 11.382C32.2677 11.382 32.5218 11.2796 32.7092 11.1008C33.0916 10.7349 33.5788 9.71605 33.2408 9.39486C33.1668 9.32427 33.0509 9.28779 32.8979 9.28779Z" fill="#BA9E85"/>
<path d="M36.3748 7.73441C35.377 7.73441 33.3395 8.45209 33.3395 9.33801C33.3395 10.2228 35.377 10.9416 36.3748 10.9416C37.3726 10.9416 38.1805 10.2228 38.1805 9.33801C38.1805 8.45209 37.3714 7.73441 36.3748 7.73441Z" fill="#FFDDBB"/>
<path d="M36.3749 10.9851C35.3339 10.9851 33.2939 10.2392 33.2939 9.33915C33.2939 8.43911 35.3339 7.69203 36.3749 7.69203C37.3961 7.69203 38.2262 8.43205 38.2262 9.33915C38.2262 10.2462 37.3949 10.9851 36.3749 10.9851ZM36.3749 7.77792C35.3906 7.77792 33.3851 8.49914 33.3851 9.338C33.3851 10.1757 35.3906 10.898 36.3749 10.898C37.3455 10.898 38.1349 10.1969 38.1349 9.338C38.1349 8.47797 37.3443 7.77792 36.3749 7.77792Z" fill="#BA9E85"/>
<path d="M35.0255 8.44623C34.4717 8.44623 33.3395 8.84624 33.3395 9.33803C33.3395 9.82981 34.4717 10.2286 35.0255 10.2286C35.5793 10.2286 36.0282 9.82981 36.0282 9.33803C36.0282 8.84624 35.5793 8.44623 35.0255 8.44623Z" fill="#FFC32C"/>
<path d="M35.0255 10.2721C34.4471 10.2721 33.2939 9.86861 33.2939 9.338C33.2939 8.8074 34.4483 8.40266 35.0255 8.40266C35.6028 8.40266 36.0739 8.82269 36.0739 9.338C36.0739 9.85332 35.604 10.2721 35.0255 10.2721ZM35.0255 8.49091C34.4853 8.49091 33.3839 8.88384 33.3839 9.33915C33.3839 9.79446 34.4841 10.1862 35.0255 10.1862C35.5534 10.1862 35.9826 9.80623 35.9826 9.33915C35.9826 8.87208 35.5534 8.49091 35.0255 8.49091Z" fill="#BA9E85"/>
<path d="M30.2265 7.73441C31.2243 7.73441 33.2618 8.45209 33.2618 9.33801C33.2618 10.2228 31.2243 10.9416 30.2265 10.9416C29.2286 10.9416 28.4208 10.2228 28.4208 9.33801C28.422 8.45209 29.2299 7.73441 30.2265 7.73441Z" fill="#FFDDBB"/>
<path d="M30.2264 10.9851C29.2052 10.9851 28.3751 10.2462 28.3751 9.33915C28.3751 8.43205 29.2052 7.69203 30.2264 7.69203C31.2674 7.69203 33.3074 8.43911 33.3074 9.33915C33.3074 10.2392 31.2686 10.9851 30.2264 10.9851ZM30.2264 7.77792C29.2557 7.77792 28.4664 8.47797 28.4664 9.338C28.4664 10.1969 29.2557 10.898 30.2264 10.898C31.2107 10.898 33.2161 10.1757 33.2161 9.338C33.2161 8.49914 31.2119 7.77792 30.2264 7.77792Z" fill="#BA9E85"/>
<path d="M31.5758 8.44623C32.1295 8.44623 33.2618 8.84624 33.2618 9.33803C33.2618 9.82981 32.1295 10.2286 31.5758 10.2286C31.022 10.2286 30.573 9.82981 30.573 9.33803C30.573 8.84624 31.022 8.44623 31.5758 8.44623Z" fill="#FFC32C"/>
<path d="M31.5757 10.2721C30.9973 10.2721 30.5261 9.85332 30.5261 9.338C30.5261 8.82269 30.9973 8.40266 31.5757 8.40266C32.153 8.40266 33.3074 8.8074 33.3074 9.338C33.3074 9.86861 32.153 10.2721 31.5757 10.2721ZM31.5757 8.49091C31.0479 8.49091 30.6187 8.87208 30.6187 9.33915C30.6187 9.80623 31.0479 10.1862 31.5757 10.1862C32.116 10.1862 33.2161 9.79446 33.2161 9.33915C33.2161 8.88384 32.116 8.49091 31.5757 8.49091Z" fill="#BA9E85"/>
<path d="M34.9812 12.2699C34.9812 11.3181 34.2288 9.37454 33.3001 9.37454C32.3713 9.37454 31.619 11.3181 31.619 12.2699C31.619 13.2217 32.3713 13.9923 33.3001 13.9923C34.2288 13.9923 34.9812 13.2217 34.9812 12.2699Z" fill="#FFDDBB"/>
<path d="M33.3012 14.0358C32.3491 14.0358 31.5745 13.244 31.5745 12.2699C31.5745 11.2757 32.3565 9.33092 33.3012 9.33092C34.246 9.33092 35.028 11.2757 35.028 12.2699C35.028 13.2452 34.2522 14.0358 33.3012 14.0358ZM33.3012 9.41917C32.4231 9.41917 31.6658 11.331 31.6658 12.271C31.6658 13.1969 32.3996 13.9499 33.3012 13.9499C34.2028 13.9499 34.9367 13.1969 34.9367 12.271C34.9355 11.331 34.1794 9.41917 33.3012 9.41917Z" fill="#BA9E85"/>
<path d="M34.2337 10.984C34.2337 10.4557 33.8156 9.37569 33.3 9.37569C32.7845 9.37569 32.3664 10.4557 32.3664 10.984C32.3664 11.5122 32.7845 11.9405 33.3 11.9405C33.8168 11.9393 34.2337 11.5122 34.2337 10.984Z" fill="#FFC32C"/>
<path d="M33.3013 11.9828C32.761 11.9828 32.322 11.5345 32.322 10.9827C32.322 10.431 32.745 9.33092 33.3013 9.33092C33.8575 9.33092 34.2806 10.4321 34.2806 10.9827C34.2806 11.5333 33.8415 11.9828 33.3013 11.9828ZM33.3013 9.41917C32.8239 9.41917 32.4132 10.4686 32.4132 10.9839C32.4132 11.4875 32.8116 11.8957 33.3013 11.8957C33.7909 11.8957 34.1893 11.4863 34.1893 10.9839C34.1893 10.4674 33.7773 9.41917 33.3013 9.41917Z" fill="#BA9E85"/>
<path d="M34.9812 6.40615C34.9812 7.35795 34.2288 9.30156 33.3001 9.30156C32.3713 9.30156 31.619 7.35795 31.619 6.40615C31.619 5.45435 32.3713 4.68256 33.3001 4.68256C34.2288 4.68256 34.9812 5.45435 34.9812 6.40615Z" fill="#FFDDBB"/>
<path d="M33.3012 9.34503C32.3565 9.34503 31.5745 7.39909 31.5745 6.40611C31.5745 5.43195 32.3491 4.64015 33.3012 4.64015C34.2522 4.64015 35.028 5.43195 35.028 6.40611C35.028 7.39909 34.246 9.34503 33.3012 9.34503ZM33.3012 4.72603C32.3996 4.72603 31.6658 5.48019 31.6658 6.40611C31.6658 7.34497 32.4231 9.25796 33.3012 9.25796C34.1794 9.25796 34.9367 7.34497 34.9367 6.40611C34.9355 5.48019 34.2028 4.72603 33.3012 4.72603Z" fill="#BA9E85"/>
<path d="M34.2337 7.69328C34.2337 8.22153 33.8156 9.30158 33.3 9.30158C32.7845 9.30158 32.3664 8.22153 32.3664 7.69328C32.3664 7.16502 32.7845 6.73679 33.3 6.73679C33.8168 6.73561 34.2337 7.16502 34.2337 7.69328Z" fill="#FFC32C"/>
<path d="M33.3013 9.34503C32.745 9.34503 32.322 8.24382 32.322 7.69321C32.322 7.1426 32.761 6.69198 33.3013 6.69198C33.8415 6.69198 34.2806 7.14143 34.2806 7.69321C34.2806 8.245 33.8563 9.34503 33.3013 9.34503ZM33.3013 6.77905C32.8116 6.77905 32.4132 7.18966 32.4132 7.69203C32.4132 8.20734 32.8239 9.25681 33.3013 9.25681C33.7786 9.25681 34.1893 8.20617 34.1893 7.69203C34.1893 7.18966 33.7909 6.77905 33.3013 6.77905Z" fill="#BA9E85"/>
<path d="M33.3999 10.7016C34.1349 10.7016 34.7307 10.1332 34.7307 9.43211C34.7307 8.73101 34.1349 8.16264 33.3999 8.16264C32.6649 8.16264 32.0691 8.73101 32.0691 9.43211C32.0691 10.1332 32.6649 10.7016 33.3999 10.7016Z" fill="#BC0A0A"/>
<path d="M33.3999 10.7451C32.6402 10.7451 32.0235 10.1569 32.0235 9.4333C32.0235 8.70974 32.6402 8.12031 33.3999 8.12031C34.1584 8.12031 34.7764 8.70974 34.7764 9.4333C34.7764 10.1569 34.1584 10.7451 33.3999 10.7451ZM33.3999 8.20501C32.6907 8.20501 32.1147 8.75679 32.1147 9.43211C32.1147 10.1074 32.692 10.658 33.3999 10.658C34.1079 10.658 34.6851 10.1074 34.6851 9.43211C34.6851 8.75679 34.1079 8.20501 33.3999 8.20501Z" fill="#BA9E85"/>
<path d="M5.62422 26.8869C6.32971 27.5587 8.30189 28.427 8.95928 27.7987C9.61543 27.174 8.70643 25.2915 8.00217 24.6186C7.29791 23.9456 6.19404 23.908 5.53665 24.5339C4.8805 25.161 4.91996 26.2139 5.62422 26.8869Z" fill="#FFDDBB"/>
<path d="M8.2846 28.0587C7.42864 28.0587 6.15702 27.4563 5.59214 26.9163C4.87061 26.228 4.82991 25.1444 5.50333 24.5032C5.81291 24.2068 6.23349 24.0432 6.68738 24.0432C7.18073 24.0432 7.67161 24.2421 8.03299 24.5868C8.76932 25.2892 9.65859 27.1916 8.9901 27.8304C8.83222 27.9834 8.59418 28.0587 8.2846 28.0587ZM6.68738 24.1315C6.25816 24.1315 5.86101 24.2856 5.56747 24.5656C4.92981 25.1739 4.96928 26.201 5.65627 26.8539C6.20883 27.3822 7.4496 27.9716 8.28337 27.9716C8.56828 27.9716 8.78412 27.9034 8.92596 27.7681C9.54635 27.1751 8.66449 25.3115 7.96886 24.648C7.62475 24.3209 7.15729 24.1315 6.68738 24.1315Z" fill="#BA9E85"/>
<path d="M7.10673 27.2928C7.49895 27.6658 8.59542 28.1493 8.95926 27.7999C9.32435 27.4528 8.81866 26.4069 8.42768 26.0328C8.0367 25.661 7.42247 25.6387 7.05863 25.9869C6.69231 26.334 6.71452 26.9199 7.10673 27.2928Z" fill="#FFC32C"/>
<path d="M8.58431 27.9634C8.10453 27.9634 7.39164 27.6246 7.07466 27.3234C6.66518 26.9328 6.64298 26.3186 7.02532 25.9551C7.2017 25.7857 7.43974 25.6939 7.69752 25.6939C7.97749 25.6939 8.255 25.8069 8.45975 26.0022C8.86799 26.3916 9.38478 27.4563 8.99133 27.8316C8.89883 27.9187 8.76192 27.9634 8.58431 27.9634ZM7.69752 25.7821C7.46564 25.7821 7.24857 25.8645 7.09069 26.0163C6.74411 26.3469 6.76632 26.9057 7.14003 27.2622C7.43851 27.5469 8.13413 27.8763 8.58555 27.8775C8.73849 27.8775 8.85319 27.841 8.92843 27.7693C9.26514 27.4481 8.77795 26.4269 8.39561 26.0633C8.2069 25.8857 7.95283 25.7821 7.69752 25.7821Z" fill="#BA9E85"/>
<path d="M9.97189 31.033C9.2664 30.3612 8.3574 28.4787 9.01479 27.8528C9.67218 27.2269 11.6444 28.094 12.3498 28.7658C13.0553 29.4376 13.0948 30.4917 12.4386 31.1177C11.7825 31.7436 10.6761 31.7059 9.97189 31.033Z" fill="#FFDDBB"/>
<path d="M11.2854 31.607C10.7921 31.607 10.3012 31.4094 9.93857 31.0647C9.20225 30.3611 8.31298 28.4587 8.98147 27.821C9.14058 27.6692 9.37862 27.5928 9.6882 27.5928C10.5429 27.5928 11.8158 28.1963 12.3807 28.7352C13.1022 29.4246 13.1417 30.507 12.4682 31.1482C12.1587 31.4435 11.7381 31.607 11.2854 31.607ZM9.6882 27.6798C9.40452 27.6798 9.18744 27.7493 9.0456 27.8822C8.42522 28.4752 9.30708 30.3388 10.0039 31.0023C10.3481 31.3306 10.8155 31.5188 11.2854 31.5188C11.7146 31.5188 12.1118 31.3647 12.4041 31.0858C13.0418 30.4776 13.0023 29.4505 12.3165 28.7964C11.764 28.2693 10.522 27.6798 9.6882 27.6798Z" fill="#BA9E85"/>
<path d="M9.54425 29.6204C9.15327 29.2462 8.64759 28.2003 9.01267 27.8532C9.37651 27.505 10.4742 27.9862 10.8652 28.3615C11.2574 28.7344 11.2784 29.3192 10.9145 29.6662C10.5495 30.0145 9.93647 29.9933 9.54425 29.6204Z" fill="#FFC32C"/>
<path d="M10.2753 29.958C9.99529 29.958 9.71778 29.845 9.51304 29.6509C9.10479 29.2615 8.58801 28.1979 8.98022 27.8214C9.07272 27.7332 9.20963 27.6897 9.38723 27.6897C9.86825 27.6897 10.5799 28.0273 10.8981 28.3285C11.0955 28.5179 11.2089 28.7626 11.2188 29.0215C11.2287 29.2803 11.1325 29.5215 10.9462 29.6968C10.7723 29.865 10.533 29.958 10.2753 29.958ZM9.38847 27.7755C9.23553 27.7755 9.12082 27.8108 9.04559 27.8826C8.70887 28.2038 9.19606 29.225 9.57717 29.5886C9.76465 29.7674 10.02 29.8697 10.2753 29.8697C10.5084 29.8697 10.7242 29.7874 10.8833 29.6356C11.0511 29.4756 11.1386 29.2591 11.1288 29.0238C11.1201 28.7874 11.0153 28.5615 10.834 28.3897C10.5367 28.1062 9.83988 27.7755 9.38847 27.7755Z" fill="#BA9E85"/>
<path d="M9.97189 24.6197C9.2664 25.2927 8.3574 27.1751 9.01479 27.7998C9.67095 28.4269 11.6444 27.5598 12.3498 26.888C13.0541 26.2151 13.0948 25.1621 12.4374 24.5362C11.78 23.9103 10.6761 23.9455 9.97189 24.6197Z" fill="#FFDDBB"/>
<path d="M9.68942 28.0587C9.37985 28.0587 9.14181 27.9834 8.98147 27.8316C8.31298 27.1939 9.20348 25.2903 9.9398 24.588C10.3012 24.2433 10.7921 24.0444 11.2854 24.0444C11.7381 24.0444 12.1587 24.2079 12.4682 24.5044C13.1417 25.1468 13.1022 26.2292 12.3807 26.9174C11.8158 27.4575 10.5442 28.0587 9.68942 28.0587ZM11.2854 24.1315C10.8155 24.1315 10.348 24.3197 10.0039 24.648C9.30831 25.3115 8.42521 27.1751 9.04683 27.7681C9.18744 27.9034 9.40451 27.9716 9.68942 27.9716C10.5232 27.9716 11.764 27.3822 12.3165 26.8539C13.0023 26.1998 13.0417 25.1727 12.4041 24.5656C12.1118 24.2856 11.7146 24.1315 11.2854 24.1315Z" fill="#BA9E85"/>
<path d="M9.54548 26.0328C9.15327 26.4069 8.64881 27.4528 9.01266 27.7999C9.37774 28.1493 10.4742 27.6669 10.8652 27.2928C11.2574 26.9199 11.2784 26.334 10.9145 25.9869C10.5495 25.6386 9.93646 25.6598 9.54548 26.0328Z" fill="#FFC32C"/>
<path d="M9.38847 27.9634C9.20963 27.9634 9.07396 27.9187 8.98022 27.8316C8.58801 27.4563 9.10479 26.3916 9.51304 26.0022C9.71778 25.8069 9.99529 25.6939 10.2753 25.6939C10.5318 25.6939 10.7711 25.7868 10.9475 25.9551C11.1325 26.1316 11.2299 26.3716 11.22 26.6316C11.2102 26.8892 11.0955 27.1351 10.8981 27.3234C10.5824 27.6257 9.86948 27.9634 9.38847 27.9634ZM10.2765 25.7821C10.02 25.7821 9.76588 25.8857 9.57841 26.0645C9.19606 26.428 8.70887 27.4481 9.04682 27.7693C9.12206 27.841 9.23676 27.8763 9.3897 27.8775C9.84112 27.8775 10.5367 27.5469 10.8352 27.2622C11.0165 27.0904 11.1214 26.8645 11.13 26.628C11.1386 26.3939 11.0523 26.1774 10.8846 26.0163C10.7242 25.8645 10.5084 25.7821 10.2765 25.7821Z" fill="#BA9E85"/>
<path d="M5.62419 28.7658C6.32968 28.094 8.30309 27.2258 8.95925 27.8529C9.6154 28.4776 8.7064 30.3612 8.00214 31.033C7.29665 31.7059 6.19278 31.7436 5.53662 31.1177C4.88046 30.4906 4.91993 29.4376 5.62419 28.7658Z" fill="#FFDDBB"/>
<path d="M6.68738 31.6071C6.2335 31.6071 5.81415 31.4435 5.50334 31.1471C4.82992 30.5059 4.86938 29.4235 5.59214 28.734C6.15703 28.1952 7.42864 27.5916 8.28461 27.5916C8.59418 27.5916 8.83223 27.6681 8.99133 27.8199C9.40205 28.2117 9.19484 29.0023 9.0345 29.4388C8.80633 30.0564 8.40424 30.7094 8.03423 31.0624C7.67162 31.4094 7.18197 31.6071 6.68738 31.6071ZM8.28461 27.6799C7.45084 27.6799 6.21007 28.2693 5.65751 28.7964C4.97052 29.4517 4.93228 30.4788 5.56871 31.0859C5.86225 31.3647 6.2594 31.5189 6.68862 31.5189C7.15853 31.5189 7.62598 31.3306 7.9701 31.0024C8.33148 30.6576 8.72492 30.0176 8.94817 29.4094C9.10234 28.9929 9.30338 28.2399 8.9272 27.8811C8.78536 27.7481 8.56952 27.6799 8.28461 27.6799Z" fill="#BA9E85"/>
<path d="M7.10678 28.3603C7.499 27.9862 8.59547 27.5038 8.95932 27.8521C9.32316 28.1991 8.81871 29.245 8.4265 29.6192C8.03552 29.9921 7.42253 30.0145 7.05745 29.6651C6.69237 29.3192 6.71457 28.7345 7.10678 28.3603Z" fill="#FFC32C"/>
<path d="M7.69752 29.958C7.44098 29.958 7.20171 29.8663 7.02657 29.698C6.64422 29.3321 6.66642 28.7192 7.0759 28.3297C7.39288 28.0274 8.10577 27.6897 8.58556 27.6897C8.76316 27.6897 8.90007 27.7332 8.99257 27.8215C9.38602 28.1968 8.86923 29.2615 8.46098 29.6498C8.25501 29.8451 7.9775 29.958 7.69752 29.958ZM8.58432 27.7756C8.1329 27.7756 7.43728 28.1062 7.1388 28.3897C6.76509 28.7462 6.74412 29.3039 7.08947 29.6356C7.24857 29.7874 7.46442 29.8698 7.69629 29.8698C7.95283 29.8698 8.20691 29.7674 8.39438 29.5886C8.77673 29.2239 9.26391 28.2038 8.92597 27.8826C8.85196 27.8109 8.73726 27.7756 8.58432 27.7756Z" fill="#BA9E85"/>
<path d="M12.06 26.2234C11.0622 26.2234 9.02463 26.9399 9.02463 27.827C9.02463 28.7117 11.0622 29.4294 12.06 29.4294C13.0578 29.4294 13.8656 28.7117 13.8656 27.827C13.8656 26.9399 13.0578 26.2234 12.06 26.2234Z" fill="#FFDDBB"/>
<path d="M12.06 29.4729C11.019 29.4729 8.979 28.7281 8.979 27.8281C8.979 26.9257 11.019 26.181 12.06 26.181C13.0812 26.181 13.9113 26.9198 13.9113 27.8281C13.9113 28.7352 13.0812 29.4729 12.06 29.4729ZM12.06 26.2668C11.0757 26.2668 9.07026 26.9881 9.07026 27.8269C9.07026 28.6634 11.0745 29.3858 12.06 29.3858C13.0306 29.3858 13.82 28.6858 13.82 27.8269C13.82 26.9657 13.0306 26.2668 12.06 26.2668Z" fill="#BA9E85"/>
<path d="M10.7119 26.9351C10.1581 26.9351 9.02587 27.334 9.02587 27.8269C9.02587 28.3187 10.1581 28.7163 10.7119 28.7163C11.2657 28.7163 11.7146 28.3187 11.7146 27.8269C11.7146 27.334 11.2657 26.9351 10.7119 26.9351Z" fill="#FFC32C"/>
<path d="M10.7119 28.7599C10.1346 28.7599 8.98021 28.3563 8.98021 27.8269C8.98021 27.2963 10.1346 26.8916 10.7119 26.8916C11.2903 26.8916 11.7602 27.3104 11.7602 27.8269C11.7602 28.3422 11.2891 28.7599 10.7119 28.7599ZM10.7119 26.9786C10.1716 26.9786 9.07147 27.3704 9.07147 27.8269C9.07147 28.2822 10.1716 28.6728 10.7119 28.6728C11.2398 28.6728 11.669 28.294 11.669 27.8269C11.669 27.3598 11.2398 26.9786 10.7119 26.9786Z" fill="#BA9E85"/>
<path d="M5.91278 26.2234C6.91058 26.2234 8.94812 26.9399 8.94812 27.827C8.94812 28.7117 6.91058 29.4294 5.91278 29.4294C4.91497 29.4294 4.10711 28.7117 4.10711 27.827C4.10711 26.9399 4.91497 26.2234 5.91278 26.2234Z" fill="#FFDDBB"/>
<path d="M5.91281 29.4729C4.89157 29.4729 4.0615 28.7352 4.0615 27.8281C4.0615 26.9198 4.89157 26.181 5.91281 26.181C6.95378 26.181 8.99379 26.9269 8.99379 27.8281C8.99379 28.7281 6.95378 29.4729 5.91281 29.4729ZM5.91281 26.2668C4.94214 26.2668 4.15277 26.9657 4.15277 27.8269C4.15277 28.6858 4.94214 29.3858 5.91281 29.3858C6.89704 29.3858 8.90252 28.6634 8.90252 27.8269C8.90252 26.9881 6.89704 26.2668 5.91281 26.2668Z" fill="#BA9E85"/>
<path d="M7.26212 26.9351C7.81591 26.9351 8.94815 27.334 8.94815 27.8269C8.94815 28.3187 7.81591 28.7163 7.26212 28.7163C6.70833 28.7163 6.25938 28.3187 6.25938 27.8269C6.25938 27.334 6.70833 26.9351 7.26212 26.9351Z" fill="#FFC32C"/>
<path d="M7.26212 28.7599C6.68366 28.7599 6.21375 28.3422 6.21375 27.8269C6.21375 27.3116 6.68366 26.8916 7.26212 26.8916C7.83934 26.8916 8.99378 27.2963 8.99378 27.8269C8.99378 28.3563 7.83934 28.7599 7.26212 28.7599ZM7.26212 26.9786C6.73423 26.9786 6.30501 27.3587 6.30501 27.8269C6.30501 28.2928 6.73423 28.6728 7.26212 28.6728C7.80234 28.6728 8.90374 28.2822 8.90374 27.8269C8.90251 27.3704 7.80234 26.9786 7.26212 26.9786Z" fill="#BA9E85"/>
<path d="M10.6675 30.7576C10.6675 29.8058 9.91516 27.8622 8.98643 27.8622C8.05769 27.8622 7.30533 29.8058 7.30533 30.7576C7.30533 31.7094 8.05769 32.48 8.98643 32.48C9.91516 32.48 10.6675 31.7094 10.6675 30.7576Z" fill="#FFDDBB"/>
<path d="M8.98642 32.5236C8.03425 32.5236 7.2597 31.7306 7.2597 30.7576C7.2597 29.7635 8.04166 27.8198 8.98642 27.8198C9.93119 27.8198 10.7132 29.7635 10.7132 30.7576C10.7132 31.7306 9.93859 32.5236 8.98642 32.5236ZM8.98642 27.9057C8.10826 27.9057 7.35096 29.8188 7.35096 30.7576C7.35096 31.6835 8.08482 32.4365 8.98642 32.4365C9.88802 32.4365 10.6219 31.6835 10.6219 30.7576C10.6219 29.8188 9.86582 27.9057 8.98642 27.9057Z" fill="#BA9E85"/>
<path d="M9.92131 29.4717C9.92131 28.9434 9.5032 27.8634 8.98765 27.8634C8.47209 27.8634 8.05398 28.9434 8.05398 29.4717C8.05398 30 8.47209 30.4282 8.98765 30.4282C9.5032 30.4282 9.92131 30 9.92131 29.4717Z" fill="#FFC32C"/>
<path d="M8.9864 30.4717C8.44618 30.4717 8.0071 30.0235 8.0071 29.4705C8.0071 28.9199 8.43015 27.8198 8.9864 27.8198C9.54265 27.8198 9.96571 28.9211 9.96571 29.4705C9.96571 30.0235 9.52662 30.4717 8.9864 30.4717ZM8.9864 27.9057C8.50908 27.9057 8.09837 28.9552 8.09837 29.4705C8.09837 29.9752 8.49675 30.3835 8.9864 30.3835C9.47605 30.3835 9.87444 29.9741 9.87444 29.4705C9.87444 28.9552 9.46372 27.9057 8.9864 27.9057Z" fill="#BA9E85"/>
<path d="M10.6675 24.8951C10.6675 25.8469 9.91516 27.7905 8.98643 27.7905C8.05769 27.7905 7.30533 25.8469 7.30533 24.8951C7.30533 23.9433 8.05769 23.1715 8.98643 23.1715C9.91516 23.1715 10.6675 23.9433 10.6675 24.8951Z" fill="#FFDDBB"/>
<path d="M8.98642 27.834C8.04166 27.834 7.2597 25.888 7.2597 24.895C7.2597 23.9209 8.03425 23.1279 8.98642 23.1279C9.93859 23.1279 10.7132 23.9209 10.7132 24.895C10.7132 25.888 9.93119 27.834 8.98642 27.834ZM8.98642 23.215C8.08482 23.215 7.35096 23.9691 7.35096 24.895C7.35096 25.8339 8.10702 27.7469 8.98642 27.7469C9.86582 27.7469 10.6219 25.8339 10.6219 24.895C10.6219 23.9691 9.88802 23.215 8.98642 23.215Z" fill="#BA9E85"/>
<path d="M9.92131 26.1822C9.92131 26.7105 9.5032 27.7905 8.98765 27.7905C8.47209 27.7905 8.05398 26.7105 8.05398 26.1822C8.05398 25.654 8.47209 25.2245 8.98765 25.2245C9.5032 25.2234 9.92131 25.6528 9.92131 26.1822Z" fill="#FFC32C"/>
<path d="M8.9864 27.834C8.43015 27.834 8.0071 26.7316 8.0071 26.1822C8.0071 25.6304 8.44618 25.1798 8.9864 25.1798C9.52662 25.1798 9.96571 25.6304 9.96571 26.1822C9.96571 26.7316 9.54265 27.834 8.9864 27.834ZM8.9864 25.2668C8.49675 25.2668 8.09837 25.6774 8.09837 26.181C8.09837 26.6963 8.50908 27.7458 8.9864 27.7458C9.46372 27.7458 9.87444 26.6951 9.87444 26.181C9.87444 25.6774 9.47605 25.2668 8.9864 25.2668Z" fill="#BA9E85"/>
<path d="M9.08513 29.1905C9.82012 29.1905 10.4159 28.6222 10.4159 27.9211C10.4159 27.22 9.82012 26.6516 9.08513 26.6516C8.35014 26.6516 7.75431 27.22 7.75431 27.9211C7.75431 28.6222 8.35014 29.1905 9.08513 29.1905Z" fill="#BC0A0A"/>
<path d="M9.08507 29.2329C8.32531 29.2329 7.70862 28.6446 7.70862 27.921C7.70862 27.1963 8.32531 26.6069 9.08507 26.6069C9.8436 26.6069 10.4615 27.1963 10.4615 27.921C10.4615 28.6446 9.84483 29.2329 9.08507 29.2329ZM9.08507 26.6939C8.37588 26.6939 7.79989 27.2434 7.79989 27.921C7.79989 28.5964 8.37711 29.1458 9.08507 29.1458C9.79303 29.1458 10.3702 28.5964 10.3702 27.921C10.3702 27.2434 9.79426 26.6939 9.08507 26.6939Z" fill="#BA9E85"/>
</svg>
