<svg width="48" height="29" viewBox="0 0 48 29" fill="none" xmlns="http://www.w3.org/2000/svg">
<path d="M44.1003 17.349C44.0748 17.2655 44.0468 17.1832 44.0164 17.1021C43.3529 15.2948 41.6491 13.6812 39.3596 12.6472C39.2867 12.3469 39.1955 12.0479 39.0874 11.7534C37.8223 8.314 34.0246 5.18523 29.1746 3.5913C28.4029 3.33743 28.0103 3.0082 27.5121 2.59088C26.8583 2.04257 26.0465 1.36327 24.6732 1.18243L24.6088 1.17316L24.3378 1.15925C23.3182 1.15925 22.5867 1.70292 21.4784 2.52713C20.3275 3.38264 18.4001 4.81661 15.3972 6.27607C13.6485 7.12694 12.1088 8.47626 10.9956 10.12C7.95626 11.1367 5.60716 13.7693 5.12228 16.7323C5.09554 16.8969 5.07368 17.0615 5.06031 17.225C2.82181 17.8846 0.759529 18.9522 0.759529 21.0017C0.759529 21.1199 0.768041 21.237 0.783839 21.3529C0.797207 21.4526 0.815429 21.5372 0.830012 21.5987L0.854322 21.6937C0.871336 21.7575 0.89199 21.8189 0.913865 21.8827C0.928448 21.9233 0.943024 21.965 0.960038 22.0068L0.985572 22.067C1.92861 24.273 5.9839 25.8032 9.22255 26.6981C13.7542 27.9524 19.1378 28.6433 24.3804 28.6433C29.6218 28.6433 35.0053 27.9524 39.5382 26.6981C42.7696 25.8044 46.8152 24.2788 47.7679 22.0809L47.7995 22.0079C47.8165 21.9662 47.8311 21.9244 47.8457 21.8839C47.87 21.8178 47.8906 21.7505 47.9089 21.6833L47.9295 21.5964C47.9441 21.5349 47.9623 21.4515 47.9757 21.3541C47.9915 21.2382 48 21.1211 48 21.0028C47.9976 18.9186 45.7591 17.8776 44.1003 17.349ZM37.9815 23.2042C33.8909 24.2835 29.0603 24.877 24.3779 24.877C19.6956 24.877 14.8637 24.2823 10.7744 23.2042C7.87483 22.4403 6.1917 21.6625 5.32887 21.1373C5.78702 20.9542 6.49065 20.7269 7.55035 20.4881L9.40118 20.0708L9.03296 18.2914C8.97098 17.9889 8.96733 17.662 9.02445 17.3153C9.28695 15.7121 10.71 14.1669 12.4065 13.6429C12.5949 13.5861 12.7772 13.527 12.957 13.469L13.6728 13.2337L14.0398 12.602C14.7908 11.3129 15.9101 10.2592 17.1909 9.63435C20.5305 8.01028 22.6426 6.43836 23.9064 5.50054C24.0984 5.3568 24.305 5.20493 24.4788 5.07974C24.5809 5.15393 24.7158 5.26405 24.9078 5.42402C25.53 5.94568 26.3807 6.65861 27.8876 7.15476C31.5662 8.36383 34.4998 10.6591 35.3602 13.0019C35.4987 13.3786 35.5862 13.7635 35.6202 14.1449L35.7284 15.3459L36.9181 15.7562C38.8297 16.4135 39.9879 17.531 40.288 18.3482C40.3512 18.5198 40.384 18.6856 40.3865 18.8537L40.4096 20.276L41.8496 20.6446C42.5593 20.8255 43.0673 20.9959 43.4258 21.1385C42.5642 21.6624 40.8811 22.4403 37.9815 23.2042ZM44.099 20.6864C44.1003 20.6806 44.1027 20.6748 44.1051 20.669L44.5523 20.8267L44.099 20.6864ZM45.0141 20.9692L44.793 20.8881L45.1612 21.0063L45.0141 20.9692Z" fill="#6B5951"/>
<path d="M43.3407 16.1897C43.3152 16.1063 43.2873 16.0239 43.2569 15.9428C42.5934 14.1356 40.8896 12.5219 38.6 11.4879C38.5271 11.1877 38.436 10.8886 38.3278 10.5942C37.0628 7.15474 33.2651 4.02598 28.415 2.43204C27.6433 2.17817 27.2508 1.84895 26.7525 1.43163C26.0987 0.883312 25.287 0.204011 23.9137 0.0231718L23.8493 0.0139031L23.5783 0C22.5587 0 21.8271 0.543668 20.7188 1.36788C19.568 2.22338 17.6406 3.65735 14.6377 5.11682C12.889 5.96769 11.3492 7.317 10.2361 8.96078C7.19673 9.97742 4.84764 12.61 4.36275 15.573C4.33601 15.7376 4.31415 15.9022 4.30078 16.0657C2.06228 16.7253 0 17.7929 0 19.8424C0 19.9607 0.00851196 20.0777 0.0243102 20.1937C0.037678 20.2934 0.0559 20.378 0.070483 20.4394L0.0947932 20.5345C0.111807 20.5982 0.132461 20.6597 0.154336 20.7234C0.168919 20.764 0.183495 20.8058 0.200508 20.8475L0.226042 20.9077C1.16908 23.1138 5.22437 24.644 8.46302 25.5389C12.9947 26.7932 18.3782 27.484 23.6208 27.484C28.8622 27.484 34.2458 26.7932 38.7787 25.5389C42.01 24.6451 46.0556 23.1196 47.0084 20.9217L47.04 20.8486C47.057 20.8069 47.0716 20.7652 47.0862 20.7246C47.1105 20.6585 47.1311 20.5913 47.1493 20.5241L47.17 20.4371C47.1846 20.3757 47.2028 20.2922 47.2162 20.1948C47.232 20.0789 47.2405 19.9618 47.2405 19.8436C47.238 17.7593 44.9996 16.7183 43.3407 16.1897ZM37.2219 22.045C33.1314 23.1242 28.3008 23.7177 23.6184 23.7177C18.9361 23.7177 14.1042 23.123 10.0149 22.045C7.1153 21.281 5.43217 20.5032 4.56934 19.9781C5.02749 19.7949 5.73112 19.5677 6.79082 19.3289L8.64165 18.9116L8.27343 17.1322C8.21146 16.8296 8.2078 16.5027 8.26492 16.1561C8.52742 14.5529 9.95048 13.0076 11.647 12.4837C11.8353 12.4269 12.0176 12.3678 12.1975 12.3098L12.9133 12.0745L13.2803 11.4427C14.0313 10.1536 15.1505 9.09992 16.4314 8.47509C19.7709 6.85102 21.883 5.2791 23.1469 4.34129C23.3389 4.19755 23.5455 4.04568 23.7193 3.92048C23.8214 3.99467 23.9563 4.1048 24.1483 4.26477C24.7705 4.78642 25.6212 5.49936 27.1281 5.99551C30.8066 7.20458 33.7403 9.49985 34.6007 11.8426C34.7392 12.2194 34.8267 12.6042 34.8607 12.9856L34.9689 14.1866L36.1586 14.5969C38.0702 15.2542 39.2283 16.3717 39.5285 17.189C39.5917 17.3605 39.6245 17.5263 39.6269 17.6944L39.65 19.1168L41.0901 19.4854C41.7998 19.6662 42.3078 19.8366 42.6663 19.9792C41.8047 20.5032 40.1215 21.281 37.2219 22.045ZM43.3395 19.5271C43.3407 19.5213 43.3432 19.5155 43.3456 19.5097L43.7928 19.6674L43.3395 19.5271ZM44.2546 19.81L44.0334 19.7288L44.4017 19.8471L44.2546 19.81Z" fill="white"/>
<path d="M45.0295 19.8449C45.0295 21.8191 35.4435 25.3791 23.6192 25.3791C11.7947 25.3791 2.20885 21.8191 2.20885 19.8449C2.20885 17.8731 11.7947 16.2734 23.6192 16.2734C35.4435 16.2734 45.0295 17.8719 45.0295 19.8449Z" fill="#BCAFB1"/>
<path d="M42.9057 19.4921C42.9057 21.2692 34.2713 24.4779 23.6184 24.4779C12.9655 24.4779 4.32993 21.2692 4.32993 19.4921C4.32993 17.715 12.9655 16.2741 23.6184 16.2741C34.2713 16.2741 42.9057 17.715 42.9057 19.4921Z" fill="#DBD2D3"/>
<path d="M23.6184 25.6015C11.8791 25.6015 1.97355 22.0647 1.97355 19.8436C1.97355 17.3779 13.1247 16.0495 23.6184 16.0495C34.1109 16.0495 45.2633 17.3779 45.2633 19.8436C45.2633 22.0658 35.3577 25.6015 23.6184 25.6015ZM23.6184 16.4958C11.139 16.4958 2.44143 18.2601 2.44143 19.8448C2.44143 21.4294 11.3845 25.1563 23.6184 25.1563C35.8511 25.1563 44.7942 21.4294 44.7942 19.8448C44.7942 18.2601 36.0978 16.4958 23.6184 16.4958Z" fill="#8C8C8C"/>
<path d="M23.6192 23.4176C35.4437 23.4176 45.0295 21.8181 45.0295 19.8449C45.0295 17.8717 35.4437 16.2722 23.6192 16.2722C11.7946 16.2722 2.20885 17.8717 2.20885 19.8449C2.20885 21.8181 11.7946 23.4176 23.6192 23.4176Z" fill="#D3C5C7"/>
<path d="M18.0829 18.6009C16.7814 18.8466 15.4701 18.7226 14.3229 19.337C13.9912 19.5132 13.708 19.7218 13.3605 19.8737C13.1174 19.9792 12.6617 20.0175 12.5037 20.2308C11.7296 21.2787 15.9453 21.7053 16.497 21.7609C18.8582 21.9997 21.2888 22.0832 23.6573 22.1829C26.7149 22.3116 29.7396 22.3568 32.7644 21.9777C33.6345 21.8687 34.5654 21.6299 35.4015 21.5303C35.7928 21.485 36.7626 21.623 36.7941 21.0874C36.8452 20.2423 32.5043 19.8726 31.7071 19.8308C30.4992 19.7671 29.2875 19.73 28.0784 19.6778C26.6371 19.6187 25.2651 19.3961 23.8311 19.3358C22.758 19.2906 21.7019 19.1909 20.6289 19.1457C20.0431 19.1214 19.3942 19.1875 18.9421 18.8559L18.0829 18.6009Z" fill="#B5A9AB"/>
<path d="M23.6192 16.2733C11.7947 16.2733 2.20885 17.873 2.20885 19.8449C2.20885 20.5404 3.39736 21.185 5.44628 21.7344C6.37959 21.1108 7.13425 20.1718 8.22312 19.8426C10.1116 19.2723 12.084 18.921 14.0648 18.7807C18.4021 18.4712 22.8438 18.484 27.1932 18.5593C32.3033 18.6474 36.9748 18.8897 39.6009 22.2225C42.9757 21.5907 45.0295 20.7572 45.0295 19.8449C45.0295 17.8719 35.4435 16.2733 23.6192 16.2733Z" fill="#F4F4F4"/>
<path d="M23.6184 23.6412C13.1247 23.6412 1.97355 22.3104 1.97355 19.8447C1.97355 17.3791 13.1247 16.0506 23.6184 16.0506C34.1109 16.0506 45.2633 17.3791 45.2633 19.8447C45.2633 22.3104 34.1109 23.6412 23.6184 23.6412ZM23.6184 16.4957C11.139 16.4957 2.44143 18.2601 2.44143 19.8447C2.44143 21.4294 11.139 23.196 23.6184 23.196C36.0978 23.196 44.7942 21.4305 44.7942 19.8447C44.7942 18.2601 36.0978 16.4957 23.6184 16.4957Z" fill="#8C8C8C"/>
<path d="M23.6166 2.0752C25.1126 2.27342 25.4164 3.63781 27.7084 4.39014C33.9669 6.44892 39.0381 11.5843 35.4775 16.9469C32.5195 21.4018 28.6806 20.6993 24.7954 19.4172C21.9955 18.4921 19.1846 22.2979 13.7901 19.7267C8.39558 17.1532 10.3376 9.5371 15.6239 6.96362C20.9115 4.3913 22.9446 1.98594 23.6166 2.0752Z" fill="#F495A3"/>
<path d="M23.65 3.1125C25.146 3.31189 24.4751 4.3239 26.7452 5.13768C31.283 6.76639 36.8549 12.8372 34.6419 16.9954C32.1385 21.6983 28.2133 19.0924 24.3293 17.8103C21.5294 16.8852 19.9495 21.3668 14.555 18.7956C9.16053 16.221 11.4999 9.84526 16.7863 7.27178C22.0738 4.69946 22.9792 3.0244 23.65 3.1125Z" fill="#F9B0B7"/>
<path d="M17.5312 20.822C16.2637 20.822 15.0108 20.5183 13.7019 19.8934C11.5716 18.8768 10.3916 17.0232 10.3819 14.6758C10.3685 11.5192 12.4867 8.27803 15.5345 6.79538C18.7051 5.25361 20.7249 3.75126 21.9329 2.85402C22.7738 2.2292 23.238 1.88491 23.5783 1.88491L23.6427 1.88955C24.4302 1.99388 24.9041 2.39034 25.4522 2.84939C26.0052 3.31308 26.6347 3.83936 27.7721 4.21263C32.0656 5.62573 35.3954 8.31046 36.4648 11.219C37.1843 13.1804 36.9072 15.1418 35.6421 17.0476C34.0659 19.4205 32.0814 20.5739 29.5756 20.5751C27.9216 20.5751 26.1984 20.0789 24.7303 19.5944C24.4496 19.5016 24.1592 19.4564 23.8444 19.4564C23.0788 19.4564 22.2926 19.7207 21.3811 20.0268C20.274 20.3989 19.0187 20.822 17.5312 20.822ZM23.588 2.26164C23.3717 2.26164 22.8431 2.65347 22.1747 3.15193C20.9558 4.05729 18.9178 5.57238 15.7132 7.1327C12.7929 8.55391 10.7623 11.656 10.7756 14.6769C10.7841 16.876 11.8864 18.6102 13.8782 19.5608C15.1323 20.1589 16.3269 20.4487 17.5312 20.4487C18.9506 20.4487 20.1732 20.0384 21.2511 19.6767C22.1565 19.3706 23.0132 19.0832 23.8456 19.0832C24.2054 19.0832 24.5371 19.1353 24.8604 19.242C26.298 19.7173 27.9812 20.2018 29.5768 20.2018C31.9696 20.2018 33.7925 19.1365 35.3115 16.8482C36.5086 15.0433 36.7735 13.192 36.0942 11.3442C35.0636 8.54115 31.8262 5.94565 27.6445 4.56965C26.4329 4.17088 25.7451 3.59476 25.1921 3.13223C24.672 2.6952 24.2601 2.34974 23.588 2.26164Z" fill="#E88094"/>
<path d="M20.0139 6.59828C19.5181 6.67594 19.026 7.17211 18.6638 7.48973C18.1036 7.98125 17.4838 8.36725 16.864 8.79153C15.9173 9.44185 15.2927 10.0412 14.7142 11.0045C13.7955 12.5347 13.1028 14.5042 14.2828 16.1109C14.9196 16.9791 15.8517 17.5043 16.909 17.6735C17.8703 17.8277 19.3067 17.932 20.2035 17.5344C21.5598 16.9339 22.2573 15.5452 22.5344 14.2584C22.9804 12.1811 22.6085 9.84411 22.6085 7.72273C22.6085 7.13616 22.8443 5.88304 22.4955 5.40544C21.8927 4.58471 20.6471 5.8726 20.3117 6.37339L20.0139 6.59828Z" fill="#FAC3C8"/>
<path d="M23.9757 5.62571C23.9781 6.84753 24.1969 8.02297 24.1969 9.25059C24.1969 10.2869 24.1422 11.3361 24.1944 12.3678C24.26 13.6881 24.8616 15.8315 26.0598 16.6291C27.7624 17.7616 30.1917 17.8208 31.9404 16.8841C32.8871 16.3775 33.2796 15.8872 33.3696 14.8752C33.434 14.1576 33.4704 13.3519 33.1484 12.7109C32.1908 10.8086 30.1358 9.66561 28.6228 8.18412C27.9568 7.53148 27.2082 6.87997 26.4779 6.28297C25.6697 5.62338 25.2638 5.36141 24.1969 5.36141L23.9757 5.62571Z" fill="#FAC3C8"/>
<path d="M16.0498 13.316C16.7498 13.316 17.3173 12.7747 17.3173 12.1069C17.3173 11.4392 16.7498 10.8979 16.0498 10.8979C15.3498 10.8979 14.7823 11.4392 14.7823 12.1069C14.7823 12.7747 15.3498 13.316 16.0498 13.316Z" fill="#F9DEE1"/>
<path d="M19.286 8.67677C19.6297 8.67677 19.9082 8.41105 19.9082 8.08326C19.9082 7.75546 19.6297 7.48974 19.286 7.48974C18.9424 7.48974 18.6638 7.75546 18.6638 8.08326C18.6638 8.41105 18.9424 8.67677 19.286 8.67677Z" fill="#F9DEE1"/>
<path d="M17.5159 8.15062C18.5829 8.46361 18.6375 9.49067 20.2162 10.2975C24.5291 12.4977 27.6 16.8112 24.3432 20.3248C21.638 23.246 18.9244 22.3036 16.2472 20.9334C14.3186 19.9457 11.7993 22.4091 8.18032 19.9306C4.56008 17.4511 6.91159 12.1105 11.0835 10.8249C15.2579 9.53703 17.0371 8.01036 17.5159 8.15062Z" fill="#F495A3"/>
<path d="M17.4133 8.91094C18.4803 9.22277 17.8678 9.88703 19.4221 10.7333C22.5332 12.428 25.8532 17.4788 23.7278 20.2679C21.324 23.4198 18.7805 21.0782 16.1045 19.7103C14.1747 18.7226 12.4721 21.8166 8.85188 19.3382C5.23165 16.8598 7.72049 12.4663 11.8937 11.1795C16.0681 9.89164 16.9345 8.77067 17.4133 8.91094Z" fill="#F9B0B7"/>
<path d="M10.7756 21.1489C9.85082 21.0063 8.9734 20.6458 8.09477 20.0441C6.66442 19.0634 6.03249 17.5808 6.31321 15.8663C6.69115 13.5618 8.63435 11.4346 11.0393 10.6927C13.5428 9.92065 15.2003 9.05124 16.192 8.53075C16.881 8.16792 17.2626 7.96967 17.5105 8.00792L17.5579 8.01719C18.1194 8.18296 18.4171 8.52496 18.7598 8.92025C19.1074 9.32018 19.5011 9.77344 20.285 10.1745C23.2453 11.685 25.3453 14.015 25.767 16.2558C26.0526 17.7686 25.609 19.1678 24.4521 20.4174C23.0108 21.9731 21.4212 22.5933 19.5935 22.3127C18.3867 22.1284 17.1897 21.5743 16.1786 21.0562C15.9842 20.9576 15.7788 20.8916 15.5491 20.8568C14.9913 20.7722 14.3837 20.8765 13.6813 20.9982C12.827 21.1466 11.8596 21.3135 10.7756 21.1489ZM17.4729 8.28149C17.3149 8.25714 16.881 8.48553 16.333 8.77418C15.3328 9.29815 13.6594 10.1768 11.1305 10.9558C8.82636 11.6664 6.96338 13.7032 6.60245 15.9092C6.33874 17.5147 6.93057 18.9023 8.26613 19.817C9.10708 20.3942 9.94316 20.7397 10.823 20.8742C11.8584 21.033 12.8002 20.8695 13.6327 20.7246C14.3302 20.6041 14.9901 20.4893 15.5977 20.582C15.8602 20.6226 16.096 20.698 16.3184 20.8116C17.3076 21.3182 18.4779 21.8595 19.6421 22.038C21.3884 22.3046 22.8479 21.732 24.237 20.2331C25.3319 19.0495 25.7512 17.728 25.4838 16.3045C25.0767 14.1437 23.0326 11.8867 20.1501 10.418C19.3152 9.99252 18.8838 9.49407 18.5386 9.09529C18.2093 8.71971 17.9517 8.42175 17.4729 8.28149Z" fill="#E88094"/>
<path d="M14.3327 11.0474C13.9608 11.0497 13.5415 11.3569 13.2377 11.5482C12.7686 11.8438 12.2679 12.0559 11.7648 12.297C10.9944 12.6645 10.4645 13.0332 9.92493 13.6719C9.06697 14.685 8.31959 16.0448 8.98312 17.3489C9.34162 18.0537 9.95655 18.5418 10.7076 18.7817C11.3893 19.0008 12.4259 19.2385 13.1283 19.0472C14.1917 18.7609 14.871 17.8254 15.2307 16.9177C15.8116 15.4513 15.8262 13.7055 16.0863 12.1591C16.1592 11.7313 16.4861 10.8422 16.288 10.4539C15.9502 9.78848 14.8832 10.5895 14.5757 10.9176L14.3327 11.0474Z" fill="#FAC3C8"/>
<path d="M17.3416 10.7796C17.1934 11.6722 17.2092 12.5532 17.0585 13.4505C16.9321 14.2039 16.7632 14.9644 16.6744 15.7237C16.5602 16.6951 16.7364 18.325 17.5118 19.0402C18.614 20.0569 20.3798 20.371 21.77 19.883C22.5235 19.6199 22.8698 19.3057 23.0594 18.5765C23.1943 18.0607 23.3207 17.4776 23.1639 16.9733C22.6985 15.4791 21.3398 14.4149 20.4174 13.1653C20.0115 12.6147 19.5461 12.0559 19.0855 11.5389C18.5775 10.9674 18.3126 10.7321 17.5349 10.6115L17.3416 10.7796Z" fill="#FAC3C8"/>
<path d="M10.7635 15.5162C11.2803 15.5162 11.6992 15.1166 11.6992 14.6236C11.6992 14.1307 11.2803 13.731 10.7635 13.731C10.2467 13.731 9.82772 14.1307 9.82772 14.6236C9.82772 15.1166 10.2467 15.5162 10.7635 15.5162Z" fill="#F9DEE1"/>
<path d="M13.6193 12.4883C13.873 12.4883 14.0787 12.2921 14.0787 12.0501C14.0787 11.8081 13.873 11.612 13.6193 11.612C13.3656 11.612 13.1599 11.8081 13.1599 12.0501C13.1599 12.2921 13.3656 12.4883 13.6193 12.4883Z" fill="#F9DEE1"/>
<path d="M34.4402 11.6182C35.2508 11.726 35.4149 12.4632 36.6544 12.8713C40.0413 13.9853 42.7854 16.7628 40.858 19.6655C39.2575 22.0744 37.1806 21.6953 35.0794 21.0009C33.564 20.5001 32.0425 22.5612 29.1247 21.169C26.2069 19.7768 27.2556 15.6557 30.1163 14.2635C32.9771 12.8713 34.0781 11.5695 34.4402 11.6182Z" fill="#F495A3"/>
<path d="M34.4597 12.1788C35.2702 12.2866 34.9069 12.8337 36.1343 13.2742C38.5903 14.1552 41.6053 17.4405 40.4071 19.6905C39.0533 22.2339 36.929 20.8254 34.8279 20.1311C33.3125 19.6303 32.4581 22.0554 29.5391 20.6631C26.6201 19.2709 27.8864 15.8211 30.7459 14.4288C33.6053 13.0378 34.0963 12.1301 34.4597 12.1788Z" fill="#F9B0B7"/>
<path d="M31.1481 21.7621C30.4627 21.7621 29.7846 21.5963 29.0761 21.259C27.9228 20.7084 27.2848 19.7056 27.2787 18.4351C27.2727 16.7276 28.4186 14.9737 30.0665 14.1715C31.7825 13.3357 32.875 12.5231 33.5288 12.0385C33.9833 11.7 34.2348 11.5134 34.4183 11.5134L34.4536 11.5157C34.8801 11.5725 35.1366 11.787 35.4331 12.035C35.7332 12.2866 36.0723 12.5706 36.6884 12.7735C39.012 13.5374 40.8142 14.9888 41.3915 16.5653C41.7816 17.626 41.6321 18.6867 40.9467 19.7195C40.0936 21.0028 39.0205 21.6276 37.6631 21.6276C36.7699 21.6276 35.8365 21.3599 35.0418 21.0967C34.8899 21.0469 34.7331 21.0237 34.563 21.0237C34.1486 21.0237 33.7232 21.1662 33.2298 21.3332C32.6331 21.5337 31.9538 21.7621 31.1481 21.7621ZM34.4256 11.7186C34.309 11.7186 34.0222 11.9319 33.6612 12.2008C33.0026 12.69 31.8991 13.5096 30.165 14.3523C28.5851 15.1209 27.4853 16.8006 27.4938 18.434C27.4975 19.6233 28.0954 20.5635 29.1721 21.0758C29.8502 21.4004 30.4967 21.5569 31.1481 21.5569C31.9161 21.5569 32.5772 21.3355 33.1606 21.1384C33.6503 20.9738 34.1133 20.8185 34.5642 20.8185C34.7586 20.8185 34.9385 20.8463 35.1122 20.9054C35.89 21.1616 36.8015 21.4236 37.6643 21.4236C38.9597 21.4236 39.9453 20.8463 40.7668 19.6106C41.4158 18.6333 41.558 17.6318 41.191 16.6325C40.6331 15.1139 38.882 13.7101 36.6192 12.9659C35.9641 12.7503 35.5923 12.4396 35.2933 12.1892C35.0126 11.9527 34.7902 11.7661 34.4256 11.7186Z" fill="#E88094"/>
<path d="M32.4922 14.0637C32.2236 14.1066 31.9574 14.3767 31.7606 14.5471C31.4568 14.8125 31.1214 15.0212 30.7859 15.2519C30.2743 15.6031 29.9365 15.9265 29.6229 16.447C29.1247 17.2759 28.7504 18.3412 29.3884 19.2118C29.7335 19.6801 30.2379 19.9653 30.809 20.0569C31.3292 20.1403 32.1069 20.1971 32.5918 19.9827C33.3258 19.6581 33.7038 18.9057 33.8532 18.2102C34.0951 17.0846 33.8934 15.8211 33.8934 14.6734C33.8934 14.357 34.0209 13.6776 33.8326 13.4191C33.5057 12.9752 32.8324 13.673 32.6502 13.9443L32.4922 14.0637Z" fill="#FAC3C8"/>
<path d="M34.6359 13.5385C34.6371 14.1993 34.7562 14.8357 34.7562 15.4988C34.7562 16.0599 34.727 16.6267 34.755 17.1855C34.789 17.9007 35.1159 19.0599 35.7636 19.4912C36.6848 20.1044 37.9997 20.1369 38.9464 19.6291C39.4592 19.3555 39.6719 19.0889 39.7193 18.5418C39.7545 18.1523 39.774 17.7164 39.6002 17.3698C39.0825 16.3404 37.9705 15.7214 37.1515 14.9204C36.7905 14.5668 36.3858 14.2156 35.9909 13.8921C35.5534 13.5339 35.3334 13.3936 34.7562 13.3936L34.6359 13.5385Z" fill="#FAC3C8"/>
<path d="M30.3473 17.7002C30.7258 17.7002 31.0326 17.4075 31.0326 17.0464C31.0326 16.6853 30.7258 16.3926 30.3473 16.3926C29.9687 16.3926 29.6618 16.6853 29.6618 17.0464C29.6618 17.4075 29.9687 17.7002 30.3473 17.7002Z" fill="#F9DEE1"/>
<path d="M32.0984 15.1905C32.2843 15.1905 32.4351 15.0467 32.4351 14.8693C32.4351 14.692 32.2843 14.5482 32.0984 14.5482C31.9125 14.5482 31.7618 14.692 31.7618 14.8693C31.7618 15.0467 31.9125 15.1905 32.0984 15.1905Z" fill="#F9DEE1"/>
</svg>
